<svg xmlns="http://www.w3.org/2000/svg" width="704" height="697.333" viewBox="0 0 528 523" preserveAspectRatio="xMidYMid meet"  xmlns:v="https://vecta.io/nano"><path d="M144.5 38.9c-1.6.5-4.7.9-6.8 1-2 0-4.5.5-5.5 1-.9.5-2.8 1.3-4.2 1.9-1.4.5-4.1 1.7-6.2 2.6-2 .9-4.1 1.6-4.7 1.6s-1.1.4-1.1 1c0 .5-1.3 1-2.9 1s-3.7.7-4.6 1.6c-.8.9-2.2 1.4-2.9 1.1-.8-.3-2.2.3-3.1 1.3s-2.8 2.1-4.3 2.5c-1.4.3-3.8 1.5-5.3 2.6-1.5 1-3 1.9-3.3 1.9C88.7 60 79 70 79 70.9c0 .4-1.6 2.5-3.5 4.7-1.9 2.1-4.2 5.2-5.1 6.9-2.5 4.8-3.9 7.2-5.1 8.6-.6.8-2 4.5-3.2 8.4-1.2 3.8-2.9 8.3-3.7 9.8-.8 1.6-1.4 4.1-1.4 5.7s-.5 3.2-1 3.5c-.6.4-1 1.2-.9 1.8.1.7 0 1.9-.4 2.7-3.9 10.1-3.8 20.2.3 52 .7 4.7 1.2 9.1 1.2 9.7.1.7.6 1.3 1.1 1.3.6 0 .8.2.5.5s.5 4.3 1.9 8.8L64 210c1 3.6 2.7 8.6 3.8 11 1 2.5 1.7 5 1.5 5.6s.4 2.8 1.4 5c1.9 4.4 7.2 23.4 7.8 27.9.2 1.6 1.1 6.1 1.9 9.8 2.7 11.6 4.4 29.3 5.1 51.7.3 11.8 1 23.1 1.5 25s1.1 7.3 1.4 12 .7 9.4.9 10.5c.3 1.1.8 4.7 1.1 8 .8 7.2 2.6 17.4 3.4 19.5.3.8.6 1.7.7 2s.4 1.2.8 2c.3.8 1.3 3.7 2.2 6.5.9 2.7 2.5 6.2 3.5 7.7 1.1 1.5 2 3.2 2 3.9 0 .9 3.4 7.8 12.6 25 .7 1.4 2.5 3.6 3.9 4.9s2.5 2.6 2.5 2.9c0 .4 2.7 3.5 6.1 7.1s6.4 7.3 6.8 8.2c1 2.6 21.1 22.7 23.5 23.4 1.1.3 2.8 1.2 3.6 1.9 3.1 2.6 16.6 5.4 26.6 5.6 24.7.3 68-.6 73.4-1.6 1.4-.3 5.9-.7 10-.9 40.9-2.6 47.5-3.4 62.5-7.7 10-3 20.3-7 21.6-8.6.6-.7 1.5-1.3 2-1.3 1.2 0 11-6.1 15.9-9.9 5.7-4.5 10.4-9.3 15.5-15.6 2.2-2.7 5.2-6.1 6.8-7.6 1.5-1.4 2.7-3.1 2.7-3.8 0-.6.4-1.1 1-1.1.5 0 1.6-1.4 2.5-3 .9-1.7 1.3-3 1-3-.4 0 .1-1 .9-2.2.9-1.2 1.6-2.9 1.6-3.6 0-.8.9-2.5 2-3.9s2-3.6 2-4.9c0-1.2.5-2.6 1-2.9.6-.4.8-1.1.4-1.6-.3-.5-.1-1.5.4-2.2.7-.8.9-7.2.7-16.7-.3-15.2.3-18.8 2.9-17.3.6.3.8.3.4-.2-.4-.4-.1-1.3.8-1.9 1.1-.9 1.3-2.2.8-5.4-.4-2.3-1.1-4.2-1.6-4.2-.6 0-.7-1.6-.4-3.8.4-2 .8-9.6 1-16.9.3-12.6.5-13.3 3-16.3 1.4-1.7 2.6-3.8 2.6-4.6s1.1-4.1 2.5-7.3c1.7-4.1 2.4-7.6 2.3-11.3-.1-3.4.6-6.9 1.9-9.8 1.2-2.5 2.7-8 3.3-12.3.7-4.3 1.7-8 2.1-8.3.5-.3.9-2 .9-3.9s.4-3.7 1-4 1-1.5 1-2.6c0-1 .3-1.9.8-1.9.4 0 1.3-1.5 2.1-3.2.7-1.8 2.4-4.9 3.6-6.8 1.2-2 2.6-5.1 3-6.9s1.3-3.5 2.1-3.8 1.4-1.7 1.4-3.2c0-3.6 1.9-10.1 3-10.1.4 0 1.1-3.9 1.5-8.8.3-4.8 1.5-13.2 2.5-18.7 1.4-7.6 1.9-14.8 2-29.5l.3-21c.4-3.4-1.5-35.9-2.4-41-1.1-5.9-5.8-19.1-7.2-20.1-.4-.3-.5-1.3-.1-2.2.3-1 .1-1.7-.5-1.7s-1.1-.5-1.1-1c0-2.6-12.9-13.6-18.2-15.6-1-.3-1.8-1-1.8-1.5s-.7-.9-1.5-.9-1.5-.4-1.5-.9-1-1.1-2.3-1.5c-1.2-.3-3.2-1.5-4.5-2.6-1.2-1.2-2.7-1.8-3.2-1.5-.6.3-1 .2-1-.2 0-1-8.6-3.8-11-3.6-.8.1-2.3-.4-3.5-1-1.1-.6-4-1.4-6.5-1.8s-7-1.4-10-2.2c-4.6-1.3-11.3-2.5-14.2-2.7-.5 0-.8-.7-.8-1.5 0-2.1-3.6-5.5-6-5.5-1 0-2.8 1-4 2.2-1.8 1.9-3.3 2.2-11.3 2.5-10.7.4-34.7 3.2-36.2 4.3-.5.5-4.4 1.1-8.7 1.4-4.2.4-10.3 1.6-13.5 2.7-6.9 2.5-18 4-24.3 3.3-2.5-.3-8.1-.7-12.5-.9-9.3-.5-16.3-1.3-17.4-1.9-.4-.3-4-1.2-8.1-2-4-.9-8-2.2-8.9-2.9-1.6-1.4-6.2-3-9.1-3.2-.8 0-1.4-.5-1.3-1 .1-.6-1.3-1.1-3-1.1-3.6-.2-12.9-2.5-13.7-3.4-1.6-1.9-40.2-4.5-45.5-3.1zM168 49.4c8.9.7 26 3.8 30.5 5.7 3.8 1.5 20.1 6.7 26.5 8.5 3.6.9 7 2.1 7.6 2.6 2.2 1.7 38 3 44.9 1.7 1.7-.4 5.7-1 9-1.4s6.5-1.2 7.1-1.7c.7-.5 1.6-.8 2-.6.8.1 7.7-1.2 20.4-4 5.4-1.2 6.6-.5 7.6 4.1.9 4 .8 4.4-2.6 7.6-4.7 4.5-9.9 5.8-12.2 3.1-.9-1.1-1.8-2.5-2-3.1s-2.2-1.3-4.6-1.6l-4.2-.6-2.1 4.9c-1.2 2.7-2.2 6.4-2.3 8.3-.1 2.7-.8 3.9-3.1 5.2-3.2 1.9-8.6 2.3-12 1-5.6-2.2-8.9 4-5.7 10.7l1.9 4.1-3.4 3.3c-4.4 4.2-5.8 7.5-3.9 9.3 2.2 2.2 6 1.3 9.6-2.3 2.3-2.3 3.6-3 4.3-2.3.6.6 1.7 1.1 2.5 1.1s2.6.8 4 1.9c3.6 2.4 6.6 1.8 10.8-2.3 3.3-3.2 3.5-3.9 4-11.2.6-10.8 4.2-13.8 12.7-10.8 3.5 1.3 5.1 1.3 9.4.3 6.1-1.4 8.9-4.6 9.9-11.1 1-6.6 1.8-7.2 7.2-5.1 5.6 2.2 11.9.6 11.8-3-.1-2.5-2.3-4.6-4.8-4.7-.9 0-2-.5-2.3-1.1-.9-1.4 2.5-5.1 4.1-4.5.7.3 2.4-.4 3.9-1.5 2.1-1.7 3.5-2 8.1-1.5 3.1.3 8.2 1.2 11.3 2 8.7 2.2 15.1 3.6 21.4 4.7 11.1 2 38.2 17.6 42.4 24.4 4 6.6 7.5 15.7 8.9 23 .8 4.6 2.6 38.1 2.7 48.5 0 11.4-1.7 33.9-2.9 38.9-2 8.3-2 8.3-3 17.1-.9 8.9-.7 7.7-2.5 12a41.74 41.74 0 0 0-2.3 6.4c-.4 1.6-2.5 6.6-4.7 11.1-2.1 4.5-3.9 8.7-3.9 9.3s-.4 1.2-.8 1.4c-1.3.5-5.2 7.8-5.2 9.8 0 1-.4 2.1-.9 2.4-.4.3-1.1 3.4-1.5 6.8-.3 3.5-1.5 9.1-2.5 12.4-1 3.4-2.7 10.4-3.7 15.5-1 5.2-2.2 9.5-2.6 9.7-.5.2-.8 1.2-.8 2.3 0 1-.5 1.9-1 1.9-.6 0-1 .6-.8 1.2.1.7-.6 2.8-1.6 4.7-2.7 5.1-5.5 16.1-6.1 23.8-.6 9-.7 9.3-1.7 9.3-.5 0-.7 1.9-.4 4.2 1.2 9.1 2.5 29.7 2.6 39.1 0 8-.5 11-2.6 17l-3.2 9.2c-1.1 3.7-19.3 26.1-24.9 30.5l-6.3 5.1c-2.5 2-6.3 4.5-8.5 5.6-6.8 3.4-9.8 5.1-10.4 6s-8.4 3.4-18.6 5.8c-6.5 1.6-20.9 3.1-37.5 4-5.8.3-13.6 1-17.5 1.5-11.1 1.5-23 2-53 2-32.3.1-46.1-.9-50.2-3.7-1.6-1.1-4.8-3-7.3-4.2-2.5-1.3-5.8-3.8-7.5-5.5-9.4-10-18.9-20.8-22.9-26.1l-6.3-8.1c-1.6-1.8-18.3-34.7-20.3-39.9s-2.9-8.4-3.4-12.7c-.3-2.7-.8-5.9-1.2-7.3-.4-1.7-.2-2.5.6-2.5 1.8 0 3.9-3.1 4-5.6 0-1.2-.6-3.7-1.4-5.5-.7-1.9-1.6-6.4-1.9-10.1-.6-6-.4-6.9 1.3-7.8 1.1-.6 2-1.8 2-2.7 0-1.8 2.8-4.2 5-4.2.8-.1 2.6.8 4 1.9s3.1 2 3.8 2 2.8 1.1 4.6 2.5c2.7 2 4.6 2.5 10.7 2.7 7.2.3 7.4.2 7.7-2.1.5-3.2-3.3-6.2-6.6-5.4-2.1.5-6.9-1.1-8.2-2.8-.3-.4-2.2-1.4-4.2-2.2-2.1-.9-3.8-2.2-3.8-3 0-.7 2-3.5 4.5-6.1 2.5-2.7 4.5-5.5 4.5-6.2 0-1.9 1.9-2.1 7.3-.7 3.1.8 6.2 1 8.1.5 2.6-.7 3.1-1.3 3.1-3.8 0-2.4-.6-3.1-3.4-4-4.9-1.6-6.8-6.4-2.5-6.4.8 0 1.4-.6 1.4-1.3 0-.8 2.1-1.3 6.6-1.4 5.6-.1 6.8-.5 8.2-2.4 2.7-3.7 3-5.2 1.7-8.3-1.6-3.7-3.9-4.1-6.2-1-1 1.3-2.2 2.4-2.7 2.4-1.3 0 .2-6.1 1.9-8 .8-.9 1.6-3 1.9-4.6.8-6.9 2-8.1 9-9.5 3.6-.7 6.6-1.8 6.6-2.4 0-2.3-3.6-4.3-9.2-5-3.2-.3-6-1-6.2-1.3-1.2-2 6.6-7.2 10.8-7.2.9 0 4 2 7.1 4.5 3 2.5 5.5 4.1 5.5 3.6s1-1.1 2.3-1.3c3.3-.5 3.5-4.1.2-5.6-2.6-1.2-3.3-4-1.4-5.9.9-.9.7-2-.8-4.5-1.7-3-2.4-3.3-6.9-3.4-2.7-.1-7.6-1.1-10.9-2.3l-6.2-2.1c-1.1 0-2.9 6.9-2.2 8.7s0 2.9-4.1 6.7c-3.7 3.2-4.8 4.9-4.3 6.2.5 1.4.2 1.6-1.9 1.1-2.7-.7-9.4 2.3-9.2 4.2.1.6.2 1.7.3 2.4 0 .7 1.9 2.3 4.1 3.6 4.3 2.4 4.6 3.1 2.9 6.2-.8 1.6-.7 2.5.5 3.8 1.3 1.4 1.4 2.2.4 4.9-1.4 3.7-1.4 3.7-6 1.8-4.5-1.9-7.8-1.1-7.8 2 0 1.5 1 2.9 3 4.1 5.6 3.2 2.3 11.3-4.6 11.3-4 0-5.8 2-4.9 5.8.5 2.4.1 3.3-1.8 4.9-1.3 1-3.2 3.3-4.1 5.1-2.1 4-5.9 4.2-6.4.4-.5-3.2-4.7-4.7-7.8-2.7-1.3.8-2.7 1.5-3.2 1.5s-1-6.6-1.1-14.7c-.1-8-.4-14.9-.6-15.3s-.7-3.3-1-6.6c-.3-3.2-.8-7.3-1.1-8.9-.3-1.7-.6-4.1-.8-5.5s-.6-3.2-.9-4-.7-2.9-1-4.5c-.5-3.8-2.6-12.1-3.9-16-.6-1.7-2.1-6.8-3.3-11.5L79 224l-2-6.5-3-10c-1.2-3.9-3-10.2-4-14-1-3.9-2.4-8.6-3-10.5-1.3-4.2-1.9-8.1-2.7-17.5-.9-12-1.1-36.9-.3-38 .5-.6 1.4-3.3 2-6 .7-2.8 1.9-6.5 2.7-8.3.8-1.9 1.6-4.6 1.8-6 .5-3.4 5-13.8 6.4-14.7.6-.3 1.1-1.3 1.1-2.1C78 89 83.5 81 86.4 78c6.2-6.2 11.5-11 12.2-11 .4 0 3.7-1.5 7.3-3.4 3.6-1.8 8-3.7 9.8-4 1.7-.4 3.7-1.4 4.4-2.2.6-.8 1.9-1.4 2.8-1.4s2.1-.4 2.6-.9c.6-.6 2.9-1.5 5.3-2l8.5-2.2c4.9-1.3 14.3-2.5 17.2-2.3 1.1.1 6.3.5 11.5.8zm153.4 51.5c-1.7 2-2.8 4.3-2.8 6.4-.1 2.9.2 3.2 3.9 3.8 2.2.4 4.4.3 5-.2 1.9-1.9 8.5-.8 15.7 2.5l12 5.5c2.6 1.2 6 3.7 7.5 5.6s3.1 3.5 3.4 3.5c.7 0 8.9 8 8.9 8.7 0 .2 1.6 1.9 3.5 3.7 1.9 1.9 3.5 3.8 3.5 4.5 0 .6.5 1.1 1 1.1.6 0 1 .8 1 1.8s.4 2.2.9 2.7c.5.6 1.6 3.4 2.6 6.4 3.4 10.5.5 28-5.9 36.1-7.2 9-19.7 19.5-30.6 25.7-4 2.2-15.7 5.6-16.8 4.9-.4-.2-2.7-.5-5.2-.7s-5.2-.6-6-1-2.7-1.2-4.2-1.8c-6.5-2.6-8.3-3.8-13.2-9.2-5.7-6.1-8.6-11.3-8.6-15.2 0-1.4-.4-2.7-1-2.9-3.4-1.1-3.7-27.9-.3-37 1.7-4.6 6.3-11.9 9.3-14.8.3-.3 1.3-1.7 2.2-3.1 2.2-3.4 8.3-5.1 17.4-4.8 7.1.3 7.5.5 10.6 4 8.5 9.3 14.8 24.2 12.7 29.8-.6 1.4-3.1 4.6-5.6 6.9-4 3.8-5.1 4.3-7.9 3.9-4.7-.8-8.4-3.5-8.4-6.3 0-1.2-.4-2.6-1-2.9-1.5-.9 0-6.5 3.2-12.2 3.5-6.2 3.3-9.3-.4-11.1-3.3-1.6-5.4-.5-8.7 4.6-6.4 9.8-6.9 27.1-.9 32 1.1.9 2.5 2.2 3.2 2.8 2.8 2.7 6.6 3.7 13.6 3.8 6.9.1 7.9-.2 12.2-3.2 11.2-7.8 13.1-15 8.4-31.6-.9-3.3-1.8-6.7-1.9-7.5-.5-2.8-4.7-10.2-6.1-10.7-.8-.3-2.2-2-3.2-3.9-1-1.8-2.9-3.9-4.3-4.6a28.95 28.95 0 0 1-4.5-2.9c-1.4-1.2-4.4-1.5-14.2-1.4-11.8.1-12.6.3-16.4 2.9-2.2 1.5-4 3.1-4 3.6 0 .4-1.3 2-3 3.6-1.6 1.5-3 3.3-3 3.9s-.7 1.7-1.5 2.4-1.5 2-1.5 3-.7 2.1-1.6 2.4c-.8.3-1.2 1-.9 1.6.3.5.1 1-.4 1-.6 0-1.1.7-1.1 1.5s-.4 1.5-1 1.5c-.5 0-1 .7-1 1.5s-.7 3.5-1.6 6c-2.8 8.3-1.5 35.3 2.1 42.1.8 1.6 1.5 3.4 1.5 4s1.3 2.8 3 5c1.6 2.1 3 4.4 3 5s2.3 3.6 5.2 6.5c3.7 3.9 7.7 6.6 14 9.6l8.9 4.2 10.2-.3c12-.4 19.7-1.5 19.7-2.8 0-.5.4-.7.8-.4.5.3 2.2-.4 3.8-1.4 1.6-1.1 3.8-2.5 4.9-3.2 3.3-2.2 15.9-12 18.4-14.5 1.3-1.3 2.8-2.3 3.2-2.3.5 0 .9-.4.9-.9 0-.4 1.5-2.5 3.4-4.4 4.8-5.1 9.5-15.6 11.1-24.9 1.7-9.2.7-20.1-2.3-27.1l-3.6-8.4c-1-2.3-2.8-5-4-6.1-3.3-3-5.8-6.3-5.2-6.9.3-.3-1.4-1.9-3.7-3.6-2.3-1.6-6.4-5.2-9-8-6.7-7-25-16.4-36.7-18.8-2.5-.6-5.7-1.2-7.2-1.5-2.1-.5-3.2.1-5.4 2.5z"/><path d="M152.9 112.8c-.8.3-2.6 1.6-4.1 3-3.2 2.9-3.7 7.2-1.2 9.3 1.3 1.1 2 1.1 4.3-.2 4.4-2.5 16.8-1.2 34.6 3.7 3.3.9 7 1.9 8.2 2.1 1.2.3 2.8 1.1 3.4 1.9s1.6 1.4 2.1 1.4c2.5 0 15.7 7.1 19.6 10.5 6.3 5.5 9.3 10.8 10.2 18.1 1.1 8.7-.4 15.4-5.4 24.1-3.5 6.2-17 18.3-20.4 18.3-1.1 0-2.5.7-3.2 1.5s-2.3 1.5-3.6 1.5-2.4.6-2.4 1.3c0 1.4-11.5 5.6-18 6.4-10.7 1.4-20.3.7-26.8-2-7.4-3-10.4-5.2-18.6-13.2-6.8-6.8-10.6-13.5-10.6-18.7 0-1.9-.4-3.8-.9-4.4-1.3-1.4-3.4-15.9-2.7-18.6s7.2-9.8 9-9.8c.7 0 2.1-.9 3.1-2 1-1.2 2.5-1.8 3.2-1.6.7.3 1.5.1 1.8-.4 1.2-1.9 8.4-2.1 14.4-.4 3.4.9 6.4 2.1 6.7 2.5.3.5 1.2.9 2.1.9s3.8 1.4 6.4 3c5.4 3.6 11.3 12.4 12.4 18.9.6 3.8.3 4.5-4.1 10.3-7.4 9.6-8.5 10.5-14.1 11.3-5.9.8-12.3-1.6-16.2-6.1-2-2.2-2.2-3.3-1.7-6.8l1-5.6c.1-.8 1.7-2.9 3.4-4.7 2.7-2.6 3.1-3.7 2.6-6-.9-3.8-3.3-6.3-5.9-6.3-2.5 0-7.9 5.3-7.3 7.2.3.7-.6 2.6-1.8 4.1-1.4 1.7-2.4 4.2-2.4 6.1 0 1.8-.7 4.1-1.5 5.2-3.6 4.8-.4 10.7 10.3 18.6 7 5.2 14.4 7.2 21.5 5.7 2.8-.6 5.9-1.7 6.8-2.5.8-.8 2-1.4 2.5-1.4 1.3 0 12.6-12.1 14.5-15.5 2.8-5.1 3.2-9.1 1.4-16.3-1-3.7-2.6-8.4-3.6-10.4-2.3-4.6-12.4-14.9-16.4-16.7-1.6-.7-4.2-2-5.7-2.7-1.4-.8-3.7-1.4-5-1.4-1.2-.1-3.4-.7-4.8-1.5-2.8-1.6-15.1-2-17.8-.6-.9.5-2.4 1.2-3.2 1.5-.8.4-2.7 1.4-4.1 2.4l-6.5 4.3c-5.7 3.9-10.1 9.2-11.4 13.7-.8 3.3-.6 6.7 1.4 18.6 1.4 8 3 15.4 3.6 16.5.5 1.1.9 2.4.8 2.8-.5 1.4 6.1 11.7 9.4 14.9 1.8 1.7 6.2 5 9.8 7.4 3.6 2.3 7.4 5.1 8.6 6.2 1.1 1 2.9 2.1 4 2.3 1 .2 3.7.9 5.9 1.5 6.2 1.7 7.8 2 11.1 2.4 3.4.4 18.9-1.1 21.4-2.1s4.4-1.4 6.2-1.4c.9 0 2.2-.7 2.9-1.5.6-.8 1.9-1.4 2.8-1.4 1.5 0 18-7.7 19.1-9 .3-.3 3-2.4 6-4.7 6.1-4.7 8.6-7.3 10.2-10.9.6-1.3 1.5-2.4 1.9-2.4 1.1 0 6.1-10.9 5.4-11.9-.2-.5.2-2.6 1.1-4.7 1.3-3 1.5-6 1.1-12.6-.2-4.9-.9-9.4-1.4-10-.5-.7-1.5-3.1-2.1-5.3-.6-2.3-2.4-5.5-3.9-7.2-3.8-4.1-16-13.3-17.9-13.3-.7 0-1.4-.4-1.4-.9s-1.4-1.2-3-1.6c-1.7-.4-2.7-1.1-2.4-1.6.3-.6 0-.9-.8-.7-.7.2-3.4-.5-5.8-1.6-10-4.1-10.9-4.4-19.5-6.2-12.7-2.7-27.2-5-28.6-4.6zm117.9 111.8c-.3.3-6 .7-12.6.9-6.5.1-12.9.8-14.1 1.4-3 1.6-3 7.6.1 9.2 2.5 1.3 15.5 1.6 24 .5 3.2-.4 6.6-.5 7.7-.1 2.1.6 2.6 3 4.1 19.5l1.5 17c.4 3.6.6 6.9.6 7.5 0 .5-.3 11.3-.5 23.8-.5 21.6-.4 22.9 1.4 24.7 2.8 2.8 7.6 2.6 9.2-.3 2.1-3.9 2.8-12 1.1-13.9-1.2-1.4-1.3-2.3-.5-4.8.7-1.8.8-4 .3-5.3-.4-1.2-.5-7.1-.1-13.1.4-6.2.3-12.4-.2-14.3s-.6-4.7-.3-6.3c.3-1.5.2-4.6-.4-6.7-.9-3.3-1.8-17.5-2-32.1-.1-6.5-2.4-8.2-11.4-8.2-4.1 0-7.6.3-7.9.6zM156 343.2c-3 1.5-5.1 2.8-4.6 2.8s-1.2 1.4-3.7 3.1c-2.6 1.7-4.7 3.7-4.7 4.5s-.4 1.4-.9 1.4c-1.1 0-9.4 11.4-9.8 13.7-1.2 6-1.1 18.3.2 22.9 1.5 5 8.1 16.4 9.5 16.4.4 0 1.5 1.7 2.4 3.7 3.4 7.8 10.2 15.4 18.5 20.7 3.7 2.3 15.5 7.2 21.6 8.9 3.8 1.1 5.5 2 5.5 2.8 0 .5.6.9 1.3.7 1.4-.2 8 1.8 11.7 3.7 6.7 3.5 13.9 4.6 30 4.7 6.1 0 11.5-.5 14.9-1.6 3-.9 6.6-1.6 8-1.6 1.3 0 3.8-.4 5.5-.9s8.5-1.7 15-2.5c8-1.1 13.6-2.4 17.2-4.1 2.9-1.4 5.8-2.5 6.4-2.5s2.1-.6 3.3-1.4 5.9-2 10.5-2.6c10.2-1.4 10.6-1.5 12.2-4.6.8-1.3 2.4-2.7 3.7-3 1.3-.4 2.3-1 2.3-1.4 0-.7 1.5-1.4 15-6.1 12.9-4.5 21-16.1 18.2-26.5-.7-2.4-1.2-5.4-1.2-6.5 0-2.7-3.5-8.4-7.5-12.4-5-5-22-12.5-28.3-12.5-1.8 0-3.2-.5-3.2-1 0-.6-1.3-1-2.9-1s-4-.4-5.3-.9c-2.1-.8-15.6-2.4-19.8-2.3-3.1 0-18.7 1.2-22.5 1.7-2.2.3-10.3.6-18 .6-11 .1-16.1-.3-24-2.1l-14.5-3.1c-6.1-1.2-15.3-4-16.6-5.1-.6-.4-3.6-1.5-6.5-2.4-3-.9-5.8-2-6.4-2.4-2-1.6-13.2-3.9-20-4.2-6.1-.3-7.8 0-12.5 2.4zm16 7.7c3.6.5 7.9 1.5 9.5 2.2 1.7.7 5.3 2 8 2.9 4.8 1.5 5 1.7 5.2 5.5.2 4.6-2.6 16.5-3.8 16.5-.5 0-.9.4-.9 1 0 2.1-4.1 5-7.1 5-6.1 0-15.9-11.1-15.9-17.9 0-1-.7-2.4-1.5-3.1-.9-.7-1.3-1.5-1.1-1.8.3-.2-.4-1.6-1.4-3-2.5-3.1-2.5-5.8-.2-7.1 2-1.2 1.2-1.2 9.2-.2zm55.5 16.1c7.6 1.4 11.4 2.5 12.3 3.7 1.1 1.5 1.1 1.9-.2 2.1-1 .2-1.4 1.8-1.3 6.3.2 5.9.1 6.2-3.9 9.7-8.7 7.9-12 9.5-14.5 6.9-.8-.7-2-1.2-2.8-.9-1.7.6-7.2-6.2-9.2-11.5-1.2-3-1.5-6.2-1.2-11 .6-9.5.5-9.2 5.5-8.2 2.4.5 9.3 1.8 15.3 2.9zm-75.9-.3c.4 1.6 1.5 3.6 2.6 4.6 2.4 2.3 3.6 5.3 3.8 9.8.4 7.1.2 7.5-4 8.8-2.1.6-4.6 2.2-5.5 3.4l-1.5 2.2-2.5-3c-2.3-2.8-2.4-3.7-2.1-11.5.2-5.9.9-9.6 2.2-12 3.1-5.8 6-6.7 7-2.3zm139.7 2.9c.3.4-.1 2.3-.9 4.3l-1.6 4.1c0 .3-.4 1.5-.9 2.8s-.9 2.6-.9 3c-.2 2.2-6.3 7.4-11.5 9.6l-8.7 4.1c-7 3.6-11.7-3-12.1-16.8-.2-9.5-2.6-8.3 18.5-9.5 7.5-.4 14-1 14.4-1.5.9-.9 2.8-.9 3.7-.1zm23.2.8c3 0 5.5.4 5.5.7s3.4 1.4 7.6 2.4c4.3 1 7.8 2.4 8.1 3.2.8 2.1-6.6 9.2-9.7 9.3-1.4 0-3.4.6-4.5 1.4-2.5 1.6-7.6 3.2-13.3 4.1l-4.4.7.2-4.3c.1-2.4.1-4.6 0-4.9-.5-1.1-.7-10.6-.3-12.3.3-1.3 1.1-1.5 2.9-1.1 1.4.4 4.9.7 7.9.8zm37.7 18.3c1.7 3 2.1 5 1.9 9.9-.1 3.3-3.8 8.4-6 8.4-2.1 0-7.1-3.3-7.1-4.7 0-.8-.7-1.6-1.5-1.9-.8-.4-1.5-1.4-1.5-2.4 0-2.1 8.9-11.7 11-11.9.9 0 2.3 1.1 3.2 2.6zm-167.4 10.5c6.6 7.7 6 13.1-2.4 22.1l-6.2 6.5-3.5-2.4c-2-1.3-4-2.4-4.4-2.4-1.7-.1-8.1-6.9-11.1-11.9-3.5-5.6-4-7.6-1.7-6.7.9.3 2.4-.3 3.4-1.3s3.7-2.2 6-2.6c2.2-.4 4.3-1 4.5-1.4.3-.4 1.9-.8 3.7-.9 1.7-.1 3.9-.7 4.8-1.2 2.7-1.6 4.1-1.1 6.9 2.2zm124.7 9.1c7.6-.4 11.5-.1 15.8 1.2 3.1.9 5.9 2 6.1 2.4 1 1.5-6.3 6-11.5 7-3 .5-7.4 1.7-9.8 2.5-2.4.9-5.7 1.6-7.3 1.6-1.7 0-5.5.7-8.5 1.6-6.4 1.9-7.5 1.1-6.8-4.4.5-3.8-.2-6.2-1.9-6.2-2.3 0-5.2-2.8-4-4 1.6-1.6 9.4-2.7 13.8-1.9 2.2.4 8.5.5 14.1.2zM229 414c3.2 3.7 3.5 9.4 1.4 24.3-.9 5.9-2 6.5-10.6 5.3-4.1-.6-8.1-1.6-8.9-2.2-.8-.7-3.3-1.8-5.7-2.6s-5.3-2.3-6.5-3.4c-1.2-1-2.8-1.7-3.5-1.6-.6.2-2-.1-3-.7-1.5-.8-1.4-1.1 1.1-2 1.9-.8 2.7-1.7 2.7-3.5 0-2.6 6.5-10.6 8.5-10.6.7 0 1.8-.7 2.6-1.6 3.9-4.7 18.2-5.6 21.9-1.4zm36.9 4.2c1.2.8 3.5 3.6 5.2 6.1 1.7 2.6 4.8 6.1 7 7.8 2.1 1.7 3.9 3.4 3.9 3.9 0 .4-3.3 1.1-7.2 1.5-4 .3-11 1.5-15.6 2.6-10.4 2.4-16.2 2.5-16.2.4 0-2.9 4-12.9 5.5-13.8 1-.5 1.3-1.6.9-3.1-.9-3.7 4.4-7.5 10-7.2 2.4.2 5.3 1 6.5 1.8z"/><path d="M184.553 485.909c-8.522-.743-11.525-1.599-17.509-4.992-8.44-4.786-9.958-6.038-17.772-14.667-19.781-21.843-22.572-25.828-33.767-48.214-9.94-19.876-11.345-23.52-12.969-33.634l-1.016-6.328 1.834-1.435c1.009-.789 2.12-2.32 2.469-3.402.645-1.997.537-2.725-1.419-9.569-.526-1.84-1.132-5.729-1.348-8.643l-.392-5.298 1.914-1.788c1.053-.983 1.914-2.178 1.914-2.654 0-.964 2.236-3.197 3.649-3.645.837-.265 8.571 3.453 14.192 6.824 1.821 1.092 3.625 1.484 8.21 1.784 7.644.5 9.029.281 9.476-1.499.906-3.609-1.973-6.366-6.647-6.366-2.042 0-3.932-.462-5.604-1.368l-5.754-3.113c-4.87-2.63-4.949-2.726-3.749-4.575.566-.873 2.319-3.092 3.895-4.931s3.33-4.262 3.897-5.382c1.145-2.261.442-2.209 9.451-.698 3.957.664 4.863.638 6.842-.195 2.162-.91 2.281-1.105 2.281-3.736 0-2.769-.008-2.779-3.367-4.37-3.428-1.623-4.897-3.27-4.301-4.823.182-.476.878-.865 1.546-.865s1.491-.518 1.83-1.151c.507-.947 1.612-1.226 6.255-1.578 6.165-.467 7.806-1.174 9.619-4.146 1.518-2.489 1.51-5.667-.02-8.177-1.598-2.622-3.326-2.545-6.214.275l-2.306 2.252.002-1.796c.002-.988.959-3.696 2.128-6.018s2.127-4.862 2.127-5.645c0-3.005 1.681-5.635 4.386-6.863 1.434-.651 3.037-1.189 3.561-1.197s2.372-.434 4.105-.949c3.652-1.084 4.128-2.464 1.551-4.491-1.773-1.395-4.429-2.217-9.117-2.821-4.558-.588-5.076-1.074-3.255-3.051 1.708-1.854 6.929-4.498 8.899-4.507.722-.003 3.699 1.773 6.615 3.947s5.489 3.953 5.718 3.953 1.562-.554 2.963-1.23c3.4-1.643 3.552-3.94.418-6.33-2.106-1.607-2.87-4.072-1.52-4.906 1.621-1.002-.857-7.275-3.218-8.146-.739-.273-3.331-.674-5.761-.893s-6.973-1.216-10.097-2.217-5.871-1.819-6.104-1.819c-.926 0-2.187 4.407-2.187 7.647 0 3.422-.009 3.438-4.257 7.819-2.619 2.701-4.257 4.899-4.257 5.713 0 1.11-.348 1.322-2.168 1.322-3.352 0-8.111 2.286-8.57 4.117-.61 2.43.461 4.201 4.048 6.699 3.517 2.448 3.629 2.743 2.714 7.159-.273 1.317-.104 2.092.579 2.659 1.218 1.011 1.232 3.233.036 5.546-1.056 2.042-1.696 2.161-4.756.882-2.624-1.096-6.565-1.191-7.574-.182-1.564 1.564-.823 4.09 2.007 6.84 1.988 1.933 2.737 3.136 2.737 4.403 0 3.371-3.438 6.271-7.436 6.271-3.527 0-4.727 1.368-4.727 5.388 0 3.185-.186 3.675-2.095 5.526-1.153 1.117-2.848 3.222-3.768 4.677s-2.179 2.807-2.799 3.004c-1.285.408-2.892-.689-2.892-1.974 0-.476-.672-1.537-1.493-2.358-1.797-1.797-5.073-1.994-7.669-.46-.961.568-1.937.842-2.169.611s-.637-6.375-.9-13.651-.776-15.556-1.14-18.399c-1.853-14.455-2.577-19.103-4.026-25.82-1.76-8.163-7.45-28.687-13.325-48.069-6.942-22.898-10.705-36.978-11.623-43.482-.539-3.823-1.043-13.834-1.255-24.946-.338-17.716-.297-18.726.909-22.197.695-2 2.4-7.331 3.789-11.847 3.265-10.613 5.114-15.538 6.965-18.548a61.82 61.82 0 0 0 2.755-5.129c2.145-4.591 6.285-9.83 12.619-15.966 5.611-5.436 6.67-6.171 13.716-9.517 4.2-1.994 9.006-4.08 10.68-4.636s3.719-1.542 4.543-2.19 1.832-1.179 2.239-1.179 2.28-.676 4.161-1.501c7.331-3.217 25.091-6.599 31.851-6.064 25.598 2.023 29.238 2.856 68.872 15.752 7.732 2.516 8.579 2.663 19.156 3.334 15.644.992 26.279.811 35.749-.608 4.588-.688 9.573-1.634 11.078-2.103 3.595-1.12 24.187-5.161 26.301-5.161 2.094 0 3.545 2.126 3.959 5.805.295 2.619.186 2.861-2.356 5.218-5.484 5.085-9.683 6.078-12.342 2.918-.866-1.029-1.574-2.113-1.574-2.409 0-.573-2.963-1.453-7.045-2.093l-2.484-.39-1.87 4.75c-1.029 2.612-2.067 6.118-2.307 7.79-.597 4.162-1.053 4.846-4.273 6.404-2.361 1.143-3.427 1.297-6.852.991-2.231-.199-4.799-.538-5.708-.753-1.323-.313-2.02-.023-3.497 1.454-2.324 2.324-2.445 5.577-.393 10.566l1.422 3.458-2.121 2.015c-5.387 5.119-6.962 9.215-4.267 11.102 2.655 1.859 6.249.638 10.858-3.689 1.529-1.435 1.625-1.447 3.953-.495 1.312.537 3.837 1.677 5.61 2.532 2.836 1.368 3.496 1.475 5.476.881 1.298-.389 3.5-1.942 5.2-3.668 2.826-2.869 2.974-3.191 3.56-7.774.337-2.629.886-6.269 1.221-8.087 1.135-6.168 5.013-8.113 11.497-5.764 3.165 1.146 8.778.837 12.607-.695 3.329-1.332 5.342-3.834 6.487-8.063l1.55-5.737c.708-2.628 1.528-2.806 6.287-1.362 3.753 1.138 6.507 1.148 9.175.034 4.117-1.72 3.134-6.812-1.61-8.339-1.407-.453-2.655-1.124-2.774-1.491-.395-1.225 1.927-3.335 3.951-3.589 1.099-.138 2.878-.879 3.953-1.646 2.64-1.883 8.174-1.758 17.463.392l16.82 3.704c10.977 2.329 13.118 3.072 22.521 7.81 7.862 3.962 15.911 8.97 21.262 13.228 3.547 2.823 4.223 3.748 7.209 9.882 5.125 10.526 6.207 15.152 7.399 31.617 2.098 28.98 1.163 62.124-2.155 76.405-.661 2.843-1.636 8.948-2.168 13.567-.647 5.621-1.442 9.543-2.403 11.859-.789 1.903-1.775 4.555-2.19 5.893-1.248 4.025-9.237 21.759-10.684 23.717-1.802 2.438-3.92 6.713-3.92 7.912 0 .532-.407 1.754-.905 2.717s-1.324 4.54-1.836 7.951-1.737 9.246-2.723 12.967a366.63 366.63 0 0 0-3.348 14.033c-.856 3.996-1.96 8.075-2.454 9.063s-.897 2.248-.897 2.799a2.75 2.75 0 0 1-.687 1.688c-.378.378-1.171 2.006-1.761 3.618l-2.711 7.188c-2.162 5.624-3.771 13.13-4.528 21.123-.339 3.58-.95 7.042-1.358 7.695-.581.931-.585 3.068-.016 9.902 1.475 17.717 2.075 30.183 1.78 36.993-.272 6.287-.582 7.809-3.072 15.066-1.523 4.44-3.399 9.092-4.169 10.338-2.983 4.83-13.764 17.767-19.909 23.891-7.638 7.612-12.867 11.591-20.373 15.501-3.042 1.585-6.371 3.503-7.399 4.263-1.908 1.411-10.794 4.392-17.896 6.003-8.201 1.86-15.906 2.738-37.705 4.294-7.191.513-16.633 1.376-20.981 1.917-6.32.786-15.226 1.017-44.394 1.15-20.069.091-38.99-.052-42.047-.318zm63.332-34.007a120.18 120.18 0 0 1 9.64-1.832c2.626-.363 4.956-.772 5.176-.908s5.111-.969 10.869-1.851 12.049-2.015 13.98-2.517c3.334-.868 11.989-4.087 16.579-6.166 1.166-.528 5.687-1.563 10.046-2.299 10.197-1.722 10.221-1.73 12.067-4.521.861-1.301 2.191-2.555 2.957-2.787s1.962-.943 2.659-1.579 5.033-2.528 9.635-4.204c10.738-3.91 12.259-4.714 16.71-8.834 7.196-6.662 8.835-12.67 6.593-24.158-1.236-6.335-3.088-9.796-7.729-14.441-5.275-5.28-19.422-11.882-27.962-13.047-1.82-.248-3.687-.829-4.148-1.291s-1.764-.839-2.894-.839-3.533-.385-5.339-.855c-6.775-1.765-18.35-2.448-28.431-1.68-35.382 2.699-42.476 2.472-63.214-2.018-13.01-2.817-16.738-3.931-29.495-8.815l-9.73-3.66c-4.458-1.61-13.748-3.04-19.752-3.04-4.869 0-5.605.173-10.231 2.411-2.742 1.326-4.985 2.649-4.985 2.94s-1.536 1.587-3.414 2.88-4.071 3.323-4.875 4.51-2.783 3.735-4.398 5.661-3.732 4.937-4.703 6.69l-1.766 3.187v22.692l3.245 6.416c1.785 3.529 4.268 7.591 5.518 9.027s3.318 4.56 4.595 6.942c2.732 5.097 7.103 10.401 12.183 14.782 4.346 3.748 12.859 7.988 23.387 11.648 4.166 1.448 7.999 3.056 8.516 3.572s2.452 1.253 4.299 1.638 5.962 1.812 9.145 3.172 7.268 2.79 9.077 3.178c9.297 1.994 27.908 1.993 36.188-.002zm42.457-121.134c2.146-.978 3.546-4.482 3.913-9.8.263-3.806.125-4.993-.729-6.297-.779-1.189-.94-2.185-.618-3.824.95-4.845.281-42.327-.883-49.442-.364-2.226-.928-10.543-1.254-18.482-.653-15.926-.848-16.699-4.6-18.267-2.424-1.013-10.432-1.134-17.577-.267-2.693.327-9.275.861-14.627 1.186-9.39.571-9.778.647-11.099 2.176-2.475 2.866-1.409 7.735 1.914 8.745 3.599 1.093 11.355 1.333 20.495.634 6.482-.496 9.601-.514 10.594-.061 1.9.866 2.36 3.43 4.269 23.823 1.44 15.379 1.55 18.733 1.379 41.71-.204 27.406-.336 26.336 3.463 27.991 2.268.989 3.488 1.029 5.36.176zm55.941-97.938c2.609-.369 5.121-1.048 5.582-1.508s1.363-.838 2.004-.838c2.085 0 12.821-7.713 27.07-19.448 16.555-13.634 23.208-40.19 15.127-60.372-3.399-8.488-4.982-11.298-8.644-15.339-1.989-2.195-3.617-4.371-3.617-4.835s-1.437-2.021-3.193-3.46-5.266-4.57-7.801-6.956c-7.456-7.021-16.845-12.758-27.779-16.973-5.628-2.17-16.917-5.188-19.41-5.189-3.956-.002-9.062 8.755-6.999 12.003.901 1.418 6.484 2.042 9.32 1.041 3.371-1.189 7.315-.467 14.713 2.694 12.972 5.544 14.688 6.578 21.833 13.154 10.604 9.76 18.116 18.331 19.714 22.491 4.216 10.976 4.125 10.565 4.076 18.552-.084 13.564-3.01 20.964-11.971 30.273-12.839 13.338-26.003 21.918-37.505 24.446-5.502 1.209-13.319.029-20.538-3.101-5.331-2.312-6.428-3.083-11.086-7.801-5.984-6.061-8.965-10.735-9.664-15.155-.272-1.721-.946-3.628-1.499-4.239-1.768-1.954-2.372-7.653-2.039-19.254.211-7.363.64-12.141 1.31-14.595 1.308-4.791 4.88-10.963 10.124-17.495 3.872-4.822 4.529-5.368 7.417-6.165 4.958-1.368 8.686-1.706 13.668-1.239 4.238.397 4.806.619 7.176 2.803 5.058 4.663 10.652 13.894 12.966 21.4 2.345 7.605 1.584 9.97-5.259 16.331-3.753 3.489-5.285 3.932-9.151 2.648-3.571-1.186-5.431-3.007-5.97-5.845-.219-1.155-.67-2.444-1-2.865-.986-1.255-.082-4.649 2.861-10.739 3.155-6.529 3.495-9.215 1.408-11.125-4.175-3.821-8.118-1.775-12.233 6.35-2.244 4.432-3.407 9.895-3.418 16.058-.013 7.711 1.161 10.778 5.697 14.883 4.854 4.392 7.852 5.276 16.977 5.003l6.812-.204 3.708-2.545c5.333-3.659 8.955-7.927 10.267-12.097 1.463-4.653.961-10.872-1.724-21.334-2.445-9.526-3.92-12.77-7.712-16.957-1.564-1.727-3.335-3.972-3.937-4.991-1.574-2.664-8.822-7.288-12.224-7.798-1.53-.229-7.231-.295-12.669-.147-9.331.255-10.041.361-12.616 1.87-3.001 1.758-4.936 3.6-8.901 8.468-3.356 4.121-5.58 7.6-5.58 8.73 0 .487-.616 1.497-1.368 2.245-1.467 1.458-2.889 3.858-2.889 4.876 0 .343-.4.927-.888 1.299s-1.583 3.373-2.433 6.671c-1.364 5.295-1.543 7.214-1.534 16.42.013 12.148 1.154 21.339 3.321 26.756.843 2.107 1.533 4.03 1.533 4.273s1.043 2 2.317 3.905 3.042 4.724 3.928 6.265 3.827 4.887 6.536 7.436c4.101 3.858 6.27 5.305 12.948 8.635l8.022 4.001 10.034-.35c5.519-.192 12.169-.652 14.778-1.02zm-172.415-4.82c3.248-.357 7.941-1.178 10.429-1.824s4.909-1.175 5.379-1.175 1.582-.498 2.47-1.107 2.983-1.61 4.655-2.225c14.079-5.172 28.914-15.533 33.256-23.227 1.006-1.782 2.061-3.24 2.345-3.24.973 0 4.863-8.813 5.424-12.287.308-1.908.86-4.03 1.228-4.716s.824-2.957 1.016-5.045c.384-4.192-.692-16.659-1.53-17.72-.292-.37-.873-1.767-1.291-3.105-1.455-4.653-4.335-9.256-7.498-11.984-6.497-5.604-14.159-10.752-19.418-13.05-1.254-.548-2.281-1.365-2.281-1.816 0-.497-.686-.82-1.741-.82-.957 0-3.626-.777-5.929-1.726-9.723-4.006-18.528-6.203-37.028-9.239-10.681-1.753-10.895-1.727-14.378 1.756-2.62 2.62-2.954 3.25-2.954 5.577 0 4.495 2.351 5.836 6.9 3.936 4.746-1.983 14.672-.839 32.594 3.755 7.604 1.949 11.104 3.137 12.361 4.195.965.812 2.095 1.476 2.512 1.476 1.132 0 11.12 4.971 15.071 7.502 11.819 7.569 16.946 20.225 13.531 33.404-1.875 7.234-5.351 12.954-11.739 19.317-6.278 6.253-10.384 9.384-13.212 10.075a10.21 10.21 0 0 0-3.196 1.539c-.787.609-2.364 1.283-3.505 1.497s-2.28.755-2.53 1.202c-.601 1.073-6.422 3.617-11.877 5.191-6.286 1.813-20.453 2.301-26.666.919-8.083-1.798-14.532-5.458-21.949-12.455-7.94-7.49-11.612-13.269-12.972-20.413-.45-2.362-1.223-5.73-1.719-7.485s-1.232-5.914-1.635-9.243c-.673-5.554-.643-6.194.369-7.757 2.557-3.951 5.42-6.89 7.864-8.073 1.435-.695 3.098-1.803 3.695-2.464s1.738-1.201 2.534-1.201 2.178-.479 3.072-1.064c1.95-1.278 7.333-1.355 12.32-.178 3.101.732 4.606 1.329 13.162 5.217 1.72.782 4.09 2.267 5.267 3.3 4.652 4.084 10.153 14.161 10.153 18.596 0 2.044-.687 3.283-4.876 8.793-5.286 6.954-8.309 9.478-12.361 10.319-5.805 1.205-13.097-1.388-17.021-6.052-1.794-2.132-1.926-3.331-.972-8.809.544-3.123 1.137-4.302 3.649-7.245 1.822-2.135 2.999-4.1 2.999-5.005 0-3.828-3.472-8.141-6.554-8.141-2.002 0-7.433 5.341-7.433 7.31 0 .771-.831 2.696-1.846 4.278-1.094 1.705-2.077 4.297-2.413 6.364-.312 1.918-.944 4.069-1.403 4.779-2.711 4.19-1.616 7.835 4.055 13.501 9.383 9.375 18.777 13.125 28.073 11.205 6.177-1.276 9.999-3.732 16.655-10.703 9.818-10.284 11.387-15.077 8.556-26.145-2.362-9.236-6.646-15.76-15.036-22.895-3.56-3.028-10.616-6.713-14.257-7.446-1.107-.223-3.655-.971-5.661-1.662-2.81-.968-5.257-1.269-10.642-1.309-8.032-.06-9.035.313-19.156 7.116-6.56 4.409-10.736 8.551-12.872 12.767-1.486 2.933-1.559 3.488-1.246 9.516.38 7.314 2.766 20.862 5.089 28.902 1.112 3.848 2.526 6.918 4.762 10.338 3.845 5.881 6.104 8.166 12.641 12.785l9.282 6.742c3.897 2.921 5.007 3.397 12.467 5.347 9.018 2.357 13.053 2.628 22.96 1.539zm4.992 154.186c-5.315-3.083-9.679-8.685-11.186-14.362-1.133-4.266-1.601-5.383-2.258-5.383-.299 0-.543-.484-.543-1.075s-.646-2.028-1.434-3.193c-2.399-3.541-2.508-4.64-.635-6.376 1.472-1.364 2.001-1.493 4.752-1.154 6.738.83 11.925 2.098 18.883 4.615s7.291 2.717 7.674 4.586c.748 3.656-1.652 16.111-3.371 17.498-.416.336-.949 1.218-1.185 1.961-.562 1.769-3.486 3.815-5.976 4.179-1.416.207-2.764-.163-4.719-1.297zm-33.942 10.114c-2.393-3.303-2.733-5.656-1.974-13.658.66-6.96 1.981-10.702 4.67-13.228 1.727-1.622 3.036-1.177 3.56 1.209.221 1.007 1.357 3.082 2.525 4.611s2.517 3.725 3 4.88c.912 2.182 1.205 10.446.412 11.617-.246.363-2.089 1.395-4.096 2.294s-4.236 2.349-4.954 3.223l-1.305 1.589zm29.077 33.586c-1.171-.823-3.394-2.15-4.94-2.947-3.42-1.764-8.927-7.704-12.143-13.098-2.778-4.66-2.885-5.286-.906-5.286.809 0 2.246-.543 3.193-1.207 1.522-1.067 8.495-3.415 16.62-5.596 5.829-1.565 5.683-1.59 8.352 1.442 5.221 5.932 5.94 10.385 2.544 15.76-1.143 1.808-3.993 5.345-6.335 7.859l-4.257 4.571zm46.487-30.282c-.649-.491-1.846-.902-2.658-.912-3.359-.044-9.854-9.729-10.727-15.995-.518-3.722.233-12.843 1.157-14.04.626-.811 2.109-.645 12.568 1.405 14.364 2.816 17.007 3.5 18.437 4.777 1.067.953 1.067 1.014 0 1.793-.896.655-1.146 1.86-1.322 6.398-.12 3.075-.53 6.031-.912 6.569-1.123 1.583-7.768 7.271-10.696 9.157-3.056 1.968-4.155 2.127-5.846.848zm-2.285 47.36c-2.615-.472-6.172-1.511-7.906-2.307l-6.681-3.02c-1.941-.865-4.235-2.128-5.099-2.808s-2.236-1.235-3.049-1.235-2.052-.307-2.753-.682c-1.228-.657-1.204-.712.648-1.491 1.105-.465 2.209-1.532 2.595-2.51 1.868-4.726 2.598-5.952 5.194-8.727 1.548-1.655 3.15-3.009 3.56-3.009s1.785-.826 3.056-1.836c3.305-2.626 8.023-3.847 13.508-3.495 5.085.326 7.082 1.399 8.869 4.766.964 1.817 1.07 3.181.821 10.599-.338 10.055-1.194 14.53-3.026 15.813-1.559 1.092-3.442 1.081-9.737-.057zm25.355-2.354c-.648-1.69 3.471-12.019 5.67-14.218.575-.575.779-1.521.563-2.605-.758-3.792 5.214-7.653 10.675-6.902 3.922.539 6.283 2.26 10.028 7.305 1.729 2.329 4.972 5.92 7.208 7.979l4.065 3.745-3.255.625a104.8 104.8 0 0 1-6.904 1.023c-2.007.219-7.538 1.195-12.291 2.168-9.675 1.981-15.217 2.29-15.759.88zm17.342-43.185c-2.066-1.142-3.248-3.007-4.47-7.057-1.328-4.399-1.987-15.414-.994-16.61.959-1.156 3.016-1.436 16.475-2.241 10.874-.65 14.946-1.142 17.175-2.072 2.043-.853 1.917 1.554-.442 8.436-3.099 9.042-4.721 10.739-15.213 15.916-9.041 4.461-10.342 4.837-12.532 3.627zm43.096-12.939c-.17-8.251-.044-14.15.31-14.504.676-.676 16.13 1.691 21.731 3.328 7.836 2.291 9.122 2.851 9.122 3.971 0 2.154-6.925 8.269-9.365 8.27-.702 0-3.056.845-5.23 1.878-3.548 1.685-12.603 4.156-15.356 4.19-.946.012-1.081-.783-1.212-7.132zm-15.818 40.238c-.25-.25-.455-2.565-.455-5.144 0-4.992-.306-5.597-3.175-6.282-2.061-.492-3.234-2.392-2.073-3.356 1.725-1.432 7.315-1.738 23.796-1.303 16.801.443 20.778.944 23.997 3.023 1.273.822-.529 2.666-4.508 4.613-3.005 1.47-14.39 4.705-20.705 5.883l-7.602 1.519c-6.239 1.302-8.738 1.584-9.275 1.047zm57.222-19.118c-1.224-.647-2.792-1.934-3.484-2.862s-1.837-2.267-2.543-2.976c-1.228-1.233-1.241-1.376-.29-3.215 1.459-2.822 8.502-9.786 9.897-9.786 1.68 0 3.146 1.836 4.161 5.208 1.566 5.204.783 9.319-2.418 12.713-2.333 2.474-2.366 2.48-5.323.917z" fill="#fff"/></svg>