<svg xmlns="http://www.w3.org/2000/svg" width="692" height="802.667" viewBox="0 0 519 602" preserveAspectRatio="xMidYMid meet"  xmlns:v="https://vecta.io/nano"><path d="M173.5 45.2c-2.7.4-6.8 1.3-9 1.8-3.8 1-5.6 1.4-11.9 2.5-1.6.3-3.7 1-4.7 1.6-1 .5-2.2.8-2.6.7-1-.2-12.6 5.2-13.3 6.2-.3.4-3 1.8-6.1 3.1s-7 3.5-8.8 4.9c-7.5 5.7-9.7 7.6-10.9 9.2-.7 1-1.8 1.8-2.4 1.8-2 0-19.3 17.1-25.8 25.6-2.2 2.7-4.1 6-4.3 7.1-.1 1.2-.8 2.7-1.4 3.5-1.6 1.9-5 9.8-5.8 13.3-3.6 16.9-3.1 45.6 1.2 56.5.3.8.7 2.2.8 3 .2.8 1.7 5.5 3.5 10.5 1.7 4.9 3.1 9.8 3.1 10.7 0 1 .4 1.8 1 1.8.5 0 .9.6.9 1.3 0 .8 2.5 6.3 5.5 12.2 3 6 5.5 11.8 5.5 12.8s.4 1.6.9 1.3 1.2.6 1.6 2.2c.3 1.5 1.7 4.1 3.1 5.9 1.3 1.7 2.4 3.6 2.4 4.1 0 .6.3 1.2.8 1.4.4.1 2.9 4.6 5.6 9.8s5.5 9.8 6.2 10.3c.7.4 1.8 2.3 2.4 4.2s1.6 3.5 2.1 3.5.9.6.9 1.4c0 .7.7 1.9 1.6 2.6.8.8 2.2 2.7 3 4.4 1.3 2.9 4.5 9 6.5 12.6 4.5 8.3 9 18.6 11.9 27.5 1.3 3.8 2.6 7.4 3 8 .4.5 1 2.6 1.3 4.5.2 1.9 1 6.2 1.7 9.4 1.6 7.9.7 37.8-1.6 57.1-.4 3.3-.7 6.3-.6 6.7.1.5-.3.8-.8.8-.6 0-1 1.6-1 3.5s-.4 3.5-.8 3.5c-1.2 0-1.5 3.4-1.6 16-.1 12.1.9 24.6 2.3 28.3.5 1.2.6 2.8.3 3.6-.2.7 0 1.6.6 2 .5.3 1.2 2.1 1.5 3.9s1 3.8 1.5 4.5 1.3 2.7 1.7 4.5c.3 1.7 1 3.2 1.4 3.2s1.4 1.9 2.2 4.2c.7 2.4 2.5 5.4 3.9 6.8s5.3 5.7 8.6 9.5c8.2 9.3 11.3 12.5 18.2 18.8 9.4 8.4 11.8 10.4 14.3 11.7 1.3.7 4 2.7 5.9 4.6 3.4 3.2 14.4 10.4 16 10.4.4 0 1.5.9 2.4 1.9 1 1.1 2.8 2.2 4.2 2.5 1.3.4 2.4 1.1 2.4 1.6 0 .6.7 1 1.5 1s1.5.4 1.5 1c0 .5.7 1 1.5 1s1.5.4 1.5 1c0 .5.8 1 1.8 1s2.7.6 3.8 1.4 3.7 1.7 5.7 2.1 3.7 1.2 3.7 1.7c0 .6.7.5 1.5-.2 1.3-1 1.9-.9 3.6.6 1.8 1.6 3.6 1.8 15.7 1.6 7.5-.1 15.8-.6 18.4-1 2.5-.5 5.1-.6 5.7-.3.6.4 3.7.3 6.8-.1 3.2-.4 10.4-.9 16-1 5.5-.2 9.9-.6 9.7-1s1-.6 2.8-.6H371c8.3 0 20.9-1 28.2-2.3 3.1-.5 6-.9 6.5-.8 1 .3 8.4-1.5 15.8-3.8.6-.1 3.1-.9 5.7-1.6 2.7-.7 5.3-1.8 6-2.5s2-1.2 2.9-1.2 1.9-.7 2.3-1.5c.3-.8 1.2-1.2 2-.9s2.3.1 3.4-.5c1.5-.8 2.2-.8 2.5.2.4.9.6.9.6-.1.1-.6.8-1.2 1.6-1.2s2.4-1.7 3.5-3.8l2.9-5.2c1.9-3.3 3.2-6.9 5.2-14.5l2.6-10c1.7-6.8 2-30.5.3-30.5-.4 0-1-2.7-1.4-6.1-.3-3.3-.9-6.6-1.3-7.2-.4-.7-.6-2.4-.4-3.9.1-1.6-.2-2.8-.9-2.8-.6 0-1-.8-.8-1.8.1-.9 0-2.2-.3-2.7-.4-.6-1.2-2.8-1.9-5s-1.6-4.5-2-5c-.4-.6-1.3-3.3-2-6-.7-2.8-2.6-8.9-4.2-13.7-1.5-4.8-3-10.4-3.2-12.5-.3-2.1-1-6.3-1.6-9.3-1.6-7.9-2.3-23.2-2.5-58.5-.1-18.1-.7-33.4-1.4-36.8l-2-11a255.56 255.56 0 0 0-2.2-10.7c-.7-3-1.2-6-1.1-6.7.2-.6-.2-1.4-.8-1.8-.5-.3-1-1.7-1-3s-.5-2.7-1-3a1.93 1.93 0 0 1-.8-1.8c.4-1.9-2.4-10.7-3.4-10.7-.5 0-.6-.5-.3-1a2.4 2.4 0 0 0-.2-2.3 7.87 7.87 0 0 1-.9-2.2c-.4-2.5-7.1-15.3-9.6-18.3-.8-.9-2-3.1-2.8-4.7-.8-1.7-2-3.5-2.6-4-.7-.6-4.6-5.1-8.7-10-4.1-5-10.8-12.3-15-16.3-4.1-3.9-7.3-7.2-7-7.2s-2.1-2-5.4-4.4c-3.2-2.4-6.7-5.3-7.7-6.5-1.1-1.2-2.4-2.1-3.1-2.1-.6 0-2.2-1.1-3.5-2.5s-2.8-2.5-3.5-2.5c-.6 0-1.7-.9-2.5-2s-2-2-2.6-2-4.1-2.3-7.7-5c-3.6-2.8-6.9-5-7.2-5-1.9 0-21.4-17.6-24.8-22.5-1-1.4-2.2-2.3-2.8-2-.5.4-.9.2-.9-.4 0-.5-2.7-3.8-6-7.3-3.3-3.4-6-6.7-6-7.2 0-.6-1.7-2.6-3.8-4.5-3.8-3.6-9.5-10.9-16-20.6-1.8-2.7-4.2-5.8-5.3-7-2.9-3.1-9.1-10.5-13-15.5-6.4-8.4-16.7-17-22.9-19.2-1.7-.5-3-1.4-3-1.9s-2.2-1.8-5-3c-2.7-1.2-5-2.5-5-3s-.7-.9-1.6-.9-7.1-1.8-13.7-4.1c-6.7-2.2-13.2-3.9-14.4-3.6-1.3.2-2.6 0-2.9-.4-.6-1-8.9-.9-15.9.3zm18.5 9.3c1.4.8 4.1 1.4 6 1.5 2 0 4.5.7 5.6 1.5 1.2.8 2.4 1.1 2.8.8.3-.3 2.7.4 5.3 1.6l8.3 3.9c5.3 2.5 19.6 12.5 24.6 17.2 2.5 2.3 6.3 6.7 8.6 9.8 2.2 3.1 4.6 6.1 5.2 6.7.6.5 3.4 3.9 6.1 7.5 2.8 3.6 5.3 6.6 5.8 6.8.4.2.7.8.7 1.4s1 2.3 2.3 3.8c1.2 1.5 3.3 4.3 4.7 6.1 4.1 5.5 25.4 28.9 34.2 37.6 6.1 6 16.1 14.1 22.5 18.1 3.5 2.2 11.9 8.3 17.9 13.1.5.4 2.1 1.4 3.5 2.1 6.5 3.5 31.5 26.6 39.9 37l6.2 7.4c1.5 1.7 2.8 3.6 2.8 4.3 0 .6.3 1.3.8 1.5 1.1.5 7.9 11 9.3 14.4.6 1.6 1.5 3.8 2 4.9 2.3 5.4 5.9 17 7.9 25.5l3.1 12.7c2.4 8 4 21.1 4.4 35.5.2 8.7.1 15.9-.3 16.2-.8.5-.8 12.7.2 38.1.7 16.7 3.3 35.5 5.6 41 .5 1.1 1.6 4.5 2.5 7.5l2.6 8.5c.6 1.6 1.5 4.3 1.9 6 .5 1.6 1.6 5.5 2.5 8.5s2.3 8 3 11 2.1 8.2 3 11.4c2.2 8.2 2.2 26.6 0 28.2-.9.7-1.5 1.6-1.4 2 .4 1.8-1.4 11.5-2.2 12-.5.3-.7 1-.3 1.5 1 1.6-3 8.8-4.8 8.9-1 0-1.8.4-1.8.9s-.9 1.2-1.9 1.6c-1.1.3-3.6 2.1-5.7 4-3.2 2.9-8.4 5.3-10.6 4.7-.3-.1-1.1.5-1.8 1.3-.6.7-1.8 1.1-2.5.9-.7-.3-2.4 0-3.7.7-2.2 1.2-5.3 1.8-10.5 2.2-1.3.1-2.3.4-2.3.7 0 .6-7.3 1.2-16 1.4-3.6.1-6.8.4-7.1.9-.4.6-21 1.2-22.9.7-.3-.1-2.5-.3-5-.4-2.5-.2-6.2-.7-8.2-1.1s-4.3-.3-5 .1c-1.4.9-1.1.9-12.8 2-4.7.4-12.2.7-16.7.6-4.7-.1-8.3.2-8.3.8 0 .9-11.1 1.3-35 1.3-10.2 0-13.9-.4-20-2.3-4.1-1.2-8.6-3.1-10-4-1.4-1-4-2.1-5.8-2.5s-4.3-1.7-5.6-2.8c-4.2-4-6.6-5.7-8.2-5.7-.8 0-2-.5-2.7-1-4.7-4-6.2-5-7.9-5.6-1.1-.3-1.7-1.2-1.4-1.9.3-.9 0-1.2-.8-.9-.7.3-2.7-1.1-4.5-3.1-1.7-2-3.1-3-3.1-2.3-.1.7-1 .2-2.1-1.2-1.2-1.4-2.3-2.3-2.4-2-.4.6-12.7-10.2-15.9-13.9-1.2-1.3-3.1-3.4-4.2-4.7-1.2-1.2-1.9-2.5-1.6-2.8s-.2-.6-1.1-.6-1.8-.5-1.8-1c-.1-.6-.2-1.6-.3-2.3 0-.6-.8-1.2-1.6-1.2-1.4 0-3.5-3.1-3.2-4.7.1-.5-.5-.8-1.3-.8s-1.5-.7-1.5-1.7c0-.9-.3-1.3-.7-1-.3.4-1.5-1.7-2.5-4.6-1-2.8-2.3-5.4-2.8-5.5-.6-.2-1-1.5-1-2.8s-.3-2.3-.7-2.3c-2.7.4-3.3-.2-2.3-2.1.6-1.1.8-2.5.4-3.2-.4-.6-.9-2.9-1.1-5.2-.3-2.3-1.1-6.4-1.9-9.1-1.9-6.9-.6-34.1 1.8-37.1 1.2-1.6 2.7-17.1 2.6-25.4-.1-3.6.2-12.6.7-20 1.2-18.6 1.2-25.9-.1-26.8-1.6-1.1-2.4-4.1-1.4-4.7.6-.4 1-1.1 1-1.6 0-.6-.5-.7-1.2-.3-.8.5-.9.2-.5-.9.4-1 .2-1.6-.6-1.4-.7.1-1.2-.8-1.2-2.1 0-1.2-.6-2.6-1.4-3.1-.7-.5-1.1-1.3-.7-1.9.3-.5-.1-1.5-.9-2.2-1.1-.9-1.2-1.6-.5-2.5s.7-1.5.1-1.9c-.5-.4-1.5-3.1-2.2-6.1s-2-6.3-3.1-7.4c-1-1.1-1.7-3-1.5-4.3.1-1.4-.3-2.2-1-2-1.1.2-1.9-2.2-1.1-3.1.2-.1-.7-1.6-2-3.4-1.2-1.7-2.2-3.4-2.2-3.9 0-1-7.2-11.8-8.4-12.6-.6-.4-.8-1-.4-1.3.3-.3-.5-1.8-1.8-3.2-1.4-1.5-2.3-3.1-2.1-3.7s-.7-2.1-2-3.4c-1.3-1.2-1.9-2.2-1.3-2.2.8 0 .7-.5-.2-1.4-4.6-4.7-8.8-11.7-8.8-14.5 0-.6-.4-1.1-1-1.1-.5 0-1-.6-1-1.4 0-.7-.6-1.9-1.4-2.5-.8-.7-1.8-2.5-2.1-4.1s-1.3-3.1-2.1-3.4-1.4-1.6-1.4-3-.4-2.7-1-3.1c-.5-.3-.7-1.2-.3-2 .3-.8.1-1.5-.5-1.5-.5 0-1.5-1.4-2.2-3-.7-1.7-2-3.5-2.9-4-1.4-.8-1.3-.9.4-1 1.8-.1 1.7-.3-.7-2.5-1.6-1.3-2.8-3.1-2.8-4 0-.8-.4-1.5-1-1.5-1 0-3.2-6.9-2.4-8.1.2-.4-.3-1.2-1.2-1.7-1.1-.6-1.3-1.1-.5-1.6 1.7-1.1 1.3-2.6-.5-1.9-1.4.5-1.6.2-1.1-1.9.5-1.7.2-3-.8-3.8-.9-.8-1.3-2.1-.9-3.6.5-1.9.3-2.3-1-1.8s-1.6-.1-1.6-3.1c0-2-.5-4.5-1-5.5-1-1.9-1.5-5.3-2.6-19-.6-7.8-.6-7.5.2-17l.6-9.8c0-1.2.4-2.2.8-2.2.5 0 1.6-2.4 2.4-5.3.8-2.8 2.4-7 3.6-9.2 1.1-2.1 2-4.4 2-5.1 0-2.2 31-32.5 36.6-35.7.8-.5 2.4-.5 3.5-.2 1.1.4 2.7.1 3.5-.5 1.1-1 2.8-1 7.6 0 7.7 1.5 11.4 3.3 12.1 5.9.6 2.5-2.4 8.7-4.1 8.3-.7-.1-1.2.4-1.2 1.2 0 .7-.3 2.8-.6 4.5-.6 2.9-.5 3.1 2.2 2.8 4.3-.5 6.4-1.7 6.4-3.7 0-.9 1.2-2.9 2.6-4.4 4.3-4.2 6-3.9 14.1 2.7 3.5 2.8 6.3 5.5 6.4 6.1.4 4.2.2 5.3-1.1 6.8-.8 1-2 1.8-2.6 1.8-.7 0-1.4.6-1.7 1.4s-1.6 1.3-3.1 1.2c-2.8-.3-3.7 1.1-2.9 4.3.7 2.7 4 2.7 7.3.1 1.4-1.1 3.3-2 4.2-2s2.1-.7 2.6-1.5c1.4-2.6 4.2-.6 6.7 4.9 5.2 11.7 6.3 14.6 7 18.4.4 2.3.4 5.1 0 6.2-.6 1.9-1.3 2.1-6.7 1.9-4.6-.2-6.2.1-6.9 1.3-1.4 2.6 1.1 3.6 9.4 4l7.7.3 2.5 5.8c1.4 3.2 2.5 6.7 2.5 7.7s.5 2.2 1 2.5c1.4.9 1.2 4.4-.2 5.8-1.7 1.6-11.2 1.4-13.2-.2-1.2-1-1.6-.8-2.1 1-1.1 3.2 1.6 5.2 7.2 5.4 2.7.1 5.5.5 6.2.9s2.2.5 3.4.2c2.8-.7 3.7 0 6.1 4.4 1.1 1.9 3 4.8 4.3 6.3 2.9 3.6 2.9 4.5-.2 5.9-2.8 1.3-3.4 4.8-1.1 6.8.9.7 4.7 1.1 9.9 1.1 6.3 0 8.8.3 9.7 1.4 1.7 2 8.1 3.6 11.6 2.9 3.7-.7 7.1-5.1 5.7-7.3-1.5-2.4-7.3-5-11.3-5-1.9-.1-6.2-1.5-9.6-3.2-5.1-2.7-6.4-3.9-8.1-7.8l-2-4.6 2.8-5.1c1.6-2.8 2.9-5.5 2.9-6.1 0-1.8-4.3-2.3-6-.8-.9.8-2.1 1.5-2.7 1.5-2.1 0-5.5-4-5.5-6.5 0-1.4-.4-2.5-.8-2.5-1.2 0-1.8-4.9-.6-5.3.7-.2.4-1-.7-2.1-1.9-1.9-2.3-6.6-.7-8.2 1.4-1.4.2-4.4-1.7-4.4-2.2 0-4.4-2.7-4.6-5.7-.1-1.6-.6-3.1-1.2-3.5-.5-.4-1-1.1-1.1-1.5 0-.4-.6-2.1-1.2-3.6-.7-1.5-1.1-3.1-1.1-3.5.4-2.2-.3-4.1-2.3-6.2-3.1-3.3-5-7-5.2-10.3-.2-1.9-1.5-4-3.8-6-2-1.8-3.9-4.1-4.3-5.2-.5-1.3-.9-1.6-1.2-.7-.3.8-2.5-.7-5.9-4.3-5-5.2-5.4-5.9-4.8-9.1.4-2.2.2-4-.6-4.9-1.1-1.4-1.5-1.4-3.2.2-2.5 2.2-9.7 2.2-11.3 0-.6-.9-2.3-2.1-3.6-2.7-11.5-5.2-10.4-7.9 4.7-12l15.4-4.2c6.2-1.7 11.4-2.5 22.5-3.6.6-.1 2.1.5 3.5 1.3zm71.1 124.3c-7.1 7.8-7.8 8.6-8.9 10.7-2 4-3.4 15.7-2.1 18.5.4.8 1.1 2.6 1.7 4 2.3 6 5.6 12.1 8.2 15.2 3.1 3.7 13.4 11.2 17.1 12.3 1.3.4 3.3 1.4 4.4 2.1 2.1 1.5 9.4 1.7 16 .6 3.4-.6 4.3-1.4 6.2-4.9 1.2-2.3 3.1-7.4 4.3-11.5 1.3-4 2.9-8.5 3.6-10 .8-1.4 1.4-3.5 1.4-4.6 0-1.2.5-2.4 1-2.7 1.5-.9 1.2-5.8-.5-8.2-1-1.4-1.2-2.4-.5-2.8 1.5-.9 1.2-2.5-.5-2.5-1 0-1.5-1-1.5-3.1 0-2.2-.5-3.2-2-3.6-1.1-.3-2-1.1-2-1.7 0-.7-1.1-1.9-2.5-2.6s-2.5-1.7-2.5-2.2-.4-.7-.9-.3c-.5.3-1.2-.4-1.6-1.4-.3-1.1-1.2-1.8-1.9-1.5s-3.1-.4-5.3-1.6c-3.1-1.6-6.4-2.2-14.2-2.5-6.7-.2-10.1 0-10.1.7s-.4.7-1.3 0c-.9-.8-2.3.1-5.6 3.6zm15.4 1.2c.4.6 2.3.9 4.3.7 7-.7 13.9 2 20.4 8.2 5.5 5.1 7.2 10.2 5.8 17.6-2.3 13.4-2.5 14-4.2 13.7-1.2-.2-1.4.4-1 2.4.3 1.8 0 3-1.2 3.6-.9.5-1.6 1.7-1.6 2.6 0 2.2-1.9 4.2-4 4.2-.8 0-2.3.9-3.3 2-2.4 2.8-4.9 2.5-12.6-1.5-7.2-3.8-12.1-7.6-12.1-9.4 0-.6-.4-1.1-1-1.1-.5 0-1-.8-1-1.7s-.3-1.3-.7-1c-.8.9-3.2-2.4-3.3-4.6 0-1-.6-2-1.3-2.3-.9-.3-1.2-2-1.1-4.9.2-2.7-.1-4.5-.8-4.5s-.8-1.5-.4-4.3c.7-4.6 2.7-9.7 3.7-9.7.4 0 1-1.1 1.3-2.5.4-1.4 1.7-3 2.9-3.5l3.7-1.8c6.3-3.6 6.6-3.7 7.5-2.2z"/><path d="M130.8 177.6c-1.2.7-2.7 1-3.4.7-.7-.2-1.5 0-1.9.6-.3.7 0 .8 1 .5 1.1-.5 1.4-.2.9 1-.4 1-1.2 1.5-2 1.2-.7-.3-1.8.2-2.4 1-.7.8-1.8 1.4-2.5 1.4-.6 0-2.2 2-3.5 4.5s-2.7 4.5-3.2 4.5c-.4 0-.8.7-.8 1.6 0 .8-.4 1.3-.8 1-.5-.3-1.6 2.5-2.5 6.3-1.2 5.2-1.4 7.7-.5 11.1l1.2 6c.8 5.4 2.1 9.8 3.7 11.9 1.1 1.3 1.9 3 1.9 3.7 0 2 5.5 10.5 8.7 13.5 4.8 4.5 12.1 7.3 20.1 7.7 6.3.4 7.9.1 12.6-2.2 2.9-1.4 5.9-2.6 6.7-2.6s3.6-1.5 6.3-3.3c8.8-5.8 13.6-17.4 13.8-33.5.1-5.8-2.2-13-4.4-14-.5-.2-.8-.9-.8-1.6 0-1.4-4.6-6.4-8.4-9.1-1.6-1.1-4.2-3.2-5.9-4.8-1.8-1.5-3.7-2.7-4.4-2.7-.6 0-1.9-.8-2.9-1.7-1.3-1.3-1.8-1.5-2.2-.5-.3 1-.7 1-1.9 0-2.4-2-19.8-3.7-22.5-2.2zm20.2 8.7c1.9.6 4 1.1 4.5 1.2 2.6.3 6.4 2.6 8.8 5.4 1.4 1.7 2.8 3.1 3.1 3.1 1.6 0 7.7 8 8.6 11.3 4.1 14.6-7.2 35.7-19.2 35.7-2.2 0-4.1.7-5.3 2-2.3 2.5-4.5 2.5-9.6.1-2.2-1.1-4.6-1.8-5.2-1.5-3 1.1-14-14.9-16.1-23.2-1.8-7-1.8-15.3-.1-20.6 1.8-5.4 8.6-13.5 10.4-12.4.5.4 1.1.2 1.3-.4.4-1.4 8.6-2.9 12.3-2.3 1.7.2 4.6.9 6.5 1.6zM136 204c-1.5 2.8.4 11.1 3.1 13.6 2.2 2 9.3 2.4 11 .7.6-.6 1.2-3.4 1.2-6.2.1-6.7-2.2-9.2-9.1-9.9-4.4-.4-5.1-.2-6.2 1.8zm88.7 41.1c.3 1.9 1.1 4.6 1.9 6.2.9 1.5 1.7 4.3 1.9 6.1l1.1 8.2c1 8 1.3 66.3.3 69.6-.7 2.7-.5 3.4 2.5 6.2 1.8 1.7 4 3.6 4.7 4.1 2.1 1.6 11.8 4.5 14.8 4.5 4.3 0 14.1-2.2 14.1-3.1 0-.5.4-.9 1-.9.5 0 2.6-1.2 4.7-2.6 5-3.3 5.5-7.3 1.2-9.8-2.7-1.6-2.9-1.6-4.1.4-.7 1.1-2 2-2.8 2s-2 1-2.5 2.2c-1.6 3.6-7.3 5-14.2 3.5-10.4-2.4-11.3-6-11.7-48.5-.2-16.1-.6-29.5-1-29.9-.3-.3-.6-3-.6-5.9s-.4-5.6-1-5.9c-.5-.3-1-1.6-1-2.9 0-3.3-2.1-5.4-6.2-6.1l-3.7-.7.6 3.3zm104.8 154.6c-1.1.2-2.7.7-3.5 1s-1.9.5-2.4.4c-.4-.1-2 .6-3.5 1.6-1.4 1-2.8 1.8-3.1 1.8-.3.1-2.3.9-4.5 1.9s-5 1.8-6.3 1.8-2.6.7-2.9 1.4c-.3.8-1.6 1.4-2.8 1.4-1.5 0-2.6.8-3 1.9-.4 1.2-1.2 1.8-2.1 1.4-.7-.3-1.4-.1-1.4.3 0 .5-1.2 1.5-2.7 2.1-8.9 3.9-27.4 5-33 2-2.2-1.2-3.3-1.4-3.3-.6s-.6.8-1.7-.2c-1-.8-3.6-2.1-5.8-2.8-4.4-1.5-11.5-5.9-11.5-7.2 0-.5-1.3-.9-3-.9-1.8 0-2.9-.5-2.7-1.2.4-1.9-8.3-4-17.3-4.3-7-.1-8.8.2-10.4 1.7-1.1 1-2.6 1.6-3.3 1.3-.8-.2-1.8.6-2.3 2s-1.6 2.5-2.5 2.5c-.8 0-1.5.6-1.5 1.4s-.7 1.6-1.5 2c-.8.3-1.5 1.2-1.5 2.1 0 .8-.4 1.5-.8 1.5-.5 0-1.5 1.1-2.2 2.5-.8 1.4-1.9 2.4-2.6 2.1-1.4-.5-2.5 4.3-2.7 12.9-.1 5.2.4 7.1 4 14.5 4 8.2 7.4 17.2 12.6 33.2 4.2 12.9 11.5 21.8 17.9 21.8 1.5 0 2.8.5 3 1.1.2.5 2.7 1.1 5.6 1.2 2.8.1 5.2.5 5.2.8 0 .4 1.7.9 3.8 1.1 4.9.6 24.2 5.6 26.4 6.8 1 .6 2.7 1 3.8 1s2 .4 2 1c0 .5.9 1 2 1s3.7.9 6 2.1c4.8 2.5 21.5 5 29.1 4.4l13.9-1 19.3-1.5c10.4-.9 11-.8 13.9 1.3 2.1 1.5 4.4 2.2 7.7 2.2 3.5 0 5.9.8 9 2.8 2.4 1.6 4.9 2.6 6 2.2.9-.3 4.4.4 7.7 1.5 9.1 3 15.4 2.7 23.8-1.5l11.7-5.5c2.6-1.1 5.3-2.8 6.2-3.8 2.3-2.7 7.6-13.5 7-14.5-.3-.5-.7-2.9-1-5.5-.5-4.9-3.5-9.6-10.2-16-1.9-1.7-2.9-3.2-2.2-3.2.6 0 .4-.8-.6-1.9-.9-1.1-2-1.8-2.3-1.6-.4.2-1.3-.7-2-2-.7-1.4-1.9-2.5-2.6-2.5s-1.5-.9-1.9-1.9c-.3-1.1-1.7-2.7-3.1-3.6-1.3-.9-2.2-2.1-1.8-2.6.3-.6-.3-1.7-1.5-2.5s-2.1-2.1-2.1-2.8-.9-2.1-2-3.1-2-2.4-2-3.2c0-.7-.4-1.3-.9-1.3s-1.2-.9-1.6-1.9c-.3-1.1-2.3-3.7-4.4-5.8s-3.6-4.4-3.4-5.1c.3-.6-.3-1.2-1.3-1.2-.9 0-1.4-.3-1.1-.6.4-.4-.7-2.4-2.3-4.4-1.7-2.1-3-4.2-3-4.7 0-2.2-3.7-7.9-4.9-7.5-.8.3-1.1 0-.7-.6s-.5-2.9-1.9-5.1c-1.4-2.3-2.5-4.5-2.5-5.1a1.08 1.08 0 0 0-1-1c-.6 0-2.4-1.4-4.2-3-1.9-1.8-4.2-3-5.8-3-1.5 0-3-.3-3.4-.7-1-1-4.3-1.5-11.6-1.7-3.6-.1-7-.4-7.5-.7-.6-.3-1.9-.4-3-.2zm23.4 9.7c3.6 1.9 10.3 9.7 13.4 15.6 1.3 2.5 3.4 6.3 4.7 8.5s3.1 5.4 4 7.1c.9 1.6 2.6 4.4 3.8 6.1 2.8 3.9 2.8 4.9-.2 6.8-1.3.9-2.7 2.7-3 4-.8 3-5.7 10.2-9.2 13.5-3.9 3.6-13.9 4.1-20.3 1-5.1-2.5-10.1-6.7-10.1-8.5 0-.7-.9-2-2-3s-2.2-3.3-2.6-5.1c-.3-1.8-1.7-4.5-3.1-6-1.3-1.4-2.2-2.9-1.9-3.2s.2-1-.2-1.6c-1.4-1.9-4-9.9-4.6-14.1-.9-7.2-1.9-11-3-11.7-1.8-1.2.7-6 4.1-7.9 1.8-1 4.7-2.2 6.5-2.7 5.1-1.3 20.3-.5 23.7 1.2zm-129.4.2c3.8.8 9.1 3.9 13.3 7.8 1.7 1.6 3.2 2.6 3.2 2.2 0-.5 1.5.3 3.4 1.8 1.9 1.4 4 2.6 4.6 2.6 1.7 0 2.6 3.9 2.9 11.5.1 3.8.4 7.7.7 8.7.3.9-.3 2.2-1.4 3-1 .7-2.6 2.4-3.5 3.8-.9 1.3-1.7 2-1.7 1.5s-2.2 1.3-4.9 3.9c-4.3 4.2-5.6 4.9-9.8 5.3-3.8.4-5.3.1-7.1-1.5-2.5-2.2-6.3-7.2-8.8-11.7-.9-1.7-2.3-3.4-3-3.8-.8-.4-1.4-1.5-1.4-2.2 0-.8-.4-1.5-1-1.5-.5 0-1-.6-1-1.4 0-1.4-3.1-5.4-8.7-11.3-4.5-4.6-4.3-7.8.7-13.6 5.5-6.2 11.4-7.5 23.5-5.1zm84.8 16.2c2.8 9.2 2.1 18.5-1.7 22.4-1.2 1.3-4.4 4.1-7.1 6.3l-5.9 5c-.6.6-3.5 2.1-6.4 3.3-4.5 1.9-5.6 2.1-7 1-2.7-2-6.1-6.2-6.2-7.5 0-.6-1.5-3.7-3.3-7-3.8-6.8-6.4-13.7-6.6-17.6-.1-3.3 3.7-5.4 6.9-3.7 1 .5 2.5.8 3.2.5.7-.2 3.6-.6 6.3-.9 6.8-.6 9.2-1.3 16.1-4.6 8.7-4.3 9.6-4.1 11.7 2.8zM201 451.3c0 .5 1.7 3 3.8 5.6 3.9 4.8 5.3 7.4 7 12.8.9 2.7.7 3.4-1.2 5.2-2.8 2.6-3.8 1.7-5.6-4.8-.6-2.4-2-6-3.1-8-1-2-1.9-4.3-1.9-5.3 0-.9-.4-2-1-2.3-.5-.3-1-1.4-1-2.3s-.7-3-1.5-4.6c-.8-1.5-1.5-3.1-1.5-3.5.1-.9 6 6.2 6 7.2zm189.3 11.1c.9.7 1.7 1.7 1.7 2.2s1.2 2.3 2.8 3.9c1.5 1.6 2.7 3.2 2.7 3.6 0 .3 3.5 4.4 7.7 9 15 16.4 16.7 19 14.9 24-.5 1.5-.7 3-.4 3.3.4.3-.5.6-2 .6-1.8 0-4.2-1.7-8.3-6-5.1-5.4-12.1-10-15.2-10-.6 0-3-1.9-5.3-4.2-3.9-3.9-5.5-6.8-6.5-11.3-.6-2.6 1.5-10.5 3.3-12.6.7-.8 1.3-2.1 1.3-2.7 0-1.5 1.1-1.5 3.3.2zm-97.7 13.1c.4.8 1.2 1.5 1.9 1.5s2.5 1.8 4.1 4.1c1.5 2.2 3.6 4.6 4.5 5.3 3.1 2.2 6.7 12 6.9 18.8.2 9.7.3 9.4-3 9.2-1.6-.1-3 .1-3 .6 0 .4-2.4.3-5.2-.2-2.9-.5-7.8-1-10.8-1.2-6-.4-14.6-4-16.4-6.8-.7-1.2-.7-2.7.2-5.1.7-1.8 1.2-5 1.2-7s.5-3.9 1-4.2c.6-.3 1-1.5 1-2.6 0-1 .5-1.9 1-1.9.6 0 1-.6 1-1.3 0-1.5 5.8-7.4 9.2-9.2 3.2-1.8 5.8-1.8 6.4 0zm-49.1 1c1.1.2 2.2.4 2.5.5s1 .3 1.5.4c4.4.9 10.2 5.6 9.1 7.5-.3.5-.1 1.1.5 1.3 1.1.4 2.8 7.2 2.9 11.6 0 1.5-.4 2.1-1.2 1.6-.7-.5-.9-.2-.5.8.8 2.1-2.6 2.9-8 1.9-2.4-.5-4.3-.7-4.3-.4 0 .2-.8-.1-1.8-.6s-4.5-1.2-7.8-1.5c-7-.7-9.5-1.4-15-4.3-5.7-3-6.8-4.6-5.2-7.2.7-1.2 2-2.3 2.9-2.6s2.2-1.7 3-3.1c1.9-3.7 5.9-6.2 10.5-6.7 3.6-.4 5.2-.3 10.9.8zm90.1 2.1c.6.7 1.9 1.4 2.8 1.4s1.6.4 1.6 1c0 .5.6 1 1.3 1 1.9 0 7.7 5.9 7.8 7.9.1 2.4.6 4.3 2.1 8.1.8 1.9 1.4 5.1 1.3 6.9-.2 3.2-.6 3.6-4.3 4.9-2.3.7-4.2 1.9-4.2 2.5 0 .8-.3.7-.9-.2-.7-1.1-1.5-1.1-4.4-.2-3.9 1.3-10.2 1-11.8-.6-.7-.7-1.2-6.4-1.2-13.9-.2-10.9.1-13.6 1.8-17.2 1.7-3.8 2.2-4.2 4.5-3.7 1.4.3 3 1.3 3.6 2.1zm46.2 20.3c.9.6 2.8 1.2 4.2 1.5s3.9 1.8 5.6 3.3l8.1 7.1c5.3 4.5 6 6.5 3.3 9.2-2.5 2.5-15 5.1-15 3.1 0-.3-2-1.2-4.4-2-2.4-.7-5.3-2.1-6.3-3.1-1.1-1-3.3-2.5-5-3.3-6.5-3.4-8-10.1-3.1-14.2 3.1-2.6 9.2-3.4 12.6-1.6z"/><path d="M254.93 560.367c-4.698-.606-12.274-3.042-17.48-5.619-2.117-1.048-5.048-2.294-6.511-2.768s-4.599-2.418-6.968-4.319-5.109-3.645-6.089-3.876-3.357-1.599-5.282-3.04-4.209-2.986-5.075-3.433-1.575-1.274-1.575-1.838-.428-1.025-.951-1.025-2.383-1.26-4.132-2.8-3.471-2.8-3.827-2.8-1.385-.787-2.29-1.75-1.935-1.75-2.29-1.75c-2.015 0-21.51-19.004-21.51-20.968 0-.313-.63-.734-1.4-.935-.831-.217-1.4-.955-1.4-1.814 0-.904-.797-1.86-2.124-2.546-1.397-.722-2.265-1.807-2.537-3.168-.228-1.138-.857-2.07-1.398-2.07s-1.187-.551-1.435-1.225-.843-1.463-1.323-1.754-1.389-2.084-2.021-3.985-1.732-4.198-2.445-5.105-1.403-2.578-1.532-3.715c-.163-1.432-.665-2.128-1.635-2.269-1.216-.176-1.412-.774-1.494-4.55-.052-2.391-.66-6.71-1.352-9.597-2.466-10.294-2.048-34.472.735-42.47 1.23-3.534 2.179-15.523 3.151-39.78 1-24.979.947-31.482-.264-32.487-1.242-1.031-1.888-3.441-1.06-3.953.862-.533.808-3.109-.066-3.109-.385 0-.7-.337-.7-.75s-.472-1.222-1.05-1.8-1.05-1.619-1.05-2.314-.469-1.654-1.042-2.129-.875-1.135-.671-1.466-.141-1.383-.768-2.34-.951-2.043-.722-2.415c.558-.903-3.347-12.843-5.16-15.776-.79-1.279-1.437-3.143-1.437-4.143 0-1.096-.551-2.113-1.388-2.561-.764-.409-1.318-1.286-1.231-1.95.19-1.454-2.578-6.546-8.224-15.131-4.633-7.044-5.924-9.226-7.918-13.386-.741-1.545-1.859-3.235-2.485-3.754s-.981-1.199-.789-1.51-1.389-2.874-3.514-5.696-4.395-6.548-5.045-8.28-1.592-3.402-2.094-3.71-.912-.974-.912-1.481-.58-1.672-1.288-2.59-1.652-2.736-2.097-4.04-1.3-2.73-1.901-3.169c-1.139-.833-2.555-5.223-2.56-7.936-.001-.866-.276-1.575-.611-1.575s-1.125-1.024-1.758-2.275-1.798-2.984-2.59-3.85c-1.249-1.366-1.285-1.575-.268-1.575 1.754 0 1.436-.869-1.278-3.5-1.348-1.306-2.45-2.785-2.45-3.287s-.617-1.53-1.372-2.285c-.803-.803-1.567-2.841-1.842-4.916-.259-1.949-.745-3.713-1.08-3.921s-.417-1.145-.182-2.084c.356-1.42.171-1.707-1.103-1.707-1.309 0-1.47-.281-1.106-1.939.269-1.223.039-2.451-.622-3.325-.576-.763-1.058-2.373-1.07-3.58-.016-1.594-.405-2.293-1.422-2.559-1.092-.286-1.402-.958-1.408-3.057-.004-1.48-.457-4.171-1.006-5.979s-1.375-7.164-1.835-11.9c-1.041-10.7-.365-33.22 1.045-34.846.508-.586 1.483-2.798 2.167-4.915s2.465-6.639 3.958-10.047c3.191-7.285 7.579-12.439 22.387-26.302 14.157-13.252 15.289-14.097 19.268-14.375 1.856-.13 4.228-.459 5.272-.732 2.586-.677 11.795 1.452 14.674 3.393 3.619 2.439 3.543 6.141-.198 9.635-1.562 1.459-2.247 2.905-2.685 5.668-.366 2.305-.332 3.871.09 4.134.709.443 6.461-.438 7.648-1.172.375-.232 1.177-1.656 1.78-3.165 1.292-3.228 4.593-6.238 6.842-6.238 1.698 0 5.473 2.494 11.426 7.549 3.356 2.85 3.675 3.376 3.675 6.064 0 2.171-.425 3.342-1.62 4.465-.891.837-1.96 1.522-2.375 1.522s-.936.472-1.158 1.05-1.273 1.055-2.35 1.061c-1.071.006-2.39.291-2.93.633-.98.621-1.255 4.299-.422 5.647.782 1.266 4.836.709 7.706-1.059 1.54-.949 3.252-1.726 3.805-1.728s1.764-.712 2.693-1.579l1.688-1.575 1.89 2.253c2.882 3.435 9.273 19.318 9.639 23.955.438 5.533-.017 5.93-7.262 6.342-6.055.344-6.156.38-6.37 2.23-.19 1.648.113 1.972 2.45 2.621 1.467.407 5.286.742 8.486.745l5.819.004 1.979 4.375c1.089 2.406 2.358 5.793 2.822 7.525s1.128 3.697 1.477 4.365c1.115 2.135.723 4.638-.857 5.484-1.327.71-5.375.648-12.508-.193-1.508-.178-1.78.102-1.966 2.026-.165 1.709.163 2.472 1.4 3.257 1.619 1.027 11.16 2.561 15.924 2.561 2.438 0 2.718.275 7.261 7.113l4.726 7.113-2.473 2.038c-2.644 2.18-3.132 4.266-1.515 6.478.811 1.109 2.286 1.378 9.625 1.759 7.59.394 9.094.683 12.097 2.324 2.683 1.466 4.381 1.874 7.801 1.874 3.858 0 4.627-.239 6.546-2.031 2.822-2.636 2.836-4.988.042-7.338-2.129-1.792-4.043-2.464-11.029-3.874-4.598-.928-10.964-3.989-13.436-6.461-1.024-1.024-2.412-3.303-3.085-5.063l-1.222-3.2 2.859-5.711c2.206-4.408 2.678-5.929 2.066-6.666-1.05-1.265-3.698-1.21-6.291.131-1.155.597-2.699.896-3.43.664-1.509-.479-4.2-4.472-4.2-6.232 0-.642-.529-1.974-1.175-2.961-.961-1.466-1.019-2.045-.318-3.167.711-1.139.613-1.767-.574-3.689-1.556-2.518-1.88-5.973-.672-7.18 1.433-1.433.4-4.012-2.073-5.176-2.603-1.226-4.223-3.58-4.262-6.189-.014-.932-.444-2.192-.956-2.8-1.253-1.487-3.269-7.068-3.269-9.05 0-1.935-.822-3.536-3.857-7.512-2.178-2.853-3.16-5.115-4.129-9.513-.227-1.028-1.987-3.548-3.912-5.6s-3.683-4.295-3.907-4.984c-.266-.819-.84-1.117-1.651-.859-.9.286-2.547-.986-5.949-4.593l-4.705-4.988.453-3.292c.366-2.658.193-3.613-.895-4.957l-1.348-1.664-1.944 1.529c-2.807 2.208-8.613 2.143-11.326-.127-1.088-.911-3.574-2.461-5.523-3.445-6.246-3.154-6.677-5.221-1.546-7.413 5.644-2.412 29.594-8.5 37.865-9.626 7.653-1.042 8.469-1.04 10.85.024 1.416.633 4.39 1.442 6.61 1.799s4.342.837 4.717 1.069 2.414.873 4.532 1.424c11.567 3.013 34.536 18.209 42.483 28.106l7.202 8.968c5.651 7.036 12.884 16.43 18.864 24.5 5.291 7.14 23.155 27.132 34.418 38.519 6.614 6.687 16.549 14.913 24.1 19.956 4.075 2.722 8.769 6.095 26.6 19.115 12.088 8.827 38.646 35.677 43.75 44.23.77 1.29 2.918 4.573 4.773 7.293 6.557 9.617 10.661 20.557 16.623 44.321 5.662 22.564 5.912 24.945 5.723 54.416-.18 28.024.637 50.962 2.286 64.243 1.406 11.319 2.054 14.321 5.252 24.307 4.612 14.404 7.68 24.733 11.329 38.15 3.37 12.389 3.538 13.433 3.88 24.109.328 10.226.239 11.397-1.062 14-.781 1.562-1.774 5.182-2.207 8.043s-1.129 5.613-1.546 6.116-.564 1.423-.325 2.044c.581 1.514-2.927 7.846-4.649 8.393a8.39 8.39 0 0 0-2.522 1.458c-3.911 3.466-12.1 8.674-14.792 9.407-1.74.474-3.786 1.282-4.545 1.796s-2.217.934-3.24.934-2.921.438-4.219.972-4.093 1.184-6.21 1.442-4.638.758-5.6 1.109c-4.64 1.696-37.698 2.881-57.75 2.07-3.85-.156-9.464.109-12.475.587s-11.201 1.166-18.2 1.527-15.56.952-19.025 1.313c-7.316.762-35.297.828-40.97.095zm145.779-28.986c2.415-.918 8.08-3.443 12.59-5.612 8.59-4.132 10.062-5.426 13.14-11.551 3.099-6.167 3.419-7.793 2.496-12.698-1.182-6.282-2.806-9.338-7.777-14.639-2.363-2.52-4.505-5.438-4.76-6.486s-1.169-2.273-2.031-2.724c-2.239-1.17-12.394-11.973-12.407-13.197-.005-.564-.649-1.666-1.429-2.45-1.958-1.966-4.724-5.941-5.74-8.25-.466-1.059-1.085-1.925-1.376-1.925s-1.015-.942-1.611-2.093-2.465-3.65-4.156-5.554-3.281-4.112-3.533-4.907-.91-1.446-1.462-1.446-1.003-.425-1.003-.945-.97-2.283-2.155-3.919-2.781-4.439-3.547-6.23-2.058-3.966-2.871-4.834-2.76-4.068-4.328-7.11c-2.261-4.389-3.646-6.129-6.7-8.421-2.117-1.589-4.637-3.063-5.6-3.277s-3.168-.82-4.9-1.347-7.497-1.295-12.81-1.705c-11.202-.866-12.439-.645-21.927 3.923-3.513 1.691-7.856 3.349-9.65 3.685s-3.827 1.121-4.518 1.745-1.783 1.136-2.429 1.136-1.859.787-2.696 1.75-1.96 1.75-2.495 1.75-1.438.464-2.005 1.032c-4.181 4.181-28.455 6.44-34.491 3.21-.843-.451-2.103-.724-2.799-.606s-2.023-.161-2.948-.62-4.05-1.901-6.945-3.205-6.421-3.387-7.835-4.628-3.691-2.439-5.061-2.661c-1.403-.228-2.49-.811-2.49-1.335 0-1.745-6.971-3.252-16.691-3.609-8.711-.32-9.476-.243-11.347 1.14-1.103.816-2.641 1.483-3.416 1.483-.859 0-1.835.821-2.496 2.1-.597 1.155-1.558 2.1-2.135 2.1s-1.332.745-1.678 1.655-1.126 1.845-1.733 2.078-1.104.849-1.104 1.369-1.709 2.753-3.799 4.963c-3.584 3.79-3.826 4.276-4.289 8.596-.884 8.251-.107 13.225 3.152 20.189 4.048 8.65 6.407 14.649 10.958 27.877 2.143 6.228 5.004 13.436 6.358 16.019 3.094 5.903 8.078 10.686 12.211 11.721 1.682.421 3.641 1.096 4.354 1.499s3.39 1.007 5.95 1.34c9.912 1.291 34.663 7.709 41.754 10.826 16.073 7.066 26.501 8.234 53.82 6.029 23.314-1.881 26.538-1.881 29.59.005 1.374.849 4.489 1.733 7.389 2.097 3.244.407 6.446 1.375 9.069 2.74 2.23 1.161 5.545 2.261 7.366 2.445a38.6 38.6 0 0 1 6.489 1.348c7.503 2.391 14.429 2.436 20.487.134zm-141.004-182.14c2.968-.61 5.868-1.502 6.445-1.982s2.532-1.718 4.343-2.751c5.907-3.371 7.143-7.315 3.304-10.546-2.679-2.254-3.479-2.263-5.546-.062-.904.962-2.024 1.75-2.489 1.75s-1.666 1.077-2.67 2.393c-2.284 2.995-5.784 4.201-10.71 3.693-4.561-.471-8.411-2.28-10.272-4.828-2.675-3.662-3.271-9.499-3.948-38.708-.628-27.049-1.746-45.447-2.852-46.9-.293-.385-.75-1.861-1.015-3.279s-1.081-3.121-1.812-3.783c-1.327-1.201-7.567-3.16-8.443-2.651-.632.367 1.258 8.242 2.602 10.84 2.356 4.557 3.161 16.521 3.29 48.923.068 17.132-.124 32.453-.426 34.046-.497 2.616-.345 3.129 1.57 5.31 3.336 3.8 7.394 6.245 13.231 7.972 6.513 1.928 8.421 1.997 15.4.563zM158.35 253.685c10.826-4.476 12.266-5.269 15.771-8.685 6.47-6.305 10.129-16.995 10.129-29.593 0-6.771-1.401-12.757-3.469-14.826-.711-.711-1.493-1.925-1.739-2.698-.844-2.66-14.315-14.492-18.929-16.627-1.162-.538-2.704-1.378-3.428-1.867-1.066-.721-1.377-.718-1.643.015-.245.675-.567.706-1.268.124-1.383-1.147-11.133-2.73-16.774-2.723-2.695.004-6.381.397-8.191.875-3.486.92-5.073 1.87-3.126 1.87.642 0 1.167.315 1.167.7s-.568.7-1.262.7c-2.029 0-6.878 3.988-9.188 7.555l-3.017 4.665c-.486.754-1.265 1.788-1.732 2.299-1.312 1.435-2.377 5.649-2.788 11.031-.429 5.621 1.878 18.652 4.028 22.75a101.82 101.82 0 0 1 2.079 4.2c6.972 15.374 14.314 21.041 29.38 22.678 4.476.486 8.694-.25 14-2.443zm143.586-11.721c1.01-.392 2.517-1.814 3.349-3.159 1.465-2.37 7.57-18.931 9.571-25.965.542-1.903 1.302-3.778 1.689-4.165 1.034-1.034.858-5.001-.351-7.894-.798-1.91-.861-2.759-.257-3.486.623-.75.393-1.337-1.045-2.669-1.222-1.132-1.843-2.434-1.843-3.863 0-1.408-.425-2.318-1.225-2.623-.674-.257-2.188-1.429-3.365-2.603-4.929-4.917-7.907-7.217-9.824-7.587-1.12-.216-3.926-1.078-6.236-1.916-3.404-1.234-5.859-1.538-12.95-1.603-12.935-.119-12.795-.163-18.356 5.869-7.751 8.408-9.644 12.853-9.644 22.639 0 7.538 6.219 20.596 12.727 26.723 5.615 5.287 14.64 10.899 20.873 12.979 2.242.748 14.477.258 16.886-.676zm-20.736-9.033c-6.305-3.276-13.65-9.605-13.65-11.762a1.03 1.03 0 0 0-1.032-1.019c-1.074 0-3.168-3.391-3.168-5.13 0-.549-.444-1.368-.987-1.818-2.051-1.702-2.674-15.912-.862-19.652 3.255-6.718 4.64-8.268 10.016-11.219 4.355-2.39 5.586-2.788 6.8-2.197.815.397 3.899.851 6.853 1.01 6.572.353 11.455 2.534 16.978 7.581 6.729 6.15 7.758 10.307 5.602 22.634-1.212 6.928-1.948 8.791-3.475 8.791-.725 0-1.025.799-1.025 2.725 0 1.743-.368 2.866-1.021 3.117-.562.216-1.282 1.431-1.6 2.7-.44 1.755-1.269 2.643-3.458 3.708-1.584.77-3.487 1.951-4.23 2.625-2.129 1.932-4.964 1.426-11.74-2.094zM142.656 244.97c-2.279-.946-4.814-1.72-5.633-1.72-2.984 0-11.104-10.773-14.953-19.838-1.654-3.897-1.833-5.189-1.85-13.412-.019-8.763.056-9.237 2.023-12.786 2.784-5.024 6.531-9.264 8.187-9.264.754 0 2.156-.515 3.118-1.145 3.076-2.015 10.305-2.043 17.501-.066 3.491.959 7.271 2.237 8.4 2.839 3.2 1.708 12.448 10.968 14.548 14.566 3.74 6.41 3.096 15.957-1.725 25.565-3.744 7.462-9.548 12.221-15.896 13.034-1.664.213-4.201 1.202-5.638 2.197s-2.91 1.796-3.274 1.78-2.527-.804-4.806-1.75zm7.969-26.874c1.182-2.208.9-10.684-.417-12.564-1.589-2.269-5.131-3.582-9.661-3.582-3.088 0-3.991.267-4.572 1.354-1.84 3.439.125 12.261 3.286 14.747 2.535 1.994 10.305 2.025 11.365.045zM347.7 472.104c-4.877-1.913-10.081-5.919-11.215-8.632-.525-1.256-1.433-2.681-2.018-3.167s-1.72-2.637-2.523-4.781-2.153-4.87-3.001-6.057-1.9-3.106-2.335-4.263c-2.898-7.695-3.927-11.197-4.836-16.454-.566-3.273-1.562-7.446-2.213-9.274-1.142-3.206-1.135-3.392.21-5.25.767-1.06 3.27-2.852 5.563-3.983 3.785-1.867 4.847-2.061 11.519-2.1 4.042-.024 9.24.215 11.55.531 4.066.556 4.367.747 9.45 5.991 4.322 4.459 6.414 7.514 11.829 17.276 3.618 6.522 7.477 13.176 8.575 14.785 2.437 3.573 2.496 4.764.303 6.201-.931.61-2.38 2.571-3.22 4.358-1.888 4.016-6.27 10.495-8.493 12.556-4.157 3.854-12.555 4.847-19.143 2.263zm62.855 31.348c-6.487-6.064-11.012-9.279-15.072-10.71-3.46-1.22-7.608-4.992-10.072-9.158-2.47-4.177-3-6.588-2.287-10.405.673-3.602 4.119-11.484 5.034-11.512.812-.025 3.173 2.653 7.143 8.105 1.925 2.643 6.183 7.803 9.462 11.467 9.986 11.158 11.96 13.542 13.787 16.656 1.529 2.606 1.695 3.492 1.279 6.825-.429 3.436-.65 3.83-2.149 3.83-1.108 0-3.506-1.716-7.125-5.098zM382 520.905c-6.819-3.068-14.846-8.53-16.099-10.954-2.542-4.916-.042-9.582 6.014-11.225 2.767-.751 3.672-.647 8.777 1.01 4.971 1.613 6.523 2.562 12.25 7.494 9.572 8.242 10.465 9.708 7.561 12.414-1.657 1.544-8.503 3.64-11.549 3.536-1.13-.039-4.259-1.062-6.954-2.275zm-56.35-9.539c-.855-.54-1.093-3.006-1.282-13.288-.246-13.384.499-18.069 3.27-20.576 1.127-1.02 1.432-1.002 3.646.221l4.166 2.242c.962.499 1.907 1.106 2.1 1.349s1.327.942 2.521 1.553c2.777 1.422 6.579 5.736 6.579 7.465 0 .733.81 3.843 1.799 6.91s1.698 6.631 1.575 7.917c-.201 2.096-.676 2.564-4.572 4.502-2.391 1.19-4.609 1.902-4.928 1.583s-1.668-.268-2.997.113c-3.058.877-10.492.883-11.876.009zm-47.422-49.891c-2.323-2.406-9.95-17.176-12.165-23.56-1.515-4.366-1.699-8.133-.438-8.949.481-.311 4.025-.601 7.875-.643 9.385-.103 14.877-1.23 22.364-4.588 8.172-3.665 9.441-3.733 10.974-.585 3.031 6.223 3.466 18.03.831 22.543-2.13 3.648-13.322 12.997-18.75 15.661-6.136 3.012-7.881 3.032-10.692.121zm16.622 52.618c-13.543-1.906-19.154-3.657-22.009-6.871-1.241-1.396-1.287-1.881-.525-5.568.459-2.221.836-4.965.838-6.097s.475-2.96 1.05-4.063 1.046-2.609 1.046-3.347.472-1.523 1.05-1.745 1.05-.797 1.05-1.279c0-2.903 11.329-11.692 13.473-10.451 3.803 2.2 12.711 12.146 15.136 16.9.823 1.614 1.968 4.743 2.544 6.953 1.085 4.164 1.444 14.6.522 15.162-1.224.746-9.975.997-14.175.406zm-69.703-53.085c-1.769-.758-6.183-5.997-9.613-11.409-1.395-2.2-3.177-4.642-3.96-5.425s-1.424-1.897-1.424-2.474-.311-1.05-.691-1.05-1.127-1.024-1.659-2.275-2.93-4.48-5.328-7.175c-6.242-7.017-6.693-8.064-5.056-11.74s6.727-8.436 10.276-9.607c1.733-.572 4.935-.764 9.102-.546 7.605.398 11.893 2.081 18.026 7.076 2.206 1.797 4.182 3.267 4.392 3.267s2.571 1.306 5.247 2.902c5.543 3.306 5.29 2.699 6.226 14.947l.589 7.7-2.863 3.15c-1.575 1.732-3.661 3.661-4.637 4.286s-2.719 2.143-3.874 3.374-3.048 2.825-4.208 3.542c-2.463 1.525-8.455 2.352-10.546 1.455zm23.153 40.556c-1.925-.269-3.973-.692-4.55-.941s-4.346-.94-8.375-1.536c-7.714-1.141-15.876-4.354-18.54-7.298-1.129-1.248-1.189-1.687-.423-3.119.49-.916 1.668-2.082 2.616-2.589s2.576-2.191 3.617-3.74c3.838-5.715 9.819-7.447 19.467-5.639 8.538 1.6 13.291 4.364 14.445 8.399.22.77.855 2.66 1.411 4.2s1.226 4.296 1.489 6.125c.396 2.751.29 3.325-.614 3.325-.606 0-1.093.591-1.093 1.325 0 2.2-2.049 2.523-9.45 1.489zm-42.045-29.239l-2.915-7.525-2.638-7.09c-.513-1.589-1.233-3.479-1.599-4.2-1.006-1.981-2.264-6.082-1.96-6.387.148-.148.78.461 1.404 1.354l8.325 12.123c1.308 1.925 3.04 5.286 3.847 7.469l1.469 3.969-1.42 1.806c-2.052 2.609-3.144 2.242-4.514-1.519z" fill="#fff"/></svg>