<svg xmlns="http://www.w3.org/2000/svg" width="816" height="704" viewBox="0 0 612 528" preserveAspectRatio="xMidYMid meet"  xmlns:v="https://vecta.io/nano"><path d="M204 37.7c-1.9.3-3.9.9-4.4 1.4-1.3 1.2-2.9 1.2-2.1-.1.8-1.4-.2-1.3-3.3.4-4.7 2.4-7.6 3.4-11.2 4l-10.5 2.1c-1.1.2-3.6.9-5.5 1.4-1.9.6-6 1.7-9 2.6-6.3 1.7-9.7 3-15.7 5.6-2.4 1.1-4.5 1.9-4.8 1.9-.2 0-3.3 1.3-6.7 3-3.4 1.6-6.6 3-7.1 3-1.8 0-15.2 7-16.8 8.7-.9 1-3.2 2.9-5 4.3s-3.9 3.2-4.5 4C89.9 89.2 87 93.1 87 93.8c0 .4-1.1 2.1-2.4 3.8l-6.4 7.8c-2.2 2.6-4.2 6-4.5 7.5-.3 1.4-1.1 3.9-1.8 5.6-.7 1.6-1.3 3.2-1.4 3.5s-.4 1.2-.8 2c-.3.8-.8 2.8-1 4.5-.3 1.6-1 4.8-1.6 7-.7 2.2-1.4 6.5-1.6 9.5l-1.1 11.5c-1.9 17.2-1 36.4 2.1 46.5.8 2.5 1.7 6.6 2.1 9.2.3 2.7 1 4.8 1.4 4.8.5 0 1.6 2.1 2.6 4.7.9 2.7 2.7 7.1 4 10 1.3 2.8 2.4 5.6 2.4 6.2 0 .5.4 1.1.9 1.3.6.1 2.2 2.6 3.8 5.4 4.4 7.9 15.7 24.2 18.4 26.4.8.7 12.3 24.2 12.5 25.5 0 .5.5 2.1 1.1 3.5l3.7 8.6c1.4 3.4 2.6 7.3 2.6 8.7s.4 2.8.9 3.2c1.4.8 4.1 9.7 4.9 15.7.3 2.9.5 14.1.4 24.8-.2 21.3 1.6 43.8 3.8 48.1.6 1 1 3 1 4.6 0 3.3 2.8 12.7 5.9 19.8 4.5 10.1 25.6 31.2 36.2 36 1.9.9 5.9 2.9 8.9 4.5s6.7 3 8.1 3 2.9.3 3.3.7c.3.4 1.5.8 2.5 1 1 .1 3.1.8 4.7 1.4 1.6.7 3.6 1.3 4.4 1.4s5.1 1.1 9.5 2.3c8.2 2.1 13 2.9 22.5 3.6 5 .4 22.8.9 24 .6.3 0 4.4-.3 9.2-.6 4.8-.2 10.7-.7 13-.9 2.4-.3 7.5-.7 11.3-.8 9.7-.4 19.8-1.8 21.2-2.9.7-.5 1.7-.7 2.3-.3s1.8.1 2.6-.6c.8-.6 1.7-.9 2.1-.6.3.3 1.7 0 3.2-.7 1.4-.8 5-1.7 7.8-2.1 2.9-.4 5.6-1.1 5.9-1.6s1-.7 1.5-.3c.5.3 1.6 0 2.4-.6s1.9-.9 2.5-.5c.5.3 2-.1 3.2-.9 1.2-.9 3.2-1.6 4.5-1.6 1.2 0 2.5-.4 2.8-1 .3-.5 1.5-1 2.6-1s1.9-.7 1.9-1.6c0-1 .6-1.4 1.5-1 .8.3 1.5.1 1.5-.5s.5-.7 1.1-.4c.5.4 1.8 0 2.8-.9s2.2-1.6 2.7-1.5c1.3.3 4.6-1.2 6.7-2.9.9-.8 2-1.2 2.4-.9.3.4 1.1.3 1.7-.1.6-.5 3.1-1.5 5.6-2.2 2.5-.8 5.9-2.2 7.5-3.2 1.7-1 4-1.8 5.2-1.8s2.4-.4 2.8-1c.3-.5 1.2-.7 2-.3.8.3 1.5.1 1.5-.5 0-.5 1.7-1.2 3.8-1.5 5-.8 8-1.5 9-2.1.5-.3 2.4-.8 4.3-1.1 7.9-1.3 9.6-1.7 12.9-3.3 1.9-.9 3.7-2 3.8-2.5.2-.4 1.1-.7 2-.7 1 0 4.2-2.3 7.2-5s6-5 6.6-5c.5 0 2.3-1.3 3.9-3 1.6-1.6 3.3-3 3.7-3 .9 0 2.4-1.1 5.9-4.3 1.1-1 3.9-2.7 6.2-3.9s4.4-2.5 4.7-2.8 4.4-2.5 9.1-4.8c4.8-2.3 9-4.9 9.3-5.7s1.3-1.5 2.2-1.5 2.2-.7 2.8-1.5c.9-1.2 1.8-1.3 4.6-.5 5.2 1.5 6.5 1.2 8-1.5.7-1.3 1.8-2.3 2.3-2.2.6.1 1.4-1.4 1.7-3.3.8-4.3 3.9-11 5.1-11 .5 0 .9-.7.9-1.5 0-.9.7-2.6 1.5-3.9.9-1.3 1.5-2.8 1.4-3.2-.1-.5 1-3.5 2.4-6.6 1.5-3.2 2.9-6.8 3.2-8.1.4-1.3 3.1-4.9 6.1-8.1s5.4-6.2 5.4-6.7.6-.9 1.4-.9 1.8-1.4 2.1-3.3c.4-1.7 1.1-3.4 1.4-3.7.4-.3 1.5-3.2 2.5-6.5 1.1-3.3 2.3-6.5 2.8-7.2 1.2-1.5 4.8-16.4 4.2-17.4-.2-.4 0-1.1.6-1.4.6-.4.8-1.5.5-2.5s-.1-2.1.5-2.5c.5-.3 1-2.2 1-4.1s.4-3.4.9-3.4 1.2-1.7 1.6-3.8c.4-2 1.3-4.4 2.1-5.3 1.2-1.4 2.2-5.3 2.3-10.2.1-1.1.5-1.5 1.3-1.1.6.4.8.3.5-.3-.4-.6.9-7.1 2.8-14.5s3.7-16.1 4-19.4l1-10.5c1.2-11.6.3-32.1-1.5-34.4-.5-.6-1.4-3-2.2-5.5-1.7-5.9-19.1-38.1-21-38.8-.4-.2-.8-.9-.8-1.6s-2.1-3.4-4.6-6.1-5.3-6.2-6.2-7.7-2-2.8-2.4-2.8-.8-.4-.8-.9c0-1.4-17.4-18.4-25-24.6C510.3 98 497.4 91 494.2 91c-1 0-2.2-.4-2.8-.9-.9-1-9.1-3.5-16.4-5.1-1.9-.4-4.6-1.2-6-1.8-3.1-1.4-22.8-4.2-29.1-4.2-2.5 0-4.8-.3-5.2-.6-.3-.4-3.7-.8-7.4-.9-15.7-.7-29.1-1.7-32.8-2.5-2.2-.4-7.4-1.1-11.5-1.5-4.1-.3-9.7-1-12.5-1.6-2.7-.5-7-1.1-9.5-1.3-4.9-.4-22.9-4.2-26.8-5.7-1.3-.5-3.6-.9-5.2-.9s-3.1-.4-3.4-.9-2.7-1.2-5.3-1.6c-2.7-.4-6.4-1.4-8.3-2.2-1.9-.9-3.9-1.5-4.4-1.4-1.5.4-9.6-2.3-9.6-3.1 0-.4-.3-.7-.7-.6-.5 0-1.5-.1-2.3-.4-2.1-.8-17.5-5.5-23.5-7.2-4.4-1.3-8.8-1.9-22-3.2-2.9-.2-11-1.6-21-3.5-7-1.4-17.7-2.9-19.5-2.7-.8.1-3.1.3-5 .5zm16.9 8.9c.3.5 2.6 1 5.1 1.2 2.5.1 4.6.6 4.8 1.1.1.4 1.4.6 2.7.3 1.4-.2 2.5 0 2.5.4 0 .5 2.5 1 5.6 1 3.1.1 6.1.7 6.7 1.3s4.3 1.1 8.2 1.1c4 0 7.5.3 7.9.7.3.4 1.4.7 2.4.8 3.4.3 8.7 1.8 9.9 2.7.7.5 2.2.6 3.5.3 1.3-.4 2-.4 1.6 0-.8.9 3.6 3.5 5.8 3.5 2.1 0 10.8 3.1 11.4 4.1.3.5 2.8 1 5.6 1.2 2.7.2 6.7 1.2 8.9 2.2 2.1 1.1 4.6 2 5.4 2.1.9.1 4.1.7 7.1 1.3l7 1.4c.8.1 3.1 1 5 1.8 3.1 1.4 12.5 3.6 20 4.5 8.3 1.1 11.7 4.4 6.6 6.4-1.4.5-2.6 1.2-2.6 1.5 0 1.6 2.2 4.5 3.5 4.5 1.4 0 4.5 2.6 4.5 3.9 0 .4-1.8 1.5-4 2.5s-4.5 2.6-5 3.6c-.9 1.6-.6 2.1 1.5 2.6 1.4.3 4 0 5.7-.7 4.7-1.9 12.3-1.4 15.8 1.1 1.7 1.2 3 2.7 3 3.3 0 .7.9 2.9 2 5 1.1 2 1.7 3.7 1.4 3.7-.4 0-.2.6.4 1.2 1.7 2.1 1.2 9-.9 11.7-2.4 3.1-2.4 4.7.1 5.4 2.6.7 3.7 3.8 4.5 13.1.7 8.4.5 8.7-5 6-4.5-2.1-7.9-1.5-8.3 1.3-.2 1.6.2 2.3 1.2 2.3.9 0 1.6.7 1.6 1.5 0 .9 1 1.5 2.3 1.6 1.2 0 2.9.2 3.7.4 2.4.5 8.6 3.4 7.5 3.5-.5 0 .5.7 2.3 1.5 1.7.8 3.2 1.9 3.2 2.5a1.08 1.08 0 0 0 1 1c.6 0 1-.8 1-1.8 0-1.3.2-1.4.9-.3 1.4 2.1 5.1-.4 5.1-3.5 0-1.6.5-2.4 1.2-2.2 2.7.9 4.3-2.1 4-7.3-.4-4.9-.4-5-3.5-4.7-2.7.2-3.3.8-3.7 3.2-.3 1.6-1 3.1-1.7 3.3-1.4.5-4.4-3.7-4.8-6.9-.1-1.3-.6-4.4-1-7-.9-6.1-.1-8.3 4.1-10.3 1.9-.9 3.2-1.9 3-2.4-.3-.4-.1-1.3.4-2.1 1.4-2.3-.7-3.9-4.4-3.3-2.9.4-3.4.2-3.9-1.8-.3-1.3-1.7-5.5-3.1-9.4-2.5-6.7-2.4-8 .7-8.6 1-.2 2.5-.6 3.5-.9.4-.1 1-.2 1.5-.1.4 0 .7-.5.7-1.2 0-2.1-4.3-4.1-9.3-4.3-3.2-.1-5.5-.8-7-2.1-1.2-1.1-4.7-3.4-7.8-5.2-3.1-1.7-6.2-3.8-6.9-4.6s-2.2-1.5-3.3-1.5c-1.4 0-1.8-.3-1.1-1 1.4-1.4 9.7-1.9 14.7-.8 4.8 1 9.3 1.5 18.7 1.9 3.6.2 6.8.8 7.2 1.3.5.7 2 .7 4.5 0 2.2-.6 5.3-.6 7.3-.2 1.9.4 7.3 1 12 1.3 18.6 1.2 28 2.4 30.5 4 1.2.7 5.1 1.8 8.9 2.3 3.7.6 7.3 1.5 7.9 2.1.7.5 2.9 1.2 5 1.6 2 .4 3.7 1.1 3.7 1.6s.6.6 1.4.3 1.7-.1 2 .5c.4.6 1.3.8 2 .5s1.6.2 1.9 1 1.4 1.2 2.5.9c1.2-.3 2.2.1 2.5 1.1.4.9 1.7 1.6 3.1 1.6 1.5 0 2.7.7 3.1 1.9.3 1.1 1.9 2.2 3.8 2.6s2.6.9 1.8 1.2c-1 .4-.3 1.2 2.1 2.7 1.9 1.1 3.5 2.3 3.4 2.6-.2 1 11.9 13 13.2 13 .6 0 1.2.9 1.2 2s.5 1.8 1.3 1.5c.6-.2 2.4 1.2 4 3.3l4.5 6c.9 1.3 3.6 4.4 5.9 6.8 2.5 2.7 4 5.1 3.6 6-.3.8.1 1.4 1 1.4.8 0 1.8 1.2 2.2 2.7.3 1.6 1.3 3.5 2 4.3s1.4 1.9 1.5 2.5c.6 2.8 2.1 5.6 3.4 6.1.7.3 1.6 1.9 2 3.5.3 1.7 1.4 4.3 2.4 5.7 1.1 1.5 2.2 4 2.6 5.5s1 2.5 1.5 2.3c1.8-1.1 4.2 16.6 3.7 25.9L574 225c-.2 4.7-2.5 18.8-4.6 27.5l-2.7 12c-.4 2-1.1 4.1-2.7 8-.8 1.9-2.1 5.4-2.5 6.5-.1.3-.7 1.8-1.3 3.3-.7 1.6-1.2 3.8-1.2 5s-.8 4.5-1.9 7.3c-1 2.8-2.2 7.3-2.6 10s-1.2 5.8-1.8 6.9-1.2 2.2-1.3 2.5c0 .3-.3 1.2-.7 2-.3.8-1.1 3.3-1.7 5.5-2.8 9.5-9.7 22-14.6 26.4-5.1 4.7-6 5.9-8.8 13.4-1 2.6-2.4 4.7-3.1 4.7-1.8 0-8.5-9.3-8.5-11.6.1-2.9 2.6-6.9 4.4-6.9.9 0 1.6-.3 1.6-.8 0-.4 1.1-1.9 2.5-3.3 3.3-3.3 3.4-7.7.3-7.2-1.3.2-2.9 1.5-3.6 3-.8 1.7-2.1 2.8-3.3 2.8-1 0-1.9.5-1.9 1.1s-1 .9-2.2.7c-1.8-.2-2.5-1.5-3.9-7.3s-2.5-16.7-2-21.1c.1-.6 1.5-2.5 3.1-4.2 1.6-1.8 3-3.9 3-4.7 0-1 .5-1.3 1.2-.9.7.5.8.3.3-.5-.4-.7.2-2.2 1.5-3.6 1.3-1.3 2.4-3.5 2.5-4.9.2-1.3.6-3.3 1-4.5.4-1.3.2-2.1-.5-2.1-1.7 0-5.4 4.9-6 7.8-.5 2.5-3.4 5.1-4.5 4-.9-.8-1.6-4.6-2.1-11.1-.4-5.5-.3-6 2.6-8.7 1.6-1.5 3-3.3 3-3.8 0-.6.5-1.2 1-1.4 1.9-.6 2.1-7.5.2-9.8-1.5-1.8-1.9-1.9-3.6-.7-1.2.9-1.9 2.7-2 4.8-.1 2.9-.5 3.4-2.7 3.7-2.1.2-3.1-.6-5.9-5-1.9-2.9-4.6-6.9-6.1-8.8-2.7-3.6-4.3-8-2.9-8 .4 0 1-1.1 1.2-2.5.7-3.3-1.5-4.9-6.1-4.7-2.7.2-4.3-.3-5.5-1.7-2.3-2.6-9.1-6.1-11.6-6.1-1.1 0-2.3.8-2.8 1.7-1 1.9.1 6.3 1.6 6.3.5 0 1.4 1.1 2.1 2.4 1.1 2.1 1 2.6-1.4 5-1.4 1.5-2.5 3.2-2.2 3.9.5 1.6 7.9 1 9.1-.7 1.1-1.6 5.4.1 6.2 2.6.3.9 1.9 3.2 3.5 4.9 5.5 5.9 9.3 16 5.4 14.5-.8-.3-1.5-.1-1.5.5s-.4.7-1 .4c-.5-.3-1.9.3-3.1 1.4-1.8 1.7-2 2.3-.9 3.6.7.8.9 1.5.6 1.5-.4 0-.4.5-.1 1 .5.8 1.1.7 2.1-.1.8-.6 2.9-1.5 4.7-1.9 2.7-.5 3.6-.2 5.9 2.1 2.2 2.3 2.7 3.8 3.3 11.1.9 11.3.6 12.8-3.4 15.5-2.2 1.5-3.5 3.3-3.7 4.9s.2 2.4.9 2.1c.7-.2 2.4.4 3.8 1.4 2.3 1.6 2.7 2.8 3.9 13.4l1.3 11.6-3.3 2.8c-2.3 1.9-3.1 3.3-2.7 4.4.8 2.2 3.9 3.5 4.5 1.9.2-.8 1.2-.6 3 .6 3.4 2.1 4.1 3.2 3.5 4.9-.3.7.2 1.6 1.1 1.9s1.6 1.2 1.6 2 .6 1.4 1.4 1.4c.7 0 1.6.8 1.8 1.7.3 1 .6 2.2.7 2.8.2.5.7 1.7 1.2 2.6 2.5 4.7-5.7 15.9-15.3 20.8-2.4 1.2-4.7 2.8-5.3 3.4-.5.7-2.6 2-4.5 2.9-7.2 3.6-14.6 8-16.6 9.9-1.1 1-2.7 1.9-3.5 1.9s-3.5 2-6.1 4.5c-2.7 2.4-4.8 4.1-4.8 3.7s-.6 0-1.3.8-2.8 2.7-4.7 4.2c-1.9 1.4-5.3 4.3-7.5 6.3-2.2 1.9-5.1 3.8-6.5 4.1s-4.3 1.1-6.5 1.9c-2.2.7-6 1.6-8.5 1.9-4.5.7-13.7 3.1-17.5 4.7-1.1.4-4 1.5-6.5 2.3s-6.1 2.1-8 2.9c-7.7 3.3-10.8 4.5-16.7 6.3-3.5 1.1-6.3 2.2-6.3 2.6 0 .5-1.1.8-2.4.8-1.4 0-2.8.5-3.2 1.1-.6 1-2 1.7-10.4 5.2-1.4.5-3.4 1.2-4.5 1.4-2.5.4-20.4 5.3-22.5 6-.8.4-1.9.5-2.3.4-.5-.1-3.6.5-7 1.4-3.3.8-10.8 1.8-16.6 2l-13.6.9-9 1c-11.8 1.4-34.8 1.3-44-.1-9.5-1.4-22-4.8-35-9.3-2.5-.8-11.5-4.9-13.5-6.1-.8-.5-3.1-1.7-5-2.8-10.2-5.6-25.9-20.6-31-29.5-4-7.1-8.1-23.4-10-39.6l-1.5-12.5c-.2-1.7-.5-11.6-.6-22 0-10.5-.4-19.4-.7-20-.3-.5-.5-2.7-.3-4.8.2-2.4-.3-4.5-1.3-5.6-.9-1-1.7-3.1-1.7-4.7-.1-1.6-1-4.8-2-7.1-1.1-2.4-1.9-5.1-1.9-6.2 0-1-.7-2.4-1.5-3.1-.9-.7-2.3-2.8-3.2-4.8-1.5-3.2-1.5-3.5 0-4.7.9-.7 1.7-1.8 1.7-2.4 0-.7.4-1 .9-.6.5.3 1.2.1 1.6-.5.3-.5 1.3-1 2.1-1 1.6 0 5.4-3.5 5.4-5 0-.6.5-1 1.1-1s.9-.7.6-1.4c-.9-2.2 3.1-3.1 5.2-1.2 1 .9 2.4 1.6 3.2 1.6s1.9.4 2.4.8c.6.4 2.7 1.4 4.8 2.1 3.4 1.1 4.1 1.1 5.8-.5 1.9-1.7 2.7-5 1-3.9-.5.3-3.1-.8-5.8-2.4a95.61 95.61 0 0 0-8-4.6c-3.1-1.6-4.5-3.9-4.8-7.8-.1-.9.3-1.7.8-1.7s.7-1 .4-2.3c-.9-3.5.5-4.6 6.4-5.2 6.3-.7 8.9-2.5 6.9-4.9-.7-.9-2.8-1.6-4.8-1.6-3.7 0-7.2-2.3-7.2-4.7 0-.7-.5-1.3-1.1-1.3-.7 0-.9-1-.7-2.5.3-1.4.2-2.5-.1-2.5-.6 0-.8-.9-1.2-6.5-.1-1.4-.5-2.5-1-2.5s-.9-.8-.9-1.8c0-.9-1.4-4-3-6.7-2.3-3.8-3-6.2-3-10.3 0-5.3-.5-6-4.6-6.6-.9-.1-2.4-2-3.2-4.2-.9-2.1-1.9-4.1-2.2-4.4-1.2-.9-1.8-5-.8-5 2.4 0 6.7-7.4 4.8-8.5-.4-.3-1 0-1.2.7-.3.8-1.6.6-4.3-.8-3.4-1.6-4.2-2.6-5.6-7.4-.9-3-1.5-6.9-1.5-8.5.1-1.7-.2-3.3-.7-3.6-.4-.3-.4-1.7.1-3 .6-1.5.5-5-.3-9.4-.7-3.9-.8-7.4-.4-8 .5-.5.9-1.7.9-2.7 0-1.1 1-2 2.8-2.4 3.8-1 6.6-3 8.2-5.9.7-1.4 1.9-2.5 2.6-2.5s1.4-.3 1.6-.8c.2-.4 1.6-1.4 3.2-2.2 2-1.1 3-2.4 3.2-4.5.5-4.4-.9-6.2-3.8-4.8-11 5.2-13.9 6.9-17.4 10-3.5 3.3-4.6 3.7-11 4.2-9.3.8-12.9 3.8-8.8 7.2 1.4 1.1 1.8 1.1 2.8-.1 1.2-1.6 5.6-1.5 5.6.1 0 .5.7.9 1.5.9 1.2 0 1.5 1.8 1.6 9.7 0 5.4.3 12.7.7 16.3 1 8.9.8 9.5-4.6 11.1-3.6 1.1-4.7 1.9-4.7 3.4s.6 1.9 2.3 1.8c1.2-.2 2.2.2 2.2.8 0 .5.4.7 1 .4a2.4 2.4 0 0 1 2.3.2c1.1.7 1.5.9 3.5 1.2.4 0 1.3 1.6 2 3.3a51.19 51.19 0 0 0 2.3 5c.5 1 .9 2.9.9 4.3s.5 2.5 1 2.5c.6 0 .9.3.8.7-.1.5.6 2.1 1.6 3.6 3 4.4 2.9 7.6-.2 9-4.1 1.7-9.2 5.8-9.2 7.2 0 .7.7 1.8 1.5 2.5 1.2 1 1.5 1 1.5-.4 0-.9.5-1.6 1.1-1.6.5 0 .7.6.3 1.2-.4.8 0 .7 1.2-.2 5.3-4.2 9.3-5 11.6-2.6 4.9 5.2 7.1 9.1 7.4 13.1.2 1.6.7 4.6 1.2 6.6 1.4 5.5.2 6.7-5.8 6.1-6.4-.6-10.3 1.2-9.4 4.2.8 2.6 2.5 3.8 3.9 2.6 2-1.7 6.7-.3 9.5 2.8 4.5 4.9 3.8 15.6-.7 11.1-.6-.6-3-2-5.1-2.9-3.9-1.8-4.1-1.8-5.8.1-1.5 1.7-1.6 2.2-.4 4.4.7 1.4 1.5 2.3 1.8 2.1.8-.8 9.2 8.1 9.2 9.8 0 3.5-9.1 5.7-12.2 2.9-1-.9-1.8-2-1.8-2.4 0-2.3-13.6-23-21.8-33.4-2-2.4-10.2-16.6-10.2-17.5 0-.5-.9-2.4-2-4.2s-2-4-2-4.9c0-.8-.9-3.4-2-5.7-1.1-2.2-2-4.6-2-5.2 0-.5-.5-1.9-1-3-.6-1.1-1.4-2.8-1.9-3.8s-.7-7.3-.5-14.1c.2-7.8 0-12-.6-11.6-.6.3-1 .2-1-.4 0-.5.3-1.2.8-1.4.6-.5.7-6.5.1-24.7-.1-3.6.3-7.5.9-8.7.7-1.2 1.2-2.8 1.2-3.6s.7-2 1.5-2.7c1.2-1 1.3-1.5.4-2.1-1-.6-1-1.1 0-2.3 1.1-1.3 1.1-1.6 0-1.6-.8 0-.6-.5.6-1.3 1-.8 1.5-1.8 1.2-2.4-.3-.5.1-2.2.9-3.7.7-1.6 1.4-3.2 1.4-3.7 0-1.6 3.5-8.9 4.2-8.9.5 0 .8-1 .8-2.3 0-1.8.2-1.9 1-.7.9 1.4 1.4.7 1.1-1.3-.3-1.9 11.4-15.9 12.4-14.9.4.4.6.2.5-.3-.5-2.3.1-5.5.9-5.5 1.1 0 5.3-3.4 9.1-7.3 2.9-3 7.4-5.7 9.5-5.7.7 0 1.8-.6 2.4-1.4.6-.7 2.9-1.6 5-2 2.2-.3 4.6-1.3 5.5-2.1.8-.8 2.2-1.2 3-.9 1 .4 1.8 0 2.2-1 .3-.9 1.4-1.6 2.4-1.6 1.1 0 2.1-.4 2.4-.9.3-.4 2-1.1 3.7-1.5 1.7-.3 4.5-1.2 6.2-2 3.5-1.6 8.8-3 10-2.8.4.1 2.4-.5 4.5-1.4 2-.9 5-1.8 6.6-2s3.5-.9 4.1-1.4c.7-.6 1.9-.8 2.8-.5.8.4 3.1-.1 5.2-.9 2.1-.9 5-1.6 6.6-1.6s3.7-.4 4.7-.9c4.7-2.5 22.5-3.6 24.1-1.5zm-21.4 59l-7.2 2.9c-1.7.8-3.7 1.5-4.4 1.5-.6 0-2.7 1.8-4.6 4s-4.2 4-5 4c-.9 0-1.4.3-1 .6.3.3-1.7 3.3-4.4 6.7s-4.9 6.9-4.9 7.8c0 1-.4 2-.9 2.4-1.8 1.1-4.1 11.4-4.1 18.3 0 8.2 2.4 20.6 4.6 24 2.7 4.1 9.1 10.2 10.7 10.2.9 0 2 .6 2.4 1.2 1.2 1.9 5.3 4 5.3 2.7 0-.6.5-.7 1.3-.2 1.5.9 3.1 1 8 .2 2-.4 4-.2 4.3.3s1.1.3 1.7-.5c.7-.8 2.6-1.9 4.2-2.5 1.7-.5 3.9-1.4 5-1.8s2.4-.6 2.9-.5c.4.1 1.3-.3 2-.8.6-.5 2.8-.8 4.8-.6 2.2.2 4.2-.2 4.8-1 .6-.7 2.3-1.1 4-.9 1.6.2 3.1 0 3.4-.5s1.7-.6 3.2-.3c2 .4 2.5.1 2.2-.9-.3-.8.3-2.5 1.2-3.9s2-4.5 2.4-6.9 1.6-5.2 2.6-6.1c1.1-.9 1.7-2 1.3-2.3-.3-.4.6-2.4 2-4.6 2.4-3.5 2.6-4.5 1.8-8.5-.4-2.5-.6-4.8-.3-5 .9-1 1.3-10.8.4-10.2-.5.3-.9-.8-1-2.4 0-1.7-1.1-4.5-2.4-6.3-2.3-3.3-9.7-10.3-12.8-12.2-.9-.5-2.8-1.8-4.1-2.7-2.5-1.7-14.3-5.1-21.4-6.1-2.4-.4-5.6 0-8 .9zm17.5 8.7c1.4.6 2.8 1 3.3.9.4-.1.7.3.7.9 0 .5.4.7 1 .4 1.2-.7 5.9 2.2 8.3 5.2 1 1.2 2.6 2.5 3.7 2.8 1.1.4 3.2 3.3 5 7 3.8 8 4.4 18.3 1.2 24.2l-4.5 8.7c-4.4 8.1-8.7 10.6-18.4 10.6-2.5 0-3.5.6-4.5 2.7-1.6 3.3-4.4 4.7-11.9 6.4-4.9 1-7.1.9-12.4-.4-4.8-1.2-14.3-10.5-13-12.7.3-.6.1-1-.4-1-.6 0-1.1-.9-1.1-2s-.4-2-1-2c-.5 0-1-2-1-4.5s-.4-4.5-1-4.5-.6-1 .1-2.7c.5-1.4.9-4.5.8-6.9-.2-2.3.3-4.9 1-5.8.7-.8 1-2 .7-2.5-.4-.5-.1-1.3.5-1.6.5-.4.8-1.3.5-2-.3-.8.4-1.7 1.5-2 1.2-.4 1.8-1.2 1.5-2.1-.3-.8-.1-1.4.4-1.4.6 0 1-.6 1-1.3 0-1.5 5.6-8.1 7.1-8.3.5-.1 1.2-.2 1.7-.3.4 0 1.9-1.2 3.4-2.6 5-4.6 18.3-6.3 25.8-3.2z"/><path d="M202.1 140.2c-4 2.1-6 5.8-5.4 10 .3 2.4 1.1 3.8 1.9 3.8s1.7.6 1.9 1.2c.7 1.7 7.3 1.6 11-.2 2.2-1.1 3-2.2 3-4 0-1.4.4-3 .8-3.7.6-.8.3-1.8-.7-2.8-.8-.9-1.9-2.3-2.4-3.1-1.1-2-7.2-2.7-10.1-1.2zm245.6 7.8c-2.3 1.4-14 13.2-18.9 19-.7.8-3.4 4-6 7.1-2.7 3.1-4.8 6.3-4.8 7.1s-.5 1.9-1.2 2.6c-.6.6-1.2 3.8-1.1 6.9 0 12 .3 13.1 4.3 17.3 2.1 2.2 4.2 4 4.6 4 1.5 0 6.9 5.1 6.6 6.2-.1.5.2.7.8.3.5-.3 1.5-.3 2.2.1 3.2 2 20.2 2.4 23.7.6 1.3-.7 2.6-1 2.9-.7.3.2 1.9-.7 3.6-2.1 1.8-1.6 3.2-2.2 3.4-1.5.5 1.6 3.2-.6 3.2-2.6 0-.7.7-1.6 1.5-1.9.8-.4 1.5-1.5 1.5-2.5 0-2.1 2.4-6.3 5.3-9.1.9-1 1.7-2.3 1.7-2.9 0-.5.5-.7 1-.4.6.3 1-.1 1-.9 0-.9.5-1.6 1-1.6.6 0 1-.6 1-1.3s.9-1.8 2.1-2.5c1.2-.8 1.8-1.9 1.5-2.8-.3-.8-.1-1.4.4-1.4 1.7 0 1.1-11.7-.9-16.9-1.7-4.7-7.5-12.1-9.3-12.1-.5 0-1.6-.7-2.4-1.5s-3.4-2-5.7-2.6-4.6-1.4-5.2-1.7c-.5-.4-1.4-.7-2-.7-.5-.1-2.1-.6-3.5-1.2-4.8-2-9.4-2.1-12.3-.3zm10.8 7.2c2.2.6 4.6 1 5.4.9s1.7.1 2 .6 2.8 2 5.4 3.3c2.6 1.4 5.4 3.6 6.2 5 3.5 6.2 5.6 11.6 5.7 14.6.1 3.6.2 3.4-9 15.3-6.2 8-6.4 8.1-9.8 7.5-2.2-.4-3.4-.2-3.4.5 0 .6-.7 1.1-1.6 1.1-1.2 0-1.4.4-.7 1.2.5.7.9 2.6.9 4.3-.1 2.4-.7 3.1-3.1 3.8-1.6.5-3.8 1.3-4.7 1.8-6.2 3.2-21.2-5-25.8-14.2-2.1-4.1-2.7-12.4-.9-13.4.6-.4.8-1.3.5-2.1s.4-2.3 1.6-3.4 1.9-2.3 1.5-2.6c-.8-.8 3.4-6.5 9.5-12.8 2.6-2.7 4.5-5.3 4.2-5.7-.6-1.1 8.4-6.9 10.5-6.9.9 0 3.4.5 5.6 1.2zm-2.8 21.1c-2.6 4.1-3.1 8.7-1 10.6 1.8 1.7 4.6 1.7 6.7 0 5.5-4.3 6.5-5.6 5.9-8-.8-3.3-3.1-4.9-6.9-4.9-2.2 0-3.6.7-4.7 2.3zm-127.4 41c-2.3.7-4.5 1.5-4.9 1.9-.4.5-1.6.8-2.7.8-2.1 0-10.5 3.6-16.7 7.1-1.9 1.1-5.5 2.9-8 4.1s-4.7 2.6-4.8 3c-.2.5-.8.6-1.3.2-.5-.3-1.2.2-1.5 1-.3.9-1.2 1.6-2 1.6-.7 0-1.7.6-2.1 1.4-.4.7-3 2.5-5.8 4.1-2.7 1.5-5.7 3.3-6.5 4s-2.4 1.5-3.4 1.6c-2.5.5-4.4 6.8-2.4 8 2.3 1.5 6.6 1 8-.9.7-1 2.7-2.7 4.3-3.7 1.7-1 3.9-2.6 5-3.6 1.1-.9 3.8-2.6 6-3.8s3.3-2.1 2.5-2.1.6-1.4 3.2-3c2.7-1.7 5.5-3 6.3-3s1.5-.4 1.5-1c0-.5.6-.7 1.4-.4.9.3 1.7-.3 2.1-1.5.7-2.3 2.5-2.9 2.5-.9 0 .9.3.9 1.2 0 .7-.7 2.3-1.2 3.6-1.2 1.6 0 2.6-.7 2.9-2.1.3-1.1 1.1-1.8 1.9-1.5.7.3 1.6.1 1.9-.5.4-.5 1-.7 1.4-.4.5.2 2.3 0 4.2-.6s4.9-1 6.7-1c1.7.1 3.2-.3 3.2-.8 0-1.5 9.2 2.6 11.2 5 1 1.1 2.2 1.8 2.8 1.4.5-.3 1 .1 1 .9 0 .9.5 1.6 1.1 1.6.5 0 .7.4.4 1-.3.5-.2 1 .3 1 .4 0 1.4 1.6 2.2 3.5s1.8 3.5 2.2 3.5c.5 0 1.3 1.2 1.8 2.6.6 1.4 2.1 4 3.4 5.7 2.9 3.9 5.2 9.1 6.1 13.5.6 2.7 1 3.2 2.6 2.7 1.1-.4 1.9-.2 1.9.4s.7 1.1 1.5 1.1c.9 0 1.5-.9 1.5-2.4 0-1.4.4-2.7.9-3 1.3-.8-.6-7.1-3.5-11.7-1.3-2.1-2.4-4.1-2.4-4.3 0-1.1-11.5-16.5-15.3-20.5-8.8-9.1-16.8-11.7-27.4-8.8zm-147.1 72.4c-4.8.5-8.8 3.7-15.1 12.1-5.8 7.9-6.8 13.2-4.9 27.9.1.7.5 1.3 1 1.3.4 0 .8.9.8 2s.4 2 .8 2c.5 0 1.5 1.2 2.3 2.7 1.8 3.6 3.5 5.4 4.3 4.6.3-.4.6.1.6 1s.9 2.2 2 2.9 2 1.7 2 2.2.7 1.6 1.5 2.5l3.5 3.9c1.1 1.2 1.9 2.6 1.6 3.1-.3.4.1 2 .9 3.4.8 1.5 1.4 3 1.4 3.2 0 .3 1.1 2 2.4 3.8 1.3 1.7 2.9 5.9 3.6 9.2l1.8 8.5c.3 1.4.7 6.4.9 11.2.3 4.7 1.3 11.4 2.4 14.8s1.9 6.4 1.7 6.8c-.5 1.6 7.8 14.2 9 13.8.7-.3 1.3-.2 1.3.3 0 .4 1.9 1.6 4.3 2.7 2.3 1 4.7 2.5 5.4 3.4.6.8 1.5 1.2 1.9.8s1.9.5 3.3 2c2.9 2.9 3.3 3.2 5.7 3.2.8 0 1.2.5.9 1-.6.9 1.6 1.5 3.9 1.1.5-.1 1.2.3 1.6.9.3.6 3.3 1.5 6.6 2.1 3.2.5 8 1.3 10.5 1.8 5.3.9 19.4.3 21.9-.9.3-.1 1-.3 1.5-.5.6-.1 1.2-.3 1.5-.5.3-.1 3.9-.3 8-.5s8.4-.6 9.5-1c4.3-1.6 10.5-4.7 11.1-5.6.3-.5 1.6-.9 2.9-.9s2.7-.5 3-1c.3-.6 1.7-1 3.1-1 1.3 0 2.4-.4 2.4-.8 0-.5 1.9-.8 4.3-.8 2.4-.1 4.9-.4 5.5-.8.7-.4 2.5-1 4-1.2 1.5-.3 7.1-2.7 12.4-5.4 5.4-2.8 10.8-5 12-5s3.2-1 4.6-2.3c2.1-2 3.5-2.2 13-2.4l15.7-.4c4.4-.1 7.1-1 16.2-5.1 1.1-.6 2.7-.8 3.4-.6.8.3 2.5-.6 3.9-1.9s2.8-2.3 3.2-2.3c1.1 0 4.8-3.8 4.8-5 0-2.3 2.5-6 3.9-5.8.9.2 1.6-.4 1.6-1.2s.4-1.8.9-2.2c.5-.3.9-2 .9-3.7s.3-3.1.7-3.1c1.1 0 1.2-12.7.1-14.7a174.08 174.08 0 0 1-3.4-7.3c-1.4-3.1-5.4-8.8-9.3-13-8.6-9.5-14.5-12.3-30.5-14.6-12.4-1.7-36.8-2.3-51.9-1.1-13 .9-24.8-.7-45-6.1-4.1-1.2-9.5-2.6-12-3.3-2.5-.6-5.4-1.5-6.5-2-6.4-2.7-12.9-4.8-13.6-4.3-.4.2-1 0-1.3-.5-.4-.5-2.7-1.9-5.4-3.1-10.3-4.8-12.9-6.2-16.7-9.5-2.2-2-4.8-3.8-5.7-4.1-1-.3-1.8-.9-1.8-1.3s-2.6-2-5.7-3.5c-3.2-1.5-6.5-3.2-7.3-3.7s-4-2.1-7-3.5l-7.3-3.5c-2.3-1.2-9.7-1.8-15.5-1.2zm11 7.7c.5.8.8.7.8-.1 0-1.4 2.5-.3 7.7 3.4 1.7 1.3 3.8 2.3 4.6 2.3.9 0 2.2.9 3 2s1.7 1.7 2 1.4c.4-.4 2.5 1.1 4.8 3.3l4.2 4.1-2.6 5.3c-2.6 5.5-5.4 9.1-12.8 16.6l-4.2 4.1-7.2-.1c-5.4-.2-7.8-.7-9.2-2-1.1-.9-3.3-1.7-4.9-1.7-2.2 0-3.5-.9-5.2-3.4-2.6-3.8-5.5-14.6-4-14.6.5 0 .8-1 .7-2.3-.2-1.2.2-3.1.8-4.2s1.2-2.2 1.2-2.5c1.1-4.1 1.5-5 2.6-5 .7 0 1.5-1 1.9-2.3.3-1.3 2-3 3.8-3.9 3.7-1.8 10.9-2 12-.4zm42.2 24.2c.9.3 1.4 1 1.1 1.4-.3.5.9 1.1 2.7 1.5 4.4.9 9.2 3.1 10.8 5 .7.8 1.7 1.5 2.3 1.5 1.3 0 4.7 4 4.7 5.5 0 .6-1.5 2.7-3.3 4.7l-3.3 3.7-8-.4-8.6-.4c-1.5-.2-4.9-7.2-5.1-10.8-.1-2.1-.6-4.4-1.1-5.2s-.4-1.6.4-2.1c.7-.4 1-1.5.7-2.3-.8-2.3 3.1-3.5 6.7-2.1zm44.3 17.2c1 .6 2 1 2.3.9 1.8-.2 8.6 1.7 9.1 2.5.4.6 2.6 1.2 5 1.4 4.5.4 8.5 3.3 9 6.4.4 2.7-2.7 14.1-5 18.4-1.9 3.6-4.7 6.6-6.1 6.6-.5 0-1 .4-1 .9s-1.2 1.2-2.7 1.6c-1.5.3-3 1-3.3 1.5-.3.4-4.7 1-9.9 1.2l-9.4.3-2.1-3.4c-1.5-2.6-2.1-5.8-2.4-12.3-.3-5.2-.1-8.8.5-8.8.5 0 1-.6 1-1.3.3-3.6 1.1-7.8 1.6-8.4.4-.3.7-2 .7-3.8 0-1.7.6-3.7 1.2-4.3 1.4-1.4 8.4-1 11.5.6zm72.6 8.3c3 1.3 3.7 4.8 1.2 6.9-1 .9-1.5 3.2-1.5 7.6 0 3.4-.4 6.6-1 6.9-.5.3-1 1.5-1 2.5 0 2.2-10.8 14.2-12.1 13.4-.5-.3-1.4-.2-2.1.2-2 1.2-10.7 2-16.9 1.5-5.3-.4-6.5-18.5-2.4-36.8.4-1.7 1.1-2.1 2.9-1.7 1.4.2 2.7 0 3-.5.3-.4 2.5-.5 4.8-.1 2.4.5 4.6.6 5 .4 3.4-2.1 15.2-2.3 20.1-.3zm26.7.4c.7.4 2.9.9 4.9 1.1 8 .6 10 1.4 11.5 4.6 1.7 3.4 2.1 12.8.7 17.4-3.4 11.4-4.9 14.9-8.1 19.6-3.7 5.4-9.4 8.7-11.5 6.7-.5-.5-3.5-.9-6.8-.9-5.8 0-5.8 0-7.4-3.8-2.1-5-3.3-11.1-2.1-11.8.5-.3.8-2.2.7-4.2s.4-7.4 1.1-12c1.3-8 1.3-8.3-.9-11.2-2.1-2.9-2.1-5.7 0-4.5.5.4.9.1.9-.5s.5-.8 1-.5c.6.3 1 .3 1-.2 0-1 13.3-.8 15 .2zm33.5 17.6c1.9 1.7 3.5 3.9 3.5 4.8 0 1 .7 3.2 1.6 4.9.8 1.8 1.8 5.6 2.1 8.4.4 4.3 0 6.3-2.1 10.8-3.2 6.8-5.6 9.7-9.2 11-2.4.9-3.1.8-4.1-.6-.7-1-1.3-2.7-1.3-3.9s-.5-2.6-1.1-3.2c-.8-.8-.8-2.1 0-4.6.7-2 1.4-5.8 1.6-8.6.1-2.7.6-5.4.9-5.9.3-.6.3-1.7 0-2.6-.5-1.2-.2-1.5 1.1-1s1.6.2 1.3-1.7c-.1-1.3-.7-2.7-1.3-3.1-.6-.5-.5-.8.3-.8.7 0 1.2-1.4 1.2-3.5 0-4.3.9-4.4 5.5-.4zM211 366.8c2.3 2 2.5 2.9 2.4 10.1-.1 8.3-.3 8.6-8.6 18.5-1.2 1.5-3.7-5.6-4.4-12.6-.3-3.4-1-6.8-1.4-7.3-.5-.6-1.1-3.1-1.5-5.7-.6-4-.5-4.7 1.2-5.1 4.3-1.1 9.9-.1 12.3 2.1zm36.3 12.7c9.1 4.3 12.6 11.8 8.9 18.9-1.2 2.3-2.6 5.2-3.2 6.6-.5 1.4-1.4 3.2-2 4-.5.8-2.8 5.5-5.1 10.5-2.3 4.9-4.4 9.2-4.8 9.5-.3.3-1.7 2.6-3.1 5.2-1.3 2.7-3 4.8-3.6 4.8-2.1 0-12-5.7-20.6-11.9-5.3-3.9-10.4-12.7-9.4-16.4.3-1.2 3.5-5.3 7.1-9.2 3.6-3.8 7.1-8.2 7.7-9.7.7-1.5 1.6-2.8 2-2.8s.5-.8.1-1.8c-.3-.9-.3-1.4.1-1 .5.4 1.8-.4 3.1-1.8 1.2-1.3 2.7-2.4 3.4-2.4.6 0 1.1-.8 1.1-1.8 0-1.4.2-1.5 1-.2s1 1.2 1.5-.1c.8-2.3 11.4-2.5 15.8-.4zm40.7 9.3c0 .4 1.8 2.6 4 5 7.1 7.5 7.5 11.2 2.6 25.2-4.9 13.8-5.9 16.1-8.2 20.1-2.1 3.5-2.3 3.6-12.5 5.2-9.2 1.4-13 1.4-22.8.3-1.4-.1-2.8-1.2-3.2-2.4-.9-2.3-.2-5.2 1.1-5.2 1.2 0 7-8.8 7-10.6 0-.8.7-1.7 1.6-2.1.8-.3 1.3-1.1 1-1.9-.3-.7.2-1.8 1-2.4.8-.7 1.4-2.1 1.4-3.1 0-1.1.5-1.9 1.1-1.9s.9-.7.6-1.4c-.6-1.5 1.9-7.6 3.1-7.6.7 0 .8-.9 1.3-7.8.3-3.4 5.5-7.3 10-7.4 1.6-.1 2.9-.6 2.9-1.1 0-.6.3-.8.6-.5s1.7.2 3.2-.2c3.6-1.1 4.2-1.1 4.2-.2zm45.6 8.8c1.1.8 2.3 1.1 2.7.8.6-.6 6.7 5.2 6.7 6.4 0 .3.9 2.5 2.1 4.8 2 4.2 2 4.4.3 9.2-1 2.7-2.6 5.3-3.5 5.8-3.7 1.9-11.5 5.6-13.4 6.4-1.1.5-4.5 1.1-7.5 1.3-3 .3-7 1.3-8.9 2.3-3.3 1.6-3.5 1.6-4.8-.2-1-1.3-1.2-3.6-.7-8.4l.9-9.5c.3-3.7 1.5-12.2 2.1-15.2.2-1.2 1.6-2.9 3.2-3.7 3.5-1.9 17.8-1.9 20.8 0z"/><path d="M236.778 479.496c-14.036-1.473-35.934-7.829-49.242-14.293-12.115-5.884-23.339-14.561-32.642-25.234-7.703-8.837-10.6-15.624-14.032-32.869-3.039-15.271-4.213-28.211-4.895-53.93-.619-23.364-.631-23.506-2.169-26.395-.85-1.598-1.552-3.598-1.559-4.445s-.714-3.474-1.57-5.837-1.918-5.621-2.359-7.239-1.361-3.552-2.044-4.298-1.834-2.535-2.557-3.976l-1.315-2.62 1.706-2.138c.938-1.176 2.018-2.138 2.398-2.138s1.036-.414 1.457-.921 1.263-.921 1.873-.921c1.004 0 3.384-2.085 6.262-5.484.591-.698 1.074-1.792 1.074-2.432 0-1.875 1.712-2.006 4.791-.368 1.581.841 3.343 1.53 3.917 1.53s1.201.255 1.393.566 2.107 1.151 4.254 1.865c4.519 1.504 6.589 1.016 8.101-1.906 1.206-2.333 1.1-2.981-.49-2.981-1.753 0-14.48-7.014-16.259-8.961-1.621-1.774-2.48-5.563-1.486-6.557.38-.38.691-1.869.691-3.309 0-3.141.609-3.571 6.353-4.489 6.526-1.043 8.503-2.405 7.153-4.929-.68-1.271-1.441-1.556-5.675-2.132-3.007-.409-6.603-2.77-6.603-4.336 0-.46-.373-1.057-.829-1.327s-1.037-2.011-1.292-3.868l-.905-6.717c-.243-1.837-.767-3.449-1.164-3.581s-.722-.735-.722-1.339-1.271-3.622-2.824-6.706c-2.393-4.753-2.889-6.366-3.252-10.586-.441-5.133-1.314-6.68-3.77-6.68-1.372 0-2.459-1.368-5.106-6.426-2.389-4.565-2.853-7.081-1.304-7.081 1.158 0 4.591-5.292 4.591-7.078 0-1.851-.654-2.285-1.835-1.216-.905.819-1.347.751-4.137-.639-3.179-1.584-4.085-2.826-5.654-7.751-1.091-3.424-1.945-10.704-1.867-15.91.039-2.563-.223-6.845-.581-9.516-.982-7.319-.17-9.193 5.091-11.75 3.012-1.465 4.586-2.705 6.03-4.753 1.074-1.524 2.523-2.949 3.22-3.166s1.405-.592 1.574-.834 1.476-1.172 2.905-2.066c2.843-1.781 3.415-3.1 3.122-7.201-.174-2.436-.364-2.733-1.857-2.905-2.169-.25-14.25 5.9-18.86 9.602l-4.144 3.306c-.397.308-3.553.957-7.012 1.442-7.577 1.063-10.606 2.359-10.871 4.649-.135 1.161.278 1.983 1.463 2.916l1.651 1.299 2.058-1.272c2.169-1.341 4.165-1.184 4.763.375.189.494.738.898 1.219.898 1.267 0 1.62 1.385 1.618 6.343-.001 2.421.304 9.459.678 15.64.786 13.007.88 12.717-4.69 14.473-2.405.758-3.617 1.514-4.09 2.553-.835 1.832.213 3.353 2.31 3.353.783 0 1.606.295 1.829.656s.79.508 1.261.327 2.109.209 3.641.866c2.49 1.067 2.986 1.636 4.67 5.352 1.037 2.287 2.031 5.263 2.21 6.613s.67 2.87 1.093 3.377 1.649 2.632 2.726 4.723c2.778 5.394 2.479 6.699-2.12 9.239-2.026 1.119-4.589 2.998-5.696 4.175-1.765 1.878-1.923 2.31-1.289 3.513 1.168 2.218 2.995 3.067 2.995 1.391 0-.546.36-.763.913-.551.502.193 2.2-.502 3.772-1.543 3.353-2.221 6.323-2.924 8.171-1.935 1.573.842 6.3 7.113 7.244 9.612.956 2.528 2.8 13.243 2.526 14.677-.206 1.08-.886 1.244-6.364 1.533-8.019.423-10.235 1.681-8.943 5.079.928 2.441 2.245 3.141 4.303 2.289 2.449-1.014 5.196-.305 7.853 2.028 2.68 2.353 3.854 5.002 3.854 8.699 0 3.516-.963 3.97-4.09 1.927a33.51 33.51 0 0 0-5.003-2.582c-3.203-1.262-5.39-.561-6.015 1.927-.469 1.87 1.141 5.789 2.379 5.789.848 0 6.368 5.459 7.988 7.898.53.799.813 1.845.629 2.325-.995 2.592-8.874 3.887-11.146 1.832-.651-.59-2.043-2.817-3.093-4.949-2.151-4.369-12.601-20.234-18.229-27.673-6.808-9-14.079-22.347-17.56-32.233l-2.953-8.358c-.614-1.727-1.623-4.075-2.243-5.219-.968-1.784-1.158-3.885-1.341-14.819-.117-7.007-.458-12.74-.758-12.74s-.259-.752.09-1.672c.395-1.038.563-7.261.445-16.423-.177-13.712-.1-15 1.096-18.282.707-1.941 1.781-4.077 2.387-4.747.878-.97.951-1.398.36-2.11-.565-.68-.573-1.208-.035-2.213.388-.726.556-1.471.371-1.655s.07-.913.564-1.619.903-1.844.908-2.529c.013-1.804 4.018-12.545 5.371-14.401.633-.868 1.328-2.057 1.546-2.643.24-.644.768-.921 1.34-.702.708.272.944-.058.944-1.318 0-2.578 9.14-14.533 11.743-15.359.898-.285 1.15-.966 1.15-3.102 0-2.294.229-2.824 1.418-3.276.78-.297 3.72-2.652 6.533-5.235 4.883-4.483 7.702-6.366 11.082-7.401.844-.259 2.16-.958 2.923-1.554s2.836-1.418 4.605-1.826 4.13-1.263 5.247-1.901 2.663-1.16 3.435-1.16 1.905-.553 2.516-1.228 1.509-1.228 1.996-1.228 1.618-.413 2.514-.917c2.018-1.136 11.42-4.369 16.364-5.628 2.026-.516 6.215-1.741 9.309-2.722s5.995-1.786 6.447-1.788 1.623-.422 2.603-.933 2.238-.784 2.797-.607 3.328-.37 6.155-1.216 5.928-1.538 6.892-1.538 3.471-.582 5.571-1.293c5.325-1.804 17.609-2.353 22.11-.989 5.228 1.584 14.149 3.307 21.085 4.07 2.748.303 5.612.88 6.366 1.283s4.584.951 8.511 1.218c6.884.467 16.562 2.327 19.057 3.662.662.354 2.189.644 3.393.644s2.189.217 2.189.482c0 .931 3.458 2.509 7.601 3.47 2.302.534 5.609 1.669 7.348 2.523s5.391 1.927 8.114 2.386 6.729 1.542 8.902 2.408 7.423 2.251 11.667 3.078 10.159 2.366 13.144 3.419 9.32 2.61 14.079 3.459c13.538 2.416 16.522 3.951 12.476 6.418-1.09.665-2.19 1.21-2.443 1.211s-.46.576-.46 1.277c0 1.461 2.516 4.073 5.398 5.603 1.083.575 1.97 1.457 1.97 1.959s-1.687 1.812-3.748 2.911-4.187 2.668-4.724 3.487c-.907 1.384-.894 1.549.182 2.336 1.493 1.091 4.152 1.064 7.928-.081 5.611-1.702 12.746-.826 15.824 1.944 1.362 1.226 3.619 5.884 5.457 11.263 1.719 5.031 1.533 8.383-.699 12.564-2.102 3.939-2.038 4.769.462 5.957 2.341 1.113 3.759 5.563 4.273 13.412.461 7.033.528 6.963-4.694 4.904-3.747-1.477-6.328-1.566-7.631-.263-1.39 1.39-1.246 3.988.243 4.378.664.174 1.373.838 1.576 1.476.367 1.157.885 1.355 5.471 2.099 3.369.546 12.32 5.435 13.363 7.299.667 1.192 2.249 1.277 2.683.145.196-.511.905-.718 1.844-.538 1.977.378 3.707-1.195 4.199-3.817.301-1.602.745-2.108 2.094-2.377 2.195-.439 3.172-2.574 3.172-6.935 0-4.382-.75-5.763-3.132-5.763-2.087 0-4.236.955-4.236 1.883 0 .337-.417 1.611-.927 2.831-.92 2.203-.936 2.21-2.212 1.056-1.963-1.776-2.802-3.822-3.547-8.651-1.18-7.641-.944-10.47 1.032-12.362.943-.903 2.559-2.088 3.592-2.635 1.499-.793 1.963-1.526 2.3-3.63.238-1.491.164-2.894-.171-3.229-.326-.326-2.177-.627-4.113-.668l-3.521-.075-2.663-7.963c-1.465-4.38-2.663-8.439-2.663-9.02 0-1.357.794-1.821 4.583-2.674 2.647-.596 3.092-.906 3.092-2.15 0-2.11-2.941-3.569-8.656-4.293-4.174-.529-5.401-.986-8.839-3.29-10.726-7.187-15.163-9.932-16.572-10.252-1.42-.323-1.348-.407.914-1.071 3.304-.97 7.811-.912 14.274.182 2.955.5 9.102 1.165 13.661 1.477s9.043.912 9.964 1.332c1.294.59 2.611.61 5.781.084 2.258-.374 4.284-.569 4.504-.434s5.216.673 11.103 1.193l28.509 2.925c1.688.353 3.789 1.01 4.668 1.458s4.609 1.413 8.288 2.142 7.436 1.71 8.347 2.179 3.035 1.148 4.718 1.509 3.386 1.049 3.785 1.529c.434.523 1.285.732 2.122.522.769-.193 1.582-.052 1.808.313s1.055.664 1.843.664 1.592.414 1.786.921c.215.56 1.144.921 2.374.921 1.311 0 2.273.404 2.74 1.152.396.633 1.707 1.337 2.915 1.564 1.337.251 2.577.994 3.171 1.9.536.818 1.915 1.828 3.065 2.243s2.09 1.113 2.09 1.55 1.036 1.555 2.302 2.486 5.058 4.545 8.427 8.032 6.891 6.793 7.828 7.346 1.704 1.506 1.704 2.117.622 1.352 1.381 1.648c1.618.629 3.45 2.567 7.522 7.958a154.73 154.73 0 0 0 6.582 7.981c1.991 2.234 3.782 4.845 3.978 5.802s.732 1.885 1.19 2.061 2.478 3.709 4.489 7.852 4.056 7.686 4.544 7.873 1.223 1.396 1.632 2.686c1.083 3.412 6.232 13.906 7.175 14.624 2.294 1.749 3.819 20.636 2.727 33.767-1.341 16.116-6.317 39.27-11.149 51.879-1.747 4.559-3.68 10.499-4.297 13.2-1.799 7.884-4.316 17.535-5.524 21.181-5.541 16.724-9.246 25.382-13.635 31.862-1.053 1.554-3.891 4.914-6.307 7.466-3.465 3.659-4.821 5.667-6.415 9.496-1.112 2.671-2.461 5.527-2.997 6.346l-.976 1.489-2.481-2.743c-1.365-1.509-3.256-4.168-4.203-5.911l-1.721-3.168 1.225-2.769c.789-1.784 1.838-3.039 2.949-3.527.948-.417 1.929-1.079 2.179-1.473s1.438-1.893 2.641-3.332c1.764-2.112 2.151-3.043 2.001-4.823-.293-3.495-2.276-3.326-5.975.512-1.651 1.713-3.407 3.114-3.903 3.114s-1.232.398-1.635.884c-.755.91-2.435.635-3.256-.533-1.705-2.427-4.11-15.862-4.131-23.072-.011-3.84.097-4.126 2.769-7.367 1.529-1.855 2.945-4.01 3.146-4.79.24-.934.677-1.298 1.278-1.067.662.254.804.065.515-.689-.253-.66.306-2.022 1.53-3.726 1.725-2.403 3.563-7.857 3.622-10.75.032-1.565-1.975-1.335-3.62.416-.77.819-2.268 3.212-3.33 5.318-1.86 3.688-3.594 5.548-4.411 4.731-.688-.688-1.459-4.945-1.879-10.373l-.408-5.28 2.109-2.394c5.004-5.679 6.034-7.623 6.034-11.383 0-2.801-.292-3.868-1.417-5.176-1.096-1.274-1.735-1.547-2.819-1.203-1.502.477-3.131 3.632-3.131 6.064 0 1.852-1.344 3.013-3.185 2.751-1.013-.144-2.929-2.367-6.789-7.875-6.469-9.232-7.634-11.47-6.725-12.926.359-.574.825-1.976 1.035-3.115.611-3.304-.581-4.314-5.638-4.777-3.731-.342-4.634-.675-6.66-2.453-2.634-2.313-9.125-5.583-11.083-5.584-1.982-.001-3.318 1.929-3.318 4.792 0 1.994.312 2.751 1.44 3.49 1.326.869 2.857 3.324 2.857 4.581 0 .29-.967 1.684-2.149 3.099s-2.149 2.955-2.149 3.423c0 1.875 7.276 1.868 9.956-.009 1.106-.775 1.504-.779 2.955-.029.922.477 2.27 1.872 2.994 3.101s2.397 3.518 3.716 5.088c2.939 3.497 6.165 9.521 6.165 11.511 0 1.048-.343 1.473-1.192 1.473-.655 0-1.34.241-1.522.535s-1.152.699-2.157.9c-2.429.486-4.228 3.143-3.22 4.757.398.638.724 1.561.724 2.052 0 1.53 1.097 1.671 3.509.45 4.226-2.139 5.907-2.204 8.156-.311 2.756 2.319 3.512 4.468 4.309 12.246.979 9.557.603 11.32-3.08 14.425-4.034 3.401-5.484 7.918-2.544 7.925.555.002 1.89.539 2.966 1.196 2.477 1.51 2.968 3.244 4.321 15.249l1.058 9.387-2.901 2.479c-3.477 2.972-3.919 5.372-1.306 7.085 1.332.873 1.802.916 2.847.264 1.086-.678 1.586-.547 3.777.989 1.927 1.351 2.571 2.237 2.718 3.74.115 1.179.67 2.226 1.381 2.607.654.35 1.189 1.047 1.189 1.549s.667 1.216 1.482 1.588c1.85.843 4.376 8.051 3.778 10.778-.972 4.425-7.561 11.899-13.658 15.492a96.41 96.41 0 0 0-6.644 4.356c-1.688 1.237-5.833 3.705-9.209 5.482s-7.886 4.45-10.021 5.938-4.759 3.079-5.833 3.535-3.311 2.041-4.972 3.52-4.205 3.519-5.653 4.532-5.017 3.914-7.931 6.447c-10.124 8.798-11.554 9.458-28.214 13.018-9.128 1.95-20.838 5.679-31.926 10.167-3.714 1.503-9.853 3.787-13.641 5.075s-7.51 2.778-8.271 3.311-2.135.969-3.053.969-1.862.312-2.098.694c-1.059 1.714-11.359 5.632-23.302 8.865-21.566 5.838-26.828 6.799-43.694 7.982-7.258.509-15.173 1.204-17.588 1.544-5.901.83-35.05 1.225-41.38.56zm37.297-28.386c1.857-.554 7.086-1.265 11.621-1.579l8.244-.572 6.798-3.463c3.739-1.905 7.351-3.469 8.026-3.476s1.764-.418 2.42-.914 1.833-.901 2.618-.901 1.906-.268 2.492-.594 3-.853 5.364-1.168c6.503-.868 9.964-2.042 19.829-6.724 4.965-2.357 10.516-4.723 12.336-5.259s4.263-1.702 5.43-2.592c2.395-1.826 2.611-1.853 21.652-2.619l11.972-.482 6.083-2.56c3.346-1.408 6.847-2.56 7.781-2.56.995 0 2.863-.89 4.513-2.149 1.548-1.182 3.057-2.149 3.352-2.149.889 0 4.978-4.841 4.978-5.893 0-1.626 2.053-4.574 3.424-4.918 1.342-.337 3.329-4.019 3.329-6.17 0-.671.446-2.528.991-4.127.734-2.155.925-4.448.738-8.858-.245-5.752-.359-6.154-3.426-12.09-5.561-10.76-14.366-20.477-21.93-24.201-10.23-5.036-32.476-7.41-60.484-6.455-23.543.803-29.009.39-45.74-3.458-9.118-2.097-25.768-6.916-33.46-9.683-2.87-1.033-5.911-1.966-6.758-2.075s-2.504-.79-3.684-1.515-5.046-2.676-8.591-4.337-8.38-4.492-10.744-6.291c-8.757-6.666-12.163-8.723-24.98-15.085l-13.111-6.508-6.185-.341c-9.151-.504-11.658.268-16.89 5.204-4.532 4.275-9.11 10.629-10.787 14.973-.793 2.052-1.021 4.562-.983 10.8.043 7.01.228 8.468 1.344 10.61.712 1.366 1.294 2.889 1.294 3.385s.256.902.569.902 1.576 1.658 2.807 3.684c1.491 2.454 2.633 3.684 3.421 3.684.669 0 1.183.421 1.183.97 0 .534.964 2.122 2.143 3.53l5.213 6.244c1.689 2.026 3.073 4.309 3.076 5.074.005 1.422 2.178 6.195 5.14 11.294 2.51 4.32 4.639 13.694 5.627 24.768.914 10.248 1.556 14.417 3.02 19.616l1.519 5.6c.355 1.375 2.1 4.669 3.877 7.319 3.267 4.873 4.155 5.6 11.556 9.475 1.877.983 3.776 2.224 4.219 2.758s1.363.971 2.043.971 2.436 1.105 3.902 2.456c1.64 1.512 3.259 2.456 4.213 2.456.914 0 1.549.35 1.549.855 0 .993 1.309 1.601 3.449 1.601.828 0 2.169.434 2.98.965s4.876 1.618 9.034 2.415c6.304 1.208 9.194 1.426 17.384 1.307 6.969-.101 10.804-.435 13.2-1.15zm102.603-186.496c1.039-3.138 1.05-3.615.161-6.753-2.043-7.209-13.42-24.221-22.012-32.915-6.122-6.194-10.558-8.361-17.822-8.705-4.822-.228-6.112-.054-10.13 1.369-2.533.897-5.572 1.857-6.753 2.134-4.022.941-8.888 3.117-19.34 8.648-5.74 3.038-10.773 5.524-11.183 5.524s-1.032.534-1.381 1.187-1.255 1.383-2.013 1.624-2.07 1.09-2.917 1.889c-1.853 1.748-10.357 7.096-13.929 8.76-2.812 1.31-3.56 2.323-4.187 5.666-.353 1.883-.202 2.368 1.003 3.212 2.503 1.753 5.645 1.281 8.697-1.308 3.79-3.215 11.24-8.529 14.669-10.464 1.584-.894 3.002-2.093 3.152-2.664.292-1.115 5.864-4.593 8.396-5.24.844-.216 1.731-.693 1.97-1.06s.792-.697 1.228-.733c1.896-.156 2.171-.339 2.894-1.927.68-1.493.828-1.559 1.362-.604.543.97.724.983 1.928.14.731-.512 2.027-.935 2.88-.94 1.905-.012 2.69-.507 3.63-2.293.447-.848 1.298-1.381 2.205-1.381.812 0 1.612-.219 1.777-.486s1.238-.549 2.384-.626 3.029-.411 4.183-.742 3.279-.602 4.721-.602 3.128-.316 3.746-.702c.903-.564 1.819-.384 4.649.911 1.938.887 4.576 2.447 5.862 3.465s2.716 1.852 3.179 1.852 1.333 1.036 1.934 2.302 1.978 3.705 3.061 5.42l3.197 5.133 3.521 5.638c3.398 5.367 4.829 8.346 6.306 13.125 1.203 3.895 1.481 4.3 2.961 4.325.898.015 1.974.368 2.391.785 1.373 1.373 2.485.463 3.619-2.962zm81.276-45.143c1.351-.487 2.87-.897 3.377-.911s1.968-.819 3.247-1.787c1.444-1.093 2.784-1.641 3.533-1.445 1.446.378 3.043-.802 3.043-2.249 0-.573.654-1.61 1.452-2.305s1.638-2.255 1.866-3.467c.406-2.165 6.278-10.628 8.069-11.63.491-.275.892-.87.892-1.324s.414-.984.921-1.178.921-.715.921-1.157.829-1.531 1.842-2.42 1.842-2.177 1.842-2.863.276-1.418.614-1.627c.921-.569.722-9.29-.313-13.68-.5-2.121-1.443-4.903-2.096-6.182-1.593-3.123-6.022-8.666-7.303-9.14-.568-.21-1.999-1.012-3.181-1.781s-6.155-2.789-11.051-4.488c-10.071-3.494-14.787-4.006-18.112-1.967-2.298 1.409-15.937 15.257-21.734 22.066-4.825 5.668-8.043 10.132-8.043 11.16 0 .373-.483 1.417-1.074 2.32-1.47 2.246-1.547 17.936-.101 20.598 1.142 2.103 7.247 8.405 8.176 8.44.959.035 4.285 3.047 5.561 5.035.594.926 1.301 1.547 1.571 1.38s1.967.094 3.77.579c4.488 1.207 18.984 1.223 22.312.024zM186.28 192.146c0-.425.371-.437 1.12-.036.616.33 3.864.514 7.218.41 4.92-.152 6.513-.441 8.243-1.497 1.18-.719 3.941-1.869 6.135-2.555l5.876-1.844c1.037-.328 3.247-.598 4.912-.6s3.855-.445 4.868-.984 3.085-1.083 4.605-1.209c6.452-.535 8.595-1.003 8.595-1.876 0-.484.645-2.183 1.432-3.775s1.93-4.783 2.538-7.09 1.759-4.971 2.558-5.921 1.453-2.175 1.453-2.722.849-2.5 1.887-4.339c1.76-3.118 1.877-3.707 1.733-8.74-.085-2.968.074-7.267.352-9.553.401-3.295.307-4.568-.453-6.14-.528-1.091-1.289-3.222-1.693-4.737-.568-2.134-1.859-3.913-5.731-7.9-9.126-9.398-15.115-12.6-29.476-15.76-6.819-1.5-10.821-.995-19.419 2.45-6.079 2.436-7.511 3.29-10.301 6.147-1.782 1.825-3.785 3.49-4.451 3.702s-1.21.618-1.21.904-1.603 2.685-3.563 5.331-3.999 5.64-4.533 6.653c-5.178 9.831-6.26 14.681-5.823 26.093.33 8.609 1.562 15.736 3.451 19.953 1.567 3.5 7.533 9.789 10.775 11.358 1.516.734 2.926 1.609 3.133 1.945.531.859 4.079 2.962 5.002 2.965.422.002.767-.284.767-.633zm4.604-8.262c-.338-.113-1.338-.364-2.224-.558-2.37-.519-8.834-5.491-10.966-8.433-1.019-1.406-1.852-3.206-1.852-3.999s-.246-1.443-.547-1.443-.737-.757-.97-1.682-.681-1.842-.998-2.038c-.536-.331-1.828-7.333-1.862-10.094-.046-3.721 1.21-13.349 1.821-13.96.392-.392.714-1.471.714-2.396s.295-1.865.656-2.088.508-.791.327-1.263c-.187-.488.324-1.285 1.186-1.85.91-.596 1.515-1.578 1.515-2.457 0-.805.283-1.464.629-1.464s.907-.73 1.246-1.623c1.089-2.866 4.434-6.502 7.039-7.655 1.393-.616 3.573-1.947 4.845-2.958 5.74-4.562 16.312-6.007 25.073-3.428 2.279.671 4.144 1.4 4.144 1.62s.964.581 2.143.802c1.368.257 3.421 1.566 5.679 3.622 1.945 1.771 4.293 3.697 5.218 4.281 4.197 2.647 7.957 12.579 8.018 21.18l.04 5.711-3.491 6.911c-6.277 12.426-8.808 14.685-17.671 15.771-6.712.822-6.763.842-8.371 3.332-1.812 2.805-3.672 3.953-8.62 5.325-3.545.983-10.842 1.462-12.722.835zm20.563-28.708c2.486-1.266 2.776-1.663 3.481-4.758 1.116-4.9 1.075-5.082-1.831-8.203l-2.652-2.848h-4.182c-4.104 0-4.23.049-6.775 2.609-1.723 1.734-2.735 3.378-3.015 4.903-.499 2.715.566 7.223 1.708 7.223.441 0 1.302.553 1.913 1.228 1.625 1.796 7.688 1.714 11.354-.153zm232.303 59.445c-6.8-2.127-15.166-8.943-17.534-14.285-1.502-3.388-2.288-11.431-1.184-12.113.379-.234.689-1.217.689-2.185s.649-2.539 1.442-3.494 1.62-2.469 1.839-3.365c.443-1.816 3.256-5.527 8.881-11.712 2.067-2.273 4.182-4.953 4.701-5.957.995-1.924 5.126-5.074 8.47-6.458 1.727-.715 2.754-.661 7.821.409 3.208.677 6.247 1.47 6.753 1.761l4.298 2.394c6.138 3.39 8.22 6.044 11.428 14.566.806 2.141 1.465 4.961 1.465 6.267 0 2.572-1.372 4.695-10.245 15.863l-4.513 5.679h-3.607c-2.639 0-3.701.247-3.96.921-.194.507-.776.921-1.294.921-1.107 0-1.129.217-.312 3.156 1.041 3.747.124 5.001-5.025 6.875-4.991 1.817-6.393 1.922-10.113.758zm20.004-29.23c3.383-2.816 3.716-3.307 3.716-5.491 0-4.656-5.044-7.517-9.788-5.552-3.86 1.599-5.858 10.211-2.989 12.884 2.324 2.165 4.869 1.648 9.062-1.84zm-60.427 218.007c-.515-.996-.937-2.267-.937-2.823s-.43-1.919-.957-3.028c-.86-1.812-.863-2.38-.027-5.618.511-1.981 1.269-6.672 1.684-10.423.674-6.096.873-6.789 1.869-6.528.872.228 1.115-.067 1.115-1.355 0-.906-.302-2.211-.671-2.9-.485-.906-.485-1.439 0-1.924.369-.369.69-1.513.714-2.543s.24-2.372.481-2.981c.393-.997.729-.887 3.323 1.094 1.587 1.212 3.22 2.816 3.63 3.565 1.983 3.627 4.299 11.56 4.61 15.79.295 4.018.135 5.105-1.262 8.531-2.381 5.841-5.11 9.726-8.037 11.441-3.356 1.967-4.392 1.912-5.533-.295zm-27.586-6.691c-.177-.286-2.866-.701-5.975-.922-3.79-.269-6.001-.716-6.71-1.357-1.322-1.196-3.712-8.5-3.712-11.342 0-2.473 1.011-11.968 1.905-17.901 1.045-6.933.816-10.095-.916-12.644-1.855-2.73-1.942-3.816-.307-3.816.675 0 1.228-.217 1.228-.482 0-.584.77-.709 6.993-1.133 3.263-.222 6.269-.015 9.209.633a136.08 136.08 0 0 0 8.569 1.555c7.745 1.09 9.233 3.214 9.275 13.24.025 6.102-.173 7.346-2.053 12.893-3.784 11.16-7.287 16.877-12.285 20.046-2.773 1.758-4.626 2.194-5.222 1.228zm-57.296-10.936c-3.717-.79-5.479-7.747-4.873-19.241.404-7.662 1.879-17.064 2.825-18.01.659-.659 2.696-.899 10.784-1.269l12.586-.651c8.379-.473 12.036.31 13.482 2.886.852 1.517.811 1.775-.568 3.64-1.228 1.661-1.555 3.024-1.893 7.894-.547 7.89-2.573 12.181-8.819 18.674-2.519 2.619-4.827 4.609-5.129 4.423s-1.77.028-3.263.477c-2.922.878-12.891 1.654-15.134 1.178zm-10.994 47.945c-.939-1.432-.965-2.375-.284-10.284.919-10.687 2.301-20.411 3.225-22.703 1.124-2.786 3.687-3.686 11.361-3.992 5.524-.22 7.544-.053 10.437.866 1.973.626 3.804 1.071 4.07.989 1.292-.402 6.395 6.061 8.307 10.519l2.036 4.748-1.048 3.154c-1.987 5.981-2.713 6.704-10.565 10.516-6.053 2.939-8.233 3.668-13.2 4.414-3.273.492-7.404 1.447-9.181 2.122-4.041 1.536-3.917 1.544-5.157-.348zm-54.171 10.871c-5.402-.72-7.211-4.185-3.828-7.333 2.292-2.132 6.818-9.189 6.818-10.63 0-.611.553-1.407 1.228-1.768s1.228-1.225 1.228-1.92.553-1.965 1.228-2.824 1.228-2.042 1.228-2.631.414-1.414.921-1.834.921-1.573.921-2.561c0-1.853 1.328-4.97 2.867-6.729.482-.551 1.086-2.963 1.342-5.36.359-3.356.81-4.732 1.966-5.986 1.802-1.956 5.788-3.89 8.056-3.909.904-.008 2.01-.359 2.456-.781s1.364-.796 2.039-.832 2.195-.245 3.377-.466c2.086-.39 2.266-.262 6.13 4.362 7.609 9.105 7.788 10.876 2.65 26.151-4.187 12.446-8.392 21.26-10.655 22.332-4.407 2.089-22.431 3.724-29.971 2.718zm-24.638-8.454c-7.109-3.948-15.939-10.133-18.144-12.709-2.616-3.056-5.8-9.266-5.8-11.311 0-1.821 1.263-3.635 7.547-10.844 4.96-5.69 9.644-12.192 9.644-13.388 0-.791 4.637-4.891 6.244-5.521.618-.242 1.124-.898 1.124-1.457 0-.832.166-.878.917-.254s1.127.502 2.095-.692c1.082-1.337 1.618-1.452 6.646-1.426 4.693.023 5.961.268 8.935 1.723 6.195 3.031 10.335 9.306 9.309 14.111-.888 4.157-18.771 39.648-21.629 42.925-1.331 1.526-2.372 1.351-6.886-1.156zm37.23-57.585c-2.056-3.138-2.915-6.804-3.283-14.015-.304-5.953-.205-7.403.565-8.288.513-.59 1.114-2.691 1.335-4.668s.672-4.1 1.002-4.718.601-1.952.601-2.965c0-2.207 1.024-5.095 2.034-5.738 1.31-.833 5.913-.506 9.497.673 1.931.636 4.616 1.352 5.966 1.591s4.036 1.101 5.968 1.914 4.004 1.48 4.606 1.482c2.382.007 5.696 1.344 7.491 3.021 2.322 2.169 2.446 4.419.63 11.441-2.928 11.321-6.709 16.204-15.316 19.779-2.71 1.125-5.019 1.477-11.69 1.779l-8.313.377zm-29.7-34.574c-3.773-.215-3.85-.255-5.319-2.798-1.503-2.602-2.172-4.727-3.407-10.824-.46-2.272-.475-3.532-.047-3.96.346-.346.628-1.409.628-2.362 0-1.31.397-1.885 1.623-2.351 1.96-.745 5.744.304 5.744 1.592 0 .485 1.119 1.136 2.609 1.519 4.447 1.14 7.43 2.459 9.778 4.324 1.241.986 2.904 2.088 3.695 2.448 1.296.59 4.178 4.071 4.178 5.045 0 .215-1.391 2.063-3.092 4.106l-3.092 3.716-4.736-.118c-2.605-.065-6.459-.216-8.564-.336zm-48.665-5.038c-1.182-.241-3.25-1.038-4.596-1.771s-3.173-1.333-4.061-1.333c-3.567 0-6.948-4.781-8.913-12.602-.808-3.215-.882-4.396-.331-5.278.39-.625.71-1.864.71-2.754 0-2.368 3.162-10.07 4.407-10.736.588-.315 1.505-1.49 2.037-2.612 1.896-3.995 10.185-6.6 14.366-4.514 1.048.523 1.906.696 1.906.384 0-1.119 1.775-.529 5.003 1.666 1.807 1.228 4.666 2.853 6.355 3.612s3.596 1.964 4.239 2.679 1.562 1.3 2.041 1.3 2.496 1.55 4.482 3.444l3.611 3.444-2.507 4.998c-3.026 6.033-4.728 8.296-11.492 15.281l-5.202 5.372-4.954-.071c-2.725-.039-5.921-.268-7.103-.509zm15.992 54.77c-1.282-2.757-1.843-5.036-2.814-11.424-.505-3.324-1.167-6.508-1.471-7.077s-.875-2.809-1.268-4.979c-.646-3.563-.61-4.024.372-4.742 1.289-.942 5.8-1.035 8.87-.182 1.201.334 2.963 1.421 3.917 2.415 1.464 1.528 1.778 2.458 2.026 5.99.568 8.092-1.098 12.701-7.118 19.692l-1.725 2.003z" fill="#fff"/></svg>