<svg xmlns="http://www.w3.org/2000/svg" width="828" height="913.333" viewBox="0 0 621 685" preserveAspectRatio="xMidYMid meet"  xmlns:v="https://vecta.io/nano"><path d="M445.5 73.2c-4.9.4-13 .8-18 .8-11.9.1-29 1.6-30.7 2.6-.7.5-1.8.9-2.4 1s-2.7.8-4.5 1.7c-1.9.8-5.9 2-8.9 2.6-6.5 1.4-19.3 5.3-20 6.1-.3.3-2.3 1.7-4.5 3.2s-4.6 3.7-5.3 4.8c-.7 1.2-2.9 2.8-4.9 3.6-1.9.8-3.7 2.4-4 3.5-.3 1-1 1.9-1.5 1.9-.6 0-3.1 2.1-5.7 4.8-3.8 3.9-7.2 6.9-12.9 11.2-1 .7-3.2 4.2-3.8 6.2-.4 1-1.4 2-2.4 2.3s-2.1 2-2.4 3.9c-.4 1.8-1.8 4.6-3.1 6.2-1.4 1.6-2.5 3.7-2.5 4.7 0 1.1-.9 3-2 4.4s-2 3.4-2 4.4c0 1.1-.4 1.9-1 1.9-.5 0-1 1.1-1 2.5s-.4 2.5-1 2.5c-.5 0-1 1.4-1 3.1 0 3.4-1.5 6.8-3.8 8.5-1 .7-1.3 1.9-.9 3.5.4 1.4-.4 5.2-1.8 9.3-1.3 3.8-2.2 7.3-1.9 7.8s.1 1.4-.4 2.1c-.6.7-1.9 4.4-3 8.3s-2.7 8.5-3.6 10.2c-.9 1.8-1.4 3.2-1.1 3.2.4 0-.2 1.3-1.2 3-.9 1.6-2.1 3-2.5 3s-.8.7-.8 1.5-.4 2.3-.9 3.3c-.5.9-1.5 3.6-2.2 6-.7 2.3-1.4 4-1.7 3.7-.3-.2-2 2.5-3.8 6.1-1.8 3.7-4.1 7.2-5.1 7.9s-1.5 1.6-1.1 2c.3.4-.3 1.9-1.5 3.3-5.4 6.6-24.9 24.5-27.4 25-.8.2-3.6 2.5-6.2 5-10.9 10.8-20.1 19.2-21 19.2-.6 0-1.1.6-1.1 1.4s-1.8 3.3-4 5.5-4 4.5-4 5.1c0 .5-.7 1-1.5 1s-2.5 1.7-3.9 3.7c-1.3 2.1-4.8 6.5-7.8 9.9-3 3.3-6.5 7.6-7.8 9.4-5.1 7.1-24.3 27-26.1 27-.5 0-.9.7-.9 1.5s-.4 1.5-1 1.5c-.5 0-2 1.9-3.4 4.2-1.4 2.4-5 6.7-8 9.7-3.1 2.9-5.8 6.2-6.1 7.2-.4 1.1-1 1.7-1.5 1.4-1.4-.9-20 18.1-20 20.4 0 1.2-.4 2.1-1 2.1-.5 0-1 .6-1 1.3 0 .8-1.3 3.3-3 5.5-1.6 2.3-3 4.8-3 5.6s-.4 1.8-1 2.1c-.5.3-1 1.9-1 3.4s-.9 3.6-2 4.6c-1.2 1.1-2 3.1-2 5.2 0 1.8-.4 3.3-1 3.3s-1 2.6-1 5.8-.5 6.3-1.1 6.9c-.5.5-1.2 4.4-1.5 8.4-.6 9.9-3.4 30.3-4.2 30.6-.7.3-.6 17.4.1 29.5.3 4.8 1 7.4 2.6 9.4 1.1 1.4 2.1 3.2 2.1 3.8 0 1.3 3.9 8.8 4.9 9.6.4.3 1.8 2.3 3.1 4.5s2.9 4.5 3.5 5.1 2.6 3.7 4.5 7c4.2 7 25.4 28.6 33 33.6 3 1.9 8.7 5.1 12.5 7l14 7c7.4 3.8 28.2 9.5 37.4 10.4 3 .3 5.9.8 6.3 1 1.4.9 13.1.6 13.7-.3.3-.4 8.7-.9 18.6-.9l21-.4c5.7-.4 16-2.3 18-3.3 1.1-.6 3.6-1.4 5.5-1.7s3.4-1.2 3.3-1.8c-.2-.7.8-1.2 2.1-1.2 1.4 0 2.7-.4 3-.9.4-.5 1.7-.8 3.1-.6 1.4.1 3.3-.4 4.2-1.1 1-.7 3.3-1.4 5.1-1.4 1.7 0 3.2-.5 3.2-1 0-.6 1.5-1 3.3-1 2.3 0 4-.8 5.5-2.5 1.2-1.4 2.6-2.5 3.2-2.5.5 0 1-.6 1-1.4s1-2.2 2.1-3c1.2-.8 4.7-4.3 7.8-7.9 3.1-3.5 6.2-6.2 6.9-5.9.6.2 2.1-1.3 3.3-3.2 1.1-2 2.5-3.6 3-3.6s2.2-1.8 3.8-4c1.5-2.1 3.1-3.7 3.3-3.4.3.3 2.2-2 4.2-5s4.2-6.1 4.9-6.8c1.6-1.8 3.7-5.5 3.7-6.7 0-.5.8-2.6 1.7-4.7 2-4.7 1.9-4.4 2.8-7.1.4-1.3 1.2-2.3 1.7-2.3s.8-.8.6-1.7c-.2-1 1.3-3.4 3.2-5.5 3-3.3 6.8-9.8 10.1-17.3.5-1.1 1-4.1 1.1-6.7.2-2.7.6-4.8.9-4.8.6 0 2.2-7.6 2.4-10.9 0-.8.6-1.6 1.3-1.9.7-.2 1.2-2 1.2-4.3 0-2.1.4-3.9.9-3.9s1.2-1.1 1.5-2.5c.4-1.4 1.1-2.5 1.6-2.5.6 0 1-.9 1-1.9 0-1.1.4-2.3 1-2.6s1-1.7 1-2.9c0-1.3.7-2.9 1.5-3.6.8-.6 1.4-1.5 1.3-1.8-.4-3.4.4-6.2 1.8-6.2 1 0 1.4-.6 1.1-1.5-.4-.8-.2-1.7.3-2s.7-1.1.4-1.8c-.2-.7.4-2.2 1.5-3.4s1.8-2.9 1.5-4 .3-2.6 1.5-3.7 2.1-2.9 2.1-4.1.9-3.1 2.1-4.3c1.1-1.2 1.8-2.6 1.5-3-.3-.5 1.3-3.5 3.5-6.8 2.1-3.2 3.9-6.6 3.9-7.5s.7-2 1.6-2.3c.8-.3 1.2-1.1.9-1.6-.4-.6.6-2.6 2.2-4.4 5.6-6.7 6.5-7.9 7.5-10.7.5-1.6 1.6-2.9 2.4-2.9.7 0 1.6-1.5 2-3.5.3-2 1.2-3.5 2-3.5 1.3 0 5-5.8 4.6-7.3-.1-.4.2-.7.8-.7.5 0 1-.6 1-1.3 0-.8 1.1-2.7 2.5-4.3s2.5-3.5 2.5-4.2.7-1.5 1.5-1.8c.8-.4 1.5-1.1 1.5-1.8 0-.6 2-3.4 4.5-6.3 2.5-2.8 4.5-5.6 4.5-6.3 0-.6 1.1-2.3 2.5-3.8s2.5-3.2 2.5-3.8.9-1.9 2-2.9 2-2.3 2-2.9 1.6-2.9 3.5-5.1c2-2.2 3.8-4.8 4.1-5.8s1.6-2.9 3-4.4c1.3-1.4 2.4-3 2.4-3.6 0-.5 1.5-2.6 3.3-4.7 1.7-2 4-5 4.9-6.6 2.4-3.9 4.2-6.8 4.8-7.4 1.1-1.1 4-7.2 4-8.5 0-.7.4-1.5.8-1.7 1.1-.4 9.2-15.7 9.2-17.3 0-.8.4-1.5.9-1.7.6-.2 1.1-1.4 1.4-2.8.2-1.4 1.8-5.5 3.5-9.1 1.8-3.6 3.2-7.3 3.2-8.1s1-3.5 2.3-6 2.9-6.4 3.7-8.7c.7-2.2 1.7-4.1 2.2-4.1.4 0 .8-.8.8-1.7 0-1.8 1.6-7.1 3.3-11.3.6-1.4 1.2-3.2 1.3-4 .2-.8.6-3.1 1-5 .8-3.9 1.1-5.5 2-12 .4-2.5 1-4.7 1.5-5 .4-.3.9-2.8 1-5.5.2-6.2 1.7-12.5 2.9-12.5 1.7 0 1.1-27.8-.8-34.2-.9-3.2-2-5.8-2.4-5.8-.5 0-.8-1.1-.8-2.4s-.4-2.6-.8-2.8c-.5-.2-2.4-3.4-4.2-7.2-2.6-5.6-5.6-9.3-15.9-19.6-10.6-10.8-23.1-21-25.6-21-.4 0-4.5-1.8-9.1-4s-9.6-4.2-11.1-4.6-3.2-1-3.8-1.4c-3.2-2.3-17.5-3.7-29-2.8zm24 12.2l8.5 2.8c6.4 2 22.4 10 26.5 13.2 2.2 1.7 8.7 8 14.3 14 9 9.6 11 12.3 15.4 21.5 3.4 7.2 5.2 12.3 5.5 16.1l.6 5.5-3.2-2.9c-1.7-1.7-3.1-3.3-3.1-3.7 0-1.2-4.9-8.2-6.3-9.1-.7-.5-2.9-1.3-5-1.8-3.1-.9-4.2-1.9-6-5.8-1.9-4.1-2.7-4.7-6-5.3-4.1-.7-5.3-1.5-7.1-5-1.8-3.7-5.8-4.4-10-1.7-2 1.3-3.6 2.9-3.6 3.5 0 1.5-4.6 1.7-5.5.3-.4-.6-.1-2.7.5-4.6 1-2.9 1-3.9-.1-5-2.1-2-7.5-2.6-8.9-1-.6.8-1.8 1.2-2.6.9s-1.4.1-1.4.8c0 .8-1.1.1-2.6-1.4l-2.6-2.8 2.1-2.3c2.2-2.3 2.6-4.2 1.5-7-.9-2.3-5-2-7.3.5l-1.9 2.1-2.1-2.1c-1.2-1.2-2.1-2.9-2.1-3.9 0-2.6-5.2-5.4-8.1-4.4-2.3.9-3.6 5.7-1.8 6.8.5.3.7 1.4.4 2.4-.4 1.3.5 3.1 3 5.7 3.7 3.9 4.5 5.9 2 4.9-2.4-.9-6.5 1.1-6.5 3.2 0 3.5 3.4 5.4 9.2 5.1 6.1-.3 9.2.7 8.4 2.7-.7 1.8 1.3 6.4 2.8 6.5.6.1 1.9 0 2.9-.1 1.7-.1 10.4 2.4 13.7 4 .8.4 1.5 2 1.5 3.5 0 2.3.6 3 2.9 3.6 3.3.9 4.6.4 4.6-1.7 0-.8.4-1.4.9-1.4s1.3-.9 1.6-2c1.4-4.3 8.2-.9 7.1 3.5-.4 1.4-1.1 2.3-1.6 2-.6-.4-1 .8-1 2.6 0 3.5 2.2 5.8 5.8 5.9 2.7 0 6.6-3.6 5.8-5.6-.7-1.9.3-1.8 4.1.5 2.4 1.5 3 2.5 2.6 4.1-.3 1.1-.9 2.3-1.4 2.6s-.2 1.8.7 3.3c1.7 2.9 4.2 3.2 7.2.8 1.6-1.3 4.1.8 5.8 4.9.7 1.7 3.5 5.3 6.1 8 3.8 4 4.7 5.5 4.4 7.9-.1 1.6-.7 3.4-1.2 3.9-.5.6-.9 2.1-.9 3.5 0 3.9-1.6 11.9-7.2 36.6-.7 2.7-2 6.2-3.1 7.7-1 1.6-1.5 3.2-1.2 3.8.3.5-.1 1-1 1-1.1 0-1.5.6-1 1.8.3 1.1-.3 3-1.6 4.6-1.2 1.6-2.2 4.3-2.3 6.6 0 2.2-.7 4.2-1.3 4.5-.7.2-1.3 1.4-1.3 2.5s-.4 2-1 2c-.5 0-1.2 1.2-1.6 2.7-.3 1.6-1.4 4.7-2.5 7-1 2.4-1.9 4.7-1.9 5.2s-.7 1.4-1.5 2.1-1.5 2.2-1.5 3.4c0 1.1-.9 3.2-2 4.6s-2 3.1-2 3.8-1.3 3.3-3 5.7c-1.6 2.4-3 4.7-3 5 0 .4-2 3.6-4.5 7.2-2.5 3.5-4.5 6.7-4.5 7.1 0 .5-.7 1.7-1.5 2.7L482 323l-5 6.7c-.5.7-1 1.6-1 2-.1.4-1.4 2.4-3 4.3-1.7 1.9-3 4-3 4.7s-.4 1.3-.9 1.3-1.1.8-1.5 1.7c-.3 1-2.4 4.3-4.7 7.3-2.2 3-5.8 8.2-7.9 11.5-2.2 3.3-4.8 7-6 8.2-1.1 1.2-2 2.6-2 3.1s-1.6 3-3.5 5.5-3.5 5.3-3.5 6.1c0 .9-.3 1.6-.8 1.6-.4 0-1.6 1.6-2.6 3.4-1 1.9-2.9 4.5-4.2 5.7s-2.4 2.9-2.4 3.6c0 .8-.9 2.4-2 3.6-1.2 1.2-3.3 4.2-4.7 6.7s-3 4.7-3.4 5-1.1 1.8-1.4 3.3c-.4 1.5-1.1 2.7-1.6 2.7s-.9.6-.9 1.4-.6 1.6-1.2 1.8c-.7.3-1.3 1.5-1.3 2.8 0 1.5-.9 2.9-2.2 3.6-1.3.6-2 1.3-1.7 1.6.4.5-2.6 6.6-4.6 9.3-.4.5-1 2.2-1.4 3.8-.3 1.5-1.1 2.7-1.6 2.7-.6 0-1 1.1-1 2.4 0 1.4-.4 2.8-1 3.1-.5.3-1 1.7-1 2.9 0 1.3-.7 2.9-1.5 3.6s-1.5 2.3-1.5 3.5c0 2.5-5.9 14.5-8.4 17-.9.9-1.6 3.1-1.6 4.8 0 1.8-.9 4.5-2 6.2-1.1 1.6-2 4.3-2 5.8 0 2.5-.2 2.7-2 1.7-1.1-.6-2-1.7-2-2.6 0-.8-.7-2.6-1.6-3.9-1.5-2.3-1.4-2.6.8-4.7 2-1.9 2.3-2.9 1.8-6.1-1-5.3-2.2-6.3-5.4-4.2-1.4 1-2.6 1.6-2.7 1.4s-.3-2.2-.5-4.4c-.1-2.2-.5-5.6-.8-7.5-.6-4.6.1-5.6 4.7-6.4 2.1-.4 3.7-1.3 3.7-2.1 0-.7.5-1.5 1.2-1.7 1.5-.5 1.3-6.5-.3-8.4-.7-.9-2.1-1.3-3.1-1.1-2 .6-3.6-1.1-2.1-2.2.5-.3 1.3-2.1 1.7-4 .7-4 3.2-7.1 5.6-7.1 3.7 0 5.2-4.8 2.6-8.3-1.4-1.8-1.1-5.7.4-5.7.5 0 2.1-2.6 3.5-5.8 7-15 7.7-16 10.1-16.6 1.8-.5 2.4-1.3 2.4-3.4 0-1.5-.5-3.3-1.1-3.9-1.1-1.1 1.3-16 3.3-19.7 1.4-2.6-5.4-9.6-9.4-9.6-1.5 0-2.8.4-2.8.8s-1.3 1.6-3 2.5c-2.1 1.3-3 2.6-3 4.4 0 1.7-.7 2.7-2 3-2.4.6-3.7 4.8-2 6.7.6.8 2.5 1.8 4.1 2.1 3.1.7 4.7 2.4 3.2 3.4-.6.3-1 1.3-1.1 2.1 0 .8-.3 2.4-.6 3.5-.2 1.1-.5 2.3-.5 2.6-.1.4-2.1 1-4.6 1.4-3.3.4-5 1.3-6.2 3.2-1.7 2.5-1.7 2.6 2 5.7 2 1.7 3.7 3.6 3.7 4.2s-2 3.7-4.5 6.8c-2.5 3.2-4.6 6.3-4.7 7 0 .6-.2 1.5-.2 2.1-.4 2.7-1.8 3.3-7.4 2.8-5.1-.4-5.8-.2-7 1.7-1.8 3-.8 5.2 3.8 8.1 3.1 1.9 3.9 2.8 3.4 4.4l-1.7 6.5c-1.2 4.9-3.9 8.6-5.6 7.6-1.2-.8-3.1 2.4-3.1 5.1 0 1.1 1.3 2.9 3 4.1 2.7 2 2.9 2.6 2.7 8.2l-.1 5.9-3.2-.5c-2.6-.4-3.6 0-4.8 1.8-3.1 4.4-1.4 7.2 7.4 12.1 3.6 2 5.3 3.9 8.2 9.3 2 3.8 4.2 7.6 5 8.4.7.8 1.2 2 1 2.7s.4 2.3 1.3 3.5c1.9 2.9 1.9 5.2-.1 7.3-.9.8-1.4 2.2-1.1 3 .3.7-.1 1.9-1 2.6-.8.7-1.9 2.2-2.4 3.4-.5 1.1-1.3 2.7-1.8 3.5-1.4 2.2-2.4 5.3-2.2 6.6.1.7-.5 1.4-1.3 1.7-.7.3-1.6 1.8-2 3.4-.9 3.6-4.9 11.3-5.8 11.3-.5 0-.8.7-.8 1.5s-.3 1.5-.8 1.5c-.4 0-2.3 2.3-4.1 5.2-1.9 2.8-8.2 10.1-14.1 16.2l-14.2 14.8c-4.4 4.8-11.9 8.8-16.3 8.8-1.9 0-3.7.4-4 1-.3.5-1.8 1-3.3 1s-5.4 1-8.7 2.1c-12.5 4.3-22 6-37.5 6.7-22.2 1-45 .5-46.6-1-.4-.5-2-.8-3.6-.8-3.2 0-11.5-1.8-14-3.1-1-.5-2.7-.9-3.7-.9-2.3 0-6.9-1.8-9.1-3.6-.8-.6-5.5-2.8-10.3-4.8-4.9-2-10.1-4.4-11.5-5.4-3.7-2.3-16.7-13.5-22.5-19.4-2.6-2.6-5.3-4.8-5.8-4.8-1.1 0-6.5-6-6.3-6.9.1-.3-.9-1.9-2.2-3.4-1.3-1.6-2.4-3.3-2.4-3.7 0-.5-1.6-2.5-3.6-4.5-1.9-2-4.3-5.7-5.1-8.3-.9-2.6-2.5-5.7-3.6-6.9-1.1-1.3-1.7-2.3-1.3-2.3.5 0 .3-.7-.5-1.6-2-2.4-4.5-38.9-2.7-40 .4-.3.8-2.7.8-5.3 0-3.3.6-5.6 1.9-7.3 1.2-1.5 1.6-2.9 1.1-3.7-.4-.7-.5-2.2-.3-3.2.3-1.1.1-2.5-.5-3.2-.6-.8-.6-2 .1-3.7.5-1.4 1.1-3.2 1.2-4 1.4-8.3 4.6-21.4 5.5-22.5.6-.7.7-2.1.3-3-.4-1.3-.3-1.6.5-1.1s1.2-.1 1.2-1.8c0-1.4.4-2.6 1-2.6.5 0 1.3-1.2 1.6-2.7.4-1.6 2.6-5.4 4.8-8.7 2.3-3.2 5.1-7.4 6.4-9.2 1.2-1.9 2.7-3.4 3.3-3.4 1.4 0 8.9-6.1 8.9-7.3 0-.5 2.2-3.5 5-6.7 2.7-3.2 5-6.1 5-6.4 0-.6 2.4-3 10.1-10.3 1.9-1.7 4-3.7 4.7-4.5l4-4c1.5-1.4 3.6-3.7 4.7-5s2.8-2.7 3.8-3.1c.9-.3 1.7-1.3 1.7-2.1 0-.9.9-2 2-2.6s4.5-4.5 7.6-8.8c3.1-4.2 7.3-9.3 9.4-11.2 2-1.9 3.9-4 4.1-4.6.2-.7 3-3.9 6.1-7.3 3.2-3.4 6.8-7.5 8-9.1 1.2-1.7 2.7-3 3.3-3 .7 0 2.9-2.2 5.1-5 2.1-2.7 4.3-4.9 4.7-5 .5 0 2.1-1.3 3.5-2.8 1.5-1.5 6.1-5.5 10.2-8.9 4.1-3.3 8.4-7 9.4-8.2 1.1-1.1 2.3-2.1 2.8-2.1 1.3 0 14.6-11.3 14.7-12.5.1-.6 1.6-2.6 3.5-4.5 1.8-1.9 3.7-4.6 4.1-6s1.2-3.1 1.8-3.8c1.4-1.8 4.1-6.6 8.3-15.2 2.1-4.1 4.1-7.7 4.5-8s1.1-1.9 1.5-3.5c.4-1.7 2.2-6.1 4-9.9 1.9-3.7 3.4-7.4 3.4-8.1s.6-1.6 1.3-1.9c.9-.5.9-.7-.1-1.2-.8-.4-.9-1-.4-1.7s1.4-3.9 2.1-7.2 1.8-6.5 2.3-7.2.7-1.6.4-2.2c-.3-.5.1-2.2.9-3.7.8-1.6 1.5-3.8 1.5-4.9s.7-3.1 1.6-4.3c.8-1.2 1.3-2.6.9-3.1-.3-.5-.1-1.2.4-1.5s1.2-2.3 1.6-4.3c.7-4.2 3.2-9.6 7.1-15.8 1.3-2.2 2.9-5.1 3.6-6.5 3.4-7.7 5.5-11.4 7.6-13 1.2-1 2.2-2 2.2-2.3s2-2.6 4.5-5.1c2.5-2.6 4.5-5.1 4.5-5.6 0-.6.6-1 1.4-1s1.7-.8 2-1.8c.3-.9 2.3-2.8 4.3-4.2 2.1-1.3 6.1-4.3 8.9-6.6 6.8-5.7 13-9 18.4-9.9 5-.8 13.2-3.1 17-4.8 1.4-.6 4.1-1.2 6-1.4s4.6-1.1 5.9-2c1.9-1.2 5.8-1.7 15.5-2.1 7.2-.2 13.2-.5 13.4-.7s7.8-.2 17 0c12.2.2 18.1.7 21.7 1.9z"/><path d="M415.3 103.7c-1.3.2-2.3.9-2.3 1.4s-1.8 1.2-4 1.5c-2.2.4-4.3 1.1-4.6 1.5-.3.5-1.4.9-2.5.9s-1.7.4-1.4 1c.3.5.3 1-.2 1-2.6.1-20.3 17.4-20.3 20 0 .6-.5 1-1 1-2.4 0-10.3 10.6-10.5 14.2-.1 1-1.1 2.6-2.3 3.4s-2.2 2.2-2.2 3c0 2.2-3 7.6-5.2 9.6-1.1.9-1.8 1.8-1.7 2 .4.4-2.1 3.4-7.3 9.1-2 2.2-3.5 4.4-3.2 4.9.8 1.2-1.6 3.9-2.7 3.2-.5-.3-.9-.1-.9.4 0 1.4-7.8 9.2-9.2 9.2-.6 0-.9.3-.5.6.7.7-4.9 6.4-6.3 6.4-.5 0-1.7 1.1-2.6 2.5s-2 2.2-2.5 2c-1.1-.7-13.9 12.3-13.9 14.1 0 .8-.4 1.4-1 1.4-.5 0-1.2 1.6-1.6 3.5-.3 1.9-.9 3.5-1.3 3.5-.8 0-3.1 7.8-3.8 13-1.2 8.4-.8 24.7.7 27.6 2.6 5 11 15.3 13.8 16.8 8 4.3 9.7 4.8 16.7 4.3 3.8-.3 7.1-1 7.3-1.6s1.3-1.1 2.5-1.1c7.5 0 25.9-6 29.5-9.7.7-.7 2-1.3 2.8-1.3s1.4-.5 1.4-1c0-.6.5-1 1.1-1 1.2 0 4.4-3 3.2-3-.4-.1.3-.7 1.7-1.4 3.1-1.7 5.2-8 7.6-22.1 2.4-14.8 4.7-21.8 7.9-24.5.8-.7 1.5-1.6 1.5-2.1 0-1.6 8.1-10.4 19.5-21.1 7.6-7.1 19.9-22.8 17.9-22.8-.4 0 0-.8.8-1.8.9-.9 1.9-3.5 2.3-5.7.5-2.2 1-4.9 1.2-6 .3-1.1.5-2.5.7-3 .1-.6.5-1.6 1-2.4 1.4-2.2 1.2-24.9-.2-26.3-.7-.7-1.2-2-1.2-3 0-2.7-5.3-11.6-10.2-17.1-3.6-4-5-4.9-8.3-5.2-2.2-.2-5-.1-6.2.2zm8.7 13.9c2.2 2 4 4.1 4 4.6 0 .6.8 2.2 1.9 3.6 2.4 3.5 4.1 17.6 2.9 24.9-.5 3-.6 5.8-.3 6.4.4.5.2.9-.4.9s-1.3 1.7-1.7 3.7c-.7 4.1-7.3 17.3-8.6 17.3-.4 0-.8.4-.8 1 0 1.3-2.4 4.1-8.5 10.1-14 13.7-24.5 24.5-24.5 25.2 0 .4-.9 1.7-2 2.9-3.8 4.1-6.1 9.8-6.4 16.1-.2 3.4-.6 6.9-.9 7.7s-.8 3.1-1 5c-.6 4.4-1.1 6.2-1.9 7.5-.3.5-.9 2.4-1.2 4.2-.5 2.1-1.6 3.5-3.4 4.2-3.1 1.2-5.8 2.9-8.6 5.4-1.1 1-2.6 1.5-3.3 1.3-.7-.3-1.5-.1-1.8.3-.3.5-6.1.8-12.9.6-6.8-.1-12.8.1-13.3.4-.4.3-1.3 1.5-1.9 2.6-2.1 3.7-6.4 2.8-11.2-2.3-4.7-5-6.7-8.8-7.7-14.5-2.1-12.5 1-26.9 7.5-35.2 3.6-4.6 18.6-19.1 20.6-20 2.5-1.1 12.4-10 12.4-11 0-.9 6.4-9.9 10.4-14.6 5.4-6.3 6.6-7.9 6.6-8.8 0-.5.7-1.4 1.5-2.1s2-3 2.5-5.2c.6-2.1 1.8-4.2 2.6-4.5.7-.3 1.4-1 1.4-1.5 0-1 6.3-10.1 8.7-12.6.7-.7 1.3-1.7 1.3-2.1 0-.5 2.7-3.6 5.9-7 3.3-3.4 6.2-6.8 6.5-7.6s1.3-1.5 2.1-1.5c.9 0 1.3-.5 1-1-.3-.6.2-1 1.1-1 1 0 2.7-.9 3.8-1.9 1.7-1.6 9.8-4.7 12.8-5 .5-.1 2.6 1.5 4.8 3.5z"/><path d="M368.1 196.9c-.8.5-2 .7-2.8.4-.7-.3-1.3 0-1.3.6 0 .7-1.7 3-3.7 5.3-2.1 2.2-3.7 4.5-3.6 5.2.2.6-.7 1.3-1.9 1.3-1.3.1-2.7.8-3.3 1.5-.5.7-1.7 1.3-2.5 1.3-.9 0-1.6 1.1-1.8 3-.2 1.6-1 3.3-1.7 3.8-.8.4-1.2 1.4-.9 2.2.4.8.1 1.5-.5 1.5a1.11 1.11 0 0 0-1.1 1.1c0 .7-.6 1.7-1.4 2.3s-1.8 3.1-2.1 5.6c-.5 3.8-.3 5 1.6 7.3 3 4 6.2 5 9.6 3.2 1.5-.8 3.6-1.5 4.5-1.5s3-1.1 4.6-2.5c1.7-1.4 3.4-2.5 3.9-2.5 1.2 0 7.9-7.1 8.6-9.3.4-.9 1.1-1.7 1.7-1.7.5 0 1-.8 1-1.9 0-1 .6-2.4 1.4-3 1.3-1.1 2.2-4.8 2.9-12.8.5-4.9-3.1-10.7-6.8-11.1-1.7-.1-3.6.2-4.4.7zm114.2-41.6c-2.4.6-4.3 1.4-4.3 1.9 0 .4-1 .8-2.3.8-1.2 0-2.9.9-3.7 2.1-.8 1.1-2.5 3.2-3.8 4.6-2.7 2.9-5.2 8.6-5.8 13-.2 1.7-1.4 5.6-2.7 8.5-2.6 5.6-4 9-4.1 9.8-.1.3-1.6 2.5-3.3 5l-6.8 9.5c-2 2.7-5.6 7.2-8 9.9-2.5 2.7-4.5 5.3-4.5 5.7s-2.2 3.2-5 6.2c-2.7 3-7.9 9.9-11.6 15.3-3.6 5.4-7.4 10.8-8.4 11.9-.9 1.1-2.5 4.2-3.5 7-1 2.7-2.3 5.4-3 6-.6.5-1.9 3.5-2.9 6.5s-2.3 5.8-3 6.2c-.6.4-1.1 3.6-1.1 8 0 6.4.4 8 3.3 12.9 4.6 8.1 11.9 13.1 18.7 12.9 1.7-.1 7.7-.1 13.4-.1 9.7.1 10.7.3 13 2.5 2.3 2.1 3.1 2.3 7.5 1.6 2.7-.4 5.5-1.5 6.1-2.4.7-.9 1.6-1.6 2.1-1.6s2-1.6 3.3-3.5 2.7-3.5 3.2-3.5c1.6 0 5-6.1 5.4-9.7.7-7.5 2.6-17.6 3.5-19.4.6-1 1-3.2 1-5 0-3.3 5.3-21.5 7.5-25.9l7-14.2c3.1-6.4 6.5-12.4 7.6-13.4 1-.9 1.9-2.4 1.9-3.3s.7-2.6 1.5-3.8c2.1-3.1 6.1-15.8 7.9-25.7 1.9-10.1 1.4-16.8-1.9-24.1-5.4-12-11.8-15.2-24.2-12.2zm14.1 14c5.1 6.3 5.2 20 .4 35.7-1.2 4.1-3.6 9.9-4.9 12-.5.8-1.3 2.5-1.9 3.7-.5 1.3-1.4 2.3-2 2.3-.5 0-1 .9-1 1.9 0 1.1-.6 2.6-1.3 3.3-2.3 2.4-8.9 14.3-9.2 16.4-.1 1.2-1.2 3.5-2.3 5.2-1.2 1.6-2.2 3.9-2.2 5 0 1.2-.4 2.4-1 2.7-.5.3-1 1.6-1 2.8s-.7 3.1-1.5 4.1c-.8 1.1-1.5 3-1.5 4.1 0 1.2-.7 3.6-1.6 5.3-1.6 3.2-4.6 18.8-4.8 25.2-.1 1.9-.9 4.6-1.8 5.9-1.5 2.1-2 2.2-6.4 1.3-2.9-.6-5.6-.7-7.1-.1-1.4.5-2.9.6-3.5.3-.6-.4-1.4-.1-1.8.6-1.7 2.7-19.8 3.9-25.5 1.7-7-2.7-8.7-5-9.2-12.7-.4-4.4.1-7 2.1-12 1.4-3.5 2.6-6.8 2.6-7.4s2.3-4.5 5.1-8.6 5.3-8.7 5.6-10.2c.3-1.6 1.2-2.8 1.9-2.8.8 0 1.4-.8 1.4-1.8s1.5-3.2 3.3-4.9c1.7-1.7 5.2-5.4 7.7-8.3 2.5-2.8 5.7-6.6 7.3-8.2 1.5-1.7 2.7-3.7 2.7-4.3 0-.7 1.6-2.7 3.5-4.4s3.5-3.5 3.5-4 1.1-1.8 2.5-2.9 2.5-2.5 2.5-3.1.5-1.1 1-1.1c.6 0 1-.6 1-1.4 0-.7 1.1-2.5 2.5-4s2.5-3.2 2.5-3.7c0-.6 1.1-3.5 2.5-6.5s3.4-8.3 4.6-11.7c1.1-3.4 2.8-7.3 3.7-8.7s2.1-3.4 2.7-4.4c1-2 1.7-2.4 7.4-4.9 5-2.2 8.1-1.5 11.5 2.6zm-58.9 79.6c-1.4.9-2.5 2.2-2.5 3s-.8 2.4-1.9 3.5c-2.1 2.3-6.1 13.1-6.1 16.4 0 1.1-.5 2.4-1.1 2.8-.7.4-.9 2.3-.5 5.2.8 6.1 5.5 11.2 10.3 11.2 1.8 0 3.3-.5 3.3-1.1 0-.5.8-.9 1.8-.8.9.2 2.7-.2 3.9-.9 2.4-1.4 8.3-9.6 8.3-11.7 0-.8.4-1.6.9-1.9s1.2-2.7 1.6-5.3c.4-2.7 1.2-5.4 1.7-6.1 1.9-2.2-1.1-8.9-5.7-12.6-4.6-3.8-9.5-4.4-14-1.7zm-101.2 57.5c-3.2 3.3-2.9 5 2 10.4 6.9 7.5 9.5 14.8 9.8 26.7.4 14.7 0 19.8-1.6 21.9-1.4 1.9-1.6 1.9-9.7.1-4.6-1-10.1-2.6-12.3-3.5-2.2-1-8.1-3.4-13.2-5.5-5-2-10.2-4.7-11.4-5.8-2.6-2.4-8.9-2.8-11.4-.7-4.7 3.9 2.9 10.8 15 13.6.6.1 4.8 2 9.5 4.2 10.6 5 15.9 7.2 16.8 7 .4-.1 1.4.1 2.2.5 4.3 1.6 12.5 2.4 16 1.5 6.2-1.6 9.8-5.4 10.4-11.3.3-2.8.8-6.4 1-8 .7-4.1.8-13.7.3-21.6-.6-11.8-11.5-29.8-18.7-31.3-1.7-.3-3.2.3-4.7 1.8zm-125.6 77c-2.1.6-3.5 1.5-3.1 1.9s-.3.7-1.5.7-2 .4-1.6.9c.3.5-.9 1.1-2.6 1.3-2.1.2-3.3.9-3.5 2-.1 1-.9 2.4-1.7 3.3-.9.8-2.1 3.2-2.7 5.2-.7 2.1-1.7 4.3-2.2 5-1.2 1.5-2.7 7.4-3.3 13.1-.3 2.3-1.2 5.3-2.1 6.7s-1.3 3.2-1 4.1c.4.9.2 2.2-.4 2.9s-.9 1.7-.8 2.1c.4 1.3-2.8 5.5-3.5 4.7-.4-.3-.7.1-.7 1.1 0 .9-.7 1.9-1.5 2.2-.8.4-1.5 1.2-1.5 2s-.3 1.4-.7 1.4c-1 0-8.3 6.7-8.3 7.5 0 .4-1.4 2.1-3 3.8l-8.2 8.7c-2.9 3-5.2 5.9-5 6.3.4 1.3-1.8 4.8-2.7 4.2-1-.6-2.1 1.8-2.1 4.5 0 .9-.7 2.3-1.5 3s-1.5 2.7-1.5 4.6c0 1.8-.5 3.6-1.1 3.9-.6.4-.9 2-.7 3.6.2 1.8-.3 3.3-1.2 3.9-1.3.8-1.5 4.1-1.4 20.2 0 17.7.2 19.7 2.2 23.8 5.2 10.6 15.1 20.7 22.3 22.9 2.4.7 4.9 1.7 5.4 2.1 2.8 2.1 17.9 5.5 28.9 6.4 3.3.3 6.2.9 6.5 1.4.3.4 2.2 1.4 4.1 2.2s3.7 1.6 4 2c.3.3 2.5 1.8 4.9 3.4s6.8 4.7 9.7 7c11.9 9.3 14.4 11 19.5 13.2 7.3 3.1 13.9 3.2 17 0 3.6-3.5 6.3-4.6 11.4-4.6 6.2 0 13.1-4 15.3-8.9 1-2 2.5-4.5 3.5-5.6.9-1 2.3-3.6 2.9-5.7.7-2.3 1.7-3.8 2.7-3.8.9 0 2.2-.9 2.9-2s2.1-2 3.2-2c1 0 2.4-.8 2.9-1.8 1-1.8.4-7-.9-8.7-1-1.3.3-9 1.9-10.8.6-.8.8-1.6.5-1.9-.3-.4.1-1.9.9-3.5 3.3-6.5 3-31.8-.4-38.5-.5-1-.9-2.5-.9-3.4 0-2.5-5.8-13.4-9.7-18.2-2-2.4-6.1-6-9.2-8-15.8-10.3-34.8-26.8-40.6-35.2-2.8-4.1-3-5-3.2-14.9-.6-26.7-.7-27.8-2.6-29.9-1-1.1-3-2.3-4.4-2.7-1.4-.3-4-1.7-5.8-3.1-1.7-1.3-3.6-2.4-4.2-2.4-.5 0-2.7-.9-4.9-1.9-5.4-2.6-10.2-3.2-14.7-1.7zm13.3 12.1c.9.8 2.3 1.5 3.1 1.5.9 0 2.4.6 3.4 1.4 1.6 1.1 1.7 1.7.7 2.8-.9 1.1-1 2.9-.3 6.4.4 2.7.8 6.1.7 7.5-.1 3.1-7.3 10.2-9.4 9.4-.8-.3-2-.1-2.6.3-3.4 2.7-11.6 1.3-18.6-3-2.1-1.3-2.8-5.8-.9-5.8.5 0 .8-.4.5-.8-.3-.5.6-3.2 2-6.1 1.3-2.9 2.4-5.9 2.4-6.6s1.3-2.3 3-3.6c1.6-1.3 3-2.9 3-3.6 0-2.6 10-2.5 13 .2zm14.6 38.9c.3 1.4.3 3-.1 3.5-1.1 1.8 2.7 8.2 9.1 15.5 6.1 6.8 6.9 8.6 3.8 8.6-.8 0-1.4.4-1.4 1 0 .5-.8 1.8-1.7 2.8-1 1-2.4 2.9-3.1 4.2-1.2 2.4-5.3 5-7.8 5-3.1 0-9.2-4.5-11.9-8.8-2.5-3.9-3-5.9-3.2-11.6-.2-6.2 0-7.2 2.2-9.4 1.4-1.4 2.5-2.9 2.5-3.4 0-2.4 7.6-9.6 10.2-9.8.4 0 1 1.1 1.4 2.4zm-32.4 5.8c1.4 1.6 1.7 3.4 1.4 9.1-.4 8.7-3.4 14.8-6.7 14-1.4-.4-2.2 0-2.5 1.5-.4 1.4-1.9 2.3-5.2 3l-8.2 1.9c-4.9 1.2-15-1.4-15-3.9 0-.6 4.8-5.9 10.8-11.8 13.4-13.5 15.2-15.6 14.4-16.5-.4-.4 1.6-.4 4.3 0 3.1.4 5.7 1.4 6.7 2.7zm63.5 33c3.8 3.7 4.2 6.9 1.2 8.9-1.1.8-2.4 3-2.8 4.9-.4 2.1-1.3 3.5-2.1 3.5-.9 0-1.4.9-1.3 2.1.3 2.7-13.3 19.8-14.9 18.8-.5-.3-.8 0-.8.5 0 2.3-2.6 1-4.9-2.4-1.9-2.9-2.3-4.4-1.9-8.4.8-8.4 12-25.1 16.8-25.1.7 0 1-.7.6-1.6-.3-.8 0-2.1.7-2.9 2.1-2.4 5.9-1.7 9.4 1.7zm-90.8 12.6c9.8 4.9 12.2 7.1 11.4 10.2-.6 2.4-9.8 6.9-14.7 7.2-2 .2-3.6.6-3.6 1s-.7.5-1.5.2c-.8-.4-2.3-.3-3.2.1-2.6 1.1-14 1.7-14.6.8-.6-1 1.1-13.2 2.3-15.8.5-1.1 1.4-3.6 2.1-5.6l1.2-3.5 5.6.3c4.2.3 8 1.6 15 5.1zm112.6 3.4c4.2 5 7.5 11.9 9.9 20.5 2.5 9.1 1.6 25.5-1.9 36-3.2 9.5-4 10.5-6.3 7.7-.9-1.1-3.8-2.8-6.3-3.8-5.5-2-10.9-7.9-10.9-12 0-.7-1.1-2.1-2.5-3-1.8-1.2-2.5-2.5-2.5-4.9 0-1.7-.2-5.1-.6-7.3-.4-3.1 0-5.4 1.5-8.9 1.2-2.6 2.1-5.6 2.1-6.6s2-5.7 4.5-10.3c2.5-4.7 4.5-9.3 4.5-10.1 0-3.1 4.7-1.6 8.5 2.7zm-97.6 27.4c1.4.7 2.9 1.1 3.3.8 1.5-1 5.8.6 5.8 2 0 .8-1.2 2.8-2.7 4.4-1.6 1.6-4.2 4.6-5.9 6.8-1.8 2.1-4.4 5.3-5.8 7-1.4 1.8-2.6 3.7-2.6 4.3s-1.4 1.1-3.1 1.1c-2.3 0-3 .4-2.8 1.7.4 2.4-1.8 6.3-3.6 6.3-.8 0-1.7 1.1-2.1 2.5-.8 3.2-2.6 3.2-8.1-.1-6.1-3.6-13.7-15.9-14.5-23.4-.4-4.6.3-9.1 1.5-8.9.6.2 2.6 0 4.2-.4 4.7-1.1 7.8-1.8 10.5-2.2 1.4-.2 4.5-.9 7-1.5 11.1-2.9 14-2.9 18.9-.4zm39.3 18c5.1 3 6.4 5.6 4.2 7.8-.8.8-1.4 2.4-1.4 3.7 0 2.2-12 14.9-14 14.9-.6 0-1.8.4-2.8.9-2.6 1.4-5.6 2.4-6.5 2.2-.5-.1-2.9-.3-5.5-.6-16.6-1.4-16.9-1.5-16.9-4.6 0-1.8.6-2.9 1.4-2.9.7 0 1.3-.4 1.3-.8s1.4-1.6 3-2.5c1.7-1 3-2.4 3-3 0-.7.9-2 2-3 1.2-1 1.8-2.2 1.4-2.8-.9-1.6 5.6-7.9 8.2-7.9 1.5 0 2.4-.8 2.8-2.6.7-2.5.8-2.5 7.9-2.1 5.7.4 8.3 1.1 11.9 3.3zm31.8 25.5c2.8 1.7 5.5 3.9 6 4.9 1.2 2.3 1.3 7.7.2 8.4-.5.3-.9 2.6-1 5.2 0 2.6-.6 5.2-1.4 6-1.7 1.7-10.2 2.1-12.2.5-1.8-1.5-6.5-1.2-8.8.7-2.7 2.2-7.1.6-14.8-5.4-6.9-5.4-6.9-5.5-5-7.4 1.1-1.1 2.2-2 2.5-2 .2 0 2.5-2.2 5.1-5 3.2-3.4 5.7-5.2 8.1-5.6 1.9-.4 3.7-1.2 4-2 .2-.7 1-1.1 1.7-.8s2.3 0 3.7-.5c3.2-1.4 6-.6 11.9 3z"/><path d="M204.962 614.407c-17.63-3.609-23.638-5.311-30.267-8.576l-14.735-7.165c-7.488-3.612-10.541-5.658-16.727-11.207l-14.902-13.21c-4.686-4.102-8.699-8.491-11.112-12.153-2.078-3.153-5.089-7.345-6.691-9.317s-4.734-7.365-6.957-11.986c-4.831-10.039-5.923-16.321-6.017-34.61-.068-13.296.874-21.3 2.859-24.294 1.087-1.64 1.197-2.835.623-6.77-.739-5.069.189-10.464 4.523-26.285 1.08-3.943 2.024-7.975 2.096-8.961s.401-1.792.73-1.792.597-.425.597-.944c0-1.784 5.789-12.208 10.757-19.368 3.543-5.107 6.151-7.932 9.067-9.821 2.251-1.459 4.716-3.534 5.476-4.611 5.799-8.216 16.377-20.24 27.592-31.366 16.952-16.817 17.717-17.633 22.805-24.294 2.342-3.067 6.251-7.771 8.686-10.453s7.116-8.003 10.401-11.822c13.369-15.541 25.981-27.124 54.232-49.809 3.546-2.848 6.817-5.894 7.267-6.77s1.844-2.678 3.097-4.003 3.316-4.372 4.585-6.77l14.284-26.669c.484-.872 2.916-6.425 5.403-12.339s4.926-11.022 5.419-11.35c.661-.44.654-.755-.027-1.197s-.392-2.513 1.066-7.766l2.675-9.954c1.548-6.298 3.092-11.105 4.34-13.519.728-1.407 1.121-2.761.873-3.009s-.138-.841.243-1.32 1.298-3.02 2.037-5.649 3.602-8.901 6.363-13.939 5.872-10.912 6.913-13.053c1.608-3.305 9.531-12.831 18.714-22.499 3.803-4.004 22.083-17.429 25.706-18.879 1.823-.729 5.009-1.688 7.081-2.13 4.085-.872 16.771-4.518 26.748-7.688 5.432-1.726 8.712-2.1 24.912-2.846 25.137-1.158 39.17-.198 49.28 3.37 3.943 1.392 11.634 4.74 17.091 7.44 10.883 5.385 15.197 8.884 28.31 22.959 9.825 10.546 17.454 25.014 19.02 36.071l.445 3.143-2.159-2.159c-1.187-1.187-3.775-4.563-5.75-7.502-3.161-4.702-4.054-5.484-7.449-6.524-3.795-1.162-5.163-2.407-8.732-7.949-1.293-2.009-2.731-2.998-5.536-3.809-2.95-.853-4.254-1.798-5.89-4.27-3.37-5.092-7.556-5.202-12.939-.339-1.685 1.522-3.855 2.768-4.822 2.768-1.688 0-1.737-.205-1.212-5.104.507-4.736.419-5.172-1.216-6.047-1.081-.578-3.194-.753-5.461-.45-7.425.99-9.047.901-9.97-.545-.666-1.043-.638-1.744.108-2.788 2.345-3.277 2.863-5.045 2.109-7.201-1.007-2.879-4.48-3.319-7.658-.969-2.778 2.054-4.097 1.335-5.922-3.226-1.862-4.654-7.804-6.381-10.198-2.963-1.429 2.04-1.631 5.063-.389 5.83.468.289.65 1.05.404 1.69-.574 1.495 1.206 4.909 3.847 7.376 2.604 2.433 2.61 3.246.023 3.246-3.32 0-5.125 1.397-5.125 3.965 0 3.376 2.514 4.796 8.489 4.796 7.1 0 9.035.908 9.035 4.238 0 3.292 2.042 5.32 5.355 5.32 3.533 0 13.191 3.092 14.358 4.597.548.706.996 2.098.996 3.094s.693 2.182 1.541 2.636c2.017 1.079 6.424 1.062 6.424-.025 0-1.413 4.093-6.319 5.272-6.319.605 0 1.809.709 2.675 1.575 1.65 1.65 1.422 3.865-.519 5.036-3.172 1.914.659 9.319 4.821 9.319 2.228 0 6.868-3.545 6.868-5.248 0-1.629 1.201-1.384 3.685.751 2.057 1.769 2.12 2.021 1.122 4.432-.948 2.289-.892 2.78.537 4.696 1.895 2.541 3.758 3.051 6.257 1.714 2.53-1.354 3.986-.583 5.869 3.108.886 1.737 3.452 5.249 5.702 7.805 5.595 6.355 6.012 7.427 4.501 11.593-.68 1.875-1.423 5.201-1.651 7.391-.802 7.688-7.096 35.089-8.982 39.106-1.048 2.233-1.906 4.652-1.906 5.376s-.538 1.317-1.195 1.317c-.771 0-1.197.777-1.2 2.19-.003 1.205-.717 3.266-1.587 4.58s-1.809 4.086-2.087 6.159-.997 4.178-1.599 4.677-1.094 1.463-1.094 2.142-.481 1.8-1.068 2.491-2.241 4.562-3.674 8.602-3.079 7.738-3.659 8.219-1.301 2.015-1.603 3.409-1.221 3.485-2.042 4.648-1.494 2.419-1.494 2.792c0 .905-9.216 16.761-11.5 19.786-.992 1.314-2.433 3.609-3.201 5.1s-3.795 5.971-6.727 9.956-8.559 12.085-12.504 17.999l-13.581 19.98c-12.331 17.759-16.094 23.402-16.757 25.127-.757 1.973-7.085 10.975-8.596 12.229-.666.553-1.21 1.381-1.21 1.842s-2.654 4.808-5.897 9.66-6.135 9.629-6.426 10.614-.863 1.792-1.272 1.792-.743.494-.743 1.097-.538 1.543-1.195 2.089-1.195 1.665-1.195 2.487-.758 2.254-1.685 3.181c-1.754 1.754-8.656 14.768-8.664 16.338-.002.494-.543 1.344-1.2 1.89s-1.195 1.823-1.195 2.838-.358 2.068-.797 2.339-.797 1.287-.797 2.259-.495 2.474-1.099 3.338-2.007 4.184-3.118 7.379-3.518 8.199-5.351 11.122-3.536 6.582-3.786 8.131-1.286 4.609-2.304 6.8-1.854 4.64-1.858 5.443c-.009 1.646-1.612 1.438-2.405-.313a153.44 153.44 0 0 0-1.845-3.794c-1.293-2.583-1.275-2.712.737-5.35 1.728-2.266 1.976-3.212 1.532-5.842-.292-1.726-1.013-3.799-1.603-4.606-.944-1.291-1.386-1.349-3.673-.486-1.43.54-2.675.898-2.765.796s-.493-3.161-.895-6.798c-.847-7.663-.22-9.244 3.978-10.031 7.242-1.359 8.439-14.022 1.325-14.022h-2.331l1.258-2.987c3.156-7.494 3.9-8.564 6.551-9.421 4.222-1.365 5.192-4.223 2.914-8.592-1.523-2.921-1.499-4.037.116-5.377.718-.596 3.385-5.483 5.926-10.86 3.599-7.615 5.16-10.083 7.06-11.161 3.084-1.75 3.676-3.598 2.395-7.48-.882-2.671-.787-4.161.714-11.236l2.222-9.989c.715-2.666-5.875-8.921-9.399-8.921-3.316 0-9.043 4.652-9.686 7.867-.282 1.41-1.125 2.567-2.096 2.875-1.689.536-2.761 3.209-2.296 5.723.148.801 1.883 2.231 3.854 3.176s3.566 2.021 3.543 2.39c-.108 1.75-1.437 7.186-2.044 8.364-.375.727-2.132 1.567-3.905 1.867-3.248.549-7.948 3.752-7.948 5.417 0 .494 1.603 2.525 3.563 4.515l3.563 3.618-4.758 6.656c-2.617 3.661-4.758 7.499-4.758 8.529 0 2.682-2.369 3.631-7.548 3.023-3.629-.426-4.711-.263-6.006.909-2.813 2.546-2.042 5.477 2.433 9.25 4.42 3.727 4.436 3.83 1.785 11.845-1.401 4.237-3.109 6.372-5.097 6.372-.793 0-1.813.693-2.266 1.541-1.503 2.808-.908 5.234 1.963 8.017 2.654 2.572 2.788 2.965 2.788 8.181v5.479l-2.19-.144c-4.261-.281-5.018.053-6.323 2.791-1.879 3.941-.679 5.963 6.267 10.551 5.257 3.473 6.231 4.564 10.783 12.084 2.753 4.546 5.005 8.867 5.005 9.6s.526 2.03 1.169 2.88 1.169 2.442 1.169 3.537-.526 2.687-1.169 3.537-1.169 2.33-1.169 3.288-.567 2.212-1.26 2.787c-1.662 1.38-5.909 9.841-5.909 11.773 0 .835-.502 1.935-1.115 2.444s-1.927 2.972-2.919 5.474-2.82 6.09-4.062 7.974-2.259 3.736-2.259 4.115a1.13 1.13 0 0 1-.606.956c-.333.146-2.98 3.312-5.881 7.036s-10.884 12.572-17.737 19.663c-9.972 10.317-13.437 13.38-17.345 15.333-2.686 1.342-5.763 2.44-6.839 2.44s-3.617.516-5.647 1.148c-8.092 2.516-23.849 6.771-27.985 7.557-13.848 2.632-56.501 3.361-67.305 1.15zm59.174-11.339c3.641-2.948 8.356-4.85 12.114-4.887 3.418-.033 8.494-1.904 11.229-4.138 1.763-1.44 8.564-12.177 10.345-16.331.808-1.885 1.957-3.426 2.553-3.426s1.926-.896 2.955-1.991 2.453-1.991 3.166-1.991c3.219 0 4.052-3.986 2.245-10.741-1.002-3.746-.57-5.926 3.236-16.34 1.034-2.83 1.31-6.601 1.31-17.922 0-16.597-.753-20.323-6.47-32.027-4.42-9.049-8.599-13.783-17.623-19.963-16.477-11.285-34.616-27.564-38.945-34.95-2.125-3.626-2.183-4.073-2.787-21.657-.351-10.195-1.012-18.908-1.531-20.161-.582-1.405-2.258-2.849-4.613-3.976-2.035-.973-4.954-2.577-6.487-3.564s-5.655-2.93-9.16-4.318c-5.478-2.169-7.076-2.468-11.389-2.131-3.016.236-5.582.904-6.435 1.676-.78.706-1.794 1.283-2.254 1.283s-1.246.494-1.747 1.099-1.89 1.301-3.084 1.549-2.572 1.277-3.06 2.286-1.636 3.27-2.55 5.022c-3.974 7.62-4.964 10.356-6.478 17.906-.882 4.4-2.174 9.104-2.872 10.452s-1.09 2.914-.873 3.48c.617 1.609-1.519 6.971-3.378 8.476-.924.748-1.68 1.696-1.68 2.105s-.717 1.393-1.593 2.186-1.595 1.834-1.598 2.314-1.27 1.733-2.815 2.786-4.31 3.741-6.142 5.974-6.301 7.215-9.929 11.071-6.596 7.701-6.596 8.544-.858 2.096-1.906 2.782c-1.172.768-2.245 2.597-2.787 4.75-.485 1.926-1.22 3.71-1.633 3.966s-.992 2.073-1.287 4.04-.853 3.771-1.241 4.011-.705 1.614-.705 3.054-.566 3.753-1.258 5.14c-1.064 2.134-1.218 5.43-.996 21.429l.262 18.908 2.601 4.793c3.42 6.302 8.704 12.965 13.21 16.657 7.099 5.817 23.208 11.14 39.945 13.199 10.525 1.295 16.224 4.396 36.772 20.012 12.198 9.27 18.267 12.014 25.588 11.568 2.867-.175 4.905-.815 6.372-2.004zm87.501-227.17c4.408-2.134 6.441-5.538 7.381-12.358 3.305-23.991 1.075-37.82-8.195-50.811-6.059-8.492-11.319-10.576-15.162-6.01-1.134 1.348-2.062 2.805-2.062 3.238 0 1.334 1.64 3.949 5.276 8.413 4.812 5.908 6.678 9.887 7.931 16.912 1.924 10.784 1.244 28.133-1.198 30.575-2.318 2.318-33.772-8.189-44-14.698-4.477-2.849-8.553-3.638-11.814-2.287-6.947 2.877-1.752 10.195 9.953 14.022 2.19.716 9.001 3.552 15.134 6.301 9.643 4.322 15.794 6.484 22.302 7.837 4.59.954 11.214.435 14.454-1.134zm102.637-53.658c3.475-1.452 13.76-11.781 15.227-15.293.611-1.463 1.485-5.441 1.941-8.842s1.558-9.408 2.447-13.351l2.78-12.346c.64-2.848 2.078-8.045 3.196-11.549 2.274-7.127 12.279-28.129 16.316-34.25 1.445-2.19 3.055-5.058 3.579-6.372l2.971-7.169c4.293-10.16 6.34-19.938 6.422-30.666.074-9.738.016-10.084-2.642-15.755-3.01-6.422-7.008-10.601-11.587-12.112-3.815-1.259-12.035-.421-16.076 1.64-1.657.845-3.488 1.536-4.07 1.536-1.638 0-7.082 6.288-9.655 11.151-1.275 2.409-2.715 6.281-3.201 8.605-1.469 7.023-7.16 19.269-12.287 26.442-4.538 6.348-9.945 13.21-21.872 27.754-8.922 10.88-20.54 28.201-24.659 36.763-9.676 20.116-9.188 18.662-8.824 26.279.274 5.724.701 7.522 2.532 10.646 3.157 5.388 6.558 9.016 10.771 11.493 3.539 2.081 4.201 2.175 18.034 2.558 13.364.371 14.517.522 16.635 2.19 2.69 2.119 7.836 2.396 12.021.647zm-115.575-36.771c1.272-.612 3.108-1.113 4.08-1.113 3.424 0 16.786-3.824 21.893-6.265 8.59-4.106 11.146-5.757 15.493-10 4.95-4.833 5.258-5.674 9.146-24.977 4.089-20.301 5.323-22.453 23.405-40.799 19.261-19.541 24.524-27.124 26.813-38.631.523-2.628 1.496-6.48 2.162-8.559 1.505-4.696 1.213-25.428-.38-27.021-.539-.539-.98-1.664-.98-2.501 0-2.424-4.568-10.339-9.23-15.99-3.405-4.128-4.98-5.387-7.629-6.101-3.901-1.05-9.677-.387-11.051 1.269-.528.636-1.543 1.179-2.256 1.208-2.304.094-9.486 2.711-9.693 3.532-.11.438-1.313 1.472-2.672 2.298-3.449 2.095-18.004 16.918-18.004 18.335 0 .64-.726 1.394-1.612 1.675-2.082.661-7.4 7.714-9.632 12.774-.957 2.17-2.339 4.37-3.071 4.887s-1.759 2.372-2.283 4.121c-1.005 3.355-5.867 10.338-12.271 17.627-2.112 2.403-4.118 5.45-4.458 6.77-.41 1.593-1.193 2.485-2.326 2.65-.939.137-1.917.911-2.174 1.719-.534 1.683-7.127 7.988-8.353 7.988-.448 0-.814.431-.814.958 0 1.222-4.803 6.211-5.98 6.211-.489 0-1.684 1.075-2.655 2.39s-2.244 2.39-2.828 2.39c-1.51 0-13.36 12.599-14.985 15.932-5.644 11.579-7.286 19.996-6.88 35.278l.3 11.316 2.938 4.381c6.774 10.101 13.417 15.684 20.931 17.592 3.245.824 12.217.023 15.057-1.345zm-15.853-11.345c-3.526-2.159-8.313-7.78-10.196-11.974-2.069-4.607-2.759-16.361-1.376-23.431 1.381-7.057 5.535-15.365 10.33-20.662 4.29-4.738 13.553-13.068 22.638-20.358 3.214-2.579 6.601-6.291 8.722-9.558 1.907-2.938 6.114-8.567 9.35-12.51s7.328-9.909 9.094-13.259c2.842-5.391 8.567-14.198 14.311-22.016 3.972-5.406 14.427-16.885 15.384-16.891.548-.004.996-.544.996-1.201s.673-1.195 1.496-1.195 1.916-.507 2.43-1.126c1.086-1.309 10.57-5.249 12.61-5.239.762.004 2.754 1.304 4.426 2.889 7.036 6.669 9.421 13.592 9.292 26.974-.108 11.19-.223 12.378-1.402 14.484-.536.957-.974 2.159-.974 2.67 0 1.457-6.087 14.079-8.124 16.846-1.008 1.369-8.141 8.974-15.853 16.901-22.19 22.81-25.738 27.862-26.673 37.978-.658 7.117-2.424 16.077-4.43 22.475-1.536 4.899-2.012 5.577-4.971 7.076-1.8.912-4.832 2.772-6.738 4.134l-3.466 2.476-28.303.809-2.416 2.589c-2.814 3.016-3.004 3.05-6.157 1.12zm31.462-32.359c5.208-1.946 11.143-6.111 14.982-10.514 5.395-6.187 5.543-6.389 6.141-8.349.314-1.029 1.076-2.447 1.692-3.151s1.524-4.294 2.017-7.977c.827-6.181.768-6.988-.77-10.464-2.082-4.708-4.171-5.748-10.061-5.012-2.444.305-4.443.805-4.443 1.11s-1.476 2.34-3.28 4.523-3.588 4.774-3.963 5.76-1.218 1.792-1.872 1.792-2.598.734-4.319 1.631c-2.424 1.263-3.242 2.233-3.63 4.301-.275 1.468-1.029 3.108-1.675 3.644s-1.174 1.647-1.174 2.47-.317 1.496-.704 1.496-.93.627-1.208 1.394-1.031 2.29-1.674 3.385c-1.581 2.69-1.517 9.12.115 11.612 2.868 4.377 6.673 5.024 13.825 2.351zm58.287 65.575c-4.214-2.093-5.782-4.365-6.605-9.569-1.109-7.013 2.478-18.538 8.871-28.504 2.151-3.353 4.64-7.744 5.53-9.756s2.156-3.866 2.814-4.118 1.195-.989 1.195-1.637 4.455-6.191 9.899-12.317 10.34-11.969 10.879-12.985 3.432-4.567 6.429-7.893 5.449-6.462 5.449-6.969.367-.922.816-.922 1.131-.827 1.515-1.837 1.562-2.892 2.618-4.182 3.784-7.183 6.061-13.098c5.261-13.658 9.522-22.077 12.076-23.856 1.102-.768 3.742-2.049 5.866-2.848 3.653-1.373 3.999-1.378 6.372-.099 7.774 4.19 9.495 16.328 4.891 34.479-2.006 7.909-7.718 20.582-9.602 21.305-.629.241-1.143 1.028-1.143 1.749s-1.593 3.868-3.54 6.994-4.483 7.835-5.637 10.463-2.791 6.09-3.639 7.693-2.258 5.187-3.133 7.965-2.095 6.127-2.711 7.441-2.041 5.615-3.168 9.558c-1.763 6.17-2.596 10.63-4.953 26.528-.215 1.448-1.048 3.291-1.852 4.095-1.248 1.248-2.028 1.356-5.332.736-4.595-.862-9.974-.261-13.826 1.543-2.012.943-5.559 1.368-12.744 1.527-8.849.196-10.339.031-13.399-1.489zm26.588-16.986c.85-.643 2.408-1.181 3.461-1.195 4.402-.058 10.94-10.258 13.739-21.433 1.798-7.18 1.816-8.258.184-11.488-5.331-10.552-17.918-12.582-22.561-3.64-4.873 9.385-5.862 11.732-6.723 15.952-.512 2.508-1.19 4.819-1.508 5.137s-.578 2.368-.578 4.557c0 8.948 8.47 16.281 13.986 12.109zM293.872 553.296c-.557-.671-3.341-2.39-6.186-3.82-5.663-2.846-10.306-7.363-11.118-10.815-.286-1.216-1.514-3.286-2.729-4.6-1.892-2.046-2.286-3.304-2.742-8.762-.497-5.945-.339-6.949 2.355-14.968 1.588-4.728 4.48-11.755 6.428-15.615s3.54-7.409 3.54-7.885c0-3.664 6.015-.074 10.043 5.995 7.112 10.715 9.996 23.646 8.444 37.858-.898 8.224-3.928 19.6-5.961 22.38-.945 1.293-1.172 1.318-2.074.231zm-48.645-43.26c-2.165-2.752-2.719-5.119-2.224-9.506.808-7.172 10.135-21.854 15.065-23.715 1.554-.586 2.226-1.316 2.002-2.172-.577-2.207.975-3.905 3.57-3.905 1.777 0 3.288.844 5.536 3.092 3.442 3.442 3.859 5.525 1.528 7.635-.86.779-2.155 2.962-2.876 4.851s-1.81 3.627-2.418 3.86-1.106 1.093-1.106 1.91c0 2.916-10.146 15.971-14.514 18.676-2.825 1.749-2.584 1.788-4.562-.727zm-10.794-36.562c-3.552-1.838-8.181-6.635-9.97-10.331-1.124-2.322-1.579-4.907-1.579-8.97 0-5.534.122-5.888 4.022-11.694 3.811-5.674 9-10.388 10.448-9.493.365.226.663 2.111.663 4.19 0 4.234 1.787 7.552 8.424 15.642 6.817 8.308 6.423 7.613 4.925 8.708-.729.533-2.944 3.167-4.921 5.853-3.132 4.254-6.927 7.353-8.986 7.337-.35-.003-1.712-.561-3.026-1.242zm-23.285-48.239c-5.281-.951-10.919-4.071-11.231-6.216-.147-1.007.122-2.22.597-2.695s.864-1.426.864-2.114c0-2.757 5.101-13.289 7.535-15.557 1.41-1.314 2.735-2.907 2.943-3.54.596-1.814 7.978-1.388 11.449.659 1.571.927 3.294 1.685 3.829 1.685s1.786.57 2.78 1.267c1.368.958 1.597 1.522.939 2.313-.578.696-.688 3.439-.329 8.193l.539 7.147-3.317 3.598c-2.235 2.424-4.153 3.724-5.882 3.985a40.39 40.39 0 0 0-4.955 1.133c-1.315.41-3.907.473-5.762.139zm-33.57 43.847c-1.919-.377-4.353-1.252-5.41-1.944l-1.921-1.259 12.649-13.315c6.957-7.323 12.796-13.728 12.977-14.233.439-1.23 6.338-.134 9.131 1.696 2.053 1.345 2.092 1.533 1.821 8.675-.339 8.926-2.206 13.529-5.647 13.925-1.205.139-2.535.896-2.956 1.683s-1.765 1.816-2.987 2.286c-2.082.801-13.4 3.45-13.928 3.259-.133-.048-1.811-.396-3.73-.773zm-24.772 35.404c.087-3.805 2.004-12.971 3.684-17.618l2.089-5.775 3.278.005c4.673.006 8.635 1.238 16.865 5.24 7.592 3.692 12.023 7.385 11.257 9.381-.998 2.602-13.696 7.808-20.463 8.391-8.652.745-16.724.926-16.711.376zm13.766 48.376c-4.452-3.225-8.518-8.427-11.398-14.583-2.798-5.979-3.593-9.731-2.874-13.564l.5-2.665 14.532-3.095c17.879-3.808 20.946-4.115 24.847-2.485 1.662.694 4.024 1.262 5.249 1.262 2.97 0 4.747.743 4.747 1.984 0 .559-2.885 4.374-6.412 8.477s-7.38 8.958-8.563 10.789c-1.604 2.482-2.751 3.394-4.515 3.584-2.002.217-2.472.714-3.067 3.245-.436 1.854-1.562 3.602-2.965 4.601-1.244.886-2.487 2.319-2.762 3.184-.718 2.261-3.581 1.974-7.32-.734zm35.757 9.848c-10.822-1.242-11.305-1.404-11.305-3.784 0-1.292 1.129-2.712 3.662-4.605 2.014-1.505 4.141-3.659 4.727-4.786s1.625-2.515 2.312-3.084 1.247-1.66 1.247-2.423c0-2.211 2.95-5.366 6.467-6.918 1.882-.83 3.742-2.396 4.432-3.73 1.187-2.295 1.198-2.298 6.893-1.772 6.395.59 15.068 4.237 16.517 6.945 1.353 2.527-3.045 10.505-9.03 16.382-4.658 4.574-12.879 9.177-15.897 8.902-.561-.051-5.072-.558-10.025-1.127zm37.59 21.63c-5.353-3.061-12.343-8.636-12.092-9.643.515-2.062 13.218-12.98 16.234-13.952 1.714-.553 3.475-1.27 3.913-1.595s2.645-1.054 4.905-1.621c3.951-.991 4.286-.942 8.711 1.291 2.531 1.277 5.827 3.475 7.324 4.884 2.481 2.336 2.683 2.862 2.285 5.974-1.396 10.908-2.057 13.745-3.443 14.774-1.448 1.075-5.529 1.001-13.505-.244-2.289-.357-4.024-.128-5.735.756-3.282 1.697-4.72 1.593-8.596-.624z" fill="#fff"/></svg>