<svg xmlns="http://www.w3.org/2000/svg" width="737.333" height="913.333" viewBox="0 0 553 685" preserveAspectRatio="xMidYMid meet"  xmlns:v="https://vecta.io/nano"><path d="M244 50.6c-4.2.5-10.7 1.8-22 4.5l-10 2.2c-.8.1-1.9.8-2.3 1.4-.4.7-1.8 1.3-3.1 1.3s-2.9.6-3.5 1.4c-.7.8-2 1.4-3 1.3-2-.1-8.9 3-10.9 5-.7.7-2 1.3-2.8 1.3-1.7 0-13.7 7.7-14.2 9.1-.2.5-1.2.9-2.2.9s-2 .7-2.4 1.5c-.3.8-1 1.5-1.6 1.5s-2.6 1.1-4.3 2.3c-1.8 1.3-4.8 3-6.7 3.7s-5.3 2.6-7.4 4.2c-2.2 1.5-4.6 2.8-5.2 2.8-.7 0-1.7.6-2.1 1.3-1.4 2.3-8.7 7.4-11.5 8.1-1.8.4-2.8 1.3-2.8 2.4 0 2.1-5.4 9.8-8.7 12.5-2.1 1.7-10.7 13.7-9.8 13.7.2 0-.4 1.5-1.4 3.2-4.9 8.4-9.1 17-9.1 18.8 0 1-.4 2.2-1 2.5-.5.3-1 1.7-1 3.1s-.4 2.2-1 1.9-1 0-1 .8-.6 2-1.4 2.6c-1 .8-1.3 2.6-1.1 5.4 1 10.9-.1 19.4-3.5 25.6-.6 1.2-.8 2.1-.4 2.1.3 0 .1.6-.5 1.4-1.4 1.7-1.6 7.8-.7 31 .3 9.8.2 18.4-.2 19-1 1.2.7 22.2 2.4 31.6.9 4.7 1.1 5.9 2.8 18.2 2.8 20.6 5.6 31 16.1 59.8 1.5 4.1 3.3 8.2 3.9 9 1.2 1.4 6.9 13.1 8.6 17.5.4 1.1 2 4.7 3.6 8 1.5 3.3 2.9 6.5 3 7.2.1.6 2.7 6.2 5.7 12.5 8.6 17.7 10.5 22 11.2 26.1.4 2 1.1 4 1.6 4.3s.9 1.2.9 2c0 .9 1.1 4 2.5 7s2.5 6.4 2.5 7.5 1 3.9 2.1 6.2c1.2 2.3 2.1 4.3 2 4.5-.1.1.9 2.6 2.2 5.5 5.2 11 6.1 13.3 6.4 15.4.4 2.7 4.6 13.7 6.7 17.8.9 1.6 1.6 3.7 1.6 4.5 0 .9.5 2.1 1 2.6 1 1 4.9 11.7 7.1 19.4 2.4 8.1 3.2 10.7 4.4 13.5.7 1.6 1.8 4.6 2.5 6.5 2.8 7.6 10.2 21.3 16 29.4 12.7 17.8 39.4 40.9 52.1 44.9 20 6.4 24.8 6.5 36.8 1.1l8.3-3.7c4.3-1.9 21.5-17.6 26.3-23.9.6-.7 4.1-5 7.8-9.5 3.8-4.6 6.6-8.3 6.2-8.3-.3 0 .5-2.1 1.8-4.8 4-7.6 4.5-8.8 7.8-21.2.5-1.9 1.2-5.8 1.4-8.5.3-2.8 1.3-8.6 2.1-13 1.7-8.2 1.9-21.1.6-32-1.6-12.8-.1-29.9 3.8-42.5l6.9-23.5c1-3.9 2.3-9 2.6-11.5.7-3.9 3.5-13.7 5.2-18 .3-.8.8-2.4 1-3.5.1-1.1.7-2.9 1.2-4 .6-1.1 1.9-4 3.1-6.5 1.1-2.5 2.6-5.4 3.3-6.5 3.6-5.8 9-14.1 9.6-14.5.3-.3 1.2-1.4 1.9-2.5 3.8-6.1 5.4-8.5 8.9-13.4 2.1-2.9 5-6.6 6.5-8.2 1.4-1.6 2.4-2.9 2-2.9-.3 0 .8-1.5 2.4-3.3 3.6-3.8 10.4-14.2 10.4-15.8 0-.6 1.5-3.1 3.2-5.7 1.8-2.6 4.7-7.6 6.5-11.2 4.1-8.1 10.2-18.8 12.6-22 .9-1.4 1.7-3.2 1.7-4.1s.6-2.9 1.4-4.5c1.6-3.2 3.4-12 6.7-33 2.9-19.2 2.1-43.6-2.1-61.9l-1.5-7c-1-5.7-2.3-10.2-4-14-.7-1.7-2.3-6.2-3.5-10-2.4-7.4-6.8-17.7-8.1-18.5-.4-.3-2.4-3.7-4.5-7.5-2.1-3.9-4.8-8.1-6-9.5l-5.4-6.3c-1.8-2-3.6-3.7-4-3.7-.5 0-2.5-1.6-4.6-3.5-2.1-2-6.3-5.3-9.3-7.3-7.1-4.8-20.7-14.6-24.5-17.5-1.5-1.2-3.8-2.7-5-3.2-1.2-.6-4.2-2.5-6.8-4.3-2.6-1.7-5-3.2-5.3-3.2-.4 0-2.1-1-3.8-2.3-6.1-4.3-10.8-6-24.9-9.2-3.1-.7-6-1.5-6.5-1.8-.4-.2-3.1-.7-6-1.1-2.8-.3-6.3-1-7.8-1.6-1.4-.5-4.4-1-6.7-1-2.2 0-6.5-.7-9.5-1.6-11.2-3.3-36.8-5.2-50.3-3.8zm37 9.4c4.1.6 9.3 1.8 11.5 2.7 2.2.8 6.3 1.7 9 1.9 2.8.3 7 1 9.5 1.7 2.5.6 5.2 1 6.2.9.9-.2 1.9.2 2.3.8.3.5 2.3 1 4.4 1 4.8 0 8.6 1.2 19.3 5.9 2.6 1.2 5.4 2.1 6.2 2.1.7 0 1.9.7 2.7 1.6.7.8 2.6 2.2 4.3 3.1s3.3 1.9 3.6 2.3 3 2.2 6 4 7.1 4.5 9 6.1c10.2 8.5 17.1 14 21 16.5 6.3 4.2 6.4 4.3 13.5 10.9 8.1 7.6 13.8 16.9 21.8 35.5l3.4 7.5c.7 1.7 2.2 6.4 3.2 10.5l4.4 16c1.3 4.7 2.5 9.4 2.5 10.5s.1 6.5.2 11.9c.1 5.5.6 10.9 1 12.1.5 1.2 0 7.1-1 14l-3 20-1.7 11.5c-.3 1.9-.9 4.3-1.5 5.3-.5.9-.7 2.1-.4 2.6s-.1 1.4-.9 2.1-1.5 1.8-1.5 2.4-1.3 3.6-3 6.6l-5.3 10.2c-1.3 2.6-2.7 4.5-3.1 4.1-.3-.3-.6.3-.6 1.4s-.9 3-2 4.3c-1 1.2-2.5 3.5-3.2 5.1s-1.6 2.9-2 2.9c-.5 0-.8.8-.8 1.9 0 1-.8 2.9-1.8 4.2s-2.2 3.1-2.5 3.9c-1.2 2.5-3.9 6.4-10.2 14.2-3.3 4.1-6.4 8.2-7 9-1.4 2.2-13.1 1.3-14-1.1-.4-1 .1-2.1 1.4-3 2.2-1.4 2.7-4.6 1.2-7-.5-.7-2.5-1.3-4.7-1.3-3.2 0-4.4.6-6.9 3.6-1.6 2-3.8 3.6-4.7 3.6-2.3 0-4.8-5-4.8-9.5 0-2.9.4-3.5 2.1-3.5 6.2 0 8.1-5.8 2.8-8.6-2.9-1.4-3-1.8-2.4-5.2s2.4-8.3 4.5-12.3c.5-1 .4-5.3-.2-10-.6-4.6-1.1-11.1-1.2-14.4-.1-7.4-.8-8.5-5.2-8.5-1.9 0-4.7-.6-6.2-1.4-1.5-.7-4.3-1.6-6.2-2-2.9-.5-3.9-.2-5.5 1.6-1.1 1.3-1.8 3-1.7 3.9.2.9-.4 1.9-1.1 2.2-.9.3-1.5 2-1.5 4.4 0 2.2-.2 4.3-.3 4.9-.9 4 4.6 6 6.9 2.4 1.4-2.3 6.4-2.7 8.1-.6.6.7 1.2 3.7 1.4 6.6.2 5 0 5.3-2.5 6.2-4 1.4-8.8 5.9-8.8 8.3 0 1.2-.5 2.6-1.1 3.2-1.7 1.7 1.6 7.3 4.4 7.3 1.8.1 1.6.4-1.4 2-3.8 2-4.9 4-5.5 10.3-.5 4.8 1.4 6.9 5.8 6.5 3.1-.3 3.3-.1 3.8 3.9.4 2.3 1.4 5.1 2.4 6.2 1.4 1.6 1.7 3 1.3 6.2-1.2 9 2.6 12.1 8 6.5 3.6-3.7 5.2-4.3 6.8-2.7.6.6 2.7 1.2 4.8 1.4 2.1.3 4.3.9 5 1.6.6.6 1.9 1.1 2.9 1.1 2.4 0 2.4 4 .1 6.2-2.7 2.5-4.3 4.6-4.3 5.6 0 .5-.7 1.5-1.5 2.2-.9.7-2.2 2.9-3.1 4.9s-2 4.3-2.5 5.1c-3.3 5.5-6 11.4-7 15.6-.7 2.7-1.5 5.4-2 5.9-.4.6-1 2.2-1.3 3.5l-3 14.5c-.2 1.1-.6 2.7-.9 3.5-1.3 3.9-3.7 14.2-3.7 16.2 0 1.3-.7 3.1-1.5 4.1-.7 1.1-1.1 2.5-.8 3.3s.1 2-.5 2.7c-.9 1.2-3.3 7.7-3.8 10.7-.2.8-.8 4-1.4 7-1.2 6.5-1.3 13.8-.6 31.4.4 9.7 0 17.1-1.5 30l-2.3 19.1c-.1 1.1-.8 3.3-1.5 5-1.6 3.5-2.1 4.9-5.2 13-1.3 3.3-3 6.6-3.8 7.2-.8.7-1.1 1.3-.7 1.3.8 0-5.4 8.1-8.9 11.5-1.1 1.1-2.6 3.2-3.4 4.7-2 3.8-15.4 15.8-21.3 18.9-2.7 1.5-5.7 3.4-6.7 4.3s-2.2 1.6-2.7 1.4c-.5-.1-2 .4-3.4 1.1-4.2 2.4-18.3 1.5-22.7-1.5-1.2-.7-3.1-1.4-4.2-1.4-2.2 0-8.1-3.1-8.1-4.3 0-.4-.6-.7-1.2-.7-2.1 0-14.6-10.5-23-19.3-9.1-9.4-15.9-18-19.6-24.6l-4.5-8.1c-1-1.9-2.3-4-2.7-4.5-1.1-1.4-7.5-18.5-10-27-1.2-3.9-2.7-8.4-3.4-10-.8-1.7-2.4-5.7-3.6-9-2.8-7.7-4.8-13-7-18-.9-2.2-2.3-6.1-3-8.8-.7-2.6-1.7-5-2.1-5.3-.5-.3-.9-1.2-.9-2.1 0-1.5-1.9-6.3-4.5-11.3-.7-1.4-2-5-3-8s-2.1-6-2.5-6.5c-.4-.6-2.4-5.7-4.5-11.5-3.4-9.7-6.4-17.7-8.5-22.5-.4-1.1-1.6-3.8-2.5-6s-3.9-8.5-6.5-14c-5.9-11.9-11.2-23.7-13-28.5-.7-1.9-3.2-7.6-5.6-12.5-4.9-10.3-8.3-19.2-9.4-25-.4-2.2-1.7-7.6-2.9-12s-2.4-10.3-2.7-13c-1.2-11.3-2.4-19.5-3.9-28-1.6-8.5-1.9-16.6-1.2-43.5.1-4.7 0-12.3-.2-17-.5-10.1 2-25.7 4.9-31.2.5-.9 1-3.6 1-6 .3-7.2 1.1-11.8 2.3-11.8.6 0 2.6-1 4.4-2.3l3.3-2.2-3.8-3.2-3.7-3.1 2.2-4.4L112 145c1.8-3.6 4.3-7.9 5.6-9.7 1.3-1.7 2.4-3.6 2.4-4.2s.9-1.6 2-2.3 2-1.6 2-2c0-.5.8-1.6 1.9-2.7 1-1 2.4-2.7 2.9-3.7.9-1.6 1.4-1.7 3.1-.7 1.2.7 3.3 1.3 4.8 1.3 1.6 0 3.7.7 4.7 1.5 1.1.8 2.8 1.5 3.8 1.5 1.3 0 1.8.8 1.8 2.7 0 1.6 1.2 4.6 2.5 6.8 1.4 2.2 2.5 5 2.5 6.1 0 3.1 2.9 3.9 5.3 1.6 2.4-2.4 2.5-8.5.3-10.7-3-3.1-1.5-5 4.6-5.8l5.8-.9c.7-.2 1.5.4 1.9 1.2 3 5.8 4.2 7.7 6 8.8 1.8 1.2 2.2 1 4.6-2.8 1.4-2.3 2.5-5.1 2.3-6.3-.3-1.9.1-2.2 3.2-1.9 7.9.7 12.9 3.5 13 7.3 0 2.2 4.7 7.2 6 6.4.6-.3 1-1.4 1-2.5 0-1 .6-2 1.4-2.3.9-.4 1.2-1.4.9-2.6-.5-1.9-.1-2.1 3.6-2.1 2.2 0 4.1.4 4.1 1 0 1 4.8 3.8 10.3 6.1 1.5.6 4.3 3.4 6.2 6.3 1.9 2.8 5.3 7.2 7.5 9.6 5.8 6.2 8 10.2 7 12-.6 1-.2 2.4 1.1 4l1.9 2.5 4.8-5.8 3.9 1.8c2.1 1.1 5.4 2 7.3 2.2 1.9.1 6.6.7 10.4 1.2 4.2.5 8.2.5 10.3-.1 2.3-.6 4.5-.6 6.5.1 1.7.6 4.6 1.1 6.5 1.1s4.1.7 4.9 1.5c2.8 2.7 5.2 1.8 6.3-2.2.9-3.2.8-4-.7-5.4-1.8-1.7-7.2-3.4-16.4-5.2l-5.7-1.1-1.7-5.2c-1.7-5.5-4.8-9.8-6.7-9.1-1.6.5-2.7 5.7-2.1 9.8.5 3.2.3 3.7-1.7 4.2-2.9.8-5.9-1.7-5.7-4.7.3-3.6-2.5-8.5-5.5-9.5-2.3-.8-2.7-1.4-2.2-3.4.8-2.9-1.4-4.9-4.6-4.3-1.3.3-3 .5-3.6.5-.7.1-1.3 1.1-1.3 2.3-.1 1.3-.6 3.6-1.3 5.1l-1.2 2.8-5.5-6.3c-10.2-11.5-12.1-14.8-11.4-19.3.7-5.3-.8-9-4.5-11-2.9-1.5-3.1-1.4-4.6.9-.9 1.3-1.5 3.7-1.3 5.3.2 2.3 0 2.8-1.7 2.5l-7.6-.8c-4.7-.6-5.7-1-7.2-3.5-1.4-2.5-2-2.9-4.4-2.3-1.5.4-3.4 1.5-4.1 2.5-1 1.5-1.8 1.6-3.8.9-1.4-.6-4.6-1-7.2-1s-5.2-.4-5.7-.8c-.6-.4-1-3-1-5.9 0-5.8-1.9-8.2-6.7-8.3-2.1 0-2.8.6-3.3 3-.3 1.6-.3 4.9 0 7.3l.7 4.4-3.9.6c-7.6 1.3-8.3 1.1-8.3-2.8 0-4.2-2.5-5.9-7.6-4.9-2.5.4-3.4 1.1-3.2 2.3.4 2.5-1 4-3.2 3.4-2.8-.7-3.6-4.1-1.3-5.9 2.2-1.6 13.2-8.3 18.8-11.3 7.5-4.1 11-6.3 11.8-7.7.4-.8 1.3-1.4 1.9-1.4s1.9-.6 2.7-1.4c1.5-1.3 8.5-5.3 20-11.3 2.4-1.2 6-2.5 8-2.9s4.3-1.2 5.1-1.9c.8-.6 3.8-1.8 6.5-2.5 2.8-.7 5.5-1.6 6-1.9 1.3-.8 11.6-2.9 17.4-3.6 2.5-.3 4.7-.8 5-1.1.9-.9 25.9.3 34.1 1.6z"/><path d="M364.4 155.2c-.3.4-1.5.8-2.7.8s-4 1.6-6.1 3.5c-2.2 1.9-4.3 3.5-4.8 3.5-.4 0-.8.9-.8 1.9 0 3-2.8 5.1-6.9 5.1-3.8 0-9.1 1.9-9.1 3.2 0 .5-.8.8-1.7.8-1 0-3.6 1.4-5.7 3-2.2 1.7-4.4 3-5 3s-2.5 1.3-4.2 2.8l-6.5 5.7c-1.9 1.7-4.1 4.6-4.9 6.5-.7 1.9-2.3 4.8-3.4 6.5-1.8 2.6-2.1 4.3-1.9 14 .1 10.2.4 11.6 3.8 19.6 2.6 6.4 5.1 10.2 9.3 14.7 5.2 5.6 13.6 11.2 16.8 11.2.7 0 2.5.5 4.1 1.1 1.5.6 3 1.1 3.3 1.1s1.4.5 2.4 1c1.6.9 9.6 1.7 19.6 2.1 1.4 0 5.9-.7 10-1.7l8.6-2c1.7-.3 8.4-6.9 8.4-8.2 0-.7 1.6-2.6 3.5-4.3s4.4-4.7 5.5-6.8 3.1-5.1 4.5-6.7 2.5-3.2 2.5-3.6 1.6-2.4 3.5-4.4c3.9-4.2 9.5-13.8 9.5-16.5 0-.9.5-2.2 1.1-2.8 1.5-1.5-1.6-17.2-5-25.4-1.5-3.6-4.1-8.3-5.7-10.3-3.9-5-14.6-13.4-21.4-16.9-4.7-2.3-6.6-2.7-12.8-2.5-4 .1-7.5.6-7.8 1zm14.6 11.4c4.4 1.5 11.5 7 18.6 14.3 4.3 4.3 8.3 15.2 8.3 22.6.1 3.6-.6 6.1-2.4 9-1.3 2.2-2.9 5-3.4 6.1-.5 1.2-2.1 3.3-3.5 4.7-1.4 1.5-2.6 3.3-2.6 4.2a1.54 1.54 0 0 1-1.5 1.5c-.8 0-1.5.6-1.5 1.4 0 1.2-5.2 9.4-8.4 13.4-3.5 4.3-7.2 6.9-10.9 7.9l-9.2 2.3c-6.8 1.8-15.5 1.5-21.8-.6-2.8-1-5.4-1.9-5.7-1.9-2.9-.8-9.2-4.3-11.8-6.6-1.8-1.6-3.7-2.9-4.2-2.9-1.6 0-5.6-7.1-7.3-13-2.2-7.6-2.7-12.2-2-18.1.5-4.1 1.1-5.2 2.9-5.9 1.6-.6 2.4-1.9 2.6-4.2.2-1.8.7-3.3 1.3-3.3.5 0 2.5-1.7 4.3-3.8 1.9-2 4.3-3.7 5.3-3.7 1.1 0 1.9-.4 1.9-1 0-.5 2.1-1.9 4.8-3.1 2.6-1.2 5.4-2.7 6.2-3.5.9-.7 5.2-1.6 9.8-1.9 4.5-.4 9.5-1.3 11-2.1 1.5-.7 3.6-1.4 4.7-1.4s3.3-1.4 4.8-2.9c2.4-2.5 2.7-3.3 1.7-5-.6-1.2-1.5-2.1-2-2.1-.6 0-1-.5-1-1 0-1.5 5.9-1.2 11 .6zm-20.9 33.2c-4 1.9-8.4 5.8-10 8.9-1.3 2.6-1.4 7.7-.2 10.1.5.9 1.3 2.8 1.9 4.2.5 1.4 2.8 3.8 5.1 5.4 3.9 2.7 4.3 2.8 8.5 1.6 2.4-.7 4.9-.9 5.5-.5 1.7 1 5.1-1.8 4.1-3.5-.8-1.3-.7-2 .6-5.8 1.1-3 .3-12.4-1.2-14.7-.8-1.2-3.6-3.4-6.2-4.8-4.6-2.5-4.9-2.5-8.1-.9zm-175.3-35.4c-2.6.7-4.9 1.1-5.2.9-.2-.2-1.6.2-3.2.8s-7 1.3-12.1 1.5c-6.6.2-10.5.9-13.7 2.4-2.5 1.1-5.1 2-5.8 2-1.8 0-5.8 4.4-5.8 6.4 0 .9-.5 1.6-1.1 1.6-2 0-.2 17.8 2.6 26.4 1.4 4.2 2.5 8.6 2.5 9.7 0 3.3 2.7 7.5 7 10.9 2.2 1.7 5.8 5.7 8 8.9 4.4 6.2 12.5 13.7 18.4 17.1a77.22 77.22 0 0 1 5.9 3.5c1.2.8 6.2 1.9 11 2.4 8 .9 9.3.8 16.9-1.5 4.6-1.4 9.5-3 11.1-3.6 3.6-1.4 16.7-14.1 16.7-16.2 0-.9.8-2.9 1.8-4.3 1.4-2.3 1.7-4.9 1.5-17.1-.1-13.2-.3-14.8-2.9-21-1.5-3.7-3.6-7.6-4.6-8.8-1-1.1-1.8-2.4-1.8-2.8s-.5-1.2-1-1.9c-.6-.7-2.4-3-4-5.2l-4.3-5.6c-4.9-6.4-25.4-9.9-37.9-6.5zm25.1 11.9c3.4.9 5 2.1 7 5.2 1.4 2.2 3.6 5.3 4.9 6.9 1.2 1.5 3.7 5.8 5.4 9.5 2.7 5.7 3.1 8 3.6 17.4.5 10.4.4 11.1-2.3 16.8-1.6 3.2-3.3 5.9-3.8 5.9s-2.7 1.6-4.8 3.5c-2.2 1.9-4.6 3.5-5.4 3.5-.9 0-3.2.8-5.3 1.8-2.8 1.4-5.7 1.8-11.9 1.7-7.8-.2-8.5-.4-14-4.1-3.2-2.1-6.2-4.1-6.8-4.3-1.4-.6-9.2-9.4-12.1-13.6-1.4-2.1-2.3-4.3-2.1-5 .3-.6-.7-2.5-2.2-4.1-1.6-1.6-3.4-4.1-4.1-5.4-.7-1.4-2.4-3.3-3.7-4.3s-2.1-2.3-1.7-2.8c.3-.6.1-1.5-.4-2.2-2.2-2.8-3.6-16.5-1.9-18.7 2.1-2.6 11.8-5.2 20.7-5.7 4.7-.2 9.7-1 11.3-1.8 1.5-.8 3.3-1.2 4-1 .7.3 2.6.1 4.2-.5 3.6-1.1 15.2-.4 21.4 1.3zm-26.4 20c-5.6 3.4-7.5 5.1-9.8 8.6-2.5 3.7-2.5 3.8-.8 8.7 1.7 5.1 5.8 10.7 7.2 9.8.4-.2 1 0 1.3.5.7 1.1 8.7 1.3 10.1.2 1.3-1.1 6.6-2.5 8.5-2.3.8.1 2.6-1.4 3.9-3.4 1.8-2.9 2.2-4.5 1.7-7.5-.8-5.2-4.4-12.3-6.9-13.8-2.8-1.8-12.7-2.3-15.2-.8zm100.9 55.8c-1.3 1.5-1.9 3.8-2 8.2l-.4 6.7c-.1.3-.1.9 0 1.5.4 2 .1 33.1-.4 36-.3 1.6-.8 9.5-1.1 17.5-.5 10.8-1 14.9-2.1 16.1-2.1 2.4-8.8 3.1-26.2 2.9-17.1-.2-18.4.2-17.5 5.4.3 2 .1 3.6-.6 4-.6.4-1.1 1.4-1.1 2.1 0 1.2 1.4 1.3 7.3.9l18.7-.9c23.3-.8 30-3 31.6-10.2.5-2.1.9-8.3 1-13.8.2-20.2 2.3-66.1 3.2-70.9l.9-4.8-3.3-1.4c-4.5-1.9-5.8-1.8-8 .7zm-28.6 134.4c-.4.4-2.4 1-4.5 1.2-2 .2-5.1 1.1-6.9 1.9-2.7 1.3-4.2 1.4-8.8.4-10.3-2.1-23.7 1.8-29.3 8.6-7.4 9-8.3 10.3-8.3 11.7 0 .9-.9 2.2-1.9 2.9-1.5 1-2.2 3.1-2.6 7.9-2.2 21.1.4 29.8 15.7 52.5 8.8 13 12.7 22.2 10.9 26-1.8 4-1.3 8.1 1.3 10.6 1.3 1.3 2.8 4.4 3.5 7 1.4 5.8 1.5 28.4.1 29.3-1.7 1-1.1 7.1.8 9.6 1.1 1.3 2.2 3.7 2.6 5.4.4 1.6 1.8 5.4 3.2 8.3 1.3 2.9 2.4 5.5 2.4 5.8 0 .5 3.3 8.2 5.3 12.4 2 4 11 12.3 16.2 15 2.8 1.3 5.2 2.4 5.5 2.3s2.6-.4 5.1-.7c5.5-.6 7.8-1.5 10.2-3.7 1-.9 3.9-2.7 6.5-4 5.5-2.8 17.5-14.6 19.6-19.2 4.3-9.5 4.3-12 1.1-42.2-3.4-32.2-.7-62.7 6.5-73.5.9-1.4 2-3.3 2.3-4.3.4-.9 1.1-1.7 1.6-1.7s1.3-1 1.7-2.2c.3-1.2 1-2.6 1.5-3.2 2.5-3 5.6-8.6 7.2-12.7 1.4-3.6 1.6-6.7 1.3-15-.2-5.7-1-11.8-1.7-13.4-.7-1.7-1.1-3.3-1.1-3.8.4-1.7-8.7-9.5-11.9-10.2-1.8-.4-4.9-1.6-6.9-2.6-10.6-5.5-12.6-5.9-30.4-6.5-9.4-.4-17.4-.3-17.8.1zm41.7 13.7c4.4 2.1 8.9 3.8 9.9 4 3.5.5 6.6 8.3 7 17.6.2 4.5 0 8.4-.5 8.7-.4.3-3-.1-5.6-1-2.6-.8-5.7-1.3-6.8-1.1s-2.8-.1-3.7-.5c-.9-.5-3-1-4.5-1.2-1.5-.1-5-1.3-7.8-2.6-2.7-1.3-5.3-2.4-5.7-2.3-1 .2-5.7-6.4-7.4-10.3-1.7-4.1-1.8-9.1-.3-10.1.6-.3.8-1.7.5-3l-.7-2.5 8.8.4c7.7.2 9.9.8 16.8 3.9zm-56.6 4.3c.7.7 1.7 3 2.2 5.2.4 2.1 1.5 6.3 2.4 9.3 1.4 4.9 1.4 6 0 10.2-.8 2.6-1.5 5.2-1.5 5.8 0 1.3-4 4.9-5.5 5-.6 0-2.2.8-3.5 1.7-1.4 1-4.1 2.4-6 3.1-5.1 1.9-20.2 5.1-21.6 4.5-2.1-.8-3.9-9.5-3.8-17.8.2-8.8 1.1-14.5 2.5-14.5.5 0 .9-.7.9-1.5s2.3-3.8 5.1-6.6c5.1-5.2 5.2-5.2 9.1-4.2 3.3.9 4.2.8 6.1-.8 1.8-1.5 3.2-1.7 7.2-1.2 2.8.3 5.6 1.1 6.4 1.8zm39.6 32.6c.4.5 1.9.7 3.4.4 1.8-.4 3.2-.1 4 .8.6.8 2.8 1.5 4.9 1.5 2 .1 6.2.9 9.2 1.9 6.4 2.1 7.6 4.6 3.8 7.8-1.4 1.1-3.6 4-4.9 6.5s-2.7 4.7-3 5c-.7.6-2.6 8.1-3.4 13.5-.3 2.2-1.1 5.7-1.6 7.8-.9 3.5-1.2 3.7-4.2 3.3-5.5-.7-9.7-1.8-10.3-2.7-.2-.4-1.1-.6-1.9-.2-.8.3-1.5 0-1.5-.6a1.11 1.11 0 0 0-1.1-1.1c-.6 0-2.8-1.2-5-2.8-3.4-2.3-3.9-3.2-3.9-6.7 0-2.2-.5-5.8-1.2-8-1.8-6.6-1.1-11.4 2.4-17.2 2.3-3.7 3.9-5.3 5.3-5.3 1.2 0 3.1-1.1 4.3-2.5 2.4-2.7 3.7-3.1 4.7-1.4zM242 459.4l3.5 1.1.6 8.5c.4 4.7 1 9.6 1.4 11 .9 3.6-4.7 11.9-9.9 14.3-5.2 2.5-9 1.9-9.4-1.3-.2-1.4-.8-2.9-1.3-3.5-.5-.5-.9-1.9-.9-3.2s-.4-3.1-.8-4.1c-4.5-9.2-7-13.6-8.9-15.4-3.2-3-3-5.6.5-6.3 1.5-.3 4.3-1 6.2-1.5 7.4-2 11.8-1.9 19 .4zm46.5 39.8c.2.2.5 5.5.8 11.8s.7 12.4.9 13.5c.3 1.8-.3 2-6.2 2-12.4.1-15.4-2.3-16.4-13.3l-.6-7.3 3.6-3.6c2.5-2.4 4.7-3.6 7-3.8 1.9-.1 3.7-.5 4-.8.5-.5 6.2.8 6.9 1.5zm-39.1 9.4c3.1 2.7 3.4 3.5 5.2 15.5.7 4.3-1.6 9.7-6.7 15.8-3.8 4.5-7.9 6-11.4 4.1-2.2-1.2-2.3-1.8-2.4-14.4-.1-7.2-.5-14.8-1-16.9-.7-2.7-.6-3.9.2-4.1.7-.2 2.6-.8 4.2-1.4 5.2-1.7 8.5-1.4 11.9 1.4zm41.4 35.4c.2 1.9.7 3.9 1.2 4.5.4.5.7 5.3.6 10.5-.2 8.7-.4 9.9-3.1 14-1.7 2.5-3.9 5.3-5 6.3-5.1 4.5-12.9 9.7-14.6 9.7-1.8 0-1.8-.1 0-3.4 1.1-1.8 1.9-4.8 2-6.7.2-5.5.7-9.5 1.5-10.8 1.6-2.5.7-11.8-1.5-15.5-1.6-2.8-1.9-4.4-1.4-7.6.8-4.8 1.5-5.3 4.9-4 1.9.7 2.6.6 2.6-.3s1.7-1.1 6.2-.7l6.3.5.3 3.5zm-35.7 20.5c.1 4.4.1 9.3 0 11-.1 1.6-.3 5.6-.3 8.8-.1 4.7-.4 5.7-1.7 5.5-2.5-.4-9.2-9.7-9.5-13.3-.1-.6-.9-2.1-1.8-3.5-1.9-2.9-5.2-13.9-4.4-14.7.3-.3 2.8-.7 5.6-.8 2.8-.2 5.3-.5 5.6-.8.2-.2 1.8-.4 3.4-.3l3 .1.1 8z"/><path d="M269.564 624.374c-2.72-.331-6.619-1.342-8.664-2.246s-4.225-1.645-4.844-1.645c-1.588 0-7.434-3.077-7.434-3.912 0-.382-.824-.901-1.83-1.153-2.735-.687-16.194-12.228-24.035-20.612-17.214-18.404-26.821-35.301-35.042-61.63-1.11-3.554-4.731-13.411-8.048-21.904l-8.308-21.815c-3.288-9.2-5.803-15.801-8.951-23.497-2.903-7.096-7.053-17.851-14.6-37.834-2.482-6.571-7.73-18.758-11.663-27.081l-12.171-26.683-8.248-18.513c-1.776-3.83-4.151-9.519-5.278-12.643-2.883-7.992-8.155-30.731-9.213-39.733-.489-4.162-1.753-13.123-2.81-19.913-1.776-11.414-1.921-14.601-1.924-42.215-.004-31.465.682-40.333 3.819-49.384.835-2.409 1.763-6.89 2.063-9.956.924-9.459.981-9.585 5.703-12.446 4.548-2.757 5.018-3.398 3.255-4.44-.593-.35-2.198-1.593-3.568-2.762l-2.491-2.125 3.457-7.433c7.322-15.742 19.995-34.007 22.788-32.841.661.276 2.636.828 4.389 1.225s4.261 1.229 5.576 1.848 3.017 1.316 3.783 1.549c.796.242 1.394 1.203 1.395 2.241 0 .999 1.016 3.968 2.257 6.596s2.502 5.765 2.802 6.969c.44 1.766.997 2.19 2.875 2.19 4.603 0 6.452-7.11 3.213-12.351-2.045-3.309-1.198-4.103 5.656-5.311 4.543-.8 5.114-.748 5.863.534 3.366 5.761 5.828 8.796 7.309 9.007 2.183.311 4.863-3.03 6.08-7.58.861-3.22 1.076-3.414 3.735-3.381 5.736.071 11.982 3.445 11.982 6.472 0 2.244 5.051 7.405 6.648 6.792.725-.278 1.317-1.19 1.317-2.026s.538-1.967 1.195-2.512 1.195-1.844 1.195-2.885c0-1.65.376-1.894 2.924-1.894 1.678 0 3.569.594 4.437 1.394.832.767 3.887 2.648 6.788 4.182 4.529 2.394 6.266 4.026 12.288 11.549 9.992 12.484 11.793 15.317 11.326 17.817-.271 1.448.199 2.821 1.521 4.44l1.913 2.345 5.064-5.767 3.554 1.572c4.521 2 20.848 4.102 26.777 3.448 5.173-.571 16.158.909 18.763 2.528 4.216 2.62 7.396.33 7.396-5.325 0-3.252-3.247-5.079-12.733-7.165-10.677-2.348-10.609-2.307-12.215-7.403-1.476-4.684-4.714-9.278-6.538-9.278-1.728 0-2.283 1.613-2.736 7.957-.353 4.945-.675 6.013-1.879 6.243-2.271.433-4.304-2.016-4.884-5.881-.562-3.747-3.439-7.902-6.044-8.728-1.144-.363-1.558-1.214-1.558-3.201 0-1.923-.478-2.962-1.653-3.591-1.95-1.044-7.896-.248-8.268 1.107l-1.171 4.301c-.506 1.862-1.239 3.385-1.63 3.385-.787 0-11.62-12.583-14.026-16.293-1.026-1.582-1.679-4.431-1.992-8.687-.429-5.844-.661-6.509-3-8.598-4.404-3.935-8.009-2.386-8.06 3.463-.014 1.617-.294 3.095-.623 3.284s-3.286.029-6.571-.355c-5.426-.634-6.201-.954-8.448-3.483-2.931-3.299-4.666-3.464-8.57-.814-2.646 1.795-3.265 1.901-6.99 1.195-2.248-.426-5.465-.775-7.15-.775-3.382 0-3.482-.179-4.146-7.4-.452-4.915-2.262-6.937-6.21-6.937-4.113 0-5.028 1.836-4.435 8.903.251 2.989.346 5.434.212 5.434s-2.081.348-4.327.774c-5.277 1.001-6.488.491-6.488-2.727 0-3.341-2.117-5.216-5.89-5.216-4.009 0-6.058 1.222-6.058 3.612 0 1.39-.437 1.963-1.496 1.963-1.868 0-3.604-1.999-3.031-3.491.466-1.215 10.28-7.455 21.548-13.701 3.885-2.154 7.864-4.655 8.841-5.559 2.11-1.951 14.441-9.331 22.42-13.418 5.492-2.813 8.495-3.962 25.396-9.719 11.995-4.086 25.19-6.279 36.241-6.022 13.028.302 24.446 1.524 31.205 3.338 3.208.861 9.776 2.273 14.595 3.137l12.744 2.447c2.19.482 6.258 1.201 9.038 1.599s9.065 2.346 13.965 4.329 9.318 3.606 9.818 3.606 1.921.825 3.16 1.834 6.135 4.324 10.882 7.368 12.812 8.895 17.922 13.004 12.158 9.461 15.663 11.895c9.77 6.784 19.934 17.485 24.73 26.036 7.88 14.05 13.697 28.226 18.362 44.744 4.293 15.201 4.489 16.313 5.226 29.73.421 7.666.723 15.91.67 18.32-.119 5.399-5.145 39.687-6.674 45.523-1.048 4-11.402 25.147-13.59 27.756-.551.657-1.204 1.769-1.451 2.471s-2.048 3.771-4.002 6.82-3.828 6.408-4.163 7.464c-1.341 4.225-18.929 28.903-22.251 31.223-1.262.881-7.038.726-9.879-.265-2.9-1.011-3.163-2.194-.915-4.118 2.147-1.839 2.18-6.585.052-7.724-.847-.453-2.871-.825-4.497-.825-2.412 0-3.673.67-6.85 3.642-2.141 2.003-4.297 3.507-4.79 3.343-1.569-.523-3.828-5.658-3.828-8.701 0-2.669.236-2.986 2.589-3.486 5.908-1.256 6.893-4.743 2.48-8.785-2.665-2.441-2.856-2.908-2.388-5.833.28-1.749 1.467-5.389 2.637-8.089l2.129-4.909-.94-10.075c-.517-5.541-.938-11.754-.936-13.806.007-6.159-.89-7.537-5.315-8.167-2.112-.301-5.736-1.241-8.052-2.09-5.846-2.142-8.453-2.004-10.466.555-.908 1.154-1.651 2.649-1.651 3.322s-.605 1.892-1.344 2.709c-.986 1.09-1.358 3.008-1.394 7.201-.048 5.505.029 5.744 2.097 6.482 1.789.638 2.682.395 5.353-1.456 5.674-3.932 8.26-1.864 8.38 6.702.045 3.202-.198 3.686-2.392 4.779-5.443 2.712-7.429 4.787-8.828 9.227-1.579 5.008-.956 8.134 1.905 9.56 1.755.875 1.753.882-.684 2.684-3.014 2.228-4.686 6.056-4.686 10.728 0 4.415 1.503 6.056 5.547 6.056 3.09 0 4.011.902 4.011 3.929 0 .775.87 3.045 1.933 5.044 1.515 2.85 1.916 4.757 1.854 8.832-.129 8.491 3.001 9.996 9.352 4.5 3.469-3.003 3.799-3.122 5.823-2.105 1.18.593 3.381 1.314 4.89 1.602s4.108 1.125 5.775 1.86c3.666 1.618 3.931 3.587.906 6.744-2.47 2.578-3.996 5.057-10.452 16.987-5.106 9.433-9.727 21.879-11.683 31.462-1.065 5.219-4.417 19.372-6.885 29.073l-1.243 5.177c-.238 1.095-1.289 4.197-2.337 6.894-4.103 10.558-4.569 14.736-4.687 42.092-.092 21.249-.41 27.871-1.913 39.815-1.648 13.101-2.134 15.169-5.682 24.171-4.482 11.373-8.512 18.431-14.476 25.358-2.327 2.703-5.284 6.375-6.572 8.161-2.441 3.386-13.096 12.882-17.446 15.548l-6.498 4.078c-7.328 4.668-13.307 6.059-21.672 5.042zm-2.671-19.812c9.111-1.728 29.971-18.432 34.154-27.349 3.746-7.987 3.886-12.584 1.141-37.576-1.837-16.731-1.806-47.467.059-57.747.755-4.162 1.948-9.359 2.652-11.549 1.407-4.378 6.451-13.939 7.354-13.939.313 0 1.363-1.523 2.334-3.385s2.986-5.357 4.48-7.766c4.359-7.032 5.516-12.402 4.889-22.701-.809-13.305-2.158-17.525-7.064-22.102-2.23-2.08-5.868-4.471-8.085-5.313s-6.75-2.797-10.074-4.346c-7.275-3.39-12.191-4.197-29.402-4.833-12.535-.463-13.492-.388-20.709 1.612-7.597 2.105-9.095 2.244-20.543 1.902-12.303-.367-20.447 3.611-28.05 13.701-2.625 3.484-4.773 6.737-4.773 7.229s-.747 1.691-1.661 2.663c-1.919 2.043-3.059 9.095-3.078 19.044-.025 13.072 3.073 21.34 14.771 39.416 8.091 12.502 12.365 21.064 12.391 24.824.01 1.467-.217 4.459-.505 6.65-.479 3.643-.285 4.347 2.264 8.25 3.029 4.637 3.401 6.259 4.054 17.636.383 6.684.06 10.651-1.673 20.523-.328 1.866.119 3.779 1.579 6.77 1.12 2.293 3.879 8.815 6.131 14.493 7.124 17.961 7.963 19.459 14.181 25.303 9.269 8.713 13.757 10.376 23.181 8.589zm-8.712-251.728c21.28-1.213 26.792-2.653 29.736-7.771 1.32-2.294 1.588-5.274 2.186-24.294.968-30.808 2.247-55.817 3.186-62.286.713-4.915.648-5.676-.562-6.561-1.81-1.324-6.195-2.109-8.517-1.526-3.667.92-3.979 3.085-4.603 31.967-.633 29.263-1.849 50.857-3.041 53.992-1.237 3.254-4.647 3.865-24.218 4.34-20.071.488-21.025.733-20.136 5.177.27 1.349-.018 3.247-.691 4.548-.635 1.228-.93 2.457-.655 2.732.719.719 11.275.596 27.315-.318zm114.553-88.392c7.383-1.777 10.794-3.933 14.082-8.902 1.19-1.799 3.291-4.412 4.667-5.809s4.638-5.737 7.247-9.645 6.244-8.899 8.078-11.089c7.566-9.037 11.118-17.657 10.467-25.398-.669-7.947-3.098-16.34-6.937-23.965-3.158-6.275-4.417-7.861-10.123-12.753-12.419-10.649-18.771-13.522-28.531-12.908-7.615.479-11.218 1.486-14.829 4.143-1.482 1.09-3.678 2.61-4.879 3.377s-2.188 1.982-2.19 2.7c-.011 2.96-2.762 4.873-8.029 5.586-2.899.392-6.054 1.38-7.277 2.277-1.187.871-2.401 1.584-2.699 1.584-1.428 0-13.617 7.869-17.632 11.383-5.528 4.838-6.222 5.734-10.422 13.471l-3.331 6.135v9.849c0 11.056.874 15.003 5.421 24.476 3.569 7.435 12.668 16.925 19.271 20.099 15.294 7.353 31.756 9.214 47.646 5.389zM211.4 256.79c4.92-1.58 10.067-3.715 11.437-4.745 5.439-4.088 12.468-11.945 14.503-16.211 2.074-4.348 2.121-4.788 2.075-19.581-.045-14.607-.122-15.314-2.208-20.311-4.422-10.588-15.525-26.164-20.438-28.671-4.04-2.061-11.293-3.812-18.327-4.425-5.717-.498-17.931.934-24.294 2.849-1.314.396-6.677 1.082-11.918 1.525-6.71.567-11.304 1.44-15.532 2.95-7.282 2.601-7.437 2.714-9.961 7.23-3.031 5.422-2.533 14.503 1.669 30.489l2.82 10.753c.579 2.223 2.268 4.606 5.584 7.881 2.614 2.582 6.667 7.094 9.007 10.026 8.386 10.51 20.391 19.596 28.347 21.454 10.595 2.474 16.584 2.208 27.236-1.213zm-20.165-9.068c-3.449-.316-5.634-1.179-9.956-3.931-9.436-6.009-18.227-15.496-20.507-22.134-1.13-3.288-2.706-5.545-8.727-12.491-1.643-1.895-2.987-3.99-2.987-4.654s-.533-2.483-1.185-4.043c-1.639-3.923-2.439-13.374-1.31-15.483 1.395-2.606 8.834-4.896 20.212-6.222 5.717-.666 11.148-1.629 12.069-2.139 2.596-1.438 25.544-1.271 29.536.215s10.089 9.312 15.192 19.499c2.934 5.857 3.731 8.407 4.358 13.939 1.349 11.92 1.076 14.962-1.902 21.13-2.265 4.693-3.486 6.139-7.879 9.337-2.859 2.081-5.566 3.783-6.015 3.783s-2.37.665-4.268 1.479c-3.901 1.671-10.112 2.311-16.632 1.714zm.038-23.902c2.223-.876 4.892-1.593 5.933-1.593 2.141 0 5.739-3.801 6.512-6.88 1.424-5.675-2.973-16.445-7.678-18.806-3.919-1.967-11.873-1.865-15.928.203-3.977 2.029-8.067 6.104-9.807 9.772-1.292 2.723-1.281 3.046.233 7.092 2.418 6.459 4.88 9.567 8.456 10.673 4.629 1.433 7.776 1.315 12.28-.461zm155.32 30.514c-9.237-1.545-22.447-8.075-28.819-14.247-4.173-4.041-8.178-17.902-7.686-26.599.292-5.166.549-5.885 2.881-8.065 1.473-1.376 2.561-3.185 2.561-4.258 0-2.108 8.78-10.798 10.91-10.798.693 0 1.659-.501 2.145-1.113s3.752-2.574 7.256-4.361c5.108-2.604 7.771-3.417 13.425-4.098 3.879-.467 8.539-1.367 10.355-2s3.927-1.156 4.693-1.162c1.742-.015 7.768-5.375 7.768-6.911 0-.626-.88-2.018-1.955-3.093l-1.955-1.955 2.951.005c6.963.011 13.657 3.725 22.957 12.74 7.128 6.909 11.456 16.637 11.456 25.749 0 4.512-7.493 18.039-13.312 24.033-.851.876-1.779 2.227-2.064 3.003-.823 2.243-6.912 11.084-9.625 13.976-3.861 4.114-6.734 5.523-15.68 7.691-7.662 1.856-13.24 2.304-18.261 1.464zm22.012-24.279c4.455.217 5.305-2.37 5.353-16.297.017-4.796-.331-7.016-1.338-8.554-1.505-2.297-8.889-6.854-11.124-6.866-3.746-.02-12.603 6.79-14.161 10.888-2.503 6.583 1.951 16.674 9.214 20.876 1.015.587 3.037.724 5.576.376 2.19-.3 5.106-.491 6.48-.424zM204.981 448.203c-3.297-4.126-3.769-27.291-.627-30.763.691-.764 1.257-1.767 1.257-2.231s2.118-3.041 4.707-5.727l4.707-4.885 4.335.51c3.412.401 4.79.211 6.471-.89 2.745-1.799 10.402-1.208 12.499.965 1.526 1.582 5.515 15.412 5.515 19.123 0 3.593-2.352 10.786-4.169 12.752-2.65 2.867-14.009 7.896-21.718 9.616-10.984 2.451-12.132 2.586-12.975 1.53zm100.193-19.321c-1.971-.565-4.667-1.055-5.99-1.091-3.448-.092-12.748-2.794-18.171-5.281-3.761-1.724-5.163-2.937-7.355-6.364-3.566-5.574-4.961-10.687-3.681-13.495.521-1.144.948-2.96.948-4.034 0-1.907.149-1.954 6.199-1.954 7.246 0 11.168.986 22.259 5.595 7.591 3.155 8.257 3.614 9.771 6.741 1.825 3.769 3.661 15.947 2.877 19.074-.571 2.277-1.391 2.374-6.855.809zm-24.231 55.319c-1.718-.413-3.595-1.142-4.172-1.62s-1.59-.662-2.253-.407-1.205.132-1.205-.272-1.238-1.321-2.75-2.039c-5.045-2.394-6.617-4.492-7.205-9.619-.295-2.576-.863-5.938-1.261-7.471-.962-3.705-.827-8.575.324-11.696 1.466-3.976 5.931-9.81 7.507-9.81.785 0 2.789-1.122 4.453-2.493 2.249-1.854 3.256-2.262 3.925-1.593.495.495 2.241.9 3.88.9s3.188.338 3.444.75 2.158.983 4.229 1.268c8.857 1.216 15.314 3.71 15.314 5.914 0 .758-.738 2.047-1.64 2.863-3.602 3.26-8.638 12.688-9.982 18.687-4.149 18.524-3.595 17.098-6.698 17.251-1.533.076-4.193-.2-5.911-.613zm-50.878 10.73c-1.167-1.174-3.745-7.645-3.745-9.401 0-2.46-5.591-13.677-9.098-18.255-1.628-2.124-2.78-4.329-2.561-4.899.499-1.3 13.46-4.398 18.131-4.333 1.917.027 5.457.666 7.867 1.42l4.381 1.371.499 5.948 1.055 11.125c.53 4.937.436 5.356-2.014 9.029-1.413 2.118-3.898 4.731-5.523 5.807-3.145 2.081-7.937 3.248-8.991 2.188zm5.76 47.828c-.731-.881-1.208-5.723-1.588-16.129-.299-8.179-.679-15.381-.845-16.004-.361-1.358 5.656-3.936 9.338-4 2.961-.052 7.513 2.829 8.845 5.599 1.479 3.074 2.893 12.983 2.302 16.131-.715 3.809-6.312 12.016-9.568 14.028-3.153 1.949-7.035 2.12-8.483.376zm43.065-16.988c-8.026-.954-9.987-3.448-10.863-13.817l-.489-5.781 3.568-3.289c4.188-3.861 9.74-5.495 14.345-4.224l2.806.775.522 10.144c.287 5.579.72 11.488.962 13.131.401 2.723.275 2.988-1.422 2.998-1.024.006-2.579.14-3.455.297s-3.564.052-5.974-.235zm-9.191 61.595c2.095-4.983 2.752-7.482 2.784-10.577.019-1.908.581-5.577 1.249-8.154 1.357-5.237.704-12.174-1.557-16.547-1.443-2.79-1.633-7.46-.398-9.768.675-1.261 1.344-1.484 3.219-1.072 1.4.307 2.827.138 3.492-.414.766-.636 2.756-.76 6.232-.387l5.106.547 1.416 6.749c2.109 10.05 1.332 18.925-2.166 24.75-2.794 4.652-6.471 8.185-13.111 12.597-5.597 3.719-7.103 4.267-6.266 2.276zm-19.845-1.198c-3.062-3.389-9.354-16.012-10.828-21.72l-1.224-4.593c-.309-1.072.808-1.438 6.673-2.19 11.497-1.474 10.52-2.075 10.516 6.464-.005 10.67-.941 25.289-1.618 25.289-.32 0-1.903-1.463-3.518-3.25z" fill="#fff"/></svg>