<?xml version="1.0" encoding="UTF-8" standalone="no"?>
<svg
   xmlns:dc="http://purl.org/dc/elements/1.1/"
   xmlns:cc="http://creativecommons.org/ns#"
   xmlns:rdf="http://www.w3.org/1999/02/22-rdf-syntax-ns#"
   xmlns:svg="http://www.w3.org/2000/svg"
   xmlns="http://www.w3.org/2000/svg"
   xmlns:sodipodi="http://sodipodi.sourceforge.net/DTD/sodipodi-0.dtd"
   xmlns:inkscape="http://www.inkscape.org/namespaces/inkscape"
   version="1.0"
   width="549.000000pt"
   height="646.000000pt"
   viewBox="0 0 549.000000 646.000000"
   preserveAspectRatio="xMidYMid meet"
   id="svg36"
   sodipodi:docname="face10.svg"
   inkscape:version="1.0.1 (3bc2e813f5, 2020-09-07)">
  <defs
     id="defs40" />
  <sodipodi:namedview
     pagecolor="#ffffff"
     bordercolor="#666666"
     borderopacity="1"
     objecttolerance="10"
     gridtolerance="10"
     guidetolerance="10"
     inkscape:pageopacity="0"
     inkscape:pageshadow="2"
     inkscape:window-width="1920"
     inkscape:window-height="1027"
     id="namedview38"
     showgrid="false"
     inkscape:zoom="0.99845201"
     inkscape:cx="366"
     inkscape:cy="430.66667"
     inkscape:window-x="1912"
     inkscape:window-y="-8"
     inkscape:window-maximized="1"
     inkscape:current-layer="svg36" />
  <metadata
     id="metadata2">
Created by potrace 1.16, written by Peter Selinger 2001-2019
<rdf:RDF>
  <cc:Work
     rdf:about="">
    <dc:format>image/svg+xml</dc:format>
    <dc:type
       rdf:resource="http://purl.org/dc/dcmitype/StillImage" />
  </cc:Work>
</rdf:RDF>
</metadata>
  <g
     transform="translate(0.000000,646.000000) scale(0.100000,-0.100000)"
     fill="#000000"
     stroke="none"
     id="g34">
    <path
       d="M2650 5739 c-47 -4 -128 -20 -180 -34 -52 -14 -104 -26 -115 -27 -29 0 -117 -18 -140 -28 -11 -5 -40 -14 -65 -21 -24 -6 -87 -31 -139 -55 -52 -24 -104 -44 -117 -44 -12 0 -26 -4 -29 -10 -3 -5 -14 -10 -23 -10 -31 0 -237 -111 -354 -191 -15 -11 -31 -19 -35 -19 -4 0 -37 -20 -74 -45 -37 -25 -72 -45 -78 -45 -6 0 -25 -16 -42 -35 -18 -19 -36 -35 -40 -35 -23 0 -214 -191 -294 -293 -33 -43 -79 -101 -102 -130 -23 -28 -42 -56 -43 -60 0 -9 -20 -37 -71 -100 -55 -69 -96 -181 -105 -292 -11 -135 62 -440 151 -633 14 -29 25 -56 25 -60 0 -5 6 -14 13 -20 6 -7 12 -16 12 -20 0 -4 15 -28 33 -54 17 -26 32 -51 32 -56 0 -5 9 -17 20 -27 11 -10 20 -24 20 -31 0 -7 3 -14 8 -16 4 -1 26 -28 49 -58 23 -30 54 -68 69 -85 14 -16 33 -43 41 -60 9 -16 25 -36 36 -44 11 -8 26 -21 33 -30 93 -117 147 -180 217 -251 115 -118 144 -164 229 -375 11 -27 24 -59 29 -70 11 -29 61 -196 64 -220 22 -135 26 -209 25 -478 0 -170 -3 -313 -6 -318 -8 -14 17 -312 27 -324 5 -5 9 -19 9 -31 0 -13 4 -25 9 -29 5 -3 17 -31 26 -62 36 -122 82 -185 191 -258 32 -21 76 -53 96 -70 74 -61 97 -75 117 -75 12 0 21 -6 21 -16 0 -9 5 -14 12 -12 7 3 64 -22 127 -55 91 -46 122 -57 146 -53 16 3 57 9 90 14 116 18 292 68 317 89 9 8 23 16 32 17 8 1 37 16 63 32 26 17 61 36 76 42 55 24 113 78 184 171 40 53 97 129 127 169 31 40 56 74 56 76 0 13 109 195 127 212 12 11 25 33 29 50 4 16 20 56 36 89 15 33 28 68 28 78 0 10 11 37 24 60 23 39 25 55 30 217 6 184 20 299 55 440 12 47 24 111 28 142 3 32 10 58 14 58 5 0 9 11 9 25 0 15 7 39 15 54 8 16 17 47 21 70 4 23 10 41 14 41 5 0 13 12 19 28 14 34 45 89 64 110 8 9 38 55 67 102 28 47 72 108 96 137 24 28 44 54 44 57 0 2 16 22 36 43 19 21 42 50 50 66 8 15 19 27 25 27 5 0 32 20 58 45 26 25 51 45 54 45 11 0 102 64 110 78 5 7 27 26 49 42 50 36 113 121 161 218 63 126 88 284 94 596 3 177 1 272 -7 300 -6 23 -12 48 -14 56 -22 113 -83 291 -129 375 -6 11 -15 29 -21 40 -6 12 -26 39 -43 62 -18 22 -33 45 -33 51 0 6 -3 12 -8 14 -4 2 -60 62 -125 135 -150 169 -292 281 -434 342 -11 6 -24 15 -28 20 -3 6 -13 11 -21 11 -8 0 -36 9 -62 21 -80 36 -73 33 -217 71 -55 15 -186 57 -210 68 -27 13 -624 73 -680 69 -11 -1 -58 -5 -105 -10z m305 -134 c163 -10 213 -15 239 -25 24 -9 94 -16 206 -22 8 0 20 -4 25 -8 6 -4 26 -11 45 -15 19 -4 41 -11 50 -15 56 -28 75 -34 100 -32 16 1 31 -2 35 -7 3 -6 27 -13 53 -17 26 -4 59 -15 74 -25 14 -11 31 -19 37 -19 6 0 32 -11 59 -24 26 -14 59 -27 74 -30 15 -4 43 -20 62 -36 18 -17 38 -30 42 -30 21 0 122 -77 188 -144 94 -94 250 -290 292 -368 25 -45 44 -91 44 -105 0 -7 4 -13 8 -13 11 0 25 -44 59 -185 24 -103 26 -125 26 -350 -1 -208 -4 -255 -23 -350 -12 -60 -26 -128 -30 -150 -12 -66 -69 -163 -128 -221 -30 -30 -59 -54 -63 -54 -5 0 -21 -12 -37 -27 -47 -45 -130 -113 -137 -113 -12 0 -145 -113 -145 -123 0 -6 -20 -36 -44 -66 -24 -31 -78 -108 -121 -171 -43 -63 -84 -121 -91 -128 -8 -7 -21 -30 -30 -50 -10 -20 -33 -71 -52 -112 -64 -140 -70 -155 -77 -190 -9 -41 -32 -90 -44 -90 -14 0 -38 33 -50 69 -12 36 -2 52 40 66 34 12 23 104 -14 118 -12 4 -13 14 -6 54 14 75 19 202 7 209 -5 4 -8 19 -4 34 4 21 -1 35 -20 55 -16 18 -23 33 -18 44 4 9 6 24 6 34 -4 70 -4 69 -28 64 -20 -4 -23 -1 -18 15 4 14 -4 29 -30 53 -21 20 -34 39 -30 48 7 18 -45 57 -76 57 -52 0 -87 -55 -56 -89 8 -9 24 -43 37 -76 12 -33 28 -64 36 -68 18 -11 7 -27 -20 -27 -12 0 -39 -5 -59 -11 -45 -12 -59 -45 -34 -81 14 -20 25 -23 81 -23 36 0 65 3 65 7 0 5 9 8 20 8 17 0 20 -7 20 -43 0 -39 -4 -47 -40 -76 -27 -22 -40 -40 -40 -57 0 -33 28 -74 51 -74 14 0 19 -7 19 -30 0 -27 -3 -30 -31 -30 -23 0 -39 -9 -60 -32 -16 -18 -29 -36 -29 -40 0 -15 40 -48 58 -48 31 -1 49 -24 55 -74 4 -27 14 -57 22 -65 7 -9 18 -26 22 -38 11 -28 91 -93 107 -87 10 4 5 -35 -17 -148 -23 -118 -31 -188 -34 -307 l-4 -154 -38 -71 c-21 -39 -46 -98 -56 -131 -19 -68 -63 -172 -82 -196 -7 -8 -13 -19 -13 -23 0 -4 -9 -19 -20 -33 -11 -14 -20 -34 -20 -44 0 -11 -3 -19 -8 -19 -4 0 -16 -16 -26 -35 -11 -19 -30 -42 -42 -50 -13 -9 -24 -21 -24 -29 0 -7 -27 -41 -60 -74 -33 -34 -60 -68 -60 -76 0 -15 -66 -73 -109 -95 -14 -7 -34 -20 -44 -29 -9 -8 -20 -12 -24 -9 -3 4 -12 -2 -20 -13 -8 -11 -19 -20 -25 -20 -6 0 -19 -6 -27 -13 -18 -15 -100 -47 -121 -47 -7 0 -21 -6 -29 -14 -9 -8 -57 -19 -113 -25 -146 -16 -183 -14 -226 12 -20 13 -54 29 -74 36 -20 7 -55 25 -77 42 -23 16 -44 29 -47 29 -5 0 -28 17 -81 60 -7 6 -15 10 -19 10 -11 0 -134 103 -134 112 0 4 -7 8 -15 8 -8 0 -22 15 -30 33 -8 17 -26 52 -40 76 -16 27 -25 60 -25 86 0 22 -4 45 -8 50 -23 25 -33 240 -27 563 3 183 3 338 -1 344 -5 7 -7 29 -5 49 3 50 -15 145 -51 264 -16 55 -34 114 -38 130 -15 52 -34 100 -53 128 -9 14 -17 35 -17 47 0 11 -4 20 -10 20 -5 0 -10 6 -10 13 0 33 -66 141 -121 199 -93 97 -146 158 -334 383 -27 33 -57 68 -65 79 -8 11 -27 33 -42 49 -16 17 -28 34 -28 38 0 5 -13 22 -29 38 -15 16 -31 41 -35 55 -3 14 -11 26 -16 26 -6 0 -10 6 -10 14 0 7 -9 25 -20 38 -21 28 -59 93 -85 148 -9 19 -21 43 -26 52 -5 10 -9 27 -9 37 0 11 -5 23 -10 26 -6 3 -10 19 -10 35 0 16 -4 31 -9 34 -5 3 -12 23 -16 43 -4 21 -10 43 -14 48 -19 24 -36 149 -35 251 1 109 18 183 49 224 6 8 19 32 29 52 9 20 21 40 26 43 6 3 10 13 10 21 0 16 11 32 46 67 12 12 43 51 71 87 27 36 62 79 78 95 17 17 59 62 94 100 35 39 84 87 110 108 25 21 54 44 63 52 36 30 74 42 117 37 24 -2 46 0 50 4 9 13 89 64 99 64 5 0 31 17 58 38 69 52 89 62 129 62 38 0 47 -18 20 -40 -31 -25 -9 -69 41 -84 17 -5 27 0 43 20 11 14 18 30 16 35 -3 4 6 16 19 25 25 15 27 15 93 -29 37 -24 78 -50 90 -56 l23 -12 -35 -35 c-41 -40 -43 -59 -12 -85 29 -24 50 -24 72 1 25 28 40 25 64 -12 11 -18 26 -41 33 -51 11 -16 9 -21 -15 -39 -38 -27 -50 -53 -38 -77 15 -27 62 -37 78 -15 17 23 39 12 58 -33 9 -21 21 -46 26 -55 13 -25 12 -28 -10 -28 -25 0 -36 -16 -19 -27 7 -4 18 -21 23 -38 9 -25 16 -30 44 -30 28 0 34 -4 36 -22 1 -12 16 -33 33 -48 18 -15 32 -32 31 -39 -1 -6 2 -20 6 -30 6 -15 2 -24 -19 -41 -49 -39 -44 -87 12 -111 39 -16 49 -11 54 25 5 38 22 36 70 -8 23 -23 52 -41 63 -41 11 0 38 -16 59 -36 l39 -36 36 17 c35 15 231 29 231 15 0 -3 -9 -23 -20 -45 -11 -22 -20 -47 -20 -57 0 -16 -5 -31 -41 -113 -13 -29 -21 -65 -53 -235 -9 -47 -17 -137 -17 -201 -1 -104 2 -123 24 -172 14 -30 48 -77 75 -103 66 -65 124 -79 276 -69 59 4 109 11 112 16 3 5 12 9 21 9 9 0 31 12 50 26 19 14 37 23 40 20 3 -3 22 3 42 13 20 11 52 26 72 35 20 9 49 28 65 44 16 15 41 36 56 45 25 16 28 16 36 0 8 -14 14 -13 53 13 30 21 44 37 45 54 1 13 6 26 12 28 6 2 8 10 5 18 -3 8 0 14 6 14 6 0 11 4 11 9 0 6 12 23 26 38 30 31 74 118 74 145 0 25 57 142 87 179 5 8 20 46 33 84 12 39 30 86 40 105 32 59 52 150 58 257 7 150 -8 198 -106 320 -45 56 -112 100 -220 142 -90 36 -364 24 -422 -18 -14 -10 -36 -22 -49 -26 -70 -22 -211 -185 -264 -305 -49 -109 -60 -130 -70 -129 -7 1 -21 -2 -32 -6 -11 -5 -53 -9 -95 -9 l-75 -1 -7 40 c-13 66 -14 69 -29 73 -8 3 -17 9 -20 15 -9 12 -38 2 -43 -15 -28 -100 -39 -117 -53 -82 -4 11 -13 13 -34 9 -22 -5 -29 -3 -29 9 0 9 -4 16 -10 16 -5 0 -9 8 -8 18 3 44 -3 63 -26 72 -50 18 -83 99 -54 128 7 7 8 12 4 12 -5 0 -3 7 4 15 13 16 6 35 -15 35 -7 0 -15 7 -19 15 -4 12 -11 13 -32 5 -15 -6 -28 -9 -29 -8 -20 26 -55 100 -55 116 0 12 -4 22 -10 22 -5 0 -10 7 -10 15 0 12 7 14 27 9 26 -7 27 -6 11 9 -9 10 -14 25 -11 37 4 15 0 20 -15 20 -12 0 -22 9 -25 21 -4 14 -11 20 -21 16 -11 -4 -21 3 -31 22 -8 16 -22 31 -31 35 -13 5 -15 14 -9 42 7 39 -6 64 -36 64 -10 0 -21 10 -24 21 -6 17 -9 19 -16 8 -7 -11 -20 -2 -58 38 -27 29 -60 55 -74 58 -14 4 -34 15 -46 26 -11 10 -27 19 -36 19 -10 0 -15 10 -15 29 0 20 -6 30 -20 34 -22 6 -27 27 -6 27 7 0 33 11 57 23 24 13 69 32 99 42 30 10 60 22 66 27 7 5 27 10 45 12 57 6 109 18 114 26 3 5 31 11 63 15 31 3 73 10 92 15 78 20 167 40 195 44 27 3 150 0 290 -9z m867 -866 c52 -13 142 -77 177 -125 55 -78 78 -201 50 -271 -7 -15 -15 -53 -19 -83 -4 -30 -22 -85 -39 -121 -17 -36 -31 -71 -31 -78 0 -10 -64 -131 -90 -171 -6 -8 -15 -26 -20 -39 -6 -13 -24 -43 -39 -67 -16 -23 -35 -59 -42 -81 -18 -51 -39 -83 -54 -83 -7 0 -24 -11 -39 -25 -15 -14 -31 -25 -37 -25 -5 0 -9 -4 -9 -9 0 -16 -114 -101 -135 -101 -11 0 -38 -11 -60 -25 -51 -31 -79 -44 -110 -49 -14 -3 -29 -7 -33 -10 -5 -3 -24 -7 -43 -10 -19 -2 -46 -7 -61 -11 -15 -4 -50 0 -82 9 -79 23 -110 69 -136 201 -9 51 -8 74 8 155 29 139 55 233 70 248 6 7 12 22 12 33 0 11 5 30 11 41 6 11 20 48 30 82 17 56 75 224 95 271 11 28 110 185 131 210 10 11 36 33 58 49 22 16 45 34 50 40 18 20 54 36 79 36 14 0 27 4 30 8 7 12 234 13 278 1z"
       id="path4" />
    <path
       d="M1570 4794 c-37 -7 -153 -47 -164 -56 -6 -4 -17 -8 -27 -8 -9 0 -27 -10 -41 -22 -14 -13 -50 -42 -80 -65 -64 -51 -138 -177 -138 -236 0 -20 -7 -43 -16 -52 -13 -13 -14 -21 -6 -38 6 -12 14 -42 17 -67 8 -51 39 -159 61 -208 8 -18 14 -39 14 -48 0 -8 38 -79 85 -157 83 -137 218 -308 250 -315 8 -2 15 -10 15 -18 0 -8 7 -14 15 -14 8 0 27 -14 42 -31 16 -17 41 -37 58 -45 16 -8 44 -23 60 -33 17 -11 38 -20 48 -20 16 -1 26 -5 80 -33 51 -27 166 -43 240 -34 46 6 56 12 81 47 19 25 38 39 52 39 13 0 55 12 94 26 87 33 113 66 131 169 21 117 14 374 -12 400 -5 5 -9 20 -9 35 0 14 -14 56 -30 95 -17 38 -30 74 -30 80 0 36 -74 157 -135 224 -22 23 -44 50 -49 58 -14 25 -128 133 -176 167 -83 57 -199 119 -245 130 -16 4 -33 12 -36 18 -7 11 -110 19 -149 12z m118 -123 c9 -5 57 -29 106 -52 50 -24 115 -62 146 -85 31 -23 66 -47 78 -53 12 -6 22 -19 22 -27 0 -9 29 -44 64 -79 78 -77 118 -142 96 -155 -10 -7 -19 -5 -27 6 -13 18 -35 10 -27 -10 3 -7 -2 -19 -11 -26 -8 -7 -15 -16 -15 -21 0 -12 50 -6 58 8 4 6 18 14 32 17 21 5 28 1 43 -29 9 -20 17 -45 17 -57 0 -12 6 -29 14 -37 16 -18 52 -190 60 -293 5 -59 -5 -184 -19 -229 -7 -21 -96 -51 -189 -64 -78 -10 -78 -10 -90 -45 -10 -32 -14 -35 -46 -32 -40 3 -193 53 -198 64 -2 5 -13 8 -25 8 -12 0 -33 9 -47 20 -14 11 -29 20 -35 20 -5 0 -44 32 -85 70 -41 38 -78 70 -81 70 -4 0 -12 14 -19 30 -7 17 -17 30 -22 30 -5 0 -12 8 -15 18 -4 9 -19 33 -34 52 -16 19 -45 67 -66 106 -21 39 -50 90 -65 115 -15 24 -29 56 -31 70 -3 14 -15 46 -26 70 -17 35 -22 63 -22 135 -1 51 4 101 10 112 6 11 11 29 11 40 0 27 132 158 188 186 44 22 117 41 187 50 17 1 33 4 38 5 4 0 15 -3 25 -8z"
       id="path6" />
    <path
       d="M1724 4281 c-57 -7 -119 -51 -129 -94 -6 -24 16 -118 38 -161 21 -39 83 -106 100 -106 9 0 19 -4 22 -10 3 -5 17 -10 30 -10 13 0 27 -5 30 -11 4 -5 17 -9 28 -8 12 1 30 -1 40 -6 11 -5 24 -2 36 9 10 9 23 16 29 16 17 0 40 39 35 59 -2 9 3 23 11 30 37 31 6 99 -94 205 -30 32 -117 99 -123 94 -1 -1 -25 -4 -53 -7z"
       id="path8" />
    <path
       d="M2920 3175 c0 -8 -5 -15 -11 -15 -16 0 -79 -53 -79 -67 0 -6 -9 -15 -20 -18 -15 -5 -19 -12 -15 -25 4 -13 -3 -25 -25 -40 -18 -13 -29 -28 -26 -36 3 -8 -19 -35 -53 -65 -70 -62 -82 -98 -43 -134 l24 -23 52 20 c28 11 60 20 70 20 35 -1 95 38 125 82 17 25 31 47 31 51 0 3 18 30 39 59 27 36 40 64 41 92 5 70 1 84 -20 84 -11 0 -20 5 -20 11 0 7 -10 9 -25 7 -14 -3 -25 -1 -25 3 0 5 -4 9 -10 9 -5 0 -10 -7 -10 -15z"
       id="path10" />
    <path
       d="M2221 3114 c-12 -15 -21 -30 -21 -34 0 -17 31 -77 55 -105 14 -16 25 -34 25 -38 0 -5 13 -19 29 -33 17 -14 33 -34 36 -44 4 -11 15 -20 25 -20 10 0 20 -7 24 -15 3 -8 17 -20 31 -25 14 -5 25 -14 25 -19 0 -11 59 -20 66 -9 3 4 13 8 23 8 40 0 53 129 15 144 -8 3 -14 12 -14 20 0 8 -9 17 -20 21 -11 3 -37 27 -57 53 -21 26 -41 49 -46 50 -4 2 -14 11 -22 19 -9 8 -33 17 -55 20 -22 3 -45 12 -51 19 -18 22 -46 17 -68 -12z"
       id="path12" />
    <path
       d="M2926 2099 l-26 -21 6 -121 c10 -211 14 -244 41 -297 14 -29 33 -40 33 -20 0 14 37 12 43 -2 10 -27 26 8 32 67 4 33 12 70 18 83 9 18 8 25 -3 32 -8 5 -15 33 -17 77 -2 37 -7 75 -10 83 -3 8 -8 35 -10 59 -3 29 -12 50 -26 62 -29 24 -49 24 -81 -2z"
       id="path14" />
    <path
       d="M2291 2101 c-8 -5 -15 -34 -18 -72 -3 -35 -9 -69 -14 -76 -7 -7 -6 -14 1 -18 6 -4 9 -13 6 -20 -3 -8 0 -15 6 -17 6 -2 10 -25 8 -53 -3 -77 -5 -89 -13 -102 -4 -6 -3 -14 3 -18 5 -3 10 -17 10 -31 0 -13 4 -24 8 -24 4 0 13 -13 19 -29 7 -20 20 -31 42 -36 40 -8 61 8 61 46 0 15 4 31 10 34 16 10 32 85 21 99 -6 7 -13 56 -17 109 -4 53 -11 97 -15 97 -4 0 -11 20 -14 43 -4 24 -10 49 -13 54 -10 15 -74 25 -91 14z"
       id="path16" />
    <path
       d="M2574 2059 c-13 -38 -10 -197 5 -246 5 -17 8 -33 6 -35 -1 -2 -5 -24 -8 -50 -4 -32 -3 -48 4 -48 6 0 22 -9 36 -20 14 -11 33 -20 42 -20 26 0 54 55 46 90 -6 27 -4 30 18 30 29 0 40 9 29 24 -5 6 -17 49 -26 96 -10 47 -20 92 -23 100 -3 8 -7 30 -9 49 -4 44 -11 50 -65 57 -43 6 -44 5 -55 -27z"
       id="path18" />
    <path
       d="M3180 2053 c-20 -29 -22 -42 -17 -102 3 -41 1 -73 -5 -79 -11 -11 -2 -52 13 -52 12 0 12 -87 -1 -111 -9 -15 -7 -21 7 -26 10 -4 24 -13 31 -20 18 -17 77 -17 92 2 8 10 11 64 11 180 -1 109 2 165 9 165 6 0 -1 18 -16 39 -23 36 -30 40 -64 38 -30 -1 -42 -7 -60 -34z"
       id="path20" />
    <path
       d="M2060 2044 c-14 -7 -28 -24 -31 -36 -3 -13 -4 -99 -2 -193 4 -183 11 -208 56 -217 36 -7 51 5 85 65 21 37 28 61 25 82 -3 17 -7 48 -9 70 -11 103 -37 198 -62 228 -17 20 -28 20 -62 1z"
       id="path22" />
    <path
       d="M2196 1654 c-18 -17 -24 -39 -31 -104 -2 -25 -5 -47 -6 -50 -2 -5 -3 -17 -12 -132 -4 -59 -2 -69 17 -86 28 -25 86 -37 86 -17 0 7 9 16 19 20 11 3 26 19 33 35 7 17 16 30 20 30 12 0 10 27 -6 105 -8 39 -20 99 -26 135 -7 36 -17 68 -23 72 -20 13 -55 9 -71 -8z"
       id="path24" />
    <path
       d="M2455 1646 c-14 -14 -23 -31 -20 -38 11 -29 13 -153 3 -165 -7 -9 -7 -17 -1 -25 9 -11 17 -44 27 -108 1 -8 9 -32 16 -52 13 -34 17 -38 50 -38 55 0 71 23 59 83 -5 28 -5 56 0 65 5 10 8 54 6 98 -1 65 -6 88 -23 112 -12 16 -22 35 -22 41 0 16 -38 51 -55 51 -9 0 -27 -11 -40 -24z"
       id="path26" />
    <path
       d="M2796 1644 c-9 -8 -19 -27 -22 -42 -4 -15 -10 -31 -14 -37 -19 -24 -21 -85 -6 -145 9 -34 16 -72 16 -84 0 -74 43 -108 99 -80 49 25 65 50 62 102 -1 26 -2 58 -3 71 0 13 -9 39 -19 58 -15 26 -17 38 -9 48 12 14 5 54 -17 98 -16 31 -61 37 -87 11z"
       id="path28" />
    <path
       d="M3114 1629 c-14 -27 -14 -40 -4 -92 8 -42 8 -63 1 -70 -14 -14 -14 -77 -1 -77 16 0 12 -36 -5 -50 -13 -11 -14 -15 -2 -29 8 -9 22 -32 31 -51 11 -22 30 -41 54 -52 36 -18 37 -18 61 6 21 22 24 32 22 102 -1 43 -7 84 -14 92 -6 8 -12 28 -13 46 -7 109 -18 159 -41 182 -34 34 -69 31 -89 -7z"
       id="path30" />
    <path
       d="M3530 4371 c-57 -31 -130 -110 -130 -142 0 -16 -9 -23 -30 -21 -3 0 -6 -14 -7 -31 -1 -18 -5 -62 -8 -98 -6 -55 -4 -73 14 -112 26 -56 31 -60 95 -61 50 -1 52 0 124 72 49 48 80 72 96 72 27 0 55 25 35 32 -13 4 -16 84 -4 137 5 25 2 44 -15 77 -45 86 -101 111 -170 75z"
       id="path32" />
  </g>
  <path
     style="fill:#ffffff;stroke-width:0"
     d="m 314.42016,790.1334 c -10.73883,-5.09409 -28.94077,-16.29784 -31.51276,-19.3969 -0.7056,-0.85019 -1.82347,-1.5458 -2.48417,-1.5458 -1.17018,0 -16.08557,-11.86463 -18.0837,-14.3849 -0.55085,-0.6948 -1.73436,-1.53776 -2.63003,-1.87326 -2.6268,-0.98393 -10.88145,-17.1502 -12.02728,-23.55474 -0.56655,-3.1667 -1.44531,-7.14529 -1.95281,-8.8413 -2.50002,-8.35488 -3.08296,-21.50085 -3.01156,-67.91455 0.0788,-51.26348 -0.64038,-66.19842 -3.85032,-79.95139 -3.28392,-14.06994 -12.07137,-42.11588 -14.63732,-46.71636 -1.33956,-2.40171 -2.90767,-6.11996 -3.48467,-8.26279 -0.57701,-2.14284 -1.48243,-3.89606 -2.01205,-3.89606 -0.52962,0 -0.96295,-0.69103 -0.96295,-1.53562 0,-1.98995 -4.4456,-10.77236 -8.29473,-16.38648 -1.65963,-2.42065 -8.18258,-10.08251 -14.49545,-17.02636 -12.03491,-13.23782 -50.42604,-58.59177 -54.47702,-64.35725 -1.29583,-1.84426 -3.65185,-4.89787 -5.23561,-6.78579 -1.58375,-1.88792 -3.506,-4.81746 -4.27166,-6.51008 -0.76566,-1.69262 -3.26608,-6.00703 -5.55649,-9.58757 -7.22369,-11.29263 -14.83249,-25.38883 -15.94811,-29.54573 -0.59134,-2.20342 -1.70954,-5.48627 -2.48487,-7.29523 -0.77534,-1.80896 -1.4097,-4.37387 -1.4097,-5.6998 0,-1.32593 -0.41602,-2.6679 -0.92449,-2.98216 -0.50848,-0.31425 -1.24265,-2.03096 -1.6315,-3.81492 -0.38885,-1.78395 -1.77478,-6.52246 -3.079842,-10.53002 -4.165899,-12.79257 -5.15298,-34.82491 -2.186325,-48.80036 1.024292,-4.82527 8.234247,-19.49372 12.004437,-24.42266 1.00486,-1.31371 1.82702,-3.06651 1.82702,-3.89513 0,-0.82861 2.38283,-4.26074 5.29518,-7.62695 2.91235,-3.3662 7.75264,-9.27526 10.75619,-13.13122 8.32773,-10.69115 30.0981,-33.61274 38.79083,-40.84207 10.3185,-8.58141 13.34107,-10.03295 20.67531,-9.92896 6.4744,0.0918 6.24637,0.20812 28.78181,-14.68064 11.59498,-7.6606 16.36576,-9.41437 19.76018,-7.26397 1.11022,0.70333 0.94357,1.44386 -0.87995,3.91031 -1.61739,2.18764 -2.06506,3.77765 -1.59309,5.65816 0.72694,2.89637 5.90636,6.55001 9.29356,6.55582 2.45702,0.004 6.33238,-4.33198 6.33238,-7.08538 0,-1.821 3.50128,-4.92948 5.5524,-4.92948 0.60527,0 5.18736,2.59152 10.18242,5.75892 4.99506,3.1674 9.92061,6.26013 10.94566,6.87274 1.72755,1.03245 1.55272,1.45156 -2.39288,5.73654 -2.34112,2.54249 -4.25659,5.39684 -4.25659,6.34299 0,0.94616 1.21107,2.98437 2.69126,4.52936 3.27813,3.42163 8.13539,3.78312 10.82967,0.80597 3.00384,-3.31921 5.23921,-2.46302 9.0264,3.45731 1.92114,3.00323 3.49298,5.77665 3.49298,6.16315 0,0.38651 -1.80279,2.36706 -4.0062,4.40124 -4.75698,4.39163 -5.45525,8.88697 -1.78024,11.46104 2.87633,2.01466 7.65124,1.99474 9.90106,-0.0414 0.97266,-0.88024 2.25878,-1.29741 2.85806,-0.92704 0.93103,0.57541 8.05058,13.74931 8.05058,14.89666 0,0.22032 -1.35209,0.671 -3.00465,1.00151 -3.6389,0.72778 -3.705,1.47509 -0.56306,6.36545 3.88009,6.03932 5.3709,7.30572 8.60025,7.30572 2.38589,0 3.2496,0.58508 4.06583,2.75426 0.57001,1.51484 2.60275,4.36684 4.5172,6.33777 2.1934,2.25813 3.705,4.96512 4.08699,7.31906 0.52677,3.24607 0.19665,4.15811 -2.51935,6.96031 -1.71905,1.7736 -3.41465,4.67029 -3.76801,6.43708 -0.5461,2.73051 -0.17558,3.64848 2.47024,6.12004 5.74011,5.36206 10.36652,4.98801 11.6693,-0.94347 0.3546,-1.61449 1.24816,-2.93544 1.98569,-2.93544 0.73753,0 3.74394,2.05788 6.68089,4.57307 2.93696,2.51519 6.59723,4.82859 8.13395,5.1409 1.53672,0.31231 5.06719,2.61158 7.84547,5.1095 l 5.05143,4.54167 4.77231,-1.71609 c 4.63449,-1.66655 18.62173,-3.57346 26.47605,-3.60955 3.23044,-0.0148 3.78301,0.27285 3.33218,1.73492 -2.01773,6.54366 -5.35072,16.01111 -8.20985,23.32026 -1.83892,4.70106 -4.79172,15.74316 -6.56179,24.53798 -2.68576,13.34459 -3.29872,18.99562 -3.70435,34.15084 -0.57724,21.56735 0.0708,24.38315 8.01482,34.82292 6.40627,8.41895 11.39602,12.07256 19.24121,14.08885 14.62198,3.75801 38.76574,0.53519 48.63443,-6.49194 1.5366,-1.09416 3.45058,-1.98938 4.25329,-1.98938 3.17348,0 18.9527,-8.31571 24.45387,-12.88729 7.67425,-6.37745 9.95414,-7.57521 10.70325,-5.62305 0.84905,2.21257 2.7824,1.82257 7.95737,-1.6052 3.48899,-2.311 4.95978,-4.07705 5.83877,-7.01085 0.64623,-2.15692 1.55432,-3.92167 2.01798,-3.92167 0.46366,0 0.84302,-0.7336 0.84302,-1.63021 0,-0.89661 2.1984,-4.61487 4.88535,-8.26279 5.90295,-8.01412 8.33415,-12.74059 10.59723,-20.60193 1.7912,-6.22208 6.11293,-15.42199 10.10811,-21.51768 1.28814,-1.96539 4.13901,-8.53111 6.33528,-14.59049 2.19627,-6.05938 5.13302,-13.74582 6.52613,-17.08096 3.52286,-8.43386 5.61611,-21.64682 5.61611,-35.44985 0,-13.87347 -1.33884,-19.19681 -7.05073,-28.03421 -8.6661,-13.40814 -17.87227,-20.87382 -33.55856,-27.21406 -7.27061,-2.93871 -9.14973,-3.25978 -21.52907,-3.6785 -7.48553,-0.2532 -17.58336,0.0612 -22.53488,0.70163 -23.99169,3.10307 -43.89941,20.57055 -59.00302,51.77053 l -6.35425,13.1262 -4.55074,1.14589 c -6.348,1.59845 -22.64674,1.52368 -23.11819,-0.10605 -0.1992,-0.68857 -0.87177,-3.74671 -1.49462,-6.79587 -0.97022,-4.74978 -1.61467,-5.80362 -4.49888,-7.35688 -5.36026,-2.88669 -6.80097,-1.98908 -9.4717,5.90114 -2.78598,8.23066 -2.98709,8.52486 -4.26567,6.24017 -0.67099,-1.19896 -2.21317,-1.74433 -4.93263,-1.74433 -2.84913,0 -3.95644,-0.42047 -3.95644,-1.50233 0,-0.82628 -0.45069,-1.50233 -1.00155,-1.50233 -0.55085,0 -1.0077,-1.46476 -1.01522,-3.25503 -0.0228,-5.43597 -1.0481,-7.5997 -4.59176,-9.6905 -6.49646,-3.83301 -8.98116,-10.86089 -5.91702,-16.7361 1.92426,-3.68959 1.94684,-7.37573 0.0452,-7.37573 -0.80482,0 -2.35351,-0.95551 -3.44151,-2.12336 -1.7396,-1.86723 -2.37053,-1.98659 -5.23064,-0.98955 -2.52444,0.88002 -3.45071,0.8509 -4.13832,-0.13013 -1.99461,-2.84581 -6.75726,-13.40011 -6.75799,-14.97614 -4.1e-4,-0.93148 -0.45147,-1.97216 -1.00232,-2.3126 -2.19049,-1.3538 -0.90292,-2.64137 2.0031,-2.0031 3.3157,0.72825 3.68689,-0.0153 1.47048,-2.94569 -0.80876,-1.06928 -1.47048,-2.95437 -1.47048,-4.1891 0,-1.3303 -0.77961,-2.4924 -1.9135,-2.85228 -1.05243,-0.33403 -2.63076,-1.702 -3.50742,-3.03995 -0.89477,-1.36559 -2.20223,-2.19919 -2.98075,-1.90044 -0.81865,0.31415 -2.33984,-0.82749 -3.71284,-2.78646 -1.2793,-1.82525 -3.13427,-3.90835 -4.12217,-4.62911 -1.42014,-1.03611 -1.66455,-2.13363 -1.16744,-5.24241 0.74004,-4.62793 -1.52307,-8.97115 -4.67455,-8.97115 -1.16604,0 -2.48041,-1.05116 -3.14888,-2.51827 -0.83759,-1.8383 -1.66236,-2.35481 -3.05461,-1.91293 -1.39978,0.44427 -3.5756,-0.95088 -8.17796,-5.24376 -3.44892,-3.21699 -9.72653,-7.80163 -13.95027,-10.18808 -6.22574,-3.5176 -7.67953,-4.79303 -7.67953,-6.73738 0,-1.45306 -0.98689,-3.045 -2.50388,-4.03897 -3.26349,-2.13832 -3.1615,-2.69114 0.75117,-4.07172 1.79027,-0.63169 9.33945,-3.67598 16.77597,-6.76509 7.56331,-3.14178 16.38941,-6.05883 20.031,-6.62031 3.58055,-0.55207 8.31287,-1.66582 10.51628,-2.47501 2.20341,-0.80918 8.96388,-2.34721 15.02326,-3.41783 6.05938,-1.07062 16.20008,-3.16073 22.53488,-4.64468 11.00837,-2.57875 12.30789,-2.66968 29.37963,-2.05573 24.00792,0.86339 42.911,2.41335 50.45812,4.13732 3.42308,0.78193 10.63424,1.69484 16.02481,2.02869 10.34659,0.64078 19.6006,2.84557 30.30775,7.2209 3.56677,1.45751 8.52445,2.97139 11.01706,3.36418 6.79384,1.07058 18.8067,4.69321 22.92538,6.91343 2.00241,1.07941 8.95775,4.19582 15.45632,6.92534 6.49856,2.72953 13.20077,6.12834 14.89378,7.55291 1.69301,1.42458 4.48855,3.18754 6.21232,3.91771 11.38695,4.82335 33.18146,26.86898 53.4129,54.02832 7.09672,9.52686 15.32278,24.57061 15.32278,28.02216 0,0.92376 0.43109,1.67957 0.95798,1.67957 1.23205,0 5.20301,12.59712 8.20863,26.04031 2.23639,10.00266 2.34724,12.25282 2.26955,46.07132 l -0.0817,35.55504 -3.5528,16.71842 c -2.17614,10.24024 -4.70782,19.16628 -6.53358,23.03566 -4.09522,8.67907 -11.40239,18.04741 -18.02652,23.11133 -3.04938,2.33116 -8.75143,7.06325 -12.67124,10.51575 -3.9198,3.45251 -10.2645,8.41018 -14.09934,11.01706 -10.14473,6.89626 -18.89832,16.08766 -28.83702,30.2793 -4.82216,6.88566 -13.02408,18.55052 -18.22648,25.92194 -7.57036,10.72662 -11.09735,17.02544 -17.6652,31.54809 -4.51346,9.98005 -8.98691,20.87519 -9.94099,24.21141 -0.95407,3.33622 -2.49564,7.5374 -3.4257,9.33595 -1.42151,2.7489 -1.9322,3.06993 -3.20419,2.01428 -2.03677,-1.69041 -5.37292,-8.36026 -5.37292,-10.74201 0,-2.00684 1.73715,-3.84413 5.36496,-5.6742 1.85576,-0.93616 2.14479,-1.93898 2.13275,-7.40011 -0.0119,-5.42066 -0.34935,-6.58882 -2.37744,-8.23107 l -2.36354,-1.91387 1.25913,-12.75923 c 0.69252,-7.01759 0.97242,-14.78738 0.62198,-17.26622 -0.35044,-2.47884 -0.79273,-6.43313 -0.98289,-8.7873 -0.2216,-2.74362 -1.17936,-5.16769 -2.6677,-6.75195 -2.02295,-2.15334 -2.33275,-3.53676 -2.40576,-10.74293 -0.0836,-8.25516 -0.0892,-8.27193 -2.83807,-8.58822 -1.99612,-0.22968 -2.75427,-0.8766 -2.75427,-2.35019 0,-1.1183 -1.74631,-4.01719 -3.88069,-6.44197 -2.13438,-2.42479 -4.13113,-5.66087 -4.43721,-7.19129 -0.78168,-3.90844 -7.55952,-7.67454 -12.23368,-6.79766 -6.13302,1.15056 -9.26028,7.60813 -5.9637,12.31464 0.84046,1.19993 2.91668,5.46917 4.61383,9.48719 1.69715,4.01802 3.75784,8.06581 4.5793,8.9951 2.17919,2.46521 1.0074,3.45563 -4.91889,4.15751 -6.87337,0.81405 -10.21829,3.30661 -10.61335,7.90884 -0.24485,2.85242 0.21986,3.95352 2.38856,5.65941 2.20933,1.73787 4.07032,2.11797 10.36958,2.11797 4.38254,0 8.1639,-0.48688 8.81156,-1.13454 2.26412,-2.26411 4.27384,-0.14266 4.27384,4.51142 0,4.01256 -0.47588,4.89738 -4.92929,9.16537 -2.71111,2.59822 -5.20835,5.83596 -5.54944,7.19496 -0.85403,3.40272 2.26641,9.33006 5.97175,11.34349 2.05791,1.11823 3.00465,2.39455 3.00465,4.05058 0,2.03734 -0.67227,2.55971 -4.27144,3.31898 -4.7224,0.9962 -11.25259,7.1247 -11.25259,10.5604 0,2.12155 4.8555,6.07461 7.46138,6.07461 3.03328,0 6.31691,4.5193 7.53026,10.36399 0.64516,3.1077 2.72062,8.24423 4.61214,11.41451 3.41605,5.72545 11.41597,13.27576 14.06633,13.27576 2.00896,0 1.75964,4.73923 -1.03358,19.64681 -3.14589,16.78985 -4.59312,31.75232 -4.59312,47.48701 v 12.70221 l -4.91663,9.40834 c -2.70414,5.17459 -6.81012,14.81672 -9.1244,21.42695 -4.74327,13.54813 -8.49537,21.55078 -14.79191,31.54884 -1.2142,1.92798 -2.20932,4.11641 -2.21137,4.86317 -0.005,1.64397 -1.89902,4.1234 -18.32262,23.97985 -2.86966,3.46947 -6.66894,8.20179 -8.44285,10.51627 -1.7739,2.31449 -4.16363,5.43463 -5.3105,6.93366 -2.343,3.06245 -18.13922,13.80007 -20.30141,13.80007 -0.76979,0 -2.19944,0.88378 -3.17698,1.96395 -2.3216,2.56534 -11.61571,7.32342 -18.56412,9.50381 -3.02969,0.95071 -6.86062,2.3265 -8.51318,3.05731 -4.73117,2.09224 -14.0465,3.53313 -26.54108,4.10536 l -11.51783,0.52749 z m 120.08702,-91.38213 c 1.82019,-2.45458 2.07752,-4.0829 1.91872,-12.14085 -0.10619,-5.38778 -0.78651,-10.7495 -1.6158,-12.73427 -0.78781,-1.88551 -1.74512,-7.01352 -2.12735,-11.39559 -1.43925,-16.5008 -5.05142,-22.91805 -12.54564,-22.28819 -3.00531,0.25258 -3.84893,0.89306 -5.42415,4.118 -1.69152,3.46305 -1.75194,4.54788 -0.64837,11.64198 0.89398,5.74669 0.92386,8.37076 0.11263,9.88657 -1.44324,2.6967 -1.41312,8.7388 0.0553,11.09006 1.14739,1.83726 0.87224,3.2121 -1.22647,6.12838 -0.83445,1.15953 -0.21526,2.95593 2.71361,7.87275 6.43136,10.79664 14.18693,14.02524 18.78756,7.82116 z m -90.83473,-1.17878 c 1.96826,-1.37862 2.17077,-2.48711 2.33285,-12.76976 0.408,-25.88417 0.14966,-28.77733 -3.15183,-35.2973 -3.18723,-6.29433 -7.90623,-11.51783 -10.40541,-11.51783 -0.8089,0 -2.87634,1.25592 -4.59432,2.79093 l -3.1236,2.79093 -0.0501,15.08461 c -0.0276,8.29653 0.22365,15.52761 0.55829,16.06907 0.33464,0.54145 1.52628,5.18988 2.64809,10.32983 2.66891,12.22853 3.87152,14.0292 9.36965,14.0292 2.34357,0 5.23095,-0.67935 6.4164,-1.50968 z m 38.93185,-3.39424 c 7.03159,-3.19358 8.43791,-5.95427 8.41247,-16.51409 -0.0168,-6.97251 -0.498,-10.1785 -2.03679,-13.57047 -1.49019,-3.28483 -1.85043,-5.53725 -1.38354,-8.6507 0.47274,-3.15248 0.0942,-5.42363 -1.50758,-9.04469 -2.51674,-5.68952 -3.38632,-6.37189 -8.14606,-6.39227 -4.40393,-0.0188 -6.71653,2.37418 -9.66405,10.00017 -3.42299,8.85613 -3.54064,11.14518 -1.24485,24.22161 2.71567,15.46801 3.92254,19.00675 7.01599,20.57211 3.19933,1.61896 3.70135,1.58248 8.55441,-0.62167 z m -82.00523,-1.45995 c 0.44051,-0.74586 1.72728,-1.84152 2.85951,-2.4348 1.13221,-0.59327 2.92481,-2.68721 3.98356,-4.65318 1.05875,-1.96598 2.27321,-3.57451 2.69879,-3.57451 1.4915,0 0.74425,-6.71593 -2.67447,-24.03691 -3.53248,-17.89741 -4.47115,-20.0313 -8.8115,-20.0313 -3.54724,0 -7.58651,2.91399 -8.65281,6.24227 -1.64114,5.12253 -4.25869,30.69548 -3.92582,38.35458 0.2872,6.60871 0.45006,7.0133 3.70356,9.20132 3.76859,2.53441 9.5774,3.03508 10.81918,0.93253 z m -15.51888,-46.46791 c 1.42099,-1.51485 3.82534,-5.2331 5.34301,-8.26279 l 2.75938,-5.50853 -1.19923,-10.51628 c -1.59846,-14.01733 -4.75119,-27.21826 -7.46598,-31.26118 -3.15105,-4.69259 -7.59948,-5.0046 -11.77798,-0.82609 l -3.09579,3.09578 0.44782,23.76009 c 0.47361,25.12719 1.22615,29.70501 5.14328,31.28688 4.02697,1.62625 7.19529,1.05734 9.84549,-1.76788 z m 35.29248,-0.47324 c 0.85751,-1.22427 1.55911,-3.11012 1.55911,-4.19076 0,-1.08066 0.95492,-3.93743 2.12206,-6.34839 1.6356,-3.37871 2.0043,-5.5749 1.60838,-9.58055 -1.74053,-17.60983 -3.0185,-26.77167 -4.28741,-30.73652 -0.79332,-2.47884 -1.9,-6.38047 -2.4593,-8.67029 -0.82142,-3.363 -1.62063,-4.37377 -4.15752,-5.25814 -4.33753,-1.51207 -8.37787,-1.3694 -9.8016,0.3461 -0.65773,0.79251 -1.75169,5.20017 -2.43102,9.79482 -0.67932,4.59463 -1.56373,8.88555 -1.96535,9.53538 -0.40161,0.64982 -0.31956,1.98856 0.18233,2.97495 2.7045,5.31531 3.18853,9.25708 2.20241,17.93562 -0.98056,8.62954 -0.44535,13.09788 2.08529,17.40978 0.48494,0.82628 1.30289,2.47091 1.81765,3.65474 2.32139,5.33856 10.63182,7.2638 13.52497,3.13326 z m 85.58024,-3.03219 c 0.46357,-1.23942 1.36752,-5.40837 2.00879,-9.26434 0.64125,-3.85597 1.67509,-8.29256 2.29742,-9.85908 0.9045,-2.27681 0.82222,-3.38197 -0.41012,-5.50853 -0.8479,-1.46316 -1.85428,-5.81518 -2.23638,-9.67115 -1.02179,-10.31098 -3.36081,-23.30769 -4.61721,-25.6553 -2.7058,-5.05583 -10.32482,-5.32031 -14.83907,-0.51511 -2.08991,2.22459 -2.10876,2.57982 -1.09984,20.72697 0.56458,10.15498 1.47344,21.52612 2.01969,25.2692 1.24663,8.54226 4.48191,15.72928 7.08062,15.72928 1.04104,0 1.8928,-0.4507 1.8928,-1.00155 0,-1.59219 4.00823,-1.16012 4.64556,0.50077 0.83575,2.17791 2.28738,1.84319 3.25774,-0.75116 z m -46.95279,-3.00465 c 1.23077,-2.01859 1.98606,-5.03804 1.98838,-7.94894 0.004,-4.56272 0.0948,-4.70268 3.25879,-5.00776 3.82138,-0.36845 3.8362,-0.58945 0.82626,-12.33245 -1.12955,-4.40682 -2.98503,-12.51938 -4.1233,-18.0279 -1.13826,-5.50853 -2.69158,-10.64583 -3.45183,-11.41624 -1.47555,-1.49526 -10.16667,-3.18199 -12.25887,-2.37914 -2.68632,1.03084 -3.52437,7.75609 -2.79407,22.42174 0.39465,7.92511 0.65246,18.57825 0.57291,23.67364 -0.0959,6.14896 0.22526,9.26434 0.95534,9.26434 0.60499,0 2.75813,1.12674 4.78477,2.50387 5.06681,3.44299 7.80694,3.24202 10.24162,-0.75116 z m 80.21301,0.37084 c 2.2792,-1.84558 2.33754,-2.35335 2.96293,-25.78992 l 0.63795,-23.90728 -2.70423,-3.50542 c -2.32075,-3.00833 -3.37936,-3.54934 -7.46504,-3.81503 -5.15193,-0.33503 -7.65048,1.11424 -10.02646,5.81576 -1.95142,3.86144 -2.70206,27.7352 -0.92784,29.50942 1.67692,1.67692 1.90104,11.74968 0.32688,14.69103 -1.36683,2.55396 -0.1848,4.04689 5.38834,6.80556 5.20671,2.5773 8.79308,2.63679 11.80747,0.19588 z M 363.9572,492.29661 c 4.15323,-1.35811 9.49482,-2.96204 11.87018,-3.56429 6.17538,-1.5657 11.44502,-6.82239 19.93753,-19.88854 5.60521,-8.6239 7.65867,-12.7484 8.43333,-16.93895 1.30649,-7.06746 0.4353,-12.22421 -2.06518,-12.22421 -1.00929,0 -2.42019,-0.70502 -3.13533,-1.56672 -0.81003,-0.97602 -2.15475,-1.35224 -3.56668,-0.99787 -1.24654,0.31286 -2.546,0.11649 -2.88769,-0.43639 -0.90912,-1.47096 -3.5077,-1.22767 -3.5077,0.32843 0,0.73351 -2.26113,2.79882 -5.02475,4.58957 -2.76361,1.79076 -5.67509,4.51356 -6.46996,6.05067 -0.79488,1.53712 -2.36468,3.0352 -3.48843,3.32908 -1.35241,0.35365 -2.04322,1.36062 -2.04322,2.97831 0,1.43793 -1.44299,3.92981 -3.50542,6.05342 -1.92799,1.98518 -3.50543,4.20924 -3.50543,4.94236 0,0.73311 -2.73838,4.02301 -6.08528,7.31088 -9.57597,9.40707 -11.02918,13.85528 -6.34507,19.42203 1.42611,1.69482 2.873,3.0815 3.21533,3.0815 0.34233,0 4.02053,-1.11118 8.17377,-2.46928 z m -25.73134,-1.00397 c 6.11371,-2.55447 7.98157,-13.74014 3.23616,-19.37975 -1.37714,-1.63664 -2.50388,-3.45815 -2.50388,-4.04781 0,-0.58967 -1.01407,-1.6065 -2.25349,-2.25963 -1.23942,-0.65313 -5.85907,-4.92665 -10.26589,-9.49673 -6.66668,-6.91366 -8.68526,-8.42089 -12.0186,-8.97406 -2.20342,-0.36565 -5.49673,-1.51635 -7.31849,-2.55711 -5.16723,-2.95199 -8.65287,-2.48526 -11.74837,1.57315 -3.46686,4.54529 -2.85386,7.23325 4.0179,17.61812 5.92978,8.9613 14.31564,18.18859 19.97851,21.98312 2.05519,1.37713 4.89483,3.51794 6.31029,4.75736 3.004,2.63037 7.47781,2.90927 12.56586,0.78334 z m -55.68773,-69.67386 c 1.63371,-0.56951 4.59056,-2.97372 6.57077,-5.3427 3.11803,-3.73016 4.51805,-4.53144 10.44963,-5.98073 3.76707,-0.92042 9.66264,-3.04973 13.10127,-4.73179 7.50976,-3.67353 10.63005,-8.23562 12.72536,-18.60536 1.98307,-9.81426 2.78686,-29.22859 1.6972,-40.99302 -1.02889,-11.10817 -1.56645,-13.11399 -10.71776,-39.99154 -4.60082,-13.51261 -10.69099,-23.23968 -24.76957,-39.56124 -15.30749,-17.74626 -36.53099,-33.22129 -54.51428,-39.74887 -3.70947,-1.34646 -7.32808,-2.93246 -8.04136,-3.52443 -0.71329,-0.59198 -5.45604,-1.28465 -10.53946,-1.53928 -9.71081,-0.48641 -10.43791,-0.30876 -34.34019,8.39022 -5.4841,1.99588 -19.50135,13.60872 -24.62081,20.39756 -5.34055,7.08202 -9.74462,16.44701 -10.76244,22.88568 -0.44145,2.79264 -1.38185,5.77543 -2.08978,6.62842 -1.44169,1.73713 -1.27461,3.0623 2.34009,18.56032 3.57481,15.32702 9.19034,31.40153 14.19667,40.63814 11.87887,21.91637 35.80701,53.50759 40.52825,53.50759 0.54927,0 0.99867,0.69019 0.99867,1.53376 0,0.84357 0.78872,1.82403 1.75271,2.17881 0.96399,0.35477 3.82549,2.48144 6.35889,4.72592 5.46568,4.84237 16.52124,11.13632 22.28985,12.68965 2.26517,0.60994 6.33528,2.23231 9.04467,3.60527 2.70939,1.37295 7.67462,3.09424 11.03382,3.82507 7.41489,1.61319 23.22671,1.87523 27.3078,0.45255 z"
     id="path42"
     transform="scale(0.75000001)" />
  <path
     style="fill:#ffffff;stroke-width:0"
     d="m 256.83101,404.05698 c -4.68225,-1.38007 -10.81159,-3.61933 -13.62076,-4.97613 -2.80917,-1.35679 -5.68384,-2.4669 -6.38816,-2.4669 -4.69329,0 -27.87692,-18.21325 -34.77476,-27.31935 -13.60404,-17.9592 -27.99568,-43.01771 -33.44334,-58.23106 -3.59036,-10.02657 -3.91562,-11.79044 -3.91562,-21.23408 0,-18.01663 2.34222,-23.16941 16.34702,-35.96268 10.10316,-9.22917 20.18331,-13.42504 36.29892,-15.10945 5.82887,-0.60924 6.33425,-0.46148 17.49136,5.11396 14.32568,7.15883 35.73445,21.043 36.58641,23.72726 0.35122,1.1066 4.65903,6.3622 9.57292,11.6791 9.29424,10.05649 13.6348,16.85045 11.88406,18.6012 -0.64402,0.64401 -1.39887,0.5687 -2.18565,-0.21807 -1.87021,-1.87022 -4.80744,-1.46321 -4.80744,0.66617 0,1.02742 -0.9014,3.01397 -2.0031,4.41456 -1.10171,1.40059 -2.0031,2.81347 -2.0031,3.13972 0,1.4107 6.77067,0.4074 9.51473,-1.40991 4.58075,-3.03372 6.3524,-2.56623 8.54015,2.25349 1.06267,2.34112 1.94481,5.15798 1.9603,6.25969 0.0155,1.1017 0.69638,3.28429 1.51309,4.8502 4.14577,7.94884 8.52752,31.46389 8.4984,45.60743 -0.0254,12.33203 -1.57808,23.05165 -3.67446,25.36812 -2.10759,2.32886 -12.25383,5.45576 -23.72119,7.31047 -9.84207,1.59183 -9.98526,1.66783 -12.45149,6.60797 -2.17384,4.35442 -4.31675,4.54146 -15.21829,1.32829 z m 0,-60.5252 c 1.37713,-1.0772 3.04169,-1.96857 3.69902,-1.98082 1.80632,-0.0337 4.31338,-4.13979 4.31338,-7.06456 0,-1.4247 0.66172,-3.46523 1.47048,-4.53451 2.39453,-3.16586 1.80573,-8.4438 -1.61353,-14.46352 -3.60379,-6.34459 -18.62165,-21.60327 -24.11027,-24.49689 -3.36289,-1.77293 -4.37035,-1.85088 -10.45384,-0.80882 -7.69379,1.31789 -13.69491,4.95796 -16.72374,10.14403 -1.90027,3.2537 -1.90537,3.54808 -0.19915,11.48809 1.99514,9.28448 4.30292,14.30911 9.33948,20.33445 3.65374,4.37105 11.61586,9.37945 14.91101,9.37945 1.0423,0 2.81444,0.64393 3.93808,1.43096 1.77536,1.24351 3.5951,1.6234 11.42288,2.38461 0.82628,0.0803 2.62907,-0.73526 4.0062,-1.81247 z"
     id="path44"
     transform="scale(0.75000001)" />
  <path
     style="fill:#ffffff;stroke-width:0"
     d="m 413.07287,411.74034 c -10.93822,-3.87685 -16.58706,-15.43344 -16.45055,-33.65507 0.0819,-10.92582 4.48993,-31.91278 8.94048,-42.56589 1.26571,-3.02969 4.44319,-12.04364 7.06107,-20.03101 11.62683,-35.47447 15.54843,-44.31352 27.60138,-62.21186 3.54944,-5.27084 16.42828,-16.96672 21.95453,-19.93794 6.23629,-3.35299 24.51852,-5.26347 38.72,-4.04621 12.52225,1.07331 17.78282,3.58614 27.38882,13.08283 7.30655,7.22341 10.14272,13.07526 12.10972,24.98584 0.91797,5.55853 0.83829,7.67686 -0.4572,12.15583 -0.86289,2.98333 -2.26981,8.83428 -3.12649,13.00212 -2.68279,13.05214 -11.14502,32.40087 -23.6247,54.01745 -3.33919,5.78396 -8.24083,15.02326 -10.89254,20.53179 -3.89388,8.08892 -5.4737,10.35704 -8.21284,11.79103 -4.82687,2.52695 -9.9922,6.4213 -11.64297,8.77809 -1.79717,2.56582 -15.14328,11.98126 -16.98308,11.98126 -0.76117,0 -5.31014,2.01956 -10.10882,4.4879 -9.34243,4.80556 -20.74231,8.17051 -30.6435,9.04517 -4.5953,0.40595 -7.50038,0.0535 -11.63331,-1.41133 z m 63.80655,-78.49321 c 9.42231,-8.78931 13.47829,-11.74946 16.09907,-11.74946 3.24725,0 4.77509,-2.60851 3.22466,-5.50553 -0.93777,-1.75225 -1.14135,-5.12337 -0.72789,-12.05346 0.34902,-5.85014 0.14903,-10.86958 -0.51026,-12.8069 -1.68325,-4.94618 -6.56767,-11.54012 -9.77799,-13.20025 -3.86314,-1.9977 -10.37248,-1.90467 -14.83305,0.21201 -5.49849,2.60921 -16.10003,13.47132 -16.86082,17.27523 -0.40956,2.04782 -1.458,3.51095 -2.91198,4.06375 -1.99053,0.7568 -2.36627,1.83276 -3.03303,8.68522 -1.47371,15.14574 -1.10592,20.35888 1.83473,26.00605 1.47911,2.84045 3.26643,5.39639 3.97182,5.67984 0.70539,0.28345 4.53106,0.55094 8.50149,0.59443 l 7.21896,0.0791 7.80429,-7.28 z"
     id="path46"
     transform="scale(0.75000001)" />
</svg>
