<?xml version="1.0" encoding="UTF-8" standalone="no"?>
<svg
   xmlns:dc="http://purl.org/dc/elements/1.1/"
   xmlns:cc="http://creativecommons.org/ns#"
   xmlns:rdf="http://www.w3.org/1999/02/22-rdf-syntax-ns#"
   xmlns:svg="http://www.w3.org/2000/svg"
   xmlns="http://www.w3.org/2000/svg"
   xmlns:sodipodi="http://sodipodi.sourceforge.net/DTD/sodipodi-0.dtd"
   xmlns:inkscape="http://www.inkscape.org/namespaces/inkscape"
   version="1.0"
   width="622.000000pt"
   height="690.000000pt"
   viewBox="0 0 622.000000 690.000000"
   preserveAspectRatio="xMidYMid meet"
   id="svg16"
   sodipodi:docname="face11.svg"
   inkscape:version="1.0.1 (3bc2e813f5, 2020-09-07)">
  <defs
     id="defs20" />
  <sodipodi:namedview
     pagecolor="#ffffff"
     bordercolor="#666666"
     borderopacity="1"
     objecttolerance="10"
     gridtolerance="10"
     guidetolerance="10"
     inkscape:pageopacity="0"
     inkscape:pageshadow="2"
     inkscape:window-width="1920"
     inkscape:window-height="1027"
     id="namedview18"
     showgrid="false"
     inkscape:zoom="0.93478261"
     inkscape:cx="414.66667"
     inkscape:cy="460"
     inkscape:window-x="1912"
     inkscape:window-y="-8"
     inkscape:window-maximized="1"
     inkscape:current-layer="svg16" />
  <metadata
     id="metadata2">
Created by potrace 1.16, written by Peter Selinger 2001-2019
<rdf:RDF>
  <cc:Work
     rdf:about="">
    <dc:format>image/svg+xml</dc:format>
    <dc:type
       rdf:resource="http://purl.org/dc/dcmitype/StillImage" />
  </cc:Work>
</rdf:RDF>
</metadata>
  <g
     transform="translate(0.000000,690.000000) scale(0.100000,-0.100000)"
     fill="#000000"
     stroke="none"
     id="g14">
    <path
       d="M3220 6606 c-61 -15 -241 -69 -280 -84 -14 -5 -52 -23 -85 -39 -33 -15 -88 -37 -123 -48 -39 -13 -68 -29 -78 -42 -8 -13 -21 -23 -29 -23 -7 0 -29 -18 -47 -41 -42 -52 -75 -87 -113 -120 -17 -14 -34 -32 -40 -41 -17 -25 -87 -131 -105 -158 -10 -14 -21 -37 -25 -50 -4 -14 -13 -32 -20 -40 -6 -8 -22 -44 -35 -80 -13 -36 -26 -69 -30 -75 -4 -5 -13 -28 -20 -50 -7 -22 -19 -49 -26 -60 -7 -11 -26 -56 -43 -100 -17 -45 -60 -132 -96 -195 -36 -63 -84 -151 -106 -195 -22 -44 -52 -102 -67 -130 -16 -32 -82 -106 -182 -206 -169 -169 -225 -214 -345 -281 -107 -58 -179 -130 -223 -220 -12 -26 -26 -48 -30 -50 -12 -5 -139 -271 -152 -318 -27 -101 -35 -205 -27 -360 8 -168 11 -197 19 -220 3 -8 11 -48 18 -87 6 -40 15 -75 20 -78 4 -3 11 -21 15 -42 8 -43 87 -217 104 -227 6 -4 11 -15 11 -25 0 -10 9 -26 20 -36 11 -10 20 -23 20 -28 0 -12 123 -151 165 -187 30 -26 46 -42 128 -129 27 -28 51 -51 53 -51 2 0 27 -22 56 -49 71 -66 142 -118 201 -150 102 -55 124 -66 149 -83 15 -10 42 -26 60 -36 18 -11 53 -31 78 -46 25 -14 86 -46 136 -71 51 -24 105 -55 120 -68 16 -12 58 -40 94 -62 36 -21 70 -43 75 -47 6 -4 46 -34 90 -67 87 -64 148 -125 177 -175 10 -17 50 -93 88 -170 38 -76 75 -146 83 -155 8 -9 21 -28 28 -42 8 -15 30 -58 49 -95 50 -97 90 -166 110 -189 10 -11 19 -26 21 -32 8 -26 106 -131 157 -169 29 -21 59 -44 65 -49 29 -26 149 -80 227 -102 212 -62 204 -60 403 -74 118 -8 177 -7 230 1 40 7 90 14 112 17 22 2 58 10 80 16 22 6 45 11 50 12 6 0 15 5 20 12 9 11 30 18 100 30 17 3 41 13 55 22 14 9 32 21 41 26 119 75 170 125 228 228 25 42 54 87 65 99 12 13 21 26 21 31 0 4 5 11 12 15 6 4 15 20 19 37 7 28 62 117 77 123 4 2 7 12 7 21 0 10 9 30 20 44 11 14 20 31 20 39 0 7 14 40 31 73 18 33 33 71 35 84 5 43 48 166 66 190 10 13 18 30 18 38 0 15 44 153 60 188 6 11 14 43 20 70 6 28 17 73 25 100 60 208 74 294 68 425 -3 63 -6 127 -6 143 0 15 -3 27 -7 27 -3 0 -12 29 -19 65 -7 36 -17 67 -21 70 -5 3 -9 13 -9 23 0 25 -44 175 -81 272 -17 47 -49 141 -71 209 -22 68 -49 137 -60 152 -11 16 -18 33 -15 37 6 11 -45 153 -90 248 -19 39 -34 74 -34 78 0 3 -16 29 -35 56 -19 27 -35 54 -35 59 0 5 -13 36 -29 68 -16 32 -32 77 -35 100 -3 24 -16 64 -28 90 -21 49 -26 60 -51 123 -8 19 -26 89 -41 155 -15 66 -38 170 -52 230 -13 61 -40 191 -58 290 -19 99 -40 198 -46 220 -7 22 -15 63 -20 90 -5 28 -13 68 -20 90 -6 22 -18 71 -25 110 -20 95 -47 178 -106 320 -7 17 -13 32 -14 35 -5 22 -56 106 -103 169 -115 155 -461 471 -517 471 -9 0 -28 9 -42 20 -14 11 -31 20 -38 20 -6 0 -26 7 -44 16 -17 9 -37 17 -44 18 -7 2 -19 6 -27 9 -75 29 -288 42 -370 23z m212 -106 c135 -26 167 -34 228 -57 75 -29 158 -71 180 -93 8 -8 38 -33 65 -55 76 -60 260 -251 319 -330 68 -92 146 -242 146 -283 0 -9 7 -37 16 -62 18 -49 47 -159 69 -255 7 -33 24 -109 39 -170 14 -60 35 -162 46 -225 45 -245 73 -387 87 -440 8 -30 19 -71 23 -90 4 -19 13 -55 18 -80 20 -86 29 -115 49 -160 11 -25 24 -56 28 -70 4 -14 11 -29 15 -35 4 -5 19 -45 34 -87 25 -71 91 -210 151 -318 14 -25 25 -52 25 -60 0 -9 4 -20 9 -25 5 -6 18 -39 29 -75 12 -36 30 -90 42 -120 12 -30 35 -95 51 -145 16 -49 34 -99 39 -110 17 -36 82 -239 100 -310 10 -38 26 -95 35 -125 39 -128 44 -263 14 -423 -11 -62 -32 -143 -45 -180 -13 -38 -24 -78 -24 -90 0 -13 -7 -33 -16 -45 -9 -13 -14 -32 -11 -43 3 -10 2 -19 -1 -19 -4 0 -18 -35 -31 -78 -14 -42 -35 -96 -47 -119 -12 -24 -26 -58 -29 -75 -4 -18 -11 -38 -15 -43 -5 -6 -14 -33 -21 -60 -7 -28 -20 -56 -30 -63 -10 -6 -23 -38 -30 -68 -7 -31 -23 -72 -36 -91 -13 -19 -21 -39 -18 -44 4 -5 -1 -12 -9 -15 -9 -3 -16 -10 -16 -16 0 -5 -16 -25 -35 -45 -34 -35 -35 -35 -60 -19 -14 9 -25 14 -25 11 0 -3 0 -7 0 -10 0 -3 -9 -14 -20 -25 -26 -26 -25 -53 2 -65 12 -6 26 -18 32 -28 9 -15 7 -22 -11 -36 -12 -10 -31 -35 -43 -56 -29 -51 -82 -115 -97 -115 -7 0 -16 -6 -20 -13 -12 -19 -66 -52 -80 -49 -7 2 -13 -3 -13 -10 0 -17 -27 -34 -70 -43 -19 -4 -45 -13 -56 -20 -12 -8 -50 -19 -85 -25 -35 -7 -73 -17 -84 -23 -12 -6 -99 -12 -210 -14 -165 -3 -202 0 -280 18 -49 11 -105 27 -124 35 -18 8 -46 14 -61 14 -15 0 -33 7 -40 15 -7 8 -17 15 -22 15 -5 0 -44 16 -85 36 -61 29 -95 56 -170 132 -59 58 -96 103 -97 118 -2 13 -12 34 -23 47 -10 12 -26 33 -35 47 -27 44 -134 238 -144 260 -4 8 -16 27 -26 42 -10 14 -18 33 -18 40 0 8 -11 27 -24 43 -21 24 -23 35 -19 85 5 53 4 58 -16 65 -11 3 -21 9 -21 13 0 4 -14 21 -30 39 -17 18 -30 40 -30 51 0 10 -7 33 -16 51 -20 41 -44 130 -36 133 4 0 18 2 33 3 44 3 79 33 79 69 -1 34 -22 121 -32 131 -3 4 -23 3 -43 -1 -35 -6 -37 -8 -32 -38 3 -17 8 -39 12 -49 5 -11 2 -17 -8 -17 -18 0 -23 12 -32 74 -9 60 2 72 75 88 56 11 59 13 53 38 -3 15 2 41 11 57 8 17 12 33 9 36 -3 4 -7 70 -8 148 -1 122 -4 144 -19 155 -17 12 -46 99 -46 140 0 11 -9 29 -20 39 -11 10 -19 23 -16 29 2 6 -8 23 -22 39 -25 27 -26 28 -9 56 24 41 23 117 -3 131 -15 8 -21 6 -30 -10 -6 -11 -17 -20 -24 -20 -8 0 -19 -7 -26 -15 -7 -8 -20 -15 -29 -15 -62 0 -31 -170 45 -248 18 -18 35 -50 40 -70 9 -43 8 -42 18 -64 4 -9 6 -27 4 -40 -2 -18 -9 -23 -28 -21 -46 4 -69 -6 -76 -32 -3 -14 -10 -25 -15 -25 -16 0 -10 -23 13 -47 15 -16 33 -23 60 -23 31 0 38 -3 38 -20 0 -11 -7 -20 -15 -20 -8 0 -15 -5 -15 -12 0 -21 -33 -48 -60 -48 -50 0 -65 -40 -29 -79 15 -16 19 -29 14 -49 -6 -23 -8 -25 -16 -9 -12 20 -28 21 -64 5 -35 -16 -34 -60 3 -103 70 -83 82 -106 82 -156 0 -22 5 -49 11 -61 17 -31 5 -31 -31 2 -19 17 -63 44 -99 62 -36 17 -98 55 -137 84 -95 70 -151 104 -168 104 -8 0 -32 11 -52 25 -20 14 -42 25 -49 25 -6 0 -20 9 -30 20 -10 11 -23 20 -28 20 -5 0 -47 25 -92 55 -45 30 -88 55 -97 55 -16 0 -162 93 -173 110 -3 6 -36 35 -73 64 -72 58 -116 101 -159 154 -14 19 -34 37 -44 40 -14 6 -112 114 -177 197 -20 25 -80 134 -76 138 2 2 -2 10 -11 17 -8 7 -15 21 -15 31 0 11 -4 19 -9 19 -4 0 -14 21 -21 48 -7 26 -17 52 -21 57 -11 15 -30 104 -30 140 -1 17 -5 41 -9 55 -7 20 -18 139 -20 230 -1 51 13 236 19 240 4 3 17 25 29 50 12 25 28 56 35 70 8 14 22 43 32 65 9 22 21 47 26 55 4 8 18 33 30 55 72 134 119 183 249 261 99 59 110 68 275 218 134 122 215 206 215 222 0 8 4 14 8 14 5 0 28 39 51 88 24 48 47 94 52 102 5 8 18 33 29 55 11 22 24 47 30 55 21 32 100 171 100 177 0 3 22 52 49 108 28 56 53 114 57 130 4 16 13 40 20 54 8 14 14 32 14 39 0 8 7 26 14 40 8 15 31 63 51 106 20 44 43 86 51 93 8 8 14 19 14 25 0 5 21 35 47 65 45 53 48 55 86 49 46 -8 83 -26 116 -56 l23 -23 -31 -19 c-22 -14 -31 -28 -31 -46 1 -64 72 -90 108 -40 19 27 34 22 63 -20 28 -40 79 -152 79 -175 0 -10 -22 -16 -84 -20 -94 -7 -126 -21 -126 -55 0 -25 47 -75 62 -66 5 3 46 8 92 11 l83 5 12 -123 c7 -68 13 -146 14 -173 l2 -49 -44 -4 c-25 -2 -57 -13 -73 -24 -64 -46 -11 -105 84 -93 53 7 52 8 49 -59 -2 -34 9 -156 25 -269 4 -30 3 -48 -3 -48 -6 0 -28 -8 -49 -17 -22 -9 -44 -16 -49 -15 -6 1 -10 -16 -10 -38 0 -31 4 -41 23 -49 32 -15 47 -14 91 8 l39 18 21 -47 c11 -25 21 -51 21 -56 0 -5 16 -27 35 -48 34 -38 38 -60 10 -49 -46 17 -93 -34 -76 -81 10 -24 48 -41 65 -28 6 5 40 9 76 11 58 2 70 -1 110 -28 25 -17 49 -31 54 -31 5 0 17 -6 25 -14 9 -7 36 -23 61 -36 25 -12 53 -27 64 -32 10 -5 30 -12 45 -14 37 -7 47 -21 20 -29 -33 -11 -102 -63 -116 -88 -16 -31 0 -55 44 -63 29 -6 39 -3 52 14 9 11 28 24 44 28 15 3 30 10 33 15 6 10 109 59 125 59 40 0 235 -152 222 -173 -3 -5 -25 -18 -50 -29 -30 -13 -49 -30 -60 -53 -20 -42 -8 -61 42 -71 27 -5 41 -1 67 19 47 36 88 40 88 10 0 -10 7 -31 15 -47 19 -36 19 -56 -1 -56 -8 0 -12 -5 -9 -10 5 -8 11 -8 19 -1 9 8 20 3 40 -18 39 -40 81 -45 103 -12 22 33 21 37 -36 123 -63 96 -68 111 -42 144 22 28 29 106 11 134 -12 20 -62 2 -75 -28 -5 -12 -14 -22 -20 -22 -6 0 -40 28 -76 63 -35 34 -81 73 -102 87 -20 14 -35 30 -33 36 3 7 -19 16 -52 23 -190 42 -226 53 -343 116 -21 11 -24 21 -9 30 18 11 11 44 -12 59 -15 9 -45 13 -82 11 -57 -2 -59 -2 -100 42 -22 25 -43 50 -46 57 -3 6 -17 29 -32 51 -47 72 -46 78 21 111 66 32 75 50 52 102 -16 34 -37 36 -72 6 -8 -8 -21 -14 -27 -14 -7 0 -12 -4 -12 -10 0 -5 -8 -10 -19 -10 -22 0 -28 35 -38 220 l-6 127 37 22 c20 13 39 33 42 46 3 14 15 27 25 30 20 7 26 30 10 39 -4 3 -11 19 -14 36 -5 24 -12 30 -32 30 -20 0 -29 -7 -36 -30 -6 -16 -16 -30 -23 -30 -12 0 -31 106 -42 243 -7 75 -6 77 15 77 12 0 20 4 17 9 -4 5 2 23 11 39 17 30 17 31 -7 57 -17 18 -31 24 -47 21 -16 -5 -23 -1 -28 16 -3 13 -20 50 -36 83 -23 47 -28 66 -21 85 5 14 5 34 -1 50 -10 26 -75 80 -97 80 -7 0 -32 17 -54 38 -59 52 -99 82 -111 82 -5 0 -21 9 -34 19 l-23 18 56 44 c33 26 92 59 143 79 49 18 90 37 93 40 3 4 34 17 70 30 36 12 74 26 85 31 31 13 126 39 165 45 19 3 53 10 75 14 57 11 68 11 127 0z"
       id="path4" />
    <path
       d="M2000 4401 c-41 -6 -150 -45 -175 -63 -26 -18 -102 -85 -115 -101 -59 -73 -97 -126 -109 -152 -29 -65 -51 -163 -51 -226 0 -78 25 -221 46 -260 8 -16 14 -37 14 -47 0 -38 99 -153 168 -195 31 -20 86 -45 187 -87 65 -27 138 -41 177 -35 87 14 219 62 261 95 29 23 107 100 107 106 0 3 14 25 30 49 17 24 30 49 30 55 0 6 23 36 52 66 28 30 48 57 45 61 -4 3 -1 13 5 21 8 9 12 56 13 136 0 103 -3 126 -20 157 -11 20 -29 53 -40 75 -11 21 -23 41 -27 42 -5 2 -8 8 -8 14 0 25 -160 193 -194 204 -12 4 -31 15 -44 25 -29 22 -110 46 -182 54 -30 3 -71 8 -90 10 -19 1 -55 0 -80 -4z m270 -130 c54 -20 85 -44 170 -126 51 -49 81 -98 124 -198 19 -44 21 -152 5 -208 -15 -48 -65 -109 -89 -109 -10 0 -25 -7 -34 -15 -8 -8 -27 -15 -43 -15 -36 0 -48 -9 -56 -39 -7 -28 12 -51 42 -51 40 0 35 -23 -15 -67 -54 -48 -123 -77 -213 -92 -55 -9 -67 -7 -138 19 -195 71 -277 132 -307 227 -10 32 -22 69 -27 83 -20 63 -31 142 -28 206 11 184 181 376 359 405 69 11 194 1 250 -20z"
       id="path6" />
    <path
       d="M2148 3943 c-15 -2 -45 -21 -66 -43 -69 -66 -65 -147 9 -186 15 -7 36 -14 46 -14 10 0 24 -9 31 -20 10 -17 16 -18 33 -10 11 6 17 15 15 19 -3 4 6 13 19 19 14 7 25 16 25 21 0 6 6 8 13 5 9 -3 17 11 25 46 15 66 15 71 -3 64 -12 -5 -15 2 -15 29 0 29 -6 39 -34 56 -33 21 -44 22 -98 14z"
       id="path8" />
    <path
       d="M3351 3646 c-17 -20 -20 -83 -10 -211 5 -61 11 -248 15 -416 5 -265 4 -313 -10 -353 -30 -89 -17 -106 98 -130 51 -10 84 -12 134 -4 103 15 231 44 290 67 30 11 59 18 66 15 15 -6 96 63 96 83 0 8 -9 17 -19 20 -18 5 -33 25 -35 48 -2 23 -72 11 -96 -16 -8 -9 -82 -46 -115 -57 -75 -27 -303 -50 -305 -32 -1 3 -4 145 -8 315 -10 471 -8 569 13 619 18 41 -85 87 -114 52z"
       id="path10" />
    <path
       d="M4800 2890 c-14 -4 -38 -15 -54 -23 -16 -9 -34 -13 -40 -11 -6 2 -29 -5 -51 -16 -21 -11 -46 -20 -55 -20 -9 0 -31 -13 -50 -30 -19 -16 -41 -29 -48 -30 -7 0 -10 -4 -7 -10 5 -8 -24 -59 -45 -80 -3 -3 -15 -26 -27 -52 -12 -26 -34 -55 -48 -64 -13 -9 -23 -19 -20 -23 2 -4 -9 -24 -26 -44 -35 -43 -99 -136 -99 -146 0 -14 -76 -84 -104 -97 -17 -8 -40 -20 -51 -27 -11 -6 -42 -26 -70 -43 -27 -17 -75 -46 -105 -65 -74 -47 -91 -57 -118 -68 -12 -6 -28 -15 -35 -21 -48 -42 -254 -190 -263 -190 -7 0 -15 -8 -19 -19 -3 -10 -19 -30 -35 -45 -17 -14 -30 -33 -30 -41 0 -9 -7 -27 -16 -41 -9 -13 -14 -27 -10 -31 3 -4 -1 -17 -10 -30 -8 -13 -14 -34 -14 -46 1 -12 1 -26 0 -32 -6 -28 4 -73 24 -100 29 -41 46 -74 46 -91 0 -8 4 -22 9 -32 6 -9 12 -28 15 -42 3 -16 22 -35 51 -52 30 -18 45 -34 45 -48 0 -11 6 -20 13 -20 6 0 32 -19 56 -41 39 -36 152 -101 224 -128 15 -6 27 -15 27 -20 0 -31 186 -76 295 -72 74 2 108 14 163 59 24 19 45 32 48 30 5 -6 84 68 84 79 0 9 48 33 66 33 7 0 17 6 21 13 9 15 54 42 95 56 15 6 34 25 43 45 10 20 23 36 29 36 20 0 42 34 56 85 7 28 21 68 32 89 10 22 18 46 18 54 0 7 5 23 12 35 7 12 11 32 9 44 -1 11 3 24 8 28 6 3 11 14 11 23 0 9 11 39 25 66 14 27 25 65 25 83 0 19 11 58 24 86 13 29 33 73 45 99 11 26 21 54 21 62 0 8 10 26 23 38 12 13 33 39 47 57 14 19 30 40 37 46 24 25 53 81 53 105 0 14 7 34 16 45 11 15 14 35 9 85 -7 76 -25 161 -37 175 -4 5 -8 21 -8 35 0 14 -4 30 -9 36 -5 5 -16 35 -26 66 -21 68 -85 133 -140 144 -19 3 -39 12 -46 20 -6 8 -22 14 -35 14 -15 0 -24 6 -24 15 0 16 -12 18 -50 5z m-74 -165 c-12 -47 -26 -75 -37 -75 -8 0 -9 -3 0 -14 14 -17 6 -121 -16 -196 -20 -73 -62 -160 -75 -160 -6 0 -19 -6 -27 -14 -9 -8 -39 -16 -66 -19 -54 -5 -64 0 -114 56 l-24 27 19 35 c10 19 23 35 29 35 5 0 19 15 30 34 114 192 157 248 215 283 66 39 74 40 66 8z m216 1 c31 -17 45 -33 55 -62 7 -22 17 -48 23 -59 14 -29 32 -103 37 -157 3 -27 9 -48 14 -48 5 0 6 -12 3 -27 -9 -37 -11 -38 -29 -23 -21 18 -117 50 -128 43 -4 -3 -19 -2 -32 1 -32 8 -59 60 -50 95 4 14 11 51 16 81 24 154 30 180 44 180 3 0 23 -11 47 -24z m-88 -471 c19 -17 43 -27 82 -31 62 -8 76 -20 47 -43 -20 -16 -83 -106 -83 -119 0 -14 -55 -138 -78 -175 -22 -36 -25 -38 -41 -23 -10 9 -22 16 -27 16 -6 0 -22 12 -35 28 -69 74 -96 175 -63 228 32 52 134 140 165 143 3 1 18 -10 33 -24z m-511 -88 c20 -16 37 -35 37 -42 0 -7 6 -15 14 -18 8 -3 31 -31 50 -62 35 -54 36 -57 25 -103 -13 -55 -37 -112 -47 -112 -4 0 -13 -12 -20 -27 -6 -16 -30 -43 -53 -62 -35 -29 -48 -33 -97 -34 -53 0 -64 4 -130 49 -40 26 -72 53 -72 59 0 6 -10 15 -22 20 -13 6 -27 24 -32 43 -5 17 -15 32 -22 32 -8 0 -14 10 -14 23 0 13 -5 28 -11 34 -9 9 -4 19 21 40 18 15 40 32 49 37 148 80 235 133 244 147 13 20 29 16 80 -24z m-504 -293 c8 -26 25 -56 38 -67 12 -11 23 -27 23 -36 0 -8 7 -22 15 -30 16 -19 36 -127 27 -151 -15 -39 -143 -150 -173 -150 -14 0 -71 -30 -92 -48 -10 -9 -39 -17 -65 -18 -44 -2 -49 0 -79 37 -48 60 -69 122 -56 170 7 26 7 41 0 48 -7 7 9 27 48 63 33 29 68 62 80 74 11 11 27 23 35 26 8 4 51 34 94 67 44 34 83 61 86 61 3 0 12 -21 19 -46z m886 -131 c19 -16 35 -35 35 -43 0 -18 -19 -78 -60 -190 -17 -47 -37 -100 -43 -119 -15 -46 -69 -86 -94 -71 -29 19 -73 86 -88 137 -17 55 -22 192 -8 202 5 3 12 14 16 24 3 9 12 17 19 17 7 0 24 16 36 34 13 19 34 37 45 40 46 10 108 -4 142 -31z m-830 -433 c3 -5 14 -10 25 -10 10 0 21 -7 24 -16 3 -9 12 -14 20 -11 8 3 22 -3 32 -14 9 -10 13 -19 9 -19 -5 0 4 -13 19 -29 22 -23 28 -39 29 -79 1 -28 6 -54 10 -58 4 -4 7 -21 7 -37 0 -25 -3 -29 -22 -24 -58 14 -126 43 -151 64 -16 13 -37 23 -47 23 -9 0 -23 7 -30 15 -7 8 -16 15 -21 15 -13 0 -129 80 -129 89 0 5 13 14 30 21 16 7 40 23 54 36 13 14 44 29 67 33 61 12 67 12 74 1z m505 0 c25 -13 67 -83 53 -87 -6 -2 -21 -13 -33 -23 -12 -11 -31 -22 -41 -25 -11 -4 -19 -10 -19 -15 0 -12 -68 -47 -95 -50 -39 -4 -53 0 -58 20 -4 18 -2 20 16 14 21 -6 21 -6 5 13 -24 26 -23 35 7 63 14 13 25 29 25 36 0 7 12 25 27 39 29 27 79 33 113 15z"
       id="path12" />
  </g>
  <path
     style="fill:#ffffff;stroke-width:0"
     d="m 503.13536,829.07428 c -5.17826,-1.09146 -12.37231,-2.98317 -15.98678,-4.2038 -3.61448,-1.22063 -7.50926,-2.21932 -8.65507,-2.21932 -1.14582,0 -8.52533,-3.14165 -16.39893,-6.98145 -13.44112,-6.55498 -15.02973,-7.67138 -26.0057,-18.27553 -7.59867,-7.34127 -12.51721,-13.04121 -14.05336,-16.28599 -1.2998,-2.74555 -3.91849,-7.15819 -5.81932,-9.80586 -1.90082,-2.64768 -8.39654,-13.71977 -14.43492,-24.60466 -13.72272,-24.73677 -13.84422,-24.96451 -13.85221,-25.96479 -0.003,-0.45389 -1.24688,-2.69947 -2.76279,-4.99017 -2.18671,-3.30434 -2.72046,-5.3442 -2.58322,-9.87241 0.26133,-8.62248 0.14091,-9.25783 -1.88151,-9.92632 -5.2236,-1.72659 -11.39136,-13.11095 -16.3477,-30.17433 l -1.91105,-6.57918 4.73663,-0.7103 c 2.60514,-0.39067 6.00853,-1.80435 7.56308,-3.14151 2.32185,-1.99717 2.81319,-3.30837 2.75217,-7.34452 -0.0794,-5.25358 -2.91393,-16.35574 -4.41223,-17.28174 -0.49772,-0.3076 -3.01872,-0.19305 -5.60222,0.25456 -4.32121,0.74869 -4.69436,1.06746 -4.66076,3.98158 0.0201,1.74225 0.3691,4.73227 0.77558,6.64448 0.40649,1.91221 0.30703,3.47675 -0.221,3.47675 -1.39219,0 -3.23143,-6.22528 -3.4443,-11.65795 -0.247,-6.30342 0.9789,-7.17334 14.3532,-10.18539 2.58218,-0.58153 2.94186,-1.16369 2.94186,-4.7616 0,-2.25448 0.48893,-5.50162 1.08653,-7.21588 0.70621,-2.02585 0.79076,-10.22593 0.24153,-23.42707 -0.77028,-18.51443 -1.05352,-20.59402 -3.20341,-23.51955 -1.29712,-1.76512 -3.15625,-6.57907 -4.13138,-10.69768 -0.97513,-4.1186 -2.19488,-8.45116 -2.71055,-9.62791 -1.72248,-3.93062 -6.33611,-11.75018 -7.80399,-13.22686 -1.22151,-1.22883 -1.1333,-2.1585 0.55828,-5.88372 4.45726,-9.81585 0.0125,-22.75243 -5.52485,-16.08029 -0.78333,0.94384 -2.40681,2.1721 -3.60773,2.72944 -1.20093,0.55735 -4.10908,2.11099 -6.46257,3.45252 l -4.27907,2.43915 0.11019,7.93605 c 0.12794,9.21312 2.14668,14.54768 8.87326,23.44767 4.54675,6.01583 9.10679,18.29713 8.46578,22.80042 -0.27326,1.91975 -1.22219,2.4414 -5.29295,2.90971 -4.95709,0.57025 -8.4121,2.44211 -8.4121,4.55755 0,0.61709 -0.76046,1.96229 -1.68991,2.98932 -1.30189,1.43858 -1.42627,2.35998 -0.54165,4.0129 2.07153,3.87068 6.58391,6.59056 10.93397,6.59056 4.38119,0 5.72312,2.21412 2.45157,4.04498 -0.92579,0.51809 -2.26054,2.10655 -2.96613,3.5299 -0.80401,1.62192 -3.07638,3.18689 -6.08771,4.19256 -2.64266,0.88256 -5.39977,1.99412 -6.1269,2.47012 -1.95374,1.27896 -1.5955,5.11901 0.81746,8.76244 1.16899,1.76512 2.12861,4.30354 2.13249,5.64094 0.006,2.34049 -0.092,2.36671 -2.63654,0.6995 -2.45605,-1.60926 -2.93038,-1.59204 -6.68605,0.24277 -5.58745,2.72973 -6.09964,7.68956 -1.42311,13.78056 9.33035,12.15245 10.76784,14.9149 11.70404,22.49193 0.50447,4.08285 0.73559,7.62585 0.51362,7.87333 -0.22197,0.24748 -1.48482,-0.54029 -2.80634,-1.75059 -1.32151,-1.21029 -6.97602,-4.73678 -12.56555,-7.83665 -5.58954,-3.09985 -15.45814,-9.3641 -21.93023,-13.92054 -6.4721,-4.55644 -13.69303,-9.10246 -16.04652,-10.10227 -2.35348,-0.99981 -5.72325,-2.58032 -7.48837,-3.51225 -1.76511,-0.93194 -5.14946,-2.68981 -7.52076,-3.9064 -2.3713,-1.21657 -5.50037,-3.07289 -6.95349,-4.12516 -5.67457,-4.10918 -22.21902,-13.97708 -28.31645,-16.88927 -13.9235,-6.65 -31.38851,-20.87235 -55.6279,-45.29968 -8.82558,-8.89401 -19.17558,-20.08731 -23,-24.874 -7.49563,-9.38162 -19.13682,-31.39449 -23.94549,-45.27966 -5.66699,-16.36358 -9.12268,-50.25054 -7.35469,-72.12103 l 1.16033,-14.35359 10.91696,-21.75107 c 17.83776,-35.5401 22.43883,-41.37968 42.44199,-53.86645 14.19024,-8.8581 16.80847,-10.94972 38.51473,-30.76819 17.52362,-15.9996 27.05687,-25.92319 27.05687,-28.16473 0,-0.67352 0.76676,-1.86095 1.70391,-2.63872 0.93716,-0.77776 4.75281,-7.4985 8.47922,-14.93496 3.72642,-7.43645 10.5022,-19.97707 15.05729,-27.86803 9.82725,-17.02408 23.30495,-45.60617 28.20413,-59.8123 3.04748,-8.83678 11.66515,-27.03681 18.16665,-38.36697 2.81686,-4.90894 11.73433,-15.9253 13.41239,-16.56923 3.46389,-1.32922 13.35789,2.32008 19.1316,7.05649 l 3.06215,2.51202 -3.86448,2.94759 c -3.13992,2.39493 -3.86449,3.64852 -3.86449,6.68596 0,4.31416 3.90608,8.98996 7.51008,8.98996 2.75691,0 6.62914,-1.93946 7.78726,-3.90036 2.46881,-4.18013 6.60542,0.16845 12.99869,13.66478 4.28268,9.04081 5.53221,12.51192 4.59932,12.77656 -0.1471,0.0417 -5.19167,0.70185 -11.21017,1.46694 -6.1787,0.78547 -12.11682,2.16037 -13.63954,3.1581 -3.80149,2.49084 -3.51245,6.46484 0.78258,10.75987 3.36407,3.36407 3.67434,3.45176 9.36047,2.64555 3.23459,-0.45862 8.81157,-0.86901 12.3933,-0.91196 l 6.51222,-0.0781 1.80094,21.12791 c 0.99052,11.62035 1.79083,21.72965 1.77848,22.46511 -0.0134,0.79925 -1.46454,1.33721 -3.60702,1.33721 -7.8752,0 -15.67126,4.61632 -15.67126,9.2795 0,5.26763 6.86082,8.30167 17.11628,7.56929 l 3.74418,-0.26739 0.712,12.86448 c 0.39158,7.07546 1.23403,16.61786 1.87209,21.20531 2.06741,14.86418 2.07536,14.83696 -4.99881,17.13652 -7.88327,2.56256 -8.81784,3.38522 -8.81784,7.76188 0,7.46133 8.22326,10.28962 16.95916,5.8329 l 4.0367,-2.05937 2.95421,7.59331 c 1.62483,4.17631 4.60309,9.60552 6.61836,12.0649 2.01527,2.45937 3.66413,4.78306 3.66413,5.16373 0,0.38069 -1.63155,0.69215 -3.62568,0.69215 -7.65282,0 -11.59752,7.8045 -6.77715,13.4085 l 2.632,3.05989 6.95062,-1.28071 c 12.07344,-2.22462 14.25162,-1.82974 25.42486,4.60928 15.12432,8.71597 25.78404,14.07523 29.67378,14.91871 3.21852,0.69794 5.95198,2.72619 3.67405,2.72619 -0.55605,0 -3.9668,1.97382 -7.57946,4.38625 -9.76143,6.51844 -12.1609,12.92741 -5.90678,15.77699 4.54816,2.07227 9.45449,1.51361 12.17931,-1.38682 1.35319,-1.44041 3.83856,-2.92163 5.52303,-3.2916 1.68449,-0.36998 3.36692,-1.16491 3.73873,-1.76652 1.00946,-1.63334 13.45128,-7.29787 16.03149,-7.29885 4.57035,-0.002 28.24725,17.55647 28.24725,20.94745 0,0.81443 -2.42433,2.70928 -5.3874,4.21079 -8.53827,4.32666 -12.21338,12.46306 -7.21178,15.96631 3.82775,2.68106 9.67019,2.06769 15.63735,-1.64171 6.31014,-3.92259 8.90308,-3.75557 9.92084,0.63906 0.40797,1.76156 1.38823,4.80217 2.17835,6.75692 1.28236,3.1725 1.23601,3.66632 -0.43178,4.59966 -2.78021,1.55589 -2.26971,3.40496 0.77915,2.82214 1.75051,-0.33464 3.29007,0.20389 4.54399,1.58946 4.82346,5.32987 11.45426,6.47692 15.08713,2.6099 3.48618,-3.71088 2.89441,-6.55217 -3.47075,-16.66403 -8.79751,-13.97595 -8.89332,-14.28396 -6.15094,-19.77504 2.79079,-5.58802 3.19902,-15.68086 0.73396,-18.14592 -2.19718,-2.19718 -5.88481,-1.11319 -9.28923,2.73057 -1.56849,1.7709 -3.33607,3.04586 -3.92794,2.83322 -1.35227,-0.48581 -20.83617,-17.35933 -25.53729,-22.11589 -3.10827,-3.14494 -5.36744,-4.00544 -20.09731,-7.65489 -15.81962,-3.91944 -32.19711,-10.30432 -34.95509,-13.62749 -0.91909,-1.10743 -0.91541,-1.78255 0.0148,-2.71274 2.02931,-2.0293 1.41874,-4.79239 -1.5803,-7.15143 -2.28734,-1.79922 -4.34406,-2.21718 -10.91059,-2.21718 h -8.09192 l -4.8685,-5.19916 c -5.61941,-6.00111 -15.03126,-20.44655 -15.03126,-23.07019 0,-0.981 1.49236,-2.60369 3.31637,-3.60598 8.88875,-4.88433 11.66037,-7.59342 11.66037,-11.3973 0,-2.36805 -0.93081,-4.74674 -2.6137,-6.67934 l -2.61369,-3.00151 -5.94445,3.17178 c -3.26944,1.74447 -5.94444,3.54971 -5.94444,4.01163 0,0.46192 -0.70354,0.83984 -1.56342,0.83984 -0.90599,0 -2.00681,-1.68692 -2.61783,-4.01162 -0.95909,-3.64893 -3.71105,-41.00158 -3.05259,-41.4331 0.1542,-0.10109 2.0472,-1.24566 4.20669,-2.54358 2.15948,-1.29791 4.91805,-4.04066 6.13013,-6.095 1.21209,-2.05432 2.93536,-4.01587 3.82948,-4.35898 0.89412,-0.3431 1.62568,-1.49521 1.62568,-2.56022 0,-3.21644 -3.94846,-11.38591 -5.857,-12.11828 -2.46448,-0.94572 -5.81517,1.05649 -7.00494,4.18583 -0.54565,1.43515 -1.45126,2.60937 -2.01248,2.60937 -1.81716,0 -5.45116,-23.3372 -5.45116,-35.00682 0,-4.66888 0.32451,-5.64434 1.87777,-5.64434 1.72812,0 2.37389,-1.20748 5.20821,-9.73837 0.8416,-2.5331 -3.91399,-7.43697 -8.02809,-8.27839 -3.25891,-0.66652 -3.95609,-1.55324 -7.71427,-9.81148 -3.23159,-7.10113 -4.13694,-10.41053 -4.1562,-15.19268 -0.0212,-5.26881 -0.47474,-6.62659 -3.28095,-9.82267 -1.79097,-2.03981 -5.3832,-4.73835 -7.98273,-5.99676 -2.59953,-1.25841 -8.15294,-5.15792 -12.34093,-8.66558 -4.18799,-3.50766 -9.74841,-7.380605 -12.35649,-8.606548 -2.60808,-1.225942 -4.99097,-2.631875 -5.2953,-3.124295 -0.9528,-1.541649 10.36205,-9.693155 19.30154,-13.90533 34.29057,-16.157283 62.03854,-24.844471 79.16279,-24.783867 13.54072,0.04792 41.45084,8.166786 55.09302,16.026184 10.51585,6.058288 43.57036,37.403026 55.5646,52.690486 10.39502,13.24914 19.12148,29.59266 22.33909,41.83815 1.14255,4.34832 3.29359,12.02075 4.78007,17.04984 4.51574,15.27766 14.19936,58.69349 20.03147,89.80968 3.03267,16.18024 8.16996,40.7314 11.41622,54.55814 5.11242,21.77532 7.20675,28.43217 15.65015,49.74419 5.36133,13.53256 13.53753,32.06628 18.16933,41.18604 4.63179,9.11977 9.03379,18.26628 9.78222,20.32559 0.74842,2.0593 5.29664,14.81628 10.10716,28.34883 4.81052,13.53256 10.88,30.45523 13.48776,37.60593 5.45488,14.95783 16.80029,53.38025 19.21707,65.08068 3.40887,16.50339 1.74272,40.09472 -4.42065,62.59246 -1.53128,5.58954 -3.6407,13.29186 -4.68759,17.11628 -1.0469,3.82442 -2.39296,8.39768 -2.99125,10.16279 -0.59829,1.76512 -2.40781,7.30117 -4.02114,12.30233 -1.61334,5.00116 -4.53656,12.86983 -6.49605,17.48593 -1.95949,4.6161 -5.49089,13.96984 -7.84756,20.78611 -2.35666,6.81628 -5.04074,13.22848 -5.96461,14.24935 -0.92387,1.02086 -2.58304,4.75833 -3.68704,8.30549 -1.104,3.54714 -3.23244,8.86713 -4.72988,11.82219 -1.49745,2.95505 -2.72262,5.82072 -2.72262,6.36816 0,0.92488 -1.42626,2.76629 -8.67176,11.19587 -2.63097,3.06092 -2.97502,3.16621 -6.1067,1.86904 -3.10842,-1.28756 -3.49048,-1.18122 -6.03142,1.67859 -4.64594,5.22898 -4.69321,7.76517 -0.21176,11.36032 4.29112,3.44245 4.79444,5.13492 2.17391,7.30976 -0.95231,0.79035 -4.02645,4.8208 -6.83142,8.95658 -2.80498,4.13577 -6.23804,8.63434 -7.62902,9.99681 -5.44901,5.33737 -13.36722,11.0357 -16.13692,11.61292 -1.60061,0.33357 -3.18769,1.48075 -3.52682,2.54929 -0.34923,1.1003 -2.79843,2.70454 -5.64794,3.69939 -2.76723,0.96614 -7.43829,2.6583 -10.38015,3.76036 -8.88992,3.33031 -23.03158,6.64719 -32.09303,7.52733 -16.34958,1.58805 -43.05938,1.01971 -53.27549,-1.13363 z m 64.04083,-30.90952 c 2.39071,-1.08586 6.78076,-3.72296 9.75567,-5.86023 2.97492,-2.13725 5.88223,-3.88593 6.46071,-3.88593 0.57847,0 3.70972,-2.83101 6.95832,-6.29114 3.62857,-3.86482 7.45036,-6.80064 9.90942,-7.61219 2.20157,-0.72659 4.95905,-2.27726 6.12771,-3.44593 1.16868,-1.16868 4.72976,-3.31742 7.9135,-4.77499 3.18375,-1.45757 6.62475,-3.89017 7.64666,-5.40578 1.02191,-1.51562 3.88628,-4.72684 6.36525,-7.13607 3.98932,-3.87707 5.18783,-6.33126 10.43023,-21.35811 3.25766,-9.33773 5.92301,-18.26761 5.92301,-19.84418 0,-1.57657 0.38583,-3.32381 0.8574,-3.88277 1.8115,-2.14713 7.6566,-18.4084 8.64473,-24.04991 0.57006,-3.25454 2.8053,-9.75338 4.96721,-14.44186 2.16191,-4.68848 4.812,-11.03016 5.88908,-14.09264 1.14153,-3.24571 4.79519,-9.04616 8.75991,-13.90697 9.52102,-11.67293 10.88889,-13.83312 13.74769,-21.71094 4.89558,-13.49051 2.62251,-32.38246 -6.87785,-57.1632 -4.12634,-10.76313 -8.36932,-16.27573 -15.12771,-19.65429 -10.72016,-5.3591 -12.89132,-6.32553 -15.77907,-7.02368 -1.61802,-0.39118 -2.94186,-1.42414 -2.94186,-2.29549 0,-2.24431 -2.39313,-1.97879 -10.15578,1.12675 -3.72708,1.49108 -9.10454,3.37183 -11.94989,4.17948 -14.65775,4.16055 -23.77304,9.75107 -27.52591,16.882 -5.09394,9.67913 -10.50879,18.49098 -13.61434,22.15534 -4.68063,5.52285 -15.07499,20.12113 -18.44183,25.90046 -3.34531,5.74239 -11.5507,13.76206 -16.83013,16.44917 -2.0047,1.02036 -12.06933,7.02805 -22.36584,13.35043 -10.29651,6.32238 -20.36169,12.33036 -22.36705,13.35105 -2.00536,1.0207 -6.57862,4.15869 -10.16279,6.97333 -3.58417,2.81463 -11.81202,8.81631 -18.28411,13.33706 -17.22599,12.03236 -21.47567,17.65111 -27.80838,36.76714 -2.90428,8.76692 -1.82029,16.35733 3.62547,25.38651 2.41572,4.00532 4.39221,8.01878 4.39221,8.91881 0,2.89618 3.49873,11.26058 5.77638,13.80961 1.21571,1.36055 3.74055,3.41943 5.61075,4.57528 1.87021,1.15585 3.8993,3.53279 4.50911,5.28207 0.60981,1.7493 1.52929,3.18054 2.04328,3.18054 0.514,0 4.26546,2.65433 8.33658,5.8985 4.07113,3.24418 12.46109,8.41452 18.64437,11.48965 6.18327,3.07512 12.80053,6.89937 14.70502,8.49834 8.48921,7.12736 41.63054,11.14038 52.23287,6.32478 z M 490.99313,580.4156 c 6.97142,-1.42185 16.84002,-3.80118 21.93023,-5.2874 5.09021,-1.48622 10.60723,-2.98182 12.26003,-3.32355 3.64619,-0.7539 12.50653,-8.67555 12.50653,-11.18158 0,-0.99116 -1.44418,-2.86984 -3.2093,-4.17485 -1.76512,-1.30501 -3.2093,-3.06348 -3.2093,-3.90772 0,-2.72694 -3.85769,-3.94573 -8.51745,-2.69099 -2.32619,0.62637 -4.52552,1.61795 -4.88741,2.2035 -0.94916,1.53579 -11.89815,6.85316 -18.15328,8.81615 -7.31966,2.29706 -18.64046,3.9662 -28.88372,4.25862 l -8.55814,0.24431 -0.7244,-16.04651 c -1.46058,-32.35426 -1.45858,-100.23943 0.003,-105.15725 0.75184,-2.52951 1.06723,-5.5435 0.70087,-6.69777 -0.97773,-3.08059 -6.36049,-5.45223 -11.51985,-5.07564 -3.78041,0.27593 -4.62522,0.77985 -5.49964,3.28046 -0.6734,1.92574 -0.57972,15.33503 0.26903,38.51163 1.8526,50.58757 1.70135,83.82133 -0.41872,92.00292 -2.09928,8.10137 -1.45088,10.77124 3.14556,12.95239 9.64996,4.57922 24.40302,5.01846 42.76586,1.27328 z M 299.92131,485.54712 c 13.82901,-4.41844 18.78123,-7.05707 26.63133,-14.18963 5.68129,-5.162 16.43249,-20.0273 16.4433,-22.73556 0.002,-0.50834 2.77004,-4.12047 6.15116,-8.02696 7.98157,-9.22179 8.95191,-12.69864 8.92527,-31.98023 l -0.0213,-15.39083 -4.3356,-8.30817 c -11.56711,-22.16569 -24.57669,-36.37835 -40.70018,-44.46397 -17.51874,-8.78532 -43.51886,-10.36094 -60.49002,-3.66573 -10.7259,4.23141 -21.42474,12.9429 -30.16233,24.55954 -8.36136,11.11644 -9.17534,12.52462 -11.84893,20.49853 -4.2844,12.77808 -5.14463,23.17142 -3.08867,37.31755 1.59661,10.98557 5.37018,25.1861 8.45305,31.81014 2.08568,4.48141 10.59824,14.18557 16.30747,18.59021 6.18008,4.7679 28.41055,15.2747 37.52728,17.73653 9.28014,2.50597 18.56873,1.96743 30.20813,-1.75142 z"
     id="path22"
     transform="scale(0.75000001)" />
  <path
     style="fill:#ffffff;stroke-width:0"
     d="m 268.92025,469.65506 c -16.08083,-5.97718 -24.53647,-10.71562 -31.37031,-17.57954 -6.0022,-6.02863 -6.74303,-7.31963 -9.87874,-17.21505 -4.25936,-13.44137 -5.56267,-20.32275 -5.56267,-29.37046 0,-20.75894 14.94014,-43.25011 35.01849,-52.71749 9.77218,-4.6078 18.30198,-5.78168 31.42717,-4.32505 14.75336,1.63733 21.12739,4.87034 33.72016,17.10343 8.36779,8.12878 10.39056,10.83741 14.93103,19.9937 5.06721,10.21851 5.26504,10.96564 5.62308,21.23705 0.28649,8.21875 -0.0529,11.75605 -1.48844,15.51506 -2.1453,5.61737 -8.46872,13.09864 -11.07144,13.09864 -0.97736,0 -2.95385,0.82428 -4.3922,1.83174 -1.43835,1.00747 -4.54803,2.09061 -6.91039,2.40698 -3.4208,0.45813 -4.60223,1.21612 -5.80333,3.72335 -1.30054,2.71479 -1.2975,3.52465 0.0221,5.88372 0.8521,1.52336 2.69947,2.89426 4.16885,3.09363 4.86782,0.66049 4.81753,2.13296 -0.23831,6.97731 -5.60195,5.36761 -13.56629,9.52847 -22.75475,11.8879 -9.30175,2.38853 -15.94283,1.98524 -25.44027,-1.54492 z m 27.3265,-41.0739 c 1.98269,-1.98269 4.88268,-4.44213 6.44442,-5.46543 1.6917,-1.10844 3.23259,-3.43505 3.81187,-5.75557 2.45236,-9.82386 2.4545,-9.92733 0.21787,-10.51222 -1.53643,-0.40179 -2.21427,-1.62568 -2.44969,-4.42312 -0.70521,-8.37978 -14.80414,-11.98128 -23.44949,-5.99005 -4.19221,2.90521 -8.78155,8.9026 -10.03337,13.11172 -2.06737,6.95131 3.46664,15.09032 11.66392,17.15442 2.48529,0.6258 5.40391,2.11597 6.48583,3.31148 2.60719,2.88091 3.09129,2.78611 7.30864,-1.43123 z"
     id="path24"
     transform="scale(0.75000001)" />
  <path
     style="fill:#ffffff;stroke-width:0"
     d="m 472.38565,732.03719 c -1.91366,-2.17955 -4.64132,-6.5008 -6.06145,-9.60277 -2.23953,-4.89178 -2.51104,-6.74309 -2.04672,-13.95579 l 0.53534,-8.31584 8.35715,-7.74393 c 7.29544,-6.76011 31.85679,-25.35392 35.24537,-26.68198 0.68249,-0.26749 1.96369,1.72514 2.92702,4.55234 0.94227,2.76542 3.04288,6.76713 4.668,8.89267 5.04472,6.5981 7.91312,14.03095 8.50955,22.05067 l 0.5569,7.48837 -6.79809,6.68569 c -7.13393,7.01598 -13.81109,12.03524 -16.01055,12.03524 -0.71648,0 -4.81121,1.92558 -9.09938,4.27907 -10.64559,5.84263 -15.86123,5.922 -20.78314,0.31626 z"
     id="path26"
     transform="scale(0.75000001)" />
  <path
     style="fill:#ffffff;stroke-width:0"
     d="m 532.34109,781.95058 c -3.23605,-1.16147 -8.12908,-3.50555 -10.87341,-5.20905 -2.74433,-1.7035 -6.10478,-3.45119 -7.46768,-3.88376 -1.3629,-0.43257 -3.6908,-1.60438 -5.17311,-2.60404 -1.48231,-0.99965 -6.18522,-4.06487 -10.45092,-6.81161 -8.06934,-5.19593 -9.09753,-6.54652 -5.78437,-7.59807 1.0843,-0.34415 4.51114,-2.52058 7.61522,-4.83653 3.55558,-2.65282 7.68118,-4.63379 11.1503,-5.35397 4.8161,-0.99982 6.07445,-0.86877 10.03595,1.04522 2.49117,1.20361 4.52941,2.62656 4.52941,3.16212 0,0.53556 1.27528,1.12607 2.83396,1.31224 1.55868,0.18617 3.3627,1.30129 4.00894,2.47803 0.64624,1.17675 2.31031,3.73878 3.69792,5.69342 1.57049,2.21223 2.9172,6.25075 3.56731,10.69767 0.57441,3.92909 1.2982,8.70833 1.60842,10.62054 0.68554,4.22565 -0.61193,4.40535 -9.29794,1.28779 z"
     id="path28"
     transform="scale(0.75000001)" />
  <path
     style="fill:#ffffff;stroke-width:0"
     d="m 558.28674,690.03051 c -8.96291,-4.06846 -24.87589,-17.27035 -24.87589,-20.63779 0,-0.83943 -0.96482,-2.39939 -2.14404,-3.46657 -1.17923,-1.06718 -2.66793,-3.88589 -3.30823,-6.26378 -1.1271,-4.18572 -1.05028,-4.41661 2.41148,-7.24789 1.96662,-1.60844 8.87103,-5.93738 15.34312,-9.61988 10.19978,-5.80347 20.0868,-11.9434 24.62375,-15.29156 0.90915,-0.67093 3.08183,0.29683 6.8092,3.03297 3.01071,2.21007 5.47403,4.42942 5.47403,4.9319 0,0.50248 1.91587,3.12721 4.25749,5.83275 2.34163,2.70553 5.48929,7.02104 6.99481,9.59002 2.55684,4.36292 2.65255,5.01269 1.45161,9.85522 -2.55722,10.31149 -8.33068,19.84113 -15.99526,26.40173 -6.37603,5.45764 -13.28462,6.40416 -21.04207,2.88288 z"
     id="path30"
     transform="scale(0.75000001)" />
  <path
     style="fill:#ffffff;stroke-width:0"
     d="m 561.93798,770.58915 c -1.35624,-1.35624 -0.70488,-2.49613 1.42636,-2.49613 2.53793,0 2.76443,-1.35894 0.53488,-3.2093 -2.26209,-1.87737 -1.96472,-3.2212 1.64813,-7.44796 1.74121,-2.03708 3.16583,-4.23364 3.16583,-4.88125 0,-0.64761 1.39047,-2.50963 3.08994,-4.13783 3.88813,-3.72507 10.70163,-4.88116 14.41763,-2.44635 2.99301,1.9611 7.50881,8.8236 6.68424,10.15779 -0.30978,0.50122 -2.63024,2.30179 -5.15659,4.00125 -2.52635,1.69947 -5.97531,4.20434 -7.66437,5.5664 -5.636,4.54488 -15.7635,7.27592 -18.14605,4.89338 z"
     id="path32"
     transform="scale(0.75000001)" />
  <path
     style="fill:#ffffff;stroke-width:0"
     d="m 605.33266,739.8625 c -1.75096,-1.99422 -4.52974,-6.37738 -6.17509,-9.74033 -2.52971,-5.17055 -3.06821,-7.83863 -3.48825,-17.28302 -0.42149,-9.47707 -0.19528,-11.72828 1.49359,-14.86432 1.09466,-2.03267 2.37705,-3.69576 2.84975,-3.69576 0.47269,0 3.19163,-2.40698 6.04208,-5.34884 4.20871,-4.34368 5.86102,-5.34771 8.79263,-5.34287 5.85188,0.01 11.43132,2.02164 15.49105,5.58613 4.76374,4.18261 4.72429,4.44668 -4.43145,29.67002 -5.35718,14.7586 -7.5095,19.38876 -10.08857,21.703 -4.30454,3.86253 -6.62684,3.71104 -10.48574,-0.68401 z"
     id="path34"
     transform="scale(0.75000001)" />
  <path
     style="fill:#ffffff;stroke-width:0"
     d="m 634.94671,669.17202 c -12.13125,-7.95645 -18.88861,-26.17225 -12.85317,-34.64824 3.50105,-4.91678 16.20886,-16.17107 19.07061,-16.88933 1.7499,-0.43919 3.2886,0.0504 4.89895,1.5588 2.87749,2.69531 6.15645,3.9634 12.75305,4.93206 2.78105,0.40837 5.31535,1.16138 5.63176,1.67335 0.31641,0.51197 -1.71829,3.97504 -4.52158,7.69572 -2.80328,3.72069 -7.18689,11.71666 -9.74136,17.76883 -5.02244,11.89941 -9.55654,20.58826 -10.69116,20.4878 -0.39097,-0.0346 -2.43717,-1.19516 -4.5471,-2.57899 z"
     id="path36"
     transform="scale(0.75000001)" />
  <path
     style="fill:#ffffff;stroke-width:0"
     d="m 594.3876,619.74284 c -0.88256,-0.33088 -3.86654,-2.78858 -6.63106,-5.46157 -5.70137,-5.51257 -5.67069,-5.85986 1.1922,-13.49376 2.1717,-2.41569 7.43979,-10.03914 11.70685,-16.941 9.27497,-15.00199 16.18276,-22.84581 23.74363,-26.96095 l 5.59816,-3.0469 -0.72545,3.0923 c -1.0292,4.38708 -2.93233,8.97574 -3.72342,8.97759 -0.3699,8.7e-4 -0.72187,4.93517 -0.78216,10.96512 -0.0881,8.80674 -0.66906,12.64714 -2.95339,19.52168 -4.48312,13.49169 -6.97889,17.57009 -12.46733,20.3732 -5.02366,2.56574 -12.22719,3.9981 -14.95803,2.97429 z"
     id="path38"
     transform="scale(0.75000001)" />
  <path
     style="fill:#ffffff;stroke-width:0"
     d="m 671.86314,605.51275 c -1.81253,-1.81252 -13.45586,-5.37322 -17.57024,-5.37322 -4.24475,0 -6.61718,-1.85279 -8.40983,-6.5678 -0.81207,-2.13589 -0.29327,-7.06464 2.13923,-20.32363 1.76621,-9.62715 3.64263,-17.94456 4.16982,-18.48312 0.57601,-0.58843 3.00119,0.28229 6.07701,2.18186 4.66625,2.88179 5.47046,4.02041 9.10258,12.8877 3.47717,8.48902 5.84583,18.16905 8.00447,32.71197 0.60565,4.08035 -1.02342,5.45586 -3.51304,2.96624 z"
     id="path40"
     transform="scale(0.75000001)" />
</svg>
