<svg xmlns="http://www.w3.org/2000/svg" width="757.333" height="985.333" viewBox="0 0 568 739" preserveAspectRatio="xMidYMid meet"  xmlns:v="https://vecta.io/nano"><path d="M224.5 50.6c-6.8.5-24.3 3.3-28 4.5-1.6.6-5.3 1.7-8.2 2.4-2.9.8-6.7 2.3-8.5 3.3-7.2 4-9.8 5.7-9.8 6.4 0 .5-.7.8-1.5.8s-1.5.4-1.5 1c0 .5-.7 1-1.5 1s-1.5.5-1.5 1.1c0 .7-1 .9-2.5.7-1.5-.3-2.5-.1-2.5.6 0 .6-2.4 2.4-5.3 4-2.8 1.6-7.5 4.7-10.3 6.8s-5.6 3.8-6.2 3.8-1.7.8-2.4 1.9c-.7 1-2.6 2.5-4.3 3.4-1.6.8-3.7 2.4-4.6 3.4s-4.8 4.7-8.7 8.1c-17.7 15.8-27.1 40.3-25.9 67.7.4 10.9 2.9 24.2 5.7 31 .4 1.1 1.4 4.2 2.1 7 .7 2.7 1.8 5.9 2.6 7 .7 1.1 1.3 3.1 1.3 4.5s.7 3.8 1.5 5.4c.8 1.5 1.5 3.6 1.5 4.5s.4 2.1.9 2.7c.5.5 1.6 3.1 2.4 5.9.8 2.7 3.4 9.7 5.7 15.5l5.2 13.5c.6 1.6 1.5 3.8 1.9 4.7.5 1 .9 2.3.9 3s.7 2.6 1.5 4.2c1.9 3.6 6.5 17.1 6.5 19 0 .7.7 1.9 1.5 2.6s1.5 2.2 1.5 3.4.6 4.6 1.4 7.6l2.5 11.5c.7 3.3 2.1 8.8 3.2 12.1 1 3.4 1.9 8 1.9 10.2 0 2.3.4 4.3.9 4.6.4.3 1.1 3.6 1.4 7.3.3 3.8 1.1 9.9 1.6 13.8 2.2 15.9 1.2 47.1-2 62-1.1 4.9-2.4 9.4-2.8 10-.5.5-1.2 2.6-1.6 4.5s-2.7 7.7-5.1 12.7c-2.4 5.1-4.4 9.5-4.4 9.9 0 .8-5.3 12.5-14.5 31.9-8.3 17.6-11 30.1-10.9 51.5.1 17.7 1 30 2.4 31.4.6.6 1 1.8 1 2.8s.7 2.1 1.5 2.4c.8.4 1.5 1.7 1.5 2.9 0 2.8 3.4 11 4.9 11.9.6.4 1.1 1.6 1.1 2.6s.6 2.3 1.3 2.7c.6.4 3.1 3.3 5.4 6.3 4.1 5.5 19.8 21.7 24.6 25.5l7.6 5.5c2.8 1.9 5.3 4.3 5.6 5.2.4 1 1.3 1.8 2.2 1.8s3.1 1.1 4.9 2.5 3.7 2.5 4.3 2.5 1.6.9 2.3 2 2 2 2.8 2 3 .9 4.8 2 4.1 2 5.2 2c1 0 2.2.4 2.5 1 .3.5 1.2 1 2 1 .7 0 3.5 1 6.2 2.2 2.6 1.2 5.3 2.2 5.8 2.3 2.6.3 17.1 3.8 18 4.4 1.3.8 8.1 1.1 27.6 1.5 8.6.2 16.1.6 16.7 1 .6.3 5.5.5 10.9.4s10.3.1 10.9.5c1.1.7 10.2-.4 18.2-2.1 2.3-.5 4.5-.6 4.8-.1s2.2.6 4.2.4c2-.3 8-.7 13.2-1 11.6-.5 22.4-2 28.2-3.9 2.4-.7 5-1.4 5.8-1.4s4.4-1 8-2.2c9.4-3.3 9.4-3.3 10.9-3.6.7-.1 1.8-.7 2.4-1.3s1.9-1.1 2.8-1.1c2 0 7.9-3.2 7.9-4.3 0-.4.6-.7 1.3-.7.8 0 6-4.5 11.6-10s11-10 12-10c2 0 5.1-5.4 5.1-8.9 0-1.2 1.9-4 4.4-6.5 2.4-2.3 5.2-6 6.1-8.2 1.8-4.5 6.4-11.5 8.2-12.7.7-.4 1.3-1.5 1.3-2.3s.4-2.2.9-3.2c2.4-4.8 5.5-14 5.8-17.6.2-2.3 1.3-7.6 2.4-11.9 1.1-4.4 2.4-13.4 2.9-20 .9-11.6 4.5-38.7 5.5-41.6 1.2-3.1 4.4-21.3 5.5-30.6.6-5.5 1.8-12.5 2.6-15.6s1.4-7.1 1.4-8.8.6-4.8 1.4-6.8c.8-2.1 2.4-9.4 3.6-16.3l3.7-20.5c2.1-10.5 2.4-45.1.7-59.9-1.5-12.2-6.1-37.3-7.3-39.6-.4-.8-.8-3.5-1-6-.1-2.4-.6-4.9-1-5.5-.4-.5-1.3-3.6-2-6.7s-1.9-6.2-2.6-6.8c-.9-.7-1.3-2.1-.9-3.4.6-2.4-3-13.1-5.2-15.7-.8-.8-1.4-2-1.4-2.5 0-1.5-7.7-17.1-11.3-22.9-3.7-6-16.1-18.2-23.7-23.2-3-2-5.9-4.3-6.3-5s-2.2-2-3.8-2.9c-5.3-2.7-8-5.6-7.4-7.8.6-2 .5-2-.8-.4-1.8 2.3-2.2 2.3-6-.6-1.8-1.4-4.4-2.7-5.8-3.1-1.5-.4-4.5-2.6-6.9-5.1-2.3-2.4-4.7-4.4-5.4-4.4s-2.8-1.6-4.7-3.6c-1.8-1.9-5-4.5-6.9-5.7-4.4-2.7-7.1-5.8-6.5-7.5.3-.8-3.4-6.1-8.2-12-4.8-5.8-10-12.8-11.5-15.6l-6.4-11.6c-6.9-12.8-9.1-16.1-12.7-19.8-2-2.1-3.7-4.2-3.7-4.6 0-.5-1.2-2.5-2.7-4.5-2.7-3.5-4.6-6.8-8.5-14.6-2.4-4.8-18.5-21-24.8-25.1-8.4-5.4-11.9-6.8-22.5-9.4-2.7-.6-5.4-1.5-6-1.9-2-1.6-23.5-3.2-34-2.5zM257 65.2l9.8 2.5c1.2.3 2.2.9 2.2 1.4s1 .9 2.3.9c1.9 0 8.5 3.5 15.2 8 4.3 2.9 14.9 16.1 18 22.5.8 1.6 2.6 4.8 4 7s3.2 5.5 4 7.2c.8 1.8 2 3.3 2.5 3.3.6 0 1 .6 1 1.4s.7 1.7 1.5 2c.9.3 2.1 1.9 2.6 3.6.6 1.6 1.5 3 2 3s1.4 1 1.9 2.2c.6 1.3 1.9 3.6 3 5.3 1.1 1.6 3.1 5.5 4.6 8.5 5.1 10.3 14.9 24.6 17.7 25.8.4.2.7.8.7 1.3 0 .6 1.6 2.8 3.7 4.9 2 2.2 4.4 5.2 5.3 6.8 1.8 3 14.4 14.5 20 18.3 5.7 3.9 11.3 8.1 15.3 11.6 2 1.8 4.4 3.3 5.2 3.3s2 .9 2.7 2 2 2 2.9 2c.8 0 3.4 1.6 5.6 3.5 2.3 1.9 4.6 3.5 5.2 3.5s1.1.4 1.1.9 1.2 1.4 2.8 2c3 1.3 8.2 5.6 15.7 13.1 5 5 10.4 14.5 19.4 34.3 3.7 8.1 8.1 23.3 9.6 33.2.4 2.2 1 5.1 1.5 6.5s1.1 4.3 1.4 6.5 1.2 7.4 2.1 11.5c5.4 25.8 5.7 53.7.9 79.5-1.4 7.7-3 14.8-3.5 15.7-.5 1-.9 3-.9 4.5 0 1.6-.9 6.6-2.1 11.3-1.1 4.7-2.4 11-2.8 14-1.6 9.8-5.1 29.3-6.6 36.1-.8 3.7-1.5 7.6-1.5 8.7 0 2.3-1.5 3.7-2.4 2.3-.4-.5-1.3-4.9-2.2-9.8-3.1-17.8-4.2-30.3-2.6-30.3.6 0 1.4.9 1.7 2.1.6 1.7 1.2 1.9 3.8 1.3 4.4-.9 4.4-.9 5.1-5 .8-3.7-1.8-13.4-3.5-13.4-.5 0-.9.4-.9 1 0 .5-1.7 1-3.9 1-3.6 0-3.9-.2-4.4-3.4-.3-1.9-.2-4.9.2-6.8.4-1.8.4-4.2 0-5.3-1-2.5-1.1-9.5-.2-9.5.3 0 1.4.7 2.3 1.5s2.7 1.6 4.1 1.7c2.3.3 2.4 0 2.5-4.7.1-5.9-.4-7.5-2.1-7.5-.7 0-1.8-.7-2.5-1.5-1.4-1.7-5-2-5-.5 0 .7-.6.7-2 0-1.1-.6-2-2.1-2-3.3 0-1.3-.7-3.2-1.5-4.3-.8-1-1.5-2.8-1.5-3.9s-1.2-3.7-2.6-5.8c-4-5.9-3-7.4 5.9-9.2 2.2-.4 2.7-1.1 2.7-3.3 0-3-3.2-7.2-5.5-7.2-1.4 0-3.4.7-10.1 3.6-1.7.8-3.7 2-4.4 2.9-1.3 1.5-3.9.7-6.8-2.2-.7-.7-2-1.3-2.8-1.3-1.9 0-1.8-1.9.1-2.6.8-.4 1.5-1.2 1.5-2s.5-1.4 1-1.4c1.3 0 6.9-6.1 7-7.6 0-2.1-2.6-6.4-4.2-7-1-.3-2.7 0-3.8.6s-2.5.8-3 .5c-.6-.3-1-.2-1 .4 0 .5.5 1.1 1.2 1.3 1.7.6 0 2.8-2.3 2.8-1 0-1.9.6-1.9 1.4s-1.1 2.4-2.5 3.7c-1.3 1.3-2.5 2.9-2.5 3.6 0 1.9-3.6 2.5-9.5 1.4-3.1-.6-5.9-1-6.3-.9-1.3.3-7.3-1.4-10-2.8-1.5-.8-3.7-1.4-4.9-1.4s-2.3-.7-2.5-1.6c-.5-2.4-11.5-3-14-.7-3.6 3.3-.9 8.3 4.6 8.3.8 0 1.7.7 2 1.6.4.9.9 1.4 1.3 1.1.3-.4 1.8.2 3.2 1.3 3.3 2.3 14.5 5 20.7 5 3.4 0 4.4.4 4.4 1.6 0 1-.6 1.4-1.4 1.1-.7-.3-2.6.8-4.2 2.4-1.5 1.6-3.4 2.9-4.2 2.9-1.9 0-4.2 2.5-4.2 4.7 0 4.2 1.2 6.3 3.6 6.3 2.7 0 11.6-4.4 13.5-6.6 1.7-2.1 2.7-1.7 3.4 1.5.6 2.7 1 2.9 6.3 3.3 6 .5 10.5-.5 13.4-3 2.4-2 4.4-1 6.3 3.5l5.6 12.5c2.5 4.8-1 8.2-11.5 11.2-2.8.8-4.6 2.1-6 4.5-1.9 3.2-1.9 3.3.2 5.3 2.4 2.5 7.6 2.7 10.1.4 1-.9 2.2-1.6 2.8-1.6.5 0 2.4-.7 4.2-1.6s3.5-1.4 3.7-1.1c.3.3.6 5.6.7 11.8l.2 11.4-4.2 1c-5.1 1.3-7 3-7.9 7.2-.6 3-.5 3.1 3.7 3.9 4.8.8 4.6.9 7.2-.1 1.5-.6 1.8-.2 1.7 3.1 0 2.2.6 9.1 1.5 15.4 2 14.4 2.3 20.5 1 20.4-.5-.1-2.1-.5-3.5-.9s-2.2-.4-1.9-.1c.4.4.3 2.5-.2 4.7-1.4 6 0 7.8 5.4 7.2 4-.5 4.5-.3 5 1.8 1.1 4.1.8 6.9-.8 6.9-.8 0-1.5.6-1.5 1.4 0 1.6 5.4 4.1 6.9 3.2 1.9-1.2 2.1 1.4 1.1 12.9-1.4 16.1-10.2 50.5-12.9 50.5-.4 0-1.3 1.1-1.9 2.4s-2.5 4-4.2 6c-1.8 2-3.8 5.3-4.5 7.4-.9 2.4-2 3.8-3.4 4-2.5.4-6.1 4.7-6.1 7.3 0 1.1-.4 1.9-.8 1.9-.5 0-2.2 2.6-3.8 5.7-1.6 3.2-4.3 7.1-6 8.8-4.5 4.3-12.4 10.7-15.9 13-3.1 2-3.9 2.3-9 3.2-1.6.3-3.5.9-4.1 1.4s-5.5 2.1-11 3.5c-16.3 4.4-27.1 6-44.1 6.8-6.8.2-12.8.8-13.3 1.1-.9.5-9.6 1.8-17.5 2.6-.5 0-3.2-.2-6-.5-6.5-.8-19.6-1.5-36.5-2.1-14.3-.5-18.7-1.1-20.8-2.8-.9-.7-1.6-.7-2.4.1-1.7 1.7-4.2 1.5-8-.7-1.8-1-7.3-3.1-12.3-4.6-4.9-1.5-9.7-3.1-10.5-3.6-4.8-2.8-9.4-4.8-10.2-4.3-.5.4-1.6-.3-2.4-1.5s-2.1-2.1-2.8-2.1c-.6 0-2.7-1.6-4.6-3.5-1.9-2-4-3.3-4.7-3.1-.7.3-2.2-.8-3.3-2.4-1.2-1.7-2.7-3-3.4-3-1.2 0-14.1-12.2-18.1-17.1-1.1-1.3-4.3-5.3-7.2-8.8s-5.3-7-5.3-7.7c0-.8-.4-1.4-.8-1.4-.5 0-1.9-2.3-3.3-5.2-1.3-2.8-3-5.8-3.8-6.6s-1.7-3.3-1.9-5.6c-.2-2.2-.7-4.5-1.1-5.1-.4-.5-.9-2.8-1-4.9s-.6-4.7-1.1-5.7c-1.5-2.7-1.2-20.2.5-30.9 1.6-9.6 5.9-24.2 9.5-31.5 6.3-13.2 11.9-25.5 13-29 1.9-6.1 7-17.7 9.1-20.6 1-1.4 2.4-4.8 3.1-7.5.6-2.7 1.7-5.6 2.4-6.4 2.8-3.7 3.9-15.5 3.9-44 0-23-.3-30.1-1.7-36.5-.9-4.4-1.9-10.3-2.2-13.2-.3-2.8-1.3-8.4-2.2-12.5l-2.3-10.8c-.4-1.9-1.3-5.1-1.9-7a430.66 430.66 0 0 1-2.8-11.5c-1-4.4-2.7-10-3.8-12.5s-2.3-6.1-2.7-8c-1-4.6-7-21.2-9.7-27.2-1.2-2.6-2.2-5.2-2.2-5.8 0-1.9-3.3-8.4-4.7-9.3-.7-.4-1.3-1.4-1.3-2.2 0-1.5-4.2-14.3-8.4-25.7-1.4-3.7-2.3-7.4-2-8.2s-.5-2.4-1.9-3.6c-2.1-1.8-2.6-3.4-3.2-10.2-.3-4.5-1.1-9.2-1.6-10.6-.5-1.3-.9-9.2-.9-17.6.1-18 .2-19.5 1.6-22.1.6-1.1 1.7-3.8 2.4-6s1.8-4.7 2.5-5.5c.6-.8 2-3.2 2.9-5.3 4.2-9.3 10.9-16.9 22.1-25.4 3.3-2.6 6.5-5.1 7-5.8.6-.6 1.7-1.4 2.5-1.8s4.7-2.7 8.5-5.2c3.9-2.5 8-5 9.3-5.5 1.2-.5 2.2-1.3 2.2-1.8s1.8-1.7 4-2.8c2.2-1 4-2.2 4-2.7 0-.4.8-.7 1.9-.7 1 0 2.4-.7 3.2-1.6.7-.9 3-2.3 5.1-3.1s3.8-1.9 3.8-2.5c0-.5.4-.7.8-.4.5.3 4-.5 7.8-1.8 6.4-2.2 20.4-5.1 28.4-6 7.7-.8 26.7.6 34 2.6zM173.6 159c-4.7 5.2-4.8 8.6-.3 9.3 1.7.2 3.9.1 4.7-.3 1.7-.9 27.6 5.1 35.8 8.2 3.3 1.3 6.5 3.5 8.5 5.8 3.4 4.1 11.7 19.9 11.7 22.5 0 .8.4 1.5.9 1.5s1.2 1.9 1.6 4.2c.4 2.4 1.4 5.1 2.2 6 1.1 1.2 1.4 2.9 1 5.2-.3 1.9-.2 3.6.3 3.8s1.1 6.9 1.4 14.9c.6 17.4.4 17.9-9.4 26-15.8 13.2-22.3 17.1-31 18.7-11.2 2.2-28 1-28-2 0-.4-.6-.5-1.4-.2-.9.3-1.9-.4-2.7-1.7-.6-1.2-2.4-3.3-4-4.7-1.6-1.3-2.9-3-2.9-3.8s-.4-1.4-1-1.4c-.5 0-1-.5-1-1.1s-.9-2.2-2-3.6-2-3.5-2-4.7-.4-2.6-.9-3.1c-2.4-2.4-4-23.5-2.8-37 .7-7.4 7.2-16.5 11.9-16.5.8 0 1.8-.4 2.4-1 1-1 5-1.6 6.9-1 .6.2 2.2-.2 3.7-.8 6-2.5 13.2-1.9 16.4 1.3 1.4 1.4 2.8 2.5 3.2 2.5 1.7.1 5.1 5 6.2 9 1.9 6.9.5 21-2.6 27.1-1.3 2.7-2.9 4.9-3.5 4.9s-.9.6-.6 1.3c1.7 4.5-10.1 7.9-13.6 3.9-2.1-2.3-3.3-10.8-1.8-12.6 2.8-3.3 5.6-10.3 5.3-13.1-.4-4.1-5.1-6.1-9.1-4-4 2-7.7 11.9-8.8 22.9-.5 6-.4 6.9 2.2 10.8 2.9 4.6 7.3 8.7 9.1 8.8.7 0 2.5.7 4 1.5 3.4 1.7 7 1.9 7.9.4.4-.6 1.4-.8 2.2-.5 1 .4 2.7-.6 4.5-2.5 1.6-1.7 3.6-2.8 4.3-2.5.8.3 1.6-.6 2-2.2.4-1.5 1.5-3.5 2.5-4.5 1.1-.9 2.4-3.6 3.1-6 .6-2.3 1.5-5 2-5.9 4.8-9.3 3.9-28.4-1.9-39.3-2-3.8-5.4-7.5-6.9-7.5-.7 0-1.6-.6-2-1.3-.8-1.1-7.7-4.8-11.5-6.1-1.9-.6-9 .4-20.8 3.1-13 2.9-22.7 10.3-25.5 19.4-2.7 9.1-3.9 26.1-2.5 36.4 1.2 8.7 4.2 20.4 6 23.5a45.22 45.22 0 0 1 2.5 4.7c.9 1.7 3.4 5 5.6 7.3 2.1 2.2 3.9 4.4 3.9 4.8 0 1.4 7.4 6.5 11.9 8.3 2.6.9 8.7 2 13.7 2.4 11.2.8 10.2.8 14.9-.5 2.2-.6 5.6-1.5 7.5-1.9s4.4-1.2 5.5-1.8 3.5-1.7 5.3-2.3c1.7-.7 3.2-1.6 3.2-2.1s1.4-1.6 3-2.4c1.7-.9 4.3-2.9 5.9-4.5 1.5-1.7 3.3-3 3.9-3 .5 0 2.1-1.3 3.4-2.9 1.4-1.6 3.4-3.2 4.6-3.5 1.2-.4 2.2-1.3 2.2-1.9 0-.7 1.2-2.5 2.6-4.1 1.5-1.5 3.3-4.8 4-7.2 2.6-8.6 1.5-33.7-2-46.4-2.6-9.3-2.8-10-3.6-10-.7 0-2.1-2.9-8.2-17-4.9-11.2-11.8-18.8-20.8-22.7-2.8-1.3-8.5-2.4-14.6-2.8-2.3-.2-8.1-1.7-13-3.4s-9.4-3.1-10-3.1-2.8 1.8-4.8 4z"/><path d="M334.5 171.9c-.4 1.5-1.7 2.1-4.8 2.3-3.8.3-4.2.5-3.9 2.8.7 6.1 2.1 7.8 7.1 8.5 4.1.5 5.9 1.7 12.7 7.6 18.1 16.1 27 25.5 30.2 32.1 5.7 11.8 6.4 14 9.3 28.1 2.8 13.1 2.9 15.2 2.3 27.2-.6 12.1-2.5 21.8-4.5 23.1-.5.3-.9 1.2-.9 2 0 2.6-4.5 8.4-7.7 9.9-1.8.9-3.3 2-3.3 2.5 0 .6-1.1 1-2.4 1-1.4 0-2.7.4-3 .9-.9 1.4-12.5 4.9-22.1 6.7-8.9 1.6-20.1 1.9-26 .8-5.4-1.1-15.9-4.7-18.5-6.3-5.2-3.3-6.6-4.1-8.7-5.3-1.3-.6-2.3-1.5-2.3-2.1 0-.5-1.1-2.2-2.5-3.9-1.4-1.6-2.5-4-2.5-5.4 0-1.5-.6-2.4-1.6-2.4-1.1 0-1.3-.6-.9-1.9.3-1.1-.1-3.6-1-5.6-.8-2.1-1.5-5-1.5-6.5s-.5-4.2-1.1-6c-.9-2.5-.9-3.4.1-4 .9-.6.9-1.2.1-2.9-1.5-2.8.2-9.4 3.5-13.8 1.3-1.7 2.4-3.9 2.4-4.7 0-.9.3-1.6.8-1.6.4 0 2.1-1.4 3.9-3 1.8-1.7 4.4-3.4 5.8-4 1.4-.5 2.5-1.6 2.5-2.5 0-.8.7-1.5 1.7-1.5.9 0 3.1-1.1 4.9-2.5 2.7-2.1 4.4-2.5 9.7-2.5 3.6 0 7.9.3 9.7.6 3.1.7 10 6.7 10 8.8 0 .6.9 1.7 1.9 2.3 3.2 2 5 7.3 5.3 15.4.3 6.9.1 7.8-2.5 11.2-1.5 2-2.5 3.7-2.1 3.7 1.6 0-3.3 4.3-6.5 5.6-3.9 1.6-12.4 1.9-15.1.4-2.4-1.3-4.3-8-3.5-12.4.4-1.9 2.1-4.8 4.1-6.7 1.9-1.8 3.4-3.9 3.4-4.6s.8-1.7 1.9-2.2c2.6-1.4 3.3-6.1 1.3-8.4-1.1-1.2-2.7-1.7-5.1-1.5-3.3.3-4.1 1.1-9.8 9.6-3.5 5.1-6.5 10.5-6.8 12l-1.3 6.3c-.7 2.9-.3 4.7 2 9.5 3.4 7.1 8.2 11.5 14.3 12.9.6.2 1.5.4 2 .6 2.3.6 13.2-1.5 16.1-3.2 1.8-1 3.4-1.5 3.7-1.3.5.5 8.7-8.6 8.7-9.7 0-.4 1.6-3.2 3.5-6.4 3.9-6.6 4.2-10.4 1.9-22.2-1-5.1-2.6-8.8-5.3-13-2.2-3.2-3.7-6.1-3.5-6.5.3-.5-.2-1.1-1-1.4-.9-.3-1.6-1.1-1.6-1.8 0-.6-.8-1.6-1.9-2.1-1-.6-3.8-2.1-6.2-3.4-4-2.2-5.6-2.5-16.4-2.5-11.3 0-12.3.2-16.7 2.7-2.5 1.5-5.2 3.4-5.8 4.2-.7.8-1.9 1.5-2.6 1.5-.8 0-1.4.4-1.4.9 0 .4-1.8 2.1-4 3.6s-5.1 4.7-6.5 7.1-2.9 4.4-3.4 4.4c-1.1 0-6.1 10.2-6.1 12.6 0 1.1-.4 2.4-1 3-1.2 1.2-1.6 16.6-.5 21.1.4 1.8 1.2 3.3 1.7 3.3s.7.4.3 1c-.3.5-.1 1.7.4 2.7.6 1 1.8 4.4 2.7 7.6s2.2 6.1 2.9 6.3c.7.3 2.5 3 4 6 1.9 3.8 4.2 6.5 7.4 8.6 2.5 1.8 4.8 3.5 5.1 3.8 1.2 1.6 10.2 5.9 17.3 8.4 13.4 4.6 30.7 4.4 45.9-.5 3.2-1.1 6.6-1.9 7.7-1.9s3.2-.5 4.8-1.2c1.5-.6 3.4-1.2 4.2-1.4.8-.1 1.8-1 2.3-1.8.5-.9 1.8-1.6 2.8-1.6 1.1 0 2-.4 2-.9s1.3-1.4 3-2.1c3.2-1.3 8.5-8.1 11.3-14.5 1-2.2 2.2-4.7 2.7-5.6.4-.9 1.6-6.5 2.4-12.5 1.8-12.1 1.6-32.7-.4-37.9-.6-1.7-2-6.9-3.1-11.7-1-4.8-2.8-10.4-3.9-12.3-1.1-2-2-4.2-2-5.1 0-1.6-8.3-14.9-10-15.9-.5-.3-1-1.4-1-2.4s-1-2.5-2.2-3.4c-1.3-.8-6.6-5.6-11.8-10.6s-9.7-9.1-10.1-9.1c-.3 0-3-2.2-6-4.9s-6.3-5-7.4-5.3c-1.3-.2-2-1.1-1.9-2.6.1-2.7-1.2-2.9-2.1-.3zM206 319.8c0 .6-1.1 2.3-2.4 3.9-1.5 1.8-2.9 5.3-3.6 9.3-.7 3.6-1.9 8.4-2.6 10.6-2.1 5.9-4.5 26.9-3.7 31.8.3 2.2 1.9 6.1 3.4 8.6 1.6 2.5 3.3 5.5 3.8 6.7.6 1.2 1.9 2.7 3 3.2 1.1.6 2.3 2 2.6 3.1s1.2 2 1.8 2c.7 0 4.6 1.6 8.7 3.6 7.2 3.5 7.7 3.6 15.7 3.1 4.5-.3 9.5-1.3 11.2-2.1 1.6-.9 3.8-1.6 4.8-1.6 3.1 0 11.7-6.5 21.2-16 5-4.9 9.1-9.3 9.1-9.6 0-.4.7-1.2 1.5-1.8 1.8-1.3 1-7.6-.9-7.6-.6 0-1.6-1-2.1-2.2-2.3-5.2-6.1-3-10.7 6-5.2 10.1-16.6 19-27.8 21.5-5.9 1.3-16.3 1.2-16.8-.2-.2-.6-1.1-1.1-1.9-1.1s-3.7-1.6-6.4-3.6c-3.9-2.9-4.9-4.2-4.9-6.5 0-1.9-.5-2.9-1.5-2.9-1.5 0-1.9-3.6-1.7-17.2.1-6 3.8-19.7 6-22.1.9-1 1.8-3.3 1.9-5 .1-1.8.5-4.8.8-6.7.5-2.7.2-3.9-1.2-5.2-2.2-2-7.3-3.4-7.3-2zm152.7 135.9c-.1.1-2.5.4-5.2.7-5.6.6-11.9 2.6-13.7 4.4-.7.7-1.7 1.2-2.3 1.2-.5 0-1.6.9-2.3 2s-1.8 2-2.5 2-3.2 1.8-5.6 4c-2.3 2.2-4.7 4-5.3 4s-3.2 1.8-5.8 4-5.3 4-5.9 4-1.1.4-1.1 1c0 .5-1.5 1.7-3.2 2.5-1.8.8-5.5 2.8-8.3 4.4-2.7 1.6-6.7 3.2-8.9 3.6-2.2.3-4.5 1-5.1 1.4-1.7 1.4-8.5 2-11 1.1-1.4-.5-2.7-.6-2.9-.1-.7 1-6.3 2.1-14.1 2.7-3.3.3-6.6.7-7.3.9-.7.3-2 0-3-.5-.9-.6-6.9-1.4-13.2-1.8-9.4-.7-13.1-.5-20.1 1-4.7 1-9.9 2.4-11.5 3.3-1.6.8-3.5 1.5-4.2 1.5-2.2 0-11.3 5-16.6 9.2-7.6 6-10.7 10-14.6 19-3.5 8.1-3.5 8.3-2.8 17.5.6 7.6.5 10-.7 12.4-1.4 2.6-1.4 2.9 0 2.9.8 0 1.5.6 1.5 1.4s.5 1.6 1.1 1.8c.9.3.9.9 0 2.5-1.2 2.4-1.5 8.2-.3 9.9 1.1 1.6 5.1 3.6 6.1 2.9 1.2-.7 4.1 2.2 4.1 4 0 .8.9 1.9 2 2.5s2 1.6 2 2.3c0 1.5 7.1 8.7 8.6 8.7.6 0 2.6 1.4 4.3 3.1 1.8 1.7 4.7 3.5 6.4 4.1 1.8.6 3.9 1.6 4.7 2.3 1.6 1.3 7.4 2.7 17.8 4.4 4.8.8 9.1.6 18.4-.6 9.1-1.2 12.5-1.4 13.8-.5 1.4.8 2 .8 2.2 0 .2-.6 1.7-1.2 3.3-1.4l7.5-.9a199.48 199.48 0 0 1 11.5-1c3.8-.3 7.7-.8 8.7-1.1 2.2-.7 19.4 2.3 23.3 4.1 1.7.8 4.2 2.6 5.7 4s3.1 2.5 3.7 2.5c1.8 0 12.9 6.2 13.4 7.4.4.9 2.8 1.4 6.9 1.5 13.9.5 14.2.6 20.3 3.1 3.6 1.5 15.8.5 23.4-1.9 5.7-1.8 8.4-3.4 12.1-7 6.9-6.7 7.8-10.4 5.6-23.4-1-5.6-2.1-10.7-2.5-11.2-1.2-1.9-2.6-9-2.3-11.7.2-1.4 1.8-4.1 3.5-5.9l3.2-3.3-2.2-2.4c-2.9-3.2-2.9-5.4.2-13.7 3.8-10 5.3-12.5 7-11.9 1.1.5 1.3.2.9-1-.4-1 .1-2.5 1.1-3.6 3-3.3 6.5-12 6.5-16.1 0-2.1.5-3.9 1-3.9 1.5 0 1.2-9.3-.5-13.3-.8-2-1.5-6.4-1.5-9.7 0-5.1-.3-6-1.8-6-2.2 0-8.2-5.6-8.2-7.7 0-1.4-10.2-12.3-11.5-12.3-.4 0-2.5-1.3-4.8-3-2.3-1.6-5.1-3.1-6.2-3.3s-2.7-.7-3.5-1c-.8-.4-2.4-.8-3.5-1-1.1-.1-2.5-.6-3.2-1-1-.6-12-.7-12.6 0zm7.7 12.2c.3.4 2.4.8 4.6.8 2.7 0 5.2.8 7 2.2 1.6 1.1 3.6 2.1 4.5 2.1s1.7.6 1.9 1.2c.2.7 1.3 4.3 2.4 7.9 1.8 5.6 1.9 7.1.9 10.5-1.3 4.1-5.3 9.4-7.2 9.4-.6 0-2.2 1.1-3.4 2.4-1.3 1.3-3.9 2.7-5.9 3.1-2.1.3-5.2 1.5-7.1 2.6-1.8 1.1-3.6 1.8-3.9 1.5-.2-.3-1.3-.1-2.3.5-2.1 1.1-6.9-1.4-6.9-3.6 0-.8-.9-1.7-2-2s-2-1.1-2-1.7c0-.7-1.3-.8-3.4-.5-2.5.4-3.9.1-5.1-1.3-2.4-2.7-6.7-15.7-5.9-18.2.7-2.4 7.2-9.8 8.6-9.8.5 0 2.2-1 3.9-2.3 1.7-1.2 6.3-2.9 10.2-3.9 8.6-1.9 10.4-2.1 11.1-.9zm-46.5 27.2c.1 1.3.7 2.6 1.2 2.9s1 1.5 1.2 2.5c.1 1.1.6 2.5.9 3.1 2.2 3.5 3.9 10.8 3 12.8-.6 1.2-1.3 3.3-1.6 4.8-.4 1.7-1.8 3.4-3.5 4.3-1.6.8-3.2 2.3-3.5 3.3-1.3 3.9-5.1 6.3-10.9 6.7-3.9.3-5.8 0-6.7-1-.6-.8-2.8-1.9-4.8-2.6-6.8-2.1-10.1-4.7-10.8-8.5-.3-1.9-1-3.4-1.5-3.4s-.9-.7-.9-1.5-.9-2.9-2-4.7c-2.7-4.5-2.6-6 .8-5.8 1.5.1 2.9.1 3.2 0s1.4-.3 2.5-.4c6.9-1 24.4-9.4 29-13.9 2.2-2.3 3.9-1.7 4.4 1.4zm-76.8 14.5c4.1.3 7.9.9 8.4 1.2.6.4 3.3.7 6 .7h5l.2 12.5c.3 17.5 0 18.4-4.5 20.3-6.6 2.7-7.6 2.9-14.6 3-5.2 0-7.2-.4-8.1-1.6-.8-1.2-2.2-1.4-5.3-1-3.3.4-4.3.2-4.8-1.1-.4-.9-1.7-1.6-3.3-1.6-2 0-4.1-1.4-7.9-5.5-2.9-3-5.2-5.9-5.2-6.4s-.7-1.4-1.4-2.1c-.8-.6-2.3-3.5-3.2-6.3-.9-2.9-1.9-5.7-2.1-6.4-1-2.5 13.2-6.1 15.4-3.9.4.3 1.4 0 2.2-.8 1.4-1.3 11.5-2.6 14.7-2 .7.2 4.5.6 8.5 1zm-53.4 15.1c.6 1.6 1.5 6.3 1.9 10.6.6 7.6.6 7.9-2.2 10.8-1.5 1.6-3.5 2.9-4.3 2.9-.9 0-3.4.7-5.6 1.5-6.7 2.4-6.7 2.3-6.1-5.4.4-5.8 1.1-8 4.7-14 2.4-3.9 4.9-7.1 5.6-7.1s1.3-.5 1.3-1c0-2.2 3.6-.8 4.7 1.7zm134.6 29.9c1.5 1.4 3.7 4.5 4.8 7 2.3 4.7 2.2 11.9 0 24.4-.5 3-1 9.7-1 14.7-.1 5.1-.4 9.3-.8 9.3-.5 0-2.8-1.6-5.2-3.5s-5.3-3.5-6.5-3.5-2.9-.7-3.9-1.4c-.9-.7-2.8-1.1-4.2-.8-1.5.2-3.3-.2-4.3-1.1-.9-.9-2-1.6-2.4-1.7-5-.6-6.8-1.4-6.8-3.2 0-1.1-.5-2.8-1-3.8-.7-1.3-.5-4.9.6-11.7 1.3-7.6 2.3-10.5 4.3-12.8a130.04 130.04 0 0 0 5.1-6.7c3-4.5 10.2-7.7 12.5-5.8 1.2 1 1.5.9 1.5-.4 0-2.5 4.1-2 7.3 1zm-120.5 12.8c6.3 1.1 7.7 1.8 10.2 4.7 1.6 1.9 2.9 3.8 3 4.3 0 .5.7 1.7 1.6 2.7 2.2 2.5 3 13.3 1.2 18.4-1.2 3.6-1.7 4-4.3 3.8-5.2-.4-8.9-1.5-11-3.3-1.1-1-3.3-2.5-5-3.3-3.5-1.9-13.1-11.6-16.7-17-4-6-2.7-7.9 7.2-10.6 4.6-1.2 5.3-1.2 13.8.3zm163.5-.2c3.8.1 7 .6 7.3 1s1.1.5 1.9.1c.8-.3 2.5-.3 3.8.1 2 .5 2.2 1.1 2.4 8.3.1 4.6 1.2 11.9 2.7 17.8 2.8 10.6 3.3 15.5 1.6 15.5-.6 0-1.5 1.1-2.1 2.4-.8 1.6-2.3 2.6-4.6 3.1-1.9.3-3.7 1.3-4 2.2-.5 1.3-1.9 1.5-9.5.9-7.9-.5-12.3-1.7-13.8-3.8-.3-.4-1.6-.9-2.9-1.1-1.2-.2-2.7-1-3.1-1.8-.5-.8-1.5-1.4-2.2-1.4-1 0-1.3-2.2-1.1-8.5l.3-16.7.1-8.3 5.7-5.5c4.6-4.4 6.2-5.4 8.2-5 1.4.3 5.6.6 9.3.7zm-100.7 1.3c.4.8 1.5 1.5 2.7 1.5 2.5 0 5.7 2.7 5.7 4.8 0 .9.6 2.3 1.4 3.1.9 1 1.5 4.6 1.7 10.1l.3 8.4-3.9 1.2c-2.2.6-10.3 1.7-18 2.4-7.7.6-15.9 1.5-18.2 2-2.4.4-4.3.4-4.3-.1s.7-5.1 1.6-10.1c1.4-8.2 2.1-10 6.2-15.6 4.6-6.2 5.1-6.5 13.7-8.5 4.8-1.1 10.6-.7 11.1.8z"/><path d="M278.844 671.953c-4.017-.395-16.308-1.141-27.312-1.658-13.18-.619-21.295-1.376-23.78-2.22-2.94-.998-4.245-1.065-5.917-.303-1.827.832-3.209.527-9.304-2.053-3.937-1.667-9.359-3.652-12.048-4.412s-7.706-2.731-11.147-4.38-6.751-2.998-7.355-2.998-1.775-.597-2.602-1.327c-4.143-3.657-9.467-7.615-11.386-8.463-2.686-1.189-5.184-3.434-18.765-16.873-11.749-11.625-16.083-17.118-23.204-29.406-4.079-7.04-4.875-9.259-7.156-19.965-2.332-10.944-2.525-13.066-2.111-23.216.752-18.436 4.564-32.697 14.4-53.87 3.361-7.236 7.792-17.493 9.847-22.794s5.487-13.08 7.628-17.288 3.897-8.184 3.901-8.837.95-3.209 2.1-5.679c3.201-6.876 3.907-15.11 3.907-45.591v-28.046l-3.061-18.372c-4.927-29.577-14.396-64.134-24.416-89.107-1.517-3.781-3.348-8.615-4.069-10.741s-2.102-4.983-3.07-6.347c-1.948-2.747-12.646-33.782-12.646-36.685 0-1.008-.951-2.963-2.114-4.345s-2.296-3.758-2.517-5.28l-1.756-11.79c-.84-5.606-1.351-14.775-1.35-24.21.003-14.921.049-15.302 2.622-21.728 3.821-9.543 10.536-21.496 15.034-26.76 5.689-6.659 20.336-18.307 31.972-25.426 5.553-3.398 11.064-6.898 12.245-7.779 4.302-3.207 8.696-5.806 9.815-5.806.63 0 1.671-.633 2.313-1.406s2.816-2.113 4.831-2.977 3.664-1.971 3.664-2.461.73-.89 1.621-.89 6.789-1.318 13.104-2.929 14.576-3.398 18.357-3.971c12.821-1.943 38.554.846 48.551 5.261 20.596 9.097 27.021 15.248 39.863 38.159 3.179 5.671 6.337 10.741 7.019 11.266s1.239 1.376 1.239 1.891.504 1.246 1.119 1.624 1.872 1.895 2.793 3.372a308.14 308.14 0 0 0 4.181 6.441c1.379 2.066 4.752 7.921 7.495 13.011 5.583 10.357 10.675 18.211 15.27 23.556 1.696 1.973 4.814 5.839 6.928 8.593 5.67 7.383 19.35 20.735 26.231 25.601 3.308 2.34 8.844 6.493 12.301 9.23s6.853 4.977 7.546 4.977 1.488.594 1.767 1.321 1.717 1.839 3.195 2.472 5.207 3.036 8.286 5.339 6.739 4.767 8.134 5.476c5.059 2.571 18.024 16.431 22.106 23.631 8.075 14.246 14.718 30.21 18.235 43.824 3.684 14.26 9.401 44.32 10.787 56.714 2.202 19.696.583 46.871-4.02 67.455-2.351 10.513-2.609 11.824-7.436 37.809-9.249 49.784-8.697 47.139-9.644 46.193-.937-.937-4.603-23.917-5.078-31.832-.394-6.563-.296-7.57.574-5.89.923 1.783 1.505 1.974 4.85 1.597 4.552-.513 5.276-1.466 5.294-6.961.025-7.827-2.78-13.547-5.372-10.955-1.306 1.306-5.515 1.24-6.366-.101-.375-.591-.756-6.006-.846-12.034l-.164-10.96 1.846 1.293c2.425 1.699 6.294 1.662 6.957-.066 1.454-3.788-.131-11.53-2.359-11.53-.663 0-1.705-.603-2.317-1.339-.714-.86-2.175-1.244-4.082-1.074-3.264.292-3.207.357-6.166-7.039-1.04-2.599-2.883-6.711-4.095-9.137s-1.986-4.977-1.721-5.669 2.548-1.83 5.071-2.529c4.33-1.2 4.603-1.44 4.845-4.259.33-3.842-2.461-7.622-5.627-7.622-1.231 0-5.434 1.547-9.339 3.437s-7.451 3.437-7.878 3.437-1.445-.739-2.262-1.641-2.479-1.891-3.694-2.196l-2.209-.554 1.842-1.29c1.013-.71 1.842-1.848 1.842-2.531s.368-1.24.818-1.24c1.482 0 6.916-6.244 6.916-7.948 0-2.083-2.527-6.457-4.073-7.05-1.396-.536-8.817 1.346-8.817 2.236 0 .347.393.873.873 1.17 1.211.748.192 2.139-1.569 2.141-.799.001-2.033.905-2.742 2.009l-5.457 8.525-7.74-.584c-4.257-.321-9.893-1.357-12.524-2.302s-6.097-2.058-7.702-2.473-3.192-1.198-3.526-1.739c-.894-1.447-6.851-2.613-10.312-2.018-7.72 1.327-8.115 8.343-.575 10.225 1.338.334 2.636 1.137 2.885 1.786s1.004 1.178 1.679 1.178 2.109.578 3.186 1.283c2.82 1.848 14.736 4.732 19.55 4.732 2.26 0 4.347.387 4.639.859s.025.863-.594.868-2.823 1.358-4.898 3.008-4.285 2.999-4.911 2.999c-2.593 0-4.072 7.954-1.886 10.14 2.151 2.151 8.085.514 15.007-4.14l3.579-2.406.571 2.276c.799 3.182 1.729 3.554 8.934 3.569 4.804.01 7.255-.438 10.061-1.84 2.883-1.44 3.979-1.63 4.915-.854 2.078 1.724 8.506 17.315 7.989 19.375-.514 2.048-4.947 4.832-10.411 6.537-4.069 1.27-6.148 2.945-7.93 6.39-1.255 2.427-1.214 2.613.995 4.513 2.793 2.402 7.329 2.608 10.578.479 1.262-.827 3.472-1.935 4.911-2.462s3.293-1.245 4.12-1.596c1.389-.589 1.504.244 1.504 10.945v11.583l-3.222.518c-4.533.729-6.876 2.656-8.068 6.634-1.366 4.561-.455 5.345 6.327 5.446l5.424.081 1.935 17.616 1.918 18.785c-.013.863-.782 1.026-2.938.622l-2.921-.548-.604 5.2c-.763 6.57.08 7.734 5.599 7.734 4.424 0 5.143.718 5.143 5.134 0 1.355-.566 2.633-1.289 2.91-3.297 1.265 1.017 5.704 5.543 5.704 1.465 0 1.758.541 1.745 3.222-.077 14.869-8.918 53.14-13.685 59.242-5.399 6.91-8.979 12.233-10.384 15.44-.861 1.966-2.351 3.823-3.311 4.128-2.135.678-6.117 5.268-6.117 7.052 0 .716-.796 2.33-1.769 3.586s-3.248 4.644-5.056 7.529c-5.254 8.384-19.231 19.537-26.894 21.461-2.486.624-6.744 1.908-9.463 2.853-13.387 4.655-32.829 8.13-50.912 9.099-5.671.304-13.405 1.09-17.186 1.747-10.177 1.768-15.506 2.05-23.631 1.251zm98.742-41.353c6.965-1.364 11.655-3.677 16.336-8.055 5.268-4.928 6.942-8.403 6.942-14.409 0-5.178-2.105-17.875-3.51-21.171-.489-1.147-1.249-3.984-1.689-6.302-.909-4.792-.342-6.406 3.777-10.757 1.922-2.03 2.434-3.138 1.83-3.961-4.37-5.954-4.224-5.335-2.624-11.096 2.007-7.231 6.322-16.067 7.845-16.067.685 0 1.245-.567 1.245-1.259s1.174-3.109 2.608-5.371c2.823-4.45 5.126-11.171 5.126-14.958 0-1.304.387-2.61.859-2.902 1.267-.783 1.026-8.756-.43-14.178-.698-2.599-1.273-6.531-1.279-8.738-.012-4.772-.648-6.73-2.184-6.73-1.753 0-6.331-4.204-7.831-7.192-2.047-4.077-8.661-10.571-15.057-14.782-6.273-4.13-18.204-8.112-24.228-8.087-8.191.035-22.726 3.275-25.536 5.692-.746.642-1.662 1.167-2.035 1.167s-1.955 1.063-3.515 2.363c-3.015 2.512-8.33 6.499-20.162 15.124-14.972 10.914-30.897 17.573-39.824 16.651-2.476-.256-5.16-.096-5.965.354-2.729 1.527-20.803 3.325-23.939 2.381-4.897-1.474-24.898-2.013-30.955-.834-13.727 2.673-25.866 7.926-35.087 15.184-6.248 4.918-8.819 8.303-13.148 17.315l-3.608 7.51.247 10.161c.152 6.229-.141 11.236-.757 12.939-.911 2.52-.797 3.001 1.233 5.192 1.787 1.928 2.06 2.745 1.358 4.058-.484.904-.763 3.65-.621 6.102.275 4.736 1.457 5.964 6.771 7.034 1.323.266 2.648 1.395 3.288 2.799 1.145 2.512 1.925 3.447 8.47 10.148 8.849 9.059 19.751 15.011 31.569 17.235 6.294 1.184 9.814 1.325 18.905.755 6.144-.385 13.684-.75 16.756-.811s6.165-.35 6.874-.642c2.788-1.151 28.734-3.692 33.942-3.324 1.89.133 6.902.986 11.137 1.895 5.806 1.246 8.526 2.317 11.06 4.353 1.848 1.485 5.731 3.839 8.627 5.229s7.006 3.611 9.133 4.935c3.36 2.091 5.06 2.482 12.958 2.981 5.119.323 11.314 1.302 14.178 2.239 5.379 1.76 11.302 1.712 20.907-.169zM245.674 403.444c8.573-2.798 12.554-5.568 23.968-16.671 10.504-10.218 13.065-13.718 12.15-16.603-.985-3.105-5.67-8.404-7.429-8.404-2.069 0-5.467 3.659-7.979 8.593-6.48 12.726-22.063 22.342-36.206 22.342-4.389 0-6.536-.513-10.482-2.505-6.468-3.265-10.456-7.013-10.456-9.827 0-1.205-.656-2.558-1.458-3.007-1.244-.696-1.457-2.311-1.452-10.999.007-11.075 1.842-19.747 5.843-27.606 2.824-5.547 3.768-14.851 1.716-16.903-1.536-1.536-4.851-3.053-6.671-3.053-2.226 0-6.455 9.09-8.997 19.334-3.296 13.289-4.629 22.176-4.767 31.794-.104 7.236.081 8.11 2.869 13.577 1.639 3.214 4.806 8.003 7.038 10.643 3.461 4.093 5.299 5.356 12.488 8.581 8.306 3.726 8.538 3.775 15.772 3.342 4.45-.266 9.986-1.302 14.054-2.63zm94.18-63.137c5.037-.724 15.132-3.152 27.152-6.53 2.409-.677 5.079-2.003 5.933-2.947s2.089-1.716 2.745-1.716c1.505 0 2.9-1.077 8.478-6.545 9.669-9.478 13.519-23.103 13.573-48.021.03-14.162-.065-14.965-3.113-26.295-4.119-15.307-8.194-25.237-13.863-33.776-2.539-3.825-4.758-7.381-4.93-7.902-.693-2.094-27.372-25.718-34.471-30.522-2.295-1.554-4.082-3.43-4.082-4.286 0-2.504-1.546-2.687-3.069-.363-.964 1.472-2.205 2.176-3.834 2.176-5.312 0-6.374 2.226-3.895 8.16.865 2.069 1.954 3.11 3.652 3.487 6.049 1.344 8.261 2.542 14.578 7.896 3.71 3.145 11.393 10.378 17.073 16.074 14.474 14.514 18.387 22.293 23.234 46.189 2.107 10.389 2.269 12.524 1.778 23.459-.297 6.617-.93 13.949-1.406 16.295-1.177 5.799-6.487 16.449-9.119 18.292-1.182.827-3.244 2.374-4.582 3.437s-3.17 1.933-4.071 1.933-2.005.339-2.454.753c-1.446 1.334-11.108 4.278-19.965 6.083-5.514 1.124-11.937 1.756-17.828 1.756-8.187 0-10.177-.324-17.937-2.921-14.606-4.888-24.453-12.596-26.006-20.358-.282-1.411-1.055-2.5-1.774-2.5-.726 0-1.079-.507-.821-1.179.249-.648-.307-4.032-1.235-7.519s-1.863-10.234-2.078-14.992l-.39-8.652 3.441-6.769c3.358-6.605 8.826-12.448 12.844-13.723.882-.28 2.227-1.461 2.989-2.624s1.867-2.115 2.455-2.115 2.492-.967 4.231-2.148c2.784-1.892 4.07-2.148 10.773-2.148 6.948 0 7.959.22 11.599 2.529 2.193 1.391 4.549 3.615 5.236 4.943s2.115 3.187 3.174 4.131c2.877 2.565 4.268 6.629 4.849 14.169.505 6.543.429 6.922-2.179 10.986-1.486 2.315-2.701 4.573-2.701 5.016 0 1.708-7.05 5.311-11.41 5.831-6.362.759-9.34-.263-11.146-3.824-2.813-5.55-1.965-9.544 3.354-15.793 1.581-1.857 2.874-3.677 2.874-4.043s.967-1.632 2.148-2.814c4.232-4.232 1.974-9.96-3.927-9.96-2.742 0-3.73.57-6.526 3.764-4.24 4.842-10.2 14.851-11.385 19.119-2.278 8.204-.379 15.275 5.944 22.135 6.533 7.087 13.788 8.115 26.911 3.813 7.174-2.352 10.878-6.147 16.637-17.044 3.224-6.101 3.709-7.717 3.696-12.315-.021-7.609-2.082-16.264-5.213-21.893l-4.044-7.46c-.731-1.418-1.844-2.887-2.473-3.265s-1.144-1.189-1.144-1.801-2.747-2.527-6.103-4.254l-6.103-3.14-12.586.008c-12.306.008-12.683.064-16.925 2.497-2.386 1.369-4.85 3.105-5.476 3.859s-1.507 1.37-1.959 1.37c-1.587 0-11.034 8.9-13.367 12.592-1.296 2.052-2.641 3.732-2.987 3.733-.94.002-4.487 7.457-6.336 13.321-1.165 3.694-1.627 7.715-1.626 14.178 0 8.41.242 9.694 3.553 18.905 5.404 15.029 11.686 23.823 21.713 30.399 14.628 9.592 32.193 13.417 49.923 10.87zM204.001 297.34c7.597-1.94 15.614-5.29 18-7.521.896-.838 4.193-3.457 7.327-5.82s7.099-5.553 8.811-7.089 3.413-2.793 3.782-2.793c.806 0 6.085-7.235 8.233-11.283 1.991-3.753 2.668-22.783 1.245-35.018-1.053-9.056-4.551-23.223-5.948-24.087-.454-.281-3.157-5.663-6.007-11.961-9.59-21.194-17.215-28.038-33.642-30.191-4.017-.527-11.859-2.362-17.426-4.079l-10.122-3.121-2.338 1.731c-3.425 2.537-6.321 7.2-6.029 9.707.245 2.101.526 2.198 7.988 2.753 9.806.73 33.559 6.697 38.737 9.731 4.792 2.808 7.963 7.11 12.992 17.621l4.991 10.312c.597 1.182 1.368 3.502 1.713 5.156s1.133 3.974 1.749 5.156c1.403 2.687 2.98 18.324 2.978 29.529-.002 10.759-.956 12.53-11.464 21.278-9.954 8.287-18.647 13.901-24.658 15.926-6.666 2.245-26.877 2.297-30.266.078-1.263-.827-2.794-1.535-3.401-1.574-.906-.057-5.142-4.612-9.7-10.431-1.571-2.005-5.583-10.555-5.583-11.897 0-.726-.358-1.687-.795-2.136-2.614-2.686-3.585-32.131-1.312-39.787 1.497-5.041 7.573-12.158 10.38-12.158.932 0 2.09-.396 2.574-.88s2.398-.906 4.254-.938 5.254-.648 7.551-1.369c6.047-1.898 10.756-1.104 15.918 2.686 7.192 5.28 8.263 7.799 8.248 19.406-.014 10.979-1.513 17.055-5.186 21.018-1.158 1.25-2.106 3.015-2.106 3.924 0 1.928-4.017 4.274-7.318 4.274-3.329 0-5.276-1.353-6.341-4.407-1.557-4.465-1.102-7.896 1.741-13.145 3.046-5.624 3.639-10.859 1.475-13.024s-7.423-1.789-9.916.704c-3.286 3.286-6.401 12.895-6.912 21.324-.498 8.221.064 9.93 5.24 15.934 3.403 3.947 11.976 7.7 15.902 6.961 6.09-1.145 8.532-2.185 10.387-4.419.61-.735 1.809-1.336 2.664-1.336s1.792-.744 2.08-1.654 1.427-2.982 2.529-4.606c2.086-3.075 6.064-13.153 7.534-19.089.468-1.89.669-7.884.446-13.319-.621-15.127-3.573-21.752-12.95-29.056-3.549-2.764-11.839-6.175-15.01-6.175-6.612 0-24.339 4.299-30.272 7.341-4.417 2.265-10.886 8.941-12.638 13.042-4.482 10.49-5.228 33.284-1.609 49.141 2.724 11.933 5.775 18.053 13.635 27.348 9.028 10.675 16.225 13.647 33.605 13.877 5.039.067 9.825-.47 14.238-1.597zm146.904 210.552c-3.822-3.723-4.929-4.344-7.442-4.174-2.248.151-3.402-.323-4.834-1.988-2.344-2.725-5.97-13.965-5.329-16.52.66-2.631 6.074-8.777 9.156-10.394l5.045-2.649c1.37-.719 5.672-2.113 9.561-3.096 5.544-1.402 7.52-1.583 9.151-.84 1.144.521 3.126.943 4.403.937s4.743 1.058 7.7 2.363l5.378 2.374 2.22 7.178c1.481 4.789 2.044 8.116 1.692 9.995-.612 3.26-5.031 9.726-7.183 10.511-.808.295-2.55 1.426-3.871 2.515s-4.026 2.417-6.01 2.951-4.964 1.657-6.621 2.496-4.253 1.792-5.769 2.119c-2.493.538-3.186.177-7.246-3.778zm12.58 109.906c-5.621-.743-7.681-1.492-12.89-4.685-1.89-1.159-4.114-2.355-4.941-2.658-1.359-.498-1.504-2.101-1.504-16.678v-16.128l5.617-5.254c5.561-5.202 5.666-5.254 10.526-5.181 2.7.04 8.577.524 13.06 1.074l8.151 1.001 1.05 10.026c.578 5.514 1.84 13.119 2.805 16.9 2.501 9.796 2.336 12.061-1.154 15.871-1.6 1.747-3.667 3.175-4.593 3.175s-2.384.773-3.24 1.719c-1.684 1.861-3.929 2.004-12.89.819zm-40.937-11.547c-4.088-2.831-11.245-5.599-14.479-5.599-.999 0-3.247-.737-4.994-1.638s-4.313-1.965-5.702-2.365c-3.283-.945-4.279-4.575-3.618-13.183.712-9.271 2.546-14.273 7.504-20.458 5.511-6.875 8.751-8.978 13.032-8.456 2.381.29 3.222.078 3.222-.814 0-1.772 2.87-1.471 5.47.574 3.52 2.769 6.624 8.797 7.137 13.86.253 2.504-.159 8.983-.917 14.399s-1.405 12.956-1.438 16.756c-.087 9.919-.362 10.284-5.216 6.922zm-21.889-72.144c-.973-.681-3.827-2.021-6.342-2.976-4.633-1.761-9.458-5.562-9.458-7.452 0-.569-1.353-3.772-3.008-7.119s-3.008-6.483-3.008-6.969 1.079-.883 2.397-.883c6.876 0 24.417-7.14 32.977-13.424 3.725-2.734 4.201-2.885 4.637-1.471.267.867.998 2.736 1.626 4.154 5.389 12.183 6.109 15.53 4.417 20.513-1.665 4.905-11.13 14.863-15.25 16.044-4.035 1.157-6.934 1.023-8.989-.417zm-65.21 11.028c-1.129-.872-2.812-1.187-4.909-.918-2.329.299-3.698-.032-5.072-1.224-1.035-.898-2.613-1.633-3.506-1.633-2.159 0-9.587-7.034-13.242-12.54-1.611-2.427-3.687-6.617-4.614-9.311l-1.685-4.898 3.195-1.423c1.757-.783 5.515-1.474 8.351-1.535s6.123-.502 7.304-.978c4.383-1.765 10.929-1.952 21.064-.601l15.313 1.83 5.013.457-.287 13.982c-.329 16.053-.483 16.427-7.711 18.761-5.709 1.844-16.844 1.862-19.214.031zm.477 47.748c1.682-9.363 3.881-14.039 9.23-19.626 2.657-2.776 4.215-3.558 9.426-4.734 6.277-1.417 9.846-1.194 12.232.765.709.582 2.361 1.313 3.672 1.625 3.557.846 6.529 8.154 7.208 17.73l.529 7.449-3.785.953c-3.373.849-34.553 4.467-38.5 4.467-1.509 0-1.509-.293-.012-8.628zm-27.115 6.649c-7.399-2.956-23.088-16.933-26.574-23.674-1.731-3.348-1.124-4.752 2.779-6.426 7.13-3.057 14.776-3.239 22.998-.547 2.968.972 6.893 4.845 9.732 9.602 2.443 4.095 3.297 13.448 1.671 18.298-1.071 3.194-1.396 3.449-4.59 3.607-1.89.093-4.597-.294-6.015-.86zm-34.802-52.796c0-6.148 1.035-9.429 4.951-15.688 3.176-5.076 6.427-8.593 7.945-8.593 1.756 0 3.652 6.418 4.063 13.749.401 7.16.36 7.349-2.045 9.572-1.35 1.247-4.663 2.897-7.363 3.667s-5.503 1.627-6.23 1.906c-1.097.421-1.321-.36-1.321-4.613z" fill="#fff"/></svg>