<?xml version="1.0" encoding="UTF-8" standalone="no"?>
<svg
   xmlns:dc="http://purl.org/dc/elements/1.1/"
   xmlns:cc="http://creativecommons.org/ns#"
   xmlns:rdf="http://www.w3.org/1999/02/22-rdf-syntax-ns#"
   xmlns:svg="http://www.w3.org/2000/svg"
   xmlns="http://www.w3.org/2000/svg"
   xmlns:sodipodi="http://sodipodi.sourceforge.net/DTD/sodipodi-0.dtd"
   xmlns:inkscape="http://www.inkscape.org/namespaces/inkscape"
   version="1.0"
   width="587.000000pt"
   height="642.000000pt"
   viewBox="0 0 587.000000 642.000000"
   preserveAspectRatio="xMidYMid meet"
   id="svg14"
   sodipodi:docname="face17.svg"
   inkscape:version="1.0.1 (3bc2e813f5, 2020-09-07)">
  <metadata
     id="metadata20">
    <rdf:RDF>
      <cc:Work
         rdf:about="">
        <dc:format>image/svg+xml</dc:format>
        <dc:type
           rdf:resource="http://purl.org/dc/dcmitype/StillImage" />
      </cc:Work>
    </rdf:RDF>
  </metadata>
  <defs
     id="defs18" />
  <sodipodi:namedview
     pagecolor="#ffffff"
     bordercolor="#666666"
     borderopacity="1"
     objecttolerance="10"
     gridtolerance="10"
     guidetolerance="10"
     inkscape:pageopacity="0"
     inkscape:pageshadow="2"
     inkscape:window-width="1920"
     inkscape:window-height="1027"
     id="namedview16"
     showgrid="false"
     inkscape:zoom="1.0046729"
     inkscape:cx="391.33333"
     inkscape:cy="428"
     inkscape:window-x="1912"
     inkscape:window-y="-8"
     inkscape:window-maximized="1"
     inkscape:current-layer="svg14" />
  <g
     transform="translate(0.000000,642.000000) scale(0.100000,-0.100000)"
     fill="#000000"
     stroke="none"
     id="g12">
    <path
       d="M2320 5942 c-36 -2 -68 -8 -72 -15 -5 -9 -10 -9 -19 0 -7 7 -18 9 -28 4 -9 -5 -36 -12 -61 -16 -25 -4 -54 -12 -65 -18 -11 -6 -33 -13 -50 -15 -16 -2 -32 -7 -35 -12 -3 -5 -31 -11 -62 -13 -32 -3 -71 -12 -87 -20 -17 -8 -40 -13 -51 -10 -11 3 -20 0 -20 -6 0 -5 -7 -8 -15 -5 -8 4 -15 1 -15 -6 0 -7 -8 -9 -21 -5 -12 4 -27 1 -37 -9 -10 -8 -39 -16 -65 -18 -26 -2 -47 -6 -47 -10 0 -3 -13 -9 -29 -13 -16 -3 -44 -17 -63 -31 -18 -13 -71 -52 -118 -85 -107 -77 -196 -162 -269 -259 -90 -120 -114 -161 -166 -295 -15 -38 -31 -79 -35 -90 -19 -45 -30 -94 -36 -150 -2 -33 -8 -96 -13 -139 -10 -107 -5 -350 9 -406 6 -25 13 -63 16 -85 2 -22 10 -65 16 -95 7 -30 13 -59 14 -65 0 -5 4 -17 7 -25 10 -27 17 -179 23 -480 5 -266 4 -309 -15 -434 -11 -77 -18 -142 -16 -144 3 -3 0 -10 -5 -17 -23 -27 -39 -196 -44 -460 -3 -147 0 -213 10 -250 7 -27 13 -69 14 -93 0 -23 7 -59 15 -79 8 -19 15 -46 15 -59 0 -12 4 -25 9 -29 5 -3 15 -30 21 -61 6 -30 24 -79 39 -108 16 -29 31 -66 34 -82 12 -67 78 -223 110 -258 9 -11 17 -26 17 -33 0 -7 5 -13 10 -13 6 0 10 -10 10 -21 0 -24 57 -129 70 -129 4 0 10 -8 14 -17 6 -18 16 -37 49 -86 10 -15 15 -33 11 -40 -4 -6 -4 -9 0 -5 4 3 16 -1 25 -10 10 -10 45 -43 79 -74 36 -33 62 -65 62 -76 0 -15 5 -19 19 -15 12 3 31 -7 56 -31 20 -20 43 -36 50 -36 14 0 77 -31 85 -42 3 -4 17 -8 30 -11 14 -2 36 -8 50 -14 55 -24 95 -38 104 -35 4 2 19 -4 33 -13 13 -9 32 -15 41 -14 9 1 20 0 25 -1 4 -1 10 -3 15 -5 4 -1 20 -7 36 -14 21 -8 42 -9 75 -2 25 5 52 6 61 2 8 -4 49 -16 90 -25 41 -10 82 -20 90 -23 18 -7 25 -9 70 -22 19 -6 67 -19 105 -31 50 -15 94 -20 155 -19 47 1 87 1 90 -1 3 -1 25 -3 50 -5 25 -2 70 -6 100 -9 30 -3 116 -8 190 -11 74 -3 158 -8 187 -11 28 -3 60 -1 70 5 31 16 56 23 103 27 25 3 59 11 76 19 16 8 57 19 90 25 86 15 93 16 164 35 36 9 72 23 80 30 8 7 27 15 43 19 44 10 137 55 191 93 50 33 61 45 129 126 18 21 45 54 61 73 15 19 32 34 38 34 5 0 25 15 44 33 30 28 37 44 50 112 21 109 32 246 33 395 1 134 16 282 31 311 6 10 10 35 10 56 0 22 4 43 9 48 5 6 14 35 20 65 7 30 30 91 53 135 36 70 69 119 178 265 47 63 146 234 165 285 10 28 22 55 27 61 4 6 29 53 54 105 49 98 60 133 89 264 10 44 23 103 30 130 38 149 51 234 66 440 16 220 17 443 1 510 -7 28 -14 75 -16 105 -2 30 -9 69 -14 87 -6 17 -8 34 -5 36 4 5 -15 45 -27 57 -8 8 -32 74 -33 92 -1 9 -5 14 -9 12 -4 -3 -8 2 -8 11 0 23 -24 95 -32 95 -3 0 -9 13 -13 30 -4 16 -11 32 -16 36 -5 3 -16 21 -24 40 -8 19 -19 34 -25 34 -6 0 -10 6 -8 13 4 15 -73 108 -83 101 -4 -2 -10 4 -13 13 -3 10 -28 34 -55 53 -27 19 -47 38 -44 43 2 4 -3 7 -11 7 -9 0 -16 7 -16 15 0 9 -9 15 -21 15 -15 0 -19 5 -15 15 3 9 0 15 -10 15 -19 0 -98 45 -115 66 -7 8 -20 12 -30 9 -12 -4 -19 -1 -19 8 0 13 -110 71 -140 73 -8 1 -28 6 -43 13 -16 6 -32 9 -37 6 -4 -3 -10 1 -13 8 -5 13 -131 42 -146 33 -4 -3 -20 2 -35 9 -16 9 -39 12 -54 8 -16 -4 -23 -2 -18 5 4 6 -1 8 -13 5 -10 -3 -22 0 -25 6 -4 6 -20 11 -35 11 -15 0 -32 5 -39 12 -7 7 -33 13 -59 14 -26 2 -49 7 -51 13 -2 5 -9 8 -17 5 -7 -3 -27 2 -44 10 -16 9 -48 16 -70 16 -22 0 -43 4 -46 10 -3 5 -20 10 -38 9 -18 0 -54 4 -82 9 -27 6 -86 17 -130 25 -44 9 -88 19 -97 22 -10 4 -18 3 -18 -3 0 -6 -9 -6 -25 1 -14 7 -25 15 -25 20 0 4 -11 5 -25 1 -15 -4 -32 -1 -41 7 -9 8 -29 12 -45 11 -16 -2 -29 1 -29 7 0 6 -9 11 -20 11 -11 0 -20 5 -20 10 0 6 -6 10 -14 10 -7 0 -19 6 -26 14 -6 8 -18 12 -25 10 -8 -3 -20 4 -27 15 -7 12 -22 21 -33 21 -11 0 -25 8 -32 19 -6 10 -28 22 -47 25 -20 4 -36 10 -36 15 0 8 -78 45 -117 56 -13 4 -23 11 -23 16 0 6 -8 8 -19 4 -11 -3 -21 0 -24 9 -3 8 -14 15 -24 16 -55 2 -129 13 -133 20 -8 11 -58 16 -130 12z m105 -122 c4 -6 11 -8 16 -4 13 8 104 -13 159 -38 44 -20 71 -31 100 -42 8 -3 22 -10 30 -14 37 -21 60 -32 70 -32 5 0 32 -16 60 -36 27 -19 54 -33 60 -29 5 3 13 0 16 -8 3 -9 20 -21 37 -28 17 -7 39 -21 49 -31 10 -10 27 -18 38 -18 11 0 20 -4 20 -9 0 -5 17 -11 38 -14 20 -2 80 -12 132 -21 52 -9 115 -19 140 -23 64 -7 70 -8 119 -22 24 -7 71 -15 105 -17 33 -3 65 -9 71 -13 5 -5 43 -16 83 -26 40 -9 75 -21 78 -26 3 -5 9 -7 14 -4 8 5 32 0 125 -25 39 -10 190 -39 230 -44 11 -1 28 -6 38 -10 9 -5 23 -6 31 -3 8 3 20 -1 26 -9 7 -8 21 -14 31 -14 11 0 19 -5 19 -10 0 -6 3 -9 8 -8 4 0 25 -7 47 -17 22 -10 45 -19 50 -19 11 -1 63 -34 83 -53 7 -7 17 -13 22 -13 5 0 25 -14 45 -31 20 -18 38 -29 41 -26 3 3 24 -13 46 -34 23 -21 45 -39 49 -39 5 0 16 -11 25 -25 14 -21 14 -28 3 -41 -7 -9 -23 -20 -36 -25 -28 -11 -31 -57 -6 -99 15 -27 15 -30 -1 -56 -10 -14 -21 -22 -25 -17 -3 5 -16 12 -29 15 -28 8 -52 -24 -52 -68 0 -31 1 -32 78 -67 27 -13 29 -50 5 -75 -10 -10 -35 -39 -56 -65 -43 -52 -63 -59 -76 -24 -10 26 -53 48 -99 52 -16 1 -34 5 -40 9 -7 4 -12 1 -12 -8 0 -9 -4 -16 -9 -16 -5 0 -8 -11 -8 -25 0 -24 52 -75 77 -75 22 0 -10 -38 -42 -49 -17 -6 -39 -18 -49 -27 -9 -8 -20 -14 -25 -13 -5 1 -17 -1 -27 -6 -20 -8 -47 10 -47 31 0 18 -19 49 -50 84 -21 23 -29 25 -48 17 -25 -11 -25 -6 -7 -113 8 -45 -4 -63 -27 -42 -8 7 -22 18 -33 24 -11 6 -20 24 -23 45 -2 19 -9 39 -16 44 -7 6 -11 16 -8 24 2 7 0 16 -5 20 -5 3 -13 21 -19 40 -12 43 -36 60 -58 42 -18 -15 -23 -131 -6 -131 11 0 14 -33 4 -43 -8 -8 -54 14 -54 25 0 5 -5 6 -10 3 -6 -4 -31 3 -55 14 -25 12 -54 21 -65 21 -11 0 -20 5 -20 10 0 6 -13 10 -29 10 -23 0 -33 7 -45 32 -9 17 -16 37 -16 45 0 7 -6 13 -13 13 -8 0 -22 9 -32 20 -23 25 -80 37 -100 20 -21 -17 -19 -40 7 -67 18 -19 20 -28 12 -41 -6 -9 -20 -17 -30 -18 -20 -1 -37 -7 -89 -29 -95 -40 -161 -70 -165 -75 -3 -3 -22 -14 -44 -25 -21 -10 -53 -37 -71 -58 -29 -34 -36 -37 -54 -27 -12 6 -21 14 -21 18 0 4 -14 13 -31 21 -26 12 -32 11 -50 -4 -24 -22 -27 -94 -4 -96 8 -1 20 -3 25 -4 6 -1 15 -3 21 -4 14 -1 7 -39 -16 -101 -10 -25 -21 -74 -24 -110 -6 -63 -7 -65 -33 -62 -19 2 -31 -3 -43 -21 -22 -34 -15 -82 12 -82 11 -1 28 -6 36 -14 12 -9 21 -10 36 -2 16 9 21 7 26 -12 4 -12 18 -36 31 -53 12 -17 26 -43 30 -58 4 -15 14 -30 23 -33 9 -2 23 -8 32 -13 18 -9 76 7 103 29 28 23 20 74 -15 100 -17 13 -33 20 -36 17 -9 -9 -35 24 -30 38 3 8 16 20 29 28 84 47 88 51 88 95 0 33 7 50 32 78 27 31 30 40 22 63 -5 15 -18 28 -29 30 -29 6 -45 22 -45 44 0 15 -5 18 -20 13 -32 -10 -26 31 8 49 15 8 38 24 51 35 25 22 61 28 61 11 0 -5 6 -10 14 -10 22 0 46 -57 39 -91 -6 -32 7 -38 27 -14 7 9 20 13 27 10 49 -18 76 58 48 132 -17 44 -17 47 0 60 22 16 35 17 35 3 0 -5 8 -10 18 -10 11 0 27 -15 38 -37 19 -35 24 -38 63 -37 31 1 48 7 65 25 12 13 21 30 18 37 -2 6 3 12 12 12 9 0 16 -4 16 -10 0 -5 9 -10 19 -10 11 0 23 -5 26 -10 4 -6 11 -8 16 -5 5 4 12 -1 15 -10 4 -9 13 -14 22 -10 8 3 20 -2 26 -10 6 -9 29 -22 51 -29 27 -10 41 -21 43 -35 2 -13 11 -21 22 -21 10 0 22 -4 25 -10 7 -12 65 -14 65 -2 0 13 148 8 161 -5 10 -10 19 -6 44 15 68 57 79 64 145 91 37 15 75 33 84 40 16 14 31 9 31 -10 0 -12 5 -12 35 -1 41 16 70 50 70 82 0 28 5 36 52 76 13 11 32 46 42 78 14 44 25 60 45 69 14 6 38 22 53 35 l27 25 -22 28 c-14 20 -29 29 -50 29 -24 0 -27 3 -23 20 3 11 9 30 12 42 4 12 15 30 24 41 18 19 18 19 29 -2 7 -12 18 -21 25 -21 8 0 13 -6 13 -12 -2 -17 41 -148 52 -162 5 -6 11 -24 14 -41 3 -16 15 -73 27 -125 33 -150 48 -259 45 -340 -5 -125 -36 -523 -41 -532 -6 -9 -9 -23 -18 -93 -8 -53 -47 -219 -71 -299 -8 -26 -15 -53 -15 -58 0 -5 -26 -64 -58 -131 -33 -67 -70 -144 -83 -172 -46 -97 -67 -131 -257 -402 -46 -65 -90 -142 -106 -185 -16 -40 -32 -82 -36 -93 -17 -40 -63 -241 -67 -290 -2 -27 -8 -54 -13 -61 -6 -6 -12 -82 -15 -170 -8 -267 -27 -392 -68 -437 -12 -13 -49 -54 -82 -91 -73 -83 -125 -132 -136 -129 -5 2 -13 -6 -19 -17 -7 -13 -21 -20 -41 -20 -18 0 -32 -6 -36 -16 -6 -16 -150 -89 -167 -85 -5 1 -12 -2 -15 -8 -6 -9 -135 -46 -186 -54 -11 -1 -25 -6 -31 -10 -6 -3 -27 -8 -47 -11 -19 -2 -44 -9 -54 -14 -25 -14 -167 -26 -278 -24 -49 1 -114 2 -142 2 -29 1 -53 4 -53 9 0 5 -30 8 -67 9 -98 0 -242 11 -288 22 -22 5 -61 12 -86 15 -26 3 -54 14 -63 24 -12 13 -28 18 -53 16 -20 -2 -46 1 -57 8 -12 6 -23 12 -26 12 -3 1 -24 7 -46 13 -23 7 -66 14 -95 17 -30 3 -76 8 -104 11 -27 3 -58 7 -67 7 -10 1 -18 5 -18 9 0 4 -9 8 -20 8 -11 0 -37 9 -57 20 -21 11 -45 20 -53 20 -8 0 -42 14 -75 30 -33 16 -64 30 -68 30 -7 0 -18 7 -99 62 -17 12 -38 21 -45 21 -7 0 -13 4 -13 9 0 4 -7 8 -15 8 -8 0 -17 11 -21 24 -3 13 -16 29 -29 36 -13 7 -40 33 -62 58 -21 26 -49 57 -62 71 -13 13 -29 39 -37 56 -7 18 -24 43 -38 56 -14 13 -26 30 -26 38 0 7 -18 46 -40 86 -22 40 -40 80 -40 89 0 9 -4 16 -10 16 -5 0 -12 15 -15 33 -4 19 -18 46 -31 62 -13 15 -24 35 -24 44 0 9 -9 31 -20 49 -11 18 -20 39 -20 47 0 9 -4 23 -9 33 -21 41 -30 70 -34 107 -3 22 -15 81 -26 130 -14 54 -27 157 -33 260 -10 146 -9 196 6 355 10 102 22 193 27 202 5 10 12 39 14 64 3 25 7 49 9 53 3 4 8 74 11 156 4 83 9 182 12 220 3 39 5 97 4 130 -8 310 -12 380 -25 445 -9 41 -16 89 -16 107 0 17 -5 44 -11 60 -6 15 -12 52 -14 81 -2 30 -11 100 -20 155 -9 56 -17 113 -19 126 -2 13 0 56 5 95 6 39 10 89 10 111 0 22 4 56 9 75 5 19 16 67 26 105 9 39 20 75 24 80 4 6 13 31 20 58 7 26 17 47 21 47 5 0 9 7 9 16 0 9 8 28 18 42 10 15 24 41 31 59 7 17 21 39 32 49 10 9 19 23 19 29 0 21 183 201 221 218 20 9 42 24 50 33 8 9 47 39 87 65 66 44 154 77 247 93 11 2 46 11 78 19 32 9 64 14 72 10 8 -3 15 -1 15 5 0 5 16 13 36 17 21 3 47 13 60 22 13 8 28 12 33 8 6 -3 25 1 43 9 35 15 77 23 168 33 30 3 56 6 57 7 9 7 93 3 98 -4z m788 -1790 c82 -69 84 -74 45 -98 -18 -11 -51 -24 -72 -28 l-39 -7 6 51 c6 50 24 92 40 92 4 0 13 -5 20 -10z"
       id="path2" />
    <path
       d="M1752 4880 c-76 -21 -118 -47 -176 -113 -65 -71 -92 -153 -106 -317 -13 -154 -2 -222 59 -360 8 -19 14 -41 13 -48 -2 -6 9 -17 23 -22 14 -5 29 -20 34 -32 5 -13 19 -33 30 -45 12 -13 18 -23 14 -23 -4 0 3 -7 16 -17 170 -118 411 -113 530 11 19 20 40 36 47 36 17 0 52 60 61 101 3 19 17 48 29 65 55 72 72 190 48 331 -8 49 -19 96 -24 105 -6 10 -10 29 -10 43 0 14 -4 25 -9 25 -5 0 -13 10 -17 22 -9 29 -65 99 -74 93 -4 -2 -18 7 -31 21 -30 31 -76 55 -95 47 -9 -3 -14 0 -12 8 2 8 -2 13 -9 12 -7 -2 -17 6 -23 18 -8 13 -19 19 -34 17 -13 -1 -31 3 -40 11 -27 22 -177 29 -244 11z m207 -106 c17 -4 31 -13 31 -20 0 -7 6 -11 13 -8 7 2 24 -4 37 -16 13 -11 31 -20 40 -20 10 0 23 -6 30 -14 6 -8 18 -12 26 -9 7 3 17 -2 20 -11 3 -9 13 -16 20 -16 19 0 76 -91 71 -112 -3 -9 -1 -18 4 -20 9 -3 25 -114 34 -223 3 -49 -40 -147 -88 -197 -10 -10 -15 -23 -11 -29 13 -21 -136 -152 -162 -142 -8 3 -14 0 -14 -5 0 -7 -34 -10 -101 -7 -89 3 -104 6 -134 29 -19 14 -39 26 -44 26 -6 0 -18 18 -27 40 -9 22 -22 40 -30 40 -7 0 -17 12 -20 28 -4 15 -11 32 -15 38 -5 6 -10 25 -12 42 -2 17 -8 37 -14 44 -15 18 -24 70 -30 161 -6 106 19 230 56 277 15 19 30 42 34 52 8 22 105 70 127 63 9 -3 28 -1 41 4 29 12 75 13 118 5z"
       id="path4" />
    <path
       d="M1940 4493 c-59 -6 -74 -11 -108 -41 -29 -25 -34 -37 -39 -88 -5 -59 -5 -60 31 -87 20 -16 36 -24 36 -19 0 5 21 6 47 2 53 -8 73 -4 73 15 0 6 8 26 18 44 49 92 51 96 37 103 -7 5 -11 17 -8 28 4 13 0 20 -10 20 -8 0 -17 7 -21 15 -3 8 -9 14 -13 13 -4 0 -24 -3 -43 -5z"
       id="path6" />
    <path
       d="M2257 3578 c-14 -13 -29 -35 -32 -50 -6 -24 -3 -30 24 -45 17 -10 38 -34 47 -53 9 -19 42 -60 74 -91 61 -62 103 -114 113 -141 3 -10 11 -18 17 -18 5 0 10 -7 10 -16 0 -8 7 -22 15 -30 8 -9 15 -26 15 -38 0 -13 7 -29 15 -36 9 -7 22 -28 31 -46 9 -18 40 -56 70 -84 30 -28 54 -55 54 -59 0 -33 222 -86 267 -63 10 5 36 10 58 11 66 4 79 7 102 19 12 7 45 17 75 23 82 18 216 87 291 151 37 32 71 58 75 58 5 0 33 23 63 52 30 29 59 51 65 50 7 -1 14 8 18 20 3 13 29 38 60 58 31 19 57 42 59 50 5 22 -74 101 -94 95 -10 -3 -20 -1 -24 5 -12 19 -25 10 -25 -18 0 -21 -19 -46 -87 -113 -49 -47 -117 -106 -154 -131 -36 -26 -72 -54 -79 -63 -12 -15 -82 -52 -112 -60 -5 -2 -11 -4 -15 -5 -5 -1 -12 -3 -18 -4 -5 -1 -24 -9 -41 -18 -32 -17 -57 -24 -129 -34 -22 -3 -56 -9 -75 -14 -19 -4 -58 -8 -86 -9 -53 -2 -73 9 -141 77 -12 12 -27 22 -33 22 -6 0 -18 15 -26 33 -9 17 -26 50 -39 72 -13 22 -24 46 -24 54 -1 8 -17 33 -36 57 -19 23 -35 47 -35 52 0 6 -22 32 -48 59 -26 26 -61 66 -77 88 -61 82 -111 135 -130 135 -8 0 -15 5 -15 10 0 16 -15 12 -43 -12z"
       id="path8" />
    <path
       d="M1589 2885 c-3 -2 -21 -6 -40 -8 -36 -4 -99 -35 -99 -48 0 -4 -9 -10 -19 -14 -50 -16 -102 -179 -121 -380 -13 -130 -20 -168 -39 -189 -12 -14 -13 -20 -4 -23 10 -4 9 -8 -2 -20 -23 -22 -18 -33 15 -33 32 0 36 -9 19 -41 -12 -23 -3 -59 15 -59 9 0 12 -9 8 -26 -5 -28 16 -133 30 -149 4 -5 8 -19 8 -31 0 -12 7 -27 15 -34 11 -9 14 -22 9 -46 -4 -22 -2 -34 5 -34 6 0 11 -8 11 -19 0 -10 7 -24 15 -31 8 -7 14 -18 14 -24 -3 -19 20 -66 35 -72 8 -3 17 -15 20 -27 3 -12 37 -55 75 -96 63 -67 72 -73 99 -68 20 4 34 1 42 -8 7 -8 19 -15 27 -15 8 0 11 -4 8 -10 -4 -6 6 -10 22 -10 16 0 39 -7 51 -16 18 -12 26 -13 37 -4 9 7 30 10 52 7 119 -18 168 -29 206 -49 23 -12 50 -21 60 -19 9 1 17 -4 17 -12 0 -9 14 -17 38 -20 34 -6 70 -39 64 -60 -4 -13 25 -37 45 -37 10 0 25 -9 33 -20 8 -11 19 -20 25 -20 6 0 37 -25 70 -55 32 -30 64 -55 71 -55 7 0 25 -6 41 -14 15 -8 51 -25 78 -37 28 -13 56 -28 64 -33 14 -11 18 -12 59 -14 12 -1 30 -10 41 -21 28 -28 198 -44 225 -22 6 6 31 10 54 9 23 0 49 5 57 12 8 6 18 9 23 6 15 -9 138 21 199 50 32 14 66 27 76 28 10 0 21 6 25 13 4 6 14 13 22 15 20 4 86 49 130 87 19 17 38 31 41 31 14 0 69 101 94 172 24 68 26 84 18 135 -7 49 -6 64 10 95 20 39 22 56 12 103 -8 43 -11 69 -19 165 -14 160 -35 270 -56 292 -11 12 -20 29 -20 37 0 16 -3 20 -104 124 -36 38 -66 65 -67 60 0 -4 -4 2 -9 15 -5 12 -17 25 -26 29 -10 4 -26 15 -37 26 -10 10 -25 16 -32 13 -7 -2 -18 1 -24 8 -6 7 -22 12 -36 10 -14 -1 -25 2 -25 7 0 5 -7 9 -15 9 -8 0 -31 9 -51 20 -20 12 -39 19 -42 16 -3 -3 -11 -1 -19 5 -7 6 -22 9 -33 6 -11 -3 -20 -1 -20 3 0 4 -24 11 -52 15 -29 4 -69 11 -88 15 -19 5 -69 12 -111 15 -41 3 -86 7 -98 10 -13 2 -55 7 -95 10 -126 10 -151 13 -247 30 -52 10 -105 25 -119 35 -14 9 -31 15 -37 13 -7 -3 -13 1 -13 8 0 7 -3 10 -6 6 -3 -3 -27 6 -52 19 -26 14 -85 41 -132 61 -47 20 -89 41 -95 48 -18 21 -74 43 -95 38 -11 -3 -20 -1 -20 5 0 6 -22 16 -50 23 -27 7 -50 16 -50 21 0 4 -7 5 -15 2 -8 -4 -15 -2 -15 3 0 17 -168 52 -181 38z m126 -136 c5 -5 21 -9 36 -9 15 0 31 -5 35 -11 3 -6 17 -8 30 -5 17 5 27 1 36 -14 7 -11 18 -20 25 -20 6 0 28 -9 47 -21 35 -20 49 -60 27 -73 -5 -3 -12 -34 -16 -68 -4 -34 -11 -69 -15 -78 -49 -102 -75 -147 -112 -193 -65 -82 -117 -107 -156 -74 -7 5 -39 12 -70 14 -71 6 -106 22 -110 51 -3 16 -8 22 -19 18 -8 -3 -23 -1 -34 5 -22 11 -21 45 8 199 8 47 17 94 18 105 15 99 94 196 145 180 10 -3 21 -2 24 4 7 11 86 3 101 -10z m458 -223 c15 -3 27 -10 27 -15 0 -4 11 -6 25 -4 15 3 31 -1 41 -11 9 -10 29 -20 45 -23 16 -3 32 -10 35 -14 3 -5 22 -9 43 -9 21 0 59 -6 85 -14 27 -8 54 -12 62 -9 19 7 18 -9 -5 -60 -10 -23 -24 -64 -31 -92 -7 -27 -16 -54 -19 -60 -3 -5 -11 -25 -16 -44 -6 -19 -26 -47 -47 -63 -34 -28 -42 -30 -127 -31 -57 -1 -94 2 -102 10 -6 6 -18 9 -25 6 -8 -3 -14 -1 -14 5 0 5 -11 10 -24 10 -27 0 -58 27 -81 72 -21 40 -22 150 -2 187 8 16 20 48 27 73 7 25 16 53 21 62 5 10 9 27 9 39 0 20 2 20 23 7 12 -8 34 -18 50 -22z m692 -130 c124 -10 220 -30 220 -46 0 -8 4 -21 8 -28 5 -7 6 -20 3 -30 -9 -29 -46 -252 -46 -279 0 -46 -106 -162 -167 -182 l-40 -13 -47 48 c-25 27 -46 53 -46 59 0 6 -9 16 -20 23 -11 7 -20 17 -20 23 0 6 -7 27 -16 47 -47 108 -59 170 -44 232 7 28 16 53 21 56 5 3 9 16 9 28 0 13 7 29 15 36 9 7 14 18 11 25 -4 12 19 12 159 1z m440 -98 c22 -3 49 -10 60 -16 11 -5 36 -17 55 -26 34 -14 140 -116 140 -133 0 -4 10 -19 23 -33 57 -63 67 -94 67 -213 0 -62 6 -157 14 -212 14 -100 14 -100 -10 -125 -28 -30 -86 -49 -134 -44 -19 3 -43 5 -54 5 -10 0 -25 7 -33 15 -8 7 -23 14 -33 14 -9 0 -35 18 -56 40 -53 54 -57 59 -84 107 -17 31 -27 40 -35 33 -9 -7 -12 -3 -12 17 0 31 -7 76 -23 143 -6 25 -9 68 -6 95 11 102 18 145 25 145 3 0 7 19 8 43 2 38 18 120 29 157 4 10 7 11 12 3 4 -6 25 -13 47 -15z m-1741 -266 c5 -16 16 -17 128 -9 125 8 144 4 130 -31 -3 -8 1 -20 9 -26 8 -6 15 -22 17 -36 6 -61 1 -176 -9 -214 -6 -22 -17 -68 -26 -101 -8 -33 -20 -75 -25 -93 l-10 -32 -28 20 c-15 11 -35 20 -44 20 -18 0 -126 108 -126 126 0 8 -13 29 -30 47 -16 19 -27 37 -23 41 3 3 1 6 -6 6 -7 0 -11 7 -8 15 4 8 2 17 -3 20 -6 4 -10 19 -10 36 0 16 -4 29 -10 29 -5 0 -18 30 -30 66 -19 62 -19 91 0 79 4 -3 21 8 37 25 31 34 59 39 67 12z m698 -124 c9 0 19 -6 22 -14 3 -8 12 -14 21 -14 39 0 99 -54 91 -83 -2 -10 2 -21 10 -24 23 -8 44 -70 44 -127 0 -43 -10 -72 -66 -183 -59 -118 -69 -131 -85 -122 -11 5 -19 13 -19 18 0 5 -28 16 -62 26 -35 9 -67 21 -73 25 -5 5 -28 11 -49 16 -22 4 -51 13 -65 20 -14 8 -37 14 -51 14 -43 0 -54 14 -46 56 4 22 11 58 15 81 4 23 13 49 20 57 7 8 12 25 11 38 -1 13 -1 25 0 28 1 3 7 25 13 50 11 41 19 50 90 96 70 47 82 51 120 47 23 -3 50 -5 59 -5z m516 -312 c7 -4 19 -3 28 5 11 9 18 8 32 -5 10 -9 22 -16 27 -16 13 0 44 -41 39 -53 -2 -7 9 -18 26 -25 16 -8 30 -18 30 -24 0 -6 -13 -32 -29 -58 -21 -34 -31 -67 -36 -111 -3 -35 -11 -82 -17 -104 -6 -22 -13 -75 -17 -117 l-6 -77 -55 20 c-30 11 -71 24 -90 30 -19 5 -46 15 -60 22 -39 18 -128 86 -134 103 -3 7 -13 14 -22 14 -21 0 -43 28 -44 55 0 11 9 43 19 70 42 108 83 174 139 227 54 49 61 53 107 53 28 0 56 -4 63 -9z m479 -203 c28 -12 61 -23 72 -23 11 0 25 -9 31 -19 6 -12 17 -17 29 -14 10 3 22 0 25 -6 4 -6 15 -11 25 -11 10 0 24 -7 31 -15 7 -9 21 -13 31 -10 11 4 19 2 19 -4 0 -5 13 -12 30 -16 16 -3 32 -15 35 -25 12 -37 -152 -169 -198 -162 -10 2 -27 -4 -38 -14 -11 -9 -31 -19 -44 -20 -14 -1 -39 -10 -57 -18 -17 -9 -43 -16 -58 -16 -14 0 -30 -4 -35 -9 -12 -10 -95 -31 -125 -31 -18 0 -20 5 -16 43 7 61 24 156 30 165 3 5 14 53 26 108 12 61 26 104 37 111 25 19 92 13 150 -14z"
       id="path10" />
  </g>
  <path
     style="fill:#ffffff;stroke-width:0"
     d="m 393.82171,762.51319 c -1.09489,-0.49305 -10.54526,-1.36784 -21.00083,-1.94397 -22.55477,-1.24281 -41.37783,-4.25867 -45.61953,-7.30923 -1.69018,-1.21554 -5.04077,-2.29065 -7.9628,-2.55505 -2.77461,-0.25105 -8.40369,-1.53898 -12.50905,-2.86204 -4.4,-1.41804 -14.33069,-3.21672 -24.19009,-4.3814 -9.1992,-1.08669 -17.48584,-2.35261 -18.41478,-2.81314 -0.92893,-0.46053 -3.25665,-1.37979 -5.17269,-2.04279 -17.20006,-5.95165 -33.0304,-13.06519 -41.51713,-18.65617 -3.16907,-2.08775 -7.49705,-4.68015 -9.61774,-5.76088 -2.12069,-1.08073 -4.49185,-2.9357 -5.26925,-4.12216 -0.77739,-1.18646 -6.0073,-6.87517 -11.62202,-12.64158 -5.64385,-5.79634 -11.47136,-12.85446 -13.03268,-15.78481 -1.55326,-2.91524 -4.0326,-6.64416 -5.50964,-8.28648 -2.65864,-2.95615 -14.95712,-27.71425 -14.95712,-30.1102 0,-0.68381 -0.43065,-1.24329 -0.95699,-1.24329 -0.52634,0 -1.42287,-1.73019 -1.99229,-3.84485 -0.56942,-2.11467 -2.13023,-5.4583 -3.46846,-7.43029 -2.25012,-3.31574 -6.20644,-11.94682 -8.74728,-19.083 -0.58475,-1.64233 -1.87819,-5.0551 -2.87431,-7.58395 -2.15067,-5.45987 -8.27204,-35.26587 -9.9921,-48.65326 -1.91127,-14.87553 -1.65387,-53.56779 0.47013,-70.66977 0.98586,-7.9379 2.38835,-16.67209 3.11664,-19.4093 1.88337,-7.07845 3.40809,-19.14793 4.02371,-31.85116 0.29182,-6.02186 1.00185,-19.01116 1.57783,-28.86512 1.91934,-32.83654 -0.66982,-74.4502 -6.50262,-104.51163 -2.26257,-11.66093 -6.52901,-45.43997 -6.47443,-51.26046 0.1779,-18.97178 4.43842,-42.91643 10.91182,-61.32571 2.9463,-8.37879 12.89983,-28.26138 15.88924,-31.73941 0.94107,-1.09488 2.67759,-3.60846 3.85893,-5.58573 2.83361,-4.74275 23.89284,-25.09463 28.72385,-27.75906 2.0844,-1.1496 6.92516,-4.53289 10.75726,-7.51841 8.52832,-6.64429 17.65496,-11.49051 26.87442,-14.27025 10.59418,-3.194227 28.11058,-7.075849 31.93084,-7.075849 1.87222,0 3.40404,-0.430643 3.40404,-0.956984 0,-0.526342 1.9036,-1.42344 4.23023,-1.993553 2.32663,-0.570113 5.49828,-1.707144 7.04811,-2.526737 1.54982,-0.819592 3.71982,-1.490168 4.82222,-1.490168 1.1024,0 4.98529,-0.889549 8.62864,-1.976775 12.1396,-3.622617 39.07081,-6.253027 40.49117,-3.95483 0.35211,0.56971 1.48198,0.768663 2.51083,0.442117 5.41596,-1.71896 43.18559,13.168398 56.6874,22.344029 2.46349,1.67415 5.0801,3.04583 5.81467,3.04817 0.73458,0.002 2.52621,0.91763 3.9814,2.03397 5.43303,4.16791 13.3492,8.91913 14.86047,8.91913 0.8599,0 2.27059,0.63163 3.13486,1.40362 0.93689,0.83686 10.81527,2.84885 24.46442,4.9828 12.59116,1.96855 26.92418,4.45909 31.85116,5.53453 4.92698,1.07543 11.42163,2.24269 14.43256,2.5939 5.65485,0.6596 27.52222,6.59409 30.83933,8.36935 1.03197,0.5523 3.05633,1.00417 4.49858,1.00417 1.44224,0 6.95855,1.09494 12.25846,2.43319 8.71806,2.20135 32.20643,6.92949 40.98968,8.25109 1.91604,0.2883 4.36722,1.13763 5.44705,1.8874 1.07983,0.74976 2.75948,1.36321 3.73256,1.36321 0.97307,0 1.76922,0.39298 1.76922,0.87329 0,0.48031 3.94339,2.29521 8.76308,4.03312 4.89709,1.76581 11.05362,4.89347 13.95507,7.08949 2.85561,2.16133 5.47748,3.92968 5.82638,3.92968 0.34891,0 2.91528,1.73452 5.70307,3.85449 2.78777,2.11997 5.60726,4.02358 6.26553,4.23023 1.90897,0.59931 15.25658,12.0095 16.27523,13.91286 0.72359,1.35205 0.22272,2.29064 -2.30151,4.31284 -1.77451,1.42159 -3.82581,3.08046 -4.55845,3.68639 -1.59787,1.32151 -1.11978,8.75566 0.86493,13.44924 1.15909,2.74112 1.10709,3.46763 -0.4145,5.78987 -1.18242,1.80458 -2.11724,2.36123 -2.91751,1.73724 -5.06429,-3.94874 -10.63341,-0.21069 -10.63341,7.13727 0,3.6241 0.48773,4.83571 2.6226,6.515 1.44243,1.13462 3.17365,2.06294 3.84717,2.06294 2.10767,0 6.46976,4.03802 6.46976,5.98912 0,2.16072 -12.1862,16.95179 -15.10583,18.33477 -1.60588,0.76068 -2.42996,0.34554 -4.45793,-2.24571 -3.10792,-3.97119 -4.91988,-4.94532 -11.5141,-6.19009 -2.8888,-0.54531 -5.92423,-1.19962 -6.74539,-1.45401 -1.77407,-0.5496 -3.9814,3.63409 -3.9814,7.54621 0,2.96709 6.7234,9.87087 9.61295,9.87087 1.45051,0 1.42083,0.25095 -0.2517,2.12808 -1.04288,1.17043 -3.46381,2.78935 -5.37985,3.59758 -1.91605,0.80823 -4.61861,2.27562 -6.0057,3.26086 -1.38709,0.98525 -4.0886,2.08526 -6.00335,2.44447 -3.89897,0.73145 -6.16786,-0.99441 -7.23406,-5.50266 -0.32937,-1.39268 -2.24108,-4.64001 -4.24824,-7.21628 -2.70729,-3.47492 -4.32161,-4.68021 -6.25343,-4.6689 -4.93258,0.0289 -5.44983,1.06152 -4.6964,9.37594 0.37878,4.1799 0.88782,8.14393 1.13122,8.80896 0.2434,0.66505 0.0411,1.83981 -0.44944,2.61059 -0.72208,1.13448 -1.64937,0.80154 -4.8685,-1.74806 -3.11254,-2.46518 -4.23575,-4.23008 -5.16967,-8.12309 -0.65623,-2.73549 -1.59605,-5.22263 -2.08849,-5.52697 -0.49244,-0.30434 -0.89534,-1.3238 -0.89534,-2.26548 0,-0.94167 -1.45569,-4.61047 -3.23488,-8.15289 -2.66851,-5.31309 -3.66541,-6.44075 -5.69386,-6.44075 -1.62364,0 -2.88664,0.84533 -3.71789,2.48837 -1.49761,2.96021 -1.73608,15.92558 -0.2929,15.92558 0.54744,0 0.99535,1.11977 0.99535,2.48838 0,3.06103 -1.82433,3.191 -5.3926,0.3842 -1.47127,-1.1573 -2.92684,-1.85237 -3.2346,-1.54461 -0.30776,0.30777 -3.47285,-0.53698 -7.03353,-1.87722 -3.56067,-1.34024 -7.2616,-2.43679 -8.22427,-2.43679 -0.96268,0 -2.30792,-0.67186 -2.98942,-1.49303 -0.68151,-0.82116 -2.53456,-1.49302 -4.1179,-1.49302 -3.12438,0 -6.20107,-3.82448 -7.37444,-9.16678 -0.33551,-1.52758 -1.21193,-2.77741 -1.94759,-2.77741 -0.73566,0 -2.75045,-1.18886 -4.4773,-2.64191 -2.15883,-1.81653 -4.66879,-2.78883 -8.03401,-3.11219 -8.19443,-0.78738 -10.1158,2.93384 -5.18706,10.04602 l 2.70357,3.90125 -2.31617,1.8755 c -1.27388,1.03154 -3.22824,1.87552 -4.34301,1.87552 -2.54877,0 -26.00967,10.00628 -34.42207,14.68132 -3.47123,1.92906 -8.93585,5.93724 -12.14361,8.90706 -5.06473,4.68904 -6.10077,5.25597 -7.8724,4.30783 -1.12205,-0.60051 -2.0401,-1.47294 -2.0401,-1.93875 0,-1.54744 -7.06828,-4.25028 -9.51145,-3.63709 -2.75825,0.69227 -4.13006,2.8511 -4.47693,7.04531 -0.5537,6.6953 -0.20081,7.39804 4.05694,8.07888 2.2019,0.3521 4.2216,0.99313 4.4882,1.42451 0.26662,0.43138 -0.61461,4.29173 -1.95826,8.57856 -1.34366,4.28683 -2.93863,10.92958 -3.54437,14.76167 -1.85858,11.75779 -1.7237,11.44651 -4.95991,11.44651 -5.15138,0 -8.91787,6.3686 -6.9021,11.67048 0.48418,1.27348 1.67089,2.57118 2.63712,2.88379 0.96625,0.31261 3.13231,1.25562 4.8135,2.09558 2.35954,1.17889 3.52947,1.27418 5.12964,0.4178 1.83959,-0.98453 2.29271,-0.69108 4.02524,2.60682 7.28307,13.86346 9.54172,17.28502 12.37863,18.75204 3.856,1.99401 10.30352,1.15899 14.90199,-1.92998 2.75182,-1.8485 3.35958,-2.93432 3.61584,-6.46005 0.26947,-3.70753 -0.12302,-4.66913 -3.13535,-7.68146 -1.89386,-1.89386 -4.22263,-3.44339 -5.17505,-3.44339 -2.11075,0 -4.40562,-2.91152 -3.71449,-4.71259 0.27697,-0.72174 2.57865,-2.49345 5.11486,-3.93713 7.8509,-4.46892 10.08571,-7.0804 10.08571,-11.7856 0,-3.19189 0.93254,-5.52605 4.08102,-10.2149 3.5051,-5.21994 3.95397,-6.47096 3.18068,-8.86486 -0.57274,-1.77308 -2.29086,-3.47576 -4.72193,-4.67951 -2.32687,-1.15216 -4.24021,-3.00135 -4.89192,-4.72791 -0.75911,-2.01113 -1.75163,-2.83564 -3.41346,-2.83564 -4.09152,0 -2.11673,-3.07368 5.2376,-8.15217 6.52908,-4.50862 10.4815,-5.96382 10.4815,-3.85909 0,0.51055 0.8526,1.19888 1.89465,1.52961 2.56428,0.81387 5.07279,6.41159 5.07279,11.31985 0,4.97571 1.01484,5.69034 4.35247,3.06495 1.42766,-1.123 3.05199,-1.75984 3.60962,-1.41521 1.8198,1.1247 4.96775,-0.57735 6.48139,-3.5044 1.8941,-3.66278 1.88981,-9.52188 -0.0109,-14.90912 -0.82116,-2.32742 -1.49302,-4.83146 -1.49302,-5.56454 0,-1.74811 4.02118,-3.93093 4.85448,-2.63517 0.34097,0.53018 1.61586,1.2747 2.83311,1.6545 1.21725,0.37979 3.4714,2.56772 5.00924,4.86206 2.6646,3.9754 3.05746,4.18538 8.35606,4.46613 4.79389,0.25401 5.98947,-0.0668 8.67681,-2.32801 1.71424,-1.44244 3.11681,-3.47863 3.11681,-4.52484 0,-2.18634 1.09352,-2.37998 4.24374,-0.75147 4.63564,2.3964 5.72219,2.83064 7.08277,2.83064 0.77002,0 1.65786,0.67186 1.97297,1.49303 0.31511,0.82116 1.68032,1.49302 3.0338,1.49302 1.35347,0 2.76859,0.49791 3.1447,1.10647 0.37611,0.60857 3.09879,2.17449 6.0504,3.47983 3.19792,1.41427 5.79754,3.31924 6.43308,4.71409 1.59308,3.49645 8.02363,5.99239 13.13871,5.09963 6.27172,-1.09464 20.97882,-0.90508 23.12879,0.29811 2.27078,1.27078 3.82783,0.55019 10.88029,-5.03539 2.74876,-2.17701 10.37261,-6.54107 16.94191,-9.6979 11.56665,-5.55825 12.59579,-5.75021 13.71771,-2.55852 0.56939,1.61982 7.27244,-1.3672 10.41543,-4.64135 1.84225,-1.91912 3.38114,-4.81675 3.81593,-7.18511 0.4944,-2.69307 2.00312,-5.25285 4.69324,-7.96279 3.51184,-3.53772 5.5005,-7.03451 9.45309,-16.62208 0.60649,-1.47113 3.47662,-4.20506 6.37807,-6.07541 2.90145,-1.87035 6.11017,-4.34154 7.13047,-5.49152 1.81742,-2.04841 1.80732,-2.15057 -0.49767,-5.02841 -2.58178,-3.22349 -5.86267,-5.11593 -8.86935,-5.11593 -1.06912,0 -1.94386,-0.38107 -1.94386,-0.84682 0,-1.87787 2.41295,-7.78264 4.26809,-10.44451 l 1.97293,-2.83086 2.39418,2.58203 c 1.31681,1.42011 2.73929,2.58202 3.16109,2.58202 0.42179,0 1.35352,2.35151 2.0705,5.22558 0.71698,2.87407 2.81768,9.19087 4.66822,14.03731 3.88391,10.17173 10.86072,43.23885 12.16675,57.66522 0.50245,5.55012 0.51476,15.615 0.0287,23.3907 -1.96835,31.48288 -3.93995,53.98553 -5.42551,61.92305 -6.58192,35.16822 -11.98994,55.59908 -18.57444,70.1721 -12.14189,26.87282 -22.64222,45.69151 -37.21034,66.68837 -7.97639,11.49628 -16.45543,24.21888 -18.84231,28.27243 -6.30503,10.70766 -12.73632,29.12282 -16.37715,46.89382 -1.73646,8.47578 -3.791,18.32189 -4.56563,21.88026 -0.77463,3.55837 -1.85623,15.87581 -2.40355,27.37209 -1.47991,31.08504 -3.27193,44.81073 -6.75756,51.75814 -0.82398,1.64233 -6.78314,8.82019 -13.24256,15.95081 -10.93366,12.0697 -16.60543,17.39338 -18.53072,17.39338 -0.43792,0 -1.34182,0.87363 -2.00866,1.9414 -0.66903,1.0713 -2.8953,2.25093 -4.96732,2.63204 -2.06521,0.37984 -5.09864,1.81393 -6.74096,3.18685 -3.2591,2.72449 -17.99492,10.15599 -20.13819,10.15599 -0.73252,0 -2.38435,0.68961 -3.67072,1.53249 -1.28638,0.84286 -7.42934,2.82291 -13.65103,4.40011 -6.22168,1.57719 -16.68704,4.32157 -23.25634,6.09861 -11.84845,3.20507 -12.15562,3.23354 -38.32093,3.55123 -14.50721,0.17614 -27.27256,-0.0831 -28.36744,-0.57623 z m 17.45082,-22.72234 c 3.5761,-0.51706 7.43639,-1.44019 8.57843,-2.05139 1.14205,-0.6112 2.335,-0.85273 2.65102,-0.5367 1.65695,1.65694 37.06034,-9.41877 41.49182,-12.98046 0.82116,-0.65998 3.21096,-2.0736 5.31067,-3.14137 2.0997,-1.06777 6.35482,-3.9674 9.45582,-6.44363 3.10099,-2.47624 7.04705,-5.49677 8.76903,-6.71232 3.52282,-2.48675 10.81402,-15.78789 14.31314,-26.11103 1.85653,-5.47718 2.10177,-7.79244 1.59855,-15.09118 -0.51186,-7.42394 -0.30341,-9.27931 1.50079,-13.35799 2.31571,-5.23504 2.31719,-5.15255 -0.5998,-33.26245 -2.80994,-27.07806 -4.87134,-37.66905 -8.28126,-42.54717 -1.0539,-1.50766 -2.1877,-3.86824 -2.51956,-5.24573 -0.33186,-1.37749 -5.77207,-7.60406 -12.08934,-13.83684 -6.31727,-6.23277 -11.48595,-11.69823 -11.48595,-12.14547 0,-1.30402 -10.21168,-8.46701 -12.93953,-9.07645 -2.97087,-0.66373 -8.77583,-2.67608 -11.18417,-3.87711 -0.9506,-0.47406 -2.18722,-0.86193 -2.74806,-0.86193 -0.56084,0 -2.94532,-0.90515 -5.29885,-2.01143 -4.22931,-1.98802 -5.32496,-2.32373 -13.11776,-4.01935 -19.92765,-4.33601 -31.75219,-5.97312 -68.1814,-9.43973 -18.66466,-1.77614 -34.08401,-4.62428 -40.89303,-7.55344 -2.55726,-1.1001 -5.41202,-2.11209 -6.34391,-2.24886 -0.93189,-0.13678 -1.99445,-0.66507 -2.36126,-1.17398 -0.3668,-0.50892 -1.33877,-1.06765 -2.15994,-1.24163 -3.33379,-0.70633 -32.67263,-14.70789 -37.00889,-17.66198 -2.56303,-1.74609 -6.37024,-3.47783 -8.46046,-3.84834 -3.49119,-0.61884 -11.12004,-3.21916 -17.23762,-5.8755 -1.36861,-0.59427 -2.93628,-1.14419 -3.48372,-1.22206 -0.54745,-0.0778 -2.56303,-0.83195 -4.47907,-1.67574 -12.5102,-5.5093 -33.10073,-4.1424 -39.99884,2.65532 -1.26692,1.24848 -3.35967,2.82551 -4.65056,3.50452 -3.07297,1.61637 -8.29371,13.06781 -10.91542,23.94243 -1.12183,4.65326 -2.99074,16.29884 -4.15313,25.87907 -2.24693,18.51884 -3.30902,23.32521 -5.77879,26.15143 -1.17242,1.34162 -1.26494,2.04317 -0.38543,2.92269 0.87952,0.87951 0.77322,1.58172 -0.44284,2.92545 -2.25527,2.49205 -1.04928,4.63878 2.81445,5.00986 2.36655,0.22728 3.17235,0.73586 2.8665,1.80917 -0.234,0.82117 -0.61199,3.35836 -0.83998,5.63822 -0.34121,3.41211 -0.0525,4.33894 1.63258,5.24077 1.21337,0.64937 1.81734,1.6943 1.48296,2.56568 -1.26997,3.30949 4.43185,26.02875 7.44296,29.65692 0.68726,0.8281 1.1413,3.34044 1.00898,5.58299 -0.13232,2.24255 0.29501,4.61295 0.94962,5.26755 0.6546,0.65461 1.19019,1.94159 1.19019,2.85996 0,0.91836 0.65099,2.21001 1.44663,2.87035 0.79565,0.66032 2.14581,3.60568 3.00036,6.54522 0.85455,2.93954 2.3764,5.9254 3.38189,6.63523 1.00549,0.70984 2.56581,2.72228 3.46737,4.47211 0.90156,1.74982 5.49823,7.23668 10.21483,12.19302 7.66743,8.05715 8.95077,9.01152 12.11782,9.01152 4.16639,0 11.09929,2.94341 11.13612,4.72791 0.0141,0.68597 1.25375,1.24693 2.76289,1.25031 1.50546,0.003 4.03179,0.68127 5.61405,1.50644 2.11424,1.1026 4.48889,1.33581 8.95814,0.87978 7.6963,-0.78533 21.3721,1.68127 31.28906,5.64335 4.01033,1.60223 7.88159,2.91314 8.60281,2.91314 0.72123,0 1.56013,0.64839 1.86423,1.44086 0.30411,0.79246 2.30913,1.91375 4.45563,2.49174 5.24987,1.41365 9.13934,4.6181 9.13934,7.52972 0,2.49614 3.29519,5.45861 6.07168,5.45861 0.90605,0 2.2555,0.73278 2.99881,1.6284 0.7433,0.89562 2.9257,2.6387 4.84978,3.87353 1.92408,1.23482 6.60726,4.95403 10.40707,8.26491 3.7998,3.31087 8.0237,6.29961 9.38644,6.64163 1.36275,0.34204 7.88381,3.22655 14.49127,6.41003 6.60745,3.18348 13.74875,6.04693 15.86956,6.36322 2.1208,0.31628 4.696,1.33523 5.72265,2.26433 4.54854,4.11637 19.98585,5.18986 37.73263,2.62387 z m -5.50664,-258.93019 c 4.92698,-0.65006 10.52582,-1.83481 12.44186,-2.63275 1.91605,-0.79795 7.48727,-2.5942 12.38051,-3.99167 10.38515,-2.9659 24.43137,-9.95864 32.90786,-16.38278 19.58981,-14.84667 24.65299,-19.01482 35.38244,-29.12782 3.03708,-2.86259 7.40418,-6.6857 9.70465,-8.49579 2.41102,-1.89709 4.18268,-4.13056 4.18268,-5.27298 0,-2.82093 -9.28994,-11.84059 -12.19539,-11.84059 -1.28519,0 -2.84408,-0.50738 -3.46421,-1.12751 -1.74454,-1.74454 -4.24738,-0.21366 -4.24738,2.59794 0,7.76296 -49.49905,49.29236 -58.75175,49.29236 -0.62325,0 -4.13215,1.31625 -7.79755,2.92501 -6.52691,2.86468 -32.01733,8.02383 -39.64427,8.02383 -4.91673,0 -9.00146,-2.11874 -15.93426,-8.26506 -3.39335,-3.00838 -6.60992,-5.62677 -7.14795,-5.81864 -0.53803,-0.19187 -3.94949,-6.14393 -7.58101,-13.2268 -3.63152,-7.08287 -7.82702,-14.47333 -9.32335,-16.42326 -1.49633,-1.94992 -3.56282,-4.88903 -4.59221,-6.53136 -1.0294,-1.64232 -4.16642,-5.44953 -6.97117,-8.46046 -2.80474,-3.01093 -8.157,-9.28163 -11.8939,-13.93489 -7.25419,-9.03305 -12.2166,-13.86469 -14.28451,-13.90811 -0.70149,-0.0147 -1.53324,-0.69863 -1.84835,-1.5198 -0.84948,-2.2137 -1.93636,-1.86211 -6.22722,2.01441 -5.84804,5.28336 -6.56014,10.97142 -1.6534,13.20708 1.317,0.60007 4.20531,3.7575 6.41846,7.01651 2.21316,3.25901 7.6982,9.89055 12.18899,14.73677 10.0416,10.83634 18.97269,23.795 20.27891,29.42395 1.03047,4.44061 8.40876,14.78716 17.46765,24.49482 9.09852,9.75014 10.70548,10.6661 23.8489,13.59372 6.96053,1.5504 12.40208,1.47482 26.35497,-0.36613 z m -129.1528,-136.5734 c 3.41805,-1.25382 8.34502,-3.97857 10.94884,-6.05499 2.6038,-2.07643 6.88337,-5.40499 9.51014,-7.39679 4.69255,-3.55824 8.61206,-9.67274 10.06781,-15.70597 0.38279,-1.58643 2.4327,-5.76396 4.55537,-9.28339 7.84013,-12.9991 8.71366,-29.31413 2.91528,-54.4495 -1.1456,-4.96604 -2.47171,-9.70104 -2.94692,-10.5222 -7.16097,-12.37408 -6.38625,-11.48932 -18.35101,-20.95742 -2.72558,-2.15684 -6.4579,-4.20337 -8.29402,-4.54783 -1.83613,-0.34445 -4.94364,-2.09686 -6.90558,-3.89424 -1.96194,-1.79737 -4.94823,-3.48472 -6.63621,-3.74965 -1.68797,-0.26494 -5.08462,-1.23925 -7.54811,-2.16513 -6.28223,-2.36113 -24.28981,-2.402 -32.35614,-0.0735 -7.64846,2.20794 -11.67627,4.62039 -18.2049,10.90378 -10.12237,9.74213 -14.00735,18.27921 -16.71241,36.72481 -1.11727,7.61853 -1.48947,15.23929 -1.19843,24.5374 0.38258,12.22295 0.73088,14.32629 3.71671,22.44495 1.812,4.92698 4.09532,11.17508 5.07404,13.88468 0.9867,2.73171 2.95919,5.7859 4.42747,6.85546 2.41035,1.75582 5.29338,5.53532 9.54573,12.51398 2.0478,3.36069 16.4547,10.63452 24.82658,12.53457 9.3761,2.12797 25.49938,1.35983 33.56576,-1.5991 z"
     id="path22"
     transform="scale(0.74999999)" />
  <path
     style="fill:#ffffff;stroke-width:0"
     d="m 245.49969,331.46418 c -7.07504,-1.0403 -15.49853,-6.62893 -17.84947,-11.84239 -1.00506,-2.22883 -2.77159,-4.67323 -3.92562,-5.432 -1.28131,-0.84246 -3.02709,-4.24189 -4.48392,-8.7312 -1.31213,-4.04339 -3.18638,-9.382 -4.16501,-11.86358 -2.80188,-7.10493 -4.29418,-24.29226 -2.97191,-34.22851 1.54,-11.57244 3.31521,-16.90484 8.27477,-24.85588 5.4195,-8.6884 11.13091,-12.22331 22.39982,-13.86368 11.53128,-1.67857 19.27861,-1.21366 21.30988,1.27878 0.90891,1.11527 2.40744,2.02777 3.33007,2.02777 0.92262,0 2.86641,0.83705 4.31952,1.86011 1.45311,1.02306 3.76179,2.20316 5.1304,2.62245 1.3686,0.41928 3.37187,1.37386 4.4517,2.12128 1.07983,0.74742 2.75948,1.35895 3.73256,1.35895 0.97307,0 1.76923,0.42347 1.76923,0.94104 0,0.51757 1.23041,1.53075 2.73425,2.25152 3.25884,1.56193 9.20993,11.07951 9.20993,14.72945 0,1.4202 0.41923,3.00769 0.93162,3.52776 1.56159,1.58499 4.30585,23.42279 3.80872,30.30837 -0.51016,7.06608 -4.08688,15.35492 -9.61549,22.28338 -1.6982,2.12818 -3.08764,4.82964 -3.08764,6.00325 0,1.89189 -6.5248,9.0326 -13.55916,14.83907 -5.961,4.92047 -17.98526,6.68715 -31.74425,4.66406 z m 22.82458,-53.3195 c 3.72691,-7.96925 4.6166,-10.73994 3.73256,-11.62398 -0.63839,-0.63838 -1.16071,-2.41484 -1.16071,-3.94768 0,-1.70411 -0.53293,-2.78697 -1.37161,-2.78697 -0.75439,0 -2.00326,-0.9513 -2.77526,-2.11399 -1.33726,-2.01402 -1.77018,-2.065 -9.15539,-1.07815 -8.48883,1.13432 -14.62041,4.41639 -16.99834,9.09876 -1.61192,3.17404 -2.90661,13.28654 -2.04757,15.99313 0.35145,1.10734 2.27871,3.12754 4.28278,4.48935 3.18573,2.16476 4.70956,2.4733 12.12203,2.45441 l 8.47825,-0.0216 z"
     id="path24"
     transform="scale(0.74999999)" />
  <path
     style="fill:#ffffff;stroke-width:0"
     d="m 221.10008,564.94445 c -1.38434,-0.77539 -5.99389,-1.8934 -10.24345,-2.48446 -9.22438,-1.28299 -13.161,-3.11501 -14.01633,-6.52292 -0.48298,-1.92432 -1.27837,-2.52673 -3.35151,-2.53836 -6.60596,-0.037 -6.83942,-2.19752 -2.79345,-25.85008 3.82821,-22.37952 5.79217,-27.78753 12.45307,-34.29115 3.12803,-3.05416 4.84139,-3.9489 7.76228,-4.05358 2.06152,-0.0739 4.55172,-0.49324 5.53377,-0.93191 1.90733,-0.85197 7.75668,0.18117 16.62841,2.93699 3.01093,0.93528 6.95986,1.77034 8.7754,1.8557 2.0449,0.0961 3.93865,0.96237 4.97675,2.27646 0.92166,1.1667 2.79552,2.44491 4.16413,2.84048 3.55705,1.02808 8.7119,5.11172 9.47076,7.50269 0.35596,1.12152 0.13191,2.66001 -0.49789,3.41887 -0.6298,0.75886 -1.81553,5.55236 -2.63497,10.65224 -1.69719,10.56275 -7.03901,21.84758 -15.79372,33.36492 -8.51422,11.20097 -14.92383,14.91002 -20.43325,11.82411 z"
     id="path26"
     transform="scale(0.74999999)" />
  <path
     style="fill:#ffffff;stroke-width:0"
     d="m 233.21144,653.91107 c -1.2924,-1.07667 -3.1876,-1.95758 -4.21158,-1.95758 -2.44073,0 -15.19141,-12.06343 -17.17995,-16.25398 -0.85221,-1.7959 -2.91358,-4.98178 -4.58082,-7.07973 -1.66724,-2.09794 -3.03134,-4.42471 -3.03134,-5.1706 0,-0.74589 -0.39707,-1.35616 -0.88238,-1.35616 -0.82976,0 -1.2017,-1.25778 -2.72258,-9.20697 -0.3404,-1.77919 -1.19463,-3.90675 -1.89828,-4.72791 -1.49298,-1.7423 -5.4456,-13.421 -5.4456,-16.08997 0,-1.02401 0.71221,-1.82631 1.62123,-1.82631 0.89167,0 3.35645,-1.56767 5.47728,-3.48372 4.44398,-4.01487 6.30888,-4.33849 7.89734,-1.37043 1.10237,2.0598 1.50445,2.09529 15.88465,1.40184 16.61663,-0.80129 19.34463,-0.39607 18.52161,2.75116 -0.3191,1.22024 0.31207,3.48352 1.51363,5.42769 1.89173,3.06089 2.02275,4.45441 1.59568,16.97152 -0.44269,12.97485 -2.44284,23.13859 -8.31509,42.2531 -0.67439,2.19519 -1.322,2.15216 -4.2438,-0.28195 z"
     id="path28"
     transform="scale(0.74999999)" />
  <path
     style="fill:#ffffff;stroke-width:0"
     d="m 305.22544,675.19177 c -1.70009,-1.70009 -15.90465,-7.10163 -25.99163,-9.8838 -2.80473,-0.77359 -6.70953,-2.07924 -8.67733,-2.90144 -1.9678,-0.82219 -4.85031,-1.4949 -6.40559,-1.4949 -1.55527,0 -3.65447,-0.6045 -4.66489,-1.34333 -1.76989,-1.29418 -1.77524,-1.68152 -0.14619,-10.58578 0.93001,-5.08335 2.39471,-10.60342 3.25489,-12.26682 0.86018,-1.6634 1.74684,-5.07411 1.97036,-7.57934 0.57789,-6.47716 3.04166,-13.38645 5.61706,-15.75226 1.21387,-1.11508 5.56633,-4.20279 9.67214,-6.86157 7.33396,-4.74923 7.59387,-4.83098 14.79348,-4.65353 5.87906,0.1449 7.76178,0.5878 9.51996,2.23953 1.20539,1.1324 3.16924,2.05891 4.36413,2.05891 3.42329,0 10.14104,6.64703 10.14104,10.03429 0,1.75605 0.71215,3.21634 1.871,3.83654 5.09119,2.72472 6.81663,17.39086 3.16924,26.93847 -2.9468,7.71374 -14.26886,29.15397 -15.62471,29.58802 -0.62076,0.19872 -1.90909,-0.41912 -2.86296,-1.37299 z"
     id="path30"
     transform="scale(0.74999999)" />
  <path
     style="fill:#ffffff;stroke-width:0"
     d="m 291.30078,577.07936 c -1.64233,-0.5536 -3.76381,-1.40177 -4.71441,-1.88481 -0.95059,-0.48305 -2.42205,-0.87827 -3.2699,-0.87827 -5.73845,0 -11.36291,-8.90043 -12.08604,-19.12555 -0.4803,-6.79145 -0.17446,-8.26258 4.82366,-23.2028 l 5.33647,-15.9516 2.46673,1.21763 c 6.7195,3.31687 11.73323,5.30418 13.38179,5.30418 1.56964,0 9.0147,3.06812 14.70168,6.05859 0.95059,0.49987 3.19013,0.91585 4.97674,0.9244 1.78662,0.009 5.93583,0.66446 9.22048,1.45757 3.28466,0.79311 7.69967,1.45797 9.81115,1.47747 3.24834,0.03 3.73308,0.30347 3.15038,1.77732 -0.37877,0.95802 -3.04273,8.69241 -5.91991,17.18754 -2.87717,8.49512 -5.712,16.33349 -6.2996,17.4186 -1.33475,2.46482 -6.01144,6.84311 -8.88821,8.32108 -2.6785,1.37611 -22.53158,1.30072 -26.69101,-0.10135 z"
     id="path32"
     transform="scale(0.74999999)" />
  <path
     style="fill:#ffffff;stroke-width:0"
     d="m 373.78764,606.67448 c -10.08843,-11.02112 -11.84919,-13.67971 -15.82728,-23.89774 -3.51268,-9.02257 -3.87873,-10.83785 -3.91386,-19.4093 -0.0291,-7.10996 0.39338,-10.29628 1.70311,-12.84362 0.95803,-1.86329 1.74186,-4.1544 1.74186,-5.09135 0,-0.93695 0.81958,-2.77174 1.82128,-4.07731 1.0017,-1.30557 2.11013,-3.16471 2.46319,-4.13141 0.50594,-1.38534 1.4379,-1.65626 4.39965,-1.279 2.06676,0.26326 8.23681,0.75081 13.71123,1.08344 11.20155,0.68062 25.02454,2.8728 28.71371,4.5537 1.36697,0.62283 2.70654,2.27713 3.02648,3.73753 0.62594,2.85717 -4.93057,40.62013 -6.67394,45.35729 -2.56705,6.97528 -13.4567,17.44958 -21.70962,20.88158 l -3.6108,1.50157 z"
     id="path34"
     transform="scale(0.74999999)" />
  <path
     style="fill:#ffffff;stroke-width:0"
     d="m 366.17466,715.49168 c -13.78826,-4.70109 -22.45577,-9.62395 -28.59016,-16.23827 -1.36861,-1.47568 -3.92813,-3.28628 -5.68783,-4.02357 -6.25017,-2.61872 -5.53445,-9.2152 2.85959,-26.35542 4.23676,-8.65125 6.42096,-11.75517 12.68253,-18.02283 8.38389,-8.39204 10.28864,-9.13757 19.61064,-7.67573 3.25249,0.51004 6.13334,0.47757 7.17681,-0.0809 1.25624,-0.67232 2.42946,-0.40563 4.19958,0.9546 1.35099,1.03815 2.96472,1.89751 3.58606,1.90968 1.4009,0.0275 4.34471,4.39392 4.34471,6.4444 0,0.83355 1.781,2.63985 3.95777,4.01398 l 3.95777,2.49843 -3.84016,7.29152 c -2.35222,4.4663 -4.10073,9.38446 -4.51265,12.69313 -0.36987,2.97088 -1.35475,8.90551 -2.18863,13.18806 -0.83389,4.28256 -2.03989,12.35207 -2.68001,17.93226 l -1.16386,10.1458 z"
     id="path36"
     transform="scale(0.74999999)" />
  <path
     style="fill:#ffffff;stroke-width:0"
     d="m 402.28969,722.01539 c 0.0235,-8.9772 9.31527,-49.35956 12.17023,-52.89213 1.89437,-2.34399 10.70612,-1.39359 21.62967,2.33287 5.76708,1.96739 10.98289,4.20693 11.59068,4.97675 0.6078,0.76982 2.17547,1.41392 3.48372,1.43133 1.30826,0.0174 3.24809,0.68927 4.31075,1.49303 1.06265,0.80375 2.68746,1.46136 3.61068,1.46136 0.92322,0 2.23618,0.67187 2.91768,1.49303 0.68151,0.82116 2.12854,1.49302 3.21564,1.49302 2.76296,0 11.57624,4.17588 12.19024,5.77594 0.72115,1.87929 -8.85609,11.74723 -15.77382,16.25261 -3.2133,2.09275 -7.46841,4.08947 -9.45581,4.43716 -1.9874,0.34768 -4.55426,1.22017 -5.70414,1.93886 -2.7176,1.69856 -16.68613,6.49131 -21.79769,7.47903 -2.18977,0.42313 -5.98809,1.51387 -8.44072,2.42387 -2.45262,0.91 -6.59576,1.90757 -9.20697,2.21683 -4.70216,0.5569 -4.74759,0.53473 -4.74014,-2.31356 z"
     id="path38"
     transform="scale(0.74999999)" />
  <path
     style="fill:#ffffff;stroke-width:0"
     d="m 459.51473,653.94419 c -2.14755,-1.09489 -4.52534,-1.9907 -5.28398,-1.9907 -2.33235,0 -15.17357,-13.12485 -18.39496,-18.80126 -1.67427,-2.95023 -3.79247,-5.55974 -4.70711,-5.79893 -1.25469,-0.32811 -2.10191,-2.92114 -3.45074,-10.56153 -2.57383,-14.57928 -2.88039,-24.67416 -1.03298,-34.01503 0.86618,-4.37953 2.18664,-11.58505 2.93436,-16.01225 2.65816,-15.73873 3.64916,-19.48982 4.88463,-18.48916 0.63932,0.51781 3.84985,1.49069 7.1345,2.16196 12.83438,2.62289 24.99966,11.93936 36.44988,27.91422 7.09878,9.90393 7.13279,10.02088 7.94541,27.31826 0.4115,8.75907 1.30596,21.40064 1.98769,28.09239 1.49209,14.64609 1.08541,15.93157 -6.18669,19.55541 -6.75485,3.36608 -16.37597,3.63667 -22.28001,0.62662 z"
     id="path40"
     transform="scale(0.74999999)" />
  <path
     style="fill:#ffffff;stroke-width:0"
     d="m 245.49969,331.46418 c -7.07504,-1.0403 -15.49853,-6.62893 -17.84947,-11.84239 -1.00506,-2.22883 -2.77159,-4.67323 -3.92562,-5.432 -1.28131,-0.84246 -3.02709,-4.24189 -4.48392,-8.7312 -1.31213,-4.04339 -3.18638,-9.382 -4.16501,-11.86358 -2.80188,-7.10493 -4.29418,-24.29226 -2.97191,-34.22851 1.54,-11.57244 3.31521,-16.90484 8.27477,-24.85588 5.4195,-8.6884 11.13091,-12.22331 22.39982,-13.86368 11.53128,-1.67857 19.27861,-1.21366 21.30988,1.27878 0.90891,1.11527 2.40744,2.02777 3.33007,2.02777 0.92262,0 2.86641,0.83705 4.31952,1.86011 1.45311,1.02306 3.76179,2.20316 5.1304,2.62245 1.3686,0.41928 3.37187,1.37386 4.4517,2.12128 1.07983,0.74742 2.75948,1.35895 3.73256,1.35895 0.97307,0 1.76923,0.42347 1.76923,0.94104 0,0.51757 1.21393,1.52536 2.69762,2.23953 3.15704,1.51964 7.99263,8.91686 9.40616,14.38902 3.04051,11.77065 4.06739,18.93559 4.18664,29.2118 0.12535,10.80221 -0.0281,11.75466 -2.72702,16.92093 -1.57292,3.01093 -4.37234,7.55001 -6.22093,10.08685 -1.84859,2.53683 -3.36108,5.46225 -3.36108,6.50092 0,1.63925 -7.02458,9.19982 -13.55916,14.59375 -5.961,4.92047 -17.98526,6.68715 -31.74425,4.66406 z m 22.82458,-53.3195 c 3.72691,-7.96925 4.6166,-10.73994 3.73256,-11.62398 -0.63839,-0.63838 -1.16071,-2.41484 -1.16071,-3.94768 0,-1.78399 -0.5247,-2.78697 -1.458,-2.78697 -0.8019,0 -1.96233,-0.94235 -2.57873,-2.0941 -1.00936,-1.886 -1.68048,-2.02774 -6.75362,-1.42634 -8.45498,1.00231 -12.27456,2.28895 -15.69516,5.287 -4.1226,3.61332 -5.00843,5.5619 -5.83869,12.84339 -0.7964,6.98455 -0.32221,8.24269 4.42737,11.74682 3.01724,2.22605 4.35826,2.50591 11.91579,2.48674 l 8.51593,-0.0216 z"
     id="path42"
     transform="scale(0.74999999)" />
</svg>
