<?xml version="1.0" encoding="UTF-8" standalone="no"?>
<svg
   xmlns:dc="http://purl.org/dc/elements/1.1/"
   xmlns:cc="http://creativecommons.org/ns#"
   xmlns:rdf="http://www.w3.org/1999/02/22-rdf-syntax-ns#"
   xmlns:svg="http://www.w3.org/2000/svg"
   xmlns="http://www.w3.org/2000/svg"
   xmlns:sodipodi="http://sodipodi.sourceforge.net/DTD/sodipodi-0.dtd"
   xmlns:inkscape="http://www.inkscape.org/namespaces/inkscape"
   version="1.0"
   width="548.000000pt"
   height="627.000000pt"
   viewBox="0 0 548.000000 627.000000"
   preserveAspectRatio="xMidYMid meet"
   id="svg16"
   sodipodi:docname="face19.svg"
   inkscape:version="1.0.1 (3bc2e813f5, 2020-09-07)">
  <metadata
     id="metadata22">
    <rdf:RDF>
      <cc:Work
         rdf:about="">
        <dc:format>image/svg+xml</dc:format>
        <dc:type
           rdf:resource="http://purl.org/dc/dcmitype/StillImage" />
      </cc:Work>
    </rdf:RDF>
  </metadata>
  <defs
     id="defs20" />
  <sodipodi:namedview
     pagecolor="#ffffff"
     bordercolor="#666666"
     borderopacity="1"
     objecttolerance="10"
     gridtolerance="10"
     guidetolerance="10"
     inkscape:pageopacity="0"
     inkscape:pageshadow="2"
     inkscape:window-width="1920"
     inkscape:window-height="1027"
     id="namedview18"
     showgrid="false"
     inkscape:zoom="1.0287081"
     inkscape:cx="365.33333"
     inkscape:cy="418"
     inkscape:window-x="1912"
     inkscape:window-y="-8"
     inkscape:window-maximized="1"
     inkscape:current-layer="svg16" />
  <g
     transform="translate(0.000000,627.000000) scale(0.100000,-0.100000)"
     fill="#000000"
     stroke="none"
     id="g14">
    <path
       d="M2150 5748 c-47 -4 -99 -4 -116 -1 -18 2 -41 0 -51 -6 -11 -5 -41 -11 -66 -13 -26 -2 -47 -6 -47 -11 0 -4 -11 -5 -24 -3 -13 2 -27 1 -31 -2 -3 -4 -38 -12 -77 -19 -38 -6 -77 -18 -87 -27 -10 -9 -25 -16 -34 -16 -9 0 -18 -4 -21 -9 -3 -4 -23 -11 -45 -15 -22 -3 -46 -14 -53 -25 -7 -10 -24 -22 -38 -26 -14 -4 -44 -21 -68 -36 -24 -16 -48 -27 -53 -24 -5 4 -9 2 -9 -4 0 -5 -10 -13 -22 -17 -13 -4 -41 -22 -64 -40 -23 -19 -49 -34 -58 -34 -9 0 -19 -7 -23 -16 -3 -9 -27 -38 -52 -64 -63 -66 -101 -113 -101 -127 0 -6 -11 -20 -25 -31 -14 -11 -25 -25 -25 -32 0 -6 -6 -17 -12 -24 -30 -31 -65 -74 -88 -109 -14 -20 -28 -37 -32 -37 -5 0 -8 -6 -8 -14 0 -7 -6 -19 -14 -25 -8 -7 -26 -34 -40 -60 -14 -27 -36 -65 -50 -86 -14 -21 -26 -46 -26 -56 0 -11 -3 -19 -7 -19 -9 0 -33 -49 -33 -67 0 -7 -4 -13 -10 -13 -5 0 -10 -7 -10 -15 0 -8 -9 -34 -19 -58 -11 -23 -21 -51 -23 -62 -2 -11 -10 -19 -17 -17 -7 1 -10 -1 -7 -6 3 -5 -2 -47 -10 -93 -21 -108 -15 -372 11 -469 9 -36 28 -110 42 -165 32 -130 60 -222 79 -263 21 -45 102 -272 124 -347 51 -173 61 -453 25 -724 -2 -18 -9 -38 -14 -45 -5 -6 -17 -50 -26 -98 -10 -49 -22 -88 -26 -88 -5 0 -9 -13 -9 -30 0 -22 -5 -30 -17 -31 -10 0 -13 -3 -7 -5 11 -5 -4 -116 -18 -129 -4 -4 -5 -46 -3 -94 8 -157 16 -266 22 -288 4 -18 1 -23 -16 -23 -18 0 -21 -6 -21 -43 0 -41 2 -45 41 -63 35 -16 44 -27 59 -69 48 -139 149 -309 241 -407 19 -20 61 -66 93 -102 33 -36 63 -63 66 -61 4 3 15 -4 25 -15 10 -11 23 -20 29 -20 6 0 21 -11 34 -24 26 -28 122 -93 143 -98 8 -2 16 -6 19 -9 13 -16 120 -58 163 -64 26 -4 50 -11 52 -16 3 -4 16 -4 30 1 14 5 25 5 27 0 3 -8 48 -13 88 -9 8 1 40 -2 70 -5 129 -17 385 -21 437 -8 15 4 60 7 100 7 39 0 70 2 68 5 -2 4 31 14 73 24 42 10 86 22 97 26 72 26 96 34 150 50 33 9 73 22 88 28 16 7 33 12 38 12 6 0 24 8 42 17 18 9 43 18 57 20 14 2 35 9 47 15 13 6 25 9 29 6 8 -9 90 19 115 39 12 10 39 33 59 51 21 17 42 32 48 32 6 0 20 19 30 42 10 24 33 58 50 77 18 18 32 36 32 40 0 3 17 14 38 23 21 9 97 75 177 154 78 77 160 151 183 167 75 49 187 156 197 187 4 14 10 27 14 30 3 3 15 23 26 45 11 22 23 42 27 45 4 3 9 15 11 25 2 11 11 35 20 53 10 18 16 36 13 41 -3 4 1 19 8 32 7 14 16 50 20 80 3 30 13 77 20 104 26 92 56 250 56 290 0 78 61 434 79 460 4 6 8 28 10 50 1 22 6 54 11 70 5 17 12 50 16 75 4 25 8 47 9 50 1 3 5 19 9 35 19 77 38 142 47 157 5 10 9 29 9 42 0 14 5 28 10 31 6 3 10 15 10 26 0 10 5 19 10 19 6 0 10 7 10 16 0 18 31 77 43 82 4 2 7 8 7 14 0 5 6 24 14 41 7 18 21 53 31 80 9 26 20 47 25 47 7 0 21 30 24 55 1 6 10 26 21 45 58 110 95 186 95 197 0 7 7 13 15 13 8 0 15 6 15 14 0 8 12 29 27 47 26 31 28 38 27 128 0 53 -6 130 -13 171 -7 41 -15 89 -17 105 -8 48 -32 156 -48 210 -57 195 -180 432 -265 512 -10 10 -21 27 -23 38 -2 11 -12 21 -23 24 -11 2 -29 13 -40 25 -24 24 -112 86 -123 86 -5 0 -17 8 -28 18 -10 9 -30 18 -44 19 -34 4 -102 34 -117 53 -9 11 -12 11 -13 2 0 -15 -43 -7 -76 15 -26 16 -70 24 -155 28 -36 1 -72 6 -79 10 -6 4 -89 9 -184 11 -195 5 -296 10 -346 17 -19 3 -73 10 -120 16 -47 7 -92 15 -100 18 -18 7 -40 13 -60 16 -8 1 -28 9 -45 18 -16 8 -50 22 -75 29 -25 8 -49 20 -53 27 -4 7 -14 13 -22 13 -8 0 -30 9 -50 20 -20 11 -43 20 -51 20 -9 0 -28 8 -42 19 -28 19 -96 45 -122 46 -8 1 -28 7 -44 13 -16 7 -45 13 -65 13 -20 -1 -61 1 -91 2 -30 2 -93 -1 -140 -5z m257 -143 c18 -3 34 -6 35 -5 6 2 117 -39 140 -51 12 -8 30 -14 39 -15 9 -1 54 -19 100 -41 46 -22 118 -50 159 -63 41 -13 89 -29 106 -36 29 -13 62 -19 148 -29 21 -3 55 -9 76 -15 21 -6 120 -13 221 -16 317 -9 393 -13 444 -24 85 -18 129 -33 158 -53 26 -18 27 -21 13 -36 -9 -10 -16 -28 -16 -40 0 -15 -5 -21 -16 -19 -18 3 -29 -28 -13 -38 14 -8 11 -74 -3 -79 -12 -4 -35 -7 -139 -20 -34 -4 -37 -3 -52 35 -14 36 -19 40 -51 40 -41 0 -72 -35 -63 -71 3 -12 0 -22 -9 -25 -8 -2 -22 -7 -31 -10 -10 -3 -18 -4 -19 -2 -1 2 -14 -13 -30 -32 -39 -47 -41 -48 -89 -48 -56 1 -65 -6 -65 -56 0 -63 -28 -149 -46 -142 -8 3 -14 1 -14 -4 0 -6 -6 -10 -13 -10 -18 0 -47 -53 -47 -84 0 -27 12 -35 72 -50 22 -5 33 0 62 29 20 19 37 35 40 35 3 0 17 -22 32 -50 25 -47 29 -49 64 -46 20 2 42 6 49 10 16 10 13 61 -5 76 -14 13 -34 52 -48 96 -4 13 6 32 29 59 19 22 35 44 35 50 0 5 14 19 30 30 16 11 30 27 31 35 1 25 27 -57 43 -134 21 -98 39 -137 76 -164 30 -23 31 -25 14 -43 -9 -10 -25 -19 -35 -19 -11 0 -24 -9 -31 -20 -7 -11 -20 -20 -29 -20 -15 0 -59 -50 -59 -68 0 -4 -14 -21 -30 -37 -55 -52 -89 -147 -96 -265 -6 -97 -2 -112 71 -273 23 -49 140 -155 190 -173 41 -14 171 -22 182 -11 3 4 23 7 44 7 21 0 41 5 44 11 4 6 13 8 21 5 7 -3 16 -1 19 4 4 6 14 10 23 10 20 0 111 85 130 120 25 47 39 70 56 88 9 11 14 26 11 34 -4 9 5 60 19 114 29 109 34 218 14 287 -16 53 -109 148 -175 178 -60 27 -200 52 -270 47 -50 -3 -65 3 -43 17 14 9 12 51 -4 83 -12 23 -33 104 -53 204 -5 26 -4 26 54 31 32 3 67 6 78 8 15 3 21 -2 23 -21 9 -75 48 -106 95 -76 20 14 24 24 22 61 -2 44 10 59 38 50 6 -2 37 -6 67 -9 30 -3 56 -5 58 -6 1 0 2 -20 2 -44 0 -49 4 -55 49 -60 46 -5 65 22 62 87 -2 50 -1 53 30 66 30 13 34 13 43 -4 6 -10 20 -29 31 -44 42 -53 123 -242 150 -348 9 -38 21 -77 26 -88 24 -57 55 -375 37 -375 -4 0 -10 -11 -14 -25 -3 -14 -12 -25 -20 -25 -8 0 -14 -8 -14 -18 0 -22 -27 -79 -41 -87 -5 -4 -9 -17 -9 -30 0 -12 -7 -25 -15 -29 -8 -3 -15 -15 -15 -26 0 -11 -4 -20 -10 -20 -5 0 -10 -6 -10 -14 0 -8 -13 -43 -29 -78 -16 -35 -36 -79 -44 -98 -9 -19 -23 -46 -31 -60 -13 -22 -58 -118 -88 -190 -6 -14 -16 -36 -23 -50 -7 -14 -15 -38 -19 -55 -4 -16 -15 -59 -26 -95 -10 -36 -28 -114 -40 -175 -23 -117 -42 -203 -66 -300 -22 -92 -54 -303 -54 -365 0 -30 -7 -68 -16 -85 -8 -16 -13 -37 -11 -47 6 -21 -12 -109 -24 -123 -5 -5 -9 -22 -9 -37 0 -15 -5 -28 -11 -28 -5 0 -7 -5 -3 -11 15 -24 -34 -200 -72 -261 -13 -21 -24 -44 -24 -52 0 -8 -7 -16 -15 -20 -8 -3 -15 -15 -15 -26 0 -11 -4 -20 -10 -20 -5 0 -10 -7 -10 -15 0 -8 -10 -20 -22 -26 -13 -7 -36 -24 -53 -40 -72 -67 -86 -79 -94 -79 -12 0 -97 -85 -118 -116 -9 -14 -33 -34 -53 -44 -37 -19 -130 -104 -130 -119 0 -5 -26 -26 -58 -46 -32 -21 -71 -57 -87 -81 -19 -27 -38 -44 -50 -44 -11 0 -26 -9 -33 -21 -7 -12 -16 -18 -19 -15 -8 7 -33 -20 -33 -36 0 -19 -20 -38 -41 -38 -9 0 -23 -9 -30 -20 -8 -12 -25 -22 -39 -23 -24 -2 -76 -23 -132 -53 -15 -8 -51 -18 -79 -21 -28 -3 -56 -12 -63 -18 -7 -7 -41 -20 -77 -29 -35 -9 -68 -22 -74 -29 -5 -6 -27 -12 -47 -12 -21 0 -38 -4 -38 -9 0 -4 -11 -5 -24 -2 -14 3 -28 2 -31 -4 -3 -5 -21 -10 -40 -10 -18 0 -35 -5 -37 -11 -2 -7 -29 -12 -63 -13 -33 -1 -66 -5 -73 -9 -7 -5 -18 -4 -25 1 -19 16 -87 26 -87 13 0 -6 -9 -11 -20 -11 -11 0 -20 5 -20 10 0 6 -5 10 -11 10 -5 0 -8 -4 -5 -9 8 -12 -30 -20 -74 -16 -19 2 -69 6 -110 9 -41 3 -119 8 -172 12 -54 4 -98 11 -98 15 0 5 -11 9 -25 9 -14 0 -33 4 -43 9 -9 4 -35 17 -57 27 -44 21 -128 81 -133 95 -2 5 -12 9 -22 9 -11 0 -23 6 -27 13 -8 14 -120 103 -152 122 -24 14 -107 117 -115 143 -4 12 -29 44 -55 73 -26 28 -54 68 -61 88 -7 20 -16 38 -19 41 -15 11 -50 78 -65 127 -20 60 -10 89 34 100 14 3 43 19 64 34 22 16 46 29 53 29 7 0 13 4 13 9 0 16 45 20 67 6 12 -8 27 -15 33 -15 6 0 20 -9 32 -20 27 -25 75 -34 109 -21 39 14 39 77 0 120 -27 30 -61 42 -61 21 0 -7 -6 -7 -20 0 -30 16 -24 45 15 87 32 34 40 52 36 77 -1 4 15 5 36 1 21 -5 58 -9 82 -9 43 -1 44 -1 59 47 17 54 13 62 -31 62 -54 0 -58 45 -21 223 6 32 9 33 38 27 85 -17 100 -17 132 0 39 21 52 66 29 102 -18 27 -43 30 -61 5 -8 -10 -13 -12 -14 -4 0 6 -9 12 -20 12 -11 0 -20 5 -20 12 0 6 -3 8 -6 5 -11 -11 -45 13 -54 39 -5 13 -11 51 -12 85 -3 70 5 79 68 74 l43 -2 10 46 c15 64 2 135 -25 139 -13 2 -25 -6 -34 -23 -16 -30 -22 -31 -44 -6 -43 47 -27 175 28 223 39 35 60 35 88 3 38 -44 69 -54 110 -37 27 12 39 25 49 54 12 38 24 52 44 53 6 1 8 7 6 15 -9 31 -13 111 -6 128 16 36 12 59 -13 90 -25 30 -29 32 -59 22 -17 -6 -34 -18 -37 -26 -3 -8 -12 -14 -21 -14 -13 0 -15 -7 -9 -37 4 -21 11 -43 15 -49 5 -6 6 -21 1 -34 l-8 -22 -15 23 c-9 13 -21 44 -28 69 -13 48 -56 117 -82 133 -9 5 -28 7 -42 3 -38 -9 -44 -44 -16 -97 30 -58 49 -111 43 -121 -3 -4 -23 -8 -45 -8 -29 0 -41 -5 -46 -17 -3 -10 -24 -35 -45 -56 -32 -33 -39 -47 -44 -95 -9 -80 -13 -84 -75 -86 l-54 -1 -3 -37 c-3 -38 -3 -38 82 -110 31 -26 44 -77 45 -179 1 -39 -2 -48 -19 -52 -27 -7 -27 -60 0 -94 24 -30 26 -80 5 -110 -10 -15 -14 -36 -10 -65 3 -24 0 -50 -5 -58 -8 -13 -12 -12 -24 6 -18 25 -70 36 -93 19 -21 -16 -20 -61 3 -88 24 -28 44 -64 44 -79 0 -22 -42 -98 -51 -92 -5 3 -13 -3 -17 -13 -13 -31 -47 -83 -53 -83 -4 0 -30 21 -58 46 l-51 45 -29 -17 c-39 -23 -36 -59 8 -110 25 -28 30 -39 20 -50 -6 -8 -18 -14 -27 -14 -8 0 -24 -8 -34 -17 -17 -15 -20 -15 -34 -1 -8 8 -17 32 -20 54 -7 60 -6 194 1 244 4 25 7 51 8 58 0 6 4 12 9 12 4 0 8 10 8 23 0 12 7 47 16 77 9 30 19 71 23 90 4 19 13 44 19 56 19 36 50 241 52 351 2 73 -8 310 -16 383 -8 77 -35 177 -84 305 -23 61 -51 139 -62 175 -11 36 -29 83 -40 106 -31 69 -84 271 -99 379 -6 39 -12 125 -15 192 -5 107 -3 130 15 183 12 33 21 70 21 83 0 12 7 33 16 45 8 12 13 22 10 22 -6 0 14 48 60 148 19 40 34 77 34 82 0 12 82 115 115 145 12 11 39 49 58 85 20 36 50 76 67 88 16 13 30 28 30 35 1 7 14 28 30 47 17 19 30 38 30 43 0 17 127 128 175 154 27 14 64 36 81 49 17 13 38 24 47 24 10 0 17 3 17 8 0 4 15 14 33 21 17 8 54 27 80 43 26 15 56 28 67 28 10 0 21 4 24 9 3 5 27 12 53 16 27 4 54 12 61 18 8 6 32 12 54 13 23 1 43 6 47 11 3 5 20 10 36 11 17 2 44 5 60 8 17 2 106 7 199 9 92 2 171 6 174 10 3 3 8 1 11 -4 3 -4 21 -12 38 -16z m1758 -398 c11 -6 28 -10 37 -9 9 2 19 -6 23 -18 3 -11 15 -20 25 -20 10 0 20 -7 23 -14 4 -11 1 -13 -10 -9 -16 6 -16 -13 -1 -77 4 -19 -42 -26 -53 -8 -5 7 -9 8 -9 2 0 -6 -13 -11 -30 -11 l-30 0 6 53 c6 47 4 54 -20 75 -14 12 -26 29 -26 36 0 7 -7 13 -15 13 -8 0 -15 4 -15 9 0 10 63 -4 95 -22z m16 -795 c46 -20 64 -35 94 -81 36 -54 37 -58 32 -126 -2 -38 -12 -83 -21 -100 -9 -16 -16 -38 -16 -47 0 -23 -31 -88 -52 -110 -10 -10 -18 -23 -18 -29 0 -7 -12 -10 -30 -7 -35 5 -35 6 -14 -34 16 -30 15 -31 -12 -54 -15 -13 -37 -25 -48 -26 -12 -1 -28 -2 -36 -3 -8 0 -20 -4 -26 -8 -28 -17 -143 -4 -160 18 -6 8 -16 15 -22 15 -21 0 -81 74 -99 120 -9 25 -22 48 -27 52 -7 4 -12 58 -13 128 l-3 121 32 40 c53 66 124 139 135 139 6 0 24 7 39 15 43 23 189 11 265 -23z"
       id="path2" />
    <path
       d="M1392 4649 c-13 -5 -28 -6 -33 -3 -5 3 -26 -5 -47 -18 -20 -12 -41 -23 -47 -23 -20 -2 -65 -25 -65 -34 0 -5 -12 -12 -26 -15 -34 -9 -74 -35 -74 -50 0 -6 -14 -26 -31 -44 -29 -31 -48 -81 -94 -250 -36 -128 -9 -310 59 -409 52 -76 121 -104 293 -121 90 -9 173 1 173 20 0 4 6 8 13 8 43 0 187 98 187 127 0 7 6 16 14 20 7 4 19 19 26 33 7 14 30 48 51 75 21 28 45 75 53 105 8 30 18 64 21 76 7 23 -5 96 -31 184 -9 30 -18 66 -21 80 -3 14 -13 34 -23 45 -10 11 -21 30 -24 42 -9 28 -105 113 -128 113 -9 0 -20 5 -23 10 -3 6 -13 10 -22 10 -8 0 -31 7 -50 17 -26 12 -37 13 -42 4 -4 -6 -14 -10 -22 -7 -37 12 -66 13 -87 5z m121 -130 c26 -1 47 -5 47 -9 0 -4 8 -11 18 -14 38 -14 72 -38 90 -64 30 -42 62 -114 62 -138 0 -13 5 -26 10 -29 15 -10 12 -97 -6 -153 -9 -27 -34 -72 -55 -98 -21 -27 -44 -62 -50 -77 -6 -15 -24 -34 -40 -43 -16 -8 -29 -21 -29 -29 0 -8 -7 -15 -15 -15 -8 0 -15 5 -15 10 0 18 -50 10 -72 -12 -15 -15 -34 -21 -64 -22 -25 -1 -46 -6 -49 -13 -5 -14 -62 -11 -130 8 -52 14 -97 78 -118 169 -17 73 -21 193 -7 218 5 9 19 48 30 87 12 38 33 80 46 94 13 13 24 27 24 31 0 4 8 10 18 14 9 3 40 19 67 35 28 16 60 30 73 30 12 1 22 6 22 12 0 6 7 9 15 5 8 -3 15 -2 15 2 0 5 15 7 33 6 17 -2 53 -4 80 -5z"
       id="path4" />
    <path
       d="M1378 4322 c-10 -2 -18 -7 -18 -12 0 -5 -7 -7 -15 -4 -8 4 -15 1 -15 -5 0 -6 -8 -19 -18 -29 -10 -10 -24 -32 -31 -49 -11 -27 -10 -37 8 -76 12 -25 25 -49 31 -52 5 -3 10 -15 10 -25 0 -19 19 -29 72 -36 37 -4 78 27 78 59 0 14 5 18 20 14 14 -3 20 0 20 11 0 8 7 23 16 33 9 10 20 36 25 59 8 35 6 46 -11 71 -14 18 -30 29 -45 29 -13 0 -26 4 -29 9 -6 8 -66 11 -98 3z"
       id="path6" />
    <path
       d="M2693 4488 c-10 -3 -30 -7 -44 -7 -14 -1 -34 -10 -44 -21 -10 -12 -25 -18 -32 -16 -14 6 -43 -14 -72 -48 -9 -10 -29 -30 -45 -45 -44 -39 -66 -64 -66 -73 0 -4 -6 -8 -13 -8 -7 0 -21 -14 -31 -30 -9 -17 -28 -38 -42 -46 -13 -9 -24 -26 -24 -38 0 -15 -3 -17 -9 -8 -6 10 -10 6 -15 -14 -4 -15 -16 -39 -27 -52 -10 -14 -19 -33 -19 -43 0 -11 -4 -19 -8 -19 -4 0 -14 -21 -22 -47 -7 -27 -20 -54 -27 -61 -19 -19 -16 -66 5 -84 26 -23 79 -30 86 -13 3 8 15 15 26 15 12 0 20 6 18 13 -3 18 13 111 21 117 8 6 52 76 70 111 7 15 24 33 37 40 13 7 24 18 24 24 0 7 23 37 51 66 28 30 59 63 68 75 21 27 71 50 147 67 50 12 63 12 79 1 11 -8 24 -10 34 -5 19 10 28 7 106 -29 33 -15 69 -37 79 -49 11 -11 26 -21 34 -21 21 0 61 -46 68 -78 4 -15 11 -33 17 -39 5 -7 7 -13 3 -13 -4 0 0 -10 8 -22 8 -13 21 -50 30 -83 8 -33 24 -91 34 -130 11 -38 25 -95 32 -126 13 -67 31 -86 86 -91 l42 -3 6 69 c5 50 3 75 -7 90 -8 12 -20 46 -27 76 -6 30 -16 63 -21 72 -5 10 -9 27 -9 37 0 11 -4 22 -9 25 -5 3 -12 20 -15 38 -3 18 -13 47 -22 63 -9 17 -23 50 -31 75 -8 25 -23 54 -32 65 -10 11 -24 31 -33 45 -9 14 -36 36 -60 49 -25 12 -57 33 -71 47 -14 13 -33 24 -41 24 -8 0 -18 5 -21 10 -3 6 -17 10 -31 10 -13 0 -24 4 -24 8 0 21 -178 46 -217 30z"
       id="path8" />
    <path
       d="M2561 3298 c5 -42 0 -47 -46 -43 -30 3 -45 0 -45 -8 0 -8 -26 -12 -82 -13 -89 -1 -115 -5 -138 -19 -9 -5 -15 -4 -18 3 -2 7 -8 12 -14 12 -5 0 -7 -8 -4 -18 5 -15 -3 -23 -33 -37 -22 -9 -45 -14 -52 -10 -8 5 -10 4 -5 -3 4 -7 3 -12 -3 -12 -6 0 -8 -7 -5 -15 4 -10 0 -15 -15 -15 -11 0 -25 -9 -31 -20 -6 -11 -15 -18 -19 -16 -4 3 -13 -6 -19 -19 -7 -14 -18 -25 -27 -25 -8 0 -17 -12 -21 -27 -3 -16 -18 -38 -32 -50 -17 -15 -25 -31 -24 -52 0 -17 -4 -31 -9 -31 -5 0 -9 -6 -9 -14 0 -8 -6 -16 -12 -18 -15 -5 -15 -82 -1 -100 6 -7 14 -47 18 -88 26 -269 20 -408 -19 -434 -23 -15 -33 -70 -17 -95 14 -21 -27 -149 -51 -159 -5 -2 -8 -13 -8 -25 0 -12 -7 -31 -15 -41 -8 -11 -15 -30 -15 -42 0 -13 -4 -26 -10 -29 -5 -3 -10 -15 -10 -26 0 -11 -7 -28 -16 -37 -12 -12 -15 -27 -10 -58 4 -31 2 -46 -8 -51 -22 -13 4 -277 32 -331 22 -43 89 -111 109 -112 6 0 31 -18 55 -41 23 -22 52 -45 63 -50 27 -12 115 -73 140 -97 22 -21 141 -65 154 -57 5 2 14 -2 21 -10 7 -8 17 -12 22 -9 11 7 68 -15 68 -27 0 -4 14 -7 30 -7 17 1 30 4 30 8 0 11 47 22 109 26 29 2 59 8 67 15 7 6 18 8 23 5 6 -4 18 -2 28 3 25 13 57 24 65 23 4 -1 31 11 61 27 30 16 71 34 92 41 20 7 46 21 56 31 11 11 29 20 42 21 12 0 27 2 33 2 14 2 50 27 93 65 19 16 37 28 40 26 4 -2 15 16 25 38 10 23 22 50 28 60 5 10 6 27 3 38 -4 11 -2 19 5 19 6 0 10 6 7 13 -2 6 0 22 4 35 5 13 10 78 10 145 1 102 -2 129 -19 167 -11 25 -32 83 -47 130 -15 47 -32 90 -36 96 -5 6 -20 46 -35 90 -20 61 -24 90 -19 127 5 41 3 50 -17 70 -34 34 -45 64 -64 174 -14 81 -14 112 -5 178 6 45 7 95 3 115 -4 20 -3 69 3 112 6 42 9 103 7 135 -4 49 -10 64 -40 97 -19 22 -65 55 -100 73 -36 18 -70 37 -76 42 -6 5 -15 10 -21 10 -30 3 -55 18 -97 57 -30 28 -53 42 -62 38 -9 -3 -16 -1 -16 5 0 6 -7 11 -15 11 -8 0 -15 5 -15 10 0 6 -5 10 -10 10 -6 0 -10 -6 -9 -12z m-125 -190 c14 -23 8 -153 -9 -188 -9 -18 -17 -38 -17 -45 0 -23 -35 -42 -87 -48 -29 -3 -55 -2 -58 3 -6 10 -79 21 -152 22 -44 1 -53 4 -53 20 0 10 4 18 9 18 5 0 12 16 15 35 5 25 14 39 32 45 13 5 24 15 24 22 0 28 118 100 194 119 49 11 94 10 102 -3z m264 -28 c22 -11 45 -20 52 -20 7 0 30 -11 50 -25 20 -14 44 -25 52 -25 8 0 24 -14 36 -31 21 -28 22 -36 14 -142 -9 -108 -10 -112 -31 -109 -13 2 -23 -2 -23 -9 0 -8 -4 -8 -15 1 -11 9 -15 9 -15 1 0 -7 -4 -9 -10 -6 -5 3 -23 -2 -39 -11 -25 -15 -32 -15 -46 -4 -13 11 -15 10 -10 -2 5 -12 -5 -17 -45 -22 -46 -6 -56 -4 -86 19 -19 14 -34 35 -35 46 -1 10 -1 29 -2 42 -1 12 3 28 7 36 5 7 11 30 13 50 3 20 11 63 19 96 8 33 18 71 21 85 13 55 32 61 93 30z m-601 -381 c20 -5 72 -12 116 -15 79 -6 81 -7 121 -51 42 -45 71 -117 52 -129 -5 -3 -6 -18 -3 -34 4 -17 1 -33 -8 -41 -7 -8 -20 -28 -28 -44 -8 -17 -22 -29 -31 -29 -11 1 -14 -5 -10 -20 4 -16 2 -19 -8 -9 -10 9 -18 6 -37 -13 -13 -13 -29 -22 -34 -19 -5 4 -9 3 -9 -2 0 -19 -155 -61 -170 -46 -10 9 -8 473 2 467 6 -4 27 -11 47 -15z m780 -161 c5 -13 14 -66 20 -118 6 -52 14 -107 18 -122 4 -24 2 -28 -16 -28 -11 0 -21 -4 -21 -10 0 -5 -7 -7 -15 -3 -9 3 -24 -2 -34 -11 -9 -9 -38 -20 -63 -24 -55 -11 -83 6 -98 58 -12 43 -13 150 -1 150 5 0 12 12 15 26 10 39 33 59 51 44 11 -9 14 -6 17 17 2 22 7 27 25 25 12 -2 24 2 28 8 3 5 20 10 36 10 21 0 32 -6 38 -22z m122 -539 c21 -57 38 -113 38 -123 1 -11 8 -27 16 -36 9 -10 19 -34 22 -55 6 -35 5 -37 -14 -27 -38 21 -189 14 -203 -8 -7 -11 -13 -10 -35 4 -15 10 -32 15 -40 13 -22 -9 -55 22 -55 51 0 15 -7 40 -15 56 -25 47 -19 82 26 141 42 56 78 75 144 75 17 0 37 5 45 10 8 5 19 8 25 7 5 -2 26 -50 46 -108z m-904 83 c45 -4 77 -32 108 -94 10 -18 24 -40 31 -49 8 -9 19 -41 25 -73 12 -67 -2 -126 -30 -126 -9 0 -21 -4 -26 -9 -13 -12 -115 -24 -115 -13 0 4 -44 3 -97 -4 -54 -6 -102 -8 -106 -4 -5 4 -3 34 3 66 7 33 13 66 14 76 1 9 7 22 13 30 5 7 20 36 32 63 12 28 27 58 32 67 5 10 9 23 9 28 0 23 35 59 50 53 8 -4 34 -8 57 -11z m1039 -540 c6 -59 4 -73 -10 -88 -13 -12 -16 -26 -11 -51 4 -22 2 -33 -6 -33 -15 0 -80 -66 -72 -74 3 -3 -3 -6 -15 -6 -12 0 -27 -9 -34 -20 -7 -11 -21 -20 -30 -20 -9 0 -29 -5 -43 -12 -36 -16 -91 11 -110 55 -25 60 -26 134 -3 178 11 21 24 39 29 39 5 0 9 8 9 18 0 10 7 27 15 38 8 10 15 26 15 34 0 15 38 19 203 23 20 0 37 5 37 11 0 6 5 4 10 -5 5 -9 13 -48 16 -87z m-944 3 c25 -23 61 -48 80 -55 39 -14 61 -55 71 -132 5 -34 3 -49 -9 -58 -8 -7 -12 -20 -9 -29 6 -19 -49 -66 -65 -56 -5 3 -11 1 -15 -5 -10 -16 -40 -12 -84 12 -23 12 -41 29 -41 39 0 13 -11 18 -42 21 -24 3 -48 1 -54 -4 -7 -5 -16 -2 -24 7 -7 8 -18 15 -26 15 -7 0 -18 9 -24 20 -6 11 -16 20 -23 20 -17 0 -33 28 -57 99 -23 68 -26 121 -7 122 6 0 62 6 122 13 167 18 156 19 207 -29z"
       id="path10" />
    <path
       d="M3992 4257 c-3 -13 -11 -17 -27 -13 -15 4 -25 1 -29 -9 -3 -8 -14 -15 -24 -15 -10 0 -27 -9 -37 -20 -10 -11 -14 -20 -10 -20 5 0 4 -5 -3 -12 -7 -7 -12 -29 -12 -50 0 -29 7 -44 35 -71 29 -28 39 -32 72 -29 21 3 41 10 45 16 4 6 18 12 32 13 15 1 41 19 65 44 43 46 44 55 15 126 -9 23 -18 31 -28 27 -10 -4 -16 -1 -16 9 0 10 -13 16 -36 19 -30 3 -38 1 -42 -15z"
       id="path12" />
  </g>
  <path
     style="fill:#ffffff;stroke-width:0"
     d="m 248.19612,745.04104 c -19.66018,-1.5115 -24.55307,-2.16692 -25.30913,-3.39023 -0.31134,-0.50376 -1.96194,-0.91628 -3.66801,-0.91669 -1.70606,-4.2e-4 -5.87076,-1.31065 -9.2549,-2.91161 -7.25471,-3.43203 -20.19425,-12.179 -20.95698,-14.16665 -0.29352,-0.76491 -1.51321,-1.39074 -2.71041,-1.39074 -1.1972,0 -3.72622,-1.48486 -5.62004,-3.29968 -1.89383,-1.81483 -7.4842,-6.36585 -12.42305,-10.1134 -9.46998,-7.18571 -16.23586,-14.32559 -20.45176,-21.58227 -1.39776,-2.40593 -5.11226,-7.51305 -8.25444,-11.34914 -5.64188,-6.88784 -8.59545,-11.83811 -16.13844,-27.04854 -5.07131,-10.22629 -5.73242,-13.85793 -3.12594,-17.17153 1.09797,-1.39584 3.13652,-2.82407 4.53012,-3.17384 1.3936,-0.34977 5.2754,-2.36742 8.62624,-4.48366 3.35083,-2.11624 6.59195,-3.84771 7.20249,-3.84771 0.61054,0 1.11007,-0.42911 1.11007,-0.95358 0,-0.52446 1.12069,-1.23485 2.49043,-1.57863 2.90436,-0.72894 8.656,1.53817 14.80257,5.83471 3.37646,2.36019 5.19564,2.92436 9.56217,2.96541 4.52842,0.0426 5.69043,-0.31701 7.25235,-2.2442 3.50965,-4.33046 1.68291,-12.23897 -3.91504,-16.94933 -3.10194,-2.61011 -6.86225,-3.51743 -6.86225,-1.65578 0,1.41803 -1.5889,1.18851 -3.24635,-0.46894 -1.96674,-1.96673 -1.16733,-4.27751 3.38605,-9.78773 2.12776,-2.57489 4.11358,-5.90621 4.41292,-7.40296 l 0.54427,-2.72135 9.97416,0.61027 c 9.76247,0.59733 10.00637,0.56087 11.49251,-1.71765 0.8351,-1.28035 1.93657,-4.1995 2.44773,-6.48699 1.13507,-5.07964 -0.31058,-7.02 -5.23024,-7.02 -4.06884,0 -5.32231,-2.00336 -5.28192,-8.4419 0.0316,-5.03694 3.12879,-22.25888 4.19473,-23.32483 0.3559,-0.35589 4.11492,-0.11622 8.35339,0.53263 6.42347,0.98332 8.25635,0.94988 11.0105,-0.20089 6.96171,-2.90878 9.59921,-10.37453 5.50425,-15.58042 -2.25384,-2.86531 -5.83588,-3.35676 -7.74037,-1.06199 -0.8633,1.0402 -1.55464,1.18904 -2.25764,0.48604 -0.55731,-0.55731 -1.80069,-1.01329 -2.76306,-1.01329 -0.96237,0 -1.74977,-0.38276 -1.74977,-0.85058 0,-0.46782 -1.29247,-1.10908 -2.87216,-1.42501 -1.57969,-0.31594 -3.57975,-1.65435 -4.44458,-2.97423 -1.73162,-2.64281 -3.05914,-15.33852 -2.03185,-19.43161 0.60915,-2.427 0.92693,-2.53717 7.31892,-2.53717 7.95095,0 7.88075,0.0963 8.50277,-11.66512 0.50578,-9.56332 -0.68268,-12.95273 -4.70638,-13.42235 -1.99222,-0.23251 -2.9547,0.36461 -4.32396,2.68257 -2.01469,3.4106 -2.87972,3.37682 -5.56308,-0.21724 -3.87226,-5.18648 -2.67591,-20.05301 2.05245,-25.50484 2.17375,-2.50633 7.06299,-6.31023 8.11071,-6.31023 0.4447,0 2.97776,1.92657 5.62903,4.28127 5.88098,5.22315 9.13668,6.08861 14.63228,3.88971 3.44947,-1.38021 4.52682,-2.51904 6.71174,-7.09476 1.43149,-2.99785 3.47183,-5.83575 4.53411,-6.30646 1.80207,-0.79851 1.92944,-1.80739 1.90219,-15.06744 -0.031,-15.10165 -0.56793,-17.34013 -4.82851,-20.13177 -1.95729,-1.28247 -2.94429,-1.35258 -5.79533,-0.41165 -1.88995,0.62374 -3.98443,1.89492 -4.6544,2.82485 -0.66997,0.92994 -1.98366,1.97634 -2.9193,2.32534 -2.08413,0.77739 -2.2013,5.37172 -0.27482,10.77613 0.78999,2.21614 1.03175,4.59797 0.58837,5.79654 -0.75053,2.02888 -0.75595,2.02839 -1.93547,-0.17557 -0.65057,-1.21558 -2.27742,-5.13636 -3.61525,-8.71282 -4.99209,-13.3456 -10.86115,-20.29463 -16.23316,-19.22024 -1.58935,0.31788 -3.47821,1.06635 -4.19748,1.66329 -2.21665,1.83966 -1.46002,7.5548 2.02642,15.30635 4.80161,10.6756 5.10044,12.35754 2.32754,13.10007 -1.24267,0.33277 -3.59794,0.61101 -5.23395,0.61831 -2.52297,0.0113 -3.94175,1.17924 -9.34537,7.69337 -6.13224,7.3925 -6.41328,7.96565 -7.5049,15.3052 -0.62375,4.19382 -1.67029,8.16131 -2.32565,8.81665 -0.65535,0.65536 -4.36035,1.48607 -8.23333,1.84603 l -7.04178,0.65446 v 4.92284 c 0,4.84486 0.10817,5.02361 6.8278,11.2825 5.44507,5.07173 7.11841,7.32605 8.26279,11.1316 1.57544,5.23899 1.98078,21.96062 0.53233,21.96062 -1.81095,0 -3.95781,3.12292 -3.95781,5.75721 0,1.48614 1.14721,4.84506 2.54935,7.46428 2.93383,5.48045 3.25791,10.31859 0.98554,14.71286 -0.98545,1.90566 -1.5907,5.43697 -1.5907,9.28094 0,3.41268 -0.29563,6.50049 -0.65695,6.86182 -0.36133,0.36132 -1.65938,-0.28478 -2.88456,-1.43578 -3.05347,-2.86858 -11.0394,-3.67057 -13.00204,-1.30573 -2.43033,2.92836 -1.54109,8.40682 2.26195,13.93545 1.91064,2.77758 3.73938,5.88663 4.06386,6.909 0.68569,2.16041 -3.73671,11.51945 -5.82123,12.31936 -0.7582,0.29095 -3.01851,3.33249 -5.02292,6.75898 -2.00442,3.42648 -4.06261,6.22998 -4.57375,6.22998 -0.51115,0 -3.90737,-2.6467 -7.54715,-5.88154 -6.00039,-5.33283 -6.82442,-5.77462 -8.83262,-4.73555 -7.5032,3.88228 -7.63241,8.61001 -0.48452,17.72768 3.28089,4.185 3.15952,4.44823 -3.63768,7.88941 -5.51156,2.7903 -6.74701,2.31313 -8.27754,-3.19708 -2.22173,-7.99871 -0.69916,-42.84621 1.91006,-43.71596 0.54129,-0.18043 0.98991,-1.49456 0.99694,-2.92029 0.0116,-2.34864 3.58635,-16.19589 8.63483,-33.44794 5.08756,-17.38558 6.91633,-45.32794 5.04255,-77.04664 -1.63247,-27.63387 -2.57825,-31.50273 -18.53583,-75.82325 -3.85001,-10.69303 -8.25324,-22.9414 -9.78495,-27.21861 -3.60615,-10.06996 -8.101338,-27.68911 -10.04444,-39.36976 -1.998238,-12.01209 -3.572279,-40.0885 -2.561417,-45.68838 2.463514,-13.64713 7.77,-29.45644 15.908627,-47.39563 2.48776,-5.48352 4.5232,-10.34184 4.5232,-10.79626 0,-1.1307 6.0148,-9.0337 12.67901,-16.65927 3.03711,-3.47523 7.59688,-9.59942 10.13283,-13.6093 2.53595,-4.00989 6.37523,-9.11872 8.53173,-11.35298 2.1565,-2.23425 4.8446,-5.60507 5.97355,-7.4907 5.55094,-9.27143 10.20683,-14.91584 17.14865,-20.78954 7.17113,-6.06773 22.81941,-16.52886 28.16214,-18.82686 1.33662,-0.5749 3.08639,-1.41925 3.88837,-1.87634 10.21415,-5.82149 21.47736,-11.58602 23.75149,-12.15605 1.56831,-0.39311 3.97424,-1.300656 5.34651,-2.016776 1.37226,-0.716118 3.46286,-1.304729 4.64577,-1.308023 1.18291,-0.0033 4.46372,-0.819504 7.29069,-1.813801 13.21988,-4.64966 27.75244,-6.709543 54.19401,-7.681591 19.16943,-0.70471 24.25788,-0.624593 26.24651,0.413245 1.35678,0.70809 3.66576,1.290132 5.13106,1.293425 1.46531,0.0033 6.71461,1.581849 11.66512,3.5079 4.95051,1.926051 11.18814,4.27857 13.8614,5.22782 2.67325,0.94925 9.23488,3.695341 14.58139,6.102431 5.34651,2.40708 16.28256,6.65894 24.30233,9.44857 13.68556,4.76043 17.22272,5.5483 43.74418,9.7435 3.20791,0.50743 19.17454,1.38747 35.4814,1.95565 16.30686,0.56818 34.24197,1.43341 39.85581,1.92273 11.3618,0.99033 25.49986,4.69704 30.55533,8.01097 3.0992,2.03158 3.22983,2.32714 2.04095,4.61799 -0.69859,1.34613 -1.74754,3.65046 -2.33099,5.12075 -0.58345,1.47029 -1.67955,2.67326 -2.43579,2.67326 -2.21344,0 -2.62678,2.69995 -0.95127,6.21354 1.1569,2.42603 1.31911,3.97351 0.63247,6.03342 -1.06047,3.18141 -3.02321,3.79344 -15.52177,4.84012 l -7.93897,0.66485 -2.5274,-4.9876 c -2.41617,-4.76809 -2.70109,-4.98759 -6.47418,-4.98759 -5.29152,0 -9.62977,4.1091 -9.62977,9.12109 0,3.19446 -0.28841,3.52449 -4.07017,4.65753 -2.68963,0.80583 -5.75818,2.96223 -9.04688,6.35763 -4.94733,5.10783 -5.01206,5.13817 -10.96307,5.13817 -7.07476,0 -7.46226,0.45336 -8.30892,9.72093 -0.90211,9.87439 -3.12867,15.24887 -7.09763,17.13226 -4.02687,1.91087 -6.83104,5.28758 -8.04641,9.68927 -1.32547,4.80044 -0.38156,6.87776 3.90437,8.59265 6.19506,2.47878 9.53003,1.93543 14.40804,-2.3474 2.3741,-2.08443 4.62892,-3.59682 5.01071,-3.36085 0.38179,0.23596 2.01931,2.77703 3.63891,5.64681 1.61961,2.86979 3.7058,5.50984 4.63597,5.86679 1.94447,0.74616 9.12621,-0.15953 11.14153,-1.40507 1.83287,-1.13278 1.58423,-8.29009 -0.36273,-10.44146 -1.82852,-2.02049 -6.48604,-11.82954 -6.49934,-13.68805 -0.0211,-2.94841 14.2293,-20.54541 16.63809,-20.54541 0.3349,0 2.20775,6.38684 4.16188,14.19298 4.08284,16.30966 6.00296,20.62426 10.81015,24.29089 l 3.44687,2.62905 -2.1492,2.28773 c -1.18207,1.25824 -2.88004,2.28772 -3.77329,2.28772 -0.89324,0 -2.45739,0.92143 -3.47589,2.04763 -1.01851,1.12619 -3.42859,2.85238 -5.35575,3.83597 -2.21677,1.13141 -4.9809,4.03943 -7.52463,7.91633 -2.2114,3.37038 -5.5417,8.00256 -7.40069,10.29372 -5.26917,6.49415 -8.42099,17.63252 -9.0271,31.90143 -0.56638,13.33336 0.0439,16.03656 7.00116,31.00725 3.26384,7.02321 5.39448,10.05663 10.80233,15.37929 12.29058,12.09701 17.12143,14.29931 31.84339,14.51686 9.95121,0.14707 26.30284,-2.38278 27.45547,-4.24777 0.29233,-0.473 1.37239,-0.86001 2.40011,-0.86001 2.56063,0 15.0619,-11.98307 18.18534,-17.43153 1.40011,-2.44231 3.73368,-6.19033 5.18571,-8.32894 1.65379,-2.43575 2.87801,-5.84928 3.27702,-9.13734 0.35032,-2.88693 1.53298,-9.01112 2.62813,-13.6093 4.25776,-17.87702 4.02385,-34.51542 -0.59608,-42.39873 -3.91025,-6.67235 -16.25405,-17.52752 -22.68321,-19.94769 -8.67019,-3.26379 -17.2148,-4.84616 -29.65843,-5.49245 -8.01533,-0.4163 -11.16355,-0.90344 -10.45,-1.617 1.67274,-1.67273 1.17238,-6.94577 -1.38079,-14.55153 -1.3211,-3.93549 -3.34253,-11.43204 -4.49206,-16.65899 -2.28252,-10.37865 -2.06136,-11.17657 3.10612,-11.20697 1.39186,-0.008 5.13294,-0.28688 8.31352,-0.61931 l 5.78287,-0.60443 1.6478,5.9268 c 1.90839,6.86409 4.80695,9.52806 9.17969,8.43674 4.22367,-1.05412 6.08267,-3.31863 6.08267,-7.4095 0,-2.02094 0.4454,-4.84592 0.98977,-6.27774 1.07075,-2.81628 1.13031,-2.81912 16.26488,-0.7764 l 4.13139,0.55762 v 5.1667 c 0,6.62187 1.51615,8.22185 7.79106,8.22185 6.32463,0 7.76243,-2.02334 7.76243,-10.92361 0,-6.40594 0.0941,-6.66003 3.1593,-8.52891 1.73762,-1.05944 3.59675,-1.92225 4.1314,-1.91734 1.14048,0.0105 8.9325,11.89327 12.49638,19.05694 4.80996,9.6684 9.28541,21.47231 13.59974,35.86908 4.88691,16.30743 5.9377,21.19008 7.42268,34.49035 2.19805,19.68703 1.01922,29.46246 -3.86836,32.07821 -1.07019,0.57274 -1.94579,1.97388 -1.94579,3.11364 0,1.13975 -1.53105,4.85767 -3.40232,8.26205 -1.87128,3.40437 -3.40233,6.65252 -3.40233,7.21809 0,0.56558 -0.87488,2.14057 -1.94419,3.49996 -1.0693,1.3594 -1.94418,3.28752 -1.94418,4.28473 0,0.9972 -0.37883,1.81309 -0.84184,1.81309 -0.46301,0 -1.82194,2.73401 -3.01984,6.07558 -1.19789,3.34157 -5.88402,13.73081 -10.41361,23.08721 -18.91777,39.07683 -20.98089,45.27217 -31.40072,94.29302 -2.21607,10.4257 -5.06501,23.76768 -6.33098,29.64884 -2.83064,13.14999 -5.00407,27.70788 -6.24058,41.8 -0.51604,5.88116 -1.61959,12.31938 -2.45232,14.30715 -0.83273,1.98777 -1.51407,5.8062 -1.51407,8.4854 0,2.6792 -0.90668,7.83319 -2.01483,11.45331 -2.88967,9.43988 -3.65279,12.72998 -4.29452,18.51509 -1.02686,9.25716 -9.96442,32.84104 -14.40003,37.99791 -0.75217,0.87449 -2.3489,3.59901 -3.54829,6.0545 -1.19939,2.45548 -3.34778,5.15393 -4.77419,5.99653 -1.42642,0.84261 -5.42959,4.11146 -8.89593,7.26411 -3.46634,3.15265 -8.35625,7.12968 -10.86646,8.83783 -2.51022,1.70815 -7.5408,6.42115 -11.17907,10.47332 -3.63827,4.05217 -9.2397,9.14691 -12.44761,11.32166 -3.2079,2.17475 -9.11337,7.30147 -13.12325,11.39272 -4.00989,4.09125 -9.47791,9.01532 -12.15116,10.94238 -2.67326,1.92705 -7.00249,5.99265 -9.62051,9.03467 -2.61802,3.04202 -6.01742,5.96927 -7.55424,6.50501 -1.53681,0.53573 -3.2378,1.80293 -3.77997,2.816 -0.54218,1.01307 -1.86082,1.84194 -2.93031,1.84194 -1.37196,0 -2.48389,1.25829 -3.77629,4.27333 -1.42455,3.32334 -2.57931,4.52004 -5.19443,5.3831 -1.84945,0.61038 -4.14118,1.97005 -5.09271,3.02147 -0.95153,1.05144 -3.51972,2.38054 -5.70708,2.95357 -2.18736,0.57304 -7.69528,2.72879 -12.23981,4.79058 -4.54454,2.06178 -11.10617,4.24739 -14.5814,4.85689 -3.47523,0.60951 -7.23833,1.70053 -8.36245,2.4245 -1.12412,0.72397 -5.27981,2.28577 -9.23488,3.47067 -3.95507,1.18491 -8.81402,2.96686 -10.79766,3.9599 -1.98364,0.99304 -5.08219,1.80553 -6.88567,1.80553 -1.80346,0 -3.60809,0.32808 -4.0103,0.72907 -0.40219,0.40099 -2.11551,0.79498 -3.80736,0.87555 -4.07115,0.19388 -12.33442,2.10419 -14.62112,3.38013 -2.53073,1.41212 -19.87466,2.94595 -21.84318,1.93174 -3.63579,-1.87322 -8.82295,-2.14991 -11.19291,-0.59706 -2.11358,1.38487 -2.49508,1.38876 -3.84461,0.0393 -1.89179,-1.8918 -3.21703,-1.90529 -3.93279,-0.0401 -0.69249,1.8046 -10.04039,1.78592 -34.15777,-0.0682 z m 80.47673,-32.93666 c 1.18515,-0.77654 5.43482,-1.87443 9.44371,-2.43973 15.13085,-2.13364 27.91901,-5.6811 36.93945,-10.24705 2.4069,-1.21832 7.16908,-3.34999 10.58265,-4.73704 3.41357,-1.38706 7.59777,-3.58311 9.29822,-4.88011 1.70046,-1.29701 5.14836,-2.6666 7.66199,-3.04354 3.51016,-0.52638 6.287,-2.01202 11.97146,-6.40485 4.07067,-3.14573 7.80934,-5.7195 8.30815,-5.7195 1.38839,0 7.58509,-14.084 7.58509,-17.23955 0,-1.53206 0.40884,-3.20114 0.90854,-3.70906 1.41104,-1.43424 3.19265,-28.12717 2.42448,-36.32472 -0.65913,-7.03381 -7.42825,-28.03631 -14.28128,-44.31039 -4.57564,-10.86591 -6.54942,-18.83766 -6.54942,-26.45204 0,-6.64201 -0.26082,-7.62077 -2.92842,-10.98887 -3.6624,-4.62416 -5.37685,-9.43795 -7.2914,-20.47265 -1.52446,-8.78637 -1.48295,-23.92053 0.17036,-62.11802 0.74368,-17.18165 0.15123,-19.45842 -6.76109,-25.98264 -5.10236,-4.81589 -22.24121,-15.04677 -27.15484,-16.20985 -1.4583,-0.34518 -4.97229,-2.51795 -7.80886,-4.82837 -7.21909,-5.88003 -10.19298,-7.70549 -11.36904,-6.97864 -0.55817,0.34497 -1.01485,0.196 -1.01485,-0.33105 0,-0.91898 -5.3156,-4.01694 -6.89241,-4.01694 -0.41863,0 -0.89822,1.42168 -1.06576,3.1593 -0.29493,3.05877 -0.45929,3.16821 -5.16508,3.43914 -2.67326,0.15391 -6.23891,0.91943 -7.92366,1.70116 -1.96685,0.91262 -6.17359,1.42133 -11.75365,1.42133 -4.77975,0 -10.729,0.61351 -13.22057,1.36336 -2.57819,0.77592 -4.76374,0.98535 -5.07233,0.48604 -1.12286,-1.81682 -3.46843,-0.89454 -3.16183,1.24324 0.36667,2.55661 -4.40368,5.74043 -8.78771,5.86508 -2.33733,0.0665 -3.0189,0.63334 -3.72183,3.09553 -0.56712,1.98651 -1.57,3.1168 -2.94144,3.31515 -1.14451,0.16553 -2.7804,1.36849 -3.63532,2.67326 -0.85491,1.30476 -2.13025,2.37229 -2.83409,2.37229 -0.70383,0 -1.76068,1.05567 -2.34856,2.34592 -0.58788,1.29025 -1.90841,2.61238 -2.93449,2.93804 -1.02609,0.32567 -2.63942,2.30809 -3.58517,4.40538 -0.94574,2.09729 -2.75083,4.7821 -4.0113,5.96626 -1.26048,1.18415 -2.54344,3.72345 -2.85104,5.64289 -0.58355,3.64144 -3.02093,8.86943 -4.63965,9.95169 -1.46255,0.97784 -1.07357,10.50357 0.64912,15.89633 2.08543,6.52831 3.54175,23.92829 3.5392,42.28605 -0.002,16.58984 -0.76225,20.81471 -4.55469,25.32175 -2.0398,2.42417 -2.50856,3.92451 -2.36327,7.56391 0.40157,10.0587 0.26195,11.87983 -1.26271,16.47015 -0.87315,2.62878 -2.66853,6.24481 -3.98976,8.03563 -1.32122,1.79083 -2.40223,4.04752 -2.40223,5.01489 0,0.96737 -0.87488,3.3912 -1.94419,5.38629 -1.0693,1.99508 -1.94418,4.34943 -1.94418,5.23186 0,0.88245 -0.65347,2.85741 -1.45215,4.38882 -0.79869,1.5314 -1.46876,3.44054 -1.48906,4.24251 -0.0203,0.80198 -0.67916,2.30728 -1.46412,3.3451 -0.90139,1.19174 -1.42723,4.12538 -1.42723,7.9624 0,3.5071 -0.46953,6.36562 -1.11069,6.76188 -0.78904,0.48766 -0.95306,4.51565 -0.56639,13.90969 0.56562,13.74108 2.71697,26.63852 5.26548,31.56682 2.08435,4.0307 9.88633,12.16075 13.39263,13.95579 1.62078,0.82976 5.35281,3.56111 8.29339,6.06968 2.94058,2.50856 8.62732,6.65378 12.63721,9.21158 4.00988,2.55781 9.136,6.14912 11.39137,7.98069 4.6972,3.81458 12.7348,7.59224 19.46345,9.14779 2.54461,0.58827 5.50146,1.43901 6.57076,1.89052 1.0693,0.45152 3.47523,1.08065 5.34651,1.39808 1.87128,0.31744 4.49593,1.4328 5.83256,2.47859 2.8928,2.26333 7.02295,2.48337 9.99998,0.53275 z M 448.32063,346.79419 c 1.33302,-4.97414 0.61211,-17.70465 -1.2788,-22.58238 -1.04033,-2.68359 -3.0499,-9.03495 -4.46572,-14.11414 -1.41583,-5.07918 -3.01024,-10.05798 -3.54316,-11.06399 -0.53291,-1.00601 -1.54519,-3.84938 -2.24952,-6.3186 -2.50918,-8.7967 -9.20832,-23.49066 -13.12969,-28.79882 -5.35471,-7.24841 -27.1754,-21.8651 -32.64157,-21.8651 -1.1608,0 -2.60912,-0.60073 -3.21848,-1.33497 -1.23695,-1.49044 -9.01579,-3.18315 -18.57198,-4.04133 -7.57354,-0.68014 -18.56885,1.44895 -22.50265,4.35734 -1.48117,1.09508 -3.68218,1.99106 -4.8911,1.99106 -1.50938,0 -5.96145,3.731 -14.20955,11.90814 -6.60632,6.54947 -12.74333,12.75957 -13.63782,13.80021 -1.62943,1.89569 -7.81907,8.74683 -11.21002,12.40805 -0.99382,1.07303 -3.344,5.07483 -5.22261,8.89287 -1.87863,3.81804 -4.18366,8.47294 -5.12228,10.34421 -0.93863,1.87128 -2.25561,5.11648 -2.92662,7.21154 -0.671,2.09508 -2.084,5.27357 -3.13998,7.06333 -2.45517,4.1612 -1.67783,9.14659 1.8601,11.92953 3.05795,2.40538 10.16598,2.71865 11.98392,0.52816 0.66558,-0.80197 2.03147,-1.45814 3.0353,-1.45814 1.00384,0 1.82517,-0.24428 1.82517,-0.54286 0,-0.29857 0.48204,-3.68875 1.07119,-7.53372 0.88327,-5.76435 2.01592,-8.52579 6.45591,-15.7397 2.96159,-4.81186 6.97196,-10.27988 8.91195,-12.15116 1.94,-1.87128 4.36105,-4.71465 5.38013,-6.3186 3.86795,-6.08789 16.70422,-19.13843 21.02232,-21.37322 6.37985,-3.30183 16.14787,-5.62918 20.80052,-4.95595 2.15514,0.31185 6.10565,0.70398 8.77891,0.87142 5.16051,0.32323 17.00463,5.68677 22.23246,10.06785 1.53484,1.28625 4.20382,2.92909 5.93108,3.65078 3.91938,1.63763 6.47138,5.22001 9.05517,12.71121 1.10643,3.20791 2.88706,7.80105 3.95695,10.20698 1.06989,2.40593 4.39714,13.94572 7.39389,25.64398 2.99676,11.69826 5.93487,22.19686 6.52914,23.33023 1.80138,3.43555 5.62557,5.20166 11.61933,5.3661 2.88319,0.0791 3.63964,-0.30487 4.11811,-2.09031 z m -252.71834,-1.65406 c 2.08315,-0.48323 4.05164,-1.26077 4.37441,-1.72788 0.32278,-0.4671 2.74457,-1.65902 5.38177,-2.64871 6.7651,-2.53879 19.19544,-11.23939 20.94898,-14.6632 0.81109,-1.58368 1.81332,-3.02873 2.22716,-3.21123 1.78546,-0.78738 15.54136,-22.94961 17.13384,-27.60448 3.86826,-11.30696 4.25049,-14.60078 2.64286,-22.77418 -2.35445,-11.97028 -7.01257,-28.40312 -8.57268,-30.24255 -0.78129,-0.92118 -2.58123,-3.70947 -3.99988,-6.19618 -1.41863,-2.48672 -4.6641,-6.3655 -7.21215,-8.6195 -6.61883,-5.85504 -20.2249,-11.99558 -26.26187,-11.85221 -1.73762,0.0413 -3.92483,0.0729 -4.86047,0.0704 -17.92948,-0.0489 -17.55357,-0.0954 -23.31175,2.88447 -3.08441,1.59618 -7.4878,3.67461 -9.78531,4.61871 -2.29751,0.94412 -4.48472,2.21083 -4.86047,2.81494 -0.37574,0.6041 -2.77066,1.88054 -5.32205,2.83653 -2.55138,0.95599 -5.39475,2.80691 -6.3186,4.11316 -0.92385,1.30625 -2.92685,4.0004 -4.45111,5.98699 -4.61118,6.00984 -7.22064,12.07618 -11.46145,26.64504 -3.80611,13.07548 -4.04629,14.63261 -4.01938,26.05766 0.0572,24.27109 8.08092,41.8422 21.98954,48.15462 10.17496,4.6179 35.92483,7.63412 45.73861,5.3576 z"
     id="path24"
     transform="scale(0.74999999)" />
  <path
     style="fill:#ffffff;stroke-width:0"
     d="m 167.5124,327.20356 c -3.2079,-0.64538 -6.70744,-1.65848 -7.77674,-2.25134 -8.62239,-4.78058 -14.94327,-21.46568 -15.03353,-39.68372 -0.0279,-5.6319 0.67835,-8.82004 3.98381,-17.98372 5.78161,-16.02829 8.82912,-19.98094 19.72832,-25.5878 4.85049,-2.49523 9.25652,-4.53262 9.79117,-4.52752 0.53465,0.005 2.28441,-0.74925 3.88837,-1.67631 2.3094,-1.3348 5.08727,-1.6648 13.3487,-1.58577 5.9501,0.0569 10.98118,0.55524 11.70965,1.15981 0.70248,0.58301 3.66313,2.29581 6.57921,3.80622 6.18389,3.20301 12.35066,11.40481 14.95379,19.88854 0.87103,2.83872 2.26393,7.21926 3.09534,9.73453 1.25635,3.80086 1.32974,5.7457 0.43453,11.51542 -0.59241,3.8182 -1.76195,8.32188 -2.59897,10.00817 -3.72985,7.51428 -13.00395,20.86622 -18.1592,26.14382 -4.65106,4.76145 -5.88031,5.56014 -7.0559,4.58449 -1.92566,-1.59815 -7.4189,-0.60211 -10.90866,1.97799 -1.57924,1.16758 -5.23499,2.40528 -8.35496,2.82867 -3.05093,0.41402 -6.05557,1.26118 -6.67697,1.88258 -1.35394,1.35395 -3.25683,1.31326 -10.94796,-0.23406 z m 25.74245,-30.21982 c 1.65714,-0.85694 3.3057,-2.84258 4.03538,-4.86047 0.85764,-2.37174 1.84082,-3.41914 3.22559,-3.43624 1.48926,-0.0184 2.7892,-1.67901 5.15123,-6.58048 7.07443,-14.68016 2.5504,-21.67722 -15.03373,-23.25184 -3.46865,-0.31061 -6.04861,0.0343 -8.16912,1.09216 -1.70463,0.85038 -3.57893,1.563 -4.1651,1.5836 -1.30422,0.0458 -4.71859,4.84614 -7.43375,10.45126 -1.77169,3.65744 -1.87411,4.61225 -0.83312,7.76649 0.6528,1.97801 2.43075,5.61786 3.95099,8.08857 1.52023,2.4707 2.76407,5.23045 2.76407,6.13277 0,3.73398 11.17112,5.77376 16.50756,3.01418 z"
     id="path26"
     transform="scale(0.74999999)" />
  <path
     style="fill:#ffffff;stroke-width:0"
     d="m 522.09559,330.43648 c -4.4212,-1.32926 -11.26021,-6.13521 -15.07855,-10.59609 -1.78074,-2.08039 -4.96541,-7.20142 -7.07703,-11.38007 l -3.83932,-7.59753 -0.29349,-15.55349 -0.29348,-15.55349 9.04291,-10.20697 c 6.77476,-7.64686 10.38116,-10.87859 14.37841,-12.88462 5.07131,-2.54506 5.88903,-2.65965 16.51457,-2.31428 12.08673,0.39287 20.8266,2.53974 26.68717,6.55547 1.77757,1.21802 5.13963,5.03349 7.47123,8.47884 4.15442,6.13888 4.23566,6.4124 4.05838,13.66443 -0.26067,10.66355 -7.49158,32.5098 -12.15835,36.73316 -0.96585,0.87409 -1.7561,2.17762 -1.7561,2.89673 0,0.87733 -1.27924,1.30748 -3.88837,1.30748 -4.25024,0 -4.69744,0.8944 -2.43024,4.86046 2.04402,3.57564 1.80574,4.4964 -1.8939,7.31825 -4.95815,3.78177 -22.57334,6.33738 -29.44384,4.27172 z m 11.25985,-31.44271 c 1.41912,-0.76064 4.64858,-2.32612 7.17657,-3.47884 4.56936,-2.08355 9.62454,-7.34727 10.85563,-11.30346 0.74445,-2.39234 -1.81064,-10.72625 -4.06993,-13.27482 -0.84615,-0.9545 -2.11285,-1.51503 -2.8149,-1.24563 -0.70205,0.2694 -1.27645,-0.13575 -1.27645,-0.90034 0,-1.62585 -6.80655,-3.72057 -9.15779,-2.81831 -0.87409,0.33542 -2.00881,1.39381 -2.52161,2.35199 -0.60375,1.12811 -1.62392,1.56129 -2.89445,1.22904 -1.07915,-0.2822 -2.67443,0.0853 -3.54507,0.81675 -0.87063,0.73142 -3.33442,2.20473 -5.47508,3.27404 -4.39715,2.19647 -6.50086,6.66871 -6.52625,13.87404 -0.0124,3.52559 0.59159,4.8108 3.99754,8.50582 3.7176,4.03311 4.36679,4.35269 8.84188,4.35269 2.65633,0 5.99079,-0.62234 7.40991,-1.38297 z"
     id="path28"
     transform="scale(0.74999999)" />
  <path
     style="fill:#ffffff;stroke-width:0"
     d="m 301.5308,457.82258 c -0.55294,-0.55293 -6.43653,-1.48626 -13.07466,-2.07407 -6.63812,-0.5878 -12.47455,-1.43739 -12.96984,-1.88798 -0.54129,-0.49244 -0.30254,-1.50702 0.59851,-2.54337 0.82447,-0.94828 1.8059,-3.01102 2.18096,-4.58389 0.40367,-1.69279 3.58852,-5.75691 7.80483,-9.95957 9.2427,-9.21278 20.38998,-14.89711 30.65424,-15.63151 6.72264,-0.481 6.76449,-0.46865 7.85536,2.31851 2.44632,6.25032 -1.1421,26.48896 -5.60667,31.62153 -2.59434,2.98251 -15.21742,4.96566 -17.44273,2.74035 z"
     id="path30"
     transform="scale(0.74999999)" />
  <path
     style="fill:#ffffff;stroke-width:0"
     d="m 348.32171,478.37398 c -2.91776,-1.26312 -7.25438,-5.93965 -7.90249,-8.52189 -0.63827,-2.5431 -0.36084,-4.52639 2.49398,-17.82883 3.82157,-17.80709 6.10613,-26.18405 7.44364,-27.29409 1.8519,-1.53694 5.36787,-0.74718 14.49045,3.25482 19.60739,8.6016 22.42117,11.12847 22.25424,19.98503 -0.25361,13.45543 -1.50215,22.64421 -3.14818,23.16941 -0.88461,0.28226 -2.26455,0.73534 -3.06653,1.00685 -0.80198,0.27151 -3.04269,0.62687 -4.97936,0.78969 -1.93667,0.16281 -4.95004,1.0349 -6.69637,1.93796 -2.47281,1.27874 -3.68291,1.41059 -5.47064,0.59604 -1.82574,-0.83186 -2.29549,-0.7635 -2.29549,0.33404 0,0.75896 -0.35321,1.59822 -0.78492,1.86503 -1.62961,1.00716 -10.47365,1.51317 -12.33833,0.70594 z"
     id="path32"
     transform="scale(0.74999999)" />
  <path
     style="fill:#ffffff;stroke-width:0"
     d="m 273.45394,533.43605 c -0.72392,-3.87154 -0.20144,-56.73431 0.56834,-57.50181 0.30345,-0.30256 3.58426,0.0627 7.29069,0.81178 3.70643,0.74903 10.42232,1.66914 14.92421,2.04468 7.99275,0.66675 8.29473,0.78523 12.84152,5.03822 2.56096,2.39548 5.75435,6.55893 7.09642,9.25211 3.40321,6.82936 2.66977,14.46929 -2.14768,22.3713 -1.87421,3.07424 -4.04259,5.58953 -4.81863,5.58953 -0.77604,0 -1.63977,0.87488 -1.9194,1.94419 -0.27962,1.0693 -1.19472,1.94418 -2.03354,1.94418 -0.83883,0 -2.49021,0.90664 -3.66974,2.01475 -1.17954,1.10812 -2.73878,2.10947 -3.46498,2.22524 -0.72621,0.11576 -2.4422,0.95604 -3.81331,1.86727 -2.29421,1.52471 -16.08516,5.55786 -19.00456,5.55786 -0.69223,0 -1.52443,-1.42169 -1.84934,-3.1593 z"
     id="path34"
     transform="scale(0.74999999)" />
  <path
     style="fill:#ffffff;stroke-width:0"
     d="m 360.26333,537.61883 c -1.45188,-1.1462 -3.08984,-3.70452 -3.63993,-5.68514 -1.26762,-4.56418 -1.32625,-19.64067 -0.0764,-19.64067 0.51404,0 1.39206,-1.69881 1.95116,-3.77513 1.27113,-4.72061 3.00144,-6.2131 6.25611,-5.39623 2.23894,0.56194 2.52322,0.34417 2.52322,-1.93283 0,-1.41137 0.5468,-2.7048 1.21512,-2.87428 0.66831,-0.16949 2.74616,-0.84945 4.61744,-1.51103 1.87128,-0.66157 4.08359,-1.41304 4.91625,-1.66993 0.83266,-0.25689 2.46575,0.32744 3.62911,1.29851 1.79771,1.50058 2.48235,4.24591 4.56149,18.29116 1.34546,9.08907 2.44638,16.85366 2.44647,17.25465 9e-5,0.40099 -0.8489,0.72907 -1.88665,0.72907 -1.03775,0 -2.15717,0.43744 -2.4876,0.97209 -0.33044,0.53465 -1.43639,0.97209 -2.45767,0.97209 -1.02129,0 -3.66727,0.94363 -5.87997,2.09695 -5.97123,3.11238 -12.39697,3.46902 -15.68818,0.87072 z"
     id="path36"
     transform="scale(0.74999999)" />
  <path
     style="fill:#ffffff;stroke-width:0"
     d="m 376.02636,601.23953 c -1.33663,-0.76408 -3.60145,-1.40474 -5.03294,-1.42369 -2.87845,-0.0381 -6.63218,-3.97723 -6.63218,-6.95976 0,-0.99147 -0.87466,-4.10393 -1.9437,-6.91658 -2.54401,-6.69339 -2.45699,-8.07732 0.87294,-13.88262 4.40935,-7.68712 10.60537,-12.83705 16.27811,-13.52985 2.59631,-0.31708 6.84896,-1.06039 9.45034,-1.65179 3.82944,-0.8706 4.88863,-0.8214 5.56428,0.25846 1.19464,1.90932 8.37286,21.93846 9.63699,26.88974 0.58556,2.29347 2.13672,6.18624 3.44703,8.6506 1.31031,2.46435 2.38238,5.49827 2.38238,6.74203 0,2.02579 -0.25979,2.16262 -2.49351,1.31336 -3.97282,-1.51047 -20.37409,-1.16743 -24.38898,0.5101 -4.18086,1.74688 -4.08493,1.74688 -7.14076,0 z"
     id="path38"
     transform="scale(0.74999999)" />
  <path
     style="fill:#ffffff;stroke-width:0"
     d="m 251.59862,605.86775 c 6.1e-4,-6.35612 3.47005,-18.23526 8.15334,-27.91653 2.85615,-5.90422 5.72305,-12.37399 6.37088,-14.37728 1.84829,-5.71542 3.774,-6.56693 11.28886,-4.99168 3.46462,0.72624 7.36502,2.01873 8.66756,2.87218 2.89858,1.89923 12.7105,17.62592 14.08538,22.57628 1.646,5.92652 1.27645,15.24239 -0.69061,17.40923 -3.28024,3.61339 -10.41907,4.95262 -29.64884,5.56208 -16.97317,0.53793 -18.22673,0.45992 -18.22657,-1.13428 z"
     id="path40"
     transform="scale(0.74999999)" />
  <path
     style="fill:#ffffff;stroke-width:0"
     d="m 289.674,673.07404 c -3.08749,-1.53856 -5.64912,-3.6345 -6.53443,-5.34651 -1.39585,-2.69927 -1.73777,-2.8159 -8.25517,-2.8159 -7.56103,0 -10.66022,-1.44176 -18.04175,-8.39307 -3.1527,-2.96896 -4.54291,-5.42894 -6.62058,-11.71518 -1.66946,-5.05115 -2.51962,-9.48877 -2.32793,-12.15116 l 0.30198,-4.19408 15.06745,-1.72527 c 19.96907,-2.28652 21.92902,-2.04891 28.37406,3.43981 2.83973,2.41837 7.35035,5.67358 10.02361,7.23381 3.14125,1.83337 5.64444,4.2489 7.07686,6.82905 2.63708,4.75001 4.03745,15.98129 2.2597,18.12334 -0.63096,0.76026 -1.33807,2.41117 -1.57136,3.66868 -0.52578,2.83419 -5.68681,7.63291 -8.20921,7.63291 -1.02932,0 -2.14184,0.43744 -2.47227,0.97209 -0.98224,1.5893 -3.68649,1.12468 -9.07096,-1.55852 z"
     id="path42"
     transform="scale(0.74999999)" />
  <path
     style="fill:#ffffff;stroke-width:0"
     d="m 379.75131,669.08333 c -8.57721,-5.32138 -10.28889,-26.02843 -2.71792,-32.88006 1.05008,-0.95032 1.91088,-2.42558 1.91288,-3.27835 0.002,-0.85278 0.87688,-2.98276 1.94419,-4.7333 1.0673,-1.75054 1.94055,-3.82005 1.94055,-4.59892 0,-0.77887 1.00259,-1.66776 2.22798,-1.97531 2.09328,-0.52538 30.06315,-2.28833 30.57329,-1.92705 0.12989,0.092 0.67669,2.49016 1.21512,5.32927 1.46137,7.70579 1.24658,15.12953 -0.47918,16.56179 -0.96533,0.80115 -1.45814,2.97688 -1.45814,6.43763 0,3.8456 -0.36165,5.22748 -1.36806,5.22748 -0.75243,0 -3.42904,2.29231 -5.94802,5.09402 -2.51898,2.80172 -5.84033,5.62397 -7.38078,6.27168 -1.54045,0.64771 -2.80082,1.60518 -2.80082,2.1277 0,1.09428 -9.39344,4.0169 -12.78682,3.97841 -1.25434,-0.0142 -3.44776,-0.74997 -4.87427,-1.63499 z"
     id="path44"
     transform="scale(0.74999999)" />
  <path
     style="fill:#ffffff;stroke-width:0"
     d="m 553.36055,156.56825 c 0.66336,-6.73201 0.65865,-6.74983 -2.79067,-10.56782 -1.90033,-2.10344 -3.45515,-4.31822 -3.45515,-4.92174 0,-0.60351 -0.76552,-1.13183 -1.70116,-1.17404 -0.96024,-0.0433 -1.18628,-0.28551 -0.51899,-0.55607 1.85102,-0.75053 16.14855,4.47525 17.77364,6.4963 0.80197,0.99738 2.77046,2.34218 4.37442,2.98843 2.39316,0.96424 2.58808,1.25198 1.08667,1.60407 -1.62548,0.3812 -1.76231,1.07298 -1.22638,6.20044 0.66217,6.33537 -0.69376,8.13867 -4.38587,5.83291 -1.29266,-0.80728 -2.38891,-0.85279 -3.6957,-0.15341 -1.02184,0.54687 -2.81805,0.99431 -3.99158,0.99431 -2.05568,0 -2.1094,-0.2466 -1.46923,-6.74338 z"
     id="path46"
     transform="scale(0.74999999)" />
</svg>
