<?xml version="1.0" encoding="UTF-8" standalone="no"?>
<svg
   xmlns:dc="http://purl.org/dc/elements/1.1/"
   xmlns:cc="http://creativecommons.org/ns#"
   xmlns:rdf="http://www.w3.org/1999/02/22-rdf-syntax-ns#"
   xmlns:svg="http://www.w3.org/2000/svg"
   xmlns="http://www.w3.org/2000/svg"
   xmlns:sodipodi="http://sodipodi.sourceforge.net/DTD/sodipodi-0.dtd"
   xmlns:inkscape="http://www.inkscape.org/namespaces/inkscape"
   version="1.0"
   width="563.000000pt"
   height="466.000000pt"
   viewBox="0 0 563.000000 466.000000"
   preserveAspectRatio="xMidYMid meet"
   id="svg20"
   sodipodi:docname="face4.svg"
   inkscape:version="1.0.1 (3bc2e813f5, 2020-09-07)">
  <defs
     id="defs24" />
  <sodipodi:namedview
     pagecolor="#ffffff"
     bordercolor="#666666"
     borderopacity="1"
     objecttolerance="10"
     gridtolerance="10"
     guidetolerance="10"
     inkscape:pageopacity="0"
     inkscape:pageshadow="2"
     inkscape:window-width="1920"
     inkscape:window-height="1027"
     id="namedview22"
     showgrid="false"
     inkscape:zoom="1.3841202"
     inkscape:cx="375.33333"
     inkscape:cy="310.66667"
     inkscape:window-x="1912"
     inkscape:window-y="-8"
     inkscape:window-maximized="1"
     inkscape:current-layer="svg20" />
  <metadata
     id="metadata2">
Created by potrace 1.16, written by Peter Selinger 2001-2019
<rdf:RDF>
  <cc:Work
     rdf:about="">
    <dc:format>image/svg+xml</dc:format>
    <dc:type
       rdf:resource="http://purl.org/dc/dcmitype/StillImage" />
  </cc:Work>
</rdf:RDF>
</metadata>
  <g
     transform="translate(0.000000,466.000000) scale(0.100000,-0.100000)"
     fill="#000000"
     stroke="none"
     id="g18">
    <path
       d="M3726 3863 c-3 -3 -56 -6 -118 -6 -62 0 -118 -3 -123 -8 -6 -4 -29 -7 -52 -6 -25 1 -51 -6 -69 -18 -16 -11 -33 -19 -39 -20 -5 0 -26 -10 -46 -23 -20 -12 -43 -20 -52 -17 -8 4 -17 -1 -20 -9 -4 -9 -16 -16 -27 -16 -11 0 -20 -4 -20 -8 0 -12 -49 -34 -60 -27 -5 3 -12 1 -15 -5 -8 -13 -93 -55 -165 -82 -30 -11 -68 -26 -85 -33 -16 -7 -43 -17 -60 -20 -16 -4 -35 -14 -42 -22 -8 -10 -23 -14 -42 -11 -17 3 -31 0 -31 -5 0 -5 -9 -7 -20 -4 -12 3 -18 1 -14 -5 4 -7 -2 -7 -17 -2 -13 4 -44 9 -69 10 -61 3 -214 35 -218 45 -2 5 -12 9 -22 9 -9 0 -37 7 -61 16 -24 9 -71 22 -104 29 -82 19 -142 34 -193 50 -29 10 -41 11 -36 3 5 -8 1 -9 -11 -4 -29 11 -106 27 -145 31 -19 2 -55 8 -80 15 -76 19 -450 11 -476 -11 -11 -9 -14 -8 -14 1 0 8 -7 10 -18 5 -9 -4 -50 -12 -91 -20 -40 -7 -77 -18 -81 -25 -5 -7 -16 -14 -27 -15 -36 -4 -108 -45 -133 -75 -14 -16 -30 -30 -37 -30 -7 0 -10 -7 -6 -16 4 -10 -1 -17 -16 -21 -13 -3 -21 -13 -21 -27 0 -12 -9 -29 -20 -39 -11 -9 -20 -24 -20 -32 0 -10 -5 -13 -12 -9 -8 5 -9 2 -5 -9 3 -10 3 -17 -2 -17 -5 0 -11 -8 -15 -17 -3 -10 -10 -25 -15 -33 -10 -18 -33 -74 -32 -78 4 -6 -35 -68 -47 -75 -6 -4 -12 -21 -12 -36 0 -15 -3 -31 -8 -35 -4 -4 -7 -11 -7 -14 0 -4 -10 -23 -22 -42 -11 -19 -24 -55 -28 -80 -4 -25 -13 -52 -19 -60 -16 -20 -38 -98 -31 -110 3 -5 1 -11 -4 -14 -23 -15 -28 -113 -11 -266 9 -81 17 -174 34 -376 1 -22 5 -45 8 -50 9 -16 21 -68 19 -81 -1 -7 3 -13 8 -13 5 0 10 -8 10 -17 0 -24 81 -264 94 -282 11 -13 14 -22 24 -73 3 -16 9 -28 14 -28 5 0 8 -3 7 -7 0 -5 2 -15 5 -23 3 -8 10 -31 16 -50 16 -57 36 -107 48 -121 6 -8 14 -26 18 -41 4 -14 14 -34 23 -45 10 -10 33 -38 52 -63 19 -24 43 -53 53 -62 9 -10 17 -25 17 -33 0 -9 7 -18 15 -21 8 -4 15 -12 15 -19 0 -7 18 -33 40 -57 22 -23 40 -49 41 -55 1 -7 3 -16 4 -20 2 -5 6 -17 9 -28 4 -12 28 -31 54 -43 31 -15 65 -44 98 -85 39 -49 65 -70 121 -97 40 -19 72 -41 72 -47 1 -7 7 -13 15 -13 7 0 19 -6 25 -13 32 -39 127 -64 271 -73 19 -1 87 -5 150 -10 63 -4 120 -6 125 -4 6 2 28 3 50 3 103 -2 421 33 440 47 6 4 35 10 65 13 72 7 139 24 305 81 65 21 122 53 144 80 7 9 17 16 22 16 4 0 31 21 58 48 27 26 71 67 98 92 59 56 87 90 107 128 8 16 22 34 30 41 9 8 16 22 16 32 0 11 6 19 14 19 8 0 17 11 20 25 4 15 11 23 18 19 6 -4 9 -1 6 7 -8 23 230 249 262 249 5 0 10 7 10 15 0 8 3 14 8 13 6 -2 74 43 92 62 9 9 174 88 198 95 12 3 22 11 22 16 0 5 11 9 24 9 26 0 111 24 167 47 19 8 46 16 60 17 37 4 69 16 69 26 0 5 15 11 33 15 17 4 54 18 80 31 27 13 55 24 62 24 7 0 15 3 17 8 2 4 23 18 48 31 41 22 147 108 211 171 14 14 49 45 79 70 80 67 100 86 95 92 -3 2 10 20 28 39 51 56 119 181 121 225 1 12 9 28 18 37 14 14 16 36 13 137 -2 65 -7 125 -11 132 -5 7 -10 22 -11 33 -2 10 -8 22 -15 26 -6 4 -8 11 -4 17 3 5 -7 35 -24 66 -17 32 -26 64 -23 73 4 11 3 14 -5 9 -8 -5 -12 1 -12 18 0 14 -4 26 -9 26 -6 0 -27 33 -48 72 -21 40 -53 92 -70 116 -18 23 -33 46 -33 51 0 4 -9 16 -20 26 -11 10 -20 23 -20 29 0 11 -15 25 -72 67 -16 11 -28 27 -28 35 0 8 -4 14 -8 14 -4 0 -44 36 -90 80 -45 44 -89 80 -97 80 -15 0 -92 53 -106 74 -4 5 -11 6 -17 2 -5 -3 -15 1 -22 10 -7 8 -19 13 -27 10 -7 -3 -13 -1 -13 4 0 6 -15 10 -33 10 -18 0 -37 4 -43 8 -5 5 -29 14 -54 21 -25 7 -55 17 -68 22 -13 5 -34 9 -47 9 -13 0 -26 4 -29 8 -4 7 -97 33 -131 38 -34 4 -93 17 -112 24 -11 5 -24 6 -27 3z m74 -102 c87 -13 179 -35 224 -55 17 -8 42 -16 56 -19 32 -6 116 -35 158 -55 17 -8 35 -12 38 -9 4 4 18 -2 32 -13 13 -11 28 -17 33 -14 5 2 14 -4 20 -15 7 -10 18 -17 25 -14 7 2 17 -5 24 -16 6 -12 17 -21 25 -21 8 0 15 -4 15 -9 0 -6 18 -27 41 -48 23 -21 48 -47 57 -57 10 -11 26 -29 38 -40 33 -33 45 -63 42 -107 -2 -45 -17 -62 -56 -63 -22 -1 -28 -6 -30 -30 -3 -24 -1 -28 14 -22 20 8 54 -20 54 -44 0 -10 -7 -23 -15 -30 -8 -7 -13 -16 -10 -20 7 -11 -50 -70 -68 -70 -14 0 -47 28 -80 69 -15 18 -21 20 -33 11 -26 -22 -17 -65 22 -104 l35 -35 -26 -36 c-15 -19 -35 -35 -45 -35 -10 0 -24 -7 -31 -16 -9 -11 -23 -14 -46 -11 -41 7 -48 -3 -49 -73 -2 -58 -6 -86 -16 -96 -4 -3 -4 -12 -2 -18 3 -7 -3 -19 -12 -27 -14 -12 -19 -10 -34 9 -10 12 -20 27 -22 34 -3 7 -14 9 -29 5 -19 -5 -25 -13 -24 -34 0 -25 33 -73 46 -67 9 4 59 -42 59 -55 0 -13 19 -49 35 -66 23 -25 74 -55 93 -55 11 0 22 -5 24 -11 3 -8 16 -10 40 -5 30 5 35 10 31 26 -3 11 -14 20 -25 20 -18 0 -98 36 -98 44 0 14 35 36 50 31 12 -4 19 1 24 17 10 40 7 48 -22 48 -16 0 -37 9 -47 20 -16 17 -17 28 -9 68 9 45 10 47 45 48 19 0 40 4 46 7 7 4 14 3 17 -2 3 -5 22 -9 41 -9 19 0 33 4 30 8 -3 4 5 10 17 13 17 5 19 9 9 20 -6 8 -22 15 -36 15 -27 0 -85 21 -85 31 1 15 27 38 51 44 15 4 29 16 32 28 3 12 10 18 16 14 6 -3 11 0 11 8 0 16 34 47 70 65 17 9 33 33 49 74 13 33 32 69 43 80 13 13 19 34 20 61 0 23 2 45 5 49 8 15 54 -26 69 -61 8 -20 24 -46 36 -58 11 -12 17 -26 14 -32 -4 -5 0 -13 7 -18 8 -4 22 -27 32 -50 11 -24 23 -43 28 -43 4 0 7 -8 5 -17 -1 -10 8 -39 20 -64 25 -52 42 -137 42 -216 0 -66 -20 -156 -37 -166 -8 -5 -11 -16 -8 -26 6 -19 -53 -113 -110 -175 -19 -21 -35 -44 -35 -50 0 -6 -15 -21 -33 -33 -17 -13 -52 -41 -77 -64 -25 -22 -55 -44 -67 -49 -13 -5 -23 -15 -24 -22 0 -7 -20 -29 -45 -48 -24 -19 -50 -41 -58 -47 -8 -7 -18 -13 -22 -13 -4 0 -22 -11 -40 -25 -19 -14 -60 -34 -93 -45 -33 -10 -73 -26 -90 -34 -17 -9 -34 -15 -38 -14 -4 1 -19 -4 -32 -11 -13 -7 -38 -15 -55 -18 -17 -3 -49 -12 -71 -20 -22 -8 -51 -17 -65 -20 -14 -3 -30 -10 -37 -15 -7 -5 -17 -7 -23 -3 -5 3 -10 2 -10 -2 0 -5 -21 -15 -47 -22 -26 -8 -72 -29 -102 -47 -31 -18 -74 -43 -95 -55 -22 -12 -45 -26 -52 -33 -7 -6 -29 -22 -49 -36 -20 -14 -46 -34 -58 -45 -12 -12 -30 -24 -40 -28 -9 -3 -17 -11 -17 -17 0 -5 -9 -10 -20 -10 -11 0 -20 -6 -20 -12 0 -7 -24 -38 -53 -69 -61 -66 -97 -114 -97 -129 0 -6 -4 -9 -9 -6 -5 3 -11 -4 -15 -17 -3 -12 -15 -32 -26 -45 -12 -12 -18 -27 -15 -32 3 -6 0 -10 -8 -10 -7 0 -28 -19 -45 -42 -44 -61 -190 -208 -206 -208 -4 0 -19 -11 -34 -25 -29 -27 -127 -78 -149 -78 -7 0 -13 -4 -13 -8 0 -7 -49 -24 -62 -21 -4 1 -20 -3 -35 -9 -31 -12 -38 -14 -103 -24 -25 -3 -79 -13 -120 -22 -84 -18 -266 -41 -350 -45 -74 -4 -271 10 -400 28 -58 8 -113 15 -123 15 -10 0 -20 6 -23 14 -3 8 -12 11 -20 8 -8 -3 -14 0 -14 6 0 6 -5 11 -12 11 -6 0 -20 7 -30 17 -19 17 -43 32 -88 55 -25 13 -49 37 -50 49 0 4 8 9 18 11 22 6 26 47 6 69 -8 9 -30 20 -49 23 -50 10 -87 31 -146 86 -30 28 -62 53 -71 56 -9 3 -19 13 -22 22 -3 9 -16 29 -28 44 -13 15 -34 44 -48 64 -14 20 -37 47 -52 61 -15 14 -30 34 -33 44 -4 11 -13 19 -21 19 -8 0 -14 5 -14 12 0 6 -9 30 -19 52 -41 88 -61 135 -61 148 0 7 -9 27 -19 45 -11 17 -17 40 -15 50 3 11 -2 25 -10 32 -9 8 -16 19 -16 25 1 27 -36 126 -47 126 -6 0 -9 8 -6 19 2 10 -7 56 -22 102 -14 46 -28 95 -30 109 -2 14 -8 45 -14 70 -5 25 -12 90 -16 145 -3 55 -13 154 -22 219 -9 69 -13 146 -10 182 7 71 44 224 58 239 5 5 9 19 9 31 0 13 7 29 15 37 8 8 17 33 21 56 4 23 10 41 15 41 5 0 9 8 9 18 0 9 11 34 25 55 14 20 27 51 28 67 1 17 8 30 15 30 6 0 12 9 12 19 0 11 4 22 9 25 5 3 23 34 40 69 42 85 153 197 195 197 8 0 18 5 21 10 4 6 15 8 25 5 10 -3 34 3 54 15 41 22 50 25 41 10 -3 -5 1 -10 10 -10 9 0 13 5 10 11 -4 6 -1 9 6 8 8 -1 32 3 54 9 83 23 229 31 340 18 28 -3 68 -8 90 -10 22 -3 65 -10 95 -16 76 -16 109 -21 153 -24 21 -2 40 -6 44 -10 3 -3 16 -6 27 -6 12 0 33 -6 48 -14 18 -9 29 -11 36 -4 7 7 16 6 27 -6 9 -9 21 -17 26 -17 16 -2 23 -5 92 -28 37 -13 74 -21 81 -18 8 3 19 0 25 -6 9 -9 14 -8 21 3 5 8 10 10 10 4 0 -7 12 -14 28 -17 15 -3 45 -11 67 -17 48 -14 92 -22 123 -21 78 0 92 1 124 4 16 2 31 7 35 10 3 4 15 7 25 7 10 0 18 6 18 13 0 9 2 9 8 0 6 -10 17 -7 42 12 18 14 49 28 67 31 18 3 33 12 33 20 0 8 8 13 18 12 36 -3 52 3 52 17 0 9 6 15 13 14 32 -4 55 3 76 22 12 11 28 18 36 15 8 -3 21 4 29 15 9 14 16 17 21 9 5 -8 14 -7 31 4 13 9 31 16 40 16 18 0 97 41 102 53 2 4 12 7 23 7 10 0 19 5 19 10 0 6 11 8 25 6 13 -3 27 0 31 5 3 6 13 8 21 5 8 -3 12 -2 9 3 -3 5 4 9 17 10 12 1 58 5 102 10 88 10 141 8 255 -8z"
       id="path4" />
    <path
       d="M3358 3558 c-32 -11 -58 -24 -58 -29 0 -5 -6 -9 -13 -9 -26 0 -122 -123 -111 -142 3 -5 -2 -21 -12 -36 -30 -45 -18 -247 16 -272 4 -3 22 -31 40 -63 18 -32 42 -64 54 -72 44 -29 156 -63 244 -76 51 -7 92 -17 92 -22 0 -15 122 0 164 19 20 10 36 21 36 26 0 4 6 8 14 8 8 0 19 14 25 30 5 17 15 30 20 30 6 0 11 5 11 10 0 6 8 20 19 31 22 24 51 110 51 153 0 77 -74 256 -106 256 -6 0 -16 10 -23 23 -21 36 -144 140 -176 149 -54 15 -225 6 -287 -14z m251 -74 c61 -29 172 -136 198 -193 9 -20 20 -38 23 -41 27 -22 35 -130 14 -187 -27 -73 -70 -133 -94 -133 -5 0 -10 -4 -10 -8 0 -19 -87 -29 -136 -16 -27 7 -62 13 -79 15 -16 2 -35 7 -41 11 -7 5 -16 8 -20 6 -39 -10 -193 73 -194 104 0 9 -5 20 -11 24 -6 3 -9 20 -6 38 2 17 -2 50 -10 73 -7 24 -13 60 -12 80 3 42 53 163 68 163 5 0 17 7 25 16 19 19 123 57 136 49 5 -3 11 -1 14 3 9 15 99 12 135 -4z"
       id="path6" />
    <path
       d="M3538 3330 c-38 -28 -63 -62 -65 -86 -1 -14 14 -55 34 -90 33 -61 38 -65 67 -62 60 5 76 24 76 88 0 51 3 60 21 65 13 4 18 12 15 22 -3 8 -6 20 -6 27 0 7 -9 22 -21 34 -24 26 -88 27 -121 2z"
       id="path8" />
    <path
       d="M1165 2975 c-42 -16 -81 -26 -103 -27 -32 -3 -186 -188 -156 -188 3 0 -1 -11 -9 -24 -34 -52 -46 -127 -44 -276 1 -80 6 -151 10 -157 5 -8 3 -13 -4 -13 -7 0 -9 -8 -4 -22 3 -13 8 -30 9 -38 1 -9 6 -22 11 -30 5 -8 8 -30 6 -50 -1 -24 4 -42 19 -57 11 -13 18 -23 14 -23 -3 0 0 -8 7 -17 12 -15 12 -16 -3 -10 -21 8 -23 -6 -4 -25 7 -8 17 -24 20 -36 4 -12 11 -22 15 -22 5 0 8 -27 7 -60 0 -33 1 -61 4 -63 9 -3 54 -80 58 -97 2 -8 6 -41 9 -74 4 -38 9 -53 14 -45 13 20 28 -7 23 -38 -2 -12 0 -23 6 -23 6 0 8 -5 5 -10 -4 -6 -1 -17 5 -25 7 -8 9 -15 6 -15 -4 0 -2 -9 4 -20 6 -11 16 -17 22 -14 7 5 9 2 5 -9 -3 -9 5 -36 18 -61 14 -25 22 -53 19 -61 -4 -8 -2 -15 4 -15 6 0 13 6 15 13 3 6 6 1 6 -13 1 -26 52 -80 76 -80 7 0 15 -5 17 -12 2 -6 11 -12 20 -14 9 -1 35 -17 57 -34 37 -30 45 -32 95 -28 30 3 53 1 50 -4 -3 -4 4 -8 16 -8 12 0 19 -4 15 -9 -3 -6 3 -9 13 -8 10 0 43 -11 73 -25 30 -14 83 -40 119 -57 36 -17 61 -31 57 -31 -5 0 6 -12 24 -27 18 -16 37 -27 41 -25 4 1 8 -2 8 -6 0 -7 82 -58 87 -55 6 4 63 -20 63 -26 0 -4 8 -7 18 -8 22 -1 50 -8 85 -22 25 -10 31 -7 28 12 -2 12 9 8 44 -19 19 -14 39 -23 46 -19 6 4 15 1 20 -6 6 -10 9 -11 9 -1 0 6 7 12 15 12 8 0 15 6 15 13 0 28 45 67 77 67 18 0 35 -5 38 -10 10 -16 32 6 38 37 3 14 0 39 -5 54 -7 20 -6 34 3 51 7 13 12 26 12 29 -1 4 7 15 17 24 11 10 20 24 20 32 0 7 5 13 10 13 6 0 10 10 10 23 0 13 4 27 8 33 5 5 14 35 21 66 11 49 10 66 -4 113 -17 60 -46 117 -75 150 -34 37 -105 122 -133 159 -16 21 -41 42 -55 49 -15 6 -34 17 -43 24 -8 7 -24 14 -36 16 -30 4 -178 93 -245 146 -31 25 -83 60 -115 77 -32 18 -62 41 -68 53 -5 12 -13 21 -17 21 -5 0 -8 7 -8 15 0 9 -11 20 -24 26 -15 7 -33 32 -47 65 -13 30 -27 54 -31 54 -5 0 -8 7 -8 16 0 9 -11 37 -25 63 -13 25 -31 62 -39 81 -18 42 -45 223 -39 260 7 48 -15 147 -42 188 -16 24 -46 50 -78 66 -29 15 -65 36 -82 46 -16 10 -40 19 -52 19 -12 1 -25 6 -28 11 -8 14 -32 12 -80 -5z m211 -153 c49 -48 57 -72 62 -172 6 -123 2 -127 -107 -113 -113 15 -121 24 -121 143 0 94 1 97 33 132 42 48 90 51 133 10z m-312 -44 c13 -14 18 -41 22 -130 3 -67 1 -119 -5 -128 -7 -11 -27 -14 -71 -13 -34 0 -64 4 -68 8 -14 13 -8 155 7 164 7 5 11 13 8 19 -4 5 2 17 13 27 11 10 20 28 20 40 0 12 3 24 6 28 11 11 50 2 68 -15z m411 -386 c0 -6 3 -13 7 -17 4 -4 4 -13 1 -21 -3 -8 0 -14 6 -14 6 0 11 -6 11 -12 0 -7 14 -33 30 -58 16 -25 30 -55 30 -67 0 -13 4 -23 10 -23 5 0 14 -17 19 -37 9 -33 8 -38 -12 -52 -48 -35 -156 -41 -214 -12 -21 11 -46 22 -56 25 -28 9 -40 55 -38 146 2 78 4 87 28 108 14 12 37 22 50 22 14 0 23 6 23 15 0 8 6 12 14 9 8 -3 23 -1 32 4 20 11 59 0 59 -16z m-352 -23 c19 -15 22 -29 24 -102 2 -105 -5 -112 -122 -123 l-50 -5 -19 47 c-21 52 -31 122 -22 157 4 18 16 27 48 34 63 15 117 12 141 -8z m72 -344 c45 -10 92 -33 98 -47 9 -27 -1 -145 -16 -180 -13 -31 -21 -38 -44 -38 -15 0 -49 -7 -75 -15 -50 -15 -58 -11 -57 26 0 13 -3 50 -7 82 -6 48 -11 60 -34 74 -29 17 -74 89 -65 103 6 10 152 6 200 -5z m543 -63 c2 -7 10 -12 17 -12 15 0 65 -25 74 -37 3 -5 25 -23 48 -42 36 -27 41 -36 33 -52 -6 -10 -8 -19 -5 -19 18 0 -58 -51 -96 -65 -77 -29 -94 -29 -148 1 -79 45 -117 137 -72 176 10 8 20 20 22 24 15 33 117 54 127 26z m402 -251 c65 -28 99 -51 100 -68 0 -7 4 -13 8 -13 5 0 16 -15 24 -34 17 -34 16 -34 -17 -73 -38 -45 -138 -101 -187 -104 -58 -4 -90 0 -82 12 4 7 0 9 -12 5 -22 -6 -40 7 -72 52 -19 26 -22 41 -17 68 3 19 10 34 14 34 5 0 12 12 15 26 4 14 17 36 29 49 30 32 57 68 57 76 0 12 64 15 75 4 6 -6 35 -21 65 -34z m-675 -51 c34 -13 65 -67 65 -115 0 -63 -27 -104 -85 -128 -27 -12 -51 -25 -53 -29 -2 -4 -10 -8 -18 -8 -7 0 -19 -9 -26 -20 -7 -11 -17 -20 -22 -20 -5 0 -17 -7 -27 -16 -17 -15 -20 -14 -43 12 -14 16 -26 34 -26 39 0 6 -9 21 -20 35 -11 14 -20 35 -20 47 0 12 -4 25 -10 28 -5 3 -10 14 -10 24 0 10 -12 40 -26 66 -24 46 -24 49 -7 59 10 6 23 11 28 12 24 2 91 17 102 23 18 9 168 3 198 -9z m914 -187 c49 -49 64 -85 69 -164 3 -60 1 -82 -12 -100 -9 -13 -16 -31 -16 -40 0 -9 -13 -34 -29 -56 -16 -23 -27 -43 -24 -46 2 -3 -7 -13 -21 -22 -26 -17 -46 -13 -46 9 0 7 -9 21 -20 31 -11 10 -20 23 -20 28 0 6 -6 18 -14 26 -8 9 -18 39 -21 66 -8 57 -8 58 -6 65 1 3 4 19 5 36 4 39 35 83 59 84 9 0 17 7 17 15 0 9 6 18 14 21 8 3 19 19 25 35 12 34 16 35 40 12z m-634 -134 c16 -17 17 -25 8 -49 -9 -23 -8 -32 1 -37 22 -15 46 -62 46 -92 0 -58 -6 -61 -63 -32 -29 14 -53 29 -55 34 -2 4 -12 7 -22 7 -10 0 -21 4 -24 9 -5 8 -65 22 -93 23 -5 0 -16 4 -25 9 -9 5 -38 11 -63 14 -57 6 -64 10 -58 34 5 19 76 65 86 55 3 -3 17 2 31 11 27 18 96 32 167 34 35 1 50 -4 64 -20z m313 -179 c22 -14 82 -93 82 -107 0 -4 9 -17 20 -29 14 -14 22 -37 23 -65 l2 -44 -35 2 c-45 3 -68 7 -76 16 -4 4 -19 7 -33 7 -14 0 -51 17 -81 39 -43 30 -54 43 -53 62 5 49 14 69 44 104 33 38 64 42 107 15z"
       id="path10" />
    <path
       d="M3441 2715 c-13 -14 -32 -25 -42 -26 -66 -2 -109 -1 -144 5 -37 5 -237 19 -295 19 -59 1 -150 -9 -150 -15 0 -4 -10 -7 -22 -7 -90 4 -241 -12 -280 -31 -38 -17 -75 -28 -170 -47 -16 -3 -28 -9 -28 -14 0 -5 -7 -9 -15 -9 -8 0 -15 -5 -15 -11 0 -6 -11 -25 -24 -42 -18 -23 -26 -50 -30 -96 -4 -35 -9 -74 -12 -86 -6 -26 37 -100 51 -87 4 4 6 0 2 -9 -6 -19 31 -59 55 -59 9 0 21 -7 28 -15 7 -8 20 -15 29 -15 9 0 22 -5 28 -11 12 -12 46 -7 72 10 26 17 -11 57 -58 64 -42 5 -90 34 -91 55 0 6 -4 12 -8 12 -9 0 -32 79 -32 109 0 10 7 32 15 47 8 16 15 37 15 47 0 9 7 17 15 17 8 0 15 7 15 15 0 15 16 19 53 16 9 -1 17 3 17 8 0 6 19 11 43 11 31 0 49 6 62 20 12 13 22 17 28 11 7 -7 17 -7 29 0 10 6 48 12 83 15 36 2 75 8 88 13 13 5 35 7 50 4 17 -3 27 -1 27 6 0 7 5 9 13 4 16 -10 137 -10 137 0 0 5 5 5 11 1 7 -4 57 -8 113 -9 56 -2 130 -6 166 -10 86 -10 128 -9 145 5 10 8 14 8 18 -2 4 -9 8 -10 14 -2 4 6 16 13 26 17 9 3 17 13 17 22 0 8 5 15 10 15 14 0 13 33 -2 48 -18 18 -30 15 -57 -13z"
       id="path12" />
    <path
       d="M3670 2552 c-19 -2 -39 -8 -44 -13 -6 -5 -16 -9 -23 -9 -22 0 -54 -33 -79 -82 -19 -38 -24 -63 -24 -125 0 -53 5 -85 15 -99 8 -12 11 -24 8 -28 -3 -3 1 -6 9 -6 10 0 16 -9 16 -25 0 -14 8 -37 18 -52 10 -16 19 -31 19 -35 0 -4 10 -15 23 -23 12 -9 22 -22 22 -30 0 -23 81 -75 118 -75 18 0 31 -4 28 -9 -8 -12 31 -19 84 -14 25 3 64 6 87 8 23 1 48 9 56 16 7 8 26 23 40 34 15 11 27 26 27 33 0 7 7 15 15 18 8 4 12 10 9 15 -3 5 -1 9 5 9 9 0 28 81 24 105 -10 66 -28 136 -44 167 -19 38 -108 128 -138 140 -9 3 -26 16 -39 28 -45 43 -133 63 -232 52z m122 -97 c13 -8 31 -15 41 -15 29 0 167 -142 167 -172 0 -14 6 -43 14 -64 11 -32 11 -48 1 -84 -7 -25 -14 -52 -16 -60 -8 -32 -77 -67 -134 -69 -121 -4 -233 101 -250 235 -2 20 -14 47 -25 59 -21 22 -28 85 -10 85 6 0 10 5 10 11 0 17 50 73 67 75 8 2 16 4 18 6 12 11 98 7 117 -7z"
       id="path14" />
    <path
       d="M3824 2283 c-25 -2 -49 -12 -59 -23 -17 -19 -17 -22 0 -67 23 -60 60 -97 89 -89 27 7 61 60 70 110 8 42 -13 78 -43 74 -9 -1 -35 -3 -57 -5z"
       id="path16" />
  </g>
  <path
     style="fill:#ffffff;stroke-width:0"
     d="m 254.31783,534.16079 c -15.59357,-1.25166 -23.72334,-2.05989 -35.76081,-3.55518 -7.74752,-0.96239 -14.49686,-1.7498 -14.99855,-1.7498 -0.50168,0 -1.46889,-0.65023 -2.14936,-1.44496 -0.68604,-0.80124 -2.13128,-1.44496 -3.24409,-1.44496 -1.23276,0 -2.00688,-0.38782 -2.00688,-1.0054 0,-0.55297 -0.73151,-1.19208 -1.62558,-1.42025 -0.89407,-0.22817 -3.41294,-1.7624 -5.59749,-3.40938 -2.18454,-1.64699 -5.76082,-3.90449 -7.94728,-5.01666 -2.18646,-1.11218 -5.06911,-3.16195 -6.40588,-4.55506 l -2.43049,-2.5329 2.2394,-1.15805 c 2.56649,-1.32718 3.45708,-3.81936 2.52556,-7.0674 -0.85143,-2.96874 -3.26228,-4.6316 -9.02373,-6.22401 -6.23571,-1.72349 -10.17555,-4.09414 -17.68365,-10.64044 -3.38388,-2.95041 -7.59643,-6.35781 -9.36122,-7.57202 -1.76478,-1.2142 -3.74685,-3.24894 -4.40461,-4.52164 -1.75999,-3.40545 -11.43794,-16.08472 -16.21253,-21.24035 -2.28023,-2.4622 -4.35891,-5.14798 -4.6193,-5.96839 -0.26039,-0.8204 -1.38765,-1.96441 -2.50502,-2.54223 -1.14185,-0.59046 -2.24601,-1.90489 -2.52119,-3.00128 -0.26927,-1.07289 -2.26308,-5.85696 -4.43067,-10.63125 -2.1676,-4.77429 -4.56776,-10.70949 -5.3337,-13.18932 -0.76595,-2.47983 -2.223956,-6.14933 -3.240026,-8.15445 -1.01607,-2.00512 -1.847401,-4.73122 -1.847401,-6.05801 0,-1.43866 -0.729025,-3.40047 -1.806201,-4.8605 -0.993411,-1.3465 -1.806202,-3.18844 -1.806202,-4.09321 0,-2.33662 -4.074232,-13.20577 -5.569397,-14.85791 -0.688774,-0.76109 -1.33998,-2.74181 -1.447127,-4.40161 -0.107146,-1.6598 -1.647712,-8.21967 -3.42348,-14.5775 -4.303174,-15.40678 -5.849693,-24.0487 -7.240344,-40.45892 -0.639803,-7.54992 -1.824301,-19.25411 -2.632219,-26.0093 -1.929775,-16.13532 -2.060473,-28.48617 -0.38609,-36.48527 2.008194,-9.59384 4.802286,-19.56102 6.314428,-22.52506 0.758768,-1.48731 1.379578,-3.4201 1.379578,-4.29508 0,-0.87499 0.809997,-2.97305 1.799993,-4.66235 0.989996,-1.6893 2.269113,-5.0824 2.842483,-7.54021 0.57337,-2.45782 1.551513,-5.03122 2.17365,-5.71868 0.622139,-0.68745 1.131161,-1.76563 1.131161,-2.39594 0,-0.63032 1.350547,-3.69332 3.001216,-6.80668 1.650669,-3.11336 3.419108,-7.24182 3.929864,-9.17437 0.510756,-1.93254 1.59858,-3.98296 2.417389,-4.55647 0.818807,-0.57352 1.48874,-1.79327 1.48874,-2.71056 0,-0.91729 0.592235,-2.44315 1.316077,-3.39081 0.723841,-0.94766 2.701278,-4.32395 4.394288,-7.50286 5.21995,-9.80129 12.34628,-18.40777 19.83656,-23.95663 2.32856,-1.72502 4.94862,-3.13639 5.82237,-3.13639 0.87375,0 2.21973,-0.47734 2.99107,-1.06075 0.77133,-0.58341 2.54033,-1.07134 3.93111,-1.08429 1.39077,-0.013 4.58985,-0.99864 7.10906,-2.19042 5.34576,-2.52896 5.17311,-2.49449 5.17311,-1.0329 0,0.7678 0.52491,1.05388 1.62558,0.88595 0.89407,-0.13641 1.5443,-0.6467 1.44496,-1.13397 -0.0993,-0.48727 0.003,-0.88595 0.22659,-0.88595 0.22396,0 4.3692,-0.82389 9.21163,-1.83086 19.33902,-4.02151 42.34504,-3.50869 68.45821,1.52599 4.99408,0.96287 12.72413,2.23129 17.1779,2.81871 4.45376,0.58743 8.71806,1.40003 9.47622,1.80578 0.75817,0.40576 2.18372,0.73774 3.16789,0.73774 0.98418,0 3.63933,0.70793 5.90034,1.57317 3.26703,1.25022 4.38519,1.40189 5.44691,0.73883 1.09217,-0.68207 1.7051,-0.53053 3.35878,0.83047 2.38606,1.96375 19.86213,7.6288 25.344,8.21552 2.09781,0.22453 3.98642,0.68688 4.1969,1.02745 0.58326,0.94374 3.02698,0.73794 3.37089,-0.28389 0.24147,-0.71745 0.53455,-0.71282 1.42574,0.0225 0.61697,0.5091 5.62787,2.11602 11.13532,3.57093 9.59478,2.53468 10.52715,2.64703 22.2957,2.68676 12.37045,0.0418 13.32827,-0.10078 21.67442,-3.22563 0.79473,-0.29755 2.0952,-0.55239 2.88993,-0.56631 0.79472,-0.0139 3.39565,-1.20298 5.77984,-2.64237 2.38419,-1.43939 5.72506,-2.96899 7.42417,-3.39912 1.6991,-0.43012 3.69659,-1.55412 4.43886,-2.49776 1.0291,-1.30828 2.05406,-1.71571 4.31614,-1.71571 2.88172,0 5.85649,-1.8349 5.85649,-3.61241 0,-0.39736 1.55526,-0.72248 3.45614,-0.72248 2.72063,0 4.29144,-0.53814 7.38107,-2.52868 2.15871,-1.39077 4.68292,-2.52868 5.60936,-2.52868 0.92644,0 2.47769,-0.85593 3.44722,-1.90207 1.41453,-1.5263 1.96737,-1.73228 2.79835,-1.04263 0.82041,0.68088 1.79298,0.47564 4.68102,-0.98785 2.00501,-1.01601 4.22523,-1.84755 4.93383,-1.84787 1.72225,-7.9e-4 9.34301,-3.71277 12.44655,-6.06261 1.36863,-1.03625 3.19824,-1.8841 4.0658,-1.8841 0.86756,0 1.98211,-0.48768 2.47678,-1.08372 0.5454,-0.65717 2.12748,-1.08372 4.01947,-1.08372 1.71603,0 3.32099,-0.32512 3.56658,-0.72248 0.24559,-0.39737 1.1751,-0.72249 2.06559,-0.72249 0.89048,0 1.9406,-0.32154 2.33359,-0.71453 0.97631,-0.9763 19.80841,-2.89787 28.40024,-2.89787 13.68017,0 33.35557,3.34998 47.3698,8.0653 4.75401,1.59956 11.30053,3.67823 14.54784,4.61926 3.24731,0.94104 9.19897,3.02361 13.22592,4.62794 4.02694,1.60433 8.0467,2.92711 8.93278,2.93951 0.88608,0.0124 2.91153,0.82352 4.50098,1.8025 1.58946,0.97897 3.40221,1.78161 4.02833,1.78365 0.62612,0.002 1.90198,0.81649 2.83524,1.8099 0.93326,0.99341 2.28251,1.80621 2.99834,1.80621 0.71582,0 2.33698,1.1379 3.60255,2.52868 1.26558,1.39077 2.89904,2.52868 3.62993,2.52868 0.73088,0 1.32887,0.34383 1.32887,0.76406 0,0.42023 4.7683,5.70337 10.59623,11.74031 12.20589,12.64364 13.55511,14.90077 13.10764,21.92811 -0.36381,5.71348 -1.82706,7.46321 -6.70066,8.01253 -3.70156,0.41722 -4.72104,1.73157 -4.72104,6.08655 0,1.98656 0.17489,2.15483 1.81244,1.74384 2.36605,-0.59385 5.61641,1.1144 6.71713,3.53022 0.69764,1.53114 0.65623,2.29637 -0.21545,3.98201 -0.59347,1.14765 -1.40647,2.289 -1.80666,2.53632 -0.40019,0.24734 -0.72761,1.14362 -0.72761,1.99175 0,1.55815 -7.20433,9.20988 -8.67138,9.20988 -0.41512,0 -3.46396,-2.60093 -6.77519,-5.77984 -3.31123,-3.17892 -6.39221,-5.77985 -6.84662,-5.77985 -1.59458,0 -3.71612,2.9005 -3.71612,5.08057 0,3.37127 1.59969,6.4646 5.61486,10.8575 l 3.67173,4.01713 -2.52255,3.18774 c -2.6455,3.34311 -5.72643,5.74348 -7.38222,5.75152 -0.53869,0.003 -1.989,0.85426 -3.22291,1.89254 -1.99762,1.68088 -2.65659,1.83921 -6.01294,1.44473 -5.88592,-0.69177 -6.31544,0.10468 -7.0796,13.12786 -0.23301,3.97108 -0.85945,7.60783 -1.53572,8.9156 -0.62819,1.21479 -0.98062,2.62973 -0.78316,3.14428 0.46994,1.22465 -1.4885,3.99138 -2.82532,3.99138 -0.57417,0 -2.21181,-1.62558 -3.6392,-3.6124 -2.09126,-2.91088 -3.00301,-3.6124 -4.69493,-3.6124 -2.43299,0 -4.98959,2.23303 -4.98959,4.35809 0,3.57289 4.07933,10.09152 6.31523,10.09152 2.3172,0 5.99838,3.91547 8.38381,8.91737 1.35633,2.84405 3.29654,6.05856 4.31157,7.14335 2.59164,2.76976 8.25185,6.23053 11.68371,7.14367 1.59557,0.42454 3.45721,1.26815 4.13699,1.87469 0.94151,0.84007 2.06029,0.98007 4.69612,0.58766 3.89252,-0.57951 5.26637,-1.4264 5.26637,-3.24633 0,-1.74847 -1.98701,-3.23193 -5.77984,-4.31512 -3.7092,-1.05931 -9.79949,-4.00607 -10.44787,-5.05516 -0.62012,-1.00338 2.8729,-3.10664 5.99455,-3.60952 2.36984,-0.38177 2.75265,-0.7592 3.65472,-3.60338 1.27382,-4.01636 0.51867,-5.34489 -3.33849,-5.87335 -3.50919,-0.48079 -6.5459,-2.35411 -7.38234,-4.5541 -0.75423,-1.98376 0.38164,-8.86771 1.83543,-11.12373 0.82604,-1.28186 1.72152,-1.62558 4.23501,-1.62558 1.75311,0 4.06098,-0.33211 5.1286,-0.73802 1.40905,-0.53572 2.2323,-0.49634 3.00346,0.14367 1.64996,1.36934 8.38086,1.19041 9.83428,-0.26143 0.67009,-0.66935 1.86664,-1.42278 2.65902,-1.67427 3.57368,-1.13424 0.56128,-4.26605 -5.10114,-5.30333 -3.95177,-0.72392 -10.07523,-2.84566 -10.07523,-3.49102 0,-1.4857 2.18452,-3.47774 5.83406,-5.32003 2.77535,-1.40099 4.57846,-2.82927 5.01228,-3.97032 0.37267,-0.98018 1.25459,-1.78919 1.95981,-1.79779 0.72813,-0.009 1.75053,-1.01856 2.36594,-2.3365 0.59605,-1.27648 2.54674,-3.37304 4.33488,-4.65903 7.04381,-5.06573 7.44999,-5.55071 11.0001,-13.13419 1.94555,-4.15594 4.51447,-8.91686 5.70873,-10.57984 1.81178,-2.52285 2.24084,-3.94195 2.59078,-8.56897 0.23066,-3.04997 0.68364,-5.7087 1.0066,-5.90831 1.11688,-0.69027 6.55115,5.03348 8.57818,9.0351 1.11914,2.20935 3.05522,5.29584 4.3024,6.85888 1.24718,1.56304 2.09111,3.30182 1.8754,3.86395 -0.21571,0.56213 0.41033,1.97581 1.3912,3.14151 0.98087,1.1657 2.97388,4.38495 4.42892,7.15388 1.45504,2.76894 2.88617,5.03443 3.1803,5.03443 0.29413,0 0.72449,1.38402 0.95635,3.0756 0.23185,1.69158 1.24062,4.92764 2.24169,7.19125 3.8798,8.7729 5.05388,15.15661 5.08783,27.66338 0.0333,12.26807 -1.04967,18.65535 -3.84073,22.65264 -0.73415,1.05144 -1.53081,3.16936 -1.77035,4.70649 -0.59497,3.81787 -4.91822,10.80631 -12.72868,20.57559 -3.60495,4.50906 -6.55445,8.46949 -6.55445,8.80096 0,0.83916 -16.78761,14.85808 -21.91645,18.3019 -2.31862,1.55687 -4.57412,3.61736 -5.01222,4.57888 -0.81044,1.77872 -15.23422,13.94478 -16.53259,13.94478 -0.39103,0 -2.07,0.93161 -3.73105,2.07025 -4.40112,3.01693 -9.6547,5.54707 -17.63936,8.49516 -3.88034,1.4327 -9.65609,3.56818 -12.835,4.74551 -3.17891,1.17733 -9.03101,3.07579 -13.00465,4.21881 -3.97364,1.14301 -10.63853,3.25385 -14.81085,4.69076 -4.17233,1.43691 -8.39782,2.61917 -9.38998,2.62725 -0.99217,0.008 -1.98875,0.31371 -2.21462,0.67917 -0.22587,0.36547 -3.66508,1.89858 -7.64271,3.40693 -9.45235,3.5844 -27.3182,13.97348 -38.10381,22.15755 -4.72102,3.58229 -10.03032,7.49448 -11.79843,8.69374 -1.7681,1.19926 -3.52987,2.74356 -3.91501,3.43178 -0.38515,0.68822 -1.4537,1.25131 -2.37456,1.25131 -1.15372,0 -2.27057,0.90103 -3.59205,2.89792 -1.05476,1.59385 -4.28856,5.57653 -7.18621,8.85039 -7.45946,8.42792 -11.25628,13.40423 -11.76076,15.41426 -0.23973,0.95516 -0.90489,1.73665 -1.47813,1.73665 -0.57325,0 -1.48639,1.05663 -2.02921,2.34806 -0.54282,1.29144 -1.98925,3.72699 -3.2143,5.41235 -1.22504,1.68536 -2.22736,3.64024 -2.22736,4.34418 0,0.70395 -0.71879,1.60083 -1.59731,1.99308 -0.87853,0.39225 -4.02017,3.63923 -6.98141,7.21551 -5.98005,7.22206 -24.23018,25.64806 -25.40325,25.64806 -0.41222,0 -2.93223,1.67465 -5.60004,3.72145 -4.66576,3.57968 -16.69811,10.00568 -18.73511,10.00568 -0.54164,0 -1.8657,0.64647 -2.94236,1.43658 -1.07666,0.79012 -3.74571,1.76936 -5.93121,2.17607 -2.18551,0.40672 -5.92434,1.37849 -8.30853,2.15949 -2.38419,0.78099 -7.58605,1.93673 -11.55969,2.5683 -3.97364,0.63156 -9.50062,1.62777 -12.28217,2.21378 -23.16463,4.88029 -53.1674,7.61004 -69.35814,6.31045 z m 47.32248,-21.54703 c 0,-0.58847 0.79798,-1.27023 1.77329,-1.51502 1.16796,-0.29314 2.03686,-1.24368 2.54539,-2.78452 0.80139,-2.42823 3.56105,-5.42215 6.29041,-6.82439 1.95747,-1.00567 7.21051,-1.06502 7.81417,-0.0883 0.9239,1.4949 3.30264,0.67287 4.70404,-1.62558 1.61288,-2.64531 1.82147,-6.32257 0.62761,-11.06383 -0.71093,-2.82336 -0.61297,-3.67122 0.80492,-6.96721 0.8879,-2.06396 2.51965,-4.90662 3.62612,-6.31701 1.10646,-1.41039 2.21965,-3.26583 2.47374,-4.12319 0.25409,-0.85736 0.93728,-1.74123 1.5182,-1.96415 0.58092,-0.22292 1.05622,-1.10843 1.05622,-1.96782 0,-0.85937 0.95993,-4.36457 2.13317,-7.78933 3.1872,-9.30356 3.44866,-14.21649 1.16914,-21.96848 -2.786,-9.47441 -6.13811,-15.44073 -13.58497,-24.17946 -3.6826,-4.32145 -8.80631,-10.46872 -11.38602,-13.66059 -6.62923,-8.20238 -9.56828,-10.22372 -25.42577,-17.48674 -7.48548,-3.4285 -17.50991,-9.63677 -27.97666,-17.32636 -4.20911,-3.0923 -10.41641,-7.28884 -13.79401,-9.32566 -3.37759,-2.03681 -7.11643,-4.70004 -8.30852,-5.91826 -4.8789,-4.98588 -5.41861,-5.65413 -5.41861,-6.70921 0,-0.6057 -1.47606,-2.31079 -3.28013,-3.78909 -2.38426,-1.95373 -4.16213,-4.44401 -6.50957,-9.11804 -1.7762,-3.53662 -3.51512,-6.43022 -3.86427,-6.43022 -0.34916,0 -0.84281,-1.10863 -1.09701,-2.46362 -0.2542,-1.35498 -2.27467,-6.15045 -4.48993,-10.65659 -5.84154,-11.88245 -8.93583,-26.33298 -8.93583,-41.73088 0,-14.06489 -3.34419,-24.43631 -9.75419,-30.25097 -4.2769,-3.87968 -20.35562,-12.78417 -24.31043,-13.46326 -1.45018,-0.24902 -3.03429,-0.93184 -3.52024,-1.51736 -1.37768,-1.66001 -4.97089,-1.27632 -13.71127,1.46407 -4.43581,1.39078 -8.70498,2.52869 -9.48704,2.52869 -2.59131,0 -5.41782,2.03418 -10.74251,7.73117 -6.54637,7.00408 -12.28208,15.07666 -12.28208,17.2861 0,0.91921 -0.94971,3.55043 -2.11047,5.84716 -3.7441,7.40824 -4.5954,13.6111 -4.53932,33.0751 0.0275,9.53674 0.35178,18.86641 0.72068,20.73259 0.54035,2.73353 0.46843,3.47068 -0.37002,3.79243 -1.22381,0.46962 -0.91238,2.3967 1.68509,10.42689 0.94827,2.93161 1.72412,7.02807 1.72412,9.10323 0,3.04744 0.41769,4.34962 2.17198,6.77134 1.19458,1.64908 1.99593,2.99833 1.78078,2.99833 -0.21516,0 -0.0432,0.65023 0.38213,1.44496 0.61098,1.14163 0.54943,1.44496 -0.29319,1.44496 -2.07816,0 -2.00517,1.60375 0.21362,4.69336 1.23585,1.7209 2.24701,3.4383 2.24701,3.81646 0,0.37816 0.60199,1.46292 1.33776,2.41057 1.02037,1.31422 1.45483,3.57358 1.83114,9.52273 0.46264,7.31385 0.64395,8.01141 2.91064,11.19845 4.23991,5.96142 5.3307,8.91361 6.42608,17.39211 0.57623,4.46011 1.2415,8.3031 1.47838,8.53998 0.23688,0.23688 0.89728,0.0434 1.46755,-0.42982 1.38276,-1.14759 2.03803,-0.0374 2.01373,3.41182 -0.0165,2.33851 1.63483,8.66141 3.59134,13.75141 0.35893,0.93377 1.257,1.85582 1.99572,2.04901 0.85061,0.22244 1.48574,1.23009 1.73205,2.74797 0.21392,1.3182 1.38982,4.67716 2.61313,7.46434 1.2233,2.78718 2.22418,6.06974 2.22418,7.29456 0,2.33026 1.18711,2.91831 2.74543,1.35999 0.67431,-0.67431 0.86698,-0.46209 0.86698,0.95502 0,3.38897 7.03741,10.74917 10.27776,10.74917 0.73,0 1.52657,0.51935 1.77015,1.15411 0.24358,0.63476 1.77768,1.74123 3.4091,2.45883 1.63144,0.7176 5.06171,2.79918 7.62283,4.62574 l 4.65659,3.32101 h 7.08372 c 4.24083,0 7.08372,0.28995 7.08372,0.72248 0,0.39737 0.81279,0.72248 1.8062,0.72248 1.05953,0 1.80621,0.41477 1.80621,1.00332 0,0.57629 1.08567,1.20699 2.55087,1.48186 6.55526,1.22977 30.25878,12.98494 34.26838,16.99454 1.56218,1.56218 3.85816,3.36667 5.10218,4.00998 1.24401,0.6433 3.78095,2.32959 5.63764,3.7473 3.50432,2.67579 6.72835,4.30396 12.60062,6.36345 1.89473,0.66451 3.84543,1.60851 4.33489,2.09777 0.48945,0.48928 3.00317,1.30397 5.58604,1.81044 2.58286,0.50647 5.79245,1.37747 7.13241,1.93555 3.52326,1.46742 5.72481,1.30886 6.00261,-0.4323 0.21155,-1.32592 0.59362,-1.20519 4.56575,1.44266 2.85047,1.90014 5.14671,2.89045 6.70562,2.89197 1.43918,10e-4 2.53415,0.42814 2.7866,1.08602 0.53562,1.39582 1.70623,1.40526 1.70623,0.0137 z M 522.10097,364.10482 c 4.11509,-0.41135 8.45732,-1.06434 9.64942,-1.45111 3.48212,-1.12974 12.66951,-10.57271 15.40435,-15.83287 1.8284,-3.51673 3.17251,-11.07668 2.70285,-15.20224 -0.73494,-6.45592 -3.92113,-18.04819 -6.02111,-21.90655 -2.35243,-4.32219 -12.27262,-14.67594 -16.78222,-17.51567 -1.78814,-1.12601 -4.55162,-3.07238 -6.14108,-4.32527 -6.34762,-5.0035 -11.72579,-6.74897 -22.3969,-7.26884 -7.96715,-0.38813 -9.24043,-0.1948 -18.03652,2.7386 -4.10004,1.36731 -8.06692,5.66614 -11.11115,12.0409 l -2.64148,5.53141 v 10.47597 c 0,8.55867 0.2314,10.92602 1.26434,12.93503 0.69539,1.35248 1.26434,3.05934 1.26434,3.79302 0,0.73368 0.47624,1.33396 1.05831,1.33396 1.27038,0 2.5541,2.19484 2.5541,4.36688 0,2.44481 4.26817,10.09763 7.63813,13.69514 1.67504,1.78814 3.26364,3.97982 3.53022,4.87041 1.04997,3.50773 12.14227,9.5792 17.50076,9.5792 0.96904,0 1.67507,0.43446 1.67507,1.03075 0,0.56691 0.56896,1.17943 1.26434,1.36115 2.34437,0.61264 10.09484,0.50276 17.62423,-0.24987 z M 330.13723,332.79567 c 1.01599,-0.66571 1.84727,-1.87812 1.84727,-2.69426 0,-2.24282 -3.71189,-5.49223 -7.29126,-6.38283 -6.49755,-1.61669 -8.58401,-2.47017 -11.09144,-4.537 -1.41309,-1.16478 -2.56924,-2.47491 -2.56924,-2.9114 0,-0.43648 -0.52836,-1.37744 -1.17413,-2.09101 -1.41218,-1.56043 -3.88324,-10.12096 -3.88324,-13.45275 0,-1.31201 0.78101,-4.24509 1.73556,-6.51796 0.95456,-2.27287 1.84863,-4.94528 1.98682,-5.93869 0.13931,-1.00144 0.95454,-2.11492 1.82969,-2.49908 0.86813,-0.38108 1.91778,-1.43771 2.33257,-2.34806 0.63013,-1.38298 1.31173,-1.65519 4.14454,-1.65519 2.13361,0 3.87754,-0.44087 4.70459,-1.18934 0.7947,-0.7192 3.24472,-1.37447 6.19797,-1.65769 4.98683,-0.47825 7.19062,-1.28569 8.79922,-3.22394 0.59865,-0.72133 1.5997,-0.9539 2.94645,-0.68455 1.12186,0.22437 3.12549,0.0555 4.45249,-0.37529 1.32701,-0.43078 6.47669,-1.2652 11.44375,-1.85427 4.96705,-0.58907 10.16891,-1.41725 11.55969,-1.8404 1.39077,-0.42315 3.73594,-0.57234 5.21147,-0.33153 1.47553,0.24082 3.10111,0.17509 3.6124,-0.14607 0.51129,-0.32115 5.15613,-0.62142 10.32186,-0.66726 5.16574,-0.0458 9.87993,-0.15438 10.47597,-0.24121 1.57366,-0.22925 27.89187,1.25328 37.24601,2.09809 11.33428,1.02365 17.36252,0.91345 19.82995,-0.3625 1.87805,-0.97117 2.16151,-0.96604 2.72985,0.0495 0.5522,0.98673 1.06823,0.86997 3.99155,-0.90311 1.84655,-1.11999 3.56836,-2.68657 3.82624,-3.4813 0.25788,-0.79473 1.11088,-2.0565 1.89557,-2.80395 2.61388,-2.48982 -0.0551,-8.3945 -3.79448,-8.3945 -0.71826,0 -3.03934,1.49444 -5.15794,3.32097 l -3.85202,3.32098 -11.55969,-0.3946 c -6.35783,-0.21703 -17.89946,-0.88905 -25.64806,-1.49338 -21.43964,-1.67213 -40.67636,-1.21311 -42.91344,1.02397 -0.39841,0.39841 -4.36838,0.72439 -8.82214,0.72439 -12.08739,0 -24.50312,1.83395 -34.23961,5.05759 -4.56969,1.51297 -11.45268,3.45316 -15.29553,4.31152 -3.95475,0.88336 -7.68689,2.16767 -8.5997,2.95934 -0.88698,0.7693 -2.05062,1.39871 -2.58586,1.39871 -0.53525,0 -0.97318,0.38373 -0.97318,0.85273 0,0.469 -1.31282,2.86772 -2.91738,5.3305 -3.0253,4.64341 -3.44857,6.2178 -5.27286,19.61303 -1.10094,8.08387 -0.2838,11.79023 3.47902,15.77998 1.37153,1.45425 2.70406,3.34208 2.96115,4.19517 0.73203,2.42903 3.90634,5.41002 6.74599,6.33515 1.42457,0.46412 3.50915,1.60954 4.63239,2.54539 1.12323,0.93584 2.76796,1.70154 3.65493,1.70154 0.88698,0 2.24377,0.49752 3.01511,1.10559 1.78145,1.4044 7.45624,1.03612 10.03113,-0.65101 z m 162.96044,-89.3494 c 6.68187,-1.05472 11.33872,-2.71625 13.97369,-4.98573 1.25517,-1.08108 2.83787,-2.16773 3.51709,-2.41478 0.67924,-0.24705 2.06646,-2.09004 3.08272,-4.09553 1.01626,-2.0055 2.10769,-3.64635 2.4254,-3.64635 1.20858,0 6.78663,-9.84941 8.55353,-15.10337 2.61316,-7.77031 2.87738,-12.33123 1.11756,-19.29037 -3.04351,-12.03548 -8.97223,-24.39482 -12.51708,-26.09382 -1.03315,-0.49518 -2.80854,-2.24244 -3.94531,-3.88279 -2.43507,-3.51381 -12.55728,-12.54778 -18.52276,-16.53137 -3.1,-2.0701 -5.282,-2.93885 -8.34148,-3.32111 -5.56284,-0.69503 -23.88352,0.18141 -30.16351,1.44299 -5.36092,1.07695 -11.44787,3.40201 -12.23327,4.6728 -0.25934,0.41962 -1.60656,1.30156 -2.99384,1.95986 -4.49021,2.13075 -14.03336,14.73968 -14.03336,18.54165 0,1.11765 -0.73151,3.40087 -1.62558,5.07384 -1.49131,2.79053 -1.62558,3.99654 -1.62558,14.60145 0,12.89279 0.83637,17.57723 3.89969,21.8417 1.07567,1.49745 3.6606,5.5561 5.74429,9.0192 2.08369,3.46311 4.94467,7.24955 6.35773,8.41432 4.71383,3.88554 18.04263,8.20022 33.83175,10.95171 4.75863,0.82926 9.47282,1.94354 10.47597,2.47618 2.26792,1.20417 6.9016,1.33566 13.02235,0.36952 z"
     id="path26"
     transform="scale(0.75)" />
  <path
     style="fill:#ffffff;stroke-width:0"
     d="m 474.0726,232.26357 c -4.30465,-0.88823 -8.62774,-1.97997 -9.60687,-2.42608 -0.97913,-0.44613 -2.99268,-0.81113 -4.47456,-0.81113 -2.99302,0 -17.17655,-6.67415 -20.44009,-9.61821 -3.29016,-2.96807 -5.69682,-8.72906 -5.69682,-13.63687 0,-2.39352 -0.52939,-6.34948 -1.17642,-8.79102 -1.57759,-5.953 -1.56228,-11.55066 0.0448,-16.3601 2.07843,-6.22024 6.18111,-14.49192 7.42449,-14.96906 0.62076,-0.2382 2.73195,-1.51204 4.69153,-2.83074 3.72664,-2.50784 14.60288,-6.35862 16.21365,-5.74052 0.51373,0.19714 1.83818,-0.11318 2.94322,-0.68959 2.38571,-1.24442 8.09954,-1.36243 13.18285,-0.27225 8.60466,1.84536 24.53287,16.26213 30.66297,27.75332 1.05989,1.98682 2.55719,4.60401 3.32733,5.81597 1.93552,3.0459 2.94905,11.1029 2.1724,17.26941 -0.86015,6.82956 -5.97709,17.21381 -10.29059,20.88358 -1.69906,1.4455 -3.68997,3.14832 -4.42425,3.78404 -3.37378,2.92095 -12.36163,3.15495 -24.55359,0.63925 z m 9.4346,-24.59077 c 2.23677,-1.46559 2.99907,-3.6337 3.49428,-9.93842 0.55171,-7.02392 0.8962,-8.44446 2.04785,-8.44446 3.59089,0 3.19622,-7.25572 -0.62124,-11.42129 -2.23688,-2.44087 -2.72084,-2.6292 -7.44152,-2.89595 -6.36115,-0.35943 -9.02742,0.81685 -13.87559,6.12152 -5.58056,6.10603 -5.56374,9.03505 0.11345,19.75541 4.40375,8.31569 5.13409,8.91058 10.29006,8.38167 2.35677,-0.24176 5.05349,-0.94307 5.99271,-1.55848 z"
     id="path28"
     transform="scale(0.75)" />
  <path
     style="fill:#ffffff;stroke-width:0"
     d="m 506.45413,354.16089 c -12.16377,-4.20613 -21.04839,-14.71199 -23.82254,-28.1696 -0.59706,-2.89634 -1.65632,-6.25523 -2.35392,-7.4642 -3.28112,-5.68628 -3.79488,-6.94843 -3.79593,-9.32544 -7.3e-4,-1.65571 0.50517,-2.98223 1.44384,-3.78595 0.79473,-0.68047 1.44496,-1.69291 1.44496,-2.24987 0,-2.01024 6.36428,-8.14471 9.81838,-9.46384 4.26909,-1.63038 12.24253,-1.17751 16.93532,0.9619 1.77608,0.8097 4.17116,1.67116 5.32238,1.91436 2.10045,0.44372 16.99645,14.56456 19.46864,18.45552 1.35235,2.12844 4.80877,15.22451 4.80877,18.21999 0,1.11625 -0.69297,4.79251 -1.53994,8.16948 -1.36667,5.44907 -1.87136,6.42362 -4.48529,8.66105 -5.6368,4.82489 -15.88368,6.62197 -23.24467,4.0766 z m 10.98828,-15.4981 c 5.07421,-5.33978 7.51654,-15.01942 5.01177,-19.86311 -1.53559,-2.96951 -2.71001,-3.24569 -10.18823,-2.39596 -9.70642,1.10292 -13.26602,3.91878 -11.78973,9.3264 1.29497,4.74345 4.40063,10.25352 7.20956,12.79122 3.6935,3.33686 6.67901,3.38014 9.75663,0.14145 z"
     id="path30"
     transform="scale(0.75)" />
  <path
     style="fill:#ffffff;stroke-width:0"
     d="m 307.8023,482.17351 c -0.60754,-0.60755 -1.10463,-1.53832 -1.10463,-2.06839 0,-0.53006 -1.1379,-2.32574 -2.52868,-3.99039 -1.39077,-1.66465 -2.52868,-3.35208 -2.52868,-3.74985 0,-0.39777 -0.6483,-1.63367 -1.44066,-2.74644 -3.26896,-4.59083 -4.72881,-16.24573 -2.95649,-23.60356 1.0181,-4.22668 5.14931,-9.63659 7.35886,-9.63659 0.83575,0 1.76215,-0.80426 2.28854,-1.98682 0.48641,-1.09275 1.57962,-2.54969 2.42934,-3.23763 0.84972,-0.68795 2.05666,-2.52972 2.68208,-4.09282 0.62543,-1.5631 1.53534,-3.0881 2.02203,-3.38889 1.25215,-0.77387 6.95454,5.70425 9.07274,10.30697 3.39252,7.37172 4.2128,20.21382 1.60869,25.18519 -0.82457,1.57414 -1.92822,4.23572 -2.45256,5.91463 -0.52435,1.67891 -2.28808,5.16594 -3.9194,7.74896 -1.63132,2.58302 -2.96604,5.1699 -2.96604,5.74863 0,1.05647 -2.89479,3.41662 -5.21707,4.25352 -0.69488,0.25042 -1.73076,-0.0392 -2.34807,-0.65652 z"
     id="path32"
     transform="scale(0.75)" />
  <path
     style="fill:#ffffff;stroke-width:0"
     d="m 266.09818,431.5531 c -0.77596,-0.20453 -1.06227,-0.74493 -0.78184,-1.47572 0.36415,-0.94895 0.0589,-1.0763 -1.72476,-0.71957 -3.01339,0.60268 -5.82338,-1.289 -9.20221,-6.19491 -2.32671,-3.37829 -2.77371,-4.61058 -2.71597,-7.48739 0.043,-2.14297 0.58102,-4.13645 1.42447,-5.27814 0.74545,-1.00902 2.01234,-3.2976 2.81531,-5.08574 0.80298,-1.78814 3.61728,-5.82873 6.25401,-8.9791 2.63673,-3.15036 4.79405,-6.11977 4.79405,-6.59868 0,-0.95511 2.24788,-1.73649 5.03982,-1.75189 2.02578,-0.0112 20.09569,8.61673 23.67878,11.306 1.29144,0.96928 2.34807,2.18306 2.34807,2.6973 0,0.51423 0.68482,1.55432 1.52184,2.31129 1.93488,1.74987 4.258,6.27053 4.258,8.28584 0,2.06699 -8.57502,10.46179 -13.83608,13.54531 -8.15922,4.78213 -17.90832,6.99767 -23.87349,5.4254 z"
     id="path34"
     transform="scale(0.75)" />
  <path
     style="fill:#ffffff;stroke-width:0"
     d="m 284.61009,498.49863 c -2.81011,-0.2966 -6.06127,-1.02046 -7.22481,-1.60857 -1.16353,-0.58811 -3.51579,-1.24819 -5.22724,-1.46684 -5.9993,-0.76645 -17.47897,-9.13137 -17.47897,-12.73644 0,-4.12059 2.1756,-9.31477 5.40686,-12.90871 4.40803,-4.90279 6.67045,-5.77349 10.85215,-4.17649 3.80433,1.45289 9.90901,7.8268 13.00088,13.57425 1.12506,2.09136 2.79213,4.70663 3.7046,5.81172 0.91248,1.10509 1.99485,3.21835 2.40527,4.69613 0.86415,3.11151 1.00988,9.5967 0.21241,9.45233 -0.29802,-0.0539 -2.84104,-0.34077 -5.65115,-0.63738 z"
     id="path36"
     transform="scale(0.75)" />
  <path
     style="fill:#ffffff;stroke-width:0"
     d="m 230.92775,470.00472 c -2.53307,-1.37437 -5.1596,-3.00023 -5.83674,-3.61303 -0.67713,-0.61279 -1.86059,-1.11417 -2.62992,-1.11417 -0.76932,0 -2.57253,-0.6291 -4.00713,-1.398 -1.4346,-0.7689 -4.68095,-1.78799 -7.21411,-2.26465 -2.53316,-0.47666 -6.39388,-1.44195 -8.57938,-2.1451 -2.18551,-0.70316 -5.92435,-1.51574 -8.30853,-1.80576 -5.70006,-0.69335 -7.58605,-1.45676 -7.58605,-3.07065 0,-2.4193 7.40429,-8.09208 10.56928,-8.09764 0.84605,-0.001 3.33505,-0.82529 5.53111,-1.83068 5.15125,-2.35832 13.57165,-3.95186 20.88193,-3.95186 5.61347,0 5.86242,0.0739 8.23149,2.44295 l 2.44295,2.44295 -1.1121,3.74485 -1.11211,3.74485 2.46842,2.73224 c 3.27002,3.61953 4.98783,8.27476 4.70474,12.74974 -0.20296,3.20828 -0.40902,3.5887 -2.03207,3.75157 -0.99341,0.0997 -3.87871,-0.94324 -6.41178,-2.31761 z"
     id="path38"
     transform="scale(0.75)" />
  <path
     style="fill:#ffffff;stroke-width:0"
     d="m 167.27572,442.09326 c -1.5987,-2.0225 -2.90673,-3.9959 -2.90673,-4.38533 0,-0.38943 -0.95895,-2.10183 -2.131,-3.80535 -1.17205,-1.70352 -2.51833,-4.68814 -2.99174,-6.6325 -0.47341,-1.94436 -1.3026,-4.04847 -1.84265,-4.67581 -0.54004,-0.62733 -0.98189,-1.78244 -0.98189,-2.5669 0,-0.78445 -1.30047,-4.11548 -2.88993,-7.40228 -1.58945,-3.28679 -2.88992,-6.43113 -2.88992,-6.98741 0,-1.53571 3.38181,-2.97242 11.27233,-4.78889 5.65641,-1.30215 9.34037,-1.64955 17.6269,-1.66223 5.76178,-0.009 11.68558,0.24076 13.164,0.55459 10.91724,2.31748 14.51046,20.51613 5.61682,28.4476 -1.26333,1.12665 -5.57997,3.75146 -9.59255,5.83291 -4.01257,2.08145 -8.2904,4.70157 -9.50627,5.8225 -2.12522,1.95926 -7.9361,5.92638 -8.68072,5.92638 -0.19796,0 -1.66796,-1.65477 -3.26665,-3.67728 z"
     id="path40"
     transform="scale(0.75)" />
  <path
     style="fill:#ffffff;stroke-width:0"
     d="m 147.89643,388.55008 c -0.47683,-0.47684 -0.86697,-2.35479 -0.86697,-4.17322 0,-4.92306 -1.4064,-15.2122 -2.31014,-16.90085 -0.43493,-0.81268 -2.45248,-2.9963 -4.48343,-4.85247 -3.59188,-3.28278 -8.00036,-10.35635 -7.23062,-11.60181 0.54111,-0.87553 15.73084,-0.76866 22.38984,0.15752 6.05276,0.84186 11.58843,2.7498 14.97523,5.16142 l 2.14577,1.52792 -0.41031,8.73005 c -0.65045,13.83952 -3.29519,19.92849 -8.65593,19.92849 -1.33637,0 -4.84615,0.64258 -7.79951,1.42796 -6.36929,1.69376 -6.63478,1.71413 -7.75393,0.59499 z"
     id="path42"
     transform="scale(0.75)" />
  <path
     style="fill:#ffffff;stroke-width:0"
     d="m 223.83307,390.59136 c -7.75384,-3.70485 -13.9478,-11.76506 -13.9478,-18.15029 0,-2.4226 0.56184,-3.64655 3.07054,-6.68916 3.61255,-4.38136 7.68182,-6.62854 12.9725,-7.16381 3.44549,-0.34859 3.99903,-0.20031 5.5767,1.49384 0.96333,1.03447 2.2638,1.88799 2.88992,1.89672 2.48439,0.0346 7.2102,2.90709 13.05933,7.93778 7.23928,6.22632 7.64882,6.79688 6.57319,9.15765 -0.44644,0.97981 -0.66576,2.01761 -0.4874,2.30621 0.52297,0.84618 -8.20698,6.39898 -13.31059,8.46638 -6.81909,2.76232 -11.7089,2.9844 -16.39639,0.74468 z"
     id="path44"
     transform="scale(0.75)" />
  <path
     style="fill:#ffffff;stroke-width:0"
     d="m 187.12713,345.59665 c -0.79473,-0.21557 -4.44128,-1.70227 -8.10345,-3.30377 -6.41424,-2.80502 -6.70576,-3.03432 -7.94728,-6.25119 -1.89298,-4.90482 -1.88256,-23.44927 0.0148,-26.34464 1.69196,-2.58193 5.2045,-4.71048 8.72631,-5.28802 1.87662,-0.30774 2.92084,-0.90264 3.1548,-1.79731 0.23597,-0.90235 1.01196,-1.3373 2.38586,-1.3373 1.11988,0 2.91693,-0.33488 3.99345,-0.74417 3.27922,-1.24675 6.41039,0.24463 7.51021,3.57714 0.50696,1.53608 0.70474,3.14398 0.43953,3.5731 -0.26522,0.42913 0.18185,1.34883 0.99349,2.04377 0.81164,0.69494 1.4757,1.55578 1.4757,1.91297 0,0.35719 1.61817,3.45482 3.59593,6.88362 1.97776,3.4288 3.81621,7.3721 4.08544,8.76287 0.26923,1.39078 1.23231,3.4243 2.14016,4.51894 0.90786,1.09464 1.87774,3.50459 2.1553,5.35543 0.57389,3.82704 0.13506,4.38373 -5.4745,6.94476 -2.44404,1.11582 -5.04478,1.53415 -10.47597,1.68503 -3.97364,0.11039 -7.87504,0.0243 -8.66977,-0.19123 z"
     id="path46"
     transform="scale(0.75)" />
  <path
     style="fill:#ffffff;stroke-width:0"
     d="m 173.4,282.05183 c -10.48312,-1.86978 -11.55969,-3.62225 -11.55969,-18.81716 v -10.94673 l 2.25586,-3.14165 c 6.82023,-9.49823 14.71818,-9.67228 21.9808,-0.48437 3.49585,4.42258 4.16015,6.71334 5.0958,17.57219 0.81987,9.51507 0.46957,13.73741 -1.30209,15.69508 -1.44354,1.59509 -7.94389,1.6435 -16.47068,0.12264 z"
     id="path48"
     transform="scale(0.75)" />
  <path
     style="fill:#ffffff;stroke-width:0"
     d="m 129.26458,333.17785 c -2.91837,-6.93767 -4.11417,-11.74317 -4.45474,-17.90213 -0.45459,-8.22072 0.12993,-8.99326 8.15554,-10.77879 9.3285,-2.07539 16.53152,-0.5061 18.40179,4.00912 0.56584,1.36606 0.95855,5.69607 1.00486,11.07963 0.10593,12.3127 -0.72866,13.44233 -10.99214,14.87802 -11.4639,1.60361 -10.87348,1.66628 -12.11531,-1.28585 z"
     id="path50"
     transform="scale(0.75)" />
  <path
     style="fill:#ffffff;stroke-width:0"
     d="m 127.89515,286.19235 c -1.8246,-0.39056 -2.23852,-0.90495 -2.69267,-3.3463 -0.85773,-4.61082 0.0945,-14.79285 1.67619,-17.92389 0.766,-1.5163 1.22205,-3.03307 1.01344,-3.37061 -0.20861,-0.33753 0.42653,-1.57136 1.41142,-2.74184 2.08212,-2.47446 3.27631,-5.31056 3.27631,-7.78096 0,-3.85514 7.93774,-2.27174 9.95732,1.98626 1.22896,2.59108 2.5246,20.54442 1.95105,27.03505 -0.4028,4.55823 -0.65894,5.23921 -2.24191,5.96046 -1.87924,0.85624 -10.67954,0.96774 -14.35115,0.18183 z"
     id="path52"
     transform="scale(0.75)" />
</svg>
