<?xml version="1.0" encoding="UTF-8" standalone="no"?>
<svg
   xmlns:dc="http://purl.org/dc/elements/1.1/"
   xmlns:cc="http://creativecommons.org/ns#"
   xmlns:rdf="http://www.w3.org/1999/02/22-rdf-syntax-ns#"
   xmlns:svg="http://www.w3.org/2000/svg"
   xmlns="http://www.w3.org/2000/svg"
   xmlns:sodipodi="http://sodipodi.sourceforge.net/DTD/sodipodi-0.dtd"
   xmlns:inkscape="http://www.inkscape.org/namespaces/inkscape"
   width="828"
   height="913.333"
   viewBox="0 0 621 685"
   preserveAspectRatio="xMidYMid meet"
   version="1.1"
   id="svg10"
   sodipodi:docname="face5.svg"
   inkscape:version="1.0.1 (3bc2e813f5, 2020-09-07)">
  <metadata
     id="metadata16">
    <rdf:RDF>
      <cc:Work
         rdf:about="">
        <dc:format>image/svg+xml</dc:format>
        <dc:type
           rdf:resource="http://purl.org/dc/dcmitype/StillImage" />
      </cc:Work>
    </rdf:RDF>
  </metadata>
  <defs
     id="defs14" />
  <sodipodi:namedview
     pagecolor="#ffffff"
     bordercolor="#666666"
     borderopacity="1"
     objecttolerance="10"
     gridtolerance="10"
     guidetolerance="10"
     inkscape:pageopacity="0"
     inkscape:pageshadow="2"
     inkscape:window-width="1920"
     inkscape:window-height="1027"
     id="namedview12"
     showgrid="false"
     inkscape:zoom="0.66581611"
     inkscape:cx="445.14487"
     inkscape:cy="327.75642"
     inkscape:window-x="1912"
     inkscape:window-y="-8"
     inkscape:window-maximized="1"
     inkscape:current-layer="svg10" />
  <path
     d="m 433.0575,110.22806 c -4.00451,0.3269 -10.62421,0.6538 -14.71044,0.6538 -9.72524,0.0817 -23.70016,1.30759 -25.08947,2.12484 -0.57208,0.40862 -1.47105,0.73552 -1.9614,0.81725 -0.49034,0.0817 -2.20656,0.65379 -3.67761,1.38932 -1.55277,0.65379 -4.82175,1.63449 -7.27349,2.12484 -5.31211,1.14414 -15.77286,4.3314 -16.34494,4.9852 -0.24517,0.24518 -1.87966,1.38932 -3.67761,2.61519 -1.79794,1.22587 -3.75933,3.02381 -4.3314,3.92278 -0.57208,0.9807 -2.37002,2.2883 -4.00451,2.94209 -1.55277,0.6538 -3.02382,1.9614 -3.26899,2.86037 -0.24517,0.81724 -0.81725,1.55277 -1.22587,1.55277 -0.49035,0 -2.53346,1.71621 -4.65831,3.92278 -3.10553,3.18726 -5.88417,5.639 -10.54248,9.15316 -0.81724,0.57207 -2.61519,3.43244 -3.10554,5.06693 -0.32689,0.81725 -1.14414,1.6345 -1.96139,1.87967 -0.81724,0.24517 -1.71622,1.63449 -1.96139,3.18726 -0.3269,1.47105 -1.47104,3.75934 -2.53346,5.06693 -1.14415,1.3076 -2.04312,3.02381 -2.04312,3.84106 0,0.89897 -0.73552,2.45174 -1.63449,3.59589 -0.89898,1.14414 -1.6345,2.77863 -1.6345,3.59588 0,0.89897 -0.3269,1.55277 -0.81724,1.55277 -0.40863,0 -0.81725,0.89897 -0.81725,2.04312 0,1.14414 -0.3269,2.04311 -0.81725,2.04311 -0.40862,0 -0.81724,1.14415 -0.81724,2.53347 0,2.77864 -1.22587,5.55728 -3.10554,6.9466 -0.81725,0.57207 -1.06242,1.55276 -0.73552,2.86036 0.32689,1.14414 -0.3269,4.24968 -1.47105,7.60039 -1.06242,3.10554 -1.79794,5.9659 -1.55277,6.37453 0.24518,0.40862 0.0817,1.14414 -0.3269,1.71622 -0.49034,0.57207 -1.55276,3.59588 -2.45174,6.78314 -0.89897,3.18726 -2.20656,6.9466 -2.94208,8.33592 -0.73553,1.47104 -1.14415,2.61519 -0.89898,2.61519 0.3269,0 -0.16344,1.06242 -0.98069,2.45174 -0.73552,1.30759 -1.71622,2.45174 -2.04312,2.45174 -0.3269,0 -0.6538,0.57207 -0.6538,1.22587 0,0.6538 -0.32689,1.87967 -0.73552,2.69691 -0.40862,0.73552 -1.22587,2.94209 -1.79794,4.90348 -0.57207,1.87967 -1.14415,3.26899 -1.38932,3.02382 -0.24517,-0.16345 -1.63449,2.04311 -3.10554,4.9852 -1.47104,3.02381 -3.35071,5.88418 -4.16796,6.45625 -0.81724,0.57207 -1.22587,1.30759 -0.89897,1.63449 0.24518,0.3269 -0.24517,1.55277 -1.22587,2.69692 -4.41313,5.39382 -20.34944,20.02254 -22.39256,20.43116 -0.65379,0.16345 -2.94208,2.04312 -5.06693,4.08624 -8.90798,8.82626 -16.42665,15.69113 -17.16218,15.69113 -0.49034,0 -0.89897,0.49035 -0.89897,1.14415 0,0.6538 -1.47104,2.69691 -3.26898,4.49486 -1.79795,1.79794 -3.26899,3.67761 -3.26899,4.16795 0,0.40863 -0.57207,0.81725 -1.22587,0.81725 -0.6538,0 -2.04312,1.38932 -3.18726,3.02381 -1.06242,1.71622 -3.92279,5.31211 -6.37453,8.09075 -2.45174,2.69691 -5.3121,6.21107 -6.37452,7.68212 -4.16796,5.80245 -19.8591,22.06566 -21.33014,22.06566 -0.40862,0 -0.73552,0.57207 -0.73552,1.22587 0,0.65379 -0.3269,1.22587 -0.81725,1.22587 -0.40862,0 -1.63449,1.55276 -2.77864,3.43243 -1.14414,1.96139 -4.08623,5.47555 -6.53797,7.9273 -2.53347,2.37001 -4.74003,5.06692 -4.98521,5.88417 -0.32689,0.89897 -0.81724,1.38932 -1.22587,1.14415 -1.14414,-0.73553 -16.34493,14.79216 -16.34493,16.67183 0,0.9807 -0.3269,1.71622 -0.81725,1.71622 -0.40862,0 -0.81724,0.49035 -0.81724,1.06242 0,0.6538 -1.06242,2.69691 -2.45174,4.49485 -1.3076,1.87967 -2.45174,3.92279 -2.45174,4.57659 0,0.65379 -0.3269,1.47104 -0.81725,1.71621 -0.40862,0.24518 -0.81725,1.55277 -0.81725,2.77864 0,1.22587 -0.73552,2.94209 -1.63449,3.75934 -0.9807,0.89897 -1.63449,2.53346 -1.63449,4.24968 0,1.47104 -0.3269,2.69691 -0.81725,2.69691 -0.49035,0 -0.81725,2.12485 -0.81725,4.74004 0,2.61519 -0.40862,5.14865 -0.89897,5.639 -0.40862,0.40862 -0.98069,3.59588 -1.22587,6.86487 -0.49035,8.09074 -2.77864,24.76257 -3.43243,25.00775 -0.57208,0.24517 -0.49035,14.22009 0.0817,24.10878 0.24517,3.92278 0.81725,6.04762 2.12484,7.68212 0.89897,1.14414 1.71622,2.61518 1.71622,3.10553 0,1.06242 3.18726,7.19177 4.00451,7.84557 0.3269,0.24518 1.47104,1.87967 2.53346,3.67761 1.06242,1.79794 2.37002,3.67761 2.86037,4.16796 0.49034,0.49035 2.12484,3.02381 3.67761,5.72073 3.43243,5.72072 20.75806,23.37325 26.96914,27.45949 2.45174,1.55276 7.11004,4.16795 10.21558,5.72072 l 11.44145,5.72073 c 6.04763,3.10554 23.04636,7.76384 30.56503,8.49936 2.45174,0.24518 4.82176,0.6538 5.14866,0.81725 1.14414,0.73552 10.70593,0.49035 11.19628,-0.24517 0.24517,-0.3269 7.11004,-0.73552 15.20078,-0.73552 l 17.16218,-0.3269 c 4.65831,-0.3269 13.07595,-1.87967 14.71044,-2.69692 0.89898,-0.49035 2.94209,-1.14414 4.49486,-1.38932 1.55277,-0.24517 2.77864,-0.98069 2.69692,-1.47104 -0.16345,-0.57207 0.65379,-0.9807 1.71621,-0.9807 1.14415,0 2.20657,-0.3269 2.45174,-0.73552 0.3269,-0.40862 1.38932,-0.6538 2.53347,-0.49035 1.14414,0.0817 2.69691,-0.3269 3.43243,-0.89897 0.81725,-0.57207 2.69692,-1.14414 4.16796,-1.14414 1.38932,0 2.61519,-0.40863 2.61519,-0.81725 0,-0.49035 1.22587,-0.81725 2.69692,-0.81725 1.87966,0 3.26898,-0.65379 4.49485,-2.04311 0.9807,-1.14415 2.12484,-2.04312 2.61519,-2.04312 0.40863,0 0.81725,-0.49035 0.81725,-1.14415 0,-0.65379 0.81725,-1.79794 1.71622,-2.45174 0.98069,-0.65379 3.84106,-3.51416 6.37452,-6.45625 2.53347,-2.86036 5.06693,-5.06692 5.639,-4.82175 0.49035,0.16345 1.71622,-1.06242 2.69692,-2.61519 0.89897,-1.63449 2.04311,-2.94209 2.45174,-2.94209 0.40862,0 1.79794,-1.47104 3.10554,-3.26898 1.22587,-1.71622 2.53346,-3.02382 2.69691,-2.77864 0.24517,0.24517 1.79794,-1.6345 3.43244,-4.08624 1.63449,-2.45174 3.43243,-4.9852 4.0045,-5.55727 1.3076,-1.47105 3.02382,-4.49486 3.02382,-5.47556 0,-0.40862 0.65379,-2.12484 1.38932,-3.84106 1.63449,-3.84106 1.55277,-3.59588 2.28829,-5.80245 0.3269,-1.06242 0.98069,-1.87967 1.38932,-1.87967 0.40862,0 0.65379,-0.65379 0.49034,-1.38932 -0.16344,-0.81724 1.06243,-2.77863 2.61519,-4.49485 2.45174,-2.69692 5.55728,-8.00902 8.2542,-14.13837 0.40862,-0.89897 0.81724,-3.35071 0.89897,-5.47555 0.16345,-2.20657 0.49035,-3.92279 0.73552,-3.92279 0.49035,0 1.79794,-6.21107 1.96139,-8.90799 0,-0.65379 0.49035,-1.30759 1.06242,-1.55276 0.57207,-0.16345 0.9807,-1.6345 0.9807,-3.51417 0,-1.71621 0.3269,-3.18726 0.73552,-3.18726 0.40862,0 0.9807,-0.89897 1.22587,-2.04311 0.3269,-1.14415 0.89897,-2.04312 1.30759,-2.04312 0.49035,0 0.81725,-0.73552 0.81725,-1.55277 0,-0.89897 0.3269,-1.87967 0.81725,-2.12484 0.49035,-0.24518 0.81724,-1.38932 0.81724,-2.37002 0,-1.06242 0.57208,-2.37001 1.22587,-2.94208 0.6538,-0.49035 1.14415,-1.22587 1.06243,-1.47105 -0.3269,-2.77864 0.32689,-5.06693 1.47104,-5.06693 0.81725,0 1.14414,-0.49035 0.89897,-1.22587 -0.3269,-0.6538 -0.16345,-1.38932 0.24517,-1.63449 0.40863,-0.24518 0.57208,-0.89897 0.3269,-1.47105 -0.16345,-0.57207 0.3269,-1.79794 1.22587,-2.77863 0.89898,-0.9807 1.47105,-2.37002 1.22587,-3.26899 -0.24517,-0.89897 0.24518,-2.12484 1.22587,-3.02381 0.9807,-0.89898 1.71622,-2.37002 1.71622,-3.35072 0,-0.98069 0.73552,-2.53346 1.71622,-3.51416 0.89897,-0.98069 1.47104,-2.12484 1.22587,-2.45174 -0.24517,-0.40862 1.06242,-2.86036 2.86036,-5.55727 1.71622,-2.61519 3.18727,-5.39383 3.18727,-6.12935 0,-0.73553 0.57207,-1.6345 1.30759,-1.87967 0.6538,-0.24518 0.9807,-0.89897 0.73552,-1.3076 -0.3269,-0.49034 0.49035,-2.12484 1.79794,-3.59588 4.57659,-5.47555 5.31211,-6.45625 6.12936,-8.74454 0.40862,-1.3076 1.30759,-2.37002 1.96139,-2.37002 0.57207,0 1.30759,-1.22587 1.63449,-2.86036 0.24517,-1.63449 0.9807,-2.86036 1.63449,-2.86036 1.06242,0 4.08624,-4.74003 3.75934,-5.9659 -0.0817,-0.3269 0.16345,-0.57208 0.6538,-0.57208 0.40862,0 0.81724,-0.49035 0.81724,-1.06242 0,-0.6538 0.89897,-2.20656 2.04312,-3.51416 1.14414,-1.30759 2.04312,-2.86036 2.04312,-3.43243 0,-0.57208 0.57207,-1.22587 1.22587,-1.47105 0.65379,-0.3269 1.22587,-0.89897 1.22587,-1.47104 0,-0.49035 1.63449,-2.77864 3.67761,-5.14866 2.04311,-2.28829 3.67761,-4.57658 3.67761,-5.14865 0,-0.49035 0.89897,-1.87967 2.04311,-3.10554 1.14415,-1.22587 2.04312,-2.61519 2.04312,-3.10554 0,-0.49034 0.73552,-1.55276 1.63449,-2.37001 0.89897,-0.81725 1.6345,-1.87967 1.6345,-2.37002 0,-0.49034 1.30759,-2.37001 2.86036,-4.16795 1.63449,-1.79795 3.10554,-3.92279 3.35071,-4.74004 0.24518,-0.81724 1.3076,-2.37001 2.45174,-3.59588 1.06242,-1.14415 1.96139,-2.45174 1.96139,-2.94209 0,-0.40862 1.22587,-2.12484 2.69692,-3.84106 1.38932,-1.63449 3.26898,-4.08623 4.00451,-5.39383 1.96139,-3.18726 3.43243,-5.55727 3.92278,-6.04762 0.89897,-0.89897 3.26899,-5.88418 3.26899,-6.9466 0,-0.57207 0.3269,-1.22587 0.6538,-1.38932 0.89897,-0.3269 7.51866,-12.83077 7.51866,-14.13837 0,-0.65379 0.3269,-1.22587 0.73553,-1.38932 0.49034,-0.16345 0.89897,-1.14414 1.14414,-2.28829 0.16345,-1.14414 1.47105,-4.49485 2.86037,-7.43694 1.47104,-2.94209 2.61518,-5.9659 2.61518,-6.6197 0,-0.6538 0.81725,-2.86036 1.87967,-4.90348 1.06242,-2.04312 2.37002,-5.23038 3.02382,-7.11005 0.57207,-1.79794 1.38931,-3.35071 1.79794,-3.35071 0.3269,0 0.6538,-0.6538 0.6538,-1.38932 0,-1.47104 1.30759,-5.80245 2.69691,-9.23488 0.49035,-1.14415 0.9807,-2.61519 1.06242,-3.26899 0.16345,-0.6538 0.49035,-2.53347 0.81725,-4.08624 0.65379,-3.18726 0.89897,-4.49485 1.63449,-9.80696 0.3269,-2.04311 0.81725,-3.84105 1.22587,-4.08623 0.3269,-0.24517 0.73552,-2.28829 0.81725,-4.49486 0.16345,-5.06693 1.38932,-10.21558 2.37001,-10.21558 1.38932,0 0.89897,-22.71946 -0.6538,-27.94984 -0.73552,-2.61519 -1.63449,-4.74003 -1.96139,-4.74003 -0.40862,0 -0.65379,-0.89897 -0.65379,-1.96139 0,-1.06242 -0.3269,-2.12484 -0.6538,-2.28829 -0.40863,-0.16345 -1.96139,-2.77864 -3.43244,-5.88418 -2.12484,-4.57658 -4.57658,-7.60039 -12.99422,-16.01803 -8.66282,-8.82627 -18.8784,-17.16218 -20.92152,-17.16218 -0.32689,0 -3.67761,-1.47105 -7.43694,-3.26899 -3.75934,-1.79794 -7.84557,-3.43243 -9.07144,-3.75933 -1.22587,-0.3269 -2.61519,-0.81725 -3.10554,-1.14415 -2.61519,-1.87967 -14.30181,-3.02381 -23.70015,-2.28829 z m 19.61392,9.97041 6.9466,2.28829 c 5.23038,1.63449 18.30632,8.17247 21.65703,10.78766 1.79795,1.38932 7.11005,6.53797 11.68663,11.44145 7.35522,7.84557 8.98972,10.05214 12.5856,17.5708 2.77864,5.88418 4.24968,10.05214 4.49486,13.15768 l 0.49035,4.49485 -2.61519,-2.37001 c -1.38932,-1.38932 -2.53347,-2.69692 -2.53347,-3.02381 0,-0.9807 -4.00451,-6.70143 -5.14865,-7.43695 -0.57208,-0.40862 -2.37002,-1.06242 -4.08624,-1.47104 -2.53346,-0.73553 -3.43243,-1.55277 -4.90348,-4.74003 -1.55276,-3.35072 -2.20656,-3.84106 -4.90348,-4.33141 -3.35071,-0.57207 -4.3314,-1.22587 -5.80245,-4.08624 -1.47104,-3.02381 -4.74003,-3.59588 -8.17246,-1.38931 -1.6345,1.06242 -2.94209,2.37001 -2.94209,2.86036 0,1.22587 -3.75934,1.38932 -4.49486,0.24517 -0.3269,-0.49035 -0.0817,-2.20656 0.40862,-3.75933 0.81725,-2.37002 0.81725,-3.18726 -0.0817,-4.08624 -1.71622,-1.63449 -6.12935,-2.12484 -7.2735,-0.81724 -0.49034,0.65379 -1.47104,0.98069 -2.12484,0.73552 -0.6538,-0.24517 -1.14414,0.0817 -1.14414,0.6538 0,0.65379 -0.89897,0.0817 -2.12484,-1.14415 l -2.12485,-2.28829 1.71622,-1.87967 c 1.79794,-1.87966 2.12484,-3.43243 1.22587,-5.72072 -0.73552,-1.87967 -4.08623,-1.6345 -5.9659,0.40862 l -1.55277,1.71622 -1.71622,-1.71622 c -0.98069,-0.9807 -1.71621,-2.37002 -1.71621,-3.18726 0,-2.12484 -4.24969,-4.41313 -6.6197,-3.59589 -1.87967,0.73552 -2.94209,4.65831 -1.47105,5.55728 0.40863,0.24517 0.57208,1.14415 0.3269,1.96139 -0.3269,1.06242 0.40863,2.53347 2.45174,4.65831 3.02382,3.18726 3.67761,4.82175 1.6345,4.00451 -1.9614,-0.73553 -5.31211,0.89897 -5.31211,2.61519 0,2.86036 2.77864,4.41313 7.51867,4.16795 4.98521,-0.24517 7.51867,0.57208 6.86487,2.20657 -0.57207,1.47104 1.06243,5.23038 2.2883,5.3121 0.49034,0.0817 1.55276,0 2.37001,-0.0817 1.38932,-0.0817 8.49937,1.96139 11.19628,3.26899 0.6538,0.32689 1.22587,1.63449 1.22587,2.86036 0,1.87967 0.49035,2.45174 2.37002,2.94209 2.69691,0.73552 3.75933,0.3269 3.75933,-1.38932 0,-0.6538 0.3269,-1.14415 0.73552,-1.14415 0.40863,0 1.06242,-0.73552 1.3076,-1.63449 1.14414,-3.51416 6.70142,-0.73552 5.80245,2.86036 -0.3269,1.14415 -0.89897,1.87967 -1.3076,1.6345 -0.49034,-0.3269 -0.81724,0.65379 -0.81724,2.12484 0,2.86036 1.79794,4.74003 4.74003,4.82175 2.20656,0 5.39383,-2.94208 4.74003,-4.57658 -0.57207,-1.55277 0.24517,-1.47104 3.35071,0.40863 1.96139,1.22587 2.45174,2.04311 2.12484,3.35071 -0.24517,0.89897 -0.73552,1.87966 -1.14414,2.12484 -0.40863,0.24517 -0.16345,1.47104 0.57207,2.69691 1.38932,2.37002 3.43244,2.61519 5.88418,0.6538 1.30759,-1.06242 3.35071,0.6538 4.74003,4.00451 0.57207,1.38932 2.86036,4.33141 4.9852,6.53797 3.10554,3.26899 3.84106,4.49486 3.59589,6.45625 -0.0817,1.3076 -0.57208,2.77864 -0.9807,3.18726 -0.40862,0.49035 -0.73552,1.71622 -0.73552,2.86037 0,3.18726 -1.3076,9.72523 -5.88418,29.91123 -0.57207,2.20656 -1.63449,5.06692 -2.53346,6.29279 -0.81725,1.3076 -1.22587,2.61519 -0.9807,3.10554 0.24518,0.40863 -0.0817,0.81725 -0.81725,0.81725 -0.89897,0 -1.22587,0.49035 -0.81724,1.47104 0.24517,0.89897 -0.24518,2.45174 -1.3076,3.75934 -0.98069,1.30759 -1.79794,3.51416 -1.87966,5.39383 0,1.79794 -0.57208,3.43243 -1.06242,3.67761 -0.57208,0.16345 -1.06243,1.14414 -1.06243,2.04311 0,0.89897 -0.32689,1.6345 -0.81724,1.6345 -0.40863,0 -0.9807,0.98069 -1.3076,2.20656 -0.24517,1.3076 -1.14414,3.84106 -2.04311,5.72073 -0.81725,1.96139 -1.55277,3.84106 -1.55277,4.24968 0,0.40863 -0.57207,1.14415 -1.22587,1.71622 -0.6538,0.57207 -1.22587,1.79794 -1.22587,2.77864 0,0.89897 -0.73552,2.61519 -1.6345,3.75933 -0.89897,1.14415 -1.63449,2.53347 -1.63449,3.10554 0,0.57207 -1.06242,2.69692 -2.45174,4.65831 -1.30759,1.96139 -2.45174,3.84106 -2.45174,4.08623 0,0.3269 -1.63449,2.94209 -3.67761,5.88418 -2.04312,2.86036 -3.67761,5.47555 -3.67761,5.80245 0,0.40862 -0.57207,1.38932 -1.22587,2.20656 l -4.49486,6.12935 -4.08623,5.47556 c -0.40862,0.57207 -0.81725,1.30759 -0.81725,1.63449 -0.0817,0.3269 -1.14414,1.96139 -2.45174,3.51416 -1.38932,1.55277 -2.45174,3.26899 -2.45174,3.84106 0,0.57207 -0.3269,1.06242 -0.73552,1.06242 -0.40862,0 -0.89897,0.6538 -1.22587,1.38932 -0.24517,0.81725 -1.96139,3.51416 -3.84106,5.9659 -1.79794,2.45174 -4.74003,6.70142 -6.45625,9.39834 -1.79794,2.69691 -3.92278,5.72073 -4.90348,6.70142 -0.89897,0.9807 -1.63449,2.12484 -1.63449,2.53347 0,0.40862 -1.3076,2.45174 -2.86036,4.49485 -1.55277,2.04312 -2.86037,4.33141 -2.86037,4.98521 0,0.73552 -0.24517,1.30759 -0.65379,1.30759 -0.3269,0 -1.3076,1.3076 -2.12485,2.77864 -0.81724,1.55277 -2.37001,3.67761 -3.43243,4.65831 -1.06242,0.98069 -1.96139,2.37001 -1.96139,2.94209 0,0.65379 -0.73553,1.96139 -1.6345,2.94208 -0.98069,0.9807 -2.69691,3.43244 -3.84106,5.47556 -1.14414,2.04311 -2.45174,3.84106 -2.77864,4.08623 -0.32689,0.24517 -0.89897,1.47104 -1.14414,2.69691 -0.3269,1.22587 -0.89897,2.20657 -1.3076,2.20657 -0.40862,0 -0.73552,0.49035 -0.73552,1.14415 0,0.65379 -0.49035,1.30759 -0.98069,1.47104 -0.57208,0.24517 -1.06242,1.22587 -1.06242,2.28829 0,1.22587 -0.73553,2.37002 -1.79795,2.94209 -1.06242,0.49035 -1.63449,1.06242 -1.38932,1.30759 0.3269,0.40863 -2.12484,5.39383 -3.75933,7.6004 -0.3269,0.40862 -0.81725,1.79794 -1.14415,3.10554 -0.24517,1.22587 -0.89897,2.20656 -1.30759,2.20656 -0.49035,0 -0.81725,0.89897 -0.81725,1.96139 0,1.14415 -0.3269,2.28829 -0.81725,2.53347 -0.40862,0.24517 -0.81724,1.38932 -0.81724,2.37001 0,1.06242 -0.57207,2.37002 -1.22587,2.94209 -0.6538,0.57207 -1.22587,1.87967 -1.22587,2.86037 0,2.04311 -4.82176,11.85007 -6.86487,13.89319 -0.73553,0.73552 -1.3076,2.53346 -1.3076,3.92278 0,1.47105 -0.73552,3.67761 -1.63449,5.06693 -0.89897,1.3076 -1.6345,3.51416 -1.6345,4.74003 0,2.04312 -0.16345,2.20657 -1.63449,1.38932 -0.89897,-0.49035 -1.63449,-1.38932 -1.63449,-2.12484 0,-0.6538 -0.57208,-2.12484 -1.3076,-3.18726 -1.22587,-1.87967 -1.14414,-2.12484 0.6538,-3.84106 1.63449,-1.55277 1.87967,-2.37002 1.47104,-4.9852 -0.81724,-4.33141 -1.79794,-5.14866 -4.41313,-3.43244 -1.14414,0.81725 -2.12484,1.30759 -2.20656,1.14414 -0.0817,-0.16344 -0.24518,-1.79794 -0.40863,-3.59588 -0.0817,-1.79794 -0.40862,-4.57658 -0.65379,-6.12935 -0.49035,-3.75934 0.0817,-4.57658 3.84105,-5.23038 1.71622,-0.3269 3.02382,-1.06242 3.02382,-1.71622 0,-0.57207 0.40862,-1.22587 0.98069,-1.38932 1.22587,-0.40862 1.06242,-5.3121 -0.24517,-6.86487 -0.57207,-0.73552 -1.71622,-1.06242 -2.53347,-0.89897 -1.63449,0.49035 -2.94208,-0.89897 -1.71621,-1.79794 0.40862,-0.24518 1.06242,-1.71622 1.38932,-3.26899 0.57207,-3.26899 2.61519,-5.80245 4.57658,-5.80245 3.02381,0 4.24968,-3.92279 2.12484,-6.78315 -1.14415,-1.47104 -0.89897,-4.65831 0.3269,-4.65831 0.40862,0 1.71622,-2.12484 2.86036,-4.74003 5.72073,-12.2587 6.2928,-13.07594 8.25419,-13.56629 1.47105,-0.40863 1.96139,-1.06242 1.96139,-2.77864 0,-1.22587 -0.40862,-2.69691 -0.89897,-3.18726 -0.89897,-0.89897 1.06242,-13.07595 2.69692,-16.09976 1.14414,-2.12484 -4.41313,-7.84557 -7.68212,-7.84557 -1.22587,0 -2.28829,0.3269 -2.28829,0.6538 0,0.3269 -1.06242,1.30759 -2.45174,2.04311 -1.71622,1.06242 -2.45174,2.12484 -2.45174,3.59589 0,1.38932 -0.57208,2.20656 -1.6345,2.45174 -1.96139,0.49035 -3.02381,3.92278 -1.63449,5.47555 0.49035,0.6538 2.04312,1.47105 3.35071,1.71622 2.53347,0.57207 3.84106,1.96139 2.61519,2.77864 -0.49035,0.24517 -0.81725,1.06242 -0.89897,1.71622 0,0.65379 -0.24517,1.96139 -0.49035,2.86036 -0.16345,0.89897 -0.40862,1.87967 -0.40862,2.12484 -0.0817,0.3269 -1.71622,0.81725 -3.75934,1.14415 -2.69691,0.3269 -4.08623,1.06242 -5.06693,2.61519 -1.38931,2.04311 -1.38931,2.12484 1.6345,4.6583 1.63449,1.38932 3.02381,2.94209 3.02381,3.43244 0,0.49035 -1.63449,3.02381 -3.67761,5.55728 -2.04312,2.61519 -3.75933,5.14865 -3.84106,5.72072 0,0.49035 -0.16345,1.22587 -0.16345,1.71622 -0.3269,2.20657 -1.47104,2.69691 -6.04762,2.28829 -4.16796,-0.3269 -4.74003,-0.16345 -5.72073,1.38932 -1.47104,2.45174 -0.6538,4.24968 3.10554,6.6197 2.53346,1.55277 3.18726,2.28829 2.77864,3.59588 l -1.38932,5.31211 c -0.9807,4.00451 -3.18727,7.02832 -4.57659,6.21107 -0.98069,-0.65379 -2.53346,1.9614 -2.53346,4.16796 0,0.89897 1.06242,2.37002 2.45174,3.35071 2.20657,1.6345 2.37002,2.12484 2.20657,6.70143 l -0.0817,4.82175 -2.61519,-0.40862 c -2.12484,-0.3269 -2.94209,0 -3.92278,1.47104 -2.53347,3.59589 -1.14415,5.88418 6.04762,9.88869 2.94209,1.63449 4.33141,3.18726 6.70143,7.60039 1.63449,3.10554 3.43243,6.21108 4.08623,6.86487 0.57207,0.6538 0.9807,1.6345 0.81725,2.20657 -0.16345,0.57207 0.3269,1.87967 1.06242,2.86036 1.55277,2.37002 1.55277,4.24969 -0.0817,5.9659 -0.73552,0.6538 -1.14414,1.79795 -0.89897,2.45174 0.24518,0.57208 -0.0817,1.55277 -0.81725,2.12485 -0.65379,0.57207 -1.55276,1.79794 -1.96139,2.77863 -0.40862,0.89898 -1.06242,2.20657 -1.47104,2.86037 -1.14415,1.79794 -1.96139,4.3314 -1.79794,5.39383 0.0817,0.57207 -0.40863,1.14414 -1.06243,1.38931 -0.57207,0.24518 -1.30759,1.47105 -1.63449,2.77864 -0.73552,2.94209 -4.00451,9.23489 -4.74003,9.23489 -0.40862,0 -0.6538,0.57207 -0.6538,1.22587 0,0.6538 -0.24517,1.22587 -0.65379,1.22587 -0.3269,0 -1.87967,1.87967 -3.35072,4.24968 -1.55276,2.28829 -6.70142,8.2542 -11.52317,13.2394 l -11.60491,12.09525 c -3.59588,3.92279 -9.72523,7.19177 -13.32112,7.19177 -1.55277,0 -3.02381,0.3269 -3.26898,0.81725 -0.24518,0.40862 -1.47105,0.81725 -2.69692,0.81725 -1.22587,0 -4.41313,0.81724 -7.11005,1.71621 -10.21558,3.51416 -17.97942,4.90348 -30.64675,5.47556 -18.14287,0.81724 -36.7761,0.40862 -38.08369,-0.81725 -0.3269,-0.40862 -1.6345,-0.6538 -2.94209,-0.6538 -2.61519,0 -9.39834,-1.47104 -11.44145,-2.53346 -0.81725,-0.40863 -2.20657,-0.73552 -3.02382,-0.73552 -1.87966,0 -5.639,-1.47105 -7.43694,-2.94209 -0.6538,-0.49035 -4.49486,-2.28829 -8.41764,-3.92279 -4.00451,-1.63449 -8.25419,-3.59588 -9.39834,-4.41313 -3.02381,-1.87967 -13.64802,-11.03283 -18.38805,-15.85458 -2.12484,-2.12485 -4.33141,-3.92279 -4.74003,-3.92279 -0.89897,0 -5.3121,-4.90348 -5.14866,-5.639 0.0817,-0.24517 -0.73552,-1.55277 -1.79794,-2.77864 -1.06242,-1.30759 -1.96139,-2.69691 -1.96139,-3.02381 0,-0.40863 -1.30759,-2.04312 -2.94209,-3.67761 -1.55277,-1.6345 -3.51416,-4.65831 -4.16796,-6.78315 -0.73552,-2.12484 -2.04311,-4.65831 -2.94208,-5.639 -0.89898,-1.06242 -1.38932,-1.87967 -1.06243,-1.87967 0.40863,0 0.24518,-0.57207 -0.40862,-1.30759 -1.63449,-1.9614 -3.67761,-31.7909 -2.20656,-32.68987 0.32689,-0.24518 0.65379,-2.20657 0.65379,-4.33141 0,-2.69691 0.49035,-4.57658 1.55277,-5.9659 0.9807,-1.22587 1.3076,-2.37002 0.89897,-3.02381 -0.3269,-0.57208 -0.40862,-1.79795 -0.24517,-2.61519 0.24517,-0.89897 0.0817,-2.04312 -0.40862,-2.61519 -0.49035,-0.6538 -0.49035,-1.6345 0.0817,-3.02381 0.40862,-1.14415 0.89897,-2.61519 0.9807,-3.26899 1.14414,-6.78315 3.75933,-17.48908 4.49485,-18.38805 0.49035,-0.57207 0.57208,-1.71622 0.24518,-2.45174 -0.3269,-1.06242 -0.24518,-1.3076 0.40862,-0.89897 0.6538,0.40862 0.9807,-0.0817 0.9807,-1.47105 0,-1.14414 0.3269,-2.12484 0.81724,-2.12484 0.40863,0 1.06242,-0.98069 1.3076,-2.20657 0.3269,-1.30759 2.12484,-4.41313 3.92278,-7.11004 1.87967,-2.61519 4.16796,-6.04763 5.23038,-7.51867 0.9807,-1.55277 2.20657,-2.77864 2.69691,-2.77864 1.14415,0 7.2735,-4.9852 7.2735,-5.9659 0,-0.40862 1.79794,-2.86036 4.08623,-5.47555 2.20657,-2.61519 4.08624,-4.98521 4.08624,-5.23038 0,-0.49035 1.96139,-2.45174 8.25419,-8.41764 1.55277,-1.38932 3.26899,-3.02382 3.84106,-3.67761 l 3.26899,-3.26899 c 1.22587,-1.14415 2.94208,-3.02381 3.84105,-4.08623 0.89898,-1.06242 2.2883,-2.20657 3.10554,-2.53347 0.73552,-0.24517 1.38932,-1.06242 1.38932,-1.71622 0,-0.73552 0.73552,-1.63449 1.6345,-2.12484 0.89897,-0.49035 3.67761,-3.67761 6.21107,-7.19177 2.53346,-3.43243 5.9659,-7.60039 7.68212,-9.15316 1.63449,-1.55277 3.18726,-3.26899 3.35071,-3.75934 0.16345,-0.57207 2.45174,-3.18726 4.98521,-5.9659 2.61518,-2.77864 5.55727,-6.12935 6.53797,-7.43694 0.98069,-1.38932 2.20656,-2.45174 2.69691,-2.45174 0.57208,0 2.37002,-1.79795 4.16796,-4.08624 1.71622,-2.20656 3.51416,-4.0045 3.84106,-4.08623 0.40862,0 1.71622,-1.06242 2.86036,-2.28829 1.22587,-1.22587 4.98521,-4.49486 8.33592,-7.2735 3.35071,-2.69691 6.86487,-5.72072 7.68212,-6.70142 0.89897,-0.89897 1.87967,-1.71622 2.28829,-1.71622 1.06242,0 11.9318,-9.23488 12.01353,-10.21558 0.0817,-0.49035 1.30759,-2.12484 2.86036,-3.67761 1.47104,-1.55277 3.02381,-3.75934 3.35071,-4.90348 0.3269,-1.14415 0.9807,-2.53347 1.47105,-3.10554 1.14414,-1.47104 3.35071,-5.39383 6.78314,-12.42215 1.71622,-3.35071 3.35071,-6.2928 3.67761,-6.53797 0.3269,-0.24518 0.89897,-1.55277 1.22587,-2.86036 0.3269,-1.38932 1.79795,-4.98521 3.26899,-8.09075 1.55277,-3.02381 2.77864,-6.04762 2.77864,-6.6197 0,-0.57207 0.49035,-1.30759 1.06242,-1.55276 0.73552,-0.40863 0.73552,-0.57208 -0.0817,-0.9807 -0.65379,-0.3269 -0.73552,-0.81725 -0.32689,-1.38932 0.40862,-0.57207 1.14414,-3.18726 1.71621,-5.88418 0.57208,-2.69691 1.47105,-5.3121 1.87967,-5.88417 0.40862,-0.57207 0.57207,-1.3076 0.3269,-1.79794 -0.24517,-0.40863 0.0817,-1.79795 0.73552,-3.02382 0.6538,-1.30759 1.22587,-3.10553 1.22587,-4.00451 0,-0.89897 0.57207,-2.53346 1.3076,-3.51416 0.65379,-0.98069 1.06242,-2.12484 0.73552,-2.53346 -0.24518,-0.40862 -0.0817,-0.9807 0.3269,-1.22587 0.40862,-0.24518 0.98069,-1.87967 1.30759,-3.51416 0.57207,-3.43244 2.61519,-7.84557 5.80245,-12.9125 1.06242,-1.79794 2.37002,-4.16796 2.94209,-5.3121 2.77864,-6.2928 4.49486,-9.31662 6.21108,-10.62421 0.98069,-0.81725 1.79794,-1.63449 1.79794,-1.87967 0,-0.24517 1.63449,-2.12484 3.67761,-4.16796 2.04312,-2.12484 3.67761,-4.16795 3.67761,-4.57658 0,-0.49035 0.49035,-0.81724 1.14414,-0.81724 0.6538,0 1.38932,-0.6538 1.6345,-1.47105 0.24517,-0.73552 1.87967,-2.28829 3.51416,-3.43243 1.71622,-1.06243 4.9852,-3.51417 7.27349,-5.39383 5.55728,-4.65831 10.62421,-7.35522 15.03734,-8.09075 4.08624,-0.65379 10.78766,-2.53346 13.8932,-3.92278 1.14414,-0.49035 3.35071,-0.9807 4.90348,-1.14414 1.55277,-0.16345 3.75933,-0.89898 4.82175,-1.6345 1.55277,-0.98069 4.74003,-1.38932 12.66733,-1.71622 5.88417,-0.16345 10.78765,-0.40862 10.9511,-0.57207 0.16345,-0.16345 6.37453,-0.16345 13.8932,0 9.97041,0.16345 14.79216,0.57207 17.73425,1.55277 z"
     id="path2"
     style="stroke-width:0.817247" />
  <path
     d="m 408.37665,135.15408 c -1.06242,0.16345 -1.87967,0.73553 -1.87967,1.14415 0,0.40862 -1.47104,0.9807 -3.26899,1.22587 -1.79794,0.3269 -3.51416,0.89897 -3.75933,1.22587 -0.24517,0.40862 -1.14415,0.73552 -2.04312,0.73552 -0.89897,0 -1.38932,0.3269 -1.14414,0.81725 0.24517,0.40862 0.24517,0.81725 -0.16345,0.81725 -2.12484,0.0817 -16.59011,14.22009 -16.59011,16.34493 0,0.49035 -0.40862,0.81725 -0.81725,0.81725 -1.96139,0 -8.41764,8.66281 -8.58109,11.6049 -0.0817,0.81725 -0.89897,2.12484 -1.87966,2.77864 -0.9807,0.6538 -1.79795,1.79794 -1.79795,2.45174 0,1.79794 -2.45174,6.21107 -4.24968,7.84557 -0.89897,0.73552 -1.47104,1.47104 -1.38932,1.63449 0.3269,0.3269 -1.71622,2.77864 -5.9659,7.43694 -1.63449,1.79795 -2.86036,3.59589 -2.61519,4.00451 0.6538,0.9807 -1.30759,3.18727 -2.20656,2.61519 -0.40863,-0.24517 -0.73553,-0.0817 -0.73553,0.3269 0,1.14415 -6.37452,7.51867 -7.51867,7.51867 -0.49034,0 -0.73552,0.24517 -0.40862,0.49035 0.57207,0.57207 -4.00451,5.23038 -5.14865,5.23038 -0.40863,0 -1.38932,0.89897 -2.12485,2.04311 -0.73552,1.14415 -1.63449,1.79795 -2.04311,1.6345 -0.89897,-0.57207 -11.35973,10.05213 -11.35973,11.52318 0,0.65379 -0.3269,1.14414 -0.81725,1.14414 -0.40862,0 -0.98069,1.3076 -1.30759,2.86037 -0.24518,1.55276 -0.73552,2.86036 -1.06242,2.86036 -0.6538,0 -2.53347,6.37452 -3.10554,10.62421 -0.9807,6.86487 -0.6538,20.18599 0.57207,22.556 2.12484,4.08624 8.98972,12.50388 11.27801,13.72975 6.53797,3.51416 7.92729,3.92278 13.64802,3.51416 3.10553,-0.24517 5.80245,-0.81725 5.9659,-1.3076 0.16345,-0.49034 1.06242,-0.89897 2.04311,-0.89897 6.12935,0 21.16669,-4.90348 24.10878,-7.92729 0.57207,-0.57207 1.63449,-1.06242 2.28829,-1.06242 0.6538,0 1.14415,-0.40862 1.14415,-0.81725 0,-0.49034 0.40862,-0.81724 0.89897,-0.81724 0.98069,0 3.59588,-2.45174 2.61519,-2.45174 -0.3269,-0.0817 0.24517,-0.57208 1.38932,-1.14415 2.53346,-1.38932 4.24968,-6.53797 6.21107,-18.06115 1.96139,-12.09525 3.84106,-17.81598 6.45625,-20.02254 0.6538,-0.57208 1.22587,-1.3076 1.22587,-1.71622 0,-1.3076 6.6197,-8.49937 15.93631,-17.24391 6.21108,-5.80245 16.26321,-18.63322 14.62872,-18.63322 -0.3269,0 0,-0.6538 0.6538,-1.47105 0.73552,-0.73552 1.55276,-2.86036 1.87966,-4.6583 0.40863,-1.79795 0.81725,-4.00451 0.9807,-4.90348 0.24517,-0.89897 0.40862,-2.04312 0.57207,-2.45174 0.0817,-0.49035 0.40862,-1.3076 0.81725,-1.9614 1.14414,-1.79794 0.98069,-20.34944 -0.16345,-21.49358 -0.57207,-0.57208 -0.9807,-1.6345 -0.9807,-2.45174 0,-2.20657 -4.33141,-9.48007 -8.33591,-13.97492 -2.94209,-3.26899 -4.08624,-4.00451 -6.78315,-4.24968 -1.79794,-0.16345 -4.08623,-0.0817 -5.06693,0.16344 z m 7.11005,11.35973 c 1.79794,1.6345 3.26898,3.35071 3.26898,3.75934 0,0.49035 0.6538,1.79794 1.55277,2.94209 1.96139,2.86036 3.35071,14.38354 2.37002,20.34944 -0.40863,2.45174 -0.49035,4.74003 -0.24518,5.23038 0.3269,0.40862 0.16345,0.73552 -0.3269,0.73552 -0.49034,0 -1.06242,1.38932 -1.38932,3.02381 -0.57207,3.35071 -5.9659,14.13837 -7.02832,14.13837 -0.3269,0 -0.65379,0.3269 -0.65379,0.81725 0,1.06242 -1.9614,3.35071 -6.9466,8.25419 -11.44146,11.19628 -20.02255,20.02254 -20.02255,20.59462 0,0.32689 -0.73552,1.38931 -1.63449,2.37001 -3.10554,3.35071 -4.9852,8.00902 -5.23038,13.15767 -0.16345,2.77864 -0.49035,5.63901 -0.73552,6.2928 -0.24517,0.6538 -0.6538,2.53347 -0.81725,4.08624 -0.49034,3.59588 -0.89897,5.06693 -1.55277,6.12935 -0.24517,0.40862 -0.73552,1.96139 -0.98069,3.43243 -0.40862,1.71622 -1.3076,2.86037 -2.77864,3.43244 -2.53346,0.98069 -4.74003,2.37001 -7.02832,4.41313 -0.89897,0.81725 -2.12484,1.22587 -2.69692,1.06242 -0.57207,-0.24517 -1.22587,-0.0817 -1.47104,0.24518 -0.24517,0.40862 -4.9852,0.65379 -10.54248,0.49034 -5.55728,-0.0817 -10.46076,0.0817 -10.86938,0.3269 -0.3269,0.24518 -1.06242,1.22587 -1.55277,2.12484 -1.71622,3.02382 -5.23038,2.28829 -9.15316,-1.87966 -3.84106,-4.08624 -5.47556,-7.19178 -6.2928,-11.85008 -1.71622,-10.21558 0.81724,-21.98394 6.12935,-28.76708 2.94208,-3.75934 15.20078,-15.60942 16.83528,-16.34494 2.04311,-0.89897 10.13386,-8.17247 10.13386,-8.98971 0,-0.73552 5.23038,-8.09074 8.49936,-11.9318 4.41313,-5.14866 5.39383,-6.45625 5.39383,-7.19178 0,-0.40862 0.57207,-1.14414 1.22587,-1.71621 0.6538,-0.57208 1.63449,-2.45174 2.04312,-4.24969 0.49035,-1.71621 1.47104,-3.43243 2.12484,-3.67761 0.57207,-0.24517 1.14414,-0.81724 1.14414,-1.22587 0,-0.81724 5.14866,-8.25419 7.11005,-10.2973 0.57207,-0.57208 1.06242,-1.38932 1.06242,-1.71622 0,-0.40863 2.20657,-2.94209 4.82176,-5.72073 2.69691,-2.77864 5.06693,-5.55728 5.3121,-6.21107 0.24517,-0.6538 1.06242,-1.22587 1.71622,-1.22587 0.73552,0 1.06242,-0.40863 0.81724,-0.81725 -0.24517,-0.49035 0.16345,-0.81725 0.89898,-0.81725 0.81724,0 2.20656,-0.73552 3.10553,-1.55277 1.38932,-1.30759 8.00902,-3.84106 10.46076,-4.08623 0.40862,-0.0817 2.12484,1.22587 3.92279,2.86036 z"
     id="path4"
     style="stroke-width:0.817247" />
  <path
     d="m 369.80261,211.32148 c -0.6538,0.40862 -1.6345,0.57207 -2.2883,0.3269 -0.57207,-0.24518 -1.06242,0 -1.06242,0.49034 0,0.57208 -1.38932,2.45174 -3.02381,4.33141 -1.71622,1.79794 -3.02381,3.67761 -2.94209,4.24968 0.16345,0.49035 -0.57207,1.06242 -1.55277,1.06242 -1.06242,0.0817 -2.20656,0.6538 -2.69691,1.22587 -0.40862,0.57208 -1.38932,1.06242 -2.04312,1.06242 -0.73552,0 -1.30759,0.89898 -1.47104,2.45174 -0.16345,1.3076 -0.81725,2.69692 -1.38932,3.10554 -0.6538,0.3269 -0.9807,1.14415 -0.73552,1.79795 0.3269,0.65379 0.0817,1.22587 -0.40863,1.22587 a 0.90714383,0.90714383 0 0 0 -0.89897,0.89897 c 0,0.57207 -0.49034,1.38932 -1.14414,1.87966 -0.6538,0.49035 -1.47105,2.53347 -1.71622,4.57659 -0.40862,3.10553 -0.24517,4.08623 1.30759,5.9659 2.45174,3.26898 5.06693,4.08623 7.84557,2.61519 1.22587,-0.6538 2.94209,-1.22587 3.67761,-1.22587 0.73552,0 2.45174,-0.89898 3.75934,-2.04312 1.38932,-1.14415 2.77864,-2.04312 3.18726,-2.04312 0.9807,0 6.45625,-5.80245 7.02832,-7.60039 0.3269,-0.73552 0.89897,-1.38932 1.38932,-1.38932 0.40862,0 0.81725,-0.6538 0.81725,-1.55277 0,-0.81725 0.49035,-1.96139 1.14414,-2.45174 1.06242,-0.89897 1.79795,-3.92278 2.37002,-10.46076 0.40862,-4.00451 -2.53347,-8.74454 -5.55728,-9.07144 -1.38932,-0.0817 -2.94209,0.16345 -3.59588,0.57208 z m 93.32957,-33.99747 c -1.96139,0.49035 -3.51416,1.14415 -3.51416,1.55277 0,0.3269 -0.81725,0.6538 -1.87967,0.6538 -0.9807,0 -2.37002,0.73552 -3.02381,1.71622 -0.6538,0.89897 -2.04312,2.61519 -3.10554,3.75933 -2.20657,2.37002 -4.24968,7.02832 -4.74003,10.62421 -0.16345,1.38932 -1.14415,4.57658 -2.20657,6.9466 -2.12484,4.57658 -3.26898,7.35522 -3.35071,8.00901 -0.0817,0.24518 -1.30759,2.04312 -2.69691,4.08624 l -5.55728,7.76384 c -1.63449,2.20657 -4.57658,5.88418 -6.53797,8.09074 -2.04312,2.20657 -3.67761,4.33141 -3.67761,4.65831 0,0.3269 -1.79795,2.61519 -4.08624,5.06693 -2.20656,2.45174 -6.45625,8.09074 -9.48006,12.50387 -2.94209,4.41314 -6.04763,8.82627 -6.86487,9.72524 -0.73552,0.89897 -2.04312,3.43244 -2.86037,5.72073 -0.81724,2.20656 -1.87966,4.41313 -2.45174,4.90348 -0.49034,0.40862 -1.55276,2.86036 -2.37001,5.3121 -0.81725,2.45174 -1.87967,4.74003 -2.45174,5.06693 -0.49035,0.3269 -0.89897,2.94209 -0.89897,6.53797 0,5.23038 0.3269,6.53798 2.69691,10.54249 3.75934,6.61969 9.72524,10.70593 15.28252,10.54248 1.38931,-0.0817 6.29279,-0.0817 10.9511,-0.0817 7.92729,0.0817 8.74454,0.24518 10.62421,2.04312 1.87967,1.71622 2.53346,1.87967 6.12935,1.30759 2.20656,-0.32689 4.49485,-1.22587 4.9852,-1.96139 0.57208,-0.73552 1.3076,-1.30759 1.71622,-1.30759 0.40862,0 1.63449,-1.3076 2.69692,-2.86037 1.06242,-1.55276 2.20656,-2.86036 2.61518,-2.86036 1.3076,0 4.08624,-4.9852 4.41314,-7.92729 0.57207,-6.12935 2.12484,-14.38354 2.86036,-15.85459 0.49035,-0.81724 0.81725,-2.61519 0.81725,-4.08623 0,-2.69692 4.3314,-17.57081 6.12935,-21.16669 l 5.72072,-11.6049 c 2.53347,-5.23038 5.31211,-10.13386 6.21108,-10.95111 0.81725,-0.73552 1.55277,-1.96139 1.55277,-2.69691 0,-0.73553 0.57207,-2.12484 1.22587,-3.10554 1.71622,-2.53347 4.9852,-12.9125 6.45625,-21.00324 1.55277,-8.25419 1.14414,-13.72975 -1.55277,-19.69565 -4.41313,-9.80696 -9.64351,-12.42215 -19.77737,-9.97041 z m 11.52318,11.44146 c 4.16795,5.14865 4.24968,16.34493 0.32689,29.1757 -0.98069,3.35072 -2.94208,8.09075 -4.0045,9.80696 -0.40863,0.6538 -1.06242,2.04312 -1.55277,3.02382 -0.40863,1.06242 -1.14415,1.87967 -1.6345,1.87967 -0.40862,0 -0.81724,0.73552 -0.81724,1.55276 0,0.89898 -0.49035,2.12485 -1.06242,2.69692 -1.87967,1.96139 -7.2735,11.68663 -7.51867,13.40284 -0.0817,0.9807 -0.9807,2.86037 -1.87967,4.24969 -0.9807,1.30759 -1.79794,3.18726 -1.79794,4.08623 0,0.9807 -0.3269,1.96139 -0.81725,2.20657 -0.40862,0.24517 -0.81725,1.30759 -0.81725,2.28829 0,0.98069 -0.57207,2.53346 -1.22587,3.35071 -0.65379,0.89897 -1.22587,2.45174 -1.22587,3.35071 0,0.9807 -0.57207,2.94209 -1.30759,4.33141 -1.3076,2.61519 -3.75934,15.36424 -3.92279,20.59461 -0.0817,1.55277 -0.73552,3.75934 -1.47104,4.82176 -1.22587,1.71622 -1.63449,1.79794 -5.23038,1.06242 -2.37001,-0.49035 -4.57658,-0.57207 -5.80245,-0.0817 -1.14415,0.40862 -2.37002,0.49034 -2.86036,0.24517 -0.49035,-0.3269 -1.14415,-0.0817 -1.47105,0.49035 -1.38932,2.20656 -16.18148,3.18726 -20.83979,1.38932 -5.72073,-2.20657 -7.11004,-4.08624 -7.51867,-10.37904 -0.3269,-3.59588 0.0817,-5.72072 1.71622,-9.80696 1.14415,-2.86036 2.12484,-5.55727 2.12484,-6.04762 0,-0.49035 1.87967,-3.67761 4.16796,-7.02832 2.28829,-3.35072 4.33141,-7.11005 4.57658,-8.33592 0.24518,-1.30759 0.9807,-2.28829 1.55277,-2.28829 0.6538,0 1.14415,-0.6538 1.14415,-1.47104 0,-0.81725 1.22587,-2.61519 2.69691,-4.00451 1.38932,-1.38932 4.24968,-4.41314 6.2928,-6.78315 2.04312,-2.28829 4.65831,-5.39383 5.9659,-6.70142 1.22587,-1.38932 2.20657,-3.02382 2.20657,-3.51416 0,-0.57208 1.30759,-2.20657 2.86036,-3.59589 1.55277,-1.38932 2.86036,-2.86036 2.86036,-3.26899 0,-0.40862 0.89897,-1.47104 2.04312,-2.37001 1.14414,-0.89897 2.04312,-2.04312 2.04312,-2.53347 0,-0.49035 0.40862,-0.89897 0.81724,-0.89897 0.49035,0 0.81725,-0.49035 0.81725,-1.14414 0,-0.57208 0.89897,-2.04312 2.04312,-3.26899 1.14414,-1.22587 2.04311,-2.61519 2.04311,-3.02381 0,-0.49035 0.89897,-2.86037 2.04312,-5.31211 1.14415,-2.45174 2.77864,-6.78314 3.75933,-9.56178 0.89898,-2.77864 2.2883,-5.9659 3.02382,-7.11005 0.73552,-1.14414 1.71622,-2.77864 2.20656,-3.59588 0.81725,-1.6345 1.38932,-1.9614 6.04763,-4.00451 4.08623,-1.79795 6.6197,-1.22587 9.39834,2.12484 z m -48.13583,65.05283 c -1.14415,0.73553 -2.04312,1.79795 -2.04312,2.45174 0,0.6538 -0.6538,1.9614 -1.55277,2.86037 -1.71622,1.87967 -4.9852,10.70593 -4.9852,13.40284 0,0.89898 -0.40863,1.9614 -0.89898,2.28829 -0.57207,0.3269 -0.73552,1.87967 -0.40862,4.24969 0.6538,4.9852 4.49486,9.15316 8.41764,9.15316 1.47105,0 2.69692,-0.40862 2.69692,-0.89897 0,-0.40862 0.65379,-0.73552 1.47104,-0.6538 0.73552,0.16345 2.20657,-0.16345 3.18726,-0.73552 1.96139,-1.14415 6.78315,-7.84557 6.78315,-9.56179 0,-0.65379 0.3269,-1.30759 0.73552,-1.55277 0.40862,-0.24517 0.9807,-2.20656 1.3076,-4.3314 0.32689,-2.20657 0.98069,-4.41314 1.38932,-4.98521 1.55276,-1.79794 -0.89898,-7.27349 -4.65831,-10.29731 -3.75934,-3.10553 -7.76384,-3.59588 -11.44145,-1.38932 z m -82.70537,46.99169 c -2.61519,2.69691 -2.37002,4.08623 1.63449,8.49937 5.63901,6.12935 7.76385,12.09525 8.00902,21.82048 0.3269,12.01353 0,16.18149 -1.30759,17.8977 -1.14415,1.55277 -1.3076,1.55277 -7.9273,0.0817 -3.75933,-0.81725 -8.25419,-2.12484 -10.05213,-2.86036 -1.79794,-0.81725 -6.6197,-2.77864 -10.78766,-4.49486 -4.08623,-1.63449 -8.33591,-3.84106 -9.31661,-4.74003 -2.12484,-1.96139 -7.2735,-2.28829 -9.31661,-0.57207 -3.84106,3.18726 2.37001,8.82626 12.2587,11.11455 0.49035,0.0817 3.92278,1.63449 7.76384,3.43244 8.66282,4.08623 12.99422,5.88417 13.72975,5.72072 0.3269,-0.0817 1.14414,0.0817 1.79794,0.40863 3.51416,1.30759 10.21558,1.96139 13.07595,1.22587 5.06693,-1.3076 8.00901,-4.41314 8.49936,-9.23489 0.24518,-2.28829 0.6538,-5.23038 0.81725,-6.53797 0.57207,-3.35072 0.6538,-11.19628 0.24517,-17.65253 -0.49035,-9.64351 -9.39833,-24.35395 -15.28251,-25.57982 -1.38932,-0.24518 -2.61519,0.24517 -3.84106,1.47104 z m -102.64618,62.92799 c -1.71622,0.49035 -2.86037,1.22588 -2.53347,1.55277 0.3269,0.3269 -0.24517,0.57208 -1.22587,0.57208 -0.9807,0 -1.63449,0.3269 -1.30759,0.73552 0.24517,0.40862 -0.73553,0.89897 -2.12485,1.06242 -1.71621,0.16345 -2.69691,0.73552 -2.86036,1.63449 -0.0817,0.81725 -0.73552,1.96139 -1.38932,2.69692 -0.73552,0.65379 -1.71622,2.61519 -2.20656,4.24968 -0.57208,1.71622 -1.38932,3.51416 -1.79795,4.08623 -0.98069,1.22587 -2.20656,6.04763 -2.69691,10.70593 -0.24518,1.87967 -0.9807,4.33141 -1.71622,5.47556 -0.73552,1.14414 -1.06242,2.61519 -0.81725,3.35071 0.3269,0.73552 0.16345,1.79794 -0.32689,2.37001 -0.49035,0.57208 -0.73553,1.38932 -0.6538,1.71622 0.3269,1.06242 -2.28829,4.49486 -2.86037,3.84106 -0.32689,-0.24517 -0.57207,0.0817 -0.57207,0.89897 0,0.73553 -0.57207,1.55277 -1.22587,1.79795 -0.6538,0.32689 -1.22587,0.98069 -1.22587,1.63449 0,0.6538 -0.24517,1.14414 -0.57207,1.14414 -0.81725,0 -6.78315,5.47556 -6.78315,6.12935 0,0.3269 -1.14414,1.71622 -2.45174,3.10554 l -6.70142,7.11005 c -2.37002,2.45174 -4.24968,4.82175 -4.08623,5.14865 0.32689,1.06242 -1.47105,3.92279 -2.20657,3.43244 -0.81725,-0.49035 -1.71622,1.47104 -1.71622,3.67761 0,0.73552 -0.57207,1.87967 -1.22587,2.45174 -0.6538,0.57207 -1.22587,2.20657 -1.22587,3.75933 0,1.47105 -0.40862,2.94209 -0.89897,3.18727 -0.49035,0.32689 -0.73552,1.63449 -0.57207,2.94208 0.16345,1.47105 -0.24518,2.69692 -0.9807,3.18727 -1.06242,0.65379 -1.22587,3.35071 -1.14414,16.50838 0,14.46527 0.16344,16.09976 1.79794,19.45047 4.24968,8.66282 12.34042,16.91701 18.2246,18.71495 1.96139,0.57207 4.00451,1.38932 4.41313,1.71622 2.28829,1.71622 14.62872,4.49485 23.61843,5.23038 2.69692,0.24517 5.06693,0.73552 5.3121,1.14414 0.24518,0.3269 1.79795,1.14415 3.35072,1.79795 1.55276,0.65379 3.02381,1.30759 3.26898,1.63449 0.24518,0.24517 2.04312,1.47104 4.00451,2.77864 1.96139,1.30759 5.55728,3.84106 7.92729,5.72072 9.72524,7.6004 11.76836,8.98972 15.93632,10.78766 5.9659,2.53347 11.35972,2.61519 13.89319,0 2.94209,-2.86036 5.14865,-3.75933 9.31661,-3.75933 5.06693,0 10.70593,-3.26899 12.50388,-7.2735 0.81724,-1.63449 2.04311,-3.67761 2.86036,-4.57658 0.73552,-0.81725 1.87967,-2.94209 2.37001,-4.65831 0.57208,-1.87966 1.38932,-3.10553 2.20657,-3.10553 0.73552,0 1.79794,-0.73553 2.37002,-1.6345 0.57207,-0.89897 1.71621,-1.63449 2.61519,-1.63449 0.81724,0 1.96139,-0.6538 2.37001,-1.47105 0.81725,-1.47104 0.3269,-5.72072 -0.73552,-7.11004 -0.81725,-1.06242 0.24517,-7.35522 1.55277,-8.82627 0.49035,-0.65379 0.65379,-1.30759 0.40862,-1.55277 -0.24517,-0.32689 0.0817,-1.55276 0.73552,-2.86036 2.69692,-5.3121 2.45174,-25.98844 -0.3269,-31.464 -0.40862,-0.81724 -0.73552,-2.04311 -0.73552,-2.77864 0,-2.04311 -4.74003,-10.9511 -7.92729,-14.87388 -1.63449,-1.9614 -4.98521,-4.90349 -7.51867,-6.53798 -12.9125,-8.41764 -28.44019,-21.90221 -33.18022,-28.76708 -2.28829,-3.35071 -2.45174,-4.08624 -2.61519,-12.17698 -0.49034,-21.82048 -0.57207,-22.71946 -2.12484,-24.43567 -0.81724,-0.89898 -2.45174,-1.87967 -3.59588,-2.20657 -1.14415,-0.24517 -3.26899,-1.38932 -4.74003,-2.53346 -1.38932,-1.06243 -2.94209,-1.9614 -3.43244,-1.9614 -0.40862,0 -2.20657,-0.73552 -4.00451,-1.55277 -4.41313,-2.12484 -8.33591,-2.61519 -12.01352,-1.38932 z m 10.86938,9.88869 c 0.73552,0.6538 1.87966,1.22587 2.53346,1.22587 0.73552,0 1.96139,0.49035 2.77864,1.14415 1.30759,0.89897 1.38932,1.38931 0.57207,2.28829 -0.73552,0.89897 -0.81724,2.37001 -0.24517,5.23038 0.3269,2.20656 0.6538,4.9852 0.57207,6.12935 -0.0817,2.53346 -5.9659,8.33591 -7.68212,7.68211 -0.6538,-0.24517 -1.63449,-0.0817 -2.12484,0.24518 -2.77864,2.20656 -9.48006,1.06242 -15.20079,-2.45174 -1.71622,-1.06242 -2.28829,-4.74003 -0.73552,-4.74003 0.40862,0 0.6538,-0.3269 0.40862,-0.6538 -0.24517,-0.40862 0.49035,-2.61519 1.6345,-4.9852 1.06242,-2.37002 1.96139,-4.82176 1.96139,-5.39383 0,-0.57208 1.06242,-1.87967 2.45174,-2.94209 1.30759,-1.06242 2.45174,-2.37002 2.45174,-2.94209 0,-2.12484 8.17247,-2.04312 10.62421,0.16345 z m 11.9318,31.7909 c 0.24517,1.14414 0.24517,2.45174 -0.0817,2.86036 -0.89897,1.47104 2.20657,6.70142 7.43695,12.66732 4.9852,5.55728 5.639,7.02833 3.10554,7.02833 -0.6538,0 -1.14415,0.32689 -1.14415,0.81724 0,0.40863 -0.6538,1.47105 -1.38932,2.28829 -0.81725,0.81725 -1.96139,2.37002 -2.53346,3.43244 -0.9807,1.96139 -4.33141,4.08623 -6.37453,4.08623 -2.53346,0 -7.51867,-3.67761 -9.72523,-7.19177 -2.04312,-3.18726 -2.45174,-4.82175 -2.61519,-9.48006 -0.16345,-5.06693 0,-5.88418 1.79794,-7.68212 1.14415,-1.14414 2.04312,-2.37001 2.04312,-2.77864 0,-1.96139 6.21107,-7.84557 8.33591,-8.00902 0.3269,0 0.81725,0.89898 1.14415,1.9614 z m -26.47879,4.74003 c 1.14414,1.30759 1.38931,2.77864 1.14414,7.43694 -0.3269,7.11005 -2.77864,12.09525 -5.47555,11.44146 -1.14415,-0.3269 -1.79794,0 -2.04312,1.22587 -0.3269,1.14414 -1.55277,1.87966 -4.24968,2.45174 l -6.70142,1.55276 c -4.00451,0.9807 -12.25871,-1.14414 -12.25871,-3.18726 0,-0.49035 3.92279,-4.82175 8.82627,-9.64351 10.9511,-11.03283 12.42215,-12.74905 11.76835,-13.48457 -0.3269,-0.3269 1.3076,-0.3269 3.51416,0 2.53347,0.3269 4.65831,1.14415 5.47556,2.20657 z m 51.89516,26.96914 c 3.10554,3.02381 3.43244,5.639 0.9807,7.27349 -0.89897,0.6538 -1.9614,2.45174 -2.28829,4.00451 -0.3269,1.71622 -1.06243,2.86037 -1.71622,2.86037 -0.73552,0 -1.14415,0.73552 -1.06242,1.71621 0.24517,2.20657 -10.86938,16.18149 -12.17698,15.36424 -0.40862,-0.24517 -0.6538,0 -0.6538,0.40863 0,1.87966 -2.12484,0.81724 -4.00451,-1.9614 -1.55276,-2.37001 -1.87966,-3.59588 -1.55276,-6.86487 0.65379,-6.86487 9.80696,-20.51289 13.72974,-20.51289 0.57207,0 0.81725,-0.57207 0.49035,-1.3076 -0.24518,-0.65379 0,-1.71621 0.57207,-2.37001 1.71622,-1.96139 4.82176,-1.38932 7.68212,1.38932 z m -74.206,10.29731 c 8.00902,4.00451 9.97041,5.80245 9.31661,8.33591 -0.49035,1.96139 -8.00901,5.63901 -12.01352,5.88418 -1.6345,0.16345 -2.94209,0.49035 -2.94209,0.81725 0,0.32689 -0.57207,0.40862 -1.22587,0.16345 -0.6538,-0.3269 -1.87967,-0.24518 -2.61519,0.0817 -2.12484,0.89897 -11.44145,1.38932 -11.9318,0.6538 -0.49035,-0.81725 0.89897,-10.78766 1.87966,-12.9125 0.40863,-0.89897 1.14415,-2.94209 1.71622,-4.57658 l 0.9807,-2.86037 4.57658,0.24518 c 3.43244,0.24517 6.53797,1.30759 12.2587,4.16796 z m 92.02198,2.77864 c 3.43243,4.08623 6.12935,9.72523 8.09074,16.75355 2.04312,7.43695 1.3076,20.83979 -1.55277,29.42088 -2.61519,7.76385 -3.26898,8.58109 -5.14865,6.2928 -0.73552,-0.89897 -3.10554,-2.28829 -5.14866,-3.10553 -4.49485,-1.6345 -8.90799,-6.45625 -8.90799,-9.80696 0,-0.57208 -0.89897,-1.71622 -2.04311,-2.45174 -1.47105,-0.9807 -2.04312,-2.04312 -2.04312,-4.00451 0,-1.38932 -0.16345,-4.16796 -0.49035,-5.9659 -0.3269,-2.53347 0,-4.41314 1.22587,-7.2735 0.9807,-2.12484 1.71622,-4.57658 1.71622,-5.39383 0,-0.81724 1.63449,-4.6583 3.67761,-8.41764 2.04312,-3.84106 3.67761,-7.60039 3.67761,-8.25419 0,-2.53347 3.84106,-1.3076 6.9466,2.20657 z m -79.76328,22.39255 c 1.14415,0.57208 2.37002,0.89898 2.69691,0.6538 1.22588,-0.81724 4.74004,0.49035 4.74004,1.6345 0,0.65379 -0.9807,2.28829 -2.20657,3.59588 -1.30759,1.3076 -3.43244,3.75934 -4.82176,5.55728 -1.47104,1.71622 -3.59588,4.33141 -4.74003,5.72073 -1.14414,1.47104 -2.12484,3.02381 -2.12484,3.51416 0,0.49034 -1.14414,0.89897 -2.53346,0.89897 -1.87967,0 -2.45174,0.3269 -2.28829,1.38932 0.3269,1.96139 -1.47105,5.14865 -2.94209,5.14865 -0.6538,0 -1.38932,0.89897 -1.71622,2.04312 -0.6538,2.61519 -2.12484,2.61519 -6.6197,-0.0817 -4.9852,-2.94208 -11.19628,-12.99422 -11.85007,-19.12357 -0.3269,-3.75933 0.24517,-7.43694 1.22587,-7.2735 0.49034,0.16345 2.12484,0 3.43243,-0.32689 3.84106,-0.89898 6.37453,-1.47105 8.58109,-1.79795 1.14415,-0.16345 3.67761,-0.73552 5.72073,-1.22587 9.07144,-2.37001 11.44145,-2.37001 15.44596,-0.3269 z m 32.1178,14.71045 c 4.16795,2.45174 5.23037,4.57658 3.43243,6.37452 -0.6538,0.6538 -1.14414,1.96139 -1.14414,3.02381 0,1.79794 -9.80696,12.17698 -11.44146,12.17698 -0.49035,0 -1.47104,0.3269 -2.28829,0.73552 -2.12484,1.14415 -4.57658,1.96139 -5.3121,1.79794 -0.40862,-0.0817 -2.37002,-0.24517 -4.49486,-0.49035 -13.56629,-1.14414 -13.81147,-1.22587 -13.81147,-3.75933 0,-1.47104 0.49035,-2.37002 1.14415,-2.37002 0.57207,0 1.06242,-0.32689 1.06242,-0.65379 0,-0.3269 1.14414,-1.3076 2.45174,-2.04312 1.38932,-0.81725 2.45174,-1.96139 2.45174,-2.45174 0,-0.57207 0.73552,-1.63449 1.63449,-2.45174 0.9807,-0.81725 1.47105,-1.79794 1.14415,-2.28829 -0.73552,-1.3076 4.57658,-6.45625 6.70142,-6.45625 1.22587,0 1.96139,-0.6538 2.28829,-2.12484 0.57207,-2.04312 0.6538,-2.04312 6.45625,-1.71622 4.65831,0.3269 6.78315,0.89897 9.72524,2.69692 z m 25.98844,20.83979 c 2.28829,1.38932 4.49486,3.18726 4.90348,4.0045 0.9807,1.87967 1.06242,6.2928 0.16345,6.86488 -0.40862,0.24517 -0.73552,2.12484 -0.81725,4.24968 0,2.12484 -0.49034,4.24968 -1.14414,4.90348 -1.38932,1.38932 -8.33592,1.71622 -9.97041,0.40862 -1.47105,-1.22587 -5.3121,-0.98069 -7.19177,0.57208 -2.20657,1.79794 -5.80245,0.49034 -12.09525,-4.41314 -5.63901,-4.41313 -5.63901,-4.49485 -4.08624,-6.04762 0.89897,-0.89897 1.79795,-1.6345 2.04312,-1.6345 0.16345,0 2.04312,-1.79794 4.16796,-4.08623 2.61519,-2.77864 4.6583,-4.24968 6.6197,-4.57658 1.55276,-0.3269 3.02381,-0.9807 3.26898,-1.63449 0.16345,-0.57208 0.81725,-0.89897 1.38932,-0.6538 0.57208,0.24517 1.87967,0 3.02382,-0.40862 2.61518,-1.14415 4.90348,-0.49035 9.72523,2.45174 z"
     id="path6"
     style="stroke-width:0.817247" />
  <path
     d="m 236.47861,552.52769 c -14.40806,-2.94944 -19.31807,-4.34039 -24.7356,-7.00871 l -12.04213,-5.85557 c -6.11955,-2.95189 -8.6146,-4.62398 -13.67009,-9.15888 L 173.85218,519.7087 c -3.82962,-3.35235 -7.10923,-6.93924 -9.08124,-9.932 -1.69824,-2.57678 -4.15897,-6.00268 -5.4682,-7.61429 -1.30923,-1.61161 -3.86885,-6.01902 -5.68559,-9.79552 -3.94811,-8.20434 -4.84055,-13.33828 -4.91737,-28.2849 -0.0556,-10.86612 0.71427,-17.40736 2.33651,-19.8542 0.88835,-1.34028 0.97824,-2.31689 0.50914,-5.53276 -0.60394,-4.14262 0.15446,-8.55166 3.69641,-21.48132 0.88263,-3.22241 1.65411,-6.51755 1.71295,-7.32335 0.0588,-0.80581 0.32772,-1.46451 0.59659,-1.46451 0.26887,0 0.4879,-0.34733 0.4879,-0.77148 0,-1.45797 4.73104,-9.97695 8.79112,-15.82843 2.8955,-4.17368 5.02688,-6.4824 7.40997,-8.02618 1.83963,-1.19237 3.85414,-2.88815 4.47525,-3.76833 4.73921,-6.7145 13.38405,-16.54107 22.54947,-25.63376 13.85396,-13.74364 14.47916,-14.41051 18.63731,-19.85419 1.91399,-2.50649 5.10861,-6.35082 7.0986,-8.54268 1.99,-2.19185 5.81553,-6.54042 8.50019,-9.66149 10.92577,-12.70083 21.23288,-22.167 44.32092,-40.70624 2.89796,-2.32752 5.57117,-4.81685 5.93893,-5.53276 0.36776,-0.71591 1.507,-2.18859 2.53101,-3.27144 1.02401,-1.08285 2.70999,-3.573 3.74708,-5.53276 l 11.67355,-21.79515 c 0.39555,-0.71264 2.38309,-5.25081 4.41559,-10.08401 2.03249,-4.83319 4.02575,-9.00769 4.42866,-9.27575 0.5402,-0.35959 0.53448,-0.61702 -0.0221,-0.97824 -0.55654,-0.36122 -0.32036,-2.05374 0.87119,-6.34674 l 2.18613,-8.13487 c 1.2651,-5.14702 2.52693,-9.07553 3.54685,-11.04836 0.59496,-1.14987 0.91613,-2.25642 0.71346,-2.4591 -0.20268,-0.20267 -0.11278,-0.6873 0.19859,-1.07876 0.31137,-0.39146 1.06078,-2.46809 1.66473,-4.61663 0.60394,-2.14854 2.94372,-7.27431 5.20014,-11.3916 2.25642,-4.11729 4.79887,-8.9178 5.64963,-10.66752 1.31413,-2.701 7.78917,-10.48609 15.29395,-18.38723 3.10799,-3.27226 18.04726,-14.2438 21.00814,-15.42881 1.48985,-0.59577 4.09359,-1.37951 5.78693,-1.74073 3.33845,-0.71264 13.70604,-3.69232 21.85971,-6.28299 4.43929,-1.41057 7.11986,-1.71622 20.35925,-2.32589 20.54313,-0.94637 32.01156,-0.16181 40.27392,2.75412 3.2224,1.13761 9.50785,3.87375 13.96756,6.08032 8.8941,4.40087 12.4197,7.26042 23.13626,18.76317 8.02945,8.61868 14.26422,20.44261 15.54403,29.4789 l 0.36367,2.56861 -1.76443,-1.76444 c -0.97007,-0.97007 -3.08511,-3.72909 -4.69917,-6.13098 -2.58332,-3.8427 -3.31312,-4.48178 -6.08767,-5.33172 -3.10145,-0.94964 -4.21945,-1.96711 -7.1362,-6.49629 -1.0567,-1.64185 -2.2319,-2.45011 -4.52428,-3.1129 -2.41087,-0.69711 -3.47656,-1.46941 -4.81358,-3.48964 -2.75412,-4.16142 -6.17512,-4.25132 -10.57435,-0.27705 -1.37707,1.24385 -3.15049,2.26214 -3.94077,2.26214 -1.37951,0 -1.41956,-0.16753 -0.9905,-4.17122 0.41434,-3.87048 0.34243,-4.2268 -0.99377,-4.9419 -0.88345,-0.47236 -2.61029,-0.61538 -4.46299,-0.36776 -6.06805,0.80908 -7.39363,0.73634 -8.14795,-0.4454 -0.54428,-0.85238 -0.5214,-1.42527 0.0883,-2.27848 1.91644,-2.67812 2.33977,-4.12301 1.72357,-5.88499 -0.82297,-2.35286 -3.66127,-2.71244 -6.25848,-0.79191 -2.27031,1.67862 -3.34826,1.09102 -4.83973,-2.63644 -1.52171,-3.80347 -6.37779,-5.21485 -8.33428,-2.4215 -1.16785,1.66718 -1.33293,4.13772 -0.31791,4.76454 0.38247,0.23619 0.53121,0.85811 0.33017,1.38115 -0.4691,1.22178 0.9856,4.01186 3.14394,6.02801 2.12811,1.98836 2.13302,2.65278 0.0188,2.65278 -2.71326,0 -4.18839,1.1417 -4.18839,3.24039 0,2.75902 2.05456,3.91951 6.93761,3.91951 5.80245,0 7.38382,0.74206 7.38382,3.46349 0,2.69038 1.66882,4.34776 4.37636,4.34776 2.88733,0 10.7803,2.52692 11.73403,3.75688 0.44785,0.57698 0.81397,1.71458 0.81397,2.52856 0,0.81398 0.56636,1.78323 1.25938,2.15426 1.64839,0.88181 5.24999,0.86792 5.24999,-0.0204 0,-1.15477 3.34499,-5.16418 4.30853,-5.16418 0.49443,0 1.4784,0.57943 2.18613,1.28716 1.34846,1.34846 1.16213,3.15866 -0.42415,4.11566 -2.5923,1.56421 0.53857,7.61592 3.93995,7.61592 1.82082,0 5.61285,-2.89714 5.61285,-4.28891 0,-1.3313 0.98151,-1.13107 3.01155,0.61375 1.68108,1.44571 1.73257,1.65166 0.91695,3.62204 -0.77475,1.87068 -0.72898,2.27195 0.43887,3.83779 1.54868,2.07662 3.07121,2.49342 5.11351,1.40076 2.06763,-1.10655 3.25754,-0.47645 4.79642,2.54 0.72408,1.41956 2.82113,4.28973 4.65994,6.37861 4.57249,5.19361 4.91329,6.0697 3.67843,9.47434 -0.55573,1.53234 -1.16294,4.2505 -1.34928,6.04028 -0.65543,6.28299 -5.79918,28.67636 -7.34051,31.95924 -0.85647,1.82492 -1.55767,3.80184 -1.55767,4.39352 0,0.59169 -0.43968,1.07632 -0.97661,1.07632 -0.6301,0 -0.97824,0.635 -0.9807,1.78977 -0.002,0.98478 -0.58596,2.66912 -1.29697,3.74299 -0.711,1.07386 -1.47839,3.33927 -1.70559,5.03342 -0.22719,1.69415 -0.81479,3.41446 -1.30678,3.82226 -0.49198,0.40781 -0.89406,1.19563 -0.89406,1.75054 0,0.55491 -0.3931,1.47105 -0.87282,2.03577 -0.47973,0.56471 -1.83145,3.72828 -3.00257,7.02995 -1.17111,3.30168 -2.5163,6.32386 -2.9903,6.71695 -0.47401,0.3931 -1.06324,1.64675 -1.31005,2.786 -0.24681,1.13924 -0.99786,2.8481 -1.66882,3.79856 -0.67096,0.95046 -1.22097,1.97692 -1.22097,2.28175 0,0.73961 -7.53174,13.69787 -9.39833,16.17004 -0.81071,1.07387 -1.98836,2.94945 -2.61601,4.16796 -0.62764,1.21852 -3.10145,4.87978 -5.49762,8.13651 -2.39616,3.25673 -6.99481,9.87643 -10.21885,14.70962 l -11.09903,16.32859 c -10.07747,14.51349 -13.15277,19.12521 -13.6946,20.53496 -0.61866,1.61243 -5.79019,8.96928 -7.02505,9.99411 -0.54429,0.45194 -0.98887,1.12862 -0.98887,1.50537 0,0.37675 -2.16897,3.92932 -4.8193,7.8946 -2.65034,3.96528 -5.01381,7.86927 -5.25163,8.67426 -0.23782,0.80499 -0.70529,1.4645 -1.03954,1.4645 -0.33425,0 -0.60721,0.40372 -0.60721,0.89652 0,0.4928 -0.43968,1.26102 -0.97661,1.70723 -0.53694,0.44622 -0.97661,1.36072 -0.97661,2.0325 0,0.67177 -0.61948,1.84207 -1.37706,2.59966 -1.43346,1.43345 -7.07409,12.0691 -7.08063,13.35217 -0.002,0.40372 -0.44376,1.09838 -0.9807,1.5446 -0.53693,0.44622 -0.97661,1.48984 -0.97661,2.31935 0,0.8295 -0.29257,1.69006 -0.65134,1.91154 -0.35877,0.22147 -0.65135,1.05179 -0.65135,1.84616 0,0.79436 -0.40453,2.02186 -0.89815,2.72797 -0.49362,0.7061 -1.64022,3.41936 -2.54818,6.03046 -0.90796,2.6111 -2.87507,6.7006 -4.37308,9.08942 -1.49802,2.38881 -2.88979,5.37911 -3.0941,6.64503 -0.20431,1.26591 -1.05098,3.76669 -1.88294,5.55728 -0.83195,1.79058 -1.51517,3.79202 -1.51844,4.44827 -0.007,1.34519 -1.3174,1.1752 -1.96548,-0.2558 a 125.39833,125.39833 0 0 0 -1.50782,-3.10063 c -1.0567,-2.11095 -1.04199,-2.21637 0.60231,-4.37227 1.4122,-1.85188 1.61488,-2.625 1.25202,-4.77436 -0.23863,-1.41056 -0.82787,-3.10472 -1.31004,-3.76423 -0.77148,-1.05507 -1.13271,-1.10247 -3.00175,-0.39719 -1.16866,0.44132 -2.18613,0.73389 -2.25969,0.65053 -0.0736,-0.0834 -0.4029,-2.58331 -0.73143,-5.55564 -0.69221,-6.26256 -0.1798,-7.55463 3.25101,-8.1978 5.9185,-1.11064 6.89674,-11.45944 1.08285,-11.45944 h -1.90501 l 1.0281,-2.44111 c 2.57923,-6.12445 3.18726,-6.9989 5.35378,-7.69928 3.45042,-1.11554 4.24315,-3.45124 2.38146,-7.02179 -1.24467,-2.38717 -1.22505,-3.29922 0.0948,-4.39433 0.58678,-0.48708 2.76638,-4.48097 4.84301,-8.8753 2.94127,-6.22333 4.21699,-8.2403 5.76976,-9.12129 2.52039,-1.43018 3.0042,-2.94045 1.9573,-6.11301 -0.72081,-2.18286 -0.64317,-3.40056 0.58352,-9.18258 l 1.81592,-8.16348 c 0.58433,-2.17878 -4.80132,-7.29066 -7.6813,-7.29066 -2.70999,0 -7.39036,3.80184 -7.91585,6.42928 -0.23047,1.15232 -0.91941,2.09788 -1.71295,2.34959 -1.38033,0.43804 -2.25642,2.62254 -1.8764,4.6771 0.12095,0.65462 1.53887,1.82328 3.14967,2.59558 1.61079,0.7723 2.9143,1.65165 2.8955,1.95322 -0.0883,1.43018 -1.17438,5.87273 -1.67045,6.83545 -0.30647,0.59414 -1.74237,1.28062 -3.19135,1.5258 -2.65442,0.44867 -6.49547,3.06631 -6.49547,4.42702 0,0.40372 1.31004,2.06355 2.91185,3.68987 l 2.91185,2.9568 -3.88846,5.43959 c -2.13874,2.99194 -3.88846,6.12854 -3.88846,6.9703 0,2.19186 -1.93606,2.96742 -6.16858,2.47054 -2.96579,-0.34815 -3.85005,-0.21494 -4.90839,0.74288 -2.29891,2.08071 -1.66881,4.47606 1.98837,7.55953 3.61223,3.04588 3.6253,3.13005 1.45878,9.68028 -1.14496,3.46268 -2.54082,5.2075 -4.16551,5.2075 -0.64807,0 -1.48166,0.56635 -1.85188,1.25938 -1.22832,2.29483 -0.74206,4.27747 1.60426,6.55186 2.16897,2.10196 2.27848,2.42314 2.27848,6.6859 v 4.47769 l -1.78977,-0.11768 c -3.48229,-0.22965 -4.10094,0.0433 -5.16745,2.28094 -1.53561,3.22077 -0.55491,4.87324 5.12169,8.62277 4.29626,2.83829 5.09226,3.72991 8.81237,9.8756 2.24988,3.71521 4.09032,7.24653 4.09032,7.84557 0,0.59905 0.42987,1.65901 0.95536,2.35367 0.52549,0.69466 0.95536,1.99572 0.95536,2.89061 0,0.89488 -0.42987,2.19594 -0.95536,2.8906 -0.52549,0.69466 -0.95536,1.90418 -0.95536,2.6871 0,0.78293 -0.46338,1.80775 -1.02973,2.27767 -1.35827,1.1278 -4.82911,8.04253 -4.82911,9.62145 0,0.6824 -0.41026,1.58137 -0.91123,1.99735 -0.50098,0.41598 -1.57484,2.42885 -2.38555,4.47361 -0.81071,2.04475 -2.30463,4.97703 -3.31965,6.51672 -1.01502,1.53969 -1.84616,3.05323 -1.84616,3.36297 a 0.92348877,0.92348877 0 0 1 -0.49526,0.78129 c -0.27214,0.11932 -2.43539,2.70672 -4.80622,5.75015 -2.37084,3.04342 -8.89492,10.27442 -14.49551,16.06952 -8.14958,8.43153 -10.98134,10.93476 -14.17514,12.53084 -2.19513,1.09675 -4.70979,1.99408 -5.58915,1.99408 -0.87936,0 -2.95598,0.4217 -4.61499,0.9382 -6.61316,2.0562 -19.49052,5.53358 -22.87065,6.17594 -11.31724,2.15099 -46.17526,2.74676 -55.00479,0.93983 z m 48.35976,-9.26676 c 2.97559,-2.40924 6.82891,-3.96364 9.90013,-3.99388 2.79335,-0.027 6.94169,-1.55604 9.17686,-3.38177 1.44081,-1.17683 6.9989,-9.95161 8.45442,-13.34646 0.66033,-1.54051 1.59935,-2.79988 2.08643,-2.79988 0.48708,0 1.57401,-0.73226 2.41496,-1.62714 0.84095,-0.89489 2.00471,-1.62714 2.5874,-1.62714 2.63072,0 3.31149,-3.25754 1.83472,-8.77805 -0.81888,-3.0614 -0.46583,-4.843 2.64461,-13.35381 0.84504,-2.3128 1.0706,-5.39464 1.0706,-14.64669 0,-13.56385 -0.61539,-16.60891 -5.28759,-26.17396 -3.61223,-7.39527 -7.0275,-11.26411 -14.40234,-16.3147 -13.46577,-9.22263 -28.28981,-22.52659 -31.82767,-28.56277 -1.73665,-2.96334 -1.78405,-3.32865 -2.27767,-17.69911 -0.28685,-8.33183 -0.82705,-15.4525 -1.2512,-16.47651 -0.47564,-1.14823 -1.84534,-2.32834 -3.76996,-3.24937 -1.6631,-0.79519 -4.04864,-2.10605 -5.30148,-2.91267 -1.25284,-0.80662 -4.62153,-2.39453 -7.48598,-3.52887 -4.47688,-1.77261 -5.78284,-2.01697 -9.30762,-1.74156 -2.46482,0.19287 -4.56187,0.7388 -5.25898,1.36971 -0.63746,0.57698 -1.46615,1.04853 -1.84208,1.04853 -0.37593,0 -1.01829,0.40372 -1.42773,0.89815 -0.40944,0.49444 -1.5446,1.06324 -2.52039,1.26592 -0.97579,0.20267 -2.10196,1.04362 -2.50077,1.86822 -0.39882,0.8246 -1.33702,2.6724 -2.08398,4.10422 -3.24774,6.22742 -4.05681,8.4634 -5.29413,14.63361 -0.72081,3.59589 -1.77669,7.44022 -2.34713,8.54187 -0.57044,1.10165 -0.8908,2.38145 -0.71345,2.84402 0.50424,1.31495 -1.2414,5.69702 -2.76066,6.92698 -0.75514,0.6113 -1.37298,1.38605 -1.37298,1.7203 0,0.33426 -0.58596,1.13843 -1.30187,1.7865 -0.71591,0.64808 -1.30351,1.49883 -1.30596,1.89111 -0.002,0.39228 -1.03791,1.41629 -2.30055,2.27685 -1.26265,0.86056 -3.52234,3.05732 -5.01953,4.88223 -1.4972,1.82492 -5.14947,5.89644 -8.11444,9.04774 -2.96497,3.15131 -5.39056,6.29362 -5.39056,6.98256 0,0.68894 -0.7012,1.71295 -1.55768,2.27358 -0.95781,0.62764 -1.83471,2.12239 -2.27766,3.88192 -0.39637,1.57402 -0.99704,3.03199 -1.33457,3.2412 -0.33752,0.20922 -0.8107,1.69415 -1.05179,3.30168 -0.24109,1.60752 -0.69711,3.08183 -1.01421,3.27797 -0.31709,0.19614 -0.57615,1.31904 -0.57615,2.49588 0,1.17683 -0.46257,3.06712 -1.0281,4.20064 -0.86955,1.74401 -0.99541,4.43765 -0.81398,17.51278 l 0.21412,15.4525 2.12566,3.91707 c 2.79498,5.15029 7.11331,10.5956 10.79583,13.61287 5.80163,4.75393 18.96666,9.10413 32.64492,10.78684 8.60152,1.05834 13.25901,3.59262 30.05179,16.35474 9.96878,7.57588 14.92865,9.81841 20.91171,9.45391 2.34305,-0.14301 4.0086,-0.66605 5.2075,-1.63776 z M 356.34827,357.607 c 3.60243,-1.744 5.26389,-4.52591 6.0321,-10.09953 2.701,-19.60657 0.87854,-30.90827 -6.69734,-41.52513 -4.95169,-6.94006 -9.25041,-8.6432 -12.39109,-4.91165 -0.92676,1.10165 -1.68516,2.29238 -1.68516,2.64625 0,1.0902 1.34028,3.2273 4.31179,6.87549 3.93259,4.8283 5.45757,8.08012 6.48158,13.82128 1.57239,8.81319 1.01666,22.9916 -0.97906,24.98732 -1.89438,1.89437 -27.60005,-6.69244 -35.95885,-12.0119 -3.65882,-2.32833 -6.98991,-2.97314 -9.65495,-1.86904 -5.67742,2.35122 -1.43182,8.33183 8.13405,11.45943 1.78977,0.58515 7.35604,2.90286 12.36821,5.14948 7.88071,3.53214 12.9076,5.29902 18.22624,6.40476 3.75116,0.77965 9.1646,0.3555 11.81248,-0.92676 z m 83.87975,-43.85182 c 2.83993,-1.18665 11.24532,-9.62799 12.44422,-12.49816 0.49933,-1.19563 1.21361,-4.44664 1.58627,-7.22609 0.37267,-2.77946 1.27327,-7.68866 1.99981,-10.91106 l 2.27194,-10.08973 c 0.52304,-2.32752 1.69824,-6.57475 2.61192,-9.43838 1.85842,-5.82452 10.03497,-22.98833 13.3342,-27.9907 1.18092,-1.78977 2.49669,-4.13364 2.92492,-5.2075 l 2.42804,-5.85884 c 3.50844,-8.30323 5.18135,-16.29426 5.24836,-25.06169 0.0605,-7.95834 0.0131,-8.24111 -2.15916,-12.87572 -2.45992,-5.24836 -5.72727,-8.66363 -9.46944,-9.89849 -3.1178,-1.02891 -9.83556,-0.34406 -13.13806,1.34028 -1.35418,0.69058 -2.85055,1.2553 -3.32619,1.2553 -1.33865,0 -5.78774,5.13884 -7.89052,9.11311 -1.04199,1.96875 -2.21882,5.13313 -2.61601,7.03241 -1.20053,5.73952 -5.85148,15.74753 -10.04151,21.60964 -3.70866,5.18788 -8.12751,10.79583 -17.87482,22.68186 -7.29147,8.89165 -16.78624,23.04718 -20.15248,30.04444 -7.90768,16.43974 -7.50886,15.25146 -7.21139,21.47643 0.22393,4.67792 0.57289,6.14733 2.06927,8.70041 2.58005,4.40332 5.35951,7.36829 8.80257,9.39261 2.89223,1.70069 3.43325,1.77752 14.73822,2.09052 10.92169,0.3032 11.86397,0.4266 13.5949,1.78977 2.1984,1.73175 6.40395,1.95812 9.82412,0.52876 z M 345.77474,283.7042 c 1.03953,-0.50016 2.54,-0.9096 3.33436,-0.9096 2.79825,0 13.7183,-3.12515 17.89198,-5.12005 7.02015,-3.35561 9.10904,-4.70489 12.66161,-8.17246 4.04537,-3.94976 4.29708,-4.63706 7.47453,-20.41237 3.34173,-16.59093 4.35021,-18.34964 19.12766,-33.34285 15.74099,-15.96982 20.04216,-22.167 21.91284,-31.57106 0.42742,-2.14772 1.2226,-5.29576 1.76689,-6.99481 1.22995,-3.83779 0.99132,-20.78095 -0.31056,-22.08283 -0.44049,-0.44049 -0.8009,-1.3599 -0.8009,-2.04393 0,-1.98101 -3.73318,-8.44951 -7.54319,-13.06778 -2.78272,-3.37359 -4.06988,-4.4025 -6.23477,-4.98602 -3.18808,-0.85811 -7.9085,-0.31627 -9.03139,1.03709 -0.43151,0.51977 -1.26102,0.96353 -1.84371,0.98723 -1.88294,0.0768 -7.7524,2.21556 -7.92157,2.88652 -0.0899,0.35795 -1.07305,1.20298 -2.18369,1.87803 -2.81868,1.71213 -14.71371,13.82618 -14.71371,14.98422 0,0.52304 -0.59332,1.13924 -1.3174,1.36889 -1.70151,0.5402 -6.04762,6.30424 -7.87172,10.43951 -0.7821,1.77342 -1.91154,3.57136 -2.50976,3.99388 -0.59823,0.42252 -1.43754,1.93851 -1.86578,3.36787 -0.82133,2.74187 -4.79478,8.4487 -10.02843,14.40561 -1.72603,1.96385 -3.36542,4.454 -3.64329,5.53276 -0.33507,1.30188 -0.97497,2.03086 -1.90091,2.16571 -0.7674,0.11196 -1.56667,0.74451 -1.7767,1.40484 -0.43641,1.37543 -5.82452,6.52817 -6.82646,6.52817 -0.36613,0 -0.66524,0.35223 -0.66524,0.78292 0,0.99868 -3.92523,5.07592 -4.88713,5.07592 -0.39964,0 -1.37625,0.87854 -2.16979,1.95322 -0.79355,1.07468 -1.83391,1.95322 -2.31118,1.95322 -1.23404,0 -10.91841,10.29649 -12.24644,13.02037 -4.61254,9.4629 -5.95446,16.34167 -5.62266,28.83083 l 0.24518,9.24797 2.40107,3.58035 c 5.53603,8.25501 10.965,12.8177 17.10579,14.37701 2.65196,0.67341 9.9843,0.0188 12.30528,-1.0992 z m -12.95582,-9.27166 c -2.88161,-1.76444 -6.79377,-6.35818 -8.33264,-9.78572 -1.69089,-3.76505 -2.25479,-13.37097 -1.12454,-19.1489 1.12862,-5.76731 4.52346,-12.557 8.44216,-16.88596 3.50599,-3.87211 11.07615,-10.67978 18.50083,-16.6375 2.62663,-2.10768 5.39465,-5.1413 7.12803,-7.81125 1.55849,-2.40107 4.99665,-7.00135 7.64126,-10.22375 2.64461,-3.22241 5.98878,-8.0981 7.43204,-10.83588 2.32261,-4.40577 7.00135,-11.60327 11.69561,-17.9925 3.24611,-4.41804 11.79042,-13.79921 12.57253,-13.80411 0.44785,-0.003 0.81398,-0.44459 0.81398,-0.98152 0,-0.53693 0.55,-0.97661 1.2226,-0.97661 0.67259,0 1.56584,-0.41434 1.98591,-0.92022 0.88753,-1.06977 8.63829,-4.28973 10.30548,-4.28155 0.62274,0.003 2.25069,1.06569 3.61713,2.36102 5.75015,5.45022 7.69928,11.10802 7.59386,22.04442 -0.0883,9.14499 -0.18225,10.11587 -1.14578,11.837 -0.43805,0.7821 -0.796,1.76443 -0.796,2.18204 0,1.19073 -4.97458,11.50602 -6.63931,13.76734 -0.82379,1.11881 -6.65321,7.33397 -12.95582,13.81229 -18.1347,18.6414 -21.03429,22.77013 -21.79842,31.03739 -0.53774,5.81635 -1.981,13.13888 -3.6204,18.36762 -1.25529,4.0037 -1.6443,4.55779 -4.06253,5.78284 -1.47105,0.74533 -3.94894,2.26541 -5.50661,3.3785 l -2.83258,2.0235 -23.13053,0.66115 -1.97447,2.11586 c -2.29973,2.46481 -2.45501,2.4926 -5.03179,0.91531 z m 25.71222,-26.44529 c 4.25622,-1.59036 9.10658,-4.9942 12.24399,-8.59253 4.40904,-5.05631 4.53,-5.22139 5.01871,-6.8232 0.25662,-0.84094 0.87936,-1.9998 1.38278,-2.57514 0.50343,-0.57534 1.24549,-3.50926 1.64839,-6.51918 0.67586,-5.0514 0.62764,-5.71092 -0.62928,-8.55167 -1.70151,-3.84759 -3.40874,-4.69753 -8.22232,-4.09604 -1.99735,0.24926 -3.63103,0.65789 -3.63103,0.90715 0,0.24926 -1.20625,1.91236 -2.68057,3.6964 -1.47431,1.78405 -2.93228,3.90154 -3.23875,4.70735 -0.30646,0.8058 -0.9954,1.4645 -1.52988,1.4645 -0.53448,0 -2.12321,0.59986 -3.52969,1.33293 -1.98101,1.03218 -2.64951,1.82491 -2.9666,3.51498 -0.22475,1.19972 -0.84095,2.54 -1.36889,2.97805 -0.52794,0.43804 -0.95945,1.346 -0.95945,2.0186 0,0.67259 -0.25907,1.2226 -0.57534,1.2226 -0.31628,0 -0.76004,0.51241 -0.98724,1.13924 -0.22719,0.62683 -0.84258,1.87149 -1.36807,2.76638 -1.29206,2.19839 -1.23976,7.45329 0.094,9.48987 2.34386,3.57709 5.45348,4.10584 11.29843,1.92134 z M 406.166,301.5782 c -3.44388,-1.7105 -4.72532,-3.56728 -5.39792,-7.82023 -0.90632,-5.73135 2.02514,-15.15012 7.2498,-23.2948 1.7579,-2.74023 3.79202,-6.32876 4.51937,-7.97306 0.72735,-1.6443 1.76199,-3.15948 2.29973,-3.36542 0.53775,-0.20595 0.97661,-0.80826 0.97661,-1.33784 0,-0.52957 3.64084,-5.05957 8.08993,-10.06602 4.44909,-5.00646 8.45033,-9.78163 8.89083,-10.61195 0.44049,-0.83032 2.80479,-3.73237 5.25407,-6.45053 2.44929,-2.71816 4.45318,-5.28105 4.45318,-5.69539 0,-0.41435 0.29993,-0.7535 0.66688,-0.7535 0.36694,0 0.9243,-0.67587 1.23812,-1.50129 0.31383,-0.82541 1.27654,-2.36347 2.13956,-3.41772 0.86301,-1.05425 3.09246,-5.87028 4.95333,-10.7043 4.29953,-11.16195 7.78182,-18.04235 9.86907,-19.49624 0.90061,-0.62764 3.05814,-1.67453 4.79397,-2.32751 2.9854,-1.12208 3.26817,-1.12617 5.20749,-0.0809 6.35328,3.42426 7.75976,13.344 3.99716,28.17785 -1.6394,6.4636 -6.30751,16.82057 -7.8472,17.41144 -0.51405,0.19695 -0.93412,0.84013 -0.93412,1.42936 0,0.58924 -1.30187,3.16111 -2.89305,5.71583 -1.59118,2.55471 -3.66372,6.40312 -4.60682,8.55085 -0.9431,2.14772 -2.28094,4.97703 -2.97396,6.28708 -0.69303,1.31004 -1.84534,4.23906 -2.56044,6.50937 -0.71509,2.27031 -1.71213,5.00727 -2.21555,6.08113 -0.50343,1.07386 -1.668,4.58884 -2.58904,7.81124 -1.4408,5.04242 -2.12157,8.68734 -4.04782,21.67992 -0.17571,1.18338 -0.85648,2.68956 -1.51354,3.34663 -1.01993,1.01992 -1.65738,1.10819 -4.35756,0.60149 -3.75525,-0.70446 -8.15122,-0.2133 -11.29925,1.26101 -1.6443,0.77067 -4.54308,1.118 -10.415,1.24794 -7.23181,0.16018 -8.44951,0.0253 -10.95028,-1.21688 z m 21.72895,-13.88175 c 0.69466,-0.52549 1.96793,-0.96517 2.82849,-0.97661 3.59752,-0.0474 8.94068,-8.38332 11.22816,-17.51605 1.4694,-5.86783 1.48412,-6.74882 0.15037,-9.38853 -4.35674,-8.62359 -14.64343,-10.2826 -18.4379,-2.97478 -3.98245,7.66986 -4.7907,9.58794 -5.49435,13.03672 -0.41843,2.04966 -0.97253,3.93831 -1.23241,4.1982 -0.25989,0.25988 -0.47237,1.93524 -0.47237,3.72419 0,7.31272 6.92208,13.30559 11.43001,9.89604 z M 309.14002,502.58493 c -0.45521,-0.54837 -2.73042,-1.95322 -5.05549,-3.12188 -4.62807,-2.32589 -8.42255,-6.01739 -9.08615,-8.83853 -0.23373,-0.99377 -1.23731,-2.68547 -2.23027,-3.75933 -1.54623,-1.67209 -1.86822,-2.70018 -2.24089,-7.16072 -0.40617,-4.85853 -0.27704,-5.67904 1.92462,-12.23254 1.29779,-3.86395 3.66127,-9.60674 5.25326,-12.76131 1.592,-3.15457 2.89305,-6.05498 2.89305,-6.44399 0,-2.99439 4.91574,-0.0605 8.20761,4.89939 5.81226,8.7568 8.1692,19.32462 6.90083,30.93933 -0.73388,6.72103 -3.21014,16.01803 -4.8716,18.28998 -0.7723,1.0567 -0.95782,1.07713 -1.69497,0.18878 z m -39.75497,-35.35409 c -1.76934,-2.24907 -2.22209,-4.18349 -1.81755,-7.76875 0.66033,-5.86129 8.28279,-17.86011 12.31182,-19.38101 1.27,-0.4789 1.81919,-1.07549 1.63612,-1.77505 -0.47155,-1.80367 0.79682,-3.19135 2.91758,-3.19135 1.45224,0 2.6871,0.68975 4.52427,2.52692 2.81297,2.81297 3.15376,4.51529 1.24876,6.23968 -0.70284,0.63664 -1.76117,2.42069 -2.35041,3.96447 -0.58923,1.54377 -1.47921,2.96415 -1.9761,3.15457 -0.49688,0.19042 -0.90387,0.89325 -0.90387,1.56094 0,2.38309 -8.29179,13.05225 -11.86152,15.2629 -2.30872,1.42936 -2.11177,1.46124 -3.72828,-0.59414 z m -8.82136,-29.88018 c -2.90286,-1.5021 -6.68589,-5.42243 -8.14795,-8.44297 -0.91858,-1.89765 -1.29043,-4.01023 -1.29043,-7.3307 0,-4.52265 0.0997,-4.81195 3.28697,-9.55689 3.11452,-4.63706 7.35522,-8.48956 8.53859,-7.75812 0.29829,0.1847 0.54183,1.72521 0.54183,3.42426 0,3.46023 1.46042,6.17185 6.88449,12.78338 5.57117,6.78968 5.24917,6.2217 4.02494,7.11658 -0.59577,0.43559 -2.40597,2.58822 -4.02167,4.78335 -2.55962,3.47656 -5.66107,6.00921 -7.34378,5.99613 -0.28604,-0.002 -1.39913,-0.45847 -2.47299,-1.01502 z M 241.5341,397.9275 c -4.31588,-0.7772 -8.92351,-3.32701 -9.1785,-5.08 -0.12013,-0.82297 0.0997,-1.81429 0.4879,-2.20248 0.38819,-0.3882 0.7061,-1.1654 0.7061,-1.72766 0,-2.25315 4.16878,-10.8604 6.15796,-12.71391 1.15231,-1.07386 2.23517,-2.37574 2.40515,-2.89305 0.48708,-1.48249 6.52,-1.13434 9.35666,0.53856 1.28389,0.75759 2.69201,1.37706 3.12924,1.37706 0.43722,0 1.4596,0.46583 2.27194,1.03545 1.118,0.78293 1.30515,1.24385 0.7674,1.89029 -0.47237,0.56881 -0.56227,2.81052 -0.26888,6.69571 l 0.4405,5.84086 -2.71081,2.94045 c -1.82654,1.98101 -3.39402,3.04343 -4.80704,3.25673 a 33.008594,33.008594 0 0 0 -4.04946,0.92594 c -1.07468,0.33507 -3.19298,0.38656 -4.70898,0.1136 z m -27.43497,35.83382 c -1.5683,-0.30811 -3.55747,-1.0232 -4.4213,-1.58873 l -1.56994,-1.02891 10.33736,-10.88164 c 5.68558,-5.9847 10.45749,-11.21917 10.60541,-11.63188 0.35877,-1.00521 5.17971,-0.10951 7.46228,1.38605 1.67781,1.0992 1.70968,1.25284 1.4882,7.08962 -0.27704,7.29474 -1.80284,11.05653 -4.61499,11.38016 -0.98478,0.1136 -2.07172,0.73225 -2.41578,1.37543 -0.34406,0.64317 -1.44244,1.48412 -2.44111,1.86822 -1.70151,0.65462 -10.95111,2.8195 -11.38262,2.66341 -0.10869,-0.0392 -1.48003,-0.32363 -3.04833,-0.63173 z m -20.24483,28.9338 c 0.0711,-3.10963 1.63776,-10.60051 3.01073,-14.39825 l 1.70723,-4.7196 2.67894,0.004 c 3.81899,0.005 7.05692,1.01175 13.78286,4.28238 6.20454,3.01727 9.82576,6.03536 9.19975,7.66659 -0.81562,2.12647 -11.19301,6.38106 -16.72332,6.85751 -7.07082,0.60885 -13.66764,0.75677 -13.65701,0.30729 z m 11.25021,39.53512 c -3.63838,-2.63562 -6.9613,-6.88693 -9.31497,-11.9179 -2.28666,-4.88632 -2.93637,-7.95263 -2.34877,-11.08514 l 0.40862,-2.17796 11.87623,-2.52938 c 14.61155,-3.11207 17.11805,-3.36297 20.30613,-2.03086 1.35826,0.56717 3.2886,1.03137 4.28973,1.03137 2.42722,0 3.87947,0.60721 3.87947,1.62142 0,0.45684 -2.35776,3.57463 -5.24019,6.9278 -2.88243,3.35316 -6.03128,7.32089 -6.99808,8.81727 -1.31087,2.02841 -2.24825,2.77374 -3.68987,2.92901 -1.63613,0.17734 -2.02023,0.58352 -2.5065,2.65197 -0.35632,1.51517 -1.27654,2.94372 -2.42313,3.76015 -1.01666,0.72408 -2.0325,1.8952 -2.25724,2.60211 -0.58678,1.8478 -2.92656,1.61325 -5.98224,-0.59986 z m 29.22229,8.04825 c -8.84424,-1.01502 -9.23897,-1.14741 -9.23897,-3.09246 0,-1.05588 0.92267,-2.21637 2.99276,-3.76342 1.64593,-1.22996 3.38422,-2.99031 3.86312,-3.91135 0.47891,-0.92103 1.32803,-2.05537 1.88948,-2.52038 0.56144,-0.46502 1.0191,-1.35663 1.0191,-1.98019 0,-1.80694 2.41088,-4.38535 5.28514,-5.65372 1.53806,-0.67831 3.05813,-1.95812 3.62203,-3.04833 0.97008,-1.87558 0.97907,-1.87803 5.63329,-1.44816 5.22629,0.48218 12.31427,3.46268 13.49846,5.67578 1.10573,2.06518 -2.48852,8.58518 -7.37974,13.38814 -3.80673,3.73808 -10.52532,7.49987 -12.99177,7.27513 -0.45847,-0.0417 -4.14507,-0.45603 -8.1929,-0.92104 z m 30.72031,17.67705 c -4.37473,-2.5016 -10.08728,-7.05775 -9.88215,-7.88071 0.42088,-1.68517 10.80237,-10.60787 13.26718,-11.40223 1.40076,-0.45194 2.83993,-1.0379 3.19789,-1.30351 0.35795,-0.2656 2.16162,-0.86138 4.00859,-1.32476 3.22895,-0.80989 3.50272,-0.76984 7.11904,1.05507 2.06845,1.04362 4.7621,2.83993 5.98551,3.99143 2.02759,1.90909 2.19268,2.33896 1.86741,4.88223 -1.14087,8.91453 -1.68107,11.23306 -2.81378,12.07401 -1.18337,0.87854 -4.51855,0.81806 -11.03691,-0.19941 -1.87068,-0.29176 -3.2886,-0.10461 -4.68691,0.61784 -2.68221,1.38687 -3.85741,1.30187 -7.02506,-0.50996 z"
     fill="#ffffff"
     id="path8"
     style="stroke-width:0.817247" />
  <path
     style="fill:none;stroke:#71376b;stroke-width:18.75000334;stroke-linecap:butt;stroke-linejoin:miter;stroke-opacity:1;stroke-miterlimit:4;stroke-dasharray:none"
     d="M 428.04619,46.183931 H 192.62079 L 42.2414,196.56332 v 275.41393"
     id="path841" />
  <path
     style="fill:none;stroke:#71376b;stroke-width:18.75;stroke-linecap:butt;stroke-linejoin:miter;stroke-miterlimit:4;stroke-dasharray:none;stroke-opacity:1"
     d="M 201.25297,622.52904 H 459.20712 L 593.25317,488.483 V 274.4599"
     id="path843" />
</svg>
