<svg xmlns="http://www.w3.org/2000/svg" width="653.333" height="913.333" viewBox="0 0 490 685" preserveAspectRatio="xMidYMid meet"  xmlns:v="https://vecta.io/nano"><path d="M214.5 53.2c-11.2.7-20.4 2.3-21.9 3.8-.6.6-1.7 1-2.5 1-2.7 0-16.4 7.2-22.1 11.6-6.2 4.8-23.3 21.3-32.9 31.9-7.1 7.7-16.5 24.7-17.7 31.9-.3 2.2-1.3 5.4-2.1 6.9-1.4 2.9-2.1 25.6-.8 27.7.4.6.8 3.2 1 5.8.9 11 3.2 23 5.4 27 .6 1.1 1.1 2.8 1.1 3.7s.6 3.1 1.4 4.8c.8 1.8 2.4 7.5 3.5 12.7 1.2 5.2 2.7 10.6 3.3 12 1.6 3.5 3.7 11.1 3.8 13.6 0 1.2.6 2.4 1.4 2.7.7.3 1.6 2.5 2 4.8.4 2.4 1.1 4.8 1.5 5.4.5.5 2.1 4.6 3.6 9s3.4 8.8 4.2 9.7c.9 1 1.3 2.4 1 3.2-.4.9-.2 1.8.3 2.1.6.4 1 1.6 1 2.9 0 1.2.3 2.6.7 3 .9.9 3.3 7.7 3.3 9.6 0 .8.9 4.4 1.9 8l4.2 14.5c1.2 4.4 2.8 8.7 3.5 9.5 1.3 1.7 2.5 6.2 2.7 10.2.1 1.6.5 2.8.8 2.8 1.4 0 1.9 5.2.7 6.7-1 1.2-.9 1.7.3 2.7 3.2 2.4 2.6 30.7-.8 37.1-.5 1.1-1.3 3.5-1.7 5.4-.3 1.8-2.9 8.1-5.7 14-9.4 19.3-10 21.1-11.9 29.9-1 4.8-2.2 9.8-2.8 11.2-.5 1.4-1.5 4.1-2.1 6.1-1.3 4.3-1.5 28.4-.2 36 .6 3 1.2 7.9 1.4 10.9.3 3 1 7.7 1.6 10.4.7 2.7 1.4 7 1.7 9.5.2 2.5.8 5.5 1.3 6.6.4 1.1 1.8 5.4 3.1 9.5 2.3 7.7 4 12.3 7.2 19.7 1 2.3 1.8 4.5 1.8 4.9s1.1 2.1 2.4 3.8 2.6 4.1 3 5.3 1.6 2.5 2.7 2.8c1 .4 1.9 1.3 1.9 2.1 0 2.8 6.7 11.1 16 19.7 7.2 6.7 11.6 9.9 18.5 13.3 4.9 2.4 9.6 4.4 10.3 4.4.8 0 1.2.6.9 1.5-.5 1.1 0 1.3 2.3.8 1.7-.3 3.6-.1 4.2.4.7.5 4.9 2 9.3 3.2 4.4 1.3 8.5 2.9 9 3.5.6.7 3.5 1.6 6.5 2s5.9 1.1 6.5 1.5c.5.5 2.4 1.1 4 1.5 1.7.4 4.4 1.4 6 2.1 5 2.2 54.5 4.4 58.4 2.6.9-.5 2.6-1.3 3.7-1.9 1.2-.6 3.8-1.4 5.7-1.7 2-.4 4.3-1.6 5.3-2.6.9-1 2.2-1.9 2.7-1.9.6 0 2.5-1.1 4.2-2.5 1.8-1.3 3.5-2.1 3.9-1.8.3.3.8-.2 1.2-1.1s1.9-2.3 3.5-3.1c1.6-.9 4.5-3.4 6.6-5.7 2.1-2.4 5.5-6.1 7.7-8.3 3.7-3.8 3.8-4.2 3.3-9.3-.5-4.3-.2-6 1.6-9 1.2-2 2.6-4.2 3.2-4.7 4.6-4.2 9.6-20.9 10-33.5.1-4.7.9-11.2 1.8-14.5s1.9-8.6 2.1-11.8c.3-3.2.7-6.1 1-6.5.2-.4.7-6.1 1.1-12.7.3-6.6 1-15.4 1.5-19.5 1.1-9.1 1.4-17.6.6-21-.4-1.4-.7-6.7-.7-11.8-.1-5.3-.5-9.2-1.1-9.2s-.7-.7-.4-1.6-.1-6.2-.9-11.7c-2.1-14.6-3.5-26.3-3.9-33.2-.2-3.3-1.1-10.1-2-15-.9-5-1.8-13.7-2-19.5-.2-6.4-1-11.9-1.9-14.2-.8-2-1.3-3.9-1-4.2.3-.2-.2-1.5-1.1-2.8-2-2.9-2.1-7.6 0-9.9 1.2-1.3 1.3-2.2.5-3.7-.6-1.1-1.2-3.9-1.5-6.3-.2-2.4-.9-7.8-1.5-11.9-1.5-10-.7-40.6 1.3-49.3.8-3.8 1.2-8.3.9-10.1s0-5.7.6-8.7c1.8-8.4 1.4-21.2-.8-28.2-.5-1.7-1.5-6.6-2.1-10.7s-1.7-9.8-2.5-12.5c-.7-2.8-1.8-7.7-2.5-11l-1.6-8.5c-.6-2.7-5-14.5-6.4-17.2-1.4-2.6-5-13.5-5-15.3 0-.8-.4-2.3-.9-3.3-.5-.9-2.2-4.4-3.7-7.7-3.2-6.8-9.7-15.8-15.1-20.7-2-1.8-6-5.6-8.9-8.3-2.8-2.8-6.7-6.2-8.6-7.8-1.8-1.5-5.5-4.8-8.3-7.2-2.7-2.5-5.4-4.5-5.9-4.5-.4 0-2.4-1.4-4.3-3-1.8-1.7-4-3-4.8-3s-1.5-.5-1.5-1c0-.6-.8-1-1.9-1-1 0-2.9-.8-4.2-1.9-1.3-1-4.2-2.1-6.4-2.5-3.8-.7-11.4-3.3-18.2-6.2-1.7-.8-3.7-1.4-4.4-1.4s-3.8-.9-6.8-2c-6.3-2.2-21.8-3-38.6-1.8zM243 64.4c4.5.4 7.9 1 9.8 1.5.1.1.4.1.7.1s1.9.7 3.5 1.5c1.7.9 3 1.3 3 1s2.4.4 5.3 1.6c2.8 1.1 7.2 2.7 9.7 3.5 2.5.9 5.9 2.2 7.5 2.9l6.2 2.5c2.2.8 3 1.7 2.6 2.7s0 1.4 1.3 1.2c2.6-.3 5.6 1.1 7.2 3.3.7 1 2 1.8 2.8 1.8 1.6 0 1.8.9.5 2.9-.6.9-1.8 1.1-3.9.6-2.4-.5-3.3-.2-4.1 1.4-1.6 3-.9 7.1 1.6 9.1s2.9 4 1.1 5.8c-1.5 1.5-3.8 1.6-3.8 0 0-.6-1-2.5-2.3-4.2s-2.6-3.8-2.9-4.7c-.7-1.9-5-2.9-7.2-1.7-1.9 1.1-1.2 6.1 1.5 10 2.8 4 2.4 6.2-1.4 7.6-5.2 1.9-6.8 1.5-8-1.8-1.4-3.6-2-3.7-5.4-.5-2.7 2.4-2.7 2.4-4.5.5-2.9-3.1-5.7-2.5-7.4 1.5-1.6 3.8-1.7 3.9-4.2 2.6-2.1-1.1-10.3.7-15.2 3.4-1.9 1-4.7 2-6.2 2.1-4 .2-6.9 3.5-6.7 7.5.2 2.9-.5 4.2-5.1 8.6-2.9 2.9-5.7 5.3-6.2 5.3-.4 0-.8.6-.8 1.4 0 .7-.7 1.9-1.5 2.6-4 3.3.3 8.6 6.1 7.7 4.2-.7 6.5-2.5 10.6-8.5 1.6-2.3 3.4-4.2 4.1-4.2s2 1.4 2.9 3c1.7 3 4.1 3.9 5.3 2 .3-.6 1.6-1 2.8-1 1.7 0 2.5-.9 3.3-3.6 1.1-3.2 1-3.7-.7-4.1-1.9-.5-3.5-3.7-3.1-6.1.2-.6-.3-1.2-1-1.2s-.2-.7 1-1.6c1.2-.8 2.6-1.3 3.1-.9.5.3 1.2.1 1.6-.4.8-1.4 13.7-.2 15.6 1.5 2.6 2.3 7.8 1.8 10.1-1.1 1.1-1.4 2.3-2.3 2.7-2.1.4.3 4.3-.4 8.7-1.5 5.8-1.5 9.4-1.8 13.7-1.3 7.3.8 9.7-.9 9.7-6.7 0-3.3.4-4 2.5-4.5 1.7-.4 3.2-.1 4.5 1.1 3.2 2.9 5.5 1.6 5.8-3.3.2-2.5-.1-4.2-.7-4.2s-1.1-1.1-1.1-2.5c0-3.1 2.3-2.4 6.6 2.2 1.7 1.8 3.6 3.3 4.2 3.3 1.4 0 13.2 14.6 13.2 16.4 0 .8 1.1 2.7 2.4 4.1s2.6 3.6 2.9 4.8c.5 2.3 2.4 7.7 3.8 11.2 2 4.7 3.2 8.1 3.4 9.5.2.8 1.5 4.9 2.9 9 4.6 13.5 6.7 21.4 7.8 29.5.6 4.4 1.4 8.9 1.9 10 1.8 4.6 3.2 28.6 1.9 33.4-.5 1.9-1.3 2.5-3.5 2.5-2.5 0-3-.6-4.3-4.5l-1.8-5.6c-.4-1.7-6.2-2.7-7.9-1.3s-2 6.6-.5 7.5c.6.3 1 1.3 1 2 0 1.2-1.2 1.3-5.9.9-3.3-.4-7.1-.4-8.6 0-1.4.4-6.5 4.1-11.2 8.3l-8.6 7.6-1.8-2.4c-1-1.3-1.9-2.9-1.9-3.5 0-2.4-6.7-3.3-8.8-1.2-1.9 1.9-1.5 6.6.8 7.8 2.8 1.5 2.5 2.6-2.1 6.9-3.6 3.5-3.9 4.1-2.8 5.9 2.4 3.8 5.1 4.5 10.7 2.9 2.8-.9 6.4-1.4 7.9-1.2 2.4.3 3.1-.2 4.3-2.8.8-1.8 1.4-3.7 1.5-4.4 0-1.7 5.6-5.8 6.3-4.6.4.6 1.7 1.3 2.9 1.7 1.7.6 2.9-.1 5.7-3.1 2.4-2.6 3.1-4.2 2.5-5-.6-.6-.6-1.3-.2-1.6.7-.4 9.4-.3 11.6.1 1.3.3.7 3.5-.9 4.7-1.5 1-1.4 1.4.9 3.9 1.4 1.5 3.1 2.5 3.6 2.1.6-.3 1.1-.2 1.1.4s1.1.6 3.2 0c1.7-.5 3.3-.8 3.4-.6.2.1-.1 3.5-.6 7.5-1.7 13.1-1.1 43.9 1.1 54.2.5 2.5 1.1 7.5 1.4 11.1.2 3.6.9 7.8 1.5 9.4.6 1.5 1.2 4.2 1.5 6.1a52.19 52.19 0 0 0 1.4 7.1c.8 3.2 3 24.8 2.9 29.3-.1 3.7 2.5 33.1 4.3 49.4 3.9 36.4 3.8 39.4-2.6 93-.3 2.2-.9 4.4-1.4 5s-1.2 4.5-1.5 8.6c-.9 11.1-1.6 14.9-3.7 21.4-1 3.2-1.6 6.2-1.4 6.6.3.5-.6 2.2-2 3.8s-2.5 3.3-2.5 3.6c0 1.2-8.1 11.6-9 11.6-.5 0-2.1 1.6-3.6 3.5l-2.7 3.6 2.1 2.9c3 4 2.8 5.5-1.3 8-1.9 1.2-3.5 2.6-3.5 3 0 2-15.8 10.9-25.7 14.5-8.2 3-13.9 3.1-37.7.9-14.9-1.5-17.9-2.1-23.4-4.6-3.5-1.7-6.6-2.8-6.9-2.5-.3.4-2.8-.3-5.7-1.3-2.8-1.1-6.1-2-7.2-2-1.2 0-3.5-.7-5-1.5-1.6-.8-3.6-1.5-4.4-1.5s-2.4-.7-3.4-1.5c-1.1-.8-2.5-1.5-3.2-1.5s-3.4-1-6.1-2.2c-2.6-1.2-5-2.2-5.3-2.3-3-1-5.8-2.6-6.9-3.9-.7-.9-1.9-1.6-2.5-1.6-2.5 0-24.9-23.2-27-28-1.5-3.5-4.8-7-6.4-7-1 0-1.2-.7-.9-2.1.6-2.1-.4-6-2.9-11.6-.8-1.7-1.4-3.9-1.4-4.9 0-.9-.6-2.5-1.4-3.3-2.1-2.5-3.6-8-4.1-15.1-.5-6.4-3.2-23.1-4.2-26-2.4-7.1-2.1-37.9.5-41.4.5-.6.9-3.1 1-5.5s.6-4.9 1.2-5.5c.5-.5 1-2.4 1-4.2 0-3.1 4.8-15.9 7.5-20.1.8-1.2 1.5-3.1 1.5-4.2s1.1-3.3 2.5-4.9c1.4-1.7 2.5-3.5 2.5-4.2 0-.6.9-2.3 1.9-3.6 1.1-1.4 2.2-4.2 2.6-6.4s1.1-4.2 1.6-4.6c.5-.3.9-2 .9-3.8 0-1.7.4-3.6.9-4.1 1.3-1.3 1.6-15.2.7-24.6-.8-7.4-.8-7.6 2.1-10.5 1.6-1.6 3.9-4.4 5.2-6.2 1.2-1.8 3.1-3.2 4.2-3.2 2.9 0 5.9-1.8 5.9-3.5 0-.9.6-2.4 1.2-3.5 1-1.6.9-2.2-.6-3.3-4.9-3.6-5.3-20.6-.5-27 1.3-1.7 2.2-4.2 2.1-5.5-.2-2.8-2.8-5.6-4.2-4.7-1.7 1-3.1-4.4-2.4-9.5.5-4.1.3-4.9-1.8-6.6-4.3-3.5-6.7-9-7.4-16.8l-.6-7.4 4.7-3.2c3.1-2.1 4.4-3.7 4.1-4.7-.3-.8-.6-1.9-.6-2.4s-.6-.9-1.4-.9c-.7 0-1.9-.7-2.6-1.5-1-1.2-.9-1.6.4-2.1 1.7-.7 2.2-3.4.6-3.4-.5 0-1.2-1.1-1.6-2.4-.5-2.2-.9-2.4-3-1.4-1.3.6-2.4 1.5-2.4 2.1 0 .5-.8.6-1.7.2-4.9-2.1-15.6 1.9-17 6.2-1.4 4.1 1.2 8.2 5.7 8.9l3.5.6-.1 10c0 7.4.3 10.1 1.3 10.5 1.4.6 1.8 4.3.4 4.3-.5 0-1.4 1.4-2.1 3-1.4 3.4-.1 6 3.1 6 .9 0 2.8 1.5 4 3.2 1.3 1.8 2.7 3.4 3.1 3.6 1.3.6.9 7.7-.4 9-.7.7-1.9 1.2-2.9 1.2-2.7 0-6.9 3.9-6.9 6.5 0 3.2 3.3 4.9 8.3 4.2l3.9-.5-.6 3.6c-1.6 9.3-1.9 10.8-2.8 11.9-1.3 1.6-6.8 1.7-6.8.3 0-.6-.9-2.3-1.9-3.8-1.1-1.5-2.2-5-2.6-7.7-.4-2.8-1.3-6.5-2.1-8.4-.8-1.8-1.4-4.2-1.4-5.2 0-1.1-.4-1.9-.9-1.9s-.7-.9-.4-2 0-2-.6-2-1.1-1.1-1.1-2.5-.9-4.4-1.9-6.5c-1.1-2.2-2.2-6.3-2.6-9.2s-1.5-6.8-2.6-8.6c-1-1.8-1.9-4.3-1.9-5.5-.1-2.5-2.4-6-3.3-5-.6.6-1.1-2.1-.8-4 .1-.5-.8-.6-1.9-.2-1.8.6-2 .3-1.4-1.9.3-1.5.2-3.2-.3-3.9-.5-.6-1-2.5-1.1-4-.1-1.6-.5-3.4-.9-4-.5-.7-.9-2.1-1-3.2-.3-4.1-2.4-11-3.6-12-1.8-1.5-4.7-11.5-4.7-16.3 0-2.2-.4-4.3-.9-4.6-.8-.5-1.3-2.5-2.6-11.1-.2-1.7-.9-5.5-1.5-8.5-4.7-24.9-5.1-30.7-3.1-40 2.1-9.6 3.4-14.5 4.1-15.5.4-.6 1.4-3 2.3-5.5 2.7-7.3 7.5-13.9 18.7-25.8 12-12.8 22.4-21.8 28.1-24.3 2.1-1 3.9-2.3 3.9-2.9 0-.5 1-1 2.3-1s3.2-.8 4.3-1.8c2.5-2.3 10.7-4.9 16.1-5 2.4-.1 4.9-.5 5.7-.9 1.5-.8 21-.8 30.6.1zm44 81.5c-3.7 1.2-8.6 3.8-10.2 5.5-9.5 9.9-13.3 15-14.4 19.3-1.7 6.4-1.7 15.4 0 17.8.7 1.1 1.7 3.1 2.1 4.5 1.1 3.8 7.4 13.8 10.3 16.6 1.5 1.3 3.4 2.4 4.2 2.4.9 0 2.6.7 3.9 1.6 4.3 3.1 20.1-.3 24.1-5.2.8-.8 2.1-1.3 3.1-1.1 1.2.3 1.5 0 1.2-1.3-.3-1.2 1.3-3.6 4.9-7.1 3.9-3.8 5.8-6.7 6.7-9.9l2-7c.4-1.4.1-4.4-.6-6.8-.6-2.3-1-4.2-.7-4.2s-.2-1-1-2.2c-.9-1.2-1.6-3.2-1.6-4.4s-.7-2.7-1.5-3.4-1.5-1.9-1.5-2.7c0-1.7-7.4-9.3-9.1-9.3-.7 0-2-.7-2.9-1.5-1.9-1.8-15.2-2.9-19-1.6zm21.9 14.9c6.7 7.2 8.5 20.1 3.7 27.4-2 3-5.8 5.8-8 5.8-1.5 0-4 2.3-7.4 6.8-1.4 1.9-2.7 2.4-6.6 2.4s-5.4-.6-7.7-2.8c-1.6-1.5-2.7-2.9-2.5-3.1.2-.3-.8-1.7-2.4-3.3-4.4-4.5-6.3-17.1-3.3-22.6 2.1-3.8 9.2-11.9 12-13.6 2.2-1.4 4.5-1.7 10.6-1.5 7.7.4 7.8.4 11.6 4.5z"/><path d="M289 168.2c-3.6 4.5-4.1 6.4-2.5 9.5.8 1.5 1.5 3.9 1.5 5.2 0 2 .4 2.2 2.3 1.6 2.9-.9 3.9-.9 6 0 1.3.6 2-.1 3.3-3 3.2-7.6 2.1-15.5-1.8-14-.9.4-2.2-.1-3.1-.9-2.2-2.2-2.8-2-5.7 1.6zM162.1 154c-1.4.6-3.1.8-3.8.6-2.8-1.1-12.5 19.2-13.8 28.9-.7 5.8 1.4 20.3 3.7 25.4 2.6 5.9 6.7 11.1 8.6 11.1.8 0 2.3.6 3.1 1.3 2 1.7 9.5 4.4 14.3 5 3 .5 4.4.1 6.5-1.7 3.2-2.6 7-3.8 7.9-2.5.3.5 1.1.6 1.7.2.7-.4 1.6-.8 2.2-.8 1.3 0 5.5-6.4 6.1-9.4.3-1.4 1-3.5 1.6-4.6s1.3-2.9 1.4-4a83.71 83.71 0 0 1 1.5-6.5c1.1-4.7.6-17.7-.9-20.7l-3.3-6.8c-2.2-4.6-5.4-8.4-7.1-8.5-.5 0-1.7-.9-2.8-2s-2.9-2-4-2c-1.2 0-3.1-.7-4.4-1.5-2.9-1.9-15.2-2.9-18.5-1.5zm7.3 10.9c.3.5 2.5.6 5 .4 2.6-.3 4.6-.1 5 .6.4.6 1.7 1.1 3 1.1 3 0 10.6 7.6 10.6 10.6 0 1.3.4 3.4 1 4.8 2 5.5-3.1 25.1-7.7 29.1-1.5 1.3-3.2 2.5-3.7 2.5s-1.7.7-2.7 1.6c-1.5 1.3-2.3 1.4-5.4.4-6.5-2.1-12.5-6.1-13.1-8.6-.3-1.3-1-2.4-1.4-2.4-3.3 0-4.5-18.4-1.9-28 2-7.3 9.4-15.2 11.3-12.1zm1.6 13.9c-5.8 2.5-11.9 12.4-8.9 14.3.7.4 1.3 1.6 1.4 2.6.2 3.8 1.4 4.4 4.7 2.7 1.7-.9 4.6-1.8 6.4-1.9 8.9-.9 13.9-10 8.5-15.6-1.7-1.8-9.7-3.1-12.1-2.1zm49.9 53.5c-1.1.8-1.4 2.3-1.1 4.9.3 3.2.8 3.8 2.8 3.8 1.3 0 2.4.4 2.4.8s2 1.8 4.5 3c2.7 1.3 4.9 3.2 5.5 4.7.5 1.4 1.4 2.5 2 2.5.5 0 1 .7 1 1.5 0 .7.6 1.8 1.3 2.2 3 1.8 7.7 9.7 7.7 12.8 0 2 .6 3.5 1.5 3.8 1.5.6 1.7 6.7.3 6.7-.5 0-.8.6-.8 1.3 0 1.8-2.7 4.1-6.8 5.7-2.9 1.1-3.4 1.1-4.5-.4-1.2-1.6-1.5-1.5-5 .8-2.1 1.4-4.1 2.6-4.5 2.6s-1.3 1.5-2 3.2c-1.1 3-1 3.5.9 5.1 2.9 2.4 12.8 2.1 18.9-.6 4.6-2.1 11-7.3 11-9.1 0-.5.6-1.7 1.4-2.5 1.7-1.9 2.3-9.1 1.2-14.6-.9-4.3-6-13.5-8.2-14.8-.8-.4-1.4-1.6-1.4-2.6 0-.9-1.5-3.5-3.3-5.7-1.8-2.1-4-5-4.9-6.4-.8-1.4-2.8-3.2-4.4-4s-4-2.5-5.3-3.7c-2.6-2.5-7.6-3-10.2-1zM283.2 364c-1.1 1.1-3.6 2.1-6.2 2.4-7.3.8-16.2 3.9-21 7.2-7.4 5.2-17.5 15.7-19.5 20.2-1 2.3-2.2 4.2-2.6 4.2-1 0-1.8 4.2-3.3 16.2-.6 5.9-.9 11.3-.5 12 1 1.8 2.9 15.9 2.9 21.4 0 3-.5 4.6-1.5 5-.8.4-1.5 1.4-1.5 2.5 0 1-1 2.5-2.2 3.4l-2.3 1.6 2.3 1.9c1.2 1 2.2 2.1 2.2 2.4 0 1.2-5.6 9.2-12.7 18.3-4 5.1-7.3 9.9-7.3 10.7s-.4 1.7-.9 2c-.4.3-1.4 4-2 8.3-.7 4.3-2.1 9.2-3.1 11-1.2 2.1-1.5 3.5-.9 3.9.6.3.8 1.3.5 2.1s.1 2.4.9 3.6 1.5 3.4 1.5 4.9.4 2.9 1 3.3c.5.3.7 1.2.4 1.9s.2 1.9 1.1 2.6c.8.7 1.5 2 1.5 3s.7 2.4 1.6 3.1 3.5 4.3 5.9 7.9 6 8.1 8.2 10.1c3.9 3.6 16.7 11.9 18.4 11.9.5 0 1.7.4 2.7.9 5.5 2.8 23.5 5.3 28.2 3.9 1.4-.4 5.2-1.2 8.5-1.8 14.4-2.7 22.9-5.9 26.7-9.9 1-1.2 2.9-2.1 4.2-2.1s3.1-1 4.2-2.1c1-1.2 2.6-2.4 3.4-2.8 4.6-1.9 13.1-8 15-10.9 1.3-1.7 2.7-3.2 3.2-3.2 1.9 0 3.5-2.7 4.9-8.5 1.6-6.8 1.8-23 .2-26-.6-1.1-1.5-4.3-2.1-7.1s-2.3-7.3-3.7-9.9c-1.4-2.7-2.5-5.6-2.5-6.6s-1-2.5-2.2-3.4c-1.4-.9-2.3-2.7-2.4-4.4-.1-1.6-.9-4.4-1.8-6.2-2.6-5.2-3.9-29.7-1.7-32.3.9-1.1.9-1.5-.1-1.8-1-.4-1.2-4.5-1.1-18.4.2-10.8-.2-19.2-.8-21.2-.6-1.8-1.2-3.9-1.3-4.5-.6-2.6-3.2-7.3-4.8-8.5-1-.7-1.8-2-1.8-2.8s-.4-1.4-1-1.4c-.5 0-1-.7-1-1.5 0-.9-1-2-2.3-2.6s-2.7-2-3.3-3.2c-.7-1.6-1.7-2.1-3.8-2-1.6.1-4.1-.7-5.7-1.7-1.5-1.1-3.4-2-4.2-2-.9 0-3.3-1.6-5.4-3.5-4.3-4-6.4-4.3-9.1-1.5zm-1.6 17.1c0 1.9-.4 5.6-.9 8.4-.9 4.3-2 6-8.1 12-8.2 8.1-12.4 9.8-22.6 9.2-6.5-.4-6.5-.4-6.2-3.3.2-1.6.8-3.1 1.3-3.2.5-.2.9-1 .9-1.9 0-3.8 12.7-17.3 19.1-20.2 4.9-2.3 13.8-5 15.4-4.6.6.1 1 1.7 1.1 3.6zm30.6 9.9c-.2 1.2 0 2 .5 1.7 1.4-.9 4.6 2.1 4 3.7-.4.9-.1 1.8.4 2.2.8.4.9 5.1.4 14.3l-.6 16.2c.1 1.5-.5 3.2-1.2 3.8-2.4 1.9-11 2.9-16 1.8-4.4-1-14.1-5.9-15.9-8.1-2.3-2.7-2.3-7.4.1-11.1 1.8-2.9 11.7-13.3 19.6-20.7 2.2-2 4.6-4.4 5.3-5.3 1.9-2.2 3.8-1.3 3.4 1.5zm-47.6 34.1c2.4.6 4.4 1.7 4.4 2.4s.5 1.5 1.1 1.7c.7.2.7 3.2.2 9.3l-.8 9-4.9 3.3c-6.2 4.1-8.6 4.7-15.4 3.6l-5.6-.9-.2-7.5c-.1-4.1-.5-10.6-.8-14.3l-.7-6.8 5.9.7c4 .4 6.2.3 6.6-.5.9-1.4 4.5-1.4 10.2 0zm52.8 28.6c.9 9 2.1 16.4 3.9 24 1.4 5.9 1.3 6.3-.4 6.8-1 .4-2.4.3-3.1-.2-.7-.4-2.4-.8-3.8-.9-10.4-.2-11.2-.4-14.2-3.4-1.6-1.7-3.3-3-3.8-3-1.4 0-2.1-3.7-1.4-7.5.3-1.9 1.1-3.5 1.6-3.5s.7-1.3.3-2.9c-.5-2.4.1-3.7 3.6-7.7 6-6.9 7.8-8 14-8.3 2.5-.1 2.6.2 3.3 6.6zm-69.9 14.8c4.2 0 6.3 4.8 6.8 15.6.7 14.5-2.4 18.3-14.9 18.4-5.3 0-7.5-.4-7.9-1.4-.4-1.1-.8-1.1-2-.1-1.3 1.1-1.8 1-3-.6-1.3-1.8-1.4-1.8-2-.2-.9 2.3-4.5 2.4-4.5.2 0-.9 1.3-3.3 2.9-5.3 1.5-2 3.4-4.7 4.1-6.1s2.4-3.9 3.7-5.5c3.1-4 3.3-4.3 6.8-9.5 4.1-6.1 4.8-6.9 6-6.1.6.3 2.3.6 4 .6zm76.1 28.5c4.8 0 5.5.3 6.8 2.8.8 1.5 1.7 5.4 2.1 8.7s1 6.4 1.3 7c.4.5.7 3.6.8 6.8.2 5.2 0 5.9-2.1 6.9-1.9.8-2.7.7-4-.6-.9-.9-2.7-1.6-4.1-1.6-1.3 0-2.4-.5-2.4-1.1s-.9-.9-2-.6c-1 .3-2.1 0-2.3-.6s-2.6-1-5.8-.8c-6.2.2-7.5-.7-8.5-5.6-.4-2.3-.2-3.2 1.1-3.7 1.3-.4 1.5-1.3 1.1-3.1-.4-1.5 0-3.7.8-5.4.9-1.6 1.2-3.1.9-3.5-.6-.6 3.9-4.6 6.6-5.8.9-.4 2.2-.5 2.9-.2.8.2 3.8.4 6.8.4zm-69.5 19c1 .6 1.9 1.7 1.9 2.5s.9 1.9 2 2.5 1.8 1.5 1.5 2 .4 3.1 1.6 5.7c2.1 4.7 3.3 13.1 2 15.1-.3.6-2.4 2.3-4.6 3.8l-4 2.7-7-2.3c-3.8-1.3-7.7-2.9-8.6-3.7-.8-.7-2.2-1.3-3.1-1.3-.8 0-2.5-1.1-3.8-2.5-1.8-1.9-3.1-2.4-5-2-2.1.5-2.9-.1-5.2-3.9-2.8-4.7-5.4-14.5-4.5-16.9.4-1.2 3.1-1.5 13.7-1.5 7.2 0 13.4-.3 13.7-.6 1-1 7.3-.7 9.4.4zm52.4 21.2c1.7 1 3.7 1.8 4.5 1.8s2.8.7 4.4 1.5c1.5.8 4.5 1.5 6.5 1.5l3.6.1-3.5 2.9c-1.9 1.7-4 3-4.8 3-.7 0-2.5.9-4 2-3.4 2.5-12.9 5.9-18.7 6.7-3.8.5-4.5.3-4.5-1.1 0-1-.7-1.6-1.7-1.4-1.1.2-1.9-.5-2.1-1.7-.3-1.1-.9-2.3-1.5-2.7-1.2-.7 2-5.3 7.8-10.9 5.3-5.2 7.7-5.5 14-1.7z"/><g fill="#fff"><path d="M293.587 625.977c-17.788-1.385-27.839-3.027-33.771-5.52-3.094-1.3-6.112-2.364-6.706-2.364-2.629 0-23.406-6.362-27.201-8.329-1.109-.575-5.354-2.354-9.434-3.952s-9.635-4.394-12.346-6.211c-6.421-4.304-22.73-20.934-27.363-27.904-1.997-3.004-4.666-6.227-5.931-7.162-1.84-1.36-2.3-2.312-2.3-4.753 0-1.679-.896-5.257-1.991-7.953s-1.993-5.466-1.994-6.157-.655-2.332-1.452-3.646c-2.421-3.991-3.251-7.3-4.571-18.214-.696-5.754-2.134-14.762-3.195-20.018-1.605-7.949-1.924-11.835-1.895-23.099.019-7.448.398-15.155.841-17.126s1.154-5.735 1.579-8.363 1.122-5.401 1.548-6.162.776-2.255.776-3.322c0-2.504 4.376-15.02 6.772-19.368 1.019-1.85 2.088-4.432 2.375-5.737s1.155-3.197 1.93-4.203c2.563-3.329 6.383-11.3 8.32-17.362 3.579-11.205 3.949-14.199 3.532-28.629l-.393-13.623 4.842-5.985c3.041-3.759 5.589-6.143 6.853-6.409 4.34-.914 5.411-1.806 6.696-5.576 1.223-3.589 1.213-3.879-.184-5.437-2.239-2.497-2.533-3.233-3.375-8.462-.97-6.024.217-13.299 2.923-17.916 2.914-4.972 2.238-10.712-1.261-10.712-2.29 0-3.186-2.442-3.186-8.682 0-5.202-.178-5.782-2.496-8.154-3.834-3.922-6.125-9.737-6.704-17.016l-.507-6.372 3.676-2.274c2.022-1.251 4.027-2.93 4.456-3.731.972-1.815-.3-5.544-1.891-5.544-.614 0-1.56-.533-2.101-1.185-.797-.96-.74-1.279.301-1.678 1.372-.527 1.814-4.305.503-4.305-.43 0-1.006-.896-1.281-1.991-.584-2.327-2.357-2.553-5.08-.646-1.245.872-3.131 1.271-5.359 1.134-4.197-.258-8.546 1.059-11.992 3.633-2.232 1.667-2.589 2.414-2.589 5.419 0 3.871 2.086 6.245 6.302 7.17l2.244.493.388 9.414c.277 6.722.742 9.92 1.627 11.184 1.151 1.643 1.099 1.977-.715 4.651-2.707 3.99-2.256 6.564 1.455 8.306 1.616.758 4.238 3.082 5.829 5.165 2.491 3.263 2.819 4.174 2.368 6.588-.663 3.548-1.696 4.793-3.978 4.793-2.532 0-6.757 4.149-6.757 6.635 0 3.301 1.944 4.516 7.226 4.516 2.597 0 4.722.09 4.722.199-.001.878-2.396 12.433-2.791 13.462-.471 1.227-2.681 2.233-4.961 2.258-1.384.015-4.838-7.124-5.862-12.119-.474-2.309-1.726-6.995-2.783-10.413s-1.922-6.883-1.922-7.7-.283-1.605-.628-1.751c-.685-.289-2.481-5.927-5.356-16.814-1.015-3.845-2.575-8.863-3.466-11.151s-1.834-5.185-2.095-6.436c-.278-1.332-1.121-2.443-2.032-2.682-1.108-.29-1.557-1.096-1.557-2.797 0-1.949-.277-2.317-1.501-1.997-1.269.332-1.572-.178-1.957-3.292a71.47 71.47 0 0 0-1.242-6.871l-2.022-8.605c-.68-2.98-2.488-7.998-4.018-11.151a40.15 40.15 0 0 1-3.672-12.105c-.49-3.505-1.215-7.089-1.612-7.965-1.395-3.079-7.164-37.525-7.603-45.401-.758-13.591 4.156-31.152 12.147-43.412 7.819-11.997 29.64-33.632 40.32-39.977 2.976-1.768 5.41-3.532 5.41-3.92s.813-.706 1.806-.706 3.054-.842 4.58-1.871c6.587-4.444 18.358-6.318 38.617-6.148 16.143.136 21.071.992 35.843 6.232 22.408 7.948 25.439 9.343 25.476 11.73.006.431 1.32.996 2.919 1.255s4.045 1.431 5.438 2.602 2.862 2.13 3.266 2.13c1.124 0 .876 2.375-.26 2.492-.548.056-2.241.146-3.764.199-5.105.179-6.21 6.793-1.91 11.432 2.197 2.37 2.195 4.01-.004 5.306-1.143.674-1.586.634-1.877-.168-.209-.578-1.866-3.266-3.681-5.974-2.799-4.175-3.702-4.962-5.941-5.177-5.424-.521-6.37 3.297-2.579 10.402 2.616 4.902 2.311 6.211-1.802 7.737-3.719 1.38-4.949 1.002-6.359-1.955-1.591-3.336-2.807-3.474-6.111-.694l-2.489 2.094-1.875-1.762c-2.537-2.384-5.146-1.849-7.41 1.518-1.762 2.621-2.082 2.755-6.798 2.836-3.48.06-6.485.74-10.126 2.29-2.848 1.212-6.534 2.539-8.191 2.949-5.549 1.37-7.739 4.031-7.739 9.399 0 1.527-1.558 3.568-5.974 7.83-3.286 3.17-5.974 5.984-5.974 6.253s-.717 1.399-1.593 2.513c-2.08 2.644-2.009 3.856.362 6.227 2.424 2.424 6.917 2.61 10.486.434 1.366-.833 4.193-3.735 6.281-6.449l3.797-4.935 3.028 3.313c3.007 3.29 3.044 3.304 5.428 2.072 1.32-.683 2.946-1.241 3.614-1.241 1.331 0 3.644-3.875 3.644-6.103 0-.772-.907-2.134-2.017-3.026-1.225-.986-2.2-2.773-2.485-4.554-.463-2.9-.432-2.94 3.012-3.875 4.287-1.163 13.227-.526 16.523 1.179 3.729 1.928 7.538 1.587 10.541-.944 3.217-2.712 9.462-4.024 22.879-4.805 10.798-.629 12.081-1.261 12.081-5.954 0-5.14 2.757-6.655 7.264-3.993 1.77 1.045 2.664 1.17 3.707.516 1.723-1.08 2.272-7.041.887-9.629-3.901-7.288 10.002 3.217 17.895 13.523 2.473 3.229 4.497 6.224 4.497 6.655s1.06 2.225 2.355 3.986c3.931 5.346 17.228 44.695 20.017 59.239l2.802 13.939c1.77 8.24 3.15 28.027 2.252 32.296-.6 2.857-1.112 3.599-2.629 3.813-2.492.353-3.337-.621-5.263-6.06-1.479-4.177-1.872-4.625-4.664-5.315-3.737-.923-5.428-.026-6.411 3.4-.537 1.873-.392 2.968.591 4.469.717 1.094 1.303 2.18 1.303 2.415s-3.351.426-7.447.426c-8.517 0-9.198.342-20.26 10.172-5.608 4.983-5.856 5.11-7.347 3.76-.849-.768-1.781-2.156-2.07-3.084s-.926-1.95-1.414-2.272c-1.427-.94-7.253-.697-8.296.346-1.556 1.556-1.167 6.571.637 8.204.876.793 1.593 1.76 1.593 2.149s-1.613 2.432-3.584 4.539-3.584 4.194-3.584 4.638c0 1.661 3.23 4.826 5.359 5.251 1.215.242 4.538-.062 7.386-.676s6.43-1.217 7.96-1.34c2.577-.207 2.895-.535 4.29-4.428.904-2.523 2.381-4.827 3.693-5.761 2.027-1.443 2.366-1.468 4.642-.332 2.942 1.468 4.353.89 8.013-3.278 1.727-1.967 2.378-3.369 2.047-4.411-.447-1.407-.043-1.528 5.097-1.528 3.07 0 5.778.316 6.017.703s-.312 1.652-1.224 2.811c-1.575 2.002-1.591 2.211-.325 4.143 1.802 2.75 6.155 4.481 9.628 3.83l2.76-.518-.611 5.866c-1.121 10.756-.618 45.704.79 54.851.708 4.6 1.508 10.514 1.778 13.142s.974 6.571 1.564 8.762c2.447 9.082 4.513 24.484 5.608 41.817.794 12.562 1.932 25.466 4.496 50.977 2.126 21.156 2.382 26.197 1.984 39.029-.488 15.736-4.496 53.594-5.963 56.336-.486.907-1.42 6.435-2.076 12.283s-1.917 13.141-2.802 16.207-1.609 6.327-1.609 7.248-.988 3.073-2.195 4.782-2.721 4.129-3.364 5.378-4.136 5.491-7.761 9.425-6.592 7.49-6.592 7.901.906 2.118 2.014 3.792c1.826 2.759 2.04 5.684.417 5.684-.322 0-2.309 1.629-4.417 3.62-5.887 5.561-18.511 12.478-28.68 15.714-5.413 1.723-13.351 2.145-24.294 1.294zm-7.955-50.025c12.902-2.781 18.803-4.904 23.407-8.418 1.898-1.448 4.536-2.872 5.864-3.164s3.059-1.243 3.848-2.115 3.482-2.676 5.985-4.01 7.719-5.271 11.592-8.749c9.006-8.088 9.933-10.49 10.107-26.188.108-9.662-.1-11.462-2.051-17.742-1.194-3.844-3.255-9.46-4.58-12.479s-2.41-5.948-2.41-6.508-.899-1.956-1.998-3.103c-2.001-2.089-3.326-5.927-5.626-16.294-1.482-6.681-1.825-23.982-.523-26.39.682-1.262.669-1.904-.055-2.627-.67-.669-1.088-6.875-1.391-20.632-.478-21.735-1.101-24.828-6.312-31.312-1.328-1.653-2.415-3.385-2.415-3.849s-.358-.843-.797-.843-.797-.4-.797-.889-1.836-2.639-4.079-4.779c-2.833-2.702-4.741-3.89-6.245-3.89-2.691 0-11.494-4.284-14.98-7.29-3.783-3.262-5.803-3.528-9.213-1.214-1.615 1.096-5.136 2.354-7.969 2.848-6.49 1.13-13.361 3.499-17.946 6.185-4.495 2.634-17.072 14.672-19.344 18.514-.93 1.574-2.524 4.115-3.541 5.649-3.304 4.98-5.447 25.784-3.488 33.852.426 1.752 1.01 7.04 1.298 11.75.434 7.092.314 8.804-.699 9.956-.672.766-1.471 2.208-1.775 3.205s-1.439 2.394-2.521 3.103l-1.968 1.29 2.164 2.258c2.753 2.874 2.801 2.77-7.952 17.285-9.428 12.727-10.955 15.631-12.44 23.654-.566 3.055-1.693 7.359-2.506 9.564-1.527 4.142-1.573 9.179-.109 11.949.455.861 1.24 3.572 1.744 6.022 1.156 5.621 3.743 10.445 10.949 20.419 6.498 8.993 9.131 11.509 18.316 17.496 14.628 9.535 30.217 11.848 50.455 7.485zM245.47 296.77c5.367-2.457 9.89-6.617 12.181-11.205 3.734-7.477 1.219-20.755-5.412-28.574-1.169-1.378-2.591-3.581-3.16-4.895-2.196-5.069-9.67-13.669-15.112-17.387-4.477-3.059-6.077-3.721-8.995-3.721-4.323 0-5.461 1.015-5.461 4.873 0 3.959.672 5.481 2.418 5.481 3.505 0 15.901 10.498 15.901 13.466 0 .448.672 1.175 1.494 1.615 2.215 1.185 6.265 7.918 7.158 11.898.429 1.915 1.167 3.868 1.64 4.341 1.212 1.212 1.067 4.738-.304 7.38-2.048 3.948-9.731 7.458-11.183 5.108-.825-1.335-2.557-.908-6.523 1.608-7.096 4.5-7.8 10.464-1.442 12.205 3.308.906 12.71-.322 16.798-2.193zm-63.657-72.232c2.967-1.698 4.906-2.318 6.215-1.99 4.664 1.171 8.401-2.825 11.844-12.668 6.534-18.676 5.553-32.235-3.27-45.194-5.416-7.955-25.225-13.8-36.431-10.749-4.707 1.282-6.771 3.892-11.133 14.084-4.407 10.296-5.437 15.276-4.787 23.141.617 7.468 2.782 16.867 4.769 20.71 1.684 3.257 6.683 8.76 7.957 8.76.551 0 2.583.884 4.516 1.964 3.662 2.047 10.851 4.266 14.113 4.356 1.042.029 3.835-1.058 6.207-2.415zm115.39-10.694c2.611-.668 6.281-2.28 8.156-3.584s4.115-2.371 4.978-2.371c1.059 0 1.57-.539 1.57-1.656 0-.911 2.312-4.307 5.138-7.547 4.253-4.876 5.438-6.889 6.881-11.686 1.569-5.214 1.652-6.339.83-11.223-.503-2.986-1.449-6.462-2.102-7.726s-1.188-2.984-1.188-3.823-.668-2.38-1.483-3.425-1.714-2.635-1.995-3.533c-.768-2.456-5.954-7.095-10.618-9.498-3.305-1.703-5.644-2.223-11.606-2.579-6.968-.416-7.799-.296-12.44 1.786-3.882 1.742-6.359 3.713-11.291 8.984-8.432 9.012-10.549 13.425-10.961 22.846l-.317 7.251 4.046 8.326c5.77 11.873 8.7 15.517 14.7 18.283 5.748 2.649 10.662 2.976 17.703 1.175z"/><path d="M172.517 214.87c-5.256-2.315-9.479-5.678-12.009-9.564l-2.726-4.187V189.57c0-10.531.166-11.887 1.882-15.371 1.035-2.102 3.009-5.017 4.388-6.479 2.494-2.644 2.534-2.655 8.473-2.257 3.282.22 6.308.716 6.724 1.102s1.589.702 2.606.702c1.165 0 3.407 1.547 6.059 4.182 3.702 3.677 4.341 4.802 5.295 9.319 1.27 6.012.433 12.648-2.75 21.801-2.111 6.07-4.642 9.235-9.347 11.687-3.397 1.77-5.608 1.928-8.593.614zm-4.142-16.049c1.183-.607 4.215-1.529 6.739-2.049 5.582-1.15 9.035-3.867 10.142-7.978 1.689-6.272-1.58-9.788-9.516-10.237-5.342-.302-5.471-.261-8.831 2.765-1.875 1.689-4.087 4.598-4.915 6.464-1.346 3.033-1.385 3.624-.36 5.576a55.31 55.31 0 0 1 2.015 4.373c.986 2.485 1.687 2.646 4.726 1.087zm119.068 3.766c-3.793-.808-11.105-10.261-12.703-16.423-1.281-4.937-1.37-10.029-.228-13.032 1.235-3.248 9.246-12.736 12.398-14.684 2.389-1.476 3.687-1.653 10.369-1.412l7.639.275 3.434 3.793c8.095 8.943 8.643 22.81 1.169 29.562-1.757 1.587-3.919 2.886-4.803 2.886-.914 0-3.422 1.903-5.807 4.404-4.273 4.483-6.998 5.583-11.468 4.63zm12.582-21.281c1.452-3.197 2.025-10.22 1.044-12.779-.266-.693-1.354-1.26-2.418-1.26s-2.815-.577-3.891-1.282c-2.534-1.66-3.764-1.119-6.716 2.958-2.747 3.793-2.926 5.503-1.199 11.444l1.222 4.205h10.467zm-.977 252.816c-4.57-1.381-12.805-5.975-14.657-8.176-4.317-5.13-2.063-9.264 13.623-24.986 6.774-6.79 12.671-12.126 13.104-11.858s.788 1.422.788 2.564.226 1.851.503 1.574c1.025-1.025 3.312 1.072 3.929 3.601.84 3.441.398 33.285-.518 34.996-1.274 2.38-11.741 3.807-16.774 2.286zm-54.596-25.217c-.274-.714.049-2.417.717-3.783l2.1-4.677c.486-1.206 3.818-5.248 7.403-8.982 4.738-4.936 7.843-7.419 11.367-9.092 5.19-2.464 13.63-4.936 14.361-4.205.771.771.471 9.207-.445 12.506-1.156 4.166-11.407 14.787-16.925 17.536-3.366 1.677-5.128 1.996-11.043 1.996-5.771 0-7.127-.234-7.536-1.299zm6.92 45.388l-4.507-.718-2.516-.405-.493-7.744-.947-13.861-.454-6.117 5.939.449c4.014.304 6.12.156 6.497-.454 1.485-2.402 11.742-.099 14.06 3.158 1.501 2.108 1.564 2.849.883 10.375-.813 8.977-.823 8.993-8.107 12.928-3.897 2.105-7.242 2.877-10.355 2.388zm-30.705 46.649c-.553-.894 2.237-5.269 14.346-22.5l7.181-10.217 3.594.505c2.086.293 4.152 1.158 4.923 2.062 1.866 2.185 3.051 8.45 3.05 16.115-.002 11.635-3.258 14.892-14.886 14.894-3.84.001-6.744-.355-7.059-.865-.294-.476-1.288-.669-2.208-.428-.974.255-2.277-.109-3.119-.871-1.35-1.222-1.527-1.193-2.663.428-1.34 1.912-2.345 2.192-3.157.877zm96.019-17.459c-1.095-.351-4.377-.673-7.292-.717-4.84-.073-5.592-.323-8.647-2.875l-4.584-3.488c-1.454-.814-1.648-7.706-.257-9.098.477-.477.867-2.197.867-3.822 0-2.235.751-3.895 3.079-6.81 5.528-6.92 8.728-9.032 13.684-9.032 2.713 0 2.585-.386 4.38 13.136.697 5.254 1.776 11.705 2.397 14.337 2.102 8.91 1.61 10.046-3.627 8.369zm10.355 44.046c-6.92-3.109-11.172-4.221-16.141-4.221-3.725 0-4.687-.298-5.718-1.77-1.597-2.281-1.588-5.711.019-7.045.762-.632 1.113-1.808.889-2.979-.597-3.123 2.214-9.865 5.128-12.3 2.171-1.814 3.379-2.189 7.032-2.182 11.035.022 11.815.712 14.004 12.398 3.391 18.105 2.407 21.522-5.212 18.099zm-36.625 27.668c-.477-.892-1.366-1.621-1.976-1.621s-1.666-1.118-2.348-2.485c-1.148-2.302-1.13-2.639.255-4.58.822-1.152 3.657-4.156 6.299-6.675 5.376-5.124 7.077-5.545 12.079-2.993 4.189 2.137 14.852 5.573 17.438 5.619l2.089.037-2.39 1.884c-5.945 4.687-19.109 10.356-27.636 11.901-2.462.446-3.086.268-3.811-1.088zm-42.23-7.509c-6.57-2.375-12.248-5.11-16.402-7.899-2.005-1.346-3.78-1.99-4.61-1.671-1.959.752-3.978-1.439-6.495-7.048-1.477-3.291-2.225-6.348-2.28-9.314l-.082-4.415 15.532-.952c8.543-.524 16.473-.775 17.622-.559 2.63.494 7.158 6.021 8.409 10.262 3.045 10.325 3.463 12.209 3.262 14.714-.181 2.266-.935 3.301-4.204 5.771-2.19 1.655-4.341 3.004-4.779 2.997s-3.126-.855-5.974-1.884z"/></g></svg>