<?xml version="1.0" encoding="UTF-8" standalone="no"?>
<svg
   xmlns:dc="http://purl.org/dc/elements/1.1/"
   xmlns:cc="http://creativecommons.org/ns#"
   xmlns:rdf="http://www.w3.org/1999/02/22-rdf-syntax-ns#"
   xmlns:svg="http://www.w3.org/2000/svg"
   xmlns="http://www.w3.org/2000/svg"
   xmlns:sodipodi="http://sodipodi.sourceforge.net/DTD/sodipodi-0.dtd"
   xmlns:inkscape="http://www.inkscape.org/namespaces/inkscape"
   version="1.0"
   width="490.000000pt"
   height="685.000000pt"
   viewBox="0 0 490.000000 685.000000"
   preserveAspectRatio="xMidYMid meet"
   id="svg20"
   sodipodi:docname="face15.svg"
   inkscape:version="1.0.1 (3bc2e813f5, 2020-09-07)">
  <defs
     id="defs24" />
  <sodipodi:namedview
     pagecolor="#ffffff"
     bordercolor="#666666"
     borderopacity="1"
     objecttolerance="10"
     gridtolerance="10"
     guidetolerance="10"
     inkscape:pageopacity="0"
     inkscape:pageshadow="2"
     inkscape:window-width="1920"
     inkscape:window-height="1027"
     id="namedview22"
     showgrid="false"
     inkscape:zoom="0.94160584"
     inkscape:cx="326.66667"
     inkscape:cy="456.66667"
     inkscape:window-x="1912"
     inkscape:window-y="-8"
     inkscape:window-maximized="1"
     inkscape:current-layer="svg20" />
  <metadata
     id="metadata2">
Created by potrace 1.16, written by Peter Selinger 2001-2019
<rdf:RDF>
  <cc:Work
     rdf:about="">
    <dc:format>image/svg+xml</dc:format>
    <dc:type
       rdf:resource="http://purl.org/dc/dcmitype/StillImage" />
  </cc:Work>
</rdf:RDF>
</metadata>
  <g
     transform="translate(0.000000,685.000000) scale(0.100000,-0.100000)"
     fill="#000000"
     stroke="none"
     id="g18">
    <path
       d="M2145 6318 c-112 -7 -204 -23 -219 -38 -6 -6 -17 -10 -25 -10 -27 0 -164 -72 -221 -116 -62 -48 -233 -213 -329 -319 -71 -77 -165 -247 -177 -319 -3 -22 -13 -54 -21 -69 -14 -29 -21 -256 -8 -277 4 -6 8 -32 10 -58 9 -110 32 -230 54 -270 6 -11 11 -28 11 -37 0 -9 6 -31 14 -48 8 -18 24 -75 35 -127 12 -52 27 -106 33 -120 16 -35 37 -111 38 -136 0 -12 6 -24 14 -27 7 -3 16 -25 20 -48 4 -24 11 -48 15 -54 5 -5 21 -46 36 -90 15 -44 34 -88 42 -97 9 -10 13 -24 10 -32 -4 -9 -2 -18 3 -21 6 -4 10 -16 10 -29 0 -12 3 -26 7 -30 9 -9 33 -77 33 -96 0 -8 9 -44 19 -80 10 -36 29 -101 42 -145 12 -44 28 -87 35 -95 13 -17 25 -62 27 -102 1 -16 5 -28 8 -28 14 0 19 -52 7 -67 -10 -12 -9 -17 3 -27 32 -24 26 -307 -8 -371 -5 -11 -13 -35 -17 -54 -3 -18 -29 -81 -57 -140 -94 -193 -100 -211 -119 -299 -10 -48 -22 -98 -28 -112 -5 -14 -15 -41 -21 -61 -13 -43 -15 -284 -2 -360 6 -30 12 -79 14 -109 3 -30 10 -77 16 -104 7 -27 14 -70 17 -95 2 -25 8 -55 13 -66 4 -11 18 -54 31 -95 23 -77 40 -123 72 -197 10 -23 18 -45 18 -49 0 -4 11 -21 24 -38 13 -17 26 -41 30 -53 4 -12 16 -25 27 -28 10 -4 19 -13 19 -21 0 -28 67 -111 160 -197 72 -67 116 -99 185 -133 49 -24 96 -44 103 -44 8 0 12 -6 9 -15 -5 -11 0 -13 23 -8 17 3 36 1 42 -4 7 -5 49 -20 93 -32 44 -13 85 -29 90 -35 6 -7 35 -16 65 -20 30 -4 59 -11 65 -15 5 -5 24 -11 40 -15 17 -4 44 -14 60 -21 50 -22 545 -44 584 -26 9 5 26 13 37 19 12 6 38 14 57 17 20 4 43 16 53 26 9 10 22 19 27 19 6 0 25 11 42 25 18 13 35 21 39 18 3 -3 8 2 12 11 4 9 19 23 35 31 16 9 45 34 66 57 21 24 55 61 77 83 37 38 38 42 33 93 -5 43 -2 60 16 90 12 20 26 42 32 47 46 42 96 209 100 335 1 47 9 112 18 145 9 33 19 86 21 118 3 32 7 61 10 65 2 4 7 61 11 127 3 66 10 154 15 195 11 91 14 176 6 210 -4 14 -7 67 -7 118 -1 53 -5 92 -11 92 -6 0 -7 7 -4 16 3 9 -1 62 -9 117 -21 146 -35 263 -39 332 -2 33 -11 101 -20 150 -9 50 -18 137 -20 195 -2 64 -10 119 -19 142 -8 20 -13 39 -10 42 3 2 -2 15 -11 28 -20 29 -21 76 0 99 12 13 13 22 5 37 -6 11 -12 39 -15 63 -2 24 -9 78 -15 119 -15 100 -7 406 13 493 8 38 12 83 9 101 -3 18 0 57 6 87 18 84 14 212 -8 282 -5 17 -15 66 -21 107 -6 41 -17 98 -25 125 -7 28 -18 77 -25 110 -6 33 -13 71 -16 85 -6 27 -50 145 -64 172 -14 26 -50 135 -50 153 0 8 -4 23 -9 33 -5 9 -22 44 -37 77 -32 68 -97 158 -151 207 -20 18 -60 56 -89 83 -28 28 -67 62 -86 78 -18 15 -55 48 -83 72 -27 25 -54 45 -59 45 -4 0 -24 14 -43 30 -18 17 -40 30 -48 30 -8 0 -15 5 -15 10 0 6 -8 10 -19 10 -10 0 -29 8 -42 19 -13 10 -42 21 -64 25 -38 7 -114 33 -182 62 -17 8 -37 14 -44 14 -7 0 -38 9 -68 20 -63 22 -218 30 -386 18z m285 -112 c45 -4 79 -10 98 -15 1 -1 4 -1 7 -1 3 0 19 -7 35 -15 17 -9 30 -13 30 -10 0 3 24 -4 53 -16 28 -11 72 -27 97 -35 25 -9 59 -22 75 -29 17 -7 44 -18 62 -25 22 -8 30 -17 26 -27 -4 -10 0 -14 13 -12 26 3 56 -11 72 -33 7 -10 20 -18 28 -18 16 0 18 -9 5 -29 -6 -9 -18 -11 -39 -6 -24 5 -33 2 -41 -14 -16 -30 -9 -71 16 -91 25 -20 29 -40 11 -58 -15 -15 -38 -16 -38 0 0 6 -10 25 -23 42 -13 17 -26 38 -29 47 -7 19 -50 29 -72 17 -19 -11 -12 -61 15 -100 28 -40 24 -62 -14 -76 -52 -19 -68 -15 -80 18 -14 36 -20 37 -54 5 -27 -24 -27 -24 -45 -5 -29 31 -57 25 -74 -15 -16 -38 -17 -39 -42 -26 -21 11 -103 -7 -152 -34 -19 -10 -47 -20 -62 -21 -40 -2 -69 -35 -67 -75 2 -29 -5 -42 -51 -86 -29 -29 -57 -53 -62 -53 -4 0 -8 -6 -8 -14 0 -7 -7 -19 -15 -26 -40 -33 3 -86 61 -77 42 7 65 25 106 85 16 23 34 42 41 42 7 0 20 -14 29 -30 17 -30 41 -39 53 -20 3 6 16 10 28 10 17 0 25 9 33 36 11 32 10 37 -7 41 -19 5 -35 37 -31 61 2 6 -3 12 -10 12 -7 0 -2 7 10 16 12 8 26 13 31 9 5 -3 12 -1 16 4 8 14 137 2 156 -15 26 -23 78 -18 101 11 11 14 23 23 27 21 4 -3 43 4 87 15 58 15 94 18 137 13 73 -8 97 9 97 67 0 33 4 40 25 45 17 4 32 1 45 -11 32 -29 55 -16 58 33 2 25 -1 42 -7 42 -6 0 -11 11 -11 25 0 31 23 24 66 -22 17 -18 36 -33 42 -33 14 0 132 -146 132 -164 0 -8 11 -27 24 -41 13 -14 26 -36 29 -48 5 -23 24 -77 38 -112 20 -47 32 -81 34 -95 2 -8 15 -49 29 -90 46 -135 67 -214 78 -295 6 -44 14 -89 19 -100 18 -46 32 -286 19 -334 -5 -19 -13 -25 -35 -25 -25 0 -30 6 -43 45 -8 24 -16 49 -18 56 -4 17 -62 27 -79 13 -17 -14 -20 -66 -5 -75 6 -3 10 -13 10 -20 0 -12 -12 -13 -59 -9 -33 4 -71 4 -86 0 -14 -4 -65 -41 -112 -83 l-86 -76 -18 24 c-10 13 -19 29 -19 35 0 24 -67 33 -88 12 -19 -19 -15 -66 8 -78 28 -15 25 -26 -21 -69 -36 -35 -39 -41 -28 -59 24 -38 51 -45 107 -29 28 9 64 14 79 12 24 -3 31 2 43 28 8 18 14 37 15 44 0 17 56 58 63 46 4 -6 17 -13 29 -17 17 -6 29 1 57 31 24 26 31 42 25 50 -6 6 -6 13 -2 16 7 4 94 3 116 -1 13 -3 7 -35 -9 -47 -15 -10 -14 -14 9 -39 14 -15 31 -25 36 -21 6 3 11 2 11 -4 0 -6 11 -6 32 0 17 5 33 8 34 6 2 -1 -1 -35 -6 -75 -17 -131 -11 -439 11 -542 5 -25 11 -75 14 -111 2 -36 9 -78 15 -94 6 -15 12 -42 15 -61 2 -18 8 -50 14 -71 8 -32 30 -248 29 -293 -1 -37 25 -331 43 -494 39 -364 38 -394 -26 -930 -3 -22 -9 -44 -14 -50 -5 -6 -12 -45 -15 -86 -9 -111 -16 -149 -37 -214 -10 -32 -16 -62 -14 -66 3 -5 -6 -22 -20 -38 -14 -16 -25 -33 -25 -36 0 -12 -81 -116 -90 -116 -5 0 -21 -16 -36 -35 l-27 -36 21 -29 c30 -40 28 -55 -13 -80 -19 -12 -35 -26 -35 -30 0 -20 -158 -109 -257 -145 -82 -30 -139 -31 -377 -9 -149 15 -179 21 -234 46 -35 17 -66 28 -69 25 -3 -4 -28 3 -57 13 -28 11 -61 20 -72 20 -12 0 -35 7 -50 15 -16 8 -36 15 -44 15 -8 0 -24 7 -34 15 -11 8 -25 15 -32 15 -7 0 -34 10 -61 22 -26 12 -50 22 -53 23 -30 10 -58 26 -69 39 -7 9 -19 16 -25 16 -25 0 -249 232 -270 280 -15 35 -48 70 -64 70 -10 0 -12 7 -9 21 6 21 -4 60 -29 116 -8 17 -14 39 -14 49 0 9 -6 25 -14 33 -21 25 -36 80 -41 151 -5 64 -32 231 -42 260 -24 71 -21 379 5 414 5 6 9 31 10 55 1 24 6 49 12 55 5 5 10 24 10 42 0 31 48 159 75 201 8 12 15 31 15 42 0 11 11 33 25 49 14 17 25 35 25 42 0 6 9 23 19 36 11 14 22 42 26 64 4 22 11 42 16 46 5 3 9 20 9 38 0 17 4 36 9 41 13 13 16 152 7 246 -8 74 -8 76 21 105 16 16 39 44 52 62 12 18 31 32 42 32 29 0 59 18 59 35 0 9 6 24 12 35 10 16 9 22 -6 33 -49 36 -53 206 -5 270 13 17 22 42 21 55 -2 28 -28 56 -42 47 -17 -10 -31 44 -24 95 5 41 3 49 -18 66 -43 35 -67 90 -74 168 l-6 74 47 32 c31 21 44 37 41 47 -3 8 -6 19 -6 24 0 5 -6 9 -14 9 -7 0 -19 7 -26 15 -10 12 -9 16 4 21 17 7 22 34 6 34 -5 0 -12 11 -16 24 -5 22 -9 24 -30 14 -13 -6 -24 -15 -24 -21 0 -5 -8 -6 -17 -2 -49 21 -156 -19 -170 -62 -14 -41 12 -82 57 -89 l35 -6 -1 -100 c0 -74 3 -101 13 -105 14 -6 18 -43 4 -43 -5 0 -14 -14 -21 -30 -14 -34 -1 -60 31 -60 9 0 28 -15 40 -32 13 -18 27 -34 31 -36 13 -6 9 -77 -4 -90 -7 -7 -19 -12 -29 -12 -27 0 -69 -39 -69 -65 0 -32 33 -49 83 -42 l39 5 -6 -36 c-16 -93 -19 -108 -28 -119 -13 -16 -68 -17 -68 -3 0 6 -9 23 -19 38 -11 15 -22 50 -26 77 -4 28 -13 65 -21 84 -8 18 -14 42 -14 52 0 11 -4 19 -9 19 -5 0 -7 9 -4 20 3 11 0 20 -6 20 -6 0 -11 11 -11 25 0 14 -9 44 -19 65 -11 22 -22 63 -26 92 -4 29 -15 68 -26 86 -10 18 -19 43 -19 55 -1 25 -24 60 -33 50 -6 -6 -11 21 -8 40 1 5 -8 6 -19 2 -18 -6 -20 -3 -14 19 3 15 2 32 -3 39 -5 6 -10 25 -11 40 -1 16 -5 34 -9 40 -5 7 -9 21 -10 32 -3 41 -24 110 -36 120 -18 15 -47 115 -47 163 0 22 -4 43 -9 46 -8 5 -13 25 -26 111 -2 17 -9 55 -15 85 -47 249 -51 307 -31 400 21 96 34 145 41 155 4 6 14 30 23 55 27 73 75 139 187 258 120 128 224 218 281 243 21 10 39 23 39 29 0 5 10 10 23 10 13 0 32 8 43 18 25 23 107 49 161 50 24 1 49 5 57 9 15 8 210 8 306 -1z"
       id="path4" />
    <path
       d="M2870 5391 c-37 -12 -86 -38 -102 -55 -95 -99 -133 -150 -144 -193 -17 -64 -17 -154 0 -178 7 -11 17 -31 21 -45 11 -38 74 -138 103 -166 15 -13 34 -24 42 -24 9 0 26 -7 39 -16 43 -31 201 3 241 52 8 8 21 13 31 11 12 -3 15 0 12 13 -3 12 13 36 49 71 39 38 58 67 67 99 7 25 16 56 20 70 4 14 1 44 -6 68 -6 23 -10 42 -7 42 3 0 -2 10 -10 22 -9 12 -16 32 -16 44 0 12 -7 27 -15 34 -8 7 -15 19 -15 27 0 17 -74 93 -91 93 -7 0 -20 7 -29 15 -19 18 -152 29 -190 16z m219 -149 c67 -72 85 -201 37 -274 -20 -30 -58 -58 -80 -58 -15 0 -40 -23 -74 -68 -14 -19 -27 -24 -66 -24 -39 0 -54 6 -77 28 -16 15 -27 29 -25 31 2 3 -8 17 -24 33 -44 45 -63 171 -33 226 21 38 92 119 120 136 22 14 45 17 106 15 77 -4 78 -4 116 -45z"
       id="path6" />
    <path
       d="M2890 5168 c-36 -45 -41 -64 -25 -95 8 -15 15 -39 15 -52 0 -20 4 -22 23 -16 29 9 39 9 60 0 13 -6 20 1 33 30 32 76 21 155 -18 140 -9 -4 -22 1 -31 9 -22 22 -28 20 -57 -16z"
       id="path8" />
    <path
       d="M1621 5310 c-14 -6 -31 -8 -38 -6 -28 11 -125 -192 -138 -289 -7 -58 14 -203 37 -254 26 -59 67 -111 86 -111 8 0 23 -6 31 -13 20 -17 95 -44 143 -50 30 -5 44 -1 65 17 32 26 70 38 79 25 3 -5 11 -6 17 -2 7 4 16 8 22 8 13 0 55 64 61 94 3 14 10 35 16 46 6 11 13 29 14 40 2 11 8 40 15 65 11 47 6 177 -9 207 -5 10 -20 40 -33 68 -22 46 -54 84 -71 85 -5 0 -17 9 -28 20 -11 11 -29 20 -40 20 -12 0 -31 7 -44 15 -29 19 -152 29 -185 15z m73 -109 c3 -5 25 -6 50 -4 26 3 46 1 50 -6 4 -6 17 -11 30 -11 30 0 106 -76 106 -106 0 -13 4 -34 10 -48 20 -55 -31 -251 -77 -291 -15 -13 -32 -25 -37 -25 -5 0 -17 -7 -27 -16 -15 -13 -23 -14 -54 -4 -65 21 -125 61 -131 86 -3 13 -10 24 -14 24 -33 0 -45 184 -19 280 20 73 94 152 113 121z"
       id="path10" />
    <path
       d="M1710 5062 c-58 -25 -119 -124 -89 -143 7 -4 13 -16 14 -26 2 -38 14 -44 47 -27 17 9 46 18 64 19 89 9 139 100 85 156 -17 18 -97 31 -121 21z"
       id="path12" />
    <path
       d="M2209 4527 c-11 -8 -14 -23 -11 -49 3 -32 8 -38 28 -38 13 0 24 -4 24 -8 0 -4 20 -18 45 -30 27 -13 49 -32 55 -47 5 -14 14 -25 20 -25 5 0 10 -7 10 -15 0 -7 6 -18 13 -22 30 -18 77 -97 77 -128 0 -20 6 -35 15 -38 15 -6 17 -67 3 -67 -5 0 -8 -6 -8 -13 0 -18 -27 -41 -68 -57 -29 -11 -34 -11 -45 4 -12 16 -15 15 -50 -8 -21 -14 -41 -26 -45 -26 -4 0 -13 -15 -20 -32 -11 -30 -10 -35 9 -51 29 -24 128 -21 189 6 46 21 110 73 110 91 0 5 6 17 14 25 17 19 23 91 12 146 -9 43 -60 135 -82 148 -8 4 -14 16 -14 26 0 9 -15 35 -33 57 -18 21 -40 50 -49 64 -8 14 -28 32 -44 40 -16 8 -40 25 -53 37 -26 25 -76 30 -102 10z"
       id="path14" />
    <path
       d="M2832 3210 c-11 -11 -36 -21 -62 -24 -73 -8 -162 -39 -210 -72 -74 -52 -175 -157 -195 -202 -10 -23 -22 -42 -26 -42 -10 0 -18 -42 -33 -162 -6 -59 -9 -113 -5 -120 10 -18 29 -159 29 -214 0 -30 -5 -46 -15 -50 -8 -4 -15 -14 -15 -25 0 -10 -10 -25 -22 -34 l-23 -16 23 -19 c12 -10 22 -21 22 -24 0 -12 -56 -92 -127 -183 -40 -51 -73 -99 -73 -107 0 -8 -4 -17 -9 -20 -4 -3 -14 -40 -20 -83 -7 -43 -21 -92 -31 -110 -12 -21 -15 -35 -9 -39 6 -3 8 -13 5 -21 -3 -8 1 -24 9 -36 8 -12 15 -34 15 -49 0 -15 4 -29 10 -33 5 -3 7 -12 4 -19 -3 -7 2 -19 11 -26 8 -7 15 -20 15 -30 0 -10 7 -24 16 -31 9 -7 35 -43 59 -79 24 -36 60 -81 82 -101 39 -36 167 -119 184 -119 5 0 17 -4 27 -9 55 -28 235 -53 282 -39 14 4 52 12 85 18 144 27 229 59 267 99 10 12 29 21 42 21 13 0 31 10 42 21 10 12 26 24 34 28 46 19 131 80 150 109 13 17 27 32 32 32 19 0 35 27 49 85 16 68 18 230 2 260 -6 11 -15 43 -21 71 -6 28 -23 73 -37 99 -14 27 -25 56 -25 66 0 10 -10 25 -22 34 -14 9 -23 27 -24 44 -1 16 -9 44 -18 62 -26 52 -39 297 -17 323 9 11 9 15 -1 18 -10 4 -12 45 -11 184 2 108 -2 192 -8 212 -6 18 -12 39 -13 45 -6 26 -32 73 -48 85 -10 7 -18 20 -18 28 0 8 -4 14 -10 14 -5 0 -10 7 -10 15 0 9 -10 20 -23 26 -13 6 -27 20 -33 32 -7 16 -17 21 -38 20 -16 -1 -41 7 -57 17 -15 11 -34 20 -42 20 -9 0 -33 16 -54 35 -43 40 -64 43 -91 15z m-16 -171 c0 -19 -4 -56 -9 -84 -9 -43 -20 -60 -81 -120 -82 -81 -124 -98 -226 -92 -65 4 -65 4 -62 33 2 16 8 31 13 32 5 2 9 10 9 19 0 38 127 173 191 202 49 23 138 50 154 46 6 -1 10 -17 11 -36z m306 -99 c-2 -12 0 -20 5 -17 14 9 46 -21 40 -37 -4 -9 -1 -18 4 -22 8 -4 9 -51 4 -143 -3 -75 -6 -148 -6 -162 1 -15 -5 -32 -12 -38 -24 -19 -110 -29 -160 -18 -44 10 -141 59 -159 81 -23 27 -23 74 1 111 18 29 117 133 196 207 22 20 46 44 53 53 19 22 38 13 34 -15z m-476 -341 c24 -6 44 -17 44 -24 0 -7 5 -15 11 -17 7 -2 7 -32 2 -93 l-8 -90 -49 -33 c-62 -41 -86 -47 -154 -36 l-56 9 -2 75 c-1 41 -5 106 -8 143 l-7 68 59 -7 c40 -4 62 -3 66 5 9 14 45 14 102 0z m528 -286 c9 -90 21 -164 39 -240 14 -59 13 -63 -4 -68 -10 -4 -24 -3 -31 2 -7 4 -24 8 -38 9 -104 2 -112 4 -142 34 -16 17 -33 30 -38 30 -14 0 -21 37 -14 75 3 19 11 35 16 35 5 0 7 13 3 29 -5 24 1 37 36 77 60 69 78 80 140 83 25 1 26 -2 33 -66z m-699 -148 c42 0 63 -48 68 -156 7 -145 -24 -183 -149 -184 -53 0 -75 4 -79 14 -4 11 -8 11 -20 1 -13 -11 -18 -10 -30 6 -13 18 -14 18 -20 2 -9 -23 -45 -24 -45 -2 0 9 13 33 29 53 15 20 34 47 41 61 7 14 24 39 37 55 31 40 33 43 68 95 41 61 48 69 60 61 6 -3 23 -6 40 -6z m761 -285 c48 0 55 -3 68 -28 8 -15 17 -54 21 -87 4 -33 10 -64 13 -70 4 -5 7 -36 8 -68 2 -52 0 -59 -21 -69 -19 -8 -27 -7 -40 6 -9 9 -27 16 -41 16 -13 0 -24 5 -24 11 0 6 -9 9 -20 6 -10 -3 -21 0 -23 6 -2 6 -26 10 -58 8 -62 -2 -75 7 -85 56 -4 23 -2 32 11 37 13 4 15 13 11 31 -4 15 0 37 8 54 9 16 12 31 9 35 -6 6 39 46 66 58 9 4 22 5 29 2 8 -2 38 -4 68 -4z m-695 -190 c10 -6 19 -17 19 -25 0 -8 9 -19 20 -25 11 -6 18 -15 15 -20 -3 -5 4 -31 16 -57 21 -47 33 -131 20 -151 -3 -6 -24 -23 -46 -38 l-40 -27 -70 23 c-38 13 -77 29 -86 37 -8 7 -22 13 -31 13 -8 0 -25 11 -38 25 -18 19 -31 24 -50 20 -21 -5 -29 1 -52 39 -28 47 -54 145 -45 169 4 12 31 15 137 15 72 0 134 3 137 6 10 10 73 7 94 -4z m524 -212 c17 -10 37 -18 45 -18 8 0 28 -7 44 -15 15 -8 45 -15 65 -15 l36 -1 -35 -29 c-19 -17 -40 -30 -48 -30 -7 0 -25 -9 -40 -20 -34 -25 -129 -59 -187 -67 -38 -5 -45 -3 -45 11 0 10 -7 16 -17 14 -11 -2 -19 5 -21 17 -3 11 -9 23 -15 27 -12 7 20 53 78 109 53 52 77 55 140 17z"
       id="path16" />
  </g>
  <path
     style="fill:#ffffff;stroke-width:0"
     d="m 391.44961,834.63558 c -23.71758,-1.84615 -37.11842,-4.03648 -45.02787,-7.35968 -4.12592,-1.73353 -8.14936,-3.15187 -8.94097,-3.15187 -3.50525,0 -31.20861,-8.48271 -36.26843,-11.10531 -1.479,-0.7666 -7.13924,-3.13808 -12.57831,-5.26996 -5.43908,-2.13189 -12.84664,-5.85823 -16.46124,-8.28075 -8.56186,-5.73819 -30.30621,-27.91223 -36.484,-37.20495 -2.66264,-4.00519 -6.22142,-8.30261 -7.90839,-9.54984 -2.45344,-1.81392 -3.06722,-3.08204 -3.06722,-6.33715 0,-2.23819 -1.19477,-7.00978 -2.65504,-10.60353 -1.46027,-3.59374 -2.65683,-7.28803 -2.65901,-8.20952 -0.002,-0.92148 -0.87352,-3.10914 -1.93631,-4.86147 -3.22736,-5.32129 -4.33456,-9.73267 -6.09516,-24.28467 -0.92813,-7.67134 -2.8452,-19.682 -4.26014,-26.69035 -2.13982,-10.5987 -2.56485,-15.78017 -2.52638,-30.79845 0.0254,-9.93079 0.53006,-20.20657 1.12139,-22.83506 0.59133,-2.62849 1.5387,-7.64651 2.10526,-11.15116 0.56656,-3.50465 1.49565,-7.20194 2.06465,-8.21621 0.56899,-1.01427 1.03454,-3.00729 1.03454,-4.42894 0,-3.33828 5.83512,-20.02644 9.02972,-25.82456 1.35917,-2.46686 2.784,-5.90924 3.16627,-7.64974 0.38228,-1.74049 1.54045,-4.26226 2.57372,-5.60393 3.41787,-4.43801 8.51109,-15.06632 11.09316,-23.14871 4.77266,-14.9394 5.26528,-18.93202 4.70982,-38.17264 l -0.52437,-18.1637 6.45552,-7.9802 c 4.05469,-5.01234 7.45265,-8.1902 9.13669,-8.54486 5.78666,-1.2187 7.21512,-2.40828 8.92787,-7.43494 1.63068,-4.78578 1.61761,-5.17163 -0.24565,-7.2494 -2.98579,-3.32953 -3.37732,-4.31116 -4.50001,-11.28244 -1.29345,-8.03158 0.28895,-17.73223 3.89677,-23.88851 3.8847,-6.62873 2.98396,-14.28331 -1.68075,-14.28331 -3.05325,0 -4.24807,-3.2558 -4.24807,-11.57574 0,-6.93554 -0.237,-7.70976 -3.32808,-10.87189 -5.11192,-5.22942 -8.16694,-12.98329 -8.93906,-22.68803 l -0.67597,-8.49613 4.90095,-3.03224 c 2.69552,-1.66773 5.36883,-3.9065 5.9407,-4.97503 1.29546,-2.42059 -0.4002,-7.39195 -2.52128,-7.39195 -0.8191,0 -2.07952,-0.71121 -2.80093,-1.58046 -1.06226,-1.27993 -0.98602,-1.70542 0.40097,-2.23766 1.82968,-0.70211 2.41847,-5.74002 0.67084,-5.74002 -0.57297,0 -1.34164,-1.19477 -1.70815,-2.65504 -0.77879,-3.10294 -3.14313,-3.4034 -6.7733,-0.86072 -1.66036,1.16296 -4.17439,1.69514 -7.1449,1.51247 -5.59604,-0.34413 -11.39402,1.41237 -15.98884,4.84382 -2.97564,2.22224 -3.45155,3.21851 -3.45155,7.22558 0,5.16081 2.78185,8.32611 8.40239,9.56058 l 2.99257,0.65729 0.51696,12.55224 c 0.36912,8.9625 0.98969,13.22715 2.16993,14.91219 1.53414,2.19028 1.46558,2.63608 -0.9536,6.20095 -3.60989,5.31946 -3.00865,8.7525 1.93948,11.07438 2.15411,1.01079 5.65128,4.1097 7.77149,6.88646 3.32161,4.35017 3.75837,5.56546 3.15701,8.78434 -0.88376,4.73039 -2.26194,6.39073 -5.30465,6.39073 -3.37537,0 -9.00941,5.53208 -9.00941,8.84636 0,4.40171 2.59198,6.02186 9.634,6.02186 3.46293,0 6.29615,0.11948 6.29605,0.2655 -8e-4,1.17132 -3.19518,16.57761 -3.72172,17.94961 -0.62764,1.63546 -3.57527,2.97704 -6.61486,3.0107 -1.84581,0.0204 -6.45029,-9.49805 -7.81646,-16.15838 -0.6316,-3.07915 -2.30143,-9.32689 -3.71075,-13.88388 -1.40931,-4.55699 -2.56238,-9.17676 -2.56238,-10.26615 0,-1.08939 -0.37689,-2.14001 -0.83754,-2.33472 -0.9132,-0.38598 -3.30764,-7.90307 -7.14096,-22.41828 -1.35375,-5.12607 -3.43312,-11.81676 -4.62084,-14.86822 -1.18772,-3.05147 -2.44482,-6.9128 -2.79355,-8.58074 -0.37126,-1.77562 -1.49442,-3.25759 -2.70974,-3.57541 -1.47767,-0.38641 -2.07567,-1.46071 -2.07567,-3.72884 0,-2.5982 -0.3693,-3.08948 -2.00154,-2.66263 -1.69169,0.44238 -2.09569,-0.23717 -2.60973,-4.38971 -0.3345,-2.70221 -1.07983,-6.82474 -1.65628,-9.16118 -0.57645,-2.33643 -1.78955,-7.49919 -2.69578,-11.47279 -0.90623,-3.97361 -3.31685,-10.6643 -5.35694,-14.86822 -2.48414,-5.11896 -4.10124,-10.44963 -4.89606,-16.13961 -0.65275,-4.67287 -1.62005,-9.45194 -2.14956,-10.62015 -1.86065,-4.10501 -9.55186,-50.03356 -10.13719,-60.53489 -1.01008,-18.12151 5.5414,-41.536 16.19593,-57.88301 10.42569,-15.99592 39.51966,-44.84206 53.76008,-53.30213 3.96756,-2.35709 7.21374,-4.709047 7.21374,-5.226587 0,-0.517541 1.08383,-0.940982 2.40851,-0.940982 1.32468,0 4.07264,-1.122778 6.10659,-2.495061 8.78215,-5.925237 24.47795,-8.424057 51.48877,-8.197173 21.52438,0.180799 28.09423,1.323063 47.7907,8.309103 29.87682,10.59686 33.91866,12.45788 33.96824,15.64031 0.008,0.5742 1.76017,1.32746 3.89162,1.67392 2.13145,0.34646 5.39399,1.90776 7.25009,3.46957 1.85609,1.5618 3.81596,2.83964 4.35526,2.83964 1.49828,0 1.16751,3.16688 -0.34699,3.3221 -0.73014,0.0748 -2.98841,0.1943 -5.01837,0.2655 -6.80695,0.23875 -8.28014,9.05672 -2.54665,15.24326 2.92897,3.16042 2.92724,5.34613 -0.005,7.07469 -1.52398,0.8982 -2.11485,0.84518 -2.50231,-0.22451 -0.279,-0.7702 -2.48761,-4.3545 -4.90805,-7.96512 -3.73192,-5.56701 -4.9359,-6.61612 -7.9217,-6.90272 -7.23182,-0.69417 -8.49377,4.39567 -3.4386,13.86885 3.48807,6.53651 3.0819,8.2808 -2.40225,10.31664 -4.95802,1.84053 -6.59813,1.33619 -8.47861,-2.60722 -2.121,-4.44779 -3.74282,-4.63184 -8.14845,-0.92474 l -3.31847,2.79231 -2.50017,-2.34879 c -3.38286,-3.17803 -6.86116,-2.46527 -9.87969,2.02449 -2.34982,3.4951 -2.77541,3.67268 -9.06364,3.7817 -4.63993,0.0804 -8.64667,0.98656 -13.50113,3.05326 -3.79671,1.61638 -8.71141,3.38548 -10.92155,3.93134 -7.39883,1.82725 -10.31908,5.37403 -10.31908,12.53262 0,2.03589 -2.07675,4.7579 -7.96512,10.43993 -4.38081,4.22731 -7.96511,7.97885 -7.96511,8.33676 0,0.35791 -0.95582,1.86588 -2.12404,3.35102 -2.77293,3.52521 -2.67896,5.14148 0.48274,8.30318 3.23222,3.23222 9.22281,3.48034 13.98074,0.57905 1.82177,-1.11087 5.59054,-4.9805 8.37504,-8.59918 l 5.06275,-6.57941 4.03725,4.41669 c 4.0097,4.38656 4.05908,4.4054 7.23694,2.76207 1.75983,-0.91004 3.928,-1.65462 4.81818,-1.65462 1.77426,0 4.85908,-5.16644 4.85908,-8.13799 0,-1.02925 -1.20994,-2.84514 -2.68874,-4.0353 -1.6338,-1.31491 -2.93358,-3.69702 -3.31282,-6.07141 -0.61762,-3.86705 -0.57606,-3.92052 4.01626,-5.16698 5.71556,-1.55133 17.63627,-0.70081 22.03119,1.57189 4.9717,2.57097 10.05046,2.11598 14.05409,-1.25905 4.28993,-3.61638 12.61651,-5.36501 30.50509,-6.40625 14.39741,-0.83803 16.10811,-1.68108 16.10811,-7.93826 0,-6.85269 3.67644,-8.87375 9.68524,-5.32426 2.35979,1.39396 3.55197,1.55998 4.94293,0.68835 2.29744,-1.43969 3.0292,-9.38734 1.18208,-12.83872 -5.20087,-9.71791 13.33555,4.28971 23.86044,18.03088 3.29778,4.30555 5.99597,8.29852 5.99597,8.87327 0,0.57475 1.41319,2.96664 3.14042,5.31531 5.2416,7.12748 22.97024,59.59353 26.68968,78.98534 1.17636,6.13314 2.85745,14.49651 3.73575,18.58527 2.35993,10.98622 4.19997,37.36893 3.0033,43.06181 -0.80065,3.80891 -1.48249,4.79804 -3.50485,5.0843 -3.32216,0.47027 -4.4498,-0.82797 -7.01797,-8.07974 -1.97235,-5.56931 -2.49639,-6.16649 -6.21814,-7.086 -4.98209,-1.23089 -7.23756,-0.0347 -8.54756,4.53295 -0.71616,2.49712 -0.52298,3.95693 0.78851,5.95852 0.95538,1.45811 1.73706,2.90688 1.73706,3.21948 0,0.31261 -4.4684,0.56837 -9.9298,0.56837 -11.3564,0 -12.26392,0.45562 -27.01364,13.56207 -7.47743,6.64436 -7.80734,6.81318 -9.79653,5.01299 -1.13218,-1.02462 -2.37408,-2.8752 -2.75977,-4.1124 -0.38569,-1.23722 -1.23423,-2.60059 -1.88564,-3.02973 -1.90265,-1.25343 -9.67025,-0.92923 -11.06113,0.46164 -2.07512,2.07513 -1.55577,8.76193 0.84961,10.93876 1.16822,1.05723 2.12404,2.34654 2.12404,2.86514 0,0.51861 -2.15059,3.24206 -4.77907,6.05213 -2.62849,2.81006 -4.77907,5.59259 -4.77907,6.18337 0,2.21493 4.30686,6.43519 7.14471,7.00103 1.61943,0.32292 6.05083,-0.0826 9.84753,-0.9012 3.79671,-0.81857 8.57291,-1.62239 10.61379,-1.78625 3.43607,-0.27589 3.85935,-0.71278 5.71945,-5.90364 1.20548,-3.36406 3.17452,-6.4358 4.924,-7.68154 2.70263,-1.92444 3.15401,-1.95673 6.18914,-0.4426 3.92281,1.95696 5.80445,1.18721 10.68448,-4.37085 2.30262,-2.62254 3.17014,-4.49216 2.72913,-5.88167 -0.59535,-1.87574 -0.0572,-2.03702 6.79647,-2.03702 4.09365,0 7.70364,0.42174 8.02221,0.93719 0.31857,0.51546 -0.41584,2.2022 -1.63201,3.74831 -2.09994,2.66964 -2.12178,2.94763 -0.43394,5.52361 2.40235,3.66644 8.20645,5.97492 12.83792,5.10604 l 3.67985,-0.69034 -0.81525,7.82132 c -1.49482,14.3412 -0.82375,60.93861 1.05325,73.13527 0.94386,6.13314 2.01073,14.0186 2.37083,17.52325 0.36008,3.50466 1.29861,8.76163 2.08559,11.68218 3.26291,12.10875 6.01716,32.64494 7.4778,55.75581 1.05856,16.74873 2.57595,33.95411 5.99443,67.96899 2.83489,28.20799 3.17655,34.92899 2.64541,52.03876 -0.65133,20.98073 -5.99459,71.45915 -7.95111,75.11493 -0.64737,1.20963 -1.89306,8.57949 -2.76819,16.37747 -0.87513,7.79798 -2.55663,17.52197 -3.73666,21.60888 -1.18002,4.0869 -2.1455,8.43583 -2.1455,9.66429 0,1.22847 -1.31701,4.09743 -2.92668,6.37547 -1.60967,2.27805 -3.62819,5.50498 -4.48559,7.17098 -0.85741,1.66598 -5.51424,7.32085 -10.34853,12.56639 -4.83427,5.24553 -8.78959,9.98601 -8.78959,10.5344 0,0.54839 1.20859,2.82337 2.68574,5.0555 2.43453,3.67881 2.72042,7.5782 0.55563,7.5782 -0.4287,0 -3.07893,2.17206 -5.8894,4.8268 -7.84923,7.41429 -24.68181,16.63715 -38.23956,20.95209 -7.21743,2.29705 -17.80086,2.86064 -32.39148,1.72491 z m -10.6061,-66.70009 c 17.20325,-3.70866 25.07109,-6.53813 31.20962,-11.22377 2.53013,-1.9313 6.04845,-3.82953 7.81847,-4.2183 1.77003,-0.38876 4.07875,-1.65769 5.13047,-2.81984 1.05174,-1.16215 4.64266,-3.5683 7.97985,-5.347 3.33718,-1.7787 10.29221,-7.02809 15.45562,-11.66532 12.00736,-10.78373 13.24349,-13.98648 13.47649,-34.91707 0.14343,-12.88296 -0.13392,-15.28249 -2.73422,-23.65649 -1.59161,-5.12562 -4.33958,-12.61328 -6.10659,-16.63926 -1.76701,-4.02597 -3.21275,-7.93057 -3.21275,-8.67686 0,-0.7463 -1.19863,-2.60799 -2.6636,-4.1371 -2.66823,-2.78503 -4.43517,-7.90236 -7.50124,-21.72471 -1.97599,-8.90809 -2.4328,-31.97641 -0.6968,-35.18699 0.90962,-1.68226 0.89158,-2.53889 -0.0737,-3.50283 -0.89347,-0.89217 -1.45131,-9.16676 -1.85459,-27.50959 -0.63716,-28.98009 -1.46843,-33.10367 -8.41624,-41.74928 -1.77111,-2.20389 -3.22019,-4.513 -3.22019,-5.13136 0,-0.61836 -0.47791,-1.12429 -1.06202,-1.12429 -0.58411,0 -1.06201,-0.53317 -1.06201,-1.18481 0,-0.65164 -2.44747,-3.51908 -5.43882,-6.37209 -3.77775,-3.60303 -6.32075,-5.18729 -8.3265,-5.18729 -3.58846,0 -15.32533,-5.71185 -19.97315,-9.72011 -5.04356,-4.34952 -7.73677,-4.70434 -12.28418,-1.61839 -2.15342,1.46134 -6.84864,3.1392 -10.62473,3.79678 -8.65304,1.50686 -17.81519,4.66468 -23.92789,8.24695 -5.99297,3.51212 -22.76295,19.56258 -25.79225,24.68564 -1.24058,2.09801 -3.36525,5.48723 -4.72149,7.53161 -4.40517,6.64024 -7.26299,34.37853 -4.65023,45.13566 0.56748,2.33643 1.34602,9.38666 1.73009,15.66716 0.57823,9.4557 0.41806,11.73822 -0.93152,13.27519 -0.89639,1.02086 -1.96153,2.94412 -2.36697,4.27393 -0.40545,1.3298 -1.91828,3.19171 -3.36185,4.13758 l -2.62466,1.71974 2.88477,3.01107 c 3.67093,3.83161 3.73453,3.69338 -10.60231,23.04678 -12.57038,16.96883 -14.60689,20.84113 -16.58682,31.53882 -0.75402,4.07399 -2.25749,9.81211 -3.34104,12.75137 -2.03586,5.52253 -2.0974,12.23864 -0.14599,15.93176 0.60694,1.14865 1.6534,4.76214 2.32548,8.02995 1.54126,7.49411 4.9907,13.92682 14.59905,27.22519 8.6635,11.99065 12.17527,15.34513 24.42152,23.32764 19.50403,12.71336 40.28974,15.79693 67.27292,9.97993 z M 327.29332,395.6936 c 7.15639,-3.27631 13.1865,-8.82327 16.2414,-14.94011 4.97866,-9.9688 1.62543,-27.67274 -7.21604,-38.09832 -1.55845,-1.83767 -3.45465,-4.77494 -4.21378,-6.52726 -2.92813,-6.75906 -12.89372,-18.22496 -20.14873,-23.18209 -5.96886,-4.07834 -8.10332,-4.96132 -11.99315,-4.96132 -5.76366,0 -7.28085,1.35397 -7.28085,6.49763 0,5.27903 0.89544,7.30857 3.22457,7.30857 4.67319,0 21.20179,13.99715 21.20179,17.95462 0,0.59781 0.89637,1.56665 1.99192,2.15297 2.95348,1.58065 8.35383,10.55748 9.54347,15.86379 0.57238,2.55305 1.55642,5.15764 2.18676,5.78798 1.61624,1.61624 1.42275,6.31724 -0.40502,9.84029 -2.73114,5.26428 -12.97428,9.94351 -14.91016,6.8112 -1.09986,-1.77962 -3.40909,-1.21054 -8.69777,2.14343 -9.46095,5.99997 -10.40027,13.9514 -1.92238,16.27327 4.41098,1.20805 16.94621,-0.42876 22.39797,-2.92465 z m -84.87548,-96.30902 c 3.95654,-2.26371 6.54109,-3.09129 8.2862,-2.65331 6.21927,1.56094 11.20113,-3.76712 15.79266,-16.89018 8.71238,-24.90084 7.4044,-42.98021 -4.35951,-60.25873 -7.22167,-10.607 -33.6335,-18.39957 -48.57517,-14.33167 -6.27653,1.7088 -9.02773,5.18914 -14.84405,18.77811 -5.87609,13.7286 -7.24949,20.36799 -6.38254,30.85492 0.82321,9.95789 3.70899,22.48907 6.35917,27.61395 2.24546,4.34224 8.9107,11.68062 10.60917,11.68062 0.73462,0 3.44393,1.17833 6.02068,2.6185 4.88305,2.72919 14.46783,5.68737 18.81759,5.80774 1.38917,0.0384 5.11328,-1.41054 8.2758,-3.21995 z m 153.85322,-14.2587 c 3.48135,-0.89007 8.3748,-3.04065 10.87433,-4.77907 2.49954,-1.73842 5.48646,-3.16076 6.6376,-3.16076 1.4115,0 2.09298,-0.71893 2.09298,-2.20802 0,-1.21441 3.08257,-5.74248 6.85016,-10.06237 5.67002,-6.50123 7.25069,-9.18544 9.17512,-15.58075 2.09189,-6.95179 2.20281,-8.45198 1.10648,-14.96411 -0.67016,-3.98076 -1.93153,-8.61661 -2.80303,-10.30192 -0.8715,-1.6853 -1.58454,-3.97927 -1.58454,-5.09772 0,-1.11845 -0.89008,-3.17329 -1.97795,-4.56631 -1.08786,-1.39301 -2.28469,-3.51307 -2.65961,-4.71123 -1.02457,-3.27425 -7.93914,-9.45976 -14.15669,-12.664 -4.40717,-2.27126 -7.52477,-2.96394 -15.47497,-3.43824 -9.29094,-0.55431 -10.39877,-0.39524 -16.58655,2.38167 -5.1764,2.32302 -8.47817,4.95032 -15.05435,11.9791 -11.24278,12.01656 -14.06534,17.89955 -14.61475,30.4611 l -0.42284,9.66786 5.39447,11.10092 c 7.69291,15.83072 11.59949,20.68943 19.59984,24.37681 7.66435,3.53251 14.2156,3.96744 23.6043,1.56704 z"
     id="path26"
     transform="scale(0.75000002)" />
  <path
     style="fill:#ffffff;stroke-width:0"
     d="m 230.02326,286.49309 c -7.00795,-3.0865 -12.6391,-7.57093 -16.01238,-12.75164 l -3.63491,-5.58254 v -15.39922 c 0,-14.04083 0.22132,-15.84872 2.50897,-20.49482 1.37994,-2.80258 4.01247,-6.68976 5.85006,-8.63819 3.32539,-3.52594 3.37847,-3.54008 11.29723,-3.00964 4.37588,0.29311 8.41015,0.95442 8.96506,1.46958 0.5549,0.51515 2.11825,0.93664 3.4741,0.93664 1.55308,0 4.5421,2.06295 8.07848,5.57558 4.93559,4.90244 5.78797,6.40259 7.06026,12.42575 1.69337,8.01661 0.57735,16.86378 -3.66673,29.06762 -2.81451,8.09312 -6.18938,12.31298 -12.46236,15.58264 -4.52895,2.36062 -7.47767,2.5712 -11.45778,0.81824 z m -5.52285,-21.39901 c 1.5773,-0.8095 5.62055,-2.03914 8.98502,-2.73254 7.44253,-1.53387 12.04693,-5.15591 13.52308,-10.63789 2.2517,-8.36219 -2.10693,-13.05114 -12.68748,-13.64899 -7.12256,-0.40246 -7.29492,-0.3485 -11.77431,3.68674 -2.50026,2.25236 -5.44954,6.1308 -6.55394,8.61877 -1.79509,4.04392 -1.84605,4.8322 -0.48056,7.43411 0.8401,1.60079 2.04898,4.22477 2.6864,5.83107 1.31478,3.31325 2.24992,3.52823 6.30179,1.44873 z"
     id="path28"
     transform="scale(0.75000002)" />
  <path
     style="fill:#ffffff;stroke-width:0"
     d="m 383.25766,270.11535 c -5.05696,-1.07771 -14.80605,-13.68189 -16.93708,-21.89721 -1.7074,-6.58222 -1.82613,-13.37182 -0.30384,-17.37575 1.6464,-4.33035 12.32746,-16.98079 16.53051,-19.57842 3.18518,-1.96855 4.9162,-2.20431 13.82596,-1.8831 l 10.18491,0.36719 4.57802,5.05796 c 10.79273,11.92419 11.5241,30.41276 1.55921,39.41545 -2.34278,2.11656 -5.22476,3.8483 -6.40439,3.8483 -1.21819,0 -4.56308,2.53691 -7.74245,5.87221 -5.69759,5.97705 -9.33024,7.44365 -15.29085,6.17337 z m 16.77611,-28.37407 c 1.93583,-4.26295 2.70048,-13.62664 1.39137,-17.03814 -0.35455,-0.92394 -1.80509,-1.67988 -3.22342,-1.67988 -1.41832,0 -3.75304,-0.76941 -5.18825,-1.7098 -3.37845,-2.21365 -5.01815,-1.4916 -8.9553,3.94347 -3.66305,5.05669 -3.90196,7.33671 -1.59892,15.25888 l 1.62979,5.60628 h 6.97769 6.97769 z"
     id="path30"
     transform="scale(0.75000002)" />
  <path
     style="fill:#ffffff;stroke-width:0"
     d="m 398.73073,578.8291 c -6.09267,-1.84165 -17.07317,-7.96714 -19.54256,-10.90184 -5.75562,-6.84017 -2.75039,-12.35199 18.1646,-33.3153 9.032,-9.05286 16.89463,-16.16754 17.47251,-15.81039 0.57788,0.35715 1.05069,1.89558 1.05069,3.41873 0,1.52315 0.30179,2.46757 0.67064,2.09872 1.36611,-1.36611 4.41633,1.42882 5.23927,4.80075 1.11971,4.58794 0.53094,44.37975 -0.69041,46.66188 -1.69858,3.17382 -15.65522,5.07557 -22.36474,3.04745 z"
     id="path32"
     transform="scale(0.75000002)" />
  <path
     style="fill:#ffffff;stroke-width:0"
     d="m 325.93549,545.2063 c -0.36548,-0.95243 0.065,-3.22248 0.95655,-5.04457 0.89158,-1.82209 2.15164,-4.62816 2.80014,-6.23572 0.6485,-1.60755 5.09043,-6.99696 9.87096,-11.97647 6.31795,-6.58093 10.45719,-9.89178 15.15545,-12.1224 6.91965,-3.28528 18.17361,-6.58093 19.14736,-5.60719 1.02829,1.0283 0.62816,12.27555 -0.59323,16.67504 -1.54196,5.55417 -15.20966,19.71574 -22.5663,23.3817 -4.48824,2.23659 -6.83791,2.66129 -14.72347,2.66129 -7.69462,0 -9.50251,-0.31159 -10.04746,-1.73168 z"
     id="path34"
     transform="scale(0.75000002)" />
  <path
     style="fill:#ffffff;stroke-width:0"
     d="m 335.16279,605.72371 c -1.46027,-0.22919 -4.16465,-0.65972 -6.00972,-0.95674 l -3.35469,-0.54005 -0.65758,-10.3247 c -0.36167,-5.67859 -0.92996,-13.99517 -1.26287,-18.48129 l -0.60527,-8.15659 7.91871,0.5989 c 5.35142,0.40472 8.15994,0.20857 8.66278,-0.60504 1.97949,-3.20289 15.65562,-0.13135 18.74727,4.21047 2.0018,2.81127 2.08589,3.79924 1.1773,13.83269 -1.08394,11.96989 -1.09678,11.99037 -10.80973,17.23783 -5.19572,2.807 -9.65617,3.83584 -13.8062,3.18452 z"
     id="path36"
     transform="scale(0.75000002)" />
  <path
     style="fill:#ffffff;stroke-width:0"
     d="m 294.22289,667.92313 c -0.73689,-1.19231 2.98249,-7.02566 19.1281,-29.99993 l 9.57405,-13.62331 4.79136,0.67286 c 2.78088,0.39052 5.53537,1.54437 6.56449,2.74986 2.48734,2.91359 4.06823,11.26716 4.0663,21.48664 -0.003,15.51325 -4.34334,19.85593 -19.84847,19.85887 -5.12022,9.7e-4 -8.9925,-0.47333 -9.41249,-1.15289 -0.39245,-0.63499 -1.71727,-0.89205 -2.94406,-0.57124 -1.29932,0.33978 -3.03558,-0.14529 -4.15894,-1.16192 -1.80012,-1.62908 -2.03639,-1.59107 -3.55093,0.57125 -1.78605,2.54993 -3.12626,2.92238 -4.20941,1.16981 z"
     id="path38"
     transform="scale(0.75000002)" />
  <path
     style="fill:#ffffff;stroke-width:0"
     d="m 422.24806,644.64341 c -1.46027,-0.46766 -5.83569,-0.89793 -9.72316,-0.95615 -6.45282,-0.0967 -7.45652,-0.43036 -11.52969,-3.8334 -2.45387,-2.05014 -5.20413,-4.14309 -6.11171,-4.651 -1.93856,-1.08487 -2.19766,-10.27474 -0.34201,-12.13039 0.6359,-0.63591 1.15618,-2.92932 1.15618,-5.09648 0,-2.97997 1.00071,-5.193 4.10596,-9.08024 7.3702,-9.22618 11.63774,-12.04304 18.24527,-12.04304 3.61765,0 3.44601,-0.51484 5.83934,17.51513 0.92983,7.00483 2.36784,15.60716 3.19556,19.11628 2.80237,11.88056 2.146,13.39523 -4.83574,11.15929 z"
     id="path40"
     transform="scale(0.75000002)" />
  <path
     style="fill:#ffffff;stroke-width:0"
     d="m 436.05426,703.37242 c -9.22725,-4.1457 -14.89609,-5.62823 -21.52099,-5.62823 -4.96631,0 -6.24914,-0.39715 -7.62421,-2.36034 -2.12981,-3.04072 -2.11755,-7.61441 0.0252,-9.39271 1.01606,-0.84325 1.48382,-2.41093 1.18531,-3.97248 -0.7959,-4.16351 2.9517,-13.15362 6.83667,-16.40044 2.89405,-2.41868 4.50518,-2.91854 9.37576,-2.90886 14.71319,0.0292 15.75288,0.94973 18.67149,16.53075 4.52175,24.13936 3.20946,28.69649 -6.94921,24.13231 z"
     id="path42"
     transform="scale(0.75000002)" />
  <path
     style="fill:#ffffff;stroke-width:0"
     d="m 387.22155,740.26217 c -0.63621,-1.18877 -1.82179,-2.16139 -2.63462,-2.16139 -0.81283,0 -2.2216,-1.49085 -3.13061,-3.31299 -1.53124,-3.06944 -1.50626,-3.51835 0.33978,-6.10659 1.09588,-1.53648 4.87552,-5.54157 8.39921,-8.90019 7.16772,-6.83196 9.4356,-7.39397 16.10565,-3.99117 5.58581,2.84967 19.80222,7.43083 23.25127,7.49259 l 2.78498,0.0499 -3.18605,2.51175 c -7.92674,6.24913 -25.47856,13.80767 -36.84767,15.86813 -3.2831,0.59501 -4.11443,0.35781 -5.08194,-1.45001 z"
     id="path44"
     transform="scale(0.75000002)" />
  <path
     style="fill:#ffffff;stroke-width:0"
     d="m 330.91473,730.25042 c -8.76025,-3.16684 -16.33083,-6.81279 -21.86996,-10.53244 -2.67309,-1.79505 -5.03954,-2.65305 -6.14614,-2.22841 -2.61202,1.00233 -5.30384,-1.91866 -8.66009,-9.39738 -1.96919,-4.38793 -2.96714,-8.46421 -3.04038,-12.4188 l -0.10901,-5.88687 20.7093,-1.26919 c 11.39012,-0.69806 21.96347,-1.03339 23.49635,-0.74518 3.50603,0.6592 9.54445,8.02801 11.212,13.68224 4.05991,13.76608 4.61716,16.27932 4.34988,19.61838 -0.24181,3.02103 -1.24707,4.40106 -5.60474,7.69426 -2.92054,2.20713 -5.78799,4.00529 -6.3721,3.99592 -0.5841,-0.009 -4.16841,-1.14002 -7.96511,-2.51253 z"
     id="path46"
     transform="scale(0.75000002)" />
</svg>
