<svg xmlns="http://www.w3.org/2000/svg" width="732" height="777.333" viewBox="0 0 549 583" preserveAspectRatio="xMidYMid meet"  xmlns:v="https://vecta.io/nano"><path d="M145 50c-4.7.4-12.1 1.7-16.5 2.9a168.61 168.61 0 0 1-10.5 2.7c-7.5 1.2-13.6 2.7-14.6 3.5-.6.5-1.3.6-1.7.3-1.2-1.2-13.2 2.8-19.5 6.5-7.2 4.2-9.6 6.5-13.1 12.3-1.3 2.1-2.6 3.8-3.1 3.8-.4 0-1.5 1.9-2.5 4.2-.9 2.4-2.1 4.5-2.5 4.8-.5.3-1.4 2.8-2.1 5.5a104.6 104.6 0 0 1-2.4 8c-.7 1.6-1.6 5.4-1.9 8.4-.4 3-1.2 6.4-1.8 7.5-.7 1.2-1.3 4.1-1.5 6.5-.1 2.5-.9 6.1-1.6 8-.8 2-1.8 5.5-2.2 7.8-.4 2.4-1 4.3-1.5 4.3-.4 0-1 1.8-1.4 4-.3 2.3-1 4.9-1.5 5.8-3.9 7.4-7.1 14.7-7.1 16.1 0 .9-.6 2.3-1.2 3-1 1.1-1 1.4 0 1.8 1.5.6 1.6 4.5.1 6s-2 12.5-.8 20.3c1.7 11.9 1.9 13.4 1 14.4-.4.6-.8 5.6-.9 11.1-.2 10.9-.9 15.7-2.4 16.6-1.6 1 2 5.6 5.3 6.8 2.4.8 2.9 1.5 2.9 4.3 0 1.8 1.1 5.5 2.4 8.3 4.1 8.5 5.6 12.2 5.6 13.7 0 .8.8 2.2 1.8 3.1.9.9 2.5 3.1 3.5 5 3 5.6 20.1 23.9 27.4 29.3 4.3 3.2 12.7 7.4 15.9 8 1.6.2 7.2 1.3 12.4 2.4s12.9 2.4 17 2.9c16 2.2 22.6 4 30 8.2.8.5 3.1 1.7 5 2.6 1.9 1 4.8 2.8 6.3 4 1.6 1.3 3.7 2.3 4.7 2.3s2.5 1.2 3.5 2.6c.9 1.4 3.1 3.2 4.8 3.9 1.8.8 5.5 3.8 8.4 6.7 4.8 5 5.3 5.9 6.8 13.5l1.9 9.5c.1.7.4 1.7.8 2.3 1 1.7 2.6 9.7 3.3 16.9.2 2.1.8 4.2 1.3 4.5s1.2 2.8 1.6 5.6c.3 2.7 1.1 5.4 1.6 5.9.6.6 1 1.7 1 2.6s1.1 3.9 2.5 6.6 2.5 5.7 2.5 6.6.4 1.9.9 2.2.9 1.7.9 3c0 1.4 1.4 4.4 3.1 6.7 1.7 2.4 3.1 5.1 3.1 6 0 1 .4 1.9.8 2.1.4.1 2.9 3.1 5.5 6.6 2.7 3.4 5.2 6.2 5.7 6.2s1.6 1.5 2.5 3.3c1.5 3.1 5.2 7.6 19.4 23.5 3.1 3.5 7 6.9 8.6 7.7 1.7.8 3.7 1.9 4.5 2.4s3.4 1.7 5.8 2.7c2.4.9 5.2 2.5 6.3 3.5 1.1.9 4.2 2 7 2.4 2.7.4 5.1 1.1 5.5 1.6.3.5 1.6.9 3 .9 1.3 0 3.2.4 4.2 1 3.7 2 15.4 7 16.5 7 .7 0 3.2 1 5.7 2.1 7 3.3 18.1 4.9 25.8 3.8 3.6-.5 7-1.3 7.6-1.8s2.9-1.2 5.1-1.6c2.2-.3 4.8-1.4 5.9-2.3 1-1 2-1.6 2.2-1.4.8.5 8.5-1.1 9-1.9.3-.5 2.3-.9 4.4-.9s4.2-.5 4.5-1c.4-.6 2.1-1.7 3.8-2.5 1.8-.8 4.6-2.3 6.2-3.4 1.7-1 3.3-1.6 3.7-1.4.5.2 1.8-.7 3.1-2 1.9-2.1 6.2-4.9 14.2-9.1 1.1-.6 3.4-2.1 5.2-3.4 1.7-1.2 3.6-2.2 4.1-2.2.6 0 1.2-.3 1.4-.8.5-1.1 10.7-7.5 16.1-10.1 2.6-1.3 4.7-2.9 4.7-3.6 0-.8.8-1.6 1.8-2 2.2-.8 10.3-10.6 11.9-14.5.7-1.6 2.2-3.5 3.3-4.2s2-2.2 2-3.4.8-3.2 1.9-4.5c1.4-1.7 1.7-3.3 1.3-6.6-.3-2.5 0-4.3.5-4.3.6 0 1.1-1.9 1.1-4.3.1-4.4.8-13.4 1.8-25.4.5-5.6 1-7.2 2.3-7.2 4.9-.2 6.6-1 8.2-3.8 1.5-2.7 1.5-3.2.3-3.7-.8-.3-1.4-1.7-1.4-3.1s-.4-2.5-.8-2.5c-.8 0-1.6-7.7-1.4-13.8 0-1.7-.3-3.2-.7-3.2-.3 0-.7-.8-.8-1.8-.2-2.8-1.2-10.3-2.3-16.2l-2-12.5c-.6-3.8-1.5-7.2-1.8-7.5-.4-.3-.8-1.4-1-2.5-.7-5.5-.9-6.6-1.5-7.2-.4-.3-.7-1.7-.7-2.9 0-1.3-.4-2.5-.9-2.9-.5-.3-1.3-2-1.7-3.7a23.64 23.64 0 0 0-1.4-4.8c-.9-1.9-4-13.4-4.7-17.8-.3-1.7-.9-3.2-1.3-3.2s-1-1.3-1.3-3c-.6-2.8-1.9-5.6-6.3-14-1-1.9-2-4.6-2.2-6s-.7-2.9-1.3-3.5c-.5-.5-.9-2.2-.9-3.9 0-3.4-1.4-8.4-4.9-16.9-.6-1.6-.9-3.2-.6-3.7s-.1-1.5-.9-2.2c-.7-.8-1.6-2.9-1.9-4.8-.8-4.8-3.4-16.9-4.2-20-.4-1.4-.9-3.9-1.2-5.5-.6-3.4-5.1-13-8.2-17.3-1.2-1.7-2.1-3.5-2.1-4.1s-.4-1.1-1-1.1c-.5 0-1-.9-1-1.9 0-1.1-.3-2.1-.7-2.3-.5-.2-1.5-1.5-2.3-2.9-.8-1.5-3.4-5.1-5.8-8l-8-10.2c-2-2.7-4.7-6-5.9-7.3-1.3-1.4-2.3-2.7-2.3-2.9 0-.8-5.1-5.5-6-5.5-.4 0-2.1-1.5-3.6-3.3-1.5-1.7-4.1-4.1-5.9-5.2-3-1.9-6-4.2-16.1-12.7-2.5-2.1-5.7-4.1-7.2-4.4-1.5-.4-3.8-1.5-5.1-2.6-1.3-1-2.8-1.8-3.3-1.8-.8 0-12.6-5.1-15.9-6.9-.9-.5-6.9-1.6-13.5-2.5l-17.9-2.6-10.5-1.5c-2.5-.4-7-1.5-10-2.5s-8.9-2.8-13-4c-4.1-1.3-9.6-3.4-12.2-4.7-2.6-1.2-5.2-2.3-5.7-2.3-.6 0-3.4-1.1-6.3-2.4s-6.4-2.6-7.8-2.9c-1.4-.4-4.7-2.1-7.5-3.9-2.7-1.7-5.5-3.1-6.1-3-.7.1-1.4-.4-1.8-1.3-.3-.8-1-1.5-1.5-1.5s-2.3-1.4-4.1-3c-1.8-1.7-3.8-3-4.5-3-.8 0-2.2-1.1-3.2-2.4-1.1-1.3-4.2-3.5-7-5-6.2-3.1-17.2-7-17.9-6.3-.3.3-1.9.1-3.6-.4-2.5-.7-15.3-1.1-21.8-.8-.8.1-2.2-.1-3-.3-.8-.3-5.3-.2-10 .2zm40.1 11.3c4.2 1.3 8.3 2.8 9 3.4.8.6 3 1.5 4.9 2.2 1.9.6 6.6 3.8 10.4 7.1s7.7 6.2 8.8 6.6c1 .3 1.8 1 1.8 1.5s.6.9 1.4.9c.7 0 1.9.6 2.5 1.4 1.3 1.6 13.5 7.6 15.4 7.6.7 0 1.8.5 2.5 1.2.6.6 2.6 1.7 4.4 2.3l10.3 4c3.9 1.5 8.3 2.9 9.9 3.1s3.4.8 4 1.2c.6.5 4.3 1.8 8.1 3 13.3 4 12.9 3.9 39.5 6.2 11.6 1 16.4 2 22.2 4.8 2.4 1.2 5.2 2.2 6.1 2.2s1.9.5 2.2 1c.3.6 3.3 2.3 6.5 3.9 5.5 2.8 11.4 7.1 23.4 17.4 6.6 5.6 8.2 7.3 14.1 14.6l9.3 11.2c2.3 2.7 4.2 5.4 4.2 5.8 0 .5 2 3.4 4.5 6.4 2.5 3.1 4.5 6.2 4.5 7.1 0 .8.4 1.7 1 2.1.8.5 6.2 11.2 8 16 1.4 3.7 3.2 12 3.7 17 .3 2.7 1.4 7 2.5 9.4 1.2 2.4 2.2 5.3 2.4 6.5.2 1.1 1.3 4.7 2.4 7.9 2.2 6.2 3.4 15.7 2.1 15.7-.5 0-3.5-2.4-6.6-5.4-4.7-4.3-5.8-6-5.7-8.4 0-1.9-.8-3.8-2.3-5.2-1.4-1.3-2.2-2.7-1.8-3.3 1-1.7-6.1.2-7.4 1.9-1 1.3-2.1 1.5-6 .8-4.2-.8-4.8-1.2-5.1-3.6-.6-5.1-9.1-3.9-12.9 1.8-2.1 3.2-3.8 3-6.5-.7-2.2-2.9-2.6-3.1-7.3-2.5-2.7.3-5.1 1-5.3 1.6-.2.5-1 1-1.7 1-.8 0-1.5 1.3-1.7 3.2l-.3 3.3-7.9-.3c-9.9-.3-12-1.3-8.3-3.7 1.5-.9 2.7-2.4 2.7-3.1 0-.8.5-1.4 1-1.4 1.4 0 1.3-4.3-.2-5.8-.7-.7-2.3-1.2-3.6-1.2-2.7 0-9.2 4.6-9.2 6.5 0 1.2-2.9 2.5-5.6 2.5-1.6 0-1.3-5.8.3-6.4 2.1-.8 4.4-7.3 3.7-10.1-.5-2-1.7-2.8-6-4.1-4.7-1.3-5.4-1.9-5.5-4.2-.4-6.8.3-9.8 3.2-12.8 2-2.1 2.8-3.6 2.3-4.8-.6-1.6-.4-1.7 1.3-.8 1.1.6 2.3.9 2.6.5 1.1-1-.3-2.3-2.4-2.3-1.1 0-2.2-.8-2.6-1.8-1.4-4-8.3-7.1-8.3-3.7 0 2.5-2.5.5-6.5-5-3.5-5-4.4-9.2-2.4-11.2.8-.8.7-1.9-.3-4-1.1-2.4-2-2.8-5.8-3.1-2.5-.1-5.5-.8-6.7-1.4-2.3-1.1-3.2-3.8-1.3-3.8.6 0 1.5-1 2-2.3.6-1.2 1.6-3 2.2-4 2.6-3.5-2.6-7.4-5.8-4.3-.8.9-2.5 1.6-3.7 1.6-2.7 0-7.7 3.5-10.4 7.2-3 4.2-1.9 7.2 3.6 10 5.8 3 7.2 5.2 4.6 7.3-1.1.9-3.5 2.3-5.3 3.1-4 1.8-5.7 5.3-3.4 7.1 1.8 1.5 8.1.7 12.1-1.4 1.4-.7 3.3-1.3 4.1-1.3 1.8 0 10.9 10.8 12.6 15 1.4 3.2 1.5 3.1-3.8 7.1-5.2 3.9-2.9 10.4 3.6 10.4 2.9 0 3 .1 3.4 5.5.8 13.2.8 13.4-1.5 14.5-5.9 3-7.6 6.4-4.9 10 1.3 1.8 1.4 1.8 5.8-.3 5.3-2.6 6.4-2.7 7.2-.7.3.9 2.1 2.5 4.1 3.6 3.4 2 3.4 2.1 2 4.9-2.1 4-1.9 4.6 1.8 6.8 3.7 2.3 8.2 1.9 9.7-.8.5-1 .7-2 .4-2.2-.2-.3.2-1.1 1-1.7 1.2-1 2.7-.9 7.3.4 3.6 1.1 8.7 1.7 13.2 1.6 6.4-.2 7.3 0 6.2 1.2-.9 1.2-.7 2.4 1.3 5.9 2.1 3.7 2.8 4.3 5.2 3.9 4.5-.5 8.4-3.8 8.4-7 0-3 3.2-7.1 5.7-7.1 2 0 4.2 2.9 4.3 5.6 0 1.5 1.2 2.7 3.7 3.9l3.7 1.8 2.4-2.8c2-2.3 2.3-3.5 1.8-6.7-.5-2.9-.3-3.8.8-3.8 2.2 0 2.7 1.5 1.6 4.6-2.1 5.4 4 10 10.3 7.6 2.6-1 3.4-.8 7.3 2.1 2.4 1.8 4.3 3.7 4.4 4.2 0 .6 1.3 2.5 2.9 4.3 2.4 2.6 3.8 3.2 7 3.2 3.7 0 4.2.3 5.6 3.7.9 2.1 2.2 4.4 3 5.3.7.8 2.3 5.1 3.6 9.5l2.7 9.5c.3.8.6 1.9.7 2.5.2 1.4 2.3 6.6 3.5 8.7.5.9 1.2 3.2 1.5 5s1.4 6.7 2.5 10.9c1 4.2 2.2 10.5 2.5 14 .4 3.5 1.1 7.5 1.6 8.9s1.1 5 1.3 8l1.1 15.2c.7 10.4.2 12.1-4.1 13-1.7.3-1.9 1.3-2 11.3 0 6.1-.4 12.8-.8 15-.5 2.2-1 6-1.2 8.5-.3 4.3-1.6 16-1.9 17-.1.3-1 2.3-1.9 4.5-1 2.2-2.3 5.2-2.9 6.8-.7 1.5-2 3-2.9 3.3-1.7.5-2 .9-2.2 3.6-.1 1.7-2.5 3.9-5.9 5.7-1.5.8-3.4 2.5-4.2 3.8-.9 1.3-2.5 2.3-3.8 2.3s-3.2.8-4.3 1.7c-1.9 1.8-13.1 9.5-14.8 10.2-.5.2-2.9 1.9-5.4 3.7-2.4 1.9-5.2 3.4-6.3 3.4-1.2 0-1.9.7-1.9 2 0 1.4-.7 2-2.2 2-1.2 0-3 .7-4 1.7-5 4.5-21.8 12.4-27.3 12.8-.5 0-1.4.3-2 .7-.5.3-2.6.9-4.5 1.3s-3.9 1.1-4.5 1.5c-1.7 1.3-18.7 3.3-24 2.8-2.8-.3-7.2-1.3-10-2.3l-10.5-3.8c-3-1.1-8.6-3.5-12.5-5.3-3.8-1.7-8.8-3.8-11-4.4a67.72 67.72 0 0 1-6.7-2.6c-1.4-.8-3.1-1.4-3.6-1.4-.6 0-3.4-1.6-6.3-3.5-3-1.9-5.8-3.5-6.3-3.5-1.2 0-3.2-1.8-12.7-11.7-2.5-2.6-5.6-6.6-6.9-8.8s-3.7-5.6-5.5-7.5c-6.4-7-15.6-20-16.1-22.9-.4-1.7-1.3-3.6-2-4.2-.8-.6-1.4-2.1-1.4-3.3s-.7-3.1-1.5-4.2c-.8-1-1.5-2.9-1.5-4.1s-.4-2.5-1-2.8c-.5-.3-1-1.6-1-2.8s-.9-3.7-2-5.5c-1.2-1.9-2-4.1-1.8-5 .1-1-.3-2.7-1-4-.7-1.2-1-2.2-.8-2.2.3 0-.1-1.7-.9-3.9-.7-2.1-1.6-6.5-2-9.7-.4-3.3-1.1-6.4-1.5-6.9-.5-.6-.9-3-1-5.5-.2-7.7-.5-9.8-1.2-10.6-.5-.4-.8-1.8-.8-3.2 0-1.8-2.2-4.6-7.5-9.9-4.1-4-8.5-7.8-9.8-8.4-4.4-2-7.1-3.8-12.6-8.6-3.1-2.7-7.6-5.5-10.1-6.3s-6.4-2.4-8.7-3.6c-7.2-3.9-24-7.5-44.8-9.8-4.8-.5-11.6-2.5-17.3-5.2-2.9-1.3-5.5-2.4-5.8-2.4s-3.1-2.1-6.2-4.6c-7-5.7-16.8-16.8-18.7-21.1-.7-1.7-2.7-4.6-4.4-6.3-1.6-1.8-3.7-5.5-4.6-8.3-.9-2.9-2-6.1-2.4-7.2-2.4-6.3-4.1-12.7-4.1-15.9 0-1.9-.7-5.4-1.6-7.6-1.5-3.8-1.5-4.2 0-5.9.9-1 1.4-2.5 1-3.4-.8-2.3 3.5-7.7 6.2-7.7s3.4.9 3.5 4.7c.3 4.9.9 6.1 4.1 7.2 4.4 1.5 4.6 1.5 5.3-1.9.4-1.7 1.1-3 1.6-3 1.7 0 .9-2.5-1.1-3.8-1.1-.7-2-2.2-2-3.5 0-2.8-2.6-6.7-4.6-6.7-3.5 0-.9-2.4 7.5-6.7 6.8-3.5 7.3-3.3 7 3.8-.2 5.4 0 6.3 2.4 8.5 3.4 3.2 4.1 3.1 6.7-1.1 1.8-3 2.1-4.5 1.6-10.5-.5-6.2-.3-7.1 1.4-8 1.6-.9 2-.7 2.6 1.4.8 3.2 4.4 5.5 7.9 5.2 4.3-.5 5.8-4.4 3.4-8.8-1-1.8-.8-2.4.7-3.5 1.1-.8 3-1.3 4.4-1.1 1.9.2 2.6 1.1 3.1 3.6.9 4.6 1.9 5.3 7.4 5.5 3.3.1 4.9-.2 5.5-1.3.4-.8 1.2-2.5 1.9-3.8 1.1-2.1 1-2.4-.8-2.9-1.3-.3-2.1-1.4-2.1-2.7 0-1.2-.9-2.7-2-3.4-2.1-1.3-2.7-4.7-1-5.7.6-.4.8-1.1.5-1.6-.4-.5.1-1.9.9-3.1 1.8-2.5 2.2-8.8.6-8.8-.6 0-1.5-1.1-2-2.5-.8-2-1.6-2.5-4.5-2.5-2.4 0-3.9.6-4.7 2-.8 1.3-2.4 2-4.4 2s-3.9.9-5.5 2.6c-2.3 2.5-2.3 2.6-.5 3.9 1 .8 1.5 1.8 1.2 2.3s.1 1.5.9 2.2c2.1 1.7 1.9 3-.5 3-1.1 0-2 .4-2 1 0 .5-1.1 1-2.5 1s-2.5-.4-2.5-.9-1.6-1.2-3.6-1.5c-4-.8-8.4 1.3-8.4 4.1 0 1.3-.7 1.4-3.7.9-2.1-.3-4.8-.9-6-1.2-1.8-.5-2.1-.3-1.6 1.5.3 1.3.1 2.1-.6 2.1-.8 0-1.1 1.2-.9 3.1.3 2.9-.1 3.3-5.9 6.3-7.6 3.9-13.9 8.9-14.8 11.6-.3 1.1-1.2 2-2 2-1.9 0-2.4-8.2-1.2-23 .7-9.5 1.4-13.1 2.8-15.2 1.1-1.4 1.9-3.6 1.9-4.7 0-1.2.4-2.1.9-2.1s1.1-1 1.4-2.3c.3-1.2 2.2-6.7 4.1-12.2 2-5.5 3.6-11.7 3.6-13.8s.7-4.8 1.5-6.1c.8-1.2 1.7-4.2 1.9-6.7.3-2.4 1-6.7 1.6-9.4.6-2.8 1.2-5.9 1.3-7.1.1-1.1.7-2.7 1.4-3.5.6-.8 1.4-2.6 1.6-3.9.6-3.1 2.2-6.6 4.6-10.5 1.1-1.7 2-3.7 2-4.5.1-.8 1.7-2.9 3.7-4.5 2-1.7 4.6-3.9 5.8-5.1 3.9-3.9 15-8.1 31-11.8 8.7-2 16.5-3.5 17.4-3.1.8.3 2 .1 2.6-.4 2-1.7 12.9-2.9 27.6-2.9 12.3-.1 15.7.2 22.1 2.1zm-24.2 28.8c-9.1.9-14.5 4.1-20.5 11.9-2.1 2.7-4.2 5-4.6 5s-.8.5-.8 1c0 .6-.9 3-2 5.2-1.1 2.3-2 4.9-2 5.8s-.4 2-.9 2.5c-1.9 2.2-4.7 18.1-4.2 24.5.4 4.4 1.5 6.6 5.5 10.8 2.9 3.1 4.2 3.9 12.1 7.2 6.5 2.7 27.3 1.6 36-2 1.1-.4 3.6-1.4 5.5-2 3.3-1.2 10.3-5.3 12.6-7.5 2.1-2 4.3-6.1 6.2-11.7 1.6-4.6 1.9-7.3 1.4-14.5-.3-5.1-1.1-9.7-1.9-11-.8-1.2-1.2-2.6-.9-3.2.3-.5-.5-2.3-1.9-3.9-1.3-1.6-2.2-3.2-1.8-3.5 2-2.1-10.3-11.4-16-12.2-1.2-.2-4.9-.9-8.2-1.7-4.2-1-8.3-1.2-13.6-.7zm8.6 8.9c8.8 1.4 15.5 3.8 18.5 6.5 1.9 1.7 1.9 2 .4 3.6s-1.4 2.1.7 6.1c1.3 2.4 3.2 5.3 4.3 6.6 2.1 2.3 2.4 6.3 1.1 13.3-.8 4.1-5.8 10.9-8.1 10.9-.8 0-1.4.7-1.4 1.5 0 .9-.8 1.8-1.7 2.1-1 .3-2.7.9-3.8 1.4-8.3 3.1-21 4.7-29.6 3.5-4.3-.6-6-1.5-9.1-4.6-2.1-2.1-3.8-4-3.8-4.1-.1-.2-.3-2-.6-4.2-.6-3.6 1-11.9 2.7-14.1.4-.6 1.2-3 1.9-5.5s2.1-5.7 3.1-7.1c1-1.5 1.9-3 1.9-3.3s.8-1.5 1.8-2.5c.9-1.1 2.2-2.6 2.8-3.3 2.2-2.6 6.9-6.3 8.9-7 2.7-.8 4.1-.8 10 .2zm-1 21.7c-2.7.3-5.2.8-5.5 1.2-.3.5-2 1.6-3.8 2.5-2.9 1.5-3.3 2.1-2.7 4.4l.8 2.7c.1 0 1.6.7 3.2 1.6 2.8 1.6 6 1.6 12.3.3 2.9-.6 7.2-5.1 7.2-7.5 0-1.7-4.6-6.1-5.9-5.7-.3.1-2.8.3-5.6.5zm38.1 85.5c-1 .5-4.7.9-8.4.9-8 0-11.2 1.6-11.2 5.8 0 4.5 2.9 6.3 10.3 6.3 3.6 0 8.7-.7 11.6-1.6 5.6-1.6 20.4-2.2 26.6-1.1 3.2.7 5.6 2.4 12 8.9 12.4 12.5 17 21.9 17 35.2 0 9.4-.9 12.6-5.1 17.4-1.1 1.4-3 4.1-4 6s-2.3 3.8-2.8 4.2c-1.5 1 1 5.7 3.8 6.9 2 1 3.3.7 7.8-1.7 2.9-1.6 5.3-3.4 5.3-4.1 0-.6.3-1.5.8-1.9.4-.4.7-1.6.7-2.7s1.1-3.4 2.4-5.1c3.1-4.1 5.3-16.3 3.7-20.8-.6-1.7-1.1-4.4-1.1-5.9 0-2.5-1.5-7-4.1-12.1-.5-1-.9-2.4-.9-3.1 0-4.3-20.1-26.2-26.7-29.1-2.1-.9-4.6-2.1-5.6-2.7-2.3-1.2-29.8-1-32.1.3zM118.4 229c-.5.4-4 1.8-7.9 2.9-3.8 1.2-8.7 3.4-10.8 5-4.4 3.4-10 10.7-9.4 12.4.2.7.1 2.1-.4 3.3-.4 1.2-1 5.5-1.3 9.5-.5 5.8-.3 7.9.9 9.4.8 1.1 1.5 2.7 1.5 3.7 0 2.7 12 13.7 18.5 17 5.6 2.9 6.6 3.1 16.8 3.1 15-.1 20.6-2.3 29.6-11.4 6.4-6.4 8.5-9.9 10.9-17.9 1.1-3.6 1-4.6-.2-11.9-.8-4.4-1.4-5.3-7.4-12.1-2.6-3.1-3-4-1.8-4.9 2.2-1.8.8-6-2.3-6.7-1.4-.3-3.3-.9-4.2-1.4-2.2-1.1-31.3-1.2-32.5 0zm15.6 8.9c0 1.2 1.2 2.3 3.3 3.1 11.2 4.2 15 7.2 17.3 13.6 1.2 3.1 1.2 5 .3 9.5-1.3 6.4-3.7 9.5-12.2 15.3l-5.7 3.9h-10.3c-9.6 0-10.6-.2-14.5-2.8-2.3-1.5-4.2-3.3-4.2-3.9s-1.2-1.7-2.7-2.4c-1.6-.7-3.6-2.9-4.5-5-1.9-4-2.4-12.7-.9-13.6.4-.3 1.1-1.9 1.5-3.6.7-3.6 5.6-8.6 10.5-10.7 3.2-1.3 17.8-5 20.9-5.2.6-.1 1.2.7 1.2 1.8z"/><path d="M119 256.3c-3.3 3-3.5 3.4-2.5 6.3.5 1.7 1.6 3.8 2.4 4.7 2.7 3.4 13.1 1.1 16-3.5 1-1.6 1-2.3-.3-3.7-.9-1-1.6-2.3-1.6-2.9 0-.7-.3-1.2-.7-1.3-2.7-.3-4.7-.9-5.6-1.8-1.9-1.9-4.1-1.2-7.7 2.2zm253 59.9l-6 1.5c-.8.3-2.2.7-3 .9-2.9.5-8.5 2.9-11 4.6-1.3 1-3.6 1.8-5 1.8-1.5 0-5.2 1.3-8.4 3-3.2 1.6-7.9 3.2-10.4 3.6l-6.7 1.1c-1.1.3-7.8.9-15 1.4-15.5 1-18.1 1.4-26 4-14.4 4.9-21.2 10.5-24.9 20.9-1 2.7-2.2 5-2.7 5s-.9.8-.9 1.8c0 1.1-.6 3.2-1.4 4.8-1.9 3.8-4.3 21.3-4 29.2.2 4.6.9 7.1 2.6 9.5 1.3 1.7 2.2 3.7 2 4.3-.1.6.5 1.7 1.3 2.4s1.5 1.7 1.5 2.2.9 1.9 2.1 3.1c1.1 1.2 2.5 3.2 3 4.5 1.1 2.9 14 18 15.5 18.1.6.1 2.2 1.1 3.5 2.2 1.3 1.2 4 3.2 5.9 4.5s5.5 4 8 5.8c2.5 1.9 4.9 3.5 5.4 3.5.4.1 3.1 1.3 6 2.7 2.8 1.4 8 3.7 11.6 5.1 3.6 1.3 7.9 3.1 9.5 3.8 6.1 2.7 17.5 4.7 23.3 4.2 12.3-1.2 14.3-2.2 33-16.6 5.4-4.1 11.2-8.3 13-9.4 1.7-1 3.2-2.2 3.2-2.6s1.7-1.7 3.8-2.9c2.2-1.2 4.7-3.3 5.8-4.8 1-1.5 3.2-3.8 4.7-5.2 6.1-5.6 7.1-8.5 6.3-18.4-.3-5-1-9.6-1.5-10.2s-1.2-3.2-1.5-5.8c-.4-2.6-1.3-5.3-2-6-.6-.7-1.8-2.8-2.5-4.6-.7-1.7-1.7-3.2-2.1-3.2-.5 0-1.3-1.3-1.8-2.9-.6-1.6-2-3.5-3.2-4.1-1.4-.7-1.9-1.7-1.6-2.7.4-.9.2-2.1-.4-2.8-.8-.9.2-2.1 3.6-4.6 9.3-6.9 12.1-9.8 12.1-12.6 0-1.6.4-4.8.7-7.3.9-6-3.3-22.3-5.9-23.4-.8-.3-1.5-1.2-1.5-1.9 0-2.1-11.6-6.6-18.5-7.2-13-1.2-15.2-1.3-19.5-.3zm17.3 11.2c3.8.3 7.9 1.1 9.1 2 2.6 1.6 5.6 7.3 5.6 10.4 0 1.2.5 2.4 1 2.7.6.3 1 2.2 1 4.1s-.4 3.4-1 3.4c-.5 0-1 .7-1 1.5 0 1.7-4.8 6.4-6.5 6.5-.6 0-1.5.8-2.1 1.7-.6 1-3.2 2.9-5.8 4.2s-5 2.9-5.3 3.7c-.9 2.5-3.4 1.5-4.8-2-.8-1.9-2-3.9-2.7-4.3-2.4-1.5-3.4-6.7-2.8-14.8.4-4.4.3-8.4-.2-9-1.3-1.5-1-10.3.5-10.8.6-.3 2.8-.3 4.7-.1s6.6.6 10.3.8zM359 336c.4 1.4.6 6.9.6 12.4-.1 9-.3 10-2.5 11.7-4.3 3.5-13.5 2-19.1-3.3-5.6-5.2-7.8-13.2-4.2-15.4 1-.7 3.6-1.5 5.7-1.8 2.2-.4 6.3-2 9-3.6 6.1-3.5 9.6-3.5 10.5 0zm-40.2 11.3c-.1.7.2 4 .6 7.4.9 7.1 0 9.5-4.5 11.9-2.7 1.3-3.3 1.4-5.2.1-3.8-2.5-7.3-6.5-9.1-10.4l-3.7-7.5-1.9-3.7 10.2-.3c10.5-.3 14 .4 13.6 2.5zm-37 3.4c.7 1.6 2.3 4.6 3.6 6.8 1.4 2.2 2.5 5.1 2.5 6.5.1 1.5.6 3.1 1.3 3.8.9.9.9 1.5.1 2.3-2 2-22.9-.3-25.4-2.8-1.2-1.2 4.2-10.2 9.2-15.5 4.4-4.5 7-4.8 8.7-1.1zm-8.4 33.5c4.5 1.5 6.6 4.4 11.7 16.3 1.5 3.6-.5 12.8-3.9 17.9-1.8 2.6-3.2 5.4-3.2 6.2 0 2.3-4.9 1.7-7.3-1-1.2-1.3-3.3-4.6-4.6-7.3-1.3-2.6-3.6-6.8-5.2-9.3-2.4-3.9-2.8-5.5-2.7-11.8 0-3.9.5-7.2 1-7.2s.5-.8-.1-1.8c-2.3-4.3 4.6-5.3 14.3-2zm128.5 13c2.5 5.4 3 7.6 3.1 14.8.2 10-.2 11.3-5.2 16.4-2.1 2.1-3.8 4.2-3.8 4.7 0 .4-1.6 1.6-3.5 2.5-5.1 2.4-6 1.1-7.4-10.8l-1.6-12c-.2-1 .1-2.1.7-2.4.5-.3.7-1.2.4-2-.3-.7-.1-1.6.4-1.9.6-.4 1-1.6 1-2.9 0-2.7 8.7-12.6 11.1-12.6 1.1 0 2.8 2.2 4.8 6.2zm-84.7 9.3c1.5 2.2 2.7 5.2 2.8 6.6 0 1.4.3 2.9.8 3.3.4.4 1.2 3.3 1.9 6.4 2.8 13.5 3.4 15.9 4.8 19.6.9 2.1 1.3 4.6 1 5.6s-.1 2.1.4 2.4c.9.6.6 9.4-.3 10.4-.7.7-21.4-7.9-22.6-9.3-.7-.8-1.7-1.5-2.1-1.5-.5 0-2.5-1.4-4.5-3.2-1.9-1.7-6-4.6-9-6.3l-5.5-3.2 4.3-3.5c3.6-3 4.7-4.8 6.8-11.2 1.4-4.2 2.8-7.6 3.3-7.6.4 0 .7-.8.8-1.8.1-2.3 10.6-11.4 12.7-11 .9.2 2.9 2.1 4.4 4.3zm46.4 20.6c1.9 1.8 3.4 4.1 3.4 5.1s.4 1.8 1 1.8c.5 0 2.3 1.9 4 4.2 4.2 5.7 4 9.5-.5 13.6-2 1.7-4.5 3.4-5.7 3.8-1.2.3-4.5 2.3-7.2 4.2-4.3 3.1-5.9 3.6-10.6 3.7-5.5 0-5.5 0-5.3-3l.6-11.5c.3-4.7.8-9.3 1.2-10.2.3-.9.2-2.6-.4-3.7-.9-1.5-.8-2.7 0-4.3.7-1.3 1.5-3 1.9-3.8s1.7-1.6 2.9-1.8c1.1-.2 2.1-.8 2.1-1.4 0-.7 1.7-.9 4.6-.5 3.4.3 5.4 1.3 8 3.8z"/><path d="M332.122 518.12c-4.824-.837-17.222-5.29-28.811-10.347-4.474-1.952-10.423-4.397-13.219-5.433-9.786-3.625-11.902-4.589-16.917-7.711-2.779-1.73-5.399-3.146-5.822-3.146-1.373 0-15.552-15.109-19.087-20.337-1.89-2.796-5.612-7.677-8.269-10.847-6.216-7.412-11.978-15.943-13.301-19.692-.572-1.623-1.456-3.423-1.964-4.001s-1.151-2.118-1.428-3.423-1.074-3.436-1.77-4.735-1.275-2.977-1.287-3.728-.469-1.958-1.017-2.682-1.002-1.944-1.01-2.712-.651-2.768-1.429-4.446-1.808-4.576-2.289-6.44l-2.58-9.83c-.938-3.542-1.922-8.118-2.187-10.169s-.788-4.491-1.162-5.423-.926-4.668-1.227-8.302c-.505-6.114-.986-8.384-2.899-13.687-.885-2.454-12.134-13.662-16.033-15.974-3.761-2.23-9.605-6.284-15.35-10.648-2.556-1.942-6.022-4.037-7.702-4.657s-5.656-2.28-8.836-3.689c-7.629-3.381-19.897-6.355-34.893-8.459-15.767-2.212-17.54-2.632-26.404-6.254-5.518-2.255-8.676-4.057-12.305-7.022-5.761-4.707-13.631-13.09-16.794-17.887l-8.15-11.975c-2.685-3.773-8.142-19.679-9.273-27.026-.43-2.796-1.318-6.979-1.973-9.295-1.095-3.872-1.104-4.335-.107-5.758.596-.851 1.142-2.312 1.214-3.246l.185-2.474c.114-1.603 3.999-4.987 5.726-4.987 2.093 0 3.141 1.697 3.141 5.084 0 1.354.314 3.049.698 3.766.915 1.71 4.157 3.352 6.618 3.352 1.699 0 2.068-.361 2.773-2.712.447-1.491 1.105-2.712 1.463-2.712 1.157 0 .689-3.285-.598-4.198-1.56-1.107-2.819-3.428-2.819-5.196 0-1.703-3.162-5.52-4.572-5.52-.947 0-.942-.132.045-1.222 1.623-1.794 12.384-7.164 13.265-6.62.449.278.753 2.618.753 5.797 0 4.756.191 5.558 1.768 7.432 3.687 4.382 5.92 4.144 8.357-.889 1.212-2.503 1.428-4.097 1.346-9.924-.073-5.202.134-7.088.825-7.526 1.427-.904 1.715-.752 2.597 1.379 1.254 3.028 3.073 4.283 6.714 4.633 2.737.263 3.569.068 4.752-1.116 1.61-1.61 1.82-4.002.637-7.273-.925-2.559-.162-3.988 2.391-4.476 2.697-.516 3.938.435 5.091 3.899 1.3 3.907 3.013 5.036 7.667 5.05 4.31.014 5.155-.42 6.694-3.436 1.734-3.398 1.674-4.305-.368-5.643-.932-.611-1.695-1.597-1.695-2.192s-.915-2.124-2.034-3.397c-2.273-2.588-2.427-3.387-1.017-5.25.535-.707.832-1.515.659-1.796s.288-1.837 1.024-3.459c1.787-3.939 1.735-7.049-.157-9.371-.839-1.029-1.848-2.421-2.241-3.092-1.162-1.98-6.618-1.676-8.958.499-1.017.946-3.026 1.898-4.464 2.116-3.228.489-5.684 2.041-6.676 4.22-.62 1.36-.53 1.905.504 3.047.692.765 1.328 1.861 1.412 2.435s.675 1.621 1.314 2.326c1.098 1.214 1.092 1.304-.118 1.684-.703.221-1.736.687-2.295 1.035-2.222 1.384-2.791 1.385-5.623.014-3.452-1.671-5.752-1.787-8.949-.451-1.555.65-2.478 1.575-2.783 2.791-.436 1.738-.596 1.798-3.583 1.352-9.308-1.39-8.445-1.445-8.071.511.213 1.113-.001 1.893-.579 2.115-.552.212-.916 1.397-.916 2.979 0 3.077-.602 3.694-6.95 7.122-6.379 3.444-11.07 7.084-13.119 10.181-2.835 4.284-3.331 2.708-3.231-10.269.106-13.667 1.03-20.728 3.297-25.201.935-1.845 1.7-3.949 1.7-4.676s.301-1.424.668-1.548c1.046-.354 7.922-20.976 8.827-26.472.447-2.716 1.355-6.31 2.017-7.988s1.371-4.118 1.576-5.423c1.683-10.738 3.519-19.583 4.34-20.904.541-.871 1.441-3.122 1.999-5.003s2.56-6.433 4.447-10.116c2.944-5.745 4.149-7.324 8.477-11.114 5.489-4.806 8.673-6.632 16.458-9.438 6.761-2.437 25.864-7.051 31.273-7.554 2.374-.221 5.537-.826 7.028-1.344 7.038-2.446 35.845-3.268 44.403-1.267 9.968 2.331 19.903 7.023 26.997 12.75 3.081 2.488 6.886 5.355 8.454 6.371s3.095 2.232 3.393 2.701.822.854 1.163.854 2.445 1.179 4.674 2.619 6.129 3.449 8.666 4.462 6.028 2.578 7.757 3.478c4.191 2.18 18.295 7.552 22.956 8.744 2.051.524 5.864 1.758 8.474 2.742 9.907 3.734 19.06 5.568 35.251 7.065 19.116 1.767 24.641 2.741 30.738 5.417 2.607 1.144 5.082 2.081 5.499 2.081s2.754 1.144 5.193 2.542c9.054 5.191 16.436 10.42 25.379 17.979 7.207 6.092 11.24 10.233 18.71 19.213 5.238 6.296 10.371 12.82 11.408 14.498a70.88 70.88 0 0 0 4.294 6.029c2.712 3.353 5.423 8.127 10.243 18.036 3.984 8.19 5.074 11.737 6.839 22.256.746 4.443 1.941 9.401 2.657 11.018 1.723 3.894 5.861 17.485 6.841 22.465.429 2.179.676 4.83.551 5.891-.229 1.929-.232 1.927-5.173-2.655-5.189-4.812-6.919-7.322-6.919-10.039 0-.899-.915-2.787-2.034-4.194s-2.034-3.009-2.034-3.558c0-1.461-4.449-.511-7.552 1.612-2.362 1.616-2.62 1.65-6.035.8-2.063-.514-3.809-1.388-4.142-2.074l-1.153-2.373c-1.759-3.607-8.015-2.442-12.604 2.348l-3.007 3.138-3.122-3.167c-3.445-3.495-3.179-3.417-8.625-2.525-5.174.848-7.716 2.785-8.28 6.311l-.438 2.742-7.319-.419c-10.215-.584-10.189-.565-6.521-4.758 3.119-3.565 3.777-5.946 2.37-8.575-1.752-3.273-8.92-1.602-12.541 2.923l-2.415 2.998c-.382.466-1.598.847-2.701.847-1.754 0-2.007-.243-2.007-1.93 0-1.061.649-2.663 1.442-3.559 3.162-3.572 4.403-10.262 2.296-12.37-.554-.554-2.613-1.53-4.576-2.169-5.016-1.633-5.941-2.621-5.941-6.351 0-4.353.921-7.112 3.432-10.283 1.188-1.5 2.16-3.451 2.16-4.334 0-1.45.158-1.534 1.628-.865 1.191.543 1.834.536 2.395-.024 1.081-1.081-.512-2.858-2.564-2.858-1.091 0-1.931-.652-2.662-2.064-1.163-2.249-4.654-4.709-6.689-4.713-.705-.002-1.658.513-2.119 1.144-.756 1.034-1.079.886-3.305-1.525-2.862-3.099-5.836-8.679-5.836-10.949 0-.864.35-2.131.777-2.815s.593-1.977.368-2.872c-.82-3.266-2.034-4.074-7.56-5.034-3.563-.619-5.801-1.39-6.731-2.32l-1.393-1.393 1.519-1.064c1.561-1.093 4.884-6.971 4.884-8.638 0-2.655-4.532-4.066-7.156-2.228-.746.523-2.632 1.294-4.19 1.713-5.425 1.461-11.703 7.654-11.703 11.546 0 2.055 2.089 4.219 6.953 7.201 3.158 1.936 4.393 3.67 3.567 5.008-.228.368-2.293 1.771-4.589 3.117-5.905 3.461-7.24 5.667-4.866 8.041 1.566 1.566 5.786 1.313 11.609-.697l5.106-1.762 3.356 3.288c3.736 3.659 8.491 10.389 9.124 12.912.343 1.365-.198 2.189-3.197 4.875-3.125 2.799-3.609 3.568-3.609 5.737 0 3.234 1.922 5.173 5.621 5.669 1.622.218 3.076.849 3.396 1.474.308.601.752 4.389.987 8.416.477 8.176.86 7.293-5.294 12.234-2.812 2.258-3.242 5.36-1.108 7.993 1.214 1.498 1.442 1.541 3.559.678 8.247-3.364 7.896-3.313 9.56-1.394.833.961 2.643 2.565 4.022 3.565l2.507 1.818-1.092 2.945c-1.311 3.538-.946 4.736 1.987 6.524 4.564 2.783 10.7 1.312 10.7-2.565 0-2.444 2.182-3.041 6.606-1.809 2.146.597 7.646 1.259 12.222 1.47 7.822.361 8.296.462 7.906 1.69-.504 1.589 2.845 8.497 4.567 9.419s6.747-.493 8.922-2.51c.985-.913 1.958-2.49 2.162-3.505.641-3.182 2.81-6.564 4.631-7.222 2.204-.795 4.223.827 4.88 3.922.59 2.778 1.758 4.039 5.165 5.575l2.789 1.258 2.276-2.632c2.021-2.338 2.276-3.074 2.276-6.587 0-3.095.225-3.954 1.036-3.954.865 0 .964.699.602 4.238-.405 3.955-.315 4.357 1.347 6.018 2.258 2.258 4.969 2.799 9.169 1.829 3.265-.754 3.372-.726 6.772 1.77 1.9 1.395 4.5 4.11 5.778 6.034 2.747 4.135 5.385 5.867 8.958 5.881 1.434.005 2.932.235 3.329.508 2.16 1.49 7.246 12.91 10.102 22.684 1.697 5.806 3.825 12.189 4.728 14.184 1.849 4.082 5.919 21.667 7.509 32.438.578 3.915 1.344 8.215 1.703 9.556 1.393 5.2 2.68 28.679 1.734 31.625-.269.838-1.219 1.707-2.111 1.931-3.03.76-3.313 1.847-3.848 14.764-.28 6.758-1.218 18.084-2.086 25.168-1.482 12.107-1.755 13.28-4.538 19.532-2.242 5.036-3.427 6.893-4.88 7.644-1.081.559-1.918 1.552-1.918 2.275 0 2.323-.803 3.449-3.98 5.581-1.726 1.158-4.359 3.253-5.85 4.654s-3.671 2.748-4.844 2.993-3.766 1.681-5.762 3.192c-5.436 4.113-20.94 14.186-23.483 15.258-1.225.516-2.514 1.693-2.864 2.614-.356.936-1.182 1.676-1.872 1.676-.679 0-3.356 1.4-5.948 3.112-8.713 5.753-15.146 8.609-27.423 12.177l-10.86 3.238c-5.433 1.725-19.399 2.875-24.392 2.009zm23.681-43.277c5.69-1.341 9.636-3.663 22.384-13.17l14.268-10.494c2.051-1.449 4.034-2.991 4.406-3.427s2.383-1.987 4.467-3.445c5.136-3.594 13.98-13.222 15.684-17.075 1.231-2.784 1.338-3.956.94-10.29-.247-3.931-.773-8.368-1.169-9.86s-1.163-4.667-1.704-7.056c-.949-4.186-4.635-11.828-7.061-14.637-.644-.746-1.375-2.029-1.624-2.851s-1.304-2.211-2.343-3.086c-1.324-1.114-2.005-2.449-2.275-4.457l-.385-2.867 6.489-5.233c9.61-7.75 9.321-7.159 9.303-19.01-.014-8.889-.203-10.502-1.769-15.13-3.995-11.805-12.041-16.127-32.124-17.257-7.492-.422-8.748-.309-15.592 1.4-4.114 1.027-10.21 3.191-13.627 4.838-3.401 1.639-6.756 2.987-7.457 2.996s-3.104.795-5.341 1.748c-11.636 4.954-15.932 5.83-36.19 7.382-18.161 1.391-23.628 2.65-33.973 7.825-7.881 3.943-11.019 7.121-14.952 15.146l-3.962 7.88c-2.673 4.547-5.569 20.706-5.722 31.92-.104 7.63-.044 7.976 2.096 12.128 1.212 2.351 2.203 4.53 2.203 4.843 0 .583 2.018 3.728 8.3 12.936 5.02 7.359 13.067 16.508 16.115 18.323 1.419.845 6.666 4.53 11.66 8.187 5.963 4.368 11.394 7.701 15.822 9.71 7.254 3.292 22.404 9.497 25.723 10.536 8.324 2.604 20.1 3.268 27.409 1.545zm-92.488-180.479c4.792-2.387 7.796-5.791 7.796-8.835 0-.559 1.084-2.956 2.409-5.325 6.102-10.912 5.656-22.288-1.612-41.107-2.527-6.544-5.737-10.812-15.711-20.894-6.264-6.331-8.795-8.388-12.88-10.465l-5.084-2.585-10.847-.286c-6.608-.174-13.231.044-16.948.56a232.25 232.25 0 0 1-12.541 1.313c-3.542.256-7.264.866-8.271 1.355-3.65 1.77-3.808 7.178-.285 9.807 1.591 1.187 2.831 1.396 8.098 1.363 3.644-.023 8.465-.575 11.643-1.334 4.097-.979 7.992-1.301 15.931-1.317 9.5-.02 10.77.119 13.246 1.444 3.395 1.818 15.335 14.125 18.851 19.43 5.371 8.106 7.787 17.684 6.92 27.444-.54 6.079-1.054 7.479-4.513 12.276-4.977 6.903-7.387 11.003-7.387 12.565 0 1.864 2.357 5.017 4.331 5.791 1.651.648 3.955.244 6.855-1.2zm-121.207-.67c5.233-1.685 9.598-4.852 15.718-11.405 4.986-5.338 7.396-9.575 9.257-16.266 1.022-3.674 1.028-4.533.074-10.059-1.087-6.301-1.55-7.179-7.519-14.277-2.288-2.721-2.555-3.36-1.864-4.465 2.144-3.433.523-6.298-4.446-7.861-3.265-1.027-6.331-1.228-18.814-1.235l-14.914-.009-6.893 2.5c-3.791 1.375-8.181 3.157-9.756 3.961-3.453 1.761-8.921 6.759-10.9 9.961-2.895 4.684-5.142 23.714-3.16 26.76.558.858 1.381 2.677 1.829 4.044 1.604 4.894 15.309 16.355 22.779 19.048 4.8 1.731 22.403 1.303 28.61-.696zm29.351-129.313c12.022-2.059 25.363-8.958 28.86-14.924 4.026-6.87 5.212-11.477 5.141-19.976-.041-4.948-.46-9.158-1.148-11.524-.595-2.051-1.251-4.644-1.457-5.762s-1.101-3.005-1.988-4.192-1.614-2.841-1.614-3.675c0-1.945-4.723-6.498-9.686-9.337-5.554-3.178-18.506-5.781-26.243-5.275-10.965.717-15.648 3.175-23.639 12.406-4.551 5.258-6.051 8.063-9.556 17.869-4.383 12.264-5.854 26.51-3.253 31.523.387.746 2.005 2.896 3.597 4.777 3.739 4.422 11.958 8.47 18.574 9.15 5.54.569 15.716.088 22.412-1.058zm-57.03 116.948c-1.351-.714-4.901-3.675-7.888-6.58-4.006-3.896-5.628-5.992-6.182-7.993-.884-3.19-1.005-9.957-.194-10.88.311-.354 1.079-2.04 1.706-3.747 1.222-3.326 4.073-6.637 7.897-9.174 2.151-1.427 19.414-6.365 22.251-6.365.661 0 1.489.818 1.887 1.864.563 1.482 1.829 2.32 6.182 4.09 10.663 4.336 14.811 9.348 14.707 17.773-.097 7.816-3.006 12.15-12.788 19.05l-4.707 3.321-10.207-.03c-8.712-.026-10.567-.22-12.664-1.328zm16.402-14.064c4.348-2.203 6.154-4.964 4.466-6.829-.567-.626-1.349-1.977-1.739-3.001s-1.216-1.863-1.837-1.863-2.431-.65-4.022-1.445c-3.54-1.768-5.171-1.438-8.967 1.812-2.169 1.857-2.863 2.937-2.863 4.458 0 2.424 2.246 7.039 3.893 7.998 2.282 1.329 7.208.826 11.069-1.129zm16.987-113.461c-2.167-.519-4.035-1.751-6.949-4.585l-3.985-3.875.022-5.39c.015-3.675.457-6.576 1.39-9.118l2.643-7.68c3.138-9.719 13.327-22.437 19.296-24.085 5.523-1.525 22.073 2.459 26.826 6.458 2 1.683 2.011 1.728.872 3.657-1.089 1.844-1.087 2.095.05 4.514.662 1.409 2.477 4.53 4.033 6.937 2.667 4.124 2.823 4.64 2.714 8.973-.082 3.272-.595 5.626-1.778 8.166-1.742 3.74-5.435 7.975-6.954 7.975-.49 0-1.092.633-1.337 1.406-1.408 4.435-26.887 9.032-36.843 6.648zm26.013-20.641c2.493-1.102 3.781-2.161 5.285-4.342 1.706-2.475 1.428-3.948-1.245-6.622l-2.4-2.4-5.52.46c-4.661.389-6.131.832-9.448 2.846-4.716 2.865-4.891 3.111-4.335 6.078.44 2.344 2.273 3.789 6.473 5.1 2.179.681 8.561.041 11.19-1.121zm98.63 291.037c-1.542-1.051-3.91-4.478-7.609-11.016-6.195-10.949-7.053-14.027-6.005-21.557.378-2.716.512-5.606.298-6.423-.606-2.316 2.355-3.14 7.885-2.193 8.782 1.504 11.289 3.661 15.914 13.689 3.497 7.581 3.124 10.926-2.461 22.076-3.803 7.592-4.322 7.943-8.021 5.423zm7.801-53.816c-4.507-.431-11.389-1.614-13.728-2.36-2.686-.857-2.755-1.9-.399-5.962 4.494-7.746 11.038-14.297 13.382-13.398 1.324.508 7.112 11.686 7.922 15.298.378 1.688 1.025 3.476 1.438 3.973.449.541.503 1.15.135 1.518-.789.788-5.264 1.264-8.75.931zm37.761 86.246c-5.5-2.235-10.918-5.003-13.897-7.102-6.879-4.846-16.869-11.523-17.722-11.844-.395-.149 1.016-1.84 3.136-3.758 3.305-2.989 4.151-4.282 5.936-9.064 4.405-11.805 8.703-17.827 15.174-21.258 1.706-.904 2.089-.903 3.492.017 1.722 1.129 5.778 8.662 5.778 10.733 0 .711.273 1.806.607 2.434s1.555 5.413 2.714 10.632 2.696 11.474 3.416 13.897c2.321 7.817 3.019 18.986 1.187 18.978-.444-.002-4.863-1.651-9.821-3.666zm-9.41-91.235c-1.522-1.119-3.527-3.032-4.457-4.25-1.824-2.391-7.964-14.264-7.964-15.399 0-.781 17.548-.858 20.337-.089 1.623.447 1.721.78 2.312 7.843.677 8.086.292 9.623-2.99 11.94-3.025 2.136-4.285 2.128-7.239-.044zm34.725 96.987c-.557-.901.05-12.195 1.087-20.239.548-4.253.525-6.095-.096-7.594-.715-1.726-.615-2.351.785-4.889.891-1.614 2.506-3.336 3.628-3.866 1.112-.526 2.124-1.214 2.249-1.529.388-.984 6.237-.626 8.676.532 2.495 1.184 7.029 6.016 7.029 7.491 0 .492 1.167 2.062 2.594 3.489 3.27 3.27 5.821 8.396 5.271 10.59-.614 2.447-3.565 5.611-7.089 7.602-1.732.978-5.565 3.333-8.519 5.233-4.982 3.205-5.724 3.473-10.255 3.701-3.159.16-5.052-.025-5.359-.522zm-.056-102.661c-4.37-2.035-8.828-7.06-10.118-11.405-1.413-4.758-.638-6.315 3.797-7.633 1.949-.579 3.804-1.052 4.124-1.052s3.651-1.407 7.404-3.128c10.124-4.641 10.751-4.043 10.751 10.246 0 10.023-.376 11.699-2.98 13.287-3.015 1.839-8.645 1.702-12.977-.315zm38.014 7.561c-7.094-10.068-6.787-9.206-6.952-19.515-.081-5.033-.322-11.44-.536-14.236s-.105-5.506.242-6.021c.529-.785 2.178-.81 10.174-.159 5.248.427 10.683 1.154 12.078 1.614 3.169 1.047 5.958 4.923 7.086 9.85.452 1.974 1.076 3.747 1.385 3.938.816.504.692 6.279-.155 7.245-.395.45-1.316 1.828-2.048 3.062s-2.274 2.759-3.428 3.39-3.207 2.17-4.562 3.422-3.599 2.855-4.987 3.563-3.577 2.213-4.864 3.343l-2.341 2.055zm5.796 66.409c-1.224-3.728-3.409-21.8-2.721-22.507.345-.354.627-1.274.627-2.043 0-4.431 5.352-13.203 10.132-16.607l1.876-1.336 1.402 1.503c2.081 2.23 4.761 7.94 5.631 11.993.421 1.964.65 6.697.509 10.517-.229 6.182-.442 7.172-1.938 8.999l-4.643 5.682c-3.506 4.295-5.865 5.992-8.34 5.998-1.445.004-1.958-.441-2.535-2.199z" fill="#fff"/></svg>