<?xml version="1.0" encoding="UTF-8" standalone="no"?>
<svg
   xmlns:dc="http://purl.org/dc/elements/1.1/"
   xmlns:cc="http://creativecommons.org/ns#"
   xmlns:rdf="http://www.w3.org/1999/02/22-rdf-syntax-ns#"
   xmlns:svg="http://www.w3.org/2000/svg"
   xmlns="http://www.w3.org/2000/svg"
   xmlns:sodipodi="http://sodipodi.sourceforge.net/DTD/sodipodi-0.dtd"
   xmlns:inkscape="http://www.inkscape.org/namespaces/inkscape"
   width="750.667"
   height="621.333"
   viewBox="0 0 563 466"
   preserveAspectRatio="xMidYMid meet"
   version="1.1"
   id="svg8"
   sodipodi:docname="face4.svg"
   inkscape:version="1.0.1 (3bc2e813f5, 2020-09-07)">
  <metadata
     id="metadata14">
    <rdf:RDF>
      <cc:Work
         rdf:about="">
        <dc:format>image/svg+xml</dc:format>
        <dc:type
           rdf:resource="http://purl.org/dc/dcmitype/StillImage" />
      </cc:Work>
    </rdf:RDF>
  </metadata>
  <defs
     id="defs12" />
  <sodipodi:namedview
     pagecolor="#ffffff"
     bordercolor="#666666"
     borderopacity="1"
     objecttolerance="10"
     gridtolerance="10"
     guidetolerance="10"
     inkscape:pageopacity="0"
     inkscape:pageshadow="2"
     inkscape:window-width="1920"
     inkscape:window-height="1027"
     id="namedview10"
     showgrid="false"
     inkscape:zoom="0.69206045"
     inkscape:cx="497.26704"
     inkscape:cy="542.88531"
     inkscape:window-x="1912"
     inkscape:window-y="-8"
     inkscape:window-maximized="1"
     inkscape:current-layer="svg8" />
  <path
     style="fill:#ffff7e;stroke:#ffff7e;stroke-width:0.75px;stroke-linecap:butt;stroke-linejoin:miter;stroke-opacity:1;fill-opacity:1"
     d="m 367.0606,178.54932 160.92427,19.15765 c 0,0 -11.4065,5.27198 -18.98537,10.37523 -42.20917,28.42163 -201.71077,257.83188 -201.71077,257.83188 L 62.837099,400.77807 c 0,0 38.006971,-71.03093 75.401801,-109.99478 35.65968,-37.15589 143.76172,-118.36442 143.76172,-118.36442 z"
     id="path839"
     sodipodi:nodetypes="ccsccscc" />
  <path
     style="fill:none;stroke:#000000;stroke-width:0.75px;stroke-linecap:butt;stroke-linejoin:miter;stroke-opacity:1"
     d="M 509.11458,208.24367 317.53807,180.65665"
     id="path844" />
  <path
     style="fill:none;stroke:#ec0000;stroke-width:0.612828px;stroke-linecap:butt;stroke-linejoin:miter;stroke-opacity:1"
     d="m 81.942156,403.12392 59.895564,-95.7841 92.70452,-116.57655"
     id="path841"
     sodipodi:nodetypes="ccc" />
  <path
     style="fill:none;stroke:#000000;stroke-width:0.75px;stroke-linecap:butt;stroke-linejoin:miter;stroke-opacity:1"
     d="M 490.91481,224.62346 317.72964,196.27014"
     id="path846" />
  <path
     style="fill:none;stroke:#000000;stroke-width:0.75px;stroke-linecap:butt;stroke-linejoin:miter;stroke-opacity:1"
     d="M 445.04658,278.974 271.86141,250.62068"
     id="path846-9" />
  <path
     d="m 166.69306,90.917585 c 0.16829,0.33318 -1.0376,4.84526 -2.74159,10.027085 -1.70398,5.18183 -2.99233,9.94464 -2.71185,10.49994 0.1694,0.61141 -0.21198,2.61615 -0.92768,4.51096 -0.77067,2.06196 -0.9002,4.42737 -0.39197,6.26158 0.47961,1.63956 0.68102,3.28025 0.5997,3.8092 -0.13742,0.41789 0.1212,2.44786 0.65804,4.4767 0.45326,2.00136 0.48976,4.14353 -0.008,4.81327 -0.55418,0.5587 -0.38364,1.44831 0.20254,1.91891 0.64226,0.58167 0.8975,1.77698 0.59519,2.69634 -0.30232,0.91936 -0.21536,1.78149 0.11895,1.89142 1.00293,0.32981 1.49495,5.02976 0.60758,5.75673 -0.38815,0.33545 -0.41338,0.97545 0.005,1.39109 0.86664,1.02591 2.04081,9.28434 2.31859,16.044 a 246.70669,246.70669 0 0 0 0.42196,8.01108 c 0.14531,1.52962 0.23904,4.06106 0.0225,5.56434 -0.10542,1.44718 0.20817,3.30999 0.6844,4.11491 0.61592,0.94345 0.53798,2.30705 -0.23495,3.81258 -0.71795,1.33838 -0.85199,2.59092 -0.4341,2.72834 0.41789,0.13741 0.33769,0.94458 -0.21536,1.78149 -0.58054,0.92048 -0.57829,1.47691 0.0331,1.30751 0.69498,-0.14193 0.53008,0.35954 -0.30006,1.47579 -0.6916,0.97657 -1.96148,3.43007 -2.73215,5.49203 -1.92723,5.0158 -8.80671,16.92373 -9.75242,16.98321 -0.47285,0.0297 -1.08201,0.75559 -1.35684,1.59137 -0.24735,0.7522 -1.60194,2.89999 -3.01374,4.65851 -1.41181,1.75851 -3.79005,5.32938 -5.28206,7.89507 -3.84162,6.33119 -6.74431,10.93361 -9.48322,14.75634 -1.6328,2.14893 -2.04618,3.12438 -1.24014,2.92635 0.80604,-0.19801 0.77969,0.16378 0.032,1.0293 -1.71638,2.12143 -5.16986,8.11719 -6.57603,11.2668 -0.68935,1.53301 -2.18023,4.37691 -3.45236,6.27397 -3.67673,5.82973 -13.28697,37.30771 -12.16283,40.08538 0.44988,1.16671 0.28385,1.38996 -0.46834,1.1426 -0.66863,-0.21986 -1.02817,0.31021 -0.9126,1.36698 0.087,0.86214 -0.37124,4.5087 -0.82945,8.15526 -0.51429,3.53551 -0.61183,6.93021 -0.13672,7.4569 0.44763,0.61027 0.73035,1.72201 0.51161,2.66885 -0.6551,3.11874 0.79278,10.26317 2.61302,13.17713 0.95248,1.60983 1.68284,3.33184 1.49045,3.91688 -0.19239,0.58505 0.31021,1.02817 1.17234,0.94121 0.94571,-0.0595 1.39334,0.55079 1.3154,1.9144 -0.10655,1.16896 0.50936,2.11242 1.67945,2.49719 1.00293,0.3298 2.1764,1.54923 2.70986,2.74341 0.44988,1.16672 1.4562,2.33117 2.12483,2.55104 0.83577,0.27483 0.94909,0.77517 0.42239,1.25029 -0.63775,0.5312 -0.41451,0.69722 0.61478,0.66524 0.91823,0.0241 1.50328,0.21648 1.36586,0.63437 -0.13742,0.41789 0.36631,1.13923 1.00857,1.72089 0.75333,0.52558 1.81461,1.52287 2.34582,2.16063 1.22956,1.33048 5.2778,4.79185 5.6396,4.81821 0.6114,-0.16941 4.72137,4.79411 4.97661,5.98942 0.1694,0.61141 1.42533,1.58009 2.67899,1.99234 1.25367,0.41226 2.50847,1.10273 2.70536,1.63056 0.22438,0.44424 0.72697,0.88736 0.97771,0.96981 0.33431,0.10993 1.64745,1.4679 2.90563,2.99303 1.28565,1.44154 3.93717,3.51746 5.91669,4.53886 1.97951,1.0214 3.98876,2.51566 4.49248,3.23699 1.23182,1.88692 7.14625,5.86935 8.34157,5.61411 0.50035,-0.11332 0.94684,0.21874 1.06016,0.71908 0.62155,2.33455 8.67475,5.44583 21.92939,8.22999 7.01716,1.47397 15.00976,3.36132 32.35971,7.49218 1.8662,0.52106 3.89842,0.81887 4.39876,0.70555 1.5846,-0.31246 6.26045,0.11375 7.292,0.6382 0.55756,0.27596 1.16896,0.10655 1.30637,-0.31134 0.13743,-0.41789 0.94346,-0.61591 1.69566,-0.36856 2.00588,0.65961 24.29073,0.48585 26.15242,-0.10595 1.38883,-0.56207 2.22348,-0.56545 6.76079,4.3e-4 1.41969,0.189 2.58753,0.0173 2.72494,-0.40055 0.13742,-0.41789 0.4706,-0.58617 0.77744,-0.39266 0.41789,0.13742 1.30863,0.2451 2.0597,0.21424 0.75108,-0.0309 2.86576,0.0162 4.61863,0.0369 5.20368,0.22931 9.93224,-0.0681 11.43213,-0.68623 0.83353,-0.28159 2.5578,-0.45551 3.9214,-0.37757 1.28002,0.0504 3.22642,-0.23565 4.39312,-0.68553 1.11062,-0.56095 4.08292,-1.7137 6.69456,-2.61458 2.52806,-0.92838 5.61142,-2.13722 6.63845,-2.72565 1.08313,-0.47736 2.55667,-0.73374 3.2253,-0.51386 0.7522,0.24734 1.69678,-0.0903 2.16738,-0.67651 0.55419,-0.5587 1.41519,-0.92387 2.00024,-0.73148 0.58504,0.19237 3.25277,-0.59745 5.86328,-1.77656 2.52693,-1.20659 5.19465,-1.99642 5.72361,-1.91509 0.61252,0.10881 1.41969,0.189 1.78148,0.21536 0.47287,-0.0297 1.58573,-0.0342 2.58754,0.0173 1.11287,-0.004 3.36045,-1.48818 5.07796,-3.3314 2.10566,-2.17866 5.46386,-4.22329 9.7975,-5.85453 5.16718,-1.91284 7.63689,-3.50871 11.43257,-7.44701 2.68732,-2.82093 5.40552,-4.89078 5.90698,-4.72588 0.61253,0.10881 1.2789,-0.22776 1.49877,-0.89638 0.19238,-0.58505 1.02365,-1.42308 1.77359,-1.73216 4.13902,-1.60263 8.83941,-8.85544 13.54924,-20.6433 l 4.95831,-12.26184 c 2.06578,-5.15547 3.7995,-9.86444 3.76976,-10.3373 -0.003,-0.55644 0.51881,-2.42263 1.12345,-4.26134 2.99796,-8.55355 8.81251,-36.09324 8.16461,-38.06599 -0.16941,-0.6114 0.12614,-3.20006 0.69992,-5.78984 1.39377,-6.20999 1.81435,-12.27693 1.61269,-27.71741 0.0313,-6.00972 -1.07663,-11.65314 -2.72859,-14.2339 -0.55983,-0.8324 -0.87004,-1.86056 -0.73261,-2.27845 0.10993,-0.33431 -0.90315,-3.16807 -2.41769,-6.16673 l -4.99578,-10.71912 c -3.05882,-6.47017 -5.13093,-9.7448 -7.75722,-12.46072 -1.11737,-1.10837 -2.23701,-2.77316 -2.60219,-3.63417 -0.42127,-0.97206 -1.39897,-1.94188 -2.23475,-2.21672 -0.91936,-0.30232 -1.42307,-1.02365 -1.20321,-1.69227 0.21987,-0.66863 -0.45213,-1.72315 -1.53977,-2.35865 -1.14374,-0.74657 -1.61998,-1.55148 -1.09328,-2.02659 0.49922,-0.39153 0.33093,-0.72472 -0.42014,-0.69385 -2.14216,0.0365 -14.48966,-26.06632 -13.61019,-28.74081 0.13742,-0.41789 -0.31021,-1.02817 -0.97883,-1.24803 -0.66862,-0.21987 -1.08764,-0.6355 -0.86664,-1.02591 0.33206,-0.4465 -1.56007,-7.36655 -2.65334,-9.39315 -0.50485,-0.99955 -2.57271,-16.9611 -2.49815,-19.15935 0.0791,-1.08538 -0.31472,-2.14104 -0.73261,-2.27846 -0.41789,-0.13741 -0.44988,-1.1667 -0.0926,-2.25322 0.71457,-2.17301 1.04481,-9.93674 0.6616,-15.24923 -0.14644,-1.80784 -0.073,-4.28431 0.22819,-5.48188 0.68258,-3.20232 0.55912,-6.20662 -0.27666,-6.48145 -0.41789,-0.13742 -0.5071,-1.55598 -0.34671,-3.17032 0.13291,-1.530765 -0.0203,-5.007915 -0.39223,-7.538215 -0.34445,-2.6139 -0.49427,-5.256404 -0.30188,-5.841444 0.19238,-0.58505 0.16151,-1.33612 -0.20141,-1.64069 -0.27934,-0.27709 -0.87227,-2.417 -1.27169,-4.86373 -0.71189,-4.03133 -4.98633,-15.25417 -8.49278,-22.33462 -0.78533,-1.55486 -2.41432,-5.33208 -3.67925,-8.5265 -3.40103,-8.527629 -4.43934,-10.721373 -5.07823,-10.468385 -0.2496,0.195766 -1.39672,-1.38545 -2.48999,-3.41204 -3.2787,-5.80155 -11.85705,-14.920291 -15.4795,-16.296725 -0.97546,-0.41338 -2.09284,-1.52174 -2.59768,-2.521293 -0.78532,-1.55486 -2.56907,-2.326655 -11.09288,-4.851763 -5.48753,-1.619276 -10.63962,-2.850401 -11.3346,-2.708475 -0.72246,0.225504 -2.11355,0.23114 -3.06039,0.0124 -0.89074,-0.10768 -2.05858,0.06398 -2.58528,0.539095 -0.49921,0.391533 -1.13921,0.366304 -1.53075,-0.132909 -0.33544,-0.388152 -3.11761,-0.37688 -6.17575,0.191952 -3.14171,0.541349 -6.06355,0.414075 -6.7333,-0.08401 -0.80942,-0.636631 -1.08764,-0.635504 -0.88962,0.170537 0.19802,0.806041 -0.41338,0.975451 -1.8342,0.50823 -1.17009,-0.38477 -2.28296,-0.380262 -2.42038,0.03763 -0.1649,0.501467 -3.50013,1.349644 -7.33682,2.03292 -3.92027,0.655791 -9.14579,1.901137 -11.61888,2.662355 -2.41699,0.872279 -4.75154,1.493825 -5.16943,1.356407 -0.33431,-0.109935 -1.58459,0.312463 -2.72269,0.956984 -1.1381,0.644521 -2.47196,1.039434 -2.97343,0.874533 -0.91936,-0.302319 -2.5017,0.566578 -7.57854,4.176206 -1.35909,1.034926 -3.02614,1.598123 -3.69476,1.378254 -0.66862,-0.219868 -1.28003,-0.05046 -1.38996,0.283853 -0.10993,0.334312 -4.21808,2.688018 -9.15975,5.323321 -4.91419,2.551726 -9.13226,5.239743 -9.35214,5.908366 -0.41225,1.253667 -6.95811,6.232532 -9.09801,6.825468 -0.52782,0.196893 -0.80379,0.754455 -0.63438,1.365855 0.11331,0.500341 -0.49583,1.226185 -1.44042,1.563878 -0.861,0.365176 -1.6087,1.230692 -1.57783,1.981766 0.0583,0.667495 -0.27371,1.113996 -0.6916,0.976578 -0.50147,-0.164901 -1.24804,0.978832 -1.74273,2.483233 -0.49471,1.504402 -1.35121,2.982439 -1.85042,3.373979 -0.55531,0.28047 -1.96712,2.03898 -3.23925,3.93604 -1.27214,1.89707 -2.93242,4.12957 -3.70759,5.07866 -0.77519,0.94909 -1.68665,2.59429 -2.04394,3.68081 -0.35728,1.08651 -1.04888,2.06309 -1.46564,2.20389 -0.69498,0.14192 -5.42398,7.20009 -6.77631,9.90432 -1.26875,2.73171 -3.9768,7.30552 -5.08403,8.70111 -0.72021,0.781944 -1.16107,1.840974 -0.99279,2.174154 z m 10.55873,-3.381444 c 3.47758,-6.91399 7.84479,-13.99851 10.7531,-17.20984 1.13584,-1.20096 2.49156,-3.07054 3.12707,-4.15817 1.38093,-2.50959 6.11331,-8.73311 8.93918,-11.69371 1.13584,-1.200953 1.96486,-2.59542 1.79658,-2.928605 -0.22438,-0.444245 0.66186,-1.449435 1.96599,-2.317205 1.27664,-0.784192 2.19035,-1.872959 2.07704,-2.373299 -0.0297,-0.472857 0.71908,-1.060155 1.80334,-1.259303 1.02816,-0.310209 1.91553,-1.037181 1.85718,-1.704676 0.0252,-0.640012 0.88511,-1.283406 1.99685,-1.566132 1.16783,-0.171664 2.22235,-0.843668 2.44223,-1.512291 0.21987,-0.668623 0.74656,-1.143733 1.16445,-1.006315 0.50147,0.164901 2.7513,-0.762345 5.13856,-2.107481 a 87.444022,87.444022 0 0 1 6.3305,-3.197374 c 1.19419,-0.533459 3.13834,-1.376 4.3875,-2.076615 3.66502,-1.851111 6.50216,-2.029538 10.09714,-0.569527 3.70603,1.403917 4.7146,3.124805 3.72632,6.411825 -0.52106,1.866196 -0.26807,2.505081 1.68283,3.331843 1.92341,0.91034 2.31269,0.853118 2.22348,-0.565451 -0.11895,-1.891426 3.15567,-3.963533 5.16154,-3.303928 0.83578,0.274836 1.7299,1.217168 2.09508,2.078176 0.36518,0.861007 0.97996,1.526249 1.39672,1.38545 1.11175,-0.282725 4.47628,6.102743 3.98157,7.607144 -0.38477,1.17009 -3.6319,3.158619 -7.96556,4.789861 -1.91665,0.758963 -2.24871,1.205463 -1.82631,2.455753 1.12413,2.77766 4.96534,3.20725 9.29673,1.01958 l 3.88715,-1.9633 2.29424,3.16243 c 1.17572,1.77586 1.96329,3.88715 1.68845,4.72293 -0.27483,0.83578 -0.0745,2.19825 0.48526,3.03065 0.672,1.05452 0.53797,2.30706 -0.34489,4.1469 -1.71187,3.23431 -1.06848,4.09419 4.75449,6.10162 4.79255,1.7612 7.0228,2.86505 7.58374,3.97566 0.1408,0.41677 0.893,0.66412 1.44943,0.66186 0.6675,-0.0583 1.50553,0.77293 1.9268,1.74499 0.61817,1.4999 0.31359,1.86282 -1.68664,2.5943 -1.27777,0.50598 -2.80627,0.9295 -3.44629,0.90427 -0.66749,0.0583 -1.13696,0.92274 -1.21491,2.28634 -0.1043,1.725404 0.39942,2.446734 2.18204,2.940314 2.08944,0.68709 7.00814,-0.75177 6.86396,-2.00318 -0.0869,-0.862144 5.1318,-3.776784 6.21831,-3.419504 1.08651,0.35729 4.6175,-0.24128 6.47807,-1.11131 2.72157,-1.2352 6.63057,-4.67316 7.15275,-6.26114 0.30232,-0.91936 1.02253,-1.70129 1.57896,-1.70355 0.75108,-0.0309 1.27552,-1.06241 1.51724,-3.20569 0.40662,-2.64476 0.12614,-3.20007 -1.32103,-3.30549 -1.00181,-0.0516 -2.05633,0.62042 -2.35865,1.53977 -0.49471,1.5044 -5.7022,7.20122 -6.37082,6.98136 -1.17009,-0.38477 -2.04688,-3.91464 -1.21673,-5.03089 0.66411,-0.893 0.43861,-1.61546 -0.76122,-2.47309 -3.06828,-1.93512 -3.81935,-1.90425 -4.61638,0.5195 -0.43973,1.33725 -1.76909,2.84503 -2.96328,3.37849 -1.86057,0.87003 -2.8074,0.65128 -5.93065,-1.11668 -3.51365,-1.98896 -3.65332,-2.12751 -2.77497,-5.08022 0.52218,-1.58798 0.76502,-3.45304 0.67919,-4.03696 -0.14192,-0.69498 0.13404,-1.25254 0.63439,-1.36586 0.50033,-0.11331 1.35683,-1.59136 1.87902,-3.17934 0.52219,-1.58798 0.57265,-2.868 0.15588,-2.7272 -0.41675,0.1408 -0.69835,-0.69273 -0.61929,-1.77811 0.0494,-1.55824 -0.23001,-1.83533 -1.4242,-1.30187 -0.83353,0.28159 -1.85831,1.42645 -2.24308,2.59654 -0.74205,2.25661 -4.09124,6.52697 -4.92701,6.25213 -1.22619,-0.49583 -2.43391,-3.30098 -2.27577,-5.47175 0.0779,-1.3636 -0.54022,-2.86349 -1.4607,-3.44403 -0.92048,-0.58053 -1.22957,-1.330481 -0.73036,-1.722014 0.41564,-0.419017 0.30232,-0.919357 -0.3663,-1.139225 -1.33725,-0.439737 -2.99372,-4.133375 -3.50871,-7.636882 -0.28498,-1.668175 -1.85112,-3.665027 -4.83807,-6.1291 -2.40078,-1.993469 -4.8874,-4.570858 -5.50443,-5.792533 -0.72923,-1.443799 -2.31947,-2.522421 -4.54858,-3.348056 -1.92229,-0.632122 -3.70604,-1.403916 -3.9579,-1.764584 -1.0338,-1.080876 3.65714,-3.798631 6.99462,-4.090373 1.89142,-0.118952 4.50419,-0.741625 5.83693,-1.414756 1.30524,-0.589553 2.64024,-0.706251 3.05925,-0.290616 0.30796,0.47173 1.08652,0.357287 1.69679,-0.09034 0.55418,-0.558688 2.86124,-1.096656 5.05837,-1.300313 2.30818,-0.25975 4.22597,-0.740496 4.36339,-1.158385 0.10993,-0.334312 0.861,-0.365177 1.55824,0.04933 0.8083,0.358413 3.4794,0.403235 5.89865,0.08739 5.03314,-0.660301 12.60448,0.25498 19.20713,2.426183 5.51613,1.813916 12.48847,5.958995 12.85703,7.654654 0.19802,0.80604 1.03493,1.359093 1.95316,1.383195 1.75287,0.02072 7.98766,7.535271 11.60293,14.00319 1.23294,2.165135 2.71549,4.134503 3.21697,4.299404 0.50146,0.164901 1.34287,1.830823 1.8511,3.665027 0.6193,1.778114 1.99755,5.472874 3.23275,8.194444 1.15162,2.69409 2.16583,5.80606 2.25391,6.94641 0.0606,1.22393 0.62155,2.33455 1.17911,2.61051 0.58505,0.19238 1.87409,2.46858 2.77498,5.08022 l 2.33412,6.13924 c 0.36517,0.86101 0.5918,1.86169 0.48187,2.196 -0.10994,0.33431 0.31471,2.14103 0.9901,4.0302 0.6479,1.972754 1.19263,5.949114 1.20503,9.009514 -0.0712,3.03289 0.16672,6.815755 0.36812,8.456445 0.28498,1.66817 0.31923,3.2539 0.12572,3.56073 -0.19352,0.30683 -0.18788,1.69791 0.0399,2.9768 0.22776,1.27891 0.20929,3.58822 -0.007,5.09149 -0.21648,1.50328 -0.34375,4.42512 -0.27977,6.4837 0.064,2.05859 0.0192,4.7297 -0.11487,5.98224 -0.13404,1.25253 0.0113,2.78217 0.23677,3.50463 0.2255,0.72246 0.11783,1.61321 -0.38139,2.00474 -0.38815,0.33544 -0.44199,0.78081 -0.10768,0.89075 0.41789,0.13741 0.67651,2.16738 0.54699,4.5328 -0.0459,2.39289 0.44494,6.81462 1.12483,9.81666 l 1.98584,9.4515 c 0.3983,2.16851 0.93627,4.47557 1.32892,5.253 0.30909,0.74995 1.0417,3.0284 1.66211,5.08472 0.62042,2.05633 1.5774,4.77903 2.16695,6.08428 0.67314,1.33274 1.18137,3.16695 1.24085,4.11266 0.004,0.83465 0.45213,1.72314 0.9536,1.88804 0.41789,0.13742 0.58843,1.02703 0.28611,1.9464 -0.30232,0.91935 -0.0482,1.83645 0.45326,2.00136 0.58504,0.19238 2.51635,3.05024 4.31024,6.32598 3.83964,6.91217 6.86197,11.24019 8.11563,11.65244 0.50148,0.1649 0.64227,0.58166 0.25412,0.9171 -0.38815,0.33544 0.032,1.02929 1.00857,1.72089 0.92048,0.58054 2.26224,2.13314 3.04643,3.40979 0.67313,1.33273 1.7619,2.24645 2.26224,2.13313 0.58392,-0.0858 0.83577,0.27485 0.61591,0.94346 -0.19239,0.58505 0.81844,2.86238 2.27351,4.91532 3.88897,5.35392 12.16231,21.59638 11.72258,22.93362 -0.10994,0.33431 0.39717,1.8903 1.155,3.52874 1.45958,3.16581 3.02865,12.7581 2.42402,14.59682 -0.19238,0.58504 -0.023,1.19645 0.31133,1.30638 0.58505,0.19239 0.65918,4.75492 0.0511,5.75898 -0.19351,0.30683 -0.29893,1.75401 -0.20972,3.17257 0.15094,2.92073 0.12572,3.56073 -0.82494,9.26813 -0.43636,2.1719 -1.08469,6.95994 -1.45932,10.63398 -0.80422,7.51524 -3.88394,23.35853 -5.85825,30.48901 -1.69947,6.29469 -8.28382,22.37476 -13.33361,32.6616 -2.26267,4.62765 -4.35931,9.03204 -4.63414,9.86782 -0.27484,0.83579 -1.05114,1.50666 -1.80222,1.53753 -0.75107,0.0309 -1.24916,0.70061 -1.21829,1.45168 0.0309,0.75107 -0.38477,1.17009 -0.88624,1.00519 -0.50146,-0.1649 -1.05677,0.11557 -1.24916,0.70061 -0.1649,0.50148 -1.13471,1.47918 -2.24533,2.04012 -1.94301,1.12076 -3.85628,2.71437 -7.01533,5.84325 -1.77361,1.73217 -4.43908,3.07843 -5.4695,2.8322 -0.33431,-0.10993 -0.53233,-0.91598 -0.42465,-1.80672 0.10317,-2.00361 -3.21358,-3.46475 -5.60197,-2.39783 -0.97207,0.42127 -2.49606,1.95766 -3.26898,3.46319 -2.20996,3.90406 -4.98199,6.41928 -11.20031,9.83878 -3.16468,1.73779 -6.1336,3.7252 -6.63168,4.39495 -0.4981,0.66974 -1.6087,1.23069 -2.44336,1.23407 -0.83465,0.004 -2.86349,0.54023 -4.44697,1.1309 -1.61095,0.67426 -4.61186,1.63237 -6.66819,2.25279 -2.05632,0.62042 -4.94505,1.80065 -6.52739,2.66955 -1.58235,0.8689 -3.66616,1.57289 -4.58438,1.54879 -1.0293,0.032 -1.94527,0.56433 -2.16514,1.23295 -0.21987,0.66863 -0.80266,1.03267 -1.38771,0.84028 -0.50146,-0.16489 -2.75468,-0.0723 -4.86824,0.15884 -8.48167,1.00814 -12.9595,1.38797 -14.04601,1.03068 -0.58504,-0.19239 -2.50396,0.0101 -4.28319,0.35122 -1.72315,0.45213 -3.81034,0.32148 -4.59115,-0.12051 -0.83691,-0.55305 -2.14442,-0.51994 -2.94932,-0.0437 -0.91598,0.53233 -2.02772,0.81505 -2.52919,0.65016 -2.22912,-0.82564 -11.52022,-0.45413 -11.82254,0.46522 -0.1649,0.50146 -0.91597,0.53234 -1.75288,-0.0208 -0.78081,-0.44199 -4.87274,-0.95404 -9.12958,-0.96461 -4.22935,-0.0942 -8.70943,-0.27077 -9.93449,-0.48838 -1.22505,-0.21762 -3.98087,-0.56814 -6.23522,-0.75376 -2.22686,-0.2692 -7.85181,-1.47059 -12.55852,-2.64787 -4.67924,-1.26087 -13.22828,-3.14596 -18.90819,-4.18019 -6.01423,-1.14417 -12.55966,-2.92609 -15.48601,-4.16624 -5.74164,-2.53638 -17.51216,-9.83374 -18.38106,-11.41609 -0.28047,-0.5553 -1.34063,-1.27439 -2.34356,-1.60418 -1.08651,-0.35729 -2.23137,-1.38207 -2.68013,-2.27057 -0.44875,-0.88849 -2.29085,-2.32778 -4.1032,-3.29421 -1.81235,-0.96644 -3.15186,-1.96261 -3.01444,-2.3805 0.13742,-0.41789 -0.42127,-0.97207 -1.25705,-1.2469 -0.7522,-0.24735 -2.53933,-1.8538 -3.90969,-3.60104 -1.28679,-1.71976 -3.52042,-3.65827 -4.83018,-4.18159 -1.39334,-0.55079 -2.28747,-1.49313 -2.09508,-2.07817 0.1649,-0.50147 -0.4224,-1.25029 -1.25818,-1.52512 -0.91935,-0.30232 -1.72877,-0.93895 -1.84209,-1.43929 -0.11331,-0.50034 -2.20952,-2.85674 -4.66753,-5.23948 -5.94981,-5.84638 -12.25985,-18.20168 -11.10554,-21.71195 0.21987,-0.66862 0.0768,-1.64182 -0.25862,-2.02997 -0.39154,-0.49921 -0.25638,-1.47354 0.26919,-2.22687 0.52558,-0.75332 0.68371,-2.9241 0.23045,-4.92545 -0.71188,-4.03133 -0.71526,-4.86598 0.29105,-3.70153 0.33544,0.38815 0.86326,0.19126 1.11062,-0.56095 0.24735,-0.7522 -0.0606,-1.22392 -0.64452,-1.13809 -0.61141,0.16941 -0.77969,-0.16377 -0.50373,-0.72133 0.30345,-0.64115 0.62874,-2.75695 0.73191,-4.76056 0.35885,-7.56909 3.70283,-19.99132 7.84002,-28.91117 l 3.3093,-7.24718 c 0.85537,-1.75626 2.62222,-5.15772 3.94819,-7.50016 3.426,-5.91218 4.75084,-8.53282 6.21085,-12.1278 0.74432,-1.70017 1.60082,-3.17822 2.04506,-3.4026 0.33318,-0.16828 0.94121,-1.17234 1.24353,-2.09169 0.32979,-1.00294 1.40842,-2.59317 2.4893,-3.62697 1.2469,-1.25704 1.71638,-2.12144 1.32372,-2.89887 -0.39267,-0.77742 -0.0618,-1.50215 1.24352,-2.0917 0.99955,-0.50485 1.99798,-1.28791 2.13539,-1.7058 0.6069,-1.28228 1.05002,-1.78487 4.86867,-6.91962 2.10341,-2.73509 3.78893,-5.60761 3.73058,-6.2751 -0.0309,-0.75108 0.52218,-1.58798 1.18855,-1.92455 0.99955,-0.50485 1.05339,-0.95022 0.32642,-1.83759 -0.5312,-0.63775 -0.56095,-1.11061 -0.0595,-0.94571 0.58504,0.19239 1.49989,-0.61816 2.19036,-1.87296 0.66298,-1.17122 2.15612,-3.45868 3.26222,-5.1325 2.4893,-3.62696 4.36721,-7.08452 5.13561,-9.70291 2.14372,-6.51907 2.44492,-7.71665 3.07366,-10.47359 0.27258,-1.39221 0.26694,-2.7833 0.12615,-3.20007 -0.25186,-0.36066 -0.1728,-1.44605 0.10204,-2.28182 0.27483,-0.83578 -0.007,-1.66931 -0.5918,-1.86169 -0.75221,-0.24736 -0.69724,-0.41451 0.21986,-0.66863 1.00068,-0.22662 1.05227,-1.22843 0.15138,-3.84006 -0.67538,-1.88918 -0.99349,-4.86486 -0.74952,-6.45172 0.24397,-1.58684 -0.096,-3.08786 -0.76459,-3.30774 -0.66863,-0.21986 -0.86665,-1.0259 -0.50823,-1.8342 1.24014,-2.92635 1.17841,-4.4285 0.008,-4.81327 -0.75221,-0.24735 -1.08877,-0.91372 -0.81281,-1.47128 1.21379,-2.56456 1.26087,-4.67924 0.25004,-6.95655 -0.58955,-1.30526 -0.73486,-2.83489 -0.26426,-3.42106 0.4706,-0.58618 0.24284,-1.86507 -0.45665,-2.83601 -0.92273,-1.13697 -0.98108,-1.80447 -0.17504,-2.00249 0.80604,-0.19802 0.96982,-0.97771 0.51767,-2.70084 -0.39491,-1.33387 -0.48524,-3.03066 -0.2379,-3.78286 0.49471,-1.5044 -0.76078,-9.23388 -1.62629,-9.98157 -0.27935,-0.27709 -0.25524,-1.19532 0.0471,-2.11467 0.27483,-0.83579 0.10429,-1.7254 -0.3136,-1.86282 -0.50146,-0.1649 -0.3663,-1.13923 0.18562,-2.25435 0.60803,-1.00406 0.74207,-2.2566 0.43411,-2.72833 -0.41902,-0.41563 -0.31134,-1.30638 0.15926,-1.89255 0.47061,-0.58618 0.49696,-0.94797 -0.004,-0.83465 -0.50034,0.11331 -0.64227,-0.58167 -0.36856,-1.69566 0.24623,-1.03042 1.17616,-4.98494 1.96755,-8.79978 1.58278,-7.62969 3.20656,-12.004345 7.67693,-21.092489 z m 4.81857,42.520589 c 0.0399,2.97681 0.41182,5.50712 0.8297,5.64453 0.41789,0.13742 0.58731,0.74882 0.39492,1.33387 -0.71457,2.17303 6.92708,13.57698 8.81737,13.17981 0.50035,-0.11332 1.70018,0.74431 2.67901,1.99234 2.93649,3.7441 20.14902,8.29285 23.17291,6.13829 0.36067,-0.25186 3.19555,-0.98672 6.36475,-1.61165 3.16919,-0.62493 6.50329,-1.75133 7.50171,-2.53439 3.63304,-2.8804 9.55285,-11.30668 13.05791,-18.30424 1.98671,-4.07009 3.94932,-7.22194 4.36721,-7.08453 1.25367,0.41225 3.35299,-10.19649 2.91933,-14.22895 -0.28611,-1.9464 -0.76573,-3.58596 -1.18362,-3.72338 -0.33431,-0.10993 -0.50372,-0.72133 -0.28386,-1.38995 0.21988,-0.66863 -0.64789,-1.97276 -1.82024,-2.91396 -1.28341,-0.88511 -2.09508,-2.07817 -1.95766,-2.49606 0.1649,-0.50147 -0.11558,-1.05678 -0.53347,-1.19419 -0.50146,-0.1649 -1.45168,-1.2183 -2.06872,-2.43998 -1.40123,-2.498325 -7.7919,-7.285665 -11.38574,-8.467455 -6.4355,-2.11624 -23.42972,-0.85104 -24.3092,1.82346 -0.1649,0.50146 -1.27551,1.06241 -2.55441,1.29016 -3.58596,0.76573 -15.65853,8.187515 -17.29021,10.614655 -2.73778,4.10095 -6.68527,18.64012 -6.71769,24.37162 z m 13.08313,-18.94426 c 4.10026,-4.30123 16.09377,-10.63763 21.57227,-11.244095 1.91892,-0.20253 3.72564,-0.62718 4.05882,-0.79546 2.58077,-1.65197 11.82705,0.64764 16.01383,3.969345 5.35913,4.2629 9.19201,9.50576 8.5324,11.51163 -0.13742,0.4179 0.0595,0.94572 0.39378,1.05565 1.58798,0.52218 0.0327,8.0683 -2.40052,11.80632 a 61.665676,61.665676 0 0 0 -3.42487,6.1904 c -0.60689,1.28228 -1.54697,2.73284 -2.04618,3.12438 -0.61027,0.44762 -1.10836,1.11737 -1.05114,1.50665 -0.23608,3.53437 -11.40551,14.12423 -14.02391,13.35581 -0.7522,-0.24736 -1.80898,-0.13178 -2.30819,0.25975 -0.41564,0.41901 -1.91891,0.20253 -3.34085,-0.5429 -1.36586,-0.63438 -4.23386,-1.20703 -6.37603,-1.17053 -2.19825,-0.0745 -5.37196,-0.5625 -7.01603,-1.19575 -3.42781,-1.40504 -12.16656,-8.90945 -11.75431,-10.16312 0.13742,-0.41789 -0.11782,-1.6132 -0.65015,-2.52918 -1.06579,-2.11017 -1.38346,-11.84665 -0.35755,-12.71328 0.38815,-0.33545 0.3859,-0.89188 0.13404,-1.25255 -1.00632,-1.16445 1.71794,-8.60401 4.04459,-11.17307 z"
     id="path2"
     style="stroke-width:0.879807" />
  <path
     style="fill:none;stroke:#000000;stroke-width:0.75px;stroke-linecap:butt;stroke-linejoin:miter;stroke-opacity:1"
     d="M 475.07919,242.78243 301.89402,214.42911"
     id="path846-8" />
  <path
     style="fill:none;stroke:#000000;stroke-width:0.75px;stroke-linecap:butt;stroke-linejoin:miter;stroke-opacity:1"
     d="M 429.93031,298.18269 256.74513,269.82937"
     id="path846-24" />
  <path
     d="m 205.96683,120.7828 c 1.2958,3.94551 3.45036,6.9694 5.40126,7.79615 1.14261,0.46836 4.98155,0.34151 8.45645,-0.36812 6.00521,-1.08157 6.47693,-1.38952 7.02322,-3.89573 1.23113,-5.15209 0.0829,-7.01153 -5.26609,-8.77047 -4.26247,-1.40167 -4.93222,-1.89975 -4.85541,-3.54157 0.023,-1.19645 -0.50823,-1.8342 -1.42646,-1.85831 -0.75107,0.0309 -1.83645,-0.0482 -2.4215,-0.24059 -0.58504,-0.19238 -2.08606,0.14756 -3.4188,0.82069 -2.83263,1.2913 -4.67516,6.6128 -3.49267,10.05795 z m -35.54839,208.08692 c 0.18293,3.95 -0.0531,7.48438 -0.57421,9.35058 -0.62874,2.75693 10.6007,20.71239 11.4252,18.20505 0.0824,-0.25073 0.89188,0.3859 1.75852,1.41181 3.41161,4.2708 9.35014,7.335 21.85821,11.26289 6.71371,2.11511 12.78516,3.64856 13.39656,3.47914 0.80603,-0.19802 1.16896,0.10655 0.97658,0.6916 -0.19239,0.58504 0.42127,0.97207 1.72877,0.93895 1.16897,0.10656 2.72721,0.15589 3.42332,0.29218 0.77968,0.16377 2.00361,0.10317 2.80965,-0.0949 0.80604,-0.19802 2.7272,0.15588 4.34379,0.87271 1.97839,0.74319 3.62021,0.82 5.28613,-0.0214 1.38883,-0.56206 2.417,-0.87227 2.30706,-0.53796 -0.0824,0.25073 0.66862,0.21987 1.61321,-0.11783 1.58347,-0.59067 1.66705,-0.56319 0.75333,0.52557 -1.24578,1.53528 -0.13066,2.0872 1.97951,1.02141 0.861,-0.36518 2.47308,-0.76122 3.55848,-0.68215 1.11286,-0.004 2.14102,-0.31472 2.25096,-0.64903 0.13741,-0.41789 2.47647,0.0735 5.20705,1.06397 2.75808,0.90696 5.12573,1.59292 5.37534,1.39715 0.49809,-0.66975 8.17034,-2.31451 9.7011,-2.1816 0.7236,0.0527 3.59159,0.62536 6.43212,1.28158 3.28588,0.71006 4.67697,0.70442 4.14577,0.0667 -1.31427,-1.63619 1.35458,-2.1478 3.80808,-0.87792 0.94797,0.49696 1.92229,0.63213 2.08719,0.13065 0.16491,-0.50146 0.63776,-0.5312 0.9732,-0.14305 0.39153,0.49922 1.39333,0.5508 2.22686,0.2692 0.86101,-0.36517 1.50103,-0.33994 1.41857,-0.0892 -0.10993,0.33431 0.69724,0.41451 1.78149,0.21536 1.08426,-0.19915 1.86057,-0.87003 1.77473,-1.45395 -0.2255,-0.72246 0.0802,-0.80716 0.88962,-0.17053 0.66975,0.49809 3.14622,0.57152 5.59295,0.1721 2.47422,-0.48301 5.03427,-0.38208 5.62044,0.0885 0.55869,0.55418 1.1987,0.5794 1.3636,0.078 0.1649,-0.50147 -0.14418,-1.25141 -0.67426,-1.61096 -0.41901,-0.41563 0.0813,-0.52894 1.25142,-0.14418 2.20051,0.631 8.11537,-2.14736 8.77498,-4.15322 0.19239,-0.58505 0.83014,-1.11626 1.47015,-1.09103 0.55644,-0.003 1.30525,-0.58955 1.71977,-1.28678 0.33093,-0.72472 2.38274,-2.45801 4.40821,-3.82951 3.52422,-2.26787 3.91125,-2.88152 4.95111,-7.17034 0.57378,-2.58979 1.37305,-4.45711 1.7085,-4.06897 0.25185,0.36067 0.77855,-0.11444 1.10835,-1.11737 0.32981,-1.00294 0.8565,-1.47804 1.16446,-1.00632 0.41901,0.41563 0.83465,-0.004 1.02591,-0.86664 0.27484,-0.83578 2.10115,-3.29153 4.09575,-5.4141 l 8.03448,-8.3792 c 2.41023,-2.54158 4.26741,-4.24626 4.15747,-3.91194 -0.13742,0.41788 1.16784,-0.17167 2.91621,-1.26382 1.83195,-1.06466 3.2735,-2.35032 3.21628,-2.7396 0.0264,-0.3618 0.38702,-0.61366 0.72133,-0.50372 0.58505,0.19238 7.10117,-5.25933 6.98785,-5.75968 -0.16941,-0.6114 3.40302,-4.71573 3.9045,-4.55083 0.33431,0.10993 0.80491,-0.47624 1.16332,-1.28453 0.68822,-1.81123 2.0428,-3.95902 4.17482,-6.49948 1.52287,-1.81461 1.43703,-2.39852 -0.2334,-2.66998 -1.05789,-0.16265 -0.42127,-0.97207 2.79726,-3.15524 1.69228,-1.20321 2.99415,-2.62741 2.85222,-3.32239 -0.1694,-0.61141 0.32868,-1.28115 1.05114,-1.50666 1.00069,-0.22663 1.16671,-0.44988 0.33093,-0.72472 -0.50146,-0.1649 -0.81055,-0.91485 -0.59067,-1.58346 0.21986,-0.66863 -0.0892,-1.41858 -0.67427,-1.61096 -2.34017,-0.76954 -4.36295,-5.60241 -3.48347,-8.2769 0.4947,-1.5044 1.37981,-2.7878 1.88015,-2.90112 1.61208,-0.39604 0.378,-2.83939 -2.04801,-4.19285 -1.08764,-0.6355 -3.25954,-1.07186 -4.65062,-1.06622 -1.86394,0.0354 -3.00654,-0.43298 -4.18002,-1.6524 -0.89412,-0.94233 -1.84322,-1.71751 -2.09395,-1.79995 -0.3618,-0.0264 -1.06129,-0.9973 -1.53865,-2.08044 -0.53346,-1.19419 -1.4562,-2.33115 -2.12482,-2.55103 -0.58505,-0.19238 -0.9491,-0.77518 -0.81168,-1.19306 0.1649,-0.50147 -0.56094,-1.11061 -1.64745,-1.4679 -1.08651,-0.35728 -2.14667,-1.07637 -2.5382,-1.57558 -0.28048,-0.55531 -2.54046,-2.13202 -4.93899,-3.56905 -3.79299,-2.26606 -5.2413,-2.6497 -9.55422,-2.77134 -5.4819,-0.22819 -11.04286,0.62901 -14.59796,2.1458 -4.02681,1.82476 -13.08227,5.42269 -16.94418,6.74597 -2.19488,0.76009 -4.63711,2.27238 -5.60692,3.25009 -0.91372,1.08877 -2.35527,2.37443 -3.18766,2.93424 -0.80491,0.47624 -1.8297,1.6211 -2.32665,2.56906 -1.15882,2.39741 -12.66482,12.32089 -18.93585,16.46398 -2.94143,1.90383 -7.29581,5.28794 -9.5961,7.49522 -2.38388,2.17978 -5.13067,4.05499 -6.29851,4.22666 -1.14035,0.0881 -2.11243,0.50936 -2.22236,0.84367 -0.13742,0.41789 -0.80491,0.47624 -1.47354,0.25636 -0.7522,-0.24735 -1.97387,0.36969 -2.83262,1.29131 -0.99731,1.06127 -3.58145,1.87859 -6.7243,2.14172 -2.86461,0.26201 -5.25525,0.77249 -5.36519,1.1068 -0.13742,0.41789 -0.80491,0.47624 -1.55711,0.22889 -0.7522,-0.24735 -3.3947,-0.0975 -5.95249,0.35797 -2.44674,0.39943 -6.03383,0.88694 -7.84167,1.03337 -4.00498,0.35009 -19.87462,-2.36783 -22.8021,-3.88619 -3.81936,-1.90426 -12.6982,-2.78642 -16.86695,-1.65665 -2.44561,0.67765 -5.44314,2.47041 -7.65985,4.70517 -2.05069,2.0115 -4.79524,4.44315 -6.09824,5.58913 -1.27552,1.06241 -2.68732,2.82093 -3.01713,3.82386 -0.41338,0.97545 -1.18856,1.92454 -1.68889,2.03786 -1.38996,0.28386 -1.88241,2.34469 -1.7808,6.82365 z m 18.58645,-13.42994 c 5.35843,-2.7761 7.58416,-2.78512 16.07937,-0.45465 10.44497,2.87901 10.66935,3.32326 6.50355,12.04847 -4.35931,9.03205 -5.33138,9.45332 -15.27715,6.18277 -7.85631,-2.58346 -8.07956,-2.74949 -10.12531,-6.3859 -2.85743,-4.82948 -1.78895,-8.92367 2.81954,-11.39069 z m -4.89746,27.28557 c 1.52738,-0.70174 3.9214,-0.37758 11.46977,1.73415 5.68216,1.59067 9.97324,3.18697 10.56054,3.93578 0.72698,0.88737 0.42803,2.64138 -0.86482,6.29132 -0.93444,2.84165 -2.09326,5.23905 -2.53751,5.46342 -1.47127,0.8128 -13.17443,-3.59132 -13.51438,-5.09235 -0.2255,-0.72246 -0.78419,-1.27664 -1.36811,-1.19081 -0.52782,0.1969 -1.36586,-0.63437 -1.89932,-1.82857 -0.53345,-1.19419 -1.7905,-2.44109 -2.79344,-2.7709 -1.00293,-0.32979 -1.92341,-0.91034 -2.17528,-1.271 -0.61703,-1.22168 1.20703,-4.23386 3.12255,-5.27104 z m 43.5568,-23.74184 a 2.2962964,2.2962964 0 0 0 1.61322,-0.11782 c 0.44424,-0.22438 1.19644,0.023 1.78261,0.49358 0.58617,0.4706 1.17009,0.38476 1.33499,-0.1167 0.16491,-0.50147 0.8038,-0.75446 1.30526,-0.58956 0.58504,0.19239 3.14284,-0.26313 5.67202,-0.91328 2.52919,-0.65016 5.42129,-0.99574 6.42423,-0.66594 1.0865,0.35728 2.03222,0.29781 2.19712,-0.20366 0.13742,-0.41789 1.80559,-0.70287 3.61457,-0.57109 3.00542,0.15476 3.39583,0.37576 4.01624,2.43209 1.60602,4.97366 -0.86074,14.16497 -4.87854,18.21546 -1.49652,1.45282 -3.10296,3.23994 -3.62853,3.99327 -1.52174,2.09282 -5.69613,1.83152 -13.24675,-0.83664 -6.4641,-2.31088 -7.16133,-2.72538 -8.25686,-5.30841 -0.61816,-1.49989 -0.82182,-3.69702 -0.46454,-4.78354 0.38478,-1.17009 0.13066,-2.08719 -0.62154,-2.33454 -0.66863,-0.21986 -0.83803,-0.83127 -0.36743,-1.41744 0.4706,-0.58617 0.71569,-1.8948 0.54516,-2.78443 -0.36969,-1.97387 1.62153,-4.93109 2.95877,-4.49135 z m -7.75192,30.05152 c 1.77585,-1.17572 3.0284,-1.04168 9.18455,0.79746 8.83064,2.71862 9.2233,3.49606 6.92707,13.57698 l -0.95629,4.31631 -4.45034,0.29626 c -4.92321,0.32598 -11.04849,-0.76209 -13.72636,-2.47621 -1.39447,-0.82902 -1.81687,-2.07931 -1.52244,-4.94618 0.4778,-5.67766 2.21264,-10.10842 4.54381,-11.56462 z m 30.7296,3.43675 c 2.07253,-3.48616 5.28656,-6.7822 6.62155,-6.8989 2.50395,-0.0101 12.0913,4.06869 14.60428,6.28428 2.23362,1.93851 2.5988,2.79952 1.96667,4.72181 -0.41225,1.25367 -0.76165,4.2877 -0.8076,6.68059 -0.1205,4.59115 -0.67469,5.14984 -3.73958,4.04937 -1.08652,-0.35729 -4.26135,-1.12345 -7.04577,-1.66861 -4.17665,-0.81775 -5.31699,-0.72966 -7.1192,0.80786 -2.21786,1.95654 -9.47222,3.73873 -10.39496,2.60175 -0.67087,-0.7763 3.67604,-12.86873 5.91461,-16.57815 z m 20.18898,-43.65131 c 0.64002,0.0252 1.27777,-0.50598 1.47016,-1.09102 0.41225,-1.25367 3.87588,-4.74547 5.12616,-5.16787 0.50035,-0.11331 2.60939,-1.45733 4.82948,-2.85742 3.24602,-2.26675 4.13563,-2.43729 5.25301,-1.32893 0.67088,0.7763 1.36811,1.19081 1.45056,0.94008 0.49471,-1.5044 2.66843,6.24918 2.79414,9.80991 0.30752,7.23251 -0.1597,8.65334 -4.15115,12.34204 -5.9322,5.36589 -14.66574,6.01335 -16.68852,1.1805 -0.39378,-1.05566 -1.12189,-2.22124 -1.40122,-2.49833 -2.34583,-2.16062 -1.29763,-11.26272 1.31738,-11.32896 z m 32.02644,-26.69992 c 4.12661,-4.66302 6.98335,-6.87254 8.43166,-6.4889 0.58504,0.19239 1.19644,0.023 1.30637,-0.31134 0.13743,-0.41789 1.69341,-0.92499 3.50125,-1.07143 3.30888,-0.48637 3.28139,-0.4028 5.63397,3.42713 2.71663,4.41272 4.64863,14.30959 3.55267,18.48735 -1.25974,4.95745 -2.47352,7.52201 -3.25659,6.52358 -0.47511,-0.5267 -0.7522,-0.24735 -0.74769,0.86552 -0.10318,2.00362 -1.68439,3.15073 -6.32486,4.58846 -2.69522,0.87341 -4.03134,0.71188 -6.15052,-0.44806 -1.50553,-0.77292 -2.56682,-1.77022 -2.45688,-2.10453 0.13742,-0.41789 -0.67313,-1.33274 -1.76077,-1.96824 -1.06016,-0.71908 -2.54158,-2.41023 -3.29829,-3.77046 -1.84999,-3.38681 -4.11673,-6.63282 -4.78535,-6.85268 -1.00294,-0.32981 0.50528,-5.76124 1.72696,-6.37828 0.66636,-0.33656 2.71705,-2.34807 4.62807,-4.49812 z m -14.28894,57.81672 c 2.02095,-2.48437 7.38615,-3.59116 11.39789,-2.27196 5.2654,1.73147 7.95004,5.1149 8.36186,10.62202 0.26087,2.5864 0.68778,4.94957 0.96713,5.22665 0.27933,0.27709 0.39378,1.05565 0.17392,1.72427 -0.19239,0.58505 0.23,1.83533 0.95698,2.7227 0.72697,0.88736 1.20433,1.97049 1.06692,2.38839 -0.13742,0.41788 0.11782,1.6132 0.59518,2.69633 0.78645,1.83308 0.62042,2.05633 -2.18472,3.26405 -1.72202,0.73035 -3.55623,1.23857 -3.97411,1.10116 -0.50147,-0.1649 -2.00249,0.17504 -3.4749,0.70963 -1.47241,0.53459 -3.4749,0.70964 -4.47783,0.37983 -1.00293,-0.3298 -2.19938,-0.35277 -2.61502,0.0662 -0.38814,0.33544 -1.44492,0.45101 -2.2807,0.17617 -0.83578,-0.27484 -3.67292,-0.0964 -6.23071,0.35911 -4.50419,0.74162 -4.75492,0.65917 -5.12348,-1.03649 -0.22663,-1.00068 -0.28724,-2.22461 -0.23339,-2.66998 0.49244,-2.06084 1.08018,-8.0728 0.88103,-9.15706 -0.2575,-1.75176 4.36651,-14.12353 6.19395,-16.30106 z m 40.74905,-71.25073 c 5.442,-2.74862 8.86306,-3.01288 15.60313,-1.25957 5.09712,1.39828 6.88087,2.17007 8.02799,3.75129 0.83916,1.10949 2.15117,2.18924 2.90337,2.43659 0.7522,0.24736 2.48436,2.02095 3.88333,3.96284 1.48256,1.96937 2.85179,3.4384 3.18498,3.27012 0.3057,-0.0847 0.89413,0.94232 1.26156,2.35977 0.70625,2.64024 -0.17773,4.20186 -2.01645,3.59722 -0.58504,-0.19237 -2.00248,0.17505 -3.14058,0.81957 -1.1381,0.64452 -2.47196,1.03944 -2.88985,0.90202 -0.50147,-0.1649 -1.6693,0.007 -2.5578,0.45551 -0.97207,0.42127 -3.75424,0.43255 -6.09329,-0.0588 -4.98381,-0.89794 -5.06738,-0.92542 -5.59746,-1.28496 -0.22325,-0.16603 -1.47805,-0.8565 -2.87139,-1.4073 -3.1496,-1.40617 -5.97503,-5.20636 -5.39901,-7.23971 0.24735,-0.7522 -0.11782,-1.61321 -0.78645,-1.83308 -0.7522,-0.24735 -1.33949,-0.99617 -1.37036,-1.74724 -0.0309,-0.75108 -1.06579,-2.11017 -2.23813,-3.05138 -2.51185,-1.93738 -2.48549,-2.29917 0.0964,-3.67291 z m -6.22516,56.67115 c 1.86056,-0.87002 2.55667,-0.73373 4.31519,0.67808 1.67493,1.38432 2.45461,1.5481 3.11986,0.93332 1.8583,-1.42647 6.44607,-2.14061 8.9534,-1.3161 4.84752,1.59404 4.93335,2.17796 0.94303,6.14488 -1.96711,2.03899 -3.88039,3.6326 -4.35324,3.66234 -0.38928,0.0572 -0.91485,0.81055 -1.18968,1.64633 -0.27485,0.83577 -0.91147,1.6452 -1.41181,1.75851 -0.80605,0.19802 -3.62515,4.82793 -4.47826,7.14062 -0.13742,0.41789 -0.77406,1.22732 -1.4393,1.8421 -0.66524,0.61478 -1.96373,2.87363 -2.90155,4.88063 -2.06803,4.59904 -2.59472,5.07415 -4.43569,3.91308 -1.45057,-0.94009 -3.34382,-8.13835 -2.2332,-8.6993 0.33318,-0.16828 0.30007,-1.47579 -0.0674,-2.89323 -0.76235,-2.75131 -0.0361,-8.90295 1.74811,-14.89194 0.87835,-2.95272 1.70849,-4.06896 3.4305,-4.79932 z m 23.5628,-21.2403 c 1.77472,-1.45394 10.02639,-4.29742 11.19648,-3.91264 0.33431,0.10993 1.66818,-0.28498 2.97343,-0.87454 1.55486,-0.78531 3.69702,-0.82182 6.06468,-0.13586 l 3.7324,1.04212 -1.12909,2.87026 c -1.4875,3.67855 -2.45393,5.49091 -3.42599,5.91218 -0.44425,0.22438 -1.10724,1.3956 -1.492,2.56569 -0.38478,1.17009 -2.8225,3.79525 -5.48572,5.69794 -3.68912,2.76934 -5.07795,3.33142 -6.63845,2.72564 -3.9579,-1.76457 -5.3821,-3.06645 -7.48282,-6.53571 -2.269,-3.80244 -1.75132,-6.50329 1.68708,-9.35508 z M 254.7013,145.79226 c 0.8128,1.47128 1.20998,3.36158 1.01871,4.22484 -1.64676,5.57111 -2.91213,9.13747 -4.37552,11.89779 -1.43478,2.95497 -8.10158,19.28577 -9.69563,24.13328 -1.70511,4.90361 -3.37034,12.78403 -2.86887,12.94893 0.33431,0.10994 0.31021,1.02816 -0.0196,2.0311 -2.80783,7.41208 -5.62061,20.47206 -5.10449,24.25379 0.37645,3.64318 0.27891,7.03788 -0.74405,15.49997 -0.189,1.41969 -0.0173,2.58753 0.40055,2.72494 0.41789,0.13742 0.55982,0.8324 0.33994,1.50102 -0.21986,0.66862 0.005,1.39109 0.50711,1.55599 0.50147,0.1649 1.78713,1.60645 2.85067,3.16018 1.42758,2.13652 3.46432,3.5472 7.19896,5.14576 2.81529,1.29624 5.93741,2.78598 6.85789,3.36652 2.00813,1.21604 9.37468,-0.34402 8.67294,-1.8714 -0.22438,-0.44424 0.1649,-0.50147 0.80717,0.0802 1.42308,1.02365 5.78308,-0.96939 6.44268,-2.97526 0.24736,-0.7522 1.1622,-1.56275 2.02322,-1.92793 0.861,-0.36517 1.80334,-1.2593 2.05069,-2.0115 0.24735,-0.7522 1.02253,-1.70129 1.68889,-2.03786 1.33274,-0.67313 1.84929,-3.6522 1.14304,-6.29244 -0.70625,-2.64024 -5.06626,-0.64721 -6.94303,3.08857 -1.5722,3.37284 -5.31517,6.58756 -7.09779,6.09398 -0.50146,-0.1649 -1.11286,0.004 -1.2228,0.33882 -0.24735,0.7522 -7.48212,0.50329 -9.98946,-0.32121 -0.83578,-0.27484 -2.48211,-1.46452 -3.51591,-2.5454 -1.11737,-1.10836 -2.68012,-2.27056 -3.5159,-2.5454 -0.7522,-0.24735 -1.22844,-1.05226 -1.00857,-1.72089 a 1.3549028,1.3549028 0 0 0 -0.84141,-1.66591 c -1.25367,-0.41226 -1.14824,-1.85944 0.11938,-4.86937 0.33093,-0.72472 0.21649,-1.50328 -0.2014,-1.6407 -0.50147,-0.1649 -0.39717,-1.89029 0.26243,-3.89616 0.852,-2.59092 0.84523,-4.26022 0.0325,-5.73149 -0.75672,-1.36023 -0.81619,-2.30594 -0.14982,-2.6425 0.77743,-0.39267 1.05226,-1.22844 0.79702,-2.42377 -0.22663,-1.00067 0.31628,-4.34154 1.02748,-7.34921 0.82225,-3.06377 1.39263,-6.48821 1.33203,-7.71213 -0.0606,-1.22394 0.37689,-3.11762 1.03987,-4.28883 0.71796,-1.33838 0.82564,-2.22912 0.24059,-2.42151 -0.58504,-0.19238 -0.61478,-0.66524 0.023,-1.19645 1.27552,-1.06241 4.60103,-11.17532 3.76525,-11.45016 -0.41789,-0.13742 -0.28048,-0.5553 0.21874,-0.94684 0.5267,-0.47511 2.23519,-4.54407 3.85784,-9.19694 1.70624,-4.6254 4.07434,-10.70023 5.39806,-13.59909 3.19936,-6.91286 4.2701,-10.45062 3.56723,-12.25621 -0.39379,-1.05564 -0.28385,-1.38996 0.66185,-1.44944 0.86214,-0.0869 1.05566,-0.39378 0.55193,-1.11512 -0.39153,-0.49921 -0.64677,-1.69453 -0.70625,-2.64025 -0.004,-0.83464 -0.61929,-1.7781 -1.37149,-2.02545 -0.66862,-0.21987 -1.11625,-0.83014 -0.97883,-1.24803 0.38476,-1.1701 -2.40078,-1.99347 -4.06671,-1.15206 -1.9991,1.00969 -2.07817,2.09508 -0.48005,5.12123 z m 19.91693,-14.65951 c -0.35503,1.64295 -0.40324,3.47941 -0.12276,4.03471 0.25298,0.63888 0.31246,1.5846 0.12007,2.16964 -0.60464,1.83872 1.27396,5.42017 4.68219,8.85631 2.65377,2.63235 4.60579,3.73733 9.78762,5.44131 4.42963,1.45663 7.24153,1.91822 8.68646,1.46721 1.22281,-0.33882 2.30819,-0.25975 2.56005,0.10092 0.16828,0.33318 0.52895,0.0813 0.74881,-0.5873 0.27485,-0.83578 1.19195,-1.0899 2.52919,-0.65016 1.1701,0.38478 3.31225,0.34827 4.84076,-0.0752 1.61207,-0.39605 3.1131,-0.736 3.44741,-0.62606 0.33431,0.10994 1.5285,-0.42353 2.55441,-1.29017 1.082,-0.75558 2.44336,-1.23407 3.11197,-1.01421 1.92229,0.63213 8.49451,-4.70853 9.5114,-7.80091 0.49471,-1.5044 1.18631,-2.48098 1.52174,-2.09283 0.78307,0.99843 2.43997,-2.06872 3.47872,-6.63577 0.43636,-2.17189 1.25748,-5.51389 1.72245,-7.49114 0.54854,-1.94977 0.56701,-4.25909 0.20183,-5.1201 -0.47623,-0.80491 -1.20771,-2.80515 -1.7423,-4.27756 -0.50711,-1.55598 -1.43097,-2.97117 -2.01602,-3.16355 -0.58504,-0.19239 -1.06128,-0.9973 -1.09215,-1.74837 -0.11443,-0.77856 -0.50597,-1.27777 -1.00631,-1.16446 -0.50034,0.11332 -0.77969,-0.16377 -0.61478,-0.66524 0.24735,-0.7522 -6.00027,-4.56635 -8.11608,-4.89164 -5.79096,-0.97815 -12.13612,-1.39759 -15.16677,-0.91234 -3.69814,0.54361 -13.66619,5.50851 -15.49363,7.68604 -0.49808,0.66976 -2.05182,1.73329 -3.41204,2.49001 -4.83061,2.5792 -8.92073,9.38438 -10.72224,17.9609 z m 11.46005,-7.53059 c 1.0259,-0.86664 2.10565,-2.17866 2.38049,-3.01444 0.79703,-2.42376 16.45781,-10.05484 18.96515,-9.23032 1.17009,0.38477 3.75875,0.68032 5.73375,0.58886 2.97681,-0.0399 4.31406,0.39985 7.04802,2.22504 l 4.57494,2.98626 c 2.45462,1.5481 3.48348,8.27689 2.08407,13.09579 -2.9912,10.22286 -14.84503,16.6978 -26.51169,14.43583 -1.72652,-0.38252 -4.31293,-0.12164 -5.61818,0.46791 -2.41586,1.1505 -7.87366,0.004 -7.37895,-1.50032 0.1649,-0.50147 -0.14306,-0.97319 -0.64452,-1.1381 -1.42083,-0.46722 -4.72701,-6.18519 -4.42694,-7.66099 0.0527,-0.72358 0.10542,-1.44717 -0.007,-1.6693 -0.58956,-1.30525 2.10834,-8.38301 3.80061,-9.58622 z m 15.25486,2.05268 c -0.51993,2.14442 -0.34375,4.42512 0.30077,5.56322 1.12075,1.94301 1.37148,2.02546 5.59971,1.8414 5.64679,-0.27327 9.75607,-2.34876 9.88447,-4.99239 0.15701,-2.44899 -3.33818,-6.74727 -7.26972,-8.87365 -3.2904,-1.82293 -6.87636,-1.0572 -7.36655,1.56007 -0.16378,0.77968 -0.71119,3.00767 -1.14868,4.90135 z"
     id="path4"
     style="stroke-width:0.879807" />
  <path
     style="fill:none;stroke:#000000;stroke-width:0.75px;stroke-linecap:butt;stroke-linejoin:miter;stroke-opacity:1"
     d="M 414.95474,317.92122 241.76956,289.5679"
     id="path846-28" />
  <path
     style="fill:none;stroke:#000000;stroke-width:0.75px;stroke-linecap:butt;stroke-linejoin:miter;stroke-opacity:1"
     d="M 459.72865,260.87821 286.54348,232.52489"
     id="path846-2" />
  <path
     style="fill:none;stroke:#000000;stroke-width:0.75px;stroke-linecap:butt;stroke-linejoin:miter;stroke-opacity:1"
     d="M 356.90704,396.37181 100.96082,337.36624"
     id="path905" />
  <path
     style="fill:none;stroke:#000000;stroke-width:0.75px;stroke-linecap:butt;stroke-linejoin:miter;stroke-opacity:1"
     d="M 399.53281,338.5157 226.34764,310.16237"
     id="path846-92" />
  <path
     style="fill:none;stroke:#000000;stroke-width:0.75px;stroke-linecap:butt;stroke-linejoin:miter;stroke-opacity:1"
     d="M 343.30512,415.33788 88.273276,356.53551"
     id="path905-7"
     sodipodi:nodetypes="cc" />
  <path
     d="m 384.82345,330.61834 c -3.99901,9.51636 -6.18143,14.44639 -9.59956,21.68371 l -4.18817,9.04109 c -0.10334,0.31425 -0.71073,0.78691 -1.34902,1.04935 -0.63829,0.26244 -1.34517,1.03765 -1.57466,1.73553 -0.25422,0.77309 -0.65684,1.17787 -1.0438,1.05062 -0.34685,-0.11406 -0.89808,0.21313 -1.22514,0.72611 -0.32705,0.51298 -1.80847,1.77626 -3.29084,2.80584 -1.48236,1.02959 -3.63472,2.80668 -4.78222,3.94732 -1.14749,1.14062 -3.02656,2.52598 -4.17533,3.07623 l -2.089,1.00144 -0.26457,-1.64294 c -0.30254,-1.88234 -1.68186,-2.95458 -3.90992,-3.03987 -2.03691,-0.078 -3.57602,1.09037 -5.76151,4.37361 -2.36606,3.55358 -4.66422,5.53465 -10.31465,8.89175 -2.54712,1.51299 -5.55073,3.45101 -6.67602,4.30721 -1.12527,0.85619 -2.80908,1.67876 -3.7419,1.82861 -2.49736,0.40129 -12.44038,3.85368 -16.65568,5.78409 -2.01365,0.92157 -4.12538,1.67102 -4.69298,1.66498 -0.56759,-0.006 -1.5172,0.4652 -2.11024,1.04631 -0.60551,0.59367 -1.65743,1.01555 -2.40105,0.9618 -0.72832,-0.0524 -4.13798,0.21096 -7.57694,0.58603 -3.43898,0.37506 -7.65457,0.6559 -9.36687,0.62444 -1.71231,-0.0315 -4.31303,0.12653 -5.77947,0.35005 -1.46644,0.2235 -3.34627,0.18327 -4.1787,-0.0905 -0.90181,-0.29655 -2.28157,-0.24366 -3.41882,0.1307 -1.04889,0.34508 -2.37075,0.47535 -2.93824,0.28873 -1.46429,-0.48151 -9.11745,-0.16783 -10.46107,0.42856 -0.61932,0.27517 -1.99457,0.27489 -3.0571,-4.1e-4 -1.06254,-0.27531 -5.49228,-0.66135 -9.84335,-0.8585 -10.54432,-0.47867 -16.28064,-1.29065 -26.85322,-3.80134 a 607.92907,607.92907 0 0 0 -16.84605,-3.7114 c -10.51145,-2.11642 -18.28104,-4.58059 -22.94995,-7.27823 -5.59953,-3.23612 -11.27175,-7.04259 -12.81802,-8.60132 -0.77551,-0.782 -1.85932,-1.56999 -2.40759,-1.75028 -0.54827,-0.18029 -1.69696,-1.1202 -2.55169,-2.0894 -0.85473,-0.9692 -2.71821,-2.47017 -4.14038,-3.33608 -1.42215,-0.8659 -2.83348,-2.0098 -3.13667,-2.54108 -0.30319,-0.53129 -0.87351,-1.07263 -1.26883,-1.20263 -0.39532,-0.12999 -2.0367,-1.60793 -3.648,-3.28437 -1.61129,-1.67644 -3.83443,-3.63556 -4.94105,-4.35418 -1.10662,-0.71862 -2.16694,-1.82303 -2.35757,-2.45438 -0.19064,-0.63135 -0.81714,-1.30322 -1.39215,-1.49231 -0.57502,-0.18908 -1.40912,-0.87458 -1.85412,-1.52382 -0.445,-0.64924 -2.15362,-2.58458 -3.79707,-4.30123 -5.06783,-5.29239 -8.99378,-11.53369 -10.9277,-17.37185 -0.60163,-1.8149 -0.94584,-3.74799 -0.76554,-4.29625 0.18029,-0.54827 0.15839,-1.48997 -0.0488,-2.09343 -0.20722,-0.60346 -0.14841,-1.81312 0.13072,-2.68731 0.27914,-0.87419 0.31999,-3.0826 0.0922,-4.90793 -0.48366,-3.87199 -0.49737,-3.75704 0.41864,-3.45582 0.4814,0.1583 0.76854,-0.11217 0.88998,-0.83632 0.0992,-0.58884 -0.0871,-1.10113 -0.41249,-1.13959 -0.3254,-0.0385 -0.5544,-0.18416 -0.50823,-0.32458 0.0462,-0.14041 0.38412,-2.9087 0.75131,-6.15175 1.46551,-12.95103 6.52874,-27.26685 15.0673,-42.59779 1.63297,-2.9324 4.02101,-7.51603 5.30754,-10.18633 1.28654,-2.6703 2.67472,-5.17658 3.08491,-5.56776 0.41018,-0.39117 0.91236,-1.21702 1.11519,-1.83382 0.20283,-0.6168 1.19382,-2.1349 2.20236,-3.37401 1.45732,-1.78986 1.78234,-2.46003 1.58573,-3.2619 -0.20283,-0.82522 0.0189,-1.17835 1.213,-1.9341 1.72306,-1.09122 8.87656,-10.87799 10.37415,-14.19294 0.57273,-1.26851 1.25219,-2.35744 1.50956,-2.41914 0.71184,-0.17064 1.08607,-1.74523 0.51677,-2.17139 -0.3999,-0.29913 -0.33693,-0.48218 0.30801,-0.88877 0.44652,-0.28198 2.48646,-3.09166 4.53336,-6.24358 3.56654,-5.4918 3.82885,-6.05292 6.27991,-13.42209 2.57583,-7.74584 2.68373,-8.37533 2.44598,-14.25124 a 6.8888892,6.8888892 0 0 1 0.24036,-1.92794 c 0.15544,-0.50088 -0.0538,-2.37663 -0.4651,-4.16782 -0.41123,-1.7912 -0.68113,-4.2009 -0.60012,-5.35418 0.081,-1.15327 -0.21267,-2.63723 -0.65048,-3.29707 -0.60772,-0.91483 -0.65213,-1.64165 -0.186,-3.05913 0.59392,-1.80612 0.057,-4.04891 -1.05705,-4.41526 -0.24906,-0.0819 -0.13253,-1.12349 0.25939,-2.3153 0.56066,-1.70499 0.54703,-2.80142 -0.064,-5.14824 -0.42675,-1.63978 -0.62024,-3.45662 -0.42923,-4.03749 0.19101,-0.58086 -0.026,-1.72932 -0.4822,-2.55267 -0.66537,-1.20145 -0.68002,-1.59062 -0.0767,-1.96923 0.5961,-0.37355 0.66803,-1.026 0.34563,-3.13807 -0.2235,-1.46643 -0.28743,-3.0295 -0.14149,-3.4733 0.35426,-1.0801 -0.40187,-6.62172 -1.23469,-9.05166 -0.36742,-1.07106 -0.52162,-2.39339 -0.34299,-2.93664 0.17865,-0.54326 0.10279,-1.3434 -0.16884,-1.77631 -0.29963,-0.47734 -0.24085,-1.55735 0.14914,-2.74332 0.35372,-1.07565 0.48069,-2.14898 0.2822,-2.38467 -0.19849,-0.23569 -0.21086,-0.88528 -0.0273,-1.44358 0.18359,-0.5583 0.19846,-1.2823 0.033,-1.60993 -0.41061,-0.81297 2.26681,-13.01354 4.03786,-18.399305 2.81981,-8.57509 8.97504,-20.218284 14.81971,-28.030224 1.983,-2.65058 4.63514,-6.32495 5.89387,-8.16715 1.25873,-1.84219 3.79164,-5.1427 5.62708,-7.33613 1.83545,-2.19342 3.49317,-4.440658 3.68429,-4.993702 0.19113,-0.553044 1.11676,-1.655491 2.05782,-2.45001 0.94107,-0.794518 1.81799,-1.765726 1.94855,-2.157156 0.13057,-0.391431 0.90341,-1.023622 1.71846,-1.403914 0.81503,-0.380292 1.603,-1.05845 1.75058,-1.507263 0.14758,-0.448813 1.1947,-1.230685 2.32808,-1.73691 1.13337,-0.506225 2.18296,-1.295619 2.33357,-1.753626 0.15061,-0.458007 0.48964,-0.762363 0.75292,-0.67579 0.26327,0.08657 4.55827,-1.812997 9.54315,-4.222004 10.44153,-5.044448 12.13464,-5.424959 16.44712,-3.696589 3.50628,1.405838 4.30132,2.683273 3.64114,5.851276 -0.50135,2.406144 0.11249,3.316503 2.84214,4.214116 1.24531,0.409505 1.38662,0.334648 1.4667,-0.776337 0.11591,-1.605809 1.85631,-3.290538 3.59776,-3.482888 1.10322,-0.121601 1.57443,0.06206 2.45195,0.956331 0.5973,0.608555 1.14508,1.353639 1.21725,1.655217 0.0721,0.301578 0.56704,0.692144 1.09859,0.86694 0.97702,0.321283 4.28778,6.414002 3.98519,7.334194 -0.0854,0.259927 -2.34462,1.635148 -5.01954,3.055178 -2.67491,1.42003 -4.94066,2.815307 -5.03438,3.100307 -0.32871,0.99959 1.05185,2.92708 2.41835,3.37644 2.11285,0.69479 4.38166,0.32947 7.96308,-1.28147 l 3.2751,-1.47366 1.47836,2.23843 c 1.55001,2.34719 2.42011,4.77366 2.08377,5.81334 -0.10936,0.33821 0.12569,1.42316 0.5217,2.41007 0.64221,1.59857 0.60506,2.04387 -0.33353,4.06729 -1.64689,3.54648 -1.23587,3.98079 6.7697,7.14401 2.44085,0.96472 4.59168,2.10729 5.27224,2.80065 0.63194,0.64402 1.44615,1.15627 1.80943,1.13866 0.86399,-0.0419 2.19561,1.75559 1.91995,2.59387 -0.11845,0.36022 -1.47476,1.05154 -3.01415,1.53631 -2.25545,0.71054 -2.88305,1.13765 -3.23183,2.19825 -0.50156,1.5253 0.3715,3.587834 1.70373,4.025924 2.23989,0.73656 7.16674,-0.47641 7.62763,-1.878014 0.47767,-1.45259 3.69117,-2.95298 7.31786,-3.41728 2.06222,-0.26376 4.47717,-0.81719 5.36692,-1.23034 2.27019,-1.05392 5.60655,-3.88832 6.88648,-5.85135 0.59476,-0.91303 1.50748,-1.90581 2.02792,-2.207 0.72058,-0.41692 1.03893,-1.08928 1.33655,-2.82241 0.43869,-2.5592 0.19132,-3.5954 -0.94952,-3.97055 -1.0957,-0.36031 -2.43543,0.5791 -3.89599,2.73373 -1.4282,2.10691 -4.53156,5.31709 -5.32205,5.50726 -0.75714,0.18168 -1.35509,-2.44147 -1.02679,-4.50165 0.24935,-1.56378 0.0917,-1.88142 -1.50578,-3.03375 -2.2549,-1.62597 -3.24373,-1.42693 -4.36979,0.88214 -1.02509,2.10056 -2.82516,3.61748 -4.37679,3.68887 -1.3992,0.0641 -5.48016,-2.06697 -6.59445,-3.44382 -0.63278,-0.7823 -0.664,-1.41402 -0.14593,-2.98946 0.3614,-1.09905 0.62903,-2.61422 0.59399,-3.36666 -0.0455,-0.9939 0.14916,-1.50134 0.70947,-1.85333 1.19831,-0.7516 2.47397,-5.00828 1.86337,-6.21857 -0.28131,-0.55836 -0.507,-1.46334 -0.50171,-2.01174 0.0253,-2.473767 -2.55879,-1.23133 -4.37542,2.10467 -1.26843,2.32801 -3.8602,5.72864 -4.26472,5.59562 -0.93106,-0.30616 -1.72953,-2.08577 -2.13207,-4.75396 -0.3062,-2.02894 -0.82974,-3.45326 -1.45585,-3.96015 -0.53734,-0.43602 -0.86299,-1.155298 -0.72262,-1.599074 0.14421,-0.458259 -0.27767,-1.307352 -0.97672,-1.964183 -0.67699,-0.636611 -1.58959,-2.291672 -2.02673,-3.677392 -1.72316,-5.459519 -1.94383,-5.813636 -5.96585,-9.60258 -2.20414,-2.076064 -4.65909,-4.668048 -5.45505,-5.759625 -1.2078,-1.655813 -2.00857,-2.217359 -4.83755,-3.390288 -1.86388,-0.773139 -3.43781,-1.605601 -3.49584,-1.848809 -0.20262,-0.842748 4.50534,-3.068676 7.43153,-3.515113 1.61548,-0.245814 3.94937,-0.82312 5.18615,-1.283301 1.23678,-0.460182 2.50032,-0.630008 2.80877,-0.379467 0.30845,0.250541 1.32328,0.149887 2.25575,-0.224204 0.93248,-0.374091 3.36176,-0.959851 5.39695,-1.301962 2.0352,-0.342112 3.75093,-0.771681 3.81139,-0.955553 0.0604,-0.183871 1.01678,-0.168548 2.1252,0.0348 1.10843,0.203342 3.34463,0.238519 4.96935,0.07725 6.29919,-0.623696 10.54192,-0.04354 18.38951,2.512961 7.69687,2.50787 11.47792,4.50326 13.40724,7.077062 0.50799,0.67736 1.67113,1.612759 2.58531,2.080085 2.27027,1.159612 5.76012,5.310731 10.27388,12.220442 2.08345,3.189441 3.95778,5.854445 4.16588,5.922879 0.52571,0.172871 5.85346,13.586062 6.95442,17.510092 0.49825,1.77443 1.32451,3.61318 1.83696,4.08548 0.94782,0.87478 5.60113,12.42411 5.33372,13.23732 -0.0805,0.24489 0.15738,1.49008 0.52897,2.76533 0.98414,3.380864 1.48675,7.195194 1.68867,12.808334 l 0.32897,9.023345 c 0.0828,2.23518 0.0667,6.29478 -0.0361,9.02094 -0.10274,2.72615 -0.15361,7.33927 -0.1126,10.25069 0.041,2.91143 -0.0894,5.80351 -0.28891,6.42698 -0.19946,0.62347 -0.21365,1.31157 -0.0311,1.52812 0.18255,0.21656 0.43462,2.68892 0.56005,5.49289 0.29826,6.66359 3.12785,20.00454 6.03471,28.4521 1.27254,3.69798 2.63032,7.83241 3.01725,9.18774 0.38693,1.35531 0.99255,2.77791 1.34438,3.16127 0.35184,0.38335 0.48439,1.16879 0.29448,1.74632 -0.23774,0.72294 0.0969,1.60911 1.07574,2.8488 0.78136,0.98953 2.61135,3.83723 4.06653,6.3292 3.74526,6.41343 6.08192,9.81857 7.23812,10.54979 0.54894,0.34721 0.90156,0.92532 0.78338,1.28471 -0.11818,0.35938 0.3555,1.14956 1.05351,1.75604 0.69801,0.60648 1.92594,2.01515 2.7298,3.13062 0.80384,1.11547 1.82242,2.14688 2.26371,2.292 0.44129,0.14512 0.85563,0.78057 0.92024,1.41214 0.0646,0.63158 1.45221,3.2699 3.08419,5.86355 3.29477,5.23725 11.08244,20.47534 10.84087,21.20999 -0.0849,0.25826 0.44537,2.18307 1.17834,4.27734 1.28242,3.66232 2.82964,12.52966 2.40997,13.80589 -0.11159,0.33932 0.0208,1.30255 0.29357,2.14056 0.27271,0.83802 0.33706,2.71241 0.14152,4.16608 a 51.917414,51.917414 0 0 0 -0.35854,5.65296 c -0.002,1.65543 -0.34943,5.15492 -0.77311,7.77554 -0.42369,2.62061 -0.93773,6.29049 -1.1444,8.15542 -1.71578,15.52588 -6.18873,34.89627 -10.34095,44.77716 z m -3.75171,-34.1048 c -0.36858,-0.1212 -0.63215,-0.76171 -0.58392,-1.4238 0.0569,-0.7926 -0.35983,-1.53348 -1.22044,-2.16935 -1.35678,-1.00278 -2.66503,-3.35012 -2.98084,-5.34981 -0.22672,-1.43415 0.81853,-4.73949 1.55565,-4.91664 1.12737,-0.2711 1.10283,-1.93143 -0.0492,-3.28365 -1.32563,-1.55657 -3.58783,-2.44495 -6.80584,-2.67424 -1.91667,-0.13663 -2.42732,-0.37217 -4.20094,-1.94083 -1.11075,-0.98207 -2.55622,-2.59101 -3.21237,-3.57549 -0.65614,-0.98447 -1.58922,-2.06464 -2.07441,-2.40016 -0.48518,-0.33551 -0.89831,-0.94649 -0.91806,-1.35678 -0.0197,-0.4103 -0.47686,-0.89032 -1.01594,-1.0676 -0.53907,-0.17727 -2.53762,-1.50129 -4.44287,-2.94284 -5.17521,-3.91531 -8.20035,-5.09162 -13.52926,-5.26116 -6.51345,-0.20621 -10.94449,0.66505 -17.95715,3.53159 l -10.90965,4.32186 c -6.50818,2.4647 -8.38097,3.89011 -16.20207,12.33299 -3.69172,3.98546 -9.65015,8.98893 -16.62755,13.96482 -2.80583,2.0012 -6.71622,5.02657 -8.68888,6.72476 -1.97267,1.69819 -4.41292,3.49176 -5.42253,3.98774 -4.1306,2.03051 -4.66147,2.23102 -5.32257,2.01363 -0.37944,-0.12477 -1.75264,0.44891 -3.05138,1.27493 -1.71582,1.09174 -3.64368,1.69328 -7.05764,2.20067 -2.58256,0.3844 -4.75542,0.87758 -4.82743,1.09656 -0.072,0.21897 -0.86822,0.29982 -1.7707,0.17994 -0.90248,-0.11987 -4.32433,0.15803 -7.60492,0.61758 -8.65251,1.21221 -18.34857,0.17339 -28.00015,-3.00042 -8.81662,-2.89925 -16.0066,-2.94078 -20.97284,-0.12092 -3.31379,1.88141 -12.20936,10.1247 -13.44993,12.46373 -0.45532,0.85794 -1.20974,1.71013 -1.67669,1.8937 -1.32445,0.52119 -1.82442,2.85277 -1.90845,8.89608 -0.0427,3.06729 -0.20893,5.97816 -0.36998,6.46793 -0.53401,1.62391 0.15873,3.81517 2.63149,8.32736 3.0409,5.54739 6.91836,10.80676 8.30408,11.26244 0.57585,0.18936 2.03,1.32696 3.22982,2.52819 3.87185,3.87386 7.58427,5.68645 19.79679,9.66257 5.98409,1.94835 11.89882,3.66828 13.1442,3.82126 1.82466,0.22492 2.272,0.42205 2.30056,1.01398 0.0419,0.86399 1.31474,1.06583 6.88317,1.09279 2.03329,0.0101 4.76076,0.368 6.06122,0.79565 1.91059,0.62827 2.81234,0.63491 4.69263,0.0344 1.28011,-0.40889 2.2911,-0.63306 2.24685,-0.4985 -0.0442,0.13456 0.39907,0.16086 0.98486,0.0581 0.84131,-0.14752 1.01922,-0.0464 0.84552,0.4818 -0.42847,1.30297 0.59209,1.58763 2.98592,0.83369 1.33376,-0.41995 2.61856,-0.69948 2.85509,-0.62171 0.23653,0.0778 1.0408,-0.0754 1.78675,-0.34138 1.03433,-0.36838 2.53973,-0.17527 6.34648,0.81535 4.67961,1.21746 5.15494,1.24782 7.61966,0.48385 4.61076,-1.42899 6.68598,-1.50417 12.22661,-0.4435 2.91441,0.55828 5.46027,0.93329 5.65795,0.83344 0.1977,-0.0998 0.21255,-0.5534 0.0334,-1.00869 -0.4346,-1.10333 0.39682,-1.2856 2.55376,-0.55871 1.46265,0.49209 5.76616,0.76066 9.36062,0.58307 0.65897,-0.0325 1.42258,-0.40558 1.69602,-0.82875 0.31493,-0.48732 1.0776,-0.67738 2.07956,-0.51923 0.87056,0.13808 3.21829,0.0932 5.21736,-0.0996 1.99908,-0.19283 4.26289,-0.14303 5.03097,0.10955 1.46094,0.48042 2.07412,-0.14223 1.41838,-1.44054 -0.28383,-0.56196 -0.11137,-0.63862 0.77707,-0.34647 2.12455,0.69863 8.18862,-2.19551 8.85648,-4.22646 0.15033,-0.45717 0.64064,-0.84977 1.08876,-0.8719 0.44813,-0.0221 1.45788,-0.75516 2.24393,-1.63029 0.78604,-0.87513 2.79757,-2.59573 4.47055,-3.82474 l 3.04165,-2.23392 1.4602,-4.44049 c 0.87426,-2.65861 1.64157,-4.38085 1.9132,-4.29154 0.24906,0.0819 0.62064,-0.36086 0.8254,-0.98351 0.21849,-0.66444 0.63232,-1.04701 1.0009,-0.92581 0.36105,0.11873 0.9801,-0.4316 1.45431,-1.2935 2.12168,-3.85529 14.37677,-16.29053 17.71639,-17.97728 1.30163,-0.65743 2.90572,-1.72479 3.56498,-2.3721 0.65927,-0.64731 2.23954,-1.89013 3.51055,-2.76138 2.39967,-1.64484 4.08471,-3.33017 6.58636,-6.58632 0.80676,-1.05077 1.80058,-2.07893 2.20817,-2.28479 0.4076,-0.20587 1.43633,-1.61339 2.28656,-3.12869 0.85022,-1.5153 2.05724,-3.34672 2.68364,-4.07152 1.64631,-1.90553 2.00088,-3.31894 0.96652,-3.85172 -0.78707,-0.40607 -0.63324,-0.62038 1.84535,-2.56434 1.77858,-1.39525 2.87283,-2.63026 3.19495,-3.607 0.29738,-0.90153 0.79075,-1.5006 1.25557,-1.52279 0.98554,-0.0482 1.2327,-0.78013 0.36014,-1.06705 z M 333.42377,127.70999 c 0.58989,-2.66413 1.07633,-5.52067 1.07966,-6.34755 0.01,-2.41584 -4.01623,-10.12101 -6.7497,-12.91942 -1.82798,-1.87087 -6.28981,-4.27166 -8.97245,-4.8278 -4.19827,-0.87025 -12.12139,-1.26216 -14.973,-0.74118 -3.1944,0.5833 -11.729,4.66739 -14.43898,6.90942 a 56.914718,56.914718 0 0 1 -3.97716,2.95804 c -4.44516,2.94768 -6.64761,5.95862 -9.17335,12.541 -1.88536,4.9138 -2.02664,5.75182 -2.00102,11.87009 0.0115,2.85172 1.88931,6.22451 5.25771,9.44659 l 2.9232,2.79596 6.56671,2.15939 c 5.36486,1.76417 6.89703,2.10685 8.36843,1.87386 0.99095,-0.15759 2.17866,-0.16157 2.63833,-0.0104 0.45968,0.15116 0.9339,-0.0235 1.054,-0.38877 0.26192,-0.7965 1.90228,-1.14898 3.26376,-0.70127 1.53282,0.50405 7.20911,-0.59399 10.15882,-1.96534 1.46598,-0.68118 3.16759,-1.2256 3.78086,-1.20916 2.41523,0.0654 8.50716,-5.63702 9.61173,-8.99601 0.19981,-0.60762 0.61766,-0.96015 0.99125,-0.83729 0.3552,0.1168 0.85702,-0.11365 1.11388,-0.51171 0.86678,-1.34315 2.39586,-6.22407 3.47649,-11.09872 z m -59.19468,113.87585 c -0.20763,-0.77401 -0.79697,-1.5448 -1.30846,-1.713 -1.40578,-0.46227 -4.20771,1.19476 -5.50368,3.2544 -2.35307,3.73937 -3.31808,4.87147 -5.13051,6.01757 -1.02179,0.64573 -2.08081,1.10046 -2.35495,1.01031 -0.27413,-0.0901 -0.97219,0.0471 -1.55263,0.30538 -1.26891,0.56353 -7.14472,0.34751 -9.23333,-0.3393 -0.82241,-0.27045 -2.50006,-1.36485 -3.72744,-2.43159 -1.22739,-1.06674 -2.71898,-2.17775 -3.31305,-2.46942 -0.59909,-0.29333 -1.12877,-1.03431 -1.18918,-1.66174 -0.0604,-0.62742 -0.50576,-1.49812 -0.99112,-1.94576 -0.73671,-0.68033 -0.76676,-1.16348 -0.18301,-2.93867 0.43974,-1.33725 0.52258,-2.52141 0.22411,-3.19378 -0.28669,-0.64626 -0.19274,-2.31764 0.23856,-4.22632 0.72784,-3.22448 0.6765,-4.77229 -0.20727,-6.17985 -0.32876,-0.52396 -0.26779,-1.19944 0.17863,-1.98807 0.37155,-0.65671 0.67932,-1.94752 0.68283,-2.86789 0.004,-0.92037 0.54199,-4.32103 1.19634,-7.55578 0.65435,-3.23475 1.20774,-6.66663 1.22945,-7.62547 0.0217,-0.95884 0.41154,-2.45976 0.86622,-3.3355 0.45469,-0.87573 0.74876,-1.90801 0.6526,-2.29435 -0.0962,-0.38634 0.67332,-3.36003 1.70962,-6.60719 l 2.0081,-6.61645 c 0.18056,-1.0335 6.53493,-17.22531 8.99306,-22.91489 2.97826,-6.89387 4.15142,-10.69524 3.86003,-12.50445 -0.22121,-1.37769 -0.16044,-1.55405 0.5935,-1.70066 0.73226,-0.14264 0.76508,-0.49027 0.25704,-2.68839 -0.3214,-1.38841 -0.94863,-2.79034 -1.39344,-3.11628 -0.4448,-0.32594 -1.05983,-1.12001 -1.36682,-1.76646 -1.02172,-2.15124 -5.27334,-1.69609 -6.04425,0.64826 -0.14813,0.45049 0.31028,2.21367 1.01886,3.91741 l 1.28792,3.09918 -2.63021,7.16485 c -1.44665,3.94019 -4.24713,11.03701 -6.22282,15.76921 -5.46742,13.09468 -9.14497,25.247 -8.20371,27.11062 0.16773,0.33207 -0.44653,2.88724 -1.36475,5.67957 -2.49167,7.57717 -3.90146,15.73701 -3.88768,22.50525 0.007,3.17615 -0.19618,7.89116 -0.45001,10.47687 -0.26104,2.66114 -0.22545,5.26514 0.0827,6.00091 0.29948,0.71437 0.45404,1.57373 0.34383,1.90887 -0.11021,0.33515 0.04,0.68928 0.33427,0.78601 0.29419,0.0968 1.52704,1.41442 2.7401,2.92748 2.28741,2.85364 3.18651,3.44289 11.20733,7.34834 4.84031,2.35668 7.33225,2.60839 10.60848,1.07214 1.19464,-0.56018 2.65266,-1.00595 3.23977,-0.99163 1.67367,0.0419 4.19686,-1.33355 5.36118,-2.92246 a 11.067973,11.067973 0 0 1 2.55028,-2.37884 c 0.81812,-0.51079 1.63701,-1.38438 1.81978,-1.94018 0.18277,-0.55579 0.77429,-1.3041 1.31426,-1.66185 1.24726,-0.8272 2.18629,-4.46012 1.65973,-6.42168 z M 251.81232,121.01969 c 0.71611,-4.40547 0.63472,-7.6673 -0.2447,-9.78657 -0.41919,-1.00936 -0.77412,-2.22542 -0.78857,-2.70251 -0.0144,-0.47709 -0.8845,-1.7264 -1.93209,-2.77661 -1.04758,-1.05022 -1.85134,-2.07304 -1.78593,-2.27196 0.24901,-0.75721 -4.77498,-6.284325 -7.70463,-8.474855 -4.33224,-3.23988 -7.13618,-4.3453 -11.86173,-4.67671 -8.17202,-0.57286 -17.14077,0.59555 -18.93634,2.46775 -0.52307,0.54576 -1.98458,1.29787 -3.24703,1.67275 -2.70413,0.80193 -10.45391,5.28488 -14.18083,8.202945 -1.93696,1.51637 -2.93096,2.70562 -3.8013,4.54402 -1.58206,3.34368 -4.80947,15.00867 -5.3133,19.20518 -0.42981,3.58274 -0.22683,7.87738 0.40779,8.63157 0.20967,0.24956 0.48454,1.27536 0.61159,2.28034 0.40993,3.25409 6.34688,11.83487 8.72968,12.61843 0.70039,0.23031 1.98119,1.15995 2.84512,2.06456 1.44201,1.50964 2.1698,1.8425 8.81759,4.02854 8.08197,2.65767 11.19038,3.09913 14.49477,2.05744 1.16038,-0.36583 4.23712,-1.14898 6.8372,-1.74154 2.60009,-0.59258 5.5635,-1.60563 6.58502,-2.25052 3.407,-2.1536 8.85912,-9.61951 13.83877,-18.94953 1.50074,-2.81195 3.17127,-5.5375 3.71142,-6.05635 1.2222,-1.17348 2.26,-4.0506 2.91583,-8.08691 z m -10.93103,9.61985 -3.5013,5.52158 c -0.48172,0.52139 -1.12516,1.70922 -1.43051,2.63777 -0.61701,1.87632 -7.72434,9.39067 -10.24253,10.82982 -2.53874,1.45092 -6.64622,1.77193 -9.72272,0.76026 -1.50023,-0.49332 -4.08909,-0.97696 -5.75269,-1.07483 -4.05688,-0.23842 -7.56246,-1.40138 -10.24567,-3.40066 -3.47043,-2.58508 -7.80993,-6.86185 -7.853,-7.73919 -0.0215,-0.43867 -0.38463,-2.02418 -0.8072,-3.52458 -0.80393,-2.85297 -0.97583,-10.46414 -0.25602,-11.34624 0.2295,-0.2811 0.30795,-1.1759 0.17446,-1.98665 -0.2881,-1.75163 0.81546,-5.35824 2.54681,-8.31941 2.93023,-5.0129 15.25096,-12.02615 23.71712,-13.499695 1.46381,-0.25494 3.41308,-0.65401 4.33138,-0.88643 2.30798,-0.58583 7.56747,0.43981 11.27271,2.198195 4.10359,1.94678 9.55781,7.29492 10.96962,10.75529 l 1.46003,3.55309 c 1.13586,2.71668 -0.57054,8.39877 -4.66076,15.52251 z m -13.46953,-10.98277 c -0.45734,-1.70448 -1.65938,-2.6286 -5.50954,-4.23921 -4.2891,-1.79384 -5.10829,-2.30217 -4.87084,-3.02428 0.74014,-2.25076 -3.88952,-3.49902 -7.28735,-1.96478 -1.99148,0.89922 -2.20909,1.16386 -3.34917,4.06755 -1.5369,3.91329 -1.34858,5.82752 0.97684,9.95971 2.67768,4.75648 4.51635,5.34999 12.4071,4.0012 6.12053,-1.04642 6.64389,-1.38186 7.37488,-4.72292 0.33464,-1.5274 0.45074,-3.36191 0.25837,-4.0781 z m 96.55385,15.81052 c -5.14421,6.7577 -13.56054,10.16106 -22.56799,9.1264 -1.93843,-0.22251 -4.26197,-0.25122 -5.16377,-0.0633 -4.24097,0.88468 -5.13742,0.94646 -6.62789,0.45727 -1.03831,-0.34052 -1.76548,-0.93157 -2.07512,-1.68541 -0.26245,-0.6383 -0.76353,-1.25503 -1.11204,-1.36964 -1.26035,-0.41445 -3.79399,-5.66813 -3.90847,-8.10546 -0.14213,-3.01228 1.78555,-7.91679 4.09329,-10.41706 0.8734,-0.94643 1.90692,-2.26995 2.29732,-2.94176 0.71118,-1.22483 12.63254,-7.65164 15.58172,-8.39893 1.61259,-0.40883 10.53425,0.12342 12.41225,0.74098 0.69954,0.23004 2.86087,1.42236 4.80337,2.64925 3.13413,1.97992 3.64092,2.49758 4.50468,4.59688 1.86267,4.52831 0.87636,11.32147 -2.23652,15.41114 z m -7.45016,-10.08234 c -2.30128,-4.28169 -7.8658,-7.80731 -11.41749,-7.23592 -2.17789,0.35075 -2.59303,1.03018 -3.60192,5.89231 -1.30961,6.31175 -0.27826,9.12374 3.41618,9.31242 3.24056,0.16633 7.33409,-0.64458 9.50365,-1.88255 2.85325,-1.62719 3.49535,-3.48971 2.09958,-6.08626 z m 46.74492,160.99085 c -0.50644,0.2558 -1.19206,0.37487 -1.52386,0.26576 -0.3318,-0.10911 -1.69203,0.2336 -3.02285,0.76289 -1.33082,0.52928 -2.62251,0.89453 -2.87157,0.81263 -0.24906,-0.0819 -1.1574,0.0695 -2.01853,0.33648 -3.55148,1.10307 -11.15797,-0.3841 -15.4051,-3.01249 -2.43944,-1.50977 -4.97876,-5.21402 -4.52335,-6.59891 0.17232,-0.52403 -0.14065,-1.27062 -0.77369,-1.8437 -0.58502,-0.53042 -1.27233,-1.51589 -1.52852,-2.19009 -0.25619,-0.67421 -1.16168,-1.81013 -2.01287,-2.52533 -0.8512,-0.7152 -1.61905,-1.59934 -1.70762,-1.96651 -0.22668,-0.9442 5.009,-3.18367 8.33082,-3.56299 5.3202,-0.60665 13.53889,1.52545 16.11874,4.18259 0.81721,0.84109 2.25786,2.08168 3.2021,2.75617 0.94423,0.67448 2.76619,2.49891 4.04953,4.05453 1.28334,1.55562 2.6288,2.92515 2.99153,3.04442 0.66194,0.21767 1.5446,2.51861 1.5907,4.14713 0.0139,0.48711 -0.38098,1.07687 -0.89519,1.33659 z m -40.32665,15.70735 c -0.28783,0.44437 -0.68624,0.51247 -1.08626,0.18552 -0.52004,-0.42386 -0.66238,-0.25857 -0.80696,0.93308 -0.24336,2.01309 -2.00867,3.38492 -5.77994,4.49166 -2.59745,0.762 -3.46179,0.78804 -5.25357,0.159 -1.3343,-0.4684 -2.47276,-1.21694 -3.01532,-1.98068 -0.47906,-0.67526 -1.65216,-1.94086 -2.60749,-2.81255 -0.95533,-0.8717 -2.90839,-3.46906 -4.33887,-5.77139 -1.43049,-2.30233 -2.84792,-4.26695 -3.14796,-4.36562 -0.59842,-0.19678 -0.62481,-1.76696 -0.0593,-3.52038 0.41078,-1.27174 9.54395,-10.82059 11.96821,-12.51198 0.87392,-0.61006 1.85215,-1.0219 2.17476,-0.91581 0.32262,0.10609 1.11579,-0.10913 1.762,-0.47733 1.49533,-0.85214 4.80821,-1.37609 6.07107,-0.96082 1.29546,0.426 4.79005,7.53125 5.6387,11.46493 1.31622,6.09997 0.69486,12.66769 -1.52015,16.08293 z m 45.77943,2.19527 c -0.76491,1.70081 -1.88878,3.5892 -2.49729,4.19763 -0.60851,0.60844 -1.50703,1.94671 -1.99671,2.97394 -1.71706,3.60214 -9.32707,9.07387 -11.58618,8.33098 -2.58255,-0.84924 -5.39022,-3.28398 -6.97755,-6.05003 -2.16455,-3.77366 -2.24392,-5.37144 -0.38077,-7.66319 1.69511,-2.08491 6.9486,-4.59822 11.18899,-5.35158 1.5433,-0.27417 3.5258,-0.77995 4.40664,-1.12378 0.88086,-0.34383 2.42873,-0.58687 3.43943,-0.53977 2.12879,0.0999 6.22398,1.34558 5.96853,1.81542 -0.095,0.17622 -0.79964,1.71068 -1.56426,3.41066 z m -28.92603,27.77688 c -1.38388,1.30463 -2.94412,2.61608 -3.46819,2.91423 -0.52408,0.29815 -1.0821,0.93615 -1.24069,1.41839 -0.15858,0.48225 -0.92464,1.4825 -1.70178,2.22349 -0.77713,0.741 -2.08572,2.56587 -2.90628,4.05573 -0.82056,1.48987 -2.22132,3.71046 -3.11334,4.93603 a 35.614589,35.614589 0 0 0 -2.84414,4.8356 c -1.60953,3.43004 -2.47733,4.45518 -3.48862,4.12264 -1.5161,-0.49856 -3.54618,-6.30907 -2.89706,-8.2943 0.17369,-0.531 0.17002,-2.26041 -0.008,-3.84416 -0.4168,-3.7148 0.3203,-9.322 1.82695,-13.90374 1.15706,-3.51863 1.25442,-3.6598 3.22798,-4.6566 l 2.03465,-1.02765 4.23614,2.93784 2.22123,-0.98389 c 2.94331,-1.30399 6.215,-1.42102 8.96161,-0.32148 1.96911,0.78829 2.16554,0.99644 1.93303,2.04711 -0.14207,0.64327 -1.39039,2.23697 -2.77427,3.5416 z m -30.61658,34.14582 c -1.5974,0.58517 -3.10396,0.99831 -3.34801,0.91806 -0.24404,-0.0802 -1.51479,0.16779 -2.8245,0.5512 -1.30971,0.3834 -3.45776,0.61246 -4.7739,0.50845 -1.31613,-0.10401 -2.80593,-0.0179 -3.31089,0.1912 -0.50496,0.20904 -1.31971,0.24767 -1.81116,0.086 -0.49143,-0.1616 -2.848,-0.0335 -5.23581,0.28524 -2.38779,0.31878 -4.62653,0.4856 -4.97588,0.37073 -0.96282,-0.31662 -1.16596,-2.73215 -0.67866,-8.05289 0.34931,-3.81389 0.89137,-6.1946 2.59112,-11.39171 1.18172,-3.61332 2.55993,-7.27502 3.06113,-8.13731 3.70294,-6.36569 15.85117,-4.86688 18.99006,2.34276 0.44596,1.02372 1.20169,4.27112 1.67937,7.215 0.47766,2.94388 1.23802,6.16594 1.69025,7.1593 0.78968,1.73597 2.07922,6.1962 1.92559,6.66341 -0.0407,0.12369 -1.38102,0.70449 -2.97842,1.28965 z m -37.55708,1.11146 c -0.39761,0.20082 -1.65464,0.0579 -2.79464,-0.31698 -3.0857,-1.01469 -9.82534,-2.25385 -11.07061,-2.03542 -0.59942,0.10482 -2.38343,0.91945 -3.96568,1.8106 -2.7981,1.57495 -8.1405,2.88002 -8.76254,2.14108 -0.43752,-0.51989 2.7611,-10.01882 4.71367,-14.00196 1.77512,-3.62101 4.11197,-6.69704 6.32197,-8.32274 l 1.40001,-1.0298 5.38803,2.05704 c 8.54126,3.26065 11.81243,6.1729 10.70731,9.53357 -0.27538,0.83745 -0.59618,3.17053 -0.71267,5.18365 -0.25144,4.34156 -0.29277,4.51227 -1.22541,4.98263 z m 16.93229,-47.17932 c -3.9208,4.09628 -10.24997,6.31793 -14.25251,5.00174 -1.51861,-0.49938 -2.17015,-1.10354 -3.56015,-3.30365 -2.00184,-3.16724 -2.57133,-6.18113 -1.81676,-9.60798 0.49203,-2.23138 0.69886,-2.54773 2.0857,-3.18824 0.847,-0.39016 1.65013,-1.02999 1.78489,-1.42005 0.53375,-1.54991 3.30831,-3.92074 7.66713,-6.54952 5.39517,-3.25396 5.83753,-3.39374 7.09507,-2.23281 0.52223,0.48199 1.12738,0.83288 1.3453,0.78136 0.63846,-0.15311 2.31929,6.46315 2.56351,10.08878 0.32622,4.84364 -0.54314,7.95489 -2.91246,10.4312 z m -35.77124,13.7341 c -0.29921,0.4536 -1.98277,2.43301 -3.74151,4.39882 -3.08072,3.44267 -3.28438,3.5776 -5.55616,3.69281 -3.46509,0.17568 -15.08691,-3.65342 -16.51028,-5.4394 -1.26931,-1.59268 -1.88013,-4.23304 -1.5159,-6.56017 0.19363,-1.23943 0.0363,-2.01725 -0.47637,-2.34793 -0.51718,-0.334 -0.62969,-0.91001 -0.3466,-1.77087 a 8.8948492,8.8948492 0 0 0 0.35676,-2.65652 c -0.10563,-2.31215 1.47436,-3.96812 3.79055,-3.97055 1.06725,-8.8e-4 2.11615,0.20594 2.33057,0.46076 0.21444,0.25481 0.88319,0.16446 1.48601,-0.20134 0.60281,-0.3658 1.2796,-0.60447 1.50359,-0.53081 0.22399,0.0736 2.49915,-0.30254 5.05635,-0.83512 2.55721,-0.53259 5.4076,-0.87244 6.33483,-0.75461 0.92724,0.11783 2.40023,-0.0665 3.27357,-0.41 0.87333,-0.34353 2.5834,-0.45451 3.80145,-0.2466 2.51687,0.42939 2.7758,0.81924 3.2251,4.86332 0.19577,1.76202 -0.078,3.47892 -1.10296,6.91411 -0.74965,2.51342 -1.60813,4.94105 -1.90649,5.39492 z m -42.66097,-4.49379 c -3.33252,6.18557 -4.65364,6.49948 -14.17817,3.36745 l -6.86174,-2.2564 -1.50408,-2.06165 c -4.5483,-6.23294 -3.02882,-11.21982 4.22756,-13.87841 3.4929,-1.27978 5.06563,-1.22383 12.06515,0.42772 6.13313,1.44722 8.70777,2.53743 9.56943,4.05164 0.70195,1.23385 -0.60696,5.31844 -3.31815,10.34965 z m 22.94947,38.20425 c -4.95016,0.39955 -8.20884,0.15874 -12.14022,-0.89789 -5.24713,-1.40963 -5.61067,-1.93483 -5.07526,-7.33423 0.62144,-6.27502 3.09009,-10.46725 6.30619,-10.70815 0.97321,-0.0727 3.76806,0.57318 7.15255,1.65372 7.74012,2.47208 8.27626,3.22723 7.06071,9.95705 -1.35761,7.51664 -1.19657,7.15931 -3.30285,7.32894 z m -29.73425,-8.82659 c -0.62086,1.06281 -1.02894,1.21666 -2.65298,0.99843 -3.06684,-0.41297 -9.25345,-3.10864 -10.8899,-4.74519 -0.79224,-0.79306 -1.64937,-1.39166 -1.90397,-1.32998 -0.2546,0.0617 -0.89744,-0.59147 -1.42731,-1.45015 -1.12191,-1.81558 -2.65363,-3.14817 -4.20233,-3.65744 -2.41624,-0.79456 0.21193,-5.44372 3.29778,-5.83209 1.87732,-0.23658 13.39794,2.65254 17.34834,4.34982 2.77452,1.19207 3.148,1.4927 3.27393,2.63346 0.14932,1.35406 -1.59466,6.89412 -2.84439,9.03286 z"
     fill="#ffffff"
     id="path6"
     style="stroke-width:0.879807" />
  <path
     style="fill:none;stroke:#000000;stroke-width:0.75px;stroke-linecap:butt;stroke-linejoin:miter;stroke-opacity:1"
     d="M 327.40427,438.13548 74.201203,379.80724"
     id="path905-5"
     sodipodi:nodetypes="cc" />
</svg>
