<?xml version="1.0" encoding="UTF-8" standalone="no"?>
<svg
   xmlns:dc="http://purl.org/dc/elements/1.1/"
   xmlns:cc="http://creativecommons.org/ns#"
   xmlns:rdf="http://www.w3.org/1999/02/22-rdf-syntax-ns#"
   xmlns:svg="http://www.w3.org/2000/svg"
   xmlns="http://www.w3.org/2000/svg"
   xmlns:sodipodi="http://sodipodi.sourceforge.net/DTD/sodipodi-0.dtd"
   xmlns:inkscape="http://www.inkscape.org/namespaces/inkscape"
   version="1.0"
   width="573.000000pt"
   height="548.000000pt"
   viewBox="0 0 573.000000 548.000000"
   preserveAspectRatio="xMidYMid meet"
   id="svg20"
   sodipodi:docname="face7.svg"
   inkscape:version="1.0.1 (3bc2e813f5, 2020-09-07)">
  <defs
     id="defs24" />
  <sodipodi:namedview
     pagecolor="#ffffff"
     bordercolor="#666666"
     borderopacity="1"
     objecttolerance="10"
     gridtolerance="10"
     guidetolerance="10"
     inkscape:pageopacity="0"
     inkscape:pageshadow="2"
     inkscape:window-width="1920"
     inkscape:window-height="1027"
     id="namedview22"
     showgrid="false"
     inkscape:zoom="1.1770073"
     inkscape:cx="382"
     inkscape:cy="365.33333"
     inkscape:window-x="1912"
     inkscape:window-y="-8"
     inkscape:window-maximized="1"
     inkscape:current-layer="svg20" />
  <metadata
     id="metadata2">
Created by potrace 1.16, written by Peter Selinger 2001-2019
<rdf:RDF>
  <cc:Work
     rdf:about="">
    <dc:format>image/svg+xml</dc:format>
    <dc:type
       rdf:resource="http://purl.org/dc/dcmitype/StillImage" />
  </cc:Work>
</rdf:RDF>
</metadata>
  <g
     transform="translate(0.000000,548.000000) scale(0.100000,-0.100000)"
     fill="#000000"
     stroke="none"
     id="g18">
    <path
       d="M3570 4970 c-47 -4 -125 -15 -175 -24 -186 -35 -282 -55 -340 -71 -33 -9 -102 -25 -154 -36 -52 -11 -106 -26 -120 -33 -14 -7 -44 -19 -66 -26 -22 -7 -60 -21 -85 -32 -25 -12 -56 -26 -70 -32 -41 -18 -152 -92 -189 -125 -19 -17 -38 -31 -41 -31 -4 0 -89 -81 -189 -180 -101 -99 -186 -180 -190 -180 -5 0 -32 -22 -60 -49 -29 -28 -87 -67 -129 -89 -42 -22 -108 -56 -147 -76 -38 -20 -77 -36 -85 -36 -9 0 -25 -6 -36 -14 -26 -18 -143 -66 -162 -66 -27 0 -190 -70 -244 -105 -51 -33 -96 -70 -206 -171 -46 -41 -124 -153 -143 -204 -3 -8 -17 -42 -32 -75 -15 -33 -32 -69 -37 -80 -12 -27 -39 -115 -43 -140 -2 -11 -8 -30 -15 -42 -14 -25 -27 -334 -27 -608 1 -172 20 -326 50 -405 8 -19 17 -46 21 -60 3 -14 17 -49 30 -78 13 -29 24 -59 24 -67 0 -8 3 -15 8 -15 4 0 19 -22 35 -49 71 -126 226 -275 347 -332 25 -12 69 -33 98 -47 30 -14 61 -32 69 -40 8 -8 45 -26 81 -39 37 -14 74 -30 82 -37 18 -15 100 -40 107 -32 5 5 87 -18 132 -36 14 -6 31 -12 36 -13 6 0 17 -4 25 -7 8 -3 49 -16 90 -29 41 -12 86 -30 100 -39 14 -9 34 -20 45 -23 11 -3 47 -17 80 -31 33 -13 71 -27 85 -30 14 -3 50 -12 80 -21 30 -9 69 -19 85 -22 17 -3 39 -12 50 -18 28 -18 140 -56 167 -57 13 -1 30 -7 38 -13 8 -7 35 -19 60 -28 25 -8 83 -28 130 -45 47 -16 123 -39 170 -51 47 -12 93 -27 102 -32 10 -5 24 -9 32 -9 8 0 39 -14 68 -30 29 -17 69 -38 88 -46 19 -8 44 -19 55 -24 98 -44 126 -53 165 -55 25 -1 90 -12 145 -24 113 -25 243 -31 295 -13 33 10 119 34 220 61 125 33 135 36 278 102 35 16 65 29 67 29 3 0 34 20 68 44 35 25 95 61 132 82 64 34 124 87 217 191 32 36 89 133 88 148 -1 3 12 33 28 68 16 34 33 80 36 102 4 22 17 67 29 100 19 52 22 81 22 220 0 200 -5 268 -23 325 -8 25 -16 97 -18 160 -4 123 -25 267 -49 338 -8 23 -15 56 -15 72 0 15 -4 50 -10 77 -5 26 -16 86 -24 133 -8 47 -18 99 -21 115 -3 17 -8 63 -10 103 -3 40 -9 81 -14 90 -5 9 -9 82 -11 162 -1 80 -3 191 -5 247 -2 57 1 131 6 165 12 85 12 332 -2 399 -5 30 -12 66 -14 81 -2 15 -9 36 -14 47 -6 11 -11 31 -11 45 0 26 -39 118 -52 124 -5 2 -8 10 -8 17 0 25 -62 109 -124 167 -34 32 -64 58 -67 58 -3 0 -19 11 -35 25 -16 14 -51 37 -79 51 -27 15 -52 29 -55 33 -3 3 -30 17 -60 31 -30 14 -77 37 -105 52 -27 15 -70 37 -95 48 -25 12 -58 28 -73 36 -16 8 -37 14 -46 14 -10 0 -21 3 -24 6 -4 4 -33 18 -64 31 -67 27 -209 37 -353 23z m283 -128 c7 -5 41 -17 77 -27 36 -10 77 -27 92 -37 14 -10 33 -18 41 -18 8 0 20 -6 26 -13 6 -8 29 -19 51 -26 22 -6 40 -16 40 -21 0 -6 3 -10 8 -9 15 2 52 -14 52 -22 0 -5 4 -9 9 -9 23 0 174 -81 213 -115 13 -11 35 -26 50 -34 30 -15 118 -100 118 -113 0 -4 13 -27 30 -49 16 -23 32 -57 36 -75 3 -19 10 -34 16 -34 5 0 7 -4 4 -9 -3 -4 -1 -23 5 -42 41 -140 47 -249 35 -709 -3 -142 -2 -287 4 -345 26 -254 44 -391 52 -408 5 -11 11 -32 13 -47 2 -16 8 -46 14 -67 6 -21 13 -65 16 -98 3 -33 10 -73 15 -90 12 -42 28 -137 35 -220 6 -66 21 -212 29 -280 14 -110 17 -226 7 -238 -12 -16 -78 -14 -164 4 -66 14 -80 36 -54 92 29 63 29 74 2 95 -22 17 -31 19 -51 10 -13 -6 -24 -14 -24 -18 0 -4 -9 -19 -21 -34 -16 -20 -24 -24 -34 -16 -7 6 -19 9 -26 8 -8 -2 -14 4 -14 13 0 9 -5 23 -11 30 -7 8 -21 33 -33 57 -20 40 -21 43 -4 49 31 11 63 46 63 68 0 25 -30 42 -90 51 -29 5 -40 11 -40 24 0 9 -3 20 -7 23 -4 4 -8 25 -10 47 -4 38 -2 41 27 46 17 4 33 11 36 15 3 5 16 6 29 3 19 -5 27 0 39 23 14 28 13 31 -7 49 -55 48 -68 52 -119 32 -64 -24 -66 -24 -74 17 -4 24 -12 35 -24 35 -27 0 -44 60 -17 60 27 1 77 59 83 98 6 36 4 40 -21 46 -27 7 -36 3 -85 -42 -37 -34 -67 -38 -94 -13 -12 11 -28 21 -35 21 -7 0 -27 7 -44 16 -59 31 -67 34 -83 34 -9 0 -26 -8 -39 -19 l-24 -18 49 -43 c27 -24 62 -52 77 -62 16 -10 28 -22 27 -28 -3 -26 -5 -30 -18 -30 -8 0 -17 -7 -20 -16 -25 -64 59 -112 100 -56 14 19 55 7 47 -14 -3 -9 0 -14 6 -12 7 2 22 -14 34 -35 l22 -38 -24 -18 c-33 -25 -23 -69 18 -77 27 -6 30 -11 36 -62 4 -34 3 -58 -3 -60 -36 -12 -68 -77 -40 -80 74 -9 118 -37 134 -87 18 -56 186 -245 217 -245 8 0 28 -7 43 -15 16 -8 46 -18 67 -21 39 -7 43 -14 27 -45 -8 -15 -7 -25 7 -44 25 -34 62 -32 98 5 30 32 55 39 55 17 0 -8 -7 -36 -15 -62 -8 -27 -12 -52 -9 -57 3 -4 0 -8 -5 -8 -6 0 -11 -6 -11 -14 0 -16 -33 -100 -66 -170 -37 -77 -186 -228 -254 -258 -25 -11 -60 -31 -79 -46 -34 -27 -62 -43 -163 -94 -77 -38 -119 -56 -153 -63 -33 -7 -121 -33 -145 -42 -8 -3 -19 -7 -25 -8 -5 0 -17 -4 -25 -7 -113 -42 -248 -56 -323 -34 -28 8 -76 17 -106 20 -30 3 -57 10 -60 15 -3 5 -42 12 -86 16 -63 5 -98 15 -162 46 -46 21 -83 43 -83 49 0 5 -5 10 -12 10 -6 0 -19 6 -27 13 -9 7 -34 18 -56 25 -22 6 -67 18 -100 27 -33 9 -80 23 -105 31 -25 9 -61 19 -80 23 -19 5 -60 18 -90 31 -30 12 -82 30 -115 40 -33 10 -73 23 -90 30 -58 24 -71 28 -170 55 -55 15 -116 33 -135 40 -19 7 -55 18 -80 25 -25 7 -83 31 -129 53 -47 23 -94 43 -105 44 -12 2 -32 7 -46 12 -14 5 -49 15 -78 21 -28 7 -55 16 -58 21 -3 5 -13 9 -23 9 -10 0 -36 8 -57 17 -22 9 -41 17 -44 18 -3 1 -18 5 -35 10 -67 19 -305 134 -340 165 -11 9 -32 20 -47 24 -14 3 -40 17 -56 31 -17 14 -37 25 -45 25 -9 0 -19 5 -22 10 -3 6 -14 10 -25 10 -10 0 -20 6 -23 13 -2 6 -39 58 -81 114 -42 56 -76 104 -76 106 0 3 -8 22 -17 43 -10 22 -18 44 -18 49 -1 6 -6 20 -13 32 -7 12 -12 32 -12 45 0 13 -4 28 -10 34 -18 18 -49 267 -50 404 -3 206 12 485 27 530 3 8 6 33 7 55 1 23 14 66 29 96 15 31 27 60 27 64 0 9 50 118 77 170 23 42 154 192 176 200 10 4 37 23 62 43 84 70 138 96 159 75 8 -8 13 -9 42 -12 14 -1 15 -11 9 -73 -4 -40 -9 -92 -10 -116 -1 -23 -7 -48 -13 -54 -7 -7 -38 -10 -76 -9 -57 2 -66 0 -80 -21 -38 -54 -6 -83 78 -73 34 5 56 3 60 -3 7 -12 -12 -101 -26 -118 -4 -6 -6 -18 -2 -27 8 -22 -8 -28 -46 -17 -39 11 -70 -8 -70 -45 0 -25 34 -60 58 -60 30 0 21 -46 -13 -65 -34 -19 -45 -49 -21 -62 18 -10 21 -40 6 -68 -7 -13 -7 -35 0 -67 9 -42 14 -48 38 -50 21 -1 31 5 45 28 9 17 17 39 17 49 0 26 5 27 94 21 l79 -6 29 39 c32 44 37 92 11 111 -18 14 -46 1 -85 -37 -19 -19 -30 -21 -65 -12 -20 6 -22 11 -16 53 8 61 19 74 59 67 23 -5 33 -2 38 9 5 13 9 13 25 3 29 -18 33 -8 20 51 l-11 51 -40 0 -39 0 6 58 c4 31 10 60 14 65 4 4 26 9 49 11 52 4 52 5 59 54 l5 39 -47 7 c-38 6 -45 10 -40 24 4 9 9 46 11 82 l3 65 58 0 58 0 0 45 c0 43 -1 45 -27 42 -20 -3 -28 1 -28 12 0 9 -4 16 -10 16 -14 0 -12 62 3 81 10 13 91 51 107 51 3 -1 25 8 49 19 24 10 47 19 51 19 4 0 13 6 19 14 7 8 26 18 42 21 16 4 32 12 36 19 5 7 24 21 43 31 68 37 145 90 177 123 18 17 36 32 40 32 5 0 39 30 77 65 38 36 72 65 77 65 4 0 24 23 44 50 20 28 43 50 50 50 7 0 19 14 27 30 16 34 196 167 293 217 119 62 175 86 183 79 7 -7 10 -34 15 -138 1 -27 5 -48 10 -48 4 0 7 -9 7 -19 0 -24 18 -36 46 -33 14 2 43 -18 90 -62 38 -36 72 -66 75 -66 4 0 9 -7 13 -15 4 -10 -5 -20 -29 -29 -29 -13 -35 -20 -35 -46 0 -24 6 -33 27 -41 15 -5 39 -9 53 -8 75 4 88 0 111 -38 13 -21 26 -40 30 -43 3 -3 10 -19 13 -37 4 -17 18 -43 31 -57 13 -14 22 -26 20 -26 -3 0 3 -9 12 -20 36 -42 127 -34 116 10 -5 19 -2 21 35 19 33 -2 45 2 61 22 42 51 21 68 -93 75 -27 1 -52 7 -56 14 -3 6 -13 8 -21 5 -10 -4 -18 5 -26 26 -13 35 -10 49 12 49 35 0 17 78 -25 107 -19 13 -25 13 -47 2 -23 -13 -27 -12 -41 9 -8 12 -23 22 -33 22 -11 0 -19 4 -19 10 0 21 -62 108 -80 113 -30 8 -36 35 -11 58 33 31 27 55 -19 73 -22 9 -57 16 -78 16 -35 0 -40 4 -55 38 -29 67 -24 87 31 110 26 11 72 23 102 26 30 4 86 16 125 26 38 11 108 24 155 30 46 7 87 13 91 16 10 6 91 15 209 24 118 9 236 5 253 -8z"
       id="path4" />
    <path
       d="M2427 4350 c-63 -16 -109 -45 -175 -112 -64 -64 -76 -81 -110 -153 -11 -22 -29 -60 -40 -83 -43 -89 -55 -225 -32 -349 7 -40 17 -73 21 -73 5 0 8 -10 8 -22 -2 -31 22 -89 43 -109 10 -9 15 -18 12 -22 -7 -7 77 -87 92 -87 7 0 14 -5 16 -11 2 -5 10 -11 18 -13 8 -2 29 -9 45 -16 44 -20 267 -16 334 5 10 3 31 -1 47 -10 44 -23 73 -18 105 16 16 17 29 35 29 41 0 5 23 32 51 59 48 46 99 125 99 152 0 7 7 24 14 39 24 46 21 270 -4 303 -4 6 -10 24 -14 40 -10 42 -29 85 -39 85 -5 0 -5 4 -2 10 5 8 -61 106 -103 155 -41 47 -136 120 -174 135 -57 22 -189 32 -241 20z m192 -125 c30 -8 59 -21 63 -30 5 -8 14 -15 21 -15 16 -1 57 -36 57 -49 0 -6 4 -11 9 -11 5 0 19 -15 30 -33 11 -18 29 -44 41 -56 11 -13 20 -29 20 -35 0 -6 6 -22 13 -36 7 -14 19 -47 27 -75 7 -27 16 -54 19 -60 11 -19 -1 -179 -16 -219 -21 -53 -26 -60 -105 -145 -64 -69 -68 -72 -90 -58 -18 12 -36 13 -80 7 -224 -32 -338 3 -395 120 -23 47 -47 123 -48 152 0 9 -3 20 -7 24 -15 14 -8 105 11 144 13 27 15 42 8 49 -7 7 -7 17 0 33 6 13 16 37 23 53 7 17 16 37 21 45 5 8 18 32 29 52 48 89 154 157 245 158 28 0 74 -7 104 -15z"
       id="path6" />
    <path
       d="M2493 3888 c-43 -46 -51 -72 -40 -140 7 -42 17 -68 31 -80 42 -35 140 -13 180 40 16 21 16 25 1 48 -9 13 -13 29 -10 34 3 6 1 10 -4 10 -6 0 -11 7 -11 15 0 9 -5 21 -10 28 -6 7 -18 22 -28 35 -9 13 -32 25 -52 28 -28 5 -39 1 -57 -18z"
       id="path8" />
    <path
       d="M3923 4037 c-47 -29 -129 -112 -160 -162 -7 -11 -24 -39 -38 -61 -14 -23 -32 -72 -40 -109 -16 -78 -13 -226 5 -270 7 -16 12 -38 11 -47 -1 -10 3 -18 8 -18 6 0 11 -5 11 -10 0 -18 43 -105 56 -112 6 -4 15 -19 18 -32 3 -14 23 -38 44 -53 20 -15 40 -32 43 -36 3 -5 12 -9 20 -11 8 -1 24 -7 36 -14 32 -17 142 -42 190 -42 50 0 124 16 173 38 19 9 38 16 41 16 10 1 89 85 89 94 0 5 11 19 25 32 14 13 23 25 20 28 -2 2 7 21 20 41 14 19 25 42 25 51 0 8 8 38 18 65 22 59 27 172 12 241 -35 153 -158 294 -290 329 -26 8 -58 20 -125 51 -22 10 -67 19 -100 21 -53 2 -66 -1 -112 -30z m133 -88 c3 -6 17 -8 29 -5 14 4 29 0 39 -9 8 -8 22 -15 30 -15 9 0 24 -4 34 -9 40 -22 109 -51 120 -51 7 0 17 -9 24 -20 7 -11 18 -20 25 -20 7 0 13 -4 13 -9 0 -5 6 -16 13 -23 15 -16 62 -114 72 -148 16 -60 16 -114 0 -180 -9 -39 -21 -70 -25 -70 -4 0 -10 -12 -13 -27 -4 -16 -22 -45 -42 -65 -19 -20 -35 -41 -35 -47 0 -5 -9 -13 -21 -16 -11 -4 -36 -20 -55 -37 -33 -29 -38 -30 -124 -29 -49 0 -97 5 -107 10 -10 5 -33 16 -50 23 -18 7 -33 16 -33 20 0 5 -7 8 -16 8 -16 0 -74 57 -74 73 0 16 -3 23 -21 46 -11 13 -19 32 -19 42 0 10 -5 21 -11 24 -6 4 -8 13 -5 20 3 8 0 16 -7 18 -9 3 -12 40 -11 128 1 108 4 130 24 173 32 66 92 145 137 179 38 28 96 37 109 16z"
       id="path10" />
    <path
       d="M4060 3660 c0 -5 -6 -10 -14 -10 -21 0 -27 -28 -17 -88 12 -77 38 -99 123 -106 l68 -5 16 34 c8 18 16 55 16 80 0 40 -5 51 -33 76 -29 26 -40 29 -96 29 -35 0 -63 -4 -63 -10z"
       id="path12" />
    <path
       d="M3223 3308 c-36 -39 -32 -88 7 -88 10 0 21 -7 24 -16 3 -9 12 -14 19 -11 7 3 24 -4 38 -14 13 -10 30 -19 37 -19 6 0 12 -4 12 -8 0 -5 21 -20 48 -33 26 -13 56 -32 66 -41 11 -10 27 -20 37 -23 32 -11 161 -223 175 -290 8 -38 -41 -125 -71 -125 -7 0 -20 -9 -29 -19 -20 -22 -55 -21 -100 3 -39 20 -66 6 -66 -34 0 -18 5 -30 13 -30 7 0 23 -13 37 -30 33 -40 87 -41 157 -3 78 44 107 72 134 133 6 14 16 33 21 44 14 27 20 84 9 90 -5 3 -7 15 -4 26 3 11 0 20 -6 20 -6 0 -11 8 -11 19 0 10 -8 29 -18 42 -10 13 -23 35 -30 49 -18 39 -36 64 -49 73 -7 4 -13 13 -13 20 0 7 -18 32 -40 57 -22 25 -40 48 -40 53 0 4 -8 7 -18 7 -16 0 -70 40 -120 87 -7 7 -25 16 -40 20 -15 3 -42 15 -60 25 -18 10 -41 18 -52 18 -10 0 -22 5 -25 10 -9 15 -19 12 -42 -12z"
       id="path14" />
    <path
       d="M1475 2741 c-57 -13 -100 -39 -160 -98 -46 -44 -65 -71 -79 -113 -21 -63 -32 -245 -16 -255 6 -4 8 -10 5 -15 -3 -5 -1 -19 4 -32 11 -30 120 -158 133 -158 6 0 24 -11 42 -25 17 -14 41 -33 54 -42 13 -10 29 -23 35 -28 11 -10 44 -33 139 -97 15 -10 33 -18 41 -18 7 0 29 -14 48 -31 19 -17 53 -39 76 -50 23 -10 62 -33 87 -49 24 -17 47 -30 52 -30 4 0 39 -20 78 -44 39 -24 85 -51 101 -59 17 -9 42 -27 56 -40 14 -13 42 -32 62 -42 20 -9 37 -21 37 -26 0 -5 11 -9 25 -9 14 0 25 -4 25 -10 0 -5 9 -10 19 -10 11 0 22 -4 25 -9 12 -19 116 -61 186 -75 41 -8 138 -17 215 -19 153 -6 325 -26 325 -38 0 -5 7 -6 15 -3 8 4 26 -1 40 -10 13 -9 32 -16 41 -16 9 0 42 -13 73 -30 31 -16 79 -38 106 -48 59 -21 92 -41 160 -98 28 -23 65 -45 82 -48 18 -4 35 -12 38 -17 4 -5 16 -9 29 -9 12 0 27 -5 33 -11 15 -15 87 -25 228 -31 56 -2 74 1 90 15 11 10 53 42 94 72 41 30 80 64 87 77 14 25 8 257 -7 273 -5 5 -9 21 -9 35 0 14 -12 39 -27 56 -42 47 -93 112 -93 119 0 15 -110 105 -127 105 -5 0 -24 13 -43 30 -19 16 -38 29 -43 30 -4 0 -25 11 -47 25 -22 14 -44 25 -50 25 -5 0 -44 16 -86 35 -41 19 -82 35 -89 35 -8 0 -17 4 -20 10 -11 17 -126 65 -185 76 -14 2 -32 7 -40 11 -8 3 -28 7 -45 9 -29 3 -48 8 -229 59 -49 13 -93 22 -98 19 -5 -3 -14 -2 -21 3 -7 5 -29 10 -50 12 -38 3 -296 82 -329 101 -10 6 -25 10 -33 10 -18 0 -93 36 -115 55 -8 7 -39 22 -69 34 -57 21 -241 138 -241 152 0 5 -6 9 -13 9 -7 0 -28 16 -47 35 -19 19 -37 35 -41 35 -4 0 -41 22 -82 50 -66 44 -207 116 -207 105 0 -2 -21 5 -46 15 -46 20 -135 25 -199 11z m177 -112 c29 -6 59 -16 65 -21 7 -6 40 -23 73 -39 49 -23 60 -32 60 -53 0 -13 -6 -31 -13 -38 -7 -7 -19 -28 -26 -46 -8 -18 -27 -44 -44 -58 -26 -22 -37 -25 -70 -20 -21 4 -48 13 -60 21 -12 7 -44 19 -70 26 -40 10 -51 18 -67 49 -11 21 -22 70 -25 108 -6 62 -4 71 12 75 34 9 112 7 165 -4z m384 -217 c46 -43 142 -114 193 -142 61 -33 63 -61 8 -111 -22 -21 -52 -40 -66 -42 -43 -9 -146 55 -183 114 -26 42 -21 209 7 209 6 0 25 -13 41 -28z m-518 -149 c19 -13 44 -24 56 -24 12 -1 44 -3 71 -4 76 -3 107 -19 130 -68 24 -52 31 -162 12 -197 -11 -20 -20 -24 -47 -22 -19 1 -44 11 -55 21 -11 10 -33 21 -48 25 -16 4 -38 17 -50 29 -12 12 -47 41 -77 64 -72 55 -140 126 -140 147 0 21 69 64 94 58 11 -3 36 -16 54 -29z m975 -124 c29 -12 61 -24 72 -29 39 -15 130 -48 149 -54 15 -5 17 -13 13 -41 -3 -19 -13 -50 -22 -69 -14 -30 -23 -36 -48 -36 -31 0 -197 75 -197 90 0 4 -8 11 -17 14 -10 4 -30 13 -46 22 -22 12 -25 19 -17 34 5 10 11 35 12 54 4 44 23 47 101 15z m472 -139 c22 -5 54 -12 70 -15 17 -4 44 -13 62 -21 17 -8 40 -14 52 -14 35 0 38 -44 7 -85 -15 -19 -30 -35 -35 -35 -4 0 -23 -13 -41 -30 -18 -16 -41 -30 -50 -30 -9 0 -31 -7 -48 -16 -44 -22 -107 -15 -108 11 0 11 -8 36 -17 55 -19 41 -23 141 -8 188 2 5 79 0 116 -8z m420 -111 c5 -5 19 -9 32 -9 13 0 23 -4 23 -10 0 -5 11 -10 25 -10 14 0 25 -4 25 -9 0 -5 23 -15 50 -22 28 -7 50 -16 50 -21 0 -4 10 -8 22 -8 12 0 29 -7 39 -16 16 -14 16 -18 1 -47 -21 -42 -101 -119 -145 -140 -19 -10 -53 -17 -75 -17 -144 0 -169 24 -158 153 4 44 14 103 23 129 15 47 17 49 47 42 17 -3 35 -10 41 -15z m-1222 -5 c104 -7 120 -14 204 -90 61 -54 64 -59 58 -93 -5 -33 -3 -38 25 -54 28 -17 31 -23 28 -60 -3 -37 -6 -42 -29 -45 -16 -2 -49 11 -87 32 -33 20 -67 36 -75 36 -8 0 -20 7 -27 15 -7 9 -34 25 -59 37 -25 11 -51 28 -58 38 -6 9 -30 25 -52 35 -23 10 -41 22 -41 27 0 4 -8 8 -19 8 -10 0 -24 7 -31 15 -7 8 -17 15 -22 15 -15 0 -68 43 -68 55 0 23 63 45 115 40 28 -3 90 -8 138 -11z m1662 -184 c4 -6 34 -28 68 -50 34 -21 71 -52 82 -67 11 -15 30 -38 43 -51 12 -13 22 -27 22 -32 0 -6 5 -10 10 -10 6 0 10 -7 10 -15 0 -8 4 -15 8 -15 14 0 33 -76 30 -120 -2 -44 -1 -44 -26 -31 -9 5 -48 19 -87 31 -109 33 -212 123 -214 187 -1 12 4 25 9 28 15 9 12 35 -4 35 -10 0 -12 13 -10 53 2 28 3 55 4 60 0 11 48 8 55 -3z m-852 -104 c20 -9 37 -20 37 -25 0 -6 8 -12 19 -16 10 -3 27 -21 37 -40 10 -19 22 -35 26 -35 5 0 8 -6 8 -14 0 -15 -27 -29 -40 -21 -26 16 -134 26 -272 26 -99 -1 -158 3 -158 9 0 5 -9 10 -21 10 -17 0 -19 4 -13 23 12 38 35 78 47 81 7 2 26 8 42 14 45 16 242 8 288 -12z m626 -178 c83 -42 206 -146 229 -193 26 -55 19 -126 -10 -97 -6 6 -29 12 -49 12 -21 0 -39 4 -41 8 -1 4 -18 18 -35 31 -18 12 -33 28 -33 35 0 13 -42 26 -85 26 -24 0 -141 56 -151 71 -3 5 -15 9 -27 9 -12 0 -33 9 -47 20 -14 11 -33 20 -42 20 -23 0 -24 38 -1 47 9 4 25 15 35 25 13 13 28 18 46 14 15 -3 34 -2 42 4 31 20 84 10 169 -32z"
       id="path16" />
  </g>
  <path
     style="fill:#ffffff;stroke-width:0"
     d="m 488.20155,641.84148 c -3.03736,-0.7148 -8.59877,-1.8167 -12.35868,-2.44865 -3.75991,-0.63195 -8.53898,-1.72517 -10.62016,-2.42939 -2.08117,-0.70422 -6.46023,-1.54556 -9.73124,-1.86965 -3.271,-0.32407 -8.17785,-1.14646 -10.90408,-1.8275 -5.72829,-1.43098 -18.0817,-7.11086 -21.55412,-9.91021 -4.908,-3.95666 -11.67363,-6.72718 -27.60402,-11.30382 -9.02159,-2.59181 -18.88801,-5.43403 -21.92537,-6.31604 -3.03737,-0.88202 -14.88946,-4.90555 -26.33799,-8.94118 -11.44853,-4.03562 -28.27085,-9.53195 -37.38294,-12.21405 -25.89535,-7.62218 -34.87672,-10.69681 -45.66104,-15.63132 -9.62034,-4.40192 -16.57546,-6.79345 -31.19905,-10.72787 -3.72189,-1.00136 -7.26538,-2.23422 -7.87444,-2.7397 -0.60907,-0.50547 -2.53413,-1.21891 -4.2779,-1.58541 -13.12946,-2.75949 -49.17077,-18.64384 -62.01614,-27.33214 -1.99145,-1.34697 -4.85889,-2.87055 -6.37209,-3.38573 -1.51321,-0.51519 -4.28058,-1.97071 -6.14973,-3.23451 -3.50198,-2.36781 -11.28243,-6.17756 -14.65672,-7.17677 -1.05189,-0.31148 -2.3444,-1.37329 -2.87224,-2.35958 -0.52784,-0.98628 -5.16551,-7.5555 -10.30593,-14.59827 -5.14041,-7.04277 -10.09505,-14.5255 -11.01029,-16.62829 -3.33322,-7.65818 -5.91318,-14.96296 -6.75163,-19.11628 -0.47166,-2.33644 -1.171852,-4.63039 -1.555973,-5.09768 -2.413524,-2.93606 -5.832063,-30.79189 -6.516666,-53.10077 -0.503084,-16.39381 0.782023,-51.7889 2.298124,-63.29613 2.689117,-20.41044 2.782461,-20.73483 12.468245,-43.33023 8.76212,-20.44065 18.74546,-32.87116 38.03368,-47.35676 12.41128,-9.32095 18.17527,-12.26712 21.01507,-10.7415 1.06934,0.57447 3.09123,1.27854 4.49309,1.56462 2.26051,0.46128 2.57527,0.9011 2.78251,3.88812 0.37429,5.39456 -2.0262,26.74058 -3.13156,27.84702 -0.59084,0.5914 -4.7608,1.18526 -10.07055,1.43416 l -9.06217,0.42481 -1.94129,2.88688 c -2.42078,3.59995 -2.46468,6.14952 -0.14185,8.2388 1.5446,1.3893 2.98841,1.59483 10.19535,1.45137 l 8.39591,-0.16713 -0.0277,3.56558 c -0.0153,1.96107 -0.76742,5.66837 -1.67148,8.23845 -0.90406,2.57008 -1.65623,5.93858 -1.67149,7.48555 l -0.0277,2.81269 -5.73488,-0.55099 c -5.11351,-0.49129 -5.94201,-0.35519 -7.64651,1.25607 -2.98833,2.82486 -2.59264,7.17706 0.97705,10.74676 1.58878,1.58877 3.65971,2.88868 4.60207,2.88868 3.89484,0 2.67566,3.71274 -2.94894,8.98031 -2.03071,1.9018 -3.6922,3.87968 -3.6922,4.39527 0,0.51561 0.99843,2.12402 2.21873,3.57425 1.77356,2.10776 2.08462,3.10102 1.55036,4.95047 -1.32498,4.58665 -0.90067,14.97198 0.71229,17.43366 3.21106,4.90069 9.69596,1.8737 11.69308,-5.45804 0.55652,-2.04307 1.16232,-4.23159 1.34623,-4.86338 0.27068,-0.9299 2.47736,-1.03492 11.58514,-0.55132 l 11.25076,0.59737 1.7993,-2.44839 c 5.17403,-7.04053 6.69411,-13.37154 4.09982,-17.07542 -2.22961,-3.18321 -5.40183,-2.4079 -11.93391,2.91669 -2.48482,2.02549 -4.34594,2.84155 -6.48046,2.84155 -4.19998,0 -5.19292,-1.5482 -4.47932,-6.98418 0.90459,-6.89086 2.16105,-8.30884 7.36236,-8.30884 3.034,0 4.65247,-0.41748 5.35775,-1.38199 0.83629,-1.14369 1.34001,-1.20566 2.92129,-0.35939 2.27367,1.21684 4.32682,0.62355 4.32682,-1.25029 0,-0.74017 -0.60414,-4.00193 -1.34252,-7.24836 l -1.34252,-5.90261 h -5.02957 c -4.94913,0 -5.02958,-0.0383 -5.02958,-2.39279 0,-3.3051 1.69804,-12.33101 2.47131,-13.13629 0.34903,-0.36347 3.08996,-1.05286 6.09095,-1.53198 3.00099,-0.47912 5.93124,-1.33934 6.51166,-1.91161 0.58042,-0.57228 1.30041,-3.38552 1.59999,-6.25167 l 0.54467,-5.21115 -4.6555,-0.58167 c -2.56052,-0.31992 -5.07807,-0.84284 -5.59455,-1.16203 -0.68463,-0.42314 -0.67062,-3.39336 0.0517,-10.96338 l 0.99081,-10.38301 h 7.46423 7.46423 v -5.94729 -5.94728 h -3.30635 c -2.8182,0 -3.38505,-0.31359 -3.83944,-2.12403 -0.29321,-1.16822 -0.90814,-2.12403 -1.36652,-2.12403 -1.4314,0 -0.97956,-8.22864 0.53501,-9.74319 1.53468,-1.53468 8.13362,-4.99516 11.37574,-5.96543 5.81807,-1.74118 17.61628,-6.7103 19.11628,-8.05133 0.93458,-0.83553 3.14266,-1.98141 4.90686,-2.5464 1.7642,-0.565 4.24931,-1.89337 5.52248,-2.95194 1.27317,-1.05855 5.90651,-4.10439 10.29631,-6.76852 8.3192,-5.04884 16.70009,-11.1627 18.8199,-13.7291 0.67972,-0.82292 2.35041,-2.17581 3.71266,-3.00643 4.75829,-2.90131 25.08804,-21.44382 28.91808,-26.37581 2.12424,-2.73541 4.41087,-4.97348 5.0814,-4.97348 0.67053,0 2.29581,-1.59892 3.61174,-3.55315 2.86408,-4.25335 13.51694,-13.0303 25.75693,-21.2213 9.32179,-6.23814 33.12262,-18.55578 35.8545,-18.55578 2.13981,0 2.26836,0.53321 3.12383,12.95691 0.41026,5.95809 1.12224,11.31065 1.58216,11.89458 0.45992,0.58392 1.08592,2.10726 1.39111,3.38518 0.37399,1.566 1.24315,2.46621 2.66599,2.76124 1.1611,0.24076 3.03204,0.62744 4.15763,0.85929 1.12559,0.23185 3.78139,1.85673 5.90176,3.61085 8.65725,7.1619 16.28146,14.16488 16.53175,15.18474 0.14636,0.59633 -1.38294,1.92035 -3.39844,2.94226 -4.46009,2.26137 -4.90941,2.89261 -4.92596,6.92025 -0.0195,4.7499 2.53641,6.05099 12.68795,6.45872 4.4977,0.18066 8.7526,0.76516 9.45536,1.29892 2.37757,1.80582 8.29764,11.14471 9.23252,14.56426 1.3809,5.05107 8.87955,14.74058 12.61574,16.30166 3.35752,1.40287 8.76986,1.09723 10.82874,-0.61148 0.6826,-0.56651 1.2411,-2.13018 1.2411,-3.47482 0,-2.40108 0.0847,-2.44481 4.73822,-2.44481 4.0849,0 5.07466,-0.33644 7.17819,-2.43998 3.09235,-3.09234 4.05929,-6.5872 2.30727,-8.33923 -0.74872,-0.74872 -4.09125,-1.62804 -7.96907,-2.09644 -3.67368,-0.44374 -8.20872,-1.18996 -10.07787,-1.65826 -1.86915,-0.46831 -4.53466,-1.13091 -5.92337,-1.47244 -4.37556,-1.07611 -6.35413,-9.48202 -2.23186,-9.48202 3.95277,0 3.21046,-7.37238 -1.26927,-12.60594 -3.20032,-3.73885 -5.31988,-4.33091 -9.19073,-2.56724 -1.87754,0.85547 -2.48516,0.65565 -5.16721,-1.69922 -1.67172,-1.46778 -3.59189,-2.66869 -4.26706,-2.66869 -0.67518,0 -2.04556,-1.62488 -3.0453,-3.61085 -2.7532,-5.46918 -7.63677,-11.55811 -10.73725,-13.38744 -1.52493,-0.89973 -2.7726,-1.97852 -2.7726,-2.39732 0,-0.41879 1.1651,-2.22752 2.58911,-4.0194 3.69136,-4.64498 3.19127,-7.04669 -2.00362,-9.62253 -2.24805,-1.11468 -6.5094,-2.27738 -9.46965,-2.58378 -2.96026,-0.3064 -5.98115,-1.0541 -6.7131,-1.66157 -1.93496,-1.60586 -4.97764,-10.29543 -4.40454,-12.57885 0.75949,-3.02604 7.60304,-5.937756 19.53677,-8.312276 5.88003,-1.169984 14.79409,-3.060564 19.80901,-4.201289 5.01492,-1.140725 13.32362,-2.700357 18.46377,-3.46585 5.14016,-0.765492 10.49272,-1.742824 11.89458,-2.171849 4.61637,-1.412794 29.34224,-3.354438 42.71708,-3.354438 h 13.13254 l 11.41595,3.795367 c 6.27877,2.087452 13.21121,4.714024 15.40542,5.836826 2.19421,1.122803 7.81273,3.892551 12.48559,6.154994 4.67287,2.262445 8.68729,4.363415 8.92094,4.668815 0.23364,0.30541 1.38062,0.83779 2.54883,1.18307 1.16822,0.34528 3.07985,1.24079 4.24806,1.99002 1.16822,0.74923 6.52078,3.55299 11.89458,6.23058 5.3738,2.67759 12.06449,6.4417 14.86821,8.36468 2.80373,1.92298 7.10037,4.82315 9.5481,6.44482 6.73595,4.46269 15.20787,12.76865 18.01184,17.65898 6.24546,10.89258 9.68718,18.8621 11.05853,25.60673 0.57006,2.80372 1.57169,7.4915 2.22584,10.41728 2.52486,11.29274 3.00383,24.85405 2.74497,77.71884 -0.2479,50.62458 -0.17592,53.59376 1.67386,69.04218 2.98206,24.90469 4.36259,34.45856 5.64736,39.08217 1.88582,6.78664 4.61872,20.6307 5.61857,28.46201 0.50711,3.97194 1.43704,9.3245 2.06651,11.89458 2.02468,8.26657 3.01494,15.69012 6.43907,48.27059 3.67478,34.96555 4.17903,46.84711 2.06269,48.60352 -0.94673,0.78571 -3.52522,0.9435 -9.55814,0.58494 -9.46421,-0.5625 -16.18988,-2.34614 -18.5088,-4.90852 -1.57629,-1.74178 -1.56994,-1.86679 0.35656,-7.01777 3.97335,-10.62371 3.84365,-12.21486 -1.23746,-15.18238 -3.43223,-2.00454 -7.258,-0.78988 -9.6372,3.05973 -2.75448,4.45685 -4.54562,5.68183 -7.45659,5.09963 -2.27429,-0.45486 -3.16111,-1.62604 -7.36956,-9.73263 l -4.78415,-9.21554 3.03107,-1.43833 c 3.54414,-1.68181 7.18321,-6.09615 7.18321,-8.71352 0,-2.6225 -2.73806,-4.99901 -6.96448,-6.04487 -10.18764,-2.52099 -9.62713,-2.14873 -11.23553,-7.46192 -0.81451,-2.69064 -1.35387,-6.17563 -1.1986,-7.74441 0.25318,-2.55778 0.72102,-3.01833 4.5304,-4.45978 2.33643,-0.88409 5.6874,-1.60775 7.44659,-1.60813 2.6965,-5.8e-4 3.46279,-0.43409 4.8821,-2.76193 2.2993,-3.77112 2.13679,-4.98286 -1.07133,-7.98866 -6.45207,-6.04519 -8.83704,-6.52905 -17.59822,-3.57035 -5.21528,1.76123 -5.43468,1.77004 -6.53708,0.26242 -0.62737,-0.85798 -1.14067,-2.4154 -1.14067,-3.46092 0,-2.13283 -2.05581,-4.57117 -3.85404,-4.57117 -0.65112,0 -1.57963,-0.73952 -2.06336,-1.64338 -1.28964,-2.40973 -1.08069,-5.15352 0.39247,-5.15352 2.05201,0 8.20779,-6.0832 9.88713,-9.77055 2.07878,-4.56439 2.05458,-8.60988 -0.0583,-9.74065 -3.45531,-1.84921 -6.29463,-0.96531 -12.21976,3.80412 -6.6095,5.3203 -8.94929,5.76599 -13.32447,2.53808 -1.58343,-1.16821 -3.28259,-2.12815 -3.77591,-2.13319 -0.49333,-0.005 -4.14672,-1.53021 -8.11866,-3.38929 -3.97194,-1.85908 -8.21975,-3.38426 -9.43958,-3.38929 -1.77344,-0.008 -6.98207,2.71204 -9.24647,4.82747 -0.45518,0.42524 1.59214,2.23296 12.95116,11.43549 7.94307,6.43508 8.93077,8.39645 5.1526,10.23191 -2.95199,1.43409 -3.96534,5.11887 -2.42293,8.81037 2.13936,5.1202 8.52033,6.30113 13.12259,2.4286 2.9938,-2.51912 5.32255,-2.43564 5.98801,0.21468 0.25413,1.01212 1.41787,2.59594 2.58609,3.51959 1.16822,0.92365 2.85758,3.0645 3.75412,4.75743 l 1.6301,3.07805 -2.69211,2.63204 c -4.26068,4.1656 -3.04059,8.98894 2.75787,10.90261 3.36664,1.11109 3.83041,2.03784 4.47522,8.943 0.47523,5.08915 0.45921,5.13537 -2.96937,8.56394 -3.74451,3.74452 -5.35102,7.74643 -3.55521,8.85631 0.59497,0.36771 2.59343,0.91029 4.44102,1.20573 3.95989,0.63321 9.00992,3.06811 10.96538,5.28702 0.76448,0.86748 2.43899,3.68002 3.72113,6.25009 3.29267,6.60021 11.71257,17.10614 20.08703,25.06357 7.47494,7.1027 8.58444,7.6772 21.95536,11.36841 4.57806,1.26383 5.47302,1.80242 5.23324,3.14938 -1.28357,7.2106 -1.21479,7.65267 1.55291,9.98154 4.26896,3.59209 7.66661,2.96957 13.8194,-2.53203 5.29338,-4.73313 6.14312,-3.87406 3.9601,4.00362 -0.89436,3.22742 -1.62611,6.97894 -1.62611,8.33672 0,1.41064 -0.54621,2.6783 -1.27442,2.95774 -0.70093,0.26897 -1.27461,1.17011 -1.27484,2.00253 -8.5e-4,3.5746 -7.6248,21.12507 -11.91393,27.42666 -7.59497,11.15854 -22.05289,24.58403 -32.39462,30.08134 -3.43363,1.8252 -7.94398,4.61321 -10.02299,6.19557 -6.8675,5.22695 -31.39704,16.99212 -41.36994,19.84238 -5.07388,1.45012 -14.57779,4.31314 -21.1198,6.36227 -16.68939,5.22756 -21.68154,6.28646 -31.86047,6.75797 -6.31237,0.2924 -10.53574,0.0332 -14.44341,-0.88642 z m 56.436,-51.78567 c 5.5458,-4.20558 11.65201,-9.03558 13.56937,-10.73334 l 3.4861,-3.08684 0.27095,-12.67113 c 0.27926,-13.05916 -0.38858,-19.90632 -2.80266,-28.73473 -1.11812,-4.089 -2.65786,-6.61316 -7.77398,-12.74419 -3.50884,-4.2049 -6.90464,-8.63509 -7.54622,-9.84488 -1.64034,-3.09311 -10.74454,-11.34092 -15.52192,-14.06184 -2.20501,-1.25585 -5.92074,-3.69041 -8.25717,-5.41013 -2.33644,-1.71973 -6.73318,-4.48013 -9.77055,-6.13423 -6.05199,-3.29581 -29.76624,-13.38203 -31.57821,-13.43094 -0.62253,-0.0168 -2.27884,-0.97547 -3.6807,-2.13036 -3.53147,-2.90931 -17.85387,-8.28464 -28.03721,-10.52263 -4.67287,-1.02695 -16.3338,-3.93635 -25.91318,-6.46533 -9.57938,-2.52898 -19.90217,-4.97195 -22.93953,-5.42882 -12.91582,-1.94274 -41.91285,-10.04155 -53.66896,-14.98963 -2.6967,-1.13503 -5.58368,-2.06928 -6.41552,-2.07611 -0.83183,-0.007 -3.99754,-1.29577 -7.0349,-2.86431 -3.03737,-1.56853 -10.80581,-5.56249 -17.2632,-8.87546 -12.76737,-6.55029 -30.92234,-18.06327 -31.70648,-20.10669 -0.2693,-0.7018 -1.0386,-1.276 -1.70956,-1.276 -0.67096,0 -3.09472,-1.75366 -5.38614,-3.89701 -7.19111,-6.72644 -41.26818,-26.68904 -45.55941,-26.68904 -0.67755,0 -3.54424,-0.77897 -6.37042,-1.73103 -10.83801,-3.65107 -25.29076,-2.99532 -34.64007,1.57168 -5.10942,2.49587 -17.85456,14.00259 -20.96208,18.92523 -2.94897,4.67147 -4.48586,10.93022 -5.59687,22.79245 -1.31662,14.05746 -0.0955,22.09718 4.36117,28.71353 4.50462,6.68754 13.32031,16.17412 16.39494,17.64264 1.50127,0.71705 5.59703,3.61735 9.10168,6.44512 9.33354,7.53086 26.67956,19.40704 29.91079,20.4788 1.53961,0.51067 4.90208,2.53743 7.47216,4.50392 2.57007,1.96647 7.34914,5.0358 10.62015,6.82073 3.27101,1.78492 8.65566,4.90563 11.96588,6.93492 3.31024,2.02929 6.26667,3.68961 6.56985,3.68961 1.23293,0 26.02304,15.09442 31.03869,18.89909 2.96702,2.25067 6.81584,4.8172 8.55296,5.70341 1.73711,0.88621 3.65753,2.21272 4.2676,2.9478 0.61006,0.73509 1.81527,1.33652 2.67824,1.33652 1.41283,0 6.80961,2.29799 10.11748,4.30809 7.8418,4.76524 18.38034,8.66049 27.27527,10.08146 3.08526,0.49287 15.12838,1.48661 26.7625,2.20832 22.28071,1.38214 39.43839,3.2884 42.01648,4.66815 0.8467,0.45315 2.62651,0.8239 3.95511,0.8239 1.32861,0 3.18091,0.53601 4.11623,1.19113 0.93532,0.65512 3.39407,1.64715 5.46389,2.20449 2.06983,0.55735 7.02894,2.63409 11.02025,4.61498 3.99132,1.98089 10.46885,4.87837 14.39451,6.43884 4.95409,1.96927 9.89232,4.91038 16.14263,9.61423 4.95279,3.72735 10.72553,7.50574 12.82832,8.3964 2.10279,0.89068 4.77907,2.05103 5.94729,2.57858 1.16822,0.52755 3.65333,1.42503 5.52248,1.99438 1.86915,0.56936 5.01034,1.63931 6.98041,2.37764 4.24657,1.59154 18.82465,2.95986 29.57735,2.77618 l 7.67095,-0.13103 z M 483.60426,394.18635 c 9.01429,-4.56833 14.61936,-10.30128 18.92061,-19.35224 2.70194,-5.68562 3.63024,-8.68092 3.64207,-11.75168 0.0205,-5.32334 -0.95833,-11.3429 -1.84449,-11.3429 -0.38107,0 -0.95818,-1.20798 -1.28246,-2.68441 -0.32428,-1.47644 -1.8308,-4.63063 -3.34782,-7.00931 -1.51702,-2.37868 -3.59651,-5.97467 -4.62109,-7.99108 -1.02457,-2.01642 -2.98937,-4.84498 -4.3662,-6.2857 -1.37683,-1.44072 -2.5038,-3.0407 -2.50437,-3.5555 -5.7e-4,-0.51481 -2.29452,-3.742 -5.09767,-7.17154 -2.80315,-3.42953 -5.09664,-6.58372 -5.09664,-7.0093 0,-0.42558 -0.6898,-0.77378 -1.53289,-0.77378 -2.05279,0 -8.01634,-3.8633 -13.8691,-8.9847 -3.73409,-3.26747 -6.89878,-4.98902 -14.44341,-7.85706 -5.31387,-2.02002 -10.90849,-4.28095 -12.4325,-5.02428 -2.66653,-1.30057 -2.85362,-1.27424 -4.96599,0.69913 -5.63169,5.2611 -6.25117,13.5204 -1.01409,13.5204 0.84111,0 2.29395,0.76465 3.22852,1.69923 0.93458,0.93457 2.17714,1.70005 2.76124,1.70104 1.40266,0.003 10.79423,4.90605 12.95659,6.76507 0.93458,0.80346 4.18434,2.88323 7.22171,4.62171 8.73917,5.00199 11.15324,6.66651 14.52017,10.01175 5.46837,5.43314 18.7682,28.43222 19.99826,34.5825 0.28383,1.41917 0.2728,3.87701 -0.0246,5.46187 -0.71729,3.82352 -5.24145,10.5484 -7.57207,11.25544 -1.02205,0.31005 -3.00525,1.40773 -4.40711,2.43929 -4.16677,3.06613 -5.3121,3.14562 -12.01058,0.83361 -5.94262,-2.05112 -6.48191,-2.10424 -8.42655,-0.83007 -1.68757,1.10575 -2.07759,2.06974 -2.07759,5.13508 0,3.05081 0.36622,3.96537 1.91162,4.77388 1.0514,0.55006 3.57372,2.51731 5.60517,4.37167 3.61395,3.29892 3.80855,3.36424 9.0319,3.03164 3.94055,-0.25092 6.8573,-1.10971 11.13929,-3.27976 z m 78.51357,-72.62953 c 11.68063,-2.6878 17.53606,-5.52583 22.76407,-11.03334 4.10023,-4.31944 9.2461,-10.83885 11.33967,-14.36646 4.53953,-7.64902 6.04546,-11.02374 8.41578,-18.85942 3.48538,-11.5217 4.40206,-26.72777 2.18247,-36.20307 -4.56392,-19.48311 -19.8625,-37.35817 -36.63067,-42.79975 -2.33644,-0.75822 -8.1212,-3.04487 -12.85504,-5.08143 -9.3394,-4.01796 -18.70994,-5.95338 -24.78948,-5.12009 -6.14832,0.84272 -11.93275,4.63779 -20.97874,13.7638 -9.422,9.50533 -15.28479,18.35214 -18.90225,28.52298 -1.96454,5.52353 -2.26037,7.85167 -2.58596,20.35161 -0.22875,8.78225 -0.007,15.68319 0.58821,18.26666 1.86763,8.11278 3.183,12.36334 4.00027,12.92675 0.45559,0.31408 1.35151,2.19619 1.99091,4.18247 0.63941,1.98627 2.42682,5.61837 3.97202,8.07132 1.54519,2.45295 3.73861,6.18037 4.87427,8.28317 7.56138,14.0007 36.43349,23.73862 56.61447,19.0948 z M 372.65426,291.52474 c 1.16822,-0.83317 3.46217,-3.35848 5.09768,-5.61181 1.6355,-2.25331 5.64992,-7.0568 8.92093,-10.6744 6.45408,-7.13796 11.2199,-14.40916 12.34227,-18.83059 0.39073,-1.53925 1.38426,-4.5191 2.20784,-6.62189 1.22877,-3.13735 1.49602,-6.49069 1.48965,-18.69148 -0.008,-14.80233 -0.0211,-14.90775 -3.03817,-23.78914 -7.47683,-22.01031 -20.09926,-39.17306 -37.14344,-50.504 -6.86876,-4.56635 -12.9105,-6.20283 -25.76156,-6.97785 -15.91444,-0.95976 -24.42534,2.78632 -38.17916,16.80462 -6.70551,6.83444 -7.9628,8.67731 -13.85101,20.30216 -7.76622,15.33251 -9.74989,22.24216 -10.36183,36.0929 -0.47152,10.67252 1.12179,24.29951 3.46746,29.65583 0.63333,1.44619 1.60713,4.83129 2.16402,7.52245 0.58589,2.83137 2.23903,6.71562 3.92349,9.21871 1.60104,2.37913 2.91098,4.609 2.91098,4.95526 0,0.95747 10.77061,11.09426 11.78794,11.09426 0.48953,0 1.57402,0.71273 2.40997,1.58384 2.26432,2.35954 11.61165,5.00206 19.78659,5.59371 3.97193,0.28746 12.57426,0.0559 19.11628,-0.51454 15.46555,-1.34859 18.83746,-1.29015 22.93953,0.39762 3.77581,1.55354 6.58807,1.26407 9.77054,-1.00566 z"
     id="path26"
     transform="scale(0.74999999)" />
  <path
     style="fill:#ffffff;stroke-width:0"
     d="m 319.97829,276.04081 c -6.69029,-1.30657 -14.18783,-5.59073 -17.81527,-10.17978 -3.55697,-4.4999 -8.00471,-15.04195 -9.82021,-23.27591 -0.62072,-2.81515 -1.52877,-6.42006 -2.01789,-8.01091 -1.06238,-3.45532 0.11974,-13.35818 2.03722,-17.06618 0.75657,-1.46304 1.18288,-4.25234 1.06365,-6.95934 -0.17841,-4.0505 0.36999,-5.65927 5.30304,-15.55696 6.98098,-14.00666 13.1557,-20.76867 23.45553,-25.68643 6.20605,-2.96314 7.26208,-3.20064 13.93657,-3.13439 8.71012,0.0865 16.75629,2.22493 20.96951,5.57319 1.67931,1.33454 3.48253,2.42644 4.00716,2.42644 1.7665,0 7.02627,5.78664 14.92557,16.42064 4.5304,6.0988 6.04364,9.57031 10.79314,24.76054 2.65903,8.50433 2.86696,9.91822 2.37402,16.14263 -1.51308,19.10551 -3.31809,23.2315 -16.04083,36.66679 l -8.69522,9.18221 -3.59396,-1.18611 c -2.97456,-0.98169 -5.24943,-1.01355 -13.19948,-0.18486 -10.91632,1.1379 -22.06522,1.16546 -27.68255,0.0684 z m 28.49674,-34.21297 c 4.18266,-1.9477 8.91625,-6.47065 8.8561,-8.46202 -0.0165,-0.54825 -0.5765,-1.95264 -1.24431,-3.12086 -0.66781,-1.16822 -1.22775,-3.13452 -1.24431,-4.36956 -0.0166,-1.23505 -0.6036,-2.46561 -1.30453,-2.73458 -0.70093,-0.26897 -1.27441,-1.20295 -1.27441,-2.0755 0,-2.67981 -5.78884,-9.26393 -9.42364,-10.71829 -5.48198,-2.19345 -7.44612,-1.77422 -11.49755,2.45409 -4.81463,5.02484 -5.92917,9.09638 -4.69555,17.15354 1.09136,7.12801 3.05638,11.68784 5.55969,12.90125 3.38767,1.64209 11.65652,1.11955 16.26851,-1.02807 z"
     id="path28"
     transform="scale(0.74999999)" />
  <path
     style="fill:#ffffff;stroke-width:0"
     d="m 539.6031,306.7608 c -2.77999,-0.68163 -11.63556,-4.99097 -12.31938,-5.99492 -0.23364,-0.34302 -1.3273,-0.90555 -2.43035,-1.25006 -3.23919,-1.01167 -8.43687,-6.25947 -9.54956,-9.64164 -0.56636,-1.7215 -1.90255,-4.46813 -2.96932,-6.10364 -1.06677,-1.6355 -2.19638,-4.02865 -2.51023,-5.3181 -0.31385,-1.28946 -0.91061,-2.55458 -1.32613,-2.81138 -0.41552,-0.25681 -0.75549,-1.41363 -0.75549,-2.57071 0,-1.15708 -0.6208,-3.05123 -1.37955,-4.20923 -1.17982,-1.80063 -1.32708,-4.28713 -1.0172,-17.17476 0.33631,-13.98634 0.51988,-15.41213 2.55436,-19.83968 3.36654,-7.32645 8.03963,-14.17822 13.75789,-20.17204 7.40061,-7.75724 13.99216,-10.38006 18.61206,-7.40585 1.03496,0.66628 3.29776,1.1645 5.02846,1.10715 1.89237,-0.0627 3.78174,0.47041 4.73977,1.33741 0.87617,0.79293 2.28724,1.44169 3.13571,1.44169 0.84847,0 5.2431,1.69622 9.76586,3.76937 4.52276,2.07316 9.25083,4.0273 10.50682,4.34253 1.256,0.31524 3.07008,1.67762 4.0313,3.02753 0.96122,1.3499 2.25943,2.45437 2.88493,2.45437 1.58642,0 8.45684,11.81637 11.58838,19.93073 3.27833,8.49475 3.95899,16.40131 2.14583,24.92618 -1.57144,7.38834 -7.1156,19.34113 -11.02236,23.76333 -1.54126,1.74461 -3.66338,4.41456 -4.71583,5.93325 -1.05244,1.51868 -2.33067,2.76124 -2.8405,2.76124 -0.50982,0 -2.87332,1.46687 -5.25222,3.25971 -2.3789,1.79284 -5.16036,3.70447 -6.18104,4.24806 -2.04839,1.09093 -20.2317,1.23165 -24.48221,0.18946 z m 25.25543,-39.7701 c 1.11782,-2.51242 1.94134,-6.49745 2.18182,-10.55789 l 0.38627,-6.52223 -3.87038,-4.09793 -3.87039,-4.09792 -8.61016,-0.29376 c -6.60676,-0.2254 -8.94318,-0.008 -10.04138,0.93288 -0.78716,0.67464 -2.0497,1.4445 -2.80564,1.71078 -1.91669,0.67517 -2.41,4.24103 -1.4877,10.75366 1.54411,10.90337 4.67446,14.02961 15.27992,15.25986 11.33778,1.3152 10.82382,1.43881 12.83764,-3.08745 z"
     id="path30"
     transform="scale(0.74999999)" />
  <path
     style="fill:#ffffff;stroke-width:0"
     d="m 534.93023,552.77711 c -11.83355,-4.32173 -17.08019,-7.11213 -22.83026,-12.14215 -7.52657,-6.58406 -10.24528,-13.1315 -7.3117,-17.6087 1.43217,-2.18578 0.89497,-4.76269 -0.99287,-4.76269 -0.98173,0 -1.1692,-1.43517 -0.97111,-7.43411 0.23854,-7.22402 0.3055,-7.44087 2.36951,-7.67344 1.43781,-0.16202 3.93596,1.07317 7.73247,3.82325 3.08464,2.23443 7.31188,5.24517 9.39388,6.69054 2.08199,1.44538 6.53415,5.84212 9.89368,9.77055 3.35953,3.92842 6.68321,7.81166 7.38596,8.62941 0.70275,0.81775 1.27773,1.92258 1.27773,2.45517 0,0.53259 0.58345,1.39498 1.29655,1.91641 0.7131,0.52144 1.85554,3.0487 2.53875,5.61615 1.30196,4.89263 1.7198,14.49272 0.62516,14.36327 -0.35046,-0.0414 -5.03395,-1.6811 -10.40775,-3.64366 z"
     id="path32"
     transform="scale(0.74999999)" />
  <path
     style="fill:#ffffff;stroke-width:0"
     d="m 507.74264,579.36486 c -1.16822,-0.40125 -3.88856,-0.94749 -6.0452,-1.21387 -3.40547,-0.42064 -4.73343,-1.25731 -10.09744,-6.36184 -5.35629,-5.09719 -6.69687,-5.94278 -10.09744,-6.36912 -7.53416,-0.94457 -14.72104,-3.82755 -25.92136,-10.3982 -0.98392,-0.57722 -2.5536,-1.05677 -3.48818,-1.06566 -0.93457,-0.009 -3.41969,-1.15986 -5.52248,-2.55772 -2.10279,-1.39786 -4.45142,-2.5432 -5.21918,-2.5452 -1.15984,-0.003 -2.42733,-1.59488 -2.42733,-3.04853 0,-0.19639 2.30166,-2.05146 5.1148,-4.12237 4.37625,-3.22162 5.53686,-3.69682 8.03769,-3.29099 1.78598,0.28983 4.29103,-0.0731 6.4403,-0.93307 3.23396,-1.29398 3.93844,-1.2996 8.74216,-0.0697 9.96186,2.55043 19.1617,7.81463 30.95408,17.71209 10.29162,8.63785 14.29821,15.11057 13.61449,21.99448 -0.29224,2.94236 -0.993,3.33174 -4.08491,2.26975 z"
     id="path34"
     transform="scale(0.74999999)" />
  <path
     style="fill:#ffffff;stroke-width:0"
     d="m 450.3938,519.12998 c -11.04742,-1.03426 -13.72264,-4.13116 -13.41704,-15.53184 0.28617,-10.6758 3.59389,-25.82309 5.82604,-26.67964 0.52678,-0.20215 2.64142,0.25311 4.6992,1.01168 2.05778,0.75857 5.36629,1.76371 7.35226,2.23364 1.98597,0.46992 3.61086,1.1754 3.61086,1.56771 0,0.39232 1.23695,0.98498 2.74878,1.31704 1.51182,0.33205 3.5494,1.12832 4.52794,1.76948 0.97854,0.64117 3.85159,1.77523 6.38456,2.52014 2.53296,0.74491 5.17887,1.84222 5.8798,2.43847 0.70093,0.59625 2.65565,1.33115 4.34383,1.63312 1.68817,0.30197 3.72171,1.26983 4.51897,2.15079 1.36995,1.51378 1.35187,1.79329 -0.32914,5.08834 -2.6376,5.17012 -13.48444,15.61707 -18.84589,18.1511 -5.40999,2.55698 -9.29151,3.07974 -17.30017,2.32997 z"
     id="path36"
     transform="scale(0.74999999)" />
  <path
     style="fill:#ffffff;stroke-width:0"
     d="m 385.49442,497.13894 c -0.64814,-0.43158 -2.25684,-3.97951 -3.57488,-7.8843 -1.98455,-5.87935 -2.40038,-8.55988 -2.4194,-15.59573 -0.0126,-4.67286 0.31347,-9.02737 0.72465,-9.67668 1.38498,-2.18705 16.86009,0.13758 31.08684,4.66978 3.73829,1.19091 7.75271,2.42923 8.92093,2.75182 1.62392,0.44844 2.18711,1.23833 2.39193,3.35477 0.47172,4.87438 -2.02825,7.82128 -14.61858,17.23197 -4.82664,3.6077 -19.71256,7.0121 -22.51149,5.14837 z"
     id="path38"
     transform="scale(0.74999999)" />
  <path
     style="fill:#ffffff;stroke-width:0"
     d="m 403.66512,536.38799 c -2.93403,-0.85355 -11.56064,-1.44971 -27.88839,-1.92727 -15.50245,-0.45342 -23.9694,-1.02052 -24.59628,-1.6474 -0.52577,-0.52577 -1.65614,-0.95596 -2.51192,-0.95596 -2.27114,0 -2.59113,-1.76866 -1.00727,-5.56739 2.61653,-6.27549 4.18312,-7.72424 10.07803,-9.31992 4.52504,-1.22487 7.72434,-1.40825 18.06582,-1.03549 14.49648,0.52252 20.50454,1.6476 23.46886,4.39484 1.15835,1.07353 3.26235,2.77519 4.67555,3.78147 1.41319,1.00629 3.41969,3.25649 4.45888,5.00046 1.0392,1.74396 2.49143,3.65903 3.22719,4.25571 1.02208,0.82888 1.12122,1.43031 0.42012,2.54884 -1.18299,1.88734 -3.14616,1.9978 -8.39059,0.47211 z"
     id="path40"
     transform="scale(0.74999999)" />
  <path
     style="fill:#ffffff;stroke-width:0"
     d="m 349.16198,474.10209 c -6.99893,-2.48977 -18.42119,-8.06317 -20.18225,-9.84778 -0.89029,-0.90219 -3.75774,-2.78992 -6.37209,-4.19494 -5.17214,-2.77964 -5.08737,-2.53517 -3.65811,-10.55015 0.46076,-2.58382 1.46045,-5.07558 2.27538,-5.67147 1.77899,-1.30083 2.48229,-1.09049 25.09137,7.50413 l 16.56744,6.29796 -0.12481,3.82516 c -0.14807,4.53806 -3.30752,12.34972 -5.46103,13.50224 -2.01417,1.07796 -2.95488,0.97792 -8.1359,-0.86515 z"
     id="path42"
     transform="scale(0.74999999)" />
  <path
     style="fill:#ffffff;stroke-width:0"
     d="m 322.08127,523.40949 c -2.32485,-0.82826 -6.74387,-2.89842 -9.82004,-4.60035 -3.07617,-1.70193 -6.08356,-3.09441 -6.68307,-3.09441 -0.59952,0 -2.86173,-1.29013 -5.02712,-2.86696 -2.1654,-1.57683 -5.65755,-3.73014 -7.76034,-4.78514 -2.10279,-1.055 -5.19842,-3.11022 -6.87917,-4.56715 -1.68076,-1.45693 -4.93052,-3.69887 -7.22171,-4.98209 -2.29118,-1.28322 -4.73928,-2.65518 -5.44021,-3.04881 -0.70093,-0.39363 -2.42139,-1.33226 -3.82325,-2.08586 -1.40186,-0.75359 -4.07814,-2.19555 -5.94729,-3.20435 -4.02135,-2.17037 -8.07132,-5.79912 -8.07132,-7.23187 0,-1.40557 5.05302,-3.67474 9.48818,-4.26087 2.02445,-0.26755 10.56267,0.12232 18.97384,0.86637 18.81136,1.66405 20.9813,2.55498 31.88443,13.09105 l 7.61419,7.35785 -0.52905,4.37666 -0.52904,4.37666 3.52143,2.33038 c 3.85983,2.55431 4.81884,4.79913 3.97405,9.30226 -0.77701,4.14185 -2.5949,4.85414 -7.72451,3.02663 z"
     id="path44"
     transform="scale(0.74999999)" />
  <path
     style="fill:#ffffff;stroke-width:0"
     d="m 279.71901,444.98816 c -6.41781,-3.48114 -12.63749,-9.08489 -14.60446,-13.15817 -2.88133,-5.96681 -1.92266,-25.71526 1.24833,-25.71526 0.38499,0 3.90805,2.68724 7.82902,5.97165 3.92097,3.28441 11.52577,8.88556 16.89957,12.447 10.40795,6.89778 11.89458,8.22273 11.89458,10.60099 0,1.8823 -4.45947,7.03436 -8.836,10.20833 -4.3995,3.19061 -8.06107,3.10065 -14.43104,-0.35454 z"
     id="path46"
     transform="scale(0.74999999)" />
  <path
     style="fill:#ffffff;stroke-width:0"
     d="m 222.24193,466.20918 c -9.91727,-4.99332 -19.1015,-12.08886 -31.25891,-24.14995 -5.19701,-5.15584 -7.82662,-8.38225 -7.63828,-9.37183 0.38012,-1.99722 7.97554,-7.03159 10.60867,-7.03159 1.141,0 4.5422,1.48831 7.55822,3.30736 5.11526,3.08516 6.06821,3.3467 14.18447,3.89301 11.61064,0.78151 14.59203,1.73829 18.06694,5.79793 6.1091,7.13711 7.54778,28.26793 2.12231,31.17155 -2.73461,1.46352 -4.46496,1.00486 -13.64342,-3.61648 z"
     id="path48"
     transform="scale(0.74999999)" />
  <path
     style="fill:#ffffff;stroke-width:0"
     d="m 222.27287,415.07273 c -1.63551,-0.63952 -6.59155,-2.51773 -11.01342,-4.1738 -4.83926,-1.81239 -8.62248,-3.78353 -9.50352,-4.95156 -3.48856,-4.62489 -6.55404,-24.24263 -4.03175,-25.80149 1.92767,-1.19136 17.79146,-0.67853 23.38328,0.75591 4.96372,1.27333 20.32172,8.77438 23.46773,11.46195 0.81776,0.69859 1.48683,1.99357 1.48683,2.87773 0,2.64761 -6.86041,14.46314 -10.3831,17.88256 -2.76054,2.67963 -3.85051,3.18012 -6.85733,3.14876 -1.96629,-0.0205 -4.91322,-0.56054 -6.54872,-1.20006 z"
     id="path50"
     transform="scale(0.74999999)" />
</svg>
