<?xml version="1.0" encoding="UTF-8" standalone="no"?>
<svg
   xmlns:dc="http://purl.org/dc/elements/1.1/"
   xmlns:cc="http://creativecommons.org/ns#"
   xmlns:rdf="http://www.w3.org/1999/02/22-rdf-syntax-ns#"
   xmlns:svg="http://www.w3.org/2000/svg"
   xmlns="http://www.w3.org/2000/svg"
   xmlns:sodipodi="http://sodipodi.sourceforge.net/DTD/sodipodi-0.dtd"
   xmlns:inkscape="http://www.inkscape.org/namespaces/inkscape"
   version="1.0"
   width="544.000000pt"
   height="686.000000pt"
   viewBox="0 0 544.000000 686.000000"
   preserveAspectRatio="xMidYMid meet"
   id="svg16"
   sodipodi:docname="face9.svg"
   inkscape:version="1.0.1 (3bc2e813f5, 2020-09-07)">
  <defs
     id="defs20" />
  <sodipodi:namedview
     pagecolor="#ffffff"
     bordercolor="#666666"
     borderopacity="1"
     objecttolerance="10"
     gridtolerance="10"
     guidetolerance="10"
     inkscape:pageopacity="0"
     inkscape:pageshadow="2"
     inkscape:window-width="1920"
     inkscape:window-height="1027"
     id="namedview18"
     showgrid="false"
     inkscape:zoom="0.94023324"
     inkscape:cx="362.66667"
     inkscape:cy="457.33333"
     inkscape:window-x="1912"
     inkscape:window-y="-8"
     inkscape:window-maximized="1"
     inkscape:current-layer="svg16" />
  <metadata
     id="metadata2">
Created by potrace 1.16, written by Peter Selinger 2001-2019
<rdf:RDF>
  <cc:Work
     rdf:about="">
    <dc:format>image/svg+xml</dc:format>
    <dc:type
       rdf:resource="http://purl.org/dc/dcmitype/StillImage" />
  </cc:Work>
</rdf:RDF>
</metadata>
  <g
     transform="translate(0.000000,686.000000) scale(0.100000,-0.100000)"
     fill="#000000"
     stroke="none"
     id="g14">
    <path
       d="M2995 6348 c-83 -6 -164 -18 -225 -35 -66 -18 -129 -27 -205 -29 -127 -5 -221 -20 -249 -40 -11 -8 -28 -14 -38 -14 -28 0 -135 -87 -189 -154 -27 -33 -61 -73 -74 -88 -14 -15 -25 -33 -25 -40 0 -8 -7 -24 -16 -36 -8 -12 -13 -26 -9 -31 3 -5 0 -13 -5 -16 -14 -8 -31 -51 -36 -85 -1 -14 -9 -45 -17 -70 -36 -110 -50 -168 -54 -214 -2 -28 -8 -55 -13 -61 -5 -6 -8 -26 -8 -45 0 -19 -5 -64 -11 -100 -7 -36 -14 -83 -16 -105 -2 -22 -6 -62 -10 -90 -14 -105 -16 -122 -21 -200 -3 -44 -9 -84 -13 -90 -5 -5 -11 -28 -15 -50 -11 -66 -60 -239 -84 -295 -8 -19 -28 -62 -43 -96 -16 -33 -29 -66 -29 -72 0 -7 -4 -12 -8 -12 -4 0 -16 -14 -26 -30 -9 -17 -28 -41 -42 -55 -13 -13 -24 -28 -24 -33 0 -11 -100 -112 -111 -112 -5 0 -9 -6 -9 -14 0 -7 -25 -36 -55 -64 -30 -28 -55 -56 -55 -61 0 -6 -4 -11 -9 -11 -32 0 -251 -253 -251 -289 0 -6 -9 -15 -20 -21 -11 -6 -20 -16 -20 -23 0 -7 -16 -28 -35 -47 -19 -19 -35 -42 -35 -52 0 -13 -8 -18 -25 -18 -14 0 -41 -6 -60 -14 -32 -14 -34 -17 -29 -56 3 -23 0 -48 -6 -55 -6 -7 -8 -19 -5 -27 3 -8 -3 -39 -14 -69 -11 -30 -25 -80 -32 -112 -7 -32 -16 -60 -21 -63 -4 -3 -8 -21 -8 -40 0 -20 -5 -45 -11 -56 -6 -11 -13 -78 -15 -148 -3 -121 -1 -132 27 -211 17 -46 33 -100 36 -119 3 -19 20 -55 38 -80 18 -25 45 -67 60 -95 16 -27 54 -79 85 -115 30 -36 73 -87 95 -115 41 -53 224 -234 387 -385 93 -87 211 -238 211 -270 0 -8 5 -19 12 -25 22 -20 85 -104 85 -114 0 -5 6 -14 13 -18 6 -4 34 -40 60 -79 66 -99 198 -218 338 -304 46 -29 120 -76 164 -105 124 -81 313 -172 397 -190 18 -4 38 -11 43 -15 32 -26 432 -71 570 -64 111 5 210 15 240 24 17 6 46 12 66 14 20 3 58 12 85 21 45 15 66 30 161 115 17 15 41 31 53 35 13 4 19 12 16 20 -3 8 11 26 35 43 48 36 94 99 96 132 1 14 7 26 13 28 5 2 10 10 10 17 0 8 14 44 31 80 18 36 29 68 26 72 -4 3 1 22 9 42 8 20 15 53 16 74 0 20 4 37 9 37 5 0 9 9 9 20 0 11 4 20 8 20 15 0 13 164 -3 215 -10 36 -11 52 -3 62 10 13 7 112 -6 198 -23 144 -28 434 -11 620 4 50 8 110 9 135 1 25 5 51 10 58 4 7 12 66 17 130 5 64 11 128 14 142 2 14 11 84 19 155 8 72 17 141 20 155 2 14 8 50 11 80 4 30 13 69 20 85 8 17 17 54 21 83 3 28 10 52 14 52 4 0 7 12 8 28 1 26 4 51 38 262 9 58 14 130 11 161 -3 30 -1 62 3 70 4 8 11 65 14 128 4 62 8 117 11 121 2 4 0 33 -5 66 -7 41 -6 60 1 65 7 4 9 11 6 15 -3 5 -8 65 -11 133 -4 68 -9 128 -12 132 -3 5 -1 9 3 9 5 0 9 60 10 133 0 72 1 217 2 321 2 158 -1 192 -14 213 -9 14 -14 30 -12 37 8 21 -55 297 -73 321 -4 6 -20 41 -35 80 -16 38 -35 77 -45 87 -9 10 -28 40 -42 67 -30 60 -67 104 -92 114 -10 4 -16 13 -13 20 5 13 -12 26 -76 61 -43 23 -105 65 -112 76 -19 31 -275 130 -336 130 -14 0 -59 9 -100 20 -82 22 -200 24 -434 8z m481 -134 c35 -8 74 -18 87 -23 12 -5 47 -14 78 -20 31 -7 65 -19 75 -29 10 -9 31 -23 47 -31 15 -8 27 -18 27 -22 0 -5 7 -6 15 -3 8 4 15 1 15 -5 0 -6 15 -17 33 -24 17 -8 38 -21 46 -30 7 -10 19 -17 25 -17 21 0 143 -128 165 -174 26 -52 22 -66 -19 -66 -16 0 -35 -7 -44 -15 -8 -8 -22 -15 -30 -15 -9 0 -16 -5 -16 -11 0 -6 -11 -8 -29 -4 -20 4 -30 2 -34 -9 -9 -23 -60 -28 -123 -13 -33 8 -66 15 -74 16 -64 3 -146 23 -155 37 -41 65 -76 81 -109 48 -20 -19 -20 -29 -1 -47 12 -13 9 -18 -26 -41 -22 -15 -44 -24 -49 -21 -13 8 -35 -14 -44 -43 -10 -29 -34 -28 -42 2 -7 31 -55 44 -86 24 -21 -14 -35 -78 -17 -78 5 0 14 -12 20 -26 11 -30 -10 -74 -35 -74 -25 0 -47 -47 -40 -85 5 -27 12 -36 33 -41 14 -3 31 -7 38 -9 6 -2 22 12 35 30 27 40 47 39 89 -6 44 -48 94 -37 104 21 3 19 8 51 11 71 5 30 3 37 -14 41 -10 3 -27 1 -37 -4 -11 -7 -20 -7 -27 0 -7 7 -3 14 11 21 11 7 28 25 36 41 13 26 21 30 56 30 37 0 41 -2 36 -20 -6 -24 35 -50 81 -50 25 0 30 5 38 38 9 35 11 37 54 40 43 3 110 -13 192 -46 32 -14 36 -19 31 -42 -4 -22 -1 -28 17 -33 12 -3 24 -15 27 -26 3 -14 19 -25 44 -33 45 -13 61 -4 64 34 1 16 12 25 44 36 23 8 53 24 67 37 24 22 24 24 7 37 -10 7 -26 23 -37 35 -15 19 -16 25 -6 38 7 8 19 15 26 15 17 0 46 -54 39 -72 -3 -8 6 -36 20 -63 15 -27 29 -71 32 -99 3 -28 13 -76 24 -106 14 -42 16 -56 6 -62 -9 -6 -9 -10 -1 -15 12 -9 11 -1108 -1 -1233 -3 -36 -8 -110 -9 -165 -3 -93 -16 -172 -36 -220 -9 -21 -40 -189 -45 -240 -2 -16 -6 -38 -10 -48 -4 -9 -5 -33 -3 -52 3 -23 0 -35 -8 -35 -12 0 -27 -46 -23 -66 1 -5 0 -16 -4 -24 -7 -20 -23 -162 -26 -233 -1 -16 -5 -26 -10 -22 -5 3 -13 0 -17 -6 -3 -6 -2 -14 5 -18 7 -5 8 -32 1 -95 -6 -49 -13 -92 -15 -97 -3 -4 0 -11 6 -15 7 -4 8 -9 1 -13 -9 -6 -24 -157 -23 -225 0 -16 -3 -34 -8 -40 -18 -23 -32 -550 -16 -576 6 -8 11 -33 12 -55 1 -22 6 -74 13 -115 7 -48 8 -82 2 -96 -6 -11 -7 -27 -2 -35 8 -16 5 -158 -5 -231 -5 -30 -11 -45 -18 -41 -6 4 -8 0 -4 -10 3 -9 1 -19 -4 -23 -6 -3 -9 -15 -6 -25 3 -10 1 -22 -4 -25 -5 -3 -9 -21 -9 -40 0 -21 -6 -37 -14 -40 -8 -3 -13 -15 -11 -26 3 -13 -4 -28 -15 -38 -11 -10 -20 -22 -20 -29 0 -6 -4 -11 -10 -11 -5 0 -10 -9 -10 -19 0 -11 -5 -23 -10 -26 -6 -4 -8 -11 -4 -16 3 -6 -19 -34 -50 -64 -31 -29 -56 -57 -56 -63 0 -5 -10 -12 -22 -15 -22 -6 -29 -15 -61 -84 -10 -20 -26 -35 -41 -39 -14 -3 -26 -9 -26 -13 0 -4 -14 -8 -31 -9 -18 -1 -37 -6 -43 -9 -6 -4 -18 -9 -26 -10 -36 -6 -260 -34 -277 -35 -53 -2 -327 14 -383 23 -129 22 -305 79 -352 116 -18 14 -104 59 -158 82 -25 11 -52 28 -61 38 -9 10 -24 24 -35 31 -10 6 -66 44 -123 82 -57 39 -106 70 -110 70 -3 0 -21 16 -40 35 -19 19 -40 35 -48 35 -8 0 -13 6 -11 13 1 6 -24 39 -56 72 -32 33 -66 76 -76 95 -20 39 -79 132 -109 170 -11 14 -33 42 -50 64 -17 21 -31 44 -31 51 0 6 -14 24 -31 41 -17 16 -37 42 -45 57 -15 28 -142 159 -170 175 -8 4 -46 39 -84 76 -38 37 -74 65 -79 62 -5 -3 -28 19 -51 49 -24 31 -48 59 -54 63 -18 11 -106 118 -106 129 0 5 -16 25 -35 43 -20 19 -42 46 -49 60 -100 187 -128 246 -132 277 -3 20 -8 42 -13 47 -30 38 -14 299 27 436 9 30 15 61 14 68 -2 6 2 12 8 12 6 0 10 6 9 13 -1 6 3 25 9 40 7 16 12 34 12 41 0 7 8 21 19 32 20 22 77 24 135 4 15 -5 38 -7 50 -4 28 7 48 -15 62 -70 8 -32 15 -40 30 -38 10 1 33 4 49 6 36 4 44 31 21 78 -22 44 -20 51 16 66 18 8 54 23 80 34 l48 21 36 -36 c20 -19 33 -40 29 -46 -3 -6 -1 -11 4 -11 6 0 19 -8 29 -18 23 -23 108 -37 118 -20 4 7 2 14 -4 16 -7 2 -12 12 -12 22 0 10 -11 27 -25 38 -14 11 -25 27 -25 36 0 9 -3 16 -7 16 -8 0 -33 47 -33 61 0 4 11 9 24 13 19 5 96 58 152 104 36 31 56 34 85 13 62 -46 99 -19 99 72 0 31 7 48 25 65 13 13 22 29 19 36 -3 7 2 16 10 19 8 3 25 25 37 49 12 24 23 44 24 46 2 2 18 -6 36 -17 40 -25 89 -28 89 -6 0 8 7 15 15 15 8 0 15 6 15 14 0 8 -7 16 -15 20 -8 3 -15 12 -15 20 0 7 -9 16 -20 19 -26 7 -35 32 -22 61 8 19 23 26 74 35 54 9 67 16 95 48 27 32 30 40 18 49 -8 6 -12 14 -8 18 11 11 -31 35 -63 36 -22 0 -36 -8 -52 -30 -14 -19 -32 -30 -46 -30 -13 0 -37 -7 -52 -15 -20 -10 -43 -13 -71 -9 -43 6 -100 -2 -89 -13 3 -3 -2 -19 -12 -35 -17 -29 -17 -29 16 -57 31 -24 33 -30 27 -64 -4 -20 -13 -41 -21 -48 -8 -6 -14 -21 -14 -33 0 -13 -14 -30 -38 -46 -20 -14 -41 -30 -45 -37 -13 -20 -24 -16 -63 27 -35 38 -65 49 -90 32 -23 -15 -19 -38 14 -81 l34 -45 -28 -24 c-125 -103 -189 -135 -249 -126 -41 6 -43 4 -59 -27 -9 -17 -16 -37 -16 -44 0 -11 -127 -62 -135 -54 -12 13 -44 101 -39 112 3 8 -2 20 -11 27 -22 19 -18 54 10 89 14 16 79 83 145 149 66 66 120 122 120 124 0 2 40 45 90 95 49 50 90 96 90 101 0 4 11 19 25 32 13 12 29 38 35 56 7 19 15 34 20 34 4 0 27 39 50 88 44 89 49 102 70 162 7 19 16 44 20 55 12 29 21 72 27 135 3 30 9 62 13 70 10 20 33 168 31 202 0 15 3 29 7 32 5 3 7 28 6 55 -2 28 1 53 6 56 6 3 10 17 10 31 0 13 4 32 9 42 6 9 15 62 21 117 6 55 12 109 14 120 2 11 7 43 12 70 4 28 7 58 5 68 -1 10 2 24 6 30 5 7 14 30 21 52 6 22 18 63 27 90 8 28 18 58 20 69 2 10 8 23 13 30 5 6 12 23 16 39 4 15 14 36 24 46 9 10 24 29 32 43 40 66 55 85 86 108 19 14 36 33 39 42 4 10 18 20 33 24 15 3 36 10 47 16 41 23 123 38 207 38 90 0 221 16 249 30 9 5 49 13 90 19 215 32 482 34 605 5z"
       id="path4" />
    <path
       d="M2571 5299 c-77 -7 -117 -16 -155 -35 -78 -38 -110 -56 -123 -69 -6 -7 -25 -18 -42 -25 -17 -7 -31 -18 -31 -25 0 -6 -11 -17 -25 -23 -14 -6 -25 -17 -25 -23 0 -7 -7 -19 -15 -28 -53 -57 -115 -157 -115 -187 0 -8 -7 -26 -16 -39 -12 -19 -15 -44 -13 -115 2 -50 0 -90 -5 -90 -5 0 -1 -9 8 -19 10 -11 15 -24 12 -30 -4 -6 -2 -19 4 -31 5 -11 15 -29 20 -40 6 -11 10 -24 10 -30 0 -13 46 -83 100 -152 34 -43 59 -64 102 -83 53 -24 70 -26 191 -27 100 0 141 4 169 16 21 9 51 16 68 16 16 0 30 4 30 8 0 5 17 14 38 20 21 7 47 21 57 32 10 11 26 20 37 20 12 0 18 7 18 23 0 13 11 34 24 47 14 12 28 35 31 51 4 16 16 35 27 43 15 11 18 19 11 31 -7 11 -5 30 4 57 24 71 12 376 -22 543 -8 37 -42 105 -64 125 -45 42 -141 54 -310 39z m42 -164 c43 -38 78 -124 83 -205 4 -85 -10 -205 -27 -226 -7 -9 -14 -26 -16 -37 -2 -12 -13 -42 -25 -67 -12 -25 -24 -52 -28 -60 -5 -10 -25 -16 -56 -18 -27 -2 -56 -10 -66 -18 -9 -9 -23 -16 -31 -18 -8 -1 -25 -9 -39 -18 -14 -9 -52 -22 -85 -29 -55 -11 -63 -11 -93 7 -18 10 -41 34 -50 51 -10 18 -22 38 -27 45 -5 7 -18 40 -28 73 -16 52 -17 69 -7 138 6 43 14 82 17 88 13 20 25 -4 25 -51 0 -46 28 -114 53 -131 5 -4 44 -10 87 -13 87 -8 163 6 195 36 11 11 35 26 52 35 27 13 32 19 27 39 -4 14 -1 31 6 39 15 18 15 104 0 119 -5 5 -10 20 -10 32 0 38 -51 62 -92 42 -10 -5 -40 -2 -73 7 -62 16 -72 14 -133 -27 -23 -16 -52 -28 -64 -26 -19 3 -19 5 13 45 19 23 39 42 44 42 6 1 22 13 37 29 36 37 83 72 100 72 7 1 24 7 38 15 14 8 51 14 85 14 50 0 65 -4 88 -24z"
       id="path6" />
    <path
       d="M3589 5221 c-49 -10 -130 -59 -136 -82 -3 -10 -9 -16 -14 -13 -5 3 -9 0 -9 -6 0 -6 -12 -22 -26 -35 -26 -25 -64 -90 -64 -112 0 -6 -7 -16 -17 -21 -9 -6 -14 -16 -10 -25 4 -10 -3 -23 -18 -36 -15 -11 -25 -29 -25 -45 0 -14 -4 -26 -9 -26 -8 0 -18 -34 -25 -86 -1 -11 -6 -26 -11 -33 -12 -20 -15 -273 -3 -288 5 -7 7 -16 4 -21 -3 -6 1 -26 9 -46 8 -20 12 -36 9 -36 -4 0 0 -8 9 -18 10 -10 14 -22 11 -25 -7 -7 59 -99 101 -141 24 -24 49 -34 140 -54 62 -13 263 -6 289 11 12 8 48 20 79 27 53 12 63 20 117 80 32 36 62 79 66 95 4 17 14 36 21 44 8 7 13 25 12 40 -1 14 3 39 10 54 6 16 11 43 11 60 0 18 6 43 13 58 8 14 17 65 21 114 3 48 11 95 18 102 20 25 13 216 -10 260 -5 10 -7 23 -5 29 2 6 -4 14 -14 18 -32 11 -62 32 -118 82 -31 27 -71 54 -89 60 -41 15 -288 25 -337 15z m133 -128 c9 -8 49 -19 87 -23 66 -7 73 -10 110 -51 23 -26 47 -66 57 -95 15 -49 15 -58 -6 -180 -12 -71 -24 -132 -27 -136 -9 -16 -33 -7 -49 17 -17 26 -12 105 8 105 5 0 8 8 7 18 -1 9 1 25 4 35 15 39 15 46 2 57 -8 7 -13 16 -12 22 1 5 -13 15 -32 21 -33 11 -55 37 -32 37 17 0 13 57 -5 64 -27 11 -61 6 -74 -9 -7 -8 -23 -15 -37 -15 -17 0 -23 -5 -21 -17 2 -15 -8 -19 -59 -25 -34 -4 -71 -12 -83 -18 -31 -17 -89 -83 -90 -102 0 -9 -4 -20 -10 -23 -5 -3 -10 -34 -10 -67 0 -73 27 -122 76 -138 17 -6 35 -20 41 -32 10 -23 63 -33 180 -33 59 0 64 2 102 39 71 69 80 21 15 -80 -35 -54 -63 -74 -100 -71 -10 1 -23 -7 -28 -18 -5 -11 -29 -36 -53 -55 -24 -19 -58 -47 -76 -61 -42 -35 -107 -46 -140 -25 -13 9 -27 13 -30 10 -4 -4 -13 -1 -21 5 -19 16 -69 111 -62 118 3 3 -1 21 -9 40 -17 41 -20 123 -5 123 7 0 8 6 1 17 -18 33 5 174 44 273 20 50 31 70 37 70 4 0 8 9 8 20 0 11 7 23 16 27 8 3 13 12 10 20 -4 9 2 17 15 20 11 3 18 11 16 17 -6 15 41 68 73 84 85 41 127 45 162 15z"
       id="path8" />
    <path
       d="M2971 4221 c-7 -5 -11 -13 -7 -19 3 -5 -1 -15 -9 -22 -11 -9 -12 -18 -4 -38 6 -16 7 -47 3 -77 -10 -65 -10 -84 5 -119 6 -16 8 -32 4 -35 -13 -10 -14 -54 -1 -62 9 -6 9 -11 -1 -23 -8 -9 -10 -16 -6 -16 4 0 -3 -8 -16 -18 -33 -26 -75 -35 -100 -22 -11 6 -41 11 -67 11 -55 0 -131 -24 -113 -36 9 -5 6 -11 -8 -22 -12 -8 -21 -24 -21 -37 0 -12 -4 -26 -9 -32 -17 -19 -31 -102 -36 -213 l-4 -115 62 -61 c92 -90 126 -112 195 -125 70 -14 141 -9 222 16 30 9 74 22 97 28 23 6 53 24 67 39 22 24 24 31 14 58 -6 17 -21 35 -34 41 -20 9 -30 7 -61 -15 -21 -14 -53 -28 -70 -32 -18 -4 -33 -10 -33 -13 0 -15 -68 -27 -120 -21 -90 10 -159 51 -228 136 -16 19 -17 31 -9 95 9 74 33 148 49 148 4 0 8 7 8 15 0 8 10 17 23 19 25 6 161 17 194 17 24 -1 53 33 53 61 0 10 4 18 9 18 17 0 29 57 30 145 1 49 6 94 11 99 15 15 12 72 -5 86 -9 8 -13 20 -9 29 11 26 4 92 -11 107 -15 16 -43 18 -64 5z"
       id="path10" />
    <path
       d="M1650 2921 c-19 -4 -51 -17 -70 -28 -19 -12 -46 -24 -59 -28 -13 -4 -38 -21 -54 -39 -33 -33 -52 -46 -105 -71 -42 -20 -112 -92 -112 -115 0 -10 -7 -23 -15 -30 -8 -7 -15 -18 -15 -26 0 -7 -7 -20 -16 -28 -8 -9 -13 -20 -9 -25 7 -13 -21 -81 -34 -81 -9 0 2 -45 20 -82 6 -11 5 -18 -1 -18 -15 0 -12 -12 13 -44 57 -74 104 -118 151 -145 50 -28 79 -40 246 -102 47 -17 96 -37 110 -44 14 -7 76 -25 137 -40 200 -48 409 -177 428 -264 4 -17 13 -45 22 -61 8 -17 12 -37 9 -46 -3 -8 3 -23 14 -34 11 -11 20 -27 20 -35 0 -8 5 -15 10 -15 6 0 10 -12 10 -28 0 -15 7 -37 15 -48 8 -12 12 -24 9 -27 -11 -11 29 -109 52 -130 13 -11 24 -25 24 -30 0 -14 62 -98 95 -128 64 -59 158 -95 333 -128 49 -9 67 -9 78 0 10 9 43 10 113 6 120 -8 178 6 272 69 51 34 76 60 108 110 23 36 41 68 41 72 0 4 9 26 20 47 11 22 18 46 15 53 -3 8 1 22 9 33 12 18 11 65 -3 73 -3 2 -2 96 2 208 5 111 9 210 9 218 2 56 -7 190 -12 190 -11 0 -30 48 -30 74 0 13 -7 29 -15 36 -8 6 -17 22 -21 33 -4 12 -23 39 -44 59 -21 20 -40 44 -43 53 -4 8 -13 15 -20 15 -8 0 -26 9 -40 20 -37 29 -110 50 -202 56 -83 7 -100 4 -219 -40 -38 -13 -99 -30 -135 -36 -36 -7 -84 -17 -106 -23 -22 -6 -72 -11 -111 -11 -63 -1 -81 4 -143 34 -39 19 -71 40 -71 46 0 6 -13 17 -30 24 -21 9 -55 50 -117 142 -48 72 -98 137 -110 145 -13 9 -23 21 -23 29 0 7 -20 32 -43 56 -41 40 -75 62 -167 109 -41 20 -140 31 -190 20z m137 -113 c15 -7 41 -23 56 -35 16 -13 34 -23 40 -23 18 0 85 -63 80 -76 -2 -6 8 -19 22 -28 14 -9 25 -21 25 -27 0 -6 18 -32 40 -58 22 -26 40 -52 40 -57 0 -22 -71 -72 -112 -80 -49 -9 -61 -8 -140 7 -52 10 -63 18 -130 85 -40 40 -76 82 -80 94 -4 11 -12 20 -17 20 -16 0 -25 71 -12 91 6 11 11 30 11 44 0 20 8 29 33 40 40 18 107 19 144 3z m-331 -373 c40 -19 77 -35 81 -35 14 0 83 -74 83 -89 0 -8 10 -25 22 -38 12 -13 17 -23 10 -23 -7 0 -8 -9 -2 -29 21 -74 -58 -70 -217 12 -86 44 -119 75 -133 127 -10 39 -10 45 6 57 10 7 21 13 25 13 4 0 11 9 14 20 9 28 26 25 111 -15z m769 -110 c17 -16 45 -33 131 -76 60 -29 99 -42 152 -47 69 -8 100 -20 75 -29 -7 -3 -13 -12 -13 -20 0 -22 -30 -42 -62 -43 -15 0 -30 -5 -34 -11 -4 -8 -27 -10 -64 -6 -58 5 -109 31 -138 70 -7 9 -22 17 -33 17 -11 0 -23 8 -26 18 -4 9 -17 27 -28 40 -22 23 -26 66 -10 105 7 18 20 13 50 -18z m991 -25 c69 -27 194 -174 194 -229 0 -10 3 -21 7 -24 3 -4 8 -36 9 -71 3 -56 -1 -69 -27 -110 -16 -26 -29 -50 -29 -55 0 -5 -7 -14 -15 -21 -8 -7 -15 -21 -15 -31 0 -10 -13 -26 -30 -36 -16 -9 -30 -21 -30 -25 0 -4 -3 -7 -7 -6 -5 1 -28 -4 -52 -11 -39 -11 -49 -10 -82 6 -20 10 -42 26 -49 36 -17 28 -35 210 -21 215 6 2 11 13 11 23 0 11 4 18 9 15 4 -3 11 22 15 56 3 33 11 67 17 74 6 7 12 39 14 71 6 130 17 147 81 123z m-196 -24 c0 -14 -4 -27 -9 -30 -4 -3 -11 -22 -14 -42 -3 -20 -15 -60 -26 -88 -10 -28 -24 -73 -30 -100 -6 -27 -23 -73 -37 -102 -32 -67 -53 -70 -129 -16 -43 30 -55 45 -63 77 -19 80 -11 129 34 190 12 17 25 40 28 51 4 12 17 24 29 27 12 3 58 16 102 30 103 33 115 33 115 3z m-1020 -86 c0 -5 7 -10 17 -10 9 0 23 -7 32 -15 9 -8 31 -27 50 -42 43 -34 91 -109 91 -141 0 -23 -3 -24 -36 -19 -20 4 -47 15 -59 27 -22 20 -130 68 -175 76 -26 5 -91 21 -122 30 -22 6 -23 21 -4 40 8 7 16 18 18 24 2 6 39 17 83 25 103 17 105 17 105 5z m600 -403 c42 -21 46 -25 54 -73 7 -45 5 -58 -15 -99 -13 -26 -44 -64 -69 -85 -25 -21 -52 -50 -60 -64 -7 -15 -18 -25 -24 -23 -10 3 -74 172 -83 220 -4 18 0 34 11 46 11 12 15 27 11 44 -8 29 3 38 55 48 57 11 73 9 120 -14z m278 -249 c12 -6 22 -17 22 -24 0 -16 15 -50 39 -89 10 -16 16 -34 13 -39 -2 -4 -6 -27 -7 -50 -4 -60 -15 -95 -47 -147 -15 -25 -28 -53 -28 -62 0 -24 -40 -24 -105 1 -90 34 -116 51 -162 101 -45 50 -51 66 -28 75 8 3 12 12 9 19 -3 8 7 25 24 39 15 13 27 28 25 34 -2 6 8 16 22 22 14 6 25 18 25 27 0 8 3 15 8 15 4 1 31 23 61 50 56 52 72 55 129 28z m383 -89 c67 -22 89 -36 121 -82 17 -24 18 -32 8 -56 -6 -16 -22 -39 -36 -52 -13 -12 -24 -30 -24 -40 0 -10 -12 -24 -27 -32 -26 -12 -31 -11 -66 16 -37 29 -39 29 -52 10 -7 -11 -32 -25 -55 -33 -35 -11 -43 -11 -54 1 -11 12 -11 24 0 74 7 33 13 70 13 83 1 13 8 30 16 38 8 9 15 26 15 40 0 13 5 24 10 24 6 0 10 7 10 15 0 21 44 19 121 -6z"
       id="path12" />
  </g>
  <path
     style="fill:#ffffff;stroke-width:0"
     d="m 420.09922,835.24284 c -22.1157,-1.23428 -35.21741,-2.83325 -46.50398,-5.6755 -14.20406,-3.57696 -26.96288,-8.23958 -33.03373,-12.07192 -2.27041,-1.43327 -9.0904,-5.09615 -15.15552,-8.13978 -6.06512,-3.04362 -13.20463,-7.35115 -15.86558,-9.57229 -2.66094,-2.22113 -12.49576,-9.05233 -21.85514,-15.18043 -9.35938,-6.12811 -18.17734,-12.39444 -19.59547,-13.92518 -1.41813,-1.53074 -3.22474,-2.78317 -4.01469,-2.78317 -0.78997,0 -1.8525,-1.07686 -2.3612,-2.39302 -0.50871,-1.31616 -4.10383,-5.98256 -7.98916,-10.36977 -3.88533,-4.38721 -9.31562,-11.80558 -12.0673,-16.48527 -2.75169,-4.67969 -8.56633,-13.29457 -12.92145,-19.14418 -4.3551,-5.84962 -8.4278,-11.59287 -9.05044,-12.7628 -4.61761,-8.67636 -34.04221,-39.61565 -48.04611,-50.51937 -7.78388,-6.06069 -23.25183,-21.90392 -29.88818,-30.61332 -2.8008,-3.67571 -7.48538,-9.47589 -10.41018,-12.88931 -6.14892,-7.17614 -20.927,-34.97318 -23.2433,-43.71981 -0.85055,-3.21176 -2.07097,-7.1869 -2.71204,-8.83362 -1.63258,-4.19359 -1.41778,-23.67446 0.40217,-36.47462 1.56052,-10.97548 5.71391,-29.23557 6.86805,-30.19491 0.35187,-0.29248 1.2589,-2.91976 2.01562,-5.83842 3.30975,-12.76552 5.98649,-14.42933 18.86566,-11.72656 4.83745,1.01516 9.26369,1.55631 9.8361,1.20254 1.82623,-1.12867 5.37714,2.89786 7.39516,8.3857 l 1.9555,5.31783 5.54205,-0.14739 c 8.68072,-0.23087 10.70746,-3.55692 6.95825,-11.41908 -0.96043,-2.01404 -1.48693,-4.33763 -1.17,-5.16353 0.31692,-0.8259 5.00641,-3.3594 10.42107,-5.63 l 9.84485,-4.12835 4.08795,4.60653 c 2.24837,2.53361 4.09121,5.14325 4.09521,5.79922 0.021,3.45305 13.57782,8.93088 18.83627,7.61109 2.28136,-0.57258 3.53555,-3.7595 1.47952,-3.7595 -0.52155,0 -1.24181,-1.16955 -1.60057,-2.59899 -0.35878,-1.42945 -2.08577,-4.16844 -3.83779,-6.08664 -1.75201,-1.91821 -3.18547,-3.90376 -3.18547,-4.41232 0,-0.50858 -0.95721,-2.14158 -2.12713,-3.62889 -3.21902,-4.09231 -2.63381,-5.87508 2.88884,-8.80057 2.75878,-1.46139 8.21534,-5.12756 12.12568,-8.14702 11.0356,-8.5214 10.91506,-8.48617 17.55147,-5.12845 5.4229,2.74373 5.84974,2.80283 8.36054,1.15769 2.75063,-1.80228 3.21354,-3.08265 4.19341,-11.59872 0.35656,-3.09885 1.63777,-6.48292 3.25936,-8.60892 1.46952,-1.92664 2.67186,-4.31039 2.67186,-5.29722 0,-0.98682 0.65699,-2.04634 1.45998,-2.35447 0.80298,-0.30814 2.79072,-3.0451 4.4172,-6.08213 1.62647,-3.03704 3.06572,-5.66381 3.19832,-5.83729 0.13261,-0.17346 2.09336,0.61308 4.35722,1.74789 7.16415,3.59117 9.38842,3.66823 13.05343,0.45223 1.81153,-1.58959 3.29369,-3.46371 3.29369,-4.16471 0,-0.701 -2.15372,-3.42827 -4.78604,-6.0606 -7.83889,-7.83887 -5.97302,-12.19721 5.98981,-13.99115 5.79563,-0.86911 9.60045,-3.16279 13.08803,-7.88994 2.32355,-3.14941 2.42567,-3.75342 1.1538,-6.82451 -2.83552,-6.84668 -10.92467,-8.065 -17.16566,-2.58535 -5.14727,4.51937 -13.86486,7.1536 -23.80552,7.19342 -4.38721,0.0175 -8.45535,0.38357 -9.04031,0.81333 -1.29712,0.95299 -4.78605,8.33299 -4.78601,10.12368 2e-5,0.71136 1.72958,2.67339 3.84348,4.36007 3.51496,2.80459 3.79537,3.42526 3.2808,7.26162 -0.30946,2.30721 -1.28383,4.99533 -2.16527,5.97362 -0.88144,0.97827 -1.92668,3.07726 -2.32276,4.66442 -0.64315,2.57724 -10.81123,12.53597 -12.7995,12.53597 -0.43099,0 -3.08613,-2.15372 -5.9003,-4.78605 -3.95287,-3.69744 -5.92535,-4.78605 -8.67201,-4.78605 -7.09059,0 -8.01272,4.64438 -2.3854,12.01427 2.04736,2.68134 3.72248,5.27791 3.72248,5.77015 0,1.42698 -15.36702,12.86412 -21.90575,16.30369 -4.7938,2.52168 -7.29246,3.1367 -12.74363,3.1367 -7.32658,0 -8.99559,1.20102 -10.569,7.60549 -0.52655,2.14329 -2.13793,3.46455 -6.71931,5.50954 -11.03875,4.92736 -11.19734,4.90476 -13.82847,-1.97084 -1.26613,-3.3086 -2.30206,-6.89148 -2.30206,-7.96194 0,-1.07046 -0.79307,-3.32815 -1.76238,-5.01707 -3.11368,-5.42527 -1.46432,-7.96837 18.09516,-27.9004 35.76692,-36.44817 50.67187,-53.18433 50.67187,-56.89738 0,-0.67657 1.25548,-2.87856 2.78994,-4.89333 3.76461,-4.94297 13.14162,-24.86542 17.24261,-36.63376 1.83461,-5.26465 4.02624,-14.11884 4.87028,-19.67597 0.84404,-5.55713 2.25863,-13.45411 3.14354,-17.54884 0.88492,-4.09472 2.15646,-11.7524 2.82564,-17.01705 0.6692,-5.26465 1.61262,-12.68302 2.09649,-16.48527 0.48388,-3.80225 1.40759,-9.0669 2.05267,-11.69923 1.75566,-7.16409 3.91621,-21.08771 5.85875,-37.75658 2.00392,-17.19561 2.06868,-17.48419 8.35312,-37.22481 6.15899,-19.34654 7.17204,-21.59048 14.8849,-32.97054 8.80032,-12.98458 17.39288,-21.16751 25.63462,-24.412538 10.4795,-4.126105 14.6276,-4.873717 32.84371,-5.919416 17.13723,-0.983765 25.43488,-2.079362 30.57575,-4.037128 1.47259,-0.5608 8.89096,-1.901348 16.48527,-2.978997 18.48339,-2.622835 62.40483,-2.772635 72.83573,-0.248417 27.62698,6.685565 34.53583,9.314306 42.13109,16.030406 1.23605,1.09297 2.67186,1.84865 3.1907,1.67928 0.51883,-0.16937 2.13984,0.54424 3.60225,1.5858 7.45218,5.30763 10.31485,7.1731 12.49684,8.14364 3.05244,1.35769 15.50536,14.07543 19.60489,20.02178 1.72397,2.50062 3.22298,5.81744 3.33111,7.37071 0.16866,2.42258 -0.33266,2.93881 -3.52587,3.63078 -2.04736,0.44367 -6.02117,2.03255 -8.83069,3.53085 -2.80953,1.4983 -6.49046,2.72418 -8.17987,2.72418 -1.68941,0 -3.3857,0.50812 -3.76952,1.12917 -0.38383,0.62104 -1.96456,1.61076 -3.51275,2.19938 -2.74614,1.04409 -4.23012,0.84303 -34.06987,-4.61579 -4.80732,-0.87944 -6.51959,-1.87488 -10.76907,-6.26063 -5.42449,-5.59845 -8.40549,-6.44549 -12.52615,-3.55927 -2.56625,1.79747 -3.07078,4.65689 -1.159,6.56867 0.66264,0.66263 0.95733,1.84967 0.65487,2.63786 -0.63522,1.65538 -6.4241,4.71654 -10.50742,5.55634 -1.8537,0.38124 -3.38898,1.82056 -4.54862,4.26431 -2.46179,5.18785 -3.3105,5.35132 -5.80781,1.11869 -1.98904,-3.37117 -2.64293,-3.7209 -6.95699,-3.7209 -3.71483,0 -5.12558,0.51964 -6.41727,2.36378 -2.10435,3.00439 -2.13723,8.6753 -0.0603,10.39901 3.42108,2.83924 0.78561,11.69922 -3.48003,11.69922 -3.91209,0 -6.26493,12.96978 -2.95356,16.28115 0.84875,0.84874 3.35482,1.88303 5.56905,2.29842 3.71622,0.69717 4.27243,0.46161 7.23126,-3.06259 1.76295,-2.09982 4.04155,-3.81783 5.06355,-3.8178 1.02199,3e-5 3.65431,1.61166 5.84961,3.58141 9.74259,8.74166 14.56543,5.36681 16.75557,-11.72497 0.63544,-4.95905 0.4884,-5.55275 -1.53441,-6.19476 -1.23047,-0.39054 -3.66227,-0.39707 -5.40401,-0.0145 -3.92807,0.86275 -3.93724,0.47381 -0.0886,-3.75841 1.69302,-1.86175 3.84674,-4.29159 4.78605,-5.39964 1.07499,-1.2681 3.08723,-2.01465 5.43032,-2.01465 3.25237,0 3.72248,0.33271 3.72248,2.6344 0,3.61584 4.39244,6.2743 10.48713,6.34719 4.831,0.0578 4.93554,-0.0137 6.47258,-4.42539 1.22961,-3.52928 2.2156,-4.62762 4.63038,-5.15799 4.10529,-0.90167 10.90818,0.20614 19.7655,3.21871 10.98587,3.73654 11.82271,4.34441 11.82271,8.58795 0,2.02678 0.46011,3.68506 1.02247,3.68506 0.56235,0 2.91785,1.91442 5.23442,4.25426 3.56074,3.5965 4.891,4.25426 8.6039,4.25426 4.03189,0 4.52222,-0.3118 5.98118,-3.80359 1.2033,-2.87991 2.80436,-4.34082 6.59301,-6.01584 6.02608,-2.66423 10.85339,-6.09824 10.85339,-7.72078 0,-0.65268 -1.67512,-2.81029 -3.72248,-4.79467 -4.01085,-3.88746 -4.78173,-7.10525 -1.96147,-8.18748 2.2589,-0.86682 5.68395,3.22994 5.68395,6.79867 0,1.4464 1.43083,6.20313 3.17962,10.57052 3.68011,9.19067 7.46338,25.523 8.22053,35.48806 0.2889,3.80225 0.54986,39.6976 0.57992,79.76744 0.0674,89.8394 -1.38646,119.76826 -6.64797,136.85313 -2.38833,7.75529 -7.82368,38.3408 -7.92229,44.57987 -0.0377,2.39211 -0.73425,5.15453 -1.54767,6.13871 -1.76904,2.14042 -4.99511,20.90772 -6.03931,35.13294 -0.5363,7.30611 -1.14498,10.21628 -2.13678,10.21628 -2.01783,0 -3.00798,2.12055 -1.63245,3.49608 1.51397,1.51398 1.42116,6.45476 -0.33391,17.77524 -0.77086,4.97217 -1.00647,9.47258 -0.52358,10.00092 0.48289,0.52833 0.45464,1.75161 -0.0628,2.71839 -0.51741,0.96679 -1.47694,8.6708 -2.13228,17.12002 -0.65535,8.44922 -1.72443,17.27664 -2.37574,19.61648 -1.77012,6.35922 -1.7497,73.15841 0.0256,84.02171 2.972,18.18507 2.50423,64.39296 -0.67175,66.358 -0.95827,0.59291 -2.88608,8.4076 -4.15149,16.82876 -0.2826,1.88063 -1.18131,3.9733 -1.99715,4.65038 -0.81583,0.67709 -1.48334,2.53409 -1.48334,4.1267 0,1.59259 -0.9572,3.76188 -2.12713,4.82065 -1.16992,1.05877 -2.12713,2.56876 -2.12713,3.35554 0,0.78678 -0.43054,1.43051 -0.95675,1.43051 -0.52621,0 -1.84237,2.48752 -2.92481,5.52783 -1.98715,5.58149 -14.29674,20.31643 -18.94952,22.68315 -1.17862,0.59952 -3.73072,3.96536 -5.67134,7.47963 -3.68427,6.67188 -9.64737,11.11555 -14.90781,11.10925 -1.35462,-0.002 -3.42095,0.50974 -4.59183,1.13638 -2.81961,1.50901 -40.22659,6.3598 -47.10878,6.10888 -2.96782,-0.1082 -8.02842,-0.34365 -11.24571,-0.52321 z m -7.44496,-54.43603 c 14.60115,-0.6154 18.3831,-1.12032 22.51556,-3.00596 8.99679,-4.10524 17.88679,-10.94599 22.67135,-17.44535 5.3991,-7.33416 12.24565,-21.20567 12.24565,-24.81038 0,-1.36865 0.73164,-4.23951 1.62587,-6.3797 1.3256,-3.17261 1.40118,-4.71889 0.40924,-8.37253 -0.87824,-3.23488 -0.96413,-11.72862 -0.3088,-30.53863 1.30571,-37.47851 0.82484,-48.86795 -2.35123,-55.68915 -1.39975,-3.00624 -2.54967,-6.36049 -2.55538,-7.45389 -0.0121,-2.31061 -6.61524,-13.54495 -9.22379,-15.69298 -0.9773,-0.80476 -3.07325,-3.2474 -4.65767,-5.42808 -3.36177,-4.6269 -14.22339,-10.76759 -23.16792,-13.09813 -3.31948,-0.86492 -10.58218,-1.86193 -16.13931,-2.2156 -9.78683,-0.62286 -10.52619,-0.50496 -23.56221,3.75703 -19.13965,6.25752 -40.50296,10.73553 -51.21611,10.73553 -7.82851,0 -9.60297,-0.39841 -16.50386,-3.70558 -13.65336,-6.54319 -17.81971,-10.56005 -32.96023,-31.77757 -6.20387,-8.69395 -11.91698,-16.0517 -12.69577,-16.35056 -0.7788,-0.29885 -2.33619,-2.3471 -3.46087,-4.55166 -3.00967,-5.89943 -11.92955,-13.14468 -23.22633,-18.86581 l -9.96776,-5.04804 h -11.31738 c -11.16638,0 -11.44253,0.0609 -20.69623,4.56521 -5.15836,2.51086 -11.38022,6.38587 -13.82636,8.61111 -2.44613,2.22526 -7.79774,5.99379 -11.89247,8.37452 -8.42546,4.89868 -13.47685,9.70145 -15.92603,15.14218 -0.92164,2.04737 -3.06781,6.1155 -4.76928,9.04031 -1.70146,2.92481 -3.12716,6.51434 -3.16822,7.97674 -0.0411,1.46241 -1.03008,4.22596 -2.19781,6.14122 -2.54697,4.17741 -2.64746,6.49862 -0.50349,11.62988 1.24132,2.9709 1.31983,4.06172 0.33607,4.66971 -3.56072,2.20066 15.01187,22.15297 25.5931,27.49436 11.09944,5.60297 44.11723,17.89609 61.7907,23.00578 24.72796,7.14926 45.59245,18.17958 53.76743,28.42496 3.26687,4.09425 7.87435,15.7211 7.90173,19.93987 0.01,1.495 1.21417,4.33995 2.67657,6.32213 1.46241,1.98218 2.65892,4.22888 2.65892,4.99268 0,0.7638 0.4786,1.38872 1.06356,1.38872 0.58497,0 1.08053,1.31616 1.10126,2.9248 0.0207,1.60865 0.72167,4.12132 1.55766,5.58372 0.83598,1.46241 1.53731,4.09473 1.55849,5.84962 0.0449,3.71328 5.26209,15.27542 7.8648,17.42946 0.98087,0.81179 2.49521,2.96551 3.3652,4.78605 2.93308,6.13777 11.1703,15.38415 17.42747,19.56252 9.7479,6.5094 38.50164,14.73098 46.89257,13.40803 2.04736,-0.32279 11.61945,-0.91974 21.27131,-1.32654 z M 411.11707,493.637 c 17.25777,-4.94414 22.35892,-8.49527 21.34818,-14.86136 -0.66752,-4.20435 -2.31866,-6.42433 -5.74784,-7.7281 -1.94863,-0.74087 -3.86016,-0.24731 -8.55224,2.2082 -15.1679,7.93789 -18.04554,8.81835 -27.2426,8.33537 -7.16055,-0.37602 -9.67268,-1.03304 -15.18541,-3.97153 -7.17893,-3.82666 -18.3932,-14.69558 -18.38029,-17.81426 0.0159,-3.85556 2.22529,-15.87142 3.77894,-20.55261 0.87365,-2.63232 2.89166,-6.31144 4.48446,-8.17581 2.86601,-3.35464 3.04475,-3.40247 17.25415,-4.6162 15.44269,-1.31909 17.44979,-2.12239 18.62048,-7.45253 0.36324,-1.65381 1.33491,-3.5667 2.15928,-4.25085 1.82613,-1.51556 2.40792,-4.56547 3.74693,-19.64259 0.57146,-6.43457 1.31343,-13.92159 1.64882,-16.63782 0.38913,-3.15149 0.10718,-5.84556 -0.77917,-7.44496 -0.7758,-1.3999 -1.25415,-4.854 -1.08357,-7.8242 0.38337,-6.67493 -1.1663,-10.84325 -4.61545,-12.4148 -3.45631,-1.57479 -7.9981,0.29284 -7.9981,3.28892 0,1.14795 -0.35895,2.30904 -0.79767,2.58023 -0.43872,0.27118 -0.66648,7.59815 -0.50613,16.28214 0.16035,8.68401 0.26417,18.50304 0.23072,21.82009 -0.0335,3.31705 0.39479,6.31259 0.95167,6.65676 1.68034,1.0385 -1.91758,6.88801 -5.31838,8.64663 -3.44437,1.78115 -4.6703,1.8428 -18.01782,0.90604 -9.36827,-0.65749 -16.95789,1.07044 -16.95789,3.8608 0,0.66879 -0.95721,2.43287 -2.12713,3.92019 -1.16992,1.48731 -2.12713,3.52333 -2.12713,4.5245 0,1.00117 -0.7064,3.2363 -1.56977,4.96698 -1.94725,3.90335 -3.37586,14.04847 -4.32821,30.7364 l -0.73143,12.81673 9.43021,8.82793 c 5.18661,4.85535 11.57064,10.08389 14.18674,11.61897 10.60499,6.22283 25.70183,6.69758 44.22565,1.39074 z m 98.547,-124.07268 c 4.84825,-1.54219 10.77171,-3.74844 13.16324,-4.90276 5.6912,-2.74699 14.54451,-13.35222 18.97107,-22.72513 3.15066,-6.6713 4.11689,-10.171 7.04733,-25.52558 0.44657,-2.33984 1.53531,-7.8438 2.41944,-12.23101 0.88413,-4.3872 2.08881,-11.08767 2.67705,-14.88992 0.58824,-3.80225 1.61836,-9.3062 2.28914,-12.23101 1.49879,-6.53511 0.58194,-21.8907 -1.85498,-31.06782 -1.45711,-5.48729 -2.26818,-6.81872 -4.79002,-7.86331 -1.66974,-0.69163 -7.1956,-4.61244 -12.27965,-8.71292 -5.08407,-4.10048 -10.92153,-8.17762 -12.97213,-9.06032 -2.75747,-1.18698 -9.29559,-1.73249 -25.10744,-2.09483 l -21.37908,-0.48991 -6.55159,2.94018 c -5.01926,2.25251 -8.22788,4.7885 -13.7186,10.8428 -6.90581,7.61462 -13.01661,17.0795 -13.01661,20.1611 0,0.81487 -0.71791,1.75705 -1.59535,2.09375 -0.87744,0.33672 -1.59535,1.73285 -1.59535,3.10253 0,1.36968 -1.19651,3.78138 -2.65891,5.35934 -1.46241,1.57796 -2.66186,3.39739 -2.66547,4.04317 -0.003,0.64578 -0.7531,2.60591 -1.66555,4.35585 -4.6022,8.82628 -7.17394,32.10501 -5.58167,50.524 0.97269,11.25204 3.36002,21.77921 5.1964,22.91415 0.54659,0.33782 0.99381,1.36275 0.99381,2.27763 0,2.33688 8.5557,14.06234 13.55924,18.58273 3.12724,2.82528 6.03494,4.20935 11.53064,5.48864 4.04188,0.94086 8.30609,1.94758 9.47601,2.23715 1.16992,0.28958 8.68968,0.33503 16.71058,0.10104 12.03117,-0.35104 16.12616,-0.91624 23.39845,-3.22949 z M 352.32508,348.75468 c 7.57017,-1.92327 15.82955,-5.42318 27.38482,-11.60429 1.66072,-0.88836 3.22535,-2.78509 3.53063,-4.28001 0.30152,-1.47657 2.01762,-4.53367 3.81353,-6.79354 1.79593,-2.25988 3.26532,-4.72425 3.26532,-5.47637 0,-0.75212 1.16768,-2.75521 2.59486,-4.45131 1.79264,-2.13043 2.59203,-4.37509 2.58574,-7.26066 -0.005,-2.29729 0.50243,-6.75487 1.12762,-9.90576 2.19151,-11.04468 0.89033,-43.45675 -2.55135,-63.55372 -0.86423,-5.04644 -2.85878,-11.38488 -4.78052,-15.19181 -5.42443,-10.74573 -11.38737,-13.13911 -32.47868,-13.03615 -19.26698,0.094 -26.85999,1.48046 -38.28837,6.99108 -14.97747,7.22196 -25.44707,14.79094 -31.0529,22.44966 -8.62665,11.78576 -15.11627,22.14713 -15.76907,25.17697 -0.41959,1.94751 -1.37824,4.74644 -2.13032,6.21985 -1.72904,3.38738 -2.21133,28.61386 -0.66046,34.54588 4.85745,18.57967 21.68944,41.23735 34.20267,46.04052 8.55262,3.2829 36.50515,3.35655 49.20648,0.12966 z"
     id="path22"
     transform="scale(0.75)" />
  <path
     style="fill:#ffffff;stroke-width:0"
     d="m 460.29043,348.95977 c -4.32851,-1.47342 -5.52257,-2.57062 -8.77441,-8.06271 -2.07025,-3.49645 -3.76926,-7.32529 -3.77559,-8.50852 -0.006,-1.18323 -0.72424,-4.50077 -1.59535,-7.3723 -1.68075,-5.54044 -2.09347,-12.52728 -0.81548,-13.80527 0.4226,-0.4226 0.63555,-4.21155 0.47322,-8.4199 -0.21136,-5.47987 0.46171,-10.60632 2.37147,-18.06226 2.66251,-10.39474 10.53258,-28.40943 12.41123,-28.40943 0.54602,0 0.99277,-0.84208 0.99277,-1.87129 0,-1.02922 0.95721,-2.46909 2.12714,-3.19971 1.16992,-0.73063 2.12713,-2.00555 2.12713,-2.83315 0,-2.92801 5.84107,-8.38713 12.18527,-11.38848 7.23244,-3.42155 13.73185,-3.9264 17.40718,-1.3521 1.32717,0.92959 6.23677,2.3577 10.91022,3.17357 10.07496,1.75886 11.3164,2.3477 15.86035,7.52298 4.8984,5.57897 8.49175,13.82686 8.50411,19.51966 0.0111,5.11703 -3.89889,28.69772 -5.43007,32.74806 -0.75947,2.00898 -1.28043,2.24338 -2.97284,1.33763 -4.16678,-2.22999 -5.21794,-12.09725 -1.66701,-15.64818 1.97282,-1.97282 2.90163,-12.92029 1.38658,-16.34302 -0.78178,-1.76616 -3.18717,-3.85528 -6.02812,-5.23552 -3.54664,-1.72309 -4.42356,-2.60039 -3.51124,-3.51272 2.02861,-2.02861 1.48473,-8.01691 -0.84118,-9.26171 -3.19228,-1.70845 -7.73455,-1.29367 -11.23736,1.02615 -1.75488,1.16221 -4.02826,2.11627 -5.05194,2.12012 -1.02368,0.004 -1.86124,0.73677 -1.86124,1.62869 0,1.98785 -2.99757,3.16311 -10.55373,4.1378 -6.9792,0.90027 -8.98084,1.86257 -14.27579,6.86317 -7.79222,7.35906 -10.91778,18.78944 -8.036,29.3882 1.23035,4.52503 5.71569,10.10388 8.12342,10.10388 0.797,0 3.1638,1.66531 5.25956,3.70068 4.54342,4.41252 7.7194,5.14694 22.73448,5.25719 l 11.22868,0.0824 5.14044,-4.52015 c 2.82724,-2.48609 5.55166,-4.52016 6.05426,-4.52016 1.70697,0 0.92268,3.9208 -1.81377,9.06735 -5.08226,9.55843 -10.19772,14.31066 -15.4189,14.32409 -1.76815,0.005 -3.52527,1.08972 -5.00478,3.09085 -3.17676,4.2968 -17.48865,15.81827 -21.98093,17.69526 -4.52543,1.89085 -8.06983,1.77928 -14.65178,-0.46119 z"
     id="path24"
     transform="scale(0.75)" />
  <path
     style="fill:#ffffff;stroke-width:0"
     d="m 298.17823,321.28347 c -5.91545,-3.60706 -11.47448,-12.60156 -14.74809,-23.86239 -1.5675,-5.39199 -1.62866,-7.31723 -0.48897,-15.3897 2.22459,-15.75675 3.03441,-16.2393 5.0642,-3.0176 0.68403,4.45563 2.14285,8.82361 3.76617,11.27662 3.03344,4.58383 6.19294,5.38092 21.32889,5.38092 10.96389,0 13.90107,-0.87946 22.8858,-6.85249 6.7082,-4.45961 7.37204,-5.23649 8.01069,-9.3748 1.51631,-9.82537 1.79854,-17.02613 0.77379,-19.74245 -0.59143,-1.56773 -1.36047,-4.15787 -1.70897,-5.75588 -0.90387,-4.14453 -5.80804,-6.44156 -11.82603,-5.53911 -2.63717,0.39547 -7.88659,0.11313 -11.86949,-0.63839 l -7.14118,-1.34744 -8.74345,4.66464 c -4.80889,2.56555 -9.06771,4.34036 -9.46404,3.94403 -0.79893,-0.79893 6.6921,-10.40927 8.11378,-10.40927 0.49238,0 3.79102,-2.58386 7.33031,-5.74191 8.5499,-7.62893 17.5579,-11.27515 27.85531,-11.27515 7.46364,0 7.66927,0.0744 11.5897,4.19567 4.3674,4.59109 8.08942,13.28242 9.58989,22.39348 1.27301,7.72984 -0.49993,26.19972 -3.14009,32.71236 -1.12468,2.77432 -3.06352,7.69032 -4.30853,10.92443 -4.08102,10.60109 -5.70723,12.49242 -11.453,13.32024 -2.81201,0.40514 -9.15353,2.62241 -14.09227,4.92727 -8.44083,3.93926 -18.66526,7.25246 -22.35324,7.24351 -0.90078,-0.002 -3.13781,-0.91865 -4.97118,-2.03659 z"
     id="path26"
     transform="scale(0.75)" />
  <path
     style="fill:#ffffff;stroke-width:0"
     d="m 419.56744,689.29212 c -5.93075,-2.68796 -7.61551,-4.99689 -8.94714,-12.26187 -1.79839,-9.81152 -1.46472,-19.22352 0.84294,-23.77727 1.09983,-2.1703 2.32929,-6.09972 2.73213,-8.73205 0.40285,-2.63233 1.41237,-6.93977 2.24338,-9.57209 0.83101,-2.63233 1.96973,-9.25382 2.53048,-14.71442 0.56076,-5.4606 1.61586,-10.64686 2.34466,-11.52501 4.09168,-4.93017 20.72706,7.37229 29.19081,21.58763 3.40434,5.71779 5.75577,14.92375 5.75577,22.53417 0,6.06808 -0.56367,7.5614 -7.10014,18.81065 -1.35959,2.33985 -3.16447,5.73354 -4.01085,7.54155 -1.86321,3.98011 -7.98877,8.83838 -12.6183,10.00773 -7.7199,1.94994 -8.8645,1.95886 -12.96374,0.10098 z"
     id="path28"
     transform="scale(0.75)" />
  <path
     style="fill:#ffffff;stroke-width:0"
     d="m 410.04295,756.27236 c -1.11814,-1.80918 2.60754,-21.27504 4.89721,-25.58684 1.0826,-2.0387 1.96837,-4.55138 1.96837,-5.58372 0,-1.03235 0.4786,-1.87699 1.06356,-1.87699 0.58496,0 1.06357,-0.68566 1.06357,-1.52368 0,-2.47651 3.38921,-2.83913 10.14501,-1.08545 10.74613,2.78949 17.05139,6.21946 20.21156,10.9948 3.45276,5.21747 3.07139,7.67319 -2.16494,13.94067 -2.05129,2.45523 -3.72962,5.10195 -3.72962,5.88159 0,0.77964 -1.26569,2.41312 -2.81265,3.62996 l -2.81266,2.21244 -3.30285,-2.11325 c -7.41125,-4.74193 -7.59647,-4.76821 -11.67586,-1.65671 -4.14537,3.16183 -11.61298,4.76986 -12.8507,2.76718 z"
     id="path30"
     transform="scale(0.75)" />
  <path
     style="fill:#ffffff;stroke-width:0"
     d="m 366.92093,762.77268 c -10.59236,-4.41805 -12.87919,-5.9021 -18.89279,-12.26059 -5.39147,-5.70069 -6.77573,-8.62723 -4.44774,-9.40323 0.61681,-0.20561 1.2347,-1.14525 1.37308,-2.0881 0.24758,-1.68687 4.14652,-6.78027 10.12255,-13.22365 1.67177,-1.80252 3.22602,-3.71693 3.45387,-4.25426 0.22786,-0.53733 3.68315,-3.72894 7.67842,-7.09246 5.27554,-4.44136 8.12877,-6.11551 10.42258,-6.11551 4.03541,0 9.43422,2.76968 9.43422,4.83991 0,0.87703 1.59803,4.81322 3.55119,8.74711 l 3.55119,7.15252 -1.2676,8.58257 c -0.90572,6.13236 -2.60271,11.36153 -5.94422,18.31675 -4.58398,9.54137 -4.75034,9.73367 -8.39909,9.70829 -2.04737,-0.0142 -6.83341,-1.32345 -10.63566,-2.90935 z"
     id="path32"
     transform="scale(0.75)" />
  <path
     style="fill:#ffffff;stroke-width:0"
     d="m 371.28133,661.43993 c -3.5847,-2.39378 -7.00541,-5.26372 -7.60157,-6.37765 -2.23903,-4.18366 -3.28408,-13.5023 -2.03461,-18.14247 1.20112,-4.4606 8.85534,-18.2511 11.03648,-19.88427 2.65367,-1.98698 27.65048,-8.66063 28.65958,-7.65154 0.68184,0.68184 0.43539,2.98753 -0.71155,6.65671 -0.96509,3.08746 -3.14753,10.1603 -4.84986,15.71743 -6.90322,22.53505 -7.82922,25.17311 -10.35987,29.51395 -3.38277,5.80251 -5.66012,5.82955 -14.1386,0.16784 z"
     id="path34"
     transform="scale(0.75)" />
  <path
     style="fill:#ffffff;stroke-width:0"
     d="m 328.85481,715.53451 c -3.83476,-9.29007 -7.66721,-21.24078 -7.66721,-23.9086 0,-1.38053 0.7602,-3.67027 1.68935,-5.08832 1.09349,-1.66889 1.45355,-3.65183 1.02083,-5.62201 -0.56264,-2.56169 -0.23432,-3.24156 2.07309,-4.29289 1.50789,-0.68704 5.2363,-1.53426 8.28537,-1.88273 6.62911,-0.7576 14.49758,2.13471 17.25463,6.3425 2.37547,3.62542 2.45748,13.02238 0.15199,17.41535 -1.54667,2.94706 -18.05317,21.51331 -19.87452,22.35453 -0.3411,0.15754 -1.66119,-2.23548 -2.93353,-5.31783 z"
     id="path36"
     transform="scale(0.75)" />
  <path
     style="fill:#ffffff;stroke-width:0"
     d="m 314.53815,633.43139 c -2.19479,-0.78324 -5.69657,-2.7963 -7.78174,-4.47347 -2.08516,-1.67717 -5.22105,-3.83918 -6.96864,-4.80448 -4.08308,-2.25531 -10.51144,-11.27775 -10.49263,-14.72678 0.0213,-3.90828 1.14401,-7.44837 2.36214,-7.44837 0.58576,0 2.59008,1.33903 4.45405,2.97563 4.16774,3.65932 20.5292,12.1275 27.73518,14.35486 2.92481,0.90405 7.71085,1.95562 10.63566,2.33682 10.02241,1.30626 10.07423,1.33663 8.31147,4.87016 -1.97106,3.95109 -5.33837,6.30595 -9.01713,6.30595 -1.59021,0 -3.18708,0.4786 -3.5486,1.06356 -0.93881,1.51902 -10.9749,1.22869 -15.68976,-0.45388 z"
     id="path38"
     transform="scale(0.75)" />
  <path
     style="fill:#ffffff;stroke-width:0"
     d="m 285.86802,651.97822 c -1.58445,-0.47762 -4.32647,-1.8978 -6.09339,-3.15595 -5.76359,-4.10405 -16.70184,-8.45135 -28.43859,-11.30266 -6.33118,-1.53809 -11.92903,-3.18746 -12.43968,-3.66527 -1.5172,-1.41965 3.34221,-7.17121 7.06185,-8.35834 1.89128,-0.60361 6.67482,-1.64537 10.6301,-2.31504 6.5125,-1.10263 7.61696,-1.01479 11.69922,0.93042 9.87542,4.70566 23.08246,19.8642 23.11024,26.52505 0.0105,2.52943 -0.87616,2.74459 -5.52975,1.34179 z"
     id="path40"
     transform="scale(0.75)" />
  <path
     style="fill:#ffffff;stroke-width:0"
     d="m 248.33333,590.60675 c -8.57747,-1.97238 -10.58244,-3.00999 -16.62761,-8.6051 -3.61341,-3.3444 -9.23806,-9.42403 -12.49924,-13.5103 -5.09535,-6.38452 -5.91279,-8.03016 -5.81131,-11.69923 0.3674,-13.28405 3.80188,-17.03243 15.60608,-17.03243 7.1776,0 8.09976,0.28546 15.4609,4.78605 8.57636,5.24356 17.16576,12.35708 17.16576,14.21622 0,0.65039 1.20427,2.3842 2.67617,3.85292 3.74275,3.73468 13.27732,17.24437 13.27732,18.81287 0,1.6888 -5.9678,6.21553 -10.92464,8.28663 -3.64625,1.5235 -13.49328,2.00306 -18.32343,0.89237 z"
     id="path42"
     transform="scale(0.75)" />
  <path
     style="fill:#ffffff;stroke-width:0"
     d="m 210.04496,624.17987 c -6.27289,-1.44973 -25.38777,-11.04299 -29.90332,-15.0077 -7.13784,-6.26711 -8.93111,-14.54041 -3.73419,-17.22785 1.68053,-0.86903 3.32634,-2.61568 3.65734,-3.88144 0.75693,-2.89449 2.64817,-2.48629 15.98631,3.45045 9.82165,4.37157 16.23892,9.31144 18.88582,14.53787 0.79114,1.56215 2.10563,3.92082 2.92108,5.24148 2.14976,3.48164 2.45238,10.57988 0.5329,12.49936 -1.76509,1.7651 -2.28253,1.78914 -8.34594,0.38783 z"
     id="path44"
     transform="scale(0.75)" />
</svg>
