<svg xmlns="http://www.w3.org/2000/svg" width="730.667" height="836" viewBox="0 0 548 627" preserveAspectRatio="xMidYMid meet"  xmlns:v="https://vecta.io/nano"><path d="M215 52.2c-4.7.4-9.9.4-11.6.1-1.8-.2-4.1 0-5.1.6-1.1.5-4.1 1.1-6.6 1.3-2.6.2-4.7.6-4.7 1.1 0 .4-1.1.5-2.4.3s-2.7-.1-3.1.2c-.3.4-3.8 1.2-7.7 1.9-3.8.6-7.7 1.8-8.7 2.7s-2.5 1.6-3.4 1.6-1.8.4-2.1.9c-.3.4-2.3 1.1-4.5 1.5-2.2.3-4.6 1.4-5.3 2.5-.7 1-2.4 2.2-3.8 2.6s-4.4 2.1-6.8 3.6c-2.4 1.6-4.8 2.7-5.3 2.4-.5-.4-.9-.2-.9.4 0 .5-1 1.3-2.2 1.7-1.3.4-4.1 2.2-6.4 4-2.3 1.9-4.9 3.4-5.8 3.4s-1.9.7-2.3 1.6c-.3.9-2.7 3.8-5.2 6.4-6.3 6.6-10.1 11.3-10.1 12.7 0 .6-1.1 2-2.5 3.1S96 111.3 96 112c0 .6-.6 1.7-1.2 2.4-3 3.1-6.5 7.4-8.8 10.9-1.4 2-2.8 3.7-3.2 3.7-.5 0-.8.6-.8 1.4 0 .7-.6 1.9-1.4 2.5-.8.7-2.6 3.4-4 6-1.4 2.7-3.6 6.5-5 8.6s-2.6 4.6-2.6 5.6c0 1.1-.3 1.9-.7 1.9-.9 0-3.3 4.9-3.3 6.7 0 .7-.4 1.3-1 1.3-.5 0-1 .7-1 1.5s-.9 3.4-1.9 5.8c-1.1 2.3-2.1 5.1-2.3 6.2s-1 1.9-1.7 1.7c-.7-.1-1 .1-.7.6s-.2 4.7-1 9.3c-2.1 10.8-1.5 37.2 1.1 46.9l4.2 16.5c3.2 13 6 22.2 7.9 26.3 2.1 4.5 10.2 27.2 12.4 34.7 5.1 17.3 6.1 45.3 2.5 72.4-.2 1.8-.9 3.8-1.4 4.5-.5.6-1.7 5-2.6 9.8-1 4.9-2.2 8.8-2.6 8.8-.5 0-.9 1.3-.9 3 0 2.2-.5 3-1.7 3.1-1 0-1.3.3-.7.5 1.1.5-.4 11.6-1.8 12.9-.4.4-.5 4.6-.3 9.4.8 15.7 1.6 26.6 2.2 28.8.4 1.8.1 2.3-1.6 2.3-1.8 0-2.1.6-2.1 4.3 0 4.1.2 4.5 4.1 6.3 3.5 1.6 4.4 2.7 5.9 6.9 4.8 13.9 14.9 30.9 24.1 40.7 1.9 2 6.1 6.6 9.3 10.2 3.3 3.6 6.3 6.3 6.6 6.1.4-.3 1.5.4 2.5 1.5s2.3 2 2.9 2 2.1 1.1 3.4 2.4c2.6 2.8 12.2 9.3 14.3 9.8.8.2 1.6.6 1.9.9 1.3 1.6 12 5.8 16.3 6.4 2.6.4 5 1.1 5.2 1.6.3.4 1.6.4 3-.1s2.5-.5 2.7 0c.3.8 4.8 1.3 8.8.9.8-.1 4 .2 7 .5 12.9 1.7 38.5 2.1 43.7.8 1.5-.4 6-.7 10-.7 3.9 0 7-.2 6.8-.5-.2-.4 3.1-1.4 7.3-2.4s8.6-2.2 9.7-2.6c7.2-2.6 9.6-3.4 15-5 3.3-.9 7.3-2.2 8.8-2.8 1.6-.7 3.3-1.2 3.8-1.2.6 0 2.4-.8 4.2-1.7s4.3-1.8 5.7-2 3.5-.9 4.7-1.5c1.3-.6 2.5-.9 2.9-.6.8.9 9-1.9 11.5-3.9 1.2-1 3.9-3.3 5.9-5.1 2.1-1.7 4.2-3.2 4.8-3.2s2-1.9 3-4.2c1-2.4 3.3-5.8 5-7.7 1.8-1.8 3.2-3.6 3.2-4 0-.3 1.7-1.4 3.8-2.3s9.7-7.5 17.7-15.4c7.8-7.7 16-15.1 18.3-16.7 7.5-4.9 18.7-15.6 19.7-18.7.4-1.4 1-2.7 1.4-3 .3-.3 1.5-2.3 2.6-4.5s2.3-4.2 2.7-4.5.9-1.5 1.1-2.5c.2-1.1 1.1-3.5 2-5.3 1-1.8 1.6-3.6 1.3-4.1-.3-.4.1-1.9.8-3.2.7-1.4 1.6-5 2-8 .3-3 1.3-7.7 2-10.4 2.6-9.2 5.6-25 5.6-29 0-7.8 6.1-43.4 7.9-46 .4-.6.8-2.8 1-5 .1-2.2.6-5.4 1.1-7 .5-1.7 1.2-5 1.6-7.5s.8-4.7.9-5 .5-1.9.9-3.5c1.9-7.7 3.8-14.2 4.7-15.7.5-1 .9-2.9.9-4.2 0-1.4.5-2.8 1-3.1.6-.3 1-1.5 1-2.6 0-1 .5-1.9 1-1.9.6 0 1-.7 1-1.6 0-1.8 3.1-7.7 4.3-8.2.4-.2.7-.8.7-1.4 0-.5.6-2.4 1.4-4.1l3.1-8c.9-2.6 2-4.7 2.5-4.7.7 0 2.1-3 2.4-5.5.1-.6 1-2.6 2.1-4.5 5.8-11 9.5-18.6 9.5-19.7 0-.7.7-1.3 1.5-1.3s1.5-.6 1.5-1.4 1.2-2.9 2.7-4.7c2.6-3.1 2.8-3.8 2.7-12.8 0-5.3-.6-13-1.3-17.1l-1.7-10.5c-.8-4.8-3.2-15.6-4.8-21-5.7-19.5-18-43.2-26.5-51.2-1-1-2.1-2.7-2.3-3.8s-1.2-2.1-2.3-2.4c-1.1-.2-2.9-1.3-4-2.5-2.4-2.4-11.2-8.6-12.3-8.6-.5 0-1.7-.8-2.8-1.8-1-.9-3-1.8-4.4-1.9-3.4-.4-10.2-3.4-11.7-5.3-.9-1.1-1.2-1.1-1.3-.2 0 1.5-4.3.7-7.6-1.5-2.6-1.6-7-2.4-15.5-2.8-3.6-.1-7.2-.6-7.9-1-.6-.4-8.9-.9-18.4-1.1-19.5-.5-29.6-1-34.6-1.7-1.9-.3-7.3-1-12-1.6-4.7-.7-9.2-1.5-10-1.8-1.8-.7-4-1.3-6-1.6-.8-.1-2.8-.9-4.5-1.8-1.6-.8-5-2.2-7.5-2.9-2.5-.8-4.9-2-5.3-2.7s-1.4-1.3-2.2-1.3-3-.9-5-2-4.3-2-5.1-2c-.9 0-2.8-.8-4.2-1.9-2.8-1.9-9.6-4.5-12.2-4.6-.8-.1-2.8-.7-4.4-1.3-1.6-.7-4.5-1.3-6.5-1.3-2 .1-6.1-.1-9.1-.2-3-.2-9.3.1-14 .5zm25.7 14.3c1.8.3 3.4.6 3.5.5.6-.2 11.7 3.9 14 5.1 1.2.8 3 1.4 3.9 1.5s5.4 1.9 10 4.1 11.8 5 15.9 6.3 8.9 2.9 10.6 3.6c2.9 1.3 6.2 1.9 14.8 2.9 2.1.3 5.5.9 7.6 1.5s12 1.3 22.1 1.6c31.7.9 39.3 1.3 44.4 2.4 8.5 1.8 12.9 3.3 15.8 5.3 2.6 1.8 2.7 2.1 1.3 3.6-.9 1-1.6 2.8-1.6 4 0 1.5-.5 2.1-1.6 1.9-1.8-.3-2.9 2.8-1.3 3.8 1.4.8 1.1 7.4-.3 7.9-1.2.4-3.5.7-13.9 2-3.4.4-3.7.3-5.2-3.5-1.4-3.6-1.9-4-5.1-4-4.1 0-7.2 3.5-6.3 7.1.3 1.2 0 2.2-.9 2.5-.8.2-2.2.7-3.1 1-1 .3-1.8.4-1.9.2s-1.4 1.3-3 3.2c-3.9 4.7-4.1 4.8-8.9 4.8-5.6-.1-6.5.6-6.5 5.6 0 6.3-2.8 14.9-4.6 14.2-.8-.3-1.4-.1-1.4.4 0 .6-.6 1-1.3 1-1.8 0-4.7 5.3-4.7 8.4 0 2.7 1.2 3.5 7.2 5 2.2.5 3.3 0 6.2-2.9 2-1.9 3.7-3.5 4-3.5s1.7 2.2 3.2 5c2.5 4.7 2.9 4.9 6.4 4.6 2-.2 4.2-.6 4.9-1 1.6-1 1.3-6.1-.5-7.6-1.4-1.3-3.4-5.2-4.8-9.6-.4-1.3.6-3.2 2.9-5.9 1.9-2.2 3.5-4.4 3.5-5 0-.5 1.4-1.9 3-3s3-2.7 3.1-3.5c.1-2.5 2.7 5.7 4.3 13.4 2.1 9.8 3.9 13.7 7.6 16.4 3 2.3 3.1 2.5 1.4 4.3-.9 1-2.5 1.9-3.5 1.9-1.1 0-2.4.9-3.1 2s-2 2-2.9 2c-1.5 0-5.9 5-5.9 6.8 0 .4-1.4 2.1-3 3.7-5.5 5.2-8.9 14.7-9.6 26.5-.6 9.7-.2 11.2 7.1 27.3 2.3 4.9 14 15.5 19 17.3 4.1 1.4 17.1 2.2 18.2 1.1.3-.4 2.3-.7 4.4-.7s4.1-.5 4.4-1.1c.4-.6 1.3-.8 2.1-.5.7.3 1.6.1 1.9-.4.4-.6 1.4-1 2.3-1 2 0 11.1-8.5 13-12 2.5-4.7 3.9-7 5.6-8.8.9-1.1 1.4-2.6 1.1-3.4-.4-.9.5-6 1.9-11.4 2.9-10.9 3.4-21.8 1.4-28.7-1.6-5.3-10.9-14.8-17.5-17.8-6-2.7-20-5.2-27-4.7-5 .3-6.5-.3-4.3-1.7 1.4-.9 1.2-5.1-.4-8.3-1.2-2.3-3.3-10.4-5.3-20.4-.5-2.6-.4-2.6 5.4-3.1l7.8-.8c1.5-.3 2.1.2 2.3 2.1.9 7.5 4.8 10.6 9.5 7.6 2-1.4 2.4-2.4 2.2-6.1-.2-4.4 1-5.9 3.8-5 .6.2 3.7.6 6.7.9l5.8.6c.1 0 .2 2 .2 4.4 0 4.9.4 5.5 4.9 6 4.6.5 6.5-2.2 6.2-8.7-.2-5-.1-5.3 3-6.6 3-1.3 3.4-1.3 4.3.4.6 1 2 2.9 3.1 4.4 4.2 5.3 12.3 24.2 15 34.8.9 3.8 2.1 7.7 2.6 8.8 2.4 5.7 5.5 37.5 3.7 37.5-.4 0-1 1.1-1.4 2.5-.3 1.4-1.2 2.5-2 2.5s-1.4.8-1.4 1.8c0 2.2-2.7 7.9-4.1 8.7-.5.4-.9 1.7-.9 3 0 1.2-.7 2.5-1.5 2.9-.8.3-1.5 1.5-1.5 2.6s-.4 2-1 2c-.5 0-1 .6-1 1.4s-1.3 4.3-2.9 7.8l-4.4 9.8c-.9 1.9-2.3 4.6-3.1 6-1.3 2.2-5.8 11.8-8.8 19-.6 1.4-1.6 3.6-2.3 5s-1.5 3.8-1.9 5.5c-.4 1.6-1.5 5.9-2.6 9.5-1 3.6-2.8 11.4-4 17.5-2.3 11.7-4.2 20.3-6.6 30-2.2 9.2-5.4 30.3-5.4 36.5 0 3-.7 6.8-1.6 8.5-.8 1.6-1.3 3.7-1.1 4.7.6 2.1-1.2 10.9-2.4 12.3-.5.5-.9 2.2-.9 3.7s-.5 2.8-1.1 2.8c-.5 0-.7.5-.3 1.1 1.5 2.4-3.4 20-7.2 26.1-1.3 2.1-2.4 4.4-2.4 5.2s-.7 1.6-1.5 2c-.8.3-1.5 1.5-1.5 2.6s-.4 2-1 2c-.5 0-1 .7-1 1.5s-1 2-2.2 2.6c-1.3.7-3.6 2.4-5.3 4-7.2 6.7-8.6 7.9-9.4 7.9-1.2 0-9.7 8.5-11.8 11.6-.9 1.4-3.3 3.4-5.3 4.4-3.7 1.9-13 10.4-13 11.9 0 .5-2.6 2.6-5.8 4.6-3.2 2.1-7.1 5.7-8.7 8.1-1.9 2.7-3.8 4.4-5 4.4-1.1 0-2.6.9-3.3 2.1s-1.6 1.8-1.9 1.5c-.8-.7-3.3 2-3.3 3.6 0 1.9-2 3.8-4.1 3.8-.9 0-2.3.9-3 2-.8 1.2-2.5 2.2-3.9 2.3-2.4.2-7.6 2.3-13.2 5.3-1.5.8-5.1 1.8-7.9 2.1s-5.6 1.2-6.3 1.8c-.7.7-4.1 2-7.7 2.9-3.5.9-6.8 2.2-7.4 2.9-.5.6-2.7 1.2-4.7 1.2-2.1 0-3.8.4-3.8.9 0 .4-1.1.5-2.4.2-1.4-.3-2.8-.2-3.1.4-.3.5-2.1 1-4 1-1.8 0-3.5.5-3.7 1.1-.2.7-2.9 1.2-6.3 1.3-3.3.1-6.6.5-7.3.9-.7.5-1.8.4-2.5-.1-1.9-1.6-8.7-2.6-8.7-1.3 0 .6-.9 1.1-2 1.1s-2-.5-2-1c0-.6-.5-1-1.1-1-.5 0-.8.4-.5.9.8 1.2-3 2-7.4 1.6-1.9-.2-6.9-.6-11-.9l-17.2-1.2c-5.4-.4-9.8-1.1-9.8-1.5 0-.5-1.1-.9-2.5-.9s-3.3-.4-4.3-.9c-.9-.4-3.5-1.7-5.7-2.7-4.4-2.1-12.8-8.1-13.3-9.5-.2-.5-1.2-.9-2.2-.9-1.1 0-2.3-.6-2.7-1.3-.8-1.4-12-10.3-15.2-12.2-2.4-1.4-10.7-11.7-11.5-14.3-.4-1.2-2.9-4.4-5.5-7.3-2.6-2.8-5.4-6.8-6.1-8.8s-1.6-3.8-1.9-4.1c-1.5-1.1-5-7.8-6.5-12.7-2-6-1-8.9 3.4-10 1.4-.3 4.3-1.9 6.4-3.4 2.2-1.6 4.6-2.9 5.3-2.9s1.3-.4 1.3-.9c0-1.6 4.5-2 6.7-.6 1.2.8 2.7 1.5 3.3 1.5s2 .9 3.2 2c2.7 2.5 7.5 3.4 10.9 2.1 3.9-1.4 3.9-7.7 0-12-2.7-3-6.1-4.2-6.1-2.1 0 .7-.6.7-2 0-3-1.6-2.4-4.5 1.5-8.7 3.2-3.4 4-5.2 3.6-7.7-.1-.4 1.5-.5 3.6-.1 2.1.5 5.8.9 8.2.9 4.3.1 4.4.1 5.9-4.7 1.7-5.4 1.3-6.2-3.1-6.2-5.4 0-5.8-4.5-2.1-22.3.6-3.2.9-3.3 3.8-2.7 8.5 1.7 10 1.7 13.2 0 3.9-2.1 5.2-6.6 2.9-10.2-1.8-2.7-4.3-3-6.1-.5-.8 1-1.3 1.2-1.4.4 0-.6-.9-1.2-2-1.2s-2-.5-2-1.2c0-.6-.3-.8-.6-.5-1.1 1.1-4.5-1.3-5.4-3.9-.5-1.3-1.1-5.1-1.2-8.5-.3-7 .5-7.9 6.8-7.4l4.3.2 1-4.6c1.5-6.4.2-13.5-2.5-13.9-1.3-.2-2.5.6-3.4 2.3-1.6 3-2.2 3.1-4.4.6-4.3-4.7-2.7-17.5 2.8-22.3 3.9-3.5 6-3.5 8.8-.3 3.8 4.4 6.9 5.4 11 3.7 2.7-1.2 3.9-2.5 4.9-5.4 1.2-3.8 2.4-5.2 4.4-5.3.6-.1.8-.7.6-1.5-.9-3.1-1.3-11.1-.6-12.8 1.6-3.6 1.2-5.9-1.3-9-2.5-3-2.9-3.2-5.9-2.2-1.7.6-3.4 1.8-3.7 2.6s-1.2 1.4-2.1 1.4c-1.3 0-1.5.7-.9 3.7.4 2.1 1.1 4.3 1.5 4.9.5.6.6 2.1.1 3.4l-.8 2.2-1.5-2.3c-.9-1.3-2.1-4.4-2.8-6.9-1.3-4.8-5.6-11.7-8.2-13.3-.9-.5-2.8-.7-4.2-.3-3.8.9-4.4 4.4-1.6 9.7 3 5.8 4.9 11.1 4.3 12.1-.3.4-2.3.8-4.5.8-2.9 0-4.1.5-4.6 1.7-.3 1-2.4 3.5-4.5 5.6-3.2 3.3-3.9 4.7-4.4 9.5-.9 8-1.3 8.4-7.5 8.6l-5.4.1-.3 3.7c-.3 3.8-.3 3.8 8.2 11 3.1 2.6 4.4 7.7 4.5 17.9.1 3.9-.2 4.8-1.9 5.2-2.7.7-2.7 6 0 9.4 2.4 3 2.6 8 .5 11-1 1.5-1.4 3.6-1 6.5.3 2.4 0 5-.5 5.8-.8 1.3-1.2 1.2-2.4-.6-1.8-2.5-7-3.6-9.3-1.9-2.1 1.6-2 6.1.3 8.8 2.4 2.8 4.4 6.4 4.4 7.9 0 2.2-4.2 9.8-5.1 9.2-.5-.3-1.3.3-1.7 1.3-1.3 3.1-4.7 8.3-5.3 8.3-.4 0-3-2.1-5.8-4.6l-5.1-4.5-2.9 1.7c-3.9 2.3-3.6 5.9.8 11 2.5 2.8 3 3.9 2 5-.6.8-1.8 1.4-2.7 1.4-.8 0-2.4.8-3.4 1.7-1.7 1.5-2 1.5-3.4.1-.8-.8-1.7-3.2-2-5.4-.7-6-.6-19.4.1-24.4.4-2.5.7-5.1.8-5.8 0-.6.4-1.2.9-1.2.4 0 .8-1 .8-2.3 0-1.2.7-4.7 1.6-7.7a134.42 134.42 0 0 0 2.3-9c.4-1.9 1.3-4.4 1.9-5.6 1.9-3.6 5-24.1 5.2-35.1.2-7.3-.8-31-1.6-38.3-.8-7.7-3.5-17.7-8.4-30.5-2.3-6.1-5.1-13.9-6.2-17.5s-2.9-8.3-4-10.6c-3.1-6.9-8.4-27.1-9.9-37.9-.6-3.9-1.2-12.5-1.5-19.2-.5-10.7-.3-13 1.5-18.3 1.2-3.3 2.1-7 2.1-8.3 0-1.2.7-3.3 1.6-4.5.8-1.2 1.3-2.2 1-2.2-.6 0 1.4-4.8 6-14.8 1.9-4 3.4-7.7 3.4-8.2 0-1.2 8.2-11.5 11.5-14.5 1.2-1.1 3.9-4.9 5.8-8.5 2-3.6 5-7.6 6.7-8.8 1.6-1.3 3-2.8 3-3.5.1-.7 1.4-2.8 3-4.7 1.7-1.9 3-3.8 3-4.3 0-1.7 12.7-12.8 17.5-15.4 2.7-1.4 6.4-3.6 8.1-4.9s3.8-2.4 4.7-2.4c1 0 1.7-.3 1.7-.8 0-.4 1.5-1.4 3.3-2.1 1.7-.8 5.4-2.7 8-4.3 2.6-1.5 5.6-2.8 6.7-2.8 1 0 2.1-.4 2.4-.9s2.7-1.2 5.3-1.6c2.7-.4 5.4-1.2 6.1-1.8.8-.6 3.2-1.2 5.4-1.3 2.3-.1 4.3-.6 4.7-1.1.3-.5 2-1 3.6-1.1 1.7-.2 4.4-.5 6-.8 1.7-.2 10.6-.7 19.9-.9 9.2-.2 17.1-.6 17.4-1 .3-.3.8-.1 1.1.4.3.4 2.1 1.2 3.8 1.6zm175.8 39.8c1.1.6 2.8 1 3.7.9.9-.2 1.9.6 2.3 1.8.3 1.1 1.5 2 2.5 2s2 .7 2.3 1.4c.4 1.1.1 1.3-1 .9-1.6-.6-1.6 1.3-.1 7.7.4 1.9-4.2 2.6-5.3.8-.5-.7-.9-.8-.9-.2s-1.3 1.1-3 1.1h-3l.6-5.3c.6-4.7.4-5.4-2-7.5-1.4-1.2-2.6-2.9-2.6-3.6s-.7-1.3-1.5-1.3-1.5-.4-1.5-.9c0-1 6.3.4 9.5 2.2zm1.6 79.5c4.6 2 6.4 3.5 9.4 8.1 3.6 5.4 3.7 5.8 3.2 12.6-.2 3.8-1.2 8.3-2.1 10-.9 1.6-1.6 3.8-1.6 4.7 0 2.3-3.1 8.8-5.2 11-1 1-1.8 2.3-1.8 2.9 0 .7-1.2 1-3 .7-3.5-.5-3.5-.6-1.4 3.4 1.6 3 1.5 3.1-1.2 5.4-1.5 1.3-3.7 2.5-4.8 2.6l-3.6.3c-.8 0-2 .4-2.6.8-2.8 1.7-14.3.4-16-1.8-.6-.8-1.6-1.5-2.2-1.5-2.1 0-8.1-7.4-9.9-12-.9-2.5-2.2-4.8-2.7-5.2-.7-.4-1.2-5.8-1.3-12.8l-.3-12.1 3.2-4c5.3-6.6 12.4-13.9 13.5-13.9.6 0 2.4-.7 3.9-1.5 4.3-2.3 18.9-1.1 26.5 2.3z"/><path d="M139.2 162.1c-1.3.5-2.8.6-3.3.3s-2.6.5-4.7 1.8c-2 1.2-4.1 2.3-4.7 2.3-2 .2-6.5 2.5-6.5 3.4 0 .5-1.2 1.2-2.6 1.5-3.4.9-7.4 3.5-7.4 5 0 .6-1.4 2.6-3.1 4.4-2.9 3.1-4.8 8.1-9.4 25-3.6 12.8-.9 31 5.9 40.9 5.2 7.6 12.1 10.4 29.3 12.1 9 .9 17.3-.1 17.3-2 0-.4.6-.8 1.3-.8 4.3 0 18.7-9.8 18.7-12.7 0-.7.6-1.6 1.4-2 .7-.4 1.9-1.9 2.6-3.3s3-4.8 5.1-7.5c2.1-2.8 4.5-7.5 5.3-10.5l2.1-7.6c.7-2.3-.5-9.6-3.1-18.4-.9-3-1.8-6.6-2.1-8s-1.3-3.4-2.3-4.5-2.1-3-2.4-4.2c-.9-2.8-10.5-11.3-12.8-11.3-.9 0-2-.5-2.3-1-.3-.6-1.3-1-2.2-1-.8 0-3.1-.7-5-1.7-2.6-1.2-3.7-1.3-4.2-.4-.4.6-1.4 1-2.2.7-3.7-1.2-6.6-1.3-8.7-.5zm12.1 13c2.6.1 4.7.5 4.7.9s.8 1.1 1.8 1.4c3.8 1.4 7.2 3.8 9 6.4 3 4.2 6.2 11.4 6.2 13.8 0 1.3.5 2.6 1 2.9 1.5 1 1.2 9.7-.6 15.3-.9 2.7-3.4 7.2-5.5 9.8-2.1 2.7-4.4 6.2-5 7.7s-2.4 3.4-4 4.3c-1.6.8-2.9 2.1-2.9 2.9a1.54 1.54 0 0 1-1.5 1.5c-.8 0-1.5-.5-1.5-1 0-1.8-5-1-7.2 1.2-1.5 1.5-3.4 2.1-6.4 2.2-2.5.1-4.6.6-4.9 1.3-.5 1.4-6.2 1.1-13-.8-5.2-1.4-9.7-7.8-11.8-16.9-1.7-7.3-2.1-19.3-.7-21.8.5-.9 1.9-4.8 3-8.7 1.2-3.8 3.3-8 4.6-9.4 1.3-1.3 2.4-2.7 2.4-3.1s.8-1 1.8-1.4c.9-.3 4-1.9 6.7-3.5 2.8-1.6 6-3 7.3-3 1.2-.1 2.2-.6 2.2-1.2s.7-.9 1.5-.5c.8.3 1.5.2 1.5-.2 0-.5 1.5-.7 3.3-.6 1.7.2 5.3.4 8 .5zm-13.5 19.7c-1 .2-1.8.7-1.8 1.2s-.7.7-1.5.4c-.8-.4-1.5-.1-1.5.5s-.8 1.9-1.8 2.9-2.4 3.2-3.1 4.9c-1.1 2.7-1 3.7.8 7.6 1.2 2.5 2.5 4.9 3.1 5.2.5.3 1 1.5 1 2.5 0 1.9 1.9 2.9 7.2 3.6 3.7.4 7.8-2.7 7.8-5.9 0-1.4.5-1.8 2-1.4 1.4.3 2 0 2-1.1 0-.8.7-2.3 1.6-3.3s2-3.6 2.5-5.9c.8-3.5.6-4.6-1.1-7.1-1.4-1.8-3-2.9-4.5-2.9-1.3 0-2.6-.4-2.9-.9-.6-.8-6.6-1.1-9.8-.3zm131.5-16.6c-1 .3-3 .7-4.4.7-1.4.1-3.4 1-4.4 2.1-1 1.2-2.5 1.8-3.2 1.6-1.4-.6-4.3 1.4-7.2 4.8-.9 1-2.9 3-4.5 4.5-4.4 3.9-6.6 6.4-6.6 7.3 0 .4-.6.8-1.3.8s-2.1 1.4-3.1 3c-.9 1.7-2.8 3.8-4.2 4.6-1.3.9-2.4 2.6-2.4 3.8 0 1.5-.3 1.7-.9.8-.6-1-1-.6-1.5 1.4-.4 1.5-1.6 3.9-2.7 5.2-1 1.4-1.9 3.3-1.9 4.3 0 1.1-.4 1.9-.8 1.9s-1.4 2.1-2.2 4.7c-.7 2.7-2 5.4-2.7 6.1-1.9 1.9-1.6 6.6.5 8.4 2.6 2.3 7.9 3 8.6 1.3.3-.8 1.5-1.5 2.6-1.5 1.2 0 2-.6 1.8-1.3-.3-1.8 1.3-11.1 2.1-11.7s5.2-7.6 7-11.1c.7-1.5 2.4-3.3 3.7-4s2.4-1.8 2.4-2.4c0-.7 2.3-3.7 5.1-6.6 2.8-3 5.9-6.3 6.8-7.5 2.1-2.7 7.1-5 14.7-6.7 5-1.2 6.3-1.2 7.9-.1 1.1.8 2.4 1 3.4.5 1.9-1 2.8-.7 10.6 2.9 3.3 1.5 6.9 3.7 7.9 4.9 1.1 1.1 2.6 2.1 3.4 2.1 2.1 0 6.1 4.6 6.8 7.8.4 1.5 1.1 3.3 1.7 3.9.5.7.7 1.3.3 1.3s0 1 .8 2.2c.8 1.3 2.1 5 3 8.3.8 3.3 2.4 9.1 3.4 13 1.1 3.8 2.5 9.5 3.2 12.6 1.3 6.7 3.1 8.6 8.6 9.1l4.2.3.6-6.9c.5-5 .3-7.5-.7-9-.8-1.2-2-4.6-2.7-7.6-.6-3-1.6-6.3-2.1-7.2-.5-1-.9-2.7-.9-3.7 0-1.1-.4-2.2-.9-2.5s-1.2-2-1.5-3.8-1.3-4.7-2.2-6.3c-.9-1.7-2.3-5-3.1-7.5s-2.3-5.4-3.2-6.5c-1-1.1-2.4-3.1-3.3-4.5s-3.6-3.6-6-4.9c-2.5-1.2-5.7-3.3-7.1-4.7-1.4-1.3-3.3-2.4-4.1-2.4s-1.8-.5-2.1-1c-.3-.6-1.7-1-3.1-1-1.3 0-2.4-.4-2.4-.8 0-2.1-17.8-4.6-21.7-3zm-13.2 119c.5 4.2 0 4.7-4.6 4.3-3-.3-4.5 0-4.5.8s-2.6 1.2-8.2 1.3c-8.9.1-11.5.5-13.8 1.9-.9.5-1.5.4-1.8-.3-.2-.7-.8-1.2-1.4-1.2-.5 0-.7.8-.4 1.8.5 1.5-.3 2.3-3.3 3.7-2.2.9-4.5 1.4-5.2 1-.8-.5-1-.4-.5.3.4.7.3 1.2-.3 1.2s-.8.7-.5 1.5c.4 1 0 1.5-1.5 1.5-1.1 0-2.5.9-3.1 2s-1.5 1.8-1.9 1.6c-.4-.3-1.3.6-1.9 1.9-.7 1.4-1.8 2.5-2.7 2.5-.8 0-1.7 1.2-2.1 2.7-.3 1.6-1.8 3.8-3.2 5-1.7 1.5-2.5 3.1-2.4 5.2 0 1.7-.4 3.1-.9 3.1s-.9.6-.9 1.4-.6 1.6-1.2 1.8c-1.5.5-1.5 8.2-.1 10 .6.7 1.4 4.7 1.8 8.8 2.6 26.9 2 40.8-1.9 43.4-2.3 1.5-3.3 7-1.7 9.5 1.4 2.1-2.7 14.9-5.1 15.9-.5.2-.8 1.3-.8 2.5s-.7 3.1-1.5 4.1c-.8 1.1-1.5 3-1.5 4.2 0 1.3-.4 2.6-1 2.9-.5.3-1 1.5-1 2.6s-.7 2.8-1.6 3.7c-1.2 1.2-1.5 2.7-1 5.8.4 3.1.2 4.6-.8 5.1-2.2 1.3.4 27.7 3.2 33.1 2.2 4.3 8.9 11.1 10.9 11.2.6 0 3.1 1.8 5.5 4.1 2.3 2.2 5.2 4.5 6.3 5 2.7 1.2 11.5 7.3 14 9.7 2.2 2.1 14.1 6.5 15.4 5.7.5-.2 1.4.2 2.1 1s1.7 1.2 2.2.9c1.1-.7 6.8 1.5 6.8 2.7 0 .4 1.4.7 3 .7 1.7-.1 3-.4 3-.8 0-1.1 4.7-2.2 10.9-2.6 2.9-.2 5.9-.8 6.7-1.5.7-.6 1.8-.8 2.3-.5.6.4 1.8.2 2.8-.3 2.5-1.3 5.7-2.4 6.5-2.3.4.1 3.1-1.1 6.1-2.7s7.1-3.4 9.2-4.1c2-.7 4.6-2.1 5.6-3.1 1.1-1.1 2.9-2 4.2-2.1 1.2 0 2.7-.2 3.3-.2 1.4-.2 5-2.7 9.3-6.5 1.9-1.6 3.7-2.8 4-2.6.4.2 1.5-1.6 2.5-3.8 1-2.3 2.2-5 2.8-6 .5-1 .6-2.7.3-3.8-.4-1.1-.2-1.9.5-1.9.6 0 1-.6.7-1.3-.2-.6 0-2.2.4-3.5.5-1.3 1-7.8 1-14.5.1-10.2-.2-12.9-1.9-16.7-1.1-2.5-3.2-8.3-4.7-13s-3.2-9-3.6-9.6c-.5-.6-2-4.6-3.5-9-2-6.1-2.4-9-1.9-12.7.5-4.1.3-5-1.7-7-3.4-3.4-4.5-6.4-6.4-17.4-1.4-8.1-1.4-11.2-.5-17.8.6-4.5.7-9.5.3-11.5s-.3-6.9.3-11.2c.6-4.2.9-10.3.7-13.5-.4-4.9-1-6.4-4-9.7-1.9-2.2-6.5-5.5-10-7.3-3.6-1.8-7-3.7-7.6-4.2s-1.5-1-2.1-1c-3-.3-5.5-1.8-9.7-5.7-3-2.8-5.3-4.2-6.2-3.8-.9.3-1.6.1-1.6-.5s-.7-1.1-1.5-1.1-1.5-.5-1.5-1c0-.6-.5-1-1-1-.6 0-1 .6-.9 1.2zm-12.5 19c1.4 2.3.8 15.3-.9 18.8-.9 1.8-1.7 3.8-1.7 4.5 0 2.3-3.5 4.2-8.7 4.8-2.9.3-5.5.2-5.8-.3-.6-1-7.9-2.1-15.2-2.2-4.4-.1-5.3-.4-5.3-2 0-1 .4-1.8.9-1.8s1.2-1.6 1.5-3.5c.5-2.5 1.4-3.9 3.2-4.5 1.3-.5 2.4-1.5 2.4-2.2 0-2.8 11.8-10 19.4-11.9 4.9-1.1 9.4-1 10.2.3zM270 319c2.2 1.1 4.5 2 5.2 2s3 1.1 5 2.5 4.4 2.5 5.2 2.5 2.4 1.4 3.6 3.1c2.1 2.8 2.2 3.6 1.4 14.2-.9 10.8-1 11.2-3.1 10.9-1.3-.2-2.3.2-2.3.9 0 .8-.4.8-1.5-.1s-1.5-.9-1.5-.1c0 .7-.4.9-1 .6-.5-.3-2.3.2-3.9 1.1-2.5 1.5-3.2 1.5-4.6.4-1.3-1.1-1.5-1-1 .2s-.5 1.7-4.5 2.2c-4.6.6-5.6.4-8.6-1.9-1.9-1.4-3.4-3.5-3.5-4.6-.1-1-.1-2.9-.2-4.2-.1-1.2.3-2.8.7-3.6.5-.7 1.1-3 1.3-5 .3-2 1.1-6.3 1.9-9.6l2.1-8.5c1.3-5.5 3.2-6.1 9.3-3zm-60.1 38.1c2 .5 7.2 1.2 11.6 1.5 7.9.6 8.1.7 12.1 5.1 4.2 4.5 7.1 11.7 5.2 12.9-.5.3-.6 1.8-.3 3.4.4 1.7.1 3.3-.8 4.1-.7.8-2 2.8-2.8 4.4-.8 1.7-2.2 2.9-3.1 2.9-1.1-.1-1.4.5-1 2 .4 1.6.2 1.9-.8.9-1-.9-1.8-.6-3.7 1.3-1.3 1.3-2.9 2.2-3.4 1.9-.5-.4-.9-.3-.9.2 0 1.9-15.5 6.1-17 4.6-1-.9-.8-47.3.2-46.7.6.4 2.7 1.1 4.7 1.5zm78 16.1c.5 1.3 1.4 6.6 2 11.8s1.4 10.7 1.8 12.2c.4 2.4.2 2.8-1.6 2.8-1.1 0-2.1.4-2.1 1 0 .5-.7.7-1.5.3-.9-.3-2.4.2-3.4 1.1-.9.9-3.8 2-6.3 2.4-5.5 1.1-8.3-.6-9.8-5.8-1.2-4.3-1.3-15-.1-15 .5 0 1.2-1.2 1.5-2.6 1-3.9 3.3-5.9 5.1-4.4 1.1.9 1.4.6 1.7-1.7.2-2.2.7-2.7 2.5-2.5 1.2.2 2.4-.2 2.8-.8.3-.5 2-1 3.6-1 2.1 0 3.2.6 3.8 2.2zm12.2 53.9c2.1 5.7 3.8 11.3 3.8 12.3.1 1.1.8 2.7 1.6 3.6.9 1 1.9 3.4 2.2 5.5.6 3.5.5 3.7-1.4 2.7-3.8-2.1-18.9-1.4-20.3.8-.7 1.1-1.3 1-3.5-.4-1.5-1-3.2-1.5-4-1.3-2.2.9-5.5-2.2-5.5-5.1 0-1.5-.7-4-1.5-5.6-2.5-4.7-1.9-8.2 2.6-14.1 4.2-5.6 7.8-7.5 14.4-7.5 1.7 0 3.7-.5 4.5-1s1.9-.8 2.5-.7c.5.2 2.6 5 4.6 10.8zm-90.4-8.3c4.5.4 7.7 3.2 10.8 9.4 1 1.8 2.4 4 3.1 4.9.8.9 1.9 4.1 2.5 7.3 1.2 6.7-.2 12.6-3 12.6-.9 0-2.1.4-2.6.9-1.3 1.2-11.5 2.4-11.5 1.3 0-.4-4.4-.3-9.7.4-5.4.6-10.2.8-10.6.4-.5-.4-.3-3.4.3-6.6.7-3.3 1.3-6.6 1.4-7.6.1-.9.7-2.2 1.3-3 .5-.7 2-3.6 3.2-6.3 1.2-2.8 2.7-5.8 3.2-6.7.5-1 .9-2.3.9-2.8 0-2.3 3.5-5.9 5-5.3.8.4 3.4.8 5.7 1.1zm103.9 54c.6 5.9.4 7.3-1 8.8-1.3 1.2-1.6 2.6-1.1 5.1.4 2.2.2 3.3-.6 3.3-1.5 0-8 6.6-7.2 7.4.3.3-.3.6-1.5.6s-2.7.9-3.4 2-2.1 2-3 2-2.9.5-4.3 1.2c-3.6 1.6-9.1-1.1-11-5.5-2.5-6-2.6-13.4-.3-17.8 1.1-2.1 2.4-3.9 2.9-3.9s.9-.8.9-1.8.7-2.7 1.5-3.8c.8-1 1.5-2.6 1.5-3.4 0-1.5 3.8-1.9 20.3-2.3 2 0 3.7-.5 3.7-1.1s.5-.4 1 .5 1.3 4.8 1.6 8.7zm-94.4-.3c2.5 2.3 6.1 4.8 8 5.5 3.9 1.4 6.1 5.5 7.1 13.2.5 3.4.3 4.9-.9 5.8-.8.7-1.2 2-.9 2.9.6 1.9-4.9 6.6-6.5 5.6-.5-.3-1.1-.1-1.5.5-1 1.6-4 1.2-8.4-1.2-2.3-1.2-4.1-2.9-4.1-3.9 0-1.3-1.1-1.8-4.2-2.1-2.4-.3-4.8-.1-5.4.4-.7.5-1.6.2-2.4-.7-.7-.8-1.8-1.5-2.6-1.5-.7 0-1.8-.9-2.4-2s-1.6-2-2.3-2c-1.7 0-3.3-2.8-5.7-9.9-2.3-6.8-2.6-12.1-.7-12.2.6 0 6.2-.6 12.2-1.3 16.7-1.8 15.6-1.9 20.7 2.9zm180-271.2c-.3 1.3-1.1 1.7-2.7 1.3-1.5-.4-2.5-.1-2.9.9-.3.8-1.4 1.5-2.4 1.5s-2.7.9-3.7 2-1.4 2-1 2c.5 0 .4.5-.3 1.2s-1.2 2.9-1.2 5c0 2.9.7 4.4 3.5 7.1 2.9 2.8 3.9 3.2 7.2 2.9 2.1-.3 4.1-1 4.5-1.6s1.8-1.2 3.2-1.3c1.5-.1 4.1-1.9 6.5-4.4 4.3-4.6 4.4-5.5 1.5-12.6-.9-2.3-1.8-3.1-2.8-2.7s-1.6.1-1.6-.9-1.3-1.6-3.6-1.9c-3-.3-3.8-.1-4.2 1.5z"/><g fill="#fff"><path d="M186.147 558.781c-14.745-1.134-18.415-1.625-18.982-2.543-.234-.378-1.471-.687-2.751-.688s-4.403-.983-6.941-2.184c-5.441-2.574-15.146-9.134-15.718-10.625-.22-.574-1.135-1.043-2.033-1.043s-2.795-1.114-4.215-2.475-5.613-4.774-9.317-7.585c-7.102-5.389-12.177-10.744-15.339-16.187-1.048-1.804-3.834-5.635-6.191-8.512-4.231-5.166-6.447-8.879-12.104-20.286-3.803-7.67-4.299-10.393-2.344-12.879.823-1.047 2.352-2.118 3.398-2.38s3.957-1.776 6.47-3.363 4.944-2.886 5.402-2.886.833-.322.833-.715.841-.926 1.868-1.184c2.178-.547 6.492 1.154 11.102 4.376 2.532 1.77 3.897 2.193 7.172 2.224 3.396.032 4.268-.238 5.439-1.683 2.632-3.248 1.262-9.179-2.936-12.712-2.326-1.958-5.147-2.638-5.147-1.242 0 1.064-1.192.891-2.435-.352-1.475-1.475-.875-3.208 2.54-7.341 1.596-1.931 3.085-4.43 3.31-5.552l.408-2.041 7.481.458c7.322.448 7.505.421 8.619-1.288.626-.96 1.452-3.15 1.836-4.865.851-3.81-.233-5.265-3.923-5.265-3.052 0-3.992-1.503-3.961-6.331.024-3.778 2.347-16.694 3.146-17.494.267-.267 3.086-.087 6.265.399 4.818.737 6.192.712 8.258-.151 5.221-2.182 7.199-7.781 4.128-11.685-1.69-2.149-4.377-2.518-5.805-.796-.647.78-1.166.892-1.693.365-.418-.418-1.351-.76-2.072-.76s-1.312-.287-1.312-.638-.969-.832-2.154-1.069-2.685-1.241-3.333-2.231c-1.299-1.982-2.294-11.504-1.524-14.574.457-1.82.695-1.903 5.489-1.903 5.963 0 5.911.072 6.377-8.749.379-7.172-.512-9.715-3.53-10.067-1.494-.174-2.216.273-3.243 2.012-1.511 2.558-2.16 2.533-4.172-.163-2.904-3.89-2.007-15.04 1.539-19.129 1.63-1.88 5.297-4.733 6.083-4.733.334 0 2.233 1.445 4.222 3.211 4.411 3.917 6.853 4.566 10.974 2.917 2.587-1.035 3.395-1.889 5.034-5.321 1.074-2.248 2.604-4.377 3.401-4.73 1.352-.599 1.447-1.356 1.427-11.301-.023-11.326-.426-13.005-3.621-15.099-1.468-.962-2.208-1.014-4.346-.309-1.417.468-2.988 1.421-3.491 2.119s-1.488 1.482-2.189 1.744c-1.563.583-1.651 4.029-.206 8.082.592 1.662.774 3.448.441 4.347-.563 1.522-.567 1.521-1.452-.132-.488-.912-1.708-3.852-2.711-6.535-3.744-10.009-8.146-15.221-12.175-14.415-1.192.238-2.609.8-3.148 1.247-1.662 1.38-1.095 5.666 1.52 11.48 3.601 8.007 3.825 9.268 1.746 9.825-.932.25-2.698.458-3.925.464-1.892.008-2.956.884-7.009 5.77-4.599 5.544-4.81 5.974-5.629 11.479-.468 3.145-1.253 6.121-1.744 6.612s-3.27 1.115-6.175 1.385l-5.281.491v3.692c0 3.634.081 3.768 5.121 8.462 4.084 3.804 5.339 5.495 6.197 8.349 1.182 3.929 1.486 16.47.399 16.47-1.358 0-2.968 2.342-2.968 4.318 0 1.115.86 3.634 1.912 5.598 2.2 4.11 2.443 7.739.739 11.035-.739 1.429-1.193 4.078-1.193 6.961 0 2.56-.222 4.875-.493 5.146s-1.245-.214-2.163-1.077c-2.29-2.151-8.28-2.753-9.752-.979-1.823 2.196-1.156 6.305 1.696 10.452 1.433 2.083 2.805 4.415 3.048 5.182.514 1.62-2.803 8.64-4.366 9.24-.569.218-2.264 2.499-3.767 5.069s-3.047 4.672-3.43 4.672-2.931-1.985-5.66-4.411c-4.5-4-5.118-4.331-6.624-3.552-5.627 2.912-5.724 6.458-.363 13.296 2.461 3.139 2.37 3.336-2.728 5.917-4.134 2.093-5.06 1.735-6.208-2.398-1.666-5.999-.524-32.135 1.433-32.787.406-.135.742-1.121.748-2.19.009-1.761 2.69-12.147 6.476-25.086 3.816-13.039 5.187-33.996 3.782-57.785-1.224-20.725-1.934-23.627-13.902-56.867l-7.339-20.414c-2.705-7.552-6.076-20.767-7.533-29.527-1.499-9.009-2.679-30.066-1.921-34.266 1.848-10.235 5.827-22.092 11.931-35.547 1.866-4.113 3.392-7.756 3.392-8.097 0-.848 4.511-6.775 9.509-12.494 2.278-2.606 5.698-7.2 7.6-10.207s4.781-6.839 6.399-8.515 3.633-4.204 4.48-5.618c4.163-6.954 7.655-11.187 12.861-15.592 5.378-4.551 17.115-12.397 21.122-14.12 1.002-.431 2.315-1.064 2.916-1.407 7.661-4.366 16.108-8.69 17.814-9.117a21.98 21.98 0 0 0 4.01-1.513c1.029-.538 2.597-.979 3.484-.981s3.348-.615 5.468-1.36c9.915-3.487 20.814-5.032 40.646-5.761 14.377-.529 18.193-.468 19.685.31 1.018.531 2.749.968 3.848.97s5.036 1.186 8.749 2.631l10.396 3.921c2.005.712 6.926 2.772 10.936 4.577s12.212 4.994 18.227 7.086c10.264 3.57 12.917 4.161 32.808 7.308 2.406.381 14.381 1.041 26.611 1.467l29.892 1.442c8.521.743 19.125 3.523 22.916 6.008 2.324 1.524 2.422 1.745 1.531 3.463a50.45 50.45 0 0 0-1.748 3.841c-.437 1.103-1.26 2.005-1.827 2.005-1.66 0-1.97 2.025-.713 4.66.868 1.82.989 2.98.474 4.525-.795 2.386-2.267 2.845-11.641 3.63l-5.954.499-1.896-3.741c-1.812-3.576-2.026-3.741-4.856-3.741-3.969 0-7.222 3.082-7.222 6.841 0 2.396-.216 2.643-3.053 3.493-2.017.604-4.319 2.222-6.785 4.768-3.71 3.831-3.759 3.854-8.222 3.854-5.306 0-5.597.34-6.232 7.291-.677 7.406-2.347 11.437-5.323 12.849-3.02 1.433-5.123 3.966-6.035 7.267-.994 3.6-.286 5.158 2.928 6.444 4.646 1.859 7.148 1.452 10.806-1.761 1.781-1.563 3.472-2.698 3.758-2.521s1.514 2.083 2.729 4.235 2.779 4.132 3.477 4.4c1.458.56 6.845-.12 8.356-1.054 1.375-.85 1.188-6.218-.272-7.831-1.371-1.515-4.865-8.872-4.875-10.266-.016-2.211 10.672-15.409 12.479-15.409.251 0 1.656 4.79 3.121 10.645 3.062 12.232 4.502 15.468 8.108 18.218l2.585 1.972-1.612 1.716c-.887.944-2.16 1.716-2.83 1.716s-1.843.691-2.607 1.536-2.571 2.139-4.017 2.877c-1.663.849-3.736 3.03-5.643 5.937-1.659 2.528-4.156 6.002-5.551 7.72-3.952 4.871-6.316 13.224-6.77 23.926-.425 10 .033 12.027 5.251 23.255 2.448 5.267 4.046 7.542 8.102 11.534 9.218 9.073 12.841 10.724 23.883 10.888 7.463.11 19.727-1.787 20.592-3.186.219-.355 1.029-.645 1.8-.645 1.92 0 11.296-8.987 13.639-13.074a117.62 117.62 0 0 1 3.889-6.247c1.24-1.827 2.159-4.387 2.458-6.853.263-2.165 1.15-6.758 1.971-10.207 3.193-13.408 3.018-25.887-.447-31.799-2.933-5.004-12.191-13.146-17.012-14.961-6.503-2.448-12.911-3.635-22.244-4.119-6.011-.312-8.373-.678-7.837-1.213 1.255-1.255.879-5.209-1.036-10.914-.991-2.952-2.507-8.574-3.369-12.494-1.712-7.784-1.546-8.382 2.33-8.405 1.044-.006 3.85-.215 6.235-.464l4.337-.453 1.236 4.445c1.431 5.148 3.605 7.146 6.885 6.328 3.168-.791 4.562-2.489 4.562-5.557 0-1.516.334-3.634.742-4.708.803-2.112.848-2.114 12.199-.582l3.099.418v3.875c0 4.966 1.137 6.166 5.843 6.166 4.743 0 5.822-1.518 5.822-8.193 0-4.804.071-4.995 2.369-6.397 1.303-.795 2.698-1.442 3.099-1.438.855.008 6.699 8.92 9.372 14.293 3.607 7.251 6.964 16.104 10.2 26.902 3.665 12.231 4.453 15.893 5.567 25.868 1.649 14.765.764 22.097-2.901 24.059-.803.43-1.459 1.48-1.459 2.335s-1.148 3.643-2.552 6.197-2.552 4.989-2.552 5.414-.656 1.605-1.458 2.625-1.458 2.466-1.458 3.214-.284 1.36-.631 1.36-1.366 2.051-2.265 4.557-4.413 10.298-7.81 17.315c-14.188 29.308-15.736 33.954-23.551 70.72l-4.748 22.237c-2.123 9.862-3.753 20.781-4.68 31.35-.387 4.411-1.215 9.24-1.839 10.73s-1.136 4.355-1.136 6.364-.68 5.875-1.511 8.59c-2.167 7.08-2.74 9.547-3.221 13.886-.77 6.943-7.473 24.631-10.8 28.498-.564.656-1.762 2.699-2.661 4.541s-2.511 3.865-3.581 4.497-4.072 3.084-6.672 5.448-6.267 5.347-8.15 6.628-5.656 4.816-8.384 7.855-6.93 6.86-9.336 8.491-6.835 5.476-9.842 8.545-7.108 6.761-9.113 8.207-5.252 4.494-7.215 6.776-4.513 4.477-5.666 4.879-2.428 1.352-2.835 2.112-1.396 1.381-2.198 1.381c-1.029 0-1.863.944-2.832 3.205-1.068 2.493-1.934 3.39-3.896 4.037-1.387.458-3.106 1.478-3.82 2.266s-2.64 1.785-4.28 2.215-5.771 2.047-9.18 3.593-8.33 3.186-10.936 3.643-5.429 1.275-6.272 1.818-3.96 1.714-6.926 2.603-6.611 2.225-8.098 2.97-3.812 1.354-5.164 1.354-2.706.246-3.008.547-1.587.596-2.856.657c-3.053.145-9.251 1.578-10.966 2.535-1.898 1.059-14.906 2.209-16.382 1.449-2.727-1.405-6.617-1.612-8.395-.448-1.585 1.039-1.871 1.042-2.883.029-1.419-1.419-2.413-1.429-2.95-.03-.519 1.353-7.53 1.339-25.618-.051zm60.358-24.702c.889-.582 4.076-1.406 7.083-1.83 11.348-1.6 20.939-4.261 27.705-7.685 1.805-.914 5.377-2.512 7.937-3.553s5.698-2.687 6.974-3.66 3.861-2 5.746-2.283c2.633-.395 4.715-1.509 8.979-4.804 3.053-2.359 5.857-4.29 6.231-4.29 1.041 0 5.689-10.563 5.689-12.93 0-1.149.307-2.401.681-2.782 1.058-1.076 2.394-21.095 1.818-27.244-.494-5.275-5.571-21.027-10.711-33.233-3.432-8.149-4.912-14.128-4.912-19.839 0-4.982-.196-5.716-2.196-8.242-2.747-3.468-4.033-7.078-5.469-15.354-1.143-6.59-1.112-17.94.128-46.589.558-12.886.113-14.594-5.071-19.487-3.827-3.612-16.681-11.285-20.366-12.157-1.094-.259-3.729-1.888-5.857-3.621-5.414-4.41-7.645-5.779-8.527-5.234-.419.259-.761.147-.761-.248 0-.689-3.987-3.013-5.169-3.013-.314 0-.674 1.066-.799 2.369-.221 2.294-.344 2.376-3.874 2.579-2.005.115-4.679.69-5.943 1.276-1.475.684-4.63 1.066-8.815 1.066-3.585 0-8.047.46-9.915 1.023-1.934.582-3.573.739-3.804.365-.842-1.363-2.601-.671-2.371.932.275 1.917-3.303 4.305-6.591 4.399-1.753.05-2.264.475-2.791 2.322-.425 1.49-1.177 2.338-2.206 2.486-.858.124-2.085 1.026-2.726 2.005s-1.598 1.779-2.126 1.779-1.321.792-1.761 1.759-1.431 1.959-2.201 2.204-1.98 1.731-2.689 3.304-2.063 3.587-3.008 4.475-1.908 2.793-2.138 4.232c-.438 2.731-2.266 6.652-3.48 7.464-1.097.733-.805 7.878.487 11.922 1.564 4.896 2.656 17.946 2.654 31.715-.001 12.442-.572 15.611-3.416 18.991-1.53 1.818-1.881 2.943-1.772 5.673.301 7.544.196 8.91-.947 12.353-.655 1.972-2.001 4.684-2.992 6.027s-1.802 3.036-1.802 3.761-.656 2.543-1.458 4.04-1.458 3.262-1.458 3.924-.49 2.143-1.089 3.292-1.102 2.58-1.117 3.182-.509 1.73-1.098 2.509c-.676.894-1.07 3.094-1.07 5.972 0 2.63-.352 4.774-.833 5.071-.592.366-.715 3.387-.425 10.432.424 10.306 2.038 19.979 3.949 23.675 1.563 3.023 7.415 9.121 10.044 10.467 1.216.622 4.015 2.671 6.22 4.552s6.47 4.99 9.478 6.909 6.852 4.612 8.544 5.986c3.523 2.861 9.551 5.694 14.598 6.861 1.908.441 4.126 1.079 4.928 1.418s2.606.81 4.01 1.049 3.372 1.075 4.374 1.859c2.17 1.697 5.267 1.863 7.5.4zm89.736-273.983c1-3.731.459-13.278-.959-16.937-.78-2.013-2.287-6.776-3.349-10.586s-2.258-7.543-2.657-8.298-1.159-2.887-1.687-4.739c-1.882-6.598-6.906-17.618-9.847-21.599-4.016-5.436-20.382-16.399-24.481-16.399-.871 0-1.957-.451-2.414-1.001-.928-1.118-6.762-2.387-13.929-3.031-5.68-.51-13.927 1.087-16.877 3.268-1.111.821-2.762 1.493-3.668 1.493-1.132 0-4.471 2.798-10.657 8.931l-10.228 10.35c-1.222 1.422-5.864 6.56-8.408 9.306-.745.805-2.508 3.806-3.917 6.67l-3.842 7.758a45.64 45.64 0 0 0-2.195 5.409 31.46 31.46 0 0 1-2.355 5.297c-1.841 3.121-1.258 6.86 1.395 8.947 2.293 1.804 7.624 2.039 8.988.396.499-.601 1.524-1.094 2.276-1.094s1.369-.183 1.369-.407.362-2.767.803-5.65c.662-4.323 1.512-6.394 4.842-11.805 2.221-3.609 5.229-7.71 6.684-9.113s3.271-3.536 4.035-4.739c2.901-4.566 12.528-14.354 15.767-16.03 4.785-2.476 12.111-4.222 15.6-3.717 1.616.234 4.579.528 6.584.654 3.87.242 12.753 4.265 16.674 7.551 1.151.965 3.153 2.197 4.448 2.738 2.94 1.228 4.854 3.915 6.791 9.533.83 2.406 2.165 5.851 2.968 7.655s3.298 10.459 5.545 19.233 4.451 16.648 4.897 17.498c1.351 2.577 4.219 3.901 8.714 4.025 2.162.059 2.73-.229 3.089-1.568zm-189.539-1.241c1.562-.362 3.039-.946 3.281-1.296s2.058-1.244 4.036-1.987c5.074-1.904 14.397-8.43 15.712-10.997.608-1.188 1.36-2.272 1.67-2.408 1.339-.591 11.656-17.212 12.85-20.703 2.901-8.48 3.188-10.951 1.982-17.081-1.766-8.978-5.259-21.302-6.43-22.682-.586-.691-1.936-2.782-3-4.647s-3.498-4.774-5.409-6.465c-4.964-4.391-15.169-8.997-19.696-8.889l-3.645.053c-13.447-.037-13.165-.072-17.484 2.163-2.313 1.197-5.616 2.756-7.339 3.464s-3.364 1.658-3.645 2.111-2.078 1.41-3.992 2.127-4.046 2.105-4.739 3.085-2.195 3-3.338 4.49c-3.458 4.507-5.415 9.057-8.596 19.984-2.855 9.807-3.035 10.974-3.015 19.543.043 18.203 6.061 31.382 16.492 36.116 7.631 3.463 26.944 5.726 34.304 4.018zm-21.068-13.452c-2.406-.484-5.031-1.244-5.833-1.689-6.467-3.585-11.207-16.099-11.275-29.763-.021-4.224.509-6.615 2.988-13.488 4.336-12.021 6.622-14.986 14.796-19.191 3.638-1.871 6.942-3.399 7.343-3.396s1.713-.562 2.916-1.257c1.732-1.001 3.815-1.249 10.012-1.189 4.463.043 8.236.416 8.782.87.527.437 2.747 1.722 4.934 2.855 4.638 2.402 9.263 8.554 11.215 14.916l2.322 7.301c.942 2.851.997 4.309.326 8.637-.444 2.864-1.321 6.241-1.949 7.506-2.797 5.636-9.753 15.65-13.619 19.608-3.488 3.571-4.41 4.17-5.292 3.438-1.444-1.199-5.564-.452-8.181 1.483-1.184.876-3.926 1.804-6.266 2.122-2.288.311-4.542.946-5.008 1.412-1.015 1.015-2.443.985-8.211-.176zm19.307-22.665c1.243-.643 2.479-2.132 3.027-3.645.643-1.779 1.381-2.564 2.419-2.577 1.117-.014 2.092-1.259 3.863-4.935 5.306-11.01 1.913-16.258-11.275-17.439-2.601-.233-4.536.026-6.127.819-1.278.638-2.684 1.172-3.124 1.188-.978.034-3.539 3.635-5.575 7.838-1.329 2.743-1.406 3.459-.625 5.825.49 1.484 1.823 4.213 2.963 6.066s2.073 3.923 2.073 4.6c0 2.8 8.378 4.33 12.381 2.261zm246.631 25.089c-3.316-.997-8.445-4.601-11.309-7.947-1.336-1.56-3.724-5.401-5.308-8.535l-2.879-5.698-.44-23.33 6.782-7.655c5.081-5.735 7.786-8.159 10.784-9.663 3.803-1.909 4.417-1.995 12.386-1.736 9.065.295 15.62 1.905 20.015 4.917 1.333.914 3.855 3.775 5.603 6.359 3.116 4.604 3.177 4.809 3.044 10.248-.196 7.998-5.619 24.382-9.119 27.55-.724.656-1.317 1.633-1.317 2.173 0 .658-.959.981-2.916.981-3.188 0-3.523.671-1.823 3.645 1.533 2.682 1.354 3.372-1.42 5.489-3.719 2.836-16.93 4.753-22.083 3.204zm8.445-23.582c1.064-.57 3.486-1.745 5.382-2.609 3.427-1.563 7.218-5.51 8.142-8.478.558-1.794-1.358-8.045-3.052-9.956-.635-.716-1.585-1.136-2.111-.934s-.957-.102-.957-.675c0-1.219-5.105-2.79-6.868-2.114-.656.252-1.507 1.045-1.891 1.764-.453.846-1.218 1.171-2.171.922-.809-.212-2.006.064-2.659.613s-2.501 1.654-4.106 2.456c-3.298 1.647-4.876 5.002-4.895 10.406-.009 2.644.444 3.608 2.998 6.379 2.788 3.025 3.275 3.265 6.631 3.265 1.992 0 4.493-.467 5.557-1.037zM226.148 343.367c-.415-.415-4.827-1.115-9.806-1.556s-9.356-1.078-9.727-1.416c-.406-.369-.227-1.13.449-1.908.618-.711 1.354-2.258 1.636-3.438.303-1.27 2.691-4.318 5.854-7.47 6.932-6.91 15.292-11.173 22.991-11.724 5.042-.361 5.073-.351 5.892 1.739 1.835 4.688-.857 19.867-4.205 23.716-1.946 2.237-11.413 3.724-13.082 2.055zm35.093 15.413c-2.188-.947-5.441-4.455-5.927-6.391-.479-1.907-.271-3.395 1.87-13.372 2.866-13.355 4.58-19.638 5.583-20.471 1.389-1.153 4.026-.56 10.868 2.441 14.706 6.451 16.816 8.346 16.691 14.989-.19 10.092-1.127 16.983-2.361 17.377l-2.3.755c-.601.204-2.282.47-3.735.592s-3.713.776-5.022 1.453c-1.855.959-2.762 1.058-4.103.447-1.369-.624-1.722-.573-1.722.251 0 .569-.265 1.199-.589 1.399-1.222.755-7.855 1.135-9.254.529zm-56.151 41.297c-.543-2.904-.151-42.551.426-43.126.228-.227 2.688.047 5.468.609s7.817 1.252 11.193 1.534c5.995.5 6.221.589 9.631 3.779 1.921 1.797 4.316 4.919 5.322 6.939 2.552 5.122 2.002 10.852-1.611 16.778-1.406 2.306-3.032 4.192-3.614 4.192s-1.23.656-1.44 1.458-.896 1.458-1.525 1.458-1.868.68-2.752 1.511-2.054 1.582-2.599 1.669-1.832.717-2.86 1.4c-1.721 1.144-12.064 4.168-14.253 4.168-.519 0-1.143-1.066-1.387-2.369zm65.107 3.137c-1.089-.86-2.317-2.778-2.73-4.264-.951-3.423-.995-14.731-.057-14.731.386 0 1.044-1.274 1.463-2.831.953-3.54 2.251-4.66 4.692-4.047 1.679.421 1.892.258 1.892-1.45 0-1.059.41-2.029.911-2.156s2.06-.637 3.463-1.133l3.687-1.252c.624-.193 1.849.246 2.722.974 1.348 1.125 1.862 3.184 3.421 13.718l1.835 12.941c0 .301-.637.547-1.415.547s-1.618.328-1.866.729-1.077.729-1.843.729-2.75.708-4.41 1.573c-4.478 2.334-9.298 2.602-11.766.653zm11.823 47.716c-1.002-.573-2.701-1.054-3.775-1.068-2.159-.029-4.974-2.983-4.974-5.22 0-.744-.656-3.078-1.458-5.187-1.908-5.02-1.843-6.058.655-10.412 3.307-5.765 7.954-9.628 12.209-10.147 1.947-.238 5.137-.795 7.088-1.239 2.872-.653 3.666-.616 4.173.194.896 1.432 6.28 16.454 7.228 20.167.439 1.72 1.603 4.64 2.585 6.488s1.787 4.124 1.787 5.057c0 1.519-.195 1.622-1.87.985-2.98-1.133-15.281-.876-18.292.383-3.136 1.31-3.064 1.31-5.356 0z"/><path d="M188.699 454.401c0-4.767 2.603-13.676 6.115-20.937 2.142-4.428 4.292-9.28 4.778-10.783 1.386-4.287 2.83-4.925 8.467-3.744 2.598.545 5.524 1.514 6.501 2.154 2.174 1.424 9.533 13.219 10.564 16.932 1.234 4.445.957 11.432-.518 13.057-2.46 2.71-7.814 3.714-22.237 4.172-12.73.403-13.67.345-13.67-.851zm28.556 50.405c-2.316-1.154-4.237-2.726-4.901-4.01-1.047-2.024-1.303-2.112-6.191-2.112-5.671 0-7.995-1.081-13.531-6.295-2.365-2.227-3.407-4.072-4.965-8.786-1.252-3.788-1.89-7.117-1.746-9.113l.226-3.146 11.301-1.294c14.977-1.715 16.447-1.537 21.281 2.58 2.13 1.814 5.513 4.255 7.518 5.425 2.356 1.375 4.233 3.187 5.308 5.122 1.978 3.563 3.028 11.986 1.695 13.593-.473.57-1.004 1.808-1.179 2.752-.394 2.126-4.265 5.725-6.157 5.725-.772 0-1.606.328-1.854.729-.737 1.192-2.765.844-6.803-1.169zm67.558-2.994c-6.433-3.991-7.717-19.521-2.038-24.66.788-.713 1.433-1.819 1.435-2.459s.658-2.237 1.458-3.55 1.455-2.865 1.455-3.449.752-1.251 1.671-1.481c1.57-.394 22.547-1.716 22.93-1.445.097.069.508 1.868.911 3.997 1.096 5.779.935 11.347-.359 12.421-.724.601-1.094 2.233-1.094 4.828 0 2.884-.271 3.921-1.026 3.921-.564 0-2.572 1.719-4.461 3.821s-4.38 4.218-5.536 4.704-2.101 1.204-2.101 1.596c0 .821-7.045 3.013-9.59 2.984-.941-.011-2.586-.562-3.656-1.226zM415.02 117.426c.498-5.049.494-5.062-2.093-7.926-1.425-1.578-2.591-3.239-2.591-3.691s-.574-.849-1.276-.881c-.72-.032-.89-.214-.389-.417 1.388-.563 12.111 3.356 13.33 4.872.601.748 2.078 1.757 3.281 2.241 1.795.723 1.941.939.815 1.203-1.219.286-1.322.805-.92 4.65.497 4.752-.52 6.104-3.289 4.375-.969-.605-1.792-.64-2.772-.115a7.54 7.54 0 0 1-2.994.746c-1.542 0-1.582-.185-1.102-5.058z"/></g></svg>