<?xml version="1.0" encoding="UTF-8" standalone="no"?>
<svg
   xmlns:dc="http://purl.org/dc/elements/1.1/"
   xmlns:cc="http://creativecommons.org/ns#"
   xmlns:rdf="http://www.w3.org/1999/02/22-rdf-syntax-ns#"
   xmlns:svg="http://www.w3.org/2000/svg"
   xmlns="http://www.w3.org/2000/svg"
   xmlns:sodipodi="http://sodipodi.sourceforge.net/DTD/sodipodi-0.dtd"
   xmlns:inkscape="http://www.inkscape.org/namespaces/inkscape"
   width="692"
   height="802.667"
   viewBox="0 0 519 602"
   preserveAspectRatio="xMidYMid meet"
   version="1.1"
   id="svg8"
   sodipodi:docname="face3.svg"
   inkscape:version="1.0.1 (3bc2e813f5, 2020-09-07)">
  <metadata
     id="metadata14">
    <rdf:RDF>
      <cc:Work
         rdf:about="">
        <dc:format>image/svg+xml</dc:format>
        <dc:type
           rdf:resource="http://purl.org/dc/dcmitype/StillImage" />
      </cc:Work>
    </rdf:RDF>
  </metadata>
  <defs
     id="defs12" />
  <sodipodi:namedview
     pagecolor="#ffffff"
     bordercolor="#666666"
     borderopacity="1"
     objecttolerance="10"
     gridtolerance="10"
     guidetolerance="10"
     inkscape:pageopacity="0"
     inkscape:pageshadow="2"
     inkscape:window-width="1920"
     inkscape:window-height="1027"
     id="namedview10"
     showgrid="false"
     inkscape:zoom="0.7576141"
     inkscape:cx="243.79551"
     inkscape:cy="394.46346"
     inkscape:window-x="1912"
     inkscape:window-y="-8"
     inkscape:window-maximized="1"
     inkscape:current-layer="svg8" />
  <path
     d="m 193.77506,111.39099 c -1.99699,0.29585 -5.02947,0.96151 -6.65665,1.33133 -2.81057,0.73962 -4.1419,1.03547 -8.80156,1.84906 -1.1834,0.22189 -2.73662,0.73963 -3.47624,1.1834 -0.73963,0.36982 -1.62718,0.5917 -1.92304,0.51775 -0.73962,-0.14793 -9.3193,3.84605 -9.83703,4.58568 -0.2219,0.29585 -2.21889,1.33133 -4.51173,2.29285 -2.29284,0.96151 -5.17739,2.58869 -6.50872,3.62417 -5.54721,4.21588 -7.17439,5.62116 -8.06194,6.80457 -0.51773,0.73962 -1.33133,1.33133 -1.7751,1.33133 -1.47926,0 -14.27481,12.64762 -19.08238,18.93445 -1.62718,1.99699 -3.03247,4.43776 -3.18039,5.25135 -0.0739,0.88756 -0.5917,1.99699 -1.03548,2.5887 -1.1834,1.40528 -3.69814,7.24834 -4.28984,9.83703 -2.66266,12.4997 -2.29285,33.727 0.88755,41.78893 0.22189,0.59171 0.51774,1.62718 0.59171,2.21889 0.14792,0.5917 1.25736,4.06795 2.58869,7.76608 1.25737,3.62418 2.29285,7.24834 2.29285,7.91401 0,0.73963 0.29585,1.33133 0.73961,1.33133 0.36982,0 0.66567,0.44378 0.66567,0.96151 0,0.59171 1.84907,4.65965 4.06795,9.02346 2.21888,4.43776 4.06795,8.72759 4.06795,9.46722 0,0.73962 0.29585,1.1834 0.66566,0.96152 0.36982,-0.2219 0.88756,0.44377 1.18341,1.62718 0.22189,1.10943 1.25737,3.03247 2.29285,4.36379 0.96151,1.25738 1.77509,2.66266 1.77509,3.03248 0,0.44378 0.2219,0.88755 0.59171,1.03548 0.29585,0.0739 2.14492,3.40228 4.14191,7.24834 1.997,3.84606 4.06795,7.24835 4.58569,7.61816 0.51774,0.29585 1.33133,1.70114 1.7751,3.10643 0.44378,1.4053 1.18341,2.5887 1.55322,2.5887 0.36981,0 0.66566,0.44378 0.66566,1.03548 0,0.51773 0.51775,1.40528 1.18341,1.92303 0.5917,0.5917 1.62718,1.99699 2.21888,3.25436 0.96152,2.14491 3.32832,6.65664 4.80757,9.31929 3.32833,6.13891 6.65665,13.75707 8.80157,20.33975 0.96151,2.81058 1.92303,5.47324 2.21888,5.91702 0.29586,0.36981 0.73963,1.92303 0.96152,3.32832 0.14792,1.40529 0.73962,4.58569 1.25736,6.95249 1.1834,5.84305 0.51774,27.95791 -1.1834,42.23271 -0.29585,2.44077 -0.51774,4.65965 -0.44377,4.9555 0.0739,0.36982 -0.2219,0.5917 -0.59171,0.5917 -0.44377,0 -0.73962,1.1834 -0.73962,2.5887 0,1.40529 -0.29585,2.58869 -0.5917,2.58869 -0.88756,0 -1.10945,2.51473 -1.18341,11.83404 -0.074,8.94948 0.66566,18.19482 1.70114,20.93145 0.36982,0.88755 0.44378,2.07095 0.22189,2.66265 -0.14792,0.51774 0,1.18341 0.44378,1.47926 0.36981,0.22188 0.88755,1.55321 1.10944,2.88454 0.22188,1.33133 0.73962,2.81058 1.10943,3.32832 0.36982,0.51774 0.96152,1.997 1.25737,3.32833 0.22189,1.25736 0.73963,2.3668 1.03548,2.3668 0.29585,0 1.03548,1.40529 1.62718,3.10644 0.51774,1.77509 1.84907,3.99398 2.88454,5.02945 1.03548,1.03548 3.92003,4.21588 6.3608,7.02647 6.06494,6.87853 8.35778,9.24534 13.46122,13.90498 6.95248,6.21287 8.72759,7.69213 10.57666,8.65364 0.96151,0.51774 2.95851,1.997 4.3638,3.40228 2.51473,2.36681 10.65063,7.69213 11.83403,7.69213 0.29586,0 1.10944,0.66566 1.77511,1.40528 0.73963,0.8136 2.07096,1.62718 3.10643,1.84908 0.96152,0.29585 1.7751,0.81358 1.7751,1.1834 0,0.44378 0.51774,0.73963 1.10945,0.73963 0.5917,0 1.10943,0.29585 1.10943,0.73963 0,0.3698 0.51775,0.73962 1.10945,0.73962 0.5917,0 1.10943,0.29585 1.10943,0.73963 0,0.36981 0.59171,0.73963 1.33133,0.73963 0.73963,0 1.997,0.44377 2.81059,1.03548 0.81359,0.5917 2.73662,1.25736 4.21587,1.55321 1.47925,0.29585 2.73662,0.88755 2.73662,1.25737 0,0.44378 0.51774,0.36981 1.10944,-0.14793 0.96152,-0.73962 1.4053,-0.66567 2.66266,0.44378 1.33133,1.1834 2.66266,1.33133 11.61214,1.1834 5.54721,-0.074 11.68611,-0.44377 13.60915,-0.73962 1.84906,-0.36982 3.77209,-0.44378 4.21587,-0.2219 0.44377,0.29585 2.73662,0.2219 5.02946,-0.0739 2.36681,-0.29585 7.69213,-0.66567 11.83404,-0.73963 4.06795,-0.14792 7.32231,-0.44377 7.17438,-0.73962 -0.14793,-0.29585 0.73963,-0.44378 2.07096,-0.44378 h 33.87492 c 6.1389,0 15.4582,-0.73963 20.85748,-1.70115 2.29284,-0.36981 4.43776,-0.66566 4.80757,-0.5917 0.73963,0.22189 6.21287,-1.10943 11.68611,-2.81058 0.44378,-0.0739 2.29284,-0.66566 4.21587,-1.18341 1.997,-0.51773 3.92003,-1.33132 4.43777,-1.84906 0.51774,-0.51774 1.47925,-0.88755 2.14492,-0.88755 0.66566,0 1.40529,-0.51775 1.70114,-1.10945 0.22189,-0.5917 0.88755,-0.88755 1.47925,-0.66566 0.59171,0.22189 1.70114,0.0739 2.51474,-0.36981 1.10943,-0.5917 1.62718,-0.5917 1.84906,0.14792 0.29585,0.66567 0.44378,0.66567 0.44378,-0.0739 0.0739,-0.44378 0.5917,-0.88755 1.1834,-0.88755 0.5917,0 1.77511,-1.25737 2.5887,-2.81059 l 2.14492,-3.84606 c 1.40529,-2.44077 2.3668,-5.10342 3.84606,-10.72459 l 1.92303,-7.39627 c 1.25736,-5.02946 1.47925,-22.55862 0.22188,-22.55862 -0.29585,0 -0.73962,-1.997 -1.03548,-4.51173 -0.22188,-2.44077 -0.66566,-4.88155 -0.96151,-5.32532 -0.29585,-0.51774 -0.44377,-1.7751 -0.29585,-2.88454 0.0739,-1.18341 -0.14792,-2.07096 -0.66566,-2.07096 -0.44377,0 -0.73962,-0.5917 -0.5917,-1.33133 0.0739,-0.66566 0,-1.62718 -0.22189,-1.99699 -0.29585,-0.44377 -0.88755,-2.07095 -1.40529,-3.69813 -0.51774,-1.62718 -1.1834,-3.32833 -1.47925,-3.69814 -0.29586,-0.44378 -0.96152,-2.44077 -1.47926,-4.43777 -0.51774,-2.07095 -1.92303,-6.58267 -3.10643,-10.13288 -1.10945,-3.55022 -2.21889,-7.69213 -2.36681,-9.24534 -0.22189,-1.55322 -0.73963,-4.65966 -1.1834,-6.87853 -1.18341,-5.84306 -1.70115,-17.15935 -1.84907,-43.26818 -0.074,-13.38726 -0.51774,-24.70356 -1.03548,-27.21829 l -1.47925,-8.13589 a 189.0191,189.0191 0 0 0 -1.62718,-7.91402 c -0.51774,-2.21887 -0.88755,-4.43775 -0.8136,-4.9555 0.14793,-0.44377 -0.14792,-1.03547 -0.5917,-1.33132 -0.36981,-0.22189 -0.73962,-1.25737 -0.73962,-2.21889 0,-0.96151 -0.36981,-1.99699 -0.73963,-2.21888 a 1.4274802,1.4274802 0 0 1 -0.5917,-1.33133 c 0.29585,-1.40529 -1.77511,-7.91401 -2.51474,-7.91401 -0.36981,0 -0.44377,-0.3698 -0.22188,-0.73962 a 1.775105,1.775105 0 0 0 -0.14793,-1.70114 5.8208651,5.8208651 0 0 1 -0.66567,-1.62718 c -0.29585,-1.84907 -5.25134,-11.31629 -7.10041,-13.53518 -0.5917,-0.66567 -1.47925,-2.29285 -2.07095,-3.47625 -0.59171,-1.25736 -1.47926,-2.58869 -1.92304,-2.95851 -0.51774,-0.44377 -3.40228,-3.77209 -6.43476,-7.39626 -3.03247,-3.69814 -7.98796,-9.09741 -11.0944,-12.05592 -3.03247,-2.88455 -5.39927,-5.32532 -5.17739,-5.32532 0.22189,0 -1.55321,-1.47925 -3.99399,-3.25436 -2.3668,-1.77511 -4.9555,-3.92002 -5.69512,-4.80757 -0.8136,-0.88756 -1.77511,-1.55322 -2.29285,-1.55322 -0.44378,0 -1.62718,-0.81359 -2.58869,-1.84907 -0.96151,-1.03548 -2.07096,-1.84907 -2.58869,-1.84907 -0.44378,0 -1.25737,-0.66566 -1.84908,-1.47926 -0.5917,-0.81358 -1.47925,-1.47925 -1.92303,-1.47925 -0.44377,0 -3.03246,-1.70114 -5.69512,-3.69814 -2.66266,-2.07094 -5.10343,-3.69812 -5.32532,-3.69812 -1.40529,0 -15.82801,-13.01744 -18.34275,-16.64161 -0.73963,-1.03548 -1.62718,-1.70115 -2.07095,-1.47926 -0.36982,0.29585 -0.66567,0.14793 -0.66567,-0.29585 0,-0.36982 -1.99699,-2.81058 -4.43777,-5.39928 -2.44076,-2.51473 -4.43775,-4.9555 -4.43775,-5.32531 0,-0.44378 -1.25737,-1.92303 -2.81059,-3.32833 -2.81058,-2.66266 -7.02646,-8.06193 -11.83403,-15.23631 -1.33133,-1.997 -3.10644,-4.28984 -3.92002,-5.17739 -2.14493,-2.29285 -6.73062,-7.76608 -9.61516,-11.46422 -4.73361,-6.21287 -12.35177,-12.57367 -16.93746,-14.20085 -1.25736,-0.36981 -2.21888,-1.03547 -2.21888,-1.40528 0,-0.36982 -1.62718,-1.33133 -3.69814,-2.21889 -1.99699,-0.88755 -3.69813,-1.84907 -3.69813,-2.21888 0,-0.36982 -0.51774,-0.66567 -1.1834,-0.66567 -0.66567,0 -5.25136,-1.33132 -10.1329,-3.03246 -4.9555,-1.62718 -9.76307,-2.88455 -10.65062,-2.66266 -0.96152,0.14792 -1.92303,0 -2.14492,-0.29585 -0.44378,-0.73963 -6.58268,-0.66566 -11.76007,0.22189 z m 13.6831,6.87853 c 1.03547,0.5917 3.03247,1.03547 4.43776,1.10943 1.47925,0 3.32832,0.51775 4.14191,1.10945 0.88756,0.5917 1.77511,0.81358 2.07096,0.5917 0.22188,-0.22189 1.99699,0.29585 3.92002,1.1834 l 6.13891,2.88454 c 3.92002,1.84908 14.49669,9.24534 18.19482,12.7216 1.84907,1.70113 4.65965,4.95549 6.3608,7.24834 1.62718,2.29284 3.40228,4.51173 3.84606,4.9555 0.44378,0.36981 2.51472,2.88454 4.51172,5.5472 2.07096,2.66266 3.92002,4.88154 4.28984,5.02947 0.29585,0.14792 0.51774,0.5917 0.51774,1.03548 0,0.44377 0.73962,1.70113 1.70114,2.81058 0.88756,1.10944 2.44077,3.18039 3.47625,4.51172 3.03246,4.06796 18.78652,21.37523 25.29524,27.80998 4.51173,4.43776 11.908,10.42874 16.64161,13.38725 2.5887,1.62718 8.80156,6.13891 13.23933,9.68912 0.36981,0.29584 1.55322,1.03547 2.5887,1.55321 4.80757,2.58869 23.29824,19.67408 29.51111,27.3662 l 4.58569,5.47325 c 1.10944,1.25736 2.07096,2.66266 2.07096,3.18039 0,0.44378 0.22188,0.96152 0.5917,1.10945 0.81358,0.3698 5.84305,8.13589 6.87853,10.65062 0.44377,1.1834 1.10944,2.81058 1.47925,3.62418 1.70115,3.99399 4.3638,12.57365 5.84305,18.86049 l 2.29285,9.39326 c 1.77511,5.91702 2.95851,15.60613 3.25436,26.25676 0.14793,6.43476 0.0739,11.76007 -0.22189,11.98196 -0.5917,0.36981 -0.5917,9.39326 0.14793,28.1798 0.51774,12.35177 2.44077,26.25675 4.14191,30.3247 0.36982,0.81359 1.1834,3.32832 1.84907,5.54721 l 1.92302,6.28682 c 0.44378,1.18341 1.10945,3.1804 1.4053,4.43777 0.36981,1.1834 1.1834,4.06794 1.84906,6.28683 0.66567,2.21888 1.70115,5.91701 2.21889,8.1359 0.51774,2.21888 1.55322,6.06494 2.21888,8.43175 1.62718,6.06493 1.62718,19.67407 0,20.85748 -0.66566,0.51773 -1.10944,1.1834 -1.03548,1.47925 0.29585,1.33133 -1.03548,8.50571 -1.62718,8.87553 -0.36981,0.22188 -0.51774,0.73963 -0.22188,1.10944 0.73962,1.1834 -2.21889,6.50872 -3.55022,6.58267 -0.73962,0 -1.33132,0.29586 -1.33132,0.66567 0,0.36981 -0.66567,0.88756 -1.4053,1.18341 -0.81359,0.22188 -2.66265,1.55321 -4.21587,2.95851 -2.36681,2.14491 -6.21287,3.92002 -7.84005,3.47624 -0.22189,-0.0739 -0.81359,0.36982 -1.33133,0.96152 -0.44378,0.51774 -1.33133,0.81359 -1.84906,0.66566 -0.51774,-0.22188 -1.77511,0 -2.73662,0.51774 -1.62718,0.88755 -3.92003,1.33132 -7.76609,1.62718 -0.96151,0.074 -1.70114,0.29585 -1.70114,0.51774 0,0.44378 -5.39928,0.88755 -11.83404,1.03548 -2.66266,0.0739 -5.02946,0.29585 -5.25135,0.66566 -0.29585,0.44377 -15.53216,0.88755 -16.93746,0.51774 -0.22188,-0.074 -1.84906,-0.22189 -3.69813,-0.29585 -1.84907,-0.14793 -4.58569,-0.51774 -6.06495,-0.81359 -1.47925,-0.29586 -3.18039,-0.22189 -3.69813,0.0739 -1.03547,0.66566 -0.81359,0.66566 -9.46722,1.47925 -3.47626,0.29585 -9.02346,0.51774 -12.35178,0.44378 -3.47625,-0.074 -6.13891,0.14792 -6.13891,0.5917 0,0.66566 -8.20986,0.96151 -25.88694,0.96151 -7.54419,0 -10.28082,-0.29585 -14.79254,-1.70114 -3.03248,-0.88755 -6.3608,-2.29285 -7.39627,-2.95851 -1.03548,-0.73962 -2.95851,-1.55322 -4.28984,-1.84907 -1.33133,-0.29585 -3.1804,-1.25736 -4.14192,-2.07095 -3.10643,-2.95851 -4.88153,-4.21588 -6.06493,-4.21588 -0.5917,0 -1.47925,-0.36981 -1.997,-0.73962 -3.47624,-2.95851 -4.58569,-3.69814 -5.84305,-4.14192 -0.81359,-0.22188 -1.25737,-0.88755 -1.03548,-1.40528 0.22189,-0.66567 0,-0.88756 -0.5917,-0.66567 -0.51774,0.22189 -1.997,-0.81359 -3.32832,-2.29284 -1.25737,-1.47926 -2.29285,-2.21889 -2.29285,-1.70114 -0.0739,0.51773 -0.73962,0.14792 -1.55321,-0.88755 -0.88755,-1.03548 -1.70115,-1.70115 -1.77511,-1.47926 -0.29585,0.44378 -9.39326,-7.5442 -11.76006,-10.28082 -0.88756,-0.96151 -2.29285,-2.51473 -3.10644,-3.47625 -0.88755,-0.88755 -1.4053,-1.84906 -1.1834,-2.07095 0.22188,-0.22189 -0.14793,-0.44378 -0.8136,-0.44378 -0.66566,0 -1.33133,-0.36981 -1.33133,-0.73963 -0.0739,-0.44377 -0.14792,-1.1834 -0.22188,-1.70114 0,-0.44377 -0.5917,-0.88755 -1.1834,-0.88755 -1.03548,0 -2.5887,-2.29285 -2.36681,-3.47625 0.0739,-0.36981 -0.36982,-0.5917 -0.96152,-0.5917 -0.59169,0 -1.10944,-0.51774 -1.10944,-1.25737 0,-0.66566 -0.22188,-0.96151 -0.51773,-0.73962 -0.2219,0.29585 -1.10945,-1.25736 -1.84908,-3.40229 -0.73962,-2.07095 -1.70113,-3.99399 -2.07095,-4.06794 -0.44378,-0.14793 -0.73963,-1.10945 -0.73963,-2.07096 0,-0.96152 -0.22188,-1.70115 -0.51773,-1.70115 -1.997,0.29585 -2.44078,-0.14792 -1.70115,-1.55321 0.44378,-0.81359 0.5917,-1.84907 0.29585,-2.36681 -0.29585,-0.44377 -0.66566,-2.14491 -0.81359,-3.84606 -0.22189,-1.70114 -0.81359,-4.73361 -1.40529,-6.7306 -1.40529,-5.10343 -0.44378,-25.22129 1.33133,-27.44017 0.88755,-1.18341 1.997,-12.64762 1.92303,-18.78653 -0.0739,-2.66265 0.14792,-9.3193 0.51774,-14.79254 0.88755,-13.75706 0.88755,-19.15634 -0.074,-19.82201 -1.18341,-0.81358 -1.77511,-3.03246 -1.03548,-3.47624 0.44378,-0.29585 0.73963,-0.81359 0.73963,-1.1834 0,-0.44378 -0.36981,-0.51775 -0.88756,-0.2219 -0.5917,0.36982 -0.66566,0.14793 -0.3698,-0.66566 0.29585,-0.73962 0.14792,-1.1834 -0.44378,-1.03547 -0.51774,0.0739 -0.88755,-0.59171 -0.88755,-1.55323 0,-0.88755 -0.44378,-1.92303 -1.03548,-2.29284 -0.51775,-0.36981 -0.8136,-0.96151 -0.51775,-1.40528 0.2219,-0.36982 -0.0739,-1.10945 -0.66566,-1.62718 -0.81359,-0.66567 -0.88755,-1.18341 -0.36981,-1.84908 0.51774,-0.66566 0.51774,-1.10943 0.074,-1.40528 -0.36982,-0.29585 -1.10945,-2.29285 -1.62718,-4.51173 -0.51774,-2.21889 -1.47926,-4.65965 -2.29284,-5.47324 -0.73963,-0.81359 -1.25737,-2.21888 -1.10945,-3.1804 0.074,-1.03548 -0.22188,-1.62718 -0.73962,-1.47925 -0.81359,0.14792 -1.40529,-1.62718 -0.81359,-2.29284 0.14793,-0.0739 -0.51774,-1.18341 -1.47925,-2.51474 -0.88756,-1.25737 -1.62718,-2.51473 -1.62718,-2.88455 0,-0.73963 -5.32532,-8.72759 -6.21287,-9.31929 -0.44378,-0.29585 -0.5917,-0.73963 -0.29585,-0.96152 0.22188,-0.22189 -0.36982,-1.33133 -1.33133,-2.36681 -1.03548,-1.10944 -1.70114,-2.29284 -1.55322,-2.73662 0.14793,-0.44377 -0.51774,-1.55321 -1.47925,-2.51473 -0.96152,-0.88755 -1.4053,-1.62718 -0.96152,-1.62718 0.5917,0 0.51774,-0.36981 -0.14793,-1.03548 -3.40228,-3.47624 -6.50872,-8.65363 -6.50872,-10.72459 0,-0.44378 -0.29585,-0.81358 -0.73962,-0.81358 -0.36981,0 -0.73963,-0.44378 -0.73963,-1.03548 0,-0.51775 -0.44378,-1.4053 -1.03548,-1.84908 -0.5917,-0.51773 -1.33133,-1.84906 -1.55321,-3.03246 -0.22189,-1.18341 -0.96152,-2.29285 -1.55322,-2.51474 -0.59171,-0.22189 -1.03548,-1.1834 -1.03548,-2.21888 0,-1.03548 -0.29585,-1.997 -0.73963,-2.29285 -0.36981,-0.22188 -0.51773,-0.88755 -0.22188,-1.47924 0.22188,-0.5917 0.0739,-1.10945 -0.36982,-1.10945 -0.36981,0 -1.10944,-1.03548 -1.62717,-2.21888 -0.51775,-1.25736 -1.47926,-2.58869 -2.14493,-2.95851 -1.03547,-0.5917 -0.96151,-0.66566 0.29586,-0.73963 1.33132,-0.0739 1.25737,-0.22188 -0.51774,-1.84906 -1.1834,-0.96152 -2.07096,-2.29285 -2.07096,-2.95851 0,-0.5917 -0.29585,-1.10945 -0.73962,-1.10945 -0.73963,0 -2.36681,-5.10342 -1.77511,-5.99097 0.14793,-0.29585 -0.22189,-0.88755 -0.88755,-1.25736 -0.8136,-0.44378 -0.96152,-0.8136 -0.36982,-1.18341 1.25737,-0.81359 0.96152,-1.92303 -0.36981,-1.40529 -1.03548,0.36981 -1.1834,0.14792 -0.81359,-1.40529 0.36981,-1.25737 0.14792,-2.21888 -0.59171,-2.81058 -0.66566,-0.59171 -0.96151,-1.55323 -0.66566,-2.66266 0.36981,-1.40529 0.22189,-1.70114 -0.73962,-1.33133 -0.96152,0.36982 -1.18341,-0.0739 -1.18341,-2.29284 0,-1.47926 -0.36981,-3.32833 -0.73962,-4.06796 -0.73963,-1.40528 -1.10944,-3.92002 -1.92303,-14.05291 -0.44378,-5.76909 -0.44378,-5.54721 0.14792,-12.57366 l 0.44378,-7.24835 c 0,-0.88755 0.29585,-1.62718 0.5917,-1.62718 0.36982,0 1.1834,-1.77509 1.7751,-3.92002 0.59171,-2.07096 1.77511,-5.17739 2.66266,-6.80457 0.81359,-1.55321 1.47926,-3.25436 1.47926,-3.77209 0,-1.62718 22.92843,-24.03789 27.07035,-26.40469 0.5917,-0.36981 1.7751,-0.36981 2.58869,-0.14793 0.81359,0.29585 1.997,0.074 2.5887,-0.36981 0.81358,-0.73963 2.07096,-0.73963 5.62117,0 5.69512,1.10944 8.43174,2.44077 8.94948,4.3638 0.44378,1.84907 -1.7751,6.43476 -3.03247,6.13891 -0.51774,-0.074 -0.88755,0.29585 -0.88755,0.88755 0,0.51774 -0.22189,2.07095 -0.44377,3.32832 -0.44378,2.14491 -0.36982,2.29284 1.62717,2.07096 3.1804,-0.36982 4.73361,-1.25738 4.73361,-2.73663 0,-0.66566 0.88755,-2.14491 1.92303,-3.25435 3.1804,-3.10644 4.43777,-2.88455 10.42874,1.99699 2.5887,2.07095 4.65966,4.06794 4.73362,4.51172 0.29585,3.10644 0.14792,3.92003 -0.81359,5.02947 -0.5917,0.73962 -1.47925,1.33133 -1.92303,1.33133 -0.51774,0 -1.03548,0.44377 -1.25737,1.03547 -0.22188,0.59171 -1.1834,0.96152 -2.29284,0.88756 -2.07096,-0.22189 -2.73662,0.81358 -2.14491,3.18039 0.51773,1.997 2.9585,1.997 5.39927,0.074 1.03548,-0.81359 2.44077,-1.47925 3.10643,-1.47925 0.66566,0 1.55322,-0.51775 1.92304,-1.10944 1.03547,-1.92303 3.10643,-0.44378 4.95549,3.62417 3.84607,8.65364 4.65965,10.79856 5.1774,13.60913 0.29585,1.70115 0.29585,3.77211 0,4.58569 -0.44378,1.4053 -0.96152,1.55322 -4.95551,1.4053 -3.40228,-0.14793 -4.58568,0.0739 -5.10343,0.96151 -1.03547,1.92303 0.8136,2.66266 6.9525,2.95851 l 5.69513,0.22189 1.84907,4.28983 c 1.03548,2.36681 1.84906,4.95551 1.84906,5.69514 0,0.73962 0.36982,1.62718 0.73963,1.84906 1.03548,0.66567 0.88755,3.25436 -0.14793,4.28984 -1.25736,1.1834 -8.28382,1.03548 -9.76308,-0.14793 -0.88755,-0.73962 -1.1834,-0.5917 -1.55321,0.73963 -0.81359,2.36681 1.18341,3.84606 5.32532,3.99399 1.99699,0.0739 4.06794,0.36981 4.58569,0.66566 0.51773,0.29585 1.62718,0.36982 2.51473,0.14792 2.07095,-0.51773 2.73662,0 4.51172,3.25436 0.81359,1.4053 2.21888,3.55021 3.1804,4.65966 2.14492,2.66265 2.14492,3.32832 -0.14793,4.3638 -2.07096,0.96151 -2.51473,3.55021 -0.81359,5.02946 0.66566,0.51774 3.47625,0.81359 7.32231,0.81359 4.65965,0 6.50872,0.22189 7.17438,1.03548 1.25737,1.47925 5.99099,2.66265 8.57968,2.14492 2.73661,-0.51774 5.25135,-3.7721 4.21587,-5.39928 -1.10944,-1.77511 -5.39928,-3.69814 -8.35779,-3.69814 -1.40528,-0.0739 -4.58569,-1.10944 -7.10042,-2.3668 -3.77209,-1.997 -4.7336,-2.88455 -5.99097,-5.76909 l -1.47926,-3.40229 2.07096,-3.7721 c 1.1834,-2.07095 2.14492,-4.06795 2.14492,-4.51172 0,-1.33133 -3.1804,-1.70114 -4.43776,-0.59171 -0.66567,0.59171 -1.55322,1.10945 -1.997,1.10945 -1.55321,0 -4.06795,-2.95851 -4.06795,-4.80758 0,-1.03548 -0.29585,-1.84907 -0.5917,-1.84907 -0.88755,0 -1.33133,-3.62417 -0.44377,-3.92002 0.51773,-0.14793 0.29585,-0.73963 -0.51775,-1.55322 -1.40529,-1.40529 -1.70114,-4.88154 -0.51773,-6.06494 1.03548,-1.03548 0.14792,-3.25436 -1.25737,-3.25436 -1.62718,0 -3.25436,-1.99699 -3.40228,-4.21587 -0.074,-1.18341 -0.44378,-2.29284 -0.88755,-2.58869 -0.36982,-0.29585 -0.73963,-0.8136 -0.8136,-1.10945 0,-0.29585 -0.44377,-1.55321 -0.88755,-2.66266 -0.51774,-1.10943 -0.81359,-2.29284 -0.81359,-2.58869 0.29585,-1.62718 -0.22189,-3.03248 -1.70114,-4.58569 -2.29284,-2.44077 -3.69814,-5.17739 -3.84607,-7.61815 -0.14792,-1.4053 -1.10943,-2.95851 -2.81057,-4.43777 -1.47925,-1.33133 -2.88455,-3.03248 -3.1804,-3.84606 -0.36981,-0.96152 -0.66566,-1.1834 -0.88755,-0.51774 -0.22189,0.5917 -1.84907,-0.51774 -4.3638,-3.1804 -3.69814,-3.84606 -3.99399,-4.36379 -3.55021,-6.7306 0.29585,-1.62718 0.14792,-2.95851 -0.44378,-3.62418 -0.81359,-1.03548 -1.10944,-1.03548 -2.36681,0.14793 -1.84906,1.62718 -7.17438,1.62718 -8.35778,0 -0.44378,-0.66566 -1.70115,-1.55322 -2.66266,-1.99699 -8.50571,-3.84606 -7.69212,-5.84306 3.47625,-8.87553 l 11.39026,-3.10644 c 4.58568,-1.25736 8.43175,-1.84906 16.64161,-2.66265 0.44377,-0.0739 1.55321,0.36981 2.58869,0.96152 z m 52.58748,91.93564 c -5.25135,5.76909 -5.76909,6.36079 -6.58267,7.91402 -1.47926,2.9585 -2.51474,11.61214 -1.55323,13.6831 0.29585,0.5917 0.8136,1.92303 1.25737,2.95851 1.70114,4.43775 4.14192,8.94948 6.06494,11.24232 2.29285,2.73663 9.91101,8.28383 12.64763,9.09741 0.96151,0.29585 2.44077,1.03548 3.25435,1.55322 1.55322,1.10944 6.9525,1.25737 11.83404,0.44378 2.51473,-0.44378 3.18039,-1.03548 4.58569,-3.62418 0.88755,-1.70114 2.29284,-5.47323 3.18039,-8.50571 0.96152,-2.95851 2.14492,-6.28682 2.66266,-7.39627 0.5917,-1.03548 1.03548,-2.58869 1.03548,-3.40228 0,-0.88755 0.36982,-1.7751 0.73963,-1.99699 1.10944,-0.66567 0.88755,-4.28984 -0.36981,-6.06495 -0.73963,-1.03548 -0.88756,-1.7751 -0.36982,-2.07096 1.10944,-0.66566 0.88755,-1.84906 -0.36981,-1.84906 -0.73963,0 -1.10945,-0.73963 -1.10945,-2.29284 0,-1.62718 -0.36981,-2.36681 -1.47925,-2.66266 -0.81359,-0.22189 -1.47926,-0.81359 -1.47926,-1.25737 0,-0.51773 -0.81358,-1.40529 -1.84906,-1.92303 -1.03548,-0.51773 -1.84907,-1.25736 -1.84907,-1.62718 0,-0.36981 -0.29585,-0.51773 -0.66566,-0.22188 -0.36982,0.22188 -0.88756,-0.29585 -1.18341,-1.03548 -0.22189,-0.8136 -0.88755,-1.33133 -1.40528,-1.10945 -0.51775,0.2219 -2.29285,-0.29585 -3.92003,-1.1834 -2.29284,-1.1834 -4.73362,-1.62718 -10.5027,-1.84906 -4.95551,-0.14793 -7.47024,0 -7.47024,0.51773 0,0.51774 -0.29585,0.51774 -0.96151,0 -0.66567,-0.5917 -1.70115,0.074 -4.14192,2.66266 z m 11.39026,0.88755 c 0.29586,0.44378 1.70114,0.66567 3.1804,0.51775 5.17739,-0.51775 10.28081,1.47925 15.08839,6.06494 4.06795,3.77209 5.32531,7.54419 4.28983,13.01743 -1.70113,9.91101 -1.84906,10.35478 -3.10643,10.13289 -0.88755,-0.14793 -1.03548,0.29585 -0.73963,1.77511 0.22189,1.33132 0,2.21888 -0.88755,2.66265 -0.66566,0.36982 -1.1834,1.25737 -1.1834,1.92303 0,1.62718 -1.40529,3.10644 -2.9585,3.10644 -0.59171,0 -1.70115,0.66566 -2.44078,1.47925 -1.7751,2.07096 -3.62417,1.84907 -9.3193,-1.10944 -5.32531,-2.81058 -8.94949,-5.62116 -8.94949,-6.95249 0,-0.44378 -0.29585,-0.81359 -0.73963,-0.81359 -0.36981,0 -0.73962,-0.59171 -0.73962,-1.25737 0,-0.66566 -0.22189,-0.96152 -0.51774,-0.73962 -0.5917,0.66566 -2.36681,-1.77511 -2.44077,-3.40229 0,-0.73963 -0.44378,-1.47925 -0.96151,-1.70115 -0.66566,-0.22188 -0.88756,-1.47924 -0.81359,-3.62416 0.14793,-1.99699 -0.074,-3.32832 -0.5917,-3.32832 -0.51774,0 -0.5917,-1.10945 -0.29585,-3.18041 0.51773,-3.40228 1.99699,-7.17438 2.73661,-7.17438 0.29586,0 0.73963,-0.81358 0.96152,-1.84906 0.29585,-1.03548 1.25737,-2.21888 2.14492,-2.5887 l 2.73662,-1.33133 c 4.65965,-2.66266 4.88154,-2.73662 5.5472,-1.62718 z"
     id="path2"
     style="stroke-width:0.739627" />
  <path
     d="m 162.19298,209.31761 c -0.88755,0.51774 -1.99699,0.73962 -2.51473,0.51774 -0.51774,-0.14793 -1.10944,0 -1.4053,0.44378 -0.22188,0.51773 0,0.5917 0.73963,0.3698 0.8136,-0.3698 1.03548,-0.14792 0.66567,0.73963 -0.29585,0.73963 -0.88755,1.10945 -1.47925,0.88756 -0.51775,-0.22189 -1.33133,0.14792 -1.77511,0.73962 -0.51774,0.5917 -1.33133,1.03548 -1.84906,1.03548 -0.44378,0 -1.62718,1.47926 -2.5887,3.32833 -0.96151,1.84906 -1.99699,3.32832 -2.36681,3.32832 -0.29585,0 -0.5917,0.51773 -0.5917,1.1834 0,0.5917 -0.29585,0.96151 -0.5917,0.73963 -0.36981,-0.2219 -1.18341,1.84906 -1.84907,4.65964 -0.88755,3.84607 -1.03548,5.69514 -0.36982,8.20986 l 0.88756,4.43777 c 0.5917,3.99398 1.55322,7.24834 2.73662,8.80157 0.81359,0.96151 1.40529,2.21887 1.40529,2.73661 0,1.47926 4.06795,7.76609 6.43475,9.98497 3.55021,3.32832 8.9495,5.39927 14.86651,5.69512 4.65965,0.29585 5.84306,0.074 9.3193,-1.62718 2.14492,-1.03548 4.3638,-1.92302 4.9555,-1.92302 0.5917,0 2.66266,-1.10944 4.65966,-2.44077 6.50872,-4.28984 10.05892,-12.86951 10.20684,-24.77751 0.074,-4.28983 -1.62718,-9.61515 -3.25435,-10.35478 -0.36982,-0.14792 -0.5917,-0.66567 -0.5917,-1.1834 0,-1.03548 -3.40228,-4.73362 -6.21287,-6.7306 -1.1834,-0.8136 -3.10643,-2.36681 -4.3638,-3.55022 -1.33133,-1.10944 -2.73662,-1.99699 -3.25436,-1.99699 -0.44377,0 -1.40529,-0.59171 -2.14492,-1.25737 -0.96151,-0.96152 -1.33133,-1.10944 -1.62718,-0.36981 -0.22188,0.73962 -0.51773,0.73962 -1.40529,0 -1.7751,-1.47926 -14.64462,-2.73662 -16.64161,-1.62718 z m 14.94047,6.43476 c 1.40529,0.44377 2.95851,0.81358 3.32832,0.88755 1.92303,0.22188 4.73361,1.92303 6.50871,3.99398 1.03548,1.25737 2.07096,2.29285 2.29285,2.29285 1.18341,0 5.69513,5.91702 6.3608,8.35778 3.03247,10.79856 -5.32532,26.40469 -14.20085,26.40469 -1.62718,0 -3.03246,0.51774 -3.92002,1.47926 -1.70114,1.84906 -3.32832,1.84906 -7.10042,0.0739 -1.62718,-0.81359 -3.40228,-1.33133 -3.84606,-1.10944 -2.21888,0.81359 -10.35478,-11.02044 -11.90799,-17.15935 -1.33133,-5.17739 -1.33133,-11.31629 -0.0739,-15.23631 1.33132,-3.99399 6.36079,-9.98497 7.69212,-9.17138 0.36982,0.29585 0.81359,0.14792 0.96152,-0.29585 0.29585,-1.03548 6.36079,-2.14492 9.09741,-1.70114 1.25736,0.14792 3.40229,0.66566 4.80757,1.1834 z m -11.0944,13.0914 c -1.10945,2.07095 0.29585,8.20986 2.29284,10.05892 1.62718,1.47925 6.87853,1.7751 8.1359,0.51774 0.44377,-0.44377 0.88755,-2.51473 0.88755,-4.58569 0.0739,-4.9555 -1.62718,-6.80457 -6.73061,-7.3223 -3.25436,-0.29585 -3.7721,-0.14793 -4.58568,1.33133 z m 65.60491,30.39867 c 0.22189,1.40529 0.81359,3.40228 1.40529,4.58568 0.66567,1.10944 1.25737,3.1804 1.4053,4.51173 l 0.81358,6.06494 c 0.73963,5.91702 0.96152,49.03728 0.2219,51.47804 -0.51775,1.997 -0.36982,2.51474 1.84906,4.58569 1.33133,1.25737 2.95851,2.66266 3.47625,3.03248 1.55322,1.1834 8.7276,3.32832 10.94648,3.32832 3.1804,0 10.42874,-1.62718 10.42874,-2.29284 0,-0.36982 0.29585,-0.66567 0.73963,-0.66567 0.36981,0 1.92303,-0.88756 3.47625,-1.92303 3.69814,-2.44077 4.06794,-5.39928 0.88755,-7.24835 -1.997,-1.1834 -2.14492,-1.1834 -3.03247,0.29585 -0.51774,0.81359 -1.47926,1.47925 -2.07096,1.47925 -0.5917,0 -1.47926,0.73963 -1.84906,1.62718 -1.18341,2.66266 -5.39928,3.69814 -10.50271,2.5887 -7.69212,-1.7751 -8.35779,-4.43776 -8.65364,-35.87192 -0.14792,-11.90799 -0.44377,-21.81899 -0.73962,-22.11484 -0.22189,-0.22189 -0.44378,-2.21888 -0.44378,-4.3638 0,-2.14492 -0.29585,-4.14191 -0.73963,-4.3638 -0.36981,-0.22188 -0.73963,-1.1834 -0.73963,-2.14491 0,-2.44078 -1.55321,-3.99399 -4.58569,-4.51174 l -2.73661,-0.51773 z m 77.51292,114.34634 c -0.81359,0.14793 -1.99699,0.51774 -2.58869,0.73963 -0.5917,0.22189 -1.4053,0.36982 -1.77511,0.29585 -0.29585,-0.0739 -1.47925,0.44377 -2.58869,1.1834 -1.03548,0.73963 -2.07095,1.33133 -2.29285,1.33133 -0.22188,0.074 -1.70114,0.66567 -3.32832,1.4053 -1.62718,0.73963 -3.69813,1.33133 -4.65965,1.33133 -0.96151,0 -1.92303,0.51773 -2.14492,1.03548 -0.22189,0.5917 -1.1834,1.03547 -2.07095,1.03547 -1.10944,0 -1.92303,0.5917 -2.21889,1.40529 -0.29585,0.88755 -0.88755,1.33133 -1.55321,1.03548 -0.51774,-0.22189 -1.03548,-0.0739 -1.03548,0.22188 0,0.36982 -0.88755,1.10945 -1.99699,1.55322 -6.58268,2.88455 -20.26578,3.69814 -24.4077,1.47926 -1.62718,-0.88755 -2.44076,-1.03548 -2.44076,-0.44378 0,0.5917 -0.44378,0.5917 -1.25737,-0.14792 -0.73963,-0.5917 -2.66266,-1.55322 -4.28984,-2.07096 -3.25436,-1.10944 -8.50571,-4.3638 -8.50571,-5.32532 0,-0.3698 -0.96151,-0.66566 -2.21888,-0.66566 -1.33133,0 -2.14492,-0.36981 -1.99699,-0.88755 0.29585,-1.4053 -6.13891,-2.95851 -12.79555,-3.1804 -5.17739,-0.0739 -6.50872,0.14792 -7.69212,1.25737 -0.8136,0.73963 -1.92304,1.1834 -2.44077,0.96151 -0.5917,-0.14792 -1.33133,0.44378 -1.70115,1.47926 -0.36981,1.03547 -1.1834,1.84907 -1.84906,1.84907 -0.5917,0 -1.10945,0.44378 -1.10945,1.03548 0,0.5917 -0.51773,1.18339 -1.10943,1.47924 -0.5917,0.2219 -1.10945,0.88756 -1.10945,1.55322 0,0.59171 -0.29585,1.10944 -0.5917,1.10944 -0.36981,0 -1.10944,0.8136 -1.62718,1.84907 -0.5917,1.03548 -1.40529,1.77511 -1.92303,1.55322 -1.03548,-0.36981 -1.84906,3.1804 -1.99699,9.54118 -0.074,3.84607 0.29585,5.25136 2.95851,10.7246 2.95851,6.06494 5.47324,12.72159 9.3193,24.55562 3.10643,9.54119 8.50571,16.12387 13.23933,16.12387 1.10943,0 2.07095,0.36982 2.21888,0.81359 0.14792,0.36981 1.99699,0.81359 4.1419,0.88756 2.07096,0.0739 3.84606,0.3698 3.84606,0.5917 0,0.29585 1.25738,0.66566 2.81059,0.81358 3.62418,0.44378 17.89898,4.14192 19.52616,5.02947 0.73962,0.44377 1.99699,0.73963 2.81057,0.73963 0.8136,0 1.47926,0.29585 1.47926,0.73962 0,0.36981 0.66567,0.73963 1.47925,0.73963 0.8136,0 2.73663,0.66566 4.43777,1.55321 3.55021,1.84908 15.90198,3.69814 21.52315,3.25436 l 10.28081,-0.73962 14.2748,-1.10944 c 7.69213,-0.66567 8.13591,-0.5917 10.28082,0.96151 1.55322,1.10945 3.25436,1.62718 5.69513,1.62718 2.5887,0 4.3638,0.5917 6.65664,2.07096 1.77511,1.1834 3.62418,1.92303 4.43777,1.62718 0.66566,-0.22189 3.25436,0.29585 5.69513,1.10944 6.7306,2.21888 11.39025,1.99699 17.60312,-1.10944 l 8.65364,-4.06795 c 1.92303,-0.81359 3.92002,-2.07095 4.58568,-2.81058 1.70114,-1.997 5.62117,-9.98497 5.1774,-10.72459 -0.2219,-0.36982 -0.51775,-2.14493 -0.73963,-4.06796 -0.36982,-3.62417 -2.5887,-7.10041 -7.5442,-11.83403 -1.40529,-1.25737 -2.14491,-2.3668 -1.62718,-2.3668 0.44378,0 0.29585,-0.59171 -0.44378,-1.4053 -0.66566,-0.81359 -1.47925,-1.33133 -1.70113,-1.1834 -0.29586,0.14792 -0.96152,-0.51774 -1.47926,-1.47926 -0.51774,-1.03548 -1.4053,-1.84906 -1.92303,-1.84906 -0.51774,0 -1.10945,-0.66567 -1.4053,-1.40529 -0.22188,-0.81359 -1.25736,-1.997 -2.29284,-2.66266 -0.96152,-0.66567 -1.62718,-1.55322 -1.33133,-1.92303 0.22189,-0.44377 -0.22189,-1.25737 -1.10943,-1.84907 -0.88756,-0.5917 -1.55322,-1.55321 -1.55322,-2.07096 0,-0.51773 -0.66566,-1.55321 -1.47926,-2.29284 -0.81358,-0.73963 -1.47925,-1.7751 -1.47925,-2.36681 0,-0.51774 -0.29585,-0.96152 -0.66566,-0.96152 -0.36982,0 -0.88756,-0.66566 -1.18341,-1.40528 -0.22189,-0.81359 -1.70114,-2.73662 -3.25436,-4.28984 -1.55322,-1.55321 -2.66266,-3.25436 -2.51473,-3.7721 0.22188,-0.44377 -0.22189,-0.88755 -0.96152,-0.88755 -0.66566,0 -1.03548,-0.22189 -0.81359,-0.44377 0.29586,-0.29586 -0.51773,-1.77511 -1.70113,-3.25437 -1.25737,-1.55321 -2.21889,-3.10643 -2.21889,-3.47624 0,-1.62718 -2.73662,-5.84306 -3.62417,-5.54721 -0.59171,0.22189 -0.81359,0 -0.51774,-0.44377 0.29585,-0.44378 -0.36982,-2.14492 -1.4053,-3.7721 -1.03547,-1.70115 -1.84906,-3.32832 -1.84906,-3.77209 a 0.79879724,0.79879724 0 0 0 -0.73963,-0.73963 c -0.44377,0 -1.7751,-1.03548 -3.10643,-2.21888 -1.40529,-1.33133 -3.10644,-2.21889 -4.28984,-2.21889 -1.10944,0 -2.21888,-0.22189 -2.51473,-0.51774 -0.73963,-0.73963 -3.18039,-1.10944 -8.57967,-1.25736 -2.66266,-0.074 -5.17739,-0.29585 -5.54721,-0.51774 -0.44378,-0.22189 -1.40529,-0.29586 -2.21888,-0.14793 z m 17.30728,7.17439 c 2.66266,1.40529 7.61815,7.17438 9.91099,11.53818 0.96152,1.84907 2.51474,4.65965 3.47626,6.28682 0.96151,1.62718 2.29284,3.99399 2.95851,5.25136 0.66566,1.18341 1.92303,3.25436 2.81058,4.51172 2.07095,2.88456 2.07095,3.62417 -0.14792,5.02947 -0.96152,0.66566 -1.997,1.99699 -2.21889,2.95851 -0.5917,2.21888 -4.21588,7.5442 -6.80457,9.98496 -2.88455,2.66266 -10.28081,3.03247 -15.01443,0.73963 -3.7721,-1.84906 -7.47023,-4.9555 -7.47023,-6.28683 0,-0.51774 -0.66567,-1.47925 -1.47925,-2.21888 -0.8136,-0.73963 -1.62718,-2.44077 -1.92303,-3.7721 -0.2219,-1.33133 -1.25738,-3.32832 -2.29285,-4.43776 -0.96151,-1.03548 -1.62718,-2.14492 -1.40529,-2.3668 0.22188,-0.2219 0.14792,-0.73963 -0.14793,-1.18341 -1.03547,-1.40529 -2.95851,-7.32231 -3.40228,-10.42874 -0.66566,-5.32532 -1.40529,-8.1359 -2.21888,-8.65364 -1.33133,-0.88756 0.51774,-4.43777 3.03246,-5.84305 1.33133,-0.73963 3.47626,-1.62718 4.80759,-1.99699 3.77209,-0.96152 15.01443,-0.36982 17.52916,0.88755 z m -95.70775,0.14793 c 2.81059,0.5917 6.73061,2.88454 9.83704,5.76908 1.25737,1.1834 2.36681,1.92303 2.36681,1.62718 0,-0.36981 1.10943,0.22189 2.51473,1.33133 1.40529,1.03548 2.95851,1.92303 3.40229,1.92303 1.25736,0 1.92303,2.88455 2.14491,8.50571 0.074,2.81058 0.29585,5.69513 0.51774,6.43476 0.22189,0.66566 -0.22189,1.62718 -1.03547,2.21888 -0.73963,0.51774 -1.92303,1.77511 -2.5887,2.81059 -0.66566,0.96151 -1.25737,1.47924 -1.25737,1.10943 0,-0.36982 -1.62718,0.96151 -3.62416,2.88454 -3.18041,3.10644 -4.14192,3.62418 -7.24835,3.92003 -2.81059,0.29585 -3.92003,0.0739 -5.25136,-1.10944 -1.84906,-1.62718 -4.65965,-5.32532 -6.50871,-8.65364 -0.66567,-1.25736 -1.70115,-2.51473 -2.21888,-2.81058 -0.59171,-0.29585 -1.03548,-1.10944 -1.03548,-1.62718 0,-0.5917 -0.29585,-1.10944 -0.73963,-1.10944 -0.36982,0 -0.73963,-0.44377 -0.73963,-1.03547 0,-1.03548 -2.29285,-3.99399 -6.43475,-8.35779 -3.32833,-3.40228 -3.1804,-5.76909 0.51773,-10.05893 4.06795,-4.58569 8.43176,-5.5472 17.38124,-3.77209 z m 62.72038,11.98195 c 2.07096,6.80457 1.55321,13.6831 -1.25737,16.56765 -0.88755,0.96151 -3.25436,3.03247 -5.25135,4.65965 l -4.3638,3.69813 c -0.44377,0.44378 -2.5887,1.55322 -4.73361,2.44077 -3.32833,1.4053 -4.14192,1.55322 -5.17739,0.73963 -1.99699,-1.47926 -4.51173,-4.58569 -4.58569,-5.5472 0,-0.44378 -1.10944,-2.73663 -2.44077,-5.17739 -2.81058,-5.02947 -4.73361,-10.13289 -4.88154,-13.01745 -0.074,-2.44076 2.73662,-3.99397 5.10343,-2.73661 0.73962,0.36982 1.84907,0.5917 2.3668,0.36982 0.51775,-0.14793 2.66266,-0.44378 4.65966,-0.66567 5.02946,-0.44378 6.80456,-0.96151 11.90799,-3.40229 6.43476,-3.18039 7.10042,-3.03247 8.65364,2.07096 z m -79.36199,18.86049 c 0,0.36981 1.25736,2.21888 2.81059,4.14191 2.88454,3.55021 3.92002,5.47325 5.17739,9.46723 0.66566,1.99699 0.51773,2.51473 -0.88756,3.84606 -2.07095,1.92303 -2.81058,1.25737 -4.14191,-3.55021 -0.44377,-1.7751 -1.47925,-4.43776 -2.29285,-5.91702 -0.73962,-1.47925 -1.40529,-3.1804 -1.40529,-3.92002 0,-0.66566 -0.29585,-1.47926 -0.73962,-1.70114 -0.36981,-0.2219 -0.73963,-1.03548 -0.73963,-1.70115 0,-0.66566 -0.51773,-2.21887 -1.10944,-3.40228 -0.5917,-1.10944 -1.10944,-2.29285 -1.10944,-2.5887 0.074,-0.66566 4.43776,4.58569 4.43776,5.32532 z m 140.01141,8.20986 c 0.66566,0.51774 1.25736,1.25737 1.25736,1.62718 0,0.36982 0.88755,1.70115 2.07096,2.88455 1.10944,1.1834 1.997,2.3668 1.997,2.66265 0,0.22189 2.58869,3.25436 5.69512,6.65664 11.09441,12.12989 12.35177,14.05292 11.02044,17.75106 -0.3698,1.10944 -0.51773,2.21888 -0.29585,2.44077 0.29585,0.22189 -0.36981,0.44377 -1.47925,0.44377 -1.33133,0 -3.10644,-1.25736 -6.1389,-4.43776 -3.77211,-3.99399 -8.94949,-7.39627 -11.24234,-7.39627 -0.44377,0 -2.21888,-1.40529 -3.92002,-3.10643 -2.88455,-2.88455 -4.06795,-5.02947 -4.80758,-8.35779 -0.44378,-1.92303 1.10945,-7.76609 2.44077,-9.3193 0.51774,-0.5917 0.96152,-1.55322 0.96152,-1.997 0,-1.10943 0.81359,-1.10943 2.44077,0.14793 z m -72.26156,9.68911 c 0.29585,0.5917 0.88755,1.10945 1.40528,1.10945 0.51775,0 1.84908,1.33133 3.03248,3.03246 1.10944,1.62718 2.66265,3.40229 3.32832,3.92003 2.29284,1.62718 4.9555,8.87552 5.10342,13.90499 0.14793,7.17438 0.22189,6.95249 -2.21888,6.80457 -1.1834,-0.074 -2.21888,0.0739 -2.21888,0.44378 0,0.29585 -1.77511,0.22188 -3.84606,-0.14793 -2.14492,-0.36982 -5.76909,-0.73963 -7.98797,-0.88755 -4.43776,-0.29585 -10.79856,-2.95851 -12.12989,-5.02947 -0.51773,-0.88755 -0.51773,-1.99699 0.14793,-3.77209 0.51774,-1.33133 0.88755,-3.69814 0.88755,-5.17739 0,-1.47926 0.36982,-2.88455 0.73963,-3.10644 0.44377,-0.22188 0.73962,-1.10944 0.73962,-1.92303 0,-0.73963 0.36982,-1.40529 0.73963,-1.40529 0.44378,0 0.73963,-0.44377 0.73963,-0.96152 0,-1.10943 4.28984,-5.47324 6.80457,-6.80457 2.36681,-1.33133 4.28984,-1.33133 4.73362,0 z m -36.3157,0.73963 c 0.81359,0.14792 1.62718,0.29585 1.84907,0.36982 0.22189,0.0739 0.73963,0.22188 1.10944,0.29585 3.25436,0.66566 7.5442,4.14191 6.73061,5.5472 -0.22189,0.36982 -0.074,0.81359 0.36981,0.96152 0.8136,0.29585 2.07096,5.32531 2.14492,8.57967 0,1.10944 -0.29585,1.55322 -0.88755,1.1834 -0.51774,-0.36981 -0.66567,-0.14793 -0.36982,0.5917 0.59171,1.55322 -1.92303,2.14493 -5.91702,1.4053 -1.7751,-0.36982 -3.18039,-0.51775 -3.18039,-0.29585 0,0.14792 -0.5917,-0.074 -1.33133,-0.44378 -0.73962,-0.36982 -3.32832,-0.88755 -5.76909,-1.10944 -5.17739,-0.51774 -7.02646,-1.03548 -11.09441,-3.1804 -4.21587,-2.21888 -5.02946,-3.40228 -3.84605,-5.32531 0.51773,-0.88756 1.47925,-1.70114 2.14491,-1.92304 0.66567,-0.22188 1.62718,-1.25736 2.21888,-2.29284 1.40529,-2.73662 4.3638,-4.58568 7.76609,-4.9555 2.66265,-0.29585 3.84606,-0.22189 8.06193,0.5917 z m 66.64041,1.55322 c 0.44377,0.51774 1.40528,1.03548 2.07095,1.03548 0.66566,0 1.18341,0.29585 1.18341,0.73963 0,0.36981 0.44377,0.73962 0.96151,0.73962 1.40528,0 5.69512,4.3638 5.76909,5.84305 0.0739,1.77511 0.44378,3.1804 1.55321,5.99098 0.5917,1.4053 1.03548,3.77211 0.96152,5.10343 -0.14792,2.36681 -0.44377,2.66266 -3.1804,3.62417 -1.70114,0.51775 -3.10643,1.40529 -3.10643,1.84907 0,0.5917 -0.22189,0.51774 -0.66566,-0.14793 -0.51774,-0.81358 -1.10944,-0.81358 -3.25436,-0.14792 -2.88455,0.96152 -7.5442,0.73962 -8.72761,-0.44378 -0.51773,-0.51773 -0.88755,-4.73361 -0.88755,-10.28081 -0.14792,-8.06194 0.074,-10.05893 1.33133,-12.72159 1.25737,-2.81058 1.62718,-3.10643 3.32833,-2.73662 1.03548,0.22189 2.21888,0.96152 2.66266,1.55322 z m 34.17077,15.01443 c 0.66566,0.44378 2.07095,0.88755 3.10642,1.10944 1.03548,0.22189 2.88455,1.33133 4.14192,2.44077 l 5.99098,5.25135 c 3.92002,3.32832 4.43776,4.80757 2.44077,6.80457 -1.84907,1.84907 -11.09441,3.7721 -11.09441,2.29284 0,-0.22188 -1.47926,-0.88755 -3.25436,-1.47925 -1.7751,-0.51774 -3.92002,-1.55321 -4.65965,-2.29284 -0.81358,-0.73963 -2.44076,-1.84908 -3.69814,-2.44078 -4.80757,-2.51473 -5.91701,-7.47023 -2.29284,-10.5027 2.29284,-1.92303 6.80458,-2.51473 9.31931,-1.1834 z"
     id="path4"
     style="stroke-width:0.739627" />
  <path
     d="m 254.0029,492.42245 c -3.47478,-0.44822 -9.07819,-2.24995 -12.92869,-4.15597 -1.56579,-0.77513 -3.73364,-1.6967 -4.81571,-2.04729 -1.08208,-0.35058 -3.40154,-1.78842 -5.15372,-3.19444 -1.75218,-1.40604 -3.77876,-2.69595 -4.50359,-2.8668 -0.72484,-0.17085 -2.48293,-1.18266 -3.90671,-2.24847 -1.42378,-1.06579 -3.1131,-2.20852 -3.75361,-2.53914 -0.64051,-0.33061 -1.16491,-0.94228 -1.16491,-1.35943 0,-0.41715 -0.31657,-0.75812 -0.70339,-0.75812 -0.38682,0 -1.76253,-0.93193 -3.05614,-2.07095 -1.2936,-1.13903 -2.56725,-2.07096 -2.83055,-2.07096 -0.26331,0 -1.02439,-0.58209 -1.69375,-1.29435 -0.66936,-0.71226 -1.43118,-1.29435 -1.69374,-1.29435 -1.49035,0 -15.90938,-14.05587 -15.90938,-15.5085 0,-0.2315 -0.46597,-0.54288 -1.03548,-0.69154 -0.61463,-0.1605 -1.03547,-0.70635 -1.03547,-1.34169 0,-0.66862 -0.58949,-1.3757 -1.57098,-1.88309 -1.03326,-0.53401 -1.67525,-1.33651 -1.87643,-2.34314 -0.16863,-0.84169 -0.63386,-1.53103 -1.034,-1.53103 -0.40013,0 -0.87794,-0.40753 -1.06136,-0.90604 -0.18343,-0.49851 -0.62351,-1.08207 -0.97853,-1.2973 -0.35502,-0.21524 -1.02734,-1.54139 -1.49478,-2.94742 -0.46745,-1.40603 -1.28104,-3.10495 -1.8084,-3.7758 -0.52735,-0.67084 -1.03769,-1.90675 -1.1331,-2.74771 -0.12056,-1.05915 -0.49186,-1.57393 -1.20929,-1.67822 -0.89939,-0.13017 -1.04436,-0.57246 -1.10501,-3.36529 -0.0385,-1.76846 -0.48815,-4.9629 -0.99997,-7.09821 -1.82392,-7.61372 -1.51476,-25.49643 0.54363,-31.41196 0.90973,-2.61384 1.61164,-11.48123 2.33056,-29.42237 0.73962,-18.47514 0.70042,-23.28493 -0.19526,-24.02826 -0.91862,-0.76255 -1.39642,-2.54506 -0.78401,-2.92374 0.63756,-0.39423 0.59762,-2.2995 -0.0488,-2.2995 -0.28476,0 -0.51774,-0.24926 -0.51774,-0.55473 0,-0.30546 -0.34911,-0.90382 -0.77661,-1.33133 -0.42751,-0.4275 -0.77661,-1.19745 -0.77661,-1.7115 0,-0.51404 -0.34688,-1.22334 -0.77069,-1.57466 -0.42381,-0.35132 -0.64717,-0.83947 -0.49629,-1.08429 0.15088,-0.24482 -0.10429,-1.02291 -0.56803,-1.73073 -0.46375,-0.70783 -0.70339,-1.51106 -0.53402,-1.7862 0.41272,-0.66789 -2.47553,-9.49903 -3.81647,-11.66835 -0.5843,-0.94599 -1.06285,-2.32465 -1.06285,-3.06428 0,-0.81063 -0.40753,-1.56283 -1.02659,-1.89418 -0.56508,-0.30252 -0.97484,-0.95117 -0.91049,-1.44228 0.14053,-1.07542 -1.90676,-4.8416 -6.08269,-11.19129 -3.42669,-5.20994 -4.38155,-6.82381 -5.85637,-9.90066 -0.54807,-1.14272 -1.37496,-2.39269 -1.83798,-2.77655 -0.463,-0.38387 -0.72557,-0.88681 -0.58356,-1.11684 0.14201,-0.23002 -1.02734,-2.12569 -2.59905,-4.21292 -1.57171,-2.08723 -3.25066,-4.84308 -3.73141,-6.12411 -0.48077,-1.28103 -1.1775,-2.51621 -1.54878,-2.74402 -0.3713,-0.2278 -0.67455,-0.72039 -0.67455,-1.09539 0,-0.37499 -0.42898,-1.23665 -0.95263,-1.91563 -0.52366,-0.67898 -1.22187,-2.02362 -1.55101,-2.98809 -0.32913,-0.96447 -0.96151,-2.01919 -1.40602,-2.34388 -0.84244,-0.61611 -1.88976,-3.86307 -1.89345,-5.86968 -7.4e-4,-0.64052 -0.20414,-1.16491 -0.45192,-1.16491 -0.24777,0 -0.83208,-0.75738 -1.30026,-1.68266 -0.46818,-0.92527 -1.32985,-2.20704 -1.91563,-2.84756 -0.9238,-1.01033 -0.95042,-1.16491 -0.19822,-1.16491 1.29731,0 1.0621,-0.64274 -0.94524,-2.5887 -0.99702,-0.96595 -1.8121,-2.05986 -1.8121,-2.43115 0,-0.37129 -0.45634,-1.13163 -1.01476,-1.69005 -0.59392,-0.59392 -1.159,-2.10128 -1.3624,-3.63601 -0.19155,-1.44152 -0.55102,-2.74623 -0.79879,-2.90007 -0.24778,-0.15384 -0.30842,-0.84688 -0.13461,-1.54138 0.2633,-1.05027 0.12647,-1.26255 -0.81581,-1.26255 -0.96817,0 -1.08726,-0.20784 -0.81803,-1.43414 0.19897,-0.90456 0.0289,-1.81282 -0.46004,-2.45926 -0.42603,-0.56433 -0.78253,-1.75513 -0.79141,-2.64786 -0.0118,-1.17897 -0.29954,-1.69596 -1.05174,-1.89271 -0.80768,-0.21153 -1.03696,-0.70856 -1.0414,-2.26104 -0.003,-1.09464 -0.33801,-3.08498 -0.74406,-4.42223 -0.40606,-1.33724 -1.01699,-5.29868 -1.35723,-8.80156 -0.76994,-7.91401 -0.26995,-24.57041 0.77292,-25.77304 0.37573,-0.43342 1.09686,-2.06948 1.60277,-3.63527 0.5059,-1.56579 1.82318,-4.91039 2.92744,-7.43103 2.36015,-5.38818 5.60564,-9.20023 16.55803,-19.45368 10.47091,-9.80154 11.30817,-10.42652 14.25114,-10.63214 1.37275,-0.0961 3.12714,-0.33949 3.89932,-0.5414 1.91267,-0.50073 8.7239,1.07393 10.85329,2.50956 2.6767,1.80394 2.6205,4.54205 -0.14646,7.1263 -1.15529,1.07911 -1.66194,2.14862 -1.98589,4.19221 -0.27071,1.70484 -0.24556,2.8631 0.0666,3.05761 0.52439,0.32766 4.77873,-0.32395 5.65667,-0.86684 0.27736,-0.1716 0.87054,-1.22482 1.31653,-2.34092 0.9556,-2.38752 3.39711,-4.61379 5.06053,-4.61379 1.25589,0 4.04798,1.84463 8.45098,5.58345 2.48219,2.10793 2.71813,2.49698 2.71813,4.48509 0,1.60574 -0.31434,2.47183 -1.1982,3.30243 -0.659,0.61907 -1.44966,1.12572 -1.75661,1.12572 -0.30694,0 -0.69229,0.34911 -0.85648,0.77661 -0.1642,0.4275 -0.94155,0.78031 -1.73813,0.78474 -0.79214,0.005 -1.76771,0.21523 -2.16711,0.46819 -0.72483,0.4593 -0.92823,3.17965 -0.31212,4.17667 0.57839,0.93637 3.57683,0.5244 5.69956,-0.78327 1.13904,-0.7019 2.40527,-1.27659 2.81429,-1.27807 0.40901,-0.002 1.3047,-0.52662 1.99182,-1.16787 l 1.24848,-1.16491 1.3979,1.66638 c 2.1316,2.54062 6.85856,14.28811 7.12926,17.71777 0.32396,4.09235 -0.0126,4.38598 -5.37117,4.69071 -4.47844,0.25443 -4.55314,0.28106 -4.71142,1.64937 -0.14053,1.2189 0.0836,1.45854 1.81209,1.93856 1.08503,0.30102 3.90966,0.5488 6.27647,0.55102 l 4.30389,0.003 1.46372,3.23587 c 0.80546,1.77954 1.74404,4.28466 2.08722,5.56569 0.3432,1.28103 0.8343,2.7344 1.09244,3.22848 0.82468,1.5791 0.53474,3.43038 -0.63387,4.05611 -0.98148,0.52514 -3.97549,0.47928 -9.25124,-0.14275 -1.11536,-0.13166 -1.31654,0.0755 -1.45411,1.49849 -0.12204,1.26402 0.12056,1.82835 1.03548,2.40896 1.19745,0.7596 8.25423,1.89419 11.77781,1.89419 1.80321,0 2.01031,0.2034 5.37044,5.26096 l 3.49548,5.26097 -1.8291,1.50736 c -1.95558,1.61239 -2.31652,3.15525 -1.12054,4.7913 0.59984,0.82025 1.69079,1.01921 7.11891,1.30101 5.61377,0.29141 6.72617,0.50516 8.94727,1.71889 1.98442,1.08429 3.24031,1.38607 5.76983,1.38607 2.85349,0 3.42225,-0.17678 4.8416,-1.50219 2.08722,-1.94966 2.09759,-3.68926 0.0311,-5.42738 -1.57467,-1.32541 -2.99031,-1.82244 -8.15734,-2.86532 -3.40081,-0.68638 -8.10927,-2.95037 -9.93763,-4.77873 -0.75738,-0.75738 -1.78399,-2.44298 -2.28175,-3.74474 l -0.90382,-2.36679 2.11459,-4.22402 c 1.63162,-3.26028 1.98072,-4.38525 1.52807,-4.93035 -0.77661,-0.93563 -2.73514,-0.89495 -4.65299,0.0969 -0.85428,0.44156 -1.99626,0.6627 -2.53693,0.49111 -1.1161,-0.35428 -3.10643,-3.30761 -3.10643,-4.60935 0,-0.47485 -0.39126,-1.46003 -0.86906,-2.19004 -0.71079,-1.0843 -0.75369,-1.51254 -0.2352,-2.3424 0.52587,-0.84243 0.45339,-1.30692 -0.42455,-2.72848 -1.15086,-1.86239 -1.3905,-4.41779 -0.49703,-5.31053 1.05988,-1.05988 0.29585,-2.96738 -1.53325,-3.8283 -1.92524,-0.90679 -3.12344,-2.64787 -3.15229,-4.57756 -0.0103,-0.68933 -0.32839,-1.62126 -0.70708,-2.07096 -0.92676,-1.09982 -2.41784,-5.22768 -2.41784,-6.69362 0,-1.43118 -0.60797,-2.61532 -2.85274,-5.55607 -1.61091,-2.11016 -2.33723,-3.7832 -3.05392,-7.03608 -0.1679,-0.76033 -1.46964,-2.6242 -2.89342,-4.14191 -1.42379,-1.51772 -2.72405,-3.1767 -2.88973,-3.6863 -0.19674,-0.60575 -0.62129,-0.82617 -1.22112,-0.63534 -0.66567,0.21153 -1.88383,-0.72928 -4.40005,-3.39711 l -3.47994,-3.68926 0.33505,-2.43485 c 0.27071,-1.96593 0.14275,-2.67227 -0.66197,-3.66633 l -0.99701,-1.23074 -1.43783,1.13088 c -2.07614,1.6331 -6.37042,1.58502 -8.37702,-0.0939 -0.80471,-0.67379 -2.64343,-1.82022 -4.08496,-2.54801 -4.61972,-2.33279 -4.93849,-3.8616 -1.14346,-5.48286 4.17445,-1.78397 21.88851,-6.28682 28.00597,-7.11964 5.66037,-0.7707 6.2639,-0.76922 8.02496,0.0177 1.04731,0.46819 3.24696,1.06655 4.88893,1.33059 1.64197,0.26406 3.21147,0.61907 3.48882,0.79066 0.27736,0.1716 1.78546,0.6457 3.352,1.05323 8.55526,2.2285 25.54375,13.46787 31.42157,20.78796 l 5.3268,6.63298 c 4.17963,5.20402 9.52935,12.15207 13.95232,18.12086 3.91336,5.28094 17.12606,20.06757 25.45649,28.4897 4.89189,4.94588 12.24008,11.03006 17.82501,14.75999 3.01397,2.01328 6.48578,4.50803 19.67408,14.13798 8.94061,6.52869 28.58362,26.38767 32.35868,32.71371 0.56951,0.95412 2.15823,3.38231 3.53024,5.39409 4.84973,7.113 7.88516,15.20452 12.29482,32.78102 4.18777,16.68894 4.37268,18.44999 4.23288,40.24754 -0.13313,20.72731 0.47115,37.69288 1.6908,47.51586 1.03991,8.37185 1.51919,10.5922 3.88452,17.97812 3.41116,10.65359 5.68033,18.2932 8.37923,28.21678 2.49255,9.16323 2.61681,9.93541 2.86976,17.83166 0.2426,7.56342 0.17677,8.42953 -0.78549,10.35478 -0.57765,1.1553 -1.3121,3.83275 -1.63235,5.94882 -0.32027,2.11608 -0.83504,4.15153 -1.14347,4.52356 -0.30842,0.37203 -0.41715,1.05249 -0.24037,1.5118 0.42972,1.1198 -2.16489,5.80312 -3.43854,6.20769 a 6.2054712,6.2054712 0 0 0 -1.86534,1.07837 c -2.89268,2.56355 -8.94948,6.41553 -10.94056,6.95768 -1.28695,0.35058 -2.80023,0.9482 -3.3616,1.32837 -0.56138,0.38016 -1.63976,0.69081 -2.3964,0.69081 -0.75663,0 -2.16045,0.32395 -3.12048,0.71892 -0.96004,0.39495 -3.02729,0.87572 -4.59309,1.06654 -1.56578,0.19082 -3.43038,0.56064 -4.14191,0.82025 -3.43186,1.2544 -27.88246,2.13086 -42.71346,1.53103 -2.84757,-0.11539 -6.99983,0.0806 -9.22684,0.43415 -2.22703,0.35355 -8.28457,0.86241 -13.46122,1.12941 -5.17665,0.26701 -11.5086,0.70413 -14.07141,0.97114 -5.41111,0.56359 -26.10661,0.6124 -30.30252,0.0703 z m 107.82209,-21.43883 c 1.78619,-0.67898 5.97618,-2.54654 9.3119,-4.15079 6.3534,-3.05614 7.44213,-4.01322 9.7187,-8.54343 2.29211,-4.56129 2.52879,-5.76391 1.84611,-9.39178 -0.87424,-4.64635 -2.0754,-6.90665 -5.75208,-10.82741 -1.74774,-1.86386 -3.33202,-4.02209 -3.52062,-4.79722 -0.18861,-0.77513 -0.86463,-1.68117 -1.50219,-2.01474 -1.65602,-0.86537 -9.16694,-8.85556 -9.17655,-9.76086 -0.004,-0.41715 -0.48002,-1.23222 -1.05693,-1.81209 -1.44818,-1.45411 -3.49399,-4.39412 -4.24545,-6.10192 -0.34468,-0.78327 -0.80251,-1.42378 -1.01774,-1.42378 -0.21523,0 -0.75072,-0.69673 -1.19153,-1.54804 -0.44082,-0.85132 -1.82318,-2.69964 -3.07389,-4.10789 -1.25071,-1.40826 -2.42672,-3.04135 -2.61311,-3.62935 -0.18638,-0.58801 -0.67306,-1.06951 -1.08133,-1.06951 -0.40827,0 -0.74184,-0.31433 -0.74184,-0.69894 0,-0.38461 -0.71745,-1.68857 -1.59391,-2.8986 -0.87645,-1.21003 -2.0569,-3.2832 -2.62345,-4.60787 -0.56655,-1.32468 -1.52215,-2.93337 -2.12347,-3.57536 -0.60132,-0.642 -2.04137,-3.00881 -3.2011,-5.25875 -1.6723,-3.24623 -2.69669,-4.53318 -4.95551,-6.2284 -1.56578,-1.17527 -3.42965,-2.26548 -4.14191,-2.42376 -0.71226,-0.15828 -2.34313,-0.60649 -3.62417,-0.99627 -1.28104,-0.38979 -5.54498,-0.95782 -9.47462,-1.26108 -8.28531,-0.64051 -9.20023,-0.47705 -16.21781,2.90157 -2.5983,1.25071 -5.8105,2.477 -7.1374,2.72552 -1.32689,0.24851 -2.83055,0.82912 -3.34163,1.29065 -0.51109,0.46152 -1.31876,0.84021 -1.79655,0.84021 -0.47781,0 -1.37497,0.58209 -1.99404,1.29435 -0.61907,0.71227 -1.44967,1.29435 -1.84537,1.29435 -0.3957,0 -1.06359,0.34319 -1.48295,0.7633 -3.09238,3.09238 -21.0461,4.7632 -25.51048,2.3742 -0.62351,-0.33357 -1.55544,-0.53549 -2.07021,-0.44821 -0.51479,0.0873 -1.49627,-0.11909 -2.18043,-0.45857 -0.68415,-0.33949 -2.99548,-1.40604 -5.13671,-2.37051 -2.14122,-0.96447 -4.74915,-2.50512 -5.79498,-3.42299 -1.04583,-0.91788 -2.72996,-1.80395 -3.74324,-1.96815 -1.0377,-0.16863 -1.84168,-0.59984 -1.84168,-0.9874 0,-1.29065 -5.15594,-2.40527 -12.34512,-2.66932 -6.44289,-0.23668 -7.00871,-0.17972 -8.39255,0.84317 -0.8158,0.60355 -1.95335,1.09688 -2.52656,1.09688 -0.63534,0 -1.35722,0.60723 -1.84611,1.55321 -0.44156,0.85427 -1.15234,1.55322 -1.5791,1.55322 -0.42677,0 -0.98519,0.55102 -1.2411,1.22408 -0.25591,0.67307 -0.83282,1.36461 -1.28177,1.53694 -0.44896,0.17234 -0.81655,0.62795 -0.81655,1.01256 0,0.3846 -1.26402,2.03619 -2.80984,3.67077 -2.65082,2.80318 -2.82982,3.16264 -3.17226,6.35783 -0.65384,6.10266 -0.0791,9.78157 2.3313,14.93233 2.99401,6.39777 4.7388,10.8348 8.10483,20.61858 1.58502,4.6064 3.7011,9.93764 4.70255,11.84809 2.28841,4.36602 5.97471,7.90366 9.03159,8.66917 1.24405,0.31139 2.69298,0.81063 3.22034,1.1087 0.52735,0.29807 2.50733,0.74481 4.40077,0.99111 7.33119,0.95485 25.6377,5.70177 30.8824,8.0072 11.88803,5.2262 19.60086,6.09009 39.80672,4.45921 17.24367,-1.39124 19.62823,-1.39124 21.88557,0.004 1.01625,0.62794 3.32018,1.28177 5.46511,1.55099 2.39934,0.30103 4.76763,1.017 6.70768,2.02659 1.64936,0.8587 4.10123,1.67229 5.44808,1.80838 a 28.549605,28.549605 0 0 1 4.79944,0.99702 c 5.54942,1.76845 10.67208,1.80173 15.15275,0.0991 z M 257.53461,336.26794 c 2.19521,-0.45118 4.34013,-1.11092 4.7669,-1.46594 0.42676,-0.35502 1.87273,-1.27068 3.2122,-2.03472 4.36897,-2.49328 5.28315,-5.41036 2.44372,-7.8001 -1.98145,-1.66712 -2.57316,-1.67378 -4.10196,-0.0459 -0.66863,0.71152 -1.49701,1.29435 -1.84094,1.29435 -0.34393,0 -1.23222,0.79657 -1.97481,1.76993 -1.6893,2.21518 -4.27799,3.10717 -7.9214,2.73144 -3.37344,-0.34836 -6.221,-1.68635 -7.59745,-3.57092 -1.9785,-2.70851 -2.41932,-7.02572 -2.92005,-28.62949 -0.46448,-20.00616 -1.29139,-33.61383 -2.10941,-34.6885 -0.21672,-0.28476 -0.55473,-1.37645 -0.75072,-2.42525 -0.196,-1.04879 -0.79954,-2.30837 -1.34021,-2.798 -0.98148,-0.88829 -5.59676,-2.33723 -6.24467,-1.96076 -0.46744,0.27145 0.93045,6.09601 1.92451,8.01757 1.74256,3.37047 2.33796,12.21937 2.43337,36.18477 0.0503,12.67129 -0.0917,24.00312 -0.31508,25.18135 -0.36759,1.93486 -0.25517,2.31428 1.16122,3.92741 2.4674,2.81058 5.4688,4.61898 9.786,5.89631 4.8172,1.426 6.2284,1.47704 11.39026,0.41641 z m -74.9649,-70.6758 c 8.0072,-3.31058 9.07226,-3.8971 11.66466,-6.42366 4.78538,-4.66335 7.49168,-12.56997 7.49168,-21.88779 0,-5.00801 -1.03622,-9.43542 -2.56576,-10.96571 -0.52588,-0.52588 -1.10427,-1.42378 -1.28622,-1.99552 -0.62424,-1.9674 -10.58776,-10.71867 -14.0004,-12.29778 -0.85944,-0.39791 -1.99995,-1.0192 -2.53545,-1.38088 -0.78843,-0.53327 -1.01846,-0.53105 -1.2152,0.0111 -0.18121,0.49925 -0.41937,0.52217 -0.93784,0.0917 -1.02291,-0.84835 -8.23428,-2.01918 -12.40651,-2.014 -1.99329,0.003 -4.71956,0.29363 -6.05829,0.64717 -2.57834,0.68046 -3.75213,1.3831 -2.31207,1.3831 0.47484,0 0.86314,0.23299 0.86314,0.51775 0,0.28475 -0.42011,0.51773 -0.9334,0.51773 -1.50071,0 -5.08716,2.94964 -6.7957,5.58788 l -2.23145,3.45037 c -0.35946,0.55767 -0.93563,1.32245 -1.28104,1.7004 -0.97038,1.06136 -1.75809,4.17815 -2.06208,8.15882 -0.3173,4.15745 1.38903,13.79553 2.97922,16.82652 a 75.308829,75.308829 0 0 1 1.53769,3.10643 c 5.15667,11.37103 10.58702,15.56249 21.73024,16.77326 3.31057,0.35947 6.43032,-0.1849 10.35478,-1.8069 z m 106.20009,-8.66917 c 0.74702,-0.28994 1.86164,-1.34168 2.47701,-2.33648 1.08355,-1.75292 5.59898,-14.00189 7.07897,-19.20443 0.40088,-1.4075 0.96299,-2.79431 1.24923,-3.08054 0.76478,-0.76478 0.6346,-3.69887 -0.25961,-5.83861 -0.59022,-1.41269 -0.63681,-2.04063 -0.19008,-2.57834 0.46078,-0.55473 0.29067,-0.98889 -0.77291,-1.97407 -0.90383,-0.83726 -1.36313,-1.80026 -1.36313,-2.85718 0,-1.04139 -0.31434,-1.71445 -0.90605,-1.94005 -0.49851,-0.19007 -1.6183,-1.05692 -2.48884,-1.92524 -3.64563,-3.63675 -5.84823,-5.33789 -7.26609,-5.61155 -0.82839,-0.15976 -2.90378,-0.79732 -4.61232,-1.41712 -2.51769,-0.91271 -4.33348,-1.13755 -9.57818,-1.18563 -9.56707,-0.088 -9.46353,-0.12056 -13.57659,4.34087 -5.73285,6.21879 -7.13296,9.50643 -7.13296,16.74442 0,5.57531 4.59974,15.23336 9.41323,19.76506 4.15301,3.9104 10.82814,8.06119 15.43824,9.59961 1.65824,0.55324 10.70758,0.19083 12.48934,-0.49998 z m -15.33691,-6.68105 c -4.66334,-2.42302 -10.09591,-7.10413 -10.09591,-8.6995 a 0.76181589,0.76181589 0 0 0 -0.76329,-0.75368 c -0.79436,0 -2.34314,-2.50807 -2.34314,-3.79429 0,-0.40605 -0.32839,-1.0118 -0.73001,-1.34464 -1.51698,-1.25884 -1.97776,-11.76894 -0.63756,-14.53515 2.40749,-4.96882 3.43187,-6.11523 7.40811,-8.29788 3.22107,-1.7677 4.13155,-2.06208 5.02946,-1.62496 0.6028,0.29364 2.8838,0.62943 5.06867,0.74702 4.86082,0.2611 8.47242,1.87422 12.55738,5.60712 4.97695,4.54871 5.73802,7.62334 4.14339,16.74072 -0.89642,5.12414 -1.44079,6.50206 -2.5702,6.50206 -0.53623,0 -0.75812,0.59096 -0.75812,2.01548 0,1.28917 -0.27218,2.11977 -0.75516,2.30543 -0.41567,0.15975 -0.9482,1.0584 -1.1834,1.99699 -0.32544,1.29804 -0.93859,1.95483 -2.55763,2.74253 -1.17157,0.56952 -2.57908,1.44302 -3.12862,1.94153 -1.57467,1.42895 -3.67151,1.0547 -8.68323,-1.54878 z M 170.962,259.14628 c -1.68561,-0.69969 -3.56057,-1.27215 -4.16632,-1.27215 -2.20704,0 -8.21282,-7.968 -11.05964,-14.67272 -1.22335,-2.88233 -1.35574,-3.83793 -1.36831,-9.91988 -0.0141,-6.48135 0.0414,-6.83194 1.49627,-9.45688 2.05911,-3.71588 4.83049,-6.8519 6.05532,-6.8519 0.55768,0 1.59463,-0.38091 2.30616,-0.84687 2.27509,-1.49035 7.62186,-1.51106 12.94421,-0.0488 2.58203,0.70931 5.37782,1.65455 6.21286,2.09981 2.36681,1.26328 9.20688,8.11223 10.7601,10.77341 2.76621,4.74101 2.28988,11.80223 -1.27585,18.90856 -2.76917,5.5191 -7.06197,9.03899 -11.75712,9.6403 -1.23074,0.15754 -3.10717,0.88904 -4.17001,1.62496 -1.06285,0.73593 -2.15232,1.32837 -2.42154,1.31654 -0.26923,-0.0119 -1.86904,-0.59466 -3.55465,-1.29435 z m 5.89409,-19.87673 c 0.87424,-1.6331 0.66566,-7.90218 -0.30842,-9.29268 -1.17528,-1.67821 -3.79503,-2.64934 -7.14555,-2.64934 -2.28397,0 -2.95185,0.19748 -3.38157,1.00145 -1.36091,2.54358 0.0924,9.06857 2.43041,10.90729 1.87496,1.47481 7.62186,1.49774 8.40587,0.0333 z M 322.6181,427.14074 c -3.60717,-1.4149 -7.45618,-4.37785 -8.29492,-6.38446 -0.38831,-0.92897 -1.05989,-1.98294 -1.49257,-2.34239 -0.43268,-0.35947 -1.27216,-1.9504 -1.86608,-3.53616 -0.59392,-1.58576 -1.59242,-3.60198 -2.21962,-4.47993 -0.6272,-0.87794 -1.4053,-2.29728 -1.72703,-3.15303 -2.14344,-5.69143 -2.90451,-8.2816 -3.57683,-12.16982 -0.41863,-2.4208 -1.15531,-5.50726 -1.6368,-6.8593 -0.84466,-2.37124 -0.83948,-2.50881 0.15532,-3.88304 0.5673,-0.78401 2.41858,-2.10942 4.11455,-2.94594 2.79948,-1.38088 3.58497,-1.52437 8.51976,-1.55321 2.98957,-0.0177 6.83415,0.15902 8.54269,0.39274 3.00733,0.41123 3.22995,0.55249 6.98948,4.4311 3.19666,3.29799 4.74396,5.55756 8.74904,12.7778 2.67598,4.82384 5.5302,9.74532 6.34231,10.93539 1.80247,2.64268 1.84611,3.52358 0.22411,4.58642 -0.6886,0.45118 -1.76031,1.90158 -2.3816,3.2233 -1.39642,2.97034 -4.63746,7.76238 -6.28166,9.28676 -3.07463,2.85052 -9.28602,3.58497 -14.15867,1.67377 z m 46.48925,23.18583 c -4.79796,-4.4851 -8.14477,-6.863 -11.14765,-7.9214 -2.55911,-0.90235 -5.62709,-3.69223 -7.44953,-6.77351 -1.82687,-3.08943 -2.21888,-4.87266 -1.69152,-7.69582 0.49777,-2.66414 3.04652,-8.49388 3.72328,-8.51458 0.60057,-0.0185 2.34683,1.96223 5.28316,5.99468 1.42378,1.95482 4.5731,5.7713 6.99834,8.4813 7.38592,8.25276 8.84595,10.01602 10.19724,12.31922 1.13089,1.92747 1.25367,2.58278 0.94599,5.04796 -0.3173,2.54135 -0.48076,2.83277 -1.58946,2.83277 -0.81951,0 -2.59314,-1.2692 -5.26985,-3.77062 z m -21.12005,12.90871 c -5.04351,-2.26917 -10.9805,-6.30902 -11.90726,-8.10187 -1.88013,-3.63601 -0.0311,-7.08711 4.44812,-8.30232 2.04655,-0.55545 2.71591,-0.47853 6.49171,0.74703 3.67669,1.19302 4.82459,1.89492 9.06043,5.54276 7.07972,6.09601 7.7402,7.1803 5.59232,9.18173 -1.22555,1.14198 -6.28905,2.69224 -8.54195,2.61533 -0.83578,-0.0289 -3.15007,-0.78549 -5.14337,-1.68266 z m -41.67798,-7.0553 c -0.63239,-0.39939 -0.80842,-2.22332 -0.9482,-9.82816 -0.18195,-9.89918 0.36907,-13.36433 2.41858,-15.21857 0.83356,-0.75442 1.05914,-0.74111 2.69668,0.16346 l 3.08128,1.65824 c 0.71152,0.36907 1.41047,0.81803 1.55322,0.99775 0.14275,0.17974 0.98148,0.69674 1.8646,1.14865 2.05395,1.05175 4.86601,4.2425 4.86601,5.52131 0,0.54215 0.59909,2.84239 1.33059,5.11083 0.73148,2.26843 1.25588,4.90446 1.16491,5.85562 -0.14867,1.55026 -0.49999,1.89641 -3.38157,3.32981 -1.76846,0.88015 -3.40895,1.40677 -3.64489,1.17083 -0.23594,-0.23595 -1.2337,-0.19823 -2.21666,0.0836 -2.26178,0.64865 -7.76017,0.65309 -8.78381,0.006 z m -35.07459,-36.90074 c -1.71816,-1.77953 -7.3593,-12.70383 -8.99757,-17.4256 -1.12054,-3.22922 -1.25663,-6.0154 -0.32396,-6.61893 0.35577,-0.23003 2.97701,-0.44452 5.82457,-0.47558 6.94139,-0.0762 11.00343,-0.90974 16.54101,-3.39341 6.04423,-2.71074 6.98283,-2.76103 8.11667,-0.43268 2.24181,4.6027 2.56355,13.33548 0.61464,16.67342 -1.57541,2.69815 -9.85332,9.61292 -13.86802,11.58329 -4.53835,2.22776 -5.82899,2.24255 -7.90808,0.0895 z m 12.29407,38.9177 c -10.01677,-1.40972 -14.16681,-2.70481 -16.27845,-5.08197 -0.91788,-1.03252 -0.9519,-1.39125 -0.3883,-4.11825 0.33949,-1.64271 0.61833,-3.67225 0.61981,-4.5095 0.002,-0.83726 0.35132,-2.1893 0.7766,-3.00511 0.42529,-0.81581 0.77365,-1.92969 0.77365,-2.47554 0,-0.54584 0.3491,-1.12645 0.77661,-1.29064 0.42751,-0.16419 0.77661,-0.58949 0.77661,-0.94598 0,-2.14714 8.37923,-8.64773 9.96499,-7.72985 2.8128,1.62718 9.4014,8.98352 11.195,12.4997 0.60871,1.19376 1.45558,3.50805 1.88162,5.14262 0.80249,3.07981 1.06801,10.79856 0.38608,11.21423 -0.90531,0.55177 -7.37778,0.73741 -10.48422,0.30029 z m -51.55423,-39.2631 c -1.30839,-0.56063 -4.5731,-4.43554 -7.11003,-8.4384 -1.03178,-1.62718 -2.34979,-3.43335 -2.92892,-4.01248 -0.57913,-0.57913 -1.05323,-1.40308 -1.05323,-1.82984 0,-0.42676 -0.23002,-0.77661 -0.51108,-0.77661 -0.28106,0 -0.83356,-0.75738 -1.22704,-1.68265 -0.39349,-0.92527 -2.16711,-3.31353 -3.94074,-5.30682 -4.61675,-5.18997 -4.95032,-5.96435 -3.73955,-8.68323 1.21077,-2.71887 4.97547,-6.23949 7.60041,-7.10559 1.28177,-0.42307 3.65005,-0.56508 6.73208,-0.40384 5.62486,0.29437 8.79639,1.53916 13.33252,5.2336 1.63162,1.32911 3.09312,2.41637 3.24844,2.41637 0.15533,0 1.90158,0.96595 3.88083,2.14639 4.09975,2.44521 3.91263,1.99625 4.60491,11.0552 l 0.43565,5.69514 -2.11756,2.32982 c -1.16491,1.28103 -2.70777,2.70778 -3.42965,3.17005 -0.72188,0.46226 -2.01104,1.58502 -2.86531,2.4955 -0.85427,0.91047 -2.25439,2.08944 -3.11236,2.61975 -1.82169,1.12793 -6.25354,1.73961 -7.80011,1.07616 z m 17.12459,29.99631 c -1.42378,-0.19895 -2.93853,-0.51182 -3.3653,-0.69598 -0.42677,-0.18417 -3.21442,-0.69525 -6.19437,-1.13607 -5.70549,-0.84392 -11.74233,-3.22034 -13.71269,-5.3978 -0.83504,-0.92305 -0.87942,-1.24775 -0.31286,-2.30689 0.36241,-0.67751 1.23369,-1.53991 1.93486,-1.9149 0.70117,-0.37499 1.90528,-1.62052 2.67523,-2.76621 2.83869,-4.22697 7.2624,-5.508 14.39832,-4.17076 6.31494,1.18341 9.83038,3.22774 10.68391,6.21213 0.16272,0.56952 0.63239,1.96742 1.04361,3.10644 0.41124,1.13902 0.90679,3.17744 1.10131,4.53021 0.2929,2.03472 0.21449,2.45926 -0.45413,2.45926 -0.44821,0 -0.80841,0.43712 -0.80841,0.98001 0,1.62718 -1.5155,1.86608 -6.98948,1.1013 z m -31.09762,-21.62595 -2.15601,-5.5657 -1.95114,-5.24395 c -0.37942,-1.17527 -0.91196,-2.57316 -1.18266,-3.10644 -0.74406,-1.4652 -1.67452,-4.49841 -1.44967,-4.72399 0.10946,-0.10947 0.57691,0.34096 1.03844,1.00145 l 6.15739,8.9665 c 0.96744,1.42378 2.24847,3.90967 2.84535,5.52427 l 1.08651,2.93559 -1.05027,1.33577 c -1.51772,1.92968 -2.32538,1.65824 -3.33868,-1.1235 z"
     fill="#ffffff"
     id="path6"
     style="stroke-width:0.739627" />
  <rect
     style="fill:none;stroke:#000000;stroke-width:3.80665"
     id="rect839"
     width="463.11945"
     height="591"
     x="29.875526"
     y="5.9396982" />
  <rect
     style="fill:none;stroke:#000000;stroke-width:1.43398;stroke-miterlimit:4;stroke-dasharray:none"
     id="rect841"
     width="298.05319"
     height="390.10397"
     x="111.96276"
     y="109.99744" />
  <path
     sodipodi:type="star"
     style="fill:#000000;fill-opacity:1;stroke:#000000;stroke-width:1.5;stroke-miterlimit:4;stroke-dasharray:none"
     id="path849"
     sodipodi:sides="4"
     sodipodi:cx="72.266331"
     sodipodi:cy="100.97487"
     sodipodi:r1="30.688442"
     sodipodi:r2="21.700005"
     sodipodi:arg1="1.5707963"
     sodipodi:arg2="2.3561945"
     inkscape:flatsided="true"
     inkscape:rounded="0"
     inkscape:randomized="0"
     d="M 72.266335,131.66331 41.577892,100.97487 72.266334,70.286427 102.95478,100.97487 Z" />
  <path
     sodipodi:type="star"
     style="fill:#000000;fill-opacity:1;stroke:#000000;stroke-width:1.5;stroke-miterlimit:4;stroke-dasharray:none"
     id="path849-5"
     sodipodi:sides="4"
     sodipodi:cx="452.40699"
     sodipodi:cy="499.92457"
     sodipodi:r1="30.688442"
     sodipodi:r2="21.700005"
     sodipodi:arg1="1.5707963"
     sodipodi:arg2="2.3561945"
     inkscape:flatsided="true"
     inkscape:rounded="0"
     inkscape:randomized="0"
     d="m 452.40698,530.613 -30.68844,-30.68844 30.68844,-30.68844 30.68844,30.68844 z" />
  <text
     xml:space="preserve"
     style="font-style:normal;font-variant:normal;font-weight:normal;font-stretch:normal;font-size:64px;line-height:1.25;font-family:'Bernard MT Condensed';-inkscape-font-specification:'Bernard MT Condensed, ';fill:#000000;fill-opacity:1;stroke:none;stroke-width:0.75"
     x="57.41708"
     y="64.346733"
     id="text868"><tspan
       sodipodi:role="line"
       id="tspan866"
       x="57.41708"
       y="64.346733"
       style="font-style:normal;font-variant:normal;font-weight:normal;font-stretch:normal;font-size:64px;font-family:'Bernard MT Condensed';-inkscape-font-specification:'Bernard MT Condensed, ';stroke-width:0.75">C</tspan></text>
  <text
     xml:space="preserve"
     style="font-style:normal;font-variant:normal;font-weight:normal;font-stretch:normal;font-size:64px;line-height:1.25;font-family:'Bernard MT Condensed';-inkscape-font-specification:'Bernard MT Condensed, ';fill:#000000;fill-opacity:1;stroke:none;stroke-width:0.75"
     x="-450.70868"
     y="-551.6286"
     id="text868-2"
     transform="rotate(178.36369)"><tspan
       sodipodi:role="line"
       id="tspan866-1"
       x="-450.70868"
       y="-551.6286"
       style="font-style:normal;font-variant:normal;font-weight:normal;font-stretch:normal;font-size:64px;font-family:'Bernard MT Condensed';-inkscape-font-specification:'Bernard MT Condensed, ';stroke-width:0.75">C</tspan></text>
</svg>
