<svg xmlns="http://www.w3.org/2000/svg" width="782.667" height="856" viewBox="0 0 587 642" preserveAspectRatio="xMidYMid meet"  xmlns:v="https://vecta.io/nano"><path d="M232 47.8c-3.6.2-6.8.8-7.2 1.5-.5.9-1 .9-1.9 0-.7-.7-1.8-.9-2.8-.4-.9.5-3.6 1.2-6.1 1.6s-5.4 1.2-6.5 1.8-3.3 1.3-5 1.5c-1.6.2-3.2.7-3.5 1.2s-3.1 1.1-6.2 1.3c-3.2.3-7.1 1.2-8.7 2-1.7.8-4 1.3-5.1 1s-2 0-2 .6c0 .5-.7.8-1.5.5-.8-.4-1.5-.1-1.5.6s-.8.9-2.1.5c-1.2-.4-2.7-.1-3.7.9-1 .8-3.9 1.6-6.5 1.8s-4.7.6-4.7 1c0 .3-1.3.9-2.9 1.3-1.6.3-4.4 1.7-6.3 3.1L136 78.1c-10.7 7.7-19.6 16.2-26.9 25.9-9 12-11.4 16.1-16.6 29.5l-3.5 9c-1.9 4.5-3 9.4-3.6 15-.2 3.3-.8 9.6-1.3 13.9-1 10.7-.5 35 .9 40.6.6 2.5 1.3 6.3 1.6 8.5.2 2.2 1 6.5 1.6 9.5.7 3 1.3 5.9 1.4 6.5 0 .5.4 1.7.7 2.5 1 2.7 1.7 17.9 2.3 48 .5 26.6.4 30.9-1.5 43.4-1.1 7.7-1.8 14.2-1.6 14.4.3.3 0 1-.5 1.7-2.3 2.7-3.9 19.6-4.4 46-.3 14.7 0 21.3 1 25 .7 2.7 1.3 6.9 1.4 9.3 0 2.3.7 5.9 1.5 7.9.8 1.9 1.5 4.6 1.5 5.9 0 1.2.4 2.5.9 2.9.5.3 1.5 3 2.1 6.1.6 3 2.4 7.9 3.9 10.8 1.6 2.9 3.1 6.6 3.4 8.2 1.2 6.7 7.8 22.3 11 25.8.9 1.1 1.7 2.6 1.7 3.3s.5 1.3 1 1.3c.6 0 1 1 1 2.1 0 2.4 5.7 12.9 7 12.9.4 0 1 .8 1.4 1.7.6 1.8 1.6 3.7 4.9 8.6 1 1.5 1.5 3.3 1.1 4-.4.6-.4.9 0 .5.4-.3 1.6.1 2.5 1 1 1 4.5 4.3 7.9 7.4 3.6 3.3 6.2 6.5 6.2 7.6 0 1.5.5 1.9 1.9 1.5 1.2-.3 3.1.7 5.6 3.1 2 2 4.3 3.6 5 3.6 1.4 0 7.7 3.1 8.5 4.2.3.4 1.7.8 3 1.1a23.4 23.4 0 0 1 5 1.4c5.5 2.4 9.5 3.8 10.4 3.5.4-.2 1.9.4 3.3 1.3 1.3.9 3.2 1.5 4.1 1.4a9.58 9.58 0 0 1 2.5.1 13.14 13.14 0 0 1 1.5.5c.4.1 2 .7 3.6 1.4 2.1.8 4.2.9 7.5.2 2.5-.5 5.2-.6 6.1-.2.8.4 4.9 1.6 9 2.5l9 2.3c1.8.7 2.5.9 7 2.2 1.9.6 6.7 1.9 10.5 3.1 5 1.5 9.4 2 15.5 1.9 4.7-.1 8.7-.1 9 .1.3.1 2.5.3 5 .5l10 .9c3 .3 11.6.8 19 1.1s15.8.8 18.7 1.1c2.8.3 6 .1 7-.5 3.1-1.6 5.6-2.3 10.3-2.7 2.5-.3 5.9-1.1 7.6-1.9 1.6-.8 5.7-1.9 9-2.5 8.6-1.5 9.3-1.6 16.4-3.5 3.6-.9 7.2-2.3 8-3s2.7-1.5 4.3-1.9c4.4-1 13.7-5.5 19.1-9.3 5-3.3 6.1-4.5 12.9-12.6l6.1-7.3c1.5-1.9 3.2-3.4 3.8-3.4.5 0 2.5-1.5 4.4-3.3 3-2.8 3.7-4.4 5-11.2 2.1-10.9 3.2-24.6 3.3-39.5.1-13.4 1.6-28.2 3.1-31.1.6-1 1-3.5 1-5.6 0-2.2.4-4.3.9-4.8.5-.6 1.4-3.5 2-6.5.7-3 3-9.1 5.3-13.5 3.6-7 6.9-11.9 17.8-26.5 4.7-6.3 14.6-23.4 16.5-28.5 1-2.8 2.2-5.5 2.7-6.1.4-.6 2.9-5.3 5.4-10.5 4.9-9.8 6-13.3 8.9-26.4l3-13c3.8-14.9 5.1-23.4 6.6-44 1.6-22 1.7-44.3.1-51-.7-2.8-1.4-7.5-1.6-10.5s-.9-6.9-1.4-8.7c-.6-1.7-.8-3.4-.5-3.6.4-.5-1.5-4.5-2.7-5.7-.8-.8-3.2-7.4-3.3-9.2-.1-.9-.5-1.4-.9-1.2-.4.3-.8-.2-.8-1.1 0-2.3-2.4-9.5-3.2-9.5-.3 0-.9-1.3-1.3-3-.4-1.6-1.1-3.2-1.6-3.6-.5-.3-1.6-2.1-2.4-4s-1.9-3.4-2.5-3.4-1-.6-.8-1.3c.4-1.5-7.3-10.8-8.3-10.1-.4.2-1-.4-1.3-1.3-.3-1-2.8-3.4-5.5-5.3s-4.7-3.8-4.4-4.3c.2-.4-.3-.7-1.1-.7-.9 0-1.6-.7-1.6-1.5 0-.9-.9-1.5-2.1-1.5-1.5 0-1.9-.5-1.5-1.5.3-.9 0-1.5-1-1.5-1.9 0-9.8-4.5-11.5-6.6-.7-.8-2-1.2-3-.9-1.2.4-1.9.1-1.9-.8 0-1.3-11-7.1-14-7.3-.8-.1-2.8-.6-4.3-1.3-1.6-.6-3.2-.9-3.7-.6-.4.3-1-.1-1.3-.8-.5-1.3-13.1-4.2-14.6-3.3-.4.3-2-.2-3.5-.9-1.6-.9-3.9-1.2-5.4-.8-1.6.4-2.3.2-1.8-.5.4-.6-.1-.8-1.3-.5-1 .3-2.2 0-2.5-.6-.4-.6-2-1.1-3.5-1.1s-3.2-.5-3.9-1.2-3.3-1.3-5.9-1.4c-2.6-.2-4.9-.7-5.1-1.3-.2-.5-.9-.8-1.7-.5-.7.3-2.7-.2-4.4-1-1.6-.9-4.8-1.6-7-1.6s-4.3-.4-4.6-1c-.3-.5-2-1-3.8-.9-1.8 0-5.4-.4-8.2-.9-2.7-.6-8.6-1.7-13-2.5-4.4-.9-8.8-1.9-9.7-2.2-1-.4-1.8-.3-1.8.3s-.9.6-2.5-.1c-1.4-.7-2.5-1.5-2.5-2 0-.4-1.1-.5-2.5-.1-1.5.4-3.2.1-4.1-.7s-2.9-1.2-4.5-1.1c-1.6.2-2.9-.1-2.9-.7s-.9-1.1-2-1.1-2-.5-2-1c0-.6-.6-1-1.4-1-.7 0-1.9-.6-2.6-1.4-.6-.8-1.8-1.2-2.5-1-.8.3-2-.4-2.7-1.5-.7-1.2-2.2-2.1-3.3-2.1s-2.5-.8-3.2-1.9c-.6-1-2.8-2.2-4.7-2.5-2-.4-3.6-1-3.6-1.5 0-.8-7.8-4.5-11.7-5.6-1.3-.4-2.3-1.1-2.3-1.6 0-.6-.8-.8-1.9-.4-1.1.3-2.1 0-2.4-.9-.3-.8-1.4-1.5-2.4-1.6-5.5-.2-12.9-1.3-13.3-2-.8-1.1-5.8-1.6-13-1.2zM242.5 60c.4.6 1.1.8 1.6.4 1.3-.8 10.4 1.3 15.9 3.8 4.4 2 7.1 3.1 10 4.2.8.3 2.2 1 3 1.4 3.7 2.1 6 3.2 7 3.2.5 0 3.2 1.6 6 3.6 2.7 1.9 5.4 3.3 6 2.9.5-.3 1.3 0 1.6.8.3.9 2 2.1 3.7 2.8s3.9 2.1 4.9 3.1 2.7 1.8 3.8 1.8 2 .4 2 .9 1.7 1.1 3.8 1.4c2 .2 8 1.2 13.2 2.1l14 2.3c6.4.7 7 .8 11.9 2.2 2.4.7 7.1 1.5 10.5 1.7 3.3.3 6.5.9 7.1 1.3.5.5 4.3 1.6 8.3 2.6 4 .9 7.5 2.1 7.8 2.6s.9.7 1.4.4c.8-.5 3.2 0 12.5 2.5 3.9 1 19 3.9 23 4.4 1.1.1 2.8.6 3.8 1 .9.5 2.3.6 3.1.3s2 .1 2.6.9c.7.8 2.1 1.4 3.1 1.4 1.1 0 1.9.5 1.9 1 0 .6.3.9.8.8.4 0 2.5.7 4.7 1.7s4.5 1.9 5 1.9c1.1.1 6.3 3.4 8.3 5.3.7.7 1.7 1.3 2.2 1.3s2.5 1.4 4.5 3.1c2 1.8 3.8 2.9 4.1 2.6s2.4 1.3 4.6 3.4c2.3 2.1 4.5 3.9 4.9 3.9.5 0 1.6 1.1 2.5 2.5 1.4 2.1 1.4 2.8.3 4.1-.7.9-2.3 2-3.6 2.5-2.8 1.1-3.1 5.7-.6 9.9 1.5 2.7 1.5 3-.1 5.6-1 1.4-2.1 2.2-2.5 1.7-.3-.5-1.6-1.2-2.9-1.5-2.8-.8-5.2 2.4-5.2 6.8 0 3.1.1 3.2 7.8 6.7 2.7 1.3 2.9 5 .5 7.5-1 1-3.5 3.9-5.6 6.5-4.3 5.2-6.3 5.9-7.6 2.4-1-2.6-5.3-4.8-9.9-5.2-1.6-.1-3.4-.5-4-.9-.7-.4-1.2-.1-1.2.8s-.4 1.6-.9 1.6-.8 1.1-.8 2.5c0 2.4 5.2 7.5 7.7 7.5 2.2 0-1 3.8-4.2 4.9-1.7.6-3.9 1.8-4.9 2.7-.9.8-2 1.4-2.5 1.3s-1.7.1-2.7.6c-2 .8-4.7-1-4.7-3.1 0-1.8-1.9-4.9-5-8.4-2.1-2.3-2.9-2.5-4.8-1.7-2.5 1.1-2.5.6-.7 11.3.8 4.5-.4 6.3-2.7 4.2-.8-.7-2.2-1.8-3.3-2.4s-2-2.4-2.3-4.5c-.2-1.9-.9-3.9-1.6-4.4-.7-.6-1.1-1.6-.8-2.4.2-.7 0-1.6-.5-2-.5-.3-1.3-2.1-1.9-4-1.2-4.3-3.6-6-5.8-4.2-1.8 1.5-2.3 13.1-.6 13.1 1.1 0 1.4 3.3.4 4.3-.8.8-5.4-1.4-5.4-2.5 0-.5-.5-.6-1-.3-.6.4-3.1-.3-5.5-1.4-2.5-1.2-5.4-2.1-6.5-2.1s-2-.5-2-1c0-.6-1.3-1-2.9-1-2.3 0-3.3-.7-4.5-3.2-.9-1.7-1.6-3.7-1.6-4.5 0-.7-.6-1.3-1.3-1.3-.8 0-2.2-.9-3.2-2-2.3-2.5-8-3.7-10-2-2.1 1.7-1.9 4 .7 6.7 1.8 1.9 2 2.8 1.2 4.1-.6.9-2 1.7-3 1.8-2 .1-3.7.7-8.9 2.9-9.5 4-16.1 7-16.5 7.5-.3.3-2.2 1.4-4.4 2.5-2.1 1-5.3 3.7-7.1 5.8-2.9 3.4-3.6 3.7-5.4 2.7-1.2-.6-2.1-1.4-2.1-1.8s-1.4-1.3-3.1-2.1c-2.6-1.2-3.2-1.1-5 .4-2.4 2.2-2.7 9.4-.4 9.6.8.1 2 .3 2.5.4.6.1 1.5.3 2.1.4 1.4.1.7 3.9-1.6 10.1-1 2.5-2.1 7.4-2.4 11-.6 6.3-.7 6.5-3.3 6.2-1.9-.2-3.1.3-4.3 2.1-2.2 3.4-1.5 8.2 1.2 8.2 1.1.1 2.8.6 3.6 1.4 1.2.9 2.1 1 3.6.2 1.6-.9 2.1-.7 2.6 1.2.4 1.2 1.8 3.6 3.1 5.3 1.2 1.7 2.6 4.3 3 5.8s1.4 3 2.3 3.3c.9.2 2.3.8 3.2 1.3 1.8.9 7.6-.7 10.3-2.9 2.8-2.3 2-7.4-1.5-10-1.7-1.3-3.3-2-3.6-1.7-.9.9-3.5-2.4-3-3.8.3-.8 1.6-2 2.9-2.8 8.4-4.7 8.8-5.1 8.8-9.5 0-3.3.7-5 3.2-7.8 2.7-3.1 3-4 2.2-6.3-.5-1.5-1.8-2.8-2.9-3-2.9-.6-4.5-2.2-4.5-4.4 0-1.5-.5-1.8-2-1.3-3.2 1-2.6-3.1.8-4.9 1.5-.8 3.8-2.4 5.1-3.5 2.5-2.2 6.1-2.8 6.1-1.1 0 .5.6 1 1.4 1 2.2 0 4.6 5.7 3.9 9.1-.6 3.2.7 3.8 2.7 1.4.7-.9 2-1.3 2.7-1 4.9 1.8 7.6-5.8 4.8-13.2-1.7-4.4-1.7-4.7 0-6 2.2-1.6 3.5-1.7 3.5-.3 0 .5.8 1 1.8 1 1.1 0 2.7 1.5 3.8 3.7 1.9 3.5 2.4 3.8 6.3 3.7 3.1-.1 4.8-.7 6.5-2.5 1.2-1.3 2.1-3 1.8-3.7-.2-.6.3-1.2 1.2-1.2s1.6.4 1.6 1c0 .5.9 1 1.9 1 1.1 0 2.3.5 2.6 1 .4.6 1.1.8 1.6.5.5-.4 1.2.1 1.5 1 .4.9 1.3 1.4 2.2 1 .8-.3 2 .2 2.6 1 .6.9 2.9 2.2 5.1 2.9 2.7 1 4.1 2.1 4.3 3.5.2 1.3 1.1 2.1 2.2 2.1 1 0 2.2.4 2.5 1 .7 1.2 6.5 1.4 6.5.2 0-1.3 14.8-.8 16.1.5 1 1 1.9.6 4.4-1.5 6.8-5.7 7.9-6.4 14.5-9.1 3.7-1.5 7.5-3.3 8.4-4 1.6-1.4 3.1-.9 3.1 1 0 1.2.5 1.2 3.5.1 4.1-1.6 7-5 7-8.2 0-2.8.5-3.6 5.2-7.6 1.3-1.1 3.2-4.6 4.2-7.8 1.4-4.4 2.5-6 4.5-6.9 1.4-.6 3.8-2.2 5.3-3.5l2.7-2.5-2.2-2.8c-1.4-2-2.9-2.9-5-2.9-2.4 0-2.7-.3-2.3-2l1.2-4.2c.4-1.2 1.5-3 2.4-4.1 1.8-1.9 1.8-1.9 2.9.2.7 1.2 1.8 2.1 2.5 2.1.8 0 1.3.6 1.3 1.2-.2 1.7 4.1 14.8 5.2 16.2.5.6 1.1 2.4 1.4 4.1.3 1.6 1.5 7.3 2.7 12.5 3.3 15 4.8 25.9 4.5 34-.5 12.5-3.6 52.3-4.1 53.2-.6.9-.9 2.3-1.8 9.3-.8 5.3-4.7 21.9-7.1 29.9-.8 2.6-1.5 5.3-1.5 5.8s-2.6 6.4-5.8 13.1l-8.3 17.2c-4.6 9.7-6.7 13.1-25.7 40.2-4.6 6.5-9 14.2-10.6 18.5l-3.6 9.3c-1.7 4-6.3 24.1-6.7 29-.2 2.7-.8 5.4-1.3 6.1-.6.6-1.2 8.2-1.5 17-.8 26.7-2.7 39.2-6.8 43.7l-8.2 9.1c-7.3 8.3-12.5 13.2-13.6 12.9-.5-.2-1.3.6-1.9 1.7-.7 1.3-2.1 2-4.1 2-1.8 0-3.2.6-3.6 1.6-.6 1.6-15 8.9-16.7 8.5-.5-.1-1.2.2-1.5.8-.6.9-13.5 4.6-18.6 5.4-1.1.1-2.5.6-3.1 1-.6.3-2.7.8-4.7 1.1-1.9.2-4.4.9-5.4 1.4-2.5 1.4-16.7 2.6-27.8 2.4l-14.2-.2c-2.9-.1-5.3-.4-5.3-.9s-3-.8-6.7-.9c-9.8 0-24.2-1.1-28.8-2.2-2.2-.5-6.1-1.2-8.6-1.5-2.6-.3-5.4-1.4-6.3-2.4-1.2-1.3-2.8-1.8-5.3-1.6-2 .2-4.6-.1-5.7-.8-1.2-.6-2.3-1.2-2.6-1.2-.3-.1-2.4-.7-4.6-1.3-2.3-.7-6.6-1.4-9.5-1.7l-10.4-1.1c-2.7-.3-5.8-.7-6.7-.7-1-.1-1.8-.5-1.8-.9s-.9-.8-2-.8-3.7-.9-5.7-2c-2.1-1.1-4.5-2-5.3-2s-4.2-1.4-7.5-3-6.4-3-6.8-3c-.7 0-1.8-.7-9.9-6.2-1.7-1.2-3.8-2.1-4.5-2.1s-1.3-.4-1.3-.9c0-.4-.7-.8-1.5-.8s-1.7-1.1-2.1-2.4c-.3-1.3-1.6-2.9-2.9-3.6s-4-3.3-6.2-5.8c-2.1-2.6-4.9-5.7-6.2-7.1-1.3-1.3-2.9-3.9-3.7-5.6-.7-1.8-2.4-4.3-3.8-5.6s-2.6-3-2.6-3.8c0-.7-1.8-4.6-4-8.6s-4-8-4-8.9-.4-1.6-1-1.6c-.5 0-1.2-1.5-1.5-3.3-.4-1.9-1.8-4.6-3.1-6.2-1.3-1.5-2.4-3.5-2.4-4.4s-.9-3.1-2-4.9-2-3.9-2-4.7c0-.9-.4-2.3-.9-3.3-2.1-4.1-3-7-3.4-10.7-.3-2.2-1.5-8.1-2.6-13-1.4-5.4-2.7-15.7-3.3-26-1-14.6-.9-19.6.6-35.5 1-10.2 2.2-19.3 2.7-20.2.5-1 1.2-3.9 1.4-6.4.3-2.5.7-4.9.9-5.3.3-.4.8-7.4 1.1-15.6l1.2-22c.3-3.9.5-9.7.4-13-.8-31-1.2-38-2.5-44.5-.9-4.1-1.6-8.9-1.6-10.7 0-1.7-.5-4.4-1.1-6-.6-1.5-1.2-5.2-1.4-8.1-.2-3-1.1-10-2-15.5l-1.9-12.6c-.2-1.3 0-5.6.5-9.5.6-3.9 1-8.9 1-11.1s.4-5.6.9-7.5 1.6-6.7 2.6-10.5c.9-3.9 2-7.5 2.4-8 .4-.6 1.3-3.1 2-5.8.7-2.6 1.7-4.7 2.1-4.7.5 0 .9-.7.9-1.6s.8-2.8 1.8-4.2c1-1.5 2.4-4.1 3.1-5.9.7-1.7 2.1-3.9 3.2-4.9 1-.9 1.9-2.3 1.9-2.9 0-2.1 18.3-20.1 22.1-21.8 2-.9 4.2-2.4 5-3.3s4.7-3.9 8.7-6.5c6.6-4.4 15.4-7.7 24.7-9.3 1.1-.2 4.6-1.1 7.8-1.9 3.2-.9 6.4-1.4 7.2-1 .8.3 1.5.1 1.5-.5 0-.5 1.6-1.3 3.6-1.7 2.1-.3 4.7-1.3 6-2.2 1.3-.8 2.8-1.2 3.3-.8.6.3 2.5-.1 4.3-.9 3.5-1.5 7.7-2.3 16.8-3.3 3-.3 5.6-.6 5.7-.7.9-.7 9.3-.3 9.8.4zm78.8 179c8.2 6.9 8.4 7.4 4.5 9.8-1.8 1.1-5.1 2.4-7.2 2.8l-3.9.7.6-5.1c.6-5 2.4-9.2 4-9.2.4 0 1.3.5 2 1zm-146.1-85c-7.6 2.1-11.8 4.7-17.6 11.3-6.5 7.1-9.2 15.3-10.6 31.7-1.3 15.4-.2 22.2 5.9 36 .8 1.9 1.4 4.1 1.3 4.8-.2.6.9 1.7 2.3 2.2s2.9 2 3.4 3.2c.5 1.3 1.9 3.3 3 4.5 1.2 1.3 1.8 2.3 1.4 2.3s.3.7 1.6 1.7c17 11.8 41.1 11.3 53-1.1 1.9-2 4-3.6 4.7-3.6 1.7 0 5.2-6 6.1-10.1.3-1.9 1.7-4.8 2.9-6.5 5.5-7.2 7.2-19 4.8-33.1-.8-4.9-1.9-9.6-2.4-10.5-.6-1-1-2.9-1-4.3s-.4-2.5-.9-2.5-1.3-1-1.7-2.2c-.9-2.9-6.5-9.9-7.4-9.3-.4.2-1.8-.7-3.1-2.1-3-3.1-7.6-5.5-9.5-4.7-.9.3-1.4 0-1.2-.8s-.2-1.3-.9-1.2c-.7.2-1.7-.6-2.3-1.8-.8-1.3-1.9-1.9-3.4-1.7-1.3.1-3.1-.3-4-1.1-2.7-2.2-17.7-2.9-24.4-1.1zm20.7 10.6c1.7.4 3.1 1.3 3.1 2s.6 1.1 1.3.8c.7-.2 2.4.4 3.7 1.6 1.3 1.1 3.1 2 4 2 1 0 2.3.6 3 1.4.6.8 1.8 1.2 2.6.9.7-.3 1.7.2 2 1.1s1.3 1.6 2 1.6c1.9 0 7.6 9.1 7.1 11.2-.3.9-.1 1.8.4 2 .9.3 2.5 11.4 3.4 22.3.3 4.9-4 14.7-8.8 19.7-1 1-1.5 2.3-1.1 2.9 1.3 2.1-13.6 15.2-16.2 14.2-.8-.3-1.4 0-1.4.5 0 .7-3.4 1-10.1.7-8.9-.3-10.4-.6-13.4-2.9-1.9-1.4-3.9-2.6-4.4-2.6-.6 0-1.8-1.8-2.7-4s-2.2-4-3-4c-.7 0-1.7-1.2-2-2.8-.4-1.5-1.1-3.2-1.5-3.8-.5-.6-1-2.5-1.2-4.2s-.8-3.7-1.4-4.4c-1.5-1.8-2.4-7-3-16.1-.6-10.6 1.9-23 5.6-27.7 1.5-1.9 3-4.2 3.4-5.2.8-2.2 10.5-7 12.7-6.3.9.3 2.8.1 4.1-.4 2.9-1.2 7.5-1.3 11.8-.5zm-1.9 28.1c-5.9.6-7.4 1.1-10.8 4.1-2.9 2.5-3.4 3.7-3.9 8.8-.5 5.9-.5 6 3.1 8.7 2 1.6 3.6 2.4 3.6 1.9s2.1-.6 4.7-.2c5.3.8 7.3.4 7.3-1.5 0-.6.8-2.6 1.8-4.4 4.9-9.2 5.1-9.6 3.7-10.3-.7-.5-1.1-1.7-.8-2.8.4-1.3 0-2-1-2-.8 0-1.7-.7-2.1-1.5-.3-.8-.9-1.4-1.3-1.3-.4 0-2.4.3-4.3.5zm31.7 91.5c-1.4 1.3-2.9 3.5-3.2 5-.6 2.4-.3 3 2.4 4.5 1.7 1 3.8 3.4 4.7 5.3s4.2 6 7.4 9.1c6.1 6.2 10.3 11.4 11.3 14.1.3 1 1.1 1.8 1.7 1.8.5 0 1 .7 1 1.6 0 .8.7 2.2 1.5 3 .8.9 1.5 2.6 1.5 3.8 0 1.3.7 2.9 1.5 3.6.9.7 2.2 2.8 3.1 4.6s4 5.6 7 8.4 5.4 5.5 5.4 5.9c0 3.3 22.2 8.6 26.7 6.3 1-.5 3.6-1 5.8-1.1 6.6-.4 7.9-.7 10.2-1.9 1.2-.7 4.5-1.7 7.5-2.3 8.2-1.8 21.6-8.7 29.1-15.1 3.7-3.2 7.1-5.8 7.5-5.8.5 0 3.3-2.3 6.3-5.2s5.9-5.1 6.5-5c.7.1 1.4-.8 1.8-2 .3-1.3 2.9-3.8 6-5.8 3.1-1.9 5.7-4.2 5.9-5 .5-2.2-7.4-10.1-9.4-9.5-1 .3-2 .1-2.4-.5-1.2-1.9-2.5-1-2.5 1.8 0 2.1-1.9 4.6-8.7 11.3-4.9 4.7-11.7 10.6-15.4 13.1-3.6 2.6-7.2 5.4-7.9 6.3-1.2 1.5-8.2 5.2-11.2 6a13.14 13.14 0 0 1-1.5.5c-.5.1-1.2.3-1.8.4-.5.1-2.4.9-4.1 1.8-3.2 1.7-5.7 2.4-12.9 3.4-2.2.3-5.6.9-7.5 1.4-1.9.4-5.8.8-8.6.9-5.3.2-7.3-.9-14.1-7.7-1.2-1.2-2.7-2.2-3.3-2.2s-1.8-1.5-2.6-3.3c-.9-1.7-2.6-5-3.9-7.2s-2.4-4.6-2.4-5.4c-.1-.8-1.7-3.3-3.6-5.7-1.9-2.3-3.5-4.7-3.5-5.2 0-.6-2.2-3.2-4.8-5.9-2.6-2.6-6.1-6.6-7.7-8.8-6.1-8.2-11.1-13.5-13-13.5-.8 0-1.5-.5-1.5-1 0-1.6-1.5-1.2-4.3 1.2z"/><path d="M158.9 353.5c-.3.2-2.1.6-4 .8-3.6.4-9.9 3.5-9.9 4.8 0 .4-.9 1-1.9 1.4-5 1.6-10.2 17.9-12.1 38-1.3 13-2 16.8-3.9 18.9-1.2 1.4-1.3 2-.4 2.3 1 .4.9.8-.2 2-2.3 2.2-1.8 3.3 1.5 3.3 3.2 0 3.6.9 1.9 4.1-1.2 2.3-.3 5.9 1.5 5.9.9 0 1.2.9.8 2.6-.5 2.8 1.6 13.3 3 14.9.4.5.8 1.9.8 3.1s.7 2.7 1.5 3.4c1.1.9 1.4 2.2.9 4.6-.4 2.2-.2 3.4.5 3.4.6 0 1.1.8 1.1 1.9 0 1 .7 2.4 1.5 3.1s1.4 1.8 1.4 2.4c-.3 1.9 2 6.6 3.5 7.2.8.3 1.7 1.5 2 2.7s3.7 5.5 7.5 9.6c6.3 6.7 7.2 7.3 9.9 6.8 2-.4 3.4-.1 4.2.8.7.8 1.9 1.5 2.7 1.5s1.1.4.8 1c-.4.6.6 1 2.2 1s3.9.7 5.1 1.6c1.8 1.2 2.6 1.3 3.7.4.9-.7 3-1 5.2-.7 11.9 1.8 16.8 2.9 20.6 4.9 2.3 1.2 5 2.1 6 1.9.9-.1 1.7.4 1.7 1.2 0 .9 1.4 1.7 3.8 2 3.4.6 7 3.9 6.4 6-.4 1.3 2.5 3.7 4.5 3.7 1 0 2.5.9 3.3 2s1.9 2 2.5 2 3.7 2.5 7 5.5c3.2 3 6.4 5.5 7.1 5.5s2.5.6 4.1 1.4c1.5.8 5.1 2.5 7.8 3.7 2.8 1.3 5.6 2.8 6.4 3.3 1.4 1.1 1.8 1.2 5.9 1.4 1.2.1 3 1 4.1 2.1 2.8 2.8 19.8 4.4 22.5 2.2.6-.6 3.1-1 5.4-.9 2.3 0 4.9-.5 5.7-1.2.8-.6 1.8-.9 2.3-.6 1.5.9 13.8-2.1 19.9-5 3.2-1.4 6.6-2.7 7.6-2.8 1 0 2.1-.6 2.5-1.3.4-.6 1.4-1.3 2.2-1.5 2-.4 8.6-4.9 13-8.7 1.9-1.7 3.8-3.1 4.1-3.1 1.4 0 6.9-10.1 9.4-17.2 2.4-6.8 2.6-8.4 1.8-13.5-.7-4.9-.6-6.4 1-9.5 2-3.9 2.2-5.6 1.2-10.3-.8-4.3-1.1-6.9-1.9-16.5-1.4-16-3.5-27-5.6-29.2-1.1-1.2-2-2.9-2-3.7 0-1.6-.3-2-10.4-12.4-3.6-3.8-6.6-6.5-6.7-6 0 .4-.4-.2-.9-1.5-.5-1.2-1.7-2.5-2.6-2.9-1-.4-2.6-1.5-3.7-2.6-1-1-2.5-1.6-3.2-1.3-.7.2-1.8-.1-2.4-.8s-2.2-1.2-3.6-1c-1.4.1-2.5-.2-2.5-.7s-.7-.9-1.5-.9-3.1-.9-5.1-2c-2-1.2-3.9-1.9-4.2-1.6s-1.1.1-1.9-.5c-.7-.6-2.2-.9-3.3-.6s-2 .1-2-.3-2.4-1.1-5.2-1.5c-2.9-.4-6.9-1.1-8.8-1.5-1.9-.5-6.9-1.2-11.1-1.5-4.1-.3-8.6-.7-9.8-1-1.3-.2-5.5-.7-9.5-1-12.6-1-15.1-1.3-24.7-3-5.2-1-10.5-2.5-11.9-3.5-1.4-.9-3.1-1.5-3.7-1.3-.7.3-1.3-.1-1.3-.8s-.3-1-.6-.6c-.3.3-2.7-.6-5.2-1.9-2.6-1.4-8.5-4.1-13.2-6.1s-8.9-4.1-9.5-4.8c-1.8-2.1-7.4-4.3-9.5-3.8-1.1.3-2 .1-2-.5s-2.2-1.6-5-2.3c-2.7-.7-5-1.6-5-2.1 0-.4-.7-.5-1.5-.2-.8.4-1.5.2-1.5-.3 0-1.7-16.8-5.2-18.1-3.8zm12.6 13.6c.5.5 2.1.9 3.6.9s3.1.5 3.5 1.1c.3.6 1.7.8 3 .5 1.7-.5 2.7-.1 3.6 1.4.7 1.1 1.8 2 2.5 2 .6 0 2.8.9 4.7 2.1 3.5 2 4.9 6 2.7 7.3-.5.3-1.2 3.4-1.6 6.8s-1.1 6.9-1.5 7.8c-4.9 10.2-7.5 14.7-11.2 19.3-6.5 8.2-11.7 10.7-15.6 7.4-.7-.5-3.9-1.2-7-1.4-7.1-.6-10.6-2.2-11-5.1-.3-1.6-.8-2.2-1.9-1.8-.8.3-2.3.1-3.4-.5-2.2-1.1-2.1-4.5.8-19.9l1.8-10.5c1.5-9.9 9.4-19.6 14.5-18 1 .3 2.1.2 2.4-.4.7-1.1 8.6-.3 10.1 1zm45.8 22.3c1.5.3 2.7 1 2.7 1.5 0 .4 1.1.6 2.5.4 1.5-.3 3.1.1 4.1 1.1.9 1 2.9 2 4.5 2.3s3.2 1 3.5 1.4c.3.5 2.2.9 4.3.9s5.9.6 8.5 1.4c2.7.8 5.4 1.2 6.2.9 1.9-.7 1.8.9-.5 6-1 2.3-2.4 6.4-3.1 9.2-.7 2.7-1.6 5.4-1.9 6-.3.5-1.1 2.5-1.6 4.4-.6 1.9-2.6 4.7-4.7 6.3-3.4 2.8-4.2 3-12.7 3.1-5.7.1-9.4-.2-10.2-1-.6-.6-1.8-.9-2.5-.6-.8.3-1.4.1-1.4-.5 0-.5-1.1-1-2.4-1-2.7 0-5.8-2.7-8.1-7.2-2.1-4-2.2-15-.2-18.7.8-1.6 2-4.8 2.7-7.3s1.6-5.3 2.1-6.2c.5-1 .9-2.7.9-3.9 0-2 .2-2 2.3-.7 1.2.8 3.4 1.8 5 2.2zm69.2 13c12.4 1 22 3 22 4.6 0 .8.4 2.1.8 2.8.5.7.6 2 .3 3-.9 2.9-4.6 25.2-4.6 27.9 0 4.6-10.6 16.2-16.7 18.2l-4 1.3-4.7-4.8c-2.5-2.7-4.6-5.3-4.6-5.9s-.9-1.6-2-2.3-2-1.7-2-2.3-.7-2.7-1.6-4.7c-4.7-10.8-5.9-17-4.4-23.2.7-2.8 1.6-5.3 2.1-5.6s.9-1.6.9-2.8c0-1.3.7-2.9 1.5-3.6.9-.7 1.4-1.8 1.1-2.5-.4-1.2 1.9-1.2 15.9-.1zm44 9.8c2.2.3 4.9 1 6 1.6 1.1.5 3.6 1.7 5.5 2.6 3.4 1.4 14 11.6 14 13.3 0 .4 1 1.9 2.3 3.3 5.7 6.3 6.7 9.4 6.7 21.3 0 6.2.6 15.7 1.4 21.2 1.4 10 1.4 10-1 12.5-2.8 3-8.6 4.9-13.4 4.4-1.9-.3-4.3-.5-5.4-.5-1 0-2.5-.7-3.3-1.5-.8-.7-2.3-1.4-3.3-1.4-.9 0-3.5-1.8-5.6-4-5.3-5.4-5.7-5.9-8.4-10.7-1.7-3.1-2.7-4-3.5-3.3-.9.7-1.2.3-1.2-1.7 0-3.1-.7-7.6-2.3-14.3-.6-2.5-.9-6.8-.6-9.5 1.1-10.2 1.8-14.5 2.5-14.5.3 0 .7-1.9.8-4.3.2-3.8 1.8-12 2.9-15.7.4-1 .7-1.1 1.2-.3.4.6 2.5 1.3 4.7 1.5zm-174.1 26.6c.5 1.6 1.6 1.7 12.8.9 12.5-.8 14.4-.4 13 3.1-.3.8.1 2 .9 2.6s1.5 2.2 1.7 3.6c.6 6.1.1 17.6-.9 21.4l-2.6 10.1c-.8 3.3-2 7.5-2.5 9.3l-1 3.2-2.8-2c-1.5-1.1-3.5-2-4.4-2-1.8 0-12.6-10.8-12.6-12.6 0-.8-1.3-2.9-3-4.7-1.6-1.9-2.7-3.7-2.3-4.1.3-.3.1-.6-.6-.6s-1.1-.7-.8-1.5c.4-.8.2-1.7-.3-2-.6-.4-1-1.9-1-3.6 0-1.6-.4-2.9-1-2.9-.5 0-1.8-3-3-6.6-1.9-6.2-1.9-9.1 0-7.9.4.3 2.1-.8 3.7-2.5 3.1-3.4 5.9-3.9 6.7-1.2zm69.8 12.4c.9 0 1.9.6 2.2 1.4s1.2 1.4 2.1 1.4c3.9 0 9.9 5.4 9.1 8.3-.2 1 .2 2.1 1 2.4 2.3.8 4.4 7 4.4 12.7 0 4.3-1 7.2-6.6 18.3-5.9 11.8-6.9 13.1-8.5 12.2-1.1-.5-1.9-1.3-1.9-1.8s-2.8-1.6-6.2-2.6c-3.5-.9-6.7-2.1-7.3-2.5-.5-.5-2.8-1.1-4.9-1.6-2.2-.4-5.1-1.3-6.5-2-1.4-.8-3.7-1.4-5.1-1.4-4.3 0-5.4-1.4-4.6-5.6l1.5-8.1c.4-2.3 1.3-4.9 2-5.7s1.2-2.5 1.1-3.8-.1-2.5 0-2.8.7-2.5 1.3-5c1.1-4.1 1.9-5 9-9.6 7-4.7 8.2-5.1 12-4.7 2.3.3 5 .5 5.9.5zm51.6 31.2c.7.4 1.9.3 2.8-.5 1.1-.9 1.8-.8 3.2.5 1 .9 2.2 1.6 2.7 1.6 1.3 0 4.4 4.1 3.9 5.3-.2.7.9 1.8 2.6 2.5 1.6.8 3 1.8 3 2.4s-1.3 3.2-2.9 5.8c-2.1 3.4-3.1 6.7-3.6 11.1-.3 3.5-1.1 8.2-1.7 10.4s-1.3 7.5-1.7 11.7l-.6 7.7-5.5-2c-3-1.1-7.1-2.4-9-3-1.9-.5-4.6-1.5-6-2.2-3.9-1.8-12.8-8.6-13.4-10.3-.3-.7-1.3-1.4-2.2-1.4-2.1 0-4.3-2.8-4.4-5.5 0-1.1.9-4.3 1.9-7 4.2-10.8 8.3-17.4 13.9-22.7 5.4-4.9 6.1-5.3 10.7-5.3 2.8 0 5.6.4 6.3.9zm47.9 20.3c2.8 1.2 6.1 2.3 7.2 2.3s2.5.9 3.1 1.9c.6 1.2 1.7 1.7 2.9 1.4 1-.3 2.2 0 2.5.6.4.6 1.5 1.1 2.5 1.1s2.4.7 3.1 1.5c.7.9 2.1 1.3 3.1 1 1.1-.4 1.9-.2 1.9.4 0 .5 1.3 1.2 3 1.6 1.6.3 3.2 1.5 3.5 2.5 1.2 3.7-15.2 16.9-19.8 16.2-1-.2-2.7.4-3.8 1.4-1.1.9-3.1 1.9-4.4 2-1.4.1-3.9 1-5.7 1.8-1.7.9-4.3 1.6-5.8 1.6-1.4 0-3 .4-3.5.9-1.2 1-9.5 3.1-12.5 3.1-1.8 0-2-.5-1.6-4.3.7-6.1 2.4-15.6 3-16.5.3-.5 1.4-5.3 2.6-10.8 1.2-6.1 2.6-10.4 3.7-11.1 2.5-1.9 9.2-1.3 15 1.4z"/><g fill="#fff"><path d="M295.366 571.885c-.821-.37-7.909-1.026-15.751-1.458-16.916-.932-31.033-3.194-34.215-5.482-1.268-.912-3.781-1.718-5.972-1.916-2.081-.188-6.303-1.154-9.382-2.147-3.3-1.064-10.748-2.413-18.143-3.286-6.899-.815-13.114-1.764-13.811-2.11s-2.442-1.035-3.88-1.532c-12.9-4.464-24.773-9.799-31.138-13.992-2.377-1.566-5.623-3.51-7.213-4.321s-3.369-2.202-3.952-3.092-4.505-5.156-8.717-9.481c-4.233-4.347-8.604-9.641-9.775-11.839-1.165-2.186-3.024-4.983-4.132-6.215-1.994-2.217-11.218-20.786-11.218-22.583 0-.513-.323-.932-.718-.932s-1.067-1.298-1.494-2.884-1.598-4.094-2.601-5.573c-1.688-2.487-4.655-8.96-6.56-14.312-.439-1.232-1.409-3.791-2.156-5.688-1.613-4.095-6.204-26.449-7.494-36.49-1.433-11.157-1.24-40.176.353-53.002.739-5.953 1.791-12.504 2.337-14.557 1.413-5.309 2.556-14.361 3.018-23.888l1.183-21.649c1.44-24.627-.502-55.838-4.877-78.384-1.697-8.746-4.897-34.08-4.856-38.445.133-14.229 3.329-32.187 8.184-45.994 2.21-6.284 9.675-21.196 11.917-23.805.706-.821 2.008-2.706 2.894-4.189 2.125-3.557 17.92-18.821 21.543-20.819 1.563-.862 5.194-3.4 8.068-5.639 6.396-4.983 13.241-8.618 20.156-10.703 7.946-2.396 21.083-5.307 23.948-5.307 1.404 0 2.553-.323 2.553-.718s1.428-1.068 3.173-1.495 4.124-1.28 5.286-1.895 2.79-1.118 3.617-1.118 3.739-.667 6.471-1.483c9.105-2.717 29.303-4.69 30.368-2.966.264.427 1.111.576 1.883.332 4.062-1.289 32.389 9.876 42.516 16.758 1.848 1.256 3.81 2.284 4.361 2.286s1.895.688 2.986 1.525c4.075 3.126 10.012 6.689 11.145 6.689.645 0 1.703.474 2.351 1.053.703.628 8.111 2.137 18.348 3.737 9.443 1.476 20.193 3.344 23.888 4.151s8.566 1.682 10.824 1.945c4.241.495 20.642 4.946 23.129 6.277.774.414 2.292.753 3.374.753s5.219.821 9.194 1.825c6.539 1.651 24.155 5.197 30.742 6.188 1.437.216 3.275.853 4.085 1.416s2.07 1.022 2.799 1.022 1.327.295 1.327.655 2.958 1.721 6.572 3.025c3.673 1.324 8.29 3.67 10.466 5.317 2.142 1.621 4.108 2.947 4.37 2.947s2.186 1.301 4.277 2.891 4.205 3.018 4.699 3.173c1.432.449 11.442 9.007 12.206 10.435.543 1.014.167 1.718-1.726 3.235l-3.419 2.765c-1.198.991-.84 6.567.649 10.087.869 2.056.83 2.601-.311 4.342-.887 1.353-1.588 1.771-2.188 1.303-3.798-2.962-7.975-.158-7.975 5.353 0 2.718.366 3.627 1.967 4.886 1.082.851 2.38 1.547 2.885 1.547 1.581 0 4.852 3.029 4.852 4.492 0 1.621-9.14 12.714-11.329 13.751-1.204.571-1.822.259-3.343-1.684-2.331-2.978-3.69-3.709-8.636-4.643-2.167-.409-4.443-.9-5.059-1.091-1.331-.412-2.986 2.726-2.986 5.66 0 2.225 5.043 7.403 7.21 7.403 1.088 0 1.066.188-.189 1.596-.782.878-2.598 2.092-4.035 2.698s-3.464 1.707-4.504 2.446-3.066 1.564-4.503 1.833c-2.924.549-4.626-.746-5.426-4.127-.247-1.045-1.681-3.48-3.186-5.412-2.03-2.606-3.241-3.51-4.69-3.502-3.699.022-4.087.796-3.522 7.032.284 3.135.666 6.108.848 6.607s.031 1.38-.337 1.958c-.542.851-1.237.601-3.651-1.311-2.334-1.849-3.177-3.173-3.877-6.092-.492-2.052-1.197-3.917-1.566-4.145s-.672-.993-.672-1.699-1.092-3.458-2.426-6.115c-2.001-3.985-2.749-4.831-4.27-4.831-1.218 0-2.165.634-2.788 1.866-1.123 2.22-1.302 11.944-.22 11.944.411 0 .747.84.747 1.866 0 2.296-1.368 2.393-4.044.288-1.103-.868-2.195-1.389-2.426-1.158s-2.605-.403-5.275-1.408-5.446-1.828-6.168-1.828-1.731-.504-2.242-1.12-1.901-1.12-3.088-1.12c-2.343 0-4.651-2.868-5.531-6.875-.252-1.146-.909-2.083-1.461-2.083s-2.063-.892-3.358-1.981c-1.619-1.362-3.502-2.092-6.026-2.334-6.146-.591-7.587 2.2-3.89 7.535l2.028 2.926-1.737 1.407c-.955.774-2.421 1.407-3.257 1.407-1.912 0-19.507 7.505-25.817 11.011-2.603 1.447-6.702 4.453-9.108 6.68-3.799 3.517-4.576 3.942-5.904 3.231-.842-.45-1.53-1.105-1.53-1.454 0-1.161-5.301-3.188-7.134-2.728-2.069.519-3.098 2.138-3.358 5.284-.415 5.021-.151 5.549 3.043 6.059 1.651.264 3.166.745 3.366 1.068s-.461 3.219-1.469 6.434-2.204 8.197-2.658 11.071c-1.394 8.818-1.293 8.585-3.72 8.585-3.864 0-6.688 4.776-5.177 8.753.363.955 1.253 1.928 1.978 2.163s2.349.942 3.61 1.572c1.77.884 2.647.956 3.847.313 1.38-.738 1.72-.518 3.019 1.955 5.462 10.398 7.156 12.964 9.284 14.064 2.892 1.496 7.728.869 11.176-1.447 2.064-1.386 2.52-2.201 2.712-4.845.202-2.781-.092-3.502-2.352-5.761-1.42-1.42-3.167-2.583-3.881-2.583-1.583 0-3.304-2.184-2.786-3.534.208-.541 1.934-1.87 3.836-2.953 5.888-3.352 7.564-5.31 7.564-8.839 0-2.394.699-4.145 3.061-7.661 2.629-3.915 2.965-4.853 2.386-6.649-.43-1.33-1.718-2.607-3.541-3.51-1.745-.864-3.18-2.251-3.669-3.546-.569-1.508-1.314-2.127-2.56-2.127-3.069 0-1.588-2.305 3.928-6.114 4.897-3.381 7.861-4.473 7.861-2.894 0 .383.639.899 1.421 1.147 1.923.61 3.805 4.809 3.805 8.49 0 3.732.761 4.268 3.264 2.299 1.071-.842 2.289-1.32 2.707-1.061 1.365.844 3.726-.433 4.861-2.628 1.421-2.747 1.417-7.141-.008-11.182-.616-1.746-1.12-3.624-1.12-4.173 0-1.311 3.016-2.948 3.641-1.976.256.398 1.212.956 2.125 1.241s2.604 1.926 3.757 3.647c1.998 2.982 2.293 3.139 6.267 3.35 3.595.191 4.492-.05 6.508-1.746 1.286-1.082 2.338-2.609 2.338-3.394 0-1.64.82-1.785 3.183-.564 3.477 1.797 4.292 2.123 5.312 2.123.578 0 1.243.504 1.48 1.12s1.26 1.12 2.275 1.12 2.076.373 2.359.83 2.324 1.631 4.538 2.61c2.398 1.061 4.348 2.489 4.825 3.536 1.195 2.622 6.018 4.494 9.854 3.825 4.704-.821 15.734-.679 17.347.224 1.703.953 2.871.413 8.16-3.777 2.062-1.633 7.779-4.906 12.706-7.273 8.675-4.169 9.447-4.313 10.288-1.919.427 1.215 5.454-1.025 7.812-3.481 1.382-1.439 2.536-3.613 2.862-5.389.371-2.02 1.502-3.94 3.52-5.972 2.634-2.653 4.125-5.276 7.09-12.467.455-1.103 2.607-3.154 4.784-4.557s4.583-3.256 5.348-4.119c1.363-1.536 1.355-1.613-.373-3.771-1.936-2.418-4.397-3.837-6.652-3.837-.802 0-1.458-.286-1.458-.635 0-1.408 1.81-5.837 3.201-7.833l1.48-2.123 1.796 1.937c.988 1.065 2.054 1.937 2.371 1.937s1.015 1.764 1.553 3.919 2.113 6.893 3.501 10.528c2.913 7.629 8.146 32.429 9.125 43.249.377 4.163.386 11.711.022 17.543-1.476 23.612-2.955 40.489-4.069 46.442-4.936 26.376-8.992 41.699-13.931 52.629-9.106 20.155-16.982 34.269-27.908 50.016-5.982 8.622-12.342 18.164-14.132 21.204-4.729 8.031-9.552 21.842-12.283 35.17l-3.424 16.41c-.581 2.669-1.392 11.907-1.803 20.529-1.11 23.314-2.454 33.608-5.068 38.819-.618 1.232-5.087 6.615-9.932 11.963-8.2 9.052-12.454 13.045-13.898 13.045-.328 0-1.006.655-1.506 1.456s-2.171 1.688-3.725 1.974c-1.549.285-3.824 1.36-5.056 2.39-2.444 2.043-13.496 7.617-15.104 7.617-.549 0-1.788.517-2.753 1.149s-5.572 2.117-10.238 3.3l-17.442 4.574c-8.886 2.404-9.117 2.425-28.741 2.663-10.88.132-20.454-.062-21.276-.432zm13.088-17.042c2.682-.388 5.577-1.08 6.434-1.539s1.751-.64 1.988-.403c1.243 1.243 27.795-7.064 31.119-9.735.616-.495 2.408-1.555 3.983-2.356s4.766-2.976 7.092-4.833 5.285-4.123 6.577-5.034c2.642-1.865 8.111-11.841 10.735-19.583 1.392-4.108 1.576-5.844 1.199-11.318-.384-5.568-.228-6.959 1.126-10.018 1.737-3.926 1.738-3.864-.45-24.947-2.107-20.309-3.654-28.252-6.211-31.91-.79-1.131-1.641-2.901-1.89-3.934s-4.329-5.703-9.067-10.378-8.614-8.774-8.614-9.109c0-.978-7.659-6.35-9.705-6.807-2.228-.498-6.582-2.007-8.388-2.908-.713-.356-1.64-.646-2.061-.646s-2.209-.679-3.974-1.509c-3.172-1.491-3.994-1.743-9.838-3.015-14.946-3.252-23.814-4.48-51.136-7.08-13.998-1.332-25.563-3.468-30.67-5.665-1.918-.825-4.059-1.584-4.758-1.687s-1.496-.499-1.771-.88-1.004-.801-1.62-.931c-2.5-.53-24.504-11.031-27.757-13.246-1.922-1.31-4.778-2.608-6.345-2.886-2.618-.464-8.34-2.414-12.928-4.407-1.026-.446-2.202-.858-2.613-.917s-1.922-.624-3.359-1.257c-9.383-4.132-24.826-3.107-29.999 1.991-.95.936-2.52 2.119-3.488 2.628-2.305 1.212-6.22 9.801-8.187 17.957-.841 3.49-2.243 12.224-3.115 19.409-1.685 13.889-2.482 17.494-4.334 19.614-.879 1.006-.949 1.532-.289 2.192s.58 1.186-.332 2.194c-1.691 1.869-.787 3.479 2.111 3.757 1.775.17 2.379.552 2.15 1.357-.175.616-.459 2.519-.63 4.229-.256 2.559-.039 3.254 1.224 3.931.91.487 1.363 1.271 1.112 1.924-.952 2.482 3.324 19.522 5.582 22.243.515.621.856 2.505.757 4.187s.221 3.46.712 3.951.893 1.456.893 2.145.488 1.658 1.085 2.153 1.609 2.704 2.25 4.909 1.782 4.444 2.536 4.976 1.924 2.042 2.601 3.354 4.124 5.428 7.661 9.145c5.751 6.043 6.713 6.759 9.088 6.759 3.125 0 8.324 2.208 8.352 3.546.011.514.94.935 2.072.938s3.024.511 4.211 1.13c1.586.827 3.367 1.002 6.719.66 5.772-.589 16.029 1.261 23.467 4.233 3.008 1.202 5.911 2.185 6.452 2.185s1.17.486 1.398 1.081 1.732 1.435 3.342 1.869c3.937 1.06 6.855 3.464 6.855 5.647 0 1.872 2.471 4.094 4.554 4.094.68 0 1.692.55 2.249 1.221s2.194 1.979 3.637 2.905 4.955 3.716 7.805 6.199 6.018 4.725 7.04 4.981 5.913 2.42 10.868 4.808 10.312 4.535 11.902 4.772 3.522 1.001 4.292 1.698c3.411 3.087 14.989 3.892 28.299 1.968zm-4.13-194.198c3.695-.488 7.894-1.376 9.331-1.975s5.615-1.946 9.285-2.994c7.789-2.224 18.324-7.469 24.681-12.287 14.692-11.135 18.49-14.261 26.537-21.846 2.278-2.147 5.553-5.014 7.278-6.372 1.808-1.423 3.137-3.098 3.137-3.955 0-2.116-6.967-8.88-9.147-8.88-.964 0-2.133-.381-2.598-.846-1.308-1.308-3.186-.16-3.186 1.948 0 5.822-37.124 36.969-44.064 36.969-.467 0-3.099.987-5.848 2.194-4.895 2.149-24.013 6.018-29.733 6.018-3.688 0-6.751-1.589-11.951-6.199-2.545-2.256-4.957-4.22-5.361-4.364s-2.962-4.608-5.686-9.92-5.87-10.855-6.993-12.317-2.672-3.667-3.444-4.899-3.125-4.087-5.228-6.345-6.118-6.961-8.92-10.451c-5.441-6.775-9.162-10.399-10.713-10.431-.526-.011-1.15-.524-1.386-1.14-.637-1.66-1.452-1.397-4.67 1.511-4.386 3.963-4.92 8.229-1.24 9.905.988.45 3.154 2.818 4.814 5.262s5.774 7.418 9.142 11.053c7.531 8.127 14.23 17.846 15.209 22.068.773 3.33 6.307 11.09 13.101 18.371 6.824 7.313 8.029 8 17.887 10.195 5.22 1.163 9.302 1.106 19.766-.275zm-96.865-102.43c2.564-.94 6.259-2.984 8.212-4.541l7.133-5.548c3.519-2.669 6.459-7.255 7.551-11.779.287-1.19 1.825-4.323 3.417-6.963 5.88-9.749 6.535-21.986 2.186-40.837-.859-3.725-1.854-7.276-2.21-7.892-5.371-9.281-4.79-8.617-13.763-15.718-2.044-1.618-4.843-3.153-6.221-3.411s-3.708-1.573-5.179-2.921-3.711-2.614-4.977-2.812-3.813-.929-5.661-1.624c-4.712-1.771-18.217-1.801-24.267-.055-5.736 1.656-8.757 3.465-13.654 8.178-7.592 7.307-10.506 13.709-12.534 27.544-.838 5.714-1.117 11.429-.899 18.403.287 9.167.548 10.745 2.788 16.834l3.806 10.414c.74 2.049 2.219 4.339 3.321 5.142 1.808 1.317 3.97 4.151 7.159 9.385 1.536 2.521 12.341 7.976 18.62 9.401 7.032 1.596 19.125 1.02 25.174-1.199zm-23.334-9.617c-5.306-.78-11.624-4.972-13.387-8.882-.754-1.672-2.079-3.505-2.944-4.074-.961-.632-2.27-3.181-3.363-6.548-.984-3.033-2.39-7.036-3.124-8.898-2.101-5.329-3.221-18.219-2.229-25.671 1.155-8.679 2.486-12.679 6.206-18.642 4.065-6.516 8.348-9.167 16.8-10.398 8.648-1.259 14.459-.91 15.982.959.682.836 1.806 1.521 2.498 1.521s2.15.628 3.24 1.395 2.821 1.652 3.848 1.967 2.529 1.03 3.339 1.591 2.07 1.019 2.799 1.019 1.327.318 1.327.706.923 1.148 2.051 1.689c2.444 1.171 6.907 8.31 6.907 11.047 0 1.065.314 2.256.699 2.646 1.171 1.189 3.229 17.567 2.857 22.731-.383 5.3-3.065 11.516-7.212 16.713-1.274 1.596-2.316 3.622-2.316 4.502 0 1.419-4.894 6.774-10.169 11.129-4.471 3.69-13.489 5.015-23.808 3.498zm17.118-39.99c2.795-5.977 3.462-8.055 2.799-8.718-.479-.479-.871-1.811-.871-2.961 0-1.278-.4-2.09-1.029-2.09-.566 0-1.502-.713-2.081-1.585-1.003-1.511-1.328-1.549-6.867-.809-6.367.851-10.965 3.312-12.749 6.824-1.209 2.381-2.18 9.965-1.536 11.995.264.831 1.709 2.346 3.212 3.367 2.389 1.624 3.532 1.855 9.092 1.841l6.359-.016zm-35.418 215.1c-1.038-.582-4.495-1.42-7.683-1.863-6.918-.962-9.871-2.336-10.512-4.892-.362-1.443-.959-1.895-2.514-1.904-4.954-.028-5.13-1.648-2.095-19.388 2.871-16.785 4.344-20.841 9.34-25.718 2.346-2.291 3.631-2.962 5.822-3.04 1.546-.055 3.414-.37 4.15-.699 1.43-.639 5.818.136 12.471 2.203 2.258.701 5.22 1.328 6.582 1.392 1.534.072 2.954.722 3.733 1.707.691.875 2.097 1.834 3.123 2.13 2.668.771 6.534 3.834 7.103 5.627.267.841.099 1.995-.373 2.564s-1.362 4.164-1.976 7.989c-1.273 7.922-5.279 16.386-11.845 25.024-6.386 8.401-11.193 11.183-15.325 8.868zm9.084 66.725c-.969-.808-2.391-1.468-3.159-1.468-1.831 0-11.394-9.048-12.885-12.19-.639-1.347-2.185-3.736-3.436-5.31s-2.274-3.319-2.274-3.878-.298-1.017-.662-1.017c-.622 0-.901-.943-2.042-6.905-.255-1.334-.896-2.93-1.424-3.546-1.12-1.307-4.084-10.066-4.084-12.067 0-.768.534-1.37 1.216-1.37.669 0 2.517-1.176 4.108-2.613 3.333-3.011 4.732-3.254 5.923-1.028.827 1.545 1.128 1.571 11.913 1.051 12.462-.601 14.508-.297 13.891 2.063-.239.915.234 2.613 1.135 4.071 1.419 2.296 1.517 3.341 1.197 12.729-.332 9.731-1.832 17.354-6.236 31.69-.506 1.646-.991 1.614-3.183-.211zm54.01 15.961c-1.275-1.275-11.928-5.326-19.494-7.413-2.104-.58-5.032-1.559-6.508-2.176s-3.638-1.121-4.804-1.121-2.741-.453-3.499-1.007c-1.327-.971-1.331-1.261-.11-7.939.698-3.813 1.796-7.953 2.441-9.2s1.31-3.806 1.478-5.685c.433-4.858 2.281-10.04 4.213-11.814.91-.836 4.175-3.152 7.254-5.146 5.5-3.562 5.695-3.623 11.095-3.49 4.409.109 5.821.441 7.14 1.68.904.849 2.377 1.544 3.273 1.544 2.567 0 7.606 4.985 7.606 7.526 0 1.317.534 2.412 1.403 2.877 3.818 2.044 5.112 13.043 2.377 20.204-2.21 5.785-10.702 21.865-11.719 22.191-.466.149-1.432-.314-2.147-1.03zm-10.443-73.584c-1.232-.415-2.823-1.051-3.536-1.414s-1.817-.659-2.452-.659c-4.304 0-8.522-6.675-9.065-14.344-.36-5.094-.131-6.197 3.618-17.402l4.002-11.964 1.85.913c5.04 2.488 8.8 3.978 10.036 3.978 1.177 0 6.761 2.301 11.026 4.544.713.375 2.393.687 3.733.693s4.452.498 6.915 1.093 5.775 1.093 7.358 1.108c2.436.022 2.8.228 2.363 1.333-.284.719-2.282 6.519-4.44 12.891s-4.284 12.25-4.725 13.064c-1.001 1.849-4.509 5.132-6.666 6.241-2.009 1.032-16.899.976-20.018-.076zm61.865 22.196c-7.566-8.266-8.887-10.26-11.87-17.923-2.635-6.767-2.909-8.128-2.935-14.557-.022-5.332.295-7.722 1.277-9.633.719-1.397 1.306-3.116 1.306-3.819s.615-2.079 1.366-3.058 1.583-2.374 1.847-3.099c.379-1.039 1.078-1.242 3.3-.959 1.55.197 6.178.563 10.283.813 8.401.51 18.768 2.155 21.535 3.415 1.025.467 2.03 1.708 2.27 2.803.469 2.143-3.698 30.465-5.005 34.018-1.925 5.231-10.093 13.087-16.282 15.661l-2.708 1.126zm-5.71 81.613c-10.341-3.526-16.842-7.218-21.443-12.179-1.026-1.107-2.946-2.465-4.266-3.018-4.688-1.964-4.151-6.911 2.145-19.767 3.178-6.488 4.816-8.816 9.512-13.517 6.288-6.294 7.716-6.853 14.708-5.757 2.439.383 4.6.358 5.383-.061.942-.504 1.822-.304 3.15.716 1.013.779 2.224 1.423 2.69 1.432 1.051.021 3.259 3.295 3.259 4.833 0 .625 1.336 1.98 2.968 3.01l2.968 1.874-2.88 5.469c-1.764 3.35-3.076 7.038-3.384 9.52-.277 2.228-1.016 6.679-1.641 9.891s-1.53 9.264-2.01 13.449l-.873 7.609z"/><path d="M301.717 541.512c.018-6.733 6.986-37.02 9.128-39.669 1.421-1.758 8.03-1.045 16.222 1.75 4.325 1.476 8.237 3.155 8.693 3.733s1.632 1.06 2.613 1.073 2.436.517 3.233 1.12 2.016 1.096 2.708 1.096 1.677.504 2.188 1.12 1.596 1.12 2.412 1.12c2.072 0 8.682 3.132 9.143 4.332.541 1.409-6.642 8.81-11.83 12.189-2.41 1.57-5.601 3.067-7.092 3.328s-3.416.915-4.278 1.454c-2.038 1.274-12.515 4.868-16.348 5.609-1.642.317-4.491 1.135-6.331 1.818s-4.947 1.431-6.905 1.663c-3.527.418-3.561.401-3.555-1.735zm42.919-51.054c-1.611-.821-3.394-1.493-3.963-1.493-1.749 0-11.38-9.844-13.796-14.101-1.256-2.213-2.844-4.17-3.53-4.349-.941-.246-1.576-2.191-2.588-7.921-1.93-10.934-2.16-18.506-.775-25.511l2.201-12.009c1.994-11.804 2.737-14.617 3.663-13.867.479.388 2.887 1.118 5.351 1.621 9.626 1.967 18.75 8.955 27.337 20.936 5.324 7.428 5.35 7.516 5.959 20.489.309 6.569.979 16.05 1.491 21.069 1.119 10.985.814 11.949-4.64 14.667-5.066 2.525-12.282 2.728-16.71.47zm-160.511-241.86c-5.306-.78-11.624-4.972-13.387-8.882-.754-1.672-2.079-3.505-2.944-4.074-.961-.632-2.27-3.181-3.363-6.548-.984-3.033-2.39-7.036-3.124-8.898-2.101-5.329-3.221-18.219-2.229-25.671 1.155-8.679 2.486-12.679 6.206-18.642 4.065-6.516 8.348-9.167 16.8-10.398 8.648-1.259 14.459-.91 15.982.959.682.836 1.806 1.521 2.498 1.521s2.15.628 3.24 1.395 2.821 1.652 3.848 1.967 2.529 1.03 3.339 1.591 2.07 1.019 2.799 1.019 1.327.318 1.327.706.91 1.144 2.023 1.68c2.368 1.14 5.994 6.688 7.055 10.792 2.28 8.828 3.051 14.202 3.14 21.909.094 8.102-.021 8.816-2.045 12.691-1.18 2.258-3.279 5.663-4.666 7.565s-2.521 4.097-2.521 4.876c0 1.229-5.268 6.9-10.169 10.945-4.471 3.69-13.489 5.015-23.808 3.498zm17.118-39.99c2.795-5.977 3.462-8.055 2.799-8.718-.479-.479-.871-1.811-.871-2.961 0-1.338-.394-2.09-1.093-2.09-.601 0-1.472-.707-1.934-1.571-.757-1.414-1.26-1.521-5.065-1.07-6.341.752-9.206 1.717-11.771 3.965-3.092 2.71-3.756 4.171-4.379 9.633-.597 5.238-.242 6.182 3.321 8.81 2.263 1.67 3.269 1.879 8.937 1.865l6.387-.016z"/></g></svg>