<?xml version="1.0" encoding="UTF-8" standalone="no"?>
<svg
   xmlns:dc="http://purl.org/dc/elements/1.1/"
   xmlns:cc="http://creativecommons.org/ns#"
   xmlns:rdf="http://www.w3.org/1999/02/22-rdf-syntax-ns#"
   xmlns:svg="http://www.w3.org/2000/svg"
   xmlns="http://www.w3.org/2000/svg"
   xmlns:sodipodi="http://sodipodi.sourceforge.net/DTD/sodipodi-0.dtd"
   xmlns:inkscape="http://www.inkscape.org/namespaces/inkscape"
   version="1.0"
   width="549.000000pt"
   height="583.000000pt"
   viewBox="0 0 549.000000 583.000000"
   preserveAspectRatio="xMidYMid meet"
   id="svg20"
   sodipodi:docname="face12.svg"
   inkscape:version="1.0.1 (3bc2e813f5, 2020-09-07)">
  <defs
     id="defs24" />
  <sodipodi:namedview
     pagecolor="#ffffff"
     bordercolor="#666666"
     borderopacity="1"
     objecttolerance="10"
     gridtolerance="10"
     guidetolerance="10"
     inkscape:pageopacity="0"
     inkscape:pageshadow="2"
     inkscape:window-width="1920"
     inkscape:window-height="1027"
     id="namedview22"
     showgrid="false"
     inkscape:zoom="1.1063465"
     inkscape:cx="366"
     inkscape:cy="388.66667"
     inkscape:window-x="1912"
     inkscape:window-y="-8"
     inkscape:window-maximized="1"
     inkscape:current-layer="svg20" />
  <metadata
     id="metadata2">
Created by potrace 1.16, written by Peter Selinger 2001-2019
<rdf:RDF>
  <cc:Work
     rdf:about="">
    <dc:format>image/svg+xml</dc:format>
    <dc:type
       rdf:resource="http://purl.org/dc/dcmitype/StillImage" />
  </cc:Work>
</rdf:RDF>
</metadata>
  <g
     transform="translate(0.000000,583.000000) scale(0.100000,-0.100000)"
     fill="#000000"
     stroke="none"
     id="g18">
    <path
       d="M1450 5330 c-47 -4 -121 -17 -165 -29 -44 -13 -91 -24 -105 -27 -75 -12 -136 -27 -146 -35 -6 -5 -13 -6 -17 -3 -12 12 -132 -28 -195 -65 -72 -42 -96 -65 -131 -123 -13 -21 -26 -38 -31 -38 -4 0 -15 -19 -25 -42 -9 -24 -21 -45 -25 -48 -5 -3 -14 -28 -21 -55 -7 -28 -18 -63 -24 -80 -7 -16 -16 -54 -19 -84 -4 -30 -12 -64 -18 -75 -7 -12 -13 -41 -15 -65 -1 -25 -9 -61 -16 -80 -8 -20 -18 -55 -22 -78 -4 -24 -10 -43 -15 -43 -4 0 -10 -18 -14 -40 -3 -23 -10 -49 -15 -58 -39 -74 -71 -147 -71 -161 0 -9 -6 -23 -12 -30 -10 -11 -10 -14 0 -18 15 -6 16 -45 1 -60 -15 -15 -20 -125 -8 -203 17 -119 19 -134 10 -144 -4 -6 -8 -56 -9 -111 -2 -109 -9 -157 -24 -166 -16 -10 20 -56 53 -68 24 -8 29 -15 29 -43 0 -18 11 -55 24 -83 41 -85 56 -122 56 -137 0 -8 8 -22 18 -31 9 -9 25 -31 35 -50 30 -56 201 -239 274 -293 43 -32 127 -74 159 -80 16 -2 72 -13 124 -24 52 -11 129 -24 170 -29 160 -22 226 -40 300 -82 8 -5 31 -17 50 -26 19 -10 48 -28 63 -40 16 -13 37 -23 47 -23 10 0 25 -12 35 -26 9 -14 31 -32 48 -39 18 -8 55 -38 84 -67 48 -50 53 -59 68 -135 9 -45 18 -88 19 -95 1 -7 4 -17 8 -23 10 -17 26 -97 33 -169 2 -21 8 -42 13 -45 5 -3 12 -28 16 -56 3 -27 11 -54 16 -59 6 -6 10 -17 10 -26 0 -9 11 -39 25 -66 14 -27 25 -57 25 -66 0 -9 4 -19 9 -22 5 -3 9 -17 9 -30 0 -14 14 -44 31 -67 17 -24 31 -51 31 -60 0 -10 4 -19 8 -21 4 -1 29 -31 55 -66 27 -34 52 -62 57 -62 5 0 16 -15 25 -33 15 -31 52 -76 194 -235 31 -35 70 -69 86 -77 17 -8 37 -19 45 -24 8 -5 34 -17 58 -27 24 -9 52 -25 63 -35 11 -9 42 -20 70 -24 27 -4 51 -11 55 -16 3 -5 16 -9 30 -9 13 0 32 -4 42 -10 37 -20 154 -70 165 -70 7 0 32 -10 57 -21 70 -33 181 -49 258 -38 36 5 70 13 76 18 6 5 29 12 51 16 22 3 48 14 59 23 10 10 20 16 22 14 8 -5 85 11 90 19 3 5 23 9 44 9 21 0 42 5 45 10 4 6 21 17 38 25 18 8 46 23 62 34 17 10 33 16 37 14 5 -2 18 7 31 20 19 21 62 49 142 91 11 6 34 21 52 34 17 12 36 22 41 22 6 0 12 3 14 8 5 11 107 75 161 101 26 13 47 29 47 36 0 8 8 16 18 20 22 8 103 106 119 145 7 16 22 35 33 42 11 7 20 22 20 34 0 12 8 32 19 45 14 17 17 33 13 66 -3 25 0 43 5 43 6 0 11 19 11 43 1 44 8 134 18 254 5 56 10 72 23 72 49 2 66 10 82 38 15 27 15 32 3 37 -8 3 -14 17 -14 31 0 14 -4 25 -8 25 -8 0 -16 77 -14 138 0 17 -3 32 -7 32 -3 0 -7 8 -8 18 -2 28 -12 103 -23 162 -5 30 -14 86 -20 125 -6 38 -15 72 -18 75 -4 3 -8 14 -10 25 -7 55 -9 66 -15 72 -4 3 -7 17 -7 29 0 13 -4 25 -9 29 -5 3 -13 20 -17 37 -3 18 -10 39 -14 48 -9 19 -40 134 -47 178 -3 17 -9 32 -13 32 -4 0 -10 13 -13 30 -6 28 -19 56 -63 140 -10 19 -20 46 -22 60 -2 14 -7 29 -13 35 -5 5 -9 22 -9 39 0 34 -14 84 -49 169 -6 16 -9 32 -6 37 3 5 -1 15 -9 22 -7 8 -16 29 -19 48 -8 48 -34 169 -42 200 -4 14 -9 39 -12 55 -6 34 -51 130 -82 173 -12 17 -21 35 -21 41 0 6 -4 11 -10 11 -5 0 -10 9 -10 19 0 11 -3 21 -7 23 -5 2 -15 15 -23 29 -8 15 -34 51 -58 80 -23 30 -59 76 -80 102 -20 27 -47 60 -59 73 -13 14 -23 27 -23 29 0 8 -51 55 -60 55 -4 0 -21 15 -36 33 -15 17 -41 41 -59 52 -30 19 -60 42 -161 127 -25 21 -57 41 -72 44 -15 4 -38 15 -51 26 -13 10 -28 18 -33 18 -8 0 -126 51 -159 69 -9 5 -69 16 -135 25 -65 9 -146 21 -179 26 -33 5 -80 12 -105 15 -25 4 -70 15 -100 25 -30 10 -89 28 -130 40 -41 13 -96 34 -122 47 -26 12 -52 23 -57 23 -6 0 -34 11 -63 24 -29 13 -64 26 -78 29 -14 4 -47 21 -75 39 -27 17 -55 31 -61 30 -7 -1 -14 4 -18 13 -3 8 -10 15 -15 15 -5 0 -23 14 -41 30 -18 17 -38 30 -45 30 -8 0 -22 11 -32 24 -11 13 -42 35 -70 50 -62 31 -172 70 -179 63 -3 -3 -19 -1 -36 4 -25 7 -153 11 -218 8 -8 -1 -22 1 -30 3 -8 3 -53 2 -100 -2z m401 -113 c42 -13 83 -28 90 -34 8 -6 30 -15 49 -22 19 -6 66 -38 104 -71 38 -33 77 -62 88 -66 10 -3 18 -10 18 -15 0 -5 6 -9 14 -9 7 0 19 -6 25 -14 13 -16 135 -76 154 -76 7 0 18 -5 25 -12 6 -6 26 -17 44 -23 18 -7 65 -25 103 -40 39 -15 83 -29 99 -31 16 -2 34 -8 40 -12 6 -5 43 -18 81 -30 133 -40 129 -39 395 -62 116 -10 164 -20 222 -48 24 -12 52 -22 61 -22 9 0 19 -5 22 -10 3 -6 33 -23 65 -39 55 -28 114 -71 234 -174 66 -56 82 -73 141 -146 28 -34 69 -84 93 -112 23 -27 42 -54 42 -58 0 -5 20 -34 45 -64 25 -31 45 -62 45 -71 0 -8 4 -17 10 -21 8 -5 62 -112 80 -160 14 -37 32 -120 37 -170 3 -27 14 -70 25 -94 12 -24 22 -53 24 -65 2 -11 13 -47 24 -79 22 -62 34 -157 21 -157 -5 0 -35 24 -66 54 -47 43 -58 60 -57 84 0 19 -8 38 -23 52 -14 13 -22 27 -18 33 10 17 -61 -2 -74 -19 -10 -13 -21 -15 -60 -8 -42 8 -48 12 -51 36 -6 51 -91 39 -129 -18 -21 -32 -38 -30 -65 7 -22 29 -26 31 -73 25 -27 -3 -51 -10 -53 -16 -2 -5 -10 -10 -17 -10 -8 0 -15 -13 -17 -32 l-3 -33 -79 3 c-99 3 -120 13 -83 37 15 9 27 24 27 31 0 8 5 14 10 14 14 0 13 43 -2 58 -7 7 -23 12 -36 12 -27 0 -92 -46 -92 -65 0 -12 -29 -25 -56 -25 -16 0 -13 58 3 64 21 8 44 73 37 101 -5 20 -17 28 -60 41 -47 13 -54 19 -55 42 -4 68 3 98 32 128 20 21 28 36 23 48 -6 16 -4 17 13 8 11 -6 23 -9 26 -5 11 10 -3 23 -24 23 -11 0 -22 8 -26 18 -14 40 -83 71 -83 37 0 -25 -25 -5 -65 50 -35 50 -44 92 -24 112 8 8 7 19 -3 40 -11 24 -20 28 -58 31 -25 1 -55 8 -67 14 -23 11 -32 38 -13 38 6 0 15 10 20 23 6 12 16 30 22 40 26 35 -26 74 -58 43 -8 -9 -25 -16 -37 -16 -27 0 -77 -35 -104 -72 -30 -42 -19 -72 36 -100 58 -30 72 -52 46 -73 -11 -9 -35 -23 -53 -31 -40 -18 -57 -53 -34 -71 18 -15 81 -7 121 14 14 7 33 13 41 13 18 0 109 -108 126 -150 14 -32 15 -31 -38 -71 -52 -39 -29 -104 36 -104 29 0 30 -1 34 -55 8 -132 8 -134 -15 -145 -59 -30 -76 -64 -49 -100 13 -18 14 -18 58 3 53 26 64 27 72 7 3 -9 21 -25 41 -36 34 -20 34 -21 20 -49 -21 -40 -19 -46 18 -68 37 -23 82 -19 97 8 5 10 7 20 4 22 -2 3 2 11 10 17 12 10 27 9 73 -4 36 -11 87 -17 132 -16 64 2 73 0 62 -12 -9 -12 -7 -24 13 -59 21 -37 28 -43 52 -39 45 5 84 38 84 70 0 30 32 71 57 71 20 0 42 -29 43 -56 0 -15 12 -27 37 -39 l37 -18 24 28 c20 23 23 35 18 67 -5 29 -3 38 8 38 22 0 27 -15 16 -46 -21 -54 40 -100 103 -76 26 10 34 8 73 -21 24 -18 43 -37 44 -42 0 -6 13 -25 29 -43 24 -26 38 -32 70 -32 37 0 42 -3 56 -37 9 -21 22 -44 30 -53 7 -8 23 -51 36 -95 12 -44 24 -87 27 -95 3 -8 6 -19 7 -25 2 -14 23 -66 35 -87 5 -9 12 -32 15 -50 3 -18 14 -67 25 -109 10 -42 22 -105 25 -140 4 -35 11 -75 16 -89 5 -14 11 -50 13 -80 2 -30 7 -99 11 -152 7 -104 2 -121 -41 -130 -17 -3 -19 -13 -20 -113 0 -61 -4 -128 -8 -150 -5 -22 -10 -60 -12 -85 -3 -43 -16 -160 -19 -170 -1 -3 -10 -23 -19 -45 -10 -22 -23 -52 -29 -68 -7 -15 -20 -30 -29 -33 -17 -5 -20 -9 -22 -36 -1 -17 -25 -39 -59 -57 -15 -8 -34 -25 -42 -38 -9 -13 -25 -23 -38 -23 -13 0 -32 -8 -43 -17 -19 -18 -131 -95 -148 -102 -5 -2 -29 -19 -54 -37 -24 -19 -52 -34 -63 -34 -12 0 -19 -7 -19 -20 0 -14 -7 -20 -22 -20 -12 0 -30 -7 -40 -17 -50 -45 -218 -124 -273 -128 -5 0 -14 -3 -20 -7 -5 -3 -26 -9 -45 -13 -19 -4 -39 -11 -45 -15 -17 -13 -187 -33 -240 -28 -28 3 -72 13 -100 23 -27 10 -75 27 -105 38 -30 11 -86 35 -125 53 -38 17 -88 38 -110 44 -22 7 -52 19 -67 26 -14 8 -31 14 -36 14 -6 0 -34 16 -63 35 -30 19 -58 35 -63 35 -12 0 -32 18 -127 117 -25 26 -56 66 -69 88 -13 22 -37 56 -55 75 -64 70 -156 200 -161 229 -4 17 -13 36 -20 42 -8 6 -14 21 -14 33 0 12 -7 31 -15 42 -8 10 -15 29 -15 41 0 12 -4 25 -10 28 -5 3 -10 16 -10 28 0 12 -9 37 -20 55 -12 19 -20 41 -18 50 1 10 -3 27 -10 40 -7 12 -10 22 -8 22 3 0 -1 17 -9 39 -7 21 -16 65 -20 97 -4 33 -11 64 -15 69 -5 6 -9 30 -10 55 -2 77 -5 98 -12 106 -5 4 -8 18 -8 32 0 18 -22 46 -75 99 -41 40 -85 78 -98 84 -44 20 -71 38 -126 86 -31 27 -76 55 -101 63 -25 8 -64 24 -87 36 -72 39 -240 75 -448 98 -48 5 -116 25 -173 52 -29 13 -55 24 -58 24 -3 0 -31 21 -62 46 -70 57 -168 168 -187 211 -7 17 -27 46 -44 63 -16 18 -37 55 -46 83 -9 29 -20 61 -24 72 -24 63 -41 127 -41 159 0 19 -7 54 -16 76 -15 38 -15 42 0 59 9 10 14 25 10 34 -8 23 35 77 62 77 27 0 34 -9 35 -47 3 -49 9 -61 41 -72 44 -15 46 -15 53 19 4 17 11 30 16 30 17 0 9 25 -11 38 -11 7 -20 22 -20 35 0 28 -26 67 -46 67 -35 0 -9 24 75 67 68 35 73 33 70 -38 -2 -54 0 -63 24 -85 34 -32 41 -31 67 11 18 30 21 45 16 105 -5 62 -3 71 14 80 16 9 20 7 26 -14 8 -32 44 -55 79 -52 43 5 58 44 34 88 -10 18 -8 24 7 35 11 8 30 13 44 11 19 -2 26 -11 31 -36 9 -46 19 -53 74 -55 33 -1 49 2 55 13 4 8 12 25 19 38 11 21 10 24 -8 29 -13 3 -21 14 -21 27 0 12 -9 27 -20 34 -21 13 -27 47 -10 57 6 4 8 11 5 16 -4 5 1 19 9 31 18 25 22 88 6 88 -6 0 -15 11 -20 25 -8 20 -16 25 -45 25 -24 0 -39 -6 -47 -20 -8 -13 -24 -20 -44 -20 -20 0 -39 -9 -55 -26 -23 -25 -23 -26 -5 -39 10 -8 15 -18 12 -23 -3 -5 1 -15 9 -22 21 -17 19 -30 -5 -30 -11 0 -20 -4 -20 -10 0 -5 -11 -10 -25 -10 -14 0 -25 4 -25 9 0 5 -16 12 -36 15 -40 8 -84 -13 -84 -41 0 -13 -7 -14 -37 -9 -21 3 -48 9 -60 12 -18 5 -21 3 -16 -15 3 -13 1 -21 -6 -21 -8 0 -11 -12 -9 -31 3 -29 -1 -33 -59 -63 -76 -39 -139 -89 -148 -116 -3 -11 -12 -20 -20 -20 -19 0 -24 82 -12 230 7 95 14 131 28 152 11 14 19 36 19 47 0 12 4 21 9 21 5 0 11 10 14 23 3 12 22 67 41 122 20 55 36 117 36 138 0 21 7 48 15 61 8 12 17 42 19 67 3 24 10 67 16 94 6 28 12 59 13 71 1 11 7 27 14 35 6 8 14 26 16 39 6 31 22 66 46 105 11 17 20 37 20 45 1 8 17 29 37 45 20 17 46 39 58 51 39 39 150 81 310 118 87 20 165 35 174 31 8 -3 20 -1 26 4 20 17 129 29 276 29 123 1 157 -2 221 -21z"
       id="path4" />
    <path
       d="M1609 4929 c-91 -9 -145 -41 -205 -119 -21 -27 -42 -50 -46 -50 -4 0 -8 -5 -8 -10 0 -6 -9 -30 -20 -52 -11 -23 -20 -49 -20 -58 0 -9 -4 -20 -9 -25 -19 -22 -47 -181 -42 -245 4 -44 15 -66 55 -108 29 -31 42 -39 121 -72 65 -27 273 -16 360 20 11 4 36 14 55 20 33 12 103 53 126 75 21 20 43 61 62 117 16 46 19 73 14 145 -3 51 -11 97 -19 110 -8 12 -12 26 -9 32 3 5 -5 23 -19 39 -13 16 -22 32 -18 35 20 21 -103 114 -160 122 -12 2 -49 9 -82 17 -42 10 -83 12 -136 7z m86 -89 c88 -14 155 -38 185 -65 19 -17 19 -20 4 -36 -15 -16 -14 -21 7 -61 13 -24 32 -53 43 -66 21 -23 24 -63 11 -133 -8 -41 -58 -109 -81 -109 -8 0 -14 -7 -14 -15 0 -9 -8 -18 -17 -21 -10 -3 -27 -9 -38 -14 -83 -31 -210 -47 -296 -35 -43 6 -60 15 -91 46 -21 21 -38 40 -38 41 -1 2 -3 20 -6 42 -6 36 10 119 27 141 4 6 12 30 19 55 7 25 21 57 31 71 10 15 19 30 19 33 0 3 8 15 18 25 9 11 22 26 28 33 22 26 69 63 89 70 27 8 41 8 100 -2z"
       id="path6" />
    <path
       d="M1685 4623 c-27 -3 -52 -8 -55 -12 -3 -5 -20 -16 -38 -25 -29 -15 -33 -21 -27 -44 4 -15 7 -27 8 -27 1 0 16 -7 32 -16 28 -16 60 -16 123 -3 29 6 72 51 72 75 0 17 -46 61 -59 57 -3 -1 -28 -3 -56 -5z"
       id="path8" />
    <path
       d="M2066 3768 c-10 -5 -47 -9 -84 -9 -80 0 -112 -16 -112 -58 0 -45 29 -63 103 -63 36 0 87 7 116 16 56 16 204 22 266 11 32 -7 56 -24 120 -89 124 -125 170 -219 170 -352 0 -94 -9 -126 -51 -174 -11 -14 -30 -41 -40 -60 -10 -19 -23 -38 -28 -42 -15 -10 10 -57 38 -69 20 -10 33 -7 78 17 29 16 53 34 53 41 0 6 3 15 8 19 4 4 7 16 7 27 0 11 11 34 24 51 31 41 53 163 37 208 -6 17 -11 44 -11 59 0 25 -15 70 -41 121 -5 10 -9 24 -9 31 0 43 -201 262 -267 291 -21 9 -46 21 -56 27 -23 12 -298 10 -321 -3z"
       id="path10" />
    <path
       d="M1184 3540 c-5 -4 -40 -18 -79 -29 -38 -12 -87 -34 -108 -50 -44 -34 -100 -107 -94 -124 2 -7 1 -21 -4 -33 -4 -12 -10 -55 -13 -95 -5 -58 -3 -79 9 -94 8 -11 15 -27 15 -37 0 -27 120 -137 185 -170 56 -29 66 -31 168 -31 150 1 206 23 296 114 64 64 85 99 109 179 11 36 10 46 -2 119 -8 44 -14 53 -74 121 -26 31 -30 40 -18 49 22 18 8 60 -23 67 -14 3 -33 9 -42 14 -22 11 -313 12 -325 0z m156 -89 c0 -12 12 -23 33 -31 112 -42 150 -72 173 -136 12 -31 12 -50 3 -95 -13 -64 -37 -95 -122 -153 l-57 -39 -103 0 c-96 0 -106 2 -145 28 -23 15 -42 33 -42 39 0 6 -12 17 -27 24 -16 7 -36 29 -45 50 -19 40 -24 127 -9 136 4 3 11 19 15 36 7 36 56 86 105 107 32 13 178 50 209 52 6 1 12 -7 12 -18z"
       id="path12" />
    <path
       d="M1190 3267 c-33 -30 -35 -34 -25 -63 5 -17 16 -38 24 -47 27 -34 131 -11 160 35 10 16 10 23 -3 37 -9 10 -16 23 -16 29 0 7 -3 12 -7 13 -27 3 -47 9 -56 18 -19 19 -41 12 -77 -22z"
       id="path14" />
    <path
       d="M3720 2668 c-25 -5 -52 -12 -60 -15 -8 -3 -22 -7 -30 -9 -29 -5 -85 -29 -110 -46 -13 -10 -36 -18 -50 -18 -15 0 -52 -13 -84 -30 -32 -16 -79 -32 -104 -36 -26 -4 -56 -9 -67 -11 -11 -3 -78 -9 -150 -14 -155 -10 -181 -14 -260 -40 -144 -49 -212 -105 -249 -209 -10 -27 -22 -50 -27 -50 -5 0 -9 -8 -9 -18 0 -11 -6 -32 -14 -48 -19 -38 -43 -213 -40 -292 2 -46 9 -71 26 -95 13 -17 22 -37 20 -43 -1 -6 5 -17 13 -24 8 -7 15 -17 15 -22 0 -5 9 -19 21 -31 11 -12 25 -32 30 -45 11 -29 140 -180 155 -181 6 -1 22 -11 35 -22 13 -12 40 -32 59 -45 19 -13 55 -40 80 -58 25 -19 49 -35 54 -35 4 -1 31 -13 60 -27 28 -14 80 -37 116 -51 36 -13 79 -31 95 -38 61 -27 175 -47 233 -42 123 12 143 22 330 166 54 41 112 83 130 94 17 10 32 22 32 26 0 4 17 17 38 29 22 12 47 33 58 48 10 15 32 38 47 52 61 56 71 85 63 184 -3 50 -10 96 -15 102 -5 6 -12 32 -15 58 -4 26 -13 53 -20 60 -6 7 -18 28 -25 46 -7 17 -17 32 -21 32 -5 0 -13 13 -18 29 -6 16 -20 35 -32 41 -14 7 -19 17 -16 27 4 9 2 21 -4 28 -8 9 2 21 36 46 93 69 121 98 121 126 0 16 4 48 7 73 9 60 -33 223 -59 234 -8 3 -15 12 -15 19 0 21 -116 66 -185 72 -130 12 -152 13 -195 3z m173 -112 c38 -3 79 -11 91 -20 26 -16 56 -73 56 -104 0 -12 5 -24 10 -27 6 -3 10 -22 10 -41 0 -19 -4 -34 -10 -34 -5 0 -10 -7 -10 -15 0 -17 -48 -64 -65 -65 -6 0 -15 -8 -21 -17 -6 -10 -32 -29 -58 -42 -26 -13 -50 -29 -53 -37 -9 -25 -34 -15 -48 20 -8 19 -20 39 -27 43 -24 15 -34 67 -28 148 4 44 3 84 -2 90 -13 15 -10 103 5 108 6 3 28 3 47 1 19 -2 66 -6 103 -8z m-303 -86 c4 -14 6 -69 6 -124 -1 -90 -3 -100 -25 -117 -43 -35 -135 -20 -191 33 -56 52 -78 132 -42 154 10 7 36 15 57 18 22 4 63 20 90 36 61 35 96 35 105 0z m-402 -113 c-1 -7 2 -40 6 -74 9 -71 0 -95 -45 -119 -27 -13 -33 -14 -52 -1 -38 25 -73 65 -91 104 -10 21 -27 55 -37 75 l-19 37 102 3 c105 3 140 -4 136 -25z m-370 -34 c7 -16 23 -46 36 -68 14 -22 25 -51 25 -65 1 -15 6 -31 13 -38 9 -9 9 -15 1 -23 -20 -20 -229 3 -254 28 -12 12 42 102 92 155 44 45 70 48 87 11z m-84 -335 c45 -15 66 -44 117 -163 15 -36 -5 -128 -39 -179 -18 -26 -32 -54 -32 -62 0 -23 -49 -17 -73 10 -12 13 -33 46 -46 73 -13 26 -36 68 -52 93 -24 39 -28 55 -27 118 0 39 5 72 10 72 5 0 5 8 -1 18 -23 43 46 53 143 20z m1285 -130 c25 -54 30 -76 31 -148 2 -100 -2 -113 -52 -164 -21 -21 -38 -42 -38 -47 0 -4 -16 -16 -35 -25 -51 -24 -60 -11 -74 108 -7 57 -14 111 -16 120 -2 10 1 21 7 24 5 3 7 12 4 20 -3 7 -1 16 4 19 6 4 10 16 10 29 0 27 87 126 111 126 11 0 28 -22 48 -62z m-847 -93 c15 -22 27 -52 28 -66 0 -14 3 -29 8 -33 4 -4 12 -33 19 -64 28 -135 34 -159 48 -196 9 -21 13 -46 10 -56 -3 -10 -1 -21 4 -24 9 -6 6 -94 -3 -104 -7 -7 -214 79 -226 93 -7 8 -17 15 -21 15 -5 0 -25 14 -45 32 -19 17 -60 46 -90 63 l-55 32 43 35 c36 30 47 48 68 112 14 42 28 76 33 76 4 0 7 8 8 18 1 23 106 114 127 110 9 -2 29 -21 44 -43z m464 -206 c19 -18 34 -41 34 -51 0 -10 4 -18 10 -18 5 0 23 -19 40 -42 42 -57 40 -95 -5 -136 -20 -17 -45 -34 -57 -38 -12 -3 -45 -23 -72 -42 -43 -31 -59 -36 -106 -37 -55 0 -55 0 -53 30 1 17 4 68 6 115 3 47 8 93 12 102 3 9 2 26 -4 37 -9 15 -8 27 0 43 7 13 15 30 19 38 4 8 17 16 29 18 11 2 21 8 21 14 0 7 17 9 46 5 34 -3 54 -13 80 -38z"
       id="path16" />
  </g>
  <path
     style="fill:#ffffff;stroke-width:0"
     d="m 442.82946,690.82678 c -6.43134,-1.1161 -22.96228,-7.05292 -38.41473,-13.79605 -5.96558,-2.60325 -13.89709,-5.86315 -17.62558,-7.24423 -13.04819,-4.83321 -15.86883,-6.119 -22.55534,-10.28183 -3.70562,-2.30703 -7.19889,-4.19459 -7.7628,-4.19459 -1.83006,0 -20.73653,-20.14521 -25.44889,-27.11628 -2.52043,-3.72849 -7.48206,-10.2364 -11.02588,-14.46202 -8.28851,-9.88315 -15.97127,-21.2574 -17.73509,-26.2566 -0.7633,-2.16342 -1.94196,-4.56381 -2.61924,-5.33418 -0.67727,-0.77038 -1.53428,-2.82429 -1.90446,-4.56426 -0.37017,-1.73996 -1.4323,-4.58115 -2.36029,-6.31374 -0.92798,-1.7326 -1.70017,-3.9697 -1.71598,-4.97132 -0.0158,-1.00163 -0.62593,-2.61068 -1.35581,-3.57568 -0.72989,-0.96499 -1.33601,-2.59197 -1.34692,-3.6155 -0.0109,-1.02353 -0.86852,-3.69131 -1.90578,-5.92841 -1.03725,-2.23709 -2.41079,-6.10116 -3.0523,-8.58682 -0.64151,-2.48566 -2.18922,-8.38345 -3.43938,-13.1062 -1.25014,-4.72275 -2.56205,-10.82391 -2.91535,-13.55814 -0.3533,-2.73422 -1.05066,-5.98818 -1.54971,-7.23101 -0.49904,-1.24283 -1.23508,-6.22383 -1.63564,-11.0689 -0.67399,-8.15244 -1.3149,-11.17867 -3.86498,-18.2494 -1.18004,-3.27197 -16.17845,-18.21541 -21.37709,-21.29875 -5.01422,-2.97396 -12.80618,-8.37908 -20.46701,-14.19753 -3.40847,-2.58875 -8.02995,-5.38319 -10.26995,-6.20987 -2.24001,-0.82666 -7.54175,-3.04032 -11.78167,-4.91923 -10.17167,-4.50755 -26.52875,-8.47293 -46.52362,-11.27852 -21.02281,-2.94983 -23.3872,-3.50988 -35.20596,-8.33921 -7.35694,-3.00615 -11.56828,-5.40953 -16.40684,-9.36327 -7.68072,-6.27614 -18.175283,-17.45378 -22.392015,-23.84947 -4.483634,-6.80052 -7.55273,-11.31033 -10.866156,-15.967 -3.579378,-5.03044 -10.856526,-26.23896 -12.364137,-36.03404 -0.573871,-3.72849 -1.757782,-9.30541 -2.630913,-12.39316 -1.459929,-5.16291 -1.471355,-5.77993 -0.142175,-7.67759 0.794934,-1.13493 1.523062,-3.08278 1.618061,-4.32855 0.095,-1.24578 0.205771,-2.73046 0.246159,-3.29929 0.151796,-2.13797 5.331866,-6.6487 7.635282,-6.6487 2.790595,0 4.188538,2.26255 4.188538,6.77907 0,1.80533 0.418802,4.06495 0.93067,5.02139 1.220219,2.28 5.542702,4.46931 8.824006,4.46931 2.265894,0 2.757496,-0.48081 3.696674,-3.6155 0.595777,-1.98853 1.473648,-3.61551 1.950825,-3.61551 1.542642,0 0.919241,-4.38022 -0.796715,-5.59797 -2.080039,-1.47613 -3.758948,-4.57026 -3.758948,-6.92752 0,-2.27002 -4.215522,-7.35978 -6.095632,-7.35978 -1.262877,0 -1.256475,-0.17579 0.05936,-1.62976 2.164418,-2.39165 16.512179,-9.55249 17.686097,-8.82696 0.598899,0.37013 1.004441,3.49074 1.004441,7.72908 0,6.3419 0.254155,7.41037 2.357178,9.90968 4.91591,5.84222 7.89349,5.52548 11.1421,-1.18525 1.61585,-3.3379 1.90413,-5.46282 1.79512,-13.23193 -0.0973,-6.93547 0.17859,-9.45086 1.10066,-10.03506 1.90319,-1.20583 2.28619,-1.00245 3.46314,1.83897 1.67259,4.03798 4.09667,5.71074 8.95175,6.17725 3.64934,0.35066 4.75841,0.0903 6.33629,-1.48761 2.147,-2.14699 2.42608,-5.33585 0.84874,-9.69791 -1.23364,-3.41156 -0.21571,-5.31754 3.18737,-5.96809 3.59653,-0.68751 5.25103,0.57958 6.78774,5.19834 1.73317,5.20926 4.01788,6.71432 10.22226,6.73391 5.74644,0.0182 6.8739,-0.56061 8.92522,-4.58153 2.31146,-4.53083 2.23264,-5.74013 -0.49044,-7.52435 -1.24283,-0.81434 -2.25969,-2.12934 -2.25969,-2.92223 0,-0.79289 -1.22023,-2.83139 -2.71163,-4.52999 -3.03014,-3.45115 -3.2364,-4.51593 -1.35602,-7.00011 0.71396,-0.94322 1.10922,-2.02058 0.87835,-2.39414 -0.23088,-0.37355 0.38334,-2.44904 1.36492,-4.61219 2.38292,-5.25137 2.31343,-9.39918 -0.20934,-12.49421 -1.11855,-1.37228 -2.46341,-3.22745 -2.98859,-4.1226 -1.54922,-2.64057 -8.82447,-2.23533 -11.94463,0.66534 -1.35652,1.26109 -4.0347,2.53053 -5.95153,2.82097 -4.30391,0.65212 -7.5784,2.72169 -8.90176,5.62614 -0.82632,1.81359 -0.70616,2.53968 0.67243,4.063 0.92321,1.02013 1.77048,2.48107 1.88282,3.24652 0.11235,0.76545 0.9005,2.16106 1.75146,3.10135 1.46446,1.61821 1.45603,1.73829 -0.15763,2.24563 -0.93765,0.2948 -2.31493,0.91599 -3.06063,1.38042 -2.96241,1.84501 -3.72116,1.8469 -7.49786,0.0186 -4.60203,-2.22781 -7.66928,-2.38232 -11.93234,-0.60111 -2.07331,0.8663 -3.30425,2.10064 -3.71101,3.7213 -0.58145,2.31669 -0.79492,2.39721 -4.77752,1.80229 -12.41064,-1.8539 -11.260023,-1.92673 -10.76149,0.68118 0.283713,1.48414 -0.0011,2.52394 -0.772382,2.8199 -0.73574,0.28235 -1.221816,1.86278 -1.221816,3.97265 0,4.10298 -0.803186,4.92599 -9.266888,9.49564 -8.505174,4.59204 -14.759677,9.44589 -17.492116,13.57489 -3.78046,5.71265 -4.441931,3.61014 -4.307544,-13.69173 0.141542,-18.22295 1.373017,-27.63717 4.395429,-33.60161 1.246558,-2.45997 2.266468,-5.26578 2.266468,-6.23514 0,-0.96936 0.400689,-1.89806 0.890418,-2.06377 1.394398,-0.47183 10.562359,-27.96797 11.76879,-35.29643 0.596056,-3.62074 1.806177,-8.41351 2.689159,-10.6506 0.882982,-2.23709 1.828538,-5.49105 2.101234,-7.23101 2.243874,-14.31722 4.69241,-26.11051 5.786821,-27.87201 0.72154,-1.16135 1.921194,-4.16329 2.665898,-6.67098 0.744702,-2.50769 3.413101,-8.57709 5.929774,-13.48757 3.925555,-7.65947 5.531685,-9.76516 11.302945,-14.81861 7.31868,-6.40841 11.56448,-8.843128 21.94403,-12.583616 9.01486,-3.248696 34.48597,-9.401523 41.69797,-10.072606 3.16553,-0.294556 7.38249,-1.101045 9.37102,-1.792198 9.38419,-3.261668 47.79292,-4.357722 59.20388,-1.689476 13.29075,3.107804 26.53692,9.363792 35.99573,17.00031 4.10861,3.317066 9.18089,7.139496 11.27173,8.494296 2.09084,1.3548 4.1268,2.97565 4.52435,3.6019 0.39755,0.62624 1.09563,1.13862 1.55129,1.13862 0.45565,0 3.26001,1.5716 6.23192,3.49243 2.97191,1.92084 8.17162,4.598 11.55492,5.94924 3.3833,1.35125 8.03735,3.43788 10.34234,4.63697 5.58843,2.90717 24.39296,10.06962 30.60834,11.65839 2.73422,0.69893 7.81852,2.34384 11.29845,3.65536 13.20891,4.97822 25.41294,7.42417 47.00155,9.42013 25.48803,2.35647 32.85469,3.65471 40.98387,7.22262 3.47637,1.52579 6.77604,2.77417 7.33258,2.77417 0.55655,0 3.67246,1.52529 6.92425,3.38953 12.07194,6.92083 21.91505,13.8939 33.83876,23.97213 9.60953,8.12221 14.98687,13.64405 24.94711,25.61749 6.98341,8.39492 13.82828,17.09383 15.21083,19.33092 1.38255,2.2371 3.95921,5.85471 5.72592,8.03913 3.616,4.47098 7.23106,10.83639 13.65766,24.04847 5.31194,10.92052 6.76517,15.64947 9.11901,29.67409 0.99418,5.92358 2.58812,12.53461 3.54208,14.69119 2.2969,5.19252 7.81483,23.31293 9.12129,29.95353 0.5715,2.90489 0.90187,6.43964 0.73414,7.855 -0.30473,2.57159 -0.30956,2.56911 -6.89748,-3.54035 -6.91912,-6.41659 -9.22529,-9.76268 -9.22529,-13.38522 0,-1.19915 -1.22024,-3.71574 -2.71163,-5.59243 -1.4914,-1.87668 -2.71163,-4.01159 -2.71163,-4.74426 0,-1.94737 -5.93153,-0.68106 -10.06938,2.14971 -3.14961,2.15468 -3.49369,2.20031 -8.04643,1.06693 -2.751,-0.68484 -5.0792,-1.85086 -5.52248,-2.76579 -0.4215,-0.86998 -1.11355,-2.29358 -1.53789,-3.16356 -2.34589,-4.80949 -10.68618,-3.25609 -16.80561,3.13009 l -4.00983,4.18462 -4.16256,-4.22227 c -4.59378,-4.65971 -4.23851,-4.55572 -11.5001,-3.3663 -6.89901,1.13003 -10.2882,3.71333 -11.04002,8.41492 l -0.58459,3.65585 -9.75847,-0.55834 c -13.62064,-0.77932 -13.58563,-0.75377 -8.6952,-6.34426 4.15838,-4.75367 5.03594,-7.92857 3.16023,-11.43337 -2.33573,-4.36434 -11.8928,-2.13659 -16.72176,3.89785 -1.26191,1.57695 -2.71105,3.37561 -3.22029,3.99702 -0.50923,0.62142 -2.13008,1.12985 -3.60188,1.12985 -2.33878,0 -2.67599,-0.32428 -2.67599,-2.57333 0,-1.41532 0.86508,-3.55073 1.9224,-4.74535 4.2158,-4.76321 5.87121,-13.68262 3.06101,-16.49281 -0.73904,-0.73905 -3.48457,-2.04059 -6.10116,-2.89233 -6.68766,-2.1769 -7.92101,-3.49533 -7.92101,-8.46743 0,-5.80347 1.22806,-9.48242 4.57657,-13.71026 1.58422,-2.00025 2.88041,-4.60074 2.88041,-5.77889 0,-1.93357 0.21133,-2.04578 2.17123,-1.1528 1.58819,0.72363 2.4456,0.71489 3.19304,-0.0325 1.44191,-1.44192 -0.68256,-3.81008 -3.41801,-3.81008 -1.45468,0 -2.57502,-0.86869 -3.54872,-2.75159 -1.55098,-2.9993 -6.20498,-6.27842 -8.91844,-6.28379 -0.93945,-0.002 -2.211,0.68436 -2.82564,1.52494 -1.00857,1.3793 -1.4383,1.18099 -4.40701,-2.03372 -3.81539,-4.13152 -7.78095,-11.57154 -7.78095,-14.59828 0,-1.15197 0.46625,-2.84107 1.03611,-3.75356 0.56985,-0.91248 0.79089,-2.63563 0.49119,-3.8292 -1.09342,-4.3546 -2.71146,-5.43194 -10.07978,-6.71148 -4.75072,-0.82498 -7.73459,-1.85333 -8.97403,-3.09275 l -1.85682,-1.85682 2.02538,-1.41863 c 2.08095,-1.45756 6.51144,-9.29406 6.51144,-11.51723 0,-3.54035 -6.04252,-5.42139 -9.54184,-2.97037 -0.99506,0.69696 -3.50892,1.72489 -5.58637,2.28429 -7.23343,1.94777 -15.60357,10.20573 -15.60357,15.39446 0,2.74047 2.78531,5.62501 9.27121,9.6015 4.21082,2.58165 5.85755,4.89365 4.75552,6.67674 -0.30357,0.49121 -3.0568,2.36115 -6.11827,4.15543 -7.87271,4.61407 -9.65307,7.55594 -6.48808,10.72093 2.08821,2.08821 7.71451,1.75035 15.47881,-0.92952 l 6.80825,-2.3499 4.47485,4.38362 c 4.98072,4.87917 11.32133,13.8519 12.16561,17.21581 0.45677,1.81991 -0.26383,2.91887 -4.26204,6.49991 -4.167,3.73222 -4.81175,4.75713 -4.81175,7.64881 0,4.31252 2.56231,6.8967 7.49427,7.55821 2.16232,0.29003 4.10184,1.13192 4.52804,1.96551 0.41004,0.80199 1.0021,5.85173 1.31571,11.22164 0.63664,10.90134 1.14602,9.72415 -7.05837,16.31197 -3.74881,3.01016 -4.32226,7.14642 -1.47752,10.65736 1.61806,1.997 1.92241,2.05494 4.74535,0.90344 10.99641,-4.48552 10.5281,-4.41722 12.74667,-1.85908 1.11106,1.28113 3.52423,3.42009 5.36262,4.75325 l 3.34249,2.42394 -1.45546,3.92705 c -1.74816,4.71678 -1.26173,6.31404 2.64902,8.69841 6.08567,3.7104 14.2664,1.74908 14.2664,-3.42036 0,-3.25832 2.90889,-4.05505 8.80825,-2.41254 2.86101,0.79657 10.19431,1.67857 16.29622,1.96 10.42984,0.48104 11.06128,0.61602 10.54157,2.25348 -0.67264,2.1193 3.79303,11.3296 6.08901,12.55837 2.29498,1.22824 8.99541,-0.65672 11.89642,-3.3467 1.31333,-1.21779 2.61073,-3.32063 2.8831,-4.67297 0.85447,-4.24248 3.74654,-8.75218 6.17491,-9.62869 2.93827,-1.06057 5.6303,1.10331 6.50639,5.2299 0.78641,3.70415 2.34391,5.38554 6.88604,7.43375 l 3.71825,1.67669 3.03404,-3.50985 c 2.69491,-3.11755 3.03402,-4.09915 3.03402,-8.78251 0,-4.12694 0.30008,-5.27266 1.38098,-5.27266 1.15319,0 1.28551,0.93202 0.80211,5.65018 -0.54023,5.27293 -0.42035,5.80868 1.79543,8.02446 3.01072,3.01072 6.62523,3.73184 12.22564,2.43911 4.35284,-1.00475 4.49561,-0.96743 9.02868,2.36016 2.53325,1.85957 6.00029,5.48002 7.70452,8.04542 3.6629,5.51381 7.17981,7.82283 11.94396,7.8418 1.91182,0.007 3.90917,0.31267 4.43856,0.6779 2.88005,1.98703 9.66119,17.21302 13.46997,30.24472 2.26272,7.74188 5.09968,16.25233 6.30437,18.9121 2.46511,5.4426 7.89244,28.88932 10.01145,43.25066 0.77018,5.21989 1.79224,10.95363 2.27121,12.74166 1.85717,6.93275 3.57349,38.23856 2.31177,42.16671 -0.3589,1.11739 -1.62562,2.27584 -2.81492,2.57434 -4.03961,1.01388 -4.41731,2.46307 -5.1304,19.68502 -0.3731,9.01089 -1.62446,24.11158 -2.78079,33.55708 -1.97616,16.1423 -2.33953,17.70627 -6.05075,26.04282 -2.98941,6.71517 -4.5695,9.19039 -6.50602,10.19181 -1.4408,0.74507 -2.55771,2.06965 -2.55771,3.03326 0,3.09774 -1.07017,4.59853 -5.30604,7.44114 -2.30156,1.54453 -5.81163,4.33672 -7.80016,6.20487 -1.98853,1.86814 -4.89471,3.66382 -6.45817,3.99039 -1.56346,0.32657 -5.02079,2.24164 -7.68294,4.25571 -7.24806,5.48355 -27.92015,18.91528 -31.31074,20.34419 -1.63332,0.68834 -3.35191,2.2569 -3.8191,3.48569 -0.47441,1.24779 -1.57636,2.23415 -2.49596,2.23415 -0.9056,0 -4.47468,1.86728 -7.93129,4.14951 -11.61771,7.67059 -20.19474,11.47914 -36.56459,16.23618 -5.71702,1.66135 -12.23281,3.60432 -14.47953,4.3177 -7.24405,2.30016 -25.86486,3.83372 -32.52202,2.67843 z m 31.57449,-57.70298 c 7.58688,-1.78828 12.84765,-4.8834 29.84596,-17.55956 7.72926,-5.76394 16.29028,-12.06008 19.02451,-13.99143 2.73422,-1.93134 5.37806,-3.98767 5.87519,-4.5696 0.49713,-0.58194 3.17727,-2.64881 5.95587,-4.59304 6.84838,-4.79195 18.63961,-17.62885 20.91248,-22.76703 1.64171,-3.71137 1.78461,-5.27527 1.25361,-13.71949 -0.32962,-5.24184 -1.03118,-11.1576 -1.559,-13.14613 -0.52781,-1.98853 -1.5505,-6.22201 -2.27264,-9.40774 -1.26527,-5.58187 -6.18062,-15.77059 -9.41525,-19.51629 -0.8586,-0.99427 -1.83295,-2.70507 -2.16522,-3.80178 -0.33228,-1.09671 -1.73829,-2.94835 -3.12449,-4.11475 -1.76535,-1.48544 -2.67392,-3.26571 -3.03301,-5.94299 l -0.51268,-3.82226 8.65208,-6.97694 c 12.81362,-10.33278 12.42856,-9.5459 12.40344,-25.34647 -0.0188,-11.85197 -0.27025,-14.00237 -2.35841,-20.17275 -5.32664,-15.73993 -16.05445,-21.50297 -42.8321,-23.00964 -9.98958,-0.56208 -11.66343,-0.41178 -20.78915,1.86663 -5.48499,1.36943 -13.61285,4.25526 -18.16904,6.45098 -4.53432,2.18519 -9.0085,3.98272 -9.94263,3.99453 -0.93414,0.0118 -4.1389,1.06051 -7.12169,2.3305 -15.51463,6.60563 -21.24205,7.77385 -48.25357,9.84231 -24.21411,1.85423 -31.50453,3.53346 -45.29759,10.43356 -10.50806,5.25674 -14.69146,9.49434 -19.93644,20.19468 -2.46688,5.0327 -4.84383,9.76047 -5.28212,10.50617 -3.56338,6.06264 -7.42588,27.60763 -7.62997,42.55984 -0.13886,10.17301 -0.059,10.63508 2.79465,16.17077 1.61568,3.13418 2.9376,6.04022 2.9376,6.45788 0,0.77708 2.69061,4.97042 11.06721,17.24833 6.69394,9.81159 17.42208,22.01004 21.48619,24.43096 1.89213,1.12711 8.88813,6.03945 15.54667,10.91633 7.95094,5.82347 15.19202,10.26739 21.09582,12.94672 9.67211,4.38948 29.87158,12.66263 34.29791,14.04747 11.09818,3.47222 26.79999,4.35739 36.54581,2.06023 z M 351.08605,392.48579 c 6.3894,-3.18202 10.39457,-7.72103 10.39457,-11.78005 0,-0.74582 1.44565,-3.9411 3.21255,-7.10062 8.13635,-14.54915 7.5416,-29.71669 -2.14917,-54.80958 -3.36944,-8.72468 -7.64937,-14.41639 -20.94865,-27.85875 -8.35142,-8.44127 -11.72707,-11.1839 -17.17364,-13.95311 l -6.77907,-3.44671 -14.46202,-0.38172 c -8.81096,-0.23256 -17.64074,0.0593 -22.5969,0.74685 -4.47419,0.62071 -11.99895,1.4087 -16.7217,1.75108 -4.72276,0.34238 -9.68513,1.15515 -11.02749,1.80616 -4.86732,2.36047 -5.07704,9.57131 -0.3803,13.07556 2.1215,1.58287 3.77447,1.86109 10.79785,1.81747 4.85878,-0.0302 11.28726,-0.76665 15.52389,-1.77847 5.46319,-1.30477 10.65615,-1.73413 21.24108,-1.75625 12.66614,-0.0265 14.36031,0.15825 17.66106,1.92563 4.52607,2.42348 20.44681,18.83378 25.13409,25.90698 7.16198,10.80755 10.38229,23.57834 9.22716,36.59218 -0.71938,8.10474 -1.40597,9.97236 -6.01755,16.36854 -6.63608,9.20412 -9.84972,14.67007 -9.84972,16.753 0,2.48587 3.14331,6.68944 5.77407,7.72169 2.20108,0.86365 5.27288,0.32595 9.13989,-1.59988 z m -161.60993,-0.89392 c 6.97725,-2.24675 12.7972,-6.46996 20.95667,-15.20703 6.64734,-7.11791 9.86199,-12.76674 12.34236,-21.68812 1.36201,-4.89892 1.37047,-6.04431 0.0989,-13.41265 -1.44975,-8.40093 -2.06646,-9.57196 -10.02556,-19.03663 -3.05034,-3.62736 -3.4062,-4.47973 -2.48566,-5.95376 2.85856,-4.57726 0.69789,-8.39766 -5.92769,-10.48104 -4.35272,-1.36868 -8.44122,-1.63708 -25.08555,-1.64679 l -19.88527,-0.0116 -9.19021,3.33315 c -5.05461,1.83323 -10.90849,4.20975 -13.00861,5.28115 -4.60352,2.34854 -11.8944,9.01138 -14.53357,13.28165 -3.85977,6.24524 -6.85556,31.61805 -4.21285,35.68064 0.7439,1.14358 1.84101,3.56971 2.43803,5.39142 2.13858,6.52547 20.4123,21.80617 30.37233,25.39768 6.4,2.3078 29.87106,1.73676 38.14666,-0.92808 z M 228.61085,219.1747 c 16.02998,-2.74528 33.81745,-11.94383 38.47961,-19.89923 5.36801,-9.15981 6.94874,-15.30232 6.85435,-26.63516 -0.055,-6.59773 -0.61384,-12.21045 -1.53003,-15.36589 -0.79389,-2.73423 -1.66805,-6.19155 -1.94256,-7.68295 -0.27451,-1.49139 -1.46737,-4.0064 -2.65078,-5.58891 -1.18342,-1.58251 -2.15167,-3.78764 -2.15167,-4.90029 0,-2.59331 -6.29694,-8.66376 -12.91433,-12.44985 -7.40517,-4.23682 -24.674,-7.70785 -34.9911,-7.03323 -14.62032,0.95602 -20.86417,4.233 -31.51813,16.54177 -6.06822,7.01076 -8.06799,10.75024 -12.74104,23.82509 -5.84437,16.35216 -7.80477,35.34694 -4.33782,42.03023 0.51577,0.99426 2.67376,3.86072 4.79551,6.36992 4.98518,5.8955 15.94341,11.29361 24.76511,12.19951 7.38722,0.7586 20.95519,0.11794 29.88288,-1.41101 z"
     id="path26"
     transform="scale(0.75000001)" />
  <path
     style="fill:#ffffff;stroke-width:0"
     d="m 152.57257,375.10509 c -1.80195,-0.95221 -6.53458,-4.89999 -10.51694,-8.77284 -5.34126,-5.19438 -7.50363,-7.98999 -8.24311,-10.65706 -1.17933,-4.25351 -1.33982,-13.27602 -0.25804,-14.50721 0.41496,-0.47227 1.43864,-2.72047 2.27483,-4.99599 1.62957,-4.43452 5.43013,-8.84992 10.52883,-12.23211 2.86828,-1.90267 25.88576,-8.48717 29.66863,-8.48717 0.88189,0 1.98499,1.09006 2.5154,2.48566 0.75123,1.97661 2.43923,3.09341 8.24233,5.45323 14.21798,5.78174 19.74764,12.46421 19.60874,23.69677 -0.12886,10.42119 -4.00824,16.20057 -17.05,25.40056 l -6.27615,4.42735 -13.60912,-0.0399 c -11.6157,-0.0341 -14.08903,-0.29354 -16.8854,-1.77124 z m 21.86962,-18.75199 c 5.79788,-2.93668 8.20584,-6.61879 5.95496,-9.10598 -0.75551,-0.83483 -1.79864,-2.63567 -2.31807,-4.00187 -0.51943,-1.36621 -1.62173,-2.48401 -2.44957,-2.48401 -0.82783,0 -3.24105,-0.86695 -5.3627,-1.92655 -4.71965,-2.35711 -6.89401,-1.91784 -11.95655,2.41551 -2.89246,2.47583 -3.81724,3.916 -3.81724,5.94461 0,3.23235 2.99507,9.38534 5.19093,10.66412 3.04252,1.77182 9.61019,1.1017 14.75824,-1.50583 z"
     id="path28"
     transform="scale(0.75000001)" />
  <path
     style="fill:#ffffff;stroke-width:0"
     d="m 197.09078,205.0724 c -2.88958,-0.69206 -5.37999,-2.33529 -9.26473,-6.11309 l -5.31287,-5.16661 0.0295,-7.18666 c 0.0201,-4.90047 0.60968,-8.76811 1.8533,-12.15798 1.00309,-2.73422 2.58917,-7.34204 3.52463,-10.2396 4.18351,-12.95828 17.76968,-29.9165 25.72829,-32.11397 7.36444,-2.03342 29.43108,3.27899 35.76762,8.61083 2.66653,2.24375 2.68092,2.3041 1.16203,4.87537 -1.45251,2.45892 -1.44882,2.79316 0.0666,6.01877 0.88249,1.8784 3.30213,6.04066 5.37697,9.24948 3.55545,5.49862 3.76358,6.1868 3.61835,11.96408 -0.10968,4.36312 -0.79292,7.50113 -2.37052,10.8875 -2.32319,4.98676 -7.2467,10.63281 -9.27212,10.63281 -0.6532,0 -1.45547,0.84382 -1.7828,1.87516 -1.87682,5.91333 -35.84935,12.04329 -49.12426,8.86391 z m 34.68364,-27.5219 c 3.32401,-1.46934 5.04192,-2.88073 7.04652,-5.78921 2.27403,-3.29942 1.9046,-5.26459 -1.65979,-8.82897 l -3.20009,-3.20009 -7.35971,0.61377 c -6.21417,0.51825 -8.17493,1.10899 -12.59709,3.79532 -6.28754,3.81947 -6.52175,4.14785 -5.77967,8.10345 0.58639,3.12575 3.03085,5.05194 8.63002,6.80029 2.90598,0.9074 11.41404,0.0551 14.91981,-1.49456 z"
     id="path30"
     transform="scale(0.75000001)" />
  <path
     style="fill:#ffffff;stroke-width:0"
     d="m 363.28169,565.60039 c -2.05665,-1.40092 -5.21362,-5.97118 -10.14594,-14.68799 -8.26066,-14.59894 -9.40381,-18.7023 -8.00733,-28.74258 0.50362,-3.6209 0.68265,-7.47454 0.39784,-8.56363 -0.80768,-3.0886 3.14045,-4.18669 10.51288,-2.92393 11.70883,2.00552 15.05163,4.88088 21.21909,18.25191 4.66256,10.10842 4.16536,14.5681 -3.28167,29.43521 -5.07018,10.12202 -5.76298,10.59044 -10.69487,7.23101 z"
     id="path32"
     transform="scale(0.75000001)" />
  <path
     style="fill:#ffffff;stroke-width:0"
     d="m 373.68295,493.84552 c -6.00941,-0.57416 -15.18557,-2.15197 -18.30349,-3.14724 -3.5808,-1.14302 -3.67376,-2.53353 -0.53142,-7.9491 5.99255,-10.32765 14.71737,-19.06326 17.84211,-17.86419 1.76565,0.67754 9.48317,15.58082 10.56258,20.39735 0.50444,2.25091 1.36723,4.63487 1.91732,5.29769 0.59882,0.72154 0.67097,1.53387 0.17978,2.02442 -1.05196,1.05058 -7.01805,1.68523 -11.66688,1.24107 z"
     id="path34"
     transform="scale(0.75000001)" />
  <path
     style="fill:#ffffff;stroke-width:0"
     d="m 424.03096,608.83985 c -7.33398,-2.97952 -14.5572,-6.67072 -18.52946,-9.46888 -9.17232,-6.4612 -22.49232,-15.36337 -23.6298,-15.79252 -0.52676,-0.19873 1.3551,-2.45333 4.18192,-5.01021 4.40671,-3.98591 5.53532,-5.70931 7.91412,-12.08491 5.87289,-15.74037 11.60398,-23.76919 20.23253,-28.3442 2.27437,-1.20591 2.785,-1.20345 4.65594,0.0224 2.2966,1.50478 7.70348,11.54893 7.70348,14.31044 0,0.94754 0.36427,2.40787 0.80949,3.24516 0.44522,0.8373 2.0739,7.21678 3.61929,14.17663 1.54539,6.95984 3.59473,15.2981 4.55409,18.52946 3.0943,10.42232 4.02599,25.31416 1.58311,25.30409 -0.59141,-0.002 -6.48403,-2.20181 -13.09471,-4.8875 z"
     id="path36"
     transform="scale(0.75000001)" />
  <path
     style="fill:#ffffff;stroke-width:0"
     d="m 411.48453,487.19381 c -2.02908,-1.49221 -4.70307,-4.0423 -5.94219,-5.66687 -2.43149,-3.18784 -10.61831,-19.01832 -10.61831,-20.53213 0,-1.04134 23.39723,-1.14396 27.11628,-0.11894 2.16368,0.59634 2.29466,1.04062 3.0828,10.45673 0.90242,10.78157 0.38913,12.83133 -3.98668,15.92021 -4.03398,2.84758 -5.71352,2.83731 -9.6519,-0.059 z"
     id="path38"
     transform="scale(0.75000001)" />
  <path
     style="fill:#ffffff;stroke-width:0"
     d="m 457.78388,616.50888 c -0.74216,-1.20083 0.0666,-16.25998 1.44918,-26.98509 0.73106,-5.67098 0.70003,-8.12617 -0.12799,-10.12518 -0.95348,-2.30191 -0.81976,-3.13437 1.04716,-6.51873 1.18736,-2.15244 3.34091,-4.4476 4.83703,-5.1551 1.48323,-0.7014 2.83237,-1.61886 2.99808,-2.03879 0.51786,-1.31232 8.31547,-0.83412 11.5683,0.70946 3.32726,1.57888 9.37149,8.02085 9.37149,9.98818 0,0.65621 1.55665,2.74976 3.45922,4.65233 4.36062,4.36062 7.76196,11.19473 7.02768,14.12031 -0.81886,3.26261 -4.75343,7.48162 -9.45232,10.13568 -2.30898,1.30417 -7.42054,4.4441 -11.35903,6.97761 -6.64313,4.27334 -7.63175,4.63018 -13.67317,4.93525 -4.21168,0.21268 -6.73603,-0.0332 -7.14563,-0.69593 z"
     id="path40"
     transform="scale(0.75000001)" />
  <path
     style="fill:#ffffff;stroke-width:0"
     d="m 457.70897,479.62769 c -5.82608,-2.71298 -11.77033,-9.41317 -13.49072,-15.20636 -1.884,-6.34413 -0.85109,-8.42064 5.06217,-10.17669 2.59801,-0.77153 5.0722,-1.40278 5.4982,-1.40278 0.426,0 4.86833,-1.87652 9.87183,-4.17004 13.49852,-6.18749 14.33405,-5.39121 14.33405,13.66074 0,13.3637 -0.50119,15.59841 -3.97313,17.71555 -4.02041,2.45159 -11.52649,2.2692 -17.3024,-0.42042 z"
     id="path42"
     transform="scale(0.75000001)" />
  <path
     style="fill:#ffffff;stroke-width:0"
     d="m 508.39519,489.70885 c -9.45823,-13.42455 -9.04867,-12.2749 -9.26971,-26.02048 -0.10792,-6.71128 -0.42953,-15.2529 -0.71469,-18.98139 -0.28515,-3.72849 -0.13986,-7.34088 0.32288,-8.02753 0.70494,-1.04605 2.90408,-1.0805 13.56485,-0.21249 6.99794,0.56979 14.24447,1.53834 16.10339,2.15234 4.22591,1.3958 7.94388,6.56406 9.44839,13.13397 0.60288,2.63263 1.43401,4.99542 1.84695,5.25063 1.08764,0.6722 0.92291,8.37229 -0.20666,9.66022 -0.52661,0.60043 -1.75533,2.4374 -2.73049,4.08216 -0.97516,1.64475 -3.03196,3.67847 -4.57067,4.51938 -1.53871,0.8409 -4.27574,2.8939 -6.0823,4.56221 -1.80656,1.66831 -4.79863,3.80621 -6.64905,4.75089 -1.85043,0.94469 -4.76878,2.95066 -6.48523,4.45773 l -3.12082,2.74012 z"
     id="path44"
     transform="scale(0.75000001)" />
  <path
     style="fill:#ffffff;stroke-width:0"
     d="m 516.12312,578.25465 c -1.63171,-4.97044 -4.54478,-29.06725 -3.62776,-30.00868 0.46003,-0.47228 0.83642,-1.69825 0.83642,-2.72439 0,-5.90853 7.13582,-17.60429 13.50991,-22.14305 l 2.50176,-1.78141 1.86918,2.00338 c 2.77422,2.97339 6.34817,10.58616 7.50734,15.99116 0.56161,2.61873 0.86684,8.9292 0.67827,14.02329 -0.30514,8.24314 -0.5894,9.56295 -2.58411,11.99817 -1.2327,1.50491 -4.01877,4.91406 -6.19128,7.57588 -4.67419,5.72697 -7.81964,7.98916 -11.11981,7.99729 -1.92711,0.005 -2.61056,-0.58805 -3.37992,-2.93164 z"
     id="path46"
     transform="scale(0.75000001)" />
</svg>
