<?xml version="1.0" encoding="UTF-8" standalone="no"?>
<svg
   xmlns:dc="http://purl.org/dc/elements/1.1/"
   xmlns:cc="http://creativecommons.org/ns#"
   xmlns:rdf="http://www.w3.org/1999/02/22-rdf-syntax-ns#"
   xmlns:svg="http://www.w3.org/2000/svg"
   xmlns="http://www.w3.org/2000/svg"
   xmlns:sodipodi="http://sodipodi.sourceforge.net/DTD/sodipodi-0.dtd"
   xmlns:inkscape="http://www.inkscape.org/namespaces/inkscape"
   version="1.0"
   width="519.000000pt"
   height="602.000000pt"
   viewBox="0 0 519.000000 602.000000"
   preserveAspectRatio="xMidYMid meet"
   id="svg18"
   sodipodi:docname="face3.svg"
   inkscape:version="1.0.1 (3bc2e813f5, 2020-09-07)">
  <defs
     id="defs22" />
  <sodipodi:namedview
     pagecolor="#ffffff"
     bordercolor="#666666"
     borderopacity="1"
     objecttolerance="10"
     gridtolerance="10"
     guidetolerance="10"
     inkscape:pageopacity="0"
     inkscape:pageshadow="2"
     inkscape:window-width="958"
     inkscape:window-height="1018"
     id="namedview20"
     showgrid="false"
     inkscape:zoom="1.0714286"
     inkscape:cx="346"
     inkscape:cy="401.33333"
     inkscape:window-x="1913"
     inkscape:window-y="0"
     inkscape:window-maximized="0"
     inkscape:current-layer="svg18" />
  <metadata
     id="metadata2">
Created by potrace 1.16, written by Peter Selinger 2001-2019
<rdf:RDF>
  <cc:Work
     rdf:about="">
    <dc:format>image/svg+xml</dc:format>
    <dc:type
       rdf:resource="http://purl.org/dc/dcmitype/StillImage" />
  </cc:Work>
</rdf:RDF>
</metadata>
  <g
     transform="translate(0.000000,602.000000) scale(0.100000,-0.100000)"
     fill="#000000"
     stroke="none"
     id="g16">
    <path
       d="M1735 5568 c-27 -4 -68 -13 -90 -18 -38 -10 -56 -14 -119 -25 -16 -3 -37 -10 -47 -16 -10 -5 -22 -8 -26 -7 -10 2 -126 -52 -133 -62 -3 -4 -30 -18 -61 -31 -31 -13 -70 -35 -88 -49 -75 -57 -97 -76 -109 -92 -7 -10 -18 -18 -24 -18 -20 0 -193 -171 -258 -256 -22 -27 -41 -60 -43 -71 -1 -12 -8 -27 -14 -35 -16 -19 -50 -98 -58 -133 -36 -169 -31 -456 12 -565 3 -8 7 -22 8 -30 2 -8 17 -55 35 -105 17 -49 31 -98 31 -107 0 -10 4 -18 10 -18 5 0 9 -6 9 -13 0 -8 25 -63 55 -122 30 -60 55 -118 55 -128 0 -10 4 -16 9 -13 5 3 12 -6 16 -22 3 -15 17 -41 31 -59 13 -17 24 -36 24 -41 0 -6 3 -12 8 -14 4 -1 29 -46 56 -98 27 -52 55 -98 62 -103 7 -4 18 -23 24 -42 6 -19 16 -35 21 -35 5 0 9 -6 9 -14 0 -7 7 -19 16 -26 8 -8 22 -27 30 -44 13 -29 45 -90 65 -126 45 -83 90 -186 119 -275 13 -38 26 -74 30 -80 4 -5 10 -26 13 -45 2 -19 10 -62 17 -94 16 -79 7 -378 -16 -571 -4 -33 -7 -63 -6 -67 1 -5 -3 -8 -8 -8 -6 0 -10 -16 -10 -35 0 -19 -4 -35 -8 -35 -12 0 -15 -34 -16 -160 -1 -121 9 -246 23 -283 5 -12 6 -28 3 -36 -2 -7 0 -16 6 -20 5 -3 12 -21 15 -39 3 -18 10 -38 15 -45 5 -7 13 -27 17 -45 3 -17 10 -32 14 -32 4 0 14 -19 22 -42 7 -24 25 -54 39 -68 14 -14 53 -57 86 -95 82 -93 113 -125 182 -188 94 -84 118 -104 143 -117 13 -7 40 -27 59 -46 34 -32 144 -104 160 -104 4 0 15 -9 24 -19 10 -11 28 -22 42 -25 13 -4 24 -11 24 -16 0 -6 7 -10 15 -10 8 0 15 -4 15 -10 0 -5 7 -10 15 -10 8 0 15 -4 15 -10 0 -5 8 -10 18 -10 10 0 27 -6 38 -14 11 -8 37 -17 57 -21 20 -4 37 -12 37 -17 0 -6 7 -5 15 2 13 10 19 9 36 -6 18 -16 36 -18 157 -16 75 1 158 6 184 10 25 5 51 6 57 3 6 -4 37 -3 68 1 32 4 104 9 160 10 55 2 99 6 97 10 -2 4 10 6 28 6 18 0 114 0 213 0 99 0 209 0 245 0 83 0 209 10 282 23 31 5 60 9 65 8 10 -3 84 15 158 38 6 1 31 9 57 16 27 7 53 18 60 25 7 7 20 12 29 12 9 0 19 7 23 15 3 8 12 12 20 9 8 -3 23 -1 34 5 15 8 22 8 25 -2 4 -9 6 -9 6 1 1 6 8 12 16 12 8 0 24 17 35 38 11 20 24 44 29 52 19 33 32 69 52 145 11 44 23 89 26 100 17 68 20 305 3 305 -4 0 -10 27 -14 61 -3 33 -9 66 -13 72 -4 7 -6 24 -4 39 1 16 -2 28 -9 28 -6 0 -10 8 -8 18 1 9 0 22 -3 27 -4 6 -12 28 -19 50 -7 22 -16 45 -20 50 -4 6 -13 33 -20 60 -7 28 -26 89 -42 137 -15 48 -30 104 -32 125 -3 21 -10 63 -16 93 -16 79 -23 232 -25 585 -1 181 -7 334 -14 368 -6 31 -15 81 -20 110 -5 28 -15 77 -22 107 -7 30 -12 60 -11 67 2 6 -2 14 -8 18 -5 3 -10 17 -10 30 0 13 -5 27 -10 30 -6 4 -9 12 -8 18 4 19 -24 107 -34 107 -5 0 -6 5 -3 10 3 6 3 16 -2 23 -4 6 -8 17 -9 22 -4 25 -71 153 -96 183 -8 9 -20 31 -28 47 -8 17 -20 35 -26 40 -7 6 -46 51 -87 100 -41 50 -108 123 -150 163 -41 39 -73 72 -70 72 3 0 -21 20 -54 44 -32 24 -67 53 -77 65 -11 12 -24 21 -31 21 -6 0 -22 11 -35 25 -13 14 -28 25 -35 25 -6 0 -17 9 -25 20 -8 11 -20 20 -26 20 -6 0 -41 23 -77 50 -36 28 -69 50 -72 50 -19 0 -214 176 -248 225 -10 14 -22 23 -28 20 -5 -4 -9 -2 -9 4 0 5 -27 38 -60 73 -33 34 -60 67 -60 72 0 6 -17 26 -38 45 -38 36 -95 109 -160 206 -18 27 -42 58 -53 70 -29 31 -91 105 -130 155 -64 84 -167 170 -229 192 -17 5 -30 14 -30 19 0 5 -22 18 -50 30 -27 12 -50 25 -50 30 0 5 -7 9 -16 9 -9 0 -71 18 -137 41 -67 22 -132 39 -144 36 -13 -2 -26 0 -29 4 -6 10 -89 9 -159 -3z m185 -93 c14 -8 41 -14 60 -15 20 0 45 -7 56 -15 12 -8 24 -11 28 -8 3 3 27 -4 53 -16 27 -13 64 -30 83 -39 53 -25 196 -125 246 -172 25 -23 63 -67 86 -98 22 -31 46 -61 52 -67 6 -5 34 -39 61 -75 28 -36 53 -66 58 -68 4 -2 7 -8 7 -14 0 -6 10 -23 23 -38 12 -15 33 -43 47 -61 41 -55 254 -289 342 -376 61 -60 161 -141 225 -181 35 -22 119 -83 179 -131 5 -4 21 -14 35 -21 65 -35 315 -266 399 -370 19 -23 47 -57 62 -74 15 -17 28 -36 28 -43 0 -6 3 -13 8 -15 11 -5 79 -110 93 -144 6 -16 15 -38 20 -49 23 -54 59 -170 79 -255 12 -52 26 -109 31 -127 24 -80 40 -211 44 -355 2 -87 1 -159 -3 -162 -8 -5 -8 -127 2 -381 7 -167 33 -355 56 -410 5 -11 16 -45 25 -75 9 -30 20 -68 26 -85 6 -16 15 -43 19 -60 5 -16 16 -55 25 -85 9 -30 23 -80 30 -110 7 -30 21 -82 30 -114 22 -82 22 -266 0 -282 -9 -7 -15 -16 -14 -20 4 -18 -14 -115 -22 -120 -5 -3 -7 -10 -3 -15 10 -16 -30 -88 -48 -89 -10 0 -18 -4 -18 -9 0 -5 -9 -12 -19 -16 -11 -3 -36 -21 -57 -40 -32 -29 -84 -53 -106 -47 -3 1 -11 -5 -18 -13 -6 -7 -18 -11 -25 -9 -7 3 -24 0 -37 -7 -22 -12 -53 -18 -105 -22 -13 -1 -23 -4 -23 -7 0 -6 -73 -12 -160 -14 -36 -1 -68 -4 -71 -9 -4 -6 -210 -12 -229 -7 -3 1 -25 3 -50 4 -25 2 -62 7 -82 11 -20 4 -43 3 -50 -1 -14 -9 -11 -9 -128 -20 -47 -4 -122 -7 -167 -6 -47 1 -83 -2 -83 -8 0 -9 -111 -13 -350 -13 -102 0 -139 4 -200 23 -41 12 -86 31 -100 40 -14 10 -40 21 -58 25 -18 4 -43 17 -56 28 -42 40 -66 57 -82 57 -8 0 -20 5 -27 10 -47 40 -62 50 -79 56 -11 3 -17 12 -14 19 3 9 0 12 -8 9 -7 -3 -27 11 -45 31 -17 20 -31 30 -31 23 -1 -7 -10 -2 -21 12 -12 14 -23 23 -24 20 -4 -6 -127 102 -159 139 -12 13 -31 34 -42 47 -12 12 -19 25 -16 28 3 3 -2 6 -11 6 -9 0 -18 5 -18 10 -1 6 -2 16 -3 23 0 6 -8 12 -16 12 -14 0 -35 31 -32 47 1 5 -5 8 -13 8 -8 0 -15 7 -15 17 0 9 -3 13 -7 10 -3 -4 -15 17 -25 46 -10 28 -23 54 -28 55 -6 2 -10 15 -10 28 0 13 -3 23 -7 23 -27 -4 -33 2 -23 21 6 11 8 25 4 32 -4 6 -9 29 -11 52 -3 23 -11 64 -19 91 -19 69 -6 341 18 371 12 16 27 171 26 254 -1 36 2 126 7 200 12 186 12 259 -1 268 -16 11 -24 41 -14 47 6 4 10 11 10 16 0 6 -5 7 -12 3 -8 -5 -9 -2 -5 9 4 10 2 16 -6 14 -7 -1 -12 8 -12 21 0 12 -6 26 -14 31 -7 5 -11 13 -7 19 3 5 -1 15 -9 22 -11 9 -12 16 -5 25 7 9 7 15 1 19 -5 4 -15 31 -22 61 -7 30 -20 63 -31 74 -10 11 -17 30 -15 43 1 14 -3 22 -10 20 -11 -2 -19 22 -11 31 2 1 -7 16 -20 34 -12 17 -22 34 -22 39 0 10 -72 118 -84 126 -6 4 -8 10 -4 13 3 3 -5 18 -18 32 -14 15 -23 31 -21 37 2 6 -7 21 -20 34 -13 12 -19 22 -13 22 8 0 7 5 -2 14 -46 47 -88 117 -88 145 0 6 -4 11 -10 11 -5 0 -10 6 -10 14 0 7 -6 19 -14 25 -8 7 -18 25 -21 41 -3 16 -13 31 -21 34 -8 3 -14 16 -14 30 0 14 -4 27 -10 31 -5 3 -7 12 -3 20 3 8 1 15 -5 15 -5 0 -15 14 -22 30 -7 17 -20 35 -29 40 -14 8 -13 9 4 10 18 1 17 3 -7 25 -16 13 -28 31 -28 40 0 8 -4 15 -10 15 -10 0 -32 69 -24 81 2 4 -3 12 -12 17 -11 6 -13 11 -5 16 17 11 13 26 -5 19 -14 -5 -16 -2 -11 19 5 17 2 30 -8 38 -9 8 -13 21 -9 36 5 19 3 23 -10 18 -13 -5 -16 1 -16 31 0 20 -5 45 -10 55 -10 19 -15 53 -26 190 -6 78 -6 75 2 170 3 41 6 85 6 98 0 12 4 22 8 22 5 0 16 24 24 53 8 28 24 70 36 92 11 21 20 44 20 51 0 22 310 325 366 357 8 5 24 5 35 2 11 -4 27 -1 35 5 11 10 28 10 76 0 77 -15 114 -33 121 -59 6 -25 -24 -87 -41 -83 -7 1 -12 -4 -12 -12 0 -7 -3 -28 -6 -45 -6 -29 -5 -31 22 -28 43 5 64 17 64 37 0 9 12 29 26 44 43 42 60 39 141 -27 35 -28 63 -55 64 -61 4 -42 2 -53 -11 -68 -8 -10 -20 -18 -26 -18 -7 0 -14 -6 -17 -14 -3 -8 -16 -13 -31 -12 -28 3 -37 -11 -29 -43 7 -27 40 -27 73 -1 14 11 33 20 42 20 9 0 21 7 26 15 14 26 42 6 67 -49 52 -117 63 -146 70 -184 4 -23 4 -51 0 -62 -6 -19 -13 -21 -67 -19 -46 2 -62 -1 -69 -13 -14 -26 11 -36 94 -40 l77 -3 25 -58 c14 -32 25 -67 25 -77 0 -10 5 -22 10 -25 14 -9 12 -44 -2 -58 -17 -16 -112 -14 -132 2 -12 10 -16 8 -21 -10 -11 -32 16 -52 72 -54 27 -1 55 -5 62 -9 7 -4 22 -5 34 -2 28 7 37 0 61 -44 11 -19 30 -48 43 -63 29 -36 29 -45 -2 -59 -28 -13 -34 -48 -11 -68 9 -7 47 -11 99 -11 63 0 88 -3 97 -14 17 -20 81 -36 116 -29 37 7 71 51 57 73 -15 24 -73 50 -113 50 -19 1 -62 15 -96 32 -51 27 -64 39 -81 78 l-20 46 28 51 c16 28 29 55 29 61 0 18 -43 23 -60 8 -9 -8 -21 -15 -27 -15 -21 0 -55 40 -55 65 0 14 -4 25 -8 25 -12 0 -18 49 -6 53 7 2 4 10 -7 21 -19 19 -23 66 -7 82 14 14 2 44 -17 44 -22 0 -44 27 -46 57 -1 16 -6 31 -12 35 -5 4 -10 11 -11 15 0 4 -6 21 -12 36 -7 15 -11 31 -11 35 4 22 -3 41 -23 62 -31 33 -50 70 -52 103 -2 19 -15 40 -38 60 -20 18 -39 41 -43 52 -5 13 -9 16 -12 7 -3 -8 -25 7 -59 43 -50 52 -54 59 -48 91 4 22 2 40 -6 49 -11 14 -15 14 -32 -2 -25 -22 -97 -22 -113 0 -6 9 -23 21 -36 27 -115 52 -104 79 47 120 44 12 113 31 154 42 62 17 114 25 225 36 6 1 21 -5 35 -13z"
       id="path4" />
    <path
       d="M2631 4232 c-71 -78 -78 -86 -89 -107 -20 -40 -34 -157 -21 -185 4 -8 11 -26 17 -40 23 -60 56 -121 82 -152 31 -37 134 -112 171 -123 13 -4 33 -14 44 -21 21 -15 94 -17 160 -6 34 6 43 14 62 49 12 23 31 74 43 115 13 40 29 85 36 100 8 14 14 35 14 46 0 12 5 24 10 27 15 9 12 58 -5 82 -10 14 -12 24 -5 28 15 9 12 25 -5 25 -10 0 -15 10 -15 31 0 22 -5 32 -20 36 -11 3 -20 11 -20 17 0 7 -11 19 -25 26 -14 7 -25 17 -25 22 0 5 -4 7 -9 3 -5 -3 -12 4 -16 14 -3 11 -12 18 -19 15 -7 -3 -31 4 -53 16 -31 16 -64 22 -142 25 -67 2 -101 0 -101 -7 0 -7 -4 -7 -13 0 -9 8 -23 -1 -56 -36z m154 -12 c4 -6 23 -9 43 -7 70 7 139 -20 204 -82 55 -51 72 -102 58 -176 -23 -134 -25 -140 -42 -137 -12 2 -14 -4 -10 -24 3 -18 0 -30 -12 -36 -9 -5 -16 -17 -16 -26 0 -22 -19 -42 -40 -42 -8 0 -23 -9 -33 -20 -24 -28 -49 -25 -126 15 -72 38 -121 76 -121 94 0 6 -4 11 -10 11 -5 0 -10 8 -10 17 0 9 -3 13 -7 10 -8 -9 -32 24 -33 46 0 10 -6 20 -13 23 -9 3 -12 20 -11 49 2 27 -1 45 -8 45 -7 0 -8 15 -4 43 7 46 27 97 37 97 4 0 10 11 13 25 4 14 17 30 29 35 12 6 29 14 37 18 63 36 66 37 75 22z"
       id="path6" />
    <path
       d="M1308 4244 c-12 -7 -27 -10 -34 -7 -7 2 -15 0 -19 -6 -3 -7 0 -8 10 -5 11 5 14 2 9 -10 -4 -10 -12 -15 -20 -12 -7 3 -18 -2 -24 -10 -7 -8 -18 -14 -25 -14 -6 0 -22 -20 -35 -45 -13 -25 -27 -45 -32 -45 -4 0 -8 -7 -8 -16 0 -8 -4 -13 -8 -10 -5 3 -16 -25 -25 -63 -12 -52 -14 -77 -5 -111 5 -25 11 -52 12 -60 8 -54 21 -98 37 -119 11 -13 19 -30 19 -37 0 -20 55 -105 87 -135 48 -45 121 -73 201 -77 63 -4 79 -1 126 22 29 14 59 26 67 26 8 0 36 15 63 33 88 58 136 174 138 335 1 58 -22 130 -44 140 -5 2 -8 9 -8 16 0 14 -46 64 -84 91 -16 11 -42 32 -59 48 -18 15 -37 27 -44 27 -6 0 -19 8 -29 17 -13 13 -18 15 -22 5 -3 -10 -7 -10 -19 0 -24 20 -198 37 -225 22z m202 -87 c19 -6 40 -11 45 -12 26 -3 64 -26 88 -54 14 -17 28 -31 31 -31 16 0 77 -80 86 -113 41 -146 -72 -357 -192 -357 -22 0 -41 -7 -53 -20 -23 -25 -45 -25 -96 -1 -22 11 -46 18 -52 15 -30 -11 -140 149 -161 232 -18 70 -18 153 -1 206 18 54 86 135 104 124 5 -4 11 -2 13 4 4 14 86 29 123 23 17 -2 46 -9 65 -16z"
       id="path8" />
    <path
       d="M1360 3980 c-15 -28 4 -111 31 -136 22 -20 93 -24 110 -7 6 6 12 34 12 62 1 67 -22 92 -91 99 -44 4 -51 2 -62 -18z"
       id="path10" />
    <path
       d="M2247 3569 c3 -19 11 -46 19 -62 9 -15 17 -43 19 -61 3 -18 7 -55 11 -82 10 -80 13 -663 3 -696 -7 -27 -5 -34 25 -62 18 -17 40 -36 47 -41 21 -16 118 -45 148 -45 43 0 141 22 141 31 0 5 4 9 10 9 5 0 26 12 47 26 50 33 55 73 12 98 -27 16 -29 16 -41 -4 -7 -11 -20 -20 -28 -20 -8 0 -20 -10 -25 -22 -16 -36 -73 -50 -142 -35 -104 24 -113 60 -117 485 -2 161 -6 295 -10 299 -3 3 -6 30 -6 59 0 29 -4 56 -10 59 -5 3 -10 16 -10 29 0 33 -21 54 -62 61 l-37 7 6 -33z"
       id="path12" />
    <path
       d="M3295 2023 c-11 -2 -27 -7 -35 -10 -8 -3 -19 -5 -24 -4 -4 1 -20 -6 -35 -16 -14 -10 -28 -18 -31 -18 -3 -1 -23 -9 -45 -19 -22 -10 -50 -18 -63 -18 -13 0 -26 -7 -29 -14 -3 -8 -16 -14 -28 -14 -15 0 -26 -8 -30 -19 -4 -12 -12 -18 -21 -14 -7 3 -14 1 -14 -3 0 -5 -12 -15 -27 -21 -89 -39 -274 -50 -330 -20 -22 12 -33 14 -33 6 0 -8 -6 -8 -17 2 -10 8 -36 21 -58 28 -44 15 -115 59 -115 72 0 5 -13 9 -30 9 -18 0 -29 5 -27 12 4 19 -83 40 -173 43 -70 1 -88 -2 -104 -17 -11 -10 -26 -16 -33 -13 -8 2 -18 -6 -23 -20 -5 -14 -16 -25 -25 -25 -8 0 -15 -6 -15 -14 0 -8 -7 -16 -15 -20 -8 -3 -15 -12 -15 -21 0 -8 -4 -15 -8 -15 -5 0 -15 -11 -22 -25 -8 -14 -19 -24 -26 -21 -14 5 -25 -43 -27 -129 -1 -52 4 -71 40 -145 40 -82 74 -172 126 -332 42 -129 115 -218 179 -218 15 0 28 -5 30 -11 2 -5 27 -11 56 -12 28 -1 52 -5 52 -8 0 -4 17 -9 38 -11 49 -6 242 -56 264 -68 10 -6 27 -10 38 -10 11 0 20 -4 20 -10 0 -5 9 -10 20 -10 11 0 37 -9 60 -21 48 -25 215 -50 291 -44 30 2 92 7 139 10 47 3 134 10 193 15 104 9 110 8 139 -13 21 -15 44 -22 77 -22 35 0 59 -8 90 -28 24 -16 49 -26 60 -22 9 3 44 -4 77 -15 91 -30 154 -27 238 15 39 19 92 43 117 55 26 11 53 28 62 38 23 27 76 135 70 145 -3 5 -7 29 -10 55 -5 49 -35 96 -102 160 -19 17 -29 32 -22 32 6 0 4 8 -6 19 -9 11 -20 18 -23 16 -4 -2 -13 7 -20 20 -7 14 -19 25 -26 25 -7 0 -15 9 -19 19 -3 11 -17 27 -31 36 -13 9 -22 21 -18 26 3 6 -3 17 -15 25 -12 8 -21 21 -21 28 0 7 -9 21 -20 31 -11 10 -20 24 -20 32 0 7 -4 13 -9 13 -5 0 -12 9 -16 19 -3 11 -23 37 -44 58 -21 21 -36 44 -34 51 3 6 -3 12 -13 12 -9 0 -14 3 -11 6 4 4 -7 24 -23 44 -17 21 -30 42 -30 47 0 22 -37 79 -49 75 -8 -3 -11 0 -7 6 4 6 -5 29 -19 51 -14 23 -25 45 -25 51 0 5 -5 10 -10 10 -6 0 -24 14 -42 30 -19 18 -42 30 -58 30 -15 0 -30 3 -34 7 -10 10 -43 15 -116 17 -36 1 -70 4 -75 7 -6 3 -19 4 -30 2z m234 -97 c36 -19 103 -97 134 -156 13 -25 34 -63 47 -85 13 -22 31 -54 40 -71 9 -16 26 -44 38 -61 28 -39 28 -49 -2 -68 -13 -9 -27 -27 -30 -40 -8 -30 -57 -102 -92 -135 -39 -36 -139 -41 -203 -10 -51 25 -101 67 -101 85 0 7 -9 20 -20 30 -11 10 -22 33 -26 51 -3 18 -17 45 -31 60 -13 14 -22 29 -19 32 3 3 2 10 -2 16 -14 19 -40 99 -46 141 -9 72 -19 110 -30 117 -18 12 7 60 41 79 18 10 47 22 65 27 51 13 203 5 237 -12z m-1294 -2 c38 -8 91 -39 133 -78 17 -16 32 -26 32 -22 0 5 15 -3 34 -18 19 -14 40 -26 46 -26 17 0 26 -39 29 -115 1 -38 4 -77 7 -87 3 -9 -3 -22 -14 -30 -10 -7 -26 -24 -35 -38 -9 -13 -17 -20 -17 -15 0 5 -22 -13 -49 -39 -43 -42 -56 -49 -98 -53 -38 -4 -53 -1 -71 15 -25 22 -63 72 -88 117 -9 17 -23 34 -30 38 -8 4 -14 15 -14 22 0 8 -4 15 -10 15 -5 0 -10 6 -10 14 0 14 -31 54 -87 113 -45 46 -43 78 7 136 55 62 114 75 235 51z m848 -162 c28 -92 21 -185 -17 -224 -12 -13 -44 -41 -71 -63 -26 -22 -53 -45 -59 -50 -6 -6 -35 -21 -64 -33 -45 -19 -56 -21 -70 -10 -27 20 -61 62 -62 75 0 6 -15 37 -33 70 -38 68 -64 137 -66 176 -1 33 37 54 69 37 10 -5 25 -8 32 -5 7 2 36 6 63 9 68 6 92 13 161 46 87 43 96 41 117 -28z m-1073 -255 c0 -5 17 -30 38 -56 39 -48 53 -74 70 -128 9 -27 7 -34 -12 -52 -28 -26 -38 -17 -56 48 -6 24 -20 60 -31 80 -10 20 -19 43 -19 53 0 9 -4 20 -10 23 -5 3 -10 14 -10 23 0 9 -7 30 -15 46 -8 15 -15 31 -15 35 1 9 60 -62 60 -72z m1893 -111 c9 -7 17 -17 17 -22 0 -5 12 -23 28 -39 15 -16 27 -32 27 -36 0 -3 35 -44 77 -90 150 -164 167 -190 149 -240 -5 -15 -7 -30 -4 -33 4 -3 -5 -6 -20 -6 -18 0 -42 17 -83 60 -51 54 -121 100 -152 100 -6 0 -30 19 -53 42 -39 39 -55 68 -65 113 -6 26 15 105 33 126 7 8 13 21 13 27 0 15 11 15 33 -2z m-977 -131 c4 -8 12 -15 19 -15 7 0 25 -18 41 -41 15 -22 36 -46 45 -53 31 -22 67 -120 69 -188 2 -97 3 -94 -30 -92 -16 1 -30 -1 -30 -6 0 -4 -24 -3 -52 2 -29 5 -78 10 -108 12 -60 4 -146 40 -164 68 -7 12 -7 27 2 51 7 18 12 50 12 70 0 20 5 39 10 42 6 3 10 15 10 26 0 10 5 19 10 19 6 0 10 6 10 13 0 15 58 74 92 92 32 18 58 18 64 0z m-491 -10 c11 -2 22 -4 25 -5 3 -1 10 -3 15 -4 44 -9 102 -56 91 -75 -3 -5 -1 -11 5 -13 11 -4 28 -72 29 -116 0 -15 -4 -21 -12 -16 -7 5 -9 2 -5 -8 8 -21 -26 -29 -80 -19 -24 5 -43 7 -43 4 0 -2 -8 1 -18 6 -10 5 -45 12 -78 15 -70 7 -95 14 -150 43 -57 30 -68 46 -52 72 7 12 20 23 29 26 9 3 22 17 30 31 19 37 59 62 105 67 36 4 52 3 109 -8z m901 -21 c6 -7 19 -14 28 -14 9 0 16 -4 16 -10 0 -5 6 -10 13 -10 19 0 77 -59 78 -79 1 -24 6 -43 21 -81 8 -19 14 -51 13 -69 -2 -32 -6 -36 -43 -49 -23 -7 -42 -19 -42 -25 0 -8 -3 -7 -9 2 -7 11 -15 11 -44 2 -39 -13 -102 -10 -118 6 -7 7 -12 64 -12 139 -2 109 1 136 18 172 17 38 22 42 45 37 14 -3 30 -13 36 -21z m462 -203 c9 -6 28 -12 42 -15 14 -3 39 -18 56 -33 17 -15 53 -47 81 -71 53 -45 60 -65 33 -92 -25 -25 -150 -51 -150 -31 0 3 -20 12 -44 20 -24 7 -53 21 -63 31 -11 10 -33 25 -50 33 -65 34 -80 101 -31 142 31 26 92 34 126 16z"
       id="path14" />
  </g>
  <path
     style="fill:#ffffff;stroke-width:0"
     d="m 339.90723,747.15601 c -6.26451,-0.80852 -16.36586,-4.0554 -23.30723,-7.49164 -2.82333,-1.39765 -6.73001,-3.05863 -8.68152,-3.69106 -1.95151,-0.63244 -6.13215,-3.22365 -9.29033,-5.75825 -3.15817,-2.53461 -6.81148,-4.85998 -8.11848,-5.16751 -1.30698,-0.30752 -4.47634,-2.13138 -7.043,-4.05301 -2.56667,-1.92163 -5.61167,-3.9813 -6.76667,-4.57705 -1.155,-0.59574 -2.1,-1.69838 -2.1,-2.45032 0,-0.75194 -0.57086,-1.36717 -1.2686,-1.36717 -0.69773,0 -3.17717,-1.68 -5.50988,-3.73333 -2.33271,-2.05334 -4.62864,-3.73334 -5.10205,-3.73334 -0.47342,0 -1.84717,-1.05 -3.0528,-2.33333 -1.20564,-1.28333 -2.57982,-2.33333 -3.05376,-2.33333 -2.6864,0 -28.67958,-25.33855 -28.67958,-27.95728 0,-0.41709 -0.84,-0.97801 -1.86666,-1.24649 -1.10752,-0.28962 -1.86667,-1.27308 -1.86667,-2.41822 0,-1.2053 -1.06323,-2.47989 -2.83137,-3.39423 -1.86219,-0.96298 -3.02031,-2.40885 -3.38333,-4.22397 -0.30359,-1.5179 -1.14265,-2.75981 -1.86459,-2.75981 -0.72195,0 -1.58277,-0.735 -1.91295,-1.63334 -0.33018,-0.89833 -1.12405,-1.95077 -1.76417,-2.33873 -0.6401,-0.38798 -1.85264,-2.77922 -2.69451,-5.31386 -0.84188,-2.53466 -2.30876,-5.59762 -3.25974,-6.80661 -0.95099,-1.20897 -1.87013,-3.43774 -2.04254,-4.9528 -0.21722,-1.90891 -0.88658,-2.83756 -2.18013,-3.02468 -1.62117,-0.2345 -1.88313,-1.03238 -1.99185,-6.06666 -0.0689,-3.18816 -0.87977,-8.94666 -1.80205,-12.79666 -3.28787,-13.72501 -2.73011,-45.96323 0.9797,-56.62669 1.63952,-4.71263 2.90549,-20.6974 4.20068,-53.03997 1.33374,-33.30505 1.26323,-41.97553 -0.35229,-43.31629 -1.65592,-1.3743 -2.5177,-4.58861 -1.41324,-5.2712 1.14951,-0.71044 1.07691,-4.14585 -0.0876,-4.14585 -0.51333,0 -0.93333,-0.44999 -0.93333,-1 0,-0.54999 -0.63,-1.63 -1.4,-2.4 -0.77,-0.77 -1.4,-2.15857 -1.4,-3.08571 0,-0.92715 -0.62538,-2.20474 -1.38973,-2.83909 -0.76434,-0.63436 -1.16689,-1.51392 -0.89454,-1.95459 0.27235,-0.44067 -0.18848,-1.84461 -1.02406,-3.11987 -0.83558,-1.27526 -1.26862,-2.72416 -0.96232,-3.21977 0.74413,-1.20401 -4.46286,-17.12343 -6.88005,-21.03453 C 185.86219,412.77471 185,410.28902 185,408.95601 c 0,-1.46173 -0.73476,-2.81691 -1.8513,-3.41445 -1.01822,-0.54494 -1.75679,-1.71471 -1.64127,-2.59951 0.25316,-1.9391 -3.43672,-8.72762 -10.96566,-20.17425 -6.17725,-9.3916 -7.89827,-12.30107 -10.55731,-17.84768 -0.98785,-2.06061 -2.47885,-4.3132 -3.31333,-5.00576 -0.83448,-0.69256 -1.30766,-1.59831 -1.0515,-2.0128 0.25617,-0.41447 -1.85221,-3.83188 -4.68527,-7.59424 -2.83306,-3.76236 -5.85998,-8.73065 -6.72649,-11.04065 -0.86651,-2.31 -2.12276,-4.53587 -2.79167,-4.94638 -0.66891,-0.41051 -1.2162,-1.29886 -1.2162,-1.97413 0,-0.67527 -0.77278,-2.2294 -1.71729,-3.45362 -0.94451,-1.22423 -2.20265,-3.64821 -2.79586,-5.38663 -0.59322,-1.7384 -1.73353,-3.63965 -2.53402,-4.22499 -1.51871,-1.11051 -3.40694,-6.96387 -3.41328,-10.58092 -0.002,-1.155 -0.36847,-2.1 -0.81432,-2.1 -0.44584,0 -1.50054,-1.365 -2.34377,-3.03333 -0.84323,-1.66834 -2.39723,-3.97834 -3.45333,-5.13334 -1.66552,-1.82149 -1.71294,-2.1 -0.35749,-2.1 2.33821,0 1.91501,-1.15901 -1.70397,-4.66666 -1.79667,-1.7414 -3.26667,-3.71379 -3.26667,-4.3831 0,-0.6693 -0.82332,-2.04022 -1.8296,-3.04651 -1.07132,-1.07131 -2.08937,-3.78777 -2.45636,-6.55427 -0.34471,-2.59858 -0.99293,-4.951 -1.44049,-5.2276 -0.44755,-0.27661 -0.55666,-1.52718 -0.24246,-2.77906 0.47514,-1.89313 0.22767,-2.27613 -1.47073,-2.27613 -1.74556,0 -1.95959,-0.37525 -1.47429,-2.58483 0.35811,-1.63043 0.0518,-3.26735 -0.82949,-4.43333 -0.76847,-1.01668 -1.41057,-3.16453 -1.4269,-4.77299 -0.0216,-2.12493 -0.54002,-3.05793 -1.89635,-3.41262 -1.45571,-0.38068 -1.86889,-1.27791 -1.87677,-4.07552 -0.006,-1.97306 -0.60894,-5.56071 -1.34087,-7.97257 -0.73192,-2.41185 -1.833194,-9.55185 -2.447276,-15.86667 -1.387358,-14.26664 -0.486861,-44.29371 1.393356,-46.4614 0.67745,-0.78104 1.97752,-3.73007 2.88903,-6.5534 0.9115,-2.82334 3.28621,-8.85159 5.27712,-13.39613 4.25521,-9.71312 10.1049,-16.5857 29.84981,-35.06944 18.87549,-17.66985 20.38489,-18.79594 25.69029,-19.16625 2.47425,-0.17271 5.6372,-0.61201 7.02877,-0.97625 3.44772,-0.90241 15.72608,1.93633 19.56506,4.52342 4.82527,3.25175 4.72377,8.18747 -0.2642,12.84692 -2.08236,1.94521 -2.99564,3.8731 -3.58032,7.55786 -0.48776,3.0739 -0.44208,5.16084 0.12064,5.51263 0.94482,0.59065 8.61493,-0.58447 10.19705,-1.56228 0.50066,-0.30942 1.56882,-2.20843 2.3737,-4.22001 1.72216,-4.30409 6.12396,-8.31714 9.12286,-8.31714 2.26408,0 7.29708,3.32533 15.23509,10.06591 4.47432,3.79938 4.9,4.50172 4.9,8.08477 0,2.89487 -0.56651,4.45614 -2.16016,5.95329 -1.18808,1.11615 -2.61314,2.02936 -3.16681,2.02936 -0.55366,0 -1.2484,0.63 -1.54389,1.4 -0.29715,0.77438 -1.69728,1.40639 -3.13319,1.4143 -1.42777,0.008 -3.18601,0.38785 -3.90718,0.84442 -1.30687,0.82738 -1.67371,5.73188 -0.56314,7.52883 1.04292,1.68747 6.44825,0.94467 10.27437,-1.41189 2.05333,-1.26469 4.33626,-2.30158 5.07318,-2.30421 0.73691,-0.003 2.35254,-0.94978 3.59029,-2.10478 l 2.25044,-2.1 2.51967,3.00378 c 3.84201,4.58017 12.36364,25.75701 12.85265,31.93973 0.58354,7.37787 -0.0222,7.90692 -9.68285,8.45649 -8.0733,0.45927 -8.20798,0.50643 -8.49298,2.97393 -0.25373,2.19676 0.15082,2.62956 3.26667,3.49479 1.95594,0.54314 7.0476,0.98988 11.3148,0.99274 l 7.75853,0.006 2.63925,5.83333 c 1.45159,3.20834 3.14457,7.72334 3.76217,10.03334 0.61761,2.31 1.5036,4.92929 1.96888,5.82066 1.48611,2.84704 0.96442,6.1836 -1.14321,7.31157 -1.7693,0.94689 -7.16632,0.86365 -16.67749,-0.25725 -2.01081,-0.23698 -2.37317,0.13635 -2.62152,2.70089 -0.22066,2.27864 0.2167,3.29611 1.86666,4.34262 2.15811,1.3688 14.8797,3.41484 21.23234,3.41484 3.25015,0 3.62397,0.36618 9.68169,9.48381 l 6.30102,9.48382 -3.29677,2.71746 c -3.52598,2.90642 -4.17664,5.68816 -2.02025,8.6372 1.08084,1.47813 3.04798,1.83771 12.83334,2.3458 10.11941,0.52544 12.12552,0.91093 16.12916,3.09932 3.57709,1.95524 5.84113,2.49926 10.40129,2.49926 5.1442,0 6.16949,-0.3181 8.72766,-2.7078 3.76258,-3.51477 3.78073,-6.65077 0.0566,-9.78438 -2.83904,-2.38889 -5.39069,-3.28512 -14.70558,-5.16507 -6.13127,-1.23743 -14.61805,-5.31871 -17.9143,-8.61496 -1.36573,-1.36573 -3.21649,-4.40337 -4.11279,-6.75032 l -1.62965,-4.26718 3.81144,-7.61503 c 2.94173,-5.8774 3.57028,-7.90563 2.75459,-8.88849 -1.39993,-1.6868 -4.93048,-1.61329 -8.38797,0.17465 -1.54016,0.79644 -3.59845,1.19476 -4.57398,0.88515 -2.01223,-0.63905 -5.5997,-5.96261 -5.5997,-8.30997 0,-0.8558 -0.7053,-2.63243 -1.56733,-3.94806 -1.28089,-1.95487 -1.35846,-2.72651 -0.42448,-4.22206 0.94823,-1.51835 0.81777,-2.35602 -0.76599,-4.9186 -2.07502,-3.35744 -2.50638,-7.9641 -0.89652,-9.57396 1.91046,-1.91046 0.53363,-5.34883 -2.7637,-6.90185 -3.47019,-1.63443 -5.63132,-4.77305 -5.68224,-8.25231 -0.0182,-1.24291 -0.5919,-2.92291 -1.2749,-3.73333 -1.67042,-1.98204 -4.35817,-9.42337 -4.35817,-12.06606 0,-2.5806 -1.09556,-4.71441 -5.1428,-10.01658 -2.90343,-3.80371 -4.21289,-6.82022 -5.506,-12.68386 -0.30239,-1.37116 -2.6496,-4.73116 -5.21602,-7.46667 -2.56643,-2.73551 -4.91062,-5.72621 -5.20932,-6.64599 -0.3544,-1.09134 -1.11935,-1.48944 -2.20181,-1.14588 -1.19953,0.38072 -3.39549,-1.3146 -7.9324,-6.12396 l -6.27367,-6.65042 0.60372,-4.38953 c 0.48736,-3.54349 0.25735,-4.81728 -1.19337,-6.60884 l -1.79709,-2.219303 -2.59149,2.038463 c -3.74332,2.9445 -11.48456,2.85754 -15.10147,-0.169631 -1.45106,-1.214455 -4.76467,-3.281691 -7.36357,-4.593859 -8.3279,-4.204678 -8.90263,-6.960742 -2.0612,-9.884222 7.52567,-3.215874 39.45825,-11.333841 50.48704,-12.834923 10.20415,-1.388845 11.29202,-1.386409 14.46667,0.03239 1.88803,0.843793 5.85385,1.922912 8.81296,2.398042 2.95909,0.47513 5.78905,1.116572 6.28879,1.425428 0.49973,0.308855 3.21902,1.163338 6.04284,1.89885 15.4226,4.017078 46.04848,24.279135 56.64342,37.475235 2.39538,2.98347 6.71649,8.36449 9.60247,11.95783 7.53454,9.38125 17.17895,21.9073 25.15164,32.66666 7.05414,9.51975 30.8728,36.17631 45.89038,51.35803 8.8193,8.9157 22.06467,19.88354 32.13361,26.60826 5.43368,3.62899 11.69155,8.12602 35.46667,25.48706 16.117,11.76894 51.52829,47.56905 58.33333,58.97384 1.02667,1.72062 3.89052,6.09668 6.3641,9.72458 8.74312,12.8231 14.21416,27.40994 22.16427,59.09414 7.54892,30.08532 7.88276,33.25949 7.63097,72.55409 -0.23944,37.3659 0.84877,67.94954 3.04781,85.65728 1.87414,15.09149 2.73909,19.09457 7.00276,32.40939 6.14972,19.20469 10.23968,32.97715 15.10569,50.86667 4.49315,16.51875 4.71724,17.91116 5.17323,32.14565 0.43676,13.63407 0.31828,15.19589 -1.41601,18.66667 -1.04095,2.08322 -2.36489,6.90875 -2.94208,10.7234 -0.57719,3.81464 -1.50472,7.4843 -2.06117,8.15477 -0.55646,0.67049 -0.75164,1.89686 -0.43374,2.72529 0.77451,2.01834 -3.90288,10.46173 -6.19923,11.19057 -1.00149,0.31786 -2.51442,1.19254 -3.36207,1.94375 -5.21444,4.62107 -16.13385,11.56579 -19.72229,12.5433 -2.32039,0.6321 -5.04736,1.70968 -6.05992,2.3946 -1.01254,0.68494 -2.95625,1.24533 -4.31934,1.24533 -1.3631,0 -3.89464,0.5834 -5.62567,1.29645 -1.73101,0.71304 -5.45731,1.57838 -8.28064,1.92296 -2.82334,0.34458 -6.18334,1.01024 -7.46667,1.47924 -6.18685,2.26101 -50.26336,3.84085 -77,2.75991 -5.13333,-0.20754 -12.61807,0.14484 -16.63276,0.78307 -4.01467,0.63822 -14.93467,1.55446 -24.26666,2.03608 -9.33198,0.48161 -20.74725,1.26958 -25.36725,1.75103 -9.75449,1.01654 -47.06257,1.10346 -54.6261,0.12727 z m 194.37146,-38.64752 c 3.22006,-1.22366 10.77388,-4.59101 16.78627,-7.483 11.45271,-5.50881 13.41634,-7.23498 17.52013,-15.4014 4.13199,-8.22253 4.55823,-10.39093 3.32789,-16.93013 -1.57582,-8.37538 -3.74104,-12.45107 -10.36948,-19.51893 -3.15073,-3.35959 -6.00692,-7.25124 -6.34707,-8.64809 -0.34016,-1.39685 -1.55851,-3.03104 -2.70745,-3.63154 -2.98551,-1.56039 -16.52587,-15.96336 -16.54208,-17.59591 -0.007,-0.75195 -0.86514,-2.22195 -1.90595,-3.26666 -2.61131,-2.62114 -6.29918,-7.92094 -7.65399,-10.9995 -0.62125,-1.41166 -1.44667,-2.56666 -1.83428,-2.56666 -0.38761,0 -1.35399,-1.25551 -2.14752,-2.79003 -0.79353,-1.53451 -3.2872,-4.86674 -5.54149,-7.40495 -2.25429,-2.5382 -4.37412,-5.48269 -4.71075,-6.5433 -0.33662,-1.06061 -1.21374,-1.92839 -1.94915,-1.92839 -0.7354,0 -1.3371,-0.56698 -1.3371,-1.25996 0,-0.69298 -1.29274,-3.04455 -2.87276,-5.22569 -1.58002,-2.18115 -3.70831,-5.91917 -4.72952,-8.3067 -1.02123,-2.38754 -2.74362,-5.28803 -3.82755,-6.44553 -1.08392,-1.15751 -3.68063,-5.42374 -5.77047,-9.48052 -3.01435,-5.85145 -4.86071,-8.17201 -8.93304,-11.22737 -2.82333,-2.11827 -6.18333,-4.08431 -7.46666,-4.36897 -1.28334,-0.28468 -4.22334,-1.09283 -6.53334,-1.7959 -2.31,-0.70307 -9.99619,-1.72631 -17.08043,-2.27386 -14.93657,-1.15447 -16.58537,-0.85948 -29.23625,5.23068 -4.68419,2.25497 -10.47433,4.46568 -12.86697,4.91267 -2.39266,0.447 -5.10322,1.49412 -6.02347,2.32694 -0.92026,0.83281 -2.3779,1.51421 -3.2392,1.51421 -0.86131,0 -2.47898,1.05 -3.59483,2.33333 -1.11585,1.28334 -2.61306,2.33334 -3.32716,2.33334 -0.7141,0 -1.91734,0.61898 -2.67388,1.37552 -5.57445,5.57445 -37.94041,8.58662 -45.98761,4.27989 -1.12393,-0.60152 -2.80335,-0.96506 -3.73203,-0.80787 -0.92869,0.15719 -2.69719,-0.21488 -3.93001,-0.8268 -1.23282,-0.61192 -5.39995,-2.53499 -9.26029,-4.27348 -3.86033,-1.73848 -8.56144,-4.51536 -10.44689,-6.17081 -1.88546,-1.65545 -4.922,-3.25234 -6.74788,-3.54863 -1.87065,-0.30357 -3.31976,-1.08075 -3.31976,-1.78045 0,-2.32644 -9.29443,-4.336 -22.25438,-4.81163 -11.61453,-0.42626 -12.63474,-0.32374 -15.12888,1.52025 C 268.41244,538.1102 266.3627,539 265.32843,539 c -1.14545,0 -2.44646,1.09445 -3.32843,2.8 -0.79637,1.54 -2.07754,2.8 -2.84707,2.8 -0.76952,0 -1.77656,0.99272 -2.23787,2.20605 -0.4613,1.21331 -1.5009,2.46013 -2.31023,2.7707 -0.80932,0.31056 -1.4715,1.13204 -1.4715,1.82549 0,0.69345 -2.27919,3.67108 -5.06486,6.61694 -4.7787,5.0535 -5.10181,5.70108 -5.71873,11.46183 -1.17813,11.0012 -0.14245,17.63399 4.20324,26.91899 5.39772,11.53275 8.54201,19.53156 14.61124,37.16967 2.85717,8.30335 6.67197,17.91466 8.47735,21.35849 4.12598,7.87044 10.77072,14.24829 16.28161,15.62766 2.24225,0.56124 4.85437,1.46091 5.80471,1.99926 0.95034,0.53836 4.52034,1.34264 7.93333,1.78728 13.21636,1.72181 46.21734,10.27832 55.67211,14.43468 21.43011,9.42077 35.33483,10.9785 71.76004,8.0392 31.08506,-2.50838 35.38343,-2.50759 39.45267,0.007 1.83143,1.13188 5.98486,2.31082 9.85156,2.79634 4.32467,0.54303 8.59415,1.83294 12.09155,3.65314 2.97351,1.54754 7.39315,3.01474 9.82142,3.26045 2.42828,0.24571 6.32178,1.05427 8.65224,1.79679 10.00386,3.18739 19.23865,3.24763 27.31588,0.17817 z M 346.27268,465.65446 c 3.95669,-0.81337 7.82399,-2.00231 8.59399,-2.64208 0.77,-0.63977 3.37563,-2.29063 5.7903,-3.66859 7.8763,-4.4947 9.5237,-9.75352 4.40475,-14.06083 -3.57188,-3.00553 -4.6382,-3.01749 -7.39505,-0.083 -1.20564,1.28333 -2.699,2.33333 -3.31859,2.33333 -0.61959,0 -2.22174,1.4359 -3.56033,3.19088 -3.04542,3.99276 -7.7123,5.60192 -14.28059,4.92401 -6.08169,-0.62769 -11.21416,-3.03992 -13.69592,-6.43702 -3.56705,-4.88269 -4.36094,-12.6655 -5.26464,-51.6112 -0.83688,-36.06588 -2.32858,-60.59602 -3.8027,-62.53333 -0.39061,-0.51334 -0.99937,-2.48088 -1.3528,-4.37232 -0.35344,-1.89145 -1.44077,-4.16131 -2.41628,-5.04414 -1.7694,-1.60127 -10.0888,-4.21324 -11.25792,-3.53453 -0.84267,0.4892 1.67775,10.98876 3.4697,14.45399 3.1419,6.07576 4.21457,22.02755 4.38637,65.23033 0.0908,22.84333 -0.1648,43.27082 -0.5681,45.3944 -0.66237,3.48778 -0.46,4.17232 2.09323,7.08028 4.44833,5.06638 9.85828,8.32606 17.64123,10.62951 8.68443,2.57023 11.22802,2.66317 20.53335,0.75027 z M 211.13333,338.24649 c 14.43454,-5.96774 16.35464,-7.02507 21.0286,-11.57982 8.6262,-8.4062 13.50474,-22.66021 13.50474,-39.45792 0,-9.0282 -1.86782,-17.0099 -4.62596,-19.76804 -0.9477,-0.9477 -1.99082,-2.56659 -2.31802,-3.59753 -1.12553,-3.54623 -19.08621,-19.32215 -25.2391,-22.16898 -1.54931,-0.71684 -3.60593,-1.83678 -4.57026,-2.48877 -1.42147,-0.96107 -1.83612,-0.95724 -2.19076,0.0202 -0.32632,0.89939 -0.75585,0.94135 -1.69107,0.16519 -1.8435,-1.52998 -14.84422,-3.64033 -22.36483,-3.6304 -3.59334,0.005 -8.50799,0.52974 -10.92145,1.16666 -4.64747,1.22652 -6.7646,2.49296 -4.16744,2.49296 0.85555,0 1.55555,0.42 1.55555,0.93333 0,0.51334 -0.75726,0.93334 -1.68279,0.93334 -2.70532,0 -9.17112,5.31668 -12.25045,10.07328 -1.56431,2.41636 -3.37427,5.21565 -4.02214,6.22064 -0.64787,1.00498 -1.68712,2.38415 -2.30944,3.06482 -1.7498,1.91385 -3.16956,7.53175 -3.71701,14.70792 -0.57178,7.49524 2.50435,24.86923 5.37063,30.33334 0.94247,1.79666 2.18978,4.31666 2.77179,5.6 9.29654,20.49878 19.085,28.05456 39.17275,30.23771 5.96806,0.64861 11.59176,-0.33289 18.66666,-3.25789 z m 191.4485,-15.62735 c 1.34668,-0.52236 3.35596,-2.41805 4.46507,-4.21262 1.95328,-3.16047 10.09277,-25.24179 12.76169,-34.62066 0.72216,-2.53778 1.73566,-5.03678 2.25222,-5.55333 1.37921,-1.37922 1.14435,-6.66815 -0.4674,-10.5256 -1.06413,-2.54683 -1.1476,-3.67851 -0.34282,-4.64822 0.83007,-1.00016 0.52393,-1.78208 -1.3934,-3.559 -1.62898,-1.50968 -2.45719,-3.2459 -2.45719,-5.15111 0,-1.87714 -0.56648,-3.0902 -1.63333,-3.49765 -0.89834,-0.34311 -2.91756,-1.90492 -4.48716,-3.47072 -6.57175,-6.5558 -10.54254,-9.62222 -13.09869,-10.11541 -1.49278,-0.28802 -5.23415,-1.43733 -8.31415,-2.55403 -4.53824,-1.6454 -7.81201,-2.05064 -17.26667,-2.13736 -17.24621,-0.15818 -17.06033,-0.21761 -24.47464,7.82547 -10.33416,11.21054 -12.85869,17.1368 -12.85869,30.18533 0,10.0504 8.29199,27.46115 16.96957,35.63113 7.48724,7.04927 19.52059,14.53179 27.83043,17.30539 2.98879,0.99758 19.30322,0.34427 22.51516,-0.90161 z"
     id="path24"
     transform="scale(0.74999999)" />
  <path
     style="fill:#ffffff;stroke-width:0"
     d="m 374.93333,310.5744 c -8.40701,-4.3676 -18.2,-12.80615 -18.2,-15.6828 0,-0.74705 -0.61921,-1.35827 -1.37603,-1.35827 -1.43184,0 -4.22397,-4.52095 -4.22397,-6.83937 0,-0.73263 -0.59229,-1.82363 -1.31621,-2.42442 -2.73502,-2.26987 -3.56573,-21.21543 -1.14892,-26.20287 4.34049,-8.95724 6.18608,-11.02448 13.35525,-14.95915 5.80682,-3.18697 7.44737,-3.71695 9.06645,-2.9289 1.08722,0.52918 5.19932,1.13532 9.138,1.34696 8.76294,0.47089 15.27382,3.37808 22.63719,10.10778 8.97222,8.2001 10.34408,13.7429 7.46926,30.17843 -1.61572,9.23717 -2.59786,11.72154 -4.63386,11.72154 -0.96653,0 -1.36716,1.06473 -1.36716,3.63348 0,2.32364 -0.49097,3.82188 -1.36194,4.1561 -0.74906,0.28745 -1.70906,1.90738 -2.13333,3.59986 -0.58652,2.33972 -1.69165,3.52461 -4.61113,4.9439 -2.11185,1.02666 -4.64992,2.60166 -5.64015,3.5 -2.83931,2.5758 -6.6182,1.90172 -15.65345,-2.79227 z"
     id="path26"
     transform="scale(0.74999999)" />
  <path
     style="fill:#ffffff;stroke-width:0"
     d="m 190.20812,326.62722 c -3.03887,-1.26164 -6.41863,-2.29389 -7.51058,-2.29389 -3.97889,0 -14.80585,-14.3638 -19.93751,-26.45049 -2.20585,-5.19548 -2.4436,-6.91869 -2.46722,-17.88284 -0.0252,-11.68334 0.0748,-12.3156 2.69677,-17.04788 3.71152,-6.69885 8.7075,-12.35212 10.91599,-12.35212 1.00472,0 2.87531,-0.68703 4.15687,-1.52674 4.10129,-2.68726 13.74063,-2.72386 23.33412,-0.0886 4.65478,1.27864 9.69478,2.98215 11.2,3.78559 4.26668,2.27741 16.59777,14.62392 19.39674,19.421 4.98656,8.54632 4.12752,21.27662 -2.30017,34.08686 -4.99222,9.94936 -12.73027,16.29429 -21.19468,17.37888 -2.21918,0.28435 -5.60175,1.60285 -7.51683,2.93 -1.91507,1.32715 -3.87938,2.39525 -4.36512,2.37355 -0.48574,-0.0217 -3.36951,-1.0717 -6.40838,-2.33333 z m 10.62571,-35.83253 c 1.57539,-2.94364 1.20043,-14.24489 -0.55581,-16.75228 -2.11894,-3.0252 -6.84076,-4.77574 -12.88187,-4.77574 -4.11712,0 -5.32131,0.35657 -6.09664,1.80531 -2.45397,4.58527 0.16705,16.34812 4.38135,19.66309 3.38047,2.65908 13.73997,2.69984 15.15297,0.0596 z"
     id="path28"
     transform="scale(0.74999999)" />
  <path
     style="fill:#ffffff;stroke-width:0"
     d="m 463.6,629.47221 c -6.50274,-2.55073 -13.44163,-7.89143 -14.9532,-11.50913 -0.69976,-1.67475 -1.91069,-3.57484 -2.69097,-4.22241 -0.78027,-0.64757 -2.29378,-3.51633 -3.36335,-6.37501 -1.06957,-2.85869 -2.87043,-6.49283 -4.00191,-8.07587 -1.13148,-1.58304 -2.53269,-4.14085 -3.11379,-5.68402 -3.86375,-10.26048 -5.23598,-14.92897 -6.44863,-21.9391 -0.7548,-4.36334 -2.08257,-9.92747 -2.9506,-12.36474 -1.52256,-4.27504 -1.51267,-4.52202 0.28004,-7 1.02205,-1.41273 4.35971,-3.80258 7.41701,-5.31079 5.04623,-2.48937 6.46227,-2.74752 15.35873,-2.8 5.39,-0.0318 12.32,0.2868 15.4,0.70799 5.42198,0.74145 5.82254,0.9954 12.6,7.98827 5.76203,5.94516 8.55134,10.01884 15.77184,23.03421 4.82451,8.69645 9.96951,17.5674 11.43334,19.71322 3.24987,4.76401 3.32745,6.35245 0.40377,8.26812 -1.24174,0.81362 -3.17392,3.42846 -4.29373,5.81076 -2.51719,5.35509 -8.36015,13.9935 -11.32399,16.74174 -5.54234,5.13918 -16.73984,6.46262 -25.52456,3.01676 z"
     id="path30"
     transform="scale(0.74999999)" />
  <path
     style="fill:#ffffff;stroke-width:0"
     d="m 547.40607,671.26907 c -8.64983,-8.08473 -14.68232,-12.37145 -20.09582,-14.2802 -4.6135,-1.62668 -10.1446,-6.65561 -13.42948,-12.21022 -3.29397,-5.56998 -4.0006,-8.78445 -3.04983,-13.8737 0.89713,-4.8021 5.49262,-15.31187 6.71148,-15.349 1.08319,-0.033 4.23004,3.53765 9.52425,10.80692 2.56666,3.52419 8.24363,10.40425 12.61548,15.28904 13.31501,14.87722 15.94602,18.05571 18.38284,22.20794 2.03917,3.47467 2.26062,4.65631 1.70541,9.1 -0.57243,4.58159 -0.86707,5.10682 -2.86482,5.10682 -1.47727,0 -4.6747,-2.288 -9.49951,-6.7976 z"
     id="path32"
     transform="scale(0.74999999)" />
  <path
     style="fill:#ffffff;stroke-width:0"
     d="m 509.33333,694.53972 c -9.09174,-4.0909 -19.79447,-11.37272 -21.46578,-14.60469 -3.38934,-6.55426 -0.0564,-12.77553 8.0183,-14.9668 3.68999,-1.00138 4.89658,-0.8626 11.70325,1.34608 6.62747,2.15053 8.69711,3.41659 16.33334,9.99156 12.76319,10.98942 13.95395,12.94452 10.0813,16.55244 -2.20974,2.05868 -11.33769,4.85354 -15.3983,4.71475 -1.50633,-0.0515 -5.67877,-1.41649 -9.27211,-3.03334 z"
     id="path34"
     transform="scale(0.74999999)" />
  <path
     style="fill:#ffffff;stroke-width:0"
     d="m 434.2,681.82104 c -1.1402,-0.71971 -1.45732,-4.00756 -1.70889,-17.71738 -0.32746,-17.84543 0.66506,-24.09171 4.35939,-27.43503 1.50331,-1.36047 1.90869,-1.33591 4.86145,0.29453 1.77176,0.97833 4.27138,2.32329 5.55472,2.98881 1.28333,0.66552 2.54333,1.47498 2.8,1.7988 0.25666,0.32382 1.76932,1.25592 3.36145,2.07132 3.70287,1.89641 8.77188,7.64782 8.77188,9.95276 0,0.9771 1.07953,5.1234 2.39895,9.214 1.31942,4.09059 2.26442,8.841 2.1,10.55646 -0.2679,2.79506 -0.90108,3.41856 -6.09617,6.00297 -3.18847,1.58617 -6.14541,2.53576 -6.57097,2.11019 -0.42557,-0.42556 -2.22404,-0.35781 -3.99662,0.15056 -4.07721,1.16933 -13.98982,1.17685 -15.83519,0.012 z"
     id="path36"
     transform="scale(0.74999999)" />
  <path
     style="fill:#ffffff;stroke-width:0"
     d="m 370.97059,615.3 c -3.09741,-3.20782 -13.26606,-22.90174 -16.21952,-31.41278 -2.02,-5.82109 -2.266,-10.84379 -0.5844,-11.93214 0.64166,-0.41529 5.36666,-0.80134 10.5,-0.85787 12.51323,-0.13781 19.83542,-1.63997 29.81905,-6.11743 10.89574,-4.88652 12.58755,-4.97669 14.63171,-0.77978 4.04113,8.2969 4.62159,24.04014 1.10824,30.0572 -2.84039,4.86453 -17.7624,17.32867 -24.99934,20.88158 -8.18153,4.01665 -10.50762,4.04296 -14.25574,0.16122 z"
     id="path38"
     transform="scale(0.74999999)" />
  <path
     style="fill:#ffffff;stroke-width:0"
     d="m 393.13333,685.45773 c -18.05742,-2.54107 -25.53805,-4.8763 -29.34558,-9.16083 -1.65463,-1.86192 -1.71552,-2.50764 -0.7,-7.42428 0.61174,-2.96174 1.11484,-6.6197 1.118,-8.1288 0.003,-1.5091 0.63316,-3.94683 1.4,-5.41717 0.76684,-1.47035 1.39425,-3.47853 1.39425,-4.46263 0,-0.9841 0.63,-2.03102 1.4,-2.3265 0.77,-0.29548 1.4,-1.06317 1.4,-1.70597 0,-3.87124 15.10531,-15.58896 17.96394,-13.93527 5.07086,2.93345 16.948,16.19459 20.18198,22.53369 1.09797,2.15221 2.62431,6.32415 3.39186,9.27099 1.44609,5.55193 1.92484,19.46619 0.69555,20.21564 -1.6324,0.99521 -13.29942,1.32925 -18.9,0.54113 z"
     id="path40"
     transform="scale(0.74999999)" />
  <path
     style="fill:#ffffff;stroke-width:0"
     d="m 300.19572,614.67755 c -2.35816,-1.01086 -8.24385,-7.99633 -12.81709,-15.21204 -1.85952,-2.93397 -4.23542,-6.18897 -5.27979,-7.23333 -1.04436,-1.04437 -1.89884,-2.52885 -1.89884,-3.29885 0,-0.77 -0.41436,-1.4 -0.92081,-1.4 -0.50644,0 -1.50212,-1.365 -2.21261,-3.03333 -0.7105,-1.66833 -3.90722,-5.97333 -7.10384,-9.56667 -8.32283,-9.35573 -8.92412,-10.75187 -6.74185,-15.65387 2.18217,-4.90178 8.96988,-11.24761 13.70095,-12.809 2.31053,-0.76254 6.58056,-1.01874 12.13614,-0.72815 10.14038,0.53041 15.85716,2.77463 24.03447,9.43515 2.94132,2.39573 5.57662,4.35587 5.85624,4.35587 0.27962,0 3.42806,1.7415 6.99653,3.87 7.39121,4.40865 7.05363,3.59824 8.30193,19.93 l 0.78473,10.26667 -3.81776,4.2 c -2.09976,2.31 -4.88193,4.88178 -6.1826,5.71507 -1.30067,0.83329 -3.62485,2.85771 -5.16485,4.49871 -1.54,1.641 -4.06463,3.76644 -5.61028,4.7232 -3.28465,2.03319 -11.27275,3.13566 -14.06067,1.94057 z"
     id="path42"
     transform="scale(0.74999999)" />
  <path
     style="fill:#ffffff;stroke-width:0"
     d="M 331.06667,668.75218 C 328.5,668.39377 325.77,667.82927 325,667.49775 c -0.77,-0.33152 -5.79485,-1.25305 -11.16633,-2.04784 -10.28505,-1.52182 -21.16744,-5.80577 -24.71992,-9.73122 -1.50594,-1.66405 -1.58536,-2.2497 -0.56388,-4.15836 0.65391,-1.22184 2.22377,-2.77536 3.48858,-3.45227 1.26481,-0.6769 3.43495,-2.92114 4.82253,-4.9872 5.11727,-7.61944 13.09183,-9.92961 25.95559,-7.51916 11.38386,2.13315 17.72127,5.81801 19.25942,11.1983 0.29351,1.02667 1.14008,3.54667 1.88126,5.6 0.74119,2.05333 1.63476,5.72833 1.98571,8.16667 0.52797,3.66831 0.38663,4.43333 -0.81911,4.43333 -0.80751,0 -1.45718,0.78772 -1.45718,1.76681 0,2.93284 -2.73211,3.36334 -12.6,1.98537 z"
     id="path44"
     transform="scale(0.74999999)" />
  <path
     style="fill:#ffffff;stroke-width:0"
     d="m 275.00674,629.76667 c -0.88788,-2.43834 -2.63704,-6.95334 -3.88702,-10.03334 -1.24999,-3.08 -2.83282,-7.33391 -3.5174,-9.45313 -0.68459,-2.11923 -1.64387,-4.63923 -2.13174,-5.6 -1.34147,-2.6418 -3.01903,-8.10953 -2.61274,-8.51582 0.19729,-0.19729 1.03961,0.61501 1.87181,1.80512 2.16654,3.09829 7.40789,10.73046 11.10043,16.16383 1.74432,2.56667 4.05278,7.04836 5.12991,9.95933 l 1.95843,5.29265 -1.89362,2.40735 c -2.73656,3.47897 -4.19194,2.98901 -6.01806,-2.02599 z"
     id="path46"
     transform="scale(0.74999999)" />
</svg>
