<?xml version="1.0" encoding="UTF-8" standalone="no"?>
<svg
   xmlns:dc="http://purl.org/dc/elements/1.1/"
   xmlns:cc="http://creativecommons.org/ns#"
   xmlns:rdf="http://www.w3.org/1999/02/22-rdf-syntax-ns#"
   xmlns:svg="http://www.w3.org/2000/svg"
   xmlns="http://www.w3.org/2000/svg"
   xmlns:sodipodi="http://sodipodi.sourceforge.net/DTD/sodipodi-0.dtd"
   xmlns:inkscape="http://www.inkscape.org/namespaces/inkscape"
   version="1.0"
   width="568.000000pt"
   height="739.000000pt"
   viewBox="0 0 568.000000 739.000000"
   preserveAspectRatio="xMidYMid meet"
   id="svg16"
   sodipodi:docname="face14.svg"
   inkscape:version="1.0.1 (3bc2e813f5, 2020-09-07)">
  <defs
     id="defs20" />
  <sodipodi:namedview
     pagecolor="#ffffff"
     bordercolor="#666666"
     borderopacity="1"
     objecttolerance="10"
     gridtolerance="10"
     guidetolerance="10"
     inkscape:pageopacity="0"
     inkscape:pageshadow="2"
     inkscape:window-width="1920"
     inkscape:window-height="1027"
     id="namedview18"
     showgrid="false"
     inkscape:zoom="0.87280108"
     inkscape:cx="378.66667"
     inkscape:cy="492.66667"
     inkscape:window-x="1912"
     inkscape:window-y="-8"
     inkscape:window-maximized="1"
     inkscape:current-layer="svg16" />
  <metadata
     id="metadata2">
Created by potrace 1.16, written by Peter Selinger 2001-2019
<rdf:RDF>
  <cc:Work
     rdf:about="">
    <dc:format>image/svg+xml</dc:format>
    <dc:type
       rdf:resource="http://purl.org/dc/dcmitype/StillImage" />
  </cc:Work>
</rdf:RDF>
</metadata>
  <g
     transform="translate(0.000000,739.000000) scale(0.100000,-0.100000)"
     fill="#000000"
     stroke="none"
     id="g14">
    <path
       d="M2245 6884 c-68 -5 -243 -33 -280 -45 -16 -6 -53 -17 -82 -24 -29 -8 -67 -23 -85 -33 -72 -40 -98 -57 -98 -64 0 -5 -7 -8 -15 -8 -8 0 -15 -4 -15 -10 0 -5 -7 -10 -15 -10 -8 0 -15 -5 -15 -11 0 -7 -10 -9 -25 -7 -15 3 -25 1 -25 -6 0 -6 -24 -24 -53 -40 -28 -16 -75 -47 -103 -68 -28 -21 -56 -38 -62 -38 -6 0 -17 -8 -24 -19 -7 -10 -26 -25 -43 -34 -16 -8 -37 -24 -46 -34 -9 -10 -48 -47 -87 -81 -177 -158 -271 -403 -259 -677 4 -109 29 -242 57 -310 4 -11 14 -42 21 -70 7 -27 18 -59 26 -70 7 -11 13 -31 13 -45 0 -14 7 -38 15 -54 8 -15 15 -36 15 -45 0 -9 4 -21 9 -27 5 -5 16 -31 24 -59 8 -27 34 -97 57 -155 23 -58 46 -118 52 -135 6 -16 15 -38 19 -47 5 -10 9 -23 9 -30 0 -7 7 -26 15 -42 19 -36 65 -171 65 -190 0 -7 7 -19 15 -26 8 -7 15 -22 15 -34 0 -12 6 -46 14 -76 7 -30 18 -82 25 -115 7 -33 21 -88 32 -121 10 -34 19 -80 19 -102 0 -23 4 -43 9 -46 4 -3 11 -36 14 -73 3 -38 11 -99 16 -138 22 -159 12 -471 -20 -620 -11 -49 -24 -94 -28 -100 -5 -5 -12 -26 -16 -45 -4 -19 -27 -77 -51 -127 -24 -51 -44 -95 -44 -99 0 -8 -53 -125 -145 -319 -83 -176 -110 -301 -109 -515 1 -177 10 -300 24 -314 6 -6 10 -18 10 -28 0 -10 7 -21 15 -24 8 -4 15 -17 15 -29 0 -28 34 -110 49 -119 6 -4 11 -16 11 -26 0 -10 6 -23 13 -27 6 -4 31 -33 54 -63 41 -55 198 -217 246 -255 15 -11 49 -36 76 -55 28 -19 53 -43 56 -52 4 -10 13 -18 22 -18 9 0 31 -11 49 -25 18 -14 37 -25 43 -25 6 0 16 -9 23 -20 7 -11 20 -20 28 -20 8 0 30 -9 48 -20 18 -11 41 -20 52 -20 10 0 22 -4 25 -10 3 -5 12 -10 20 -10 7 0 35 -10 62 -22 26 -12 53 -22 58 -23 26 -3 171 -38 180 -44 13 -8 81 -11 276 -15 86 -2 161 -6 167 -10 6 -3 55 -5 109 -4 54 1 103 -1 109 -5 11 -7 102 4 182 21 23 5 45 6 48 1 3 -5 22 -6 42 -4 20 3 80 7 132 10 116 5 224 20 282 39 24 7 50 14 58 14 8 0 44 10 80 22 94 33 94 33 109 36 7 1 18 7 24 13 6 6 19 11 28 11 20 0 79 32 79 43 0 4 6 7 13 7 8 0 60 45 116 100 56 55 110 100 120 100 20 0 51 54 51 89 0 12 19 40 44 65 24 23 52 60 61 82 18 45 64 115 82 127 7 4 13 15 13 23 0 8 4 22 9 32 24 48 55 140 58 176 2 23 13 76 24 119 11 44 24 134 29 200 9 116 45 387 55 416 12 31 44 213 55 306 6 55 18 125 26 156 8 31 14 71 14 88 0 17 6 48 14 68 8 21 24 94 36 163 12 69 29 161 37 205 21 105 24 451 7 599 -15 122 -61 373 -73 396 -4 8 -8 35 -10 60 -1 24 -6 49 -10 55 -4 5 -13 36 -20 67 -7 31 -19 62 -26 68 -9 7 -13 21 -9 34 6 24 -30 131 -52 157 -8 8 -14 20 -14 25 0 15 -77 171 -113 229 -37 60 -161 182 -237 232 -30 20 -59 43 -63 50 -4 7 -22 20 -38 29 -53 27 -80 56 -74 78 6 20 5 20 -8 4 -18 -23 -22 -23 -60 6 -18 14 -44 27 -58 31 -15 4 -45 26 -69 51 -23 24 -47 44 -54 44 -7 0 -28 16 -47 36 -18 19 -50 45 -69 57 -44 27 -71 58 -65 75 3 8 -34 61 -82 120 -48 58 -100 128 -115 156 -16 28 -44 80 -64 116 -69 128 -91 161 -127 198 -20 21 -37 42 -37 46 0 5 -12 25 -27 45 -27 35 -46 68 -85 146 -24 48 -185 210 -248 251 -84 54 -119 68 -225 94 -27 6 -54 15 -60 19 -20 16 -235 32 -340 25z m325 -146 c41 -11 85 -22 98 -25 12 -3 22 -9 22 -14 0 -5 10 -9 23 -9 19 0 85 -35 152 -80 43 -29 149 -161 180 -225 8 -16 26 -48 40 -70 14 -22 32 -55 40 -72 8 -18 20 -33 25 -33 6 0 10 -6 10 -14 0 -8 7 -17 15 -20 9 -3 21 -19 26 -36 6 -16 15 -30 20 -30 5 0 14 -10 19 -22 6 -13 19 -36 30 -53 11 -16 31 -55 46 -85 51 -103 149 -246 177 -258 4 -2 7 -8 7 -13 0 -6 16 -28 37 -49 20 -22 44 -52 53 -68 18 -30 144 -145 200 -183 57 -39 113 -81 153 -116 20 -18 44 -33 52 -33 8 0 20 -9 27 -20 7 -11 20 -20 29 -20 8 0 34 -16 56 -35 23 -19 46 -35 52 -35 6 0 11 -4 11 -9 0 -5 12 -14 28 -20 30 -13 82 -56 157 -131 50 -50 104 -145 194 -343 37 -81 81 -233 96 -332 4 -22 10 -51 15 -65 5 -14 11 -43 14 -65 3 -22 12 -74 21 -115 54 -258 57 -537 9 -795 -14 -77 -30 -148 -35 -157 -5 -10 -9 -30 -9 -45 0 -16 -9 -66 -21 -113 -11 -47 -24 -110 -28 -140 -16 -98 -51 -293 -66 -361 -8 -37 -15 -76 -15 -87 0 -23 -15 -37 -24 -23 -4 5 -13 49 -22 98 -31 178 -42 303 -26 303 6 0 14 -9 17 -21 6 -17 12 -19 38 -13 44 9 44 9 51 50 8 37 -18 134 -35 134 -5 0 -9 -4 -9 -10 0 -5 -17 -10 -39 -10 -36 0 -39 2 -44 34 -3 19 -2 49 2 68 4 18 4 42 0 53 -10 25 -11 95 -2 95 3 0 14 -7 23 -15 9 -8 27 -16 41 -17 23 -3 24 0 25 47 1 59 -4 75 -21 75 -7 0 -18 7 -25 15 -14 17 -50 20 -50 5 0 -7 -6 -7 -20 0 -11 6 -20 21 -20 33 0 13 -7 32 -15 43 -8 10 -15 28 -15 39 0 11 -12 37 -26 58 -40 59 -30 74 59 92 22 4 27 11 27 33 0 30 -32 72 -55 72 -14 0 -34 -7 -101 -36 -17 -8 -37 -20 -44 -29 -13 -15 -39 -7 -68 22 -7 7 -20 13 -28 13 -19 0 -18 19 1 26 8 4 15 12 15 20 0 8 5 14 10 14 13 0 69 61 70 76 0 21 -26 64 -42 70 -10 3 -27 0 -38 -6 -11 -6 -25 -8 -30 -5 -6 3 -10 2 -10 -4 0 -5 5 -11 12 -13 17 -6 0 -28 -23 -28 -10 0 -19 -6 -19 -14 0 -8 -11 -24 -25 -37 -13 -13 -25 -29 -25 -36 0 -19 -36 -25 -95 -14 -31 6 -59 10 -63 9 -13 -3 -73 14 -100 28 -15 8 -37 14 -49 14 -12 0 -23 7 -25 16 -5 24 -115 30 -140 7 -36 -33 -9 -83 46 -83 8 0 17 -7 20 -16 4 -9 9 -14 13 -11 3 4 18 -2 32 -13 33 -23 145 -50 207 -50 34 0 44 -4 44 -16 0 -10 -6 -14 -14 -11 -7 3 -26 -8 -42 -24 -15 -16 -34 -29 -42 -29 -19 0 -42 -25 -42 -47 0 -42 12 -63 36 -63 27 0 116 44 135 66 17 21 27 17 34 -15 6 -27 10 -29 63 -33 60 -5 105 5 134 30 24 20 44 10 63 -35 33 -76 47 -108 56 -125 25 -48 -10 -82 -115 -112 -28 -8 -46 -21 -60 -45 -19 -32 -19 -33 2 -53 24 -25 76 -27 101 -4 10 9 22 16 28 16 5 0 24 7 42 16 18 9 35 14 37 11 3 -3 6 -56 7 -118 l2 -114 -42 -10 c-51 -13 -70 -30 -79 -72 -6 -30 -5 -31 37 -39 48 -8 46 -9 72 1 15 6 18 2 17 -31 0 -22 6 -91 15 -154 20 -144 23 -205 10 -204 -5 1 -21 5 -35 9 -14 4 -22 4 -19 1 4 -4 3 -25 -2 -47 -14 -60 0 -78 54 -72 40 5 45 3 50 -18 11 -41 8 -69 -8 -69 -8 0 -15 -6 -15 -14 0 -16 54 -41 69 -32 19 12 21 -14 11 -129 -14 -161 -102 -505 -129 -505 -4 0 -13 -11 -19 -24 -6 -13 -25 -40 -42 -60 -18 -20 -38 -53 -45 -74 -9 -24 -20 -38 -34 -40 -25 -4 -61 -47 -61 -73 0 -11 -4 -19 -8 -19 -5 0 -22 -26 -38 -57 -16 -32 -43 -71 -60 -88 -45 -43 -124 -107 -159 -130 -31 -20 -39 -23 -90 -32 -16 -3 -35 -9 -41 -14 -6 -5 -55 -21 -110 -35 -163 -44 -271 -60 -441 -68 -68 -2 -128 -8 -133 -11 -9 -5 -96 -18 -175 -26 -5 0 -32 2 -60 5 -65 8 -196 15 -365 21 -143 5 -187 11 -208 28 -9 7 -16 7 -24 -1 -17 -17 -42 -15 -80 7 -18 10 -73 31 -123 46 -49 15 -97 31 -105 36 -48 28 -94 48 -102 43 -5 -4 -16 3 -24 15 -8 12 -21 21 -28 21 -6 0 -27 16 -46 35 -19 20 -40 33 -47 31 -7 -3 -22 8 -33 24 -12 17 -27 30 -34 30 -12 0 -141 122 -181 171 -11 13 -43 53 -72 88 -29 35 -53 70 -53 77 0 8 -4 14 -8 14 -5 0 -19 23 -33 52 -13 28 -30 58 -38 66 -8 8 -17 33 -19 56 -2 22 -7 45 -11 51 -4 5 -9 28 -10 49 -1 21 -6 47 -11 57 -15 27 -12 202 5 309 16 96 59 242 95 315 63 132 119 255 130 290 19 61 70 177 91 206 10 14 24 48 31 75 6 27 17 56 24 64 28 37 39 155 39 440 0 230 -3 301 -17 365 -9 44 -19 103 -22 132 -3 28 -13 84 -22 125 -9 40 -19 89 -23 108 -4 19 -13 51 -19 70 -5 19 -18 71 -28 115 -10 44 -27 100 -38 125 -11 25 -23 61 -27 80 -10 46 -70 212 -97 272 -12 26 -22 52 -22 58 0 19 -33 84 -47 93 -7 4 -13 14 -13 22 0 15 -42 143 -84 257 -14 37 -23 74 -20 82 3 8 -5 24 -19 36 -21 18 -26 34 -32 102 -3 45 -11 92 -16 106 -5 13 -9 92 -9 176 1 180 2 195 16 221 6 11 17 38 24 60 7 22 18 47 25 55 6 8 20 32 29 53 42 93 109 169 221 254 33 26 65 51 70 58 6 6 17 14 25 18 8 4 47 27 85 52 39 25 80 50 93 55 12 5 22 13 22 18 0 5 18 17 40 28 22 10 40 22 40 27 0 4 8 7 19 7 10 0 24 7 32 16 7 9 30 23 51 31 21 8 38 19 38 25 0 5 4 7 8 4 5 -3 40 5 78 18 64 22 204 51 284 60 77 8 267 -6 340 -26z"
       id="path4" />
    <path
       d="M1736 5800 c-47 -52 -48 -86 -3 -93 17 -2 39 -1 47 3 17 9 276 -51 358 -82 33 -13 65 -35 85 -58 34 -41 117 -199 117 -225 0 -8 4 -15 9 -15 5 0 12 -19 16 -42 4 -24 14 -51 22 -60 11 -12 14 -29 10 -52 -3 -19 -2 -36 3 -38 5 -2 11 -69 14 -149 6 -174 4 -179 -94 -260 -158 -132 -223 -171 -310 -187 -112 -22 -280 -10 -280 20 0 4 -6 5 -14 2 -9 -3 -19 4 -27 17 -6 12 -24 33 -40 47 -16 13 -29 30 -29 38 0 8 -4 14 -10 14 -5 0 -10 5 -10 11 0 6 -9 22 -20 36 -11 14 -20 35 -20 47 0 12 -4 26 -9 31 -24 24 -40 235 -28 370 7 74 72 165 119 165 8 0 18 4 24 10 10 10 50 16 69 10 6 -2 22 2 37 8 60 25 132 19 164 -13 14 -14 28 -25 32 -25 17 -1 51 -50 62 -90 19 -69 5 -210 -26 -271 -13 -27 -29 -49 -35 -49 -6 0 -9 -6 -6 -13 17 -45 -101 -79 -136 -39 -21 23 -33 108 -18 126 28 33 56 103 53 131 -4 41 -51 61 -91 40 -40 -20 -77 -119 -88 -229 -5 -60 -4 -69 22 -108 29 -46 73 -87 91 -88 7 0 25 -7 40 -15 34 -17 70 -19 79 -4 4 6 14 8 22 5 10 -4 27 6 45 25 16 17 36 28 43 25 8 -3 16 6 20 22 4 15 15 35 25 45 11 9 24 36 31 60 6 23 15 50 20 59 48 93 39 284 -19 393 -20 38 -54 75 -69 75 -7 0 -16 6 -20 13 -8 11 -77 48 -115 61 -19 6 -90 -4 -208 -31 -130 -29 -227 -103 -255 -194 -27 -91 -39 -261 -25 -364 12 -87 42 -204 60 -235 5 -8 17 -29 25 -47 9 -17 34 -50 56 -73 21 -22 39 -44 39 -48 0 -14 74 -65 119 -83 26 -9 87 -20 137 -24 112 -8 102 -8 149 5 22 6 56 15 75 19 19 4 44 12 55 18 11 6 35 17 53 23 17 7 32 16 32 21 0 5 14 16 30 24 17 9 43 29 59 45 15 17 33 30 39 30 5 0 21 13 34 29 14 16 34 32 46 35 12 4 22 13 22 19 0 7 12 25 26 41 15 15 33 48 40 72 26 86 15 337 -20 464 -26 93 -28 100 -36 100 -7 0 -21 29 -82 170 -49 112 -118 188 -208 227 -28 13 -85 24 -146 28 -23 2 -81 17 -130 34 -49 17 -94 31 -100 31 -6 0 -28 -18 -48 -40z"
       id="path6" />
    <path
       d="M3345 5671 c-4 -15 -17 -21 -48 -23 -38 -3 -42 -5 -39 -28 7 -61 21 -78 71 -85 41 -5 59 -17 127 -76 181 -161 270 -255 302 -321 57 -118 64 -140 93 -281 28 -131 29 -152 23 -272 -6 -121 -25 -218 -45 -231 -5 -3 -9 -12 -9 -20 0 -26 -45 -84 -77 -99 -18 -9 -33 -20 -33 -25 0 -6 -11 -10 -24 -10 -14 0 -27 -4 -30 -9 -9 -14 -125 -49 -221 -67 -89 -16 -201 -19 -260 -8 -54 11 -159 47 -185 63 -52 33 -66 41 -87 53 -13 6 -23 15 -23 21 0 5 -11 22 -25 39 -14 16 -25 40 -25 54 0 15 -6 24 -16 24 -11 0 -13 6 -9 19 3 11 -1 36 -10 56 -8 21 -15 50 -15 65 0 15 -5 42 -11 60 -9 25 -9 34 1 40 9 6 9 12 1 29 -15 28 2 94 35 138 13 17 24 39 24 47 0 9 3 16 8 16 4 0 21 14 39 30 18 17 44 34 58 40 14 5 25 16 25 25 0 8 7 15 17 15 9 0 31 11 49 25 27 21 44 25 97 25 36 0 79 -3 97 -6 31 -7 100 -67 100 -88 0 -6 9 -17 19 -23 32 -20 50 -73 53 -154 3 -69 1 -78 -25 -112 -15 -20 -25 -37 -21 -37 16 0 -33 -43 -65 -56 -39 -16 -124 -19 -151 -4 -24 13 -43 80 -35 124 4 19 21 48 41 67 19 18 34 39 34 46 0 7 8 17 19 22 26 14 33 61 13 84 -11 12 -27 17 -51 15 -33 -3 -41 -11 -98 -96 -35 -51 -65 -105 -68 -120 -3 -15 -9 -43 -13 -63 -7 -29 -3 -47 20 -95 34 -71 82 -115 143 -129 6 -2 15 -4 20 -6 23 -6 132 15 161 32 18 10 34 15 37 13 5 -5 87 86 87 97 0 4 16 32 35 64 39 66 42 104 19 222 -10 51 -26 88 -53 130 -22 32 -37 61 -35 65 3 5 -2 11 -10 14 -9 3 -16 11 -16 18 0 6 -8 16 -19 21 -10 6 -38 21 -62 34 -40 22 -56 25 -164 25 -113 0 -123 -2 -167 -27 -25 -15 -52 -34 -58 -42 -7 -8 -19 -15 -26 -15 -8 0 -14 -4 -14 -9 0 -4 -18 -21 -40 -36 -22 -15 -51 -47 -65 -71 -14 -24 -29 -44 -34 -44 -11 0 -61 -102 -61 -126 0 -11 -4 -24 -10 -30 -12 -12 -16 -166 -5 -211 4 -18 12 -33 17 -33 5 0 7 -4 3 -10 -3 -5 -1 -17 4 -27 6 -10 18 -44 27 -76 9 -32 22 -61 29 -63 7 -3 25 -30 40 -60 19 -38 42 -65 74 -86 25 -18 48 -35 51 -38 12 -16 102 -59 173 -84 134 -46 307 -44 459 5 32 11 66 19 77 19 11 0 32 5 48 12 15 6 34 12 42 14 8 1 18 10 23 18 5 9 18 16 28 16 11 0 20 4 20 9 0 5 13 14 30 21 32 13 85 81 113 145 10 22 22 47 27 56 4 9 16 65 24 125 18 121 16 327 -4 379 -6 17 -20 69 -31 117 -10 48 -28 104 -39 123 -11 20 -20 42 -20 51 0 16 -83 149 -100 159 -5 3 -10 14 -10 24 0 10 -10 25 -22 34 -13 8 -66 56 -118 106 -52 50 -97 91 -101 91 -3 0 -30 22 -60 49 -30 27 -63 50 -74 53 -13 2 -20 11 -19 26 1 27 -12 29 -21 3z"
       id="path8" />
    <path
       d="M2060 4192 c0 -6 -11 -23 -24 -39 -15 -18 -29 -53 -36 -93 -7 -36 -19 -84 -26 -106 -21 -59 -45 -269 -37 -318 3 -22 19 -61 34 -86 16 -25 33 -55 38 -67 6 -12 19 -27 30 -32 11 -6 23 -20 26 -31 3 -11 12 -20 18 -20 7 0 46 -16 87 -36 72 -35 77 -36 157 -31 45 3 95 13 112 21 16 9 38 16 48 16 31 0 117 65 212 160 50 49 91 93 91 96 0 4 7 12 15 18 18 13 10 76 -9 76 -6 0 -16 10 -21 22 -23 52 -61 30 -107 -60 -52 -101 -166 -190 -278 -215 -59 -13 -163 -12 -168 2 -2 6 -11 11 -19 11 -8 0 -37 16 -64 36 -39 29 -49 42 -49 65 0 19 -5 29 -15 29 -15 0 -19 36 -17 172 1 60 38 197 60 221 9 10 18 33 19 50 1 18 5 48 8 67 5 27 2 39 -12 52 -22 20 -73 34 -73 20z"
       id="path10" />
    <path
       d="M3587 2833 c-1 -1 -25 -4 -52 -7 -56 -6 -119 -26 -137 -44 -7 -7 -17 -12 -23 -12 -5 0 -16 -9 -23 -20 -7 -11 -18 -20 -25 -20 -7 0 -32 -18 -56 -40 -23 -22 -47 -40 -53 -40 -6 0 -32 -18 -58 -40 -26 -22 -53 -40 -59 -40 -6 0 -11 -4 -11 -10 0 -5 -15 -17 -32 -25 -18 -8 -55 -28 -83 -44 -27 -16 -67 -32 -89 -36 -22 -3 -45 -10 -51 -14 -17 -14 -85 -20 -110 -11 -14 5 -27 6 -29 1 -7 -10 -63 -21 -141 -27 -33 -3 -66 -7 -73 -9 -7 -3 -20 0 -30 5 -9 6 -69 14 -132 18 -94 7 -131 5 -201 -10 -47 -10 -99 -24 -115 -33 -16 -8 -35 -15 -42 -15 -22 0 -113 -50 -166 -92 -76 -60 -107 -100 -146 -190 -35 -81 -35 -83 -28 -175 6 -76 5 -100 -7 -124 -14 -26 -14 -29 0 -29 8 0 15 -6 15 -14 0 -8 5 -16 11 -18 9 -3 9 -9 0 -25 -12 -24 -15 -82 -3 -99 11 -16 51 -36 61 -29 12 7 41 -22 41 -40 0 -8 9 -19 20 -25 11 -6 20 -16 20 -23 0 -15 71 -87 86 -87 6 0 26 -14 43 -31 18 -17 47 -35 64 -41 18 -6 39 -16 47 -23 16 -13 74 -27 178 -44 48 -8 91 -6 184 6 91 12 125 14 138 5 14 -8 20 -8 22 0 2 6 17 12 33 14 17 2 50 6 75 9 25 3 76 8 115 10 38 3 77 8 87 11 22 7 194 -23 233 -41 17 -8 42 -26 57 -40 15 -14 31 -25 37 -25 18 0 129 -62 134 -74 4 -9 28 -14 69 -15 139 -5 142 -6 203 -31 36 -15 158 -5 234 19 57 18 84 34 121 70 69 67 78 104 56 234 -10 56 -21 107 -25 112 -12 19 -26 90 -23 117 2 14 18 41 35 59 l32 33 -22 24 c-29 32 -29 54 2 137 38 100 53 125 70 119 11 -5 13 -2 9 10 -4 10 1 25 11 36 30 33 65 120 65 161 0 21 5 39 10 39 15 0 12 93 -5 133 -8 20 -15 64 -15 97 0 51 -3 60 -18 60 -22 0 -82 56 -82 77 0 14 -102 123 -115 123 -4 0 -25 13 -48 30 -23 16 -51 31 -62 33 -11 2 -27 7 -35 10 -8 4 -24 8 -35 10 -11 1 -25 6 -32 10 -10 6 -120 7 -126 0z m77 -122 c3 -4 24 -8 46 -8 27 0 52 -8 70 -22 16 -11 36 -21 45 -21 9 0 17 -6 19 -12 2 -7 13 -43 24 -79 18 -56 19 -71 9 -105 -13 -41 -53 -94 -72 -94 -6 0 -22 -11 -34 -24 -13 -13 -39 -27 -59 -31 -21 -3 -52 -15 -71 -26 -18 -11 -36 -18 -39 -15 -2 3 -13 1 -23 -5 -21 -11 -69 14 -69 36 0 8 -9 17 -20 20 -11 3 -20 11 -20 17 0 7 -13 8 -34 5 -25 -4 -39 -1 -51 13 -24 27 -67 157 -59 182 7 24 72 98 86 98 5 0 22 10 39 23 17 12 63 29 102 39 86 19 104 21 111 9z m-465 -272 c1 -13 7 -26 12 -29 5 -3 10 -15 12 -25 1 -11 6 -25 9 -31 22 -35 39 -108 30 -128 -6 -12 -13 -33 -16 -48 -4 -17 -18 -34 -35 -43 -16 -8 -32 -23 -35 -33 -13 -39 -51 -63 -109 -67 -39 -3 -58 0 -67 10 -6 8 -28 19 -48 26 -68 21 -101 47 -108 85 -3 19 -10 34 -15 34 -5 0 -9 7 -9 15 0 8 -9 29 -20 47 -27 45 -26 60 8 58 15 -1 29 -1 32 0 3 1 14 3 25 4 69 10 244 94 290 139 22 23 39 17 44 -14z m-768 -145 c41 -3 79 -9 84 -12 6 -4 33 -7 60 -7 l50 0 2 -125 c3 -175 0 -184 -45 -203 -66 -27 -76 -29 -146 -30 -52 0 -72 4 -81 16 -8 12 -22 14 -53 10 -33 -4 -43 -2 -48 11 -4 9 -17 16 -33 16 -20 0 -41 14 -79 55 -29 30 -52 59 -52 64 0 5 -7 14 -14 21 -8 6 -23 35 -32 63 -9 29 -19 57 -21 64 -10 25 132 61 154 39 4 -3 14 0 22 8 14 13 115 26 147 20 7 -2 45 -6 85 -10z m-534 -151 c6 -16 15 -63 19 -106 6 -76 6 -79 -22 -108 -15 -16 -35 -29 -43 -29 -9 0 -34 -7 -56 -15 -67 -24 -67 -23 -61 54 4 58 11 80 47 140 24 39 49 71 56 71 7 0 13 5 13 10 0 22 36 8 47 -17z m1346 -299 c15 -14 37 -45 48 -70 23 -47 22 -119 0 -244 -5 -30 -10 -97 -10 -147 -1 -51 -4 -93 -8 -93 -5 0 -28 16 -52 35 -24 19 -53 35 -65 35 -12 0 -29 7 -39 14 -9 7 -28 11 -42 8 -15 -2 -33 2 -43 11 -9 9 -20 16 -24 17 -50 6 -68 14 -68 32 0 11 -5 28 -10 38 -7 13 -5 49 6 117 13 76 23 105 43 128 14 17 37 47 51 67 30 45 102 77 125 58 12 -10 15 -9 15 4 0 25 41 20 73 -10z m-1205 -128 c63 -11 77 -18 102 -47 16 -19 29 -38 30 -43 0 -5 7 -17 16 -27 22 -25 30 -133 12 -184 -12 -36 -17 -40 -43 -38 -52 4 -89 15 -110 33 -11 10 -33 25 -50 33 -35 19 -131 116 -167 170 -40 60 -27 79 72 106 46 12 53 12 138 -3z m1635 2 c38 -1 70 -6 73 -10 3 -4 11 -5 19 -1 8 3 25 3 38 -1 20 -5 22 -11 24 -83 1 -46 12 -119 27 -178 28 -106 33 -155 16 -155 -6 0 -15 -11 -21 -24 -8 -16 -23 -26 -46 -31 -19 -3 -37 -13 -40 -22 -5 -13 -19 -15 -95 -9 -79 5 -123 17 -138 38 -3 4 -16 9 -29 11 -12 2 -27 10 -31 18 -5 8 -15 14 -22 14 -10 0 -13 22 -11 85 1 47 2 122 3 167 l1 83 57 55 c46 44 62 54 82 50 14 -3 56 -6 93 -7z m-1007 -13 c4 -8 15 -15 27 -15 25 0 57 -27 57 -48 0 -9 6 -23 14 -31 9 -10 15 -46 17 -101 l3 -84 -39 -12 c-22 -6 -103 -17 -180 -24 -77 -6 -159 -15 -182 -20 -24 -4 -43 -4 -43 1 0 5 7 51 16 101 14 82 21 100 62 156 46 62 51 65 137 85 48 11 106 7 111 -8z"
       id="path12" />
  </g>
  <path
     style="fill:#ffffff;stroke-width:0"
     d="m 371.79225,895.93761 c -5.35632,-0.52675 -21.74341,-1.52126 -36.41577,-2.21003 -17.57322,-0.82495 -28.39324,-1.835 -31.70615,-2.95976 -3.92049,-1.33103 -5.6598,-1.4201 -7.88987,-0.40401 -2.43566,1.10976 -4.2788,0.703 -12.40469,-2.73755 -5.24919,-2.22255 -12.47818,-4.86998 -16.06442,-5.8832 -3.58623,-1.01322 -10.27424,-3.64118 -14.86225,-5.83992 -4.588,-2.19875 -9.00084,-3.99771 -9.80631,-3.99771 -0.80547,0 -2.36676,-0.79636 -3.46953,-1.76969 -5.52422,-4.87577 -12.62329,-10.15274 -15.18101,-11.28454 -3.58151,-1.58483 -6.91176,-4.57921 -25.02015,-22.49676 -15.66567,-15.50058 -21.44464,-22.82404 -30.93877,-39.20754 -5.43925,-9.38621 -6.49969,-12.34481 -9.54122,-26.61966 -3.10902,-14.59164 -3.36629,-17.42144 -2.8142,-30.95437 1.00283,-24.58174 6.08569,-43.59601 19.20055,-71.82662 4.48183,-9.64746 10.38997,-23.32366 13.12918,-30.39158 2.73922,-7.06789 7.31611,-17.44062 10.17087,-23.05049 2.85477,-5.60986 5.19552,-10.91203 5.20167,-11.78259 0.006,-0.87056 1.26608,-4.27816 2.79983,-7.57245 4.2683,-9.1678 5.20914,-20.14681 5.20914,-60.7878 v -37.39531 l -4.08094,-24.49643 c -6.56974,-39.43587 -19.19506,-85.5119 -32.55517,-118.80991 -2.02268,-5.04124 -4.46407,-11.48601 -5.42531,-14.32171 -0.96123,-2.83569 -2.80317,-6.64418 -4.09321,-8.4633 -2.59697,-3.66206 -16.86088,-45.04208 -16.86088,-48.9139 0,-1.34375 -1.26843,-3.95062 -2.81875,-5.79307 -1.55031,-1.84244 -3.0607,-5.01036 -3.35641,-7.03981 -0.29571,-2.02946 -1.34905,-9.10352 -2.34076,-15.72015 -1.12024,-7.47416 -1.8017,-19.69937 -1.7994,-32.28048 0.004,-19.89521 0.0649,-20.40315 3.4955,-28.97062 5.09475,-12.72353 14.04864,-28.66162 20.04494,-35.68036 7.58513,-8.87849 27.11445,-24.40928 42.62901,-33.90094 7.40461,-4.53007 14.75188,-9.19732 16.32727,-10.37167 5.73656,-4.27624 11.59453,-7.74166 13.08656,-7.74166 0.84009,0 2.22774,-0.84382 3.08367,-1.87515 0.85592,-1.03133 3.75475,-2.817542 6.44184,-3.96936 2.68708,-1.151819 4.8856,-2.62812 4.8856,-3.28067 0,-0.652548 0.97288,-1.186452 2.16196,-1.186452 1.18907,0 9.05169,-1.757599 17.47247,-3.905775 8.4208,-2.148176 19.43519,-4.530815 24.47643,-5.294754 17.0945,-2.590462 51.40579,1.127845 64.7341,7.015221 27.46068,12.12992 36.028,20.33113 53.15029,50.87911 4.23846,7.56186 8.44984,14.32125 9.35862,15.02088 0.90879,0.69962 1.65233,1.83406 1.65233,2.52097 0,0.68691 0.67151,1.66124 1.49223,2.16517 0.82073,0.50393 2.49637,2.52685 3.72365,4.49539 1.22728,1.96853 3.73571,5.83319 5.57428,8.58812 1.83859,2.75494 6.33585,10.56125 9.99393,17.34736 7.44425,13.80984 14.23273,24.28181 20.36064,31.40851 2.26152,2.63013 6.41862,7.78594 9.23798,11.45736 7.5596,9.84422 25.79948,27.64613 34.97466,34.13488 4.41108,3.11956 11.7919,8.65785 16.4018,12.30733 4.60991,3.64948 9.13743,6.63542 10.06116,6.63542 0.92373,0 1.98364,0.79259 2.35537,1.7613 0.37173,0.9687 2.28897,2.45203 4.26056,3.29627 1.97157,0.84425 6.94311,4.04743 11.04788,7.11817 4.10476,3.07075 8.98498,6.35655 10.84493,7.30178 6.74529,3.42798 24.03245,21.90793 29.47409,31.50775 10.76714,18.9948 19.62374,40.28045 24.31279,58.43256 4.91141,19.01286 12.5343,59.09282 14.38207,75.61861 2.93628,26.26107 0.77694,62.49491 -5.35994,89.94031 -3.13442,14.01768 -3.47825,15.76595 -9.91499,50.4124 -12.33205,66.37865 -11.59588,62.85252 -12.85839,61.59001 -1.24881,-1.24881 -6.13706,-31.88912 -6.77112,-42.44233 -0.52573,-8.75034 -0.39496,-10.09293 0.76498,-7.85366 1.23133,2.37705 2.00688,2.63247 6.46664,2.12979 6.06919,-0.68408 7.03507,-1.95414 7.05804,-9.28081 0.0328,-10.43637 -3.70715,-18.06266 -7.16304,-14.60676 -1.74153,1.74153 -7.35335,1.65275 -8.48842,-0.1343 -0.50031,-0.7877 -1.00801,-8.00824 -1.12822,-16.04565 l -0.21856,-14.61348 2.46127,1.72394 c 3.23345,2.2648 8.39198,2.21566 9.27611,-0.0883 1.93809,-5.05059 -0.17438,-15.37377 -3.14597,-15.37377 -0.88367,0 -2.27362,-0.80362 -3.08879,-1.78584 -0.95165,-1.14666 -2.89945,-1.65925 -5.4422,-1.43217 -4.352,0.38867 -4.27574,0.47574 -8.22141,-9.38509 -1.38682,-3.46585 -3.84357,-8.94817 -5.45943,-12.18293 -1.61588,-3.23475 -2.64839,-6.63596 -2.29449,-7.55825 0.35392,-0.92227 3.39677,-2.43979 6.76189,-3.37224 5.7734,-1.59978 6.13771,-1.92002 6.46058,-5.6788 0.43997,-5.12221 -3.28115,-10.16282 -7.5025,-10.16282 -1.64117,0 -7.2447,2.06233 -12.45229,4.58295 -5.2076,2.52062 -9.93448,4.58294 -10.50417,4.58294 -0.5697,0 -1.92704,-0.98479 -3.01631,-2.18842 -1.08928,-1.20365 -3.30565,-2.52102 -4.92526,-2.92752 l -2.94476,-0.73909 2.45622,-1.72039 c 1.35091,-0.94622 2.4562,-2.46454 2.4562,-3.37404 0,-0.90951 0.49077,-1.65364 1.09059,-1.65364 1.97648,0 9.22104,-8.32562 9.22104,-10.59704 0,-2.77672 -3.36924,-8.60924 -5.43008,-9.40006 -1.86175,-0.71441 -11.75596,1.79455 -11.75596,2.98107 0,0.46227 0.52399,1.16433 1.16442,1.56014 1.61433,0.99771 0.25569,2.85235 -2.09135,2.85484 -1.06558,10e-4 -2.71079,1.20654 -3.65602,2.67871 -0.94523,1.47217 -2.9692,4.63188 -4.49771,7.02158 l -2.77911,4.3449 -10.31992,-0.77905 c -5.67595,-0.42848 -13.19024,-1.80975 -16.69841,-3.0695 -3.50817,-1.25973 -8.12956,-2.74355 -10.26975,-3.29737 -2.14019,-0.5538 -4.25598,-1.59708 -4.70177,-2.31837 -1.19231,-1.9292 -9.13509,-3.4835 -13.74883,-2.69049 -10.29387,1.76931 -10.81999,11.12376 -0.76678,13.63315 1.78382,0.44526 3.51463,1.51659 3.84623,2.38074 0.33161,0.86415 1.33927,1.57117 2.23925,1.57117 0.89999,0 2.81151,0.77 4.24784,1.71112 3.75973,2.46347 19.64838,6.30903 26.06695,6.30903 3.01278,0 5.79643,0.51559 6.18589,1.14574 0.38946,0.63016 0.0332,1.15074 -0.79168,1.15686 -0.82489,0.006 -3.76358,1.81064 -6.53042,4.01008 -2.76683,2.19942 -5.71329,3.99895 -6.54767,3.99895 -3.45699,0 -5.42917,10.60479 -2.51426,13.51969 2.86776,2.86777 10.7795,0.68538 20.00978,-5.51953 l 4.77147,-3.20754 0.76161,3.03446 c 1.06497,4.2432 2.30504,4.73857 11.9118,4.75848 6.40501,0.0133 9.67267,-0.58433 13.41516,-2.45342 3.84381,-1.91969 5.30578,-2.17374 6.55295,-1.13868 2.77037,2.29921 11.34095,23.08612 10.65136,25.83363 -0.6855,2.73126 -6.5964,6.44289 -13.8808,8.71613 -5.42541,1.69312 -8.19784,3.9273 -10.57298,8.52033 -1.67358,3.23634 -1.61901,3.48383 1.32692,6.01782 3.72372,3.203 9.77236,3.47671 14.10443,0.63823 1.68252,-1.10243 4.62898,-2.57953 6.54766,-3.28246 1.9187,-0.70292 4.39081,-1.66062 5.49358,-2.12823 1.85244,-0.78548 2.00504,0.32516 2.00504,14.59339 v 15.44359 l -4.29651,0.6912 c -6.04384,0.97229 -9.16752,3.54101 -10.75686,8.84579 -1.8219,6.08092 -0.60699,7.12669 8.43568,7.26136 l 7.23198,0.1077 2.58026,23.4876 c 1.41915,12.91818 2.56989,24.18945 2.55721,25.04727 -0.0171,1.15117 -1.04302,1.36835 -3.91716,0.82915 l -3.89408,-0.73053 -0.80477,6.93395 c -1.01675,8.76032 0.10678,10.31241 7.46491,10.31241 5.89827,0 6.8567,0.95687 6.8567,6.84554 0,1.80611 -0.75491,3.51061 -1.7186,3.88042 -4.39585,1.68684 1.35547,7.60582 7.39039,7.60582 1.95382,0 2.34461,0.72185 2.326,4.29651 -0.10323,19.82586 -11.89081,70.85378 -18.24662,78.98867 -7.19838,9.21335 -11.97191,16.31123 -13.8447,20.58608 -1.14814,2.62078 -3.1345,5.09735 -4.41412,5.50348 -2.84721,0.90367 -8.15591,7.02352 -8.15591,9.4021 0,0.95477 -1.06141,3.10643 -2.35868,4.78148 -1.29729,1.67506 -4.3307,6.1924 -6.74094,10.03853 -7.00546,11.17899 -25.64106,26.0497 -35.85879,28.61437 -3.31478,0.83202 -8.99233,2.54398 -12.61677,3.80436 -17.84985,6.20718 -43.77252,10.84005 -67.88296,12.13199 -7.56186,0.40519 -17.87349,1.45311 -22.91473,2.32869 -13.56936,2.35681 -20.67489,2.73286 -31.50775,1.66755 z M 503.44879,840.8001 c 9.28651,-1.81861 15.54035,-4.90228 21.78143,-10.74008 7.02412,-6.57024 9.2566,-11.20366 9.2566,-19.21164 0,-6.90438 -2.80648,-23.83329 -4.67961,-28.22781 -0.65214,-1.52996 -1.66543,-5.31137 -2.25177,-8.40312 -1.21183,-6.38994 -0.45653,-8.54109 5.03596,-14.34265 2.56293,-2.70714 3.24559,-4.18456 2.44043,-5.28153 -5.82654,-7.93819 -5.63136,-7.11291 -3.49897,-14.79405 2.67656,-9.64137 8.42882,-21.42248 10.45977,-21.42248 0.91305,0 1.66008,-0.75546 1.66008,-1.67881 0,-0.92335 1.5648,-4.14573 3.47732,-7.16085 3.76389,-5.93379 6.83431,-14.894 6.83431,-19.94408 0,-1.7389 0.51558,-3.48029 1.14574,-3.86974 1.68972,-1.04431 1.36757,-11.67531 -0.57287,-18.90466 -0.93027,-3.46585 -1.69752,-8.70839 -1.70501,-11.65008 -0.0162,-6.363 -0.86341,-8.97317 -2.91261,-8.97317 -2.33788,0 -8.44184,-5.60557 -10.44132,-9.58881 -2.72904,-5.43661 -11.54814,-14.09432 -20.07663,-19.70922 -8.36438,-5.50685 -24.27223,-10.81663 -32.30462,-10.78274 -10.92113,0.0461 -30.30142,4.3661 -34.0477,7.58952 -0.99485,0.856 -2.21574,1.55637 -2.71309,1.55637 -0.49734,0 -2.60607,1.41784 -4.68606,3.15077 -4.01981,3.34907 -11.10701,8.66538 -26.88273,20.16544 -19.96297,14.55248 -41.1956,23.43034 -53.09878,22.20182 -3.30134,-0.34073 -6.88012,-0.12835 -7.95282,0.47196 -3.63907,2.03654 -27.73727,4.43319 -31.91815,3.17438 -6.52917,-1.96584 -33.19745,-2.68425 -41.27339,-1.11186 -18.30229,3.56347 -34.488,10.56798 -46.78321,20.24583 -8.3312,6.55769 -11.75824,11.07069 -17.53125,23.08657 l -4.81062,10.01276 0.32967,13.54794 c 0.20209,8.30517 -0.18857,14.9811 -1.00952,17.25138 -1.21505,3.36017 -1.06266,4.00178 1.64417,6.9225 2.38274,2.57101 2.74716,3.66042 1.81013,5.41126 -0.64526,1.20569 -1.01791,4.86661 -0.82809,8.13536 0.36668,6.31447 1.94251,7.95146 9.02815,9.37851 1.76357,0.35519 3.53055,1.85963 4.38391,3.73254 1.52624,3.34973 2.56672,4.59628 11.29387,13.53059 11.79803,12.07809 26.33437,20.01404 42.0919,22.97961 8.3916,1.5793 13.08499,1.76671 25.2062,1.00647 8.19202,-0.5138 18.24586,-1.00044 22.34186,-1.08141 4.09601,-0.081 8.22066,-0.46647 9.16589,-0.85664 3.71668,-1.53416 38.31179,-4.92207 45.25659,-4.43198 2.52062,0.17788 9.20264,1.31473 14.84893,2.52635 7.74093,1.6611 11.36817,3.0887 14.74712,5.80408 2.46461,1.98064 7.64097,5.11804 11.50301,6.97201 3.86202,1.85398 9.34199,4.81472 12.17769,6.57942 4.4794,2.78761 6.74605,3.30901 17.27713,3.97429 6.82558,0.43119 15.0849,1.73538 18.90465,2.98514 7.17141,2.34638 15.06983,2.28249 27.87631,-0.22546 z M 327.56587,537.92478 c 11.43004,-3.73114 16.73889,-7.42377 31.95674,-22.22784 14.00533,-13.6245 17.42025,-18.29105 16.19958,-22.13701 -1.3138,-4.13942 -7.55965,-11.20489 -9.90508,-11.20489 -2.75821,0 -7.28871,4.8793 -10.63833,11.45736 -8.64034,16.96818 -29.41703,29.78915 -48.274,29.78915 -5.85243,0 -8.71403,-0.68388 -13.9758,-3.34002 -8.62391,-4.35332 -13.94138,-9.35105 -13.94138,-13.10304 0,-1.60632 -0.87501,-3.41027 -1.94446,-4.00877 -1.65899,-0.92841 -1.94319,-3.08141 -1.93583,-14.66507 0.009,-14.76733 2.45661,-26.32992 7.79052,-36.80832 3.76487,-7.39601 5.02424,-19.80143 2.28798,-22.5377 -2.04794,-2.04794 -6.46766,-4.07041 -8.89506,-4.07041 -2.96744,0 -8.60725,12.12036 -11.99544,25.77907 -4.39526,17.7185 -6.17195,29.56854 -6.35591,42.39224 -0.13841,9.64826 0.1077,10.81288 3.8249,18.10321 2.18505,4.28537 6.40768,10.67126 9.38362,14.19087 4.614,5.45692 7.06594,7.14169 16.65042,11.44086 11.07417,4.96736 11.38377,5.03297 21.02905,4.45658 5.93284,-0.35453 13.31491,-1.73583 18.73848,-3.50627 z m 125.57366,-84.18332 c 6.71559,-0.96471 20.17622,-4.20203 36.20281,-8.70688 3.21244,-0.90298 6.77253,-2.67132 7.9113,-3.92965 1.13878,-1.25833 2.78572,-2.28788 3.65988,-2.28788 2.00717,0 3.8665,-1.43535 11.30361,-8.72608 12.89139,-12.6377 18.02574,-30.80336 18.09691,-64.02818 0.0404,-18.88318 -0.0862,-19.95301 -4.15109,-35.05997 -5.49172,-20.4098 -10.92561,-33.64903 -18.48383,-45.03427 -3.38587,-5.10026 -6.34409,-9.84118 -6.57382,-10.53537 -0.92411,-2.79236 -36.49619,-34.29015 -45.96073,-40.69657 -3.06019,-2.07139 -5.44224,-4.57269 -5.44224,-5.71467 0,-3.33815 -2.06162,-3.58204 -4.09152,-0.48404 -1.28559,1.96207 -2.94012,2.90086 -5.11244,2.90086 -7.08229,0 -8.49913,2.96844 -5.19325,10.88052 1.15292,2.75932 2.6056,4.14626 4.86938,4.64904 8.06553,1.79134 11.01531,3.38893 19.43772,10.52742 4.94711,4.19298 15.19119,13.83726 22.7646,21.43176 19.29844,19.35215 24.51558,29.72377 30.97847,61.58484 2.80987,13.85214 3.02553,16.69843 2.37009,31.27913 -0.39659,8.82217 -1.24049,18.59924 -1.87533,21.72682 -1.56954,7.73228 -8.64917,21.93263 -12.15932,24.38918 -1.57566,1.10271 -4.32492,3.16499 -6.10946,4.58284 -1.78453,1.41785 -4.22713,2.57791 -5.42799,2.57791 -1.20084,0 -2.67316,0.45201 -3.27181,1.00448 -1.92771,1.779 -14.81063,5.70438 -26.61968,8.1109 -7.35167,1.49818 -15.916,2.34198 -23.7703,2.34198 -10.91607,0 -13.569,-0.43199 -23.91626,-3.89439 -19.47527,-6.51685 -32.6041,-16.79453 -34.674,-27.144 -0.3763,-1.88153 -1.40638,-3.3337 -2.3647,-3.3337 -0.96798,0 -1.43871,-0.67564 -1.0949,-1.57156 0.33168,-0.86436 -0.40927,-5.37569 -1.64658,-10.0252 -1.23729,-4.6495 -2.48384,-13.64494 -2.7701,-19.98987 l -0.52047,-11.53623 4.58822,-9.02583 c 4.47696,-8.80692 11.76837,-16.59745 17.12542,-18.29771 1.17597,-0.37324 2.96951,-1.94746 3.98564,-3.49827 1.01614,-1.55083 2.48932,-2.81967 3.27374,-2.81967 0.78443,0 3.3231,-1.28896 5.64148,-2.86434 3.7121,-2.52243 5.42661,-2.86434 14.36337,-2.86434 9.26372,0 10.61144,0.29384 15.46502,3.3719 2.92431,1.85453 6.06596,4.82035 6.98143,6.59069 0.91548,1.77033 2.81961,4.24873 4.23141,5.50755 3.83615,3.42049 5.69035,8.83828 6.46564,18.89199 0.67276,8.72429 0.57266,9.22909 -2.90485,14.64831 -1.98088,3.08696 -3.60162,6.09679 -3.60162,6.68851 0,2.27712 -9.39979,7.08079 -15.21289,7.7744 -8.48237,1.01211 -12.45383,-0.35058 -14.86092,-5.09903 -3.75106,-7.39975 -2.62004,-12.72511 4.47228,-21.05769 2.10789,-2.47651 3.83254,-4.90208 3.83254,-5.39016 0,-0.48809 1.28895,-2.17639 2.86434,-3.75177 5.64291,-5.64292 2.63174,-13.28013 -5.23602,-13.28013 -3.65559,0 -4.9734,0.75992 -8.70188,5.018 -5.65322,6.45623 -13.59966,19.80078 -15.1798,25.49161 -3.03743,10.93923 -0.50598,20.36604 7.92533,29.51292 8.71046,9.44974 18.38386,10.82031 35.88156,5.0839 9.56505,-3.13579 14.5041,-8.19573 22.18225,-22.72517 4.29882,-8.13473 4.94533,-10.28884 4.92805,-16.41984 -0.0286,-10.14499 -2.77651,-21.68557 -6.95063,-29.19106 -1.99101,-3.58002 -4.41768,-8.05587 -5.3926,-9.94633 -0.97493,-1.89047 -2.45892,-3.84951 -3.29776,-4.35344 -0.83884,-0.50393 -1.52517,-1.58476 -1.52517,-2.40185 0,-0.81708 -3.66204,-3.36937 -8.13784,-5.67175 l -8.13786,-4.18614 -16.78191,0.0103 c -16.4082,0.0103 -16.91075,0.0847 -22.56691,3.32895 -3.18173,1.82501 -6.46724,4.14029 -7.30113,5.14507 -0.83389,1.00521 -2.00933,1.8273 -2.61208,1.8273 -2.11564,0 -14.71249,11.86696 -17.82237,16.78971 -1.72864,2.73635 -3.521,4.97611 -3.983,4.97723 -1.25396,0.003 -5.98236,9.94321 -8.44866,17.76097 -1.55365,4.92478 -2.16868,10.28627 -2.16862,18.90465 7e-5,11.21267 0.32205,12.92566 4.73787,25.2062 7.20528,20.0381 15.58086,31.76433 28.95003,40.53148 19.50355,12.7899 42.92444,17.88959 66.56395,14.4937 z m -181.1376,-57.28825 c 10.12948,-2.58628 20.81916,-7.05271 23.9997,-10.02769 1.19421,-1.11703 5.59065,-4.60885 9.76987,-7.75963 4.17922,-3.15077 9.46558,-7.40432 11.74748,-9.45232 2.28188,-2.04801 4.5513,-3.72365 5.04314,-3.72365 1.07487,0 8.11326,-9.64616 10.9772,-15.04431 2.65474,-5.00388 3.55715,-30.37745 1.66057,-46.69129 -1.40376,-12.07467 -6.06835,-30.96449 -7.93046,-32.11534 -0.60546,-0.37419 -4.20949,-7.5508 -8.00896,-15.94802 -12.78637,-28.25917 -22.95378,-37.38369 -44.85582,-40.25484 -5.35632,-0.70216 -15.81219,-3.14942 -23.23527,-5.43835 l -13.49651,-4.16169 -3.11667,2.30862 c -4.56669,3.38272 -8.4282,9.60038 -8.03831,12.943 0.32678,2.80157 0.70164,2.93078 10.65033,3.67104 13.07433,0.97282 44.74583,8.92872 51.64904,12.97427 6.38944,3.74446 10.61775,9.4794 17.32253,23.4949 2.86382,5.98647 5.85812,12.17345 6.65401,13.74883 0.79587,1.57539 1.8239,4.66888 2.28449,6.87442 0.4606,2.20555 1.51029,5.29903 2.33263,6.87442 1.87018,3.58272 3.97276,24.43182 3.97057,39.37192 -0.002,14.34506 -1.27417,16.70609 -15.28563,28.37074 -13.27217,11.04918 -24.86275,18.53525 -32.87703,21.2345 -8.88785,2.99347 -35.83537,3.06281 -40.35483,0.1038 -1.68434,-1.10277 -3.72506,-2.04699 -4.53493,-2.09829 -1.2078,-0.0765 -6.85568,-6.14975 -12.93326,-13.90737 -2.09422,-2.67309 -7.44387,-14.07274 -7.44387,-15.86221 0,-0.9677 -0.47683,-2.24925 -1.05962,-2.84789 -3.48598,-3.58084 -4.78043,-42.84175 -1.74906,-53.04948 1.99592,-6.72101 10.09797,-16.21029 13.8405,-16.21029 1.24229,0 2.78659,-0.52787 3.43176,-1.17304 0.64517,-0.64517 3.1973,-1.20787 5.67139,-1.25046 2.4741,-0.0426 7.00496,-0.86423 10.06857,-1.82588 8.06284,-2.5309 14.34154,-1.47155 21.22449,3.581 9.58989,7.03962 11.01756,10.39854 10.99768,25.87458 -0.0188,14.63874 -2.01765,22.73999 -6.9144,28.02367 -1.54409,1.6661 -2.80744,4.02063 -2.80744,5.23229 0,2.57106 -5.35536,5.69908 -9.75718,5.69908 -4.43895,0 -7.03479,-1.80408 -8.45409,-5.87546 -2.07555,-5.95394 -1.46988,-10.5277 2.32092,-17.52667 4.06157,-7.49888 4.85189,-14.4793 1.96607,-17.36512 -2.88312,-2.88312 -9.89712,-2.38485 -13.2212,0.93923 -4.38191,4.38191 -8.53492,17.19382 -9.21615,28.43154 -0.66449,10.96157 0.0849,13.24036 6.98656,21.24582 4.53668,5.26223 15.96736,10.26612 21.20242,9.28157 8.11945,-1.52703 11.3766,-2.91282 13.84942,-5.89239 0.81303,-0.97963 2.41151,-1.78116 3.55221,-1.78116 1.14068,0 2.38888,-0.99218 2.77376,-2.20484 0.38489,-1.21267 1.90205,-3.97646 3.37145,-6.14177 2.78197,-4.09945 8.08543,-17.53701 10.04551,-25.45261 0.62415,-2.52062 0.89155,-10.51213 0.59418,-17.75892 -0.82761,-20.16956 -4.76454,-29.00284 -17.26699,-38.74185 -4.73168,-3.68582 -15.78591,-8.23334 -20.01387,-8.23334 -8.81535,0 -32.45255,5.73238 -40.36294,9.78863 -5.88958,3.02004 -14.51494,11.92075 -16.85095,17.38889 -5.97543,13.98732 -6.97021,44.37806 -2.14471,65.52138 3.6314,15.9113 7.69974,24.07117 18.1804,36.46438 12.0369,14.23345 21.63297,18.19609 44.80701,18.50278 6.71933,0.0889 13.09961,-0.62664 18.98429,-2.12913 z"
     id="path24"
     transform="scale(0.75000002)" />
  <path
     style="fill:#ffffff;stroke-width:0"
     d="m 467.87316,677.18886 c -5.0961,-4.96388 -6.57164,-5.79148 -9.92331,-5.56576 -2.99715,0.20185 -4.53585,-0.43094 -6.44504,-2.6505 -3.12579,-3.63395 -7.96019,-18.62042 -7.10536,-22.02635 0.88056,-3.50841 8.09865,-11.70234 12.20775,-13.85815 1.87371,-0.98303 4.9009,-2.57222 6.72707,-3.53153 1.82618,-0.95932 7.56258,-2.81699 12.74757,-4.12816 7.3922,-1.86933 10.02603,-2.11113 12.20104,-1.12014 1.52558,0.6951 4.16737,1.25749 5.87064,1.24975 1.70328,-0.008 6.32343,1.41012 10.267,3.15078 l 7.17014,3.16484 2.96041,9.57042 c 1.975,6.38477 2.72582,10.8209 2.25565,13.32714 -0.81537,4.34629 -6.70741,12.96833 -9.57717,14.01463 -1.07745,0.39283 -3.4003,1.90189 -5.16188,3.35345 -1.76158,1.45157 -5.36775,3.22215 -8.01371,3.93464 -2.64596,0.71248 -6.61828,2.20987 -8.82736,3.32752 -2.20909,1.11765 -5.67043,2.389 -7.69187,2.82521 -3.32414,0.71733 -4.24739,0.23593 -9.66157,-5.03779 z"
     id="path26"
     transform="scale(0.75000002)" />
  <path
     style="fill:#ffffff;stroke-width:0"
     d="m 484.64729,823.7305 c -7.49491,-0.99122 -10.24082,-1.98938 -17.18605,-6.24729 -2.52062,-1.54532 -5.48521,-3.13995 -6.58798,-3.54363 -1.81228,-0.6634 -2.00504,-2.8014 -2.00504,-22.23797 v -21.504 l 7.4892,-7.00578 c 7.41443,-6.93583 7.55457,-7.0048 14.03527,-6.90774 3.60034,0.0539 11.43649,0.69841 17.41366,1.43217 l 10.86759,1.33413 1.40063,13.36821 c 0.77035,7.35251 2.4536,17.49225 3.74055,22.53275 3.33473,13.06084 3.11515,16.08163 -1.53825,21.16196 -2.13299,2.32869 -4.88878,4.23398 -6.12398,4.23398 -1.23519,0 -3.17899,1.03116 -4.31956,2.29147 -2.24587,2.48167 -5.23882,2.67179 -17.18604,1.09174 z"
     id="path28"
     transform="scale(0.75000002)" />
  <path
     style="fill:#ffffff;stroke-width:0"
     d="m 430.0645,808.33494 c -5.45081,-3.77498 -14.99393,-7.46517 -19.3055,-7.46517 -1.33214,0 -4.32875,-0.98291 -6.65914,-2.18423 -2.33039,-1.20133 -5.75129,-2.62016 -7.60201,-3.15295 -4.37708,-1.2601 -5.7054,-6.09974 -4.82448,-17.57755 0.94876,-12.3617 3.39491,-19.03064 10.00517,-27.27713 7.34819,-9.16707 11.66837,-11.97029 17.37534,-11.27424 3.17462,0.38719 4.29651,0.10373 4.29651,-1.08556 0,-2.36288 3.82702,-1.96111 7.29358,0.76568 4.69372,3.69208 8.83209,11.72928 9.51561,18.4804 0.33796,3.33803 -0.21237,11.97762 -1.22294,19.1991 -1.01058,7.22147 -1.87365,17.27531 -1.91794,22.34186 -0.11562,13.22558 -0.48214,13.71204 -6.9542,9.22979 z"
     id="path30"
     transform="scale(0.75000002)" />
  <path
     style="fill:#ffffff;stroke-width:0"
     d="m 400.87876,712.14202 c -1.29704,-0.90848 -5.102,-2.69432 -8.45548,-3.96854 -6.17799,-2.34745 -12.61088,-7.41577 -12.61088,-9.9358 0,-0.75821 -1.80453,-5.02989 -4.01007,-9.49263 -2.20555,-4.46273 -4.01008,-8.64394 -4.01008,-9.29157 0,-0.64763 1.43842,-1.17751 3.19649,-1.17751 9.16827,0 32.55595,-9.52066 43.96992,-17.89928 4.96619,-3.64552 5.60166,-3.84713 6.1822,-1.9614 0.35588,1.15597 1.33121,3.64851 2.1674,5.53897 7.18478,16.24341 8.14573,20.70605 5.88961,27.35132 -2.22017,6.53935 -14.84061,19.81716 -20.33334,21.39245 -5.3795,1.54282 -9.2453,1.36349 -11.98577,-0.55601 z"
     id="path32"
     transform="scale(0.75000002)" />
  <path
     style="fill:#ffffff;stroke-width:0"
     d="m 313.93256,726.84606 c -1.50584,-1.16278 -3.74982,-1.58246 -6.54503,-1.22408 -3.10501,0.39809 -4.93123,-0.0424 -6.76329,-1.63134 -1.38036,-1.19718 -3.4841,-2.17669 -4.67499,-2.17669 -2.87912,0 -12.78293,-9.37903 -17.6557,-16.72017 -2.14795,-3.23601 -4.91645,-8.82246 -6.15223,-12.41432 l -2.24688,-6.53065 4.26015,-1.89723 c 2.34307,-1.04347 7.35363,-1.96468 11.13456,-2.04713 3.78093,-0.0824 8.16337,-0.66901 9.73876,-1.30347 5.84422,-2.35367 14.57201,-2.60273 28.08587,-0.80147 7.55343,1.00679 16.74136,2.10463 20.41762,2.43963 l 6.6841,0.60909 -0.38255,18.64221 c -0.43923,21.40341 -0.64415,21.90201 -10.28125,25.01444 -7.61163,2.45828 -22.45801,2.48215 -25.61914,0.0412 z"
     id="path34"
     transform="scale(0.75000002)" />
  <path
     style="fill:#ffffff;stroke-width:0"
     d="m 314.56793,790.51113 c 2.24229,-12.48403 5.17433,-18.71884 12.30632,-26.16864 3.54316,-3.70105 5.61946,-4.74393 12.56792,-6.31254 8.36967,-1.88945 13.12775,-1.59175 16.30977,1.02044 0.94523,0.77596 3.14865,1.75076 4.89649,2.16622 4.74314,1.12745 8.7049,10.872 9.61122,23.64025 l 0.705,9.93209 -5.04695,1.27083 c -4.49713,1.13239 -46.07036,5.95572 -51.33352,5.95572 -2.01187,0 -2.01242,-0.3906 -0.0163,-11.50437 z"
     id="path36"
     transform="scale(0.75000002)" />
  <path
     style="fill:#ffffff;stroke-width:0"
     d="m 278.41473,799.37644 c -9.86565,-3.94195 -30.78338,-22.57761 -35.43143,-31.56595 -2.30836,-4.46387 -1.49854,-6.33664 3.70473,-8.56752 9.50666,-4.07594 19.70176,-4.31833 30.66356,-0.72906 3.95668,1.29556 9.19107,6.4602 12.9759,12.80301 3.25793,5.4598 4.39658,17.93058 2.22757,24.39703 -1.42834,4.2583 -1.86188,4.59899 -6.12018,4.80941 -2.52062,0.12455 -6.12969,-0.39156 -8.02015,-1.14692 z"
     id="path38"
     transform="scale(0.75000002)" />
  <path
     style="fill:#ffffff;stroke-width:0"
     d="m 232.0124,728.98192 c 0,-8.19799 1.3803,-12.57179 6.60098,-20.9168 4.23415,-6.7681 8.56987,-11.45737 10.59353,-11.45737 2.34129,0 4.86967,8.5568 5.4167,18.33178 0.53424,9.5465 0.48041,9.79846 -2.72651,12.76272 -1.79934,1.66318 -6.21699,3.86324 -9.81701,4.88903 -3.60003,1.0258 -7.33799,2.16919 -8.30659,2.54088 -1.46286,0.56135 -1.7611,-0.48018 -1.7611,-6.15024 z"
     id="path40"
     transform="scale(0.75000002)" />
</svg>
