<?xml version="1.0" encoding="UTF-8" standalone="no"?>
<svg
   xmlns:dc="http://purl.org/dc/elements/1.1/"
   xmlns:cc="http://creativecommons.org/ns#"
   xmlns:rdf="http://www.w3.org/1999/02/22-rdf-syntax-ns#"
   xmlns:svg="http://www.w3.org/2000/svg"
   xmlns="http://www.w3.org/2000/svg"
   xmlns:sodipodi="http://sodipodi.sourceforge.net/DTD/sodipodi-0.dtd"
   xmlns:inkscape="http://www.inkscape.org/namespaces/inkscape"
   width="685.333"
   height="913.333"
   viewBox="0 0 514 685"
   preserveAspectRatio="xMidYMid meet"
   version="1.1"
   id="svg8"
   sodipodi:docname="face1.svg"
   inkscape:version="1.0.1 (3bc2e813f5, 2020-09-07)">
  <metadata
     id="metadata14">
    <rdf:RDF>
      <cc:Work
         rdf:about="">
        <dc:format>image/svg+xml</dc:format>
        <dc:type
           rdf:resource="http://purl.org/dc/dcmitype/StillImage" />
      </cc:Work>
    </rdf:RDF>
  </metadata>
  <defs
     id="defs12" />
  <sodipodi:namedview
     pagecolor="#ffffff"
     bordercolor="#666666"
     borderopacity="1"
     objecttolerance="10"
     gridtolerance="10"
     guidetolerance="10"
     inkscape:pageopacity="0"
     inkscape:pageshadow="2"
     inkscape:window-width="1920"
     inkscape:window-height="1027"
     id="namedview10"
     showgrid="false"
     inkscape:zoom="0.33290806"
     inkscape:cx="-740.07774"
     inkscape:cy="184.36271"
     inkscape:window-x="1912"
     inkscape:window-y="-8"
     inkscape:window-maximized="1"
     inkscape:current-layer="svg8"
     inkscape:document-rotation="0" />
  <path
     d="m 254.02619,209.79661 c -1.9002,0.30402 -3.6484,0.9881 -3.95243,1.52015 -0.30404,0.45606 -0.60806,0.60807 -0.60806,0.30405 0,-0.68409 -9.80508,2.12822 -11.09723,3.26835 -0.60805,0.45604 -1.0641,0.68408 -1.0641,0.38004 0,-0.30404 -1.44416,0.22803 -3.19235,1.14013 -1.8242,0.91209 -3.26835,1.52016 -3.26835,1.36814 0,-0.15202 -0.8361,0.30403 -1.90021,1.06411 -0.98811,0.68409 -2.43227,1.29214 -3.19235,1.29214 -0.76008,0 -1.36815,0.30405 -1.36815,0.76009 0,0.38004 -1.44415,1.14013 -3.19235,1.67218 -1.8242,0.53206 -3.95243,1.52017 -4.71251,2.28025 -0.83609,0.76008 -1.90021,1.36815 -2.43227,1.36815 -0.53205,0 -1.06412,0.30403 -1.21613,0.68407 -0.076,0.38005 -0.68407,0.8361 -1.29214,0.98811 -0.53206,0.15201 -1.8242,0.9881 -2.81231,1.90021 -0.9881,0.98811 -2.20424,1.74819 -2.73629,1.74819 -0.53206,0 -1.67219,0.83609 -2.43227,1.90021 -0.76008,1.06412 -1.74819,1.9002 -2.05221,1.9002 -0.98812,0 -3.49639,2.20425 -7.37281,6.23268 -1.8242,1.97621 -4.02844,3.80041 -4.78853,4.02845 -0.76009,0.22802 -1.52015,1.06411 -1.74819,1.74818 -0.22802,0.76009 -1.52017,2.50828 -2.88831,3.95243 -1.36815,1.44416 -4.18046,5.24457 -6.23268,8.36092 -2.05222,3.11634 -4.10445,5.92865 -4.48449,6.15667 -0.38004,0.22802 -0.60806,0.68407 -0.60806,0.9881 0.22802,1.52017 0,1.97621 -0.68409,1.59617 -0.45605,-0.30403 -0.53205,0.076 -0.22801,0.8361 0.38003,1.06412 0.22801,1.21613 -0.8361,0.83609 -0.9881,-0.38004 -1.29213,-0.22801 -0.9881,0.53205 0.22802,0.60807 -0.076,1.29215 -0.68408,1.52018 -0.60805,0.22802 -1.06411,1.21613 -1.06411,2.12822 0,0.98811 -0.53207,2.50829 -1.14014,3.42038 -0.68406,0.91211 -1.0641,1.97622 -0.9881,2.28024 0.15203,0.76009 -1.59618,7.06878 -2.50827,8.81697 -0.38004,0.76008 -0.53206,1.74819 -0.22802,2.20424 0.30402,0.45606 0,1.29215 -0.76009,1.74819 -0.98811,0.76008 -1.29214,2.50828 -1.52016,7.44882 -0.22804,3.49638 -0.91211,8.13288 -1.59617,10.1091 -1.67219,4.86452 -2.88832,21.89039 -2.28026,32.91158 0.30404,6.46071 0.98811,10.41314 2.58428,15.58169 2.58429,8.05688 4.63651,16.79784 4.63651,19.30611 0,0.98811 0.45605,2.7363 1.06411,3.80041 1.29215,2.58429 3.49639,11.93331 3.49639,14.89763 0,1.14012 0.53205,3.7244 1.14012,5.70062 1.14012,3.72441 2.7363,9.57704 3.11634,11.47726 0.15201,0.60806 0.38005,1.97621 0.60806,3.04032 0.22803,1.06412 1.14014,4.63651 1.97622,7.98087 1.59619,6.08066 1.67218,9.12101 0.38004,22.42244 l -0.68407,6.46072 c -0.15202,1.67218 -0.53205,4.25646 -0.76008,5.70062 -0.22802,1.44415 -0.60806,4.71251 -0.76009,7.22078 -0.53206,6.53671 -1.36814,11.78128 -1.9002,11.78128 -0.22803,0 -0.45605,1.14013 -0.53207,2.43227 -0.076,4.10444 -0.68406,8.2089 -1.0641,8.2089 -0.22803,0 -0.45606,0.60806 -0.53206,1.29215 -0.076,1.90018 -0.8361,4.63649 -1.44417,5.7006 -0.30402,0.45605 -0.60806,2.28025 -0.76007,3.95243 -0.30404,4.10445 -1.74819,11.47726 -2.96432,15.27767 -0.60807,1.67218 -0.98813,3.57239 -0.98813,4.18045 0.076,0.60807 -0.45603,2.35627 -1.14012,3.80042 -0.68407,1.44416 -1.9002,5.70063 -2.73628,9.50104 -1.52017,7.14478 -1.97623,8.66494 -4.56051,17.4819 -0.9121,2.88832 -1.59617,6.23269 -1.59617,7.37281 0,1.21612 -0.38004,2.12823 -0.83609,2.12823 -0.45605,0 -0.68408,0.60807 -0.45605,1.44414 0.15201,0.7601 0.076,1.90022 -0.30403,2.50829 -1.7482,3.19234 -3.11634,30.55533 -1.90021,39.3723 1.82419,13.37744 4.18045,20.75025 9.19701,27.97104 3.95242,5.77663 4.56049,6.46069 12.92139,14.97364 8.58894,8.66494 12.46537,11.78127 14.82162,11.78127 0.91211,0 1.44416,0.30404 1.21614,0.68407 -0.22802,0.38005 1.14012,1.06413 3.11634,1.52017 1.90021,0.53207 4.5605,1.44417 5.85264,2.12823 1.29213,0.7601 2.7363,1.36816 3.11634,1.44416 0.45605,0.076 1.8242,0.60807 3.04032,1.14013 1.29215,0.53205 2.81231,1.06411 3.42037,1.14012 0.60808,0.15202 3.19236,0.98811 5.70063,1.90021 2.50827,0.83609 5.62462,1.59617 6.99276,1.67219 1.29215,0.076 2.28025,0.38004 2.05223,0.68406 -0.22803,0.30405 0.45605,0.60807 1.52016,0.60807 0.98812,0 2.81232,0.38004 3.95244,0.76008 1.21612,0.53206 2.28024,0.53206 2.50827,0.15203 0.30403,-0.45606 1.97621,-0.45606 4.25647,0 7.90486,1.52016 27.74301,2.28023 34.20372,1.21612 l 8.20889,-1.14012 c 1.97622,-0.22803 3.80042,-0.76008 4.02843,-1.06411 0.22804,-0.38005 1.36816,-0.68408 2.66029,-0.68408 1.21614,0 2.20425,-0.22803 2.20425,-0.60807 0,-0.30404 1.44415,-0.60806 3.19235,-0.68408 1.67218,-0.15201 3.6484,-0.68406 4.33247,-1.29213 0.68408,-0.60807 2.50828,-1.29215 4.10444,-1.59618 1.52017,-0.30402 2.96434,-0.83609 3.19236,-1.14012 0.45605,-0.68408 7.14478,-3.04033 9.72906,-3.42037 0.91209,-0.15201 3.57238,-0.68407 5.85263,-1.14013 2.28026,-0.53205 4.78853,-0.98811 5.47259,-1.06411 0.7601,-0.076 1.97622,-0.76009 2.6603,-1.44415 5.16856,-4.86454 6.23269,-5.85264 6.68872,-5.85264 0.30405,0 1.52018,-0.8361 2.81232,-1.90021 1.21613,-1.06413 2.88831,-1.90021 3.7244,-1.90021 0.76007,0 1.36815,-0.38004 1.21613,-0.9121 -0.076,-0.45605 0.91211,-1.21614 2.12824,-1.67218 1.29213,-0.45606 2.73629,-1.44415 3.26836,-2.12824 0.53205,-0.76009 1.44415,-1.36815 1.90019,-1.44416 0.53207,0 2.43227,-1.8242 4.25647,-3.95242 1.90021,-2.20424 3.5724,-3.95244 3.80042,-3.95244 0.22803,0 0.38004,-0.30403 0.22803,-0.76008 -0.076,-0.53206 0.68407,-1.36815 1.74818,-1.90021 1.06412,-0.53205 1.90022,-1.29213 1.90022,-1.59617 0,-0.30404 2.05221,-2.50827 4.48448,-4.94053 6.46071,-6.38471 7.98087,-9.42503 7.75285,-15.42969 -0.076,-3.95242 -0.45606,-5.09255 -1.67218,-6.00465 -1.29215,-0.8361 -1.52018,-1.67219 -1.21614,-3.87642 0.60807,-4.40848 2.05222,-9.42504 3.26836,-11.24924 0.60806,-0.9881 0.83609,-1.74818 0.53205,-1.74818 -0.38004,0 -0.076,-0.38004 0.53207,-0.76008 1.14012,-0.68408 1.36814,-1.67219 1.8242,-8.74097 0.22801,-4.33245 0.98811,-8.81695 2.05221,-12.16132 0.38005,-1.29213 0.83609,-4.18045 1.06412,-6.4607 0.15201,-2.28025 0.68408,-6.15667 1.06412,-8.51292 0.38003,-2.35627 0.60807,-8.2089 0.38003,-12.92142 l -0.60806,-15.04964 c -0.30403,-6.61271 -2.35626,-19.15408 -3.49638,-21.43433 -0.38004,-0.68407 -1.59617,-6.68873 -2.6603,-13.30145 -1.14012,-6.61273 -2.35624,-12.38935 -2.73628,-12.92141 -0.45606,-0.53206 -0.45606,-0.98811 -0.076,-1.29214 0.45606,-0.30404 0.45606,-1.67218 0,-3.6484 -0.38004,-1.8242 -0.83609,-4.33247 -0.9881,-5.5486 l -0.98811,-7.60084 c -0.45606,-2.96431 -0.83609,-6.00465 -0.83609,-6.84073 -0.15202,-19.61015 0,-22.34644 1.90021,-36.86403 1.21613,-9.50103 3.6484,-21.43434 4.86453,-23.63858 0.38004,-0.68406 1.06412,-4.10444 1.52015,-7.60081 0.45606,-3.49639 1.14014,-6.68874 1.44416,-7.14478 0.38004,-0.38005 0.68409,-1.97622 0.68409,-3.42037 0.076,-1.44416 0.30402,-3.72442 0.53205,-4.94054 2.66029,-14.82162 3.11634,-23.94262 2.28024,-43.70476 -0.76007,-19.07809 -2.58427,-29.49122 -6.5367,-37.85214 -1.21613,-2.58427 -2.20425,-5.09255 -2.20425,-5.4726 0,-0.45604 -0.30403,-0.76007 -0.60806,-0.76007 -0.30403,0 -1.06412,-1.59618 -1.59617,-3.49639 -1.06412,-3.57238 -4.10445,-10.41314 -5.39659,-11.9333 -7.60083,-9.50103 -11.62927,-13.52946 -24.32264,-24.47466 l -6.46071,-5.77663 c -2.05223,-1.90021 -5.01656,-4.18047 -6.46072,-5.09255 -1.44415,-0.91211 -3.57237,-2.43227 -4.6365,-3.42037 -1.9002,-1.8242 -12.61737,-7.37282 -14.13753,-7.37282 -0.45605,0 -3.26835,-1.06411 -6.30869,-2.28025 -3.04033,-1.29213 -7.14478,-2.43225 -9.04499,-2.66029 -1.90021,-0.15201 -7.22078,-0.83608 -11.8573,-1.52016 -8.58893,-1.21612 -19.53413,-1.21612 -25.46277,-0.076 z m 28.73113,6.84073 c 2.66029,0.60807 5.32059,0.91211 5.92864,0.68408 0.60807,-0.22802 1.06413,0 1.06413,0.45605 0,0.53205 0.45605,0.83609 0.9881,0.76009 2.05223,-0.45606 15.96175,4.02843 19.53412,6.23267 0.60808,0.38005 1.8242,0.9881 2.6603,1.36816 2.12823,1.06411 5.01654,3.04033 8.81697,6.30869 1.8242,1.59617 4.48448,3.7244 5.85263,4.86452 3.19235,2.58428 3.04033,4.10445 -0.53205,6.15667 -2.50828,1.44416 -3.19236,1.59618 -4.94054,0.76008 -1.06412,-0.53206 -2.43227,-1.8242 -2.96433,-3.04032 -0.45605,-1.14014 -1.21614,-2.05223 -1.52016,-2.05223 -0.38004,0 -0.45605,-0.30403 -0.22803,-0.68408 0.60806,-0.91209 -2.35626,-3.34436 -3.34437,-2.73629 -0.91209,0.53205 -0.30403,5.4726 0.91211,6.99276 1.21613,1.52016 1.52015,4.78853 0.45605,4.94054 -1.74819,0.15201 -4.71252,0.38004 -9.27302,0.60806 -3.87642,0.22803 -4.63651,0.076 -5.85263,-1.44416 -0.8361,-0.9881 -1.44416,-2.35625 -1.44416,-3.04032 0,-0.68408 -1.06411,-1.90022 -2.35625,-2.66029 -1.97623,-1.14012 -2.50828,-1.21614 -3.42039,-0.38004 -0.76008,0.83608 -0.83608,1.74818 -0.15201,4.25645 0.45606,1.8242 1.06412,3.26836 1.44416,3.26836 0.38004,0 0.68407,0.45606 0.68407,0.98811 0,0.60807 -1.59617,1.36815 -3.7244,1.90021 -2.12823,0.45604 -5.24456,1.52016 -7.06877,2.35626 -6.3847,2.96433 -9.197,3.87642 -11.40124,3.87642 -1.36815,0 -3.42038,0.91211 -5.16857,2.28025 -1.74818,1.36814 -3.80041,2.28025 -5.16856,2.28025 -1.29214,0 -2.58429,0.38004 -2.81231,0.76008 -0.30403,0.45605 -0.76008,0.60806 -1.14012,0.38005 -0.38004,-0.22804 -1.44416,-0.076 -2.43227,0.30403 -1.74818,0.68407 -4.40848,-0.45606 -4.40848,-1.7482 0,-0.83609 -1.67218,-2.35625 -3.7244,-3.42037 -2.50828,-1.36814 -4.02844,0.76008 -3.42038,5.01655 0.30404,2.12823 0.15203,3.26835 -0.38003,3.34436 -0.98811,0.15202 -2.28025,0.45606 -2.50828,0.60807 -0.15201,0.076 -1.36814,0.30402 -2.81231,0.45605 -1.44415,0.076 -2.88831,0.76007 -3.26835,1.44416 -0.38005,0.68406 -1.06412,1.21613 -1.59617,1.21613 -2.50828,0.076 -5.54862,6.15666 -3.87643,7.75284 0.68408,0.76008 4.4845,-0.68408 4.33248,-1.52017 -0.30404,-1.29214 2.96432,-3.19234 7.5248,-4.40847 6.53672,-1.74819 6.00467,-2.12823 8.96898,7.82884 0.98813,3.57241 2.05223,5.77664 3.04034,6.30869 1.21613,0.68408 1.36815,0.60806 1.06412,-0.38003 -0.38005,-0.8361 -0.15201,-0.98812 0.76007,-0.68408 0.98812,0.38005 1.21615,-0.076 1.21615,-2.66029 0,-1.74819 -0.38006,-3.11634 -0.83609,-3.11634 -0.38006,0 -0.60807,-0.30403 -0.38006,-0.68407 0.22804,-0.38005 -0.076,-1.97621 -0.76007,-3.49639 -0.60807,-1.59617 -0.98811,-3.57238 -0.76009,-4.48449 0.53205,-1.9002 3.6484,-3.49637 6.99277,-3.49637 1.36815,0 2.73629,-0.38005 2.96432,-0.76009 0.22802,-0.45605 1.59617,-0.76008 3.04033,-0.76008 2.81231,0 7.2208,3.11634 7.2208,5.16857 0,1.44415 3.72439,5.47259 5.09255,5.47259 1.06411,0 1.14012,-0.38004 1.29213,-4.71251 0.076,-1.59618 -0.15201,-2.88833 -0.45605,-2.88833 -0.38005,0 -0.60806,-0.53205 -0.60806,-1.14011 0,-0.60806 -0.30404,-1.14013 -0.68407,-1.14013 -0.38005,0 -0.83609,-1.06412 -0.9881,-2.28025 -0.38005,-2.50827 1.21612,-4.56049 3.42036,-4.56049 0.68408,0 1.29214,-0.38004 1.29214,-0.76009 0,-0.45604 0.98811,-0.76008 2.12823,-0.76008 1.14012,0 2.43227,-0.30403 2.8123,-0.68407 0.45605,-0.38005 2.50828,-0.83609 4.71252,-0.9881 3.87642,-0.38006 3.87642,-0.38006 5.54861,2.58427 0.91209,1.59618 2.12822,2.88832 2.73629,2.88832 0.60807,0 0.91211,0.30403 0.68407,0.76008 -0.53205,0.83609 0,0.9121 2.50828,0.30402 1.59618,-0.45604 2.50828,-3.34435 0.98811,-3.34435 -0.38004,0 -0.83609,-0.9881 -0.98811,-2.28025 -0.22802,-1.67219 0,-2.35625 1.06412,-2.73629 0.76009,-0.22803 1.67218,-0.15203 2.12823,0.076 0.38004,0.22803 0.76008,0.076 0.76008,-0.30403 0,-1.14013 8.74095,-1.06411 11.93331,0.076 2.58428,0.9121 4.94054,0.30404 4.86452,-1.29213 0,-1.8242 3.5724,-4.25647 8.43692,-5.85265 l 5.16857,-1.67218 2.12823,2.43228 c 1.21612,1.36813 2.43226,2.43225 2.66029,2.43225 0.9121,0 13.45346,13.30145 13.45346,14.21356 0,0.53204 0.30404,0.9881 0.68408,0.9881 0.38004,0 0.8361,0.60807 1.14012,1.29214 0.45606,1.44416 1.52018,3.26836 3.72441,6.23268 0.68408,0.98811 1.29215,2.43226 1.29215,3.19235 0,0.83609 1.36814,4.78852 3.11633,8.89297 3.26836,7.75285 5.16856,14.74559 5.77663,21.05429 0.15202,2.05223 0.60807,6.68872 0.91209,10.26112 0.91211,9.34902 0.53207,43.24872 -0.53205,45.98502 -0.45606,1.21613 -1.21612,4.63649 -1.67218,7.60081 -1.29214,8.05689 -1.59618,9.80507 -2.28025,11.02121 -0.38004,0.68408 -0.83609,2.7363 -1.14012,4.5605 -0.22803,1.9002 -1.29215,6.84075 -2.35625,10.94519 -0.98812,4.10445 -1.8242,8.3609 -1.8242,9.34901 0,0.98811 -0.30405,2.43228 -0.68408,3.11635 -1.74819,3.34436 -2.96431,39.44829 -1.67218,48.79732 l 3.80042,25.08273 c 2.58427,16.4938 3.19234,19.83816 4.7125,25.84282 2.28025,9.19701 3.11634,26.52688 2.05223,42.18459 -0.53206,8.2089 -1.29214,12.54138 -2.05223,12.54138 -0.22803,0 -0.45605,1.14012 -0.53205,2.43226 -0.22803,5.70062 -1.8242,15.35367 -2.88832,16.49379 -0.53205,0.68408 -1.21614,2.20424 -1.44415,3.49639 -0.53207,2.96432 -1.59619,6.4607 -3.5724,12.08531 -1.67218,4.6365 -2.20423,8.13288 -2.50827,16.79783 -0.22803,5.24458 -0.30404,5.47261 -3.42037,8.36092 -1.74819,1.67218 -3.19234,3.42036 -3.19234,3.87643 0,0.45603 -1.52018,2.28023 -3.34438,3.95242 -1.8242,1.67218 -3.19234,3.26835 -2.96432,3.49638 0.22803,0.15201 -0.68408,0.91209 -1.97622,1.59617 -1.29213,0.60807 -2.35625,1.44416 -2.35625,1.8242 0,0.38003 -1.14013,1.21613 -2.43227,1.97621 -4.94054,2.50828 -6.30868,3.42039 -6.15667,4.10445 0.076,0.38004 -0.91209,1.14014 -2.28025,1.67219 -1.36815,0.53205 -3.72439,2.28024 -5.24457,3.87642 -3.26835,3.26835 -8.13288,5.77663 -12.0093,6.00466 -1.44416,0.15201 -2.96432,0.45604 -3.42037,0.68407 -0.38004,0.30403 -1.59619,0.53205 -2.58429,0.60807 -0.98812,0 -2.12824,0.45604 -2.43226,0.9881 -0.30403,0.45605 -1.21613,0.68408 -2.12823,0.45605 -0.9121,-0.22802 -2.35627,0.22803 -3.42038,1.06412 -0.9881,0.76008 -2.20424,1.44416 -2.66028,1.44416 -0.53206,0 -1.8242,0.60806 -2.88832,1.29213 -1.14013,0.76009 -2.35626,1.36816 -2.81231,1.36816 -1.90021,0.15202 -6.99277,1.29214 -8.43693,1.90019 -0.83608,0.38005 -3.57238,0.8361 -6.08066,0.98811 -2.50826,0.15202 -6.53671,0.83609 -8.89296,1.44417 -4.86453,1.29214 -14.89763,1.21612 -29.11117,-0.30403 -13.75751,-1.36815 -17.63393,-1.97623 -19.38212,-2.88832 -0.68407,-0.38005 -3.95243,-1.59617 -7.29679,-2.66029 -9.57705,-3.26836 -20.1422,-7.98087 -24.24665,-10.86918 -4.18045,-2.96432 -9.72906,-7.75284 -9.04498,-7.75284 0.22802,0 -1.06411,-1.44416 -2.88831,-3.26836 -3.5724,-3.49638 -11.62928,-13.30146 -11.62928,-14.06154 0,-0.30404 -0.60807,-1.36815 -1.29214,-2.43226 -0.76008,-1.06412 -1.44415,-2.66029 -1.59617,-3.42038 -0.076,-0.83608 -0.45604,-1.97622 -0.76008,-2.50827 -0.38004,-0.53205 -0.38004,-1.67219 -0.15201,-2.66029 0.38003,-1.21614 0.30402,-1.36815 -0.22803,-0.60806 -0.60807,0.83608 -0.98811,0.30402 -1.67219,-2.12824 -0.45604,-1.8242 -0.9881,-4.48449 -1.14012,-6.00466 -0.076,-1.59616 -0.30403,-2.81229 -0.38003,-2.81229 -0.98813,0 -0.98813,-28.88315 0,-30.78336 0.38003,-0.68408 0.76007,-3.11635 0.83607,-5.3966 0.15203,-2.28024 0.38006,-4.48448 0.60808,-4.86453 0.22801,-0.45603 0.45604,-1.8242 0.53206,-3.04033 0.076,-1.29213 0.22802,-2.43226 0.30402,-2.6603 0.076,-0.22801 0.22803,-0.76007 0.38004,-1.14012 0.076,-0.45604 0.22803,-0.91209 0.30404,-1.14011 0.076,-0.22802 0.30403,-1.52017 0.53205,-2.96433 0.15203,-1.44415 0.68409,-2.96432 1.06413,-3.49639 0.38004,-0.53204 0.53206,-1.14012 0.22801,-1.36813 -0.22801,-0.30404 -0.076,-0.53206 0.38005,-0.53206 0.53206,0 0.9121,-0.53207 0.9121,-1.14013 0,-0.68407 0.45605,-1.97622 1.06412,-2.88832 0.9121,-1.36814 2.20424,-7.60082 2.35626,-10.79317 0,-0.45604 0.22802,-0.91211 0.53205,-1.21613 0.30404,-0.22802 1.14013,-2.7363 1.90021,-5.70062 0.68409,-2.88832 1.59617,-5.4726 1.97622,-5.70063 0.45604,-0.30403 0.53206,-1.06411 0.30403,-1.67218 -0.22803,-0.60806 -0.076,-1.44416 0.30402,-1.8242 0.45606,-0.45605 0.91211,-2.7363 1.14014,-5.24457 0.15201,-2.43227 0.60807,-4.6365 0.9121,-4.86453 0.45604,-0.30403 0.76007,-2.43227 1.06411,-8.58893 0.076,-1.14013 0.30403,-2.05223 0.53205,-2.05223 0.30405,0 0.60807,-1.44415 0.68409,-3.26835 0.22802,-3.87642 1.21613,-10.03309 1.67218,-10.03309 0.15202,0 0.45604,-1.21615 0.98811,-4.18047 0.22802,-1.06411 0.45604,-2.05221 0.53205,-2.28024 0.076,-0.22803 0.15201,-0.98811 0.076,-1.7482 -0.076,-0.68406 0.22803,-1.29213 0.76008,-1.29213 0.60806,0 0.76009,-0.9121 0.38004,-3.04033 -0.22802,-1.67219 -0.15202,-3.04033 0.15202,-3.04033 0.38005,0 0.68407,-2.96433 0.76009,-6.61272 0.076,-3.5724 0.45605,-6.76474 0.83609,-7.06878 0.45605,-0.22802 0.76008,-2.20423 0.60807,-4.40847 -0.076,-2.20425 0,-3.95244 0.22802,-3.95244 0.68407,0 0.76008,-13.90952 0,-15.12565 -0.45606,-0.83609 -0.22802,-1.67217 0.53205,-2.58428 1.14012,-1.21613 1.14012,-1.44416 -0.30404,-3.04032 -1.8242,-1.97622 -2.28023,-3.19236 -2.8883,-8.89298 -0.30404,-2.28024 -0.7601,-4.5605 -0.98812,-4.94054 -0.30403,-0.45604 -0.53205,-2.05223 -0.60806,-3.64839 -0.076,-2.43227 0.15202,-2.81231 1.67218,-2.81231 0.9881,0 2.20425,0.60806 2.73631,1.36815 0.53205,0.83609 2.35624,1.67219 3.95242,1.97621 5.01655,0.9121 14.36558,11.9333 12.08532,14.21356 -0.38004,0.38003 -2.20424,0.83608 -3.87642,0.9121 -1.74819,0.076 -3.19235,0.38003 -3.19235,0.60805 0,0.30404 -1.06412,0.68408 -2.35626,0.8361 -2.88831,0.30403 -4.71252,2.50827 -2.96432,3.72441 0.60806,0.38003 2.50827,0.53205 4.18045,0.22801 l 3.95243,-0.53205 c 0.53206,0 0.76009,-0.30404 0.53206,-0.68407 -0.22803,-0.30404 -0.22803,-0.60808 0,-0.60808 0.15203,0 0.9121,-0.22802 1.67218,-0.53204 0.9121,-0.30404 1.14013,-0.22803 0.76008,0.38003 -0.38004,0.60808 0.076,0.91211 1.36817,0.91211 2.12822,0 4.25645,2.50826 4.25645,5.01653 0,0.91211 0.53206,2.6603 1.14012,3.80042 0.60807,1.21613 1.14013,3.04033 1.14013,4.18047 0,1.06411 0.30403,2.20424 0.68407,2.66028 0.91211,0.98811 1.90022,7.14478 1.06412,7.22079 -0.30404,0 -1.44416,0.15201 -2.50827,0.30403 -1.59617,0.22803 -9.121,0.98811 -10.71716,1.14012 -0.91211,0 -1.29215,2.81231 -0.53207,4.10445 0.53207,0.9881 0.98811,1.06413 2.35626,0.38004 0.91209,-0.53206 3.80041,-0.9881 6.4607,-1.06412 7.37281,-0.30403 7.37281,-0.30403 7.60084,15.35368 0.15201,12.46536 0.076,13.07343 -1.36815,13.52946 -2.43226,0.7601 -1.90021,3.34438 0.98811,4.56051 1.59616,0.60807 3.11633,2.20423 4.25646,4.33248 0.9881,1.82419 2.28024,3.80041 2.88831,4.48448 0.83608,1.06412 0.83608,1.36816 -0.076,2.12823 -0.60807,0.53207 -1.59617,1.06413 -2.12823,1.14013 -4.40848,0.91209 -6.68874,2.43227 -6.68874,4.5605 0,1.06411 2.88832,0.76007 4.71252,-0.45606 1.21614,-0.83608 2.43226,-1.21612 2.88832,-0.98811 0.38004,0.22803 0.76009,0.15203 0.76009,-0.30403 0,-0.38003 1.36813,-0.91209 3.04032,-1.21612 3.34437,-0.53206 7.29679,1.21612 8.05688,3.57238 0.22803,0.76008 0.9121,1.36815 1.52017,1.36815 0.60806,0 1.06412,0.38005 1.06412,0.83609 0,0.45606 0.45604,1.29214 1.06411,1.90021 0.60807,0.53206 1.21613,1.36815 1.36814,1.8242 0.15202,0.45604 0.76008,0.91211 1.36816,0.9881 0.60806,0.15202 1.59616,0.45605 2.12823,0.76008 0.53205,0.38005 0.91209,0.30405 0.91209,-0.15201 0,-0.98811 1.67218,-0.76008 2.43227,0.30404 0.30403,0.38003 1.21612,-0.076 2.05222,-1.06412 1.67219,-1.9002 2.12823,-3.87642 0.83609,-3.87642 -0.60806,0 -3.04033,-1.52017 -7.75284,-4.71252 -1.52016,-1.06411 -1.8242,-2.88831 -0.53205,-2.88831 0.38003,0 0.60806,-0.30403 0.38003,-0.60808 -0.15201,-0.30402 0.60807,-0.9881 1.82421,-1.52014 1.97621,-0.91211 3.42036,-3.49639 2.66029,-4.78853 -0.45606,-0.76009 -3.42037,0.076 -3.42037,0.9121 0,0.38004 -1.21614,0.68407 -2.6603,0.68407 -3.11634,0 -7.22079,-2.66028 -7.22079,-4.63651 0,-0.76007 -0.30403,-1.59617 -0.76008,-1.8242 -0.98811,-0.60806 -0.98811,-4.94054 0,-4.94054 0.45605,0 0.60807,-1.14011 0.30403,-3.04033 -0.30403,-1.59617 -0.22802,-3.57239 0.076,-4.33246 0.38004,-0.7601 0.76009,-2.05223 0.9121,-2.88833 0.15201,-0.76006 0.53206,-1.67217 0.9121,-1.9002 0.38004,-0.22803 0.83609,-1.90021 0.9121,-3.80041 0.22803,-3.19235 0.15201,-3.42037 -1.59616,-3.64839 -1.8242,-0.22804 -1.90022,-0.076 -1.90022,4.40846 -0.076,3.80043 -0.38004,4.94054 -1.59617,5.92865 -0.9121,0.76009 -1.8242,1.90022 -2.05223,2.58429 -0.83608,2.35625 -3.26836,1.44415 -3.42037,-1.21613 0,-0.38005 -0.38003,-0.91209 -0.8361,-1.14012 -0.45604,-0.30405 -0.83608,-5.09256 -0.9121,-12.54137 -0.15201,-10.41314 0,-12.16133 1.06412,-12.69338 0.91211,-0.53206 1.21614,-1.7482 1.14012,-4.86454 -0.15201,-3.87642 -0.30403,-4.18046 -3.04032,-5.70062 -1.67218,-0.91211 -3.04035,-2.35627 -3.34437,-3.49638 -0.22802,-0.98811 -0.83609,-1.8242 -1.29214,-1.8242 -0.45605,0 -0.60807,-0.22802 -0.30402,-0.45605 0.22802,-0.22804 0.076,-1.36816 -0.38005,-2.50827 -0.38005,-1.06411 -0.9121,-3.80043 -1.06411,-6.00465 -0.30405,-3.5724 -0.15202,-4.10446 1.36813,-4.71253 0.98811,-0.38004 1.52018,-0.68407 1.14013,-0.68407 -0.30403,-0.076 -0.076,-0.83608 0.53206,-1.82419 0.60807,-0.9121 1.29215,-2.81232 1.59617,-4.18046 0.45606,-2.35625 0.38004,-2.50827 -1.21612,-2.28025 -1.44416,0.15202 -1.8242,0.68408 -1.74819,2.66029 0.15202,3.26836 -2.28026,3.95243 -4.56051,1.21613 -0.83609,-1.06411 -3.87641,-4.40848 -6.68872,-7.2968 -2.88832,-2.96432 -5.16857,-5.70061 -5.16857,-6.00464 0,-0.38005 0.53206,-0.8361 1.14013,-1.06412 1.67218,-0.68409 1.52017,-4.86453 -0.22803,-4.86453 -0.76008,0 -1.67218,0.30403 -2.05221,0.68407 -1.44417,1.21613 -5.92865,2.35626 -6.76475,1.67218 -0.45605,-0.38004 -2.20423,-0.91209 -3.80041,-1.29214 -3.49639,-0.60805 -5.77663,-2.35626 -5.77663,-4.40847 0,-0.8361 -0.45606,-2.05223 -1.06412,-2.6603 -0.60807,-0.68407 -1.29213,-3.11633 -1.59618,-5.39658 -0.30402,-2.28025 -0.91209,-4.86454 -1.36814,-5.70062 -0.98811,-1.8242 -1.14012,-2.43227 -1.74819,-8.13289 -0.30403,-2.43227 -0.98811,-4.78853 -1.52017,-5.24456 -0.60806,-0.45607 -1.06411,-1.44417 -1.06411,-2.20426 0,-0.68406 -0.22803,-1.52016 -0.53206,-1.74819 -0.22802,-0.30404 -0.60806,-1.29215 -0.68408,-2.28025 l -1.06411,-5.85263 c -0.53206,-2.28025 -0.83608,-5.09255 -0.83608,-6.30869 0.076,-1.14011 -0.30405,-2.05222 -0.68409,-2.05222 -0.45604,0 -0.60806,-0.38004 -0.38004,-0.76008 0.30403,-0.45606 0.076,-1.29214 -0.38004,-1.90021 -0.60806,-0.68408 -0.60806,-1.14012 -0.15203,-1.14012 0.53207,0 0.7601,-3.72441 0.7601,-10.48915 0,-11.0212 0.22802,-12.76939 2.05222,-18.77405 0.60808,-2.12822 1.14013,-5.24457 1.14013,-7.06877 0,-1.74819 0.30403,-3.19235 0.60806,-3.19235 0.68408,0 2.20423,-5.47259 2.7363,-9.57704 0.15202,-1.29214 0.68408,-3.11634 1.14012,-4.02843 0.53206,-0.8361 0.68408,-1.59618 0.38005,-1.59618 -0.22804,0 -0.15202,-0.45605 0.22802,-0.98812 0.45605,-0.45604 0.9881,-1.82419 1.29215,-3.04033 0.22801,-1.14011 0.83609,-2.05222 1.21612,-2.05222 0.45605,0 0.76009,-0.53205 0.76009,-1.14012 0,-1.74819 1.67218,-4.94054 2.35625,-4.4845 0.38004,0.22804 0.68407,-0.15201 0.68407,-0.76006 0,-0.68409 0.38005,-1.21615 0.76009,-1.21615 0.45606,0 0.76008,-0.76007 0.76008,-1.74818 0,-0.9121 1.21614,-2.88832 2.6603,-4.33248 1.44415,-1.44415 2.66028,-3.19234 2.66028,-3.87641 0,-0.68409 1.14013,-2.28025 2.50827,-3.49638 1.29215,-1.21615 3.6484,-3.72442 5.16857,-5.54861 3.49638,-4.33247 9.72906,-10.64116 10.41313,-10.64116 0.38005,0 2.05223,-1.36815 3.80042,-3.04033 1.67219,-1.67218 3.6484,-3.04034 4.33247,-3.04034 0.60807,0 1.14012,-0.30403 1.14012,-0.60806 0,-0.38004 1.21614,-1.21614 2.6603,-1.90021 1.44416,-0.68408 2.66029,-1.59617 2.66029,-2.05222 0,-0.38004 0.53204,-0.53207 1.14012,-0.30404 0.60807,0.30404 1.14013,0.076 1.14013,-0.38004 0,-0.45604 0.60807,-0.83609 1.44415,-0.83609 0.76009,0 1.8242,-0.53205 2.35626,-1.14012 0.53205,-0.60807 1.8242,-1.14013 2.88831,-1.14013 1.06412,0 1.67218,-0.22802 1.44416,-0.53205 -0.45605,-0.45605 1.36815,-1.74819 4.02844,-2.96433 0.60806,-0.22803 2.58427,-1.14013 4.33247,-1.9002 1.82421,-0.76008 3.7244,-1.44417 4.33247,-1.44417 0.60807,0 1.59617,-0.53206 2.28026,-1.14011 0.60806,-0.68409 1.29214,-0.8361 1.59617,-0.45606 0.22803,0.45606 1.29214,0.30404 2.50827,-0.38004 1.14012,-0.53207 2.58428,-1.06411 3.26836,-1.06411 0.68407,0 1.44415,-0.22803 1.67218,-0.53206 0.30404,-0.22803 2.28025,-0.60807 4.4845,-0.76009 2.20423,-0.15202 4.10443,-0.45604 4.25645,-0.60806 0.76008,-0.76008 17.5579,0.38004 22.0424,1.44415 z"
     id="path2"
     style="stroke-width:0.760083" />
  <path
     d="m 323.26973,283.52465 c -0.60806,0.68406 -1.67217,1.21612 -2.50826,1.21612 -0.7601,0 -1.59618,0.53205 -1.82421,1.14013 -0.22802,0.60807 -1.14012,1.29214 -1.97621,1.59617 -0.8361,0.22802 -2.73629,1.59616 -4.25647,3.04033 -1.44415,1.36815 -2.96432,2.35626 -3.34435,2.12823 -0.30404,-0.22802 -0.60807,0.076 -0.60807,0.68407 0,0.60807 -0.83609,1.97622 -1.90021,3.11634 -1.06412,1.14013 -1.9002,2.35626 -1.9002,2.81231 0,0.38004 -0.30404,0.68407 -0.68408,0.68407 -1.14013,0 -5.16857,9.19701 -5.70063,12.92141 -0.30403,1.8242 -0.83608,3.80043 -1.29214,4.25647 -0.83609,0.98811 -0.53205,14.06153 0.38004,18.16598 1.59618,7.06876 2.88833,10.10911 7.2208,16.72182 3.11633,4.86453 5.01655,6.99276 6.00465,6.61272 0.53205,-0.15202 0.9121,0 0.9121,0.38004 0,0.60807 3.95243,2.6603 6.08066,3.04034 4.78852,0.91209 6.91675,0.9881 9.88107,0.22802 4.25647,-0.98811 4.48449,-1.06412 6.84076,-2.05221 1.90019,-0.8361 5.70061,-5.24459 5.70061,-6.68874 0,-0.45605 2.20425,-2.28025 4.94053,-4.10445 2.73631,-1.82419 4.86454,-3.7244 4.71253,-4.25646 -0.15202,-0.68408 0.30404,-0.8361 1.36814,-0.60807 1.06412,0.30404 1.52017,0 1.52017,-0.91211 0,-0.68406 0.45605,-2.20423 1.06412,-3.26835 1.36815,-2.58428 2.20424,-4.78852 2.28025,-6.23267 0.076,-0.60807 0.53206,-1.90022 1.06411,-2.81231 1.14012,-1.97622 1.21613,-13.07343 0.076,-17.32989 -0.9121,-3.6484 -1.21614,-5.39659 -1.36815,-8.13288 0,-1.14014 -0.60806,-2.50829 -1.21612,-3.19236 -0.60808,-0.60807 -1.14013,-1.67217 -1.14013,-2.35625 0,-1.36816 -4.25647,-8.2089 -6.76474,-10.79318 -1.97621,-2.05222 -5.62461,-4.02843 -7.90487,-4.33247 -0.91209,-0.076 -2.66028,-0.60807 -3.95242,-1.14012 -3.80043,-1.67219 -10.56516,-1.90022 -11.70528,-0.53205 z m 12.38936,6.99275 c 2.05222,0.60806 4.5605,1.59617 5.5486,2.20424 0.98811,0.68408 1.74819,0.98811 1.74819,0.76008 0,-0.22801 0.45605,0 1.06412,0.53205 0.60807,0.53207 0.9121,1.21615 0.76008,1.44417 -0.15201,0.30403 0.22803,0.68408 0.83609,0.9121 0.60806,0.30403 2.05222,2.43226 3.26835,4.86453 1.97623,3.95242 2.6603,6.08067 3.6484,12.38935 0.15203,1.06411 0.53208,2.73629 0.76009,3.8004 0.9121,3.72442 0.15201,16.56983 -1.06411,17.48191 -0.30404,0.22804 -1.06412,1.36815 -1.67219,2.66029 -2.58428,5.16857 -7.06876,9.19701 -10.41314,9.34902 -4.25646,0.15202 -5.39657,0.8361 -5.92864,3.19235 -0.30403,1.29214 -0.83609,2.43227 -1.21614,2.66029 -0.38004,0.30404 -0.68406,1.14013 -0.68406,1.90021 0,1.06412 -0.83609,1.67219 -3.04033,2.28025 -3.19236,0.83609 -5.16857,0.60807 -10.56516,-1.36814 -3.04032,-1.06412 -7.67684,-4.86454 -7.67684,-6.23269 0,-0.22803 -0.60806,-1.14012 -1.36814,-1.97621 -0.68408,-0.76009 -1.74819,-2.28026 -2.28025,-3.34437 -0.53206,-1.06411 -1.8242,-3.04033 -2.8123,-4.48449 -1.21615,-1.67217 -1.67219,-2.81231 -1.14013,-3.11633 0.53206,-0.38005 0.53206,-0.76009 -0.15202,-1.36816 -0.60807,-0.45604 -1.14012,-1.97621 -1.21614,-3.34436 -0.15201,-1.36814 -0.45603,-4.48448 -0.83608,-6.91675 -0.30403,-2.35626 -0.30403,-4.33247 0.076,-4.33247 0.30403,0 0.60806,-1.52017 0.60806,-3.34437 0,-1.82421 0.53206,-4.33247 1.14013,-5.47261 0.60807,-1.21612 1.14012,-2.73628 1.14012,-3.42036 0,-0.60807 0.83609,-1.97621 1.90021,-2.96432 1.06411,-0.98811 1.9002,-2.12823 1.9002,-2.6603 0,-0.45604 0.98811,-1.9002 2.20424,-3.19234 1.21612,-1.36816 1.97622,-2.58429 1.74819,-2.81231 -0.22802,-0.22802 -0.076,-0.45604 0.30403,-0.45604 0.45605,0 1.52017,-0.68408 2.43227,-1.52018 0.83609,-0.83608 3.19235,-2.50827 5.24458,-3.8004 3.26836,-2.12824 4.02843,-2.28026 7.82884,-1.8242 2.28026,0.22802 5.85264,0.91209 7.90486,1.52016 z m -14.51758,15.27766 c -1.36815,1.52018 -2.50827,2.96434 -2.50827,3.19235 0,0.30404 -1.14013,1.67217 -2.43227,3.11634 -2.50827,2.66029 -2.50827,2.73631 -2.43227,9.80507 v 7.14478 l 3.19235,2.88831 c 2.96433,2.81231 3.26836,2.88831 6.76474,2.43227 1.97621,-0.22802 4.25647,-1.06411 5.09256,-1.82419 0.76007,-0.7601 1.74818,-1.21614 2.12822,-0.98811 0.60806,0.38003 2.88832,-1.82421 6.68874,-6.30868 0.38004,-0.53207 0.76008,-1.29215 0.76008,-1.67219 0,-0.38005 0.53205,-1.21614 1.14013,-1.90022 1.44415,-1.36814 1.74818,-6.84073 0.45604,-8.36091 -0.53205,-0.60806 -0.76008,-1.44415 -0.60807,-1.74819 0.53205,-0.83608 -2.88832,-4.71251 -5.92864,-6.76474 -1.52016,-1.06412 -3.57239,-1.59617 -6.08066,-1.67217 -3.42037,-0.076 -4.02844,0.15201 -6.23268,2.66028 z M 220.1265,289.60531 c -3.57238,0.76007 -6.08067,2.05221 -9.27301,4.6365 -0.68407,0.53205 -2.43226,1.97621 -3.80042,3.11634 -1.44416,1.14012 -3.42037,3.49637 -4.56049,5.16856 -1.06412,1.74819 -3.26836,4.71251 -4.86453,6.61272 -1.59618,1.9002 -3.04032,4.5605 -3.19235,5.77662 -0.15202,1.29215 -1.06412,3.80042 -1.97622,5.54862 -3.72441,7.3728 -3.72441,29.79524 0.076,39.14426 a 27.507398,27.507398 0 0 1 1.06411,4.18045 c 1.36816,6.84076 9.045,14.44158 14.59359,14.44158 0.98811,0 1.7482,0.22802 1.7482,0.53206 0,1.06411 8.96897,1.36815 15.20165,0.53205 1.90022,-0.22802 5.16857,-0.45604 7.37281,-0.53205 4.18046,-0.15203 6.4607,-1.8242 8.36091,-6.08067 0.53205,-1.14012 1.74818,-2.35626 2.66029,-2.7363 1.67218,-0.60806 6.15668,-5.16856 7.82886,-7.82886 l 3.26835,-4.78852 c 3.19234,-4.56049 4.40849,-8.3609 5.09255,-15.58169 0.83609,-9.27301 1.14013,-22.0424 0.45605,-22.0424 -0.30403,0 -0.60806,-0.9121 -0.60806,-2.12823 -0.076,-3.04034 -1.7482,-9.27301 -2.58429,-9.27301 -0.38003,0 -0.68407,-0.53207 -0.68407,-1.14013 0,-0.60807 -0.38004,-1.14012 -0.8361,-1.14012 -0.38003,0 -0.60807,-0.30404 -0.38003,-0.68407 0.76007,-1.14013 -8.28491,-8.74096 -13.37746,-11.24923 -9.121,-4.48448 -15.50569,-5.77662 -21.58635,-4.48448 z m 9.197,5.70061 c 0.45605,0.30404 2.8123,1.29214 5.32059,2.28025 2.50826,0.9121 5.24456,2.05222 6.08066,2.58429 0.83609,0.45604 2.66029,1.36814 4.02844,2.05222 3.19233,1.59617 9.273,9.57704 9.273,12.31333 0,1.14014 0.38005,2.96434 0.83608,4.18046 1.21615,3.04034 0.91211,24.32266 -0.38003,29.94727 -0.76009,3.19234 -1.9002,5.39658 -3.80041,7.52482 -1.52017,1.67218 -2.73631,3.49638 -2.73631,4.02845 0,0.45603 -1.44415,2.12822 -3.11633,3.57237 -1.74819,1.44416 -3.72441,3.19235 -4.40848,3.80041 -2.58429,2.35626 -5.85264,4.10445 -7.2968,3.95244 -0.83609,-0.15201 -2.73629,0.45605 -4.33247,1.21613 -7.22079,3.72441 -22.87849,0.8361 -25.99483,-4.86453 -0.45606,-0.76007 -1.14012,-1.67218 -1.52017,-1.97622 -0.38004,-0.22801 -0.83608,-1.29213 -0.98811,-2.20423 -0.15202,-0.98811 -0.68407,-1.97622 -1.14012,-2.28025 -0.45605,-0.30404 -0.8361,-1.52017 -0.91209,-2.81231 0,-1.29215 -0.30405,-2.12823 -0.60807,-1.9002 -0.60807,0.30402 -0.9121,-1.59618 -0.68408,-3.11634 0.076,-0.45606 -0.15201,-1.44416 -0.60807,-2.28026 -0.38004,-0.9121 -0.9881,-2.66028 -1.21612,-3.87643 -0.8361,-3.57237 -0.60808,-16.03774 0.30402,-17.70992 0.45606,-0.83608 0.60807,-2.12823 0.38005,-2.7363 -0.30404,-0.68407 -0.076,-1.67218 0.38004,-2.28024 0.53206,-0.60807 0.83609,-1.36815 0.76008,-1.67219 -0.22802,-1.0641 1.36814,-4.48449 2.73631,-5.85263 0.68406,-0.76009 0.91209,-1.29215 0.45603,-1.29215 -1.14011,0 1.59618,-5.24458 2.81231,-5.32057 0.45605,0 0.91211,-0.68407 0.91211,-1.52017 0,-0.83609 0.38003,-1.52017 0.76008,-1.52017 0.45604,0 0.76009,-0.53206 0.76009,-1.14012 0,-1.36815 4.33246,-5.92865 6.30868,-6.68873 0.76008,-0.30403 1.14012,-0.83609 0.9121,-1.29215 -0.22803,-0.38004 0.22802,-0.76008 1.14012,-0.76008 0.83609,0 1.74819,-0.45604 1.97622,-1.06411 0.22802,-0.60807 0.98811,-0.9121 1.8242,-0.68407 0.76008,0.22803 1.59617,0 1.9002,-0.53206 0.53207,-0.9121 8.51293,-0.9121 9.88108,-0.076 z m -7.98088,24.47467 c 0,0.38005 -0.53205,0.68408 -1.14011,0.68408 -0.53206,0 -1.36816,0.53205 -1.7482,1.21612 -0.38004,0.68408 -0.91209,1.14012 -1.14012,1.14012 -1.44416,-0.22801 -2.05222,0 -2.05222,0.60808 0,0.45604 -1.06411,2.35626 -2.35625,4.25646 -2.20425,3.26836 -2.35627,3.80042 -1.82421,7.82886 0.60807,4.94054 1.29214,6.53671 4.02844,9.42502 3.57239,3.87643 7.52482,3.49638 13.37745,-1.29215 1.8242,-1.44415 3.42038,-2.50827 3.6484,-2.28024 0.15202,0.22802 1.21614,-0.60807 2.35627,-1.74819 1.44415,-1.44416 2.20424,-3.42037 2.73629,-6.91675 0.76008,-4.78853 0.76008,-4.78853 -1.67218,-7.82886 -1.36815,-1.67218 -3.42038,-3.57239 -4.71251,-4.25646 -2.50828,-1.29214 -9.50105,-1.90021 -9.50105,-0.83609 z m 46.89712,58.37437 c -1.9002,1.97621 -1.06411,7.37278 2.35626,14.89761 1.52017,3.34437 2.96432,6.23269 3.19234,6.46071 1.06412,0.9881 7.60083,11.24921 7.60083,11.9333 0,0.45605 0.53205,1.21613 1.14012,1.74818 0.68408,0.53207 0.98813,1.14014 0.7601,1.36816 -0.22803,0.22803 0.076,0.9121 0.68406,1.59618 1.06412,1.21612 7.98088,14.74559 10.8692,21.35832 0.83608,1.90021 1.97621,5.62461 2.43225,8.36091 l 1.29214,6.53672 c 0.15203,0.91209 0,1.8242 -0.30403,2.12823 -0.53205,0.60806 -0.60807,0.98811 -0.83609,5.5486 -0.15202,3.6484 -5.16856,8.2089 -9.80507,8.96898 -3.87643,0.68407 -16.11375,0.68407 -21.1303,0 -3.04034,-0.45606 -3.19235,-0.38004 -3.19235,1.67219 0,3.49637 1.14012,4.25646 5.62461,3.64839 2.28025,-0.22802 4.18047,-0.15202 4.40848,0.22802 0.22803,0.45605 1.14013,0.60807 1.97623,0.38005 0.83608,-0.22803 2.58427,0 3.87642,0.45604 1.44415,0.45604 2.8123,0.53207 3.26835,0.15202 0.45605,-0.30403 2.6603,-1.06411 4.86453,-1.59616 2.28025,-0.53207 4.25647,-1.36817 4.48448,-1.97622 0.15203,-0.53207 0.8361,-0.76009 1.44416,-0.53207 0.53207,0.22803 1.21614,-0.15201 1.52017,-0.76007 0.22803,-0.68409 0.9121,-0.98812 1.52017,-0.7601 0.60807,0.22804 1.06412,-0.076 1.06412,-0.76007 0,-0.68408 0.83609,-2.12823 1.8242,-3.34437 0.91209,-1.14013 1.59617,-2.58429 1.44415,-3.11634 -0.22803,-0.45604 0.076,-0.9121 0.53206,-0.9121 0.60807,0 0.76008,-0.68407 0.45606,-1.9002 -0.30405,-1.14013 -0.15203,-1.90021 0.30402,-1.90021 0.45605,0 0.60807,-0.83609 0.30403,-2.12824 -0.30403,-1.59618 -0.22802,-1.82419 0.38005,-0.91209 0.53205,0.68408 0.83609,0.76007 0.83609,0.22802 0,-0.45605 -0.30404,-1.14012 -0.76009,-1.36814 -0.38004,-0.22803 -0.76008,-3.04035 -0.76008,-6.15669 0,-3.49637 -0.30402,-5.62461 -0.83609,-5.62461 -0.45605,0 -0.60807,-0.68406 -0.30403,-1.52015 0.30403,-0.98811 0.076,-1.67219 -0.68408,-1.97622 -0.91209,-0.38005 -0.98811,-0.76009 -0.38004,-1.90021 0.45606,-0.98811 0.45606,-1.44415 -0.076,-1.44415 -0.38005,0 -0.76008,-0.68409 -0.76008,-1.44416 0,-1.67219 -2.88832,-6.91676 -3.80042,-6.91676 -0.30403,0 -0.9881,-1.52015 -1.44415,-3.42037 -0.45605,-1.90021 -1.21613,-3.42037 -1.59617,-3.42037 -0.45606,0 -0.76009,-0.53207 -0.76009,-1.14013 0,-0.60807 -0.30403,-1.14012 -0.68407,-1.14012 -0.38004,0 -0.9121,-1.06412 -1.21614,-2.28025 -0.30403,-1.29213 -0.83609,-2.28026 -1.21613,-2.28026 -0.38003,0 -0.68407,-0.45603 -0.68407,-1.0641 0,-0.60807 -0.53205,-1.67219 -1.21614,-2.35627 -0.68408,-0.60806 -0.9881,-1.67218 -0.76007,-2.28025 0.22801,-0.60806 0.15201,-1.0641 -0.15203,-1.0641 -1.44415,0.22802 -1.9002,-0.15203 -0.9121,-0.83609 0.76008,-0.45606 0.8361,-0.7601 0.22803,-0.7601 -0.53205,0 -0.9881,-0.38004 -0.9881,-0.83608 0,-0.45605 -0.68408,-1.36815 -1.52017,-2.05222 -0.83609,-0.76009 -1.97621,-2.81231 -2.50827,-4.71252 -0.60806,-1.97621 -1.44416,-3.34436 -1.97623,-3.19234 -0.53205,0.076 -0.83609,-0.22803 -0.60805,-0.7601 0.15202,-0.53205 -0.15202,-1.82419 -0.68408,-2.8883 -0.53207,-1.06413 -1.52017,-4.10445 -2.20424,-6.84076 -0.98811,-4.25646 -2.66029,-6.91675 -4.10445,-6.76473 -0.22803,0 -1.06411,0.60807 -1.8242,1.36816 z m 29.71925,151.25648 c -0.68409,1.52017 -8.36092,4.25646 -13.52948,4.7125 l -13.7575,1.29215 c -4.48449,0.38004 -8.51294,0.98811 -9.045,1.29214 -0.45604,0.30403 -5.70061,0.83609 -11.62926,1.14013 -12.23733,0.68406 -15.5817,1.06411 -20.37022,2.28025 a 67.054508,67.054508 0 0 1 -6.76473,1.52016 l -5.85264,1.21612 c -1.36815,0.22804 -2.50827,0.76009 -2.50827,1.06414 0,0.38003 -0.76009,0.91208 -1.67219,1.21612 -0.9121,0.22803 -4.18046,3.11634 -7.29679,6.30868 -7.44881,7.67685 -7.75285,8.05687 -7.75285,9.12101 0,0.53206 -0.83609,1.67217 -1.9002,2.50827 -1.06413,0.83609 -1.90021,2.12822 -1.90021,2.96432 0,0.83609 -0.53206,1.67218 -1.14013,1.9002 -0.60806,0.30404 -1.14013,1.06412 -1.14013,1.7482 0,0.68407 -0.76007,3.95243 -1.59616,7.29678 -1.36816,5.01656 -1.67219,8.51294 -1.74819,19.76216 l -0.076,13.60549 3.19235,3.26835 c 1.67218,1.8242 3.49637,3.26836 3.95242,3.26836 0.45605,0 0.83609,0.30403 0.83609,0.76009 0,0.38004 0.53206,0.76007 1.21614,0.76007 0.60806,0 0.9881,0.30403 0.76009,0.60807 -0.15203,0.30404 0.83609,1.36815 2.28024,2.35625 1.44415,0.98811 2.58428,2.05223 2.58428,2.43227 0,0.38005 1.06411,0.68407 2.35626,0.68407 1.29214,0 2.12823,0.30405 1.8242,0.76009 -0.22804,0.38004 0.22802,0.76009 1.06411,0.76009 0.76009,0 1.59618,0.38004 1.7482,0.76008 0.15202,0.45605 1.06411,0.9121 2.12823,1.14012 0.98811,0.22802 3.34436,1.44416 5.09255,2.66029 1.8242,1.29214 3.26835,1.97621 3.26835,1.59617 0,-0.60806 0.53207,-0.53205 1.52017,0.076 1.06411,0.68408 1.21614,1.06412 0.53207,1.52017 -0.53207,0.38005 -0.076,0.60806 1.14012,0.60806 1.14013,0 2.35626,0.60807 2.81231,1.29214 0.38003,0.76008 0.9881,1.14013 1.29214,0.8361 0.22802,-0.30404 1.21613,-0.15202 2.05221,0.30403 0.9121,0.45605 3.6484,0.83609 6.23268,0.76009 2.50828,0 4.71252,0.22802 4.94054,0.60806 0.45606,0.68407 6.53672,1.29214 7.22079,0.68407 0.22803,-0.22802 1.67219,-0.22802 3.26835,0 4.02845,0.68408 13.75751,-0.38004 15.20167,-1.67218 0.76008,-0.53206 3.34436,-1.44415 5.85263,-1.97622 2.50828,-0.53205 6.53672,-1.59616 8.96898,-2.43226 2.35626,-0.76008 4.71251,-1.44416 5.16857,-1.44416 0.45604,0 1.74818,-0.60807 2.8123,-1.44415 1.14013,-0.76009 3.26836,-1.67218 4.71251,-1.97622 1.44416,-0.30404 3.04034,-0.8361 3.49638,-1.21614 0.8361,-0.68406 2.12824,-0.60806 5.4726,0.45606 1.44416,0.45604 1.67218,0.98811 1.29214,2.58428 -0.30402,1.44416 0,2.50827 1.21613,3.80041 l 1.59618,1.67218 1.06411,-1.97621 c 0.60807,-1.21613 0.91211,-3.42037 0.68407,-5.39658 -0.15202,-2.20426 0.076,-3.72441 0.76009,-4.40849 0.60807,-0.53205 0.91209,-1.21613 0.68408,-1.36814 -0.38004,-0.38005 4.78851,-2.96432 8.81695,-4.40848 5.24457,-1.90022 7.60084,-3.19236 7.60084,-4.25647 0,-0.60807 0.30402,-1.06411 0.68408,-1.06411 0.30403,0 1.82419,-0.91211 3.26834,-2.12824 l 4.63652,-3.57239 c 1.14012,-0.83608 2.05222,-1.90021 2.05222,-2.43227 0,-0.45604 1.06411,-2.05221 2.35625,-3.42036 1.21613,-1.36816 2.50828,-3.42038 2.66029,-4.48449 0.22803,-1.06412 1.52017,-3.04033 2.73629,-4.40848 1.74821,-1.8242 2.12824,-2.6603 1.36816,-3.11634 -0.68407,-0.38005 -0.53206,-0.83609 0.53206,-1.59619 2.05222,-1.44415 4.02843,-5.47259 4.02843,-8.05688 0,-1.14011 0.45605,-3.04032 1.06412,-4.10444 1.8242,-3.49638 2.05223,-5.77663 0.76008,-7.06876 -0.68407,-0.68409 -1.29214,-2.12824 -1.44416,-3.19235 -0.30402,-2.88831 -2.8883,-10.18511 -3.57238,-10.18511 -0.30403,0 -0.60807,-0.30404 -0.60807,-0.68408 0,-0.30403 -1.67218,-3.19234 -3.72441,-6.30868 -6.30868,-9.57705 -18.318,-17.02585 -28.5031,-17.78595 -9.57705,-0.76008 -17.10187,-0.91209 -17.32988,-0.38004 z m 22.42243,7.60082 c 1.14013,0.45606 2.05223,1.14013 2.05223,1.59618 0,0.38004 0.76009,0.76008 1.59617,0.76008 0.9121,0 2.05222,0.45605 2.50828,1.06412 0.45605,0.60806 2.43226,1.97621 4.33247,2.96432 3.64839,1.9002 10.48914,8.81696 12.31334,12.46535 1.29214,2.58429 3.04032,9.72906 2.66029,10.94521 -0.30403,0.9881 -6.99276,1.74818 -14.7456,1.67217 -4.86454,-0.076 -5.77664,-0.30403 -9.42504,-2.7363 -3.80041,-2.58428 -6.5367,-6.08065 -5.70062,-7.3728 0.22803,-0.38004 -0.30402,-1.8242 -1.14012,-3.26835 -0.91211,-1.44417 -1.52016,-2.96432 -1.44416,-3.26836 0.30404,-1.14012 -0.9881,-4.86453 -1.59617,-4.86453 -0.30403,0 -0.38005,-0.83609 -0.15202,-1.90021 0.22803,-1.36815 -0.22803,-2.50827 -1.59617,-3.87642 -1.8242,-1.8242 -1.90021,-2.05222 -0.8361,-3.7244 0.98811,-1.52018 1.67219,-1.7482 5.09256,-1.52018 2.20423,0.15201 4.86453,0.60807 6.08066,1.06412 z m -20.06618,0.15203 c 1.74818,0.60805 2.28025,1.21612 1.97621,2.12823 -0.22803,0.68406 0.38004,3.80041 1.21613,6.91675 2.43227,8.58894 1.52017,17.93795 -1.97622,20.2182 -2.66028,1.74819 -10.86918,1.52016 -14.82161,-0.45605 -3.34436,-1.59617 -6.84074,-5.70062 -6.84074,-7.90487 0,-0.60806 -0.38004,-2.05221 -0.83609,-3.26834 -0.53206,-1.14014 -0.98811,-3.49639 -1.14013,-5.16858 -0.15201,-1.67217 -0.45605,-3.95243 -0.68407,-5.09255 -0.38005,-2.58428 0.98812,-3.26835 8.3609,-4.10444 2.12824,-0.22803 4.4845,-1.06412 5.32059,-1.8242 2.73629,-2.35625 5.47259,-2.81231 9.42503,-1.44415 z m -31.69545,9.72905 c 1.9002,4.10445 2.81231,13.30145 1.8242,18.16598 -0.68408,3.04033 -3.5724,7.44881 -5.77663,8.74095 -3.04035,1.8242 -13.30146,3.64839 -15.5817,2.81231 -1.67219,-0.60808 -3.49639,-2.96432 -3.87642,-4.94053 -0.076,-0.45606 -0.68408,-3.49639 -1.44416,-6.84076 -0.8361,-4.18045 -1.06412,-7.22077 -0.68408,-9.88107 0.38004,-2.05222 0.53206,-5.09255 0.38004,-6.61272 -0.22802,-3.49639 0.91211,-4.10445 9.197,-4.86453 3.04033,-0.22803 5.62463,-0.53206 5.70062,-0.60808 0.076,-0.076 2.20424,0.15203 4.63651,0.53207 4.02845,0.68408 4.48448,0.98811 5.62462,3.49638 z m -34.7358,-0.53206 c 1.7482,0.76008 1.90022,1.29214 1.90022,5.39659 0,5.16857 -1.90022,13.14944 -3.49639,14.74561 -0.60806,0.60806 -1.06411,1.52017 -1.06411,1.97621 0,1.36816 -3.64841,5.09256 -4.94054,5.09256 -0.60807,0 -1.14013,0.22802 -1.14013,0.60806 0,0.30404 -0.98811,0.98811 -2.28024,1.52017 -1.8242,0.83609 -3.42038,0.83609 -7.75285,0.15201 -5.77663,-0.83609 -8.96897,-2.81231 -8.96897,-5.39657 0,-0.76009 -0.83609,-2.35627 -1.90022,-3.5724 -2.43226,-2.96432 -2.35624,-4.48448 0.38005,-7.75284 2.88831,-3.34436 2.96433,-3.49638 5.54861,-5.39659 1.14011,-0.83609 2.05222,-2.12824 2.05222,-2.81231 0,-1.14012 0.15201,-1.14012 0.76007,-0.15202 0.53207,0.76009 0.76009,0.83609 0.76009,0.15202 0,-0.53206 0.83609,-1.29215 1.90021,-1.67218 1.06412,-0.38003 1.90021,-1.06412 1.90021,-1.52017 0,-0.45605 0.38003,-0.60807 0.76008,-0.38004 0.45605,0.30403 1.21613,0.15201 1.74819,-0.22803 0.53206,-0.38004 2.35626,-0.68406 4.18046,-0.68406 1.74818,0 3.42036,-0.22803 3.7244,-0.45606 0.76009,-0.83609 3.80042,-0.60806 5.92864,0.38004 z m 101.47106,36.25595 c 0,0.38005 0.9121,0.9121 2.05223,1.21615 1.21613,0.30402 2.58428,0.83608 3.04034,1.29212 1.59617,1.29214 1.14011,5.09256 -0.8361,6.99277 -0.9121,0.98811 -1.97621,2.28025 -2.20424,2.88831 -1.59617,3.26836 -6.53671,9.72906 -7.44881,9.72906 -0.45605,0 -1.67218,1.06412 -2.7363,2.28025 -3.42038,4.18046 -8.58893,5.77663 -8.58893,2.7363 0,-0.68406 -0.45606,-2.66029 -1.06412,-4.40848 -1.36815,-4.10446 -1.97622,-12.08531 -0.98811,-11.47724 0.45604,0.30402 0.60807,0 0.30403,-0.76009 -0.30403,-0.76009 0.45605,-2.12824 2.28025,-3.95243 1.44416,-1.44416 2.81231,-2.66029 3.04033,-2.66029 0.22803,0 1.36816,-0.68407 2.58428,-1.59617 1.21614,-0.8361 2.50827,-1.29215 2.96432,-1.06411 0.38005,0.22801 0.76009,0.076 0.76009,-0.38005 0,-0.45605 0.30404,-0.60806 0.76009,-0.38004 0.38003,0.22801 1.36814,0.076 2.05222,-0.30405 1.67217,-0.9881 4.02843,-1.06411 4.02843,-0.15201 z m -37.47208,2.05223 c 1.29215,-0.53206 7.22079,5.39658 8.89297,8.89297 0.68408,1.59617 1.52016,4.56049 1.7482,6.61272 0.30402,2.50827 1.0641,4.4845 2.20423,5.70062 3.80041,4.10444 4.25647,7.75284 0.60808,5.39659 -2.50829,-1.67218 -2.58429,-1.59618 -2.58429,2.20424 0,2.58427 -0.30404,3.57239 -1.29214,3.95243 -0.76008,0.22803 -2.05223,1.06412 -2.88831,1.74818 -0.8361,0.76009 -3.34437,1.74821 -5.54862,2.28026 -2.12822,0.45605 -4.18044,1.21613 -4.40848,1.59617 -0.22802,0.38004 -0.9121,0.68408 -1.59616,0.68408 -0.60807,0 -2.12824,0.68407 -3.34438,1.59617 -1.21612,0.83609 -2.96432,1.59617 -3.87642,1.67219 -0.9881,0 -1.97621,0.38003 -2.20424,0.68407 -0.22802,0.38004 -1.59617,0.83609 -3.04033,1.06411 -2.28025,0.38004 -2.73629,0.22803 -3.49638,-1.44416 -0.68406,-1.44415 -0.60807,-2.05222 0.22803,-2.96432 1.06412,-0.98811 2.12823,-8.28491 2.05223,-13.30144 -0.076,-0.98811 0.15201,-1.59618 0.53205,-1.36816 0.45605,0.30403 1.67217,-10.26112 1.59618,-14.36557 0,-0.76007 0.91209,-3.11633 2.05223,-5.16855 1.52015,-2.81231 2.81229,-4.10446 4.94053,-4.94055 1.52016,-0.60807 2.81229,-1.44416 2.81229,-1.82419 0,-0.38004 1.29215,-0.15202 2.81232,0.45606 1.52016,0.68406 3.26836,0.9881 3.80041,0.83608 z m -30.93537,2.88831 c 2.20424,1.44415 3.34437,2.96432 4.5605,6.3087 1.52016,3.87641 1.59618,5.32057 1.21614,12.38935 -0.22803,4.40847 -0.76009,9.19699 -1.14013,10.64115 -1.90021,7.14478 -1.67219,11.0212 0.76007,11.78128 2.28025,0.76008 1.7482,1.59618 -1.74818,2.88832 -8.2089,2.88832 -10.10911,3.11634 -21.73837,2.12823 -6.15667,-0.53206 -12.54137,-1.14013 -14.21354,-1.44416 -2.73631,-0.53205 -3.04034,-0.76007 -2.88832,-2.73629 0.076,-1.21614 0.45605,-2.43227 0.9121,-2.6603 0.38004,-0.22801 0.9121,-2.20424 1.21612,-4.25646 0.30404,-2.12823 0.7601,-4.18046 1.06412,-4.56049 0.22803,-0.45606 0.45605,-2.20424 0.53207,-3.87642 0.076,-1.74821 0.68406,-3.95244 1.36814,-4.94054 0.68408,-0.98811 1.21613,-2.6603 1.21613,-3.80041 0,-1.06413 0.22803,-2.20424 0.60807,-2.50829 0.30403,-0.30402 0.53205,-0.83609 0.53205,-1.06411 0.076,-0.60808 2.73631,-4.86453 3.42037,-5.4726 0.22803,-0.22803 1.29215,-1.59617 2.28026,-3.04033 2.8123,-4.10445 6.15667,-6.76474 9.12099,-7.2968 1.44416,-0.22801 3.04034,-0.53205 3.42038,-0.76007 1.8242,-0.68409 6.84074,0.45605 9.50103,2.28024 z m -50.01345,2.50827 c 1.21614,1.14013 2.50827,3.26836 2.88832,4.78853 0.38004,1.44415 1.44415,3.6484 2.28024,4.94053 0.8361,1.21614 1.52017,2.7363 1.52017,3.34437 0,0.60807 0.45605,1.67219 0.98811,2.28026 2.28025,2.58426 3.04032,8.05687 2.05221,13.52947 -0.53205,2.8123 -1.29214,5.62461 -1.74817,6.15667 -0.7601,0.9121 -3.57241,0.98811 -4.33248,0.076 -0.22803,-0.30404 -2.96433,-1.7482 -6.08066,-3.26835 -3.11634,-1.52018 -7.22079,-3.80043 -9.04499,-5.09257 -3.80041,-2.8123 -6.00466,-7.06877 -4.71252,-9.197 0.45606,-0.76008 0.53206,-1.36815 0.22803,-1.36815 -0.38004,0 -1.21614,-1.21613 -1.9002,-2.7363 -1.29215,-2.58428 -1.29215,-2.81231 0.22801,-4.86452 0.83609,-1.14013 1.52018,-2.50829 1.52018,-2.96432 0,-0.45606 0.83609,-1.29215 1.74818,-1.97622 0.98811,-0.60808 2.20424,-1.97622 2.73631,-2.88832 2.05222,-3.87641 7.98086,-4.25647 11.62926,-0.76008 z"
     id="path4"
     style="stroke-width:0.760083" />
  <path
     d="m 252.83514,668.44427 c -5.53263,-0.20675 -18.00332,-1.37043 -25.2986,-2.36081 -10.85778,-1.47381 -33.96277,-10.69817 -41.90184,-16.72791 -3.4181,-2.59645 -11.03945,-10.50054 -17.3755,-18.02157 -3.88706,-4.61294 -7.12045,-10.81218 -7.55522,-14.48262 -0.19763,-1.66685 -0.57539,-2.89667 -0.83989,-2.73325 -0.80872,0.50014 -1.11656,-0.5351 -2.37374,-7.98239 -1.52321,-9.0237 -1.6471,-24.11895 -0.28047,-34.11936 1.91845,-14.03646 4.04212,-24.64265 5.09104,-25.42705 0.71295,-0.53358 3.035,-7.45717 3.65447,-10.89731 0.62024,-3.44546 3.09962,-12.03134 4.5453,-15.74055 0.45453,-1.16521 1.14088,-4.02616 1.52625,-6.35658 0.38536,-2.33041 0.99495,-5.46424 1.35447,-6.96235 0.35952,-1.49814 0.84825,-4.49514 1.08615,-6.65985 1.0246,-9.33686 4.59014,-27.26418 5.55013,-27.90492 0.29566,-0.19762 0.51837,-1.5597 0.49633,-3.02741 -0.07,-4.60534 1.08996,-15.9625 1.82193,-17.83154 0.41652,-1.06413 0.76996,-6.44551 0.87332,-13.29158 0.095,-6.32692 0.37169,-11.98727 0.61415,-12.57861 0.29339,-0.71524 -0.1026,-1.85917 -1.1804,-3.41429 -1.09984,-1.58705 -1.809,-3.67348 -2.20652,-6.49186 -0.32229,-2.28406 -0.84901,-5.10625 -1.17129,-6.27221 -0.32228,-1.16596 -0.58755,-3.00461 -0.58907,-4.0862 -0.003,-1.6205 0.22955,-1.96787 1.31951,-1.96787 0.7274,0 1.88576,0.49938 2.57288,1.10973 0.68711,0.61035 2.52118,1.57793 4.07556,2.15028 3.42113,1.25945 7.60311,4.82956 10.13571,8.65277 2.77353,4.18731 2.3783,5.64438 -1.5331,5.64438 -2.8275,0 -9.235,2.44367 -9.62416,3.6712 -0.67876,2.13812 0.22727,2.5478 4.9565,2.24453 3.46598,-0.22271 4.67451,-0.54727 5.34794,-1.43655 0.49862,-0.65901 0.87789,-0.82622 0.88931,-0.39221 0.0107,0.41653 0.58526,0.75704 1.27693,0.75704 1.79607,0 4.79688,3.20831 4.79688,5.1298 0,0.87485 0.40056,2.36539 0.89082,3.31244 0.49025,0.94706 1.07172,2.90885 1.29365,4.35908 0.22195,1.45024 0.63772,2.9362 0.92503,3.30332 0.28731,0.36712 0.69091,1.8964 0.8969,3.4006 0.37397,2.72567 0.36864,2.73478 -1.66382,3.0905 -1.12113,0.19611 -4.08241,0.53967 -6.57928,0.76388 -2.49687,0.22423 -4.88125,0.678 -5.29702,1.00863 -0.90222,0.71753 -0.98052,2.53641 -0.17406,4.04364 0.53662,1.00256 0.83305,1.02308 3.76469,0.26299 1.75048,-0.45376 4.75128,-0.82544 6.66821,-0.82544 5.38671,0 5.58432,0.51306 5.84732,15.20469 l 0.21357,11.9295 -1.57565,1.03219 c -2.25287,1.47608 -1.9633,3.02665 0.95847,5.14348 1.39399,1.01016 3.73049,3.65601 5.19213,5.88153 2.48622,3.78522 2.58732,4.09609 1.57109,4.83945 -0.59743,0.43705 -2.148,1.08007 -3.44546,1.42972 -2.57516,0.6932 -5.47944,3.17562 -5.09255,4.35223 0.40512,1.23057 2.64205,1.18496 5.17312,-0.10642 1.31647,-0.67115 2.5782,-1.03599 2.80394,-0.81025 0.22576,0.22575 0.62252,0.0685 0.88094,-0.35039 0.59362,-0.95999 4.35452,-1.59466 6.40447,-1.08008 1.68357,0.4226 5.83742,4.26787 8.1496,7.54458 1.6471,2.33422 5.40191,4.23974 6.1065,3.09886 0.32684,-0.52902 0.77148,-0.50242 1.77024,0.10641 1.21232,0.73805 1.46848,0.64606 2.80242,-1.00331 0.80721,-0.99874 1.46013,-2.22476 1.44949,-2.72414 -0.0108,-0.49937 -1.79457,-1.9975 -3.96536,-3.32992 -2.1708,-1.33242 -4.38264,-2.89819 -4.91469,-3.48041 -0.89918,-0.98355 -0.76998,-1.24122 1.81659,-3.63244 2.60861,-2.41174 3.09961,-3.27671 2.92252,-5.14653 -0.0973,-1.02839 -1.99977,-0.95542 -3.4371,0.13226 -0.64606,0.48873 -2.02029,0.89765 -3.05325,0.9083 -1.96481,0.0206 -5.58053,-2.05526 -6.29576,-3.61343 a 67.80699,67.80699 0 0 0 -1.11656,-2.26201 c -0.88019,-1.70334 -0.9045,-4.19946 -0.0464,-4.73 0.40816,-0.25234 0.51154,-1.45707 0.27514,-3.21439 -0.2835,-2.10542 -0.0447,-3.72136 0.95088,-6.44323 0.73119,-1.99749 1.35674,-5.13054 1.39018,-6.96234 0.0577,-3.16044 -0.0198,-3.33905 -1.52472,-3.51387 -1.84548,-0.21435 -2.32813,0.91362 -2.34105,5.47032 -0.007,2.26656 -0.4188,3.42721 -1.97622,5.56228 -1.08236,1.48368 -2.28785,2.71502 -2.68005,2.73553 -0.39221,0.0206 -1.19182,-0.84824 -1.77708,-1.92984 -1.55436,-2.87236 -2.05222,-24.6244 -0.59134,-25.83674 0.70839,-0.5883 0.96227,-1.8964 0.96227,-4.96789 0,-3.57619 -0.19002,-4.31956 -1.33471,-5.2233 -1.49356,-1.17889 -4.69579,-4.39937 -5.63905,-5.67097 -0.83838,-1.13025 -2.10772,-7.58791 -2.10772,-10.72477 0,-1.73451 0.29719,-2.66941 0.92578,-2.91037 1.11126,-0.4264 3.28053,-4.99754 3.7533,-7.90637 0.32607,-2.00966 0.2721,-2.08187 -1.40769,-1.88957 -1.19713,0.13681 -1.80366,0.58071 -1.92679,1.41071 -0.46974,3.15891 -0.8285,3.93495 -1.81813,3.93495 -0.58145,0 -3.64079,-2.79254 -6.7997,-6.20532 -7.88206,-8.51823 -7.65859,-8.199 -6.39002,-9.12707 0.72589,-0.53053 0.98507,-1.40311 0.84673,-2.85184 -0.25005,-2.62076 -1.46012,-2.92327 -4.94508,-1.23588 -3.18097,1.53993 -3.38541,1.53993 -8.2492,0.016 -4.0824,-1.27997 -6.0761,-2.59872 -6.0761,-4.02161 0,-0.46136 -0.52292,-1.86371 -1.16292,-3.11784 -0.63999,-1.25415 -1.47988,-4.02769 -1.86752,-6.1658 -0.38765,-2.13811 -0.98051,-4.40164 -1.31799,-5.03175 -0.33747,-0.63011 -1.0109,-3.61876 -1.49736,-6.6416 -0.48646,-3.02285 -1.25337,-6.19316 -1.7041,-7.04369 -1.87056,-3.53363 -3.95319,-12.49652 -3.95319,-17.01522 0,-1.18193 -0.31544,-2.46418 -0.7008,-2.84955 -1.40387,-1.40388 -0.40893,-26.81419 1.21764,-31.09195 0.31696,-0.8338 0.89159,-3.67879 1.27695,-6.32312 0.38535,-2.64433 1.06563,-5.62461 1.51105,-6.62411 0.4454,-0.99953 1.14544,-3.4508 1.55588,-5.44904 1.03524,-5.03935 4.22682,-14.83302 4.83412,-14.83302 0.27593,0 0.68332,-0.82925 0.90602,-1.84321 0.22272,-1.01395 1.05728,-2.58048 1.85461,-3.48118 2.3783,-2.68613 2.46647,-2.8237 2.89288,-4.52249 0.22574,-0.89841 1.18572,-2.52424 2.13355,-3.61191 0.94783,-1.08769 2.19436,-2.89744 2.76898,-4.02008 2.37677,-4.63878 20.26001,-22.42625 25.64291,-25.50534 0.87334,-0.49937 1.95723,-1.24881 2.40947,-1.66458 0.45225,-0.41576 1.05347,-0.75704 1.33698,-0.75704 0.28352,0 1.40616,-0.74944 2.4946,-1.66459 1.08843,-0.91513 2.0659,-1.59009 2.17232,-1.49888 0.1064,0.0911 1.62049,-0.49481 3.36487,-1.30202 1.7444,-0.80721 3.78447,-1.64938 4.53391,-1.87133 0.74943,-0.22194 1.36206,-0.65291 1.36206,-0.95769 0,-0.66129 4.34616,-2.8716 9.38399,-4.77105 l 4.84324,-1.87133 c 0.66583,-0.27514 1.89184,-0.63999 2.72414,-0.81099 0.83229,-0.17103 3.42037,-0.90756 5.75155,-1.638 5.83515,-1.82876 21.65399,-1.99444 31.48186,-0.32987 3.66284,0.62022 6.91828,1.36587 7.23447,1.65775 0.3162,0.29187 1.33471,0.52977 2.26277,0.52977 2.75607,0 13.12284,3.56327 18.695,6.42498 4.79688,2.46419 17.14139,11.85957 18.32331,13.94677 0.81862,1.44415 0.0107,2.5455 -2.90503,3.9623 -2.72794,1.32558 -2.74998,1.32634 -4.31955,0.15279 -0.86801,-0.64836 -2.19512,-2.33422 -2.94989,-3.7457 -0.75475,-1.41148 -1.71321,-2.978 -2.13126,-3.48118 -0.97672,-1.17736 -2.80167,-1.17661 -3.25393,7.7e-4 -0.44692,1.16368 0.15356,4.35678 1.21615,6.47133 0.45224,0.89919 0.82164,2.2947 0.82164,3.10039 0,1.42363 -0.17177,1.4776 -6.03429,1.89336 -3.31853,0.23563 -6.60132,0.24778 -7.29452,0.0281 -0.69319,-0.21967 -1.85765,-1.65242 -2.59265,-3.19463 -1.42058,-2.98028 -4.42976,-5.25901 -6.09889,-4.61826 -1.68131,0.64532 -0.82394,8.72424 0.92578,8.72424 1.71474,0 -0.67648,1.33242 -4.35908,2.42922 -2.31826,0.69015 -6.0533,2.0849 -8.3001,3.09886 -2.24681,1.01394 -5.81464,2.20956 -7.92843,2.65724 -2.11379,0.4477 -4.97474,1.56197 -6.35658,2.47712 -1.38183,0.91513 -3.60278,1.89945 -4.93445,2.18751 -7.64871,1.65774 -8.17926,1.71855 -9.37562,1.07856 -0.67039,-0.35875 -1.21918,-1.02916 -1.21918,-1.48976 0,-1.05804 -3.66283,-3.35804 -5.34718,-3.35804 -1.75199,0 -2.6504,1.98533 -2.41706,5.34263 l 0.19687,2.83052 -4.23824,1.05577 c -2.33117,0.5807 -4.51108,1.42592 -4.84553,1.87969 -0.33442,0.45376 -1.20625,1.01394 -1.93744,1.24576 -1.76188,0.55943 -3.81182,3.96536 -3.81182,6.33378 0,1.6319 0.21663,1.89642 1.55362,1.89642 1.93821,0 3.89541,-1.01017 3.89541,-2.00968 0,-1.60148 8.22562,-4.8972 11.33208,-4.54073 1.56425,0.17938 1.83864,0.6552 3.8445,6.65757 2.86172,8.56538 3.64764,9.49191 6.10651,7.20103 1.4852,-1.38412 1.35599,-3.53591 -0.60048,-9.95937 -0.9516,-3.12395 -1.10972,-4.46017 -0.63465,-5.3487 0.80188,-1.49813 4.1052,-2.8982 6.8377,-2.8982 1.15684,0 2.27113,-0.27211 2.4771,-0.60579 0.63316,-1.02383 4.73532,-0.66659 6.80048,0.59287 1.13099,0.6894 2.5037,2.35626 3.25162,3.94636 1.42896,3.03956 3.69476,5.14727 5.5334,5.14727 1.10288,0 1.17813,-0.34659 0.9691,-4.48676 -0.1596,-3.16499 -0.53585,-4.82881 -1.27693,-5.64742 -1.85308,-2.04767 -0.94934,-6.21141 1.34915,-6.21141 0.63011,0 1.55512,-0.40892 2.0545,-0.90829 0.49937,-0.49938 1.40463,-0.91134 2.01118,-0.91438 0.60655,-0.003 2.43987,-0.41197 4.07481,-0.9083 5.14728,-1.56122 6.77157,-1.26706 8.54941,1.54905 0.85053,1.34763 1.94429,2.60329 2.42922,2.7895 0.48493,0.18621 0.88246,0.73956 0.88246,1.22982 0,0.68939 0.44541,0.79504 1.96785,0.46441 1.08236,-0.23487 2.16776,-0.73349 2.41251,-1.10744 0.61339,-0.93871 0.57463,-2.65954 -0.07,-3.05782 -0.29342,-0.18089 -0.66357,-1.01319 -0.82318,-1.84776 -0.32684,-1.70943 0.86421,-3.05553 2.23768,-2.5288 0.49329,0.18926 1.05728,0.0836 1.25414,-0.23486 0.48112,-0.77832 9.09438,-0.73196 11.96142,0.0639 2.89973,0.80493 4.43357,0.31923 5.41179,-1.71551 1.03219,-2.14647 3.93951,-4.02161 8.68167,-5.59952 l 3.9091,-1.30051 5.23317,4.74367 c 4.80373,4.35376 12.13929,12.26622 13.98248,15.08157 3.7647,5.75078 5.56305,9.21677 7.20179,13.87835 l 4.06569,11.5031 c 2.72337,7.66543 3.73656,13.59408 4.65398,27.24365 0.80797,12.01235 0.38841,40.32315 -0.64987,43.90087 -0.33672,1.16064 -1.28606,5.65272 -2.10923,9.98139 -0.82317,4.32869 -1.87968,9.36879 -2.34789,11.19982 -0.46822,1.83106 -1.70944,7.41615 -2.75759,12.41064 l -2.80315,13.31887 c -2.26506,10.70499 -2.72261,39.89599 -0.83837,53.4323 1.95417,14.03721 5.82223,37.31399 7.46856,44.9475 0.82623,3.8293 1.79077,10.0954 2.14497,13.92471 1.24577,13.48159 0.50013,35.00409 -1.42515,41.16837 -0.46822,1.49812 -1.26782,5.92103 -1.77784,9.82786 -0.51001,3.90683 -1.34688,7.99379 -1.85992,9.08148 -0.51306,1.08768 -1.77176,4.83792 -2.79711,8.33431 l -3.02893,10.2558 c -0.64911,2.17307 -1.40312,7.33859 -1.70259,11.66879 l -0.53813,7.76956 -3.10114,3.27901 c -1.70562,1.80367 -3.1095,3.49943 -3.11938,3.76924 -0.0175,0.46365 -7.97251,8.78048 -10.57656,11.05769 -0.66583,0.58223 -2.77354,1.93441 -4.68439,3.0046 -1.91084,1.07021 -3.68108,2.2833 -3.93494,2.69602 -0.25388,0.41272 -1.53537,1.40235 -2.84804,2.20044 -1.31266,0.79809 -3.74872,2.66029 -5.41407,4.13865 -3.30255,2.93316 -6.60207,4.6099 -10.36145,5.26587 -1.33167,0.23257 -3.91975,0.82468 -5.75154,1.31721 -1.8318,0.49254 -4.28307,1.10591 -5.44904,1.36359 -1.16596,0.25766 -4.29826,1.55969 -6.96236,2.89287 -2.66409,1.33319 -6.06546,2.6299 -7.55977,2.87996 -1.49433,0.25007 -3.67957,0.79581 -4.85694,1.2108 -1.17736,0.41501 -3.9053,0.941 -6.06242,1.16825 a 134.53466,134.53466 0 0 0 -8.462,1.24958 c -4.98538,0.91894 -10.45038,1.28605 -16.04382,1.07704 z m 13.92472,-30.85024 c 1.66457,-0.68636 6.84151,-2.27417 11.50309,-3.52831 4.66159,-1.25413 9.75491,-2.92024 11.31764,-3.70312 1.56274,-0.78288 4.58178,-1.99446 6.70773,-2.69298 3.58456,-1.17661 4.02692,-1.20169 6.07989,-0.34431 1.99447,0.83381 2.17917,1.1006 1.85918,2.69829 -0.28123,1.40539 0.0182,2.19132 1.44416,3.78674 l 1.79911,2.01346 0.98582,-1.9063 c 0.61186,-1.18268 0.98583,-3.38692 0.98583,-5.80779 0,-5.28865 1.30354,-6.61652 9.85524,-10.03993 3.58911,-1.43655 6.85822,-3.08593 7.26488,-3.66512 0.40663,-0.57918 3.00992,-2.7629 5.78573,-4.85312 2.77583,-2.09024 5.20733,-4.23975 5.40572,-4.77637 0.19838,-0.53662 1.28834,-2.20196 2.42314,-3.70008 1.13481,-1.49813 2.43302,-3.60736 2.88527,-4.68592 0.45226,-1.07856 1.68359,-3.03349 2.7363,-4.34311 1.05272,-1.30963 1.73452,-2.67245 1.51409,-3.02817 -0.22043,-0.35571 0.41804,-1.67066 1.41831,-2.92175 1.00028,-1.2511 2.13736,-3.63776 2.52728,-5.30235 a 73.211179,73.211179 0 0 1 1.84701,-6.25927 c 1.41754,-4.02845 1.41906,-4.97551 0.0129,-7.47922 -0.61872,-1.10135 -1.45177,-3.50094 -1.85156,-5.33199 -1.9291,-8.84204 -11.60647,-21.53466 -20.49184,-26.87728 -7.236,-4.35072 -13.5538,-5.76219 -25.94848,-5.79639 -6.01604,-0.0168 -7.01707,0.13834 -9.38398,1.44947 -3.74189,2.07351 -8.66493,3.15283 -18.08768,3.96611 -4.49513,0.38765 -10.51422,1.08769 -13.37594,1.55438 -2.86171,0.46668 -10.7164,1.26477 -17.45454,1.77174 -6.73814,0.50698 -14.06837,1.34839 -16.28934,1.86829 a 483.13906,483.13906 0 0 1 -9.76022,2.13203 c -3.1475,0.65216 -5.87164,1.3864 -6.05407,1.63114 -0.18241,0.24475 -1.49583,1.23437 -2.91871,2.19968 -2.9362,1.99218 -14.06153,13.36302 -14.06153,14.37165 0,0.36407 -0.81709,1.59238 -1.81659,2.73022 -0.99952,1.13783 -1.81661,2.3821 -1.81661,2.76517 0,0.38309 -0.50621,1.25946 -1.12492,1.94658 -0.69852,0.77681 -1.72387,4.11508 -2.70666,8.81773 -1.3043,6.23875 -1.65014,9.90691 -1.97166,20.88707 l -0.38915,13.31893 3.63395,3.32992 c 4.00716,3.6712 5.40647,4.84324 5.78424,4.84324 0.13756,0 1.65622,1.36208 3.37476,3.02742 1.99217,1.93061 3.65295,3.02742 4.58254,3.02742 0.80188,0 1.62886,0.2759 1.83712,0.61262 0.20826,0.33671 2.19968,1.46316 4.4252,2.50371 2.22553,1.04055 4.99527,2.53564 6.1544,3.32308 1.15912,0.78744 2.72564,1.432 3.48117,1.432 0.78364,0 1.37271,0.36939 1.37271,0.86117 0,0.47353 0.9539,1.17585 2.11911,1.56045 1.16521,0.38461 2.11911,0.90374 2.11911,1.15304 0,0.60959 6.97833,1.86373 10.66472,1.91617 1.62658,0.0235 3.50246,0.29035 4.16829,0.59287 0.66584,0.30251 5.97882,0.47125 11.80562,0.37548 9.05943,-0.14974 11.03336,-0.35572 13.62219,-1.42287 z m 19.37147,-162.82495 c 2.66485,-0.87561 5.32209,-2.00738 5.90508,-2.51511 0.58299,-0.50774 1.05957,-0.74414 1.05957,-0.52598 0,1.06184 4.4822,-2.18144 5.45358,-3.94636 2.89896,-5.26585 3.73201,-7.22686 3.41735,-8.04775 -0.18775,-0.49025 -0.0813,-1.05195 0.23714,-1.24881 0.31846,-0.19686 0.57918,-0.86422 0.57918,-1.48217 0,-0.61794 0.34051,-1.23894 0.75704,-1.37955 0.5807,-0.19533 0.55105,-0.50393 -0.12693,-1.32481 -0.52143,-0.63088 -1.06792,-3.21668 -1.33242,-6.30413 -0.59516,-6.94868 -1.1234,-9.77468 -1.82648,-9.77468 -0.31924,0 -0.41273,-0.52749 -0.20751,-1.1728 0.20522,-0.64532 0.12389,-1.66687 -0.18015,-2.27037 -0.30403,-0.60351 -1.26706,-2.66408 -2.14114,-4.57874 -0.8741,-1.91464 -1.85386,-3.48117 -2.17764,-3.48117 -0.3238,0 -0.99267,-1.36054 -1.48597,-3.02285 -0.49328,-1.66231 -1.59313,-3.93496 -2.4429,-5.04848 -0.84977,-1.11352 -1.84471,-2.8868 -2.21184,-3.93875 -0.36713,-1.05195 -0.91286,-1.91388 -1.2131,-1.91388 -0.30022,0 -0.54649,-0.51154 -0.54649,-1.13633 0,-0.62478 -0.40892,-1.47608 -0.9083,-1.89033 -0.49937,-0.41423 -0.90831,-1.40158 -0.90831,-2.19284 0,-0.79124 -0.28881,-1.4396 -0.6415,-1.4396 -0.35268,0 -0.47506,-0.26907 -0.27136,-0.59818 0.20371,-0.32912 -0.35571,-1.35067 -1.24197,-2.27037 -0.88625,-0.91969 -2.40185,-3.37476 -3.36716,-5.45586 -0.96531,-2.08112 -2.02486,-3.7837 -2.35474,-3.7837 -0.32988,0 -0.5997,-0.37777 -0.5997,-0.83913 0,-1.41755 -4.17362,-13.80539 -5.15641,-15.30504 -1.1348,-1.73146 -2.33345,-1.79302 -3.92506,-0.20141 -3.29952,3.29951 0.11324,14.00985 8.68166,27.24366 5.17314,7.98998 5.84883,9.12022 5.84883,9.78682 0,0.34204 0.51155,1.34458 1.13709,2.22856 2.0796,2.93772 10.86539,21.03606 11.83981,24.38878 1.53841,5.2917 2.71806,12.26013 2.18904,12.92825 -0.26831,0.33823 -0.60806,2.13887 -0.75553,4.00031 -0.32759,4.14701 -1.92452,6.58004 -5.82298,8.87169 l -2.83587,1.66687 -25.42706,0.0775 -0.1885,1.59618 c -0.39903,3.37553 0.44769,3.85363 7.57575,4.28003 3.59518,0.2151 7.35456,0.64227 8.35331,0.9501 0.99874,0.30784 1.95189,0.58298 2.11684,0.61111 0.16494,0.0282 2.4809,-0.66432 5.14575,-1.53993 z m -58.21322,-95.35392 c 4.0482,-0.37699 8.12529,-1.07323 9.05942,-1.54676 0.93414,-0.47353 2.50296,-2.12899 3.48575,-3.67804 0.98278,-1.54905 3.07833,-3.78977 4.65778,-4.97854 5.13588,-3.8673 12.18641,-14.24852 13.7309,-20.21745 1.03144,-3.98587 2.47711,-24.10527 1.95114,-27.16004 l -0.98051,-5.861 c -1.65851,-10.05437 -9.29962,-18.47989 -21.6616,-23.88407 -15.54218,-6.7944 -26.38476,-2.89439 -38.61754,13.89127 -2.921,4.00792 -5.07432,7.67684 -5.77207,9.83471 a 181.92583,181.92583 0 0 1 -2.49307,7.07484 c -1.27465,3.35654 -1.38031,4.5985 -1.39247,16.34634 -0.0121,12.13701 0.0646,12.98831 1.69651,18.76798 0.94022,3.32992 2.12671,7.22685 2.63596,8.66038 1.17508,3.3056 6.68265,9.29581 9.69638,10.54538 7.28539,3.02058 11.29636,3.38922 24.00417,2.20652 z m 103.92384,-17.81709 c 2.41099,-0.72057 4.03985,-1.73299 5.9028,-3.66817 1.41528,-1.47 2.57288,-3.06617 2.57288,-3.54654 0,-0.48037 2.05602,-2.39426 4.56962,-4.25266 2.5136,-1.85841 4.72164,-3.77609 4.90786,-4.26179 0.18622,-0.48569 0.92426,-0.88246 1.6395,-0.88246 0.91894,0 1.50801,-0.57767 2.00661,-1.96785 l 2.61013,-7.11362 c 2.24148,-6.05786 2.94,-13.24216 1.8964,-19.52425 l -1.34837,-8.17316 c -0.36789,-2.24757 -1.0284,-4.768 -1.46697,-5.60029 -0.43856,-0.83229 -1.39171,-2.81687 -2.11834,-4.40924 -2.42543,-5.3145 -6.16352,-9.73058 -9.73059,-11.49246 -8.26514,-4.0824 -16.69447,-5.15107 -21.69505,-2.74997 -1.52016,0.72967 -3.03652,1.63113 -3.36944,2.00205 -0.33291,0.37092 -1.69498,1.41604 -3.02741,2.32205 -5.29246,3.60052 -6.46071,4.6555 -8.59731,7.76501 -1.22144,1.77784 -2.62152,3.63471 -3.11102,4.12648 -1.20625,1.21083 -3.46065,6.41435 -5.06897,11.70148 -1.80596,5.9355 -2.18145,18.08237 -0.76009,24.60084 1.21384,5.56686 4.02237,11.61256 8.06525,17.35878 2.47634,3.51994 3.70994,4.65931 6.75788,6.24637 2.05071,1.06714 4.86301,2.18143 6.24864,2.47558 3.29648,0.70003 8.9515,0.28806 13.11446,-0.95618 z m -119.11486,11.51222 c -1.7482,-0.47051 -4.25418,-1.40465 -5.5699,-2.07579 -2.5683,-1.31039 -6.69024,-6.17644 -6.69024,-7.89878 0,-0.57767 -0.40892,-1.38869 -0.9083,-1.80368 -0.49937,-0.41501 -0.9083,-1.52169 -0.9083,-2.46039 0,-0.93871 -0.2721,-1.87512 -0.60578,-2.08035 -0.33368,-0.20522 -0.61415,-1.10744 -0.62554,-2.00358 -0.0114,-0.89614 -0.54651,-3.12773 -1.19106,-4.95878 -2.62152,-7.45336 -0.79352,-25.97962 3.11558,-31.57536 0.61719,-0.88398 1.12265,-2.05526 1.12265,-2.60328 0,-1.47684 1.63569,-4.36972 2.7021,-4.77864 0.51153,-0.19611 0.93034,-0.91058 0.93034,-1.58706 0,-0.67647 0.23941,-1.22981 0.53205,-1.22981 0.29263,0 0.86497,-0.80416 1.27162,-1.78619 0.81709,-1.97242 7.5613,-8.50609 8.78122,-8.50609 0.42338,0 1.1067,-0.40588 1.51789,-0.90146 0.41122,-0.49558 0.94022,-0.78289 1.17433,-0.63847 0.23412,0.14441 1.60226,-0.14214 3.03958,-0.63695 3.41885,-1.17812 6.78982,-0.66659 13.34857,2.02563 11.27508,4.62738 16.06055,8.25905 18.69728,14.18998 2.59113,5.82756 3.40974,14.78589 2.54629,27.8692 -0.65444,9.91299 -1.48901,12.64474 -5.17997,16.95744 -1.17661,1.37423 -2.13888,2.84348 -2.13888,3.26456 0,0.83229 -8.72271,8.75007 -10.95583,9.94493 -0.75477,0.40437 -2.75379,1.08463 -4.44116,1.51256 -1.68739,0.42793 -4.15842,1.19713 -5.49009,1.70942 -3.02285,1.16217 -9.85295,1.18573 -14.07521,0.0487 z m 10.20108,-25.78582 c 1.13176,-0.37852 3.42189,-1.69954 5.08875,-2.93543 1.66686,-1.23591 3.93798,-2.71654 5.04771,-3.2904 2.46722,-1.27619 4.08849,-4.673 4.64638,-9.73591 0.37473,-3.40441 0.28276,-3.79357 -1.46544,-6.19392 -2.9073,-3.99119 -5.82224,-5.60713 -10.8783,-6.03126 -3.04869,-0.25538 -4.31651,-0.15809 -4.31651,0.33141 0,0.38155 -0.36637,0.69319 -0.81405,0.69319 -0.4477,0 -1.30735,0.54499 -1.91009,1.21082 -0.60273,0.66583 -1.53005,1.22144 -2.06134,1.23513 -0.5313,0.0137 -1.97926,1.76035 -3.23568,3.91291 -1.84927,3.16802 -2.2696,4.4822 -2.26657,7.08929 0.006,6.10802 2.21261,10.76352 6.27221,13.23988 2.20271,1.34306 3.08137,1.41376 5.89368,0.47353 z m 98.38131,8.77516 c -5.71354,-1.75428 -7.81441,-3.58531 -12.75267,-11.11393 -4.51792,-6.88787 -5.24001,-8.20357 -4.76648,-8.6771 0.19839,-0.19839 -0.13985,-1.39173 -0.75096,-2.65271 -0.91057,-1.87815 -1.10515,-3.71223 -1.07704,-10.1623 0.0303,-6.93271 0.22651,-8.40803 1.64482,-12.38479 0.8855,-2.48318 2.28785,-5.22253 3.11635,-6.08751 0.82849,-0.86496 1.50648,-1.77326 1.50648,-2.01953 0,-0.91894 4.85769,-6.8377 6.7807,-8.26134 5.9294,-4.39024 8.02876,-5.45207 10.762,-5.44219 6.04191,0.0235 17.16192,3.50398 18.4723,5.78271 0.33673,0.5845 1.07932,1.55436 1.65091,2.15483 4.65398,4.89189 8.19446,20.21593 7.17062,31.0357 -0.339,3.58531 -0.9083,6.33149 -1.43656,6.93575 -0.48113,0.55032 -1.32178,1.88198 -1.86753,2.95978 -2.43378,4.80448 -7.43665,8.6353 -11.27734,8.6353 -2.20577,0 -4.21769,0.94554 -4.23214,1.98913 -0.005,0.40437 -0.75856,2.22248 -1.6737,4.03984 -2.19665,4.36211 -5.03024,5.18452 -11.26976,3.26836 z m 7.54763,-23.15744 c 0.94859,-0.70157 2.08794,-1.27542 2.53107,-1.27542 1.30127,0 5.65502,-4.86377 7.67152,-8.56918 1.38031,-2.53716 1.86297,-4.21314 1.86297,-6.4721 0,-1.67675 -0.27212,-3.21744 -0.6058,-3.42341 -0.33367,-0.20599 -0.60578,-0.90907 -0.60578,-1.56274 0,-1.45176 -4.41913,-6.35962 -6.86582,-7.62515 -0.98052,-0.50698 -3.53364,-0.96303 -5.67402,-1.01319 -4.36516,-0.10261 -4.1987,-0.2265 -10.61761,7.92006 l -2.87539,3.64992 -0.0107,14.97667 2.88071,2.59493 c 2.85944,2.57516 2.90885,2.59264 6.7313,2.33497 2.658,-0.17938 4.38491,-0.6552 5.5752,-1.53536 z m -86.61677,299.87319 c -4.16222,-0.45072 -8.21117,-1.10895 -8.99709,-1.46391 -1.54602,-0.69776 -1.53993,-0.99799 0.11857,-6.05863 0.49101,-1.49813 1.17433,-4.22301 1.51712,-6.05405 2.34486,-12.50336 4.38873,-17.77074 9.56793,-24.65937 4.09077,-5.43991 6.46298,-7.27703 10.8882,-8.43313 3.82244,-0.99799 6.52378,-0.72587 9.88182,0.99647 2.99624,1.53689 4.56734,3.40822 6.10651,7.27324 1.21689,3.05476 1.29518,4.00563 0.95238,11.5031 -0.20523,4.49512 -0.77224,9.94416 -1.25946,12.10811 -1.38336,6.1468 -1.21917,8.86941 0.63999,10.59252 l 1.56805,1.45328 -2.26428,0.9463 c -6.9198,2.89135 -14.31768,3.35348 -28.72201,1.79531 z m -28.00296,-11.44381 c -8.98723,-4.8098 -10.90871,-6.28967 -12.53605,-9.65153 -1.04664,-2.16167 -1.1751,-2.96279 -0.63847,-3.9661 0.51838,-0.96836 0.47886,-1.451 -0.1695,-2.09936 -0.46288,-0.46288 -1.20777,-1.72462 -1.65394,-2.80242 -0.73805,-1.78164 -0.68255,-2.186 0.61262,-4.44116 2.19057,-3.81562 7.30973,-9.33686 9.29887,-10.03006 2.30532,-0.80341 5.79638,0.10261 7.48224,1.94278 0.6894,0.75324 2.40034,3.82093 3.80118,6.81793 l 4.38568,9.29202 c 1.74439,3.64536 1.82268,4.12877 1.5156,9.38398 -0.42184,7.22915 -1.23361,9.49495 -3.37552,9.41896 -0.88323,-0.0312 -4.80829,-1.77024 -8.72195,-3.86504 z m 0.4568,-45.95155 c -5.09862,-1.05728 -7.33555,-2.37908 -8.13743,-4.8083 -0.36866,-1.11731 -1.34536,-2.94608 -2.16928,-4.0634 -0.82394,-1.11733 -1.49585,-2.59188 -1.4928,-3.27595 0.0129,-2.70439 9.4577,-12.12028 14.86721,-14.82161 2.84727,-1.42212 12.12485,-2.74923 14.92195,-2.13508 0.93338,0.20523 1.96633,0.87713 2.29697,1.49432 1.50876,2.81914 -0.23562,13.31057 -3.1095,18.70032 -1.80749,3.38921 -4.53617,6.71761 -5.50908,6.71761 -0.28428,0 -1.2549,0.53054 -2.15712,1.17813 -2.22628,1.59844 -5.17464,1.91312 -9.51092,1.01396 z m 32.8181,-0.49786 c -2.44746,-2.44747 -3.72896,-8.98038 -3.76621,-19.1959 -0.0403,-11.21274 -0.31088,-10.84258 8.67331,-11.87401 7.77641,-0.89233 13.56215,-0.16418 15.07168,1.89869 1.62809,2.22476 2.79482,7.77716 2.84803,13.55228 0.0486,5.25824 -0.0966,6.02137 -1.69119,8.89904 -0.95923,1.73148 -2.32128,3.6788 -3.02741,4.32792 -1.90325,1.75199 -6.73737,3.1893 -11.97357,3.56099 -4.34464,0.30782 -4.73077,0.23486 -6.13464,-1.16901 z m 29.87734,52.25265 c -0.44389,-0.82925 -0.35952,-1.65394 0.30631,-2.98789 0.50545,-1.01319 1.30582,-4.78928 1.77708,-8.38979 l 1.47607,-10.48231 c 0.33977,-2.16471 0.62403,-5.297 0.63087,-6.96235 0.008,-2.05907 0.56627,-4.18882 1.74287,-6.65985 1.84852,-3.88098 2.6793,-4.77788 6.37482,-6.88788 1.96253,-1.12034 2.65877,-1.23892 4.17664,-0.70916 1.0018,0.34965 2.48017,0.63545 3.28433,0.63545 1.69575,0 7.30516,5.29245 8.92109,8.41714 0.56474,1.09225 1.43124,3.92432 1.9253,6.29502 0.62706,3.00689 1.6243,5.39583 3.29876,7.90334 1.32025,1.97698 2.26657,3.72745 2.1039,3.8901 -0.16266,0.16266 -1.10593,-0.0395 -2.09554,-0.44921 -2.43151,-1.00711 -3.08291,-0.43477 -3.08291,2.70817 0,2.48016 -0.18773,2.78874 -2.7933,4.58102 -1.53612,1.05653 -4.32867,2.39123 -6.20531,2.9651 -1.87663,0.57385 -5.72799,2.06362 -8.55853,3.31092 -8.706,3.83613 -9.07007,3.96915 -10.89654,3.96915 -1.12113,0 -1.99979,-0.42184 -2.38743,-1.14544 z m 11.3982,-60.80663 c -2.86855,-1.06488 -5.65881,-3.08289 -7.08093,-5.12144 -1.22906,-1.76187 -3.40593,-9.94113 -4.01324,-15.0808 -0.45148,-3.81865 -0.13986,-4.05885 6.85063,-5.27877 3.11938,-0.54499 5.62385,-1.39247 7.12425,-2.41175 2.55996,-1.73982 6.15212,-2.0735 8.65811,-0.80492 1.55209,0.78516 1.79531,1.68358 3.75633,13.86466 0.96378,5.98946 0.0821,11.50386 -2.205,13.79096 -1.34307,1.34306 -2.12747,1.55664 -6.219,1.69573 -2.81763,0.0957 -5.55392,-0.16417 -6.87115,-0.65291 z m 37.64843,1.35143 c -4.56657,-1.4016 -10.33562,-6.71381 -10.33562,-9.517 0,-0.70915 -0.50849,-2.4543 -1.131,-3.87794 -1.65773,-3.79584 -3.10721,-8.59274 -3.10721,-10.28392 0,-0.81329 -0.68104,-2.11759 -1.51333,-2.89971 -1.80216,-1.69347 -1.88805,-2.50068 -0.40664,-3.84146 2.06439,-1.86829 9.40754,-1.01244 12.2168,1.42363 0.76541,0.66356 1.87817,1.20625 2.47407,1.20625 0.59591,0 1.25718,0.282 1.47001,0.62707 0.21282,0.34508 2.12595,1.72539 4.25115,3.06693 2.12519,1.34155 5.78195,4.49362 8.12604,7.00417 3.62027,3.87642 4.44116,5.16933 5.45283,8.58665 1.89261,6.39078 1.85689,7.45338 -0.26831,8.03712 -3.0259,0.83077 -14.98883,1.15609 -17.22956,0.46821 z m -8.44908,37.74648 c -2.14952,-8.92413 -1.75275,-12.49957 1.79759,-16.19586 2.6755,-2.78571 6.03277,-4.64866 11.00676,-6.10878 3.13078,-0.91894 3.59823,-0.92958 4.54074,-0.10187 0.57765,0.50699 1.73146,1.12417 2.56375,1.37045 0.83229,0.24626 1.85385,0.72055 2.27037,1.05423 1.07932,0.86346 0.92958,3.51157 -0.30556,5.4095 -5.11459,7.85774 -8.49392,12.19554 -11.70603,15.02608 -4.42215,3.89695 -5.83287,4.79232 -7.59627,4.82197 -1.13025,0.0191 -1.45631,-0.64987 -2.57061,-5.27573 z"
     fill="#ffffff"
     id="path6"
     style="stroke-width:0.760083" />
  <path
     style="fill:#483737;stroke:#483737;stroke-width:0.570062px;stroke-linecap:butt;stroke-linejoin:miter;stroke-opacity:1"
     d="m 421.04505,255.99605 c -15.0546,9.99215 -24.33056,11.5863 -52.36676,14.00276 -31.46752,2.71219 -64.97107,2.19768 -97.46991,2.29476 -33.32795,0.0996 -65.47779,1.546 -99.9689,-1.7561 -8.33536,-0.79801 -24.0847,-2.38147 -35.72777,-4.47765 -16.76209,-3.01776 -20.41776,-1.35165 -28.68689,-6.63902 -6.11786,-3.91184 -11.763297,-10.89856 -13.364017,-17.20405 -1.904464,-7.50194 -0.492846,-16.80833 2.848465,-24.21823 3.731872,-8.276 11.087982,-14.60693 18.165952,-20.29213 6.067,-4.87318 22.10386,-6.39115 29.42396,-9.03169 14.29062,-5.15495 21.91108,-4.32151 35.76143,-10.56351 8.06379,-3.63414 15.47751,-9.38903 20.84412,-16.41975 6.17881,-8.0948 7.82668,-18.8043 11.90682,-28.13469 4.1984,-9.60075 10.37321,-18.49028 12.93667,-28.65048 3.73097,-14.787525 11.1019,-32.591431 3.20761,-45.640213 -8.8866,-14.688973 -31.40159,-13.890537 -47.18413,-20.646913 -6.75822,-2.893141 -20.11179,-1.169304 -20.34336,-8.5171 -0.21959,-6.966836 12.32215,-6.558816 18.74181,-9.274128 7.75156,-3.278649 15.53496,-6.835442 23.79719,-8.439049 16.26659,-3.1571712 34.02401,-7.5881431 49.66528,-2.118175 12.33791,4.314747 22.6401,14.656129 29.59672,25.721714 8.23555,13.09998 8.06424,29.878748 12.25371,44.774465 2.60113,9.248341 4.51498,18.736015 7.99839,27.689429 4.06595,10.45066 10.28409,19.93951 14.96132,30.13127 4.79666,10.45205 5.63158,23.32362 13.42308,31.78209 6.43502,6.98588 16.34838,9.89306 25.25209,13.20002 12.58116,4.67283 26.63514,4.46298 39.20633,9.1626 10.50971,3.92894 21.02609,8.68171 29.76393,15.72026 6.76514,5.44949 17.56573,11.27072 16.79933,19.92387 -1.30631,14.74897 -11.73147,21.1742 -21.44247,27.61964 z"
     id="path18"
     sodipodi:nodetypes="ssssssssssssssssssssssssssssss" />
  <path
     style="fill:#000000;stroke:#000000;stroke-width:0.570062px;stroke-linecap:butt;stroke-linejoin:miter;stroke-opacity:1"
     d="m 226.10199,116.13937 c 31.48158,30.87616 31.48158,31.48157 31.48158,31.48157 l -28.45449,12.1083 z"
     id="path20"
     sodipodi:nodetypes="cccc" />
  <path
     style="fill:#000000;stroke:#000000;stroke-width:0.570062px;stroke-linecap:butt;stroke-linejoin:miter;stroke-opacity:1"
     d="m 304.20051,118.56102 -34.50863,29.66533 29.6653,13.92455 z"
     id="path22"
     sodipodi:nodetypes="cccc" />
  <path
     style="fill:none;stroke:#000000;stroke-width:1.71018;stroke-linecap:butt;stroke-linejoin:miter;stroke-miterlimit:4;stroke-dasharray:none;stroke-opacity:1"
     d="m 159.56631,200.96568 c 0,0 10.63217,18.23382 30.97476,24.32118 44.70846,13.37868 170.79388,16.49458 180.50317,-26.46164"
     id="path849"
     sodipodi:nodetypes="csc" />
</svg>
