<svg xmlns="http://www.w3.org/2000/svg" width="1049.333" height="658.667" viewBox="0 0 787 494" preserveAspectRatio="xMidYMid meet"  xmlns:v="https://vecta.io/nano"><path d="M585.2 90.9c-6.2 1-11.5 1.4-11.8 1-.4-.7-11.1-.2-12.4.6-.4.2-6 .7-12.6 1.1-6.5.3-12.2.8-12.6 1-1.7 1.1-16.5 4.4-19.5 4.4-2.3 0-3.3.5-3.3 1.5 0 .8-.8 1.6-1.7 1.6l-3.3.3c-.8.1-2 .4-2.6.8s-3.1 1-5.5 1.4-4.7 1.1-5 1.6-3.2 1.2-6.5 1.5c-3.2.3-6.3.9-6.9 1.3-.5.4-3.9 1.3-7.5 2s-7.3 1.7-8.3 2.2c-1.4.7-2.2.5-3.3-.9-1-1.4-1.3-1.5-1.4-.3 0 1.5-6.2 4-10 4-1.1 0-2 .5-2 1.1s-1.4.9-3.2.8c-3.4-.3-6.1.2-13.7 2.7-3.4 1.1-4.7 1.1-5.2.2-.5-.8-1.1-.9-2.1-.1-1.2 1-6.7 1.9-18.3 2.8-2.7.2-8.1.8-12 1.3-3.8.5-7.3.7-7.7.5-.5-.2-6-.5-12.4-.7-6.4-.1-11.9-.7-12.2-1.2-.4-.5-3.4-1.1-6.6-1.3-3.3-.1-7.6-1.2-9.5-2.2-2.1-1.1-5.6-1.9-8.3-1.9-4 0-4.6-.3-4.1-1.7.5-1.2.2-1.5-1-1-.9.3-3.3-.1-5.3-.9-2-.9-4.5-1.3-5.6-1.1-1 .3-1.8.1-1.8-.5 0-.5-.4-.7-.9-.3-1.1.6-6.1-1.5-6.1-2.7 0-.4-1-.8-2.2-.8-1.3 0-4.4-.7-7-1.4-2.5-.8-4.9-1.2-5.1-.9-.3.3-2.5-.5-4.9-1.7s-5.1-2.7-6.1-3.1c-1.1-.6-2.5-.5-3.7.1-1.9 1-6.5.5-8.5-1-.5-.4-3.5-.8-6.5-.9s-5.7-.5-6-.9c-.8-1.1-16.5-.3-22.4 1.2-1.3.3-5.7.8-9.7 1.1-10.6.7-15.8 1.5-16.3 2.4-.3.4-2.3.6-4.5.4-2.2-.1-4.3.2-4.6.7-.3.6-1.7 1-3 1s-2.7.5-3 1c-.4.6-1.1.8-1.6.4-1.2-.7-9.9 1.7-9.9 2.8 0 .4-1.1.8-2.4.8s-2.9.6-3.6 1.4c-.6.8-1.7 1.3-2.4 1s-2.1.4-3.1 1.6c-1.1 1.2-3.1 2-5 2-2.1 0-3.5.6-3.9 1.6s-1.4 1.4-2.6 1.1c-1.3-.3-2 0-2 .9 0 .8-1 1.4-2.4 1.4s-2.8.4-3.1 1c-.3.5-1.7 1-3.1 1s-2.7.6-3 1.4-1.2 1.2-2.1.9c-.9-.4-1.9.1-2.5 1-.5 1-1.7 1.7-2.7 1.7-1.1 0-2.1.7-2.5 1.5-.3.8-1.3 1.5-2.1 1.5-.9 0-1.3.4-1 1 .3.5 0 1-.9 1-.8 0-1.7.6-1.9 1.2-.4 1-.6 1-.6.1-.1-1.7-3.1-.4-3.1 1.3 0 .8-.6 1.4-1.3 1.4-1.3 0-6.7 5.3-6.7 6.6 0 .3-1.3 1.9-3 3.6-1.6 1.6-3 3.6-3 4.4s-.5 1.4-1.1 1.4c-.5 0-1.7 1.5-2.5 3.2-1.3 3.1-2.8 5.6-4.6 8.2-3.6 5.1-8 12.5-11.4 19.1-2.3 4.4-6.1 10.9-8.5 14.5s-5.3 8.3-6.4 10.5-2.9 5.6-4.2 7.7c-4.6 7.5-11.1 38.1-11.8 55.3-.8 21.9-.6 32.6.8 35.2.8 1.6 2 5.3 2.7 8.3 2 9.7 7.4 24.3 9.9 26.9 1.3 1.4 3 3.9 3.8 5.6 2.6 5.5 7.8 15 9.5 17.5 1 1.3 1.8 3.2 1.8 4.2s1.4 3.1 3 4.6c1.7 1.6 3 3.4 3 4s.6 1.5 1.3 1.9c1.4.8 3.1 4.2 2.8 5.6 0 .4.7 1.1 1.6 1.4 2.2.8 4.3 2.8 4.3 4.1 0 .5.7 1.5 1.5 2.2s1.5 2.1 1.5 3.2c0 1.6.4 1.9 2.3 1.3 5.5-1.7 6.5-1.7 8.6.4 1.2 1.2 2.8 2.1 3.5 2.1.8 0 3.6 1.4 6.2 3.2s7.5 4.2 10.8 5.3c3.4 1.2 8.2 3.2 10.8 4.3 2.6 1.2 5.1 2.1 5.5 2 .4 0 1.9.4 3.3.9 9.1 3.9 13.5 5.3 16.5 5.3 3.2 0 10.8 1.5 14.5 2.8 2.6 1 20.5 2.1 41.7 2.7 6.8.2 12.7.7 13.3 1 .6.4 4.8.8 9.3 1l26.7 1.2c21.3.9 30.6.8 40.5-.7 6.6-.9 26.5-1.4 33-.7 1.7.1 5.2-.3 7.8-.9 2.7-.7 8.1-1.2 12-1.2 4 0 9.2-.3 11.7-.6 6.4-.9 14.3-1.7 15.8-1.7 9.7.5 50.5-.3 55.2-1 3-.5 7.7-1.2 10.5-1.5 2.7-.4 5.9-1.2 7-2 1.1-.7 4-1.8 6.5-2.4 2.5-.7 5.2-1.7 6-2.3 1.6-1.2 4.7-3.1 7.8-4.5 3.7-1.9 14.8-5.5 17-5.6 1.2-.1 2.2-.4 2.2-.7 0-.7 6.9-2.4 8.2-2.1.4.1 2.2-.7 4-1.8s4.1-2 5.1-2 3.4-.8 5.5-1.7c2-.9 4.2-1.7 4.7-1.8.6-.1 1.7-.5 2.5-.8s2.9-.8 4.5-1.1c1.7-.3 4.6-.9 6.5-1.5 1.9-.5 4.9-1.1 6.5-1.2 1.7-.2 3.6-.8 4.3-1.3.9-.7 1.6-.6 2.1.3.6 1 .9.9 1.4-.2.3-.8 2.4-1.8 4.6-2.2s4.5-1.3 5.1-2c.6-.8 2.8-1.9 4.7-2.6 3.8-1.2 11.2-5.9 13.3-8.4.7-.8 1.8-1.5 2.5-1.5s2.7-1.5 4.6-3.4c1.8-1.9 3.7-3.2 4.1-3 .4.3 3.9-2.5 7.7-6.3 3.7-3.7 9.2-8.6 12.1-10.8 3-2.2 8.7-7.3 12.8-11.3 4.1-3.9 7.7-7.2 8.1-7.2.8 0 6.5-5.7 10.4-10.4 1.7-2.1 3.6-3.1 6.7-3.5 2.8-.4 4.7-1.3 5.4-2.6.6-1 2.3-3.3 3.9-5 2.5-2.8 6.7-12 6.7-14.8 0-1.5 3.1-6.5 5.7-9.2 1-1.1 4.1-6.4 6.8-11.9 2.7-5.4 5.4-10 6.1-10.3.8-.3 1.6-3.1 2-6.4s1.1-6.2 1.5-6.5c1.1-.6 4.2-7.4 5.9-12.9.7-2.1 2.3-6.3 3.6-9.2 3.3-7.4 3.2-12.9-.7-34.3-1.4-7.8-6.1-26.3-6.9-27.5-.4-.6-2.2-4.8-4.1-9.5-1.8-4.7-3.6-8.7-3.9-9s-2.1-3.5-3.9-7.3c-1.9-3.7-3.7-6.7-4.1-6.7s-1.3-1.3-2-2.9c-.6-1.6-2.3-3.8-3.7-4.8s-3.5-2.8-4.6-4.1c-1.2-1.2-2.7-2-3.4-1.8-.7.3-1.3-.1-1.3-.9s-.4-1.4-.9-1.2c-.5.1-2.1-1-3.7-2.6-7.5-7.1-9.7-8.4-13.6-7.8-.5 0-.8-.3-.8-.9 0-.5-.7-1-1.5-1s-1.5-.7-1.5-1.6c0-1.1-.6-1.3-1.9-.9-1.1.3-2.2.1-2.6-.5-.3-.5-1.7-1-3-1-1.4 0-4.1-.9-6.2-1.9-2.1-1.1-5.3-1.9-7-1.7-1.8.1-3.4-.2-3.6-.7-.1-.5-1.6-1-3.1-1-1.6 0-4-.6-5.5-1.3-1.4-.8-3.3-1.4-4.1-1.4-.9 0-2.1-.5-2.8-1.2-.8-.8-1.5-.8-2.5.1-1.1.9-1.7.8-2.7-.4-.7-.8-1.6-1.2-2.1-.9s-1.5.2-2.1-.3c-.7-.4-2.2-.8-3.3-.9-1.1 0-3-.4-4.2-.8-1.4-.5-2.3-.3-2.3.3s-.7 1.1-1.5 1.1-1.5-.5-1.5-1c0-.6-.3-.9-.7-.9-.5.1-5.9.9-12.1 1.8zm24.8 10.5c5.2.8 9.8 1.2 10.2 1 .4-.3 1.5-.1 2.5.5 3.4 1.7 15.5 5.2 16.1 4.7.3-.3 1.1-.1 1.8.4.6.6 4.3 1.9 8.1 3 3.7 1 8.2 2.6 9.8 3.4 1.7.9 3.5 1.6 4.2 1.6.6 0 2.1 1.2 3.2 2.7 1.2 1.4 2.4 2.3 2.7 2 .7-.7 2.1.4 7.5 5.4 2.2 2 5.5 4.9 7.5 6.4 1.9 1.5 4 3.8 4.6 5.1s1.6 2.4 2.3 2.4c1.1 0 8.5 13.7 8.5 15.8 0 .7.5 1.2 1.1 1.2s.9.6.6 1.4 0 1.7.7 1.9c.7.3 1.6 2.1 1.9 3.9.3 1.9 1.4 5.4 2.5 7.9 1.1 2.4 2.5 7.8 3.1 11.9l2.4 13.5c.6 3.3 1.1 9.9 1.2 14.6 0 8.4-.2 9-4.6 18.1-.5 1-.9 2.4-.9 3.1s-1.1 3.5-2.4 6.3c-1.3 2.7-3.1 7.1-4.1 9.9-2.4 6.7-7.3 16.5-9.5 19-1 1.1-2.5 3.6-3.3 5.5-.8 2-2.1 4.3-2.9 5.1-.9.8-2.5 3.3-3.6 5.5-5.3 10.5-7.8 14.4-8.9 13.9-.7-.2-1.3.2-1.3 1 0 1.3-4.6 6.2-16.1 17.2-2.4 2.3-8.2 8-12.8 12.7-4.7 4.7-9.1 8.6-9.8 8.6s-1.8 1-2.4 2.3c-.6 1.2-2.3 2.8-3.9 3.6-3.5 1.5-8.4 5.9-9.3 8.3-.3 1-1.3 1.8-2.2 1.8-.8 0-1.5.4-1.5 1 0 .5-.4 1-1 1-.5 0-1.9.8-3 1.7-1.1 1-2.9 2.6-4 3.5-1.1 1-2.3 1.8-2.8 1.8-.4 0-1.8 1-3.2 2.3-3.3 2.9-11 7.9-11 7.1 0-.4-.9.1-1.9 1-1.1 1-2.4 1.6-2.9 1.2-.4-.3-2.3.4-4.2 1.5-1.9 1.2-6.2 2.4-10.2 2.8-3.8.4-7.3 1.2-7.6 1.8-.4.6-2.3 1.3-4.2 1.6-9.3 1.5-14.4 2.7-14.9 3.5-.9 1.3-7.2 3.3-8.3 2.6-.6-.4-1.4-.1-1.8.6-.6 1-8.3 4.3-12.5 5.3-.5.1-1.6.6-2.2 1a2.4 2.4 0 0 1-2.3.2c-.5-.3-1-.1-1 .4 0 .6-1 1.1-2.3 1.1s-2.7.4-3.2.9c-.6.5-3.6 1.7-6.8 2.6-3.3 1-6.5 2.4-7.2 3.1s-1.5 1-1.8.7-2.7.6-5.3 2.1c-2.5 1.4-5.6 2.6-6.8 2.6s-2.7.5-3.4 1.2c-.6.6-3.1 1.3-5.4 1.5-2.4.2-6.3.8-8.7 1.4-2.6.6-4.8.6-5.3.1s-3-.6-5.6-.1c-2.6.4-13.9.7-25.2.8-13.4 0-23.3.5-28.5 1.5-7.2 1.3-19.2 1.9-39 1.8-3.8 0-11.1.4-16.1.9-15.3 1.6-22.8 2-42.9 1.9-.5 0-5.3.1-10.5.2-11.2.1-29.4-.8-40-2-4.1-.5-15.9-.8-26.2-.8-11.6.1-18.9-.3-19.1-.9-.2-.5-4.1-1.5-8.8-2.1-13.7-1.9-16.9-2.6-16.9-3.6 0-.5-.9-.6-2-.3-1.2.4-2 .2-2-.5 0-.6-.8-.9-1.8-.6-1 .4-2.7-.1-3.8-.9-1-.8-2.6-1.5-3.4-1.5-.9 0-3.3-.9-5.4-2-2.2-1-4.3-1.7-4.8-1.4s-1.7-.1-2.6-.9c-2.6-2.2-14.8-8.7-16.5-8.7-.8 0-3.3-2-5.5-4.5s-4.5-4.5-5-4.5c-.9 0-1.9-2.1-3.7-7.5-.3-1 .2-3.5 1.1-5.5l2.4-5c1.1-2.3-3.5-7.4-6-6.7-1.1.3-2.1-.1-2.4-.9s-1.7-1.4-3-1.4c-2.1 0-2.7-.7-3.7-4.3-.6-2.3-1.5-5.2-2-6.4-.4-1.3-1.1-5.3-1.5-9-.4-3.8-1.1-7.1-1.5-7.4-.5-.3-1-2.4-1.1-4.7-.1-3.1.4-4.6 1.8-5.7 1.2-.8 2.3-1 2.8-.4 1.5 1.4 4.6-2.1 4.6-5.2 0-1.9-.6-3-2-3.4-1.1-.3-2.3-1.7-2.6-3-.7-3 2.4-8.5 4.8-8.5 1 0 1.8-.5 1.8-1 0-.6.5-1 1.2-1 .6 0 2.2-1 3.5-2.1 1.7-1.7 2.6-1.9 3.6-1.1.7.7 1.8.7 2.7.2.8-.5 2.2-.4 3.4.2 1.5.8 2.2.7 3.3-.8.7-1 1.3-2.6 1.3-3.7 0-1 .9-3 2-4.4s2-3.4 2-4.3c0-1 .7-2.3 1.6-3.1.8-.7 2.2-2.5 3-4.1 1.2-2.4 1.8-2.7 3.5-1.8 1 .6 2.4.8 3 .5.5-.4 1.6-.1 2.4.5s2.3.9 3.3.6c1.1-.4 2.4 0 3.2.9 2.3 2.7 3 1.6 3-4.6 0-5-.3-6-1.5-5.6-.8.4-1.7.2-2-.3-.4-.6-1.8-1-3.2-1-1.6 0-2.3-.4-2-1.3s-.7-1.2-3.3-1.2c-2.2 0-4.6-.8-5.7-1.8-2.7-2.4-10.9-2.4-12.1 0-2 3.8-2.3 7.3-.7 7.3 1.9 0 2 1.6.1 2.7-.7.4-2.1 2.2-3 4-2.1 4.1-5.2 5.9-7.2 4.2-2.3-1.9-7-2.1-8.5-.3-.7.9-1.3 3.3-1.4 5.4-.1 3.2-.8 4.5-4.8 8-2.6 2.3-4.7 4.7-4.7 5.4 0 .6-.9 2.2-1.9 3.5-1.8 2.4-2 2.4-4.5.8-6.1-4-11.6-.5-11.6 7.4 0 2.7.3 3.1 2.1 2.6 1.5-.4 2.3 0 2.6 1.4.4 1.4 1.1 1.8 2.5 1.3 1.3-.4 1.8-.2 1.4.4s-.7 4.3-.8 8.2c-.1 5.1-.5 7.3-1.5 7.7-1.5.6-5.3-2.4-5.3-4.2 0-.6-1.1-3.9-2.5-7.2-4.2-10.5-5.3-29.4-3.1-55.2.3-2.9.1-6.3-.4-7.6-.6-1.5-.4-2.7.6-3.6.8-.8 2-3.9 2.8-6.9 4.8-18.2 7.2-25.1 10.5-30.3 1.2-1.7 3-5.1 4.1-7.3 1.1-2.3 2.6-4.7 3.4-5.3s2-2.6 2.7-4.4 2.3-4.6 3.6-6.3 2.3-3.6 2.3-4.2c0-.7.5-1.2 1-1.2.6 0 1-.4 1-.9 0-.8 4.2-8.1 9.2-15.9 3.4-5.3 4.8-8.2 4.1-8.2-.5 0-.3-.4.3-.8.5-.4 2.3-2.4 3.8-4.5 1.6-2 3.3-3.7 4-3.7.6 0 2.1-1.5 3.3-3.4 2.5-3.8 14.9-12.9 16.4-12 .6.3 1.8-.1 2.7-1 2.3-2 9.1-4.8 10.1-4.1.5.3 1.1-.2 1.5-1 .3-.8 1.2-1.5 2-1.5s1.6-.3 1.8-.8c.4-1 10.4-5.2 15-6.3 2.1-.5 5.4-1.8 7.4-2.9 2.2-1.3 7.1-2.5 12.3-3.2 4.7-.5 8.8-1.4 9.2-1.9.3-.5 2.7-1.2 5.4-1.5 3.9-.6 4.7-.5 4 .6-.5.8.6.4 2.3-.9 1.8-1.2 5-2.4 7.2-2.6s4.9-.7 6-1c1.1-.4 2-.2 2 .4s4.5.9 12.3.8c6.7-.1 12.8.2 13.6.7s5.7 1.1 10.8 1.3c5.3.1 10.8.9 12.9 1.8 2 .8 4.2 1.5 4.9 1.5.8 0 3.5 1 6.2 2.2 2.6 1.1 6.4 2.2 8.3 2.3 1.9 0 5.1.9 7 2 1.9 1 4.9 1.9 6.5 2.1 1.7.1 4.3.9 5.9 1.8 1.6.8 5.3 1.8 8.2 2.2 3.1.3 6.1 1.4 7.4 2.6 1.5 1.4 2.5 1.7 3.2 1s1.8-.6 3.5.3c1.4.8 3.2 1.1 3.9.8.8-.3 1.4 0 1.4.6 0 .8.5.9 1.6.3 1.5-.8 12 .8 14.4 2.3.7.4 1.6.2 2-.6.7-1 1.6-1 4.5-.2 2.4.8 4.6.8 6.1.2 1.4-.5 5.5-.9 9.2-1s7.1-.3 7.5-.6 3.2-.6 6.2-.8 6-.7 6.6-1.1c1.7-1 10.9-1.3 11.5-.3.2.4 1.7.1 3.2-.7 1.5-.7 3.8-1.4 5.2-1.4 5.1-.1 26.6-4.6 31.3-6.5 1.6-.7 1.9-.3 1.7 2.1-.4 6-.5 5.9 6.8 6.2 3.7.2 7.1.7 7.6 1.2.4.4-.1 1.7-1.3 2.9s-2.1 3-2.1 4c0 1.1-.2 2.5-.5 3.3-.6 1.6 5.8 5 7.9 4.2.8-.3 1.7-1.2 2-2s1.2-1.4 2-1.4 2.8-1.6 4.6-3.6c1.8-2.1 3.5-3.3 3.8-2.7.4.6 1.8 1.4 3.2 1.8s3.9 1.7 5.5 2.9c1.7 1.3 3.8 2.5 4.8 2.9 1.2.4 1.6 1.3 1.3 2.4-1.1 3.6-1.5 7.5-.9 8.9.6 1.7 6.4 1.9 8 .3 2-2 3 0 3.6 7.6.6 6.7.4 7.9-1.4 10.4-3 4.1-1.9 9.1 2 9.1 1.5 0 3.2-.5 3.9-1.2.9-.9 1.2-.8 1.2.5 0 .9.9 2.2 2 2.9s2 2 2 2.9c0 .8.9 2.5 2 3.7 2.4 2.6 2.4 3 .4 5.3-1.9 2.1-3.1 12.3-1.6 13.3.6.3 2.7-.1 4.7-1.1 3.1-1.5 3.7-1.5 4.5-.3.6.8.8 2.1.5 2.8-.3.9.1 1.1 1.3.8 1.3-.4 2.3.4 3.7 3 2.1 3.9 8.8 9.8 9.9 8.7.4-.4 1.9-.9 3.4-1 3.6-.5 6.2-3.8 6.2-7.9 0-2.8-.4-3.4-2-3.4-2.9 0-7.6-2.6-8.4-4.5-1-2.8-.6-6.9.9-8.9 3.5-4.6.8-8-6.3-8.1-4.3 0-4.8-.2-5.7-3-.5-1.7-2-4.6-3.2-6.6-3.2-5-2.9-8.2.7-11.2 2.1-1.8 3-3.5 3-5.6 0-3.7-2.3-4.4-6.5-1.9-3.9 2.4-4.4 2.3-5.6-1-1-2.5-1.3-14.3-.5-18.7.2-1.1-.4-2.7-1.3-3.6-1.4-1.4-1.9-1.3-5 .2-3.4 1.6-3.5 1.6-6.8-1-1.8-1.4-3.3-3-3.3-3.4 0-.5-.5-.5-1.1-.2-.5.4-1.9-.1-2.9-1s-3.3-2.5-5.2-3.4c-2.8-1.5-8.9-8.8-10-12.1-.6-2-3.6 0-3.1 2.1.7 2.4-2.7 2.6-6.2.3-1.3-.9-2.9-1.3-3.5-.9-.5.3-1.6.3-2.2-.2-1.3-.8 0-1.1 11.2-2.9 2.5-.3 5-1 5.5-1.4.6-.4 3.3-1.3 6-2 2.8-.7 5.5-1.6 6-1.9.6-.4 2.4-.8 4-1 1.7-.2 3.2-.6 3.5-1 .9-1.2 8.7-3.1 10.4-2.5.9.3 1.6.1 1.6-.6s.8-.9 2-.5 2.6.3 3.3-.2 3.9-1 7.2-1.2c3.3-.1 6.5-.7 7.2-1.3.7-.5 1.7-.7 2.2-.4.5.4 1.3.2 1.6-.4.4-.7 1.2-.7 1.8-.2.7.4 2.1.7 3.2.6s6.7-.5 12.5-.9 10.6-.8 10.7-.9c.9-.8 17.8-.3 25.3.8zm-3.7 45.1c-1.1.8-2.3 1.2-2.6.8-.3-.3-1.4-.2-2.4.2-1 .5-2 .9-2.3 1-5.6 2.1-7 2.9-7 4 0 .7-.6 1.5-1.4 1.8-2.7 1-5.6 11.3-5.6 19.5 0 7.2 1.9 16.1 3.9 18.6.5.6 1.1 2.1 1.5 3.2.4 1.2 3.2 4.9 6.4 8.3 4.5 4.8 6.2 6 8 5.7 1.3-.3 3.4-.1 4.7.4s4.6.6 7.3.1c2.7-.4 5.9-.4 7.1 0 1.2.5 2.1.4 2.1-.1 0-.6.7-1 1.5-1a1.54 1.54 0 0 0 1.5-1.5c0-2 1.7-1.9 2.8.1.8 1.4 1.1 1.3 2.8-.8 1-1.2 3.1-3.1 4.5-4 4.7-3 8.8-13.8 10.3-27.4 1-8.1-2.8-15-12-22-6.9-5.4-8.9-6.4-12.4-6.4-1.6 0-3-.3-3-.8 0-1.4-13.6-1.1-15.7.3zm18.7 10.1c2.2.9 4 2.1 4 2.6 0 .6.6.8 1.4.5.7-.3 2.8.9 4.6 2.8 2.7 2.7 3.2 4.2 3.6 9.1.5 6.7-2.4 19.1-4.4 18.6-.7-.1-1.2.3-1.2.8s-.9 1-2 1c-1 0-2.3.6-2.7 1.3-2.1 3.3-6.7 5-13.9 5-7.1 0-7.3-.1-10.8-3.8-2-2.1-3.6-4.2-3.6-4.8s-.7-1.8-1.6-2.8c-3.8-4.2-2.4-25.9 1.7-25.9 1 0 2.3-.8 2.8-1.8.6-1.2 2.3-1.8 5.2-1.9 2.3-.1 4.7-.7 5.3-1.3 1.5-1.5 7-1.2 11.6.6zm-15.7 14c-3.2 3.5-3 8.2.5 11.6 1.5 1.4 3.4 2.8 4.2 3 .8.1 1.8.7 2.1 1.1.3.5 2.2-.1 4.1-1.3 3-1.7 3.6-2.7 4.2-6.8.4-2.9.2-4.8-.4-5-.5-.2-1-1.1-1-2.1a2.03 2.03 0 0 0-1.7-1.9c-9.9-1.1-9.8-1.1-12 1.4zM173 156c0 .5-1.3 1-2.8 1-3.8 0-8.1 2.2-11.7 6-1.6 1.6-3.4 3-4.1 3-1.8 0-10 12.9-10.8 17-2.3 12.2-2.7 16.3-2.2 23 .3 4.1.8 8.8 1.1 10.4.9 4.3 6.1 11.9 9.5 14 1.7.9 3 2.1 3 2.7 0 .5.8.9 1.8.9 1.1 0 3.4.7 5.2 1.7 4.2 2.1 19 2.1 24 .1 3.6-1.5 11.5-3.8 12.9-3.8 2 0 12-5 14.4-7.1 1.6-1.5 1.6-1.9.1-6.6-1.5-4.6-1.5-5.4-.1-8 6.9-12.8 6.7-12.2 6.2-20-.3-5.1-1-8.5-2.4-10.9-1.2-1.9-2.1-4-2.1-4.5 0-1.8-5.2-7.9-6.6-7.9-.8 0-1.4-.5-1.4-1 0-.6-1-1.4-2.2-1.9-1.3-.5-5.8-2.5-10-4.5-5.8-2.7-9.6-3.8-14.8-4.2-4.5-.3-7-.1-7 .6zm17.2 12c7.9 2.8 13.9 7.1 16.7 12 2 3.7 2.3 5.2 1.9 11.4-.4 5.2-1.2 8.3-3.2 11.6-1.4 2.5-2.6 5.8-2.6 7.4 0 6.5-5.4 12.2-11.2 11.8-1 0-1.8.3-1.8.9 0 .5-1.1.9-2.4.9s-2.6.5-2.8 1.1c-.2.7-1.6 1.3-3 1.5-1.4.1-4.2.5-6.1.8-2 .3-3.9.1-4.2-.4s-1.1-.7-1.8-.4c-.7.2-2.7-.9-4.5-2.6-1.9-1.7-3.8-2.8-4.3-2.5-1.2.8-5.9-4.3-5.9-6.4 0-1-.5-2.2-1-2.7-2-2-2.3-14.5-.6-22.9 1.7-8.3 1.7-8.1 11-17.4 1.6-1.6 4.5-3.2 6.3-3.6 1.8-.3 3.3-1 3.3-1.5 0-1.7 10.4-1.1 16.2 1z"/><path d="M177.3 184.7c-1.2.2-2.7 1.1-3.3 1.9-.7.8-1.8 1.4-2.5 1.4-1.6 0-5.5 6.4-5.5 9.1 0 1.1.4 1.8.8 1.5.5-.3 1.5.7 2.3 2.1.8 1.5 2.3 3.6 3.4 4.8 2.1 2.2 7.9 3.2 9 1.5.4-.6 1-.8 1.5-.5s1.9-.8 3.1-2.4 3.5-3.5 5.1-4.2c2.9-1.2 4.4-4.4 3.4-7.6-1-3.1-8.7-7.5-11.9-6.9-1.7.4-2.6.2-2.2-.4.3-.6.3-.9-.2-.9-.4.1-1.8.4-3 .6zm223.2-18c-3.8.8-8.2 2.4-9.6 3.4-1.5 1-3.5 1.9-4.6 1.9-1 0-3.5 1.5-5.5 3.3-8.3 7.2-12.3 10.2-13.5 9.9-.7-.2-1.3.4-1.3 1.3a1.54 1.54 0 0 1-1.5 1.5c-.8 0-2 .9-2.7 2s-1.6 2-2 2-3.1 2.4-6.2 5.3c-4.5 4.3-5.6 6-6.2 9.6s-.4 4.6 1.1 5.8c2.1 1.5 9.5 1.8 9.5.4 0-.6 1.8-3.1 4-5.6s4-5 4-5.5 1.1-1.2 2.5-1.6c1.4-.3 2.5-1.2 2.5-1.8 0-1.6 4.2-5.6 5.8-5.6.7 0 1.2-.5 1.2-1 0-.6.5-1 1.1-1 .7 0 1.9-.8 2.8-1.8.9-.9 3.3-2.6 5.4-3.7 2-1.1 3.7-2.3 3.7-2.7 0-.5.9-.8 1.9-.8 1.1 0 2.3-.5 2.6-1 .4-.6 1.4-1 2.3-.8 1 .1 2.2 0 2.7-.4.6-.3 2.9-.9 5.2-1.3 3.6-.6 4.2-.4 4.8 1.5.6 2 .7 2 2 .3s1.4-1.7 3.2 0c1.1.9 3.5 1.7 5.4 1.7 2.3 0 3.8.6 4.7 2 .7 1.1 1.8 1.7 2.7 1.4 1.3-.5 6.9 1.6 12.7 4.7 1 .5 2.4.9 3.2.9s1.6.7 2 1.5c.3.8 1.4 1.5 2.5 1.5 1 0 2.6 1.1 3.5 2.4.8 1.4 2.4 2.7 3.5 3.1 1 .3 2.4 1.9 3.1 3.5.8 1.8 2 3 3.1 3s2.8.9 4 2.1c1.1 1.1 3 1.9 4.3 1.7 1.3-.1 3.1.3 4 1.1 1 .9 1.6 1 1.6.2 0-.6.9-1.1 1.9-1.1 1.1 0 2.2-.6 2.5-1.3.5-1 .7-1 1.2 0 1 2.3 6.7 1.5 9.7-1.2 1.5-1.4 2.7-3 2.7-3.5 0-1.9-4.1-5-6.7-5.2-4.6-.2-5.1-.3-5.8-1-.3-.3-2.4-.4-4.6-.1-2.5.4-3.9.2-3.9-.6 0-.6-.6-1.1-1.3-1.1-.8 0-2.2-.9-3.2-2s-2.2-2-2.6-2c-.5 0-3.4-2.4-6.6-5.4-3.1-3-6-5.3-6.5-5-.4.3-.8 0-.8-.6s-.5-.8-1.1-.4c-.6.3-2.3-.3-3.9-1.4-3.4-2.5-29.4-11.4-33.2-11.4-1.5 0-3.2-.6-3.9-1.4-.6-.8-1.4-1.4-1.8-1.3-.3.1-3.7.8-7.6 1.6zm182.3 95.4c-1 .5-1.8.7-1.8.4s-.9-.1-1.9.5c-1.2.6-2.2.6-2.6.1-.3-.5-2-.8-3.8-.6-1.7.3-6.2.7-10 .9-3.7.3-7.3.8-7.9 1.2-.7.5-1.9.9-2.8 1-.8.1-5.3 1.2-10 2.4s-10.1 2.2-12.1 2.1c-2.3 0-4.6.7-6.3 2-1.4 1.1-2.6 1.6-2.6 1 0-.7-.6-.8-1.7-.2-1 .5-3.8 1.4-6.3 2.1s-5.3 1.6-6.2 2.1c-1 .5-2.4.9-3.1.9-.8 0-3.6 1.1-6.3 2.5s-5.9 2.5-7.1 2.5-2.4.4-2.8 1c-.3.5-1.2.7-2 .3-.8-.3-1.5 0-1.5.7s-.8.9-1.9.5c-1.1-.3-2.3-.1-2.6.6-.5.8-2.6.9-6.6.5-3.4-.4-5.9-.3-5.9.2 0 1.5-15.3 4.2-17.3 3-.9-.5-2.6-.2-4.3.7-1.6.8-5.3 1.4-8.9 1.3-3.3 0-7 .4-8.2 1-1.9 1-13.1 0-15.4-1.4-.4-.2-2.7-.6-5.1-.9-4.8-.5-7.1-.9-14.1-2.6-2.6-.6-5.6-.9-6.6-.6-1.7.4-10.3-1.3-14.1-2.9-.8-.4-3-.8-4.8-1s-3.8-.7-4.5-1.1c-.6-.4-2.1-.9-3.2-1-5.2-.5-12.8-2.3-13.9-3.2-1.5-1.3-56.5-4.9-64.6-4.3-.8.1-7.1.6-14 1.1-27.2 2.1-31.5 2.6-41.5 4.1l-10.5 1.6c-1.9.2-5.7.9-8.3 1.4-2.6.6-6.5 1-8.6 1s-4.1.3-4.4.7c-.4.3-1.7.8-2.9.9-3.1.5-5 1-7.1 1.9-1 .4-2.1.5-2.4.1-.3-.3-1.1-.1-1.8.4-.6.5-2.2 1.1-3.5 1.3-2.9.5-7.6 5.1-9.9 9.7-.9 1.9-2.2 4.4-2.9 5.5-.6 1.1-2.9 6.1-5 11.1-3.8 8.9-3.8 9.3-3 16.5 1 8.1 5.9 20.9 8.1 20.9.5 0 .6 1.1.3 2.5-.4 1.4-.2 2.5.3 2.5s1.1 1.2 1.3 2.7c.2 1.9.8 2.7 1.9 2.5.9-.1 2.2.5 2.9 1.3s1.9 1.5 2.7 1.5c.7 0 1.6.7 1.9 1.5.4.8.9 1.3 1.3 1 .4-.2 2.2.9 4 2.5 1.8 1.7 4 3 5 3s2.5.7 3.2 1.6c.9 1.1 2.3 1.4 4.5 1.1 1.7-.3 3.6-.1 4.2.5s1.2.6 1.6-.1c.4-.6 2.6-.8 5.4-.6 3.5.4 4.2.3 2.7-.4-1.4-.7-.1-.9 4.5-.5 8.4.6 12.3 1 13.5 1.4.6.1 1.2.2 1.5 0 2.4-.9 6-.7 6 .4 0 .7 1.5 1.2 3.6 1.3 2 .1 4.1.6 4.6 1.1.6.6 2.3.9 3.7.6s4.9.1 7.8.9c3.7 1 5.4 1.1 5.7.3.2-.6.5-.1.5 1.1.1 2.6 2.8 3.2 3.7.8.5-1.2 2.5-1.3 11.6-.9 6.1.2 11.4.7 11.8.9.5.3 1.6-.2 2.5-1.2 1.2-1.1 1.9-1.3 2.4-.5s4.6.9 15.5.1c8.2-.5 19.7-1 25.5-1.1s10.8-.6 11.1-1 4.4-1 9-1.2c4.7-.3 11.7-1 15.5-1.5 3.9-.6 7.8-.7 8.8-.5 1 .3 2.3.1 3-.5.7-.5 4.5-1.2 8.5-1.5s7.7-.8 8.1-1c.4-.3 4.1-.8 8.2-1.2 4.1-.3 7.8-1.1 8.2-1.8.6-.7 1-.8 1.3 0 .3.6 2.9.9 6.7.7 3.4-.2 9.8-.4 14.1-.6 5.1-.2 8.1-.7 8.4-1.5.2-.7 1.2-1.2 2.3-1.2 1 0 1.9-.5 1.9-1 0-.6 1.6-1 3.5-1s3.5.5 3.5 1.1.8.8 1.8.5c.9-.3 6.4-.6 12.2-.6 14.4 0 14.1 0 13.5.9-.2.5 3.6.8 8.5.8 5 0 9-.5 9-1s1.4-.7 3-.5c1.8.3 3.5-.1 4.1-.9 1.4-1.6 4.6-1.7 5.2-.1.3 1 .8.9 2.2-.2 1.2-1 4.3-1.5 9.9-1.6 4.5-.1 10.4-.6 13.1-1.2l8.8-1.7c2-.4 3.7-1.2 3.7-1.6 0-.5 1.5-.9 3.4-.9 3.3 0 14.6-3.7 15.6-5.1.3-.3 2-1 3.8-1.4 1.7-.3 3.2-1.1 3.2-1.6 0-.6.4-.8.9-.4.5.3 1.6-.2 2.4-1 .9-.8 2-1.5 2.5-1.5.6 0 1.2-.5 1.4-1.2.2-.6 1.1-1.2 1.9-1.4 3.8-.6 13.3-3.5 14.3-4.2 1.8-1.4 5.5-2.1 6.2-1.1.3.5 1 .9 1.5.9.6 0 .8-.4.5-.9-.4-.5.8-1.2 2.4-1.6 5-1.1 8-4.9 8-10 0-2.4.5-4.7 1-5 .6-.4 2.4-3.5 4-7 2.4-5.2 3-7.7 3-13.4 0-3.8-.4-7.3-1-7.6-.5-.3-1-1.5-1-2.5 0-3.1-6.8-12.3-11.2-15.2-4.6-2.9-8.1-5.5-10.3-7.6-.8-.6-2.3-1.2-3.4-1.2s-2.3-.5-2.6-1c-.3-.6-1.4-1-2.5-1-1 0-2.8-1.1-4.1-2.5-2.6-2.7-3.6-2.9-6.1-1.4zm-4.1 15.4c1.8 2.5 1.7 18.4-.1 25.2-1.9 7-5.8 15.2-7.3 15.3-.7 0-1.3.4-1.3.9 0 .6-2 1.3-4.5 1.7-3.5.5-5 .3-6.3-.9-.9-.9-2.1-1.7-2.7-1.8-5-1-6.5-2.4-9.5-8.6-2.9-6.1-4.9-13.1-6.9-24l-.8-4.3h3.7c2.1 0 4-.5 4.2-1 .2-.6 3.3-1.5 6.8-2 3.6-.6 9-1.4 12-1.8 7.5-1.2 11.1-.8 12.7 1.3zm18.3 4c.7.8 1.9 1.5 2.6 1.5.8 0 4.1 2.6 7.4 5.7 6.5 6.1 8.6 10.7 6.9 15-.5 1.3-.9 3.4-.9 4.7 0 1.2-.9 3.2-2 4.4s-2 2.4-2 2.9c0 1-5.2 6.3-6.3 6.3-.4 0-.8-1-.7-2.3.5-5.1-.2-6.9-4-10.9l-4-4.3v-12.2c0-6.8.4-12.3.9-12.3s1.4.7 2.1 1.5zm-70.4 7.7c1.9 13.2 0 21.6-7.2 31.6-.3.4-15.3 1.6-21.4 1.6-8.5.1-18-9.7-19.2-20-.3-2.6 0-2.9 2.7-3.2 1.7-.2 3.7-.6 4.5-.9s3.1-.7 5-1c1.9-.2 4-1.1 4.7-2 .7-.8 1.9-1.3 2.8-1 .8.4 1.5.2 1.5-.3 0-.6.7-1 1.5-1s1.5-.5 1.5-1.1c0-.5.8-.9 1.8-.8.9.2 3.8-.7 6.4-1.9s5.7-2.2 7-2.2 3.2-.7 4.2-1.5c3-2.3 3.3-1.9 4.2 3.7zM299 286c1.1.6 7.7 1.2 14.7 1.5 7.1.2 13.7.6 14.8.8s2.3 0 2.6-.5 1.3-.6 2.2-.2c1.7.6 1.7.7 1.7 15.3 0 1.8-.3 3.8-.7 4.5-.4.6-.8 1.5-.8 2.1 0 .5-.9.9-1.9.8-1.1-.1-2.6.5-3.4 1.4-.8.8-2.3 1.2-3.3 1-1.1-.3-1.9-.1-1.9.4 0 .8-4.6 2.3-10.4 3.3-4.5.8-10-2.2-12.5-6.8-3-5.6-5.5-20.3-4.2-24.4.2-.4 1.3-.2 3.1.8zm-21.7.7c3.5.4 3.7.7 3.7 4.1 0 2.1-1.1 5.4-2.5 7.7-1.3 2.2-2.8 4.9-3.3 6-3.1 6.7-25.4 16.4-27 11.7-.2-.7-.8-1.2-1.3-1.2-1 0-5.3-3.5-7.8-6.3-.9-1-2.1-4.3-2.8-7.4-1.9-9.5.4-12.2 10.4-11.9 2.8 0 4.9-.2 4.6-.7-.2-.4 1.3-.7 3.4-.7s4.5-.5 5.3-1c1.6-1 11-1.2 17.3-.3zm84.1 6.9c2.1.1 4.2.7 4.6 1.4s2.4 1.2 4.4 1.2 3.9.4 4.2.9 1.8.9 3.5.9c1.6 0 2.9.4 2.9.9 0 1.2 3.7 2 4.7 1 .5-.5 2.4-.5 4.3.1s5.4 1 7.7 1c3.9 0 4.3.2 4.3 2.5 0 3.6-2 7.6-5.4 10.7-3.2 3-3 3-21.4 3.2-10.1.2-10.4.1-15.6-3.2-5.1-3.3-5.5-3.8-8-11.6-2.9-9.1-3-9.8-1.5-11.3.8-.8 2-.6 4.2.5 1.8.9 4.9 1.7 7.1 1.8zm-142.5-1c3 .6 3.1.8 3.1 6 0 7.1-1.8 15.6-3.7 17.1-.8.6-3.2 2.8-5.3 4.7-3.3 3-4.8 3.6-10.3 4.2-4.1.4-8.4.2-11.8-.7-3-.7-6.2-1.2-7.2-1.1-1 0-2.2-.9-2.7-2.3-.5-1.3-2.1-3.1-3.5-4.1-3.1-2-3.2-5.2-.4-11.1 2.5-5.1 5.3-7.2 11.2-8.4l9.2-2c2.8-.6 7-1 9.5-1 2.5.1 5.2-.3 6-.9 1.8-1.2 1.9-1.2 5.9-.4zm242.4 13.7c-.2 2.1-1.2 5.1-2.3 6.8-1.2 1.6-1.9 2.9-1.5 2.9.3 0-.2 1.3-1.2 3-.9 1.6-2.3 3-3.1 3-.7 0-1 .5-.6 1.2.5.8 0 .9-1.6.5-1.2-.3-4.7-.1-7.7.4-3.9.7-5.8.7-6.8-.1-.7-.6-2.8-1.2-4.6-1.2-4.1-.1-12.3-7.5-11.3-10.3.4-.9.2-2-.4-2.4s-1.3-1.8-1.4-3.1c-.3-2.3 0-2.4 3.7-2.1 8.2.8 30.6-.6 32-2 .2-.2 1.8-.4 3.7-.4 3.2 0 3.3.2 3.1 3.8zm127.5 19.6c1.2 3.4.9 3.8-3.7 5.7-3.3 1.4-5.1 1.1-5.1-.7 0-1 6.1-7.7 7.2-7.8.3-.1 1.1 1.2 1.6 2.8zm-51.4 1.9c2.1 0 4.3.5 4.8 1 .6.6 1.6.8 2.3.6.7-.3 2.3.8 3.6 2.3 1.6 1.9 3.5 2.9 5.8 3 3.5.2 6 2.5 6.1 5.5 0 2-8 6.3-10.2 5.5-.7-.2-2.5.2-4 .9-1.5.8-5.3 1.5-8.6 1.6-3.3.2-5.8.7-5.5 1.2.3.4-1.9.5-4.8.2-5.4-.6-7.2-.6-11.8-.5-4.2.2-4.5-1.6-1.3-6.3 3.2-4.6 7.6-8.8 9.2-8.8.6 0 1-.4 1-.8 0-.5 1.6-1.4 3.5-2.2 1.9-.7 3.8-2.2 4.1-3.3s.9-1.5 1.3-.9c.3.5 2.3 1 4.5 1zm-190.9 4.1c7 2 11.5 5.4 11.5 8.7 0 .8.5 1.2 1 .9.6-.3 1.3.2 1.7 1.2s1.7 3.3 3 5.2c1.2 1.8 2 3.7 1.7 4.2s0 .9.5.9c1.2 0 1.5 7.9.3 9.6s-4.4 2.6-10.8 2.9c-3.4.1-6.7.6-7.5 1-.7.5-6.7 1-13.3 1.2-6.7.1-13.2.6-14.6.9s-4.9.8-7.9 1l-5.4.5.7-3.3c.4-1.8 1.2-6.5 1.7-10.3.5-3.9 1.4-7.2 1.9-7.3.6-.2 1-.9 1-1.6 0-2 9-10.6 11.1-10.6.7 0 1.7-.7 2.3-1.5 1.5-2.1 10.7-6.5 12.6-6 .8.2 4.6 1.2 8.5 2.4zm127.1 5.3c.7.5 1.6.8 2 .7 4.9-.9 13.4 5.7 13.4 10.2 0 1.5.7 3.2 1.5 3.9 2 1.7 1.9 3.7-.2 4.2-1 .3-5.4.1-9.8-.4-9.5-1.1-9.6-1.1-16-.9-2.7.2-7.5-.2-10.5-.7-3-.6-5.8-.8-6.2-.5-.5.2-.8-.3-.8-1.1 0-2.1 9.7-11.1 15.1-14 4.5-2.5 9.5-3.1 11.5-1.4zm-195.1 5.7c.3.6 1.7.6 3.6-.1 2.5-.8 3.3-.7 4.9.7 1.1 1 2 2.2 2 2.7 0 .4.9 1.7 2 2.8s2 3.1 2 4.4c0 1.4.3 2.7.8 2.9.4.3.5 3.3.4 6.7-.4 6-.5 6.1-2.8 5.6-1.3-.4-2.4-.2-2.4.3 0 .9-19.2.6-24.5-.4-1.6-.3-3.6-.6-4.2-.5-.7 0-2.1.1-3 .2-3.6.2-10.4-1.1-11.9-2.2-2.2-1.9-1.7-5.8 1.7-11.6 4-7 8.7-9 23.1-9.8 1.4 0 2.4-.5 2-1-.3-.5.2-.7 1.1-.3.9.3 1.9.2 2.2-.3.8-1.3 2.2-1.3 3-.1zm-65.2 2.2c1 0 2.1.7 2.4 1.5s1.6 1.4 2.9 1.4c3 0 8.3 5.2 9.5 9.3 1.8 6.3 1.7 6.3-7.1 6.1-4.4-.2-8.5-.6-9.1-1s-1.5-.1-1.9.6-1.3.9-1.9.5c-.7-.3-4.2-.9-7.9-1.1-10.1-.7-10.6-.8-12.1-2.2-.7-.7-2.2-1-3.2-.7-1.6.5-1.9.1-1.9-2.7 0-2.9 2.6-6.8 4.6-6.8.2 0 1.4-.9 2.6-1.9 1.3-1.2 4.2-2.2 7.7-2.6 3.1-.4 6.1-.8 6.6-1 .6-.2 2.4-.2 4 .1 1.7.2 3.8.5 4.8.5zm196.3.4c1.6.8 3.9 1.5 5.1 1.5s2.9.8 3.9 1.7c.9 1 2.9 1.9 4.3 2 4.5.6 5.2 1.2 4.9 4s-.4 2.8-8.3 3.1c-4.4.1-9.8.7-12 1.2s-7.1 1.2-11 1.6c-11.3 1-11.9 1.1-13.7 1.9-1.5.6-1.8.2-1.7-3.1a52.7 52.7 0 0 1 .7-7.9c.6-3.4 1.1-4 3-3.7 1.2.2 2.2-.2 2.2-.7 0-.6 1.5-1.1 3.3-1.2 1.7-.1 4.3-.5 5.7-.9 4.1-1.3 10.6-1.1 13.6.5z"/><path d="M270.914 419.482l-15.936-1.13c-6.911-.502-20.702-1.042-30.646-1.202-14.564-.233-18.526-.477-20.368-1.252-1.257-.529-6.005-1.509-10.549-2.176-9.987-1.468-13.152-2.149-14.024-3.021-.364-.364-1.417-.661-2.341-.661s-1.843-.264-2.043-.587-1.112-.558-2.028-.523-3.183-.567-5.037-1.339l-6.819-2.848c-1.896-.795-4.073-1.446-4.837-1.446s-3.212-1.153-5.44-2.562-6.71-3.823-9.96-5.363c-4.801-2.275-6.891-3.737-11.132-7.786-4.398-4.198-5.387-5.509-6.269-8.307l-1.047-3.323 1.913-4.553c1.052-2.504 1.913-5.149 1.913-5.878 0-1.795-3.081-4.976-5.27-5.441-.978-.208-2.193-.639-2.698-.958-1.038-.655-1.4-.797-3.984-1.564-1.641-.487-2.025-1.106-3.565-5.753-.949-2.864-2.255-8.597-2.902-12.738s-1.428-8.003-1.737-8.581c-.581-1.087-.862-3.492-.749-6.414.094-2.45 2.069-4.196 4.252-3.76 2.46.492 4.394-1.997 4.394-5.655 0-2.333-.225-2.776-1.83-3.606-1.972-1.02-2.816-3.1-2.221-5.474.529-2.108 3.337-5.257 4.688-5.257.628 0 1.361-.376 1.631-.836s1.338-1.269 2.374-1.798 2.194-1.337 2.574-1.795c.75-.903 6.497-1.02 9.494-.192 2.238.618 3.303-.335 4.363-3.906.736-2.477 1.79-4.802 4.92-10.846.368-.71 1.725-2.869 3.016-4.797 1.788-2.67 2.591-3.402 3.371-3.072 1.435.607 6.794 1.646 8.992 1.744 1.011.045 2.521.56 3.354 1.144 2.928 2.053 3.678 1.02 3.678-5.066 0-4.429-.513-6.209-1.747-6.059-.547.067-1.771-.198-2.72-.588s-2.259-.709-2.911-.709-1.186-.384-1.186-.854c0-1.044-1.325-1.598-3.822-1.598-1.036 0-3.426-.746-5.313-1.657-4.715-2.278-10.636-2.41-12.364-.277-2.343 2.893-2.861 8.063-.808 8.063.47 0 .854.414.854.919s-.268.919-.596.919-1.638 1.562-2.911 3.471-3.078 4.035-4.01 4.724c-1.666 1.231-1.728 1.233-3.63.109-1.064-.629-3.153-1.168-4.641-1.199-3.407-.071-4.715 1.366-5.307 5.827-.564 4.255-1.503 5.907-5.063 8.908-1.643 1.386-3.612 3.727-4.376 5.203s-1.883 3.334-2.487 4.128l-1.099 1.444-2.4-1.203c-3.786-1.898-5.587-2.135-7.893-1.041-2.754 1.307-4.125 4.271-3.886 8.404.179 3.101.243 3.205 1.873 3.035 1.304-.137 1.849.177 2.397 1.379.475 1.042 1.199 1.556 2.192 1.556h1.483l-.388 6.283c-.497 8.049-.72 9.044-2.02 9.027-2.315-.03-3.735-2.189-6.241-9.487-3.35-9.758-4.38-16.606-4.516-30.033-.151-14.985.587-36.982 1.271-37.881.924-1.215 1.822-3.942 4.719-14.33 3.41-12.229 5.226-17.128 8.252-22.259 1.292-2.191 3.045-5.363 3.896-7.049a38.45 38.45 0 0 1 3.503-5.516c1.076-1.348 2.359-3.417 2.851-4.597s1.984-3.819 3.316-5.866 2.421-4.036 2.421-4.422.552-.997 1.226-1.358 1.226-.993 1.226-1.405 2.884-5.526 6.409-11.364 6.594-11.215 6.819-11.948c.422-1.371 5.46-7.703 6.803-8.549.414-.261 3.328-3.019 6.475-6.129 5.546-5.48 12.414-10.251 14.757-10.251.63 0 1.915-.548 2.855-1.217 2.392-1.703 7.19-3.686 8.92-3.686.798 0 1.672-.367 1.941-.816.895-1.489 10.266-5.992 16.701-8.025 2.823-.892 6.962-2.424 9.198-3.406s6.535-2.231 9.555-2.777 7.144-1.404 9.167-1.907c10.196-2.534 11.53-2.753 12.012-1.974.353.572 1.276.352 3.729-.888 3.42-1.729 12.628-3.677 13.68-2.895.337.251 6.129.626 12.871.834s13.224.641 14.404.963 5.978.875 10.663 1.231c8.674.658 11.876 1.403 22.742 5.287 3.034 1.085 6.883 2.167 8.554 2.406s5.057 1.236 7.524 2.216 5.025 1.782 5.683 1.782 3.002.68 5.21 1.511 6.144 1.95 8.748 2.486 5.929 1.674 7.388 2.528c1.642.96 3.166 1.423 3.997 1.215.739-.186 2.5.061 3.913.548s2.993.723 3.511.524.942-.087.942.248 1.717.622 3.831.637c3.917.028 8.683.856 11.589 2.015 1.267.505 1.95.44 3.069-.293 1.19-.78 1.91-.824 4.161-.252 2.036.517 3.974.51 7.689-.027 2.732-.395 6.417-.718 8.189-.718s5.067-.268 7.323-.597l16.482-2.507c2.524-.431 4.525-.449 5.963-.052 1.665.46 2.979.343 5.701-.505 1.946-.606 7.306-1.695 11.912-2.419 7.483-1.177 21.118-4.183 23.958-5.282.949-.367 1.073.012 1.073 3.292 0 2.039.292 3.887.648 4.107s3.399.639 6.762.931 6.385.698 6.716.903c.343.212-.167 1.473-1.188 2.935-1.029 1.474-1.956 3.774-2.182 5.413-.363 2.632-.262 2.941 1.321 4.044.943.657 2.673 1.519 3.844 1.917 1.872.635 2.318.572 3.678-.525.851-.686 2.513-1.902 3.692-2.701s2.835-2.201 3.678-3.115c2.736-2.967 3.273-3.01 8.118-.643 4.634 2.263 8.832 4.67 10.077 5.778.514.457.559 1.234.153 2.647-.316 1.1-.574 3.459-.574 5.242 0 2.515.24 3.337 1.073 3.67 1.731.692 6.153.404 7.204-.469 2.015-1.672 3.295 2.269 3.343 10.296.022 3.627-.263 5.016-1.506 7.35-3.436 6.454-.568 11.024 5.476 8.726 1.044-.397 1.572-.39 1.572.02 0 .34.965 1.584 2.145 2.763s2.145 2.625 2.145 3.211.874 2.127 1.943 3.423c1.6 1.941 1.814 2.534 1.214 3.358-1.741 2.386-2.701 5.587-3.005 10.016-.395 5.757.086 6.151 5.207 4.264 3.855-1.42 4.861-1.103 5.177 1.628.107.929.588 1.667 1.109 1.701 1.954.127 2.223.306 3.361 2.239 1.623 2.753 6.376 7.748 8.341 8.764 1.261.652 2.094.691 3.697.173 6.613-2.138 8.144-3.767 8.177-8.701.02-2.919-.087-3.133-1.818-3.661-8.908-2.716-10.698-5.96-7.28-13.187 2.671-5.646 1.085-7.625-6.823-8.512-2.723-.305-4.31-.783-4.605-1.385l-3.283-6.565c-3.751-7.474-3.693-8.569.694-13.16 1.72-1.8 2.156-2.745 2.156-4.673 0-1.329-.192-2.727-.426-3.106-.71-1.15-3.684-.777-6.731.843-1.585.843-3.019 1.532-3.187 1.532s-.757-1.034-1.308-2.298c-.778-1.783-1.016-4.449-1.06-11.88-.061-10.241-.414-11.564-3.084-11.564-.76 0-2.373.414-3.583.919-3.177 1.328-3.621 1.211-7.014-1.839-1.687-1.517-3.472-2.758-3.965-2.758-1.629 0-10.083-6.032-12.641-9.02-1.381-1.613-3.134-4.105-3.895-5.537s-1.813-2.605-2.336-2.605c-1.351 0-2.422 1.245-2.422 2.815 0 2.024-1.338 2.152-4.959.474-1.979-.917-3.828-1.378-4.674-1.165-.77.193-1.4.111-1.4-.184s2.917-1.013 6.482-1.598 10.253-2.28 14.864-3.767 9.347-2.879 10.527-3.093 3.111-.872 4.291-1.461c2.618-1.309 8.934-2.673 9.825-2.122.357.22 1.056.063 1.554-.351s1.934-.817 3.191-.898c3.141-.201 11.507-1.438 14.851-2.196 1.517-.344 3.365-.613 4.107-.597s1.504-.223 1.694-.53 1.094-.345 2.022-.08 6.642.055 12.71-.462c14.213-1.211 30.923-1.163 40.712.116 4.188.547 7.72.889 7.849.76s2.791.678 5.914 1.794 7.59 2.445 9.925 2.953c4.447.966 19.826 6.086 25.086 8.352 1.686.726 3.635 2.03 4.332 2.899s2.149 1.885 3.227 2.259c3.01 1.045 14.514 11.303 21.356 19.043 2.533 2.866 8.78 14.256 8.78 16.009 0 .5.414 1.068.919 1.262s.919.9.919 1.57.552 1.918 1.226 2.775 1.226 2.056 1.226 2.665.73 3.123 1.622 5.587c2.343 6.472 3.046 9.356 5.195 21.336 1.547 8.624 1.939 12.529 1.997 19.92.07 8.848.007 9.344-1.676 13.178-.962 2.191-2.666 6.466-3.787 9.5-5.599 15.147-12.624 30.713-15.307 33.917-.752.898-2.261 3.425-3.353 5.616s-2.494 4.538-3.113 5.215-3.161 4.952-5.647 9.5c-3.05 5.581-5.125 8.668-6.381 9.495-1.024.674-2.186 1.954-2.583 2.843-.914 2.05-34.869 35.66-37.291 36.912-.991.513-2.551 1.914-3.466 3.114s-2.546 2.63-3.625 3.177c-3.058 1.552-7.224 5.155-8.54 7.384-.658 1.115-1.821 2.374-2.586 2.799-2.604 1.447-6.249 4.022-9.036 6.383-1.53 1.296-3.577 2.834-4.549 3.418s-4.086 2.721-6.921 4.75-5.549 3.69-6.033 3.69-1.58.552-2.437 1.226-2.091 1.226-2.741 1.226-2.693.691-4.539 1.535-6.034 1.965-9.308 2.489-7.055 1.477-8.403 2.116-5.587 1.74-9.419 2.446c-4.644.856-8.096 1.887-10.353 3.091-2.24 1.195-4.277 1.806-6.021 1.806-1.45 0-2.809.28-3.02.622-.586.948-4.425 2.745-9.189 4.301-2.36.771-4.553 1.633-4.873 1.917s-1.22.516-2 .516-1.897.239-2.482.531-2.03.869-3.21 1.283c-8.021 2.814-13.986 5.132-15.148 5.886-.747.484-1.76.881-2.253.881s-3.177 1.103-5.965 2.452-5.715 2.452-6.503 2.452-2.09.431-2.894.957c-2.122 1.39-11.697 2.785-20.868 3.039l-30.646.846c-14.914.411-24.672.954-28.501 1.587-3.863.639-13.351 1.159-28.195 1.546-12.305.321-26.371 1.018-31.259 1.549-8.384.912-57.422 1.751-66.809 1.144zm-8.275-36.412c.991-1.096 1.865-1.223 8.216-1.194 3.909.017 9.038.265 11.397.55 3.743.452 4.502.37 5.95-.643 1.366-.956 1.929-1.039 3.184-.467 1.134.517 4.635.52 13.664.01l22.559-1.044c5.731-.198 12.626-.747 15.323-1.22s8.075-1.133 11.952-1.465c18.845-1.616 22.574-1.993 25.13-2.537 1.517-.323 6.068-.992 10.113-1.487 13.555-1.658 20.592-2.733 21.607-3.301.616-.345 1.598-.339 2.527.014 1.672.636 25.298-.307 27.367-1.092a6.9 6.9 0 0 0 2.021-1.26c.445-.44 1.308-.8 1.917-.8s1.45-.414 1.87-.919c.908-1.094 4.963-1.228 5.993-.198.519.519 4.431.678 13.945.564 9.174-.109 13.48.055 14.061.538.574.476 3.411.602 9.009.399 10.192-.369 14.651-.9 15.833-1.884 1.604-1.336 2.885-1.5 4.249-.545 1.186.83 1.578.827 3.731-.034 1.395-.558 5.311-1.116 9.318-1.328 10.737-.568 25.607-3.204 25.607-4.538 0-.272 1.576-.692 3.502-.932 4.645-.58 10.733-2.491 14.885-4.672 1.854-.974 3.717-1.771 4.14-1.772.718-.001 4.577-1.78 8.127-3.745.847-.469 2.157-1.474 2.911-2.232s1.754-1.379 2.222-1.379c1.418 0 11.382-3.022 14.209-4.31 3.092-1.409 4.101-1.484 5.869-.44 1.044.616 1.353.613 1.582-.02.156-.432 2.03-1.578 4.164-2.545 4.533-2.055 5.713-3.803 6.421-9.508.313-2.525 1.066-4.682 2.332-6.678 3.796-5.986 5.218-10.549 5.507-17.675.21-5.185.061-6.957-.72-8.522-.542-1.087-.986-2.358-.986-2.826 0-1.49-2.521-5.893-5.596-9.774-1.843-2.326-5.101-5.252-8.53-7.662l-7.447-5.278c-1.044-.758-2.411-1.379-3.036-1.379s-2.167-.552-3.425-1.226-2.586-1.226-2.952-1.226-1.828-.995-3.249-2.212c-2.73-2.337-2.892-2.355-8.363-.927-1.348.352-3.463.481-4.699.287-2.991-.47-18.539.914-21.647 1.927-4.82 1.571-18.734 4.665-23.265 5.173-2.579.289-5.707 1.091-7.111 1.823-1.378.718-2.734 1.165-3.014.993-.632-.391-19.001 5.647-24.968 8.206-2.426 1.04-4.821 1.892-5.323 1.892s-1.69.319-2.639.709-2.21.648-2.802.574-1.223.247-1.403.714c-.208.541-.958.756-2.068.593-.958-.141-1.93.047-2.158.416-.256.415-2.757.672-6.53.672-4.312 0-6.515.262-7.472.89-1.954 1.28-11.89 2.903-15.148 2.474-1.818-.239-3.698-.027-5.516.623-6.04 2.16-24.936 2.995-30.646 1.354-1.854-.533-5.544-1.265-8.199-1.627s-6.655-1.096-8.887-1.63-6.818-1.185-10.189-1.445-8.887-1.221-12.259-2.133c-9.401-2.544-14.942-3.875-19.307-4.637a79.2 79.2 0 0 1-7.744-1.837c-4.994-1.516-27.571-3.41-55.082-4.619-14.251-.626-51.182 2.622-77.492 6.816-7.224 1.152-14.157 2.094-15.406 2.094s-3.614.391-5.254.868c-5.202 1.515-10.588 2.809-11.694 2.809-.588 0-2.913.705-5.167 1.566-3.017 1.153-4.828 2.347-6.869 4.529-3.034 3.243-7.967 12.559-12.472 23.553l-2.796 6.822.353 5.823c.506 8.347 4.467 20.83 7.364 23.213.603.496 1.031 1.753 1.042 3.065.011 1.223.424 2.759.919 3.413s.9 1.676.9 2.27c0 .662 1.008 1.573 2.605 2.354 4.715 2.306 6.276 3.248 6.773 4.086.27.455.783.827 1.142.827s2.303 1.241 4.321 2.758 4.156 2.758 4.752 2.758 1.845.6 2.777 1.333c1.236.972 2.709 1.38 5.446 1.507 6.899.32 14.634-.252 14.144-1.045-.346-.56 2.574-.401 12.593.687 2.865.311 6.652.394 8.415.184 2.6-.31 3.275-.198 3.579.592.234.609 1.445 1.114 3.231 1.349 1.571.206 3.874.805 5.118 1.331 1.312.555 2.916.792 3.823.564.859-.216 3.566.026 6.014.536s5.21.929 6.137.929c.974 0 1.686.337 1.686.797 0 .985 1.229 2.268 2.173 2.268.386 0 1.201-.552 1.811-1.226zm-74.164-147.806c3.034-.991 7.275-2.217 9.425-2.726 4.164-.985 11.348-4.314 14.633-6.782 2.289-1.72 2.498-3.25 1.079-7.926-.502-1.655-.916-3.532-.919-4.17s1.54-4.199 3.431-7.91c2.578-5.061 3.514-7.606 3.74-10.178.484-5.491-.79-12.436-3.348-18.258-2.276-5.179-6.263-10.607-7.791-10.607-.436 0-1.171-.535-1.633-1.19-1.099-1.556-16.263-8.294-21.376-9.499-4.512-1.063-12.662-1.275-12.975-.336-.114.341-1.771.875-3.682 1.186-4.305.701-6.007 1.572-10.421 5.337-1.915 1.633-4.187 3.463-5.05 4.066-1.867 1.305-5.716 6.84-8.239 11.85-5.064 10.055-5.766 33.636-1.278 42.924 1.702 3.522 5.244 7.705 9.491 11.212 2.273 1.876 9.237 4.333 14.073 4.964 6.354.829 14.713.045 20.84-1.956zm168.321-21.252c.997-.419 5.999-6.464 8.778-10.61.821-1.224 2.315-2.512 3.322-2.863s2.161-1.28 2.565-2.065c1.057-2.052 3.742-4.799 4.69-4.799.446 0 1.283-.552 1.86-1.226s1.359-1.226 1.738-1.226 1.199-.565 1.824-1.255 2.805-2.254 4.845-3.474 4.202-2.724 4.806-3.342 1.615-1.123 2.249-1.123 1.933-.388 2.888-.862c2.187-1.087 11.555-2.889 12.711-2.446.476.183 1.033 1.002 1.239 1.82.454 1.808 1.306 1.904 2.331.262.916-1.466 1.566-1.534 2.924-.305.56.507 2.65 1.219 4.645 1.582 2.332.425 4.186 1.19 5.193 2.143.921.871 2.31 1.486 3.371 1.49.993.004 4.012.995 6.709 2.201s5.869 2.492 7.049 2.858 2.85 1.306 3.711 2.09 1.938 1.425 2.392 1.425 2.238 1.335 3.964 2.967 3.435 3.08 3.798 3.218 1.392 1.418 2.286 2.844c1.031 1.646 2.24 2.745 3.309 3.009.927.228 2.571 1.086 3.654 1.906s3.152 1.646 4.597 1.837 3.278.768 4.072 1.284c1.311.851 1.498.843 2.022-.095.318-.568 1.24-1.033 2.049-1.033s1.713-.431 2.008-.958c.486-.869.61-.869 1.331 0 .917 1.105 4.075 1.252 6.581.308 2.464-.929 5.709-4.255 5.709-5.851 0-1.517-3.038-4.379-5.104-4.808-2.711-.563-6.362-1.01-10.985-1.346-2.613-.19-4.75-.599-4.75-.909s-.731-.841-1.624-1.181c-1.806-.687-3.101-1.687-11.663-9.006-3.254-2.781-6.284-5.057-6.734-5.057s-.818-.276-.818-.613-.513-.613-1.141-.613-3.455-1.075-6.283-2.388c-6.647-3.087-20.044-7.716-27.751-9.588-3.334-.81-6.568-1.931-7.188-2.492-.991-.897-1.59-.932-4.972-.293-6.098 1.153-10.306 2.433-14.264 4.339-2.023.974-4.367 1.917-5.21 2.096s-4.704 2.953-8.581 6.163-7.945 6.17-9.041 6.575-1.992 1.104-1.992 1.553-.483.99-1.073 1.204c-1.232.446-10.483 8.471-13.561 11.764-1.138 1.217-2.58 3.316-3.204 4.665-1.416 3.057-1.529 7.82-.211 8.914 1.595 1.324 7.004 2.117 8.928 1.309zm269.615-3.843c.001-.199.691-.675 1.534-1.059s1.532-1.118 1.532-1.631c0-1.333 1.003-1.151 2.073.377.903 1.289.995 1.239 5.917-3.206 2.75-2.483 5.563-5.618 6.251-6.967 3.228-6.327 5.985-17.761 5.985-24.819 0-6.912-3.082-12.18-11.016-18.83-5.742-4.813-9.556-6.895-13.479-7.36-1.698-.201-3.087-.603-3.087-.893 0-.9-12.936-.561-15.63.41-1.348.486-2.997.887-3.662.892s-3.07.739-5.342 1.63c-4.747 1.862-8.474 5.669-10.315 10.533-1.718 4.541-2.653 11.869-2.27 17.791.743 11.469 3.999 18.797 12.129 27.295 4.96 5.185 5.384 5.484 7.662 5.395 1.326-.052 3.238.136 4.25.417 2.053.57 17.465.592 17.467.025zm-454.485 16.604c-.208-.337-1.002-.613-1.764-.613s-2.864-1.103-4.671-2.452-3.775-2.452-4.372-2.452c-1.567 0-5.29-4.073-5.786-6.33-.233-1.059-.85-2.578-1.372-3.375-2.329-3.555-1.27-21.986 1.64-28.556.609-1.374 3.291-4.729 5.961-7.455 3.739-3.818 5.627-5.25 8.222-6.234 1.852-.703 4.274-1.738 5.38-2.3 1.498-.761 2.829-.923 5.21-.633 11.949 1.455 22.016 6.824 26.21 13.979 1.843 3.144 1.877 3.349 1.658 9.952-.212 6.401-.354 7.024-2.793 12.315-1.413 3.065-2.571 6.237-2.573 7.049-.014 6.259-5.345 12.202-10.944 12.202-1.028 0-1.943.392-2.146.919s-1.114.919-2.117.919c-.97 0-2.362.519-3.093 1.153-.813.705-3.12 1.419-5.942 1.839-5.649.84-6.23.847-6.708.073zm9.23-19.288c.654-.495 1.616-.909 2.138-.919s2.039-1.145 3.371-2.522 3.173-2.896 4.091-3.378c3.051-1.602 4.155-3.31 4.155-6.431 0-2.558-.256-3.111-2.258-4.868-2.92-2.564-6.66-4.243-9.489-4.26-1.236-.007-2.347-.313-2.469-.68-.338-1.015-4.602-.012-6.513 1.533-.903.73-2.374 1.643-3.269 2.029-3.349 1.446-6.751 11.202-3.906 11.202.451 0 1.509 1.172 2.352 2.605 2.007 3.412 3.919 5.125 6.552 5.871 3.055.865 3.901.836 5.246-.182zm426.562-10.113c-2.203-.927-6.264-5.754-8.543-10.154-2.649-5.116-3.3-10.211-2.251-17.625.758-5.363 2.051-8.402 3.574-8.402.563 0 1.759-.705 2.659-1.567 1.145-1.097 2.717-1.732 5.243-2.119 1.984-.303 4.711-.949 6.059-1.436 1.778-.641 3.317-.746 5.6-.381 3.157.505 7.773 2.491 8.492 3.655.211.342.919.622 1.572.622 1.612 0 6.091 4.139 7.108 6.569 1.234 2.948 1.034 11.415-.404 17.084-.995 3.922-1.61 5.167-3.218 6.517-1.093.918-2.509 1.676-3.145 1.686s-2.32 1.088-3.741 2.398c-1.843 1.699-3.497 2.578-5.768 3.065-3.685.79-11.447.843-13.237.09zm11.823-11.6c1.251-.638 2.768-1.707 3.371-2.374 1.862-2.059 2.565-9.932.975-10.914-.297-.183-.54-.876-.54-1.538 0-1.642-2.196-2.367-7.654-2.53-3.755-.112-4.748.069-5.852 1.069-3.49 3.159-3.927 8.322-1.026 12.125 1.324 1.736 6.419 5.107 7.968 5.272.266.028 1.507-.471 2.758-1.109zm-17.032 132.711c0-4.198-.976-6.291-4.992-10.699l-2.976-3.267v-11.56c0-10.514.392-13.477 1.538-11.623.218.353 1.672 1.242 3.231 1.975 4.122 1.937 12.516 10.463 13.912 14.129.984 2.586 1.027 3.351.358 6.436l-1.036 4.93c-.437 2.252-5.102 8.77-8.376 11.702l-1.659 1.486zm-21.657 13.305a1.57 1.57 0 0 1-.409-.956c0-.688 6.137-7.216 6.784-7.216.713 0 1.962 4.204 1.56 5.251-.192.501-1.619 1.455-3.171 2.12-2.986 1.28-4.098 1.467-4.763.801zm-21.411-12.45c-.932-.738-2.648-1.605-3.812-1.927-4.5-1.243-7.874-5.943-11.13-15.508-1.369-4.022-4.51-17.72-4.51-19.669 0-.655.697-.91 2.485-.91 1.367 0 3.642-.527 5.057-1.17 3.304-1.504 23.036-4.582 26.714-4.168 3.798.428 4.766 1.802 5.303 7.531 1.275 13.607-3.379 30.63-9.542 34.901-3.319 2.3-8.277 2.731-10.565.92zm-40.59 29.585c-3.367-.124-6.359-.462-6.648-.751-.752-.752.993-4.112 4.11-7.911 2.699-3.29 7.396-6.926 11.947-9.248 1.35-.689 2.834-1.794 3.298-2.457.773-1.103 1.192-1.155 4.992-.617 2.282.323 4.661.861 5.286 1.196s1.69.609 2.366.609 2.473 1.077 3.993 2.393c1.792 1.551 3.645 2.541 5.268 2.816 2.872.485 6.139 2.945 6.139 4.622 0 2.286-5.472 5.397-10.343 5.879-1.475.146-3.212.55-3.861.897-1.409.754-12.303 2.448-17.055 2.653-1.854.08-6.126.043-9.494-.081zm-23.055-27.152c-7.256-1.263-15.482-10.668-16.305-18.642l-.326-3.157 7.47-1.454c4.427-.862 8.054-1.914 8.903-2.582.788-.62 2.148-1.127 3.022-1.127s1.589-.276 1.589-.613.372-.613.826-.613 1.462-.552 2.239-1.226 2.069-1.226 2.87-1.226 3.119-.7 5.151-1.555 5.08-1.818 6.773-2.139 3.913-1.178 4.932-1.903c1.517-1.08 1.948-1.166 2.377-.471 1.711 2.769 1.943 17.412.357 22.617-1.44 4.728-5.42 11.816-7.111 12.663-.78.391-4.622.878-8.537 1.083l-9.571.551a23.11 23.11 0 0 1-4.66-.206zm-18.938 33.332c-3.877-.453-8.704-.678-10.726-.501s-6.82-.094-10.661-.603-7.22-.78-7.508-.601-.524-.137-.524-.701c0-1.481 8.225-9.482 12.76-12.412 2.14-1.382 5.372-2.838 7.225-3.252 2.901-.649 3.641-.613 5.496.272 1.179.562 2.972 1.022 3.986 1.022 4.557 0 10.613 5.107 11.678 9.848.319 1.419 1.121 3.269 1.783 4.111 3.133 3.984.743 4.482-13.507 2.819zm-41.372-31.78c-1.011-.482-2.543-.889-3.404-.905-3.835-.068-10.985-6.562-11.019-10.009-.011-1.084-.424-2.506-.919-3.16s-.9-1.788-.9-2.519c0-1.316.149-1.333 14.557-1.711 8.006-.21 15.936-.691 17.622-1.068s4.444-.726 6.129-.776l3.065-.091.195 2.384c.137 1.674-.338 3.499-1.597 6.129-.986 2.06-2.144 4.647-2.573 5.75s-1.573 2.671-2.541 3.485-1.759 1.739-1.759 2.056-1.172.549-2.605.517-4.811.134-7.508.369c-3.705.323-5.353.213-6.742-.449zm-54.001 38.046c-.406-1.059.679-11.637 1.297-12.636.204-.33 1.126-.599 2.05-.599s2.024-.345 2.444-.766c.827-.829 7.201-2.079 13.579-2.663 3.294-.302 4.82-.089 8.812 1.226 2.656.875 5.213 1.591 5.683 1.591s1.883.676 3.14 1.502 3.519 1.776 5.026 2.111c3.152.7 4.261 1.87 3.843 4.056-.349 1.827-.799 1.944-9.343 2.431-3.54.202-8.78.759-11.646 1.238s-9.113 1.295-13.884 1.812-9.113 1.108-9.648 1.314c-.59.226-1.124-.017-1.353-.615zm-20.2-46.682c-6.046-3.63-6.768-4.615-9.471-12.926-2.739-8.419-2.819-8.944-1.525-10.018.743-.617 1.593-.519 4.444.514 1.939.702 4.839 1.458 6.446 1.678s3.94.921 5.186 1.556 3.278 1.155 4.517 1.155 3.042.412 4.008.916 2.623.917 3.682.919c1.174.002 2.069.376 2.292.956.284.739 1.224.926 4.203.835 2.111-.064 6.665.242 10.12.681l6.283.798v2.064c0 1.135-.393 3.004-.873 4.153-1.338 3.203-5.683 7.569-8.237 8.279-1.226.341-7.9.621-14.83.623l-12.601.004zm-53.958 53.826c.183-.59.899-4.579 1.592-8.866.876-5.424 1.766-8.772 2.927-11.014 2.007-3.877 7.484-9.446 10.861-11.045 1.348-.638 3.615-2.089 5.037-3.224s4.175-2.658 6.118-3.385l3.533-1.322 4.914 1.38c9.458 2.655 13.786 5.157 15.072 8.715.405 1.119 1.302 2.291 1.993 2.604.706.319 2.552 3.103 4.207 6.343 2.446 4.788 2.949 6.338 2.949 9.081 0 1.819-.27 3.812-.6 4.428-.821 1.533-3.484 2.359-9.078 2.813-2.599.211-6.932.759-9.629 1.217s-9.041 1.006-14.097 1.218-12.311.778-16.121 1.258c-9.228 1.162-10.096 1.144-9.679-.2zm-.562-53.395c-5.006-2.274-7.891-7.366-9.763-17.231-.527-2.779-.958-6.709-.958-8.734 0-3.528.057-3.665 1.379-3.279 5.189 1.514 32.69 3.306 33.794 2.202.853-.853 1.354-.784 2.478.341.783.783.954 2.471.917 9.041-.056 9.656-.754 12.27-3.356 12.575-.973.114-2.509.734-3.415 1.379s-2.372 1.172-3.259 1.172-2.225.401-2.973.891c-1.52.996-8.49 2.77-10.855 2.764-.843-.002-2.638-.507-3.989-1.121zm-40.754 53.216c-1.854-.256-5.495-.493-8.091-.527-5.643-.072-10.813-1.07-12.289-2.37-1.549-1.365-1.322-4.212.672-8.417 2.219-4.679 4.513-7.389 7.58-8.954 2.768-1.412 10.331-2.998 14.298-2.998 2.502 0 4.043-.418 7.521-2.039 1.043-.486 1.732-.464 2.609.084.924.577 1.834.583 4.044.026l2.852-.718 1.894 2.205c5.512 6.417 6.641 9.626 6.361 18.081l-.177 5.346-2.758.414c-3.645.547-20.245.457-24.517-.133zm-17.591-52.26c-.27-.44-1.456-1.389-2.635-2.108-5.438-3.316-8.473-8.097-9.502-14.964-.983-6.567 1.345-9.091 8.389-9.095 2.254-.001 4.874-.307 5.823-.68s3.242-.897 5.097-1.165 5.164-.81 7.355-1.206c4.146-.749 13.738-.349 16.472.687 1.315.498 1.429.835 1.173 3.492-.42 4.369-4.439 12.003-8.452 16.055-3.422 3.455-10.91 7.654-16.243 9.109-3.326.907-6.882.848-7.478-.124zm-42.17 46.762c-1.348-.264-5.21-.668-8.581-.9-4.133-.284-6.884-.803-8.447-1.596-1.275-.646-3.173-1.175-4.218-1.175-1.867 0-1.895-.044-1.569-2.475.375-2.795 1.846-5.372 3.389-5.941.57-.21 1.866-1.004 2.878-1.764 2.564-1.924 4.376-2.525 10.677-3.539 6.796-1.094 12.96-.516 15.008 1.408.748.703 1.839 1.278 2.424 1.278 3.087 0 8.112 4.759 9.861 9.34 2.086 5.463.894 6.048-10.697 5.244-4.602-.319-7.119-.276-7.253.125-.113.338-.389.583-.613.544a297.74 297.74 0 0 1-2.86-.55zm-18.643-39.75c-4.787-.977-5.26-1.212-6.551-3.252-.765-1.209-2.087-2.745-2.936-3.414-2.707-2.13-3.119-3.871-1.859-7.874 1.347-4.283 4.109-8.033 7.026-9.538 3.173-1.638 15.38-4.214 21.739-4.589 3.034-.179 6.758-.745 8.275-1.259 2.226-.754 3.256-.8 5.339-.239 2.267.611 2.629.954 2.98 2.823.506 2.698-.645 12.623-1.887 16.269-.682 2.003-1.952 3.662-4.555 5.953-6.293 5.539-7.309 5.94-15.361 6.064-4.652.072-8.803-.25-12.208-.945z" fill="#fff"/></svg>