<?xml version="1.0" encoding="UTF-8" standalone="no"?>
<svg
   xmlns:dc="http://purl.org/dc/elements/1.1/"
   xmlns:cc="http://creativecommons.org/ns#"
   xmlns:rdf="http://www.w3.org/1999/02/22-rdf-syntax-ns#"
   xmlns:svg="http://www.w3.org/2000/svg"
   xmlns="http://www.w3.org/2000/svg"
   xmlns:sodipodi="http://sodipodi.sourceforge.net/DTD/sodipodi-0.dtd"
   xmlns:inkscape="http://www.inkscape.org/namespaces/inkscape"
   version="1.0"
   width="490.000000pt"
   height="592.000000pt"
   viewBox="0 0 490.000000 592.000000"
   preserveAspectRatio="xMidYMid meet"
   id="svg18"
   sodipodi:docname="face13.svg"
   inkscape:version="1.0.1 (3bc2e813f5, 2020-09-07)">
  <defs
     id="defs22" />
  <sodipodi:namedview
     pagecolor="#ffffff"
     bordercolor="#666666"
     borderopacity="1"
     objecttolerance="10"
     gridtolerance="10"
     guidetolerance="10"
     inkscape:pageopacity="0"
     inkscape:pageshadow="2"
     inkscape:window-width="1920"
     inkscape:window-height="1027"
     id="namedview20"
     showgrid="false"
     inkscape:zoom="1.089527"
     inkscape:cx="326.66667"
     inkscape:cy="394.66667"
     inkscape:window-x="1912"
     inkscape:window-y="-8"
     inkscape:window-maximized="1"
     inkscape:current-layer="svg18" />
  <metadata
     id="metadata2">
Created by potrace 1.16, written by Peter Selinger 2001-2019
<rdf:RDF>
  <cc:Work
     rdf:about="">
    <dc:format>image/svg+xml</dc:format>
    <dc:type
       rdf:resource="http://purl.org/dc/dcmitype/StillImage" />
  </cc:Work>
</rdf:RDF>
</metadata>
  <g
     transform="translate(0.000000,592.000000) scale(0.100000,-0.100000)"
     fill="#000000"
     stroke="none"
     id="g16">
    <path
       d="M3100 5430 c-25 -5 -56 -11 -70 -14 -14 -3 -56 -12 -94 -20 -38 -9 -78 -22 -90 -29 -12 -7 -52 -24 -91 -36 -38 -13 -74 -27 -79 -32 -6 -5 -21 -9 -35 -9 -30 0 -92 -21 -112 -37 -8 -6 -29 -10 -47 -8 -23 1 -36 -4 -43 -17 -6 -10 -26 -20 -49 -24 -22 -4 -40 -9 -40 -13 0 -8 -89 -45 -103 -42 -4 0 -10 -6 -13 -14 -4 -8 -11 -15 -18 -15 -6 0 -33 -11 -61 -25 -27 -13 -55 -25 -61 -25 -6 0 -19 -9 -29 -20 -10 -11 -22 -20 -27 -20 -5 0 -35 -17 -66 -39 -31 -21 -67 -41 -80 -45 -12 -4 -34 -17 -50 -30 -15 -12 -42 -28 -59 -35 -18 -8 -33 -17 -33 -22 0 -5 -8 -9 -18 -9 -9 0 -22 -8 -28 -18 -6 -10 -30 -26 -53 -37 -22 -11 -41 -23 -41 -27 0 -5 -7 -8 -15 -8 -8 0 -15 -5 -15 -10 0 -6 -8 -14 -17 -17 -34 -13 -86 -53 -99 -76 -7 -12 -27 -51 -44 -87 -18 -36 -36 -72 -41 -80 -5 -8 -12 -22 -15 -30 -3 -8 -10 -23 -15 -33 -5 -10 -7 -22 -4 -27 4 -6 2 -10 -3 -10 -5 0 -19 -42 -31 -92 -13 -51 -27 -97 -31 -103 -4 -5 -14 -30 -21 -55 -16 -57 -16 -58 -18 -70 0 -5 -8 -10 -16 -10 -8 0 -15 -9 -15 -20 0 -18 -20 -68 -71 -176 -10 -22 -19 -45 -19 -50 0 -5 -12 -23 -27 -40 -37 -42 -53 -70 -53 -94 0 -11 -4 -20 -9 -20 -8 0 -45 -66 -46 -82 0 -4 -6 -13 -12 -19 -7 -7 -13 -21 -13 -30 0 -9 -7 -22 -15 -29 -8 -7 -15 -21 -15 -31 0 -10 -6 -22 -12 -26 -14 -9 -33 -36 -47 -68 -5 -11 -18 -29 -30 -39 -11 -11 -21 -27 -21 -37 0 -10 -4 -21 -10 -24 -5 -3 -10 -14 -10 -24 0 -10 -9 -30 -20 -44 -11 -14 -23 -39 -26 -56 -4 -17 -11 -31 -16 -31 -5 0 -8 -6 -7 -12 3 -15 -7 -53 -28 -118 -8 -25 -16 -54 -18 -65 -7 -48 -25 -161 -28 -175 -1 -8 -6 -20 -9 -26 -7 -10 -10 -30 -23 -144 -3 -19 -9 -57 -14 -85 -10 -50 -15 -162 -12 -245 1 -25 2 -54 3 -65 0 -11 5 -67 10 -125 6 -58 11 -118 13 -135 10 -135 28 -224 76 -381 5 -17 9 -36 9 -44 0 -7 11 -36 24 -64 13 -28 31 -67 40 -86 43 -92 178 -253 257 -304 24 -16 55 -37 69 -46 14 -9 70 -36 125 -59 55 -24 114 -49 130 -57 58 -25 346 -96 450 -110 235 -33 345 -41 495 -39 91 2 179 6 195 9 17 3 56 10 89 15 32 5 63 14 69 20 6 6 27 11 47 11 20 0 53 9 75 20 22 11 47 20 57 20 10 0 18 5 18 10 0 6 9 10 20 10 11 0 20 4 20 9 0 6 17 19 38 31 22 12 47 36 57 53 10 18 24 36 32 40 7 4 13 15 13 24 0 8 23 36 50 61 28 25 50 51 50 59 0 17 17 48 53 94 15 20 27 40 27 43 0 4 9 16 20 28 11 12 25 34 32 48 6 15 25 34 41 43 16 10 31 26 34 37 3 11 12 20 19 20 8 0 14 4 14 8 0 7 56 48 118 87 9 6 59 45 112 88 129 106 122 100 151 133 15 16 58 57 97 92 38 35 78 80 88 100 11 20 27 48 37 61 9 13 17 30 17 38 0 8 9 24 20 36 12 12 23 33 27 47 3 14 14 34 23 45 10 11 33 67 51 125 17 58 35 107 39 110 4 3 10 22 14 43 4 20 11 37 15 37 4 0 8 14 9 31 0 17 8 39 16 48 9 10 16 27 16 39 0 11 4 23 9 26 4 3 14 26 21 51 7 25 17 45 22 45 5 0 6 4 3 10 -5 9 7 41 62 168 8 18 12 40 9 48 -3 8 1 17 9 20 10 4 15 20 15 50 0 24 4 44 9 44 5 0 12 18 16 40 4 22 10 40 15 40 15 0 23 139 23 375 -1 188 -5 257 -18 320 -9 44 -19 105 -21 135 -1 30 -6 71 -10 90 -4 19 -9 42 -10 50 -1 8 -8 47 -14 85 -7 39 -14 86 -17 105 -3 19 -9 40 -13 45 -4 6 -15 44 -24 85 -9 41 -28 109 -42 150 -25 72 -91 220 -104 230 -3 3 -27 32 -52 65 -71 93 -325 315 -361 315 -5 0 -22 10 -37 23 -15 12 -51 36 -80 52 -28 17 -66 39 -83 50 -35 22 -132 56 -213 75 -56 12 -59 13 -119 24 -22 4 -47 9 -55 11 -8 1 -35 -1 -60 -5z m160 -133 c30 -7 60 -15 65 -19 6 -3 28 -9 50 -13 22 -4 45 -12 52 -17 7 -5 16 -7 20 -5 5 3 27 -8 51 -24 23 -16 45 -29 48 -29 3 0 47 -29 97 -63 51 -35 97 -66 103 -68 21 -8 117 -94 211 -189 108 -109 148 -181 207 -365 59 -188 94 -361 136 -675 5 -36 14 -92 20 -125 17 -83 7 -450 -13 -525 -9 -30 -25 -91 -36 -135 -12 -44 -25 -89 -30 -100 -17 -39 -114 -281 -136 -340 -12 -33 -30 -78 -40 -100 -10 -22 -19 -42 -20 -45 -5 -25 -38 -129 -45 -145 -34 -78 -65 -138 -86 -166 -13 -18 -24 -41 -24 -51 0 -10 -4 -18 -10 -18 -5 0 -10 -8 -10 -18 0 -11 -15 -32 -32 -49 -18 -16 -66 -64 -106 -107 -78 -82 -101 -91 -144 -57 -13 11 -33 19 -43 18 -13 -1 -26 11 -40 39 -30 61 -65 104 -91 114 -13 5 -33 28 -44 52 -25 52 -38 128 -21 128 17 0 13 76 -5 95 -13 13 -16 31 -12 93 4 51 1 93 -9 125 -8 26 -12 51 -9 56 6 10 -17 87 -39 126 -47 86 -74 121 -103 135 -17 8 -45 34 -63 58 -25 34 -29 45 -19 57 7 8 17 12 22 9 15 -9 58 17 58 35 -1 30 -49 94 -79 107 -21 9 -31 10 -31 2 0 -13 -42 -53 -65 -62 -11 -4 -29 2 -49 17 -17 13 -39 26 -49 30 -9 4 -26 22 -37 40 -22 37 -60 50 -113 40 -32 -6 -34 -25 -12 -81 15 -38 100 -121 138 -135 9 -3 17 -12 17 -18 0 -7 -3 -9 -6 -6 -4 4 -24 -7 -45 -24 -49 -39 -52 -75 -9 -119 36 -37 48 -38 60 -4 6 14 23 29 40 35 16 6 30 15 30 20 0 19 31 21 50 4 29 -27 25 -45 -10 -45 -31 0 -70 -30 -70 -53 0 -7 7 -22 15 -33 12 -18 22 -20 67 -16 29 3 56 9 59 14 3 5 19 8 34 6 36 -4 83 -62 87 -107 3 -33 1 -35 -37 -45 -101 -27 -128 -64 -80 -111 28 -29 54 -31 96 -9 17 8 32 14 34 12 1 -2 6 -28 9 -58 7 -54 6 -56 -25 -79 -18 -14 -53 -31 -77 -40 -58 -21 -72 -42 -52 -79 15 -25 20 -27 84 -27 62 0 69 -2 81 -25 8 -14 15 -36 15 -50 0 -14 7 -34 15 -44 26 -34 18 -54 -25 -67 -34 -10 -40 -16 -40 -39 0 -15 10 -36 25 -50 24 -23 28 -23 71 -12 l45 12 53 -55 c30 -30 57 -55 61 -55 5 0 16 -7 26 -16 16 -15 14 -18 -32 -63 -28 -27 -49 -56 -49 -68 0 -11 -14 -31 -31 -44 -17 -13 -56 -49 -87 -79 -32 -31 -70 -66 -86 -78 -16 -12 -44 -46 -62 -75 -18 -28 -38 -57 -44 -64 -5 -7 -10 -17 -10 -22 0 -6 -9 -16 -20 -23 -11 -7 -20 -19 -20 -26 0 -7 -7 -15 -15 -18 -8 -4 -15 -15 -15 -26 0 -11 -11 -34 -25 -52 -14 -17 -29 -36 -34 -42 -5 -6 -12 -20 -15 -32 -4 -12 -11 -22 -16 -22 -5 0 -32 -22 -60 -49 -36 -34 -65 -52 -98 -61 -26 -6 -56 -15 -67 -20 -35 -14 -98 -29 -150 -35 -27 -4 -83 -13 -124 -21 -49 -9 -109 -12 -180 -8 -200 11 -472 43 -521 62 -14 5 -52 13 -85 17 -33 4 -64 10 -70 15 -5 4 -27 11 -49 14 -21 4 -46 12 -55 17 -14 8 -68 30 -160 64 -18 6 -36 17 -40 22 -3 6 -25 17 -49 24 -23 6 -60 27 -81 46 -22 18 -43 33 -48 33 -25 0 -142 146 -188 233 -17 34 -36 71 -42 82 -19 36 -32 69 -44 115 -7 25 -19 54 -26 65 -6 11 -15 49 -18 85 -4 36 -13 101 -21 145 -21 111 -31 385 -19 515 9 104 45 340 64 415 5 22 12 50 14 62 3 12 10 30 15 40 5 10 12 38 16 62 9 57 29 121 38 121 5 0 8 4 8 9 0 19 64 146 96 193 19 26 34 52 34 58 0 5 5 10 10 10 6 0 10 5 10 11 0 7 10 28 22 48 12 19 24 43 25 51 4 29 32 87 47 100 9 7 16 16 16 21 0 5 18 32 39 60 21 29 42 65 45 81 3 16 20 46 37 68 17 21 28 43 25 48 -3 6 1 13 10 16 9 3 14 13 10 21 -3 8 -1 17 5 20 5 4 7 10 4 15 -3 5 -1 11 5 15 5 3 10 16 10 27 0 12 3 18 7 15 7 -8 63 156 63 186 0 10 6 33 14 50 7 18 18 50 23 72 12 46 32 102 44 127 5 10 9 24 9 32 0 8 3 16 8 18 4 2 17 24 30 50 23 47 134 158 158 158 7 0 25 14 41 30 15 17 33 30 39 30 5 0 54 28 107 63 181 116 215 137 230 137 9 0 22 6 29 13 16 16 100 57 117 57 6 0 24 11 39 25 15 14 34 25 44 25 9 0 19 4 22 9 3 4 20 11 37 15 18 3 39 12 47 18 17 14 80 38 102 38 8 0 27 7 42 14 32 17 217 76 238 76 8 0 24 7 34 15 11 8 28 15 38 15 10 0 18 4 18 9 0 5 19 12 43 15 23 4 60 13 82 21 48 17 160 18 235 2z"
       id="path4" />
    <path
       d="M1860 4463 c-48 -16 -100 -47 -100 -59 0 -8 -4 -14 -8 -14 -5 0 -31 -44 -59 -97 -27 -54 -54 -107 -60 -118 -26 -47 -35 -107 -31 -184 4 -68 9 -85 33 -118 71 -94 137 -126 231 -114 32 5 73 5 93 0 28 -6 37 -4 48 11 18 25 78 61 105 62 13 1 30 7 38 14 8 7 27 17 43 23 27 10 42 37 66 112 23 74 7 218 -34 305 -38 82 -195 177 -294 180 -31 1 -63 0 -71 -3z m158 -143 c2 -6 9 -10 15 -10 14 0 109 -99 103 -108 -2 -4 0 -29 4 -57 4 -27 5 -76 1 -108 l-6 -59 -54 -19 c-30 -10 -57 -22 -60 -26 -3 -5 -21 -16 -39 -27 -25 -13 -37 -15 -45 -7 -17 17 -52 13 -72 -9 -10 -11 -24 -20 -32 -20 -24 0 -61 30 -83 68 -21 34 -21 40 -9 117 7 46 20 90 30 104 11 13 19 32 19 41 0 10 7 23 15 30 8 7 15 16 15 21 0 4 10 23 23 43 17 26 31 36 57 39 47 6 114 -2 118 -13z"
       id="path6" />
    <path
       d="M1873 4240 c3 -13 -1 -24 -14 -30 -36 -20 -18 -67 54 -140 33 -34 69 -29 100 12 19 26 19 28 3 70 -10 24 -29 58 -42 76 -21 27 -32 32 -66 32 -35 0 -40 -2 -35 -20z"
       id="path8" />
    <path
       d="M2614 4190 c-26 -17 -33 -29 -40 -73 -8 -55 -8 -65 1 -112 4 -16 7 -42 9 -56 1 -14 6 -30 10 -37 3 -6 9 -35 12 -64 7 -75 38 -133 96 -179 62 -49 119 -54 188 -19 49 25 157 126 177 164 8 17 22 35 29 39 8 4 14 13 14 18 0 6 14 24 31 40 29 27 31 33 25 72 -4 23 -12 47 -19 52 -7 6 -18 22 -24 38 -21 47 -56 29 -86 -45 -9 -21 -21 -38 -27 -38 -6 0 -10 -10 -9 -22 3 -26 -26 -88 -41 -88 -6 0 -10 -6 -10 -14 0 -20 -112 -116 -136 -116 -32 0 -80 59 -94 115 -24 99 -30 242 -11 255 17 10 8 52 -15 74 -21 21 -42 20 -80 -4z"
       id="path10" />
    <path
       d="M3675 4028 c-22 -11 -48 -27 -58 -36 -9 -8 -20 -13 -23 -10 -12 13 -102 -88 -108 -122 -1 -3 -9 -21 -18 -40 -9 -19 -19 -60 -23 -91 -10 -77 21 -150 76 -181 22 -12 39 -26 39 -31 0 -5 6 -7 13 -4 7 3 21 -1 31 -9 14 -10 56 -13 152 -13 126 0 134 1 134 19 0 12 9 22 23 25 25 7 87 66 106 103 7 13 15 65 17 115 5 83 3 96 -18 133 -13 23 -52 69 -88 101 l-65 60 -75 1 c-56 0 -85 -5 -115 -20z m168 -107 c14 -6 40 -31 58 -58 27 -39 33 -58 35 -105 1 -44 -3 -64 -17 -80 -11 -11 -19 -25 -19 -31 0 -5 -12 -1 -27 8 -26 18 -27 18 -58 -16 -36 -40 -78 -47 -156 -29 -70 17 -83 37 -76 110 5 44 15 71 37 101 16 23 30 48 30 56 0 7 11 13 25 13 21 0 25 -5 25 -28 0 -20 -8 -32 -30 -45 -30 -18 -31 -26 -7 -74 6 -13 15 -23 20 -23 5 0 25 -8 44 -17 35 -16 36 -16 54 5 9 12 21 22 26 22 16 0 43 40 43 64 0 39 -32 69 -81 75 -35 5 -45 10 -47 28 -2 16 3 23 20 26 42 8 76 7 101 -2z"
       id="path12" />
    <path
       d="M1388 2334 c-24 -12 -58 -28 -75 -36 -18 -7 -33 -16 -33 -20 0 -5 -6 -8 -13 -8 -19 0 -108 -46 -134 -69 -13 -10 -23 -26 -23 -35 0 -8 -5 -18 -10 -21 -6 -4 -8 -10 -5 -15 3 -5 1 -20 -5 -34 -6 -17 -6 -33 0 -44 5 -9 13 -56 18 -104 8 -85 7 -88 -17 -106 l-24 -18 19 -35 c10 -18 23 -36 27 -38 5 -2 13 -13 18 -25 20 -44 46 -81 66 -91 68 -35 253 -239 253 -280 0 -18 150 -155 169 -155 11 0 22 -4 25 -9 4 -5 39 -15 79 -21 79 -13 177 -51 220 -87 27 -21 34 -22 175 -18 115 3 149 7 157 19 6 8 23 18 38 21 15 4 36 18 46 31 10 13 23 24 29 24 5 0 12 7 16 15 4 11 11 13 30 6 31 -12 107 -12 122 0 7 5 43 12 80 16 57 5 77 12 115 39 26 19 50 34 53 34 20 0 71 51 92 93 20 41 24 63 24 140 0 91 -22 205 -50 257 -12 24 -94 133 -115 155 -36 37 -144 112 -195 136 -82 38 -204 53 -383 49 -47 -1 -74 3 -85 13 -10 8 -30 17 -45 21 -28 7 -160 99 -186 129 -47 57 -166 89 -343 92 -73 2 -94 -2 -130 -21z m176 -100 c20 -8 21 -50 2 -85 -7 -14 -17 -52 -20 -83 -5 -35 -13 -59 -22 -63 -8 -3 -14 -12 -14 -20 0 -9 -15 -32 -34 -53 l-33 -37 -39 14 c-22 8 -50 17 -64 20 -50 12 -131 113 -90 113 15 0 42 60 35 77 -7 20 22 53 46 53 9 0 19 4 21 10 2 5 27 18 55 28 29 10 50 22 46 25 -8 9 90 9 111 1z m295 -115 c76 -67 92 -85 87 -103 -3 -11 -9 -48 -13 -81 -6 -62 -33 -114 -73 -142 -17 -12 -27 -13 -49 -3 -31 12 -95 91 -106 130 -4 14 -14 36 -22 49 -12 18 -13 29 -4 48 6 13 9 29 6 34 -4 5 -2 9 4 9 6 0 18 26 26 58 24 83 23 82 38 82 7 0 55 -36 106 -81z m443 -176 c-1 -10 -5 -44 -8 -76 -8 -79 -48 -152 -97 -180 l-39 -22 -44 50 c-44 49 -45 50 -42 117 2 43 8 69 16 72 6 3 12 18 12 34 0 29 2 29 53 31 28 0 66 5 82 10 36 10 71 -8 67 -36z m193 7 c6 -4 21 -11 35 -15 21 -6 92 -62 161 -125 31 -28 89 -129 89 -154 0 -14 5 -28 10 -31 26 -16 -4 -85 -37 -85 -7 0 -13 -4 -13 -9 0 -5 -14 -14 -30 -21 -24 -10 -37 -10 -56 -1 -14 6 -36 11 -50 11 -16 0 -28 8 -34 23 -12 29 -76 98 -103 112 -18 9 -23 22 -27 73 -3 35 -2 69 3 77 4 7 2 26 -5 40 -10 23 -10 29 5 39 12 10 15 22 10 50 -5 33 -4 36 13 30 11 -4 24 -10 29 -14z m-957 -234 c28 -25 66 -93 68 -121 1 -11 6 -31 12 -46 9 -21 5 -32 -25 -73 l-35 -48 -28 27 c-16 15 -46 55 -66 89 -21 33 -42 63 -46 64 -5 2 -22 15 -38 29 -33 27 -39 51 -15 58 22 7 39 12 50 15 6 2 15 10 22 20 16 22 70 15 101 -14z m385 -186 c14 -11 30 -20 36 -20 17 0 62 -106 57 -132 -15 -70 -61 -152 -82 -144 -7 3 -29 8 -48 12 -20 3 -38 10 -41 14 -3 5 -34 12 -70 15 -80 9 -99 21 -90 58 4 15 16 32 26 38 11 5 19 17 19 25 0 26 30 74 43 68 7 -2 34 16 60 41 26 25 51 45 56 45 4 0 20 -9 34 -20z m492 -47 c10 -16 24 -32 32 -36 7 -5 11 -12 8 -17 -3 -5 2 -25 12 -45 14 -30 15 -38 4 -45 -8 -4 -11 -15 -8 -24 7 -18 -18 -23 -29 -5 -10 18 -135 6 -168 -16 -34 -22 -59 -70 -51 -95 5 -15 2 -20 -14 -20 -11 0 -22 -4 -26 -10 -9 -14 -35 0 -35 19 0 9 6 25 13 36 7 11 14 47 15 79 1 34 8 64 15 70 7 6 22 30 33 53 10 24 24 41 31 39 6 -3 17 2 23 10 7 8 21 14 31 14 10 0 21 5 24 10 3 6 21 10 39 10 26 0 38 -7 51 -27z"
       id="path14" />
  </g>
  <path
     style="fill:#ffffff;stroke-width:0"
     d="m 277.18769,675.94244 c -17.84123,-1.61679 -35.97433,-3.95141 -43.2218,-5.56477 -3.28124,-0.73044 -10.09612,-2.14048 -15.14418,-3.13343 -5.04807,-0.99296 -12.06946,-2.62986 -15.60311,-3.63756 -8.76121,-2.49848 -32.30692,-11.8461 -36.25426,-14.3929 -1.76682,-1.13994 -5.04558,-2.71735 -7.28613,-3.50536 -2.24055,-0.78802 -6.1667,-3.01296 -8.72477,-4.94432 -2.55807,-1.93137 -5.97255,-4.19495 -7.58772,-5.0302 -3.50299,-1.81146 -12.17553,-11.6857 -18.42345,-20.97627 -6.95735,-10.34549 -13.50211,-23.20179 -17.07904,-33.54947 -1.79001,-5.1783 -3.69815,-10.24393 -4.2403,-11.25696 -0.85117,-1.59042 -2.64265,-12.35681 -6.487247,-38.98686 -1.507168,-10.43957 -2.136218,-52.86709 -0.945767,-63.78915 2.579259,-23.66398 7.737614,-52.46974 11.505134,-64.24806 1.21104,-3.78604 3.05196,-10.55468 4.09093,-15.04141 1.03897,-4.48672 2.45693,-8.82347 3.15101,-9.63721 0.69409,-0.81373 1.97496,-3.33812 2.84638,-5.60975 3.21397,-8.37815 16.4801,-31.2062 18.13496,-31.2062 0.4167,0 0.74858,-0.51628 0.73751,-1.14729 -0.0111,-0.63101 1.41332,-4.03845 3.1653,-7.57209 1.75199,-3.53365 3.84334,-8.3422 4.64745,-10.68567 0.8041,-2.34347 2.49042,-5.64766 3.74737,-7.34263 5.72916,-7.72568 12.53848,-18.60427 13.69256,-21.8753 0.69698,-1.97544 2.94571,-6.17482 4.99718,-9.33198 2.05148,-3.15715 3.72996,-6.2271 3.72996,-6.82213 0,-0.59503 0.57463,-1.55877 1.27696,-2.14166 0.70234,-0.58287 1.55225,-2.89545 1.88869,-5.13904 0.33645,-2.2436 1.00089,-4.31978 1.47653,-4.61375 0.47564,-0.29396 0.8648,-1.54266 0.8648,-2.77488 0,-1.23222 0.37691,-2.2404 0.83758,-2.2404 1.3684,0 5.85254,-12.83884 9.61692,-27.53489 1.56621,-6.11444 6.91833,-23.01767 9.88091,-31.2062 2.15992,-5.97002 2.92668,-7.38889 8.74302,-16.17881 3.94109,-5.95594 13.44313,-15.12243 18.2083,-17.56529 2.00904,-1.02993 4.68536,-2.98624 5.94737,-4.34735 1.26202,-1.36111 4.35969,-3.52412 6.88373,-4.80668 2.52403,-1.28256 11.19751,-6.5572 19.27441,-11.72141 8.0769,-5.16422 16.9569,-10.54136 19.73334,-11.94919 2.77643,-1.40784 6.08062,-3.10538 7.34263,-3.77231 7.79174,-4.11769 15.22514,-7.67446 16.03906,-7.67446 0.52066,0 2.9799,-1.44558 5.46497,-3.21241 2.48507,-1.76682 4.97782,-3.2124 5.53943,-3.2124 0.56162,0 2.64136,-0.82605 4.62166,-1.83566 1.9803,-1.00961 4.12671,-1.83566 4.76979,-1.83566 0.6431,0 3.55019,-1.23138 6.4602,-2.7364 2.91002,-1.50502 7.56257,-3.34191 10.339,-4.08198 2.77644,-0.74006 9.79783,-3.05152 15.6031,-5.13657 5.80527,-2.085046 14.15427,-4.757682 18.55334,-5.939188 4.39906,-1.181506 8.93096,-2.801458 10.07089,-3.599894 1.13993,-0.798436 2.87747,-1.451701 3.86122,-1.451701 0.98374,0 2.44067,-0.546171 3.23763,-1.213714 0.79696,-0.667543 6.19878,-2.409494 12.00405,-3.871002 15.03042,-3.783987 26.55713,-3.65932 41.78342,0.451908 6.04548,1.632331 12.34812,3.548996 14.00587,4.259256 1.65774,0.710259 3.69803,1.291381 4.53396,1.291381 2.70232,0 34.38177,20.079234 45.16801,28.628624 7.60985,6.03173 24.9656,22.97306 30.63128,29.89987 15.87503,19.40871 26.15477,53.36737 36.60022,120.90717 3.52634,22.80113 3.86132,26.54162 4.192,46.8093 0.49701,30.46095 -0.60755,42.16292 -5.74671,60.88241 -3.59059,13.07877 -15.14877,43.99944 -28.36185,75.87418 -1.67407,4.03845 -4.16529,11.05984 -5.53605,15.6031 -3.03501,10.05921 -8.65414,22.59035 -13.98262,31.18246 -2.18333,3.52059 -3.9697,7.11016 -3.9697,7.97684 0,0.86667 -0.37728,1.80895 -0.83842,2.09395 -0.46112,0.28498 -1.70367,2.30555 -2.7612,4.49013 -2.27183,4.69296 -26.53868,29.00397 -29.11551,29.16846 -2.90943,0.18573 -4.34129,-0.22816 -6.76856,-1.95653 -1.28954,-0.91823 -3.73936,-2.03092 -5.44404,-2.47265 -2.60312,-0.67454 -3.84699,-2.04129 -7.76801,-8.53542 -3.05307,-5.0566 -6.09783,-8.79152 -8.79883,-10.79326 -2.56695,-1.90239 -5.22056,-5.0833 -7.01091,-8.40406 -3.35417,-6.22133 -4.91585,-14.54123 -2.95736,-15.7553 1.82627,-1.13209 1.42108,-10.29161 -0.5911,-13.36261 -1.29638,-1.97852 -1.6386,-4.82471 -1.79423,-14.92214 -0.10694,-6.93809 -0.66719,-13.62436 -1.262,-15.0611 -0.58832,-1.42107 -1.06967,-4.22201 -1.06967,-6.2243 0,-5.22856 -3.17698,-13.9487 -8.11219,-22.26625 -4.05732,-6.838 -6.83566,-9.8836 -14.02139,-15.37024 -1.72068,-1.31382 -4.33914,-4.13569 -5.8188,-6.27084 -3.07308,-4.43447 -2.56217,-6.56808 1.68115,-7.02049 3.75033,-0.39985 6.99681,-2.84577 6.99681,-5.27145 0,-4.63794 -9.00591,-15.30272 -12.92242,-15.30272 -0.9722,0 -3.27977,1.67375 -5.12794,3.71946 -5.41469,5.99342 -6.07903,6.11029 -12.55265,2.20821 -3.10819,-1.8735 -7.94958,-5.83227 -10.75864,-8.79726 l -5.1074,-5.39088 h -5.95245 c -3.40592,0 -6.42365,0.4712 -7.05385,1.1014 -1.67406,1.67405 -1.3209,6.12606 0.84005,10.59 2.24697,4.64162 12.0175,14.669 16.80597,17.24775 3.36693,1.81322 4.2425,3.18488 2.03297,3.18488 -0.68614,0 -3.13315,1.6598 -5.43781,3.68844 -4.84272,4.26274 -6.02512,7.74656 -3.97481,11.71143 1.48068,2.86331 7.36141,8.4637 8.88737,8.4637 0.50427,0 1.74706,-1.40711 2.76177,-3.12691 1.01471,-1.7198 3.28463,-3.81009 5.04427,-4.6451 1.75965,-0.835 3.69951,-2.31906 4.3108,-3.29789 1.51454,-2.42516 3.96994,-2.23441 6.72691,0.52255 2.66814,2.66814 2.21295,4.1211 -1.29259,4.12598 -3.24734,0.005 -8.21195,3.09031 -9.49208,5.89991 -0.82753,1.81621 -0.68265,2.80786 0.77138,5.27963 l 1.79027,3.04338 7.49527,-0.0333 c 4.61046,-0.0206 7.924,-0.46209 8.6092,-1.14728 4.37361,-4.37362 15.43207,5.35077 15.43207,13.57037 0,3.28973 -0.0411,3.3242 -6.41263,5.37629 -7.4513,2.39982 -11.94396,5.74776 -11.94396,8.90065 0,2.89526 4.92897,8.39692 8.1583,9.1062 1.61595,0.35492 4.32154,-0.12323 7.26726,-1.28433 2.58109,-1.01737 4.86443,-1.55256 5.0741,-1.18932 0.78994,1.36857 1.63528,11.26798 1.1049,12.93907 -0.68345,2.15337 -5.89544,5.67002 -12.48932,8.42683 -2.74175,1.1463 -5.91431,2.91407 -7.05012,3.92841 -2.76465,2.46896 -2.68396,6.49584 0.18774,9.36753 2.02158,2.02159 3.01707,2.25285 9.69755,2.25285 4.09457,0 8.20014,0.40431 9.12347,0.89846 1.78488,0.95525 3.70751,5.44276 3.70751,8.65356 0,1.0645 1.00148,3.81671 2.22548,6.11601 1.22402,2.29931 1.94681,4.6273 1.60621,5.17333 -0.3406,0.54603 -2.6844,1.97011 -5.20843,3.16464 -3.29915,1.56135 -4.6748,2.77409 -4.89386,4.31426 -0.449,3.15686 1.55551,7.26041 4.60851,9.43434 2.59013,1.84433 2.88418,1.86134 8.35528,0.48316 l 5.67068,-1.42844 7.48816,7.06511 c 4.1185,3.88581 8.6511,7.93986 10.07246,9.00902 l 2.5843,1.9439 -5.65657,6.17316 c -3.11112,3.39523 -6.09333,7.4965 -6.62713,9.11393 -0.65663,1.98963 -5.19752,6.7857 -14.03967,14.82867 -17.12603,15.57813 -17.52766,16.01265 -23.71312,25.65534 -2.91434,4.54326 -6.35819,9.30857 -7.65299,10.5896 -1.2948,1.28102 -2.35419,2.66698 -2.35419,3.07991 0,0.41293 -1.03256,1.9779 -2.29457,3.47772 -1.26202,1.49982 -2.29636,3.41805 -2.29852,4.26273 -0.002,0.84468 -1.64163,3.69584 -3.64324,6.3359 -2.0016,2.64006 -4.48635,6.46053 -5.52168,8.48992 -1.03532,2.0294 -2.18377,3.69936 -2.55211,3.71104 -0.36835,0.0117 -3.65947,2.63149 -7.3136,5.82181 -3.65413,3.19032 -8.19739,6.45554 -10.09612,7.25603 -8.42043,3.55003 -23.07053,7.29929 -38.47061,9.84542 -18.85008,3.11653 -31.37004,3.42478 -54.3862,1.33903 z m 28.47595,-31.86626 c 3.34011,-1.68542 8.47642,-5.17264 11.414,-7.74938 4.58551,-4.02221 5.65001,-4.56752 7.5248,-3.85472 2.94139,1.11831 13.28684,1.05443 16.32532,-0.10079 1.34685,-0.51207 6.3962,-1.52403 11.22077,-2.2488 6.87419,-1.03268 9.78263,-1.95583 13.4435,-4.26703 2.56935,-1.6221 6.38552,-3.92651 8.48039,-5.12093 5.01104,-2.8571 11.01568,-9.45966 13.46506,-14.80585 1.67962,-3.66605 1.96384,-5.96347 1.95023,-15.76434 -0.0285,-20.57428 -3.12909,-31.74051 -12.38438,-44.60099 -7.90922,-10.9901 -12.40333,-15.3108 -23.93657,-23.01303 -15.87706,-10.60313 -24.20891,-12.73929 -53.32351,-13.67134 l -17.69131,-0.56636 -7.80155,-3.69272 c -8.59637,-4.06892 -17.09913,-9.79312 -24.49325,-16.48927 -6.00775,-5.44065 -10.42422,-7.72166 -19.39084,-10.01494 -9.53234,-2.43795 -32.54856,-4.08943 -38.67679,-2.77516 -4.72657,1.01367 -20.54113,8.45731 -21.59664,10.16516 -0.32086,0.51916 -1.2017,0.94392 -1.95743,0.94392 -1.64111,0 -11.52873,4.79542 -15.72452,7.62627 -2.96524,2.00061 -7.20479,9.17986 -6.77571,11.47398 0.1237,0.66142 -0.22312,2.56015 -0.77072,4.2194 -0.76738,2.3252 -0.67587,4.2445 0.39917,8.37187 0.76715,2.94528 1.66962,9.26443 2.00549,14.04254 l 0.61067,8.68748 -3.01137,2.45776 c -3.53166,2.8824 -3.35635,4.35968 1.23067,10.37007 1.62964,2.13533 4.1722,6.10451 5.65014,8.82039 1.47793,2.71589 4.4888,6.4331 6.69082,8.26047 13.06311,10.84054 22.82145,20.75464 29.92068,30.39826 2.31154,3.14001 4.20281,6.30793 4.20281,7.03983 0,3.23407 18.51395,19.83968 24.78139,22.22703 1.76682,0.673 7.34264,2.18256 12.3907,3.35457 13.14303,3.05142 17.68867,4.90371 31.06039,12.65669 2.62909,1.52435 4.56734,1.63457 20.79697,1.18269 l 17.89768,-0.49832 z M 519.21995,321.01085 c 0.6649,-1.38821 1.74777,-2.52403 2.4064,-2.52403 1.84896,0 8.34356,-5.50802 11.90449,-10.09612 3.75132,-4.83341 5.13656,-11.35178 5.1475,-24.22195 0.009,-10.90091 -1.64973,-14.11918 -13.1688,-25.54604 -8.95723,-8.88556 -9.09155,-8.97473 -13.76744,-9.14058 -14.1484,-0.50184 -19.45432,0.54962 -26.99713,5.34998 -2.66004,1.69288 -5.48362,3.07797 -6.27463,3.07797 -2.41714,0 -10.85824,9.63337 -13.89061,15.8526 -8.21531,16.84911 -7.4377,32.92222 1.96811,40.68081 6.54958,5.40256 8.67784,6.79682 10.375,6.79682 0.95501,0 2.12876,0.37293 2.60832,0.82875 1.60105,1.52172 4.43594,1.7324 21.51158,1.59869 l 16.96832,-0.13287 z M 384.9094,303.32153 c 5.54383,-2.62266 20.13581,-15.86436 24.54651,-22.2751 1.56836,-2.27953 3.4143,-4.80379 4.10209,-5.60947 9.01604,-10.56135 9.47857,-11.25515 9.41022,-14.11566 -0.10131,-4.24022 -1.77283,-8.68029 -5.34418,-14.19572 -4.69462,-7.25017 -7.56723,-6.2874 -12.9284,4.33301 -1.53636,3.04351 -3.15357,5.53366 -3.59378,5.53366 -0.44022,0 -1.06566,1.7688 -1.38985,3.93067 -0.5715,3.81102 -2.63278,8.03582 -5.56623,11.40854 -0.78482,0.90235 -2.72442,3.21534 -4.31023,5.14 -1.58579,1.92464 -5.51063,5.3742 -8.72185,7.66568 -5.8029,4.14086 -5.85391,4.15664 -8.34436,2.58125 -5.57276,-3.52517 -8.74725,-9.35679 -10.70153,-19.6589 -1.6953,-8.93684 -2.06404,-25.49705 -0.60034,-26.96076 0.547,-0.547 0.99455,-2.59581 0.99455,-4.5529 0,-2.70914 -0.64028,-4.19862 -2.68289,-6.24124 -1.47559,-1.47559 -3.58773,-2.68288 -4.69364,-2.68288 -3.13571,0 -9.17916,3.82969 -10.70758,6.78532 -2.0923,4.04606 -2.47979,15.42365 -0.83171,24.42088 5.24396,28.6278 5.93745,30.7641 12.25784,37.76002 8.17848,9.05259 18.9404,11.54239 29.10536,6.7336 z M 269.27809,285.58936 c 3.81261,-3.34751 8.9448,-6.07487 12.87385,-6.84142 4.07523,-0.79508 13.17407,-6.01197 14.79186,-8.48102 0.77488,-1.18263 2.40152,-4.963 3.61473,-8.40082 3.65206,-10.34862 2.80167,-27.04246 -2.09508,-41.12812 -2.08783,-6.00569 -12.26479,-16.33489 -20.18907,-20.49104 -9.44978,-4.95627 -15.31666,-6.58492 -23.72082,-6.58492 -6.7625,0 -8.19375,0.32089 -13.30468,2.98294 -3.14986,1.64062 -6.18036,3.78645 -6.73446,4.76851 -0.55409,0.98206 -1.6811,2.55604 -2.50446,3.49773 -0.82336,0.94169 -5.02818,8.60516 -9.34405,17.02994 -9.00355,17.57536 -10.44141,23.01852 -9.45846,35.80627 0.71595,9.31417 2.53457,13.72943 8.26894,20.07529 8.43625,9.33589 13.4504,11.0401 31.80949,10.81149 l 12.70453,-0.15821 z"
     id="path24"
     transform="scale(0.75000002)" />
  <path
     style="fill:#ffffff;stroke-width:0"
     d="m 238.41064,269.15349 c -2.10156,-1.89302 -4.60213,-5.20153 -5.55682,-7.35223 -1.65366,-3.72533 -1.6673,-4.31167 -0.28821,-12.3907 0.79618,-4.66418 2.43471,-10.54544 3.64119,-13.06947 1.20647,-2.52404 2.84797,-6.03473 3.64777,-7.80156 2.67875,-5.91755 6.77345,-12.32419 9.22404,-14.4321 2.06071,-1.77255 3.47295,-2.08883 9.32696,-2.08883 8.45312,0 12.13428,1.87971 20.26666,10.34874 l 5.52205,5.75064 0.67379,8.08878 c 0.37059,4.44883 0.38994,11.29538 0.043,15.21456 l -0.63078,7.12579 -6.11224,2.09918 c -3.36174,1.15455 -8.17737,3.4536 -10.7014,5.10901 -5.34211,3.50367 -8.32558,4.54845 -9.15522,3.20607 -1.11975,-1.81179 -6.92112,-1.03766 -10.03762,1.33941 -4.01814,3.06478 -5.36047,2.90864 -9.86319,-1.14729 z m 29.14781,-22.6245 c 2.02331,-2.02331 3.12062,-4.00082 3.12062,-5.6238 0,-3.20115 -5.07261,-13.54219 -8.37923,-17.08194 -2.33313,-2.49763 -2.97815,-2.69805 -7.86566,-2.44409 -4.75983,0.24733 -5.3241,0.48696 -5.3241,2.26093 0,1.09136 -0.98451,3.03534 -2.18779,4.31997 -2.7199,2.90377 -2.2529,6.26503 1.66073,11.95331 6.98307,10.14953 13.2549,12.33615 18.97543,6.61562 z"
     id="path26"
     transform="scale(0.75000002)" />
  <path
     style="fill:#ffffff;stroke-width:0"
     d="m 486.19763,306.93919 c -2.47379,-0.76121 -5.14784,-2.39154 -6.29315,-3.83685 -1.71964,-2.17006 -1.93289,-3.35045 -1.56189,-8.64561 0.25193,-3.59571 1.18889,-7.5822 2.26507,-9.63721 6.96384,-13.29777 7.97708,-14.56077 10.80939,-13.47391 2.7781,1.06605 1.59467,5.21698 -2.48865,8.72909 l -3.89383,3.34912 1.8223,4.45243 c 1.57287,3.84299 2.5122,4.7906 6.86256,6.92304 6.46939,3.17114 7.76281,3.15495 11.80281,-0.14768 8.21314,-6.71408 9.80204,-10.22237 7.04464,-15.55458 -1.53856,-2.97526 -4.28769,-4.5705 -11.50472,-6.67586 -8.08687,-2.3591 -4.9134,-6.25063 5.09727,-6.25063 4.46071,0 5.38174,0.35783 8.74729,3.3984 2.0689,1.86912 4.95737,5.48308 6.41884,8.03101 2.27485,3.96599 2.65845,5.61606 2.66583,11.46699 0.007,5.88221 -0.32555,7.31659 -2.38988,10.29542 -2.34481,3.38356 -2.45678,3.43088 -5.00248,2.11445 -3.69941,-1.91304 -4.7589,-1.71083 -7.80096,1.48885 -1.48266,1.55949 -3.81105,3.41809 -5.1742,4.13023 -3.14172,1.64132 -11.83716,1.56312 -17.42624,-0.1567 z"
     id="path28"
     transform="scale(0.75000002)" />
  <path
     style="fill:#ffffff;stroke-width:0"
     d="m 351.90698,587.24719 c -2.01923,-0.51182 -4.56002,-1.09508 -5.6462,-1.29613 -1.14814,-0.21252 -2.96883,-2.0616 -4.3492,-4.41701 -1.30587,-2.22831 -5.37346,-6.78872 -9.03907,-10.13424 l -6.66476,-6.08276 -0.11486,-10.29263 c -0.0632,-5.66095 -0.39949,-11.35584 -0.74737,-12.65532 -0.43658,-1.63076 -0.18775,-2.7318 0.80323,-3.55424 0.97673,-0.81061 1.43575,-2.76953 1.43575,-6.12724 0,-2.71463 0.1566,-4.93568 0.348,-4.93568 0.1914,0 2.70278,1.07805 5.58085,2.39568 6.13341,2.80797 16.14395,10.14956 23.22923,17.03601 5.78707,5.62467 12.66073,16.77885 13.53738,21.96767 0.33123,1.96056 0.97933,3.79771 1.44021,4.08255 2.37959,1.47067 -0.61098,9.06817 -3.97057,10.08722 -1.14135,0.34619 -2.94526,1.42438 -4.00868,2.39596 -2.37596,2.17076 -6.96551,2.7642 -11.83394,1.53016 z"
     id="path30"
     transform="scale(0.75000002)" />
  <path
     style="fill:#ffffff;stroke-width:0"
     d="m 286.56214,631.79023 c -0.31913,-0.83165 -0.0744,-2.79351 0.54389,-4.35969 0.61826,-1.56617 1.67304,-6.5648 2.34394,-11.10806 0.96903,-6.56217 1.90099,-9.38156 4.53299,-13.71345 1.82224,-2.99914 3.31316,-5.7378 3.31316,-6.08592 0,-0.34811 2.37489,-1.76323 5.27752,-3.14471 2.90264,-1.38148 6.37381,-3.08282 7.71371,-3.78075 4.55633,-2.37331 7.19205,-1.64347 11.57741,3.20582 4.95574,5.48003 9.0897,15.8989 6.9973,17.63543 -0.70266,0.58316 -1.27756,2.08977 -1.27756,3.34804 0,2.26692 -0.0223,2.27316 -2.44538,0.68547 -3.27134,-2.14346 -15.6035,-1.47852 -21.57591,1.16336 -4.98462,2.20494 -8.46768,7.24965 -8.52352,12.34511 -0.0324,2.95668 -0.34053,3.4804 -2.04909,3.48288 -1.10602,0.002 -2.26621,0.41593 -2.5782,0.92074 -0.88707,1.43532 -3.20895,1.07695 -3.85026,-0.59427 z"
     id="path32"
     transform="scale(0.75000002)" />
  <path
     style="fill:#ffffff;stroke-width:0"
     d="m 282.68392,560.79202 c -2.63526,-3.02982 -5.13277,-6.69913 -5.55003,-8.15403 -1.00962,-3.52036 0.31245,-14.55388 2.1571,-18.00233 0.81009,-1.51442 1.47544,-3.6352 1.47855,-4.71285 0.005,-1.68291 0.68552,-2.03476 4.82426,-2.49377 14.14289,-1.56851 17.05298,-1.66101 19.02662,-0.60475 1.90751,1.02087 2.00886,1.52093 1.46088,7.20766 -1.52749,15.85181 -5.93493,25.37505 -13.91388,30.06395 -2.06357,1.21268 -3.96349,2.20488 -4.22204,2.20488 -0.25855,0 -2.62621,-2.47895 -5.26146,-5.50876 z"
     id="path34"
     transform="scale(0.75000002)" />
  <path
     style="fill:#ffffff;stroke-width:0"
     d="m 252.7814,623.09402 c -2.01923,-0.46509 -4.91039,-1.40694 -6.42481,-2.093 -1.51442,-0.68607 -6.04325,-1.72034 -10.06407,-2.29838 -11.98787,-1.7234 -14.11267,-4.53647 -8.29252,-10.97868 1.76682,-1.95566 3.2124,-4.0628 3.2124,-4.68254 0,-2.82215 3.19787,-7.53114 5.87362,-8.64914 1.58061,-0.66042 5.5386,-3.52479 8.79555,-6.36528 5.51518,-4.80996 6.04981,-5.07155 7.78752,-3.81049 1.02619,0.74471 3.44946,2.20728 5.38505,3.25015 3.8813,2.09119 7.74989,9.05485 8.61548,15.50826 0.57002,4.24984 -1.53778,11.01589 -5.26036,16.8858 -2.8486,4.49177 -3.38378,4.6715 -9.62786,3.2333 z"
     id="path36"
     transform="scale(0.75000002)" />
  <path
     style="fill:#ffffff;stroke-width:0"
     d="m 239.66655,548.63256 c -2.83921,-1.97623 -11.17787,-12.27058 -11.19799,-13.82428 -0.005,-0.40987 -1.07685,-3.00109 -2.3812,-5.75827 -1.87174,-3.95654 -2.24209,-5.77942 -1.75723,-8.64929 0.33789,-1.99993 0.56429,-3.86346 0.50312,-4.14118 -0.0612,-0.27772 0.47466,-1.09081 1.19072,-1.80688 0.71607,-0.71606 2.44801,-5.03806 3.84877,-9.60443 1.40076,-4.56637 3.03031,-8.30249 3.62123,-8.30249 1.3021,0 16.96277,12.97681 21.94867,18.1872 l 3.57907,3.74022 -1.1393,8.54017 c -1.31415,9.85088 -4.60932,18.13213 -8.5264,21.42814 -3.32816,2.80046 -5.86864,2.85056 -9.68946,0.19109 z"
     id="path38"
     transform="scale(0.75000002)" />
  <path
     style="fill:#ffffff;stroke-width:0"
     d="m 203.83076,594.32887 c -1.5682,-1.78607 -4.98631,-6.44817 -7.59581,-10.36023 -2.6095,-3.91205 -7.24031,-9.40723 -10.29068,-12.21151 -6.40342,-5.8868 -6.46775,-7.44473 -0.3708,-8.97996 2.2441,-0.56507 4.62019,-1.67807 5.2802,-2.47333 3.6285,-4.37207 9.81363,-3.42529 14.97977,2.29301 4.3328,4.79589 6.56494,9.34763 8.48488,17.30219 l 1.58591,6.57065 -3.70085,5.24988 c -2.03548,2.88743 -4.11047,5.38641 -4.61111,5.55329 -0.50064,0.16688 -2.19332,-1.15791 -3.76151,-2.94399 z"
     id="path40"
     transform="scale(0.75000002)" />
  <path
     style="fill:#ffffff;stroke-width:0"
     d="m 183.02636,533.33034 c -6.00094,-2.03748 -8.22313,-3.36521 -12.16124,-7.26621 -4.3752,-4.33395 -6.25883,-8.40832 -3.88729,-8.40832 1.70528,0 4.56875,-5.91797 4.57223,-9.44947 0.003,-3.46539 3.13072,-7.98929 5.52288,-7.98929 1.44254,0 16.38711,-7.32159 17.01358,-8.33523 0.58125,-0.94049 9.81831,-1.126 13.0429,-0.26194 3.13087,0.83894 3.57526,4.45982 1.33309,10.862 -1.06649,3.0452 -2.37202,7.98279 -2.90119,10.97241 -0.52917,2.98963 -1.6843,6.50033 -2.56695,7.80155 -0.88266,1.30123 -2.07486,3.39842 -2.64933,4.66044 -1.463,3.21396 -7.60454,10.11545 -8.90028,10.0016 -0.59167,-0.052 -4.37995,-1.21638 -8.4184,-2.58754 z"
     id="path42"
     transform="scale(0.75000002)" />
</svg>
