<?xml version="1.0" encoding="UTF-8" standalone="no"?>
<svg
   xmlns:dc="http://purl.org/dc/elements/1.1/"
   xmlns:cc="http://creativecommons.org/ns#"
   xmlns:rdf="http://www.w3.org/1999/02/22-rdf-syntax-ns#"
   xmlns:svg="http://www.w3.org/2000/svg"
   xmlns="http://www.w3.org/2000/svg"
   xmlns:sodipodi="http://sodipodi.sourceforge.net/DTD/sodipodi-0.dtd"
   xmlns:inkscape="http://www.inkscape.org/namespaces/inkscape"
   width="764"
   height="730.667"
   viewBox="0 0 573 548"
   preserveAspectRatio="xMidYMid meet"
   version="1.1"
   id="svg8"
   sodipodi:docname="face7.svg"
   inkscape:version="1.0.1 (3bc2e813f5, 2020-09-07)">
  <metadata
     id="metadata14">
    <rdf:RDF>
      <cc:Work
         rdf:about="">
        <dc:format>image/svg+xml</dc:format>
        <dc:type
           rdf:resource="http://purl.org/dc/dcmitype/StillImage" />
      </cc:Work>
    </rdf:RDF>
  </metadata>
  <defs
     id="defs12" />
  <sodipodi:namedview
     pagecolor="#ffffff"
     bordercolor="#666666"
     borderopacity="1"
     objecttolerance="10"
     gridtolerance="10"
     guidetolerance="10"
     inkscape:pageopacity="0"
     inkscape:pageshadow="2"
     inkscape:window-width="1920"
     inkscape:window-height="1027"
     id="namedview10"
     showgrid="false"
     inkscape:zoom="0.58850339"
     inkscape:cx="553.06467"
     inkscape:cy="653.32586"
     inkscape:window-x="1912"
     inkscape:window-y="-8"
     inkscape:window-maximized="1"
     inkscape:current-layer="svg8" />
  <path
     d="M357 51c-4.7.4-12.5 1.5-17.5 2.4-18.6 3.5-28.2 5.5-34 7.1-3.3.9-10.2 2.5-15.4 3.6s-10.6 2.6-12 3.3-4.4 1.9-6.6 2.6a102.28 102.28 0 0 0-8.5 3.2 220.21 220.21 0 0 1-7 3.2c-4.1 1.8-15.2 9.2-18.9 12.5-1.9 1.7-3.8 3.1-4.1 3.1-.4 0-8.9 8.1-18.9 18-10.1 9.9-18.6 18-19 18-.5 0-3.2 2.2-6 4.9-2.9 2.8-8.7 6.7-12.9 8.9l-14.7 7.6c-3.8 2-7.7 3.6-8.5 3.6-.9 0-2.5.6-3.6 1.4-2.6 1.8-14.3 6.6-16.2 6.6-2.7 0-19 7-24.4 10.5-5.1 3.3-9.6 7-20.6 17.1-4.6 4.1-12.4 15.3-14.3 20.4-.3.8-1.7 4.2-3.2 7.5l-3.7 8c-1.2 2.7-3.9 11.5-4.3 14-.2 1.1-.8 3-1.5 4.2-1.4 2.5-2.7 33.4-2.7 60.8.1 17.2 2 32.6 5 40.5.8 1.9 1.7 4.6 2.1 6 .3 1.4 1.7 4.9 3 7.8s2.4 5.9 2.4 6.7.3 1.5.8 1.5c.4 0 1.9 2.2 3.5 4.9 7.1 12.6 22.6 27.5 34.7 33.2l9.8 4.7c3 1.4 6.1 3.2 6.9 4s4.5 2.6 8.1 3.9c3.7 1.4 7.4 3 8.2 3.7 1.8 1.5 10 4 10.7 3.2.5-.5 8.7 1.8 13.2 3.6 1.4.6 3.1 1.2 3.6 1.3.6 0 1.7.4 2.5.7s4.9 1.6 9 2.9c4.1 1.2 8.6 3 10 3.9s3.4 2 4.5 2.3 4.7 1.7 8 3.1c3.3 1.3 7.1 2.7 8.5 3s5 1.2 8 2.1 6.9 1.9 8.5 2.2c1.7.3 3.9 1.2 5 1.8 2.8 1.8 14 5.6 16.7 5.7 1.3.1 3 .7 3.8 1.3.8.7 3.5 1.9 6 2.8 2.5.8 8.3 2.8 13 4.5 4.7 1.6 12.3 3.9 17 5.1s9.3 2.7 10.2 3.2c1 .5 2.4.9 3.2.9s3.9 1.4 6.8 3c2.9 1.7 6.9 3.8 8.8 4.6l5.5 2.4c9.8 4.4 12.6 5.3 16.5 5.5 2.5.1 9 1.2 14.5 2.4 11.3 2.5 24.3 3.1 29.5 1.3 3.3-1 11.9-3.4 22-6.1 12.5-3.3 13.5-3.6 27.8-10.2 3.5-1.6 6.5-2.9 6.7-2.9.3 0 3.4-2 6.8-4.4 3.5-2.5 9.5-6.1 13.2-8.2 6.4-3.4 12.4-8.7 21.7-19.1 3.2-3.6 8.9-13.3 8.8-14.8-.1-.3 1.2-3.3 2.8-6.8 1.6-3.4 3.3-8 3.6-10.2.4-2.2 1.7-6.7 2.9-10 1.9-5.2 2.2-8.1 2.2-22 0-20-.5-26.8-2.3-32.5-.8-2.5-1.6-9.7-1.8-16-.4-12.3-2.5-26.7-4.9-33.8-.8-2.3-1.5-5.6-1.5-7.2 0-1.5-.4-5-1-7.7l-2.4-13.3-2.1-11.5c-.3-1.7-.8-6.3-1-10.3-.3-4-.9-8.1-1.4-9s-.9-8.2-1.1-16.2l-.5-24.7c-.2-5.7.1-13.1.6-16.5 1.2-8.5 1.2-33.2-.2-39.9l-1.4-8.1c-.2-1.5-.9-3.6-1.4-4.7-.6-1.1-1.1-3.1-1.1-4.5 0-2.6-3.9-11.8-5.2-12.4-.5-.2-.8-1-.8-1.7 0-2.5-6.2-10.9-12.4-16.7-3.4-3.2-6.4-5.8-6.7-5.8s-1.9-1.1-3.5-2.5-5.1-3.7-7.9-5.1c-2.7-1.5-5.2-2.9-5.5-3.3-.3-.3-3-1.7-6-3.1s-7.7-3.7-10.5-5.2c-2.7-1.5-7-3.7-9.5-4.8l-7.3-3.6c-1.6-.8-3.7-1.4-4.6-1.4-1 0-2.1-.3-2.4-.6-.4-.4-3.3-1.8-6.4-3.1-6.7-2.7-20.9-3.7-35.3-2.3zm28.3 12.8c.7.5 4.1 1.7 7.7 2.7s7.7 2.7 9.2 3.7c1.4 1 3.3 1.8 4.1 1.8s2 .6 2.6 1.3c.6.8 2.9 1.9 5.1 2.6 2.2.6 4 1.6 4 2.1 0 .6.3 1 .8.9 1.5-.2 5.2 1.4 5.2 2.2 0 .5.4.9.9.9 2.3 0 17.4 8.1 21.3 11.5 1.3 1.1 3.5 2.6 5 3.4 3 1.5 11.8 10 11.8 11.3 0 .4 1.3 2.7 3 4.9 1.6 2.3 3.2 5.7 3.6 7.5.3 1.9 1 3.4 1.6 3.4.5 0 .7.4.4.9-.3.4-.1 2.3.5 4.2 4.1 14 4.7 24.9 3.5 70.9-.3 14.2-.2 28.7.4 34.5 2.6 25.4 4.4 39.1 5.2 40.8.5 1.1 1.1 3.2 1.3 4.7.2 1.6.8 4.6 1.4 6.7s1.3 6.5 1.6 9.8 1 7.3 1.5 9c1.2 4.2 2.8 13.7 3.5 22l2.9 28c1.4 11 1.7 22.6.7 23.8-1.2 1.6-7.8 1.4-16.4-.4-6.6-1.4-8-3.6-5.4-9.2 2.9-6.3 2.9-7.4.2-9.5-2.2-1.7-3.1-1.9-5.1-1-1.3.6-2.4 1.4-2.4 1.8s-.9 1.9-2.1 3.4c-1.6 2-2.4 2.4-3.4 1.6-.7-.6-1.9-.9-2.6-.8-.8.2-1.4-.4-1.4-1.3s-.5-2.3-1.1-3c-.7-.8-2.1-3.3-3.3-5.7-2-4-2.1-4.3-.4-4.9 3.1-1.1 6.3-4.6 6.3-6.8 0-2.5-3-4.2-9-5.1-2.9-.5-4-1.1-4-2.4 0-.9-.3-2-.7-2.3-.4-.4-.8-2.5-1-4.7-.4-3.8-.2-4.1 2.7-4.6 1.7-.4 3.3-1.1 3.6-1.5.3-.5 1.6-.6 2.9-.3 1.9.5 2.7 0 3.9-2.3 1.4-2.8 1.3-3.1-.7-4.9-5.5-4.8-6.8-5.2-11.9-3.2-6.4 2.4-6.6 2.4-7.4-1.7-.4-2.4-1.2-3.5-2.4-3.5-2.7 0-4.4-6-1.7-6 2.7-.1 7.7-5.9 8.3-9.8.6-3.6.4-4-2.1-4.6-2.7-.7-3.6-.3-8.5 4.2-3.7 3.4-6.7 3.8-9.4 1.3-1.2-1.1-2.8-2.1-3.5-2.1s-2.7-.7-4.4-1.6c-5.9-3.1-6.7-3.4-8.3-3.4-.9 0-2.6.8-3.9 1.9l-2.4 1.8 4.9 4.3c2.7 2.4 6.2 5.2 7.7 6.2 1.6 1 2.8 2.2 2.7 2.8-.3 2.6-.5 3-1.8 3-.8 0-1.7.7-2 1.6-2.5 6.4 5.9 11.2 10 5.6 1.4-1.9 5.5-.7 4.7 1.4-.3.9 0 1.4.6 1.2.7-.2 2.2 1.4 3.4 3.5l2.2 3.8-2.4 1.8c-3.3 2.5-2.3 6.9 1.8 7.7 2.7.6 3 1.1 3.6 6.2.4 3.4.3 5.8-.3 6-3.6 1.2-6.8 7.7-4 8 7.4.9 11.8 3.7 13.4 8.7 1.8 5.6 18.6 24.5 21.7 24.5.8 0 2.8.7 4.3 1.5 1.6.8 4.6 1.8 6.7 2.1 3.9.7 4.3 1.4 2.7 4.5-.8 1.5-.7 2.5.7 4.4 2.5 3.4 6.2 3.2 9.8-.5 3-3.2 5.5-3.9 5.5-1.7 0 .8-.7 3.6-1.5 6.2-.8 2.7-1.2 5.2-.9 5.7.3.4 0 .8-.5.8-.6 0-1.1.6-1.1 1.4 0 1.6-3.3 10-6.6 17-3.7 7.7-18.6 22.8-25.4 25.8-2.5 1.1-6 3.1-7.9 4.6-3.4 2.7-6.2 4.3-16.3 9.4-7.7 3.8-11.9 5.6-15.3 6.3-3.3.7-12.1 3.3-14.5 4.2-.8.3-1.9.7-2.5.8-.5 0-1.7.4-2.5.7-11.3 4.2-24.8 5.6-32.3 3.4-2.8-.8-7.6-1.7-10.6-2s-5.7-1-6-1.5-4.2-1.2-8.6-1.6c-6.3-.5-9.8-1.5-16.2-4.6-4.6-2.1-8.3-4.3-8.3-4.9 0-.5-.5-1-1.2-1-.6 0-1.9-.6-2.7-1.3-.9-.7-3.4-1.8-5.6-2.5l-10-2.7a305 305 0 0 1-10.5-3.1 73.14 73.14 0 0 0-8-2.3c-1.9-.5-6-1.8-9-3.1-3-1.2-8.2-3-11.5-4s-7.3-2.3-9-3c-5.8-2.4-7.1-2.8-17-5.5-5.5-1.5-11.6-3.3-13.5-4s-5.5-1.8-8-2.5-8.3-3.1-12.9-5.3c-4.7-2.3-9.4-4.3-10.5-4.4-1.2-.2-3.2-.7-4.6-1.2s-4.9-1.5-7.8-2.1c-2.8-.7-5.5-1.6-5.8-2.1s-1.3-.9-2.3-.9-3.6-.8-5.7-1.7l-4.4-1.8c-.3-.1-1.8-.5-3.5-1-6.7-1.9-30.5-13.4-34-16.5-1.1-.9-3.2-2-4.7-2.4-1.4-.3-4-1.7-5.6-3.1-1.7-1.4-3.7-2.5-4.5-2.5-.9 0-1.9-.5-2.2-1-.3-.6-1.4-1-2.5-1-1 0-2-.6-2.3-1.3-.2-.6-3.9-5.8-8.1-11.4S81 361.9 81 361.7c0-.3-.8-2.2-1.7-4.3-1-2.2-1.8-4.4-1.8-4.9-.1-.6-.6-2-1.3-3.2s-1.2-3.2-1.2-4.5-.4-2.8-1-3.4c-1.8-1.8-4.9-26.7-5-40.4-.3-20.6 1.2-48.5 2.7-53 .3-.8.6-3.3.7-5.5.1-2.3 1.4-6.6 2.9-9.6 1.5-3.1 2.7-6 2.7-6.4 0-.9 5-11.8 7.7-17 2.3-4.2 15.4-19.2 17.6-20 1-.4 3.7-2.3 6.2-4.3 8.4-7 13.8-9.6 15.9-7.5.8.8 1.3.9 4.2 1.2 1.4.1 1.5 1.1.9 7.3l-1 11.6c-.1 2.3-.7 4.8-1.3 5.4-.7.7-3.8 1-7.6.9-5.7-.2-6.6 0-8 2.1-3.8 5.4-.6 8.3 7.8 7.3 3.4-.5 5.6-.3 6 .3.7 1.2-1.2 10.1-2.6 11.8-.4.6-.6 1.8-.2 2.7.8 2.2-.8 2.8-4.6 1.7-3.9-1.1-7 .8-7 4.5 0 2.5 3.4 6 5.8 6 3 0 2.1 4.6-1.3 6.5s-4.5 4.9-2.1 6.2c1.8 1 2.1 4 .6 6.8-.7 1.3-.7 3.5 0 6.7.9 4.2 1.4 4.8 3.8 5 2.1.1 3.1-.5 4.5-2.8.9-1.7 1.7-3.9 1.7-4.9 0-2.6.5-2.7 9.4-2.1l7.9.6 2.9-3.9c3.2-4.4 3.7-9.2 1.1-11.1-1.8-1.4-4.6-.1-8.5 3.7-1.9 1.9-3 2.1-6.5 1.2-2-.6-2.2-1.1-1.6-5.3.8-6.1 1.9-7.4 5.9-6.7 2.3.5 3.3.2 3.8-.9.5-1.3.9-1.3 2.5-.3 2.9 1.8 3.3.8 2-5.1l-1.1-5.1h-7.9l.6-5.8c.4-3.1 1-6 1.4-6.5.4-.4 2.6-.9 4.9-1.1 5.2-.4 5.2-.5 5.9-5.4l.5-3.9-4.7-.7c-3.8-.6-4.5-1-4-2.4.4-.9.9-4.6 1.1-8.2l.3-6.5h11.6V184c0-4.3-.1-4.5-2.7-4.2-2 .3-2.8-.1-2.8-1.2 0-.9-.4-1.6-1-1.6-1.4 0-1.2-6.2.3-8.1 1-1.3 9.1-5.1 10.7-5.1.3.1 2.5-.8 4.9-1.9 2.4-1 4.7-1.9 5.1-1.9s1.3-.6 1.9-1.4c.7-.8 2.6-1.8 4.2-2.1 1.6-.4 3.2-1.2 3.6-1.9.5-.7 2.4-2.1 4.3-3.1 6.8-3.7 14.5-9 17.7-12.3 1.8-1.7 3.6-3.2 4-3.2.5 0 3.9-3 7.7-6.5 3.8-3.6 7.2-6.5 7.7-6.5.4 0 2.4-2.3 4.4-5 2-2.8 4.3-5 5-5s1.9-1.4 2.7-3c1.6-3.4 19.6-16.7 29.3-21.7 11.9-6.2 17.5-8.6 18.3-7.9.7.7 1 3.4 1.5 13.8.1 2.7.5 4.8 1 4.8.4 0 .7.9.7 1.9 0 2.4 1.8 3.6 4.6 3.3 1.4-.2 4.3 1.8 9 6.2 3.8 3.6 7.2 6.6 7.5 6.6.4 0 .9.7 1.3 1.5.4 1-.5 2-2.9 2.9-2.9 1.3-3.5 2-3.5 4.6 0 2.4.6 3.3 2.7 4.1 1.5.5 3.9.9 5.3.8 7.5-.4 8.8 0 11.1 3.8 1.3 2.1 2.6 4 3 4.3.3.3 1 1.9 1.3 3.7.4 1.7 1.8 4.3 3.1 5.7s2.2 2.6 2 2.6c-.3 0 .3.9 1.2 2 3.6 4.2 12.7 3.4 11.6-1-.5-1.9-.2-2.1 3.5-1.9 3.3.2 4.5-.2 6.1-2.2 4.2-5.1 2.1-6.8-9.3-7.5-2.7-.1-5.2-.7-5.6-1.4-.3-.6-1.3-.8-2.1-.5-1 .4-1.8-.5-2.6-2.6-1.3-3.5-1-4.9 1.2-4.9 3.5 0 1.7-7.8-2.5-10.7-1.9-1.3-2.5-1.3-4.7-.2-2.3 1.3-2.7 1.2-4.1-.9-.8-1.2-2.3-2.2-3.3-2.2-1.1 0-1.9-.4-1.9-1 0-2.1-6.2-10.8-8-11.3-3-.8-3.6-3.5-1.1-5.8 3.3-3.1 2.7-5.5-1.9-7.3-2.2-.9-5.7-1.6-7.8-1.6-3.5 0-4-.4-5.5-3.8-2.9-6.7-2.4-8.7 3.1-11 2.6-1.1 7.2-2.3 10.2-2.6 3-.4 8.6-1.6 12.5-2.6 3.8-1.1 10.8-2.4 15.5-3 4.6-.7 8.7-1.3 9.1-1.6 1-.6 9.1-1.5 20.9-2.4s23.6-.5 25.3.8zM242.7 113c-6.3 1.6-10.9 4.5-17.5 11.2-6.4 6.4-7.6 8.1-11 15.3l-4 8.3c-4.3 8.9-5.5 22.5-3.2 34.9.7 4 1.7 7.3 2.1 7.3.5 0 .8 1 .8 2.2-.2 3.1 2.2 8.9 4.3 10.9 1 .9 1.5 1.8 1.2 2.2-.7.7 7.7 8.7 9.2 8.7.7 0 1.4.5 1.6 1.1.2.5 1 1.1 1.8 1.3s2.9.9 4.5 1.6c4.4 2 26.7 1.6 33.4-.5 1-.3 3.1.1 4.7 1 4.4 2.3 7.3 1.8 10.5-1.6 1.6-1.7 2.9-3.5 2.9-4.1 0-.5 2.3-3.2 5.1-5.9 4.8-4.6 9.9-12.5 9.9-15.2 0-.7.7-2.4 1.4-3.9 2.4-4.6 2.1-27-.4-30.3-.4-.6-1-2.4-1.4-4-1-4.2-2.9-8.5-3.9-8.5-.5 0-.5-.4-.2-1 .5-.8-6.1-10.6-10.3-15.5-4.1-4.7-13.6-12-17.4-13.5-5.7-2.2-18.9-3.2-24.1-2zm19.2 12.5c3 .8 5.9 2.1 6.3 3 .5.8 1.4 1.5 2.1 1.5 1.6.1 5.7 3.6 5.7 4.9 0 .6.4 1.1.9 1.1s1.9 1.5 3 3.3 2.9 4.4 4.1 5.6c1.1 1.3 2 2.9 2 3.5s.6 2.2 1.3 3.6 1.9 4.7 2.7 7.5c.7 2.7 1.6 5.4 1.9 6 1.1 1.9-.1 17.9-1.6 21.9-2.1 5.3-2.6 6-10.5 14.5-6.4 6.9-6.8 7.2-9 5.8-1.8-1.2-3.6-1.3-8-.7-22.4 3.2-33.8-.3-39.5-12-2.3-4.7-4.7-12.3-4.8-15.2 0-.9-.3-2-.7-2.4-1.5-1.4-.8-10.5 1.1-14.4 1.3-2.7 1.5-4.2.8-4.9s-.7-1.7 0-3.3c.6-1.3 1.6-3.7 2.3-5.3.7-1.7 1.6-3.7 2.1-4.5s1.8-3.2 2.9-5.2c4.8-8.9 15.4-15.7 24.5-15.8 2.8 0 7.4.7 10.4 1.5zm-12.6 33.7c-4.3 4.6-5.1 7.2-4 14 .7 4.2 1.7 6.8 3.1 8 4.2 3.5 14 1.3 18-4 1.6-2.1 1.6-2.5.1-4.8-.9-1.3-1.3-2.9-1-3.4.3-.6.1-1-.4-1-.6 0-1.1-.7-1.1-1.5 0-.9-.5-2.1-1-2.8-.6-.7-1.8-2.2-2.8-3.5-.9-1.3-3.2-2.5-5.2-2.8-2.8-.5-3.9-.1-5.7 1.8zm143-14.9c-4.7 2.9-12.9 11.2-16 16.2l-3.8 6.1c-1.4 2.3-3.2 7.2-4 10.9-1.6 7.8-1.3 22.6.5 27 .7 1.6 1.2 3.8 1.1 4.7-.1 1 .3 1.8.8 1.8.6 0 1.1.5 1.1 1 0 1.8 4.3 10.5 5.6 11.2.6.4 1.5 1.9 1.8 3.2.3 1.4 2.3 3.8 4.4 5.3 2 1.5 4 3.2 4.3 3.6.3.5 1.2.9 2 1.1.8.1 2.4.7 3.6 1.4 3.2 1.7 14.2 4.2 19 4.2 5 0 12.4-1.6 17.3-3.8 1.9-.9 3.8-1.6 4.1-1.6 1-.1 8.9-8.5 8.9-9.4 0-.5 1.1-1.9 2.5-3.2s2.3-2.5 2-2.8c-.2-.2.7-2.1 2-4.1 1.4-1.9 2.5-4.2 2.5-5.1 0-.8.8-3.8 1.8-6.5 2.2-5.9 2.7-17.2 1.2-24.1-3.5-15.3-15.8-29.4-29-32.9-2.6-.8-5.8-2-12.5-5.1-2.2-1-6.7-1.9-10-2.1-5.3-.2-6.6.1-11.2 3zm13.3 8.8c.3.6 1.7.8 2.9.5a4.19 4.19 0 0 1 3.9.9c.8.8 2.2 1.5 3 1.5.9 0 2.4.4 3.4.9 4 2.2 10.9 5.1 12 5.1.7 0 1.7.9 2.4 2s1.8 2 2.5 2 1.3.4 1.3.9.6 1.6 1.3 2.3c1.5 1.6 6.2 11.4 7.2 14.8 1.6 6 1.6 11.4 0 18-.9 3.9-2.1 7-2.5 7s-1 1.2-1.3 2.7c-.4 1.6-2.2 4.5-4.2 6.5-1.9 2-3.5 4.1-3.5 4.7 0 .5-.9 1.3-2.1 1.6-1.1.4-3.6 2-5.5 3.7-3.3 2.9-3.8 3-12.4 2.9-4.9 0-9.7-.5-10.7-1s-3.3-1.6-5-2.3c-1.8-.7-3.3-1.6-3.3-2 0-.5-.7-.8-1.6-.8-1.6 0-7.4-5.7-7.4-7.3s-.3-2.3-2.1-4.6c-1.1-1.3-1.9-3.2-1.9-4.2s-.5-2.1-1.1-2.4c-.6-.4-.8-1.3-.5-2 .3-.8 0-1.6-.7-1.8-.9-.3-1.2-4-1.1-12.8.1-10.8.4-13 2.4-17.3 3.2-6.6 9.2-14.5 13.7-17.9 3.8-2.8 9.6-3.7 10.9-1.6z"
     id="path2" />
  <path
     d="M406 182c0 .5-.6 1-1.4 1-2.1 0-2.7 2.8-1.7 8.8 1.2 7.7 3.8 9.9 12.3 10.6l6.8.5 1.6-3.4c.8-1.8 1.6-5.5 1.6-8 0-4-.5-5.1-3.3-7.6-2.9-2.6-4-2.9-9.6-2.9-3.5 0-6.3.4-6.3 1zm-83.7 35.2c-3.6 3.9-3.2 8.8.7 8.8 1 0 2.1.7 2.4 1.6s1.2 1.4 1.9 1.1 2.4.4 3.8 1.4c1.3 1 3 1.9 3.7 1.9.6 0 1.2.4 1.2.8 0 .5 2.1 2 4.8 3.3 2.6 1.3 5.6 3.2 6.6 4.1 1.1 1 2.7 2 3.7 2.3 3.2 1.1 16.1 22.3 17.5 29 .8 3.8-4.1 12.5-7.1 12.5-.7 0-2 .9-2.9 1.9-2 2.2-5.5 2.1-10-.3-3.9-2-6.6-.6-6.6 3.4 0 1.8.5 3 1.3 3 .7 0 2.3 1.3 3.7 3 3.3 4 8.7 4.1 15.7.3 7.8-4.4 10.7-7.2 13.4-13.3.6-1.4 1.6-3.3 2.1-4.4 1.4-2.7 2-8.4.9-9-.5-.3-.7-1.5-.4-2.6s0-2-.6-2-1.1-.8-1.1-1.9c0-1-.8-2.9-1.8-4.2s-2.3-3.5-3-4.9c-1.8-3.9-3.6-6.4-4.9-7.3-.7-.4-1.3-1.3-1.3-2s-1.8-3.2-4-5.7-4-4.8-4-5.3c0-.4-.8-.7-1.8-.7-1.6 0-7-4-12-8.7-.7-.7-2.5-1.6-4-2-1.5-.3-4.2-1.5-6-2.5s-4.1-1.8-5.2-1.8c-1 0-2.2-.5-2.5-1-.9-1.5-1.9-1.2-4.2 1.2zm-174.8 56.7c-5.7 1.3-10 3.9-16 9.8-4.6 4.4-6.5 7.1-7.9 11.3-2.1 6.3-3.2 24.5-1.6 25.5.6.4.8 1 .5 1.5s-.1 1.9.4 3.2c1.1 3 12 15.8 13.3 15.8.6 0 2.4 1.1 4.2 2.5 1.7 1.4 4.1 3.3 5.4 4.2a139.99 139.99 0 0 1 3.5 2.8c1.1 1 4.4 3.3 13.9 9.7 1.5 1 3.3 1.8 4.1 1.8.7 0 2.9 1.4 4.8 3.1s5.3 3.9 7.6 5c2.3 1 6.2 3.3 8.7 4.9 2.4 1.7 4.7 3 5.2 3 .4 0 3.9 2 7.8 4.4s8.5 5.1 10.1 5.9c1.7.9 4.2 2.7 5.6 4s4.2 3.2 6.2 4.2c2 .9 3.7 2.1 3.7 2.6s1.1.9 2.5.9 2.5.4 2.5 1c0 .5.9 1 1.9 1 1.1 0 2.2.4 2.5.9 1.2 1.9 11.6 6.1 18.6 7.5 4.1.8 13.8 1.7 21.5 1.9 15.3.6 32.5 2.6 32.5 3.8 0 .5.7.6 1.5.3.8-.4 2.6.1 4 1 1.3.9 3.2 1.6 4.1 1.6s4.2 1.3 7.3 3c3.1 1.6 7.9 3.8 10.6 4.8 5.9 2.1 9.2 4.1 16 9.8 2.8 2.3 6.5 4.5 8.2 4.8 1.8.4 3.5 1.2 3.8 1.7.4.5 1.6.9 2.9.9 1.2 0 2.7.5 3.3 1.1 1.5 1.5 8.7 2.5 22.8 3.1 5.6.2 7.4-.1 9-1.5 1.1-1 5.3-4.2 9.4-7.2s8-6.4 8.7-7.7c1.4-2.5.8-25.7-.7-27.3-.5-.5-.9-2.1-.9-3.5s-1.2-3.9-2.7-5.6c-4.2-4.7-9.3-11.2-9.3-11.9 0-1.5-11-10.5-12.7-10.5-.5 0-2.4-1.3-4.3-3-1.9-1.6-3.8-2.9-4.3-3-.4 0-2.5-1.1-4.7-2.5s-4.4-2.5-5-2.5c-.5 0-4.4-1.6-8.6-3.5-4.1-1.9-8.2-3.5-8.9-3.5-.8 0-1.7-.4-2-1-1.1-1.7-12.6-6.5-18.5-7.6-1.4-.2-3.2-.7-4-1.1-.8-.3-2.8-.7-4.5-.9-2.9-.3-4.8-.8-22.9-5.9-4.9-1.3-9.3-2.2-9.8-1.9s-1.4.2-2.1-.3-2.9-1-5-1.2c-3.8-.3-29.6-8.2-32.9-10.1-1-.6-2.5-1-3.3-1-1.8 0-9.3-3.6-11.5-5.5-.8-.7-3.9-2.2-6.9-3.4-5.7-2.1-24.1-13.8-24.1-15.2 0-.5-.6-.9-1.3-.9s-2.8-1.6-4.7-3.5-3.7-3.5-4.1-3.5-4.1-2.2-8.2-5c-6.6-4.4-20.7-11.6-20.7-10.5 0 .2-2.1-.5-4.6-1.5-4.6-2-13.5-2.5-19.9-1.1zm17.7 11.2c2.9.6 5.9 1.6 6.5 2.1.7.6 4 2.3 7.3 3.9 4.9 2.3 6 3.2 6 5.3 0 1.3-.6 3.1-1.3 3.8s-1.9 2.8-2.6 4.6c-.8 1.8-2.7 4.4-4.4 5.8-2.6 2.2-3.7 2.5-7 2-2.1-.4-4.8-1.3-6-2.1-1.2-.7-4.4-1.9-7-2.6-4-1-5.1-1.8-6.7-4.9-1.1-2.1-2.2-7-2.5-10.8-.6-6.2-.4-7.1 1.2-7.5 3.4-.9 11.2-.7 16.5.4zm38.4 21.7c4.6 4.3 14.2 11.4 19.3 14.2 6.1 3.3 6.3 6.1.8 11.1-2.2 2.1-5.2 4-6.6 4.2-4.3.9-14.6-5.5-18.3-11.4-2.6-4.2-2.1-20.9.7-20.9.6 0 2.5 1.3 4.1 2.8zm-51.8 14.9c1.9 1.3 4.4 2.4 5.6 2.4a194.82 194.82 0 0 0 7.1.4c7.6.3 10.7 1.9 13 6.8 2.4 5.2 3.1 16.2 1.2 19.7-1.1 2-2 2.4-4.7 2.2-1.9-.1-4.4-1.1-5.5-2.1s-3.3-2.1-4.8-2.5c-1.6-.4-3.8-1.7-5-2.9s-4.7-4.1-7.7-6.4c-7.2-5.5-14-12.6-14-14.7s6.9-6.4 9.4-5.8c1.1.3 3.6 1.6 5.4 2.9zm97.5 12.4l7.2 2.9c3.9 1.5 13 4.8 14.9 5.4 1.5.5 1.7 1.3 1.3 4.1-.3 1.9-1.3 5-2.2 6.9-1.4 3-2.3 3.6-4.8 3.6-3.1 0-19.7-7.5-19.7-9 0-.4-.8-1.1-1.7-1.4-1-.4-3-1.3-4.6-2.2-2.2-1.2-2.5-1.9-1.7-3.4.5-1 1.1-3.5 1.2-5.4.4-4.4 2.3-4.7 10.1-1.5zm47.2 13.9l7 1.5a41.23 41.23 0 0 1 6.2 2.1c1.7.8 4 1.4 5.2 1.4 3.5 0 3.8 4.4.7 8.5-1.5 1.9-3 3.5-3.5 3.5-.4 0-2.3 1.3-4.1 3-1.8 1.6-4.1 3-5 3s-3.1.7-4.8 1.6c-4.4 2.2-10.7 1.5-10.8-1.1 0-1.1-.8-3.6-1.7-5.5-1.9-4.1-2.3-14.1-.8-18.8.2-.5 7.9 0 11.6.8zm42 11.1c.5.5 1.9.9 3.2.9s2.3.4 2.3 1c0 .5 1.1 1 2.5 1s2.5.4 2.5.9 2.3 1.5 5 2.2c2.8.7 5 1.6 5 2.1 0 .4 1 .8 2.2.8s2.9.7 3.9 1.6c1.6 1.4 1.6 1.8.1 4.7-2.1 4.2-10.1 11.9-14.5 14-1.9 1-5.3 1.7-7.5 1.7-14.4 0-16.9-2.4-15.8-15.3.4-4.4 1.4-10.3 2.3-12.9 1.5-4.7 1.7-4.9 4.7-4.2 1.7.3 3.5 1 4.1 1.5zm-122.2.5c10.4.7 12 1.4 20.4 9 6.1 5.4 6.4 5.9 5.8 9.3-.5 3.3-.3 3.8 2.5 5.4 2.8 1.7 3.1 2.3 2.8 6s-.6 4.2-2.9 4.5c-1.6.2-4.9-1.1-8.7-3.2-3.3-2-6.7-3.6-7.5-3.6s-2-.7-2.7-1.5c-.7-.9-3.4-2.5-5.9-3.7-2.5-1.1-5.1-2.8-5.8-3.8-.6-.9-3-2.5-5.2-3.5-2.3-1-4.1-2.2-4.1-2.7 0-.4-.8-.8-1.9-.8-1 0-2.4-.7-3.1-1.5s-1.7-1.5-2.2-1.5c-1.5 0-6.8-4.3-6.8-5.5 0-2.3 6.3-4.5 11.5-4 2.8.3 9 .8 13.8 1.1zM382.5 378c.4.6 3.4 2.8 6.8 5 3.4 2.1 7.1 5.2 8.2 6.7s3 3.8 4.3 5.1c1.2 1.3 2.2 2.7 2.2 3.2 0 .6.5 1 1 1 .6 0 1 .7 1 1.5s.4 1.5.8 1.5c1.4 0 3.3 7.6 3 12-.2 4.4-.1 4.4-2.6 3.1-.9-.5-4.8-1.9-8.7-3.1-10.9-3.3-21.2-12.3-21.4-18.7-.1-1.2.4-2.5.9-2.8 1.5-.9 1.2-3.5-.4-3.5-1 0-1.2-1.3-1-5.3l.4-6c0-1.1 4.8-.8 5.5.3zm-85.2 10.4c2 .9 3.7 2 3.7 2.5 0 .6.8 1.2 1.9 1.6 1 .3 2.7 2.1 3.7 4s2.2 3.5 2.6 3.5c.5 0 .8.6.8 1.4 0 1.5-2.7 2.9-4 2.1-2.6-1.6-13.4-2.6-27.2-2.6-9.9.1-15.8-.3-15.8-.9 0-.5-.9-1-2.1-1-1.7 0-1.9-.4-1.3-2.3 1.2-3.8 3.5-7.8 4.7-8.1.7-.2 2.6-.8 4.2-1.4 4.5-1.6 24.2-.8 28.8 1.2zm62.6 17.8c8.3 4.2 20.6 14.6 22.9 19.3 2.6 5.5 1.9 12.6-1 9.7-.6-.6-2.9-1.2-4.9-1.2-2.1 0-3.9-.4-4.1-.8-.1-.4-1.8-1.8-3.5-3.1-1.8-1.2-3.3-2.8-3.3-3.5 0-1.3-4.2-2.6-8.5-2.6-2.4 0-14.1-5.6-15.1-7.1-.3-.5-1.5-.9-2.7-.9s-3.3-.9-4.7-2-3.3-2-4.2-2c-2.3 0-2.4-3.8-.1-4.7.9-.4 2.5-1.5 3.5-2.5 1.3-1.3 2.8-1.8 4.6-1.4 1.5.3 3.4.2 4.2-.4 3.1-2 8.4-1 16.9 3.2z"
     id="path4" />
  <path
     d="M366.151 481.381l-9.269-1.836c-2.82-.474-6.404-1.294-7.965-1.822s-4.845-1.159-7.298-1.402-6.133-.86-8.178-1.371c-4.296-1.073-13.561-5.333-16.166-7.433-3.681-2.967-8.755-5.045-20.703-8.478l-16.444-4.737c-2.278-.662-11.167-3.679-19.753-6.706s-21.203-7.149-28.037-9.161c-19.422-5.717-26.158-8.023-34.246-11.723-7.215-3.301-12.432-5.095-23.399-8.046-2.791-.751-5.449-1.676-5.906-2.055s-1.901-.914-3.208-1.189c-9.847-2.07-36.878-13.983-46.512-20.499-1.494-1.01-3.644-2.153-4.779-2.539s-3.21-1.478-4.612-2.426c-2.626-1.776-8.462-4.633-10.993-5.383-.789-.234-1.758-1.03-2.154-1.77s-3.874-5.667-7.729-10.949-7.571-10.894-8.258-12.471c-2.5-5.744-4.435-11.222-5.064-14.337-.354-1.752-.879-3.473-1.167-3.823-1.81-2.202-4.374-23.094-4.887-39.826-.377-12.295.587-38.842 1.724-47.472 2.017-15.308 2.087-15.551 9.351-32.498 6.572-15.33 14.059-24.653 28.525-35.518 9.308-6.991 13.631-9.2 15.761-8.056.802.431 2.318.959 3.37 1.173 1.695.346 1.931.676 2.087 2.916.281 4.046-1.52 20.055-2.349 20.885-.443.444-3.571.889-7.553 1.076l-6.797.319-1.456 2.165c-1.816 2.7-1.849 4.612-.106 6.179 1.158 1.042 2.241 1.196 7.647 1.089l6.297-.125-.021 2.674c-.011 1.471-.576 4.251-1.254 6.179s-1.242 4.454-1.254 5.614l-.021 2.11-4.301-.413c-3.835-.368-4.457-.266-5.735.942-2.241 2.119-1.944 5.383.733 8.06 1.192 1.192 2.745 2.167 3.452 2.167 2.921 0 2.007 2.785-2.212 6.735-1.523 1.426-2.769 2.91-2.769 3.296s.749 1.593 1.664 2.681c1.33 1.581 1.563 2.326 1.163 3.713-.994 3.44-.676 11.229.534 13.075 2.408 3.676 7.272 1.405 8.77-4.094l1.01-3.648c.203-.697 1.858-.776 8.689-.413l8.438.448 1.349-1.836c3.881-5.28 5.021-10.029 3.075-12.807-1.672-2.387-4.051-1.806-8.95 2.188-1.864 1.519-3.259 2.131-4.86 2.131-3.15 0-3.895-1.161-3.359-5.238.678-5.168 1.621-6.232 5.522-6.232 2.275 0 3.489-.313 4.018-1.036.627-.858 1.005-.904 2.191-.27 1.705.913 3.245.468 3.245-.938 0-.555-.453-3.001-1.007-5.436l-1.007-4.427h-3.772c-3.712 0-3.772-.029-3.772-1.795 0-2.479 1.274-9.248 1.853-9.852.262-.273 2.317-.79 4.568-1.149s4.448-1.005 4.884-1.434.975-2.539 1.2-4.689l.409-3.908-3.492-.436c-1.92-.24-3.809-.632-4.196-.872-.513-.317-.503-2.545.039-8.223l.743-7.787h11.196v-8.921h-2.48c-2.114 0-2.539-.235-2.88-1.593-.22-.876-.681-1.593-1.025-1.593-1.074 0-.735-6.171.401-7.307 1.151-1.151 6.1-3.746 8.532-4.474 4.364-1.306 13.212-5.033 14.337-6.038.701-.627 2.357-1.486 3.68-1.91s3.187-1.42 4.142-2.214 4.43-3.078 7.722-5.076c6.239-3.787 12.525-8.372 14.115-10.297.51-.617 1.763-1.632 2.784-2.255 3.569-2.176 18.816-16.083 21.689-19.782 1.593-2.052 3.308-3.73 3.811-3.73s1.722-1.199 2.709-2.665c2.148-3.19 10.138-9.773 19.318-15.916 6.991-4.679 24.842-13.917 26.891-13.917 1.605 0 1.701.4 2.343 9.718.308 4.469.842 8.483 1.187 8.921s.814 1.58 1.043 2.539c.28 1.174.932 1.85 1.999 2.071l3.118.644c.844.174 2.836 1.393 4.426 2.708 6.493 5.371 12.211 10.624 12.399 11.389.11.447-1.037 1.44-2.549 2.207-3.345 1.696-3.682 2.169-3.694 5.19-.015 3.562 1.902 4.538 9.516 4.844 3.373.135 6.564.574 7.092.974 1.783 1.354 6.223 8.359 6.924 10.923 1.036 3.788 6.66 11.055 9.462 12.226 2.518 1.052 6.577.823 8.122-.459.512-.425.931-1.598.931-2.606 0-1.801.064-1.834 3.554-1.834 3.064 0 3.806-.252 5.384-1.83 2.319-2.319 3.044-4.94 1.73-6.254-.562-.562-3.068-1.221-5.977-1.572-2.755-.333-6.157-.892-7.558-1.244l-4.443-1.104c-3.282-.807-4.766-7.112-1.674-7.112 2.965 0 2.408-5.529-.952-9.454-2.4-2.804-3.99-3.248-6.893-1.925-1.408.642-1.864.492-3.875-1.274-1.254-1.101-2.694-2.002-3.2-2.002s-1.534-1.219-2.284-2.708c-2.065-4.102-5.728-8.669-8.053-10.041-1.144-.675-2.079-1.484-2.079-1.798s.874-1.671 1.942-3.015c2.769-3.484 2.393-5.285-1.503-7.217-1.686-.836-4.882-1.708-7.102-1.938s-4.486-.791-5.035-1.246c-1.451-1.204-3.733-7.722-3.303-9.434.57-2.27 5.702-4.453 14.653-6.234l14.857-3.151c3.761-.856 9.993-2.025 13.848-2.599s7.87-1.307 8.921-1.629c3.462-1.06 22.007-2.516 32.038-2.516h9.849l8.562 2.847c4.709 1.566 9.908 3.536 11.554 4.378l9.364 4.616c3.505 1.697 6.515 3.273 6.691 3.502s1.035.628 1.912.887 2.31.931 3.186 1.493 4.891 2.665 8.921 4.673 9.048 4.831 11.151 6.274l7.161 4.834c5.052 3.347 11.406 9.576 13.509 13.244 4.684 8.169 7.265 14.147 8.294 19.205l1.669 7.813c1.894 8.47 2.253 18.641 2.059 58.289-.186 37.968-.132 40.195 1.255 51.782 2.237 18.679 3.272 25.844 4.236 29.312 1.414 5.09 3.464 15.473 4.214 21.347.38 2.979 1.078 6.993 1.55 8.921 1.519 6.2 2.261 11.768 4.829 36.203 2.756 26.224 3.134 35.135 1.547 36.453-.71.589-2.644.708-7.169.439-7.098-.422-12.142-1.76-13.882-3.681-1.182-1.306-1.177-1.4.267-5.263 2.98-7.968 2.883-9.161-.928-11.387-2.574-1.503-5.443-.592-7.228 2.295-2.066 3.343-3.409 4.261-5.592 3.825-1.706-.341-2.371-1.22-5.527-7.299l-3.588-6.912 2.273-1.079c2.658-1.261 5.387-4.572 5.387-6.535s-2.054-3.749-5.223-4.534c-7.641-1.891-7.22-1.612-8.427-5.596-.611-2.018-1.015-4.632-.899-5.808.19-1.918.541-2.264 3.398-3.345 1.752-.663 4.266-1.206 5.585-1.206 2.022 0 2.597-.326 3.662-2.071 1.724-2.828 1.603-3.737-.803-5.991-4.839-4.534-6.628-4.897-13.199-2.678-3.911 1.321-4.076 1.328-4.903.197-.471-.643-.856-1.812-.856-2.596 0-1.6-1.542-3.428-2.891-3.428-.488 0-1.185-.555-1.548-1.233-.967-1.807-.811-3.865.294-3.865 1.539 0 6.156-4.562 7.415-7.328 1.559-3.423 1.541-6.457-.044-7.305-2.591-1.387-4.721-.724-9.165 2.853-4.957 3.99-6.712 4.324-9.993 1.904-1.188-.876-2.462-1.596-2.832-1.6s-3.11-1.148-6.089-2.542-6.165-2.538-7.08-2.542c-1.33-.006-5.237 2.034-6.935 3.621-.341.319 1.194 1.675 9.713 8.577 5.957 4.826 6.698 6.297 3.864 7.674-2.214 1.076-2.974 3.839-1.817 6.608 1.605 3.84 6.39 4.726 9.842 1.821 2.245-1.889 3.992-1.827 4.491.161.191.759 1.063 1.947 1.94 2.64s2.143 2.298 2.816 3.568l1.223 2.309-2.019 1.974c-3.196 3.124-2.28 6.742 2.068 8.177 2.525.833 2.873 1.528 3.356 6.707.356 3.817.344 3.852-2.227 6.423-2.808 2.808-4.013 5.81-2.666 6.642.446.276 1.945.683 3.331.904 2.97.475 6.757 2.301 8.224 3.965.573.651 1.829 2.76 2.791 4.688 2.47 4.95 8.784 12.83 15.065 18.798 5.606 5.327 6.438 5.758 16.467 8.526 3.434.948 4.105 1.352 3.925 2.362-.963 5.408-.911 5.74 1.165 7.486 3.202 2.694 5.75 2.227 10.365-1.899 3.97-3.55 4.607-2.906 2.97 3.003-.671 2.421-1.22 5.234-1.22 6.253 0 1.058-.41 2.009-.956 2.218-.526.202-.956.878-.956 1.502-.001 2.681-5.719 15.844-8.935 20.57-5.696 8.369-16.54 18.438-24.296 22.561-2.575 1.369-5.958 3.46-7.517 4.647-5.151 3.92-23.548 12.744-31.027 14.882l-15.84 4.772c-12.517 3.921-16.261 4.715-23.895 5.068-4.734.219-7.902.025-10.833-.665zm42.327-38.839c4.159-3.154 8.739-6.777 10.177-8.05l2.615-2.315.203-9.503c.209-9.794-.291-14.93-2.102-21.551-.839-3.067-1.993-4.96-5.83-9.558-2.632-3.154-5.178-6.476-5.66-7.384-1.23-2.32-8.058-8.506-11.641-10.546a77.09 77.09 0 0 1-6.193-4.058c-1.752-1.29-5.05-3.36-7.328-4.601-4.539-2.472-22.325-10.037-23.684-10.073-.467-.013-1.709-.732-2.761-1.598-2.649-2.182-13.39-6.213-21.028-7.892-3.505-.77-12.25-2.952-19.435-4.849s-14.927-3.729-17.205-4.072c-9.687-1.457-31.435-7.531-40.252-11.242-2.023-.851-4.188-1.552-4.812-1.557s-2.998-.972-5.276-2.148l-12.947-6.657c-9.576-4.913-23.192-13.547-23.78-15.08-.202-.526-.779-.957-1.282-.957s-2.321-1.315-4.04-2.923c-5.393-5.045-30.951-20.017-34.17-20.017-.508 0-2.658-.584-4.778-1.298-8.129-2.738-18.968-2.246-25.98 1.179-3.832 1.872-13.391 10.502-15.722 14.194-2.212 3.504-3.364 8.198-4.198 17.094-.987 10.543-.072 16.573 3.271 21.535 3.378 5.016 9.99 12.131 12.296 13.232 1.126.538 4.198 2.713 6.826 4.834 7 5.648 20.01 14.555 22.433 15.359 1.155.383 3.677 1.903 5.604 3.378s5.512 3.777 7.965 5.116a249.37 249.37 0 0 1 8.974 5.201c2.483 1.522 4.7 2.767 4.927 2.767.925 0 19.517 11.321 23.279 14.174 2.225 1.688 5.112 3.613 6.415 4.278s2.743 1.66 3.201 2.211 1.361 1.002 2.009 1.002c1.06 0 5.107 1.723 7.588 3.231 5.881 3.574 13.785 6.495 20.456 7.561 2.314.37 11.346 1.115 20.072 1.656 16.711 1.037 29.579 2.466 31.512 3.501.635.34 1.97.618 2.966.618s2.386.402 3.087.893 2.546 1.235 4.098 1.653 5.272 1.976 8.265 3.461 7.852 3.659 10.796 4.829c3.716 1.477 7.419 3.683 12.107 7.211 3.715 2.796 8.044 5.629 9.621 6.297l4.46 1.934c.876.396 2.74 1.069 4.142 1.496a106.7 106.7 0 0 1 5.235 1.783c3.185 1.194 14.118 2.22 22.183 2.082l5.753-.098zM362.703 295.64c6.761-3.426 10.965-7.726 14.19-14.514 2.026-4.264 2.723-6.511 2.732-8.814.015-3.993-.719-8.507-1.383-8.507-.286 0-.719-.906-.962-2.013s-1.373-3.473-2.511-5.257-2.697-4.481-3.466-5.993-2.242-3.634-3.275-4.714-1.878-2.281-1.878-2.667-1.721-2.806-3.823-5.379-3.822-4.938-3.822-5.257-.517-.58-1.15-.58c-1.54 0-6.012-2.897-10.402-6.739-2.801-2.451-5.174-3.742-10.833-5.893-3.985-1.515-8.181-3.211-9.324-3.768-2-.975-2.14-.956-3.724.524-4.224 3.946-4.688 10.14-.761 10.14.631 0 1.72.573 2.421 1.274s1.633 1.275 2.071 1.276c1.052.002 8.096 3.68 9.717 5.074.701.603 3.138 2.162 5.416 3.466 6.554 3.751 8.365 5 10.89 7.509 4.101 4.075 14.076 21.324 14.999 25.937.213 1.064.205 2.908-.018 4.096-.538 2.868-3.931 7.911-5.679 8.442-.767.233-2.254 1.056-3.305 1.829-3.125 2.3-3.984 2.359-9.008.625-4.457-1.538-4.861-1.578-6.32-.623-1.266.829-1.558 1.552-1.558 3.851 0 2.288.275 2.974 1.434 3.58.789.413 2.68 1.888 4.204 3.279 2.71 2.474 2.856 2.523 6.774 2.274 2.955-.188 5.143-.832 8.354-2.46zm58.885-54.472c8.76-2.016 13.152-4.144 17.073-8.275 3.075-3.24 6.935-8.129 8.505-10.775 3.405-5.737 4.534-8.268 6.312-14.145 2.614-8.641 3.302-20.046 1.637-27.152-3.423-14.612-14.897-28.019-27.473-32.1-1.752-.569-6.091-2.284-9.641-3.811-7.005-3.013-14.032-4.465-18.592-3.84-4.611.632-8.95 3.478-15.734 10.323-7.066 7.129-11.464 13.764-14.177 21.392-1.473 4.143-1.695 5.889-1.939 15.264-.172 6.587-.005 11.762.441 13.7 1.401 6.085 2.387 9.273 3 9.695.342.236 1.014 1.647 1.493 3.137s1.82 4.214 2.979 6.053a131.33 131.33 0 0 1 3.656 6.212c5.671 10.501 27.325 17.804 42.461 14.321zM279.49 218.644c.876-.625 2.597-2.519 3.823-4.209s4.237-5.293 6.691-8.006c4.841-5.353 8.415-10.807 9.257-14.123.293-1.154 1.038-3.389 1.656-4.966.922-2.353 1.122-4.868 1.117-14.019-.006-11.102-.016-11.181-2.279-17.842-5.608-16.508-15.074-29.38-27.858-37.878-5.152-3.425-9.683-4.652-19.321-5.233-11.936-.72-18.319 2.09-28.634 12.603-5.029 5.126-5.972 6.508-10.388 15.227-5.825 11.499-7.312 16.682-7.771 27.07-.354 8.004.841 18.225 2.601 22.242.475 1.085 1.205 3.623 1.623 5.642.439 2.124 1.679 5.037 2.943 6.914 1.201 1.784 2.183 3.457 2.183 3.716 0 .718 8.078 8.321 8.841 8.321.367 0 1.181.535 1.807 1.188 1.698 1.77 8.709 3.752 14.84 4.195 2.979.216 9.431.042 14.337-.386 11.599-1.011 14.128-.968 17.205.298 2.832 1.165 4.941.948 7.328-.754zm-39.506-11.613c-5.018-.98-10.641-4.193-13.361-7.635-2.668-3.375-6.004-11.281-7.365-17.457-.466-2.111-1.147-4.815-1.513-6.008-.797-2.591.09-10.019 1.528-12.8.567-1.097.887-3.189.798-5.22-.134-3.038.277-4.244 3.977-11.668 5.236-10.505 9.867-15.577 17.592-19.265 4.655-2.222 5.447-2.4 10.452-2.351 6.533.065 12.567 1.669 15.727 4.18 1.259 1.001 2.612 1.82 3.005 1.82 1.325 0 5.27 4.34 11.194 12.315 3.398 4.574 4.533 7.178 8.095 18.57 1.994 6.378 2.15 7.439 1.781 12.107-1.135 14.329-2.489 17.424-12.031 27.5l-6.521 6.887-2.695-.89c-2.231-.736-3.937-.76-9.9-.139-8.187.853-16.549.874-20.762.051zm21.373-25.66c3.137-1.461 6.687-4.853 6.642-6.347-.012-.411-.432-1.464-.933-2.341s-.921-2.351-.933-3.277-.453-1.849-.978-2.051-.956-.902-.956-1.557c0-2.01-4.342-6.948-7.068-8.039-4.111-1.645-5.585-1.331-8.623 1.841-3.611 3.769-4.447 6.822-3.522 12.865.819 5.346 2.292 8.766 4.17 9.676 2.541 1.232 8.742.84 12.201-.771zm143.345 48.7c-2.085-.511-8.727-3.743-9.24-4.496-.175-.257-.995-.679-1.823-.938-2.429-.759-6.328-4.695-7.162-7.231-.425-1.291-1.427-3.351-2.227-4.578s-1.647-3.021-1.883-3.989-.683-1.916-.995-2.109-.567-1.06-.567-1.928-.466-2.288-1.035-3.157c-.885-1.35-.995-3.215-.763-12.881.252-10.49.39-11.559 1.916-14.88 2.525-5.495 6.03-10.634 10.318-15.129 5.55-5.818 10.494-7.785 13.959-5.554.776.5 2.473.873 3.771.83 1.419-.047 2.836.353 3.555 1.003.657.595 1.715 1.081 2.352 1.081s3.932 1.272 7.324 2.827 6.938 3.02 7.88 3.257 2.303 1.258 3.023 2.271 1.695 1.841 2.164 1.841c1.19 0 6.343 8.862 8.691 14.948 2.459 6.371 2.969 12.301 1.609 18.695-1.179 5.541-5.337 14.506-8.267 17.822-1.156 1.308-2.748 3.311-3.537 4.45s-1.748 2.071-2.13 2.071-2.155 1.1-3.939 2.445-3.87 2.778-4.636 3.186c-1.536.818-15.174.924-18.362.142zm18.942-29.828c.838-1.884 1.456-4.873 1.636-7.918l.29-4.892-5.806-6.147-6.458-.22c-4.955-.169-6.707-.006-7.531.7-.59.506-1.537 1.083-2.104 1.283-1.438.506-1.807 3.181-1.116 8.065 1.158 8.178 3.506 10.522 11.46 11.445 8.503.986 8.118 1.079 9.628-2.316zm-22.446 214.34c-8.875-3.241-12.81-5.334-17.123-9.107-5.645-4.938-7.684-9.849-5.484-13.207 1.074-1.639.671-3.572-.745-3.572-.736 0-.877-1.076-.728-5.576.179-5.418.229-5.581 1.777-5.755 1.078-.122 2.952.805 5.799 2.867l7.045 5.018c1.561 1.084 4.901 4.382 7.42 7.328l5.539 6.472c.527.613.958 1.442.958 1.841s.438 1.046.972 1.437 1.392 2.287 1.904 4.212c.976 3.669 1.29 10.87.469 10.772-.263-.031-3.775-1.261-7.806-2.733zm-20.391 19.941c-.876-.301-2.916-.711-4.534-.91-2.554-.315-3.55-.943-7.573-4.771-4.017-3.823-5.023-4.457-7.573-4.777-5.651-.708-11.041-2.871-19.441-7.799-.738-.433-1.915-.793-2.616-.799s-2.565-.87-4.142-1.918-3.339-1.907-3.914-1.909c-.87-.002-1.82-1.196-1.82-2.286 0-.147 1.726-1.539 3.836-3.092 3.282-2.416 4.153-2.773 6.028-2.468 1.339.217 3.218-.055 4.83-.7 2.425-.97 2.954-.975 6.557-.052 7.471 1.913 14.371 5.861 23.216 13.284 7.719 6.478 10.724 11.333 10.211 16.496-.219 2.207-.745 2.499-3.064 1.702zm-43.012-45.177c-8.286-.776-10.292-3.098-10.063-11.649.215-8.007 2.695-19.367 4.37-20.01.395-.152 1.981.19 3.524.759a57.7 57.7 0 0 0 5.514 1.675c1.489.352 2.708.882 2.708 1.176s.928.739 2.062.988 2.662.846 3.396 1.327 2.889 1.331 4.788 1.89 3.884 1.382 4.41 1.829 1.992.998 3.258 1.225 2.791.952 3.389 1.613c1.027 1.135 1.014 1.345-.247 3.816-1.978 3.878-10.113 11.713-14.134 13.613-4.057 1.918-6.969 2.31-12.975 1.747zm-48.674-16.493c-.486-.324-1.693-2.985-2.681-5.913-1.488-4.41-1.8-6.42-1.815-11.697-.009-3.505.235-6.771.543-7.258 1.039-1.64 12.645.103 23.315 3.502l6.691 2.064c1.218.336 1.64.929 1.794 2.516.354 3.656-1.521 5.866-10.964 12.924-3.62 2.706-14.784 5.259-16.884 3.861zm13.628 29.437c-2.201-.64-8.67-1.087-20.916-1.445-11.627-.34-17.977-.765-18.447-1.236-.394-.394-1.242-.717-1.884-.717-1.703 0-1.943-1.326-.755-4.176 1.962-4.707 3.137-5.793 7.559-6.99 3.394-.919 5.793-1.056 13.549-.777 10.872.392 15.378 1.236 17.602 3.296.869.805 2.447 2.081 3.507 2.836s2.565 2.442 3.344 3.75 1.869 2.744 2.42 3.192c.767.622.841 1.073.315 1.912-.887 1.416-2.36 1.498-6.293.354zm-40.878-46.714c-5.249-1.867-13.816-6.047-15.137-7.386-.668-.677-2.818-2.092-4.779-3.146-3.879-2.085-3.816-1.901-2.744-7.913.346-1.938 1.095-3.807 1.707-4.254 1.334-.976 1.862-.818 18.819 5.628l12.426 4.723-.094 2.869c-.111 3.404-2.481 9.262-4.096 10.127-1.511.808-2.216.733-6.102-.649zm-20.31 36.98c-1.744-.621-5.058-2.174-7.365-3.45s-4.563-2.321-5.012-2.321-2.146-.968-3.77-2.15-4.243-2.798-5.82-3.589-3.899-2.333-5.159-3.425-3.698-2.774-5.416-3.737l-4.08-2.287-2.867-1.564-4.46-2.403c-3.016-1.628-6.053-4.349-6.053-5.424 0-1.054 3.79-2.756 7.116-3.196 1.518-.201 7.922.092 14.23.65 14.109 1.248 15.736 1.916 23.913 9.818l5.711 5.518-.794 6.565 2.641 1.748c2.895 1.916 3.614 3.599 2.981 6.977-.583 3.106-1.946 3.641-5.793 2.27zm-31.772-58.816c-4.813-2.611-9.478-6.814-10.953-9.869-2.161-4.475-1.442-19.286.936-19.286.289 0 2.931 2.015 5.872 4.479s8.644 6.664 12.675 9.335c7.806 5.173 8.921 6.167 8.921 7.951 0 1.412-3.345 5.276-6.627 7.656-3.3 2.393-6.046 2.325-10.823-.266zm-43.108 15.916c-7.438-3.745-14.326-9.067-23.444-18.112-3.898-3.867-5.87-6.287-5.729-7.029.285-1.498 5.982-5.274 7.957-5.274.856 0 3.407 1.116 5.669 2.481 3.836 2.314 4.551 2.51 10.638 2.92 8.708.586 10.944 1.304 13.55 4.348 4.582 5.353 5.661 21.201 1.592 23.379-2.051 1.098-3.349.754-10.233-2.712zm.024-38.352l-8.26-3.13c-3.629-1.359-6.467-2.838-7.128-3.714-2.616-3.469-4.916-18.182-3.024-19.351 1.446-.894 13.344-.509 17.537.567 3.723.955 15.241 6.581 17.601 8.596.613.524 1.115 1.495 1.115 2.158 0 1.986-5.145 10.847-7.787 13.412-2.07 2.01-2.888 2.385-5.143 2.362-1.475-.015-3.685-.42-4.912-.9z"
     fill="#fff"
     id="path6" />
  <circle
     style="fill:#ffdd55;stroke:none;stroke-width:0.74999983;stroke-miterlimit:4;stroke-dasharray:none"
     id="path839"
     cx="375.63498"
     cy="325.29541"
     r="14.974422" />
  <circle
     style="fill:#ffdd55;stroke:none;stroke-width:0.75;stroke-miterlimit:4;stroke-dasharray:none"
     id="path841"
     cx="221.11168"
     cy="234.49307"
     r="8.9209318" />
  <circle
     style="fill:#ffdd55;stroke:none;stroke-width:0.75;stroke-miterlimit:4;stroke-dasharray:none"
     id="path841-0"
     cx="193.07446"
     cy="245.32564"
     r="8.9209318" />
  <circle
     style="fill:#ffdd55;stroke:none;stroke-width:0.75;stroke-miterlimit:4;stroke-dasharray:none"
     id="path841-7"
     cx="228.12097"
     cy="260.61865"
     r="8.9209318" />
  <circle
     style="fill:#ffdd55;stroke:none;stroke-width:0.75;stroke-miterlimit:4;stroke-dasharray:none"
     id="path841-2"
     cx="202.63261"
     cy="267.62796"
     r="8.9209318" />
  <circle
     style="fill:#ffdd55;stroke:none;stroke-width:0.75;stroke-miterlimit:4;stroke-dasharray:none"
     id="path841-1"
     cx="340.26984"
     cy="87.22039"
     r="8.9209318" />
  <circle
     style="fill:#ffdd55;stroke:none;stroke-width:0.75;stroke-miterlimit:4;stroke-dasharray:none"
     id="path841-6"
     cx="367.92715"
     cy="102.36543"
     r="8.9209318" />
  <circle
     style="fill:#ffdd55;stroke:none;stroke-width:0.75;stroke-miterlimit:4;stroke-dasharray:none"
     id="path841-3"
     cx="396.38293"
     cy="119.38345"
     r="8.9209318" />
  <circle
     style="fill:#ffdd55;stroke:none;stroke-width:0.75;stroke-miterlimit:4;stroke-dasharray:none"
     id="path841-33"
     cx="425.65591"
     cy="133.17677"
     r="8.9209318" />
  <path
     style="fill:#77a090;stroke:none;stroke-width:1.69923;stroke-miterlimit:4;stroke-dasharray:none;fill-opacity:1"
     d="m 479.14836,639.64406 c -8.41117,-1.81206 -20.23032,-4.08214 -26.26476,-5.04465 -7.56276,-1.20626 -15.74615,-4.32312 -26.338,-10.03149 -8.83458,-4.76132 -23.3114,-10.58966 -34.05775,-13.71162 -30.08669,-8.74057 -112.14404,-35.88701 -137.63727,-45.53353 -7.47659,-2.82911 -22.38729,-7.96624 -33.1349,-11.41587 -18.98128,-6.09237 -43.72102,-17.33324 -76.12596,-34.589 -15.00961,-7.99268 -16.34045,-9.17009 -26.49345,-23.43942 -20.630822,-28.99513 -25.727057,-50.78647 -25.568704,-109.33103 0.145355,-53.73901 3.222602,-69.83164 19.530984,-102.13836 5.93695,-11.76103 24.60787,-31.36014 39.37614,-41.33363 8.71162,-5.88324 10.31647,-6.40287 15.29303,-4.95165 5.5524,1.61914 5.5594,1.63524 5.0962,11.72635 -0.25511,5.55774 -0.85624,12.55277 -1.33585,15.5445 -0.85015,5.30313 -1.11405,5.45225 -10.52459,5.94729 -8.47916,0.44604 -9.96627,1.06854 -12.23306,5.12058 -3.61216,6.457 -0.57592,9.05337 10.20235,8.72432 9.58004,-0.29248 9.92779,0.47175 6.33204,13.91584 -1.83997,6.87946 -2.51921,7.6493 -5.98215,6.78016 -5.15179,-1.29302 -10.63368,1.7787 -10.63368,5.95846 0,3.4647 4.64449,9.09084 8.70854,10.54916 1.70871,0.61315 0.9808,2.28347 -2.70934,6.21709 -4.31056,4.59497 -4.74735,5.85654 -2.99771,8.65815 1.26516,2.02584 1.65753,6.12869 1.02645,10.73294 -2.0577,15.01256 7.36244,20.16067 13.58373,7.42353 l 3.16825,-6.48651 10.60563,1.13576 10.60563,1.13578 3.75952,-6.08304 c 7.34298,-11.88119 1.66355,-20.63706 -8.50813,-13.11681 -2.65082,1.95982 -6.42609,3.56332 -8.3895,3.56332 -3.08608,0 -3.49836,-0.86349 -3.04245,-6.37209 0.48147,-5.81744 1.00809,-6.41845 6.04986,-6.90457 3.03737,-0.29286 5.52249,-1.17708 5.52249,-1.96495 0,-0.78786 1.5293,-1.03257 3.39845,-0.54377 2.84713,0.74455 3.39845,0.0522 3.39845,-4.26816 0,-8.22026 -1.57975,-10.53252 -7.19588,-10.53252 -5.08149,0 -5.12153,-0.072 -3.98639,-7.17078 1.21917,-7.62434 3.11431,-9.75359 8.71839,-9.79546 4.79183,-0.0358 7.56156,-3.2324 7.56156,-8.72696 0,-3.77077 -0.95438,-4.83245 -5.17793,-5.76009 -5.10746,-1.12179 -5.17104,-1.26813 -4.67287,-10.75518 l 0.50506,-9.61791 8.1681,-0.52186 8.16811,-0.52186 -0.52159,-6.27504 c -0.41712,-5.01818 -1.28681,-6.38372 -4.34205,-6.81766 -4.40024,-0.62497 -6.98428,-7.7806 -4.34779,-12.03977 0.92286,-1.49085 7.42535,-5.00459 14.44997,-7.80832 28.7143,-11.46067 58.10759,-32.47512 90.57413,-64.75511 10.28032,-10.22125 24.07968,-22.15414 30.66523,-26.51755 13.92277,-9.22482 36.31558,-20.31284 38.4094,-19.01879 0.79377,0.49059 1.44323,5.07699 1.44323,10.19201 0,11.63765 3.69298,21.08546 8.24194,21.08546 3.14993,0 24.04335,16.23807 24.04335,18.68616 0,0.63747 -1.91163,2.03004 -4.24807,3.09459 -2.85714,1.3018 -4.24806,3.30556 -4.24806,6.11975 0,5.26904 1.24509,6.00282 12.27891,7.2365 10.7542,1.20241 13.36709,3.24405 18.82732,14.71115 5.87358,12.33518 11.70027,18.12087 18.24926,18.12087 3.90884,0 5.57582,-0.90983 6.2266,-3.39845 0.61478,-2.35091 2.31778,-3.39845 5.52485,-3.39845 5.42366,0 10.8156,-5.20862 9.96487,-9.62606 -0.45315,-2.35306 -3.35313,-3.58216 -12.26112,-5.19664 -6.41718,-1.16305 -12.71663,-2.98527 -13.99881,-4.04938 -3.07,-2.54787 -2.96583,-6.0092 0.2176,-7.23079 3.63135,-1.39348 3.15106,-6.65772 -1.10054,-12.06277 -2.80022,-3.5599 -4.67832,-4.43669 -8.07132,-3.76812 -5.27706,1.03981 -10.84024,-3.20821 -17.79613,-13.58903 -2.61473,-3.90217 -5.88339,-7.52823 -7.26371,-8.0579 -2.16286,-0.82997 -2.10155,-1.65388 0.44374,-5.96271 3.72393,-6.30414 1.39608,-9.7621 -7.589,-11.27323 -10.6831,-1.7967 -11.81687,-2.4474 -13.70585,-7.8661 -2.55768,-7.33697 -2.43691,-7.78314 2.83162,-10.46065 10.68864,-5.432045 69.79306,-16.04144 97.3842,-17.48071 26.65103,-1.39023 32.45981,0.29954 74.66239,21.71921 50.24858,25.50336 61.74294,37.0284 69.94611,70.1327 3.62482,14.62822 3.80223,18.32791 3.42874,71.50088 -0.4264,60.70789 1.321,85.17303 8.92043,124.89308 2.23508,11.68217 5.28563,27.76922 6.77899,35.749 3.34748,17.88717 9.41684,73.75501 9.45368,87.02004 l 0.0271,9.77055 h -9.09218 c -5.00068,0 -11.57235,-0.8646 -14.60367,-1.92131 -5.84574,-2.03785 -5.85144,-2.0725 -2.54515,-15.50552 2.3127,-9.39623 -8.48568,-13.69522 -13.84706,-5.51271 -4.33443,6.61518 -8.26666,5.33174 -13.32942,-4.35058 l -4.4961,-8.59864 5.16763,-4.8273 c 2.8422,-2.65501 5.16764,-5.64986 5.16764,-6.65522 0,-2.35759 -6.32902,-6.29364 -12.37949,-7.69885 -2.9148,-0.67696 -5.36264,-2.7554 -6.3721,-5.41046 -3.2193,-8.46739 -2.17404,-10.62807 6.34289,-13.11149 11.46174,-3.34209 13.00905,-6.85811 5.85472,-13.30383 -4.46805,-4.02552 -6.67772,-4.90212 -10.19536,-4.0446 -2.47004,0.60214 -6.21145,1.51204 -8.31424,2.02199 -2.7694,0.67164 -3.82326,0.17076 -3.82326,-1.81708 0,-1.50936 -1.83786,-4.34229 -4.08415,-6.29541 l -4.08416,-3.55111 6.73593,-6.73594 c 5.08922,-5.08921 6.60692,-7.85312 6.20819,-11.30586 -0.72679,-6.29364 -6.54574,-6.83463 -13.82165,-1.28502 -3.1451,2.39888 -6.71911,4.3616 -7.94225,4.3616 -1.22314,0 -7.07904,-2.29395 -13.01314,-5.09767 -12.07042,-5.70301 -15.46962,-6.16372 -20.16181,-2.73272 -3.94028,2.88119 -2.68911,4.7388 9.40265,13.96011 l 8.21001,6.26104 -3.43476,4.64576 c -2.75154,3.72165 -3.06354,5.33945 -1.56849,8.13297 2.64476,4.94178 8.06449,6.20207 12.93828,3.00865 5.08981,-3.33497 5.92387,-3.35481 5.92387,-0.14092 0,1.40187 0.78105,2.54884 1.73566,2.54884 3.06289,0 5.93216,8.3049 3.65576,10.5813 -3.47969,3.47969 -2.35716,9.75505 2.04431,11.42848 6.0497,2.30011 6.9195,11.38517 1.68763,17.6276 -5.67364,6.76951 -5.07591,8.65441 3.46921,10.93988 6.51069,1.74135 8.27832,3.29426 13.46086,11.82565 3.28129,5.40158 10.04023,14.26392 15.01986,19.69412 7.31187,7.97345 11.17895,10.63636 20.09883,13.84023 9.4729,3.40251 10.96578,4.49652 10.48866,7.68628 -0.58246,3.89401 3.92895,10.22458 7.28645,10.22458 1.07544,0 4.53426,-1.90266 7.68627,-4.22815 3.15202,-2.32548 5.96636,-3.99271 6.25411,-3.70496 1.09671,1.0967 -6.52036,25.64673 -11.07178,35.68469 -13.03029,28.73769 -53.40148,56.27068 -105.38035,71.86898 -30.18679,9.05872 -40.31288,10.00256 -60.54714,5.64342 z m 69.13255,-51.92886 c 9.05943,-7.43914 12.62446,-11.57142 13.77603,-15.96793 2.02204,-7.71999 -1.05628,-35.4627 -4.64793,-41.88853 -10.20421,-18.25634 -35.52454,-39.7414 -57.02033,-48.38344 -5.14016,-2.06653 -15.58501,-6.64445 -23.2108,-10.17316 -7.62578,-3.52872 -19.47788,-7.94254 -26.33799,-9.80849 -23.59696,-6.41837 -46.49112,-12.07057 -63.03554,-15.56248 -23.52337,-4.9649 -52.43216,-15.24722 -71.98629,-25.60417 -15.03913,-7.96558 -30.62947,-17.46912 -32.93026,-20.07359 -6.82018,-7.72044 -43.42654,-29.70203 -55.75648,-33.48097 -13.48916,-4.13423 -29.94057,-3.85868 -38.55053,0.64569 -8.71655,4.56013 -20.39093,16.59241 -23.50635,24.227 -3.14291,7.70194 -5.13038,27.10649 -3.66481,35.7811 0.68719,4.06749 3.80741,10.15707 7.77838,15.18073 6.64256,8.40347 37.68015,32.82542 49.03315,38.58176 3.32385,1.68531 8.33732,4.72008 11.14104,6.74393 2.80372,2.02384 15.42047,9.5638 28.03722,16.75543 12.61675,7.19165 26.7628,15.80353 31.43567,19.13751 9.08678,6.48323 31.32142,17.94812 42.48064,21.90439 3.7383,1.32533 21.32528,3.54469 39.08219,4.9319 39.61457,3.09479 46.63513,4.72173 73.0667,16.93233 7.47659,3.45396 18.18171,9.51408 23.78916,13.46692 17.36533,12.24129 38.96905,18.33582 60.74034,17.13521 7.02967,-0.38766 9.63254,-1.73242 20.28679,-10.48114 z M 510.56527,451.97734 c 7.28776,-3.76865 10.21411,-9.04015 10.21411,-18.39959 0,-7.15989 -0.78635,-9.07431 -5.77736,-14.06532 -4.92985,-4.92985 -6.94787,-5.77737 -13.75631,-5.77737 -13.95687,0 -23.09271,10.87299 -20.5453,24.45189 1.00876,5.37715 7.71537,13.25036 12.89136,15.13376 4.8386,1.76065 12.07915,1.18759 16.9735,-1.34337 z m -21.69553,-60.69982 c 10.91085,-7.37036 19.34073,-23.29188 17.53965,-33.12715 -2.07316,-11.32108 -25.84655,-49.51741 -30.9317,-49.69749 -1.08429,-0.0384 -5.6722,-2.98969 -10.19535,-6.55842 -4.52316,-3.56873 -13.86215,-8.69685 -20.75333,-11.39582 l -12.52939,-4.90719 -3.26892,4.03693 c -5.28403,6.52549 -3.40124,10.33208 7.96725,16.10815 20.78302,10.55938 32.98941,19.65472 39.73265,29.60603 8.50894,12.55703 13.76272,23.02908 13.76272,27.43242 0,5.91072 -4.63137,12.96631 -10.96369,16.70247 -5.52204,3.25808 -6.52032,3.3473 -12.7723,1.14147 -5.94499,-2.09752 -7.10086,-2.07407 -9.3649,0.18999 -4.17179,4.17179 -3.01402,6.7713 6.01826,13.51269 7.40755,5.52875 14.26835,4.71798 25.75905,-3.04408 z M 278.71697,365.38436 c 2.29395,-2.29395 4.17083,-6.15196 4.17083,-8.57336 0,-5.6654 -7.07878,-12.74419 -12.74419,-12.74419 -5.6654,0 -12.74419,7.07879 -12.74419,12.74419 0,2.4214 1.87688,6.27941 4.17083,8.57336 2.29396,2.29396 6.15197,4.17084 8.57336,4.17084 2.4214,0 6.27941,-1.87688 8.57336,-4.17084 z m 34.75689,-9.42297 c 7.71066,-7.71066 1.89897,-20.39071 -9.34574,-20.39071 -7.41956,0 -12.74419,4.96964 -12.74419,11.89458 0,6.92494 5.32463,11.89458 12.74419,11.89458 3.68166,0 7.24193,-1.29464 9.34574,-3.39845 z m -47.2873,-19.80446 c 3.92861,-3.55534 4.09573,-13.67001 0.29524,-17.86951 -3.55534,-3.92861 -13.67002,-4.09573 -17.86952,-0.29524 -3.92861,3.55534 -4.09573,13.67001 -0.29524,17.86951 3.55535,3.92861 13.67002,4.09573 17.86952,0.29524 z m 37.09195,-14.18005 c 7.68901,-7.68901 2.1502,-22.08993 -8.49613,-22.08993 -6.92494,0 -11.89458,5.32462 -11.89458,12.74419 0,7.41957 4.96964,12.74419 11.89458,12.74419 2.83205,0 6.6081,-1.51042 8.49613,-3.39845 z m 260.83112,-0.60508 c 12.4877,-3.32762 18.56926,-6.97486 25.15566,-15.08638 8.93691,-11.00633 14.62128,-23.25615 17.62372,-37.97911 4.54406,-22.28249 -1.07571,-41.12566 -17.15818,-57.5317 -7.19185,-7.33655 -11.4553,-9.89433 -25.59973,-15.35812 -29.20597,-11.28186 -37.74245,-10.10041 -53.96513,7.46875 -12.82448,13.88891 -18.58565,25.41132 -19.98524,39.97072 -1.87039,19.45698 0.63205,33.48018 8.6288,48.35415 8.59007,15.97751 11.83638,19.52039 22.80251,24.88561 14.74882,7.21594 28.71222,8.94949 42.49759,5.27608 z M 384.22119,278.88075 c 14.91459,-18.2001 18.0487,-25.44608 18.9746,-43.86874 1.23741,-24.62094 -8.15478,-47.71585 -27.37494,-67.31357 -12.83228,-13.08434 -23.30638,-17.71059 -40.70298,-17.97789 -12.32263,-0.18933 -14.91942,0.32695 -21.70248,4.31474 -12.09362,7.10993 -23.25383,20.33548 -31.02505,36.76668 -6.48596,13.71366 -7.03957,16.03289 -7.68701,32.20289 -0.49755,12.4265 0.0316,19.73796 1.84465,25.48838 1.39829,4.4349 3.04496,10.22978 3.65928,12.87752 2.9461,12.69778 16.88875,26.49503 30.55484,30.23615 4.38239,1.19969 14.82576,1.55965 28.20015,0.97201 11.68217,-0.51329 22.7574,-0.34433 24.61163,0.37548 5.85465,2.27274 9.01964,0.11537 20.64731,-14.07365 z m 192.63264,-92.84191 c 7.71066,-7.71067 1.89897,-20.39071 -9.34574,-20.39071 -7.41957,0 -12.7442,4.96965 -12.7442,11.89458 0,6.92493 5.32463,11.89458 12.7442,11.89458 3.68166,0 7.24192,-1.29465 9.34574,-3.39845 z m -38.65739,-18.95219 c 4.03714,-4.77108 3.7399,-11.44882 -0.72099,-16.19723 -10.00951,-10.65462 -26.91808,2.00877 -19.98344,14.96627 3.83512,7.16597 15.11493,7.8366 20.70443,1.23096 z m -37.93109,-22.908 c 4.02813,-5.12093 4.28971,-7.27124 1.60213,-13.16984 -5.68767,-12.48309 -23.56874,-7.55898 -23.56874,6.49039 0,10.69924 15.17502,15.31356 21.96661,6.67945 z m -37.25964,-19.31193 c 7.71066,-7.71067 1.89897,-20.39071 -9.34574,-20.39071 -11.29567,0 -16.82872,11.9672 -9.27954,20.0703 4.5003,4.83051 13.95257,4.99312 18.62528,0.32041 z"
     id="path894"
     transform="scale(0.74999983)" />
</svg>
