<?xml version="1.0" encoding="UTF-8" standalone="no"?>
<svg
   xmlns:dc="http://purl.org/dc/elements/1.1/"
   xmlns:cc="http://creativecommons.org/ns#"
   xmlns:rdf="http://www.w3.org/1999/02/22-rdf-syntax-ns#"
   xmlns:svg="http://www.w3.org/2000/svg"
   xmlns="http://www.w3.org/2000/svg"
   xmlns:sodipodi="http://sodipodi.sourceforge.net/DTD/sodipodi-0.dtd"
   xmlns:inkscape="http://www.inkscape.org/namespaces/inkscape"
   version="1.0"
   width="787.000000pt"
   height="494.000000pt"
   viewBox="0 0 787.000000 494.000000"
   preserveAspectRatio="xMidYMid meet"
   id="svg18"
   sodipodi:docname="face18.svg"
   inkscape:version="1.0.1 (3bc2e813f5, 2020-09-07)">
  <metadata
     id="metadata24">
    <rdf:RDF>
      <cc:Work
         rdf:about="">
        <dc:format>image/svg+xml</dc:format>
        <dc:type
           rdf:resource="http://purl.org/dc/dcmitype/StillImage" />
      </cc:Work>
    </rdf:RDF>
  </metadata>
  <defs
     id="defs22" />
  <sodipodi:namedview
     pagecolor="#ffffff"
     bordercolor="#666666"
     borderopacity="1"
     objecttolerance="10"
     gridtolerance="10"
     guidetolerance="10"
     inkscape:pageopacity="0"
     inkscape:pageshadow="2"
     inkscape:window-width="1920"
     inkscape:window-height="1027"
     id="namedview20"
     showgrid="false"
     inkscape:zoom="1.2236341"
     inkscape:cx="524.66667"
     inkscape:cy="329.33333"
     inkscape:window-x="1912"
     inkscape:window-y="-8"
     inkscape:window-maximized="1"
     inkscape:current-layer="svg18" />
  <g
     transform="translate(0.000000,494.000000) scale(0.100000,-0.100000)"
     fill="#000000"
     stroke="none"
     id="g16">
    <path
       d="M5852 4031 c-62 -10 -115 -14 -118 -10 -4 7 -111 2 -124 -6 -4 -2 -60 -7 -126 -11 -65 -3 -122 -8 -126 -10 -17 -11 -165 -44 -195 -44 -23 0 -33 -5 -33 -15 0 -8 -8 -16 -17 -16 -10 -1 -25 -2 -33 -3 -8 -1 -20 -4 -26 -8 -6 -4 -31 -10 -55 -14 -24 -4 -47 -11 -50 -16 -3 -5 -32 -12 -65 -15 -32 -3 -63 -9 -69 -13 -5 -4 -39 -13 -75 -20 -36 -7 -73 -17 -83 -22 -14 -7 -22 -5 -33 9 -10 14 -13 15 -14 3 0 -15 -62 -40 -100 -40 -11 0 -20 -5 -20 -11 0 -6 -14 -9 -32 -8 -34 3 -61 -2 -137 -27 -34 -11 -47 -11 -52 -2 -5 8 -11 9 -21 1 -12 -10 -67 -19 -183 -28 -27 -2 -81 -8 -120 -13 -38 -5 -73 -7 -77 -5 -5 2 -60 5 -124 7 -64 1 -119 7 -122 12 -4 5 -34 11 -66 13 -33 1 -76 12 -95 22 -21 11 -56 19 -83 19 -40 0 -46 3 -41 17 5 12 2 15 -10 10 -9 -3 -33 1 -53 9 -20 9 -45 13 -56 11 -10 -3 -18 -1 -18 5 0 5 -4 7 -9 3 -11 -6 -61 15 -61 27 0 4 -10 8 -22 8 -13 0 -44 7 -70 14 -25 8 -49 12 -51 9 -3 -3 -25 5 -49 17 -24 12 -51 27 -61 31 -11 6 -25 5 -37 -1 -19 -10 -65 -5 -85 10 -5 4 -35 8 -65 9 -30 1 -57 5 -60 9 -8 11 -165 3 -224 -12 -13 -3 -57 -8 -97 -11 -106 -7 -158 -15 -163 -24 -3 -4 -23 -6 -45 -4 -22 1 -43 -2 -46 -7 -3 -6 -17 -10 -30 -10 -13 0 -27 -5 -30 -10 -4 -6 -11 -8 -16 -4 -12 7 -99 -17 -99 -28 0 -4 -11 -8 -24 -8 -13 0 -29 -6 -36 -14 -6 -8 -17 -13 -24 -10 -7 3 -21 -4 -31 -16 -11 -12 -31 -20 -50 -20 -21 0 -35 -6 -39 -16 -4 -10 -14 -14 -26 -11 -13 3 -20 0 -20 -9 0 -8 -10 -14 -24 -14 -14 0 -28 -4 -31 -10 -3 -5 -17 -10 -31 -10 -14 0 -27 -6 -30 -14 -3 -8 -12 -12 -21 -9 -9 4 -19 -1 -25 -10 -5 -10 -17 -17 -27 -17 -11 0 -21 -7 -25 -15 -3 -8 -13 -15 -21 -15 -9 0 -13 -4 -10 -10 3 -5 0 -10 -9 -10 -8 0 -17 -6 -19 -12 -4 -10 -6 -10 -6 -1 -1 17 -31 4 -31 -13 0 -8 -6 -14 -13 -14 -13 0 -67 -53 -67 -66 0 -3 -13 -19 -30 -36 -16 -16 -30 -36 -30 -44 0 -8 -5 -14 -11 -14 -5 0 -17 -15 -25 -32 -13 -31 -28 -56 -46 -82 -36 -51 -80 -125 -114 -191 -23 -44 -61 -109 -85 -145 -24 -36 -53 -83 -64 -105 -11 -22 -29 -56 -42 -77 -46 -75 -111 -381 -118 -553 -8 -219 -6 -326 8 -352 8 -16 20 -53 27 -83 20 -97 74 -243 99 -269 13 -14 30 -39 38 -56 26 -55 78 -150 95 -175 10 -13 18 -32 18 -42 0 -10 14 -31 30 -46 17 -16 30 -34 30 -40 0 -6 6 -15 13 -19 14 -8 31 -42 28 -56 0 -4 7 -11 16 -14 22 -8 43 -28 43 -41 0 -5 7 -15 15 -22 8 -7 15 -21 15 -32 0 -16 4 -19 23 -13 55 17 65 17 86 -4 12 -12 28 -21 35 -21 8 0 36 -14 62 -32 26 -18 75 -42 108 -53 34 -12 82 -32 108 -43 26 -12 51 -21 55 -20 4 0 19 -4 33 -9 91 -39 135 -53 165 -53 32 0 108 -15 145 -28 26 -10 205 -21 417 -27 68 -2 127 -7 133 -10 6 -4 48 -8 93 -10 45 -2 165 -7 267 -12 213 -9 306 -8 405 7 66 9 265 14 330 7 17 -1 52 3 78 9 27 7 81 12 120 12 40 0 92 3 117 6 64 9 143 17 158 17 97 -5 505 3 552 10 30 5 77 12 105 15 27 4 59 12 70 20 11 7 40 18 65 24 25 7 52 17 60 23 16 12 47 31 78 45 37 19 148 55 170 56 12 1 22 4 22 7 0 7 69 24 82 21 4 -1 22 7 40 18 18 11 41 20 51 20 10 0 34 8 55 17 20 9 42 17 47 18 6 1 17 5 25 8 8 3 29 8 45 11 17 3 46 9 65 15 19 5 49 11 65 12 17 2 36 8 43 13 9 7 16 6 21 -3 6 -10 9 -9 14 2 3 8 24 18 46 22 22 4 45 13 51 20 6 8 28 19 47 26 38 12 112 59 133 84 7 8 18 15 25 15 7 0 27 15 46 34 18 19 37 32 41 30 4 -3 39 25 77 63 37 37 92 86 121 108 30 22 87 73 128 113 41 39 77 72 81 72 8 0 65 57 104 104 17 21 36 31 67 35 28 4 47 13 54 26 6 10 23 33 39 50 25 28 67 120 67 148 0 15 31 65 57 92 10 11 41 64 68 119 27 54 54 100 61 103 8 3 16 31 20 64 4 33 11 62 15 65 11 6 42 74 59 129 7 21 23 63 36 92 33 74 32 129 -7 343 -14 78 -61 263 -69 275 -4 6 -22 48 -41 95 -18 47 -36 87 -39 90 -3 3 -21 35 -39 73 -19 37 -37 67 -41 67 -4 0 -13 13 -20 29 -6 16 -23 38 -37 48 -14 10 -35 28 -46 41 -12 12 -27 20 -34 18 -7 -3 -13 1 -13 9 0 8 -4 14 -9 12 -5 -1 -21 10 -37 26 -75 71 -97 84 -136 78 -5 0 -8 3 -8 9 0 5 -7 10 -15 10 -8 0 -15 7 -15 16 0 11 -6 13 -19 9 -11 -3 -22 -1 -26 5 -3 5 -17 10 -30 10 -14 0 -41 9 -62 19 -21 11 -53 19 -70 17 -18 -1 -34 2 -36 7 -1 5 -16 10 -31 10 -16 0 -40 6 -55 13 -14 8 -33 14 -41 14 -9 0 -21 5 -28 12 -8 8 -15 8 -25 -1 -11 -9 -17 -8 -27 4 -7 8 -16 12 -21 9 -5 -3 -15 -2 -21 3 -7 4 -22 8 -33 9 -11 0 -30 4 -42 8 -14 5 -23 3 -23 -3 0 -6 -7 -11 -15 -11 -8 0 -15 5 -15 10 0 6 -3 9 -7 9 -5 -1 -59 -9 -121 -18z m248 -105 c52 -8 98 -12 102 -10 4 3 15 1 25 -5 34 -17 155 -52 161 -47 3 3 11 1 18 -4 6 -6 43 -19 81 -30 37 -10 82 -26 98 -34 17 -9 35 -16 42 -16 6 0 21 -12 32 -27 12 -14 24 -23 27 -20 7 7 21 -4 75 -54 22 -20 55 -49 75 -64 19 -15 40 -38 46 -51 6 -13 16 -24 23 -24 11 0 85 -137 85 -158 0 -7 5 -12 11 -12 6 0 9 -6 6 -14 -3 -8 0 -17 7 -19 7 -3 16 -21 19 -39 3 -19 14 -54 25 -79 11 -24 25 -78 31 -119 7 -41 17 -102 24 -135 6 -33 11 -99 12 -146 0 -84 -2 -90 -46 -181 -5 -10 -9 -24 -9 -31 0 -7 -11 -35 -24 -63 -13 -27 -31 -71 -41 -99 -24 -67 -73 -165 -95 -190 -10 -11 -25 -36 -33 -55 -8 -20 -21 -43 -29 -51 -9 -8 -25 -33 -36 -55 -53 -105 -78 -144 -89 -139 -7 2 -13 -2 -13 -10 0 -13 -46 -62 -161 -172 -24 -23 -82 -80 -128 -127 -47 -47 -91 -86 -98 -86 -7 0 -18 -10 -24 -23 -6 -12 -23 -28 -39 -36 -35 -15 -84 -59 -93 -83 -3 -10 -13 -18 -22 -18 -8 0 -15 -4 -15 -10 0 -5 -4 -10 -10 -10 -5 0 -19 -8 -30 -17 -11 -10 -29 -26 -40 -35 -11 -10 -23 -18 -28 -18 -4 0 -18 -10 -32 -23 -33 -29 -110 -79 -110 -71 0 4 -9 -1 -19 -10 -11 -10 -24 -16 -29 -12 -4 3 -23 -4 -42 -15 -19 -12 -62 -24 -102 -28 -38 -4 -73 -12 -76 -18 -4 -6 -23 -13 -42 -16 -93 -15 -144 -27 -149 -35 -9 -13 -72 -33 -83 -26 -6 4 -14 1 -18 -6 -6 -10 -83 -43 -125 -53 -5 -1 -16 -6 -22 -10 -7 -5 -17 -5 -23 -2 -5 3 -10 1 -10 -4 0 -6 -10 -11 -23 -11 -13 0 -27 -4 -32 -9 -6 -5 -36 -17 -68 -26 -33 -10 -65 -24 -72 -31 -7 -7 -15 -10 -18 -7 -3 3 -27 -6 -53 -21 -25 -14 -56 -26 -68 -26 -12 0 -27 -5 -34 -12 -6 -6 -31 -13 -54 -15 -24 -2 -63 -8 -87 -14 -26 -6 -48 -6 -53 -1 -5 5 -30 6 -56 1 -26 -4 -139 -7 -252 -8 -134 0 -233 -5 -285 -15 -72 -13 -192 -19 -390 -18 -38 0 -111 -4 -161 -9 -153 -16 -228 -20 -429 -19 -5 0 -53 -1 -105 -2 -112 -1 -294 8 -400 20 -41 5 -159 8 -262 8 -116 -1 -189 3 -191 9 -2 5 -41 15 -88 21 -137 19 -169 26 -169 36 0 5 -9 6 -20 3 -12 -4 -20 -2 -20 5 0 6 -8 9 -18 6 -10 -4 -27 1 -38 9 -10 8 -26 15 -34 15 -9 0 -33 9 -54 20 -22 10 -43 17 -48 14 -5 -3 -17 1 -26 9 -26 22 -148 87 -165 87 -8 0 -33 20 -55 45 -22 25 -45 45 -50 45 -9 0 -19 21 -37 75 -3 10 2 35 11 55 9 19 20 42 24 50 11 23 -35 74 -60 67 -11 -3 -21 1 -24 9 -3 8 -17 14 -30 14 -21 0 -27 7 -37 43 -6 23 -15 52 -20 64 -4 13 -11 53 -15 90 -4 38 -11 71 -15 74 -5 3 -10 24 -11 47 -1 31 4 46 18 57 12 8 23 10 28 4 15 -14 46 21 46 52 0 19 -6 30 -20 34 -11 3 -23 17 -26 30 -7 30 24 85 48 85 10 0 18 5 18 10 0 6 5 10 12 10 6 0 22 10 35 21 17 17 26 19 36 11 7 -7 18 -7 27 -2 8 5 22 4 34 -2 15 -8 22 -7 33 8 7 10 13 26 13 37 0 10 9 30 20 44 11 14 20 34 20 43 0 10 7 23 16 31 8 7 22 25 30 41 12 24 18 27 35 18 10 -6 24 -8 30 -5 5 4 16 1 24 -5 8 -6 23 -9 33 -6 11 4 24 0 32 -9 23 -27 30 -16 30 46 0 50 -3 60 -15 56 -8 -4 -17 -2 -20 3 -4 6 -18 10 -32 10 -16 0 -23 4 -20 13 3 9 -7 12 -33 12 -22 0 -46 8 -57 18 -27 24 -109 24 -121 0 -20 -38 -23 -73 -7 -73 19 0 20 -16 1 -27 -7 -4 -21 -22 -30 -40 -21 -41 -52 -59 -72 -42 -23 19 -70 21 -85 3 -7 -9 -13 -33 -14 -54 -1 -32 -8 -45 -48 -80 -26 -23 -47 -47 -47 -54 0 -6 -9 -22 -19 -35 -18 -24 -20 -24 -45 -8 -61 40 -116 5 -116 -74 0 -27 3 -31 21 -26 15 4 23 0 26 -14 4 -14 11 -18 25 -13 13 4 18 2 14 -4 -4 -6 -7 -43 -8 -82 -1 -51 -5 -73 -15 -77 -15 -6 -53 24 -53 42 0 6 -11 39 -25 72 -42 105 -53 294 -31 552 3 29 1 63 -4 76 -6 15 -4 27 6 36 8 8 20 39 28 69 48 182 72 251 105 303 12 17 30 51 41 73 11 23 26 47 34 53 8 6 20 26 27 44 7 18 23 46 36 63 13 17 23 36 23 42 0 7 5 12 10 12 6 0 10 4 10 9 0 8 42 81 92 159 34 53 48 82 41 82 -5 0 -3 4 3 8 5 4 23 24 38 45 16 20 33 37 40 37 6 0 21 15 33 34 25 38 149 129 164 120 6 -3 18 1 27 10 23 20 91 48 101 41 5 -3 11 2 15 10 3 8 12 15 20 15 8 0 16 3 18 8 4 10 104 52 150 63 21 5 54 18 74 29 22 13 71 25 123 32 47 5 88 14 92 19 3 5 27 12 54 15 39 6 47 5 40 -6 -5 -8 6 -4 23 9 18 12 50 24 72 26 22 2 49 7 60 10 11 4 20 2 20 -4 0 -6 45 -9 123 -8 67 1 128 -2 136 -7 8 -5 57 -11 108 -13 53 -1 108 -9 129 -18 20 -8 42 -15 49 -15 8 0 35 -10 62 -22 26 -11 64 -22 83 -23 19 0 51 -9 70 -20 19 -10 49 -19 65 -21 17 -1 43 -9 59 -18 16 -8 53 -18 82 -22 31 -3 61 -14 74 -26 15 -14 25 -17 32 -10 7 7 18 6 35 -3 14 -8 32 -11 39 -8 8 3 14 0 14 -6 0 -8 5 -9 16 -3 15 8 120 -8 144 -23 7 -4 16 -2 20 6 7 10 16 10 45 2 24 -8 46 -8 61 -2 14 5 55 9 92 10 37 1 71 3 75 6 4 3 32 6 62 8 30 2 60 7 66 11 17 10 109 13 115 3 2 -4 17 -1 32 7 15 7 38 14 52 14 51 1 266 46 313 65 16 7 19 3 17 -21 -4 -60 -5 -59 68 -62 37 -2 71 -7 76 -12 4 -4 -1 -17 -13 -29 -12 -12 -21 -30 -21 -40 0 -11 -2 -25 -5 -33 -6 -16 58 -50 79 -42 8 3 17 12 20 20 3 8 12 14 20 14 8 0 28 16 46 36 18 21 35 33 38 27 4 -6 18 -14 32 -18 14 -4 39 -17 55 -29 17 -13 38 -25 48 -29 12 -4 16 -13 13 -24 -11 -36 -15 -75 -9 -89 6 -17 64 -19 80 -3 20 20 30 0 36 -76 6 -67 4 -79 -14 -104 -30 -41 -19 -91 20 -91 15 0 32 5 39 12 9 9 12 8 12 -5 0 -9 9 -22 20 -29 11 -7 20 -20 20 -29 0 -8 9 -25 20 -37 24 -26 24 -30 4 -53 -19 -21 -31 -123 -16 -133 6 -3 27 1 47 11 31 15 37 15 45 3 6 -8 8 -21 5 -28 -3 -9 1 -11 13 -8 13 4 23 -4 37 -30 21 -39 88 -98 99 -87 4 4 19 9 34 10 36 5 62 38 62 79 0 28 -4 34 -20 34 -29 0 -76 26 -84 45 -10 28 -6 69 9 89 35 46 8 80 -63 81 -43 0 -48 2 -57 30 -5 17 -20 46 -32 66 -32 50 -29 82 7 112 21 18 30 35 30 56 0 37 -23 44 -65 19 -39 -24 -44 -23 -56 10 -10 25 -13 143 -5 187 2 11 -4 27 -13 36 -14 14 -19 13 -50 -2 -34 -16 -35 -16 -68 10 -18 14 -33 30 -33 34 0 5 -5 5 -11 2 -5 -4 -19 1 -29 10 -10 9 -33 25 -52 34 -28 15 -89 88 -100 121 -6 20 -36 0 -31 -21 7 -24 -27 -26 -62 -3 -13 9 -29 13 -35 9 -5 -3 -16 -3 -22 2 -13 8 0 11 112 29 25 3 50 10 55 14 6 4 33 13 60 20 28 7 55 16 60 19 6 4 24 8 40 10 17 2 32 6 35 10 9 12 87 31 104 25 9 -3 16 -1 16 6 0 7 8 9 20 5 12 -4 26 -3 33 2 7 5 39 10 72 12 33 1 65 7 72 13 7 5 17 7 22 4 5 -4 13 -2 16 4 4 7 12 7 18 2 7 -4 21 -7 32 -6 11 1 67 5 125 9 58 4 106 8 107 9 9 8 178 3 253 -8z"
       id="path2" />
    <path
       d="M6063 3475 c-11 -8 -23 -12 -26 -8 -3 3 -14 2 -24 -2 -10 -5 -20 -9 -23 -10 -56 -21 -70 -29 -70 -40 0 -7 -6 -15 -14 -18 -27 -10 -56 -113 -56 -195 0 -72 19 -161 39 -186 5 -6 11 -21 15 -32 4 -12 32 -49 64 -83 45 -48 62 -60 80 -57 13 3 34 1 47 -4 13 -5 46 -6 73 -1 27 4 59 4 71 0 12 -5 21 -4 21 1 0 6 7 10 15 10 8 0 15 7 15 15 0 20 17 19 28 -1 8 -14 11 -13 28 8 10 12 31 31 45 40 47 30 88 138 103 274 10 81 -28 150 -120 220 -69 54 -89 64 -124 64 -16 0 -30 3 -30 8 0 14 -136 11 -157 -3z m187 -101 c22 -9 40 -21 40 -26 0 -6 6 -8 14 -5 7 3 28 -9 46 -28 27 -27 32 -42 36 -91 5 -67 -24 -191 -44 -186 -7 1 -12 -3 -12 -8 0 -5 -9 -10 -20 -10 -10 0 -23 -6 -27 -13 -21 -33 -67 -50 -139 -50 -71 0 -73 1 -108 38 -20 21 -36 42 -36 48 0 6 -7 18 -16 28 -38 42 -24 259 17 259 10 0 23 8 28 18 6 12 23 18 52 19 23 1 47 7 53 13 15 15 70 12 116 -6z"
       id="path4" />
    <path
       d="M6093 3234 c-32 -35 -30 -82 5 -116 15 -14 34 -28 42 -30 8 -1 18 -7 21 -11 3 -5 22 1 41 13 30 17 36 27 42 68 4 29 2 48 -4 50 -5 2 -10 11 -10 21 0 9 -8 18 -17 19 -99 11 -98 11 -120 -14z"
       id="path6" />
    <path
       d="M1730 3380 c0 -5 -13 -10 -28 -10 -38 0 -81 -22 -117 -60 -16 -16 -34 -30 -41 -30 -18 0 -100 -129 -108 -170 -23 -122 -27 -163 -22 -230 3 -41 8 -88 11 -104 9 -43 61 -119 95 -140 17 -9 30 -21 30 -27 0 -5 8 -9 18 -9 11 0 34 -7 52 -17 42 -21 190 -21 240 -1 36 15 115 38 129 38 20 0 120 50 144 71 16 15 16 19 1 66 -15 46 -15 54 -1 80 69 128 67 122 62 200 -3 51 -10 85 -24 109 -12 19 -21 40 -21 45 0 18 -52 79 -66 79 -8 0 -14 5 -14 10 0 6 -10 14 -22 19 -13 5 -58 25 -100 45 -58 27 -96 38 -148 42 -45 3 -70 1 -70 -6z m172 -120 c79 -28 139 -71 167 -120 20 -37 23 -52 19 -114 -4 -52 -12 -83 -32 -116 -14 -25 -26 -58 -26 -74 0 -65 -54 -122 -112 -118 -10 0 -18 -3 -18 -9 0 -5 -11 -9 -24 -9 -13 0 -26 -5 -28 -11 -2 -7 -16 -13 -30 -15 -14 -1 -42 -5 -61 -8 -20 -3 -39 -1 -42 4 -3 5 -11 7 -18 4 -7 -2 -27 9 -45 26 -19 17 -38 28 -43 25 -12 -8 -59 43 -59 64 0 10 -5 22 -10 27 -20 20 -23 145 -6 229 17 83 17 81 110 174 16 16 45 32 63 36 18 3 33 10 33 15 0 17 104 11 162 -10z"
       id="path8" />
    <path
       d="M1773 3093 c-12 -2 -27 -11 -33 -19 -7 -8 -18 -14 -25 -14 -16 0 -55 -64 -55 -91 0 -11 4 -18 8 -15 5 3 15 -7 23 -21 8 -15 23 -36 34 -48 21 -22 79 -32 90 -15 4 6 10 8 15 5 5 -3 19 8 31 24 12 16 35 35 51 42 29 12 44 44 34 76 -10 31 -87 75 -119 69 -17 -4 -26 -2 -22 4 3 6 3 9 -2 9 -4 -1 -18 -4 -30 -6z"
       id="path10" />
    <path
       d="M4005 3273 c-38 -8 -82 -24 -96 -34 -15 -10 -35 -19 -46 -19 -10 0 -35 -15 -55 -33 -83 -72 -123 -102 -135 -99 -7 2 -13 -4 -13 -13 0 -8 -7 -15 -15 -15 -8 0 -20 -9 -27 -20 -7 -11 -16 -20 -20 -20 -4 0 -31 -24 -62 -53 -45 -43 -56 -60 -62 -96 -6 -36 -4 -46 11 -58 21 -15 95 -18 95 -4 0 6 18 31 40 56 22 25 40 50 40 55 0 5 11 12 25 16 14 3 25 12 25 18 0 16 42 56 58 56 7 0 12 5 12 10 0 6 5 10 11 10 7 0 19 8 28 18 9 9 33 26 54 37 20 11 37 23 37 27 0 5 9 8 19 8 11 0 23 5 26 10 4 6 14 10 23 8 10 -1 22 0 27 4 6 3 29 9 52 13 36 6 42 4 48 -15 6 -20 7 -20 20 -3 13 17 14 17 32 0 11 -9 35 -17 54 -17 23 0 38 -6 47 -20 7 -11 18 -17 27 -14 13 5 69 -16 127 -47 10 -5 24 -9 32 -9 8 0 16 -7 20 -15 3 -8 14 -15 25 -15 10 0 26 -11 35 -24 8 -14 24 -27 35 -31 10 -3 24 -19 31 -35 8 -18 20 -30 31 -30 11 0 28 -9 40 -21 11 -11 30 -19 43 -17 13 1 31 -3 40 -11 10 -9 16 -10 16 -2 0 6 9 11 19 11 11 0 22 6 25 13 5 10 7 10 12 0 10 -23 67 -15 97 12 15 14 27 30 27 35 0 19 -41 50 -67 52 -46 2 -51 3 -58 10 -3 3 -24 4 -46 1 -25 -4 -39 -2 -39 6 0 6 -6 11 -13 11 -8 0 -22 9 -32 20 -10 11 -22 20 -26 20 -5 0 -34 24 -66 54 -31 30 -60 53 -65 50 -4 -3 -8 0 -8 6 0 6 -5 8 -11 4 -6 -3 -23 3 -39 14 -34 25 -294 114 -332 114 -15 0 -32 6 -39 14 -6 8 -14 14 -18 13 -3 -1 -37 -8 -76 -16z"
       id="path12" />
    <path
       d="M5828 2319 c-10 -5 -18 -7 -18 -4 0 3 -9 1 -19 -5 -12 -6 -22 -6 -26 -1 -3 5 -20 8 -38 6 -17 -3 -62 -7 -100 -9 -37 -3 -73 -8 -79 -12 -7 -5 -19 -9 -28 -10 -8 -1 -53 -12 -100 -24 -47 -12 -101 -22 -121 -21 -23 0 -46 -7 -63 -20 -14 -11 -26 -16 -26 -10 0 7 -6 8 -17 2 -10 -5 -38 -14 -63 -21 -25 -7 -53 -16 -62 -21 -10 -5 -24 -9 -31 -9 -8 0 -36 -11 -63 -25 -27 -14 -59 -25 -71 -25 -12 0 -24 -4 -28 -10 -3 -5 -12 -7 -20 -3 -8 3 -15 0 -15 -7 0 -7 -8 -9 -19 -5 -11 3 -23 1 -26 -6 -5 -8 -26 -9 -66 -5 -34 4 -59 3 -59 -2 0 -15 -153 -42 -173 -30 -9 5 -26 2 -43 -7 -16 -8 -53 -14 -89 -13 -33 0 -70 -4 -82 -10 -19 -10 -131 0 -154 14 -4 2 -27 6 -51 9 -48 5 -71 9 -141 26 -26 6 -56 9 -66 6 -17 -4 -103 13 -141 29 -8 4 -30 8 -48 10 -18 2 -38 7 -45 11 -6 4 -21 9 -32 10 -52 5 -128 23 -139 32 -15 13 -565 49 -646 43 -8 -1 -71 -6 -140 -11 -272 -21 -315 -26 -415 -41 -38 -6 -86 -13 -105 -16 -19 -2 -57 -9 -83 -14 -26 -6 -65 -10 -86 -10 -21 0 -41 -3 -44 -7 -4 -3 -17 -8 -29 -9 -31 -5 -50 -10 -71 -19 -10 -4 -21 -5 -24 -1 -3 3 -11 1 -18 -4 -6 -5 -22 -11 -35 -13 -29 -5 -76 -51 -99 -97 -9 -19 -22 -44 -29 -55 -6 -11 -29 -61 -50 -111 -38 -89 -38 -93 -30 -165 10 -81 59 -209 81 -209 5 0 6 -11 3 -25 -4 -14 -2 -25 3 -25 5 0 11 -12 13 -27 2 -19 8 -27 19 -25 9 1 22 -5 29 -13 7 -8 19 -15 27 -15 7 0 16 -7 19 -15 4 -8 9 -13 13 -10 4 2 22 -9 40 -25 18 -17 40 -30 50 -30 10 0 25 -7 32 -16 9 -11 23 -14 45 -11 17 3 36 1 42 -5 6 -6 12 -6 16 1 4 6 26 8 54 6 35 -4 42 -3 27 4 -14 7 -1 9 45 5 84 -6 123 -10 135 -14 6 -1 12 -2 15 0 24 9 60 7 60 -4 0 -7 15 -12 36 -13 20 -1 41 -6 46 -11 6 -6 23 -9 37 -6 14 3 49 -1 78 -9 37 -10 54 -11 57 -3 2 6 5 1 5 -11 1 -26 28 -32 37 -8 5 12 25 13 116 9 61 -2 114 -7 118 -9 5 -3 16 2 25 12 12 11 19 13 24 5 5 -8 46 -9 155 -1 82 5 197 10 255 11 58 1 108 6 111 10 3 4 44 10 90 12 47 3 117 10 155 15 39 6 78 7 88 5 10 -3 23 -1 30 5 7 5 45 12 85 15 40 3 77 8 81 10 4 3 41 8 82 12 41 3 78 11 82 18 6 7 10 8 13 0 3 -6 29 -9 67 -7 34 2 98 4 141 6 51 2 81 7 84 15 2 7 12 12 23 12 10 0 19 5 19 10 0 6 16 10 35 10 19 0 35 -5 35 -11 0 -6 8 -8 18 -5 9 3 64 6 122 6 144 0 141 0 135 -9 -2 -5 36 -8 85 -8 50 0 90 5 90 10 0 5 14 7 30 5 18 -3 35 1 41 9 14 16 46 17 52 1 3 -10 8 -9 22 2 12 10 43 15 99 16 45 1 104 6 131 12 28 5 67 13 88 17 20 4 37 12 37 16 0 5 15 9 34 9 33 0 146 37 156 51 3 3 20 10 38 14 17 3 32 11 32 16 0 6 4 8 9 4 5 -3 16 2 24 10 9 8 20 15 25 15 6 0 12 5 14 12 2 6 11 12 19 14 38 6 133 35 143 42 18 14 55 21 62 11 3 -5 10 -9 15 -9 6 0 8 4 5 9 -4 5 8 12 24 16 50 11 80 49 80 100 0 24 5 47 10 50 6 4 24 35 40 70 24 52 30 77 30 134 0 38 -4 73 -10 76 -5 3 -10 15 -10 25 0 31 -68 123 -112 152 -46 29 -81 55 -103 76 -8 6 -23 12 -34 12 -11 0 -23 5 -26 10 -3 6 -14 10 -25 10 -10 0 -28 11 -41 25 -26 27 -36 29 -61 14z m-41 -154 c18 -25 17 -184 -1 -252 -19 -70 -58 -152 -73 -153 -7 0 -13 -4 -13 -9 0 -6 -20 -13 -45 -17 -35 -5 -50 -3 -63 9 -9 9 -21 17 -27 18 -50 10 -65 24 -95 86 -29 61 -49 131 -69 240 l-8 43 37 0 c21 0 40 5 42 10 2 6 33 15 68 20 36 6 90 14 120 18 75 12 111 8 127 -13z m183 -40 c7 -8 19 -15 26 -15 8 0 41 -26 74 -57 65 -61 86 -107 69 -150 -5 -13 -9 -34 -9 -47 0 -12 -9 -32 -20 -44 -11 -12 -20 -24 -20 -29 0 -10 -52 -63 -63 -63 -4 0 -8 10 -7 23 5 51 -2 69 -40 109 l-40 43 0 122 c0 68 4 123 9 123 5 0 14 -7 21 -15z m-704 -77 c19 -132 0 -216 -72 -316 -3 -4 -153 -16 -214 -16 -85 -1 -180 97 -192 200 -3 26 0 29 27 32 17 2 37 6 45 9 8 3 31 7 50 10 19 2 40 11 47 20 7 8 19 13 28 10 8 -4 15 -2 15 3 0 6 7 10 15 10 8 0 15 5 15 11 0 5 8 9 18 8 9 -2 38 7 64 19 26 12 57 22 70 22 13 0 32 7 42 15 30 23 33 19 42 -37z m-2276 32 c11 -6 77 -12 147 -15 71 -2 137 -6 148 -8 11 -2 23 0 26 5 3 5 13 6 22 2 17 -6 17 -7 17 -153 0 -18 -3 -38 -7 -45 -4 -6 -8 -15 -8 -21 0 -5 -9 -9 -19 -8 -11 1 -26 -5 -34 -14 -8 -8 -23 -12 -33 -10 -11 3 -19 1 -19 -4 0 -8 -46 -23 -104 -33 -45 -8 -100 22 -125 68 -30 56 -55 203 -42 244 2 4 13 2 31 -8z m-217 -7 c35 -4 37 -7 37 -41 0 -21 -11 -54 -25 -77 -13 -22 -28 -49 -33 -60 -31 -67 -254 -164 -270 -117 -2 7 -8 12 -13 12 -10 0 -53 35 -78 63 -9 10 -21 43 -28 74 -19 95 4 122 104 119 28 0 49 2 46 7 -2 4 13 7 34 7 21 0 45 5 53 10 16 10 110 12 173 3z m841 -69 c21 -1 42 -7 46 -14 4 -7 24 -12 44 -12 20 0 39 -4 42 -9 3 -5 18 -9 35 -9 16 0 29 -4 29 -9 0 -12 37 -20 47 -10 5 5 24 5 43 -1 19 -6 54 -10 77 -10 39 0 43 -2 43 -25 0 -36 -20 -76 -54 -107 -32 -30 -30 -30 -214 -32 -101 -2 -104 -1 -156 32 -51 33 -55 38 -80 116 -29 91 -30 98 -15 113 8 8 20 6 42 -5 18 -9 49 -17 71 -18z m-1425 10 c30 -6 31 -8 31 -60 0 -71 -18 -156 -37 -171 -8 -6 -32 -28 -53 -47 -33 -30 -48 -36 -103 -42 -41 -4 -84 -2 -118 7 -30 7 -62 12 -72 11 -10 0 -22 9 -27 23 -5 13 -21 31 -35 41 -31 20 -32 52 -4 111 25 51 53 72 112 84 23 5 65 14 92 20 28 6 70 10 95 10 25 -1 52 3 60 9 18 12 19 12 59 4z m2424 -137 c-2 -21 -12 -51 -23 -68 -12 -16 -19 -29 -15 -29 3 0 -2 -13 -12 -30 -9 -16 -23 -30 -31 -30 -7 0 -10 -5 -6 -12 5 -8 0 -9 -16 -5 -12 3 -47 1 -77 -4 -39 -7 -58 -7 -68 1 -7 6 -28 12 -46 12 -41 1 -123 75 -113 103 4 9 2 20 -4 24 -6 4 -13 18 -14 31 -3 23 0 24 37 21 82 -8 306 6 320 20 2 2 18 4 37 4 32 0 33 -2 31 -38z m1275 -196 c12 -34 9 -38 -37 -57 -33 -14 -51 -11 -51 7 0 10 61 77 72 78 3 1 11 -12 16 -28z m-514 -19 c21 0 43 -5 48 -10 6 -6 16 -8 23 -6 7 3 23 -8 36 -23 16 -19 35 -29 58 -30 35 -2 60 -25 61 -55 0 -20 -80 -63 -102 -55 -7 2 -25 -2 -40 -9 -15 -8 -53 -15 -86 -16 -33 -2 -58 -7 -55 -12 3 -4 -19 -5 -48 -2 -54 6 -72 6 -118 5 -42 -2 -45 16 -13 63 32 46 76 88 92 88 6 0 10 4 10 8 0 5 16 14 35 22 19 7 38 22 41 33 3 11 9 15 13 9 3 -5 23 -10 45 -10z m-1909 -41 c70 -20 115 -54 115 -87 0 -8 5 -12 10 -9 6 3 13 -2 17 -12 4 -10 17 -33 30 -52 12 -18 20 -37 17 -42 -3 -5 0 -9 5 -9 12 0 15 -79 3 -96 -12 -17 -44 -26 -108 -29 -34 -1 -67 -6 -75 -10 -7 -5 -67 -10 -133 -12 -67 -1 -132 -6 -146 -9 -14 -3 -49 -8 -79 -10 l-54 -5 7 33 c4 18 12 65 17 103 5 39 14 72 19 73 6 2 10 9 10 16 0 20 90 106 111 106 7 0 17 7 23 15 15 21 107 65 126 60 8 -2 46 -12 85 -24z m1271 -53 c7 -5 16 -8 20 -7 49 9 134 -57 134 -102 0 -15 7 -32 15 -39 20 -17 19 -37 -2 -42 -10 -3 -54 -1 -98 4 -95 11 -96 11 -160 9 -27 -2 -75 2 -105 7 -30 6 -58 8 -62 5 -5 -2 -8 3 -8 11 0 21 97 111 151 140 45 25 95 31 115 14z m-1951 -57 c3 -6 17 -6 36 1 25 8 33 7 49 -7 11 -10 20 -22 20 -27 0 -4 9 -17 20 -28 11 -11 20 -31 20 -44 0 -14 3 -27 8 -29 4 -3 5 -33 4 -67 -4 -60 -5 -61 -28 -56 -13 4 -24 2 -24 -3 0 -9 -192 -6 -245 4 -16 3 -36 6 -42 5 -7 0 -21 -1 -30 -2 -36 -2 -104 11 -119 22 -22 19 -17 58 17 116 40 70 87 90 231 98 14 0 24 5 20 10 -3 5 2 7 11 3 9 -3 19 -2 22 3 8 13 22 13 30 1z m-652 -22 c10 0 21 -7 24 -15 3 -8 16 -14 29 -14 30 0 83 -52 95 -93 18 -63 17 -63 -71 -61 -44 2 -85 6 -91 10 -6 4 -15 1 -19 -6 -4 -7 -13 -9 -19 -5 -7 3 -42 9 -79 11 -101 7 -106 8 -121 22 -7 7 -22 10 -32 7 -16 -5 -19 -1 -19 27 0 29 26 68 46 68 2 0 14 9 26 19 13 12 42 22 77 26 31 4 61 8 66 10 6 2 24 2 40 -1 17 -2 38 -5 48 -5z m1963 -4 c16 -8 39 -15 51 -15 12 0 29 -8 39 -17 9 -10 29 -19 43 -20 45 -6 52 -12 49 -40 -3 -28 -4 -28 -83 -31 -44 -1 -98 -7 -120 -12 -22 -5 -71 -12 -110 -16 -113 -10 -119 -11 -137 -19 -15 -6 -18 -2 -17 31 0 22 3 57 7 79 6 34 11 40 30 37 12 -2 22 2 22 7 0 6 15 11 33 12 17 1 43 5 57 9 41 13 106 11 136 -5z"
       id="path14" />
  </g>
  <path
     style="fill:#ffffff;stroke-width:0"
     d="m 361.21911,559.3089 c -2.47215,-0.15999 -12.03383,-0.83803 -21.24819,-1.50676 -9.21435,-0.66872 -27.6022,-1.38966 -40.86189,-1.60208 -19.41815,-0.31108 -24.7016,-0.6358 -27.15698,-1.6691 -1.67666,-0.70559 -8.00617,-2.01145 -14.06558,-2.9019 -13.31611,-1.95685 -17.53536,-2.86591 -18.69801,-4.02856 -0.48506,-0.48505 -1.88993,-0.88191 -3.12195,-0.88191 -1.23202,0 -2.45759,-0.35201 -2.72349,-0.78225 -0.26591,-0.43024 -1.48283,-0.74389 -2.70426,-0.69699 -1.22144,0.0469 -4.24346,-0.75639 -6.7156,-1.78506 -2.47215,-1.02867 -6.56346,-2.73768 -9.09181,-3.79781 -2.52835,-1.06013 -5.43066,-1.92751 -6.44959,-1.92751 -1.01892,0 -4.28275,-1.5373 -7.25295,-3.41622 -2.97019,-1.87892 -8.9465,-5.09679 -13.28066,-7.15083 -6.40074,-3.03341 -9.18751,-4.98246 -14.84254,-10.38073 -5.86417,-5.59791 -7.18249,-7.34486 -8.35878,-11.07648 l -1.39656,-4.43038 2.55036,-6.07002 c 1.4027,-3.33852 2.55036,-6.86556 2.55036,-7.83787 0,-2.39291 -4.10801,-6.63435 -7.02637,-7.2546 -1.30453,-0.27726 -2.9235,-0.85229 -3.59772,-1.27787 -1.38342,-0.87321 -1.86644,-1.06277 -5.31205,-2.08467 -2.18787,-0.64888 -2.69938,-1.47439 -4.75313,-7.67098 -1.26578,-3.81911 -3.00681,-11.46219 -3.86897,-16.98461 -0.86215,-5.52242 -1.90424,-10.67101 -2.31575,-11.44133 -0.77431,-1.44945 -1.14879,-4.65598 -0.9987,-8.55139 0.12589,-3.26717 2.75862,-5.59488 5.66956,-5.01269 3.2797,0.65593 5.85837,-2.66267 5.85837,-7.53942 0,-3.11002 -0.3002,-3.70161 -2.43987,-4.80808 -2.62992,-1.35998 -3.75526,-4.13372 -2.96101,-7.29827 0.70547,-2.81079 4.44933,-7.00951 6.25016,-7.00951 0.83667,0 1.81531,-0.50181 2.17475,-1.11514 0.35945,-0.61332 1.7836,-1.69234 3.16478,-2.39782 1.38118,-0.70548 2.92577,-1.78218 3.43243,-2.39267 0.99974,-1.20461 8.66222,-1.35956 12.6591,-0.25598 2.98385,0.82387 4.40353,-0.44713 5.81741,-5.20819 0.98093,-3.30312 2.38727,-6.40319 6.5602,-14.46092 0.49054,-0.94721 2.30027,-3.82544 4.0216,-6.39605 2.38377,-3.55988 3.45508,-4.53622 4.49481,-4.09637 1.9135,0.80949 9.05801,2.19494 11.98919,2.32493 1.34844,0.0598 3.361,0.74647 4.47234,1.52595 3.90367,2.73796 4.90358,1.36049 4.90358,-6.75515 0,-5.90503 -0.68439,-8.27865 -2.32922,-8.07837 -0.72932,0.0888 -2.3613,-0.26377 -3.62664,-0.78351 -1.26533,-0.51973 -3.01217,-0.94498 -3.88188,-0.94498 -0.8697,0 -1.58127,-0.51229 -1.58127,-1.13842 0,-1.39193 -1.76654,-2.13053 -5.09573,-2.13053 -1.38067,0 -4.56847,-0.99439 -7.08398,-2.20976 -6.2863,-3.03721 -14.18142,-3.21388 -16.48515,-0.3689 -3.12394,3.85789 -3.81439,10.75104 -1.07689,10.75104 0.62613,0 1.13842,0.55164 1.13842,1.22586 0,0.67422 -0.35764,1.22585 -0.79477,1.22585 -0.43713,0 -2.18397,2.08278 -3.88188,4.62838 -1.69791,2.5456 -4.10403,5.37976 -5.34695,6.29813 -2.22127,1.64127 -2.30388,1.64376 -4.83974,0.14578 -1.41894,-0.83818 -4.20383,-1.55774 -6.18864,-1.59901 -4.54216,-0.0944 -6.28728,1.82158 -7.07627,7.7693 -0.75251,5.67269 -2.00439,7.87541 -6.75019,11.87712 -2.19097,1.84745 -4.81651,4.96941 -5.83454,6.93767 -1.01803,1.96827 -2.5101,4.44481 -3.3157,5.50342 l -1.46473,1.92475 -3.20059,-1.60448 c -5.04753,-2.53035 -7.44925,-2.84713 -10.52397,-1.38808 -3.67194,1.74245 -5.49947,5.69449 -5.18191,11.20589 0.23823,4.13468 0.32411,4.27382 2.49732,4.04618 1.73881,-0.18213 2.46555,0.236 3.19582,1.83879 0.63296,1.3892 1.59847,2.07452 2.92263,2.07452 h 1.97741 l -0.51754,8.37669 c -0.66303,10.73162 -0.95995,12.05836 -2.69366,12.03608 -3.08649,-0.0396 -4.98015,-2.91821 -8.32113,-12.64901 -4.4673,-13.01127 -5.84005,-22.14153 -6.02078,-40.04465 -0.20169,-19.97972 0.78211,-49.30987 1.69416,-50.50853 1.2325,-1.6198 2.42981,-5.25542 6.29243,-19.10692 4.54691,-16.30541 6.96841,-22.83699 11.00309,-29.67894 1.72287,-2.92163 4.06052,-7.15083 5.19478,-9.39824 1.13425,-2.2474 3.2359,-5.55721 4.67033,-7.35514 1.43443,-1.79792 3.14478,-4.5561 3.80078,-6.12928 0.65599,-1.57318 2.64543,-5.09251 4.42096,-7.82074 1.77554,-2.72822 3.22825,-5.38152 3.22825,-5.89621 0,-0.51471 0.73551,-1.32946 1.63447,-1.81057 0.89897,-0.48111 1.63448,-1.32419 1.63448,-1.87353 0,-0.54933 3.84557,-7.36796 8.54572,-15.1525 4.70014,-7.78455 8.79162,-14.95311 9.09217,-15.93015 0.56217,-1.8275 7.28051,-10.27014 9.07099,-11.39909 0.5522,-0.34818 4.43742,-4.02575 8.63383,-8.17238 7.39469,-7.30697 16.55233,-13.66861 19.67609,-13.66861 0.8398,0 2.55277,-0.73047 3.8066,-1.62328 3.1892,-2.27091 9.58667,-4.91462 11.89282,-4.91462 1.0641,0 2.22882,-0.48955 2.58826,-1.08789 1.19267,-1.98532 13.68861,-7.98958 22.26866,-10.70001 3.76386,-1.18901 9.28249,-3.23235 12.26361,-4.54078 2.98113,-1.30843 8.71395,-2.97464 12.7396,-3.70271 4.02565,-0.72806 9.52591,-1.87208 12.22279,-2.54226 13.59489,-3.37836 15.37372,-3.67073 16.01549,-2.63232 0.47114,0.76231 1.70076,0.46948 4.9724,-1.18418 4.5597,-2.30469 16.83764,-4.90308 18.23953,-3.86003 0.44948,0.33443 8.17237,0.835 17.16199,1.11239 8.98962,0.27738 17.63191,0.8549 19.20509,1.28337 1.57318,0.42847 7.97082,1.1669 14.21698,1.64094 11.56551,0.87776 15.83504,1.87035 30.32248,7.04946 4.04533,1.44617 9.17773,2.88988 11.40534,3.20826 2.22761,0.31838 6.74221,1.64825 10.03244,2.95527 3.29022,1.30702 6.69978,2.3764 7.57677,2.3764 0.87701,0 4.00279,0.90646 6.94621,2.01435 2.9434,1.1079 8.19234,2.5997 11.66429,3.31511 3.47196,0.71541 7.90472,2.23193 9.85059,3.37005 2.18924,1.28045 4.22099,1.89786 5.3297,1.6196 0.98545,-0.24734 3.3334,0.0814 5.21766,0.73062 1.88425,0.64918 3.99091,0.96352 4.68146,0.69853 0.69056,-0.265 1.25556,-0.11601 1.25556,0.33108 0,0.44848 2.28968,0.82895 5.10773,0.84872 5.22326,0.0367 11.577,1.14134 15.45243,2.6866 1.68897,0.67345 2.59934,0.58638 4.09151,-0.39133 1.58715,-1.03994 2.54715,-1.09812 5.54856,-0.33629 2.71478,0.68909 5.29836,0.67992 10.25256,-0.0364 3.64276,-0.52668 8.55595,-0.95761 10.91818,-0.95761 2.36223,0 6.75624,-0.35795 9.76444,-0.79545 13.39907,-1.94869 17.22528,-2.53066 21.97611,-3.34257 3.36584,-0.57523 6.03326,-0.5984 7.95033,-0.0691 2.22043,0.61309 3.97158,0.45798 7.60187,-0.67338 2.59427,-0.80848 9.7413,-2.25999 15.88229,-3.22558 9.97723,-1.56878 28.15717,-5.57695 31.94386,-7.04273 1.26544,-0.48984 1.43017,0.0157 1.43017,4.38903 0,2.71844 0.38874,5.18288 0.86386,5.47652 0.47513,0.29365 4.53219,0.85254 9.0157,1.24198 4.48351,0.38944 8.51288,0.93122 8.95417,1.20395 0.4576,0.28282 -0.22279,1.96451 -1.58355,3.91399 -1.37203,1.96562 -2.60827,5.03264 -2.90922,7.21751 -0.48342,3.50969 -0.34909,3.92076 1.76178,5.39135 1.25681,0.87559 3.56335,2.0258 5.12564,2.55602 2.49603,0.84712 3.09074,0.76224 4.90343,-0.69986 1.13459,-0.91514 3.35004,-2.53586 4.92323,-3.60159 1.57318,-1.06574 3.77972,-2.93486 4.90342,-4.15362 3.64802,-3.9566 4.36351,-4.01329 10.82438,-0.85773 6.17902,3.01789 11.77635,6.22703 13.43617,7.70338 0.6847,0.60903 0.74468,1.64521 0.20431,3.52938 -0.42073,1.46699 -0.76496,4.61195 -0.76496,6.98879 0,3.35326 0.32045,4.44957 1.43017,4.89294 2.30779,0.92204 8.20335,0.53854 9.60508,-0.6248 2.68678,-2.22983 4.39279,3.02533 4.45668,13.72828 0.0289,4.83603 -0.35038,6.68744 -2.00751,9.80035 -4.58119,8.60575 -0.75715,14.69899 7.30194,11.63493 1.39142,-0.52901 2.0963,-0.51985 2.0963,0.0272 0,0.45333 1.28715,2.1114 2.86033,3.68459 1.57318,1.57318 2.86033,3.49979 2.86033,4.28136 0,0.78156 1.1659,2.83546 2.59088,4.56421 2.13353,2.58834 2.41915,3.37858 1.61804,4.4767 -2.32101,3.18155 -3.60135,7.44969 -4.00609,13.35465 -0.52616,7.67657 0.11447,8.20119 6.9431,5.68571 5.1397,-1.89333 6.48199,-1.47118 6.90291,2.17098 0.14322,1.23924 0.78426,2.22221 1.47868,2.26744 2.60511,0.16965 2.96338,0.40824 4.48193,2.9848 2.1635,3.67086 8.50161,10.3301 11.12135,11.68482 1.68126,0.86941 2.79201,0.92136 4.92916,0.23053 8.81696,-2.85008 10.8583,-5.02204 10.90308,-11.60073 0.0265,-3.89158 -0.11544,-4.17742 -2.42358,-4.88128 -11.87682,-3.62183 -14.2644,-7.9468 -9.70615,-17.58216 3.5615,-7.52838 1.44669,-10.16686 -9.09688,-11.34947 -3.63085,-0.40725 -5.74664,-1.04383 -6.13965,-1.84724 -0.32981,-0.67422 -2.29971,-4.61341 -4.37755,-8.75374 -5.00094,-9.96493 -4.92395,-11.42541 0.92498,-17.54645 2.29386,-2.40059 2.87515,-3.66041 2.87515,-6.23132 0,-1.77232 -0.25573,-3.63618 -0.56829,-4.14192 -0.94733,-1.5328 -4.91191,-1.03644 -8.97436,1.12358 -2.11339,1.12371 -4.02572,2.0431 -4.24961,2.0431 -0.22389,0 -1.00892,-1.37909 -1.74452,-3.06464 -1.03732,-2.37695 -1.35447,-5.93151 -1.41329,-15.84046 -0.0811,-13.65526 -0.55148,-15.41886 -4.11264,-15.41886 -1.01378,0 -3.16347,0.55163 -4.77712,1.22585 -4.23655,1.77015 -4.82857,1.61494 -9.35167,-2.45171 -2.24968,-2.02267 -4.62892,-3.67757 -5.28719,-3.67757 -2.17197,0 -13.44426,-8.04327 -16.85412,-12.02615 -1.84111,-2.15049 -4.17839,-5.47296 -5.19395,-7.38325 -1.01557,-1.91029 -2.41714,-3.47326 -3.11461,-3.47326 -1.80136,0 -3.22949,1.6599 -3.22949,3.75358 0,2.69834 -1.78425,2.86889 -6.61223,0.63205 -2.63853,-1.22245 -5.10347,-1.83713 -6.23163,-1.55398 -1.02653,0.25764 -1.86642,0.14754 -1.86642,-0.24467 0,-0.39221 3.88892,-1.3513 8.64206,-2.1313 4.75313,-0.78001 13.67124,-3.04035 19.81801,-5.02298 6.14678,-1.98263 12.46311,-3.83845 14.03629,-4.12405 1.57318,-0.28559 4.14748,-1.16248 5.72067,-1.94865 3.49127,-1.74469 11.91214,-3.5636 13.09984,-2.82957 0.47564,0.29396 1.40802,0.0836 2.07196,-0.46738 0.66395,-0.55103 2.57856,-1.08962 4.25471,-1.19688 4.18824,-0.26801 15.34305,-1.91781 19.8009,-2.92856 2.02266,-0.45861 4.4868,-0.81701 5.47585,-0.79646 0.98906,0.0206 2.00535,-0.29767 2.25843,-0.70716 0.2547,-0.41211 1.45862,-0.45975 2.69652,-0.10669 1.23002,0.3508 8.85601,0.0737 16.94667,-0.61573 18.95051,-1.61489 41.23016,-1.55121 54.28302,0.15516 5.5837,0.72995 10.29338,1.18598 10.46594,1.01341 0.17258,-0.17257 3.72099,0.90402 7.88535,2.39243 4.16438,1.4884 10.11965,3.25996 13.23396,3.93679 5.92895,1.28854 26.43488,8.11526 33.44845,11.13547 2.2474,0.96779 4.84675,2.70727 5.77631,3.86552 0.92958,1.15825 2.86569,2.51384 4.30247,3.01242 4.01333,1.39269 19.35161,15.07004 28.47456,25.39116 3.37798,3.8216 11.70678,19.00794 11.70678,21.34551 0,0.66677 0.55164,1.424 1.22586,1.68272 0.67422,0.25872 1.22585,1.20051 1.22585,2.09285 0,0.89235 0.73552,2.5575 1.63448,3.70035 0.89896,1.14284 1.63447,2.7419 1.63447,3.55346 0,0.81155 0.97342,4.16371 2.16315,7.44923 3.12455,8.62893 4.06102,12.47449 6.92724,28.44772 2.06319,11.4981 2.58525,16.70472 2.66288,26.56023 0.0931,11.79772 0.009,12.45827 -2.23449,17.57061 -1.28216,2.92163 -3.55457,8.62186 -5.04987,12.66719 -7.46498,20.19545 -16.83183,40.95081 -20.40913,45.22319 -1.00234,1.19714 -3.01438,4.56702 -4.47118,7.48865 -1.4568,2.92162 -3.3248,6.05049 -4.15111,6.95305 -0.82632,0.90255 -4.21423,6.60278 -7.52869,12.66719 -4.06686,7.44104 -6.83324,11.55762 -8.5081,12.66065 -1.36499,0.89896 -2.91459,2.60491 -3.44355,3.791 -1.21878,2.73283 -46.49188,47.54663 -49.7208,49.21637 -1.3216,0.68343 -3.40151,2.55182 -4.622,4.15197 -1.2205,1.60014 -3.39528,3.50641 -4.83286,4.23613 -4.0778,2.0699 -9.63262,6.87303 -11.3865,9.84564 -0.87697,1.48635 -2.4285,3.16585 -3.44784,3.73223 -3.47211,1.92921 -8.33217,5.36249 -12.04816,8.51116 -2.03992,1.72849 -4.76911,3.77911 -6.06487,4.55693 -1.29576,0.77781 -5.44833,3.62793 -9.22794,6.33359 -3.77961,2.70566 -7.39918,4.91937 -8.04348,4.91937 -0.6443,0 -2.10651,0.73552 -3.24935,1.63448 -1.14284,0.89896 -2.78739,1.63448 -3.65453,1.63448 -0.86715,0 -3.59039,0.92111 -6.05166,2.04691 -2.46127,1.12582 -8.046,2.61948 -12.41051,3.31927 -4.36451,0.69979 -9.40651,1.9694 -11.20443,2.82136 -1.79793,0.85196 -7.4495,2.31974 -12.55905,3.26172 -6.19205,1.14155 -10.79532,2.51593 -13.80378,4.12134 -2.98618,1.59351 -5.70297,2.40863 -8.02797,2.40863 -1.93287,0 -3.74484,0.37301 -4.0266,0.82891 -0.78155,1.26459 -5.89983,3.66039 -12.25135,5.73472 -3.14636,1.02756 -6.07003,2.17765 -6.49704,2.55576 -0.427,0.3781 -1.62721,0.68746 -2.66711,0.68746 -1.0399,0 -2.52932,0.31846 -3.30981,0.7077 -0.7805,0.38922 -2.70623,1.1593 -4.27941,1.71128 -10.69527,3.75257 -18.64751,6.84256 -20.19789,7.84824 -0.99551,0.64576 -2.34724,1.17411 -3.00384,1.17411 -0.65661,0 -4.23572,1.47103 -7.95359,3.26895 -3.71788,1.79792 -7.61962,3.26895 -8.67055,3.26895 -1.05092,0 -2.78724,0.57429 -3.85848,1.27619 -2.82873,1.85347 -15.5955,3.71293 -27.82396,4.05255 -5.84325,0.16227 -24.2311,0.66984 -40.86189,1.12791 -19.88478,0.5477 -32.89601,1.27235 -38.00156,2.11645 -5.15127,0.85166 -17.80121,1.54514 -37.59294,2.06088 -16.40604,0.42752 -35.16165,1.35721 -41.67912,2.066 -11.17861,1.21568 -76.56231,2.33489 -89.07892,1.52481 z M 350.1864,510.76012 c 1.32195,-1.46074 2.48638,-1.63001 10.95506,-1.59251 5.21173,0.023 12.05018,0.35301 15.19655,0.73316 4.9905,0.60298 6.00302,0.49351 7.93293,-0.85769 1.82113,-1.27503 2.57178,-1.38508 4.24563,-0.62242 1.5125,0.68913 6.17953,0.69269 18.21869,0.0139 8.90191,-0.50193 22.43717,-1.12824 30.07834,-1.39181 7.64118,-0.26358 16.8351,-0.99572 20.43095,-1.62701 3.59584,-0.63128 10.76711,-1.51051 15.93614,-1.95382 25.12649,-2.15495 30.09884,-2.65693 33.50675,-3.38258 2.02266,-0.4307 8.09065,-1.32284 13.48442,-1.98255 18.07371,-2.21058 27.45552,-3.64386 28.80879,-4.40119 0.82137,-0.45966 2.13013,-0.4523 3.3696,0.019 2.22869,0.84735 33.73065,-0.40944 36.48966,-1.45577 0.88792,-0.33675 2.10036,-1.09253 2.69432,-1.67953 0.59395,-0.587 1.74413,-1.06728 2.55595,-1.06728 0.81182,0 1.93386,-0.55163 2.49341,-1.22585 1.21038,-1.45842 6.61743,-1.63668 7.99067,-0.26344 0.69245,0.69245 5.90814,0.90349 18.59368,0.75234 12.23222,-0.14574 17.97336,0.0739 18.74846,0.71713 0.76534,0.63517 4.54853,0.80291 12.01188,0.53256 13.58975,-0.49226 19.53487,-1.1997 21.11014,-2.51202 2.13838,-1.78142 3.84617,-2.00029 5.66536,-0.72607 1.58093,1.10732 2.10425,1.10251 4.97401,-0.0458 1.85937,-0.74397 7.08068,-1.48832 12.42436,-1.77121 14.31639,-0.75788 34.14292,-4.27166 34.14292,-6.051 0,-0.36283 2.10148,-0.92226 4.66996,-1.24317 6.19387,-0.77388 14.31132,-3.32187 19.84717,-6.22984 2.47215,-1.29862 4.95631,-2.36192 5.52036,-2.36288 0.95681,-0.002 6.10232,-2.37306 10.83536,-4.99371 1.12975,-0.62553 2.87659,-1.96478 3.88188,-2.97611 1.0053,-1.01133 2.33832,-1.83879 2.96225,-1.83879 1.89096,0 15.17654,-4.02994 18.9447,-5.74654 4.1226,-1.87806 5.4674,-1.97895 7.82482,-0.58705 1.39209,0.82194 1.8042,0.8167 2.10904,-0.0268 0.20838,-0.57659 2.70672,-2.10383 5.55185,-3.39388 6.04406,-2.74051 7.61735,-5.07034 8.56074,-12.67735 0.41757,-3.36699 1.42186,-6.2428 3.10938,-8.90373 5.06119,-7.98069 6.95683,-14.0649 7.34255,-23.56659 0.28066,-6.91358 0.0811,-9.27569 -0.95999,-11.36257 -0.72286,-1.44901 -1.3143,-3.14436 -1.3143,-3.76743 0,-1.98727 -3.36097,-7.85688 -7.46197,-13.03162 -2.45776,-3.10127 -6.80122,-7.0025 -11.37349,-10.21548 -4.06846,-2.85895 -8.53663,-6.02555 -9.92925,-7.03689 -1.39262,-1.01133 -3.2145,-1.83878 -4.04862,-1.83878 -0.83412,0 -2.88889,-0.73552 -4.56616,-1.63448 -1.67727,-0.89896 -3.44852,-1.63447 -3.93612,-1.63447 -0.48761,0 -2.43682,-1.32698 -4.3316,-2.94883 -3.64036,-3.11602 -3.85561,-3.13988 -11.15082,-1.23603 -1.79792,0.46921 -4.61729,0.64128 -6.26528,0.38236 -3.9884,-0.6266 -24.71919,1.21918 -28.86291,2.56983 -6.42639,2.09471 -24.97898,6.21998 -31.01997,6.89744 -3.43896,0.38566 -7.60985,1.45474 -9.48144,2.43027 -1.83785,0.95794 -3.64598,1.55356 -4.01806,1.3236 -0.8425,-0.5207 -25.33527,7.52947 -33.29067,10.94181 -3.23409,1.38721 -6.42803,2.52221 -7.09763,2.52221 -0.66959,0 -2.25272,0.42524 -3.51805,0.94498 -1.26534,0.51973 -2.94669,0.86395 -3.73635,0.76492 -0.78965,-0.099 -1.63122,0.32936 -1.87014,0.95197 -0.2769,0.72159 -1.27686,1.00838 -2.75798,0.791 -1.27796,-0.18756 -2.57271,0.0621 -2.87721,0.55476 -0.34159,0.55271 -3.67618,0.89579 -8.70652,0.89579 -5.74914,0 -8.6866,0.3497 -9.96307,1.18607 -2.60482,1.70675 -15.85369,3.8708 -20.19775,3.29908 -2.42451,-0.31909 -4.93062,-0.0359 -7.35514,0.83121 -8.0537,2.88028 -33.24774,3.99348 -40.86189,1.80549 -2.47214,-0.71039 -7.39158,-1.68682 -10.93208,-2.16984 -3.5405,-0.48302 -8.87298,-1.46091 -11.84995,-2.1731 -2.97697,-0.71218 -9.09024,-1.57944 -13.58505,-1.92725 -4.49481,-0.34781 -11.84995,-1.62765 -16.34476,-2.8441 -12.53454,-3.39228 -19.92201,-5.16654 -25.74299,-6.18276 -2.92162,-0.51005 -7.56778,-1.61229 -10.32479,-2.44944 -6.65826,-2.02171 -36.76096,-4.54605 -73.44208,-6.15866 -19.00081,-0.83533 -68.24294,3.49596 -103.32227,9.08815 -9.63176,1.53545 -18.8754,2.79173 -20.54141,2.79173 -1.66601,0 -4.81818,0.5211 -7.00483,1.158 -6.93638,2.02034 -14.11767,3.74542 -15.59169,3.74542 -0.78385,0 -3.88382,0.93951 -6.88883,2.08778 -4.02306,1.5373 -6.43792,3.12935 -9.15868,6.03807 -4.04506,4.32449 -10.62222,16.74532 -16.62919,31.40386 l -3.72745,9.09594 0.47112,7.76376 c 0.67533,11.12895 5.95539,27.77377 9.81819,30.95079 0.80463,0.66178 1.37438,2.33701 1.38971,4.08619 0.0143,1.63052 0.56594,3.67844 1.22585,4.55094 0.65993,0.8725 1.19987,2.23438 1.19987,3.02641 0,0.88283 1.34392,2.09738 3.47326,3.13892 6.28692,3.07513 8.36821,4.33068 9.03023,5.44747 0.35944,0.60638 1.04449,1.1025 1.52232,1.1025 0.47783,0 3.07029,1.65491 5.76102,3.67757 2.69074,2.02266 5.54173,3.67757 6.33555,3.67757 0.79381,0 2.45991,0.79968 3.70245,1.77706 1.64814,1.29642 3.61198,1.83978 7.26104,2.00899 9.19925,0.42657 19.51219,-0.33557 18.85826,-1.39365 -0.46183,-0.74726 3.43214,-0.53467 16.79004,0.91663 3.82058,0.41509 8.86948,0.52558 11.21977,0.24553 3.46638,-0.41305 4.36732,-0.26403 4.7715,0.78924 0.31146,0.81165 1.9264,1.48583 4.30775,1.7983 2.09522,0.27493 5.1658,1.07368 6.82353,1.77499 1.74935,0.74008 3.88829,1.0557 5.09757,0.75218 1.14596,-0.28761 4.75436,0.0342 8.01868,0.71528 3.26433,0.68101 6.94646,1.2385 8.18254,1.23887 1.29885,3.9e-4 2.2474,0.44907 2.2474,1.06308 0,1.31301 1.63911,3.02378 2.89712,3.02378 0.51466,0 1.60137,-0.73551 2.41493,-1.63448 z M 251.30062,313.68499 c 4.04533,-1.32106 9.70021,-2.95641 12.5664,-3.63412 5.55242,-1.31287 15.13018,-5.75216 19.51019,-9.04297 3.05235,-2.29332 3.33018,-4.3337 1.43901,-10.56779 -0.66936,-2.20647 -1.22099,-4.7087 -1.22586,-5.56051 -0.005,-0.85181 2.0539,-5.59807 4.57502,-10.54724 3.4374,-6.74789 4.68468,-10.1419 4.98693,-13.57015 0.64549,-7.32108 -1.05274,-16.5818 -4.4642,-24.34412 -3.03468,-6.905 -8.35115,-14.14291 -10.38841,-14.14291 -0.5812,0 -1.56128,-0.71392 -2.17796,-1.58649 -1.4658,-2.07405 -21.68408,-11.05882 -28.50068,-12.66538 -6.01561,-1.41778 -16.88256,-1.69936 -17.29959,-0.44827 -0.15168,0.45506 -2.36112,1.16678 -4.90985,1.5816 -5.74042,0.93427 -8.00878,2.09605 -13.89403,7.11607 -2.553,2.17766 -5.5828,4.61696 -6.7329,5.42067 -2.48958,1.73977 -7.6208,9.11978 -10.98519,15.79952 -6.75256,13.40671 -7.68847,44.84863 -1.70357,57.23152 2.26961,4.69586 6.9915,10.27379 12.65486,14.94906 3.03047,2.50174 12.31613,5.77726 18.76375,6.61892 8.47202,1.10592 19.61791,0.06 27.78608,-2.60741 z m 224.4282,-28.33563 c 1.32914,-0.55837 7.99829,-8.61896 11.70433,-14.1463 1.09404,-1.6317 3.08715,-3.34948 4.42913,-3.81729 1.34197,-0.46782 2.88113,-1.7071 3.42036,-2.75395 1.4092,-2.73581 4.98883,-6.39818 6.25365,-6.39818 0.59452,0 1.71072,-0.73551 2.48044,-1.63447 0.76971,-0.89896 1.81238,-1.63448 2.31705,-1.63448 0.50466,0 1.59927,-0.75327 2.43247,-1.67394 0.8332,-0.92067 3.74031,-3.00515 6.46026,-4.63218 2.71994,-1.62703 5.60325,-3.63194 6.40735,-4.45534 0.8041,-0.82341 2.15339,-1.4971 2.99842,-1.4971 0.84502,0 2.57754,-0.51735 3.85004,-1.14965 2.91594,-1.44895 15.40731,-3.85243 16.94838,-3.26106 0.63464,0.24353 1.37795,1.33556 1.65182,2.42675 0.60505,2.41069 1.74115,2.53844 3.10817,0.34948 1.22075,-1.95473 2.08824,-2.04511 3.89914,-0.40626 0.74644,0.67552 3.53357,1.62481 6.19363,2.10955 3.10965,0.56666 5.58191,1.58707 6.92429,2.85798 1.22735,1.16199 3.07983,1.98074 4.49481,1.98661 1.32384,0.006 5.34905,1.32604 8.9449,2.93457 3.59584,1.60852 7.82505,3.3232 9.39823,3.81039 1.57318,0.48719 3.79985,1.74093 4.94815,2.78609 1.14829,1.04517 2.58378,1.9003 3.18999,1.9003 0.60619,0 2.98439,1.78013 5.28488,3.95584 2.30049,2.17571 4.57954,4.10643 5.06456,4.2905 0.48501,0.18406 1.85642,1.89068 3.04758,3.79247 1.37479,2.195 2.98633,3.66001 4.41265,4.01146 1.23579,0.3045 3.42833,1.44786 4.87232,2.54081 1.44399,1.09296 4.20216,2.19493 6.12928,2.44885 1.92712,0.25391 4.37057,1.02429 5.42988,1.71196 1.74863,1.13515 1.99699,1.12349 2.69663,-0.1267 0.42384,-0.75735 1.65346,-1.377 2.73249,-1.377 1.07903,0 2.28359,-0.57487 2.6768,-1.2775 0.64833,-1.1585 0.81368,-1.1585 1.77515,0 1.22244,1.47295 5.43384,1.66979 8.77496,0.41014 3.28523,-1.23858 7.61266,-5.67324 7.61266,-7.80131 0,-2.02297 -4.05081,-5.83896 -6.8052,-6.41071 -3.61487,-0.75037 -8.48216,-1.3469 -14.6473,-1.79517 -3.48347,-0.25328 -6.33359,-0.79843 -6.33359,-1.21145 0,-0.41301 -0.97437,-1.12138 -2.16525,-1.57416 -2.40764,-0.91538 -4.13512,-2.24927 -15.55099,-12.00781 -4.33801,-3.70822 -8.37835,-6.74221 -8.97856,-6.74221 -0.60021,0 -1.09128,-0.36776 -1.09128,-0.81724 0,-0.44948 -0.68461,-0.81724 -1.52136,-0.81724 -0.83674,0 -4.60624,-1.43286 -8.37669,-3.18413 -8.86237,-4.11636 -26.72516,-10.28778 -37.00198,-12.78383 -4.44468,-1.07952 -8.75752,-2.5748 -9.58409,-3.32284 -1.3219,-1.19629 -2.12008,-1.24333 -6.62905,-0.39064 -8.13095,1.53765 -13.74069,3.24393 -19.01923,5.78494 -2.69689,1.29824 -5.82282,2.55583 -6.94652,2.79466 -1.12371,0.23883 -6.2723,3.93688 -11.44133,8.2179 -5.16903,4.28102 -10.59345,8.22614 -12.05426,8.76693 -1.46081,0.5408 -2.65602,1.47256 -2.65602,2.07059 0,0.59804 -0.64358,1.32027 -1.43017,1.60495 -1.64251,0.59447 -13.97763,11.29529 -18.08113,15.68554 -1.51685,1.62285 -3.4395,4.42167 -4.27255,6.21959 -1.88862,4.0761 -2.03922,10.427 -0.28185,11.88549 2.12714,1.76537 9.33917,2.8231 11.90355,1.7458 z m 359.48648,-5.12342 c 8.1e-4,-0.26497 0.92112,-0.90065 2.04482,-1.41265 1.12371,-0.512 2.0431,-1.49042 2.0431,-2.17427 0,-1.77756 1.33786,-1.53454 2.7644,0.50214 1.20365,1.71845 1.32606,1.65213 7.88945,-4.27428 3.66676,-3.31089 7.41743,-7.49108 8.33481,-9.2893 4.30371,-8.43597 7.98019,-23.68123 7.98019,-33.09149 0,-9.21596 -4.1091,-16.23965 -14.68834,-25.10684 -7.65566,-6.41673 -12.74137,-9.19369 -17.97182,-9.81316 -2.26354,-0.26808 -4.11554,-0.80396 -4.11554,-1.19083 0,-1.19987 -17.24781,-0.74796 -20.83957,0.54602 -1.79792,0.64773 -3.99536,1.18322 -4.88319,1.18999 -0.88783,0.007 -4.09289,0.98477 -7.12235,2.17333 -6.32936,2.48324 -11.2993,7.55812 -13.75349,14.0439 -2.29112,6.05481 -3.53755,15.8255 -3.02603,23.7209 0.99076,15.29239 5.33216,25.06216 16.17233,36.39376 6.61313,6.91294 7.17905,7.31144 10.21547,7.19344 1.76797,-0.0687 4.31777,0.18132 5.66621,0.55563 2.73709,0.75977 23.28683,0.78951 23.28955,0.0337 z"
     id="path26"
     transform="scale(0.74999997)" />
  <path
     style="fill:#ffffff;stroke-width:0"
     d="m 229.2352,302.36449 c -0.27779,-0.44948 -1.33635,-0.81724 -2.35234,-0.81724 -1.016,0 -3.81889,-1.47103 -6.22865,-3.26895 -2.40977,-1.79793 -5.03278,-3.26895 -5.82893,-3.26895 -2.08992,0 -7.05326,-5.43042 -7.71434,-8.44031 -0.31027,-1.41264 -1.13346,-3.43735 -1.82932,-4.49936 -3.10546,-4.73953 -1.69383,-29.31485 2.18705,-38.07491 0.81182,-1.83246 4.38825,-6.30557 7.94763,-9.94025 4.98563,-5.09112 7.50276,-6.99966 10.96248,-8.31198 2.47,-0.93691 5.69801,-2.31709 7.17337,-3.06708 1.99671,-1.01501 3.77256,-1.23091 6.94652,-0.84453 15.93176,1.93948 29.35468,9.09854 34.94658,18.63861 2.45679,4.19141 2.50237,4.46509 2.21034,13.2693 -0.28309,8.53428 -0.47171,9.36595 -3.72403,16.41973 -1.88422,4.08656 -3.4279,8.31577 -3.43041,9.39823 -0.0193,8.34595 -7.12605,16.26978 -14.59204,16.26978 -1.37101,0 -2.59114,0.52281 -2.86093,1.22586 -0.26738,0.69678 -1.48567,1.22586 -2.82272,1.22586 -1.29377,0 -3.1498,0.69165 -4.12451,1.53701 -1.08396,0.94012 -4.16056,1.89224 -7.92219,2.45172 -7.53239,1.1203 -8.30619,1.12873 -8.94356,0.0975 z m 12.30668,-25.717 c 0.8725,-0.65993 2.1553,-1.21157 2.85067,-1.22586 0.69537,-0.0143 2.71804,-1.52733 4.49481,-3.3623 1.77678,-1.83497 4.23117,-3.86156 5.4542,-4.50354 4.06851,-2.13557 5.54006,-4.41309 5.54006,-8.57435 0,-3.41059 -0.34189,-4.14761 -3.01121,-6.49131 -3.89354,-3.41857 -8.8805,-5.65727 -12.65251,-5.67987 -1.6481,-0.01 -3.12977,-0.41762 -3.2926,-0.90611 -0.45105,-1.35314 -6.13569,-0.0155 -8.68386,2.04344 -1.20395,0.97278 -3.16562,2.19037 -4.35927,2.70575 -4.46552,1.9281 -9.00072,14.93545 -5.20745,14.93545 0.60122,0 2.01247,1.56296 3.13611,3.47326 2.67559,4.54877 5.22532,6.8333 8.73642,7.82776 4.07285,1.15356 5.20077,1.11448 6.99463,-0.24232 z"
     id="path28"
     transform="scale(0.74999997)" />
  <path
     style="fill:#ffffff;stroke-width:0"
     d="m 810.29128,263.16315 c -2.93744,-1.23565 -8.35217,-7.67194 -11.39027,-13.53919 -3.53193,-6.82096 -4.39969,-13.61483 -3.00167,-23.50066 1.01122,-7.15062 2.73514,-11.20326 4.76566,-11.20326 0.75046,0 2.34587,-0.94025 3.54538,-2.08944 1.52712,-1.46309 3.62292,-2.30988 6.99123,-2.82478 2.64568,-0.40443 6.28136,-1.26588 8.07928,-1.91433 2.37002,-0.85478 4.42331,-0.99449 7.46675,-0.50807 4.20993,0.67285 10.36336,3.3213 11.3225,4.87323 0.28177,0.4559 1.22505,0.82892 2.09619,0.82892 2.14949,0 8.12078,5.51876 9.47729,8.75905 1.6456,3.93083 1.37844,15.21998 -0.53904,22.77818 -1.32653,5.22882 -2.14656,6.88966 -4.2905,8.68974 -1.45779,1.22398 -3.34492,2.23532 -4.19361,2.24741 -0.8487,0.0121 -3.09339,1.451 -4.9882,3.19758 -2.45691,2.26469 -4.66303,3.43679 -7.69107,4.08619 -4.91328,1.05371 -15.26245,1.12374 -17.64992,0.11943 z m 15.76438,-15.46663 c 1.66765,-0.85114 3.69045,-2.27552 4.49512,-3.16531 2.48213,-2.7447 3.4197,-13.24236 1.29972,-14.55258 -0.39581,-0.24462 -0.71966,-1.16768 -0.71966,-2.05124 0,-2.18886 -2.92745,-3.15665 -10.20489,-3.37366 -5.00662,-0.1493 -6.33063,0.0925 -7.80295,1.42492 -4.65348,4.21134 -5.2362,11.09615 -1.36837,16.16715 1.76503,2.31407 8.55871,6.80938 10.62346,7.02944 0.35502,0.0378 2.00993,-0.62759 3.67757,-1.47872 z"
     id="path30"
     transform="scale(0.74999997)" />
  <path
     style="fill:#ffffff;stroke-width:0"
     d="m 803.34476,424.64341 c 0,-5.59769 -1.30197,-8.38824 -6.65559,-14.26508 l -3.96851,-4.35636 v -15.41343 c 0,-14.01903 0.52285,-17.9697 2.05096,-15.49717 0.29118,0.47114 2.22994,1.65596 4.30835,2.63293 5.49562,2.58324 16.68822,13.95052 18.54873,18.8382 1.31235,3.44763 1.36922,4.46861 0.47795,8.58099 -0.5564,2.56727 -1.17792,5.52522 -1.38116,6.57321 -0.58238,3.00296 -6.80264,11.69313 -11.16857,15.60332 l -2.21216,1.98124 z"
     id="path32"
     transform="scale(0.74999997)" />
  <path
     style="fill:#ffffff;stroke-width:0"
     d="m 774.46902,442.38456 c -0.29965,-0.29965 -0.54482,-0.8733 -0.54482,-1.27477 0,-0.9167 8.18305,-9.62173 9.04478,-9.62173 0.95085,0 2.61576,5.6051 2.07979,7.00182 -0.25617,0.66757 -2.15897,1.93955 -4.22845,2.82663 -3.98095,1.70644 -5.46359,1.95576 -6.3513,1.06805 z"
     id="path34"
     transform="scale(0.74999997)" />
  <path
     style="fill:#ffffff;stroke-width:0"
     d="m 745.92095,425.78383 c -1.24314,-0.98437 -3.5302,-2.14041 -5.08236,-2.56898 -6.00025,-1.65675 -10.49836,-7.92448 -14.83938,-20.67738 -1.82561,-5.36324 -6.01271,-23.62632 -6.01271,-26.22597 0,-0.8729 0.92882,-1.21285 3.31379,-1.21285 1.82258,0 4.85658,-0.70214 6.74221,-1.5603 4.40568,-2.00506 30.71473,-6.1098 35.61801,-5.55713 5.0645,0.57085 6.35428,2.40277 7.07013,10.04197 1.70006,18.1421 -4.50558,40.83996 -12.72257,46.53434 -4.42483,3.06641 -11.03642,3.64195 -14.08712,1.2263 z"
     id="path36"
     transform="scale(0.74999997)" />
  <path
     style="fill:#ffffff;stroke-width:0"
     d="m 691.80071,465.23133 c -4.48991,-0.16523 -8.47867,-0.61562 -8.86391,-1.00087 -1.00267,-1.00266 1.32463,-5.48201 5.48046,-10.54826 3.5983,-4.38658 9.86101,-9.23412 15.92983,-12.3302 1.80006,-0.91833 3.77896,-2.39227 4.39755,-3.27543 1.03025,-1.47089 1.58933,-1.53996 6.65652,-0.82236 3.04249,0.43087 6.21406,1.14854 7.04794,1.59481 0.83388,0.44628 2.25346,0.81142 3.15463,0.81142 0.90118,0 3.29716,1.43555 5.32441,3.19012 2.3893,2.06793 4.86037,3.38856 7.02458,3.7542 3.82947,0.64698 8.18539,3.92643 8.18539,6.16254 0,3.0484 -7.29572,7.19534 -13.79023,7.83846 -1.96611,0.19469 -4.28296,0.73301 -5.14854,1.19625 -1.87893,1.00558 -16.40433,3.26466 -22.74036,3.53673 -2.47214,0.10615 -8.16837,0.0578 -12.65827,-0.10741 z"
     id="path38"
     transform="scale(0.74999997)" />
  <path
     style="fill:#ffffff;stroke-width:0"
     d="m 661.06148,429.02786 c -9.67472,-1.68345 -20.6426,-14.22356 -21.74,-24.8564 l -0.43446,-4.20953 9.96065,-1.93933 c 5.90259,-1.14924 10.73895,-2.55155 11.87101,-3.44203 1.0507,-0.82648 2.86369,-1.50269 4.02886,-1.50269 1.16518,0 2.1185,-0.36776 2.1185,-0.81724 0,-0.44948 0.49537,-0.81723 1.10081,-0.81723 0.60545,0 1.94887,-0.73552 2.98538,-1.63448 1.03651,-0.89896 2.75877,-1.63448 3.82724,-1.63448 1.06847,0 4.15913,-0.93289 6.86814,-2.07309 2.709,-1.14021 6.77296,-2.42347 9.03102,-2.8517 2.25806,-0.42823 5.21714,-1.57012 6.57574,-2.53753 2.02257,-1.4402 2.59677,-1.5541 3.16876,-0.6286 2.28189,3.69217 2.59041,23.21637 0.47653,30.15635 -1.92,6.30349 -7.22717,15.75439 -9.48122,16.88399 -1.04027,0.52131 -6.16267,1.17127 -11.38311,1.44433 -5.22044,0.27307 -10.96274,0.60347 -12.76067,0.73423 -1.79792,0.13076 -4.59385,0.007 -6.21318,-0.27457 z"
     id="path40"
     transform="scale(0.74999997)" />
  <path
     style="fill:#ffffff;stroke-width:0"
     d="m 635.81101,473.47092 c -5.16903,-0.60354 -11.60478,-0.90405 -14.30166,-0.6678 -2.69689,0.23625 -9.09377,-0.12572 -14.21529,-0.8044 -5.12151,-0.67867 -9.62654,-1.03945 -10.01116,-0.80174 -0.38462,0.2377 -0.69931,-0.18267 -0.69931,-0.93416 0,-1.97476 10.96689,-12.64315 17.01279,-16.54974 2.85267,-1.84327 7.16304,-3.78362 9.63296,-4.33637 3.86762,-0.86553 4.8553,-0.81669 7.32777,0.36234 1.5717,0.74949 3.96308,1.36272 5.31418,1.36272 6.07594,0 14.15011,6.80877 15.57044,13.13019 0.42515,1.89219 1.49524,4.35852 2.37799,5.48075 4.17796,5.31142 0.99054,5.9766 -18.00871,3.75821 z"
     id="path42"
     transform="scale(0.74999997)" />
  <path
     style="fill:#ffffff;stroke-width:0"
     d="m 580.64746,431.09672 c -1.34845,-0.64318 -3.39105,-1.186 -4.53912,-1.20628 -5.11368,-0.0903 -14.6465,-8.74942 -14.69196,-13.34541 -0.0143,-1.44517 -0.56593,-3.34145 -1.22586,-4.21395 -0.65993,-0.8725 -1.19987,-2.38387 -1.19987,-3.35861 0,-1.75411 0.1986,-1.77746 19.4094,-2.282 10.67517,-0.28037 21.24818,-0.92106 23.49559,-1.42377 2.2474,-0.5027 5.92497,-0.96848 8.17238,-1.03506 l 4.08619,-0.12105 0.26043,3.17853 c 0.18292,2.23252 -0.45069,4.66483 -2.12886,8.17238 -1.31411,2.74662 -2.8581,6.1965 -3.43108,7.66642 -0.57298,1.46991 -2.09735,3.56077 -3.38749,4.64635 -1.29014,1.08559 -2.34571,2.31903 -2.34571,2.74098 0,0.42196 -1.56297,0.73197 -3.47327,0.68891 -1.91029,-0.043 -6.41531,0.17828 -10.01116,0.49185 -4.9403,0.43081 -7.137,0.28437 -8.98961,-0.59929 z"
     id="path44"
     transform="scale(0.74999997)" />
  <path
     style="fill:#ffffff;stroke-width:0"
     d="m 508.64689,481.8249 c -0.54191,-1.41218 0.90578,-15.51571 1.72945,-16.84843 0.27156,-0.4394 1.50176,-0.7989 2.73378,-0.7989 1.23202,0 2.69838,-0.4597 3.25858,-1.02155 1.10229,-1.10554 9.60149,-2.77252 18.10482,-3.55098 4.39206,-0.40208 6.42702,-0.119 11.74996,1.63449 3.54084,1.16644 6.95048,2.1208 7.57697,2.1208 0.62648,0 2.51026,0.90133 4.18618,2.00296 1.67591,1.10163 4.6918,2.36804 6.70196,2.81426 4.20312,0.93301 5.6815,2.49323 5.12432,5.40798 -0.46571,2.43618 -1.06511,2.59214 -12.45673,3.24122 -4.71955,0.26891 -11.70693,1.01182 -15.52752,1.65089 -3.82059,0.63908 -12.15126,1.72614 -18.5126,2.41568 -6.36134,0.68955 -12.15041,1.47795 -12.8646,1.75201 -0.78607,0.30164 -1.49824,-0.0221 -1.80457,-0.82043 z"
     id="path46"
     transform="scale(0.74999997)" />
  <path
     style="fill:#ffffff;stroke-width:0"
     d="m 481.71361,419.58324 c -8.06161,-4.84026 -9.02347,-6.15291 -12.62865,-17.23436 -3.65197,-11.22525 -3.7586,-11.92553 -2.03391,-13.35689 0.99119,-0.82262 2.12402,-0.69154 5.92497,0.68561 2.58471,0.93648 6.45219,1.9434 8.5944,2.23761 2.14221,0.29421 5.25396,1.22781 6.91501,2.07466 1.66105,0.84685 4.37132,1.53973 6.02282,1.53973 1.65151,0 4.05611,0.54937 5.34356,1.22082 1.28745,0.67145 3.49668,1.22308 4.9094,1.22585 1.56483,0.003 2.75894,0.50107 3.05567,1.27435 0.37816,0.98545 1.63139,1.23445 5.6038,1.11339 2.81418,-0.0858 8.88621,0.32273 13.49339,0.90775 l 8.37669,1.06368 v 2.75261 c 0,1.51394 -0.52359,4.00574 -1.16354,5.53734 -1.7843,4.27045 -7.57683,10.09221 -10.98284,11.03828 -1.63489,0.45411 -10.53317,0.82771 -19.77397,0.83021 l -16.80145,0.005 z"
     id="path48"
     transform="scale(0.74999997)" />
  <path
     style="fill:#ffffff;stroke-width:0"
     d="m 409.76928,491.35073 c 0.2438,-0.78659 1.19881,-6.106 2.12223,-11.82091 1.16861,-7.23239 2.35475,-11.69625 3.90228,-14.68577 2.67578,-5.16904 9.97832,-12.59529 14.48191,-14.72724 1.79792,-0.85112 4.82004,-2.7856 6.71581,-4.29886 1.89577,-1.51325 5.56679,-3.54454 8.15782,-4.51397 l 4.71096,-1.76259 6.55246,1.83942 c 12.61106,3.54021 18.38075,6.87637 20.09606,11.61996 0.53953,1.49205 1.73554,3.05425 2.65779,3.47155 0.94101,0.42578 3.40243,4.13686 5.60922,8.45699 3.26137,6.38466 3.93238,8.45073 3.93238,12.10799 0,2.42534 -0.35999,5.08237 -0.79998,5.90451 -1.09417,2.04446 -4.64479,3.14479 -12.1042,3.75105 -3.4655,0.28166 -9.24296,1.0119 -12.83881,1.62274 -3.59584,0.61085 -12.05425,1.34189 -18.79647,1.62453 -6.74221,0.28264 -16.41466,1.03744 -21.49434,1.67733 -12.3037,1.5499 -13.46078,1.52598 -12.90512,-0.26673 z"
     id="path50"
     transform="scale(0.74999997)" />
  <path
     style="fill:#ffffff;stroke-width:0"
     d="m 409.02051,420.15707 c -6.67493,-3.03236 -10.52167,-9.82193 -13.01672,-22.97475 -0.70286,-3.70519 -1.27793,-8.94552 -1.27793,-11.64517 0,-4.70441 0.0764,-4.88616 1.83878,-4.37195 6.91847,2.01867 43.5863,4.40743 45.05836,2.93537 1.13687,-1.13687 1.80497,-1.04495 3.30461,0.45469 1.04455,1.04455 1.27262,3.29427 1.22205,12.05426 -0.0743,12.87447 -1.00472,16.36065 -4.47468,16.76651 -1.29702,0.15171 -3.34596,0.97916 -4.55319,1.83879 -1.20724,0.85963 -3.16248,1.56296 -4.34498,1.56296 -1.1825,0 -2.96633,0.53488 -3.96406,1.18862 -2.02639,1.32774 -11.32,3.69383 -14.47319,3.68478 -1.1237,-0.003 -3.51727,-0.67558 -5.31905,-1.49411 z"
     id="path52"
     transform="scale(0.74999997)" />
  <path
     style="fill:#ffffff;stroke-width:0"
     d="m 354.6812,491.11217 c -2.47214,-0.34174 -7.32682,-0.65772 -10.78817,-0.70217 -7.52374,-0.0966 -14.4178,-1.42616 -16.38498,-3.15989 -2.06514,-1.82006 -1.76205,-5.61645 0.89594,-11.22259 2.95813,-6.23916 6.01682,-9.85234 10.10667,-11.93882 3.69128,-1.88315 13.77432,-3.99732 19.06431,-3.99732 3.33607,0 5.39055,-0.55695 10.02816,-2.71856 1.39043,-0.64808 2.3089,-0.61847 3.47879,0.11214 1.23209,0.76945 2.44481,0.77734 5.39252,0.0351 l 3.80296,-0.95759 2.52511,2.93977 c 7.34959,8.55651 8.85451,12.83402 8.48157,24.1077 l -0.23579,7.12786 -3.67757,0.55235 c -4.85993,0.72994 -26.99345,0.60943 -32.68952,-0.17798 z"
     id="path54"
     transform="scale(0.74999997)" />
  <path
     style="fill:#ffffff;stroke-width:0"
     d="m 331.22623,421.43208 c -0.35945,-0.58651 -1.94069,-1.85134 -3.51387,-2.81075 -7.25013,-4.42149 -11.29765,-10.79583 -12.66875,-19.95172 -1.31115,-8.75548 1.79345,-12.12132 11.18538,-12.12658 3.00473,-0.002 6.49843,-0.40996 7.76376,-0.90729 1.26533,-0.49733 4.32327,-1.19624 6.79541,-1.55314 2.47215,-0.35689 6.88523,-1.0806 9.80686,-1.60824 5.5283,-0.99839 18.31794,-0.46507 21.96329,0.91587 1.75395,0.66443 1.90468,1.11307 1.56425,4.65593 -0.5597,5.82488 -5.91828,16.00388 -11.26898,21.40622 -4.56273,4.60677 -14.54652,10.20573 -21.6568,12.14525 -4.43494,1.20975 -9.17592,1.13103 -9.97055,-0.16555 z"
     id="path56"
     transform="scale(0.74999997)" />
  <path
     style="fill:#ffffff;stroke-width:0"
     d="m 275.00052,483.78167 c -1.79792,-0.35139 -6.94652,-0.89133 -11.44133,-1.19987 -5.5103,-0.37825 -9.17885,-1.07125 -11.26219,-2.12746 -1.69939,-0.86157 -4.23017,-1.56649 -5.62396,-1.56649 -2.48874,0 -2.52622,-0.0591 -2.09151,-3.30009 0.49979,-3.72625 2.46072,-7.16303 4.51931,-7.92069 0.7604,-0.27986 2.48745,-1.33814 3.83788,-2.35172 3.41863,-2.56588 5.8346,-3.36675 14.23603,-4.71911 9.06161,-1.45864 17.28005,-0.68763 20.01024,1.87724 0.99765,0.93725 2.45205,1.70409 3.23199,1.70409 4.11622,0 10.81592,6.34522 13.14839,12.45271 2.78196,7.28447 1.19187,8.06395 -14.2625,6.99165 -6.13598,-0.42575 -9.49232,-0.3677 -9.67064,0.16727 -0.15021,0.45062 -0.51828,0.77702 -0.81793,0.72533 -0.29966,-0.0517 -2.01586,-0.38148 -3.81378,-0.73286 z"
     id="path58"
     transform="scale(0.74999997)" />
  <path
     style="fill:#ffffff;stroke-width:0"
     d="m 250.14227,430.78155 c -6.38251,-1.30281 -7.01293,-1.61574 -8.73425,-4.33554 -1.02037,-1.61225 -2.78218,-3.66051 -3.91512,-4.55169 -3.60975,-2.83942 -4.15803,-5.16117 -2.47923,-10.49851 1.79641,-5.71125 5.47889,-10.71071 9.36763,-12.71781 4.23043,-2.18346 20.50676,-5.61918 28.98474,-6.11831 4.04533,-0.23816 9.01005,-0.99376 11.03271,-1.67911 2.96742,-1.00547 4.34195,-1.06706 7.11806,-0.31896 3.02236,0.81446 3.50516,1.2719 3.97269,3.76405 0.67498,3.59794 -0.8602,16.83128 -2.51647,21.69216 -0.90997,2.67064 -2.60265,4.88312 -6.07275,7.93763 -8.39071,7.3858 -9.74547,7.92066 -20.48076,8.08573 -6.20319,0.0954 -11.73684,-0.33285 -16.27725,-1.25964 z"
     id="path60"
     transform="scale(0.74999997)" />
</svg>
