<?xml version="1.0" encoding="UTF-8" standalone="no"?>
<svg
   xmlns:dc="http://purl.org/dc/elements/1.1/"
   xmlns:cc="http://creativecommons.org/ns#"
   xmlns:rdf="http://www.w3.org/1999/02/22-rdf-syntax-ns#"
   xmlns:svg="http://www.w3.org/2000/svg"
   xmlns="http://www.w3.org/2000/svg"
   xmlns:sodipodi="http://sodipodi.sourceforge.net/DTD/sodipodi-0.dtd"
   xmlns:inkscape="http://www.inkscape.org/namespaces/inkscape"
   version="1.0"
   width="612.000000pt"
   height="528.000000pt"
   viewBox="0 0 612.000000 528.000000"
   preserveAspectRatio="xMidYMid meet"
   id="svg20"
   sodipodi:docname="face2.svg"
   inkscape:version="1.0.1 (3bc2e813f5, 2020-09-07)">
  <defs
     id="defs24" />
  <sodipodi:namedview
     pagecolor="#ffffff"
     bordercolor="#666666"
     borderopacity="1"
     objecttolerance="10"
     gridtolerance="10"
     guidetolerance="10"
     inkscape:pageopacity="0"
     inkscape:pageshadow="2"
     inkscape:window-width="1920"
     inkscape:window-height="1027"
     id="namedview22"
     showgrid="false"
     inkscape:zoom="1.2215909"
     inkscape:cx="408"
     inkscape:cy="352"
     inkscape:window-x="1912"
     inkscape:window-y="-8"
     inkscape:window-maximized="1"
     inkscape:current-layer="svg20" />
  <metadata
     id="metadata2">
Created by potrace 1.16, written by Peter Selinger 2001-2019
<rdf:RDF>
  <cc:Work
     rdf:about="">
    <dc:format>image/svg+xml</dc:format>
    <dc:type
       rdf:resource="http://purl.org/dc/dcmitype/StillImage" />
  </cc:Work>
</rdf:RDF>
</metadata>
  <g
     transform="translate(0.000000,528.000000) scale(0.100000,-0.100000)"
     fill="#000000"
     stroke="none"
     id="g18">
    <path
       d="M2040 4903 c-19 -3 -39 -9 -44 -14 -13 -12 -29 -12 -21 1 8 14 -2 13 -33 -4 -47 -24 -76 -34 -112 -40 -19 -4 -46 -9 -60 -12 -14 -3 -34 -7 -45 -9 -11 -2 -36 -9 -55 -14 -19 -6 -60 -17 -90 -26 -63 -17 -97 -30 -157 -56 -24 -11 -45 -19 -48 -19 -2 0 -33 -13 -67 -30 -34 -16 -66 -30 -71 -30 -18 0 -152 -70 -168 -87 -9 -10 -32 -29 -50 -43 -18 -14 -39 -32 -45 -40 -75 -92 -104 -131 -104 -138 0 -4 -11 -21 -24 -38 -13 -16 -42 -51 -64 -78 -22 -26 -42 -60 -45 -75 -3 -14 -11 -39 -18 -56 -7 -16 -13 -32 -14 -35 -1 -3 -4 -12 -8 -20 -3 -8 -8 -28 -10 -45 -3 -16 -10 -48 -16 -70 -7 -22 -14 -65 -16 -95 -3 -30 -8 -82 -11 -115 -19 -172 -10 -364 21 -465 8 -25 17 -66 21 -92 3 -27 10 -48 14 -48 5 0 16 -21 26 -47 9 -27 27 -71 40 -100 13 -28 24 -56 24 -62 0 -5 4 -11 9 -13 6 -1 22 -26 38 -54 44 -79 157 -242 184 -264 8 -7 123 -242 125 -255 0 -5 5 -21 11 -35 6 -14 23 -53 37 -86 14 -34 26 -73 26 -87 0 -14 4 -28 9 -32 14 -8 41 -97 49 -157 3 -29 5 -141 4 -248 -2 -213 16 -438 38 -481 6 -10 10 -30 10 -46 0 -33 28 -127 59 -198 45 -101 256 -312 362 -360 19 -9 59 -29 89 -45 30 -16 67 -30 81 -30 14 0 29 -3 33 -7 3 -4 15 -8 25 -10 10 -1 31 -8 47 -14 16 -7 36 -13 44 -14 8 -1 51 -11 95 -23 82 -21 130 -29 225 -36 50 -4 228 -9 240 -6 3 0 44 3 92 6 48 2 107 7 130 9 24 3 75 7 113 8 97 4 198 18 212 29 7 5 17 7 23 3 6 -4 18 -1 26 6 8 6 17 9 21 6 3 -3 17 0 32 7 14 8 50 17 78 21 29 4 56 11 59 16 3 5 10 7 15 3 5 -3 16 0 24 6 8 6 19 9 25 5 5 -3 20 1 32 9 12 9 32 16 45 16 12 0 25 4 28 10 3 5 15 10 26 10 11 0 19 7 19 16 0 10 6 14 15 10 8 -3 15 -1 15 5 0 6 5 7 11 4 5 -4 18 0 28 9 10 9 22 16 27 15 13 -3 46 12 67 29 9 8 20 12 24 9 3 -4 11 -3 17 1 6 5 31 15 56 22 25 8 59 22 75 32 17 10 40 18 52 18 12 0 24 4 28 10 3 5 12 7 20 3 8 -3 15 -1 15 5 0 5 17 12 38 15 50 8 80 15 90 21 5 3 24 8 43 11 79 13 96 17 129 33 19 9 37 20 38 25 2 4 11 7 20 7 10 0 42 23 72 50 30 27 60 50 66 50 5 0 23 13 39 30 16 16 33 30 37 30 9 0 24 11 59 43 11 10 39 27 62 39 23 12 44 25 47 28 3 3 44 25 91 48 48 23 90 49 93 57 3 8 13 15 22 15 9 0 22 7 28 15 9 12 18 13 46 5 52 -15 65 -12 80 15 7 13 18 23 23 22 6 -1 14 14 17 33 8 43 39 110 51 110 5 0 9 7 9 15 0 9 7 26 15 39 9 13 15 28 14 32 -1 5 10 35 24 66 15 32 29 68 32 81 4 13 31 49 61 81 30 32 54 62 54 67 0 5 6 9 14 9 8 0 18 14 21 33 4 17 11 34 14 37 4 3 15 32 25 65 11 33 23 65 28 72 12 15 48 164 42 174 -2 4 0 11 6 14 6 4 8 15 5 25 -3 10 -1 21 5 25 5 3 10 22 10 41 0 19 4 34 9 34 5 0 12 17 16 38 4 20 13 44 21 53 12 14 22 53 23 102 1 11 5 15 13 11 6 -4 8 -3 5 3 -4 6 9 71 28 145 19 74 37 161 40 194 3 32 8 80 10 105 12 116 3 321 -15 344 -5 6 -14 30 -22 55 -17 59 -191 381 -210 388 -4 2 -8 9 -8 16 0 7 -21 34 -46 61 -25 27 -53 62 -62 77 -9 15 -20 28 -24 28 -4 0 -8 4 -8 9 0 14 -174 184 -250 246 -67 55 -196 125 -228 125 -10 0 -22 4 -28 9 -9 10 -91 35 -164 51 -19 4 -46 12 -60 18 -31 14 -228 42 -291 42 -25 0 -48 3 -52 6 -3 4 -37 8 -74 9 -157 7 -291 17 -328 25 -22 4 -74 11 -115 15 -41 3 -97 10 -125 16 -27 5 -70 11 -95 13 -49 4 -229 42 -268 57 -13 5 -36 9 -52 9 -16 0 -31 4 -34 9 -3 5 -27 12 -53 16 -27 4 -64 14 -83 22 -19 9 -39 15 -44 14 -15 -4 -96 23 -96 31 0 4 -3 7 -7 6 -5 0 -15 1 -23 4 -21 8 -175 55 -235 72 -44 13 -88 19 -220 32 -29 2 -110 16 -210 35 -70 14 -177 29 -195 27 -8 -1 -31 -3 -50 -5z m169 -89 c3 -5 26 -10 51 -12 25 -1 46 -6 48 -11 1 -4 14 -6 27 -3 14 2 25 0 25 -4 0 -5 25 -10 56 -10 31 -1 61 -7 67 -13 6 -6 43 -11 82 -11 40 0 75 -3 79 -7 3 -4 14 -7 24 -8 34 -3 87 -18 99 -27 7 -5 22 -6 35 -3 13 4 20 4 16 0 -8 -9 36 -35 58 -35 21 0 108 -31 114 -41 3 -5 28 -10 56 -12 27 -2 67 -12 89 -22 21 -11 46 -20 54 -21 9 -1 41 -7 71 -13 30 -6 62 -13 70 -14 8 -1 31 -10 50 -18 31 -14 125 -36 200 -45 83 -11 117 -44 66 -64 -14 -5 -26 -12 -26 -15 0 -16 22 -45 35 -45 14 0 45 -26 45 -39 0 -4 -18 -15 -40 -25 -22 -10 -45 -26 -50 -36 -9 -16 -6 -21 15 -26 14 -3 40 0 57 7 47 19 123 14 158 -11 17 -12 30 -27 30 -33 0 -7 9 -29 20 -50 11 -20 17 -37 14 -37 -4 0 -2 -6 4 -12 17 -21 12 -90 -9 -117 -24 -31 -24 -47 1 -54 26 -7 37 -38 45 -131 7 -84 5 -87 -50 -60 -45 21 -79 15 -83 -13 -2 -16 2 -23 12 -23 9 0 16 -7 16 -15 0 -9 10 -15 23 -16 12 0 29 -2 37 -4 24 -5 86 -34 75 -35 -5 0 5 -7 23 -15 17 -8 32 -19 32 -25 0 -5 5 -10 10 -10 6 0 10 8 10 18 0 13 2 14 9 3 14 -21 51 4 51 35 0 16 5 24 12 22 27 -9 43 21 40 73 -4 49 -4 50 -35 47 -27 -2 -33 -8 -37 -32 -3 -16 -10 -31 -17 -33 -14 -5 -44 37 -48 69 -1 13 -6 44 -10 70 -9 61 -1 83 41 103 19 9 32 19 30 24 -3 4 -1 13 4 21 14 23 -7 39 -44 33 -29 -4 -34 -2 -39 18 -3 13 -17 55 -31 94 -25 67 -24 80 7 86 10 2 25 6 35 9 4 1 10 2 15 1 4 0 7 5 7 12 0 21 -43 41 -93 43 -32 1 -55 8 -70 21 -12 11 -47 34 -78 52 -31 17 -62 38 -69 46 -7 8 -22 15 -33 15 -14 0 -18 3 -11 10 14 14 97 19 147 8 48 -10 93 -15 187 -19 36 -2 68 -8 72 -13 5 -7 20 -7 45 0 22 6 53 6 73 2 19 -4 73 -10 120 -13 186 -12 280 -24 305 -40 12 -7 51 -18 89 -23 37 -6 73 -15 79 -21 7 -5 29 -12 50 -16 20 -4 37 -11 37 -16 0 -5 6 -6 14 -3 8 3 17 1 20 -5 4 -6 13 -8 20 -5 7 3 16 -2 19 -10 3 -8 14 -12 25 -9 12 3 22 -1 25 -11 4 -9 17 -16 31 -16 15 0 27 -7 31 -19 3 -11 19 -22 38 -26 19 -4 26 -9 18 -12 -10 -4 -3 -12 21 -27 19 -11 35 -23 34 -26 -2 -10 119 -130 132 -130 6 0 12 -9 12 -20 0 -11 5 -18 13 -15 6 2 24 -12 40 -33 15 -20 35 -48 45 -60 9 -13 36 -44 59 -68 25 -27 40 -51 36 -60 -3 -8 1 -14 10 -14 8 0 18 -12 22 -27 3 -16 13 -35 20 -43 7 -8 14 -19 15 -25 6 -28 21 -56 34 -61 7 -3 16 -19 20 -35 3 -17 14 -43 24 -57 11 -15 22 -40 26 -55 4 -15 10 -25 15 -23 18 11 42 -166 37 -259 -3 -49 -6 -97 -6 -105 -2 -47 -25 -188 -46 -275 -13 -55 -25 -109 -27 -120 -4 -20 -11 -41 -27 -80 -8 -19 -21 -54 -25 -65 -1 -3 -7 -18 -13 -33 -7 -16 -12 -38 -12 -50 0 -12 -8 -45 -19 -73 -10 -28 -22 -73 -26 -100 -4 -27 -12 -58 -18 -69 -6 -11 -12 -22 -13 -25 0 -3 -3 -12 -7 -20 -3 -8 -11 -33 -17 -55 -28 -95 -97 -220 -146 -264 -51 -47 -60 -59 -88 -134 -10 -26 -24 -47 -31 -47 -18 0 -85 93 -85 116 1 29 26 69 44 69 9 0 16 3 16 8 0 4 11 19 25 33 33 33 34 77 3 72 -13 -2 -29 -15 -36 -30 -8 -17 -21 -28 -33 -28 -10 0 -19 -5 -19 -11 0 -6 -10 -9 -22 -7 -18 2 -25 15 -39 73 -14 58 -25 167 -20 211 1 6 15 25 31 42 16 18 30 39 30 47 0 10 5 13 12 9 7 -5 8 -3 3 5 -4 7 2 22 15 36 13 13 24 35 25 49 2 13 6 33 10 45 4 13 2 21 -5 21 -17 0 -54 -49 -60 -78 -5 -25 -34 -51 -45 -40 -9 8 -16 46 -21 111 -4 55 -3 60 26 87 16 15 30 33 30 38 0 6 5 12 10 14 19 6 21 75 2 98 -15 18 -19 19 -36 7 -12 -9 -19 -27 -20 -48 -1 -29 -5 -34 -27 -37 -21 -2 -31 6 -59 50 -19 29 -46 69 -61 88 -27 36 -43 80 -29 80 4 0 10 11 12 25 7 33 -15 49 -61 47 -27 -2 -43 3 -55 17 -23 26 -91 61 -116 61 -11 0 -23 -8 -28 -17 -10 -19 1 -63 16 -63 5 0 14 -11 21 -24 11 -21 10 -26 -14 -50 -14 -15 -25 -32 -22 -39 5 -16 79 -10 91 7 11 16 54 -1 62 -26 3 -9 19 -32 35 -49 55 -59 93 -160 54 -145 -8 3 -15 1 -15 -5 0 -6 -4 -7 -10 -4 -5 3 -19 -3 -31 -14 -18 -17 -20 -23 -9 -36 7 -8 9 -15 6 -15 -4 0 -4 -5 -1 -10 5 -8 11 -7 21 1 8 6 29 15 47 19 27 5 36 2 59 -21 22 -23 27 -38 33 -111 9 -113 6 -128 -34 -155 -22 -15 -35 -33 -37 -49 -2 -16 2 -24 9 -21 7 2 24 -4 38 -14 23 -16 27 -28 39 -134 l13 -116 -33 -28 c-23 -19 -31 -33 -27 -44 8 -22 39 -35 45 -19 2 8 12 6 30 -6 34 -21 41 -32 35 -49 -3 -7 2 -16 11 -19 9 -3 16 -12 16 -20 0 -8 6 -14 14 -14 7 0 16 -8 18 -17 3 -10 6 -22 7 -28 2 -5 7 -17 12 -26 25 -47 -57 -159 -153 -208 -24 -12 -47 -28 -53 -34 -5 -7 -26 -20 -45 -29 -72 -36 -146 -80 -166 -99 -11 -10 -27 -19 -35 -19 -8 0 -35 -20 -61 -45 -27 -24 -48 -41 -48 -37 0 4 -6 0 -13 -8 -7 -8 -28 -27 -47 -42 -19 -14 -53 -43 -75 -63 -22 -19 -51 -38 -65 -41 -14 -3 -43 -11 -65 -19 -22 -7 -60 -16 -85 -19 -45 -7 -137 -31 -175 -47 -11 -4 -40 -15 -65 -23 -25 -8 -61 -21 -80 -29 -77 -33 -108 -45 -167 -63 -35 -11 -63 -22 -63 -26 0 -5 -11 -8 -24 -8 -14 0 -28 -5 -32 -11 -6 -10 -20 -17 -104 -52 -14 -5 -34 -12 -45 -14 -25 -4 -204 -53 -225 -60 -8 -4 -19 -5 -23 -4 -5 1 -36 -5 -70 -14 -33 -8 -108 -18 -166 -20 -58 -3 -119 -7 -136 -9 -16 -2 -57 -6 -90 -10 -118 -14 -348 -13 -440 1 -95 14 -220 48 -350 93 -25 8 -115 49 -135 61 -8 5 -31 17 -50 28 -102 56 -259 206 -310 295 -40 71 -81 234 -100 396 -6 52 -13 109 -15 125 -2 17 -5 116 -6 220 0 105 -4 194 -7 200 -3 5 -5 27 -3 48 2 24 -3 45 -13 56 -9 10 -17 31 -17 47 -1 16 -10 48 -20 71 -11 24 -19 51 -19 62 0 10 -7 24 -15 31 -9 7 -23 28 -32 48 -15 32 -15 35 0 47 9 7 17 18 17 24 0 7 4 10 9 6 5 -3 12 -1 16 5 3 5 13 10 21 10 16 0 54 35 54 50 0 6 5 10 11 10 6 0 9 7 6 14 -9 22 31 31 52 12 10 -9 24 -16 32 -16 8 0 19 -4 24 -8 6 -4 27 -14 48 -21 34 -11 41 -11 58 5 19 17 27 50 10 39 -5 -3 -31 8 -58 24 -26 17 -62 37 -80 46 -31 16 -45 39 -48 78 -1 9 3 17 8 17 5 0 7 10 4 23 -9 35 5 46 64 52 63 7 89 25 69 49 -7 9 -28 16 -48 16 -37 0 -72 23 -72 47 0 7 -5 13 -11 13 -7 0 -9 10 -7 25 3 14 2 25 -1 25 -6 0 -8 9 -12 65 -1 14 -5 25 -10 25 -5 0 -9 8 -9 18 0 9 -14 40 -30 67 -23 38 -30 62 -30 103 0 53 -5 60 -46 66 -9 1 -24 20 -32 42 -9 21 -19 41 -22 44 -12 9 -18 50 -8 50 24 0 67 74 48 85 -4 3 -10 0 -12 -7 -3 -8 -16 -6 -43 8 -34 16 -42 26 -56 74 -9 30 -15 69 -15 85 1 17 -2 33 -7 36 -4 3 -4 17 1 30 6 15 5 50 -3 94 -7 39 -8 74 -4 80 5 5 9 17 9 27 0 11 10 20 28 24 38 10 66 30 82 59 7 14 19 25 26 25 7 0 14 3 16 8 2 4 16 14 32 22 20 11 30 24 32 45 5 44 -9 62 -38 48 -110 -52 -139 -69 -174 -100 -35 -33 -46 -37 -110 -42 -93 -8 -129 -38 -88 -72 14 -11 18 -11 28 1 12 16 56 15 56 -1 0 -5 7 -9 15 -9 12 0 15 -18 16 -97 0 -54 3 -127 7 -163 10 -89 8 -95 -46 -111 -36 -11 -47 -19 -47 -34 0 -15 6 -19 23 -18 12 2 22 -2 22 -8 0 -5 4 -7 10 -4 6 3 16 3 23 -2 11 -7 15 -9 35 -12 4 0 13 -16 20 -33 7 -18 18 -41 23 -50 5 -10 9 -29 9 -43 0 -14 5 -25 10 -25 6 0 9 -3 8 -7 -1 -5 6 -21 16 -36 30 -44 29 -76 -2 -90 -41 -17 -92 -58 -92 -72 0 -7 7 -18 15 -25 12 -10 15 -10 15 4 0 9 5 16 11 16 5 0 7 -6 3 -12 -4 -8 0 -7 12 2 53 42 93 50 116 26 49 -52 71 -91 74 -131 2 -16 7 -46 12 -66 14 -55 2 -67 -58 -61 -64 6 -103 -12 -94 -42 8 -26 25 -38 39 -26 20 17 67 3 95 -28 45 -49 38 -156 -7 -111 -6 6 -30 20 -51 29 -39 18 -41 18 -58 -1 -15 -17 -16 -22 -4 -44 7 -14 15 -23 18 -21 8 8 92 -81 92 -98 0 -35 -91 -57 -122 -29 -10 9 -18 20 -18 24 0 23 -136 230 -218 334 -20 24 -102 166 -102 175 0 5 -9 24 -20 42 -11 18 -20 40 -20 49 0 8 -9 34 -20 57 -11 22 -20 46 -20 52 0 5 -5 19 -10 30 -6 11 -14 28 -19 38 -5 10 -7 73 -5 141 2 78 0 120 -6 116 -6 -3 -10 -2 -10 4 0 5 3 12 8 14 6 5 7 65 1 247 -1 36 3 75 9 87 7 12 12 28 12 36 0 8 7 20 15 27 12 10 13 15 4 21 -10 6 -10 11 0 23 11 13 11 16 0 16 -8 0 -6 5 6 13 10 8 15 18 12 24 -3 5 1 22 9 37 7 16 14 32 14 37 0 16 35 89 42 89 5 0 8 10 8 23 0 18 2 19 10 7 9 -14 14 -7 11 13 -3 19 114 159 124 149 4 -4 6 -2 5 3 -5 23 1 55 9 55 11 0 53 34 91 73 29 30 74 57 95 57 7 0 18 6 24 14 6 7 29 16 50 20 22 3 46 13 55 21 8 8 22 12 30 9 10 -4 18 0 22 10 3 9 14 16 24 16 11 0 21 4 24 9 3 4 20 11 37 15 17 3 45 12 62 20 35 16 88 30 100 28 4 -1 24 5 45 14 20 9 50 18 66 20 16 2 35 9 41 14 7 6 19 8 28 5 8 -4 31 1 52 9 21 9 50 16 66 16 16 0 37 4 47 9 47 25 225 36 241 15z"
       id="path4" />
    <path
       d="M1995 4224 c-22 -8 -54 -21 -72 -29 -17 -8 -37 -15 -44 -15 -6 0 -27 -18 -46 -40 -19 -22 -42 -40 -50 -40 -9 0 -14 -3 -10 -6 3 -3 -17 -33 -44 -67 -27 -34 -49 -69 -49 -78 0 -10 -4 -20 -9 -24 -18 -11 -41 -114 -41 -183 0 -82 24 -206 46 -240 27 -41 91 -102 107 -102 9 0 20 -6 24 -12 12 -19 53 -40 53 -27 0 6 5 7 13 2 15 -9 31 -10 80 -2 20 4 40 2 43 -3 3 -5 11 -3 17 5 7 8 26 19 42 25 17 5 39 14 50 18 11 4 24 6 29 5 4 -1 13 3 20 8 6 5 28 8 48 6 22 -2 42 2 48 10 6 7 23 11 40 9 16 -2 31 0 34 5 3 5 17 6 32 3 20 -4 25 -1 22 9 -3 8 3 25 12 39 9 14 20 45 24 69 4 24 16 52 26 61 11 9 17 20 13 23 -3 4 6 24 20 46 24 35 26 45 18 85 -4 25 -6 48 -3 50 9 10 13 108 4 102 -5 -3 -9 8 -10 24 0 17 -11 45 -24 63 -23 33 -97 103 -128 122 -9 5 -28 18 -41 27 -25 17 -143 51 -214 61 -24 4 -56 0 -80 -9z m175 -87 c14 -6 28 -10 33 -9 4 1 7 -3 7 -9 0 -5 4 -7 10 -4 12 7 59 -22 83 -52 10 -12 26 -25 37 -28 11 -4 32 -33 50 -70 38 -80 44 -183 12 -242 -11 -21 -31 -60 -45 -87 -44 -81 -87 -106 -184 -106 -25 0 -35 -6 -45 -27 -16 -33 -44 -47 -119 -64 -49 -10 -71 -9 -124 4 -48 12 -143 105 -130 127 3 6 1 10 -4 10 -6 0 -11 9 -11 20 0 11 -4 20 -10 20 -5 0 -10 20 -10 45 0 25 -4 45 -10 45 -6 0 -6 10 1 27 5 14 9 45 8 69 -2 23 3 49 10 58 7 8 10 20 7 25 -4 5 -1 13 5 16 5 4 8 13 5 20 -3 8 4 17 15 20 12 4 18 12 15 21 -3 8 -1 14 4 14 6 0 10 6 10 13 0 15 56 81 71 83 5 1 12 2 17 3 4 0 19 12 34 26 50 46 183 63 258 32z"
       id="path6" />
    <path
       d="M2021 3878 c-40 -21 -60 -58 -54 -100 3 -24 11 -38 19 -38 8 0 17 -6 19 -12 7 -17 73 -16 110 2 22 11 30 22 30 40 0 14 4 30 8 37 6 8 3 18 -7 28 -8 9 -19 23 -24 31 -11 20 -72 27 -101 12z"
       id="path8" />
    <path
       d="M4477 3800 c-23 -14 -140 -132 -189 -190 -7 -8 -34 -40 -60 -71 -27 -31 -48 -63 -48 -71 0 -8 -5 -19 -12 -26 -6 -6 -12 -38 -11 -69 0 -120 3 -131 43 -173 21 -22 42 -40 46 -40 15 0 69 -51 66 -62 -1 -5 2 -7 8 -3 5 3 15 3 22 -1 32 -20 202 -24 237 -6 13 7 26 10 29 7 3 -2 19 7 36 21 18 16 32 22 34 15 5 -16 32 6 32 26 0 7 7 16 15 19 8 4 15 15 15 25 0 21 24 63 53 91 9 10 17 23 17 29 0 5 5 7 10 4 6 -3 10 1 10 9 0 9 5 16 10 16 6 0 10 6 10 13 0 7 9 18 21 25 12 8 18 19 15 28 -3 8 -1 14 4 14 17 0 11 117 -9 169 -17 47 -75 121 -93 121 -5 0 -16 7 -24 15 -8 8 -34 20 -57 26 -23 6 -46 14 -52 17 -5 4 -14 7 -20 7 -5 1 -21 6 -35 12 -48 20 -94 21 -123 3z m108 -72 c22 -6 46 -10 54 -9 8 1 17 -1 20 -6 3 -5 28 -20 54 -33 26 -14 54 -36 62 -50 35 -62 56 -116 57 -146 1 -36 2 -34 -90 -153 -62 -80 -64 -81 -98 -75 -22 4 -34 2 -34 -5 0 -6 -7 -11 -16 -11 -12 0 -14 -4 -7 -12 5 -7 9 -26 9 -43 -1 -24 -7 -31 -31 -38 -16 -5 -38 -13 -47 -18 -62 -32 -212 50 -258 142 -21 41 -27 124 -9 134 6 4 8 13 5 21 -3 8 4 23 16 34 12 11 19 23 15 26 -8 8 34 65 95 128 26 27 45 53 42 57 -6 11 84 69 105 69 9 0 34 -5 56 -12z"
       id="path10" />
    <path
       d="M4557 3517 c-26 -41 -31 -87 -10 -106 18 -17 46 -17 67 0 55 43 65 56 59 80 -8 33 -31 49 -69 49 -22 0 -36 -7 -47 -23z"
       id="path12" />
    <path
       d="M3283 3107 c-23 -7 -45 -15 -49 -19 -4 -5 -16 -8 -27 -8 -21 0 -105 -36 -167 -71 -19 -11 -55 -29 -80 -41 -25 -12 -47 -26 -48 -30 -2 -5 -8 -6 -13 -2 -5 3 -12 -2 -15 -10 -3 -9 -12 -16 -20 -16 -7 0 -17 -6 -21 -14 -4 -7 -30 -25 -58 -41 -27 -15 -57 -33 -65 -40 -8 -7 -24 -15 -34 -16 -25 -5 -44 -68 -24 -80 23 -15 66 -10 80 9 7 10 27 27 43 37 17 10 39 26 50 36 11 9 38 26 60 38 22 12 33 21 25 21 -8 0 6 14 32 30 27 17 55 30 63 30 8 0 15 4 15 10 0 5 6 7 14 4 9 -3 17 3 21 15 7 23 25 29 25 9 0 -9 3 -9 12 0 7 7 23 12 36 12 16 0 26 7 29 21 3 11 11 18 19 15 7 -3 16 -1 19 5 4 5 10 7 14 4 5 -2 23 0 42 6 19 6 49 10 67 10 17 -1 32 3 32 8 0 15 92 -26 112 -50 10 -11 22 -18 28 -14 5 3 10 -1 10 -9 0 -9 5 -16 11 -16 5 0 7 -4 4 -10 -3 -5 -2 -10 3 -10 4 0 14 -16 22 -35 8 -19 18 -35 22 -35 5 0 13 -12 18 -26 6 -14 21 -40 34 -57 29 -39 52 -91 61 -135 6 -27 10 -32 26 -27 11 4 19 2 19 -4 0 -6 7 -11 15 -11 9 0 15 9 15 24 0 14 4 27 9 30 13 8 -6 71 -35 117 -13 21 -24 41 -24 43 0 11 -115 165 -153 205 -88 91 -168 117 -274 88z"
       id="path14" />
    <path
       d="M1812 2383 c-48 -5 -88 -37 -151 -121 -58 -79 -68 -132 -49 -279 1 -7 5 -13 10 -13 4 0 8 -9 8 -20 0 -11 4 -20 8 -20 5 0 15 -12 23 -27 18 -36 35 -54 43 -46 3 4 6 -1 6 -10 0 -9 9 -22 20 -29 11 -7 20 -17 20 -22 0 -5 7 -16 15 -25 8 -9 23 -26 35 -39 11 -12 19 -26 16 -31 -3 -4 1 -20 9 -34 8 -15 14 -30 14 -32 0 -3 11 -20 24 -38 13 -17 29 -59 36 -92 7 -33 15 -71 18 -85 3 -14 7 -64 9 -112 3 -47 13 -114 24 -148 11 -34 19 -64 17 -68 -5 -16 78 -142 90 -138 7 3 13 2 13 -3 0 -4 19 -16 43 -27 23 -10 47 -25 54 -34 6 -8 15 -12 19 -8 4 4 19 -5 33 -20 29 -29 33 -32 57 -32 8 0 12 -5 9 -10 -6 -9 16 -15 39 -11 5 1 12 -3 16 -9 3 -6 33 -15 66 -21 32 -5 80 -13 105 -18 53 -9 194 -3 219 9 3 1 10 3 15 5 6 1 12 3 15 5 3 1 39 3 80 5 41 2 84 6 95 10 43 16 105 47 111 56 3 5 16 9 29 9 13 0 27 5 30 10 3 6 17 10 31 10 13 0 24 4 24 8 0 5 19 8 43 8 24 1 49 4 55 8 7 4 25 10 40 12 15 3 71 27 124 54 54 28 108 50 120 50 12 0 32 10 46 23 21 20 35 22 130 24 59 2 130 3 157 4 44 1 71 10 162 51 11 6 27 8 34 6 8 -3 25 6 39 19 14 13 28 23 32 23 11 0 48 38 48 50 0 23 25 60 39 58 9 -2 16 4 16 12 0 8 4 18 9 22 5 3 9 20 9 37 0 17 3 31 7 31 11 0 12 127 1 147 -5 10 -21 43 -34 73 -14 31 -54 88 -93 130 -86 95 -145 123 -305 146 -124 17 -368 23 -519 11 -130 -9 -248 7 -450 61 -41 12 -95 26 -120 33 -25 6 -54 15 -65 20 -64 27 -129 48 -136 43 -4 -2 -10 0 -13 5 -4 5 -27 19 -54 31 -103 48 -129 62 -167 95 -22 20 -48 38 -57 41 -10 3 -18 9 -18 13 0 4 -26 20 -57 35 -32 15 -65 32 -73 37 -8 5 -40 21 -70 35 -30 14 -63 30 -73 35 -23 12 -97 18 -155 12z m110 -77 c5 -8 8 -7 8 1 0 14 25 3 77 -34 17 -13 38 -23 46 -23 9 0 22 -9 30 -20 8 -11 17 -17 20 -14 4 4 25 -11 48 -33 l42 -41 -26 -53 c-26 -55 -54 -91 -128 -166 l-42 -41 -72 1 c-54 2 -78 7 -92 20 -11 9 -33 17 -49 17 -22 0 -35 9 -52 34 -26 38 -55 146 -40 146 5 0 8 10 7 23 -2 12 2 31 8 42 6 11 12 22 12 25 11 41 15 50 26 50 7 0 15 10 19 23 3 13 20 30 38 39 37 18 109 20 120 4z m422 -242 c9 -3 14 -10 11 -14 -3 -5 9 -11 27 -15 44 -9 92 -31 108 -50 7 -8 17 -15 23 -15 13 0 47 -40 47 -55 0 -6 -15 -27 -33 -47 l-33 -37 -80 4 c-43 2 -82 4 -86 4 -15 2 -49 72 -51 108 -1 21 -6 44 -11 52 -5 8 -4 16 4 21 7 4 10 15 7 23 -8 23 31 35 67 21z m443 -172 c10 -6 20 -10 23 -9 18 2 86 -17 91 -25 4 -6 26 -12 50 -14 45 -4 85 -33 90 -64 4 -27 -27 -141 -50 -184 -19 -36 -47 -66 -61 -66 -5 0 -10 -4 -10 -9 0 -5 -12 -12 -27 -16 -15 -3 -30 -10 -33 -15 -3 -4 -47 -10 -99 -12 l-94 -3 -21 34 c-15 26 -21 58 -24 123 -3 52 -1 88 5 88 5 0 10 6 10 13 3 36 11 78 16 84 4 3 7 20 7 38 0 17 6 37 12 43 14 14 84 10 115 -6z m726 -83 c30 -13 37 -48 12 -69 -10 -9 -15 -32 -15 -76 0 -34 -4 -66 -10 -69 -5 -3 -10 -15 -10 -25 0 -22 -108 -142 -121 -134 -5 3 -14 2 -21 -2 -20 -12 -107 -20 -169 -15 -53 4 -65 185 -24 368 4 17 11 21 29 17 14 -2 27 0 30 5 3 4 25 5 48 1 24 -5 46 -6 50 -4 34 21 152 23 201 3z m267 -4 c7 -4 29 -9 49 -11 80 -6 100 -14 115 -46 17 -34 21 -128 7 -174 -34 -114 -49 -149 -81 -196 -37 -54 -94 -87 -115 -67 -5 5 -35 9 -68 9 -58 0 -58 0 -74 38 -21 50 -33 111 -21 118 5 3 8 22 7 42 -1 20 4 74 11 120 13 80 13 83 -9 112 -21 29 -21 57 0 45 5 -4 9 -1 9 5 0 6 5 8 10 5 6 -3 10 -3 10 2 0 10 133 8 150 -2z m335 -176 c19 -17 35 -39 35 -48 0 -10 7 -32 16 -49 8 -18 18 -56 21 -84 4 -43 0 -63 -21 -108 -32 -68 -56 -97 -92 -110 -24 -9 -31 -8 -41 6 -7 10 -13 27 -13 39 0 12 -5 26 -11 32 -8 8 -8 21 0 46 7 20 14 58 16 86 1 27 6 54 9 59 3 6 3 17 0 26 -5 12 -2 15 11 10 13 -5 16 -2 13 17 -1 13 -7 27 -13 31 -6 5 -5 8 3 8 7 0 12 14 12 35 0 43 9 44 55 4z m-2005 -17 c23 -20 25 -29 24 -101 -1 -83 -3 -86 -86 -185 -12 -15 -37 56 -44 126 -3 34 -10 68 -14 73 -5 6 -11 31 -15 57 -6 40 -5 47 12 51 43 11 99 1 123 -21z m363 -127 c91 -43 126 -118 89 -189 -12 -23 -26 -52 -32 -66 -5 -14 -14 -32 -20 -40 -5 -8 -28 -55 -51 -105 -23 -49 -44 -92 -48 -95 -3 -3 -17 -26 -31 -52 -13 -27 -30 -48 -36 -48 -21 0 -120 57 -206 119 -53 39 -104 127 -94 164 3 12 35 53 71 92 36 38 71 82 77 97 7 15 16 28 20 28 4 0 5 8 1 18 -3 9 -3 14 1 10 5 -4 18 4 31 18 12 13 27 24 34 24 6 0 11 8 11 18 0 14 2 15 10 2 8 -13 10 -12 15 1 8 23 114 25 158 4z m407 -93 c0 -4 18 -26 40 -50 71 -75 75 -112 26 -252 -49 -138 -59 -161 -82 -201 -21 -35 -23 -36 -125 -52 -92 -14 -130 -14 -228 -3 -14 1 -28 12 -32 24 -9 23 -2 52 11 52 12 0 70 88 70 106 0 8 7 17 16 21 8 3 13 11 10 19 -3 7 2 18 10 24 8 7 14 21 14 31 0 11 5 19 11 19 6 0 9 7 6 14 -6 15 19 76 31 76 7 0 8 9 13 78 3 34 55 73 100 74 16 1 29 6 29 11 0 6 3 8 6 5 3 -3 17 -2 32 2 36 11 42 11 42 2z m456 -88 c11 -8 23 -11 27 -8 6 6 67 -52 67 -64 0 -3 9 -25 21 -48 20 -42 20 -44 3 -92 -10 -27 -26 -53 -35 -58 -37 -19 -115 -56 -134 -64 -11 -5 -45 -11 -75 -13 -30 -3 -70 -13 -89 -23 -33 -16 -35 -16 -48 2 -10 13 -12 36 -7 84 3 36 7 79 9 95 3 37 15 122 21 152 2 12 16 29 32 37 35 19 178 19 208 0z"
       id="path16" />
  </g>
  <path
     style="fill:#ffffff;stroke-width:0"
     d="m 315.70357,639.32851 c -18.7143,-1.96386 -47.91155,-10.43878 -65.65651,-19.05772 -16.15281,-7.84561 -31.11813,-19.41471 -43.52295,-33.64588 -10.27103,-11.78322 -14.13397,-20.83184 -18.70914,-43.82467 -4.05161,-20.36164 -5.61753,-37.61456 -6.52641,-71.90673 -0.82564,-31.15149 -0.84124,-31.34134 -2.8919,-35.19348 -1.13398,-2.13018 -2.06954,-4.79691 -2.07904,-5.92607 -0.01,-1.12917 -0.95168,-4.63163 -2.09375,-7.78326 -1.14206,-3.15163 -2.55773,-7.49507 -3.14592,-9.6521 -0.5882,-2.15703 -1.81468,-4.73563 -2.72551,-5.73024 -0.91083,-0.99459 -2.44506,-3.38022 -3.4094,-5.30139 l -1.75335,-3.49303 2.27492,-2.85113 c 1.25121,-1.56813 2.69028,-2.85114 3.19795,-2.85116 0.50766,-10e-6 1.3816,-0.55258 1.94209,-1.22793 0.56049,-0.67535 1.68448,-1.22791 2.49776,-1.22791 1.33887,0 4.51256,-2.7796 8.34875,-7.31208 0.78791,-0.93091 1.43256,-2.3899 1.43256,-3.24219 0,-2.49998 2.28315,-2.67524 6.38751,-0.49032 2.10761,1.12197 4.45786,2.03994 5.22279,2.03994 0.76491,0 1.60068,0.33967 1.85726,0.75482 0.25658,0.41516 2.80881,1.5343 5.67163,2.48698 6.0251,2.00502 8.78595,1.35531 10.80128,-2.54191 1.60847,-3.11047 1.46659,-3.97431 -0.6528,-3.97431 -2.33677,0 -19.30727,-9.35258 -21.67909,-11.94752 -2.16156,-2.36491 -3.30631,-7.41707 -1.98092,-8.74246 0.50664,-0.50665 0.92118,-2.49222 0.92118,-4.41238 0,-4.1877 0.81166,-4.76116 8.47057,-5.98468 8.7015,-1.39007 11.33787,-3.20705 9.53667,-6.57263 -0.90666,-1.69411 -1.92116,-2.07517 -7.56614,-2.84202 -4.00978,-0.54471 -8.80389,-3.69303 -8.80389,-5.78156 0,-0.61295 -0.49736,-1.40905 -1.10525,-1.76909 -0.60789,-0.36005 -1.38285,-2.68068 -1.72216,-5.15696 -0.3393,-2.47628 -0.88212,-6.50673 -1.20628,-8.95656 -0.32415,-2.44983 -1.02268,-4.59866 -1.55227,-4.77519 -0.52958,-0.17653 -0.96288,-0.97992 -0.96288,-1.7853 0,-0.80539 -1.69436,-4.82888 -3.76524,-8.9411 -3.19132,-6.33708 -3.8522,-8.48855 -4.3357,-14.11471 -0.58812,-6.84375 -1.7521,-8.90621 -5.02632,-8.90621 -1.82906,0 -3.2789,-1.82462 -6.80857,-8.56856 -3.18594,-6.08718 -3.80373,-9.44074 -1.73916,-9.44074 1.54461,0 6.1215,-7.0564 6.1215,-9.43778 0,-2.4681 -0.87237,-3.04638 -2.44655,-1.62177 -1.20732,1.09261 -1.7957,1.00174 -5.51536,-0.85184 -4.2381,-2.11194 -5.44609,-3.76802 -7.53826,-10.33457 -1.45456,-4.56535 -2.59341,-14.27255 -2.48868,-21.21275 0.0516,-3.41671 -0.29731,-9.12648 -0.77527,-12.68838 -1.30951,-9.75882 -0.22722,-12.25673 6.78827,-15.66733 4.01664,-1.9527 6.11497,-3.60675 8.03982,-6.33755 1.43255,-2.03238 3.36466,-3.93205 4.29359,-4.2215 0.92892,-0.28944 1.87314,-0.78992 2.09826,-1.11216 0.22511,-0.32225 1.96792,-1.56213 3.8729,-2.75529 3.79066,-2.37425 4.55308,-4.13294 4.16235,-9.60148 -0.23209,-3.24818 -0.48517,-3.64421 -2.47557,-3.8738 -2.89256,-0.33365 -18.99947,7.86648 -25.14703,12.80252 -2.50882,2.01439 -4.99505,3.99821 -5.52497,4.40849 -0.52991,0.41028 -4.73718,1.27554 -9.34949,1.92281 -10.10264,1.41775 -14.14111,3.14487 -14.49503,6.19903 -0.1794,1.54818 0.3708,2.6444 1.95121,3.88756 l 2.20108,1.73136 2.74336,-1.69549 c 2.89266,-1.78776 5.55296,-1.57815 6.35057,0.50039 0.25258,0.6582 0.98394,1.19674 1.62525,1.19674 1.68888,0 2.16007,1.84709 2.15753,8.45765 -0.001,3.22736 0.40531,12.61162 0.90345,20.8539 1.04816,17.343 1.17339,16.95653 -6.2531,19.29752 -3.20646,1.01075 -4.82243,2.01932 -5.45306,3.40339 -1.11314,2.44308 0.28403,4.47126 3.08014,4.47126 1.04388,0 2.14116,0.39349 2.43839,0.87441 0.29722,0.48093 1.05383,0.6774 1.68133,0.4366 0.62751,-0.2408 2.81228,0.27862 4.85506,1.15425 3.31937,1.42285 3.98123,2.18126 6.22715,7.1355 1.38216,3.04888 2.7081,7.01691 2.94653,8.81784 0.23843,1.80093 0.89399,3.82698 1.4568,4.50233 0.56282,0.67535 2.19853,3.50938 3.63493,6.29785 3.70444,7.19142 3.30495,8.93217 -2.82699,12.31843 -2.7014,1.4918 -6.11885,3.99708 -7.59434,5.56727 -2.35278,2.50381 -2.56423,3.07992 -1.71931,4.68452 1.55723,2.95736 3.99272,4.08907 3.99272,1.85529 0,-0.72793 0.48047,-1.01783 1.21792,-0.73484 0.66986,0.25705 2.93305,-0.66869 5.0293,-2.05719 4.47006,-2.96084 8.4313,-3.89906 10.89506,-2.58049 2.0976,1.1226 8.39975,9.48461 9.65924,12.81636 1.27422,3.37074 3.73339,17.65687 3.36857,19.56917 -0.27475,1.44016 -1.1815,1.65856 -8.48537,2.0438 -10.69171,0.56393 -13.64619,2.24194 -11.92378,6.77221 1.23731,3.25438 2.99348,4.18843 5.73774,3.05172 3.26509,-1.35245 6.92792,-0.40671 10.4701,2.70337 3.57396,3.13798 5.13819,6.66906 5.13819,11.59891 0,4.68787 -1.2839,5.2929 -5.45292,2.56966 -1.72833,-1.12896 -4.73036,-2.67826 -6.67118,-3.44287 -4.27059,-1.68249 -7.18688,-0.74808 -8.01955,2.56955 -0.62587,2.49366 1.52152,7.71821 3.17233,7.71821 1.13025,0 8.49126,7.27823 10.65095,10.53119 0.70688,1.06471 1.0842,2.45973 0.83849,3.10004 -1.32634,3.45637 -11.83266,5.18279 -14.86119,2.44202 -0.86856,-0.78605 -2.72443,-3.75545 -4.12415,-6.59869 -2.86776,-5.82525 -16.80138,-26.9781 -24.30501,-36.89782 -9.0771,-11.99983 -18.7723,-29.79619 -23.41312,-42.97674 -1.34746,-3.82698 -3.11923,-8.84186 -3.93726,-11.14419 -0.81804,-2.30232 -2.163833,-5.43349 -2.990661,-6.95814 -1.290168,-2.37904 -1.543615,-5.18053 -1.78749,-19.75813 -0.156292,-9.34233 -0.611231,-16.98605 -1.010975,-16.98605 -0.399745,0 -0.345455,-1.00304 0.120643,-2.22897 0.526363,-1.38443 0.751306,-9.6812 0.593693,-21.89768 -0.235886,-18.28329 -0.13298,-20.00023 1.460942,-24.37537 0.943087,-2.58865 2.375318,-5.43663 3.182748,-6.32882 1.17031,-1.29318 1.26758,-1.86371 0.47965,-2.81311 -0.75272,-0.90697 -0.76384,-1.6105 -0.0466,-2.95058 0.51795,-0.96781 0.74071,-1.96067 0.49501,-2.20637 -0.2457,-0.2457 0.0928,-1.21705 0.75228,-2.15855 0.65945,-0.9415 1.2042,-2.45869 1.21056,-3.37154 0.0167,-2.40537 5.35751,-16.72647 7.16081,-19.20146 0.84345,-1.15762 1.771,-2.7432 2.06123,-3.52352 0.31948,-0.85896 1.02441,-1.22815 1.78658,-0.93567 0.94386,0.36219 1.25889,-0.0777 1.25889,-1.7579 0,-3.43721 12.1869,-19.3773 15.65679,-20.4786 1.19724,-0.37999 1.53391,-1.2877 1.53391,-4.13566 0,-3.05871 0.30579,-3.76508 1.89079,-4.36769 1.03994,-0.39539 4.95954,-3.53632 8.71023,-6.97985 6.51025,-5.9771 10.26961,-8.487885 14.77573,-9.868326 1.12558,-0.34482 2.87962,-1.2773 3.89786,-2.072177 1.01824,-0.794876 3.78103,-1.89018 6.13953,-2.434009 2.35851,-0.543828 5.50645,-1.684661 6.99544,-2.535185 1.489,-0.850523 3.55004,-1.546406 4.58011,-1.546406 1.03006,0 2.53959,-0.736744 3.3545,-1.637209 0.81491,-0.900465 2.01237,-1.63721 2.66104,-1.63721 0.64865,0 2.15714,-0.550176 3.35219,-1.222615 2.69112,-1.514263 15.22645,-5.825047 21.81933,-7.503471 2.70139,-0.687725 8.2868,-2.321046 12.41201,-3.629603 4.12521,-1.308557 7.99311,-2.381464 8.59535,-2.384238 0.60223,-0.0028 2.1638,-0.562441 3.47015,-1.243706 1.30636,-0.681265 2.98436,-1.045319 3.72891,-0.80901 0.74454,0.236309 4.43737,-0.493325 8.20627,-1.62141 3.76892,-1.128084 7.90438,-2.051063 9.18995,-2.051063 1.28556,0 4.62808,-0.775871 7.42783,-1.724159 7.10024,-2.40488 23.47888,-3.137473 29.48014,-1.318603 6.97012,2.112518 18.86525,4.40882 28.11318,5.427126 3.66355,0.4034 7.48302,1.17339 8.48773,1.711089 1.00469,0.537699 6.11143,1.268328 11.3483,1.62362 9.17829,0.622697 22.08283,3.102342 25.40889,4.882394 0.88277,0.472449 2.91857,0.858998 4.52398,0.858998 1.60542,0 2.91893,0.288949 2.91893,0.642107 0,1.240704 4.61034,3.345281 10.13497,4.62653 3.06954,0.711874 7.47839,2.225457 9.79743,3.363518 2.31904,1.138062 7.18736,2.569404 10.8185,3.18076 3.63112,0.611355 8.97252,2.056283 11.86976,3.21095 2.89724,1.154668 9.89771,3.001534 15.5566,4.104148 5.65889,1.102614 13.54521,3.154092 17.52516,4.55884 3.97995,1.40475 12.42716,3.48033 18.77158,4.61241 18.05083,3.22094 22.02965,5.26777 16.6345,8.55731 -1.45386,0.88645 -2.91966,1.6131 -3.25733,1.61479 -0.33768,0.002 -0.61396,0.76814 -0.61396,1.70323 0,1.94801 3.35532,5.43103 7.19713,7.47105 1.44438,0.76697 2.62613,1.94258 2.62613,2.61247 0,0.66988 -2.24886,2.4166 -4.99747,3.88159 -2.7486,1.46499 -5.58302,3.5573 -6.2987,4.64957 -1.20923,1.84552 -1.1921,2.06577 0.24229,3.11462 1.99028,1.45533 5.53585,1.41907 10.57003,-0.1081 7.48109,-2.26947 16.99508,-1.1009 21.09877,2.59149 1.81612,1.63408 4.82534,7.84487 7.27616,15.01737 2.29222,6.70833 2.04373,11.17713 -0.93152,16.75264 -2.80258,5.2519 -2.7168,6.35816 0.61586,7.94215 3.12134,1.48355 5.01181,7.41697 5.69767,17.88267 0.61452,9.3772 0.7042,9.28351 -6.25914,6.53882 -4.99585,-1.96918 -8.43707,-2.08785 -10.17408,-0.35083 -1.85287,1.85286 -1.6607,5.31784 0.32371,5.83678 0.88556,0.23158 1.83104,1.11717 2.10108,1.96797 0.48947,1.54222 1.18055,1.80733 7.29478,2.79848 4.49211,0.72819 16.42719,7.2467 17.81768,9.73137 0.88929,1.58909 2.99863,1.70309 3.57796,0.1934 0.26149,-0.68144 1.2061,-0.95716 2.4588,-0.7177 2.63559,0.50383 4.94225,-1.59299 5.59807,-5.08879 0.40081,-2.1365 0.99397,-2.81 2.79134,-3.16948 2.92731,-0.58546 4.22927,-3.4321 4.22927,-9.24702 0,-5.84293 -1.00065,-7.68442 -4.17565,-7.68442 -2.78254,0 -5.64761,1.2738 -5.64761,2.51091 0,0.44886 -0.55622,2.14734 -1.23606,3.77442 -1.22719,2.93709 -1.24835,2.94719 -2.94892,1.40819 -2.61671,-2.36809 -3.73537,-5.09629 -4.72934,-11.53404 -1.57308,-10.18861 -1.25808,-13.96044 1.37657,-16.48291 1.25703,-1.20351 3.41241,-2.78423 4.78973,-3.51272 1.99815,-1.05685 2.61781,-2.0349 3.06634,-4.83979 0.31793,-1.9882 0.21874,-3.85863 -0.22834,-4.3057 -0.43474,-0.43475 -2.90275,-0.83545 -5.48445,-0.89045 l -4.69401,-0.1 -3.55111,-10.61786 c -1.95311,-5.83982 -3.55111,-11.25157 -3.55111,-12.0261 0,-1.80985 1.05877,-2.42764 6.11031,-3.56535 3.52889,-0.79477 4.12225,-1.20747 4.12225,-2.86715 0,-2.81342 -3.92125,-4.75836 -11.54133,-5.72449 -5.56478,-0.70554 -7.20136,-1.31469 -11.78596,-4.38683 -14.30092,-9.58303 -20.21667,-13.2428 -22.09646,-13.66996 -1.89315,-0.43018 -1.79696,-0.54286 1.2191,-1.42799 4.40555,-1.29291 10.41453,-1.21632 19.0322,0.24259 3.93973,0.66696 12.13617,1.55319 18.21431,1.96939 6.07814,0.4162 12.05667,1.21551 13.28561,1.77623 1.72557,0.78732 3.48091,0.81296 7.70762,0.11257 3.01026,-0.49881 5.71245,-0.75906 6.00489,-0.57832 0.29243,0.18073 6.95424,0.89669 14.804,1.59101 29.96994,2.65087 34.03536,3.06804 38.01184,3.90053 2.25116,0.47129 5.05219,1.34625 6.2245,1.94437 1.17232,0.59812 6.14534,1.88343 11.05116,2.85625 4.90583,0.97282 9.9143,2.28045 11.12994,2.90585 1.21565,0.6254 4.04647,1.53089 6.29073,2.0122 2.24427,0.48131 4.51506,1.39873 5.04621,2.03873 0.57856,0.69712 1.71282,0.97611 2.82926,0.6959 1.02494,-0.25724 2.10965,-0.0695 2.41046,0.41722 0.3008,0.48671 1.40669,0.88493 2.45754,0.88493 1.05084,0 2.12265,0.55256 2.38181,1.22791 0.28675,0.74726 1.52567,1.22791 3.16508,1.22791 1.74786,0 3.03065,0.53923 3.65283,1.53549 0.52741,0.84452 2.27648,1.78266 3.88683,2.08476 1.78312,0.33452 3.43602,1.32478 4.22749,2.53271 0.71477,1.09089 2.55385,2.43698 4.08683,2.99131 1.53297,0.55433 2.78723,1.48412 2.78723,2.06621 0,0.58207 1.3814,2.07365 3.06977,3.31462 1.68837,1.24096 6.74441,6.06032 11.23564,10.70969 4.49125,4.64936 9.18799,9.05716 10.43721,9.7951 1.24923,0.73794 2.27134,2.00814 2.27134,2.82268 0,0.81454 0.82883,1.80316 1.84186,2.19693 2.15759,0.83869 4.5996,3.42211 10.02944,10.61025 2.17171,2.87495 6.12097,7.66379 8.77614,10.64186 2.65517,2.97806 5.04203,6.45935 5.30414,7.73619 0.26211,1.27683 0.976,2.51317 1.58642,2.74741 0.61043,0.23424 3.30388,4.9455 5.98546,10.46947 2.68158,5.52396 5.40803,10.24788 6.05878,10.4976 0.65076,0.24971 1.63006,1.86121 2.17625,3.5811 1.44457,4.54885 8.30925,18.54096 9.56651,19.49917 3.05918,2.33154 5.09264,27.51511 3.63542,45.02326 -1.78848,21.48851 -8.42284,52.36036 -14.86505,69.17209 -2.32914,6.07814 -4.90719,13.99814 -5.72902,17.6 -2.39848,10.51185 -5.75441,23.38042 -7.36505,28.24186 -7.3876,22.29824 -12.32758,33.84218 -18.17982,42.48333 -1.40348,2.07231 -5.18787,6.5518 -8.40975,9.95443 -4.61966,4.87881 -6.4278,7.55537 -8.55363,12.66185 -1.48262,3.56141 -3.28109,7.36875 -3.99661,8.46077 l -1.30095,1.9855 -3.30818,-3.65732 c -1.8195,-2.01153 -4.34102,-5.55794 -5.60338,-7.88091 l -2.2952,-4.22359 1.63332,-3.69239 c 1.0523,-2.3789 2.45118,-4.05179 3.93241,-4.7027 1.2645,-0.55567 2.57174,-1.43932 2.90496,-1.96368 0.33323,-0.52435 1.91764,-2.52344 3.52089,-4.44241 2.35264,-2.81592 2.86746,-4.05667 2.66854,-6.4313 -0.39041,-4.66062 -3.03479,-4.43413 -7.96618,0.68229 -2.20112,2.2837 -4.54279,4.15218 -5.20372,4.15218 -0.66092,0 -1.64208,0.53066 -2.18037,1.17925 -1.00699,1.21336 -3.24723,0.84685 -4.34115,-0.71024 -2.27334,-3.23584 -5.48042,-21.14966 -5.50749,-30.76319 -0.0144,-5.11957 0.1292,-5.50161 3.69245,-9.82325 2.0391,-2.47309 3.9264,-5.34733 4.19402,-6.3872 0.32052,-1.24545 0.90227,-1.73118 1.70463,-1.42328 0.88319,0.33891 1.07179,0.0863 0.68603,-0.91904 -0.3375,-0.87949 0.4085,-2.69612 2.0402,-4.96821 2.30055,-3.20345 4.75069,-10.47576 4.82922,-14.33368 0.0425,-2.08719 -2.63345,-1.78002 -4.82615,0.554 -1.02644,1.0926 -3.02461,4.28319 -4.44036,7.09019 -2.47992,4.91691 -4.79196,7.39688 -5.88084,6.30799 -0.91748,-0.91748 -1.94564,-6.59392 -2.505,-13.83002 l -0.54426,-7.04063 2.81247,-3.19192 c 6.67152,-7.57165 8.04585,-10.16412 8.04585,-15.17732 0,-3.73415 -0.38986,-5.15795 -1.88982,-6.90176 -1.46156,-1.69916 -2.3133,-2.06266 -3.75845,-1.60398 -2.0025,0.63557 -4.17498,4.84295 -4.17498,8.08553 0,2.46955 -1.79205,4.0175 -4.24692,3.66843 -1.35014,-0.19197 -3.90542,-3.15618 -9.05153,-10.50004 -8.62522,-12.30881 -10.17837,-15.29399 -8.96672,-17.23414 0.47819,-0.76572 1.09938,-2.63477 1.38042,-4.15346 0.81511,-4.40473 -0.77437,-5.7515 -7.51754,-6.36958 -4.97449,-0.45597 -6.17859,-0.89953 -8.87965,-3.27109 -3.51234,-3.08388 -12.167,-7.44452 -14.77723,-7.4455 -2.64255,-8.2e-4 -4.42455,2.57225 -4.42455,6.38912 0,2.65932 0.41646,3.66862 1.92034,4.654 1.7682,1.15856 3.80989,4.4318 3.80989,6.10799 0,0.38645 -1.2893,2.24584 -2.86512,4.13196 -1.57581,1.88612 -2.86511,3.94001 -2.86511,4.56418 0,2.49952 9.7013,2.49106 13.27432,-0.0115 1.47519,-1.03326 2.00556,-1.03839 3.93991,-0.0381 1.22939,0.63575 3.02605,2.4962 3.99258,4.13435 0.96653,1.63814 3.19608,4.69068 4.95455,6.78341 3.91837,4.66311 8.22003,12.69523 8.22003,15.34847 0,1.39775 -0.45775,1.96339 -1.58889,1.96339 -0.8739,0 -1.78717,0.32079 -2.02948,0.71287 -0.24232,0.39208 -1.53664,0.93208 -2.87628,1.20001 -3.23908,0.64782 -5.63772,4.19068 -4.29397,6.34236 0.53095,0.85019 0.96536,2.08161 0.96536,2.7365 0,2.0401 1.46307,2.22758 4.6789,0.59958 5.63489,-2.85264 7.87562,-2.93802 10.8748,-0.41437 3.67412,3.09157 4.68229,5.95687 5.7451,16.32807 1.30585,12.74297 0.80409,15.09284 -4.107,19.23393 -5.3786,4.5353 -7.31216,10.55751 -3.39258,10.56643 0.73973,0.002 2.51957,0.71927 3.9552,1.59463 3.30203,2.01338 3.95726,4.32585 5.76115,20.3321 l 1.41051,12.51583 -3.86769,3.306 c -4.63544,3.96226 -5.22532,7.16294 -1.74087,9.44604 1.77588,1.16361 2.40212,1.22161 3.79534,0.35153 1.44773,-0.90413 2.11412,-0.72972 5.03597,1.31802 2.56981,1.80102 3.42819,2.98232 3.62389,4.98719 0.1534,1.57158 0.89345,2.96807 1.84186,3.47565 0.87199,0.46667 1.58542,1.39598 1.58542,2.06514 0,0.66916 0.88909,1.62175 1.97575,2.11686 2.46669,1.1239 5.8353,10.73493 5.03678,14.37055 -1.29598,5.90058 -10.08098,15.86533 -18.21014,20.65561 -2.62085,1.54439 -6.60704,4.15795 -8.8582,5.8079 -2.25116,1.64995 -7.77674,4.93936 -12.27907,7.30979 -4.50232,2.37044 -10.51466,5.93315 -13.36075,7.91716 -2.84609,1.984 -6.34563,4.10523 -7.77674,4.71384 -1.43113,0.6086 -4.41428,2.7207 -6.62923,4.69354 -2.21494,1.97286 -5.6068,4.69212 -7.53745,6.04282 -1.93066,1.3507 -6.68925,5.2186 -10.57465,8.59535 -13.49815,11.73104 -15.40578,12.61121 -37.61885,17.357 -12.17038,2.60019 -27.78449,7.57262 -42.56745,13.5559 -4.95255,2.00451 -13.13716,5.04937 -18.18801,6.76636 -5.05085,1.71699 -10.01374,3.70342 -11.02866,4.41429 -1.0149,0.71088 -2.8467,1.29249 -4.07065,1.29249 -1.22394,0 -2.48267,0.41635 -2.79718,0.92523 -1.41226,2.2851 -15.14499,7.5095 -31.06963,11.81993 -28.7552,7.78339 -35.77123,9.06516 -58.25828,10.64332 -9.67792,0.6792 -20.23043,1.60532 -23.45004,2.05806 -7.86865,1.10646 -46.734,1.63273 -55.17351,0.74709 z m 49.72899,-37.84831 c 2.47628,-0.73862 9.44861,-1.68626 15.49407,-2.10586 l 10.99175,-0.76292 9.06407,-4.61792 c 4.98523,-2.53986 9.80081,-4.62519 10.70127,-4.63407 0.90047,-0.009 2.35227,-0.557 3.22623,-1.21802 0.87396,-0.66103 2.44454,-1.20188 3.49018,-1.20188 1.04563,0 2.54081,-0.35667 3.32261,-0.79261 0.7818,-0.43594 4.00005,-1.13678 7.15168,-1.55742 8.67077,-1.15728 13.28578,-2.7222 26.43857,-8.96518 6.61971,-3.14204 14.02105,-6.29733 16.44739,-7.01175 2.42635,-0.71441 5.68429,-2.2697 7.23987,-3.4562 3.19271,-2.4352 3.48163,-2.47014 28.86952,-3.49226 l 15.96279,-0.64266 8.11053,-3.41305 c 4.46079,-1.87718 9.12931,-3.41305 10.3745,-3.41305 1.32672,0 3.8179,-1.18613 6.01749,-2.86512 2.06442,-1.57581 4.07583,-2.86511 4.46977,-2.86511 1.18498,0 6.63701,-6.45458 6.63701,-7.85745 0,-2.16762 2.73673,-6.09815 4.5656,-6.55717 1.78948,-0.44912 4.43905,-5.3592 4.43905,-8.22625 0,-0.89409 0.59454,-3.37049 1.3212,-5.50311 0.97917,-2.87372 1.23379,-5.9312 0.98358,-11.81094 -0.32638,-7.66987 -0.47817,-8.20544 -4.56828,-16.1195 -7.41483,-14.34716 -19.15481,-27.3026 -29.24041,-32.26772 -13.63986,-6.71487 -43.30144,-9.8803 -80.64493,-8.60625 -31.39095,1.07095 -38.67839,0.51999 -60.98604,-4.61083 -12.15779,-2.79632 -34.35792,-9.22077 -44.61396,-12.91076 -3.82697,-1.37688 -7.88148,-2.62174 -9.01001,-2.76633 -1.12854,-0.1446 -3.33877,-1.0534 -4.91163,-2.01957 -1.57286,-0.96615 -6.72766,-3.56842 -11.4551,-5.7828 -4.72744,-2.21437 -11.17395,-5.989 -14.32558,-8.38805 -11.67609,-8.88794 -16.21792,-11.63071 -33.30613,-20.11328 l -17.48101,-8.67754 -8.24713,-0.45444 c -12.20174,-0.67235 -15.54337,0.3573 -22.52057,6.93924 -6.04216,5.69986 -12.14619,14.17224 -14.38324,19.96392 -1.05675,2.73587 -1.3612,6.08229 -1.31004,14.39964 0.0575,9.34649 0.30377,11.2904 1.79226,14.14613 0.9491,1.82087 1.72563,3.8519 1.72563,4.51338 0,0.66149 0.3417,1.2027 0.75933,1.2027 0.41763,0 2.10198,2.21023 3.74299,4.91163 1.98793,3.27248 3.51026,4.91163 4.56159,4.91163 0.89248,0 1.57795,0.56193 1.57795,1.29355 0,0.71147 1.28576,2.82961 2.85726,4.70698 1.57149,1.87738 4.69938,5.62365 6.95086,8.32505 2.25149,2.70139 4.09688,5.74555 4.10088,6.76481 0.007,1.8962 2.90356,8.25996 6.85283,15.05806 3.34625,5.76006 6.18579,18.25915 7.50232,33.02364 1.21834,13.66344 2.07436,19.22296 4.02716,26.15507 0.6404,2.27332 1.55203,5.63348 2.02584,7.46702 0.47381,1.83355 2.80023,6.22519 5.16983,9.75921 4.35629,6.49696 5.53986,7.46733 15.40851,12.63299 2.50321,1.31029 5.03483,2.96496 5.62582,3.67705 0.59097,0.71209 1.81704,1.2947 2.72458,1.2947 0.90755,0 3.24863,1.47349 5.20241,3.27442 2.18691,2.01582 4.34598,3.27442 5.61713,3.27442 1.21916,0 2.0648,0.46702 2.0648,1.14033 0,1.32424 1.74489,2.13409 4.59808,2.13409 1.1046,0 2.89247,0.57929 3.97305,1.28732 1.08059,0.70803 6.50112,2.15698 12.04562,3.21989 8.40516,1.61133 12.25817,1.90105 23.1786,1.74287 9.29177,-0.1346 14.40595,-0.57995 17.6,-1.53267 z M 502.23668,352.8186 c 1.38532,-4.18442 1.40048,-4.82023 0.21469,-9.00465 -2.72375,-9.61149 -17.89393,-32.29531 -29.3495,-43.88601 -8.16269,-8.25898 -14.07799,-11.14841 -23.76234,-11.60713 -6.42968,-0.30456 -8.1489,-0.0721 -13.50697,1.82597 -3.37675,1.19623 -7.42884,2.47666 -9.00465,2.8454 -5.36235,1.25479 -11.85112,4.15637 -25.78605,11.53074 -7.65395,4.05047 -14.36379,7.36471 -14.91074,7.36497 -0.54695,2.7e-4 -1.37539,0.71228 -1.84098,1.58226 -0.4656,0.86997 -1.67315,1.84412 -2.68344,2.16477 -1.0103,0.32066 -2.76046,1.45398 -3.88924,2.51851 -2.47068,2.33002 -13.80907,9.46081 -18.57151,11.67975 -3.74889,1.7467 -4.74723,3.09746 -5.58332,7.55423 -0.47095,2.51038 -0.26885,3.15755 1.33738,4.2826 3.3374,2.3376 7.52687,1.70735 11.59565,-1.74443 5.0533,-4.28698 14.98631,-11.3726 19.55822,-13.95167 2.11196,-1.19137 4.00308,-2.79004 4.20249,-3.55259 0.38874,-1.48654 7.81802,-6.12348 11.19479,-6.98717 1.12558,-0.2879 2.30736,-0.92397 2.62618,-1.4135 0.31883,-0.48953 1.05557,-0.92926 1.63721,-0.97718 2.52749,-0.20822 2.89403,-0.45233 3.85882,-2.56981 0.9069,-1.99042 1.10447,-2.07805 1.8165,-0.80573 0.72373,1.29324 0.96564,1.31082 2.57039,0.18681 0.97431,-0.68243 2.70253,-1.24643 3.84049,-1.25332 2.5404,-0.0154 3.58642,-0.67607 4.84039,-3.05723 0.59555,-1.13091 1.73014,-1.84186 2.93935,-1.84186 1.08317,0 2.14945,-0.29135 2.36953,-0.64742 0.22007,-0.35609 1.65071,-0.73165 3.17919,-0.83459 1.52848,-0.10294 4.03843,-0.54834 5.57766,-0.98979 1.53923,-0.44144 4.37161,-0.80262 6.29418,-0.80262 1.92257,0 4.17041,-0.42144 4.9952,-0.93653 1.20399,-0.7519 2.42595,-0.51243 6.19873,1.21481 2.58453,1.18324 6.1019,3.26235 7.81639,4.62025 1.71449,1.3579 3.622,2.46891 4.2389,2.46891 0.61691,0 1.77705,1.38139 2.57809,3.06977 0.80104,1.68837 2.63771,4.94008 4.08148,7.22601 1.44377,2.28593 3.36179,5.36602 4.26225,6.84465 0.90047,1.47861 3.01317,4.86162 4.6949,7.51778 4.53041,7.15548 6.43909,11.12812 8.40796,17.49993 1.60455,5.19281 1.97484,5.73366 3.94812,5.7668 1.19762,0.0201 2.63227,0.49132 3.18808,1.04714 1.83074,1.83074 3.31392,0.61702 4.82553,-3.94883 z m 108.36797,-60.19105 c 1.80093,-0.6488 3.82698,-1.19544 4.50233,-1.21474 0.67535,-0.0193 2.62364,-1.09173 4.32954,-2.38317 1.92587,-1.45797 3.71184,-2.1885 4.71133,-1.92713 1.92795,0.50417 4.0568,-1.06975 4.0568,-2.99931 0,-0.76414 0.8714,-2.14702 1.93644,-3.07306 1.06504,-0.92604 2.18451,-3.00606 2.48771,-4.62226 0.54156,-2.88674 8.37,-14.17063 10.75854,-15.50733 0.65417,-0.3661 1.1894,-1.16046 1.1894,-1.76527 0,-0.60481 0.55256,-1.31168 1.22791,-1.57085 0.67535,-0.25915 1.22791,-0.95328 1.22791,-1.54249 0,-0.58923 1.10511,-2.04104 2.45581,-3.22626 1.3507,-1.18521 2.45582,-2.90318 2.45582,-3.81769 0,-0.91452 0.36837,-1.89043 0.8186,-2.16869 1.22859,-0.7593 0.96219,-12.38601 -0.41791,-18.23972 -0.66677,-2.82813 -1.92416,-6.53737 -2.79418,-8.24275 -2.12458,-4.16452 -8.02934,-11.5545 -9.73741,-12.18665 -0.75684,-0.28011 -2.66538,-1.34891 -4.2412,-2.37513 -1.57581,-1.02622 -8.20651,-3.71888 -14.73488,-5.9837 -13.42795,-4.6584 -19.71596,-5.34127 -24.14884,-2.62254 -3.0638,1.87907 -21.24906,20.34206 -28.97889,29.42146 -6.43345,7.55668 -10.72343,13.50943 -10.72343,14.87975 0,0.4975 -0.64465,1.88953 -1.43256,3.09338 -1.96004,2.99477 -2.06298,23.91414 -0.13514,27.46427 1.52285,2.80432 9.66325,11.20696 10.90164,11.25281 1.27882,0.0473 5.71273,4.06204 7.4142,6.71319 0.79213,1.23427 1.7348,2.06209 2.09483,1.83958 0.36002,-0.22251 2.62205,0.12478 5.02674,0.77176 5.98335,1.60981 25.31211,1.63095 29.74889,0.0326 z M 248.37209,256.19446 c 0,-0.56641 0.49501,-0.5825 1.49277,-0.0485 0.82102,0.43939 5.15186,0.68563 9.6241,0.54718 6.56019,-0.20308 8.68386,-0.58865 10.99095,-1.99552 1.57279,-0.95908 5.25404,-2.4921 8.18056,-3.4067 2.92651,-0.9146 6.4522,-2.02084 7.83486,-2.45831 1.38266,-0.43747 4.32964,-0.79767 6.54884,-0.80044 2.21919,-0.002 5.14002,-0.59308 6.49071,-1.3118 1.3507,-0.71871 4.11349,-1.44413 6.13954,-1.61205 8.60321,-0.71302 11.46046,-1.33673 11.46046,-2.50168 0,-0.64498 0.85936,-2.91022 1.90969,-5.03385 1.05032,-2.12364 2.57284,-6.37767 3.38336,-9.45342 0.81054,-3.07574 2.3456,-6.62845 3.41125,-7.89491 1.06566,-1.26646 1.93756,-2.89972 1.93756,-3.62945 0,-0.72973 1.13216,-3.33285 2.5159,-5.78471 2.34641,-4.15761 2.50205,-4.94261 2.31044,-11.65271 -0.113,-3.95714 0.0981,-9.68881 0.46915,-12.73705 0.53473,-4.39309 0.40939,-6.09042 -0.60453,-8.18604 -0.70352,-1.45409 -1.71922,-4.29619 -2.2571,-6.31577 -0.75763,-2.84471 -2.47902,-5.21784 -7.64079,-10.53369 -12.16745,-12.53066 -20.15327,-16.80042 -39.30114,-21.01306 -9.0925,-2.0004 -14.42791,-1.32726 -25.89193,3.26666 -8.10594,3.24824 -10.01431,4.387 -13.73484,8.19583 -2.37649,2.43289 -5.04719,4.65395 -5.93488,4.93569 -0.8877,0.28175 -1.614,0.82391 -1.614,1.20481 0,0.38091 -2.13752,3.57934 -4.75005,7.10764 -2.61253,3.52828 -5.33207,7.52018 -6.04341,8.87088 -6.90363,13.10856 -8.34679,19.57518 -7.7643,34.7907 0.43946,11.479 2.0828,20.9819 4.60078,26.60465 2.08978,4.66655 10.04463,13.0521 14.36638,15.14423 2.021,0.97835 3.90097,2.14517 4.17771,2.59295 0.70754,1.14481 5.43863,3.9491 6.66871,3.95278 0.56279,0.002 1.02325,-0.37827 1.02325,-0.84434 z"
     id="path26"
     transform="scale(0.75)" />
  <path
     style="fill:#ffffff;stroke-width:0"
     d="m 254.51163,245.17907 c -0.45023,-0.15019 -1.78461,-0.4847 -2.96528,-0.74334 -3.15962,-0.69219 -11.77884,-7.32088 -14.62109,-11.24451 -1.3582,-1.87492 -2.46945,-4.27462 -2.46945,-5.33265 0,-1.05803 -0.32843,-1.92369 -0.72986,-1.92369 -0.40142,0 -0.98319,-1.00933 -1.29281,-2.24296 -0.30962,-1.23363 -0.90837,-2.45645 -1.33055,-2.71737 -0.71499,-0.44189 -2.43708,-9.77763 -2.48253,-13.45827 -0.0613,-4.9619 1.61346,-17.79817 2.42844,-18.61315 0.52333,-0.52333 0.9515,-1.9612 0.9515,-3.19528 0,-1.23408 0.39349,-2.48697 0.87441,-2.7842 0.48093,-0.29723 0.67696,-1.05498 0.43562,-1.68389 -0.24969,-0.6507 0.43181,-1.71392 1.5814,-2.46716 1.21316,-0.79489 2.0202,-2.10363 2.0202,-3.27605 0,-1.0738 0.37749,-1.95236 0.83886,-1.95236 0.46138,0 1.20917,-0.97396 1.66175,-2.16435 1.45266,-3.82077 5.91176,-8.66969 9.386,-10.20651 1.85711,-0.82149 4.76397,-2.59619 6.45968,-3.94377 7.65398,-6.08262 21.74931,-8.00948 33.43045,-4.57002 3.03907,0.89485 5.52558,1.86687 5.52558,2.16006 0,0.29319 1.28558,0.77425 2.85685,1.06902 1.82386,0.34216 4.5618,2.0885 7.57209,4.82971 2.59339,2.36156 5.72411,4.92994 6.95717,5.7075 5.5966,3.52921 10.60987,16.77227 10.69055,28.24016 l 0.0535,7.61483 -4.65423,9.21411 c -8.36909,16.56857 -11.7439,19.58049 -23.56166,21.02816 -8.94979,1.09634 -9.01691,1.12305 -11.16167,4.44207 -2.41654,3.73959 -4.89542,5.27107 -11.49298,7.10052 -4.72623,1.31055 -14.45636,1.94923 -16.96202,1.11339 z m 27.41757,-38.27674 c 3.31454,-1.68848 3.70104,-2.21681 4.6411,-6.34419 1.48806,-6.53344 1.43391,-6.77601 -2.44146,-10.93751 l -3.53628,-3.79737 h -5.57609 c -5.47199,0 -5.64062,0.0649 -9.0337,3.47907 -2.29792,2.31217 -3.64628,4.50461 -4.02013,6.5367 -0.66589,3.61962 0.75527,9.63074 2.27692,9.63074 0.58822,0 1.73623,0.73674 2.55114,1.63721 2.16703,2.39454 10.2507,2.28526 15.1385,-0.20465 z"
     id="path28"
     transform="scale(0.75)" />
  <path
     style="fill:#ffffff;stroke-width:0"
     d="m 591.66703,286.16196 c -9.06627,-2.83645 -20.22155,-11.92443 -23.3791,-19.04648 -2.00249,-4.51675 -3.0511,-15.24131 -1.57919,-16.151 0.50554,-0.31245 0.91917,-1.62319 0.91917,-2.91277 0,-1.28959 0.8649,-3.38599 1.922,-4.65867 1.05711,-1.27268 2.16034,-3.29153 2.45164,-4.48633 0.59028,-2.42119 4.34196,-7.36879 11.84153,-15.61626 2.75546,-3.03026 5.57615,-6.60452 6.26821,-7.94281 1.32669,-2.56554 6.83492,-6.76535 11.29311,-8.61056 2.30327,-0.95331 3.67253,-0.88179 10.42816,0.5447 4.27721,0.90315 8.3293,1.95949 9.00465,2.34742 0.67535,0.38793 3.25395,1.82431 5.73023,3.19195 8.18371,4.51985 10.96033,8.059 15.23729,19.42183 1.07437,2.85436 1.95341,6.6143 1.95341,8.35542 0,3.4287 -1.82891,6.26041 -13.66039,21.15044 l -6.01671,7.57209 h -4.80875 c -3.51929,0 -4.9351,0.32926 -5.27995,1.22791 -0.25915,0.67535 -1.03531,1.2279 -1.72479,1.2279 -1.47643,0 -1.5051,0.28958 -0.41666,4.20818 1.38771,4.99603 0.16575,6.66793 -6.6999,9.16686 -6.65445,2.42207 -8.52351,2.56209 -13.48396,1.01018 z m 26.67187,-38.9732 c 4.51123,-3.75428 4.95412,-4.40885 4.95412,-7.32179 0,-6.20839 -6.72507,-10.02287 -13.05102,-7.40257 -5.14654,2.13176 -7.81051,13.61442 -3.98532,17.17813 3.09899,2.88714 6.49264,2.19793 12.08222,-2.45377 z"
     id="path30"
     transform="scale(0.75)" />
  <path
     style="fill:#ffffff;stroke-width:0"
     d="m 537.76986,537.86391 c -0.68691,-1.32834 -1.24893,-3.02244 -1.24893,-3.76466 0,-0.74222 -0.57391,-2.55891 -1.27535,-4.03709 -1.14646,-2.416 -1.15011,-3.17301 -0.0361,-7.49116 0.68158,-2.64195 1.6919,-8.89547 2.24514,-13.89669 0.89913,-8.12792 1.16364,-9.05188 2.49192,-8.70452 1.16288,0.3041 1.48603,-0.0889 1.48603,-1.8072 0,-1.20769 -0.4025,-2.94788 -0.89444,-3.86708 -0.64685,-1.20865 -0.64685,-1.91887 0,-2.56572 0.49194,-0.49194 0.92033,-2.01798 0.95197,-3.39119 0.0317,-1.3732 0.31999,-3.16205 0.64077,-3.9752 0.52437,-1.32924 0.97149,-1.18201 4.43002,1.45878 2.11574,1.61548 4.29348,3.75428 4.83943,4.75288 2.64389,4.83595 5.73197,15.41296 6.14663,21.05285 0.39389,5.35739 0.1795,6.80647 -1.68293,11.37473 -3.17524,7.7884 -6.81358,12.96763 -10.71628,15.25477 -4.4748,2.6224 -5.85639,2.54871 -7.37787,-0.3935 z"
     id="path32"
     transform="scale(0.75)" />
  <path
     style="fill:#ffffff;stroke-width:0"
     d="m 500.98865,528.94322 c -0.2359,-0.38169 -3.82082,-0.93475 -7.96648,-1.22902 -5.05333,-0.35869 -8.0018,-0.95515 -8.94611,-1.80974 -1.76248,-1.59502 -4.94934,-11.33366 -4.94894,-15.12328 3.6e-4,-3.29755 1.34773,-15.95793 2.54016,-23.86822 1.39347,-9.2439 1.08815,-13.46016 -1.22077,-16.85804 -2.47321,-3.63967 -2.58969,-5.08748 -0.4093,-5.08748 0.90046,0 1.63721,-0.28943 1.63721,-0.64319 0,-0.77898 1.02668,-0.94528 9.32386,-1.51022 4.35029,-0.2962 8.35878,-0.0205 12.27907,0.84465 3.20118,0.70642 8.34279,1.63945 11.42581,2.07339 10.3267,1.45352 12.31024,4.28523 12.36616,17.65398 0.034,8.13536 -0.23027,9.7949 -2.73776,17.19069 -5.04508,14.88042 -9.71608,22.50261 -16.37965,26.72852 -3.69675,2.34441 -6.16746,2.92559 -6.96326,1.63796 z"
     id="path34"
     transform="scale(0.75)" />
  <path
     style="fill:#ffffff;stroke-width:0"
     d="m 424.59305,514.36194 c -4.95546,-1.05272 -7.30471,-10.32977 -6.49667,-25.65496 0.53862,-10.21541 2.50493,-22.75201 3.76642,-24.0135 0.87907,-0.87907 3.59479,-1.19875 14.37906,-1.69265 4.05209,-0.18558 11.60372,-0.57647 16.7814,-0.86866 11.17198,-0.63045 16.04852,0.41352 17.97648,3.84841 1.13541,2.02287 1.08185,2.36606 -0.75751,4.85392 -1.63778,2.21522 -2.07321,4.03136 -2.52358,10.52572 -0.7296,10.52053 -3.43098,16.24091 -11.75808,24.89862 -3.3587,3.49205 -6.43584,6.14579 -6.83809,5.89719 -0.40225,-0.24861 -2.35982,0.0375 -4.35017,0.63587 -3.89583,1.17115 -17.1885,2.20538 -20.17926,1.57004 z"
     id="path36"
     transform="scale(0.75)" />
  <path
     style="fill:#ffffff;stroke-width:0"
     d="m 409.93448,578.28809 c -1.25136,-1.90981 -1.28613,-3.16708 -0.37928,-13.71163 1.22546,-14.24911 3.06744,-27.21494 4.3004,-30.27088 1.49852,-3.71411 4.91615,-4.91511 15.14745,-5.32303 7.36567,-0.29367 10.05897,-0.0703 13.91628,1.15432 2.63065,0.83516 5.07243,1.42838 5.42618,1.31827 1.72214,-0.53606 8.52704,8.08076 11.07591,14.02505 l 2.71445,6.33043 -1.39685,4.20554 c -2.64891,7.97511 -3.6167,8.93846 -14.08624,14.0216 -8.0709,3.91856 -10.97683,4.89026 -17.60035,5.88528 -4.36336,0.65548 -9.87214,1.92867 -12.24174,2.82931 -5.38815,2.04793 -5.22285,2.05909 -6.87621,-0.46426 z"
     id="path38"
     transform="scale(0.75)" />
  <path
     style="fill:#ffffff;stroke-width:0"
     d="m 337.70643,592.78275 c -7.20333,-0.96066 -9.61494,-5.58063 -5.10394,-9.77773 3.0558,-2.84316 9.09053,-12.25182 9.09053,-14.1729 0,-0.81482 0.73675,-1.87579 1.63721,-2.3577 0.90047,-0.48192 1.63721,-1.63398 1.63721,-2.56015 0,-0.92617 0.73675,-2.62056 1.63721,-3.76532 0.90047,-1.14475 1.63721,-2.72333 1.63721,-3.50795 0,-0.78462 0.55256,-1.88516 1.22791,-2.44565 0.67535,-0.56049 1.2279,-2.09738 1.2279,-3.41531 0,-2.47117 1.77001,-6.62617 3.822,-8.97193 0.64281,-0.73484 1.44811,-3.95065 1.78956,-7.14625 0.4781,-4.47452 1.08061,-6.30927 2.62091,-7.98122 2.40285,-2.60822 7.71746,-5.1867 10.74162,-5.2115 1.20598,-0.01 2.67947,-0.47844 3.27442,-1.04123 0.59495,-0.56279 1.81847,-1.06177 2.71894,-1.10885 0.90046,-0.0471 2.92651,-0.32672 4.50232,-0.62143 2.78069,-0.52005 3.02153,-0.34867 8.17303,5.81582 10.14518,12.14013 10.38441,14.50125 3.53285,34.86863 -5.58241,16.59463 -11.18907,28.34637 -14.2061,29.77648 -5.87582,2.78521 -29.90842,4.96481 -39.96079,3.62419 z"
     id="path40"
     transform="scale(0.75)" />
  <path
     style="fill:#ffffff;stroke-width:0"
     d="m 304.85581,581.51013 c -9.47829,-5.26355 -21.2518,-13.51025 -24.19193,-16.94514 -3.48799,-4.07493 -7.73365,-12.35417 -7.73365,-15.081 0,-2.42757 1.68344,-4.84654 10.06256,-14.45914 6.61355,-7.58711 12.85837,-16.25653 12.85837,-17.85072 0,-1.05407 6.18312,-6.52174 8.32497,-7.3617 0.82406,-0.32317 1.49829,-1.19711 1.49829,-1.9421 0,-1.10893 0.2218,-1.17044 1.22328,-0.33928 1.00533,0.83434 1.50298,0.66988 2.79302,-0.92302 1.44319,-1.78202 2.15753,-1.93534 8.86152,-1.90196 6.25703,0.0311 7.94753,0.35712 11.91276,2.29712 8.26056,4.04152 13.77986,12.40793 12.41164,18.81415 -1.18364,5.542 -25.02848,52.86403 -28.83924,57.23382 -1.77418,2.03445 -3.16274,1.80139 -9.18159,-1.54103 z"
     id="path42"
     transform="scale(0.75)" />
  <path
     style="fill:#ffffff;stroke-width:0"
     d="m 354.49648,504.73053 c -2.7418,-4.18453 -3.88652,-9.0716 -4.37688,-18.68601 -0.40479,-7.93674 -0.27289,-9.87098 0.75361,-11.05116 0.68436,-0.78681 1.48516,-3.58745 1.77955,-6.22363 0.2944,-2.63618 0.89587,-5.46685 1.3366,-6.29037 0.44074,-0.82352 0.80134,-2.60266 0.80134,-3.95365 0,-2.94261 1.36511,-6.79378 2.71168,-7.65 1.7464,-1.11046 7.88442,-0.67522 12.66298,0.89793 2.57463,0.84759 6.15412,1.80239 7.95442,2.12178 1.8003,0.31939 5.38083,1.46776 7.95673,2.55194 2.5759,1.08419 5.33921,1.9733 6.14068,1.97581 3.17564,0.01 7.59418,1.79197 9.98815,4.02828 3.09603,2.89212 3.26114,5.89145 0.83977,15.25484 -3.90344,15.09456 -8.94511,21.60508 -20.42185,26.37162 -3.61311,1.5006 -6.69146,1.96919 -15.58639,2.37258 l -11.08407,0.50266 z"
     id="path44"
     transform="scale(0.75)" />
  <path
     style="fill:#ffffff;stroke-width:0"
     d="m 314.89552,458.63142 c -5.03088,-0.28614 -5.13315,-0.33994 -7.09192,-3.73064 -2.00431,-3.46953 -2.89594,-6.30254 -4.54202,-14.43156 -0.61331,-3.02875 -0.63303,-4.70894 -0.062,-5.28 0.46068,-0.46067 0.8376,-1.87815 0.8376,-3.14995 0,-1.74687 0.5293,-2.51359 2.16442,-3.13526 2.61372,-0.99374 7.65884,0.40493 7.65884,2.12327 0,0.64716 1.49163,1.51524 3.47906,2.0247 5.92872,1.51976 9.90666,3.27898 13.03726,5.76563 1.65514,1.31469 3.87212,2.78345 4.92662,3.26391 1.72737,0.78704 5.57101,5.42799 5.57101,6.72664 0,0.28644 -1.85529,2.75015 -4.12287,5.47492 l -4.12286,4.95413 -6.31435,-0.15773 c -3.47289,-0.0867 -8.61136,-0.28838 -11.41882,-0.44806 z"
     id="path46"
     transform="scale(0.75)" />
  <path
     style="fill:#ffffff;stroke-width:0"
     d="m 250.0093,451.9152 c -1.57581,-0.3217 -4.33315,-1.38445 -6.12741,-2.36168 -1.79426,-0.97723 -4.2311,-1.77678 -5.41519,-1.77678 -4.75556,0 -9.26394,-6.37474 -11.88339,-16.80285 -1.07669,-4.2863 -1.17537,-5.86088 -0.441,-7.03679 0.52033,-0.83319 0.94606,-2.48563 0.94606,-3.6721 0,-3.15682 4.21537,-13.42636 5.87595,-14.31508 0.78385,-0.4195 2.006,-1.98672 2.71589,-3.48271 2.52773,-5.3268 13.58051,-8.79964 19.15514,-6.01865 1.39777,0.6973 2.54139,0.92768 2.54139,0.51195 0,-1.49253 2.36651,-0.70474 6.67123,2.2208 2.40897,1.63716 6.2218,3.80436 8.47296,4.81601 2.25116,1.01164 4.79477,2.61912 5.65246,3.57218 0.85768,0.95305 2.08224,1.73283 2.72123,1.73283 0.63899,0 3.32842,2.06659 5.97649,4.59243 l 4.81469,4.59243 -3.34213,6.66338 c -4.03488,8.04454 -6.30387,11.06174 -15.32243,20.37501 l -6.93613,7.16279 -6.60534,-0.0941 c -3.63294,-0.0518 -7.89465,-0.35734 -9.47047,-0.67903 z"
     id="path48"
     transform="scale(0.75)" />
  <path
     style="fill:#ffffff;stroke-width:0"
     d="m 271.33237,524.9408 c -1.70937,-3.67614 -2.45778,-6.71473 -3.75157,-15.23167 -0.67327,-4.43207 -1.55578,-8.678 -1.96113,-9.43541 -0.40535,-0.7574 -1.16638,-3.74498 -1.69118,-6.63905 -0.86151,-4.75094 -0.81329,-5.36498 0.49652,-6.32273 1.71825,-1.25642 7.73293,-1.37989 11.82618,-0.24279 1.6014,0.44487 3.95132,1.89405 5.22204,3.22039 1.95164,2.03708 2.37109,3.27718 2.70138,7.98657 0.75671,10.78981 -1.46431,16.93418 -9.49059,26.25539 l -2.29997,2.67103 z"
     id="path50"
     transform="scale(0.75)" />
</svg>
