<?xml version="1.0" encoding="UTF-8" standalone="no"?>
<svg
   xmlns:dc="http://purl.org/dc/elements/1.1/"
   xmlns:cc="http://creativecommons.org/ns#"
   xmlns:rdf="http://www.w3.org/1999/02/22-rdf-syntax-ns#"
   xmlns:svg="http://www.w3.org/2000/svg"
   xmlns="http://www.w3.org/2000/svg"
   xmlns:sodipodi="http://sodipodi.sourceforge.net/DTD/sodipodi-0.dtd"
   xmlns:inkscape="http://www.inkscape.org/namespaces/inkscape"
   version="1.0"
   width="621.000000pt"
   height="685.000000pt"
   viewBox="0 0 621.000000 685.000000"
   preserveAspectRatio="xMidYMid meet"
   id="svg20"
   sodipodi:docname="face5.svg"
   inkscape:version="1.0.1 (3bc2e813f5, 2020-09-07)">
  <defs
     id="defs24" />
  <sodipodi:namedview
     pagecolor="#ffffff"
     bordercolor="#666666"
     borderopacity="1"
     objecttolerance="10"
     gridtolerance="10"
     guidetolerance="10"
     inkscape:pageopacity="0"
     inkscape:pageshadow="2"
     inkscape:window-width="1920"
     inkscape:window-height="1027"
     id="namedview22"
     showgrid="false"
     inkscape:zoom="0.94160584"
     inkscape:cx="414"
     inkscape:cy="456.66667"
     inkscape:window-x="1912"
     inkscape:window-y="-8"
     inkscape:window-maximized="1"
     inkscape:current-layer="svg20" />
  <metadata
     id="metadata2">
Created by potrace 1.16, written by Peter Selinger 2001-2019
<rdf:RDF>
  <cc:Work
     rdf:about="">
    <dc:format>image/svg+xml</dc:format>
    <dc:type
       rdf:resource="http://purl.org/dc/dcmitype/StillImage" />
  </cc:Work>
</rdf:RDF>
</metadata>
  <g
     transform="translate(0.000000,685.000000) scale(0.100000,-0.100000)"
     fill="#000000"
     stroke="none"
     id="g18">
    <path
       d="M4455 6118 c-49 -4 -130 -8 -180 -8 -119 -1 -290 -16 -307 -26 -7 -5 -18 -9 -24 -10 -6 -1 -27 -8 -45 -17 -19 -8 -59 -20 -89 -26 -65 -14 -193 -53 -200 -61 -3 -3 -23 -17 -45 -32 -22 -15 -46 -37 -53 -48 -7 -12 -29 -28 -49 -36 -19 -8 -37 -24 -40 -35 -3 -10 -10 -19 -15 -19 -6 0 -31 -21 -57 -48 -38 -39 -72 -69 -129 -112 -10 -7 -32 -42 -38 -62 -4 -10 -14 -20 -24 -23 -10 -3 -21 -20 -24 -39 -4 -18 -18 -46 -31 -62 -14 -16 -25 -37 -25 -47 0 -11 -9 -30 -20 -44 -11 -14 -20 -34 -20 -44 0 -11 -4 -19 -10 -19 -5 0 -10 -11 -10 -25 0 -14 -4 -25 -10 -25 -5 0 -10 -14 -10 -31 0 -34 -15 -68 -38 -85 -10 -7 -13 -19 -9 -35 4 -14 -4 -52 -18 -93 -13 -38 -22 -73 -19 -78 3 -5 1 -14 -4 -21 -6 -7 -19 -44 -30 -83 -11 -39 -27 -85 -36 -102 -9 -18 -14 -32 -11 -32 4 0 -2 -13 -12 -30 -9 -16 -21 -30 -25 -30 -4 0 -8 -7 -8 -15 0 -8 -4 -23 -9 -33 -5 -9 -15 -36 -22 -60 -7 -23 -14 -40 -17 -37 -3 2 -20 -25 -38 -61 -18 -37 -41 -72 -51 -79 -10 -7 -15 -16 -11 -20 3 -4 -3 -19 -15 -33 -54 -66 -249 -245 -274 -250 -8 -2 -36 -25 -62 -50 -109 -108 -201 -192 -210 -192 -6 0 -11 -6 -11 -14 0 -8 -18 -33 -40 -55 -22 -22 -40 -45 -40 -51 0 -5 -7 -10 -15 -10 -8 0 -25 -17 -39 -37 -13 -21 -48 -65 -78 -99 -30 -33 -65 -76 -78 -94 -51 -71 -243 -270 -261 -270 -5 0 -9 -7 -9 -15 0 -8 -4 -15 -10 -15 -5 0 -20 -19 -34 -42 -14 -24 -50 -67 -80 -97 -31 -29 -58 -62 -61 -72 -4 -11 -10 -17 -15 -14 -14 9 -200 -181 -200 -204 0 -12 -4 -21 -10 -21 -5 0 -10 -6 -10 -13 0 -8 -13 -33 -30 -55 -16 -23 -30 -48 -30 -56 0 -8 -4 -18 -10 -21 -5 -3 -10 -19 -10 -34 0 -15 -9 -36 -20 -46 -12 -11 -20 -31 -20 -52 0 -18 -4 -33 -10 -33 -6 0 -10 -26 -10 -58 0 -32 -5 -63 -11 -69 -5 -5 -12 -44 -15 -84 -6 -99 -34 -303 -42 -306 -7 -3 -6 -174 1 -295 3 -48 10 -74 26 -94 11 -14 21 -32 21 -38 0 -13 39 -88 49 -96 4 -3 18 -23 31 -45 13 -22 29 -45 35 -51 6 -6 26 -37 45 -70 42 -70 254 -286 330 -336 30 -19 87 -51 125 -70 39 -19 102 -51 140 -70 74 -38 282 -95 374 -104 30 -3 59 -8 63 -10 14 -9 131 -6 137 3 3 4 87 9 186 9 99 1 194 3 210 4 57 4 160 23 180 33 11 6 36 14 55 17 19 3 34 12 33 18 -2 7 8 12 21 12 14 0 27 4 30 9 4 5 17 8 31 6 14 -1 33 4 42 11 10 7 33 14 51 14 17 0 32 5 32 10 0 6 15 10 33 10 23 0 40 8 55 25 12 14 26 25 32 25 5 0 10 6 10 14 0 8 10 22 21 30 12 8 47 43 78 79 31 35 62 62 69 59 6 -2 21 13 33 32 11 20 25 36 30 36 5 0 22 18 38 40 15 21 31 37 33 34 3 -3 22 20 42 50 20 30 42 61 49 68 16 18 37 55 37 67 0 5 8 26 17 47 20 47 19 44 28 71 4 13 12 23 17 23 5 0 8 8 6 17 -2 10 13 34 32 55 30 33 68 98 101 173 5 11 10 41 11 67 2 27 6 48 9 48 6 0 22 76 24 109 0 8 6 16 13 19 7 2 12 20 12 43 0 21 4 39 9 39 5 0 12 11 15 25 4 14 11 25 16 25 6 0 10 9 10 19 0 11 4 23 10 26 6 3 10 17 10 29 0 13 7 29 15 36 8 6 14 15 13 18 -4 34 4 62 18 62 10 0 14 6 11 15 -4 8 -2 17 3 20 5 3 7 11 4 18 -2 7 4 22 15 34 11 12 18 29 15 40 -3 11 3 26 15 37 12 11 21 29 21 41 0 12 9 31 21 43 11 12 18 26 15 30 -3 5 13 35 35 68 21 32 39 66 39 75 0 9 7 20 16 23 8 3 12 11 9 16 -4 6 6 26 22 44 56 67 65 79 75 107 5 16 16 29 24 29 7 0 16 15 20 35 3 20 12 35 20 35 13 0 50 58 46 73 -1 4 2 7 8 7 5 0 10 6 10 13 0 8 11 27 25 43 14 16 25 35 25 42 0 7 7 15 15 18 8 4 15 11 15 18 0 6 20 34 45 63 25 28 45 56 45 63 0 6 11 23 25 38 14 15 25 32 25 38 0 6 9 19 20 29 11 10 20 23 20 29 0 6 16 29 35 51 20 22 38 48 41 58 3 10 16 29 30 44 13 14 24 30 24 36 0 5 15 26 33 47 17 20 40 50 49 66 24 39 42 68 48 74 11 11 40 72 40 85 0 7 4 15 8 17 11 4 92 157 92 173 0 8 4 15 9 17 6 2 11 14 14 28 2 14 18 55 35 91 18 36 32 73 32 81 0 8 10 35 23 60 13 25 29 64 37 87 7 22 17 41 22 41 4 0 8 8 8 17 0 18 16 71 33 113 6 14 12 32 13 40 2 8 6 31 10 50 8 39 11 55 20 120 4 25 10 47 15 50 4 3 9 28 10 55 2 62 17 125 29 125 17 0 11 278 -8 342 -9 32 -20 58 -24 58 -5 0 -8 11 -8 24 0 13 -4 26 -8 28 -5 2 -24 34 -42 72 -26 56 -56 93 -159 196 -106 108 -231 210 -256 210 -4 0 -45 18 -91 40 -46 22 -96 42 -111 46 -15 4 -32 10 -38 14 -32 23 -175 37 -290 28z m240 -122 c28 -9 66 -21 85 -28 64 -20 224 -100 265 -132 22 -17 87 -80 143 -140 90 -96 110 -123 154 -215 34 -72 52 -123 55 -161 l6 -55 -32 29 c-17 17 -31 33 -31 37 0 12 -49 82 -63 91 -7 5 -29 13 -50 18 -31 9 -42 19 -60 58 -19 41 -27 47 -60 53 -41 7 -53 15 -71 50 -18 37 -58 44 -100 17 -20 -13 -36 -29 -36 -35 0 -15 -46 -17 -55 -3 -4 6 -1 27 5 46 10 29 10 39 -1 50 -21 20 -75 26 -89 10 -6 -8 -18 -12 -26 -9 -8 3 -14 -1 -14 -8 0 -8 -11 -1 -26 14 l-26 28 21 23 c22 23 26 42 15 70 -9 23 -50 20 -73 -5 l-19 -21 -21 21 c-12 12 -21 29 -21 39 0 26 -52 54 -81 44 -23 -9 -36 -57 -18 -68 5 -3 7 -14 4 -24 -4 -13 5 -31 30 -57 37 -39 45 -59 20 -49 -24 9 -65 -11 -65 -32 0 -35 34 -54 92 -51 61 3 92 -7 84 -27 -7 -18 13 -64 28 -65 6 -1 19 0 29 1 17 1 104 -24 137 -40 8 -4 15 -20 15 -35 0 -23 6 -30 29 -36 33 -9 46 -4 46 17 0 8 4 14 9 14 5 0 13 9 16 20 14 43 82 9 71 -35 -4 -14 -11 -23 -16 -20 -6 4 -10 -8 -10 -26 0 -35 22 -58 58 -59 27 0 66 36 58 56 -7 19 3 18 41 -5 24 -15 30 -25 26 -41 -3 -11 -9 -23 -14 -26 -5 -3 -2 -18 7 -33 17 -29 42 -32 72 -8 16 13 41 -8 58 -49 7 -17 35 -53 61 -80 38 -40 47 -55 44 -79 -1 -16 -7 -34 -12 -39 -5 -6 -9 -21 -9 -35 0 -39 -16 -119 -72 -366 -7 -27 -20 -62 -31 -77 -10 -16 -15 -32 -12 -38 3 -5 -1 -10 -10 -10 -11 0 -15 -6 -10 -18 3 -11 -3 -30 -16 -46 -12 -16 -22 -43 -23 -66 0 -22 -7 -42 -13 -45 -7 -2 -13 -14 -13 -25 0 -11 -4 -20 -10 -20 -5 0 -12 -12 -16 -27 -3 -16 -14 -47 -25 -70 -10 -24 -19 -47 -19 -52 0 -5 -7 -14 -15 -21 -8 -7 -15 -22 -15 -34 0 -11 -9 -32 -20 -46 -11 -14 -20 -31 -20 -38 0 -7 -13 -33 -30 -57 -16 -24 -30 -47 -30 -50 0 -4 -20 -36 -45 -72 -25 -35 -45 -67 -45 -71 0 -5 -7 -17 -15 -27 -8 -11 -33 -45 -55 -75 -22 -30 -44 -60 -50 -67 -5 -7 -10 -16 -10 -20 -1 -4 -14 -24 -30 -43 -17 -19 -30 -40 -30 -47 0 -7 -4 -13 -9 -13 -5 0 -11 -8 -15 -17 -3 -10 -24 -43 -47 -73 -22 -30 -58 -82 -79 -115 -22 -33 -48 -70 -60 -82 -11 -12 -20 -26 -20 -31 0 -5 -16 -30 -35 -55 -19 -25 -35 -53 -35 -61 0 -9 -3 -16 -8 -16 -4 0 -16 -16 -26 -34 -10 -19 -29 -45 -42 -57 -13 -12 -24 -29 -24 -36 0 -8 -9 -24 -20 -36 -12 -12 -33 -42 -47 -67 -14 -25 -30 -47 -34 -50 -4 -3 -11 -18 -14 -33 -4 -15 -11 -27 -16 -27 -5 0 -9 -6 -9 -14 0 -8 -6 -16 -12 -18 -7 -3 -13 -15 -13 -28 0 -15 -9 -29 -22 -36 -13 -6 -20 -13 -17 -16 4 -5 -26 -66 -46 -93 -4 -5 -10 -22 -14 -38 -3 -15 -11 -27 -16 -27 -6 0 -10 -11 -10 -24 0 -14 -4 -28 -10 -31 -5 -3 -10 -17 -10 -29 0 -13 -7 -29 -15 -36 -8 -7 -15 -23 -15 -35 0 -25 -59 -145 -84 -170 -9 -9 -16 -31 -16 -48 0 -18 -9 -45 -20 -62 -11 -16 -20 -43 -20 -58 0 -25 -2 -27 -20 -17 -11 6 -20 17 -20 26 0 8 -7 26 -16 39 -15 23 -14 26 8 47 20 19 23 29 18 61 -10 53 -22 63 -54 42 -14 -10 -26 -16 -27 -14 -1 2 -3 22 -5 44 -1 22 -5 56 -8 75 -6 46 1 56 47 64 21 4 37 13 37 21 0 7 5 15 12 17 15 5 13 65 -3 84 -7 9 -21 13 -31 11 -20 -6 -36 11 -21 22 5 3 13 21 17 40 7 40 32 71 56 71 37 0 52 48 26 83 -14 18 -11 57 4 57 5 0 21 26 35 58 70 150 77 160 101 166 18 5 24 13 24 34 0 15 -5 33 -11 39 -11 11 13 160 33 197 14 26 -54 96 -94 96 -15 0 -28 -4 -28 -8 0 -4 -13 -16 -30 -25 -21 -13 -30 -26 -30 -44 0 -17 -7 -27 -20 -30 -24 -6 -37 -48 -20 -67 6 -8 25 -18 41 -21 31 -7 47 -24 32 -34 -6 -3 -10 -13 -11 -21 0 -8 -3 -24 -6 -35 -2 -11 -5 -23 -5 -26 -1 -4 -21 -10 -46 -14 -33 -4 -50 -13 -62 -32 -17 -25 -17 -26 20 -57 20 -17 37 -36 37 -42 0 -6 -20 -37 -45 -68 -25 -32 -46 -63 -47 -70 0 -6 -2 -15 -2 -21 -4 -27 -18 -33 -74 -28 -51 4 -58 2 -70 -17 -18 -30 -8 -52 38 -81 31 -19 39 -28 34 -44 -3 -11 -11 -40 -17 -65 -12 -49 -39 -86 -56 -76 -12 8 -31 -24 -31 -51 0 -11 13 -29 30 -41 27 -20 29 -26 27 -82 l-1 -59 -32 5 c-26 4 -36 0 -48 -18 -31 -44 -14 -72 74 -121 36 -20 53 -39 82 -93 20 -38 42 -76 50 -84 7 -8 12 -20 10 -27 -2 -7 4 -23 13 -35 19 -29 19 -52 -1 -73 -9 -8 -14 -22 -11 -30 3 -7 -1 -19 -10 -26 -8 -7 -19 -22 -24 -34 -5 -11 -13 -27 -18 -35 -14 -22 -24 -53 -22 -66 1 -7 -5 -14 -13 -17 -7 -3 -16 -18 -20 -34 -9 -36 -49 -113 -58 -113 -5 0 -8 -7 -8 -15 0 -8 -3 -15 -8 -15 -4 0 -23 -23 -41 -52 -19 -28 -82 -101 -141 -162 -59 -61 -122 -128 -142 -148 -44 -48 -119 -88 -163 -88 -19 0 -37 -4 -40 -10 -3 -5 -18 -10 -33 -10 -15 0 -54 -10 -87 -21 -125 -43 -220 -60 -375 -67 -222 -10 -450 -5 -466 10 -4 5 -20 8 -36 8 -32 0 -115 18 -140 31 -10 5 -27 9 -37 9 -23 0 -69 18 -91 36 -8 6 -55 28 -103 48 -49 20 -101 44 -115 54 -37 23 -167 135 -225 194 -26 26 -53 48 -58 48 -11 0 -65 60 -63 69 1 3 -9 19 -22 34 -13 16 -24 33 -24 37 0 5 -16 25 -36 45 -19 20 -43 57 -51 83 -9 26 -25 57 -36 69 -11 13 -17 23 -13 23 5 0 3 7 -5 16 -20 24 -45 389 -27 400 4 3 8 27 8 53 0 33 6 56 19 73 12 15 16 29 11 37 -4 7 -5 22 -3 32 3 11 1 25 -5 32 -6 8 -6 20 1 37 5 14 11 32 12 40 14 83 46 214 55 225 6 7 7 21 3 30 -4 13 -3 16 5 11 8 -5 12 1 12 18 0 14 4 26 10 26 5 0 13 12 16 27 4 16 26 54 48 87 23 32 51 74 64 92 12 19 27 34 33 34 14 0 89 61 89 73 0 5 22 35 50 67 27 32 50 61 50 64 0 6 24 30 101 103 19 17 40 37 47 45 7 7 25 25 40 40 15 14 36 37 47 50 11 13 28 27 38 31 9 3 17 13 17 21 0 9 9 20 20 26 11 6 45 45 76 88 31 42 73 93 94 112 20 19 39 40 41 46 2 7 30 39 61 73 32 34 68 75 80 91 12 17 27 30 33 30 7 0 29 22 51 50 21 27 43 49 47 50 5 0 21 13 35 28 15 15 61 55 102 89 41 33 84 70 94 82 11 11 23 21 28 21 13 0 146 113 147 125 1 6 16 26 35 45 18 19 37 46 41 60 4 14 12 31 18 38 14 18 41 66 83 152 21 41 41 77 45 80 4 3 11 19 15 35 4 17 22 61 40 99 19 37 34 74 34 81 0 7 6 16 13 19 9 5 9 7 -1 12 -8 4 -9 10 -4 17 5 7 14 39 21 72 7 33 18 65 23 72 5 7 7 16 4 22 -3 5 1 22 9 37 8 16 15 38 15 49 0 11 7 31 16 43 8 12 13 26 9 31 -3 5 -1 12 4 15 5 3 12 23 16 43 7 42 32 96 71 158 13 22 29 51 36 65 34 77 55 114 76 130 12 10 22 20 22 23 0 3 20 26 45 51 25 26 45 51 45 56 0 6 6 10 14 10 8 0 17 8 20 18 3 9 23 28 43 42 21 13 61 43 89 66 68 57 130 90 184 99 50 8 132 31 170 48 14 6 41 12 60 14 19 2 46 11 59 20 19 12 58 17 155 21 72 2 132 5 134 7 2 2 78 2 170 0 122 -2 181 -7 217 -19z"
       id="path4" />
    <path
       d="M4153 5813 c-13 -2 -23 -9 -23 -14 0 -5 -18 -12 -40 -15 -22 -4 -43 -11 -46 -15 -3 -5 -14 -9 -25 -9 -11 0 -17 -4 -14 -10 3 -5 3 -10 -2 -10 -26 -1 -203 -174 -203 -200 0 -6 -5 -10 -10 -10 -24 0 -103 -106 -105 -142 -1 -10 -11 -26 -23 -34 -12 -8 -22 -22 -22 -30 0 -22 -30 -76 -52 -96 -11 -9 -18 -18 -17 -20 4 -4 -21 -34 -73 -91 -20 -22 -35 -44 -32 -49 8 -12 -16 -39 -27 -32 -5 3 -9 1 -9 -4 0 -14 -78 -92 -92 -92 -6 0 -9 -3 -5 -6 7 -7 -49 -64 -63 -64 -5 0 -17 -11 -26 -25 -9 -14 -20 -22 -25 -20 -11 7 -139 -123 -139 -141 0 -8 -4 -14 -10 -14 -5 0 -12 -16 -16 -35 -3 -19 -9 -35 -13 -35 -8 0 -31 -78 -38 -130 -12 -84 -8 -247 7 -276 26 -50 110 -153 138 -168 80 -43 97 -48 167 -43 38 3 71 10 73 16 2 6 13 11 25 11 75 0 259 60 295 97 7 7 20 13 28 13 8 0 14 5 14 10 0 6 5 10 11 10 12 0 44 30 32 30 -4 1 3 7 17 14 31 17 52 80 76 221 24 148 47 218 79 245 8 7 15 16 15 21 0 16 81 104 195 211 76 71 199 228 179 228 -4 0 0 8 8 18 9 9 19 35 23 57 5 22 10 49 12 60 3 11 5 25 7 30 1 6 5 16 10 24 14 22 12 249 -2 263 -7 7 -12 20 -12 30 0 27 -53 116 -102 171 -36 40 -50 49 -83 52 -22 2 -50 1 -62 -2z m87 -139 c22 -20 40 -41 40 -46 0 -6 8 -22 19 -36 24 -35 41 -176 29 -249 -5 -30 -6 -58 -3 -64 4 -5 2 -9 -4 -9 -6 0 -13 -17 -17 -37 -7 -41 -73 -173 -86 -173 -4 0 -8 -4 -8 -10 0 -13 -24 -41 -85 -101 -140 -137 -245 -245 -245 -252 0 -4 -9 -17 -20 -29 -38 -41 -61 -98 -64 -161 -2 -34 -6 -69 -9 -77 -3 -8 -8 -31 -10 -50 -6 -44 -11 -62 -19 -75 -3 -5 -9 -24 -12 -42 -5 -21 -16 -35 -34 -42 -31 -12 -58 -29 -86 -54 -11 -10 -26 -15 -33 -13 -7 3 -15 1 -18 -3 -3 -5 -61 -8 -129 -6 -68 1 -128 -1 -133 -4 -4 -3 -13 -15 -19 -26 -21 -37 -64 -28 -112 23 -47 50 -67 88 -77 145 -21 125 10 269 75 352 36 46 186 191 206 200 25 11 124 100 124 110 0 9 64 99 104 146 54 63 66 79 66 88 0 5 7 14 15 21 8 7 20 30 25 52 6 21 18 42 26 45 7 3 14 10 14 15 0 10 63 101 87 126 7 7 13 17 13 21 0 5 27 36 59 70 33 34 62 68 65 76 3 8 13 15 21 15 9 0 13 5 10 10 -3 6 2 10 11 10 10 0 27 9 38 19 17 16 98 47 128 50 5 1 26 -15 48 -35z"
       id="path6" />
    <path
       d="M3681 4881 c-8 -5 -20 -7 -28 -4 -7 3 -13 0 -13 -6 0 -7 -17 -30 -37 -53 -21 -22 -37 -45 -36 -52 2 -6 -7 -13 -19 -13 -13 -1 -27 -8 -33 -15 -5 -7 -17 -13 -25 -13 -9 0 -16 -11 -18 -30 -2 -16 -10 -33 -17 -38 -8 -4 -12 -14 -9 -22 4 -8 1 -15 -5 -15 -6 0 -11 -5 -11 -11 0 -7 -6 -17 -14 -23 -8 -6 -18 -31 -21 -56 -5 -38 -3 -50 16 -73 30 -40 62 -50 96 -32 15 8 36 15 45 15 9 0 30 11 46 25 17 14 34 25 39 25 12 0 79 71 86 93 4 9 11 17 17 17 5 0 10 8 10 19 0 10 6 24 14 30 13 11 22 48 29 128 5 49 -31 107 -68 111 -17 1 -36 -2 -44 -7z"
       id="path8" />
    <path
       d="M4823 5297 c-24 -6 -43 -14 -43 -19 0 -4 -10 -8 -23 -8 -12 0 -29 -9 -37 -21 -8 -11 -25 -32 -38 -46 -27 -29 -52 -86 -58 -130 -2 -17 -14 -56 -27 -85 -26 -56 -40 -90 -41 -98 -1 -3 -16 -25 -33 -50 -18 -25 -48 -67 -68 -95 -20 -27 -56 -72 -80 -99 -25 -27 -45 -53 -45 -57 0 -4 -22 -32 -50 -62 -27 -30 -79 -99 -116 -153 -36 -54 -74 -108 -84 -119 -9 -11 -25 -42 -35 -70 -10 -27 -23 -54 -30 -60 -6 -5 -19 -35 -29 -65 -10 -30 -23 -58 -30 -62 -6 -4 -11 -36 -11 -80 0 -64 4 -80 33 -129 46 -81 119 -131 187 -129 17 1 77 1 134 1 97 -1 107 -3 130 -25 23 -21 31 -23 75 -16 27 4 55 15 61 24 7 9 16 16 21 16 5 0 20 16 33 35 13 19 27 35 32 35 16 0 50 61 54 97 7 75 26 176 35 194 6 10 10 32 10 50 0 33 53 215 75 259 7 14 38 78 70 142 31 64 65 124 76 134 10 9 19 24 19 33 0 9 7 26 15 38 21 31 61 158 79 257 19 101 14 168 -19 241 -54 120 -118 152 -242 122z m141 -140 c51 -63 52 -200 4 -357 -12 -41 -36 -99 -49 -120 -5 -8 -13 -25 -19 -37 -5 -13 -14 -23 -20 -23 -5 0 -10 -9 -10 -19 0 -11 -6 -26 -13 -33 -23 -24 -89 -143 -92 -164 -1 -12 -12 -35 -23 -52 -12 -16 -22 -39 -22 -50 0 -12 -4 -24 -10 -27 -5 -3 -10 -16 -10 -28 0 -12 -7 -31 -15 -41 -8 -11 -15 -30 -15 -41 0 -12 -7 -36 -16 -53 -16 -32 -46 -188 -48 -252 -1 -19 -9 -46 -18 -59 -15 -21 -20 -22 -64 -13 -29 6 -56 7 -71 1 -14 -5 -29 -6 -35 -3 -6 4 -14 1 -18 -6 -17 -27 -198 -39 -255 -17 -70 27 -87 50 -92 127 -4 44 1 70 21 120 14 35 26 68 26 74 0 6 23 45 51 86 28 41 53 87 56 102 3 16 12 28 19 28 8 0 14 8 14 18 0 10 15 32 33 49 17 17 52 54 77 83 25 28 57 66 73 82 15 17 27 37 27 43 0 7 16 27 35 44 19 17 35 35 35 40 0 5 11 18 25 29 14 11 25 25 25 31 0 6 5 11 10 11 6 0 10 6 10 14 0 7 11 25 25 40 14 15 25 32 25 37 0 6 11 35 25 65 14 30 34 83 46 117 11 34 28 73 37 87 9 14 21 34 27 44 10 20 17 24 74 49 50 22 81 15 115 -26z"
       id="path10" />
    <path
       d="M4375 4361 c-14 -9 -25 -22 -25 -30 0 -8 -8 -24 -19 -35 -21 -23 -61 -131 -61 -164 0 -11 -5 -24 -11 -28 -7 -4 -9 -23 -5 -52 8 -61 55 -112 103 -112 18 0 33 5 33 11 0 5 8 9 18 8 9 -2 27 2 39 9 24 14 83 96 83 117 0 8 4 16 9 19 5 3 12 27 16 53 4 27 12 54 17 61 19 22 -11 89 -57 126 -46 38 -95 44 -140 17z"
       id="path12" />
    <path
       d="M3363 3786 c-32 -33 -29 -50 20 -104 69 -75 95 -148 98 -267 4 -147 0 -198 -16 -219 -14 -19 -16 -19 -97 -1 -46 10 -101 26 -123 35 -22 10 -81 34 -132 55 -50 20 -102 47 -114 58 -26 24 -89 28 -114 7 -47 -39 29 -108 150 -136 6 -1 48 -20 95 -42 106 -50 159 -72 168 -70 4 1 14 -1 22 -5 43 -16 125 -24 160 -15 62 16 98 54 104 113 3 28 8 64 10 80 7 41 8 137 3 216 -6 118 -115 298 -187 313 -17 3 -32 -3 -47 -18z"
       id="path14" />
    <path
       d="M2107 3016 c-21 -6 -35 -15 -31 -19 4 -4 -3 -7 -15 -7 -12 0 -20 -4 -16 -9 3 -5 -9 -11 -26 -13 -21 -2 -33 -9 -35 -20 -1 -10 -9 -24 -17 -33 -9 -8 -21 -32 -27 -52 -7 -21 -17 -43 -22 -50 -12 -15 -27 -74 -33 -131 -3 -23 -12 -53 -21 -67 -9 -14 -13 -32 -10 -41 4 -9 2 -22 -4 -29 -6 -7 -9 -17 -8 -21 4 -13 -28 -55 -35 -47 -4 3 -7 -1 -7 -11 0 -9 -7 -19 -15 -22 -8 -4 -15 -12 -15 -20 0 -8 -3 -14 -7 -14 -10 0 -83 -67 -83 -75 0 -4 -14 -21 -30 -38 -17 -18 -54 -57 -82 -87 -29 -30 -52 -59 -50 -63 4 -13 -18 -48 -27 -42 -10 6 -21 -18 -21 -45 0 -9 -7 -23 -15 -30 -8 -7 -15 -27 -15 -46 0 -18 -5 -36 -11 -39 -6 -4 -9 -20 -7 -36 2 -18 -3 -33 -12 -39 -13 -8 -15 -41 -14 -202 0 -177 2 -197 22 -238 52 -106 151 -207 223 -229 24 -7 49 -17 54 -21 28 -21 179 -55 289 -64 33 -3 62 -9 65 -14 3 -4 22 -14 41 -22 19 -8 37 -16 40 -20 3 -3 25 -18 49 -34 24 -16 68 -47 97 -70 119 -93 144 -110 195 -132 73 -31 139 -32 170 0 36 35 63 46 114 46 62 0 131 40 153 89 10 20 25 45 35 56 9 10 23 36 29 57 7 23 17 38 27 38 9 0 22 9 29 20 7 11 21 20 32 20 10 0 24 8 29 18 10 18 4 70 -9 87 -10 13 3 90 19 108 6 8 8 16 5 19 -3 4 1 19 9 35 33 65 30 318 -4 385 -5 10 -9 25 -9 34 0 25 -58 134 -97 182 -20 24 -61 60 -92 80 -158 103 -348 268 -406 352 -28 41 -30 50 -32 149 -6 267 -7 278 -26 299 -10 11 -30 23 -44 27 -14 3 -40 17 -58 31 -17 13 -36 24 -42 24 -5 0 -27 9 -49 19 -54 26 -102 32 -147 17z m133 -121 c9 -8 23 -15 31 -15 9 0 24 -6 34 -14 16 -11 17 -17 7 -28 -9 -11 -10 -29 -3 -64 4 -27 8 -61 7 -75 -1 -31 -73 -102 -94 -94 -8 3 -20 1 -26 -3 -34 -27 -116 -13 -186 30 -21 13 -28 58 -9 58 5 0 8 4 5 8 -3 5 6 32 20 61 13 29 24 59 24 66 0 7 13 23 30 36 16 13 30 29 30 36 0 26 100 25 130 -2z m146 -389 c3 -14 3 -30 -1 -35 -11 -18 27 -82 91 -155 61 -68 69 -86 38 -86 -8 0 -14 -4 -14 -10 0 -5 -8 -18 -17 -28 -10 -10 -24 -29 -31 -42 -12 -24 -53 -50 -78 -50 -31 0 -92 45 -119 88 -25 39 -30 59 -32 116 -2 62 0 72 22 94 14 14 25 29 25 34 0 24 76 96 102 98 4 0 10 -11 14 -24z m-324 -58 c14 -16 17 -34 14 -91 -4 -87 -34 -148 -67 -140 -14 4 -22 0 -25 -15 -4 -14 -19 -23 -52 -30 -26 -6 -63 -15 -82 -19 -49 -12 -150 14 -150 39 0 6 48 59 108 118 134 135 152 156 144 165 -4 4 16 4 43 0 31 -4 57 -14 67 -27z m635 -330 c38 -37 42 -69 12 -89 -11 -8 -24 -30 -28 -49 -4 -21 -13 -35 -21 -35 -9 0 -14 -9 -13 -21 3 -27 -133 -198 -149 -188 -5 3 -8 0 -8 -5 0 -23 -26 -10 -49 24 -19 29 -23 44 -19 84 8 84 120 251 168 251 7 0 10 7 6 16 -3 8 0 21 7 29 21 24 59 17 94 -17z m-908 -126 c98 -49 122 -71 114 -102 -6 -24 -98 -69 -147 -72 -20 -2 -36 -6 -36 -10 0 -4 -7 -5 -15 -2 -8 4 -23 3 -32 -1 -26 -11 -140 -17 -146 -8 -6 10 11 132 23 158 5 11 14 36 21 56 l12 35 56 -3 c42 -3 80 -16 150 -51z m1126 -34 c42 -50 75 -119 99 -205 25 -91 16 -255 -19 -360 -32 -95 -40 -105 -63 -77 -9 11 -38 28 -63 38 -55 20 -109 79 -109 120 0 7 -11 21 -25 30 -18 12 -25 25 -25 49 0 17 -2 51 -6 73 -4 31 0 54 15 89 12 26 21 56 21 66 0 10 20 57 45 103 25 47 45 93 45 101 0 31 47 16 85 -27z m-976 -274 c14 -7 29 -11 33 -8 15 10 58 -6 58 -20 0 -8 -12 -28 -27 -44 -16 -16 -42 -46 -59 -68 -18 -21 -44 -53 -58 -70 -14 -18 -26 -37 -26 -43 0 -6 -14 -11 -31 -11 -23 0 -30 -4 -28 -17 4 -24 -18 -63 -36 -63 -8 0 -17 -11 -21 -25 -8 -32 -26 -32 -81 1 -61 36 -137 159 -145 234 -4 46 3 91 15 89 6 -2 26 0 42 4 47 11 78 18 105 22 14 2 45 9 70 15 111 29 140 29 189 4z m393 -180 c51 -30 64 -56 42 -78 -8 -8 -14 -24 -14 -37 0 -22 -120 -149 -140 -149 -6 0 -18 -4 -28 -9 -26 -14 -56 -24 -65 -22 -5 1 -29 3 -55 6 -166 14 -169 15 -169 46 0 18 6 29 14 29 7 0 13 4 13 8 0 4 14 16 30 25 17 10 30 24 30 30 0 7 9 20 20 30 12 10 18 22 14 28 -9 16 56 79 82 79 15 0 24 8 28 26 7 25 8 25 79 21 57 -4 83 -11 119 -33z m318 -255 c28 -17 55 -39 60 -49 12 -23 13 -77 2 -84 -5 -3 -9 -26 -10 -52 0 -26 -6 -52 -14 -60 -17 -17 -102 -21 -122 -5 -18 15 -65 12 -88 -7 -27 -22 -71 -6 -148 54 -69 54 -69 55 -50 74 11 11 22 20 25 20 2 0 25 22 51 50 32 34 57 52 81 56 19 4 37 12 40 20 2 7 10 11 17 8 7 -3 23 0 37 5 32 14 60 6 119 -30z"
       id="path16" />
  </g>
  <path
     style="fill:#ffffff;stroke-width:0"
     d="m 273.28295,819.20869 c -23.50623,-4.81147 -31.51794,-7.08155 -40.35659,-11.43481 -4.08876,-2.01383 -12.93004,-6.31255 -19.64729,-9.55272 -9.98336,-4.81562 -14.05521,-7.54384 -22.30233,-14.94301 -5.54903,-4.97848 -14.49002,-12.90437 -19.86888,-17.61308 -6.24837,-5.46989 -11.59836,-11.32109 -14.81623,-16.20427 -2.77007,-4.20363 -6.78495,-9.79355 -8.92194,-12.42204 -2.137,-2.62849 -6.31141,-9.81986 -9.27647,-15.98084 -6.44177,-13.38506 -7.8979,-21.76126 -8.02225,-46.14707 -0.0904,-17.72757 1.16573,-28.4001 3.81239,-32.39147 1.44957,-2.18605 1.59636,-3.78059 0.831,-9.02713 -0.98592,-6.7585 0.25198,-13.95204 6.03096,-35.04651 1.44019,-5.25698 2.698,-10.63343 2.79513,-11.94768 0.0971,-1.31424 0.53503,-2.38953 0.97312,-2.38953 0.43808,0 0.79651,-0.56632 0.79651,-1.2585 0,-2.37903 7.71914,-16.2771 14.34265,-25.8235 4.72446,-6.80932 8.20195,-10.57598 12.08996,-13.09532 3.00184,-1.94513 6.28746,-4.71184 7.3014,-6.14825 7.73224,-10.95405 21.83558,-26.98648 36.78957,-41.82172 22.60251,-22.42302 23.62298,-23.51011 30.40662,-32.39147 3.12303,-4.08876 8.33465,-10.36077 11.58138,-13.93779 3.24673,-3.57703 9.48745,-10.6703 13.86826,-15.76284 17.8255,-20.72147 34.64164,-36.16599 72.30979,-66.41178 4.72842,-3.7967 9.08879,-7.85891 9.68971,-9.02713 0.60092,-1.16821 2.45893,-3.57015 4.12891,-5.33764 1.66999,-1.7675 4.42072,-5.82971 6.11276,-9.02714 4.23278,-7.99866 17.60731,-32.97071 19.04478,-35.55918 0.64595,-1.16314 3.88758,-8.56654 7.20365,-16.45201 3.31607,-7.88546 6.56742,-14.69564 7.22523,-15.13372 0.88152,-0.58706 0.87221,-1.00682 -0.0354,-1.59631 -0.90262,-0.58624 -0.52315,-3.35108 1.42116,-10.35465 1.45891,-5.25516 3.06384,-11.22753 3.56649,-13.27191 2.06466,-8.39732 4.12218,-14.80601 5.78722,-18.02583 0.97038,-1.87653 1.4943,-3.68191 1.16423,-4.01196 -0.33005,-0.33006 -0.18403,-1.12199 0.3245,-1.75984 0.50853,-0.63786 1.73077,-4.02717 2.71611,-7.53182 0.98532,-3.50465 4.80328,-11.86803 8.48432,-18.58527 3.68105,-6.71725 7.82914,-14.54891 9.21798,-17.40369 2.14372,-4.40643 12.7085,-17.10782 24.95266,-29.99902 5.07097,-5.33896 29.44379,-23.23873 34.27413,-25.17145 2.43078,-0.9726 6.67918,-2.25079 9.44089,-2.84041 5.44701,-1.16293 22.36188,-6.02442 35.66406,-10.25018 7.24222,-2.30068 11.61583,-2.80042 33.21599,-3.79531 33.51545,-1.54371 52.22699,-0.26396 65.70707,4.49397 5.25698,1.8555 15.51152,6.31943 22.78789,9.91986 14.51058,7.18 20.26302,11.84508 37.747,30.61185 13.10052,14.0617 23.27212,33.35183 25.35996,48.09435 l 0.59352,4.19097 -2.87859,-2.87858 c -1.58322,-1.58322 -5.03322,-6.08424 -7.66666,-10.00226 -4.21402,-6.2696 -5.40477,-7.31246 -9.93179,-8.69824 -5.06063,-1.54913 -6.88455,-3.20957 -11.64286,-10.59922 -1.72459,-2.67831 -3.64198,-3.99751 -7.38196,-5.07895 -3.93385,-1.1375 -5.6722,-2.3977 -7.8528,-5.69279 -4.49327,-6.7898 -10.07494,-6.93586 -17.25238,-0.45147 -2.24648,2.02956 -5.13991,3.6901 -6.42984,3.6901 -2.25093,0 -2.31601,-0.27396 -1.61659,-6.80514 0.67622,-6.31437 0.55927,-6.89585 -1.62167,-8.06305 -1.44112,-0.77126 -4.25827,-1.00354 -7.28183,-0.60039 -9.90014,1.32002 -12.06249,1.20174 -13.29303,-0.72716 -0.88754,-1.39124 -0.85129,-2.32581 0.14415,-3.71705 3.12641,-4.36949 3.81699,-6.72704 2.81232,-9.60093 -1.34207,-3.83902 -5.97363,-4.42509 -10.21122,-1.2921 -3.70367,2.73823 -5.46295,1.7798 -7.89634,-4.30184 -2.48298,-6.20558 -10.40586,-8.50747 -13.5976,-3.95061 -1.90523,2.7201 -2.17423,6.75047 -0.51883,7.77356 0.62393,0.38561 0.86626,1.3999 0.53853,2.25398 -0.76514,1.99393 1.60862,6.54503 5.12925,9.83407 3.47212,3.24372 3.4799,4.32844 0.0311,4.32844 -4.4266,0 -6.83328,1.86217 -6.83328,5.28723 0,4.50092 3.35221,6.39494 11.31833,6.39494 9.46619,0 12.04601,1.21007 12.04601,5.6502 0,4.389 2.72268,7.09399 7.14036,7.09399 4.71002,0 17.58816,4.12281 19.14452,6.12893 0.73014,0.94113 1.32752,2.79775 1.32752,4.12583 0,1.32808 0.9244,2.90942 2.05421,3.51408 2.6892,1.43921 8.56594,1.41623 8.56594,-0.0335 0,-1.88355 5.45772,-8.42526 7.02916,-8.42526 0.80683,0 2.41194,0.94497 3.56691,2.09994 2.20002,2.20002 1.89553,5.15306 -0.69234,6.71446 -4.22944,2.55184 0.87828,12.42591 6.42776,12.42591 2.97121,0 9.15689,-4.72697 9.15689,-6.99751 0,-2.17256 1.6019,-1.84585 4.91267,1.00195 2.74205,2.35861 2.82695,2.69406 1.49539,5.90873 -1.26402,3.0516 -1.18909,3.70661 0.71623,6.26105 2.52706,3.38801 5.01127,4.06856 8.34288,2.28554 3.37358,-1.80549 5.3147,-0.77764 7.82534,4.14363 1.1815,2.31592 4.60289,6.99879 7.60309,10.40639 7.46056,8.47364 8.01541,9.90263 6.00168,15.45701 -0.90625,2.49966 -1.8971,6.93437 -2.20188,9.85491 -1.06978,10.25069 -9.46105,46.78552 -11.97574,52.14124 -1.39775,2.9769 -2.54137,6.20277 -2.54137,7.1686 0,0.96583 -0.71686,1.75605 -1.59302,1.75605 -1.02814,0 -1.59551,1.03563 -1.60002,2.92055 -0.004,1.6063 -0.95613,4.35426 -2.11617,6.10659 -1.16005,1.75232 -2.41213,5.44776 -2.7824,8.21208 -0.37028,2.76434 -1.32963,5.57082 -2.1319,6.23664 -0.80226,0.66582 -1.45866,1.95077 -1.45866,2.85544 0,0.90468 -0.64108,2.39936 -1.42464,3.32152 -0.78355,0.92215 -2.98766,6.08318 -4.898,11.46896 -1.91036,5.38576 -4.10599,10.31733 -4.87919,10.95904 -0.7732,0.6417 -1.73492,2.6869 -2.13715,4.5449 -0.40223,1.85798 -1.62771,4.64671 -2.7233,6.19714 -1.09559,1.55044 -1.99198,3.22547 -1.99198,3.72229 0,1.20651 -12.28821,22.34812 -15.33365,26.38121 -1.32319,1.75233 -3.24353,4.81226 -4.26741,6.79984 -1.02388,1.98759 -5.05981,7.96142 -8.96874,13.2752 -3.90893,5.31377 -11.41157,16.11314 -16.67254,23.9986 -5.26096,7.88547 -13.40964,19.87344 -18.10816,26.63994 -16.44158,23.67802 -21.4591,31.20202 -22.34204,33.50291 -1.00923,2.63002 -9.44609,14.63272 -11.46094,16.30489 -0.88768,0.73671 -1.61396,1.84199 -1.61396,2.45617 0,0.61419 -3.53825,6.41003 -7.86276,12.87966 -4.32452,6.46962 -8.17998,12.83824 -8.56769,14.15248 -0.38772,1.31425 -1.15064,2.38954 -1.69539,2.38954 -0.54474,0 -0.99044,0.65834 -0.99044,1.46299 0,0.80463 -0.71686,2.05792 -1.59303,2.78507 -0.87616,0.72715 -1.59302,2.21939 -1.59302,3.31608 0,1.0967 -1.01114,3.00514 -2.24698,4.24098 -2.33881,2.33881 -11.54069,19.69025 -11.55248,21.78384 -0.003,0.6586 -0.7236,1.79241 -1.59976,2.51956 -0.87617,0.72715 -1.59303,2.43014 -1.59303,3.78442 0,1.35427 -0.47791,2.75768 -1.06201,3.11868 -0.58411,0.361 -1.06202,1.71659 -1.06202,3.01242 0,1.29583 -0.65943,3.29874 -1.46539,4.45089 -0.80597,1.15216 -2.67654,5.57933 -4.15683,9.83815 -1.48031,4.25882 -4.69071,10.93193 -7.13425,14.82913 -2.44354,3.89722 -4.715,8.7761 -5.04768,10.84197 -0.33268,2.06586 -1.71515,6.14566 -3.07216,9.0662 -1.357,2.92055 -2.47195,6.18624 -2.47765,7.25711 -0.0117,2.19481 -2.14921,1.91673 -3.20706,-0.41722 -0.38136,-0.84139 -1.48855,-3.11783 -2.46042,-5.05875 -1.7243,-3.44355 -1.70053,-3.61615 0.98229,-7.1335 2.30412,-3.02085 2.63484,-4.28232 2.04225,-7.78978 -0.3889,-2.30187 -1.35077,-5.0655 -2.13749,-6.1414 -1.25835,-1.7209 -1.8475,-1.79878 -4.89774,-0.64744 -1.90704,0.71982 -3.566,1.1976 -3.68657,1.06174 -0.12058,-0.13587 -0.65766,-4.21451 -1.19352,-9.06364 -1.12914,-10.21774 -0.29349,-12.3249 5.30419,-13.37503 9.65644,-1.81155 11.25181,-18.69596 1.76654,-18.69596 h -3.10864 l 1.67709,-3.98256 c 4.20752,-9.9915 5.19965,-11.41831 8.73447,-12.56132 5.62997,-1.82049 6.92227,-5.63123 3.88474,-11.45543 -2.03122,-3.89469 -1.99922,-5.38257 0.1542,-7.16975 0.95737,-0.79455 4.51322,-7.3107 7.90188,-14.48035 4.79879,-10.15316 6.8803,-13.44378 9.41321,-14.88113 4.11212,-2.33351 4.90102,-4.79749 3.193,-9.97284 -1.17551,-3.56183 -1.0493,-5.54838 0.95186,-14.98171 1.26889,-5.98145 2.602,-11.97479 2.96247,-13.31851 0.95346,-3.55424 -7.83345,-11.89408 -12.53167,-11.89408 -4.42141,0 -12.05751,6.2021 -12.91503,10.48968 -0.37606,1.8803 -1.50011,3.42213 -2.79433,3.8329 -2.25172,0.71467 -3.68113,4.2782 -3.06069,7.63025 0.19775,1.06839 2.51013,2.97409 5.13862,4.2349 2.62849,1.26082 4.75418,2.69454 4.72374,3.18605 -0.14445,2.33317 -1.91577,9.58095 -2.72565,11.15263 -0.49961,0.96956 -2.84283,2.08966 -5.20715,2.48911 -4.33025,0.73159 -10.59714,5.00289 -10.59714,7.22264 0,0.65815 2.13793,3.3672 4.75096,6.02012 l 4.75095,4.82348 -6.34398,8.87489 c -3.48918,4.8812 -6.34398,9.99832 -6.34398,11.37137 0,3.57659 -3.15932,4.84175 -10.06408,4.03024 -4.83801,-0.56862 -6.2818,-0.35005 -8.00816,1.21228 -3.75104,3.39464 -2.72322,7.302 3.24441,12.33399 5.8936,4.96954 5.91436,5.10733 2.38057,15.79315 -1.8682,5.64921 -4.14551,8.49612 -6.79625,8.49612 -1.05714,0 -2.41679,0.9244 -3.02145,2.05422 -2.00342,3.74343 -1.21113,6.97894 2.61768,10.68997 3.5387,3.42984 3.71705,3.95327 3.71705,10.90852 v 7.30582 l -2.92054,-0.19258 c -5.68113,-0.37459 -6.69023,0.0708 -8.43109,3.72142 -2.50577,5.25466 -0.9048,7.95012 8.35534,14.06744 7.00902,4.63021 8.3074,6.08515 14.37768,16.11143 3.67008,6.06188 6.67287,11.82201 6.67287,12.80027 0,0.97828 0.70167,2.70637 1.55925,3.8402 0.85758,1.13383 1.55925,3.25628 1.55925,4.71655 0,1.46027 -0.70167,3.58272 -1.55925,4.71655 -0.85758,1.13383 -1.55925,3.10641 -1.55925,4.38352 0,1.27711 -0.75585,2.94933 -1.67968,3.71603 -2.21655,1.83957 -7.87846,13.12105 -7.87846,15.69799 0,1.11336 -0.66897,2.57948 -1.48661,3.25806 -0.81763,0.67858 -2.56887,3.96297 -3.89163,7.29864 -1.32277,3.33568 -3.76019,8.11993 -5.4165,10.63167 -1.65629,2.51174 -3.01146,4.98093 -3.01146,5.48708 0,0.50615 -0.36338,1.07958 -0.80751,1.27429 -0.44414,0.19469 -3.97302,4.41621 -7.84197,9.38113 -3.86895,4.96492 -14.51138,16.76279 -23.64984,26.21749 -13.29605,13.75615 -17.91606,17.8403 -23.12611,20.4438 -3.58089,1.78939 -7.68449,3.25344 -9.1191,3.25344 -1.4346,0 -4.8231,0.68856 -7.52999,1.53013 -10.78874,3.35421 -31.7992,9.02792 -37.31307,10.07608 -18.46405,3.50996 -75.33519,4.48128 -89.74031,1.53271 z m 78.89869,-15.11925 c 4.85435,-3.93086 11.14077,-6.46689 16.15169,-6.5158 4.55755,-0.0445 11.32512,-2.53848 14.97152,-5.51732 2.35102,-1.9206 11.41884,-16.23556 13.79315,-21.77461 1.07707,-2.51269 2.60884,-4.56853 3.40394,-4.56853 0.7951,0 2.56806,-1.19477 3.93992,-2.65504 1.37186,-1.46027 3.27121,-2.65504 4.22078,-2.65504 4.29161,0 5.40228,-5.31414 2.99322,-14.32141 -1.3357,-4.994 -0.75982,-7.90189 4.31465,-21.78712 1.37902,-3.77343 1.74654,-8.80159 1.74654,-23.89535 0,-22.12873 -1.00367,-27.09712 -8.62655,-42.70285 -5.8938,-12.06593 -11.46481,-18.37694 -23.49676,-26.61778 -21.96871,-15.04665 -46.15521,-36.75225 -51.92648,-46.60017 -2.83336,-4.83478 -2.91,-5.43029 -3.71628,-28.87629 -0.46746,-13.59309 -1.34992,-25.21119 -2.04183,-26.8816 -0.77569,-1.87268 -3.01126,-3.7992 -6.15107,-5.30074 -2.71288,-1.29737 -6.60517,-3.43567 -8.64955,-4.75179 -2.04438,-1.31611 -7.54031,-3.9068 -12.21318,-5.75707 -7.30427,-2.8922 -9.43446,-3.29075 -15.18502,-2.84098 -4.0209,0.31448 -7.44309,1.20569 -8.57974,2.23435 -1.03997,0.94117 -2.3921,1.7112 -3.00472,1.7112 -0.61262,0 -1.66099,0.65927 -2.32972,1.46504 -0.66873,0.80577 -2.5194,1.73531 -4.11261,2.06562 -1.59319,0.33033 -3.4294,1.70217 -4.08045,3.04854 -0.65106,1.34636 -2.1808,4.35956 -3.39942,6.696 -5.29915,10.1599 -6.6188,13.80776 -8.6369,23.8747 -1.17622,5.86726 -2.89913,12.13854 -3.82873,13.93617 -0.92959,1.79764 -1.45343,3.88536 -1.16408,4.6394 0.82333,2.14557 -2.02588,9.29409 -4.50428,11.30098 -1.23213,0.99771 -2.24022,2.26073 -2.24022,2.80671 0,0.54597 -0.95582,1.85768 -2.12403,2.91491 -1.16822,1.05722 -2.1273,2.44553 -2.13129,3.08514 -0.004,0.6396 -1.69327,2.31118 -3.75394,3.71462 -2.06067,1.40343 -5.74608,4.98774 -8.1898,7.96512 -2.44371,2.97737 -8.40096,9.61969 -13.23831,14.76071 -4.83736,5.14101 -8.79519,10.2675 -8.79519,11.39219 0,1.12468 -1.1434,2.79406 -2.54088,3.70973 -1.56261,1.02386 -2.9935,3.46235 -3.71648,6.33353 -0.64657,2.56779 -1.62614,4.94716 -2.17682,5.28749 -0.55068,0.34035 -1.32295,2.76412 -1.71615,5.38618 -0.3932,2.62206 -1.13768,5.02866 -1.65439,5.34799 -0.5167,0.31935 -0.93947,2.15168 -0.93947,4.07185 0,1.92016 -0.7547,5.00405 -1.67713,6.85309 -1.41917,2.8448 -1.62335,7.2394 -1.32751,28.57208 l 0.3496,25.2102 3.46797,6.39077 c 4.56006,8.40331 11.60469,17.28655 17.61299,22.2099 9.46559,7.75635 30.94458,14.85372 53.26013,17.59895 14.03312,1.72632 21.63182,5.86171 49.02998,26.68316 16.2644,12.36025 24.35627,16.01867 34.11677,15.42453 3.82244,-0.23268 6.53956,-1.08699 8.49613,-2.67136 z M 468.84946,501.19597 c 5.87754,-2.84528 8.58862,-7.38442 9.84147,-16.47756 4.4073,-31.98809 1.43337,-50.42606 -10.92732,-67.74802 -8.07922,-11.32201 -15.09228,-14.1018 -20.21572,-8.01293 -1.51219,1.79713 -2.74944,3.74018 -2.74944,4.31788 0,1.77866 2.18672,5.26573 7.03413,11.21706 6.41612,7.87725 8.90393,13.18205 10.57515,22.54955 2.56519,14.37841 1.65875,37.51017 -1.59747,40.7664 -3.09072,3.09072 -45.02923,-10.91873 -58.66628,-19.59732 -5.96876,-3.79851 -11.40432,-4.85093 -15.75235,-3.04991 -9.2621,3.83648 -2.33639,13.59324 13.27116,18.69607 2.92054,0.95486 12.00078,4.73535 20.1783,8.40108 12.8567,5.76326 21.05897,8.64548 29.73643,10.44919 6.12066,1.27224 14.95237,0.57957 19.27194,-1.51149 z m 136.84951,-71.54442 c 4.63303,-1.9358 18.34628,-15.70849 20.30257,-20.39059 0.81477,-1.95001 1.9795,-7.255 2.5883,-11.78887 0.6088,-4.53387 2.07691,-12.54457 3.26246,-17.80155 1.18555,-5.25697 2.85343,-12.66453 3.70639,-16.46124 0.85297,-3.7967 2.77084,-10.72635 4.26195,-15.39922 3.03211,-9.50221 16.37219,-37.50524 21.75465,-45.66667 1.9261,-2.92054 4.07341,-6.7438 4.77181,-8.49612 0.6984,-1.75233 2.48127,-6.05349 3.96195,-9.55814 5.72358,-13.54724 8.45384,-26.58441 8.56275,-40.8876 0.0989,-12.98391 0.0216,-13.44483 -3.52228,-21.00643 -4.01275,-8.56211 -9.34342,-14.13459 -15.44874,-16.14953 -5.08645,-1.67868 -16.04679,-0.56089 -21.43468,2.18601 -2.20879,1.12611 -4.65097,2.04747 -5.42707,2.04747 -2.18429,0 -9.44296,8.38351 -12.87331,14.86822 -1.69942,3.21259 -3.62009,8.37532 -4.26814,11.47272 -1.95925,9.36439 -9.54614,25.69145 -16.3828,35.25596 -6.05011,8.46411 -13.26017,17.61315 -29.16268,37.00531 -11.89578,14.50621 -27.38673,37.60148 -32.87832,49.01794 -12.9016,26.8211 -12.25089,24.88318 -11.76533,35.03929 0.3649,7.63214 0.93503,10.02893 3.37665,14.19523 4.20998,7.18378 8.74347,12.02115 14.36094,15.32352 4.7193,2.77435 5.60092,2.89942 24.04484,3.41096 17.81922,0.49421 19.35618,0.69658 22.18005,2.92054 3.58701,2.82497 10.44798,3.1943 16.02804,0.86279 z M 451.59921,380.62403 c 1.69604,-0.81648 4.14378,-1.4845 5.4394,-1.4845 4.56548,0 22.38179,-5.09844 29.19064,-8.35341 11.45332,-5.47524 14.86199,-7.67538 20.65707,-13.33319 6.59967,-6.44334 7.01067,-7.56581 12.19417,-33.30281 5.45158,-27.06814 7.09732,-29.93687 31.2073,-54.39818 25.68108,-26.0553 32.69831,-36.16538 35.75064,-51.50775 0.69724,-3.50466 1.9944,-8.63997 2.88259,-11.41181 2.00644,-6.26176 1.61791,-33.9043 -0.5064,-36.02861 -0.71835,-0.71835 -1.30609,-2.21891 -1.30609,-3.33457 0,-3.23257 -6.09121,-13.78517 -12.30671,-21.32051 -4.5403,-5.5044 -6.63937,-7.18293 -10.17223,-8.13423 -5.2007,-1.4004 -12.90202,-0.51573 -14.73481,1.69263 -0.70338,0.84753 -2.05671,1.57259 -3.00737,1.61122 -3.07146,0.12484 -12.64816,3.61418 -12.92363,4.70882 -0.14699,0.58411 -1.75042,1.96317 -3.5632,3.06459 -4.59803,2.79371 -24.00523,22.55779 -24.00523,24.44667 0,0.85307 -0.96743,1.85808 -2.14985,2.23337 -2.77563,0.88095 -9.86673,10.28571 -12.84231,17.03246 -1.27633,2.89392 -3.11884,5.82629 -4.09446,6.51639 -0.97562,0.69009 -2.34553,3.1628 -3.04425,5.49491 -1.34009,4.47281 -7.82224,13.78427 -16.36168,23.50317 -2.81565,3.20454 -5.49045,7.26675 -5.94401,9.02713 -0.54709,2.12345 -1.59086,3.3127 -3.1012,3.53348 -1.25209,0.18303 -2.55631,1.21425 -2.89825,2.29159 -0.7121,2.24366 -9.50316,10.65082 -11.13716,10.65082 -0.59717,0 -1.08575,0.57463 -1.08575,1.27695 0,1.62979 -6.40445,8.28118 -7.97373,8.28118 -0.65172,0 -2.24496,1.43373 -3.54051,3.18605 -1.29555,1.75233 -2.99223,3.18605 -3.77041,3.18605 -2.01372,0 -17.81343,16.79816 -19.97971,21.24232 -7.52555,15.4388 -9.71441,26.66192 -9.17383,47.03756 l 0.40031,15.08834 3.91733,5.84108 c 9.03191,13.46738 17.88913,20.91168 27.90738,23.45558 4.32635,1.09857 16.28884,0.0303 20.07595,-1.79279 z"
     id="path26"
     transform="scale(0.75000001)" />
  <path
     style="fill:#ffffff;stroke-width:0"
     d="m 430.46124,365.49883 c -4.70139,-2.87835 -11.08369,-10.37354 -13.59512,-15.96574 -2.75863,-6.14262 -3.67876,-21.81514 -1.83419,-31.24175 1.84121,-9.40945 7.37946,-20.48667 13.77357,-27.54887 5.72009,-6.31776 18.0707,-17.42445 30.18376,-27.14371 4.28597,-3.43898 8.80198,-8.38779 11.62964,-12.74419 2.54252,-3.91711 8.15253,-11.42317 12.46668,-16.68015 4.31415,-5.25698 9.77053,-13.21237 12.12529,-17.67865 3.78942,-7.18741 11.42297,-18.93096 19.08088,-29.35427 5.29577,-7.20816 19.23568,-22.5129 20.51251,-22.52084 0.73014,-0.005 1.32752,-0.72512 1.32752,-1.60128 0,-0.87616 0.8973,-1.59302 1.994,-1.59302 1.09669,0 2.55488,-0.67584 3.24042,-1.50186 1.44844,-1.74527 14.09367,-6.99862 16.81358,-6.98506 1.01604,0.005 3.67166,1.73818 5.90136,3.85136 9.38186,8.89153 12.56181,18.12256 12.3894,35.96501 -0.14417,14.91978 -0.29758,16.50461 -1.86941,19.31197 -0.71435,1.27584 -1.2988,2.8781 -1.2988,3.56056 0,1.94275 -8.11579,18.77162 -10.83227,22.46174 -1.3436,1.8252 -10.85514,11.96585 -21.13673,22.53478 -29.58627,30.4131 -34.31697,37.14881 -35.56381,50.63691 -0.87723,9.48978 -3.23207,21.43585 -5.907,29.96617 -2.04849,6.53263 -2.68286,7.43567 -6.62787,9.43498 -2.39941,1.216 -6.44214,3.69642 -8.98386,5.51203 l -4.6213,3.3011 -18.86895,0.5391 -18.86895,0.53911 -3.22072,3.45155 c -3.75195,4.02086 -4.00544,4.06695 -8.20963,1.49302 z m 41.94961,-43.14499 c 6.94452,-2.59531 14.85678,-8.14811 19.97559,-14.01879 7.19269,-8.2492 7.39107,-8.51887 8.1886,-11.13137 0.4188,-1.37191 1.43403,-3.2624 2.25607,-4.20108 0.82203,-0.93868 2.03225,-5.72505 2.68938,-10.63638 1.10268,-8.24137 1.02352,-9.31686 -1.02703,-13.95247 -2.77658,-6.27692 -5.5615,-7.6644 -13.41449,-6.68323 -3.25816,0.40709 -5.92393,1.07295 -5.92393,1.47971 0,0.40675 -1.96827,3.12033 -4.37392,6.03017 -2.40566,2.90983 -4.78337,6.3659 -5.28379,7.68014 -0.50043,1.31425 -1.62385,2.38954 -2.49648,2.38954 -0.87263,0 -3.46403,0.97857 -5.75867,2.17459 -3.23167,1.68445 -4.32258,2.97698 -4.83987,5.73438 -0.3673,1.95787 -1.37203,4.14421 -2.23274,4.85854 -0.8607,0.71432 -1.56492,2.19606 -1.56492,3.29275 0,1.0967 -0.42217,1.994 -0.93815,1.994 -0.51598,0 -1.24048,0.83634 -1.61,1.85853 -0.36951,1.02219 -1.37402,3.05329 -2.23224,4.51356 -2.10819,3.58713 -2.0232,12.16037 0.15348,15.4824 3.82389,5.83599 8.89711,6.69882 18.43311,3.13501 z"
     id="path28"
     transform="scale(0.75000001)" />
  <path
     style="fill:#ffffff;stroke-width:0"
     d="m 550.12722,409.78613 c -5.61871,-2.79075 -7.70934,-5.8196 -8.80619,-12.75823 -1.47824,-9.35126 3.30399,-24.71681 11.8286,-38.00591 2.86819,-4.47126 6.18606,-10.32503 7.37304,-13.0084 1.18698,-2.68337 2.87531,-5.15404 3.75184,-5.4904 0.87654,-0.33637 1.59371,-1.3186 1.59371,-2.18275 0,-0.86417 5.93966,-8.25429 13.19925,-16.4225 7.25959,-8.16821 13.78726,-15.95902 14.50594,-17.31291 0.71869,-1.35389 4.57612,-6.08998 8.57207,-10.52465 3.99596,-4.43467 7.26537,-8.61636 7.26537,-9.29264 0,-0.67628 0.48974,-1.2296 1.0883,-1.2296 0.59857,0 1.50737,-1.10223 2.01957,-2.4494 0.51219,-1.34717 2.08309,-3.85618 3.49088,-5.57558 1.4078,-1.7194 5.04468,-9.57793 8.08197,-17.46339 7.01429,-18.21063 12.6964,-29.43556 16.10106,-31.80741 1.46944,-1.02369 4.98931,-2.73225 7.82191,-3.79681 4.87128,-1.83074 5.33142,-1.83789 8.49613,-0.132 10.36501,5.58709 12.66063,21.77041 6.52126,45.97254 -2.67492,10.54486 -10.29052,27.44283 -12.80236,28.40672 -0.83828,0.32168 -1.52414,1.3712 -1.52414,2.33227 0,0.96107 -2.12384,5.15776 -4.71965,9.32597 -2.5958,4.16821 -5.97792,10.446 -7.51581,13.95066 -1.53789,3.50465 -3.72103,8.12017 -4.85141,10.25672 -1.13038,2.13654 -3.01007,6.91561 -4.17709,10.62015 -1.16702,3.70454 -2.79364,8.16925 -3.61471,9.92158 -0.82107,1.75232 -2.72192,7.4872 -4.2241,12.74418 -2.3508,8.22673 -3.46101,14.17329 -6.60374,35.37126 -0.28627,1.93092 -1.39766,4.38795 -2.46976,5.46004 -1.66424,1.66425 -2.70378,1.80774 -7.10937,0.98137 -6.12651,-1.14918 -13.29929,-0.34848 -18.43529,2.05791 -2.68234,1.25676 -7.41249,1.82359 -16.99225,2.03625 -11.79916,0.26192 -13.78553,0.0412 -17.86503,-1.98504 z m 35.4508,-22.64771 c 1.13384,-0.85757 3.21022,-1.57443 4.61419,-1.59302 5.86915,-0.0776 14.58646,-13.67681 18.31849,-28.57717 2.39789,-9.57375 2.42087,-11.0108 0.24492,-15.31748 -7.10844,-14.06915 -23.89024,-16.77662 -30.08111,-4.8531 -6.49698,12.5131 -7.81591,15.64276 -8.96374,21.26988 -0.68204,3.34364 -1.58668,6.42595 -2.01031,6.84958 -0.42362,0.42363 -0.77023,3.1576 -0.77023,6.0755 0,11.93074 11.2931,21.70863 18.64779,16.14581 z"
     id="path30"
     transform="scale(0.75000001)" />
  <path
     style="fill:#ffffff;stroke-width:0"
     d="m 391.82872,737.72767 c -0.74262,-0.8948 -4.45438,-3.18676 -8.24835,-5.09323 -7.55071,-3.79424 -13.74197,-9.8167 -14.82384,-14.41968 -0.381,-1.62103 -2.01857,-4.38104 -3.63905,-6.13336 -2.52328,-2.72859 -3.04824,-4.40594 -3.65617,-11.68218 -0.66224,-7.92637 -0.4517,-9.26467 3.13967,-19.95685 2.11723,-6.30341 5.97373,-15.67269 8.57,-20.82063 2.59627,-5.14794 4.72049,-9.87897 4.72049,-10.51341 0,-4.88572 8.02042,-0.0983 13.39132,7.99325 9.48264,14.28621 13.32828,31.52742 11.25908,50.47796 -1.19723,10.9647 -5.23736,26.13301 -7.94798,29.84 -1.26015,1.72335 -1.56266,1.75706 -2.76517,0.30813 z"
     id="path32"
     transform="scale(0.75000001)" />
  <path
     style="fill:#ffffff;stroke-width:0"
     d="m 326.96873,680.04837 c -2.88678,-3.66995 -3.62524,-6.82585 -2.96594,-12.67523 1.07781,-9.56226 13.51385,-29.13886 20.08646,-31.61974 2.07148,-0.7819 2.96752,-1.75408 2.66896,-2.89579 -0.76963,-2.94306 1.29993,-5.20645 4.76059,-5.20645 2.36878,0 4.38376,1.12555 7.38134,4.12312 4.58976,4.58976 5.1455,7.36663 2.03725,10.17955 -1.14722,1.03823 -2.87309,3.94902 -3.83527,6.46843 -0.96217,2.51942 -2.41306,4.83543 -3.22421,5.14669 -0.81115,0.31127 -1.47481,1.45752 -1.47481,2.54724 0,3.88814 -13.5275,21.29449 -19.35224,24.90125 -3.76686,2.3325 -3.44474,2.38382 -6.08213,-0.96907 z"
     id="path34"
     transform="scale(0.75000001)" />
  <path
     style="fill:#ffffff;stroke-width:0"
     d="m 312.57752,631.29913 c -4.73611,-2.45129 -10.90752,-8.84616 -13.2934,-13.77472 -1.49907,-3.09666 -2.10583,-6.54255 -2.10583,-11.95938 0,-7.37927 0.16214,-7.85067 5.36307,-15.59265 5.0819,-7.56478 11.99997,-13.85052 13.93062,-12.65731 0.48654,0.3007 0.88461,2.81448 0.88461,5.5862 0,5.64483 2.38304,10.06946 11.23246,20.85549 9.08891,11.07792 8.56422,10.15018 6.56658,11.61089 -0.97243,0.71106 -3.92513,4.22301 -6.56154,7.80432 -4.17544,5.67194 -9.23599,9.80388 -11.98127,9.78273 -0.46709,-0.004 -2.28298,-0.7486 -4.0353,-1.65557 z"
     id="path36"
     transform="scale(0.75000001)" />
  <path
     style="fill:#ffffff;stroke-width:0"
     d="m 281.53053,566.98028 c -7.04158,-1.26761 -14.55875,-5.42787 -14.9751,-8.28774 -0.19548,-1.34277 0.16295,-2.95976 0.79652,-3.59332 0.63356,-0.63356 1.15193,-1.90174 1.15193,-2.81817 0,-3.67572 6.80192,-17.71873 10.0468,-20.74229 1.8806,-1.75233 3.64614,-3.87604 3.92344,-4.71936 0.79506,-2.41802 10.63737,-1.85119 15.2649,0.87912 2.09481,1.23597 4.39195,2.24722 5.10476,2.24722 0.71281,0 2.38095,0.75991 3.70698,1.6887 1.82345,1.2772 2.12867,2.02885 1.2525,3.08457 -0.77066,0.92859 -0.91767,4.58567 -0.43914,10.92462 l 0.71933,9.52875 -4.42212,4.79743 c -2.97974,3.23263 -5.53762,4.96587 -7.84211,5.31384 -1.881,0.28403 -4.85372,0.9641 -6.60604,1.51126 -1.75233,0.54716 -5.20952,0.63057 -7.68265,0.18537 z"
     id="path38"
     transform="scale(0.75000001)" />
  <path
     style="fill:#ffffff;stroke-width:0"
     d="m 236.77112,625.44263 c -2.55825,-0.50259 -5.80404,-1.66907 -7.21287,-2.59217 l -2.56151,-1.67836 16.86549,-17.7532 c 9.27601,-9.76426 17.06192,-18.30416 17.30201,-18.97755 0.58474,-1.64004 8.45026,-0.1791 12.17485,2.26135 2.73717,1.79346 2.7898,2.04419 2.42818,11.56718 -0.45193,11.901 -2.94082,18.03825 -7.52931,18.5662 -1.60652,0.18485 -3.38041,1.1946 -3.94197,2.24388 -0.56156,1.04929 -2.35353,2.42076 -3.98215,3.04772 -2.77542,1.06843 -17.86703,4.59964 -18.57,4.34511 -0.17675,-0.064 -2.41447,-0.52757 -4.97272,-1.03016 z"
     id="path40"
     transform="scale(0.75000001)" />
  <path
     style="fill:#ffffff;stroke-width:0"
     d="m 203.74197,672.64799 c 0.1156,-5.07304 2.67159,-17.29516 4.91263,-23.49101 l 2.78495,-7.69962 4.37131,0.006 c 6.23002,0.008 11.5136,1.65008 22.48713,6.98689 10.12212,4.92274 16.03102,9.84681 15.00978,12.50811 -1.33125,3.46918 -18.26134,10.41127 -27.28451,11.18786 -11.53534,0.9928 -22.298,1.23521 -22.28129,0.50184 z"
     id="path42"
     transform="scale(0.75000001)" />
  <path
     style="fill:#ffffff;stroke-width:0"
     d="m 222.09606,737.1491 c -5.93542,-4.29959 -11.35718,-11.23589 -15.19791,-19.44334 -3.73048,-7.97186 -4.79024,-12.97441 -3.83136,-18.08571 l 0.66653,-3.55291 19.37559,-4.12715 c 23.83922,-5.07793 27.92745,-5.48678 33.12963,-3.31317 2.21574,0.92579 5.36488,1.68326 6.9981,1.68326 3.96061,0 6.32925,0.99002 6.32925,2.64544 0,0.7459 -3.84726,5.83227 -8.54947,11.30304 -4.70221,5.47078 -9.83971,11.94401 -11.41667,14.38495 -2.13831,3.30986 -3.66856,4.52477 -6.0195,4.77907 -2.66921,0.28873 -3.29583,0.95183 -4.08885,4.32692 -0.58073,2.47155 -2.08278,4.80212 -3.95349,6.13418 -1.65932,1.18154 -3.31637,3.09165 -3.68233,4.24469 -0.95683,3.01471 -4.77485,2.63161 -9.75952,-0.97927 z"
     id="path44"
     transform="scale(0.75000001)" />
  <path
     style="fill:#ffffff;stroke-width:0"
     d="m 269.77164,750.28049 c -14.42968,-1.65619 -15.07397,-1.87186 -15.07397,-5.0459 0,-1.72307 1.50536,-3.61588 4.88312,-6.13992 2.68571,-2.00691 5.52164,-4.87851 6.30207,-6.38132 0.78042,-1.50282 2.16732,-3.35348 3.082,-4.1126 0.91468,-0.75911 1.66305,-2.21305 1.66305,-3.23098 0,-2.94757 3.93309,-7.15466 8.62321,-9.22393 2.50871,-1.10684 4.98957,-3.19456 5.90906,-4.97267 1.58239,-3.06001 1.59693,-3.06374 9.19104,-2.36269 8.5265,0.78713 20.09042,5.64977 22.02291,9.26065 1.80344,3.36976 -4.05964,14.00621 -12.04018,21.84257 -6.21089,6.09869 -17.17167,12.23658 -21.19536,11.86912 -0.74774,-0.0683 -6.76286,-0.74433 -13.36695,-1.50233 z"
     id="path46"
     transform="scale(0.75000001)" />
  <path
     style="fill:#ffffff;stroke-width:0"
     d="m 319.89142,779.11969 c -7.1367,-4.08137 -16.45748,-11.51435 -16.12206,-12.85677 0.6871,-2.7499 17.62398,-17.30651 21.64491,-18.60297 2.28552,-0.73692 4.6334,-1.69391 5.21751,-2.12664 0.58411,-0.43273 3.52725,-1.40539 6.54032,-2.16147 5.26773,-1.32185 5.71417,-1.25567 11.6152,1.7217 3.37529,1.70301 7.76966,4.63315 9.76526,6.51142 3.30865,3.11412 3.57705,3.81598 3.04602,7.96512 -1.86141,14.54398 -2.7432,18.32724 -4.59132,19.69882 -1.93054,1.43276 -7.37232,1.33442 -18.00726,-0.32542 -3.0516,-0.47627 -5.36589,-0.17106 -7.64687,1.00848 -4.37568,2.26275 -6.29319,2.12351 -11.46171,-0.83227 z"
     id="path48"
     transform="scale(0.75000001)" />
</svg>
