<?xml version="1.0" encoding="UTF-8" standalone="no"?>
<svg
   xmlns:dc="http://purl.org/dc/elements/1.1/"
   xmlns:cc="http://creativecommons.org/ns#"
   xmlns:rdf="http://www.w3.org/1999/02/22-rdf-syntax-ns#"
   xmlns:svg="http://www.w3.org/2000/svg"
   xmlns="http://www.w3.org/2000/svg"
   xmlns:sodipodi="http://sodipodi.sourceforge.net/DTD/sodipodi-0.dtd"
   xmlns:inkscape="http://www.inkscape.org/namespaces/inkscape"
   version="1.0"
   width="528.000000pt"
   height="523.000000pt"
   viewBox="0 0 528.000000 523.000000"
   preserveAspectRatio="xMidYMid meet"
   id="svg16"
   sodipodi:docname="face8.svg"
   inkscape:version="1.0.1 (3bc2e813f5, 2020-09-07)">
  <defs
     id="defs20" />
  <sodipodi:namedview
     pagecolor="#ffffff"
     bordercolor="#666666"
     borderopacity="1"
     objecttolerance="10"
     gridtolerance="10"
     guidetolerance="10"
     inkscape:pageopacity="0"
     inkscape:pageshadow="2"
     inkscape:window-width="1920"
     inkscape:window-height="1027"
     id="namedview18"
     showgrid="false"
     inkscape:zoom="1.2332696"
     inkscape:cx="352"
     inkscape:cy="348.66667"
     inkscape:window-x="1912"
     inkscape:window-y="-8"
     inkscape:window-maximized="1"
     inkscape:current-layer="svg16" />
  <metadata
     id="metadata2">
Created by potrace 1.16, written by Peter Selinger 2001-2019
<rdf:RDF>
  <cc:Work
     rdf:about="">
    <dc:format>image/svg+xml</dc:format>
    <dc:type
       rdf:resource="http://purl.org/dc/dcmitype/StillImage" />
  </cc:Work>
</rdf:RDF>
</metadata>
  <g
     transform="translate(0.000000,523.000000) scale(0.100000,-0.100000)"
     fill="#000000"
     stroke="none"
     id="g14">
    <path
       d="M1445 4841 c-16 -5 -47 -9 -68 -10 -20 0 -45 -5 -55 -10 -9 -5 -28 -13 -42 -19 -14 -5 -41 -17 -62 -26 -20 -9 -41 -16 -47 -16 -6 0 -11 -4 -11 -10 0 -5 -13 -10 -29 -10 -16 0 -37 -7 -46 -16 -8 -9 -22 -14 -29 -11 -8 3 -22 -3 -31 -13 -9 -10 -28 -21 -43 -25 -14 -3 -38 -15 -53 -26 -15 -10 -30 -19 -33 -19 -9 0 -106 -100 -106 -109 0 -4 -16 -25 -35 -47 -19 -21 -42 -52 -51 -69 -25 -48 -39 -72 -51 -86 -6 -8 -20 -45 -32 -84 -12 -38 -29 -83 -37 -98 -8 -16 -14 -41 -14 -57 0 -16 -5 -32 -10 -35 -6 -4 -10 -12 -9 -18 1 -7 0 -19 -4 -27 -39 -101 -38 -202 3 -520 7 -47 12 -91 12 -97 1 -7 6 -13 11 -13 6 0 8 -2 5 -5 -3 -3 5 -43 19 -88 13 -45 32 -111 43 -147 10 -36 27 -86 38 -110 10 -25 17 -50 15 -56 -2 -6 4 -28 14 -50 19 -44 72 -234 78 -279 2 -16 11 -61 19 -98 27 -116 44 -293 51 -517 3 -118 10 -231 15 -250 5 -19 11 -73 14 -120 3 -47 7 -94 9 -105 3 -11 8 -47 11 -80 8 -72 26 -174 34 -195 3 -8 6 -17 7 -20 1 -3 4 -12 8 -20 3 -8 13 -37 22 -65 9 -27 25 -62 35 -77 11 -15 20 -32 20 -39 0 -9 34 -78 126 -250 7 -14 25 -36 39 -49 14 -13 25 -26 25 -29 0 -4 27 -35 61 -71 34 -36 64 -73 68 -82 10 -26 211 -227 235 -234 11 -3 28 -12 36 -19 31 -26 166 -54 266 -56 247 -3 680 6 734 16 14 3 59 7 100 9 409 26 475 34 625 77 100 30 203 70 216 86 6 7 15 13 20 13 12 0 110 61 159 99 57 45 104 93 155 156 22 27 52 61 68 76 15 14 27 31 27 38 0 6 4 11 10 11 5 0 16 14 25 30 9 17 13 30 10 30 -4 0 1 10 9 22 9 12 16 29 16 36 0 8 9 25 20 39 11 14 20 36 20 49 0 12 5 26 10 29 6 4 8 11 4 16 -3 5 -1 15 4 22 7 8 9 72 7 167 -3 152 3 188 29 173 6 -3 8 -3 4 2 -4 4 -1 13 8 19 11 9 13 22 8 54 -4 23 -11 42 -16 42 -6 0 -7 16 -4 38 4 20 8 96 10 169 3 126 5 133 30 163 14 17 26 38 26 46 0 8 11 41 25 73 17 41 24 76 23 113 -1 34 6 69 19 98 12 25 27 80 33 123 7 43 17 80 21 83 5 3 9 20 9 39 0 19 4 37 10 40 6 3 10 15 10 26 0 10 3 19 8 19 4 0 13 15 21 32 7 18 24 49 36 68 12 20 26 51 30 69 4 18 13 35 21 38 8 3 14 17 14 32 0 36 19 101 30 101 4 0 11 39 15 88 3 48 15 132 25 187 14 76 19 148 20 295 0 107 1 202 3 210 4 34 -15 359 -24 410 -11 59 -58 191 -72 201 -4 3 -5 13 -1 22 3 10 1 17 -5 17 -6 0 -11 5 -11 10 0 26 -129 136 -182 156 -10 3 -18 10 -18 15 0 5 -7 9 -15 9 -8 0 -15 4 -15 9 0 5 -10 11 -23 15 -12 3 -32 15 -45 26 -12 12 -27 18 -32 15 -6 -3 -10 -2 -10 2 0 10 -86 38 -110 36 -8 -1 -23 4 -35 10 -11 6 -40 14 -65 18 -25 4 -70 14 -100 22 -46 13 -113 25 -142 27 -5 0 -8 7 -8 15 0 21 -36 55 -60 55 -10 0 -28 -10 -40 -22 -18 -19 -33 -22 -113 -25 -107 -4 -347 -32 -362 -43 -5 -5 -44 -11 -87 -14 -42 -4 -103 -16 -135 -27 -69 -25 -180 -40 -243 -33 -25 3 -81 7 -125 9 -93 5 -163 13 -174 19 -4 3 -40 12 -81 20 -40 9 -80 22 -89 29 -16 14 -62 30 -91 32 -8 0 -14 5 -13 10 1 6 -13 11 -30 11 -36 2 -129 25 -137 34 -16 19 -402 45 -455 31z m235 -105 c89 -7 260 -38 305 -57 38 -15 201 -67 265 -85 36 -9 70 -21 76 -26 22 -17 380 -30 449 -17 17 4 57 10 90 14 33 4 65 12 71 17 7 5 16 8 20 6 8 -1 77 12 204 40 54 12 66 5 76 -41 9 -40 8 -44 -26 -76 -47 -45 -99 -58 -122 -31 -9 11 -18 25 -20 31 -2 6 -22 13 -46 16 l-42 6 -21 -49 c-12 -27 -22 -64 -23 -83 -1 -27 -8 -39 -31 -52 -32 -19 -86 -23 -120 -10 -56 22 -89 -40 -57 -107 l19 -41 -34 -33 c-44 -42 -58 -75 -39 -93 22 -22 60 -13 96 23 23 23 36 30 43 23 6 -6 17 -11 25 -11 8 0 26 -8 40 -19 36 -24 66 -18 108 23 33 32 35 39 40 112 6 108 42 138 127 108 35 -13 51 -13 94 -3 61 14 89 46 99 111 10 66 18 72 72 51 56 -22 119 -6 118 30 -1 25 -23 46 -48 47 -9 0 -20 5 -23 11 -9 14 25 51 41 45 7 -3 24 4 39 15 21 17 35 20 81 15 31 -3 82 -12 113 -20 87 -22 151 -36 214 -47 111 -20 382 -176 424 -244 40 -66 75 -157 89 -230 8 -46 26 -381 27 -485 0 -114 -17 -339 -29 -389 -20 -83 -20 -83 -30 -171 -9 -89 -7 -77 -25 -120 -9 -19 -19 -48 -23 -64 -4 -16 -25 -66 -47 -111 -21 -45 -39 -87 -39 -93 0 -6 -4 -12 -8 -14 -13 -5 -52 -78 -52 -98 0 -10 -4 -21 -9 -24 -4 -3 -11 -34 -15 -68 -3 -35 -15 -91 -25 -124 -10 -34 -27 -104 -37 -155 -10 -52 -22 -95 -26 -97 -5 -2 -8 -12 -8 -23 0 -10 -5 -19 -10 -19 -6 0 -10 -6 -8 -12 1 -7 -6 -28 -16 -47 -27 -51 -55 -161 -61 -238 -6 -90 -7 -93 -17 -93 -5 0 -7 -19 -4 -42 12 -91 25 -297 26 -391 0 -80 -5 -110 -26 -170 -14 -39 -29 -81 -32 -92 -11 -37 -193 -261 -249 -305 -10 -8 -39 -31 -63 -51 -25 -20 -63 -45 -85 -56 -68 -34 -98 -51 -104 -60 -6 -9 -84 -34 -186 -58 -65 -16 -209 -31 -375 -40 -58 -3 -136 -10 -175 -15 -111 -15 -230 -20 -530 -20 -323 -1 -461 9 -502 37 -16 11 -48 30 -73 42 -25 13 -58 38 -75 55 -94 100 -189 208 -229 261 -25 33 -54 69 -63 81 -16 18 -183 347 -203 399 -20 52 -29 84 -34 127 -3 27 -8 59 -12 73 -4 17 -2 25 6 25 18 0 39 31 40 56 0 12 -6 37 -14 55 -7 19 -16 64 -19 101 -6 60 -4 69 13 78 11 6 20 18 20 27 0 18 28 42 50 42 8 1 26 -8 40 -19 14 -11 31 -20 38 -20 7 0 28 -11 46 -25 27 -20 46 -25 107 -27 72 -3 74 -2 77 21 5 32 -33 62 -66 54 -21 -5 -69 11 -82 28 -3 4 -22 14 -42 22 -21 9 -38 22 -38 30 0 7 20 35 45 61 25 27 45 55 45 62 0 19 19 21 73 7 31 -8 62 -10 81 -5 26 7 31 13 31 38 0 24 -6 31 -34 40 -49 16 -68 64 -25 64 8 0 14 6 14 13 0 8 21 13 66 14 56 1 68 5 82 24 27 37 30 52 17 83 -16 37 -39 41 -62 10 -10 -13 -22 -24 -27 -24 -13 0 2 61 19 80 8 9 16 30 19 46 8 69 20 81 90 95 36 7 66 18 66 24 0 23 -36 43 -92 50 -32 3 -60 10 -62 13 -12 20 66 72 108 72 9 0 40 -20 71 -45 30 -25 55 -41 55 -36 0 5 10 11 23 13 33 5 35 41 2 56 -26 12 -33 40 -14 59 9 9 7 20 -8 45 -17 30 -24 33 -69 34 -27 1 -76 11 -109 23 -32 11 -61 21 -62 21 -11 0 -29 -69 -22 -87 7 -18 0 -29 -41 -67 -37 -32 -48 -49 -43 -62 5 -14 2 -16 -19 -11 -27 7 -94 -23 -92 -42 1 -6 2 -17 3 -24 0 -7 19 -23 41 -36 43 -24 46 -31 29 -62 -8 -16 -7 -25 5 -38 13 -14 14 -22 4 -49 -14 -37 -14 -37 -60 -18 -45 19 -78 11 -78 -20 0 -15 10 -29 30 -41 56 -32 23 -113 -46 -113 -40 0 -58 -20 -49 -58 5 -24 1 -33 -18 -49 -13 -10 -32 -33 -41 -51 -21 -40 -59 -42 -64 -4 -5 32 -47 47 -78 27 -13 -8 -27 -15 -32 -15 -5 0 -10 66 -11 147 -1 80 -4 149 -6 153 -2 4 -7 33 -10 66 -3 32 -8 73 -11 89 -3 17 -6 41 -8 55 -2 14 -6 32 -9 40 -3 8 -7 29 -10 45 -5 38 -26 121 -39 160 -6 17 -21 68 -33 115 -13 47 -29 101 -35 120 -6 19 -15 49 -20 65 -5 17 -18 62 -30 100 -12 39 -30 102 -40 140 -10 39 -24 86 -30 105 -13 42 -19 81 -27 175 -9 120 -11 369 -3 380 5 6 14 33 20 60 7 28 19 65 27 83 8 19 16 46 18 60 5 34 50 138 64 147 6 3 11 13 11 21 0 14 55 94 84 124 62 62 115 110 122 110 4 0 37 15 73 34 36 18 80 37 98 40 17 4 37 14 44 22 6 8 19 14 28 14 9 0 21 4 26 9 6 6 29 15 53 20 23 6 61 16 85 22 49 13 143 25 172 23 11 -1 63 -5 115 -8z"
       id="path4" />
    <path
       d="M3214 4221 c-17 -20 -28 -43 -28 -64 -1 -29 2 -32 39 -38 22 -4 44 -3 50 2 19 19 85 8 157 -25 40 -18 94 -43 120 -55 26 -12 60 -37 75 -56 15 -19 31 -35 34 -35 7 0 89 -80 89 -87 0 -2 16 -19 35 -37 19 -19 35 -38 35 -45 0 -6 5 -11 10 -11 6 0 10 -8 10 -18 0 -10 4 -22 9 -27 5 -6 16 -34 26 -64 34 -105 5 -280 -59 -361 -72 -90 -197 -195 -306 -257 -40 -22 -157 -56 -168 -49 -4 2 -27 5 -52 7 -25 2 -52 6 -60 10 -8 4 -27 12 -42 18 -65 26 -83 38 -132 92 -57 61 -86 113 -86 152 0 14 -4 27 -10 29 -34 11 -37 279 -3 370 17 46 63 119 93 148 3 3 13 17 22 31 22 34 83 51 174 48 71 -3 75 -5 106 -40 85 -93 148 -242 127 -298 -6 -14 -31 -46 -56 -69 -40 -38 -51 -43 -79 -39 -47 8 -84 35 -84 63 0 12 -4 26 -10 29 -15 9 0 65 32 122 35 62 33 93 -4 111 -33 16 -54 5 -87 -46 -64 -98 -69 -271 -9 -320 11 -9 25 -22 32 -28 28 -27 66 -37 136 -38 69 -1 79 2 122 32 112 78 131 150 84 316 -9 33 -18 67 -19 75 -5 28 -47 102 -61 107 -8 3 -22 20 -32 39 -10 18 -29 39 -43 46 -14 7 -34 20 -45 29 -14 12 -44 15 -142 14 -118 -1 -126 -3 -164 -29 -22 -15 -40 -31 -40 -36 0 -4 -13 -20 -30 -36 -16 -15 -30 -33 -30 -39 0 -6 -7 -17 -15 -24 -8 -7 -15 -20 -15 -30 0 -10 -7 -21 -16 -24 -8 -3 -12 -10 -9 -16 3 -5 1 -10 -4 -10 -6 0 -11 -7 -11 -15 0 -8 -4 -15 -10 -15 -5 0 -10 -7 -10 -15 0 -8 -7 -35 -16 -60 -28 -83 -15 -353 21 -421 8 -16 15 -34 15 -40 0 -6 13 -28 30 -50 16 -21 30 -44 30 -50 0 -6 23 -36 52 -65 37 -39 77 -66 140 -96 l89 -42 102 3 c120 4 197 15 197 28 0 5 4 7 8 4 5 -3 22 4 38 14 16 11 38 25 49 32 33 22 159 120 184 145 13 13 28 23 32 23 5 0 9 4 9 9 0 4 15 25 34 44 48 51 95 156 111 249 17 92 7 201 -23 271 -10 23 -27 61 -36 84 -10 23 -28 50 -40 61 -33 30 -58 63 -52 69 3 3 -14 19 -37 36 -23 16 -64 52 -90 80 -67 70 -250 164 -367 188 -25 6 -57 12 -72 15 -21 5 -32 -1 -54 -25z"
       id="path6" />
    <path
       d="M1529 4102 c-8 -3 -26 -16 -41 -30 -32 -29 -37 -72 -12 -93 13 -11 20 -11 43 2 44 25 168 12 346 -37 33 -9 70 -19 82 -21 12 -3 28 -11 34 -19 6 -8 16 -14 21 -14 25 0 157 -71 196 -105 63 -55 93 -108 102 -181 11 -87 -4 -154 -54 -241 -35 -62 -170 -183 -204 -183 -11 0 -25 -7 -32 -15 -7 -8 -23 -15 -36 -15 -13 0 -24 -6 -24 -13 0 -14 -115 -56 -180 -64 -107 -14 -203 -7 -268 20 -74 30 -104 52 -186 132 -68 68 -106 135 -106 187 0 19 -4 38 -9 44 -13 14 -34 159 -27 186 7 27 72 98 90 98 7 0 21 9 31 20 10 12 25 18 32 16 7 -3 15 -1 18 4 12 19 84 21 144 4 34 -9 64 -21 67 -25 3 -5 12 -9 21 -9 9 0 38 -14 64 -30 54 -36 113 -124 124 -189 6 -38 3 -45 -41 -103 -74 -96 -85 -105 -141 -113 -59 -8 -123 16 -162 61 -20 22 -22 33 -17 68 4 22 8 48 10 56 1 8 17 29 34 47 27 26 31 37 26 60 -9 38 -33 63 -59 63 -25 0 -79 -53 -73 -72 3 -7 -6 -26 -18 -41 -14 -17 -24 -42 -24 -61 0 -18 -7 -41 -15 -52 -36 -48 -4 -107 103 -186 70 -52 144 -72 215 -57 28 6 59 17 68 25 8 8 20 14 25 14 13 0 126 121 145 155 28 51 32 91 14 163 -10 37 -26 84 -36 104 -23 46 -124 149 -164 167 -16 7 -42 20 -57 27 -14 8 -37 14 -50 14 -12 1 -34 7 -48 15 -28 16 -151 20 -178 6 -9 -5 -24 -12 -32 -15 -8 -4 -27 -14 -41 -24 -14 -9 -43 -29 -65 -43 -57 -39 -101 -92 -114 -137 -8 -33 -6 -67 14 -186 14 -80 30 -154 36 -165 5 -11 9 -24 8 -28 -5 -14 61 -117 94 -149 18 -17 62 -50 98 -74 36 -23 74 -51 86 -62 11 -10 29 -21 40 -23 10 -2 37 -9 59 -15 62 -17 78 -20 111 -24 34 -4 189 11 214 21 25 10 44 14 62 14 9 0 22 7 29 15 6 8 19 14 28 14 15 0 180 77 191 90 3 3 30 24 60 47 61 47 86 73 102 109 6 13 15 24 19 24 11 0 61 109 54 119 -2 5 2 26 11 47 13 30 15 60 11 126 -2 49 -9 94 -14 100 -5 7 -15 31 -21 53 -6 23 -24 55 -39 72 -38 41 -160 133 -179 133 -7 0 -14 4 -14 9 0 5 -14 12 -30 16 -17 4 -27 11 -24 16 3 6 0 9 -8 7 -7 -2 -34 5 -58 16 -100 41 -109 44 -195 62 -127 27 -272 50 -286 46z"
       id="path8" />
    <path
       d="M2708 2984 c-3 -3 -60 -7 -126 -9 -65 -1 -129 -8 -141 -14 -30 -16 -30 -76 1 -92 25 -13 155 -16 240 -5 32 4 66 5 77 1 21 -6 26 -30 41 -195 5 -58 12 -134 15 -170 4 -36 6 -69 6 -75 0 -5 -3 -113 -5 -238 -5 -216 -4 -229 14 -247 28 -28 76 -26 92 3 21 39 28 120 11 139 -12 14 -13 23 -5 48 7 18 8 40 3 53 -4 12 -5 71 -1 131 4 62 3 124 -2 143 -5 19 -6 47 -3 63 3 15 2 46 -4 67 -9 33 -18 175 -20 321 -1 65 -24 82 -114 82 -41 0 -76 -3 -79 -6z"
       id="path10" />
    <path
       d="M1560 1798 c-30 -15 -51 -28 -46 -28 5 0 -12 -14 -37 -31 -26 -17 -47 -37 -47 -45 0 -8 -4 -14 -9 -14 -11 0 -94 -114 -98 -137 -12 -60 -11 -183 2 -229 15 -50 81 -164 95 -164 4 0 15 -17 24 -37 34 -78 102 -154 185 -207 37 -23 155 -72 216 -89 38 -11 55 -20 55 -28 0 -5 6 -9 13 -7 14 2 80 -18 117 -37 67 -35 139 -46 300 -47 61 0 115 5 149 16 30 9 66 16 80 16 13 0 38 4 55 9 17 5 85 17 150 25 80 11 136 24 172 41 29 14 58 25 64 25 6 0 21 6 33 14 12 8 59 20 105 26 102 14 106 15 122 46 8 13 24 27 37 30 13 4 23 10 23 14 0 7 15 14 150 61 129 45 210 161 182 265 -7 24 -12 54 -12 65 0 27 -35 84 -75 124 -50 50 -220 125 -283 125 -18 0 -32 5 -32 10 0 6 -13 10 -29 10 -16 0 -40 4 -53 9 -21 8 -156 24 -198 23 -31 0 -187 -12 -225 -17 -22 -3 -103 -6 -180 -6 -110 -1 -161 3 -240 21 -55 12 -120 26 -145 31 -61 12 -153 40 -166 51 -6 4 -36 15 -65 24 -30 9 -58 20 -64 24 -20 16 -132 39 -200 42 -61 3 -78 0 -125 -24z m160 -77 c36 -5 79 -15 95 -22 17 -7 53 -20 80 -29 48 -15 50 -17 52 -55 2 -46 -26 -165 -38 -165 -5 0 -9 -4 -9 -10 0 -21 -41 -50 -71 -50 -61 0 -159 111 -159 179 0 10 -7 24 -15 31 -9 7 -13 15 -11 18 3 2 -4 16 -14 30 -25 31 -25 58 -2 71 20 12 12 12 92 2z m555 -161 c76 -14 114 -25 123 -37 11 -15 11 -19 -2 -21 -10 -2 -14 -18 -13 -63 2 -59 1 -62 -39 -97 -87 -79 -120 -95 -145 -69 -8 7 -20 12 -28 9 -17 -6 -72 62 -92 115 -12 30 -15 62 -12 110 6 95 5 92 55 82 24 -5 93 -18 153 -29z m-759 3 c4 -16 15 -36 26 -46 24 -23 36 -53 38 -98 4 -71 2 -75 -40 -88 -21 -6 -46 -22 -55 -34 l-15 -22 -25 30 c-23 28 -24 37 -21 115 2 59 9 96 22 120 31 58 60 67 70 23z m1397 -29 c3 -4 -1 -23 -9 -43 -8 -20 -15 -38 -16 -41 0 -3 -4 -15 -9 -28 -5 -13 -9 -26 -9 -30 -2 -22 -63 -74 -115 -96 -33 -15 -72 -33 -87 -41 -70 -36 -117 30 -121 168 -2 95 -26 83 185 95 75 4 140 10 144 15 9 9 28 9 37 1z m232 -8 c30 0 55 -4 55 -7 0 -3 34 -14 76 -24 43 -10 78 -24 81 -32 8 -21 -66 -92 -97 -93 -14 0 -34 -6 -45 -14 -25 -16 -76 -32 -133 -41 l-44 -7 2 43 c1 24 1 46 0 49 -5 11 -7 106 -3 123 3 13 11 15 29 11 14 -4 49 -7 79 -8z m377 -183 c17 -30 21 -50 19 -99 -1 -33 -38 -84 -60 -84 -21 0 -71 33 -71 47 0 8 -7 16 -15 19 -8 4 -15 14 -15 24 0 21 89 117 110 119 9 0 23 -11 32 -26z m-1674 -105 c66 -77 60 -131 -24 -221 l-62 -65 -35 24 c-20 13 -40 24 -44 24 -17 1 -81 69 -111 119 -35 56 -40 76 -17 67 9 -3 24 3 34 13 10 10 37 22 60 26 22 4 43 10 45 14 3 4 19 8 37 9 17 1 39 7 48 12 27 16 41 11 69 -22z m1247 -91 c76 4 115 1 158 -12 31 -9 59 -20 61 -24 10 -15 -63 -60 -115 -70 -30 -5 -74 -17 -98 -25 -24 -9 -57 -16 -73 -16 -17 0 -55 -7 -85 -16 -64 -19 -75 -11 -68 44 5 38 -2 62 -19 62 -23 0 -52 28 -40 40 16 16 94 27 138 19 22 -4 85 -5 141 -2z m-805 -57 c32 -37 35 -94 14 -243 -9 -59 -20 -65 -106 -53 -41 6 -81 16 -89 22 -8 7 -33 18 -57 26 -24 8 -53 23 -65 34 -12 10 -28 17 -35 16 -6 -2 -20 1 -30 7 -15 8 -14 11 11 20 19 8 27 17 27 35 0 26 65 106 85 106 7 0 18 7 26 16 39 47 182 56 219 14z m369 -42 c12 -8 35 -36 52 -61 17 -26 48 -61 70 -78 21 -17 39 -34 39 -39 0 -4 -33 -11 -72 -15 -40 -3 -110 -15 -156 -26 -104 -24 -162 -25 -162 -4 0 29 40 129 55 138 10 5 13 16 9 31 -9 37 44 75 100 72 24 -2 53 -10 65 -18z"
       id="path12" />
  </g>
  <path
     style="fill:#ffffff;stroke-width:0"
     d="m 246.07009,647.87892 c -11.36259,-0.9902 -15.36637,-2.13174 -23.34478,-6.65603 -11.25377,-6.38163 -13.2768,-8.05125 -23.69584,-19.55622 -26.37503,-29.12395 -30.09664,-34.43779 -45.02313,-64.28547 -13.25287,-26.50104 -15.12636,-31.35996 -17.29167,-44.84598 l -1.35475,-8.43766 2.44513,-1.9136 c 1.34482,-1.05248 2.82635,-3.09368 3.29229,-4.53599 0.8601,-2.66246 0.71601,-3.63398 -1.89224,-12.75805 -0.70118,-2.45283 -1.50991,-7.63836 -1.79717,-11.5234 l -0.5223,-7.06372 2.55176,-2.38369 c 1.40347,-1.31104 2.55176,-2.90347 2.55176,-3.53875 0,-1.28503 2.98086,-4.26296 4.86511,-4.86032 1.11625,-0.35388 11.42754,4.60383 18.92325,9.09837 2.42792,1.45582 4.83315,1.97837 10.94652,2.37817 10.19263,0.6666 12.03844,0.37463 12.63405,-1.99843 1.20762,-4.81155 -2.63088,-8.48807 -8.86204,-8.48807 -2.72206,0 -5.24234,-0.61536 -7.47219,-1.82442 -1.8506,-1.00343 -5.30309,-2.87112 -7.6722,-4.15041 -6.49282,-3.50606 -6.59806,-3.63447 -4.99893,-6.09969 0.75472,-1.16347 3.09152,-4.12227 5.1929,-6.57509 2.10137,-2.45283 4.43947,-5.68219 5.19578,-7.17634 1.5262,-3.01513 0.58985,-2.94597 12.60124,-0.93089 5.27578,0.88509 6.4842,0.85064 9.12209,-0.26 2.88252,-1.21366 3.0407,-1.47276 3.0407,-4.98097 0,-3.69217 -0.0104,-3.7056 -4.48952,-5.82639 -4.57126,-2.16438 -6.52873,-4.35967 -5.73403,-6.43064 0.24333,-0.6341 1.1708,-1.15291 2.06104,-1.15291 0.89024,0 1.98811,-0.69038 2.43969,-1.53418 0.67596,-1.26303 2.14989,-1.63477 8.33977,-2.10341 8.22043,-0.62237 10.40858,-1.56563 12.82493,-5.52856 2.02361,-3.31881 2.01319,-7.55664 -0.0268,-10.90246 -2.13126,-3.4955 -4.43465,-3.39341 -8.28594,0.36728 l -3.07492,3.00254 0.002,-2.3944 c 0.002,-1.31693 1.27847,-4.92768 2.83799,-8.02389 1.55952,-3.09621 2.83548,-6.48311 2.83548,-7.52643 0,-4.00657 2.24142,-7.51375 5.84817,-9.15071 1.91215,-0.86786 4.04896,-1.58593 4.74846,-1.59573 0.6995,-0.01 3.16247,-0.57927 5.47326,-1.2655 4.8688,-1.44588 5.5043,-3.28574 2.06844,-5.98838 -2.36426,-1.85973 -5.90552,-2.95557 -12.15581,-3.76164 -6.07699,-0.78371 -6.76822,-1.43164 -4.33957,-4.06767 2.27726,-2.47168 9.23857,-5.99699 11.86555,-6.00886 0.96312,-0.004 4.93239,2.36382 8.82057,5.26262 3.88819,2.89879 7.31903,5.27054 7.62408,5.27054 0.30506,0 2.08272,-0.73828 3.95037,-1.64063 4.53381,-2.1905 4.73618,-5.25299 0.55772,-8.44005 -2.80836,-2.14205 -3.82703,-5.4294 -2.02713,-6.5418 2.16174,-1.33603 -1.14202,-9.70049 -4.29012,-10.86177 -0.9852,-0.36343 -4.44174,-0.89907 -7.68119,-1.19032 -3.23946,-0.29125 -9.29778,-1.62118 -13.46294,-2.95539 -4.16509,-1.33422 -7.82749,-2.42586 -8.13859,-2.42586 -1.23518,0 -2.91546,5.87634 -2.91546,10.19604 0,4.5627 -0.0118,4.58425 -5.67597,10.42581 -3.49226,3.60157 -5.67597,6.53194 -5.67597,7.61668 0,1.4804 -0.46334,1.76302 -2.89038,1.76302 -4.469,0 -10.81415,3.04792 -11.4268,5.4889 -0.81316,3.23989 0.61433,5.60197 5.3978,8.93182 4.68982,3.26465 4.8387,3.65736 3.61883,9.54556 -0.36372,1.75561 -0.13856,2.78987 0.77181,3.54541 1.62382,1.34765 1.64314,4.31102 0.0482,7.39525 -1.40794,2.72266 -2.26075,2.88082 -6.34093,1.17601 -3.49848,-1.46176 -8.75347,-1.58834 -10.09856,-0.24326 -2.08565,2.08566 -1.09768,5.45314 2.67582,9.12057 2.65128,2.57675 3.64883,4.18174 3.64883,5.87072 -1e-5,4.49519 -4.58449,8.36127 -9.91498,8.36127 -4.70236,0 -6.30209,1.82375 -6.30209,7.1846 0,4.24731 -0.24747,4.89993 -2.79399,7.36812 -1.5367,1.48942 -3.79758,4.29576 -5.02419,6.2363 -1.2266,1.94054 -2.90588,3.74272 -3.73173,4.00482 -1.7136,0.54388 -3.85629,-0.9183 -3.85629,-2.63153 0,-0.63461 -0.89562,-2.04947 -1.99027,-3.14412 -2.39653,-2.39653 -6.76358,-2.65872 -10.22518,-0.61391 -1.2815,0.757 -2.58304,1.12333 -2.89232,0.81405 -0.30927,-0.30927 -0.84899,-8.49998 -1.19937,-18.20157 -0.35038,-9.70157 -1.03458,-20.74075 -1.52043,-24.53149 -2.47022,-19.27307 -3.43642,-25.47017 -5.36754,-34.4269 -2.34671,-10.88424 -9.93268,-38.24979 -17.76678,-64.0917 -9.255641,-30.53109 -14.273599,-49.30367 -15.497113,-57.97597 -0.719092,-5.09694 -1.390722,-18.44595 -1.673457,-33.26086 -0.450802,-23.62138 -0.395693,-24.96745 1.211667,-29.59613 0.926172,-2.66706 3.199382,-9.77514 5.051578,-15.79572 4.353242,-14.15025 6.819239,-20.71731 9.286745,-24.73101 1.09668,-1.78388 2.74976,-4.86107 3.67351,-6.8382 2.86001,-6.12134 8.38066,-13.10647 16.82512,-21.288358 7.48118,-7.24857 8.89362,-8.228556 18.28839,-12.688958 5.59959,-2.658545 12.00762,-5.440398 14.24006,-6.181896 2.23244,-0.741499 4.95817,-2.055479 6.05718,-2.919958 1.099,-0.864477 2.44233,-1.571778 2.98518,-1.571778 0.54284,0 3.03948,-0.900751 5.54807,-2.00167 9.77479,-4.289748 33.45405,-8.798219 42.46826,-8.085849 34.13004,2.697213 38.98388,3.807365 91.82926,21.002788 10.3087,3.354363 11.43809,3.550933 25.54186,4.445576 20.85833,1.323105 35.03815,1.081912 47.66539,-0.810768 6.11679,-0.916838 12.76341,-2.178618 14.77027,-2.803956 4.79351,-1.493658 32.24893,-6.881004 35.06751,-6.881004 2.79235,0 4.72605,2.835033 5.27885,7.739437 0.39357,3.491753 0.2477,3.814808 -3.14162,6.957627 -7.31189,6.780107 -12.9106,8.103697 -16.45592,3.890335 -1.15456,-1.372124 -2.09921,-2.817594 -2.09921,-3.212157 0,-0.763405 -3.95047,-1.936895 -9.3937,-2.790404 l -3.31231,-0.519377 -2.49389,6.332774 c -1.37164,3.483026 -2.75559,8.157186 -3.07544,10.387036 -0.79608,5.54978 -1.404,6.46102 -5.69697,8.5392 -3.14858,1.5242 -4.56952,1.72971 -9.13584,1.32132 -2.97404,-0.26599 -6.39863,-0.71799 -7.6102,-1.00446 -1.76376,-0.41702 -2.69312,-0.0306 -4.66241,1.93871 -3.09873,3.09874 -3.26022,7.43624 -0.52449,14.08778 l 1.89658,4.61123 -2.82735,2.68644 c -7.18318,6.82523 -9.28202,12.28659 -5.68898,14.80326 3.5396,2.47923 8.33162,0.85103 14.47731,-4.919 2.03846,-1.91386 2.16722,-1.92998 5.27054,-0.65994 1.74957,0.71602 5.1156,2.23541 7.48008,3.37641 3.78094,1.82454 4.66092,1.96614 7.30153,1.175 1.73129,-0.51871 4.66675,-2.58924 6.93336,-4.89045 3.76804,-3.82557 3.96471,-4.25496 4.7473,-10.36541 0.44903,-3.50598 1.18137,-8.35822 1.62741,-10.78275 1.51308,-8.22453 6.68356,-10.81694 15.32932,-7.68591 4.22032,1.52837 11.7043,1.11567 16.8093,-0.92695 4.43877,-1.77604 7.12267,-5.11182 8.64947,-10.75026 0.68635,-2.53467 1.61634,-5.9768 2.06666,-7.64918 0.94346,-3.50383 2.03712,-3.740705 8.38291,-1.81564 5.0034,1.51783 8.67593,1.53124 12.23382,0.0447 5.48891,-2.293416 4.1782,-9.083324 -2.14632,-11.11863 -1.87587,-0.603677 -3.54003,-1.498462 -3.69812,-1.988412 -0.52696,-1.633056 2.56976,-4.446499 5.26762,-4.785767 1.46509,-0.18424 3.83683,-1.171681 5.27055,-2.194314 3.51937,-2.51027 10.89836,-2.344515 23.2835,0.523015 5.12865,1.187435 15.22087,3.409895 22.42715,4.938801 14.6359,3.105191 17.49104,4.095342 30.02845,10.413746 10.4824,5.282751 21.21503,11.959801 28.34994,17.637211 4.72996,3.76375 5.63028,4.99794 9.61143,13.17559 6.83282,14.03527 8.276,20.20221 9.86532,42.15585 2.79731,38.63958 1.55076,82.83146 -2.8736,101.87398 -0.88075,3.79073 -2.18175,11.9312 -2.89111,18.08993 -0.8632,7.49441 -1.92267,12.7236 -3.20353,15.81163 -1.05259,2.53766 -2.36643,6.07347 -2.91965,7.85735 -1.66431,5.36656 -12.31622,29.01213 -14.24572,31.62326 -2.40203,3.25057 -5.2262,8.95115 -5.2262,10.54904 0,0.70888 -0.54298,2.33887 -1.20662,3.62221 -0.66365,1.28335 -1.76542,6.05373 -2.44838,10.60086 -0.68298,4.54712 -2.31664,12.32742 -3.63039,17.28955 -1.31373,4.96213 -3.32277,13.38166 -4.46453,18.71006 -1.14175,5.32841 -2.61394,10.7665 -3.27153,12.08466 -0.65758,1.31815 -1.1956,2.99738 -1.1956,3.73161 0,0.73422 -0.4123,1.74725 -0.91622,2.25118 -0.50393,0.50392 -1.56081,2.67498 -2.34864,4.82457 -0.78782,2.14959 -2.41414,6.46254 -3.61405,9.58432 -2.88214,7.49847 -5.02751,17.50672 -6.03733,28.16444 -0.45222,4.7727 -1.26701,9.38987 -1.81065,10.26037 -0.77505,1.24106 -0.77965,4.09096 -0.0213,13.20221 1.96618,23.62233 2.76608,40.2445 2.3736,49.32414 -0.36235,8.38253 -0.77623,10.41244 -4.09582,20.08809 -2.03101,5.9198 -4.5325,12.12282 -5.55887,13.7845 -3.97768,6.43977 -18.35213,23.68917 -26.54499,31.85409 -10.1836,10.14886 -17.15646,15.45414 -27.1645,20.66802 -4.05551,2.1128 -8.49495,4.6709 -9.86543,5.68465 -2.54413,1.88192 -14.39165,5.85619 -23.86094,8.00419 -10.93466,2.48039 -21.20735,3.65023 -50.27287,5.72498 -9.58833,0.68443 -22.17682,1.83463 -27.97441,2.556 -8.4263,1.04843 -20.30162,1.35594 -59.19225,1.53281 -26.75814,0.12168 -51.98625,-0.0694 -56.06247,-0.42461 z m 84.44231,-45.34241 c 3.56776,-0.85933 9.35196,-1.95857 12.85381,-2.44276 3.50184,-0.48417 6.60743,-1.02893 6.9013,-1.21055 0.29388,-0.18163 6.81525,-1.29232 14.49195,-2.46822 7.67669,-1.17589 16.06494,-2.68639 18.64055,-3.35665 4.44533,-1.15683 15.9852,-5.44886 22.1055,-8.22173 1.55497,-0.7045 7.5828,-2.08376 13.39519,-3.06504 13.59645,-2.29543 13.62792,-2.30722 16.08986,-6.02746 1.1476,-1.73414 2.92159,-3.40641 3.94218,-3.71616 1.0206,-0.30974 2.61577,-1.25743 3.54482,-2.10598 0.92905,-0.84854 6.71035,-3.37091 12.84733,-5.60526 14.31742,-5.2127 16.34562,-6.28497 22.27963,-11.77881 9.59401,-8.88237 11.78053,-16.89383 8.79118,-32.2112 -1.64854,-8.44708 -4.11783,-13.06086 -10.30506,-19.25462 -7.03276,-7.04017 -25.8966,-15.84238 -37.28206,-17.39649 -2.4268,-0.33126 -4.91583,-1.10575 -5.53118,-1.7211 -0.61535,-0.61535 -2.35205,-1.11882 -3.85932,-1.11882 -1.50728,0 -4.7109,-0.51322 -7.11917,-1.1405 -9.03329,-2.35287 -24.46677,-3.26459 -37.908,-2.23939 -47.17643,3.59831 -56.63503,3.29631 -84.28548,-2.69104 -17.34641,-3.75614 -22.31704,-5.24177 -39.32636,-11.75397 -4.90566,-1.87818 -10.7438,-4.07389 -12.97364,-4.87935 -5.94425,-2.14717 -18.33112,-4.05389 -26.33578,-4.05389 -6.49182,0 -7.47306,0.2312 -13.64161,3.21424 -3.65565,1.76783 -6.64664,3.5316 -6.64664,3.91949 0,0.38788 -2.0484,2.11602 -4.55198,3.84031 -2.50359,1.72429 -5.42851,4.43034 -6.49983,6.01345 -1.07132,1.58312 -3.71034,4.97999 -5.86449,7.5486 -2.15414,2.56861 -4.97614,6.58233 -6.27109,8.91938 l -2.35448,4.24918 v 15.12796 15.12796 l 4.3271,8.55498 c 2.3799,4.70524 5.69093,10.12126 7.35784,12.03561 1.6669,1.91434 4.4238,6.07981 6.12643,9.25659 3.64219,6.79564 9.47116,13.86777 16.24445,19.70895 5.7942,4.99684 17.14562,10.65029 31.18259,15.53015 5.55523,1.93125 10.6648,4.07454 11.3546,4.76287 0.6898,0.68833 3.26909,1.67117 5.73176,2.18407 2.46267,0.51289 7.94988,2.41608 12.19382,4.22928 4.24394,1.81321 9.69027,3.7201 12.10296,4.23753 12.39546,2.65834 37.21121,2.65752 48.25132,-0.002 z m 56.60896,-161.5115 c 2.86196,-1.30399 4.72744,-5.97619 5.21698,-13.06626 0.35039,-5.07463 0.16713,-6.65672 -0.97258,-8.39613 -1.03873,-1.58531 -1.25335,-2.91272 -0.82441,-5.09906 1.26729,-6.45958 0.37523,-56.43661 -1.17668,-65.92266 -0.48556,-2.96796 -1.23786,-14.05694 -1.67178,-24.64218 -0.87046,-21.23404 -1.13028,-22.26577 -6.13379,-24.35637 -3.2317,-1.35029 -13.90932,-1.51245 -23.43562,-0.35591 -3.5909,0.43595 -12.36705,1.14737 -19.50255,1.58094 -12.5197,0.76071 -13.03748,0.86223 -14.79806,2.90141 -3.29978,3.82194 -1.87892,10.31342 2.55202,11.65934 4.79873,1.45765 15.13986,1.77759 27.3263,0.84545 8.64225,-0.66105 12.80119,-0.68509 14.12558,-0.0817 2.53393,1.15454 3.14642,4.57279 5.69157,31.76389 1.91938,20.50584 2.06722,24.97672 1.83907,55.61354 -0.27213,36.54094 -0.44864,35.11403 4.61669,37.32161 3.02441,1.3181 4.65113,1.37137 7.14726,0.23405 z m 74.58789,-130.58375 c 3.47904,-0.4918 6.82815,-1.39682 7.44247,-2.01114 0.61431,-0.61432 1.81691,-1.11694 2.67245,-1.11694 2.7798,0 17.0946,-10.28451 36.09321,-25.93127 22.0728,-18.17858 30.94447,-53.58629 20.16905,-80.49663 -4.53177,-11.31756 -6.64302,-15.06386 -11.52561,-20.4516 -2.65256,-2.927 -4.82284,-5.82789 -4.82284,-6.44643 0,-0.61854 -1.91564,-2.69477 -4.25697,-4.61385 -2.34134,-1.91907 -7.02179,-6.09282 -10.40101,-9.27498 -9.94105,-9.36132 -22.45973,-17.01028 -37.03875,-22.63081 -7.50369,-2.89283 -22.55641,-6.91729 -25.8802,-6.91927 -5.27433,-0.003 -12.08324,11.67294 -9.33262,16.00379 1.20089,1.89079 8.64483,2.72203 12.42681,1.38766 4.4951,-1.58596 9.75368,-0.62294 19.61758,3.59261 17.29652,7.39203 19.58425,8.77038 29.11089,17.53917 14.13841,13.01369 24.15462,24.44085 26.28507,29.98776 5.62093,14.63489 5.50052,14.08679 5.43448,24.73602 -0.11215,18.08527 -4.01364,27.95165 -15.96105,40.36342 -17.11822,17.78357 -34.67085,29.22444 -50.00733,32.59495 -7.33649,1.61235 -17.75833,0.0387 -27.38358,-4.13491 -7.10824,-3.08217 -8.57023,-4.11098 -14.78076,-10.40125 -7.97919,-8.08164 -11.95322,-14.31391 -12.88469,-20.2064 -0.36275,-2.29474 -1.26198,-4.83793 -1.99829,-5.65154 -2.35777,-2.6053 -3.16247,-10.20378 -2.71876,-25.67202 0.28159,-9.81693 0.85355,-16.18816 1.74699,-19.46047 1.74429,-6.38855 6.50646,-14.61743 13.49919,-23.32614 5.16227,-6.42906 6.0391,-7.15796 9.88874,-8.22029 6.61023,-1.82412 11.58084,-2.27479 18.22392,-1.65228 5.65063,0.52951 6.4083,0.82551 9.56784,3.73786 6.7443,6.21669 14.20247,18.52579 17.28815,28.5327 3.12688,10.14052 2.11143,13.29398 -7.01168,21.77458 -5.00402,4.65161 -7.04677,5.24274 -12.20099,3.53079 -4.76182,-1.58163 -7.24078,-4.00874 -7.96018,-7.79372 -0.2926,-1.53945 -0.89278,-3.2582 -1.33373,-3.81943 -1.31442,-1.67296 -0.10868,-6.19863 3.81489,-14.31895 4.20627,-8.70541 4.65955,-12.28665 1.87744,-14.83306 -5.56693,-5.0953 -10.82459,-2.36612 -16.31051,8.46659 -2.99256,5.90922 -4.54289,13.19318 -4.55696,21.41002 -0.0176,10.28068 1.54799,14.3709 7.59538,19.84348 6.47174,5.85658 10.46971,7.03486 22.63571,6.67117 l 9.08328,-0.27154 4.94464,-3.39268 c 7.11013,-4.87849 11.94004,-10.56956 13.68887,-16.12955 1.95122,-6.20344 1.28106,-14.4964 -2.29866,-28.44506 -3.25947,-12.70083 -5.2266,-17.02606 -10.28268,-22.60916 -2.08479,-2.3021 -4.44676,-5.29656 -5.24883,-6.65436 -2.0983,-3.55212 -11.7623,-9.71676 -16.29902,-10.39708 -2.03976,-0.30588 -9.64123,-0.3938 -16.89215,-0.19538 -12.44084,0.34045 -13.38842,0.48087 -16.82133,2.49269 -4.00086,2.34466 -6.58191,4.80025 -11.86812,11.29127 -4.47427,5.49403 -7.43978,10.13362 -7.43978,11.63967 0,0.64914 -0.82098,1.99636 -1.82441,2.9938 -1.95536,1.94369 -3.85155,5.14426 -3.85155,6.501 0,0.45732 -0.53273,1.2366 -1.18384,1.73174 -0.65112,0.49513 -2.11065,4.4978 -3.24341,8.89482 -1.81891,7.06038 -2.05784,9.61867 -2.04472,21.89303 0.0173,16.19743 1.53835,28.45171 4.42807,35.67488 1.12415,2.80991 2.0439,5.37399 2.0439,5.69794 0,0.32395 1.39045,2.66708 3.0899,5.20693 1.69945,2.53985 4.05597,6.29887 5.23671,8.35338 1.18073,2.05452 5.10251,6.51602 8.71506,9.91445 5.46762,5.14354 8.36063,7.07277 17.26446,11.51295 l 10.69619,5.334 13.37907,-0.46637 c 7.35849,-0.25649 16.22556,-0.86874 19.7046,-1.36056 z M 231.82304,304.0149 c 4.33063,-0.47616 10.58799,-1.57081 13.90526,-2.43256 3.31726,-0.86176 6.54489,-1.56684 7.1725,-1.56684 0.62761,0 2.10964,-0.66449 3.29341,-1.47665 1.18376,-0.81216 3.97672,-2.14687 6.20657,-2.96603 18.77162,-6.89603 38.55145,-20.71098 44.34089,-30.9693 1.34087,-2.37589 2.74806,-4.3198 3.1271,-4.3198 1.29669,0 6.48407,-11.75131 7.23161,-16.38222 0.41062,-2.54368 1.14724,-5.37355 1.63697,-6.2886 0.48972,-0.91504 1.09918,-3.94223 1.35436,-6.72707 0.51217,-5.58933 -0.92262,-22.21146 -2.03942,-23.62695 -0.38919,-0.49328 -1.164,-2.3564 -1.72181,-4.14028 -1.94014,-6.20455 -5.77997,-12.34181 -9.99753,-15.97921 -8.66324,-7.47155 -18.87843,-14.33664 -25.8907,-17.39977 -1.67239,-0.73054 -3.0407,-1.82023 -3.0407,-2.42153 0,-0.66252 -0.91452,-1.09328 -2.32103,-1.09328 -1.27658,0 -4.83419,-1.0355 -7.90582,-2.30111 -12.96401,-5.34159 -24.70335,-8.27075 -49.37082,-12.31884 -14.24166,-2.33714 -14.5273,-2.30226 -19.17088,2.34132 -3.49345,3.49344 -3.93843,4.33366 -3.93843,7.43654 0,5.99306 3.13527,7.78141 9.19974,5.24751 6.32748,-2.64378 19.56277,-1.11915 43.45845,5.00616 10.13841,2.59884 14.80501,4.1826 16.48198,5.59367 1.28662,1.08261 2.79389,1.96839 3.34951,1.96839 1.50971,0 14.82655,6.62857 20.09524,10.00257 15.75894,10.09185 22.59436,26.96666 18.04105,44.53848 -2.49944,9.64564 -7.13439,17.27264 -15.65168,25.7555 -8.37085,8.337 -13.8452,12.5117 -17.61608,13.4339 -1.29489,0.31667 -3.21233,1.24029 -4.26101,2.05251 -1.04867,0.8122 -3.15188,1.71035 -4.67381,1.99586 -1.52192,0.28552 -3.03986,1.00647 -3.37321,1.60213 -0.80077,1.43089 -8.56271,4.82314 -15.83557,6.92072 -8.38156,2.41735 -27.27004,3.06804 -35.55485,1.22484 -10.77668,-2.39757 -19.37603,-7.27715 -29.26518,-16.60607 -10.58634,-9.98661 -15.48291,-17.69226 -17.29554,-27.21767 -0.59938,-3.14974 -1.63063,-7.64056 -2.29167,-9.97959 -0.66104,-2.33904 -1.64209,-7.88485 -2.18011,-12.32402 -0.89757,-7.40579 -0.85703,-8.25847 0.49172,-10.34255 3.40927,-5.26797 7.22647,-9.1869 10.48481,-10.76423 1.91291,-0.92603 4.13013,-2.40425 4.92713,-3.28493 0.79701,-0.88068 2.3176,-1.60125 3.3791,-1.60125 1.06149,0 2.90463,-0.63855 4.09587,-1.41899 2.60026,-1.70357 9.77667,-1.807 16.42667,-0.23676 4.13495,0.97637 6.14194,1.77184 17.5494,6.9557 2.29368,1.04231 5.45395,3.02215 7.02282,4.39963 6.20233,5.44572 13.53786,18.88081 13.53786,24.79471 0,2.72483 -0.91613,4.37689 -6.50157,11.72432 -7.04848,9.27197 -11.07918,12.63677 -16.48099,13.75818 -7.73949,1.60671 -17.46224,-1.85013 -22.69513,-8.06907 -2.39222,-2.84299 -2.56863,-4.44108 -1.29658,-11.74573 0.72515,-4.16414 1.5166,-5.73555 4.86511,-9.65959 2.42925,-2.84677 3.99908,-5.46662 3.99908,-6.67394 0,-5.10398 -4.62996,-10.85482 -8.73914,-10.85482 -2.66889,0 -9.91047,7.12149 -9.91047,9.74613 0,1.0281 -1.10736,3.59492 -2.46079,5.70407 -1.45843,2.27277 -2.76909,5.72908 -3.21767,8.48528 -0.41629,2.55775 -1.25807,5.42508 -1.87064,6.37183 -3.61424,5.58605 -2.15429,10.44678 5.40683,18.00143 12.51112,12.50044 25.03636,17.49947 37.43117,14.93941 8.23601,-1.7011 13.33223,-4.97617 22.20645,-14.27091 13.09132,-13.71167 15.18276,-20.10236 11.40857,-34.86032 -3.14946,-12.3151 -8.86166,-21.01295 -20.04813,-30.52685 -4.74727,-4.03747 -14.15434,-8.95036 -19.00883,-9.92747 -1.47586,-0.29706 -4.8727,-1.29426 -7.54851,-2.21599 -3.74612,-1.29042 -7.00985,-1.69178 -14.18992,-1.745 -10.70929,-0.0794 -12.04699,0.41752 -25.54186,9.48806 -8.7466,5.879 -14.31436,11.40113 -17.1627,17.02206 -1.98196,3.91122 -2.07882,4.65106 -1.661,12.68751 0.50701,9.75202 3.68766,27.81606 6.78521,38.53565 1.48263,5.13089 3.36791,9.22371 6.34958,13.78449 5.12666,7.84179 8.1384,10.88771 16.8553,17.04663 3.6698,2.59289 9.23927,6.63823 12.37661,8.98963 5.19621,3.89451 6.67665,4.52948 16.62248,7.12953 12.0236,3.14322 17.4042,3.50378 30.61337,2.05144 z"
     id="path22"
     transform="scale(0.75000001)" />
  <path
     style="fill:#ffffff;stroke-width:0"
     d="m 238.48062,509.59456 c -7.08719,-4.11015 -12.90485,-11.57989 -14.91418,-19.14946 -1.51003,-5.68859 -2.1345,-7.17688 -3.01133,-7.17688 -0.39826,0 -0.7241,-0.64507 -0.7241,-1.43348 0,-0.78842 -0.86069,-2.70405 -1.91265,-4.25698 -3.19859,-4.72184 -3.34453,-6.18642 -0.84712,-8.50094 1.96271,-1.81897 2.66859,-1.9904 6.33583,-1.53866 8.98375,1.10663 15.90012,2.79685 25.17724,6.15281 9.27045,3.35355 9.72179,3.6233 10.23142,6.11512 0.99711,4.87533 -2.20216,21.48118 -4.49496,23.33113 -0.55485,0.44768 -1.26593,1.62407 -1.58019,2.61421 -0.74875,2.35911 -4.64831,5.08613 -7.96815,5.57224 -1.88804,0.27646 -3.68522,-0.21744 -6.29181,-1.72911 z"
     id="path24"
     transform="scale(0.75000001)" />
  <path
     style="fill:#ffffff;stroke-width:0"
     d="m 193.22367,523.0795 c -3.19002,-4.40369 -3.64349,-7.54157 -2.63174,-18.21071 0.87999,-9.27975 2.64136,-14.26911 6.2263,-17.63699 2.30205,-2.16266 4.04773,-1.56968 4.74662,1.61236 0.29501,1.34316 1.80987,4.10995 3.36636,6.14843 1.55649,2.03847 3.35639,4.96618 3.99978,6.50601 1.21571,2.90962 1.60639,13.92746 0.54923,15.48922 -0.32765,0.48403 -2.78503,1.86056 -5.46084,3.05896 -2.67581,1.19839 -5.64801,3.13231 -6.60487,4.29761 l -1.73976,2.11872 z"
     id="path26"
     transform="scale(0.75000001)" />
  <path
     style="fill:#ffffff;stroke-width:0"
     d="m 231.9938,567.86106 c -1.56089,-1.09799 -4.52491,-2.86639 -6.58671,-3.92979 -4.56053,-2.35215 -11.90304,-10.27213 -16.19037,-17.46371 -3.70434,-6.21366 -3.8473,-7.04779 -1.20788,-7.04779 1.07928,0 2.99492,-0.72395 4.25698,-1.60878 2.0287,-1.42232 11.32632,-4.5529 22.16054,-7.46162 7.7725,-2.08672 7.5772,-2.12045 11.13625,1.92285 6.96178,7.909 7.92015,13.84682 3.39152,21.01302 -1.52372,2.41118 -5.3246,7.1263 -8.44638,10.47805 l -5.67597,6.0941 z"
     id="path28"
     transform="scale(0.75000001)" />
  <path
     style="fill:#ffffff;stroke-width:0"
     d="m 293.9763,527.48548 c -0.86569,-0.65477 -2.46068,-1.2021 -3.54444,-1.21628 -4.47857,-0.0586 -13.13886,-12.97246 -14.30239,-21.32713 -0.69113,-4.96253 0.31092,-17.12459 1.54237,-18.72019 0.83432,-1.08102 2.81252,-0.85984 16.75762,1.87362 19.15254,3.75421 22.67637,4.6672 24.58203,6.36896 1.42306,1.2708 1.42306,1.35144 0,2.39133 -1.19528,0.87344 -1.52746,2.48052 -1.76325,8.53066 -0.15979,4.09996 -0.70711,8.04153 -1.21628,8.75904 -1.49794,2.11087 -10.35681,9.69523 -14.26086,12.20918 -4.07462,2.62378 -5.53988,2.83635 -7.7948,1.13081 z"
     id="path30"
     transform="scale(0.75000001)" />
  <path
     style="fill:#ffffff;stroke-width:0"
     d="m 290.92906,590.63152 c -3.48611,-0.62999 -8.2296,-2.01405 -10.54109,-3.07568 -2.31148,-1.06164 -6.31993,-2.87377 -8.90766,-4.02697 -2.58773,-1.1532 -5.64723,-2.83791 -6.79889,-3.7438 -1.15165,-0.9059 -2.98091,-1.64709 -4.06501,-1.64709 -1.0841,0 -2.7361,-0.40942 -3.67111,-0.90982 -1.63757,-0.8764 -1.60584,-0.94944 0.8636,-1.98776 1.47314,-0.61941 2.9452,-2.04318 3.46066,-3.34715 2.49094,-6.30131 3.46347,-7.93544 6.92517,-11.63628 2.06402,-2.2066 4.19999,-4.01201 4.74659,-4.01201 0.54661,0 2.37998,-1.10158 4.07417,-2.44795 4.40655,-3.50188 10.69784,-5.12974 18.01128,-4.66039 6.78004,0.43511 9.44203,1.86575 11.82502,6.35513 1.28584,2.42242 1.42674,4.24171 1.09449,14.13228 -0.45035,13.40639 -1.59204,19.3727 -4.03447,21.08345 -2.07815,1.45559 -4.58906,1.4409 -12.98275,-0.076 z"
     id="path32"
     transform="scale(0.75000001)" />
  <path
     style="fill:#ffffff;stroke-width:0"
     d="m 324.7358,587.49294 c -0.86454,-2.25296 4.6278,-16.02509 7.56031,-18.9576 0.7668,-0.7668 1.03913,-2.02772 0.75009,-3.47293 -1.0111,-5.05549 6.95235,-10.20437 14.23361,-9.20294 5.22894,0.71916 8.37745,3.01284 13.37023,9.74015 2.30469,3.10537 6.62962,7.89298 9.61095,10.63914 l 5.4206,4.99302 -4.34041,0.83309 c -2.38722,0.4582 -6.52971,1.07211 -9.20552,1.36426 -2.67582,0.29214 -10.05058,1.59289 -16.38836,2.89055 -12.8997,2.64122 -20.28984,3.05388 -21.0115,1.17326 z"
     id="path34"
     transform="scale(0.75000001)" />
  <path
     style="fill:#ffffff;stroke-width:0"
     d="m 347.85919,529.91383 c -2.75461,-1.52207 -4.33004,-4.00949 -5.95944,-9.40924 -1.77003,-5.8658 -2.64915,-20.55176 -1.32572,-22.1464 1.27913,-1.54126 4.0215,-1.91422 21.96706,-2.9875 14.4992,-0.86717 19.92837,-1.522 22.89975,-2.76203 2.72431,-1.13691 2.55635,2.07223 -0.58872,11.24852 -4.13221,12.05646 -6.29403,14.31812 -20.2839,21.22073 -12.05413,5.94751 -13.78872,6.44954 -16.70903,4.83592 z"
     id="path36"
     transform="scale(0.75000001)" />
  <path
     style="fill:#ffffff;stroke-width:0"
     d="m 405.31939,512.66163 c -0.22733,-11.00117 -0.0592,-18.86654 0.41345,-19.33917 0.90133,-0.90133 21.50728,2.25473 28.97414,4.43775 10.44822,3.05467 12.16279,3.801 12.16279,5.2943 0,2.87174 -9.2337,11.02553 -12.48717,11.02675 -0.93651,3.5e-4 -4.0745,1.12706 -6.9733,2.50379 -4.73083,2.24683 -16.80418,5.54116 -20.47403,5.58655 -1.2609,0.0156 -1.44093,-1.04395 -1.61588,-9.50997 z"
     id="path38"
     transform="scale(0.75000001)" />
  <path
     style="fill:#ffffff;stroke-width:0"
     d="m 384.22981,566.31147 c -0.3336,-0.33361 -0.60655,-3.42014 -0.60655,-6.85896 0,-6.65626 -0.40743,-7.46233 -4.23358,-8.37586 -2.74788,-0.65608 -4.31262,-3.18927 -2.76392,-4.47458 2.30055,-1.90928 9.75284,-2.31739 31.7285,-1.73751 22.40089,0.59109 27.70429,1.25909 31.99644,4.03015 1.69788,1.09616 -0.70489,3.55479 -6.01115,6.1509 -4.00726,1.96057 -19.18684,6.27385 -27.60699,7.84452 -2.22985,0.41595 -6.79089,1.32729 -10.13566,2.0252 -8.3188,1.73576 -11.65125,2.11197 -12.36709,1.39614 z"
     id="path40"
     transform="scale(0.75000001)" />
  <path
     style="fill:#ffffff;stroke-width:0"
     d="m 460.52467,540.82107 c -1.63216,-0.86225 -3.72244,-2.57932 -4.64506,-3.81572 -0.92263,-1.23639 -2.44867,-3.02211 -3.39121,-3.96827 -1.63709,-1.64337 -1.65436,-1.83506 -0.38625,-4.28731 1.94563,-3.76245 11.33605,-13.04744 13.19558,-13.04744 2.23941,0 4.1952,2.44785 5.54847,6.94444 2.08814,6.93837 1.04458,12.42513 -3.22407,16.95122 -3.11132,3.29896 -3.15404,3.30632 -7.09746,1.22308 z"
     id="path42"
     transform="scale(0.75000001)" />
</svg>
