<svg xmlns="http://www.w3.org/2000/svg" width="653.333" height="789.333" viewBox="0 0 490 592" preserveAspectRatio="xMidYMid meet"  xmlns:v="https://vecta.io/nano"><path d="M310 49l-7 1.4-9.4 2c-3.8.9-7.8 2.2-9 2.9s-5.2 2.4-9.1 3.6c-3.8 1.3-7.4 2.7-7.9 3.2-.6.5-2.1.9-3.5.9-3 0-9.2 2.1-11.2 3.7-.8.6-2.9 1-4.7.8-2.3-.1-3.6.4-4.3 1.7-.6 1-2.6 2-4.9 2.4-2.2.4-4 .9-4 1.3 0 .8-8.9 4.5-10.3 4.2-.4 0-1 .6-1.3 1.4-.4.8-1.1 1.5-1.8 1.5-.6 0-3.3 1.1-6.1 2.5-2.7 1.3-5.5 2.5-6.1 2.5s-1.9.9-2.9 2-2.2 2-2.7 2-3.5 1.7-6.6 3.9c-3.1 2.1-6.7 4.1-8 4.5-1.2.4-3.4 1.7-5 3-1.5 1.2-4.2 2.8-5.9 3.5-1.8.8-3.3 1.7-3.3 2.2s-.8.9-1.8.9c-.9 0-2.2.8-2.8 1.8s-3 2.6-5.3 3.7c-2.2 1.1-4.1 2.3-4.1 2.7 0 .5-.7.8-1.5.8s-1.5.5-1.5 1c0 .6-.8 1.4-1.7 1.7-3.4 1.3-8.6 5.3-9.9 7.6-.7 1.2-2.7 5.1-4.4 8.7l-4.1 8a20.99 20.99 0 0 0-1.5 3c-.3.8-1 2.3-1.5 3.3s-.7 2.2-.4 2.7c.4.6.2 1-.3 1s-1.9 4.2-3.1 9.2c-1.3 5.1-2.7 9.7-3.1 10.3-.4.5-1.4 3-2.1 5.5-1.6 5.7-1.6 5.8-1.8 7 0 .5-.8 1-1.6 1s-1.5.9-1.5 2c0 1.8-2 6.8-7.1 17.6-1 2.2-1.9 4.5-1.9 5s-1.2 2.3-2.7 4c-3.7 4.2-5.3 7-5.3 9.4 0 1.1-.4 2-.9 2-.8 0-4.5 6.6-4.6 8.2 0 .4-.6 1.3-1.2 1.9-.7.7-1.3 2.1-1.3 3s-.7 2.2-1.5 2.9-1.5 2.1-1.5 3.1-.6 2.2-1.2 2.6c-1.4.9-3.3 3.6-4.7 6.8-.5 1.1-1.8 2.9-3 3.9-1.1 1.1-2.1 2.7-2.1 3.7s-.4 2.1-1 2.4c-.5.3-1 1.4-1 2.4s-.9 3-2 4.4-2.3 3.9-2.6 5.6c-.4 1.7-1.1 3.1-1.6 3.1s-.8.6-.7 1.2c.3 1.5-.7 5.3-2.8 11.8-.8 2.5-1.6 5.4-1.8 6.5L65.7 317c-.1.8-.6 2-.9 2.6-.7 1-1 3-2.3 14.4l-1.4 8.5c-1 5-1.5 16.2-1.2 24.5l.3 6.5c0 1.1.5 6.7 1 12.5l1.3 13.5c1 13.5 2.8 22.4 7.6 38.1.5 1.7.9 3.6.9 4.4 0 .7 1.1 3.6 2.4 6.4l4 8.6c4.3 9.2 17.8 25.3 25.7 30.4l6.9 4.6c1.4.9 7 3.6 12.5 5.9l13 5.7c5.8 2.5 34.6 9.6 45 11 23.5 3.3 34.5 4.1 49.5 3.9 9.1-.2 17.9-.6 19.5-.9l8.9-1.5c3.2-.5 6.3-1.4 6.9-2s2.7-1.1 4.7-1.1 5.3-.9 7.5-2 4.7-2 5.7-2 1.8-.5 1.8-1c0-.6.9-1 2-1s2-.4 2-.9c0-.6 1.7-1.9 3.8-3.1 2.2-1.2 4.7-3.6 5.7-5.3 1-1.8 2.4-3.6 3.2-4 .7-.4 1.3-1.5 1.3-2.4 0-.8 2.3-3.6 5-6.1 2.8-2.5 5-5.1 5-5.9 0-1.7 1.7-4.8 5.3-9.4 1.5-2 2.7-4 2.7-4.3 0-.4.9-1.6 2-2.8s2.5-3.4 3.2-4.8c.6-1.5 2.5-3.4 4.1-4.3 1.6-1 3.1-2.6 3.4-3.7s1.2-2 1.9-2c.8 0 1.4-.4 1.4-.8 0-.7 5.6-4.8 11.8-8.7.9-.6 5.9-4.5 11.2-8.8 12.9-10.6 12.2-10 15.1-13.3 1.5-1.6 5.8-5.7 9.7-9.2 3.8-3.5 7.8-8 8.8-10 1.1-2 2.7-4.8 3.7-6.1.9-1.3 1.7-3 1.7-3.8s.9-2.4 2-3.6c1.2-1.2 2.3-3.3 2.7-4.7.3-1.4 1.4-3.4 2.3-4.5 1-1.1 3.3-6.7 5.1-12.5 1.7-5.8 3.5-10.7 3.9-11s1-2.2 1.4-4.3c.4-2 1.1-3.7 1.5-3.7s.8-1.4.9-3.1c0-1.7.8-3.9 1.6-4.8.9-1 1.6-2.7 1.6-3.9 0-1.1.4-2.3.9-2.6.4-.3 1.4-2.6 2.1-5.1s1.7-4.5 2.2-4.5.6-.4.3-1c-.5-.9.7-4.1 6.2-16.8.8-1.8 1.2-4 .9-4.8s.1-1.7.9-2c1-.4 1.5-2 1.5-5 0-2.4.4-4.4.9-4.4s1.2-1.8 1.6-4 1-4 1.5-4c1.5 0 2.3-13.9 2.3-37.5-.1-18.8-.5-25.7-1.8-32-.9-4.4-1.9-10.5-2.1-13.5-.1-3-.6-7.1-1-9l-1-5c-.1-.8-.8-4.7-1.4-8.5-.7-3.9-1.4-8.6-1.7-10.5s-.9-4-1.3-4.5c-.4-.6-1.5-4.4-2.4-8.5s-2.8-10.9-4.2-15c-2.5-7.2-9.1-22-10.4-23-.3-.3-2.7-3.2-5.2-6.5-7.1-9.3-32.5-31.5-36.1-31.5-.5 0-2.2-1-3.7-2.3-1.5-1.2-5.1-3.6-8-5.2l-8.3-5c-3.5-2.2-13.2-5.6-21.3-7.5-5.6-1.2-5.9-1.3-11.9-2.4-2.2-.4-4.7-.9-5.5-1.1-.8-.1-3.5.1-6 .5zm16 13.3c3 .7 6 1.5 6.5 1.9.6.3 2.8.9 5 1.3s4.5 1.2 5.2 1.7 1.6.7 2 .5c.5-.3 2.7.8 5.1 2.4 2.3 1.6 4.5 2.9 4.8 2.9s4.7 2.9 9.7 6.3c5.1 3.5 9.7 6.6 10.3 6.8 2.1.8 11.7 9.4 21.1 18.9 10.8 10.9 14.8 18.1 20.7 36.5 5.9 18.8 9.4 36.1 13.6 67.5.5 3.6 1.4 9.2 2 12.5 1.7 8.3.7 45-1.3 52.5-.9 3-2.5 9.1-3.6 13.5-1.2 4.4-2.5 8.9-3 10-1.7 3.9-11.4 28.1-13.6 34-1.2 3.3-3 7.8-4 10l-2 4.5c-.5 2.5-3.8 12.9-4.5 14.5-3.4 7.8-6.5 13.8-8.6 16.6-1.3 1.8-2.4 4.1-2.4 5.1s-.4 1.8-1 1.8c-.5 0-1 .8-1 1.8 0 1.1-1.5 3.2-3.2 4.9-1.8 1.6-6.6 6.4-10.6 10.7-7.8 8.2-10.1 9.1-14.4 5.7-1.3-1.1-3.3-1.9-4.3-1.8-1.3.1-2.6-1.1-4-3.9-3-6.1-6.5-10.4-9.1-11.4-1.3-.5-3.3-2.8-4.4-5.2-2.5-5.2-3.8-12.8-2.1-12.8s1.3-7.6-.5-9.5c-1.3-1.3-1.6-3.1-1.2-9.3.4-5.1.1-9.3-.9-12.5-.8-2.6-1.2-5.1-.9-5.6.6-1-1.7-8.7-3.9-12.6-4.7-8.6-7.4-12.1-10.3-13.5-1.7-.8-4.5-3.4-6.3-5.8-2.5-3.4-2.9-4.5-1.9-5.7.7-.8 1.7-1.2 2.2-.9 1.5.9 5.8-1.7 5.8-3.5-.1-3-4.9-9.4-7.9-10.7-2.1-.9-3.1-1-3.1-.2 0 1.3-4.2 5.3-6.5 6.2-1.1.4-2.9-.2-4.9-1.7-1.7-1.3-3.9-2.6-4.9-3-.9-.4-2.6-2.2-3.7-4-2.2-3.7-6-5-11.3-4-3.2.6-3.4 2.5-1.2 8.1 1.5 3.8 10 12.1 13.8 13.5.9.3 1.7 1.2 1.7 1.8 0 .7-.3.9-.6.6-.4-.4-2.4.7-4.5 2.4-4.9 3.9-5.2 7.5-.9 11.9 3.6 3.7 4.8 3.8 6 .4.6-1.4 2.3-2.9 4-3.5 1.6-.6 3-1.5 3-2 0-1.9 3.1-2.1 5-.4 2.9 2.7 2.5 4.5-1 4.5-3.1 0-7 3-7 5.3 0 .7.7 2.2 1.5 3.3 1.2 1.8 2.2 2 6.7 1.6 2.9-.3 5.6-.9 5.9-1.4s1.9-.8 3.4-.6c3.6.4 8.3 6.2 8.7 10.7.3 3.3.1 3.5-3.7 4.5-10.1 2.7-12.8 6.4-8 11.1 2.8 2.9 5.4 3.1 9.6.9 1.7-.8 3.2-1.4 3.4-1.2.1.2.6 2.8.9 5.8.7 5.4.6 5.6-2.5 7.9-1.8 1.4-5.3 3.1-7.7 4-5.8 2.1-7.2 4.2-5.2 7.9 1.5 2.5 2 2.7 8.4 2.7 6.2 0 6.9.2 8.1 2.5.8 1.4 1.5 3.6 1.5 5s.7 3.4 1.5 4.4c2.6 3.4 1.8 5.4-2.5 6.7-3.4 1-4 1.6-4 3.9 0 1.5 1 3.6 2.5 5 2.4 2.3 2.8 2.3 7.1 1.2l4.5-1.2 5.3 5.5c3 3 5.7 5.5 6.1 5.5.5 0 1.6.7 2.6 1.6 1.6 1.5 1.4 1.8-3.2 6.3-2.8 2.7-4.9 5.6-4.9 6.8 0 1.1-1.4 3.1-3.1 4.4s-5.6 4.9-8.7 7.9c-3.2 3.1-7 6.6-8.6 7.8s-4.4 4.6-6.2 7.5c-1.8 2.8-3.8 5.7-4.4 6.4-.5.7-1 1.7-1 2.2 0 .6-.9 1.6-2 2.3s-2 1.9-2 2.6-.7 1.5-1.5 1.8c-.8.4-1.5 1.5-1.5 2.6s-1.1 3.4-2.5 5.2l-3.4 4.2c-.5.6-1.2 2-1.5 3.2-.4 1.2-1.1 2.2-1.6 2.2s-3.2 2.2-6 4.9c-3.6 3.4-6.5 5.2-9.8 6.1-2.6.6-5.6 1.5-6.7 2-3.5 1.4-9.8 2.9-15 3.5-2.7.4-8.3 1.3-12.4 2.1-4.9.9-10.9 1.2-18 .8-20-1.1-47.2-4.3-52.1-6.2-1.4-.5-5.2-1.3-8.5-1.7s-6.4-1-7-1.5c-.5-.4-2.7-1.1-4.9-1.4-2.1-.4-4.6-1.2-5.5-1.7-1.4-.8-6.8-3-16-6.4-1.8-.6-3.6-1.7-4-2.2-.3-.6-2.5-1.7-4.9-2.4-2.3-.6-6-2.7-8.1-4.6-2.2-1.8-4.3-3.3-4.8-3.3-2.5 0-14.2-14.6-18.8-23.3l-4.2-8.2c-1.9-3.6-3.2-6.9-4.4-11.5-.7-2.5-1.9-5.4-2.6-6.5-.6-1.1-1.5-4.9-1.8-8.5-.4-3.6-1.3-10.1-2.1-14.5-2.1-11.1-3.1-38.5-1.9-51.5.9-10.4 4.5-34 6.4-41.5l1.4-6.2c.3-1.2 1-3 1.5-4s1.2-3.8 1.6-6.2c.9-5.7 2.9-12.1 3.8-12.1.5 0 .8-.4.8-.9 0-1.9 6.4-14.6 9.6-19.3 1.9-2.6 3.4-5.2 3.4-5.8a1.08 1.08 0 0 1 1-1c.6 0 1-.5 1-1.1 0-.7 1-2.8 2.2-4.8 1.2-1.9 2.4-4.3 2.5-5.1.4-2.9 3.2-8.7 4.7-10 .9-.7 1.6-1.6 1.6-2.1s1.8-3.2 3.9-6c2.1-2.9 4.2-6.5 4.5-8.1s2-4.6 3.7-6.8c1.7-2.1 2.8-4.3 2.5-4.8-.3-.6.1-1.3 1-1.6s1.4-1.3 1-2.1c-.3-.8-.1-1.7.5-2 .5-.4.7-1 .4-1.5s-.1-1.1.5-1.5c.5-.3 1-1.6 1-2.7 0-1.2.3-1.8.7-1.5.7.8 6.3-15.6 6.3-18.6 0-1 .6-3.3 1.4-5 .7-1.8 1.8-5 2.3-7.2 1.2-4.6 3.2-10.2 4.4-12.7.5-1 .9-2.4.9-3.2s.3-1.6.8-1.8c.4-.2 1.7-2.4 3-5 2.3-4.7 13.4-15.8 15.8-15.8.7 0 2.5-1.4 4.1-3 1.5-1.7 3.3-3 3.9-3 .5 0 5.4-2.8 10.7-6.3 18.1-11.6 21.5-13.7 23-13.7.9 0 2.2-.6 2.9-1.3 1.6-1.6 10-5.7 11.7-5.7.6 0 2.4-1.1 3.9-2.5s3.4-2.5 4.4-2.5c.9 0 1.9-.4 2.2-.9.3-.4 2-1.1 3.7-1.5 1.8-.3 3.9-1.2 4.7-1.8 1.7-1.4 8-3.8 10.2-3.8.8 0 2.7-.7 4.2-1.4 3.2-1.7 21.7-7.6 23.8-7.6.8 0 2.4-.7 3.4-1.5 1.1-.8 2.8-1.5 3.8-1.5s1.8-.4 1.8-.9 1.9-1.2 4.3-1.5c2.3-.4 6-1.3 8.2-2.1 4.8-1.7 16-1.8 23.5-.2zm-140 83.4c-4.8 1.6-10 4.7-10 5.9 0 .8-.4 1.4-.8 1.4-.5 0-3.1 4.4-5.9 9.7l-6 11.8c-2.6 4.7-3.5 10.7-3.1 18.4.4 6.8.9 8.5 3.3 11.8 7.1 9.4 13.7 12.6 23.1 11.4 3.2-.5 7.3-.5 9.3 0 2.8.6 3.7.4 4.8-1.1 1.8-2.5 7.8-6.1 10.5-6.2 1.3-.1 3-.7 3.8-1.4s2.7-1.7 4.3-2.3c2.7-1 4.2-3.7 6.6-11.2 2.3-7.4.7-21.8-3.4-30.5-3.8-8.2-19.5-17.7-29.4-18-3.1-.1-6.3 0-7.1.3zm15.8 14.3c.2.6.9 1 1.5 1 1.4 0 10.9 9.9 10.3 10.8-.2.4 0 2.9.4 5.7.4 2.7.5 7.6.1 10.8l-.6 5.9-5.4 1.9c-3 1-5.7 2.2-6 2.6-.3.5-2.1 1.6-3.9 2.7-2.5 1.3-3.7 1.5-4.5.7-1.7-1.7-5.2-1.3-7.2.9-1 1.1-2.4 2-3.2 2-2.4 0-6.1-3-8.3-6.8-2.1-3.4-2.1-4-.9-11.7.7-4.6 2-9 3-10.4 1.1-1.3 1.9-3.2 1.9-4.1 0-1 .7-2.3 1.5-3s1.5-1.6 1.5-2.1c0-.4 1-2.3 2.3-4.3 1.7-2.6 3.1-3.6 5.7-3.9 4.7-.6 11.4.2 11.8 1.3zm-14.5 8c.3 1.3-.1 2.4-1.4 3-3.6 2-1.8 6.7 5.4 14 3.3 3.4 6.9 2.9 10-1.2 1.9-2.6 1.9-2.8.3-7-1-2.4-2.9-5.8-4.2-7.6-2.1-2.7-3.2-3.2-6.6-3.2-3.5 0-4 .2-3.5 2zm74.1 5c-2.6 1.7-3.3 2.9-4 7.3-.8 5.5-.8 6.5.1 11.2.4 1.6.7 4.2.9 5.6.1 1.4.6 3 1 3.7.3.6.9 3.5 1.2 6.4.7 7.5 3.8 13.3 9.6 17.9 6.2 4.9 11.9 5.4 18.8 1.9 4.9-2.5 15.7-12.6 17.7-16.4.8-1.7 2.2-3.5 2.9-3.9.8-.4 1.4-1.3 1.4-1.8 0-.6 1.4-2.4 3.1-4 2.9-2.7 3.1-3.3 2.5-7.2-.4-2.3-1.2-4.7-1.9-5.2-.7-.6-1.8-2.2-2.4-3.8-2.1-4.7-5.6-2.9-8.6 4.5-.9 2.1-2.1 3.8-2.7 3.8s-1 1-.9 2.2c.3 2.6-2.6 8.8-4.1 8.8-.6 0-1 .6-1 1.4 0 2-11.2 11.6-13.6 11.6-3.2 0-8-5.9-9.4-11.5-2.4-9.9-3-24.2-1.1-25.5 1.7-1 .8-5.2-1.5-7.4-2.1-2.1-4.2-2-8 .4zm106.1 16.2c-2.2 1.1-4.8 2.7-5.8 3.6-.9.8-2 1.3-2.3 1-1.2-1.3-10.2 8.8-10.8 12.2-.1.3-.9 2.1-1.8 4s-1.9 6-2.3 9.1c-1 7.7 2.1 15 7.6 18.1 2.2 1.2 3.9 2.6 3.9 3.1s.6.7 1.3.4 2.1.1 3.1.9c1.4 1 5.6 1.3 15.2 1.3 12.6 0 13.4-.1 13.4-1.9 0-1.2.9-2.2 2.3-2.5 2.5-.7 8.7-6.6 10.6-10.3.7-1.3 1.5-6.5 1.7-11.5.5-8.3.3-9.6-1.8-13.3-1.3-2.3-5.2-6.9-8.8-10.1l-6.5-6-7.5-.1c-5.6 0-8.5.5-11.5 2zm16.8 10.7c1.4.6 4 3.1 5.8 5.8 2.7 3.9 3.3 5.8 3.5 10.5.1 4.4-.3 6.4-1.7 8-1.1 1.1-1.9 2.5-1.9 3.1 0 .5-1.2.1-2.7-.8-2.6-1.8-2.7-1.8-5.8 1.6-3.6 4-7.8 4.7-15.6 2.9-7-1.7-8.3-3.7-7.6-11 .5-4.4 1.5-7.1 3.7-10.1 1.6-2.3 3-4.8 3-5.6 0-.7 1.1-1.3 2.5-1.3 2.1 0 2.5.5 2.5 2.8 0 2-.8 3.2-3 4.5-3 1.8-3.1 2.6-.7 7.4.6 1.3 1.5 2.3 2 2.3s2.5.8 4.4 1.7c3.5 1.6 3.6 1.6 5.4-.5.9-1.2 2.1-2.2 2.6-2.2 1.6 0 4.3-4 4.3-6.4 0-3.9-3.2-6.9-8.1-7.5-3.5-.5-4.5-1-4.7-2.8-.2-1.6.3-2.3 2-2.6 4.2-.8 7.6-.7 10.1.2zM138.8 358.6l-7.5 3.6c-1.8.7-3.3 1.6-3.3 2 0 .5-.6.8-1.3.8-1.9 0-10.8 4.6-13.4 6.9-1.3 1-2.3 2.6-2.3 3.5 0 .8-.5 1.8-1 2.1-.6.4-.8 1-.5 1.5s.1 2-.5 3.4c-.6 1.7-.6 3.3 0 4.4.5.9 1.3 5.6 1.8 10.4.8 8.5.7 8.8-1.7 10.6l-2.4 1.8 1.9 3.5c1 1.8 2.3 3.6 2.7 3.8.5.2 1.3 1.3 1.8 2.5 2 4.4 4.6 8.1 6.6 9.1 6.8 3.5 25.3 23.9 25.3 28 0 1.8 15 15.5 16.9 15.5 1.1 0 2.2.4 2.5.9.4.5 3.9 1.5 7.9 2.1 7.9 1.3 17.7 5.1 22 8.7 2.7 2.1 3.4 2.2 17.5 1.8 11.5-.3 14.9-.7 15.7-1.9.6-.8 2.3-1.8 3.8-2.1 1.5-.4 3.6-1.8 4.6-3.1s2.3-2.4 2.9-2.4c.5 0 1.2-.7 1.6-1.5.4-1.1 1.1-1.3 3-.6 3.1 1.2 10.7 1.2 12.2 0 .7-.5 4.3-1.2 8-1.6 5.7-.5 7.7-1.2 11.5-3.9 2.6-1.9 5-3.4 5.3-3.4 2 0 7.1-5.1 9.2-9.3 2-4.1 2.4-6.3 2.4-14 0-9.1-2.2-20.5-5-25.7-1.2-2.4-9.4-13.3-11.5-15.5-3.6-3.7-14.4-11.2-19.5-13.6-8.2-3.8-20.4-5.3-38.3-4.9-4.7.1-7.4-.3-8.5-1.3-1-.8-3-1.7-4.5-2.1-2.8-.7-16-9.9-18.6-12.9-4.7-5.7-16.6-8.9-34.3-9.2-7.3-.2-9.4.2-13 2.1zm17.6 10c2 .8 2.1 5 .2 8.5-.7 1.4-1.7 5.2-2 8.3-.5 3.5-1.3 5.9-2.2 6.3-.8.3-1.4 1.2-1.4 2 0 .9-1.5 3.2-3.4 5.3l-3.3 3.7-3.9-1.4c-2.2-.8-5-1.7-6.4-2-5-1.2-13.1-11.3-9-11.3 1.5 0 4.2-6 3.5-7.7-.7-2 2.2-5.3 4.6-5.3.9 0 1.9-.4 2.1-1 .2-.5 2.7-1.8 5.5-2.8 2.9-1 5-2.2 4.6-2.5-.8-.9 9-.9 11.1-.1zm29.5 11.5c7.6 6.7 9.2 8.5 8.7 10.3-.3 1.1-.9 4.8-1.3 8.1-.6 6.2-3.3 11.4-7.3 14.2-1.7 1.2-2.7 1.3-4.9.3-3.1-1.2-9.5-9.1-10.6-13-.4-1.4-1.4-3.6-2.2-4.9-1.2-1.8-1.3-2.9-.4-4.8.6-1.3.9-2.9.6-3.4-.4-.5-.2-.9.4-.9s1.8-2.6 2.6-5.8c2.4-8.3 2.3-8.2 3.8-8.2.7 0 5.5 3.6 10.6 8.1zm44.3 17.6l-.8 7.6c-.8 7.9-4.8 15.2-9.7 18l-3.9 2.2-4.4-5c-4.4-4.9-4.5-5-4.2-11.7.2-4.3.8-6.9 1.6-7.2.6-.3 1.2-1.8 1.2-3.4 0-2.9.2-2.9 5.3-3.1 2.8 0 6.6-.5 8.2-1 3.6-1 7.1.8 6.7 3.6zm19.3-.7c.6.4 2.1 1.1 3.5 1.5 2.1.6 9.2 6.2 16.1 12.5 3.1 2.8 8.9 12.9 8.9 15.4 0 1.4.5 2.8 1 3.1 2.6 1.6-.4 8.5-3.7 8.5-.7 0-1.3.4-1.3.9s-1.4 1.4-3 2.1c-2.4 1-3.7 1-5.6.1-1.4-.6-3.6-1.1-5-1.1-1.6 0-2.8-.8-3.4-2.3-1.2-2.9-7.6-9.8-10.3-11.2-1.8-.9-2.3-2.2-2.7-7.3-.3-3.5-.2-6.9.3-7.7.4-.7.2-2.6-.5-4-1-2.3-1-2.9.5-3.9 1.2-1 1.5-2.2 1-5-.5-3.3-.4-3.6 1.3-3 1.1.4 2.4 1 2.9 1.4zm-95.7 23.4c2.8 2.5 6.6 9.3 6.8 12.1.1 1.1.6 3.1 1.2 4.6.9 2.1.5 3.2-2.5 7.3l-3.5 4.8-2.8-2.7c-1.6-1.5-4.6-5.5-6.6-8.9-2.1-3.3-4.2-6.3-4.6-6.4-.5-.2-2.2-1.5-3.8-2.9-3.3-2.7-3.9-5.1-1.5-5.8a131.67 131.67 0 0 1 5-1.5c.6-.2 1.5-1 2.2-2 1.6-2.2 7-1.5 10.1 1.4zm38.5 18.6c1.4 1.1 3 2 3.6 2 1.7 0 6.2 10.6 5.7 13.2-1.5 7-6.1 15.2-8.2 14.4-.7-.3-2.9-.8-4.8-1.2-2-.3-3.8-1-4.1-1.4-.3-.5-3.4-1.2-7-1.5-8-.9-9.9-2.1-9-5.8.4-1.5 1.6-3.2 2.6-3.8 1.1-.5 1.9-1.7 1.9-2.5 0-2.6 3-7.4 4.3-6.8.7.2 3.4-1.6 6-4.1s5.1-4.5 5.6-4.5c.4 0 2 .9 3.4 2zm49.2 4.7c1 1.6 2.4 3.2 3.2 3.6.7.5 1.1 1.2.8 1.7s.2 2.5 1.2 4.5c1.4 3 1.5 3.8.4 4.5-.8.4-1.1 1.5-.8 2.4.7 1.8-1.8 2.3-2.9.5-1-1.8-13.5-.6-16.8 1.6-3.4 2.2-5.9 7-5.1 9.5.5 1.5.2 2-1.4 2-1.1 0-2.2.4-2.6 1-.9 1.4-3.5 0-3.5-1.9 0-.9.6-2.5 1.3-3.6s1.4-4.7 1.5-7.9c.1-3.4.8-6.4 1.5-7s2.2-3 3.3-5.3c1-2.4 2.4-4.1 3.1-3.9.6.3 1.7-.2 2.3-1 .7-.8 2.1-1.4 3.1-1.4s2.1-.5 2.4-1c.3-.6 2.1-1 3.9-1 2.6 0 3.8.7 5.1 2.7z"/><path d="M207.891 506.957c-13.381-1.213-26.981-2.964-32.416-4.174a588.05 588.05 0 0 0-11.358-2.35c-3.786-.745-9.052-1.972-11.702-2.728-6.571-1.874-24.23-8.885-27.191-10.795-1.325-.855-3.784-2.038-5.465-2.629s-4.625-2.26-6.544-3.708-4.479-3.146-5.691-3.773c-2.627-1.359-9.132-8.764-13.818-15.732-5.218-7.759-10.127-17.401-12.809-25.162-1.343-3.884-2.774-7.683-3.18-8.443-.638-1.193-1.982-9.268-4.865-29.24-1.13-7.83-1.602-39.65-.709-47.842 1.934-17.748 5.803-39.352 8.629-48.186.908-2.84 2.289-7.916 3.068-11.281s1.843-6.618 2.363-7.228 1.481-2.504 2.135-4.207c2.41-6.284 12.36-23.405 13.601-23.405.313 0 .561-.387.553-.86s1.06-3.029 2.374-5.679 2.883-6.257 3.486-8.014 1.868-4.236 2.811-5.507c4.297-5.794 9.404-13.953 10.269-16.406.523-1.482 2.209-4.631 3.748-6.999s2.797-4.67 2.797-5.117.431-1.169.958-1.606 1.164-2.172 1.417-3.854.751-3.24 1.107-3.46.649-1.157.649-2.081.283-1.68.628-1.68c1.026 0 4.389-9.629 7.213-20.651 1.175-4.586 5.189-17.263 7.411-23.405 1.62-4.478 2.195-5.542 6.557-12.134 2.956-4.467 10.082-11.342 13.656-13.174 1.507-.772 3.514-2.24 4.461-3.261s3.27-2.643 5.163-3.605 8.398-4.918 14.456-8.791 12.718-7.906 14.8-8.962l5.507-2.829c5.844-3.088 11.419-5.756 12.029-5.756.39 0 2.235-1.084 4.099-2.409s3.733-2.409 4.155-2.409 1.981-.62 3.466-1.377 3.095-1.377 3.577-1.377 2.663-.924 4.845-2.052 5.672-2.506 7.754-3.061 7.348-2.289 11.702-3.852 10.616-3.568 13.915-4.454 6.698-2.101 7.553-2.7 2.158-1.089 2.896-1.089 1.831-.41 2.428-.91 4.649-1.807 9.003-2.903c11.273-2.838 19.918-2.744 31.338.339 4.534 1.224 9.261 2.662 10.504 3.194s2.774.969 3.4.969c2.027 0 25.786 15.059 33.876 21.471 5.707 4.524 18.724 17.23 22.973 22.425 11.906 14.557 19.616 40.026 27.45 90.68 2.645 17.101 2.896 19.906 3.144 35.107.373 22.846-.456 31.622-4.31 45.662-2.693 9.809-11.362 33-21.271 56.906-1.256 3.029-3.124 8.295-4.152 11.702-2.276 7.544-6.491 16.943-10.487 23.387-1.637 2.64-2.977 5.333-2.977 5.983s-.283 1.357-.629 1.57-1.278 1.729-2.071 3.368c-1.704 3.52-19.904 21.753-21.837 21.876-2.182.139-3.256-.171-5.076-1.467-.967-.689-2.805-1.523-4.083-1.854-1.952-.506-2.885-1.531-5.826-6.402-2.29-3.792-4.573-6.594-6.599-8.095-1.925-1.427-3.915-3.812-5.258-6.303-2.516-4.666-3.687-10.906-2.218-11.816 1.37-.849 1.066-7.719-.443-10.022-.972-1.484-1.229-3.619-1.346-11.192-.08-5.204-.5-10.218-.947-11.296-.441-1.066-.802-3.167-.802-4.668 0-3.921-2.383-10.462-6.084-16.7-3.043-5.129-5.127-7.413-10.516-11.528-1.291-.985-3.254-3.102-4.364-4.703-2.305-3.326-1.922-4.926 1.261-5.265 2.813-.3 5.248-2.134 5.248-3.954 0-3.478-6.754-11.477-9.692-11.477-.729 0-2.46 1.255-3.846 2.79-4.061 4.495-4.559 4.583-9.414 1.656-2.331-1.405-5.962-4.374-8.069-6.598l-3.831-4.043h-4.464c-2.554 0-4.818.353-5.29.826-1.256 1.256-.991 4.595.63 7.943 1.685 3.481 9.013 11.002 12.604 12.936 2.525 1.36 3.182 2.389 1.525 2.389-.515 0-2.35 1.245-4.078 2.766-3.632 3.197-4.519 5.81-2.981 8.784 1.111 2.147 5.521 6.348 6.666 6.348.378 0 1.31-1.055 2.071-2.345s2.463-2.858 3.783-3.484 2.775-1.739 3.233-2.473c1.136-1.819 2.977-1.676 5.045.392 2.001 2.001 1.66 3.091-.969 3.094-2.436.004-6.159 2.318-7.119 4.425-.621 1.362-.512 2.106.579 3.96l1.343 2.283 5.621-.025c3.458-.015 5.943-.347 6.457-.86 3.28-3.28 11.574 4.013 11.574 10.178 0 2.467-.031 2.493-4.809 4.032-5.588 1.8-8.958 4.311-8.958 6.675 0 2.171 3.697 6.298 6.119 6.83 1.212.266 3.241-.092 5.45-.963 1.936-.763 3.648-1.164 3.806-.892.592 1.026 1.226 8.451.829 9.704-.513 1.615-4.422 4.253-9.367 6.32-2.056.86-4.436 2.186-5.288 2.946-2.073 1.852-2.013 4.872.141 7.026 1.516 1.516 2.263 1.69 7.273 1.69 3.071 0 6.15.303 6.843.674 1.339.716 2.781 4.082 2.781 6.49 0 .798.751 2.863 1.669 4.587s1.46 3.47 1.205 3.88-2.013 1.478-3.906 2.373c-2.474 1.171-3.506 2.081-3.67 3.236-.337 2.368 1.167 5.445 3.456 7.076 1.943 1.383 2.163 1.396 6.266.362l4.253-1.071 5.616 5.299c3.089 2.914 6.488 5.955 7.554 6.757l1.938 1.458-4.242 4.63c-2.333 2.546-4.57 5.622-4.97 6.835-.492 1.492-3.898 5.089-10.53 11.122-12.845 11.684-13.146 12.009-17.785 19.242-2.186 3.407-4.769 6.981-5.74 7.942s-1.766 2-1.766 2.31-.774 1.483-1.721 2.608-1.722 2.564-1.724 3.197-1.231 2.772-2.732 4.752-3.365 4.845-4.141 6.367-1.638 2.775-1.914 2.783-2.745 1.974-5.485 4.366-6.148 4.842-7.572 5.442c-6.315 2.663-17.303 5.474-28.853 7.384-14.138 2.337-23.528 2.569-40.79 1.004zm21.357-23.9c2.505-1.264 6.357-3.879 8.561-5.812 3.439-3.017 4.238-3.426 5.644-2.891 2.206.839 9.965.791 12.244-.076 1.01-.384 4.797-1.143 8.416-1.687 5.156-.775 7.337-1.467 10.083-3.2a202.6 202.6 0 0 1 6.36-3.841c3.758-2.143 8.262-7.095 10.099-11.104 1.26-2.75 1.473-4.473 1.463-11.823-.021-15.431-2.347-23.805-9.288-33.451-5.932-8.243-9.302-11.483-17.952-17.26-11.908-7.952-18.157-9.554-39.993-10.254l-13.268-.425-5.851-2.77c-6.447-3.052-12.824-7.345-18.37-12.367-4.506-4.08-7.818-5.791-14.543-7.511-7.149-1.828-24.411-3.067-29.008-2.081-3.545.76-15.406 6.343-16.197 7.624-.241.389-.901.708-1.468.708-1.231 0-8.647 3.597-11.793 5.72-2.224 1.5-5.404 6.885-5.082 8.605.093.496-.167 1.92-.578 3.165-.576 1.744-.507 3.183.299 6.279.575 2.209 1.252 6.948 1.504 10.532l.458 6.516-2.259 1.843c-2.649 2.162-2.517 3.27.923 7.778 1.222 1.601 3.129 4.578 4.238 6.615s3.367 4.825 5.018 6.195c9.797 8.13 17.116 15.566 22.441 22.799 1.734 2.355 3.152 4.731 3.152 5.28 0 2.426 13.885 14.88 18.586 16.67 1.325.505 5.507 1.637 9.293 2.516 9.857 2.289 13.267 3.678 23.295 9.493 1.972 1.143 3.426 1.226 15.598.887l13.423-.374zm160.167-242.299c.499-1.041 1.311-1.893 1.805-1.893 1.387 0 6.258-4.131 8.928-7.572 2.813-3.625 3.852-8.514 3.861-18.166.007-8.176-1.237-10.589-9.877-19.16-6.718-6.664-6.819-6.731-10.326-6.855-10.611-.376-14.591.412-20.248 4.012-1.995 1.27-4.113 2.308-4.706 2.308-1.813 0-8.144 7.225-10.418 11.889-6.161 12.637-5.578 24.692 1.476 30.511 4.912 4.052 6.508 5.098 7.781 5.098.716 0 1.597.28 1.956.622 1.201 1.141 3.327 1.299 16.134 1.199l12.726-.1zm-100.733-13.267c4.158-1.967 15.102-11.898 18.41-16.706 1.176-1.71 2.561-3.603 3.077-4.207 6.762-7.921 7.109-8.441 7.058-10.587-.076-3.18-1.33-6.51-4.008-10.647-3.521-5.438-5.675-4.716-9.696 3.25-1.152 2.283-2.365 4.15-2.695 4.15s-.799 1.327-1.042 2.948c-.429 2.858-1.975 6.027-4.175 8.556-.589.677-2.043 2.412-3.233 3.855s-4.133 4.031-6.541 5.749c-4.352 3.106-4.39 3.117-6.258 1.936-4.18-2.644-6.56-7.018-8.026-14.744-1.271-6.703-1.548-19.123-.45-20.221.41-.41.746-1.947.746-3.415 0-2.032-.48-3.149-2.012-4.681-1.107-1.107-2.691-2.012-3.52-2.012-2.352 0-6.884 2.872-8.031 5.089-1.569 3.035-1.86 11.568-.624 18.316 3.933 21.471 4.453 23.073 9.193 28.32 6.134 6.789 14.205 8.657 21.829 5.05zm-86.723-13.299c2.859-2.511 6.709-4.556 9.655-5.131 3.056-.596 9.881-4.509 11.094-6.361.581-.887 1.801-3.722 2.711-6.301 2.739-7.761 2.101-20.282-1.571-30.846-1.566-4.504-9.199-12.251-15.142-15.368-7.087-3.717-11.487-4.939-17.791-4.939-5.072 0-6.145.241-9.979 2.237-2.362 1.23-4.635 2.84-5.051 3.576a19.11 19.11 0 0 1-1.878 2.623c-.618.706-3.771 6.454-7.008 12.772-6.753 13.182-7.831 17.264-7.094 26.855.537 6.986 1.901 10.297 6.202 15.056 6.327 7.002 10.088 8.28 23.857 8.109l9.528-.119zm-23.151-12.327c-1.576-1.42-3.452-3.901-4.168-5.514-1.24-2.794-1.25-3.234-.216-9.293.597-3.498 1.826-7.909 2.731-9.802l2.736-5.851c2.009-4.438 5.08-9.243 6.918-10.824 1.546-1.329 2.605-1.567 6.995-1.567 6.34 0 9.101 1.41 15.2 7.762l4.142 4.313.505 6.067c.278 3.337.292 8.472.032 11.411l-.473 5.344-4.584 1.574c-2.521.866-6.133 2.59-8.026 3.832-4.007 2.628-6.244 3.411-6.866 2.405-.84-1.359-5.191-.778-7.528 1.005-3.014 2.299-4.02 2.181-7.397-.86zm21.861-16.968c1.517-1.517 2.34-3.001 2.34-4.218 0-2.401-3.804-10.157-6.284-12.811-1.75-1.873-2.234-2.024-5.899-1.833-3.57.185-3.993.365-3.993 1.696 0 .819-.738 2.277-1.641 3.24-2.04 2.178-1.69 4.699 1.246 8.965 5.237 7.612 9.941 9.252 14.232 4.962zm163.979 45.307c-1.855-.571-3.861-1.794-4.72-2.878-1.29-1.628-1.45-2.513-1.171-6.484.189-2.697.892-5.687 1.699-7.228 5.223-9.973 5.983-10.921 8.107-10.105 2.084.8 1.196 3.913-1.866 6.547l-2.92 2.512 1.367 3.339c1.18 2.882 1.884 3.593 5.147 5.192 4.852 2.378 5.822 2.366 8.852-.111 6.16-5.036 7.352-7.667 5.283-11.666-1.154-2.231-3.216-3.428-8.629-5.007-6.065-1.769-3.685-4.688 3.823-4.688 3.346 0 4.036.268 6.56 2.549 1.552 1.402 3.718 4.112 4.814 6.023 1.706 2.974 1.994 4.212 1.999 8.6.005 4.412-.244 5.487-1.792 7.722-1.759 2.538-1.843 2.573-3.752 1.586-2.775-1.435-3.569-1.283-5.851 1.117-1.112 1.17-2.858 2.564-3.881 3.098-2.356 1.231-8.878 1.172-13.07-.118zM263.93 440.435l-4.235-.972c-.861-.159-2.227-1.546-3.262-3.313-.979-1.671-4.03-5.092-6.779-7.601l-4.999-4.562-.086-7.719c-.047-4.246-.3-8.517-.561-9.491-.327-1.223-.141-2.049.602-2.666.733-.608 1.077-2.077 1.077-4.595 0-2.036.117-3.702.261-3.702s2.027.809 4.186 1.797c4.6 2.106 12.108 7.612 17.422 12.777 4.34 4.219 9.496 12.584 10.153 16.476.248 1.47.734 2.848 1.08 3.062 1.785 1.103-.458 6.801-2.978 7.565-.856.26-2.209 1.068-3.007 1.797-1.782 1.628-5.224 2.073-8.875 1.148zm-49.008 33.408c-.239-.624-.056-2.095.408-3.27s1.255-4.924 1.758-8.331c.727-4.922 1.426-7.036 3.4-10.285 1.367-2.249 2.485-4.303 2.485-4.564s1.781-1.322 3.958-2.359l5.785-2.836c3.417-1.78 5.394-1.233 8.683 2.404 3.717 4.11 6.817 11.924 5.248 13.227-.527.437-.958 1.567-.958 2.511 0 1.7-.017 1.705-1.834.514-2.454-1.608-11.703-1.109-16.182.873-3.738 1.654-6.351 5.437-6.393 9.259-.024 2.218-.255 2.61-1.537 2.612-.83.002-1.7.312-1.934.691-.665 1.076-2.407.808-2.888-.446zm-2.909-53.249c-1.976-2.272-3.85-5.024-4.163-6.116-.757-2.64.234-10.915 1.618-13.502.608-1.136 1.107-2.726 1.109-3.535.004-1.262.514-1.526 3.618-1.87 10.607-1.176 12.79-1.246 14.27-.454 1.431.766 1.507 1.141 1.096 5.406-1.146 11.889-4.451 19.031-10.435 22.548-1.548.91-2.973 1.654-3.167 1.654s-1.97-1.859-3.946-4.132zm-22.427 46.727c-1.514-.349-3.683-1.055-4.819-1.57s-4.532-1.29-7.548-1.724c-8.991-1.293-10.585-3.402-6.219-8.234 1.325-1.467 2.409-3.047 2.409-3.512 0-2.117 2.398-5.648 4.405-6.487 1.185-.495 4.154-2.644 6.597-4.774 4.136-3.607 4.537-3.804 5.841-2.858.77.559 2.587 1.655 4.039 2.438 2.911 1.568 5.812 6.791 6.462 11.631.428 3.187-1.153 8.262-3.945 12.664-2.136 3.369-2.538 3.504-7.221 2.425zm-9.836-55.847c-2.129-1.482-8.383-9.203-8.398-10.368-.004-.307-.808-2.251-1.786-4.319-1.404-2.967-1.682-4.335-1.318-6.487.253-1.5.423-2.898.377-3.106s.356-.818.893-1.355 1.836-3.779 2.887-7.203 2.273-6.227 2.716-6.227c.977 0 12.722 9.733 16.462 13.64l2.684 2.805-.854 6.405c-.986 7.388-3.457 13.599-6.395 16.071-2.496 2.1-4.401 2.138-7.267.143zm-26.877 34.273c-1.176-1.34-3.74-4.836-5.697-7.77s-5.43-7.055-7.718-9.159c-4.803-4.415-4.851-5.584-.278-6.735 1.683-.424 3.465-1.259 3.96-1.855 2.721-3.279 7.36-2.569 11.235 1.72 3.25 3.597 4.924 7.011 6.364 12.977l1.189 4.928-2.776 3.937c-1.527 2.166-3.083 4.04-3.458 4.165s-1.645-.868-2.821-2.208zm-15.603-45.749c-4.501-1.528-6.167-2.524-9.121-5.45-3.281-3.25-4.694-6.306-2.915-6.306 1.279 0 3.427-4.438 3.429-7.087.002-2.599 2.348-5.992 4.142-5.992 1.082 0 12.29-5.491 12.76-6.251.436-.705 7.364-.845 9.782-.196 2.348.629 2.681 3.345 1 8.147a63.8 63.8 0 0 0-2.176 8.229c-.397 2.242-1.263 4.875-1.925 5.851s-1.556 2.549-1.987 3.495c-1.097 2.41-5.703 7.587-6.675 7.501-.444-.039-3.285-.912-6.314-1.941z" fill="#fff"/></svg>