<svg xmlns="http://www.w3.org/2000/svg" width="685.333" height="913.333" viewBox="0 0 514 685" preserveAspectRatio="xMidYMid meet"  xmlns:v="https://vecta.io/nano"><path d="M251 36.4c-2.5.4-4.8 1.3-5.2 2-.4.6-.8.8-.8.4 0-.9-12.9 2.8-14.6 4.3-.8.6-1.4.9-1.4.5s-1.9.3-4.2 1.5c-2.4 1.2-4.3 2-4.3 1.8s-1.1.4-2.5 1.4c-1.3.9-3.2 1.7-4.2 1.7s-1.8.4-1.8 1c0 .5-1.9 1.5-4.2 2.2-2.4.7-5.2 2-6.2 3-1.1 1-2.5 1.8-3.2 1.8s-1.4.4-1.6.9c-.1.5-.9 1.1-1.7 1.3-.7.2-2.4 1.3-3.7 2.5-1.3 1.3-2.9 2.3-3.6 2.3s-2.2 1.1-3.2 2.5-2.3 2.5-2.7 2.5c-1.3 0-4.6 2.9-9.7 8.2-2.4 2.6-5.3 5-6.3 5.3s-2 1.4-2.3 2.3c-.3 1-2 3.3-3.8 5.2s-5.5 6.9-8.2 11-5.4 7.8-5.9 8.1-.8.9-.8 1.3c.3 2 0 2.6-.9 2.1-.6-.4-.7.1-.3 1.1.5 1.4.3 1.6-1.1 1.1-1.3-.5-1.7-.3-1.3.7.3.8-.1 1.7-.9 2s-1.4 1.6-1.4 2.8c0 1.3-.7 3.3-1.5 4.5-.9 1.2-1.4 2.6-1.3 3 .2 1-2.1 9.3-3.3 11.6-.5 1-.7 2.3-.3 2.9s0 1.7-1 2.3c-1.3 1-1.7 3.3-2 9.8-.3 4.6-1.2 10.7-2.1 13.3-2.2 6.4-3.8 28.8-3 43.3.4 8.5 1.3 13.7 3.4 20.5 3.4 10.6 6.1 22.1 6.1 25.4 0 1.3.6 3.6 1.4 5 1.7 3.4 4.6 15.7 4.6 19.6 0 1.5.7 4.9 1.5 7.5 1.5 4.9 3.6 12.6 4.1 15.1.2.8.5 2.6.8 4s1.5 6.1 2.6 10.5c2.1 8 2.2 12 .5 29.5l-.9 8.5c-.2 2.2-.7 5.6-1 7.5s-.8 6.2-1 9.5c-.7 8.6-1.8 15.5-2.5 15.5-.3 0-.6 1.5-.7 3.2-.1 5.4-.9 10.8-1.4 10.8-.3 0-.6.8-.7 1.7-.1 2.5-1.1 6.1-1.9 7.5-.4.6-.8 3-1 5.2-.4 5.4-2.3 15.1-3.9 20.1-.8 2.2-1.3 4.7-1.3 5.5.1.8-.6 3.1-1.5 5s-2.5 7.5-3.6 12.5c-2 9.4-2.6 11.4-6 23-1.2 3.8-2.1 8.2-2.1 9.7 0 1.6-.5 2.8-1.1 2.8s-.9.8-.6 1.9c.2 1 .1 2.5-.4 3.3-2.3 4.2-4.1 40.2-2.5 51.8 2.4 17.6 5.5 27.3 12.1 36.8 5.2 7.6 6 8.5 17 19.7 11.3 11.4 16.4 15.5 19.5 15.5 1.2 0 1.9.4 1.6.9s1.5 1.4 4.1 2c2.5.7 6 1.9 7.7 2.8 1.7 1 3.6 1.8 4.1 1.9.6.1 2.4.8 4 1.5 1.7.7 3.7 1.4 4.5 1.5.8.2 4.2 1.3 7.5 2.5 3.3 1.1 7.4 2.1 9.2 2.2 1.7.1 3 .5 2.7.9s.6.8 2 .8c1.3 0 3.7.5 5.2 1 1.6.7 3 .7 3.3.2.4-.6 2.6-.6 5.6 0 10.4 2 36.5 3 45 1.6l10.8-1.5c2.6-.3 5-1 5.3-1.4.3-.5 1.8-.9 3.5-.9 1.6 0 2.9-.3 2.9-.8 0-.4 1.9-.8 4.2-.9 2.2-.2 4.8-.9 5.7-1.7s3.3-1.7 5.4-2.1c2-.4 3.9-1.1 4.2-1.5.6-.9 9.4-4 12.8-4.5 1.2-.2 4.7-.9 7.7-1.5 3-.7 6.3-1.3 7.2-1.4 1-.1 2.6-1 3.5-1.9 6.8-6.4 8.2-7.7 8.8-7.7.4 0 2-1.1 3.7-2.5 1.6-1.4 3.8-2.5 4.9-2.5 1 0 1.8-.5 1.6-1.2-.1-.6 1.2-1.6 2.8-2.2 1.7-.6 3.6-1.9 4.3-2.8.7-1 1.9-1.8 2.5-1.9.7 0 3.2-2.4 5.6-5.2 2.5-2.9 4.7-5.2 5-5.2s.5-.4.3-1c-.1-.7.9-1.8 2.3-2.5s2.5-1.7 2.5-2.1 2.7-3.3 5.9-6.5c8.5-8.4 10.5-12.4 10.2-20.3-.1-5.2-.6-6.7-2.2-7.9-1.7-1.1-2-2.2-1.6-5.1.8-5.8 2.7-12.4 4.3-14.8.8-1.3 1.1-2.3.7-2.3-.5 0-.1-.5.7-1 1.5-.9 1.8-2.2 2.4-11.5.3-5.7 1.3-11.6 2.7-16 .5-1.7 1.1-5.5 1.4-8.5.2-3 .9-8.1 1.4-11.2s.8-10.8.5-17l-.8-19.8c-.4-8.7-3.1-25.2-4.6-28.2-.5-.9-2.1-8.8-3.5-17.5-1.5-8.7-3.1-16.3-3.6-17-.6-.7-.6-1.3-.1-1.7.6-.4.6-2.2 0-4.8-.5-2.4-1.1-5.7-1.3-7.3l-1.3-10c-.6-3.9-1.1-7.9-1.1-9-.2-25.8 0-29.4 2.5-48.5 1.6-12.5 4.8-28.2 6.4-31.1.5-.9 1.4-5.4 2-10s1.5-8.8 1.9-9.4c.5-.5.9-2.6.9-4.5.1-1.9.4-4.9.7-6.5 3.5-19.5 4.1-31.5 3-57.5-1-25.1-3.4-38.8-8.6-49.8-1.6-3.4-2.9-6.7-2.9-7.2 0-.6-.4-1-.8-1s-1.4-2.1-2.1-4.6c-1.4-4.7-5.4-13.7-7.1-15.7-10-12.5-15.3-17.8-32-32.2l-8.5-7.6c-2.7-2.5-6.6-5.5-8.5-6.7s-4.7-3.2-6.1-4.5c-2.5-2.4-16.6-9.7-18.6-9.7-.6 0-4.3-1.4-8.3-3-4-1.7-9.4-3.2-11.9-3.5-2.5-.2-9.5-1.1-15.6-2-11.3-1.6-25.7-1.6-33.5-.1zm37.8 9c3.5.8 7 1.2 7.8.9s1.4 0 1.4.6c0 .7.6 1.1 1.3 1 2.7-.6 21 5.3 25.7 8.2.8.5 2.4 1.3 3.5 1.8 2.8 1.4 6.6 4 11.6 8.3 2.4 2.1 5.9 4.9 7.7 6.4 4.2 3.4 4 5.4-.7 8.1-3.3 1.9-4.2 2.1-6.5 1-1.4-.7-3.2-2.4-3.9-4-.6-1.5-1.6-2.7-2-2.7-.5 0-.6-.4-.3-.9.8-1.2-3.1-4.4-4.4-3.6-1.2.7-.4 7.2 1.2 9.2s2 6.3.6 6.5c-2.3.2-6.2.5-12.2.8-5.1.3-6.1.1-7.7-1.9-1.1-1.3-1.9-3.1-1.9-4s-1.4-2.5-3.1-3.5c-2.6-1.5-3.3-1.6-4.5-.5-1 1.1-1.1 2.3-.2 5.6.6 2.4 1.4 4.3 1.9 4.3s.9.6.9 1.3c0 .8-2.1 1.8-4.9 2.5-2.8.6-6.9 2-9.3 3.1-8.4 3.9-12.1 5.1-15 5.1-1.8 0-4.5 1.2-6.8 3s-5 3-6.8 3c-1.7 0-3.4.5-3.7 1-.4.6-1 .8-1.5.5s-1.9-.1-3.2.4c-2.3.9-5.8-.6-5.8-2.3 0-1.1-2.2-3.1-4.9-4.5-3.3-1.8-5.3 1-4.5 6.6.4 2.8.2 4.3-.5 4.4-1.3.2-3 .6-3.3.8-.2.1-1.8.4-3.7.6-1.9.1-3.8 1-4.3 1.9s-1.4 1.6-2.1 1.6c-3.3.1-7.3 8.1-5.1 10.2.9 1 5.9-.9 5.7-2-.4-1.7 3.9-4.2 9.9-5.8 8.6-2.3 7.9-2.8 11.8 10.3 1.3 4.7 2.7 7.6 4 8.3 1.6.9 1.8.8 1.4-.5-.5-1.1-.2-1.3 1-.9 1.3.5 1.6-.1 1.6-3.5 0-2.3-.5-4.1-1.1-4.1-.5 0-.8-.4-.5-.9s-.1-2.6-1-4.6c-.8-2.1-1.3-4.7-1-5.9.7-2.5 4.8-4.6 9.2-4.6 1.8 0 3.6-.5 3.9-1 .3-.6 2.1-1 4-1 3.7 0 9.5 4.1 9.5 6.8 0 1.9 4.9 7.2 6.7 7.2 1.4 0 1.5-.5 1.7-6.2.1-2.1-.2-3.8-.6-3.8-.5 0-.8-.7-.8-1.5s-.4-1.5-.9-1.5-1.1-1.4-1.3-3c-.5-3.3 1.6-6 4.5-6 .9 0 1.7-.5 1.7-1 0-.6 1.3-1 2.8-1s3.2-.4 3.7-.9c.6-.5 3.3-1.1 6.2-1.3 5.1-.5 5.1-.5 7.3 3.4 1.2 2.1 2.8 3.8 3.6 3.8s1.2.4.9 1c-.7 1.1 0 1.2 3.3.4 2.1-.6 3.3-4.4 1.3-4.4-.5 0-1.1-1.3-1.3-3-.3-2.2 0-3.1 1.4-3.6 1-.3 2.2-.2 2.8.1.5.3 1 .1 1-.4 0-1.5 11.5-1.4 15.7.1 3.4 1.2 6.5.4 6.4-1.7 0-2.4 4.7-5.6 11.1-7.7l6.8-2.2 2.8 3.2c1.6 1.8 3.2 3.2 3.5 3.2 1.2 0 17.7 17.5 17.7 18.7 0 .7.4 1.3.9 1.3s1.1.8 1.5 1.7c.6 1.9 2 4.3 4.9 8.2.9 1.3 1.7 3.2 1.7 4.2 0 1.1 1.8 6.3 4.1 11.7 4.3 10.2 6.8 19.4 7.6 27.7.2 2.7.8 8.8 1.2 13.5 1.2 12.3.7 56.9-.7 60.5-.6 1.6-1.6 6.1-2.2 10-1.7 10.6-2.1 12.9-3 14.5-.5.9-1.1 3.6-1.5 6-.3 2.5-1.7 9-3.1 14.4-1.3 5.4-2.4 11-2.4 12.3s-.4 3.2-.9 4.1c-2.3 4.4-3.9 51.9-2.2 64.2l5 33c3.4 21.7 4.2 26.1 6.2 34 3 12.1 4.1 34.9 2.7 55.5-.7 10.8-1.7 16.5-2.7 16.5-.3 0-.6 1.5-.7 3.2-.3 7.5-2.4 20.2-3.8 21.7-.7.9-1.6 2.9-1.9 4.6-.7 3.9-2.1 8.5-4.7 15.9-2.2 6.1-2.9 10.7-3.3 22.1-.3 6.9-.4 7.2-4.5 11-2.3 2.2-4.2 4.5-4.2 5.1s-2 3-4.4 5.2-4.2 4.3-3.9 4.6c.3.2-.9 1.2-2.6 2.1-1.7.8-3.1 1.9-3.1 2.4s-1.5 1.6-3.2 2.6c-6.5 3.3-8.3 4.5-8.1 5.4.1.5-1.2 1.5-3 2.2s-4.9 3-6.9 5.1c-4.3 4.3-10.7 7.6-15.8 7.9-1.9.2-3.9.6-4.5.9-.5.4-2.1.7-3.4.8-1.3 0-2.8.6-3.2 1.3-.4.6-1.6.9-2.8.6s-3.1.3-4.5 1.4c-1.3 1-2.9 1.9-3.5 1.9-.7 0-2.4.8-3.8 1.7-1.5 1-3.1 1.8-3.7 1.8-2.5.2-9.2 1.7-11.1 2.5-1.1.5-4.7 1.1-8 1.3s-8.6 1.1-11.7 1.9c-6.4 1.7-19.6 1.6-38.3-.4-18.1-1.8-23.2-2.6-25.5-3.8-.9-.5-5.2-2.1-9.6-3.5-12.6-4.3-26.5-10.5-31.9-14.3-5.5-3.9-12.8-10.2-11.9-10.2.3 0-1.4-1.9-3.8-4.3-4.7-4.6-15.3-17.5-15.3-18.5 0-.4-.8-1.8-1.7-3.2-1-1.4-1.9-3.5-2.1-4.5-.1-1.1-.6-2.6-1-3.3-.5-.7-.5-2.2-.2-3.5.5-1.6.4-1.8-.3-.8-.8 1.1-1.3.4-2.2-2.8-.6-2.4-1.3-5.9-1.5-7.9-.1-2.1-.4-3.7-.5-3.7-1.3 0-1.3-38 0-40.5.5-.9 1-4.1 1.1-7.1.2-3 .5-5.9.8-6.4.3-.6.6-2.4.7-4 .1-1.7.3-3.2.4-3.5s.3-1 .5-1.5c.1-.6.3-1.2.4-1.5s.4-2 .7-3.9c.2-1.9.9-3.9 1.4-4.6s.7-1.5.3-1.8c-.3-.4-.1-.7.5-.7.7 0 1.2-.7 1.2-1.5 0-.9.6-2.6 1.4-3.8 1.2-1.8 2.9-10 3.1-14.2 0-.6.3-1.2.7-1.6.4-.3 1.5-3.6 2.5-7.5.9-3.8 2.1-7.2 2.6-7.5.6-.4.7-1.4.4-2.2s-.1-1.9.4-2.4c.6-.6 1.2-3.6 1.5-6.9.2-3.2.8-6.1 1.2-6.4.6-.4 1-3.2 1.4-11.3.1-1.5.4-2.7.7-2.7.4 0 .8-1.9.9-4.3.3-5.1 1.6-13.2 2.2-13.2.2 0 .6-1.6 1.3-5.5.3-1.4.6-2.7.7-3s.2-1.3.1-2.3c-.1-.9.3-1.7 1-1.7.8 0 1-1.2.5-4-.3-2.2-.2-4 .2-4 .5 0 .9-3.9 1-8.7.1-4.7.6-8.9 1.1-9.3.6-.3 1-2.9.8-5.8-.1-2.9 0-5.2.3-5.2.9 0 1-18.3 0-19.9-.6-1.1-.3-2.2.7-3.4 1.5-1.6 1.5-1.9-.4-4-2.4-2.6-3-4.2-3.8-11.7-.4-3-1-6-1.3-6.5-.4-.6-.7-2.7-.8-4.8-.1-3.2.2-3.7 2.2-3.7 1.3 0 2.9.8 3.6 1.8.7 1.1 3.1 2.2 5.2 2.6 6.6 1.2 18.9 15.7 15.9 18.7-.5.5-2.9 1.1-5.1 1.2-2.3.1-4.2.5-4.2.8 0 .4-1.4.9-3.1 1.1-3.8.4-6.2 3.3-3.9 4.9.8.5 3.3.7 5.5.3l5.2-.7c.7 0 1-.4.7-.9-.3-.4-.3-.8 0-.8.2 0 1.2-.3 2.2-.7 1.2-.4 1.5-.3 1 .5s.1 1.2 1.8 1.2c2.8 0 5.6 3.3 5.6 6.6 0 1.2.7 3.5 1.5 5 .8 1.6 1.5 4 1.5 5.5 0 1.4.4 2.9.9 3.5 1.2 1.3 2.5 9.4 1.4 9.5-.4 0-1.9.2-3.3.4-2.1.3-12 1.3-14.1 1.5-1.2 0-1.7 3.7-.7 5.4.7 1.3 1.3 1.4 3.1.5 1.2-.7 5-1.3 8.5-1.4 9.7-.4 9.7-.4 10 20.2.2 16.4.1 17.2-1.8 17.8-3.2 1-2.5 4.4 1.3 6 2.1.8 4.1 2.9 5.6 5.7 1.3 2.4 3 5 3.8 5.9 1.1 1.4 1.1 1.8-.1 2.8-.8.7-2.1 1.4-2.8 1.5-5.8 1.2-8.8 3.2-8.8 6 0 1.4 3.8 1 6.2-.6 1.6-1.1 3.2-1.6 3.8-1.3.5.3 1 .2 1-.4 0-.5 1.8-1.2 4-1.6 4.4-.7 9.6 1.6 10.6 4.7.3 1 1.2 1.8 2 1.8s1.4.5 1.4 1.1.6 1.7 1.4 2.5c.8.7 1.6 1.8 1.8 2.4s1 1.2 1.8 1.3c.8.2 2.1.6 2.8 1 .7.5 1.2.4 1.2-.2 0-1.3 2.2-1 3.2.4.4.5 1.6-.1 2.7-1.4 2.2-2.5 2.8-5.1 1.1-5.1-.8 0-4-2-10.2-6.2-2-1.4-2.4-3.8-.7-3.8.5 0 .8-.4.5-.8-.2-.4.8-1.3 2.4-2 2.6-1.2 4.5-4.6 3.5-6.3-.6-1-4.5.1-4.5 1.2 0 .5-1.6.9-3.5.9-4.1 0-9.5-3.5-9.5-6.1 0-1-.4-2.1-1-2.4-1.3-.8-1.3-6.5 0-6.5.6 0 .8-1.5.4-4-.4-2.1-.3-4.7.1-5.7.5-1 1-2.7 1.2-3.8.2-1 .7-2.2 1.2-2.5s1.1-2.5 1.2-5c.3-4.2.2-4.5-2.1-4.8-2.4-.3-2.5-.1-2.5 5.8-.1 5-.5 6.5-2.1 7.8-1.2 1-2.4 2.5-2.7 3.4-1.1 3.1-4.3 1.9-4.5-1.6 0-.5-.5-1.2-1.1-1.5-.6-.4-1.1-6.7-1.2-16.5-.2-13.7 0-16 1.4-16.7 1.2-.7 1.6-2.3 1.5-6.4-.2-5.1-.4-5.5-4-7.5-2.2-1.2-4-3.1-4.4-4.6-.3-1.3-1.1-2.4-1.7-2.4s-.8-.3-.4-.6c.3-.3.1-1.8-.5-3.3-.5-1.4-1.2-5-1.4-7.9-.4-4.7-.2-5.4 1.8-6.2 1.3-.5 2-.9 1.5-.9-.4-.1-.1-1.1.7-2.4.8-1.2 1.7-3.7 2.1-5.5.6-3.1.5-3.3-1.6-3-1.9.2-2.4.9-2.3 3.5.2 4.3-3 5.2-6 1.6-1.1-1.4-5.1-5.8-8.8-9.6-3.8-3.9-6.8-7.5-6.8-7.9 0-.5.7-1.1 1.5-1.4 2.2-.9 2-6.4-.3-6.4-1 0-2.2.4-2.7.9-1.9 1.6-7.8 3.1-8.9 2.2-.6-.5-2.9-1.2-5-1.7-4.6-.8-7.6-3.1-7.6-5.8 0-1.1-.6-2.7-1.4-3.5-.8-.9-1.7-4.1-2.1-7.1s-1.2-6.4-1.8-7.5c-1.3-2.4-1.5-3.2-2.3-10.7-.4-3.2-1.3-6.3-2-6.9-.8-.6-1.4-1.9-1.4-2.9 0-.9-.3-2-.7-2.3-.3-.4-.8-1.7-.9-3L134 223c-.7-3-1.1-6.7-1.1-8.3.1-1.5-.4-2.7-.9-2.7-.6 0-.8-.5-.5-1 .4-.6.1-1.7-.5-2.5-.8-.9-.8-1.5-.2-1.5.7 0 1-4.9 1-13.8 0-14.5.3-16.8 2.7-24.7.8-2.8 1.5-6.9 1.5-9.3 0-2.3.4-4.2.8-4.2.9 0 2.9-7.2 3.6-12.6.2-1.7.9-4.1 1.5-5.3.7-1.1.9-2.1.5-2.1-.3 0-.2-.6.3-1.3.6-.6 1.3-2.4 1.7-4 .3-1.5 1.1-2.7 1.6-2.7.6 0 1-.7 1-1.5 0-2.3 2.2-6.5 3.1-5.9.5.3.9-.2.9-1 0-.9.5-1.6 1-1.6.6 0 1-1 1-2.3 0-1.2 1.6-3.8 3.5-5.7s3.5-4.2 3.5-5.1 1.5-3 3.3-4.6c1.7-1.6 4.8-4.9 6.8-7.3 4.6-5.7 12.8-14 13.7-14 .5 0 2.7-1.8 5-4 2.2-2.2 4.8-4 5.7-4 .8 0 1.5-.4 1.5-.8 0-.5 1.6-1.6 3.5-2.5s3.5-2.1 3.5-2.7c0-.5.7-.7 1.5-.4.8.4 1.5.1 1.5-.5s.8-1.1 1.9-1.1c1 0 2.4-.7 3.1-1.5s2.4-1.5 3.8-1.5 2.2-.3 1.9-.7c-.6-.6 1.8-2.3 5.3-3.9.8-.3 3.4-1.5 5.7-2.5 2.4-1 4.9-1.9 5.7-1.9s2.1-.7 3-1.5c.8-.9 1.7-1.1 2.1-.6.3.6 1.7.4 3.3-.5 1.5-.7 3.4-1.4 4.3-1.4s1.9-.3 2.2-.7c.4-.3 3-.8 5.9-1s5.4-.6 5.6-.8c1-1 23.1.5 29 1.9z"/><path d="M342.1 133.4c-.8.9-2.2 1.6-3.3 1.6-1 0-2.1.7-2.4 1.5s-1.5 1.7-2.6 2.1c-1.1.3-3.6 2.1-5.6 4-1.9 1.8-3.9 3.1-4.4 2.8-.4-.3-.8.1-.8.9s-1.1 2.6-2.5 4.1-2.5 3.1-2.5 3.7c0 .5-.4.9-.9.9-1.5 0-6.8 12.1-7.5 17-.4 2.4-1.1 5-1.7 5.6-1.1 1.3-.7 18.5.5 23.9 2.1 9.3 3.8 13.3 9.5 22 4.1 6.4 6.6 9.2 7.9 8.7.7-.2 1.2 0 1.2.5 0 .8 5.2 3.5 8 4 6.3 1.2 9.1 1.3 13 .3 5.6-1.3 5.9-1.4 9-2.7 2.5-1.1 7.5-6.9 7.5-8.8 0-.6 2.9-3 6.5-5.4s6.4-4.9 6.2-5.6c-.2-.9.4-1.1 1.8-.8 1.4.4 2 0 2-1.2 0-.9.6-2.9 1.4-4.3 1.8-3.4 2.9-6.3 3-8.2.1-.8.7-2.5 1.4-3.7 1.5-2.6 1.6-17.2.1-22.8-1.2-4.8-1.6-7.1-1.8-10.7 0-1.5-.8-3.3-1.6-4.2-.8-.8-1.5-2.2-1.5-3.1 0-1.8-5.6-10.8-8.9-14.2-2.6-2.7-7.4-5.3-10.4-5.7-1.2-.1-3.5-.8-5.2-1.5-5-2.2-13.9-2.5-15.4-.7zm16.3 9.2c2.7.8 6 2.1 7.3 2.9 1.3.9 2.3 1.3 2.3 1s.6 0 1.4.7 1.2 1.6 1 1.9c-.2.4.3.9 1.1 1.2.8.4 2.7 3.2 4.3 6.4 2.6 5.2 3.5 8 4.8 16.3.2 1.4.7 3.6 1 5 1.2 4.9.2 21.8-1.4 23-.4.3-1.4 1.8-2.2 3.5-3.4 6.8-9.3 12.1-13.7 12.3-5.6.2-7.1 1.1-7.8 4.2-.4 1.7-1.1 3.2-1.6 3.5-.5.4-.9 1.5-.9 2.5 0 1.4-1.1 2.2-4 3-4.2 1.1-6.8.8-13.9-1.8-4-1.4-10.1-6.4-10.1-8.2 0-.3-.8-1.5-1.8-2.6-.9-1-2.3-3-3-4.4s-2.4-4-3.7-5.9c-1.6-2.2-2.2-3.7-1.5-4.1.7-.5.7-1-.2-1.8-.8-.6-1.5-2.6-1.6-4.4-.2-1.8-.6-5.9-1.1-9.1-.4-3.1-.4-5.7.1-5.7.4 0 .8-2 .8-4.4s.7-5.7 1.5-7.2c.8-1.6 1.5-3.6 1.5-4.5 0-.8 1.1-2.6 2.5-3.9s2.5-2.8 2.5-3.5c0-.6 1.3-2.5 2.9-4.2 1.6-1.8 2.6-3.4 2.3-3.7s-.1-.6.4-.6c.6 0 2-.9 3.2-2 1.1-1.1 4.2-3.3 6.9-5 4.3-2.8 5.3-3 10.3-2.4 3 .3 7.7 1.2 10.4 2zm-19.1 20.1c-1.8 2-3.3 3.9-3.3 4.2 0 .4-1.5 2.2-3.2 4.1-3.3 3.5-3.3 3.6-3.2 12.9v9.4l4.2 3.8c3.9 3.7 4.3 3.8 8.9 3.2 2.6-.3 5.6-1.4 6.7-2.4 1-1 2.3-1.6 2.8-1.3.8.5 3.8-2.4 8.8-8.3.5-.7 1-1.7 1-2.2s.7-1.6 1.5-2.5c1.9-1.8 2.3-9 .6-11-.7-.8-1-1.9-.8-2.3.7-1.1-3.8-6.2-7.8-8.9-2-1.4-4.7-2.1-8-2.2-4.5-.1-5.3.2-8.2 3.5zm-132.9-21.3c-4.7 1-8 2.7-12.2 6.1-.9.7-3.2 2.6-5 4.1-1.9 1.5-4.5 4.6-6 6.8-1.4 2.3-4.3 6.2-6.4 8.7s-4 6-4.2 7.6c-.2 1.7-1.4 5-2.6 7.3-4.9 9.7-4.9 39.2.1 51.5a36.19 36.19 0 0 1 1.4 5.5c1.8 9 11.9 19 19.2 19 1.3 0 2.3.3 2.3.7 0 1.4 11.8 1.8 20 .7 2.5-.3 6.8-.6 9.7-.7 5.5-.2 8.5-2.4 11-8 .7-1.5 2.3-3.1 3.5-3.6 2.2-.8 8.1-6.8 10.3-10.3l4.3-6.3c4.2-6 5.8-11 6.7-20.5 1.1-12.2 1.5-29 .6-29-.4 0-.8-1.2-.8-2.8-.1-4-2.3-12.2-3.4-12.2-.5 0-.9-.7-.9-1.5s-.5-1.5-1.1-1.5c-.5 0-.8-.4-.5-.9 1-1.5-10.9-11.5-17.6-14.8-12-5.9-20.4-7.6-28.4-5.9zm12.1 7.5c.6.4 3.7 1.7 7 3 3.3 1.2 6.9 2.7 8 3.4 1.1.6 3.5 1.8 5.3 2.7 4.2 2.1 12.2 12.6 12.2 16.2 0 1.5.5 3.9 1.1 5.5 1.6 4 1.2 32-.5 39.4-1 4.2-2.5 7.1-5 9.9-2 2.2-3.6 4.6-3.6 5.3 0 .6-1.9 2.8-4.1 4.7-2.3 1.9-4.9 4.2-5.8 5-3.4 3.1-7.7 5.4-9.6 5.2-1.1-.2-3.6.6-5.7 1.6-9.5 4.9-30.1 1.1-34.2-6.4-.6-1-1.5-2.2-2-2.6-.5-.3-1.1-1.7-1.3-2.9-.2-1.3-.9-2.6-1.5-3s-1.1-2-1.2-3.7c0-1.7-.4-2.8-.8-2.5-.8.4-1.2-2.1-.9-4.1.1-.6-.2-1.9-.8-3-.5-1.2-1.3-3.5-1.6-5.1-1.1-4.7-.8-21.1.4-23.3.6-1.1.8-2.8.5-3.6-.4-.9-.1-2.2.5-3 .7-.8 1.1-1.8 1-2.2-.3-1.4 1.8-5.9 3.6-7.7.9-1 1.2-1.7.6-1.7-1.5 0 2.1-6.9 3.7-7 .6 0 1.2-.9 1.2-2s.5-2 1-2c.6 0 1-.7 1-1.5 0-1.8 5.7-7.8 8.3-8.8 1-.4 1.5-1.1 1.2-1.7-.3-.5.3-1 1.5-1 1.1 0 2.3-.6 2.6-1.4s1.3-1.2 2.4-.9c1 .3 2.1 0 2.5-.7.7-1.2 11.2-1.2 13-.1zM208 181.1c0 .5-.7.9-1.5.9-.7 0-1.8.7-2.3 1.6s-1.2 1.5-1.5 1.5c-1.9-.3-2.7 0-2.7.8 0 .6-1.4 3.1-3.1 5.6-2.9 4.3-3.1 5-2.4 10.3.8 6.5 1.7 8.6 5.3 12.4 4.7 5.1 9.9 4.6 17.6-1.7 2.4-1.9 4.5-3.3 4.8-3 .2.3 1.6-.8 3.1-2.3 1.9-1.9 2.9-4.5 3.6-9.1 1-6.3 1-6.3-2.2-10.3-1.8-2.2-4.5-4.7-6.2-5.6-3.3-1.7-12.5-2.5-12.5-1.1zm61.7 76.8c-2.5 2.6-1.4 9.7 3.1 19.6 2 4.4 3.9 8.2 4.2 8.5 1.4 1.3 10 14.8 10 15.7 0 .6.7 1.6 1.5 2.3.9.7 1.3 1.5 1 1.8s.1 1.2.9 2.1c1.4 1.6 10.5 19.4 14.3 28.1 1.1 2.5 2.6 7.4 3.2 11l1.7 8.6c.2 1.2 0 2.4-.4 2.8-.7.8-.8 1.3-1.1 7.3-.2 4.8-6.8 10.8-12.9 11.8-5.1.9-21.2.9-27.8 0-4-.6-4.2-.5-4.2 2.2 0 4.6 1.5 5.6 7.4 4.8 3-.3 5.5-.2 5.8.3.3.6 1.5.8 2.6.5s3.4 0 5.1.6c1.9.6 3.7.7 4.3.2.6-.4 3.5-1.4 6.4-2.1 3-.7 5.6-1.8 5.9-2.6.2-.7 1.1-1 1.9-.7.7.3 1.6-.2 2-1 .3-.9 1.2-1.3 2-1s1.4-.1 1.4-1 1.1-2.8 2.4-4.4c1.2-1.5 2.1-3.4 1.9-4.1-.3-.6.1-1.2.7-1.2.8 0 1-.9.6-2.5-.4-1.5-.2-2.5.4-2.5s.8-1.1.4-2.8c-.4-2.1-.3-2.4.5-1.2.7.9 1.1 1 1.1.3 0-.6-.4-1.5-1-1.8-.5-.3-1-4-1-8.1 0-4.6-.4-7.4-1.1-7.4-.6 0-.8-.9-.4-2 .4-1.3.1-2.2-.9-2.6-1.2-.5-1.3-1-.5-2.5.6-1.3.6-1.9-.1-1.9-.5 0-1-.9-1-1.9 0-2.2-3.8-9.1-5-9.1-.4 0-1.3-2-1.9-4.5s-1.6-4.5-2.1-4.5c-.6 0-1-.7-1-1.5s-.4-1.5-.9-1.5-1.2-1.4-1.6-3c-.4-1.7-1.1-3-1.6-3s-.9-.6-.9-1.4-.7-2.2-1.6-3.1c-.9-.8-1.3-2.2-1-3s.2-1.4-.2-1.4c-1.9.3-2.5-.2-1.2-1.1 1-.6 1.1-1 .3-1-.7 0-1.3-.5-1.3-1.1s-.9-1.8-2-2.7c-1.1-1-2.6-3.7-3.3-6.2-.8-2.6-1.9-4.4-2.6-4.2-.7.1-1.1-.3-.8-1 .2-.7-.2-2.4-.9-3.8s-2-5.4-2.9-9c-1.3-5.6-3.5-9.1-5.4-8.9-.3 0-1.4.8-2.4 1.8zm39.1 199c-.9 2-11 5.6-17.8 6.2l-18.1 1.7c-5.9.5-11.2 1.3-11.9 1.7-.6.4-7.5 1.1-15.3 1.5-16.1.9-20.5 1.4-26.8 3a88.22 88.22 0 0 1-8.9 2l-7.7 1.6c-1.8.3-3.3 1-3.3 1.4 0 .5-1 1.2-2.2 1.6-1.2.3-5.5 4.1-9.6 8.3-9.8 10.1-10.2 10.6-10.2 12 0 .7-1.1 2.2-2.5 3.3s-2.5 2.8-2.5 3.9-.7 2.2-1.5 2.5c-.8.4-1.5 1.4-1.5 2.3s-1 5.2-2.1 9.6c-1.8 6.6-2.2 11.2-2.3 26l-.1 17.9 4.2 4.3c2.2 2.4 4.6 4.3 5.2 4.3s1.1.4 1.1 1c0 .5.7 1 1.6 1 .8 0 1.3.4 1 .8-.2.4 1.1 1.8 3 3.1s3.4 2.7 3.4 3.2 1.4.9 3.1.9 2.8.4 2.4 1c-.3.5.3 1 1.4 1 1 0 2.1.5 2.3 1 .2.6 1.4 1.2 2.8 1.5 1.3.3 4.4 1.9 6.7 3.5 2.4 1.7 4.3 2.6 4.3 2.1 0-.8.7-.7 2 .1 1.4.9 1.6 1.4.7 2-.7.5-.1.8 1.5.8 1.5 0 3.1.8 3.7 1.7.5 1 1.3 1.5 1.7 1.1.3-.4 1.6-.2 2.7.4 1.2.6 4.8 1.1 8.2 1 3.3 0 6.2.3 6.5.8.6.9 8.6 1.7 9.5.9.3-.3 2.2-.3 4.3 0 5.3.9 18.1-.5 20-2.2 1-.7 4.4-1.9 7.7-2.6s8.6-2.1 11.8-3.2c3.1-1 6.2-1.9 6.8-1.9s2.3-.8 3.7-1.9c1.5-1 4.3-2.2 6.2-2.6s4-1.1 4.6-1.6c1.1-.9 2.8-.8 7.2.6 1.9.6 2.2 1.3 1.7 3.4-.4 1.9 0 3.3 1.6 5l2.1 2.2 1.4-2.6c.8-1.6 1.2-4.5.9-7.1-.2-2.9.1-4.9 1-5.8.8-.7 1.2-1.6.9-1.8-.5-.5 6.3-3.9 11.6-5.8 6.9-2.5 10-4.2 10-5.6 0-.8.4-1.4.9-1.4.4 0 2.4-1.2 4.3-2.8l6.1-4.7c1.5-1.1 2.7-2.5 2.7-3.2 0-.6 1.4-2.7 3.1-4.5 1.6-1.8 3.3-4.5 3.5-5.9.3-1.4 2-4 3.6-5.8 2.3-2.4 2.8-3.5 1.8-4.1-.9-.5-.7-1.1.7-2.1 2.7-1.9 5.3-7.2 5.3-10.6 0-1.5.6-4 1.4-5.4 2.4-4.6 2.7-7.6 1-9.3-.9-.9-1.7-2.8-1.9-4.2-.4-3.8-3.8-13.4-4.7-13.4-.4 0-.8-.4-.8-.9 0-.4-2.2-4.2-4.9-8.3-8.3-12.6-24.1-22.4-37.5-23.4-12.6-1-22.5-1.2-22.8-.5zm29.5 10c1.5.6 2.7 1.5 2.7 2.1 0 .5 1 1 2.1 1 1.2 0 2.7.6 3.3 1.4s3.2 2.6 5.7 3.9c4.8 2.5 13.8 11.6 16.2 16.4 1.7 3.4 4 12.8 3.5 14.4-.4 1.3-9.2 2.3-19.4 2.2-6.4-.1-7.6-.4-12.4-3.6-5-3.4-8.6-8-7.5-9.7.3-.5-.4-2.4-1.5-4.3-1.2-1.9-2-3.9-1.9-4.3.4-1.5-1.3-6.4-2.1-6.4-.4 0-.5-1.1-.2-2.5.3-1.8-.3-3.3-2.1-5.1-2.4-2.4-2.5-2.7-1.1-4.9 1.3-2 2.2-2.3 6.7-2 2.9.2 6.4.8 8 1.4zm-26.4.2c2.3.8 3 1.6 2.6 2.8-.3.9.5 5 1.6 9.1 3.2 11.3 2 23.6-2.6 26.6-3.5 2.3-14.3 2-19.5-.6-4.4-2.1-9-7.5-9-10.4 0-.8-.5-2.7-1.1-4.3-.7-1.5-1.3-4.6-1.5-6.8s-.6-5.2-.9-6.7c-.5-3.4 1.3-4.3 11-5.4 2.8-.3 5.9-1.4 7-2.4 3.6-3.1 7.2-3.7 12.4-1.9zm-41.7 12.8c2.5 5.4 3.7 17.5 2.4 23.9-.9 4-4.7 9.8-7.6 11.5-4 2.4-17.5 4.8-20.5 3.7-2.2-.8-4.6-3.9-5.1-6.5-.1-.6-.9-4.6-1.9-9-1.1-5.5-1.4-9.5-.9-13 .5-2.7.7-6.7.5-8.7-.3-4.6 1.2-5.4 12.1-6.4 4-.3 7.4-.7 7.5-.8s2.9.2 6.1.7c5.3.9 5.9 1.3 7.4 4.6zm-45.7-.7c2.3 1 2.5 1.7 2.5 7.1 0 6.8-2.5 17.3-4.6 19.4-.8.8-1.4 2-1.4 2.6 0 1.8-4.8 6.7-6.5 6.7-.8 0-1.5.3-1.5.8 0 .4-1.3 1.3-3 2-2.4 1.1-4.5 1.1-10.2.2-7.6-1.1-11.8-3.7-11.8-7.1 0-1-1.1-3.1-2.5-4.7-3.2-3.9-3.1-5.9.5-10.2 3.8-4.4 3.9-4.6 7.3-7.1 1.5-1.1 2.7-2.8 2.7-3.7 0-1.5.2-1.5 1-.2.7 1 1 1.1 1 .2 0-.7 1.1-1.7 2.5-2.2s2.5-1.4 2.5-2 .5-.8 1-.5c.6.4 1.6.2 2.3-.3s3.1-.9 5.5-.9c2.3 0 4.5-.3 4.9-.6 1-1.1 5-.8 7.8.5zM358 526.9c0 .5 1.2 1.2 2.7 1.6 1.6.4 3.4 1.1 4 1.7 2.1 1.7 1.5 6.7-1.1 9.2-1.2 1.3-2.6 3-2.9 3.8-2.1 4.3-8.6 12.8-9.8 12.8-.6 0-2.2 1.4-3.6 3-4.5 5.5-11.3 7.6-11.3 3.6 0-.9-.6-3.5-1.4-5.8-1.8-5.4-2.6-15.9-1.3-15.1.6.4.8 0 .4-1s.6-2.8 3-5.2c1.9-1.9 3.7-3.5 4-3.5s1.8-.9 3.4-2.1c1.6-1.1 3.3-1.7 3.9-1.4.5.3 1 .1 1-.5s.4-.8 1-.5c.5.3 1.8.1 2.7-.4 2.2-1.3 5.3-1.4 5.3-.2zm-49.3 2.7c1.7-.7 9.5 7.1 11.7 11.7.9 2.1 2 6 2.3 8.7.4 3.3 1.4 5.9 2.9 7.5 5 5.4 5.6 10.2.8 7.1-3.3-2.2-3.4-2.1-3.4 2.9 0 3.4-.4 4.7-1.7 5.2-1 .3-2.7 1.4-3.8 2.3-1.1 1-4.4 2.3-7.3 3-2.8.6-5.5 1.6-5.8 2.1s-1.2.9-2.1.9c-.8 0-2.8.9-4.4 2.1-1.6 1.1-3.9 2.1-5.1 2.2-1.3 0-2.6.5-2.9.9-.3.5-2.1 1.1-4 1.4-3 .5-3.6.3-4.6-1.9-.9-1.9-.8-2.7.3-3.9 1.4-1.3 2.8-10.9 2.7-17.5-.1-1.3.2-2.1.7-1.8.6.4 2.2-13.5 2.1-18.9 0-1 1.2-4.1 2.7-6.8 2-3.7 3.7-5.4 6.5-6.5 2-.8 3.7-1.9 3.7-2.4s1.7-.2 3.7.6c2 .9 4.3 1.3 5 1.1zm-40.7 3.8c2.9 1.9 4.4 3.9 6 8.3 2 5.1 2.1 7 1.6 16.3-.3 5.8-1 12.1-1.5 14-2.5 9.4-2.2 14.5 1 15.5 3 1 2.3 2.1-2.3 3.8-10.8 3.8-13.3 4.1-28.6 2.8-8.1-.7-16.5-1.5-18.7-1.9-3.6-.7-4-1-3.8-3.6.1-1.6.6-3.2 1.2-3.5.5-.3 1.2-2.9 1.6-5.6.4-2.8 1-5.5 1.4-6 .3-.6.6-2.9.7-5.1.1-2.3.9-5.2 1.8-6.5s1.6-3.5 1.6-5c0-1.4.3-2.9.8-3.3.4-.4.7-1.1.7-1.4.1-.8 3.6-6.4 4.5-7.2.3-.3 1.7-2.1 3-4 3.7-5.4 8.1-8.9 12-9.6 1.9-.3 4-.7 4.5-1 2.4-.9 9 .6 12.5 3zm-65.8 3.3c1.6 1.5 3.3 4.3 3.8 6.3.5 1.9 1.9 4.8 3 6.5 1.1 1.6 2 3.6 2 4.4s.6 2.2 1.3 3c3 3.4 4 10.6 2.7 17.8-.7 3.7-1.7 7.4-2.3 8.1-1 1.2-4.7 1.3-5.7.1-.3-.4-3.9-2.3-8-4.3s-9.5-5-11.9-6.7c-5-3.7-7.9-9.3-6.2-12.1.6-1 .7-1.8.3-1.8-.5 0-1.6-1.6-2.5-3.6-1.7-3.4-1.7-3.7.3-6.4 1.1-1.5 2-3.3 2-3.9s1.1-1.7 2.3-2.6c1.3-.8 2.9-2.6 3.6-3.8 2.7-5.1 10.5-5.6 15.3-1z"/><path d="M249.433 639.818c-7.279-.272-23.686-1.803-33.284-3.106-14.285-1.939-44.683-14.075-55.128-22.008-4.497-3.416-14.524-13.815-22.86-23.71-5.114-6.069-9.368-14.225-9.94-19.054-.26-2.193-.757-3.811-1.105-3.596-1.064.658-1.469-.704-3.123-10.502-2.004-11.872-2.167-31.732-.369-44.889 2.524-18.467 5.318-32.421 6.698-33.453.938-.702 3.993-9.811 4.808-14.337.816-4.533 4.078-15.829 5.98-20.709.598-1.533 1.501-5.297 2.008-8.363s1.309-7.189 1.782-9.16 1.116-5.914 1.429-8.762c1.348-12.284 6.039-35.87 7.302-36.713.389-.26.682-2.052.653-3.983-.092-6.059 1.434-21.001 2.397-23.46.548-1.4 1.013-8.48 1.149-17.487.125-8.324.489-15.771.808-16.549.386-.941-.135-2.446-1.553-4.492-1.447-2.088-2.38-4.833-2.903-8.541-.424-3.005-1.117-6.718-1.541-8.252s-.773-3.953-.775-5.376c-.004-2.132.302-2.589 1.736-2.589.957 0 2.481.657 3.385 1.46s3.317 2.076 5.362 2.829c4.501 1.657 10.003 6.354 13.335 11.384 3.649 5.509 3.129 7.426-2.017 7.426-3.72 0-12.15 3.215-12.662 4.83-.893 2.813.299 3.352 6.521 2.953 4.56-.293 6.15-.72 7.036-1.89.656-.867 1.155-1.087 1.17-.516.014.548.77.996 1.68.996 2.363 0 6.311 4.221 6.311 6.749 0 1.151.527 3.112 1.172 4.358s1.41 3.827 1.702 5.735.839 3.863 1.217 4.346.909 2.495 1.18 4.474c.492 3.586.485 3.598-2.189 4.066-1.475.258-5.371.71-8.656 1.005s-6.422.892-6.969 1.327c-1.187.944-1.29 3.337-.229 5.32.706 1.319 1.096 1.346 4.953.346 2.303-.597 6.251-1.086 8.773-1.086 7.087 0 7.347.675 7.693 20.004l.281 15.695-2.073 1.358c-2.964 1.942-2.583 3.982 1.261 6.767 1.834 1.329 4.908 4.81 6.831 7.738 3.271 4.98 3.404 5.389 2.067 6.367-.786.575-2.826 1.421-4.533 1.881-3.388.912-7.209 4.178-6.7 5.726.533 1.619 3.476 1.559 6.806-.14 1.732-.883 3.392-1.363 3.689-1.066s.819.09 1.159-.461c.781-1.263 5.729-2.098 8.426-1.421 2.215.556 7.68 5.615 10.722 9.926 2.167 3.071 7.107 5.578 8.034 4.077.43-.696 1.015-.661 2.329.14 1.595.971 1.932.85 3.687-1.32 1.062-1.314 1.921-2.927 1.907-3.584s-2.361-2.628-5.217-4.381-5.766-3.813-6.466-4.579c-1.183-1.294-1.013-1.633 2.39-4.779 3.432-3.173 4.078-4.311 3.845-6.771-.128-1.353-2.631-1.257-4.522.174-.85.643-2.658 1.181-4.017 1.195-2.585.027-7.342-2.704-8.283-4.754a89.21 89.21 0 0 0-1.469-2.976c-1.158-2.241-1.19-5.525-.061-6.223.537-.332.673-1.917.362-4.229-.373-2.77-.059-4.896 1.251-8.477.962-2.628 1.785-6.75 1.829-9.16.076-4.158-.026-4.393-2.006-4.623-2.428-.282-3.063 1.202-3.08 7.197-.009 2.982-.551 4.509-2.6 7.318-1.424 1.952-3.01 3.572-3.526 3.599s-1.568-1.116-2.338-2.539c-2.045-3.779-2.7-32.397-.778-33.992.932-.774 1.266-2.495 1.266-6.536 0-4.705-.25-5.683-1.756-6.872-1.965-1.551-6.178-5.788-7.419-7.461-1.103-1.487-2.773-9.983-2.773-14.11 0-2.282.391-3.512 1.218-3.829 1.462-.561 4.316-6.575 4.938-10.402.429-2.644.358-2.739-1.852-2.486-1.575.18-2.373.764-2.535 1.856-.618 4.156-1.09 5.177-2.392 5.177-.765 0-4.79-3.674-8.946-8.164-10.37-11.207-10.076-10.787-8.407-12.008.955-.698 1.296-1.846 1.114-3.752-.329-3.448-1.921-3.846-6.506-1.626-4.185 2.026-4.454 2.026-10.853.021-5.371-1.684-7.994-3.419-7.994-5.291 0-.607-.688-2.452-1.53-4.102s-1.947-5.299-2.457-8.112-1.29-5.791-1.734-6.62-1.33-4.761-1.97-8.738-1.649-8.148-2.242-9.267c-2.461-4.649-5.201-16.441-5.201-22.386 0-1.555-.415-3.242-.922-3.749-1.847-1.847-.538-35.278 1.602-40.906.417-1.097 1.173-4.84 1.68-8.319s1.402-7.4 1.988-8.715 1.507-4.54 2.047-7.169c1.362-6.63 5.561-19.515 6.36-19.515.363 0 .899-1.091 1.192-2.425s1.391-3.395 2.44-4.58c3.129-3.534 3.245-3.715 3.806-5.95.297-1.182 1.56-3.321 2.807-4.752s2.887-3.812 3.643-5.289c3.127-6.103 26.655-29.505 33.737-33.556 1.149-.657 2.575-1.643 3.17-2.19s1.386-.996 1.759-.996 1.85-.986 3.282-2.19 2.718-2.092 2.858-1.972 2.132-.651 4.427-1.713 4.979-2.17 5.965-2.462 1.792-.859 1.792-1.26c0-.87 5.718-3.778 12.346-6.277l6.372-2.462c.876-.362 2.489-.842 3.584-1.067s4.5-1.194 7.567-2.155c7.677-2.406 28.489-2.624 41.419-.434 4.819.816 9.102 1.797 9.518 2.181s1.756.697 2.977.697c3.626 0 17.265 4.688 24.596 8.453 6.311 3.242 22.552 15.603 24.107 18.349 1.077 1.9.014 3.349-3.822 5.213-3.589 1.744-3.618 1.745-5.683.201-1.142-.853-2.888-3.071-3.881-4.928s-2.254-3.918-2.804-4.58c-1.285-1.549-3.686-1.548-4.281.001-.588 1.531.202 5.732 1.6 8.514.595 1.183 1.081 3.019 1.081 4.079 0 1.873-.226 1.944-7.939 2.491-4.366.31-8.685.326-9.597.037s-2.444-2.174-3.411-4.203c-1.869-3.921-5.828-6.919-8.024-6.076-2.212.849-1.084 11.478 1.218 11.478 2.256 0-.89 1.753-5.735 3.196-3.05.908-7.964 2.743-10.92 4.077s-7.65 2.907-10.431 3.496-6.545 2.055-8.363 3.259-4.74 2.499-6.492 2.878c-10.063 2.181-10.761 2.261-12.335 1.419-.882-.472-1.604-1.354-1.604-1.96 0-1.392-4.819-4.418-7.035-4.418-2.305 0-3.487 2.612-3.18 7.029l.259 3.724-5.576 1.389c-3.067.764-5.935 1.876-6.375 2.473s-1.587 1.334-2.549 1.639c-2.318.736-5.015 5.217-5.015 8.333 0 2.147.285 2.495 2.044 2.495 2.55 0 5.125-1.329 5.125-2.644 0-2.107 10.822-6.443 14.909-5.974 2.058.236 2.419.862 5.058 8.759 3.765 11.269 4.799 12.488 8.034 9.474 1.954-1.821 1.784-4.652-.79-13.103-1.252-4.11-1.46-5.868-.835-7.037 1.055-1.971 5.401-3.813 8.996-3.813 1.522 0 2.988-.358 3.259-.797.833-1.347 6.23-.877 8.947.78 1.488.907 3.294 3.1 4.278 5.192 1.88 3.999 4.861 6.772 7.28 6.772 1.451 0 1.55-.456 1.275-5.903-.21-4.164-.705-6.353-1.68-7.43-2.438-2.694-1.249-8.172 1.775-8.172.829 0 2.046-.538 2.703-1.195s1.848-1.199 2.646-1.203 3.21-.542 5.361-1.195c6.772-2.054 8.909-1.667 11.248 2.038 1.119 1.773 2.558 3.425 3.196 3.67s1.161.973 1.161 1.618c0 .907.586 1.046 2.589.611 1.424-.309 2.852-.965 3.174-1.457.807-1.235.756-3.499-.092-4.023-.386-.238-.873-1.333-1.083-2.431-.43-2.249 1.137-4.02 2.944-3.327.649.249 1.391.11 1.65-.309.633-1.024 11.965-.963 15.737.084 3.815 1.059 5.833.42 7.12-2.257 1.358-2.824 5.183-5.291 11.422-7.367l5.143-1.711 6.885 6.241c6.32 5.728 15.971 16.138 18.396 19.842 4.953 7.566 7.319 12.126 9.475 18.259l5.349 15.134c3.583 10.085 4.916 17.885 6.123 35.843 1.063 15.804.511 53.051-.855 57.758-.443 1.527-1.692 7.437-2.775 13.132s-2.473 12.326-3.089 14.735-2.249 9.757-3.628 16.328l-3.688 17.523c-2.98 14.084-3.582 52.489-1.103 70.298 2.571 18.468 7.66 49.092 9.826 59.135 1.087 5.038 2.356 13.282 2.822 18.32 1.639 17.737.658 46.053-1.875 54.163-.616 1.971-1.668 7.79-2.339 12.93s-1.772 10.517-2.447 11.948-2.331 6.365-3.68 10.965l-3.985 13.493c-.854 2.859-1.846 9.655-2.24 15.352l-.708 10.222-4.08 4.314c-2.244 2.373-4.091 4.604-4.104 4.959-.023.61-10.489 11.552-13.915 14.548-.876.766-3.649 2.545-6.163 3.953s-4.843 3.004-5.177 3.547-2.02 1.845-3.747 2.895-4.932 3.5-7.123 5.445c-4.345 3.859-8.686 6.065-13.632 6.928-1.752.306-5.157 1.085-7.567 1.733s-5.635 1.455-7.169 1.794-5.655 2.052-9.16 3.806-7.98 3.46-9.946 3.789-4.841 1.047-6.39 1.593-5.138 1.238-7.976 1.537a177 177 0 0 0-11.133 1.644c-6.559 1.209-13.749 1.692-21.108 1.417zm18.32-40.588c2.19-.903 9.001-2.992 15.134-4.642s12.834-3.842 14.89-4.872 6.028-2.624 8.825-3.543c4.716-1.548 5.298-1.581 7.999-.453 2.624 1.097 2.867 1.448 2.446 3.55-.37 1.849.024 2.883 1.9 4.982l2.367 2.649 1.297-2.508c.805-1.556 1.297-4.456 1.297-7.641 0-6.958 1.715-8.705 12.966-13.209 4.722-1.89 9.023-4.06 9.558-4.822s3.96-3.635 7.612-6.385 6.851-5.578 7.112-6.284 1.695-2.897 3.188-4.868 3.201-4.746 3.796-6.165 2.215-3.991 3.6-5.714 2.282-3.516 1.992-3.984.55-2.198 1.866-3.844 2.812-4.786 3.325-6.976a96.32 96.32 0 0 1 2.43-8.235c1.865-5.3 1.867-6.546.017-9.84-.814-1.449-1.91-4.606-2.436-7.015-2.538-11.633-15.27-28.332-26.96-35.361-9.52-5.724-17.832-7.581-34.139-7.626-7.915-.022-9.232.182-12.346 1.907-4.923 2.728-11.4 4.148-23.797 5.218-5.914.51-13.833 1.431-17.598 2.045s-14.099 1.664-22.964 2.331-18.509 1.774-21.431 2.458a635.64 635.64 0 0 1-12.841 2.805c-4.141.858-7.725 1.824-7.965 2.146s-1.968 1.624-3.84 2.894c-3.863 2.621-18.5 17.581-18.5 18.908 0 .479-1.075 2.095-2.39 3.592s-2.39 3.134-2.39 3.638-.666 1.657-1.48 2.561c-.919 1.022-2.268 5.414-3.561 11.601-1.716 8.208-2.171 13.034-2.594 27.48l-.512 17.523 4.781 4.381c5.272 4.83 7.113 6.372 7.61 6.372.181 0 2.179 1.792 4.44 3.983 2.621 2.54 4.806 3.983 6.029 3.983 1.055 0 2.143.363 2.417.806s2.894 1.925 5.822 3.294 6.572 3.336 8.097 4.372 3.586 1.884 4.58 1.884c1.031 0 1.806.486 1.806 1.133 0 .623 1.255 1.547 2.788 2.053s2.788 1.189 2.788 1.517c0 .802 9.181 2.452 14.031 2.521 2.14.031 4.608.382 5.484.78s7.866.62 15.532.494c11.919-.197 14.516-.468 17.922-1.872zm25.486-214.22c3.506-1.152 7.002-2.641 7.769-3.309s1.394-.979 1.394-.692c0 1.397 5.897-2.87 7.175-5.192 3.814-6.928 4.91-9.508 4.496-10.588-.247-.645-.107-1.384.312-1.643s.762-1.137.762-1.95.448-1.63.996-1.815c.764-.257.725-.663-.167-1.743-.686-.83-1.405-4.232-1.753-8.294-.783-9.142-1.478-12.86-2.403-12.86-.42 0-.543-.694-.273-1.543s.163-2.193-.237-2.987-1.667-3.505-2.817-6.024-2.439-4.58-2.865-4.58-1.306-1.79-1.955-3.977-2.096-5.177-3.214-6.642-2.427-3.798-2.91-5.182-1.201-2.518-1.596-2.518-.719-.673-.719-1.495-.538-1.942-1.195-2.487-1.195-1.844-1.195-2.885-.38-1.894-.844-1.894-.625-.354-.357-.787-.468-1.777-1.634-2.987-3.16-4.44-4.43-7.178-2.664-4.978-3.098-4.978-.789-.497-.789-1.104c0-1.865-5.491-18.163-6.784-20.136-1.493-2.278-3.07-2.359-5.164-.265-4.341 4.341.149 18.432 11.422 35.843 6.806 10.512 7.695 11.999 7.695 12.876 0 .45.673 1.769 1.496 2.932 2.736 3.865 14.295 27.676 15.577 32.087 2.024 6.962 3.576 16.13 2.88 17.009-.353.445-.8 2.814-.994 5.263-.431 5.456-2.532 8.657-7.661 11.672l-3.731 2.193-33.453.102-.248 2.1c-.525 4.441.589 5.07 9.967 5.631 4.73.283 9.676.845 10.99 1.25s2.568.767 2.785.804 3.264-.874 6.77-2.026zm-76.588-125.452c5.326-.496 10.69-1.412 11.919-2.035s3.293-2.801 4.586-4.839 4.05-4.986 6.128-6.55c6.757-5.088 16.033-18.746 18.065-26.599 1.357-5.244 3.259-31.714 2.567-35.733l-1.29-7.711c-2.182-13.228-12.235-24.313-28.499-31.423-20.448-8.939-34.713-3.808-50.807 18.276-3.843 5.273-6.676 10.1-7.594 12.939a239.35 239.35 0 0 1-3.28 9.308c-1.677 4.416-1.816 6.05-1.832 21.506-.016 15.968.085 17.088 2.232 24.692 1.237 4.381 2.798 9.508 3.468 11.394 1.546 4.349 8.792 12.23 12.757 13.874 9.585 3.974 14.862 4.459 31.581 2.903zm136.727-23.441c3.172-.948 5.315-2.28 7.766-4.826 1.862-1.934 3.385-4.034 3.385-4.666s2.705-3.15 6.012-5.595 6.212-4.968 6.457-5.607 1.216-1.161 2.157-1.161c1.209 0 1.984-.76 2.64-2.589l3.434-9.359c2.949-7.97 3.868-17.422 2.495-25.687l-1.774-10.753c-.484-2.957-1.353-6.273-1.93-7.368s-1.831-3.706-2.787-5.801c-3.191-6.992-8.109-12.802-12.802-15.12-10.874-5.371-21.964-6.777-28.543-3.618-2 .96-3.995 2.146-4.433 2.634s-2.23 1.863-3.983 3.055c-6.963 4.737-8.5 6.125-11.311 10.216-1.607 2.339-3.449 4.782-4.093 5.429-1.587 1.593-4.553 8.439-6.669 15.395-2.376 7.809-2.87 23.79-1 32.366 1.597 7.324 5.292 15.278 10.611 22.838 3.258 4.631 4.881 6.13 8.891 8.218 2.698 1.404 6.398 2.87 8.221 3.257 4.337.921 11.777.379 17.254-1.258zm-156.713 15.146c-2.3-.619-5.597-1.848-7.328-2.731-3.379-1.724-8.802-8.126-8.802-10.392 0-.76-.538-1.827-1.195-2.373s-1.195-2.002-1.195-3.237-.358-2.467-.797-2.737-.808-1.457-.823-2.636-.719-4.115-1.567-6.524c-3.449-9.806-1.044-34.18 4.099-41.542.812-1.163 1.477-2.704 1.477-3.425 0-1.943 2.152-5.749 3.555-6.287.673-.258 1.224-1.198 1.224-2.088s.315-1.618.7-1.618 1.138-1.058 1.673-2.35c1.075-2.595 9.948-11.191 11.553-11.191.557 0 1.456-.534 1.997-1.186s1.237-1.03 1.545-.84 2.108-.187 3.999-.838c4.498-1.55 8.933-.877 17.562 2.665 14.834 6.088 21.13 10.866 24.599 18.669 3.409 7.667 4.486 19.453 3.35 36.666-.861 13.042-1.959 16.636-6.815 22.31-1.548 1.808-2.814 3.741-2.814 4.295 0 1.095-11.476 11.512-14.414 13.084-.993.532-3.623 1.427-5.843 1.99s-5.471 1.575-7.223 2.249c-3.977 1.529-12.963 1.56-18.518.064zm13.421-33.925c1.489-.498 4.502-2.236 6.695-3.862s5.181-3.574 6.641-4.329c3.246-1.679 5.379-6.148 6.113-12.809.493-4.479.372-4.991-1.928-8.149-3.825-5.251-7.66-7.377-14.312-7.935-4.011-.336-5.679-.208-5.679.436 0 .502-.482.912-1.071.912s-1.72.717-2.513 1.593-2.013 1.607-2.712 1.625-2.604 2.316-4.257 5.148c-2.433 4.168-2.986 5.897-2.982 9.327.008 8.036 2.911 14.161 8.252 17.419 2.898 1.767 4.054 1.86 7.754.623zm129.435 11.545c-7.517-2.308-10.281-4.717-16.778-14.622-5.944-9.062-6.894-10.793-6.271-11.416.261-.261-.184-1.831-.988-3.49-1.198-2.471-1.454-4.884-1.417-13.37.04-9.121.298-11.062 2.164-16.294 1.165-3.267 3.01-6.871 4.1-8.009s1.982-2.333 1.982-2.657c0-1.209 6.391-8.996 8.921-10.869 7.801-5.776 10.563-7.173 14.159-7.16 7.949.031 22.579 4.61 24.303 7.608.443.769 1.42 2.045 2.172 2.835 6.123 6.436 10.781 26.597 9.434 40.832-.446 4.717-1.195 8.33-1.89 9.125-.633.724-1.739 2.476-2.457 3.894-3.202 6.321-9.784 11.361-14.837 11.361-2.902 0-5.549 1.244-5.568 2.617-.007.532-.998 2.924-2.202 5.315-2.89 5.739-6.618 6.821-14.827 4.3zm9.93-30.467c1.248-.923 2.747-1.678 3.33-1.678 1.712 0 7.44-6.399 10.093-11.274 1.816-3.338 2.451-5.543 2.451-8.515 0-2.206-.358-4.233-.797-4.504s-.797-1.196-.797-2.056c0-1.91-5.814-8.367-9.033-10.032-1.29-.667-4.649-1.267-7.465-1.333-5.743-.135-5.524-.298-13.969 10.42l-3.783 4.802-.014 19.704 3.79 3.414c3.762 3.388 3.827 3.411 8.856 3.072 3.497-.236 5.769-.862 7.335-2.02zM235.494 592.943c-5.476-.593-10.803-1.459-11.837-1.926-2.034-.918-2.026-1.313.156-7.971.646-1.971 1.545-5.556 1.996-7.965 3.085-16.45 5.774-23.38 12.588-32.443 5.382-7.157 8.503-9.574 14.325-11.095 5.029-1.313 8.583-.955 13.001 1.311 3.942 2.022 6.009 4.484 8.034 9.569 1.601 4.019 1.704 5.27 1.253 15.134-.27 5.914-1.016 13.083-1.657 15.93-1.82 8.087-1.604 11.669.842 13.936l2.063 1.912-2.979 1.245c-9.104 3.804-18.837 4.412-37.788 2.362zm-36.842-15.056c-11.824-6.328-14.352-8.275-16.493-12.698-1.377-2.844-1.546-3.898-.84-5.218.682-1.274.63-1.909-.223-2.762-.609-.609-1.589-2.269-2.176-3.687-.971-2.344-.898-2.876.806-5.843 2.882-5.02 9.617-12.284 12.234-13.196 3.033-1.057 7.626.135 9.844 2.556.907.991 3.158 5.027 5.001 8.97l5.77 12.225c2.295 4.796 2.398 5.432 1.994 12.346-.555 9.511-1.623 12.492-4.441 12.392-1.162-.041-6.326-2.329-11.475-5.085zm.601-60.456c-6.708-1.391-9.651-3.13-10.706-6.326-.485-1.47-1.77-3.876-2.854-5.346s-1.968-3.41-1.964-4.31c.017-3.558 12.443-15.946 19.56-19.5 3.746-1.871 15.952-3.617 19.632-2.809 1.228.27 2.587 1.154 3.022 1.966 1.985 3.709-.31 17.512-4.091 24.603-2.378 4.459-5.968 8.838-7.248 8.838-.374 0-1.651.698-2.838 1.55-2.929 2.103-6.808 2.517-12.513 1.334zm43.177-.655c-3.22-3.22-4.906-11.815-4.955-25.255-.053-14.752-.409-14.265 11.411-15.622 10.231-1.174 17.843-.216 19.829 2.498 2.142 2.927 3.677 10.232 3.747 17.83.064 6.918-.127 7.922-2.225 11.708-1.262 2.278-3.054 4.84-3.983 5.694-2.504 2.305-8.864 4.196-15.753 4.685-5.716.405-6.224.309-8.071-1.538zm39.308 68.746c-.584-1.091-.473-2.176.403-3.931.665-1.333 1.718-6.301 2.338-11.038l1.942-13.791c.447-2.848.821-6.969.83-9.16.011-2.709.745-5.511 2.293-8.762 2.432-5.106 3.525-6.286 8.387-9.062 2.582-1.474 3.498-1.63 5.495-.933 1.318.46 3.263.836 4.321.836 2.231 0 9.611 6.963 11.737 11.074.743 1.437 1.883 5.163 2.533 8.282.825 3.956 2.137 7.099 4.34 10.398 1.737 2.601 2.982 4.904 2.768 5.118s-1.455-.052-2.757-.591c-3.199-1.325-4.056-.572-4.056 3.563 0 3.263-.247 3.669-3.675 6.027-2.021 1.39-5.695 3.146-8.164 3.901s-7.536 2.715-11.26 4.356c-11.454 5.047-11.933 5.222-14.336 5.222-1.475 0-2.631-.555-3.141-1.507zm14.996-80c-3.774-1.401-7.445-4.056-9.316-6.738-1.617-2.318-4.481-13.079-5.28-19.841-.594-5.024-.184-5.34 9.013-6.945 4.104-.717 7.399-1.832 9.373-3.173 3.368-2.289 8.094-2.728 11.391-1.059 2.042 1.033 2.362 2.215 4.942 18.241 1.268 7.88.108 15.135-2.901 18.144-1.767 1.767-2.799 2.048-8.182 2.231-3.707.126-7.307-.216-9.04-.859zm49.532 1.778c-6.008-1.844-13.598-8.833-13.598-12.521 0-.933-.669-3.229-1.488-5.102-2.181-4.994-4.088-11.305-4.088-13.53 0-1.07-.896-2.786-1.991-3.815-2.371-2.228-2.484-3.29-.535-5.054 2.716-2.458 12.377-1.332 16.073 1.873 1.007.873 2.471 1.587 3.255 1.587s1.654.371 1.934.825 2.797 2.27 5.593 4.035 7.607 5.912 10.691 9.215c4.763 5.1 5.843 6.801 7.174 11.297 2.49 8.408 2.443 9.806-.353 10.574-3.981 1.093-19.72 1.521-22.668.616zm-11.116 49.661c-2.828-11.741-2.306-16.445 2.365-21.308 3.52-3.665 7.937-6.116 14.481-8.037 4.119-1.209 4.734-1.223 5.974-.134.76.667 2.278 1.479 3.373 1.803s2.439.948 2.987 1.387c1.42 1.136 1.223 4.62-.402 7.117-6.729 10.338-11.175 16.045-15.401 19.769-5.818 5.127-7.674 6.305-9.994 6.344-1.487.025-1.916-.855-3.382-6.941z" fill="#fff"/></svg>