<svg xmlns="http://www.w3.org/2000/svg" width="732" height="861.333" viewBox="0 0 549 646" preserveAspectRatio="xMidYMid meet"  xmlns:v="https://vecta.io/nano"><path d="M265 72.1c-4.7.4-12.8 2-18 3.4s-10.4 2.6-11.5 2.7c-2.9 0-11.7 1.8-14 2.8-1.1.5-4 1.4-6.5 2.1-2.4.6-8.7 3.1-13.9 5.5S190.7 93 189.4 93c-1.2 0-2.6.4-2.9 1-.3.5-1.4 1-2.3 1-3.1 0-23.7 11.1-35.4 19.1-1.5 1.1-3.1 1.9-3.5 1.9s-3.7 2-7.4 4.5-7.2 4.5-7.8 4.5-2.5 1.6-4.2 3.5c-1.8 1.9-3.6 3.5-4 3.5-2.3 0-21.4 19.1-29.4 29.3l-10.2 13c-2.3 2.8-4.2 5.6-4.3 6 0 .9-2 3.7-7.1 10-5.5 6.9-9.6 18.1-10.5 29.2-1.1 13.5 6.2 44 15.1 63.3 1.4 2.9 2.5 5.6 2.5 6 0 .5.6 1.4 1.3 2 .6.7 1.2 1.6 1.2 2s1.5 2.8 3.3 5.4c1.7 2.6 3.2 5.1 3.2 5.6s.9 1.7 2 2.7 2 2.4 2 3.1.3 1.4.8 1.6c.4.1 2.6 2.8 4.9 5.8s5.4 6.8 6.9 8.5c1.4 1.6 3.3 4.3 4.1 6 .9 1.6 2.5 3.6 3.6 4.4s2.6 2.1 3.3 3c9.3 11.7 14.7 18 21.7 25.1 11.5 11.8 14.4 16.4 22.9 37.5l2.9 7c1.1 2.9 6.1 19.6 6.4 22 2.2 13.5 2.6 20.9 2.5 47.8 0 17-.3 31.3-.6 31.8-.8 1.4 1.7 31.2 2.7 32.4.5.5.9 1.9.9 3.1 0 1.3.4 2.5.9 2.9.5.3 1.7 3.1 2.6 6.2 3.6 12.2 8.2 18.5 19.1 25.8 3.2 2.1 7.6 5.3 9.6 7 7.4 6.1 9.7 7.5 11.7 7.5 1.2 0 2.1.6 2.1 1.6 0 .9.5 1.4 1.2 1.2.7-.3 6.4 2.2 12.7 5.5 9.1 4.6 12.2 5.7 14.6 5.3 1.6-.3 5.7-.9 9-1.4 11.6-1.8 29.2-6.8 31.7-8.9.9-.8 2.3-1.6 3.2-1.7.8-.1 3.7-1.6 6.3-3.2 2.6-1.7 6.1-3.6 7.6-4.2 5.5-2.4 11.3-7.8 18.4-17.1l12.7-16.9c3.1-4 5.6-7.4 5.6-7.6 0-1.3 10.9-19.5 12.7-21.2 1.2-1.1 2.5-3.3 2.9-5 .4-1.6 2-5.6 3.6-8.9 1.5-3.3 2.8-6.8 2.8-7.8s1.1-3.7 2.4-6c2.3-3.9 2.5-5.5 3-21.7.6-18.4 2-29.9 5.5-44 1.2-4.7 2.4-11.1 2.8-14.2.3-3.2 1-5.8 1.4-5.8.5 0 .9-1.1.9-2.5 0-1.5.7-3.9 1.5-5.4.8-1.6 1.7-4.7 2.1-7s1-4.1 1.4-4.1c.5 0 1.3-1.2 1.9-2.8 1.4-3.4 4.5-8.9 6.4-11 .8-.9 3.8-5.5 6.7-10.2 2.8-4.7 7.2-10.8 9.6-13.7 2.4-2.8 4.4-5.4 4.4-5.7 0-.2 1.6-2.2 3.6-4.3 1.9-2.1 4.2-5 5-6.6.8-1.5 1.9-2.7 2.5-2.7.5 0 3.2-2 5.8-4.5s5.1-4.5 5.4-4.5c1.1 0 10.2-6.4 11-7.8.5-.7 2.7-2.6 4.9-4.2 5-3.6 11.3-12.1 16.1-21.8 6.3-12.6 8.8-28.4 9.4-59.6.3-17.7.1-27.2-.7-30l-1.4-5.6c-2.2-11.3-8.3-29.1-12.9-37.5-.6-1.1-1.5-2.9-2.1-4-.6-1.2-2.6-3.9-4.3-6.2-1.8-2.2-3.3-4.5-3.3-5.1s-.3-1.2-.8-1.4c-.4-.2-6-6.2-12.5-13.5-15-16.9-29.2-28.1-43.4-34.2-1.1-.6-2.4-1.5-2.8-2-.3-.6-1.3-1.1-2.1-1.1s-3.6-.9-6.2-2.1c-8-3.6-7.3-3.3-21.7-7.1-5.5-1.5-18.6-5.7-21-6.8-2.7-1.3-62.4-7.3-68-6.9l-10.5 1zm30.5 13.4c16.3 1 21.3 1.5 23.9 2.5 2.4.9 9.4 1.6 20.6 2.2.8 0 2 .4 2.5.8.6.4 2.6 1.1 4.5 1.5s4.1 1.1 5 1.5c5.6 2.8 7.5 3.4 10 3.2 1.6-.1 3.1.2 3.5.7.3.6 2.7 1.3 5.3 1.7s5.9 1.5 7.4 2.5c1.4 1.1 3.1 1.9 3.7 1.9s3.2 1.1 5.9 2.4c2.6 1.4 5.9 2.7 7.4 3 1.5.4 4.3 2 6.2 3.6 1.8 1.7 3.8 3 4.2 3 2.1 0 12.2 7.7 18.8 14.4 9.4 9.4 25 29 29.2 36.8 2.5 4.5 4.4 9.1 4.4 10.5 0 .7.4 1.3.8 1.3 1.1 0 2.5 4.4 5.9 18.5 2.4 10.3 2.6 12.5 2.6 35-.1 20.8-.4 25.5-2.3 35l-3 15c-1.2 6.6-6.9 16.3-12.8 22.1-3 3-5.9 5.4-6.3 5.4-.5 0-2.1 1.2-3.7 2.7-4.7 4.5-13 11.3-13.7 11.3-1.2 0-14.5 11.3-14.5 12.3 0 .6-2 3.6-4.4 6.6-2.4 3.1-7.8 10.8-12.1 17.1s-8.4 12.1-9.1 12.8c-.8.7-2.1 3-3 5-1 2-3.3 7.1-5.2 11.2-6.4 14-7 15.5-7.7 19-.9 4.1-3.2 9-4.4 9-1.4 0-3.8-3.3-5-6.9s-.2-5.2 4-6.6c3.4-1.2 2.3-10.4-1.4-11.8-1.2-.4-1.3-1.4-.6-5.4 1.4-7.5 1.9-20.2.7-20.9-.5-.4-.8-1.9-.4-3.4.4-2.1-.1-3.5-2-5.5-1.6-1.8-2.3-3.3-1.8-4.4.4-.9.6-2.4.6-3.4-.4-7-.4-6.9-2.8-6.4-2 .4-2.3.1-1.8-1.5.4-1.4-.4-2.9-3-5.3-2.1-2-3.4-3.9-3-4.8.7-1.8-4.5-5.7-7.6-5.7-5.2 0-8.7 5.5-5.6 8.9.8.9 2.4 4.3 3.7 7.6 1.2 3.3 2.8 6.4 3.6 6.8 1.8 1.1.7 2.7-2 2.7-1.2 0-3.9.5-5.9 1.1-4.5 1.2-5.9 4.5-3.4 8.1 1.4 2 2.5 2.3 8.1 2.3 3.6 0 6.5-.3 6.5-.7 0-.5.9-.8 2-.8 1.7 0 2 .7 2 4.3 0 3.9-.4 4.7-4 7.6-2.7 2.2-4 4-4 5.7 0 3.3 2.8 7.4 5.1 7.4 1.4 0 1.9.7 1.9 3 0 2.7-.3 3-3.1 3-2.3 0-3.9.9-6 3.2-1.6 1.8-2.9 3.6-2.9 4 0 1.5 4 4.8 5.8 4.8 3.1.1 4.9 2.4 5.5 7.4.4 2.7 1.4 5.7 2.2 6.5.7.9 1.8 2.6 2.2 3.8 1.1 2.8 9.1 9.3 10.7 8.7 1-.4.5 3.5-1.7 14.8-2.3 11.8-3.1 18.8-3.4 30.7l-.4 15.4-3.8 7.1c-2.1 3.9-4.6 9.8-5.6 13.1-1.9 6.8-6.3 17.2-8.2 19.6-.7.8-1.3 1.9-1.3 2.3s-.9 1.9-2 3.3-2 3.4-2 4.4c0 1.1-.3 1.9-.8 1.9-.4 0-1.6 1.6-2.6 3.5-1.1 1.9-3 4.2-4.2 5-1.3.9-2.4 2.1-2.4 2.9 0 .7-2.7 4.1-6 7.4-3.3 3.4-6 6.8-6 7.6 0 1.5-6.6 7.3-10.9 9.5-1.4.7-3.4 2-4.4 2.9-.9.8-2 1.2-2.4.9-.3-.4-1.2.2-2 1.3s-1.9 2-2.5 2-1.9.6-2.7 1.3c-1.8 1.5-10 4.7-12.1 4.7-.7 0-2.1.6-2.9 1.4-.9.8-5.7 1.9-11.3 2.5-14.6 1.6-18.3 1.4-22.6-1.2-2-1.3-5.4-2.9-7.4-3.6s-5.5-2.5-7.7-4.2c-2.3-1.6-4.4-2.9-4.7-2.9-.5 0-2.8-1.7-8.1-6-.7-.6-1.5-1-1.9-1-1.1 0-13.4-10.3-13.4-11.2 0-.4-.7-.8-1.5-.8s-2.2-1.5-3-3.3a119.28 119.28 0 0 0-4-7.6c-1.6-2.7-2.5-6-2.5-8.6 0-2.2-.4-4.5-.8-5-2.3-2.5-3.3-24-2.7-56.3.3-18.3.3-33.8-.1-34.4-.5-.7-.7-2.9-.5-4.9.3-5-1.5-14.5-5.1-26.4l-3.8-13c-1.5-5.2-3.4-10-5.3-12.8-.9-1.4-1.7-3.5-1.7-4.7 0-1.1-.4-2-1-2-.5 0-1-.6-1-1.3 0-3.3-6.6-14.1-12.1-19.9-9.3-9.7-14.6-15.8-33.4-38.3l-6.5-7.9c-.8-1.1-2.7-3.3-4.2-4.9-1.6-1.7-2.8-3.4-2.8-3.8 0-.5-1.3-2.2-2.9-3.8-1.5-1.6-3.1-4.1-3.5-5.5-.3-1.4-1.1-2.6-1.6-2.6-.6 0-1-.6-1-1.4 0-.7-.9-2.5-2-3.8-2.1-2.8-5.9-9.3-8.5-14.8-.9-1.9-2.1-4.3-2.6-5.2-.5-1-.9-2.7-.9-3.7 0-1.1-.5-2.3-1-2.6-.6-.3-1-1.9-1-3.5s-.4-3.1-.9-3.4-1.2-2.3-1.6-4.3c-.4-2.1-1-4.3-1.4-4.8-1.9-2.4-3.6-14.9-3.5-25.1.1-10.9 1.8-18.3 4.9-22.4.6-.8 1.9-3.2 2.9-5.2.9-2 2.1-4 2.6-4.3.6-.3 1-1.3 1-2.1 0-1.6 1.1-3.2 4.6-6.7 1.2-1.2 4.3-5.1 7.1-8.7 2.7-3.6 6.2-7.9 7.8-9.5 1.7-1.7 5.9-6.2 9.4-10 3.5-3.9 8.4-8.7 11-10.8l6.3-5.2c3.6-3 7.4-4.2 11.7-3.7 2.4.2 4.6 0 5-.4.9-1.3 8.9-6.4 9.9-6.4.5 0 3.1-1.7 5.8-3.8 6.9-5.2 8.9-6.2 12.9-6.2 3.8 0 4.7 1.8 2 4-3.1 2.5-.9 6.9 4.1 8.4 1.7.5 2.7 0 4.3-2 1.1-1.4 1.8-3 1.6-3.5-.3-.4.6-1.6 1.9-2.5 2.5-1.5 2.7-1.5 9.3 2.9 3.7 2.4 7.8 5 9 5.6l2.3 1.2-3.5 3.5c-4.1 4-4.3 5.9-1.2 8.5 2.9 2.4 5 2.4 7.2-.1 2.5-2.8 4-2.5 6.4 1.2 1.1 1.8 2.6 4.1 3.3 5.1 1.1 1.6.9 2.1-1.5 3.9-3.8 2.7-5 5.3-3.8 7.7 1.5 2.7 6.2 3.7 7.8 1.5 1.7-2.3 3.9-1.2 5.8 3.3.9 2.1 2.1 4.6 2.6 5.5 1.3 2.5 1.2 2.8-1 2.8-2.5 0-3.6 1.6-1.9 2.7.7.4 1.8 2.1 2.3 3.8.9 2.5 1.6 3 4.4 3s3.4.4 3.6 2.2c.1 1.2 1.6 3.3 3.3 4.8 1.8 1.5 3.2 3.2 3.1 3.9-.1.6.2 2 .6 3 .6 1.5.2 2.4-1.9 4.1-4.9 3.9-4.4 8.7 1.2 11.1 3.9 1.6 4.9 1.1 5.4-2.5.5-3.8 2.2-3.6 7 .8 2.3 2.3 5.2 4.1 6.3 4.1s3.8 1.6 5.9 3.6l3.9 3.6 3.6-1.7c3.5-1.5 23.1-2.9 23.1-1.5 0 .3-.9 2.3-2 4.5s-2 4.7-2 5.7c0 1.6-.5 3.1-4.1 11.3-1.3 2.9-2.1 6.5-5.3 23.5-.9 4.7-1.7 13.7-1.7 20.1-.1 10.4.2 12.3 2.4 17.2 1.4 3 4.8 7.7 7.5 10.3 6.6 6.5 12.4 7.9 27.6 6.9 5.9-.4 10.9-1.1 11.2-1.6s1.2-.9 2.1-.9 3.1-1.2 5-2.6 3.7-2.3 4-2 2.2-.3 4.2-1.3c2-1.1 5.2-2.6 7.2-3.5s4.9-2.8 6.5-4.4c1.6-1.5 4.1-3.6 5.6-4.5 2.5-1.6 2.8-1.6 3.6 0 .8 1.4 1.4 1.3 5.3-1.3 3-2.1 4.4-3.7 4.5-5.4.1-1.3.6-2.6 1.2-2.8s.8-1 .5-1.8 0-1.4.6-1.4 1.1-.4 1.1-.9c0-.6 1.2-2.3 2.6-3.8 3-3.1 7.4-11.8 7.4-14.5 0-2.5 5.7-14.2 8.7-17.9.5-.8 2-4.6 3.3-8.4 1.2-3.9 3-8.6 4-10.5 3.2-5.9 5.2-15 5.8-25.7.7-15-.8-19.8-10.6-32-4.5-5.6-11.2-10-22-14.2-9-3.6-36.4-2.4-42.2 1.8-1.4 1-3.6 2.2-4.9 2.6-7 2.2-21.1 18.5-26.4 30.5-4.9 10.9-6 13-7 12.9-.7-.1-2.1.2-3.2.6-1.1.5-5.3.9-9.5.9l-7.5.1-.7-4c-1.3-6.6-1.4-6.9-2.9-7.3-.8-.3-1.7-.9-2-1.5-.9-1.2-3.8-.2-4.3 1.5-2.8 10-3.9 11.7-5.3 8.2-.4-1.1-1.3-1.3-3.4-.9-2.2.5-2.9.3-2.9-.9 0-.9-.4-1.6-1-1.6-.5 0-.9-.8-.8-1.8.3-4.4-.3-6.3-2.6-7.2-5-1.8-8.3-9.9-5.4-12.8.7-.7.8-1.2.4-1.2-.5 0-.3-.7.4-1.5 1.3-1.6.6-3.5-1.5-3.5-.7 0-1.5-.7-1.9-1.5-.4-1.2-1.1-1.3-3.2-.5-1.5.6-2.8.9-2.9.8-2-2.6-5.5-10-5.5-11.6 0-1.2-.4-2.2-1-2.2-.5 0-1-.7-1-1.5 0-1.2.7-1.4 2.7-.9 2.6.7 2.7.6 1.1-.9-.9-1-1.4-2.5-1.1-3.7.4-1.5 0-2-1.5-2-1.2 0-2.2-.9-2.5-2.1-.4-1.4-1.1-2-2.1-1.6-1.1.4-2.1-.3-3.1-2.2-.8-1.6-2.2-3.1-3.1-3.5-1.3-.5-1.5-1.4-.9-4.2.7-3.9-.6-6.4-3.6-6.4-1 0-2.1-1-2.4-2.1-.6-1.7-.9-1.9-1.6-.8s-2 .2-5.8-3.8c-2.7-2.9-6-5.5-7.4-5.8-1.4-.4-3.4-1.5-4.6-2.6-1.1-1-2.7-1.9-3.6-1.9-1 0-1.5-1-1.5-2.9 0-2-.6-3-2-3.4-2.2-.6-2.7-2.7-.6-2.7.7 0 3.3-1.1 5.7-2.3 2.4-1.3 6.9-3.2 9.9-4.2s6-2.2 6.6-2.7c.7-.5 2.7-1 4.5-1.2 5.7-.6 10.9-1.8 11.4-2.6.3-.5 3.1-1.1 6.3-1.5 3.1-.3 7.3-1 9.2-1.5 7.8-2 16.7-4 19.5-4.4 2.7-.3 15 0 29 .9zm86.7 86.6c5.2 1.3 14.2 7.7 17.7 12.5 5.5 7.8 7.8 20.1 5 27.1-.7 1.5-1.5 5.3-1.9 8.3s-2.2 8.5-3.9 12.1-3.1 7.1-3.1 7.8c0 1-6.4 13.1-9 17.1-.6.8-1.5 2.6-2 3.9-.6 1.3-2.4 4.3-3.9 6.7-1.6 2.3-3.5 5.9-4.2 8.1-1.8 5.1-3.9 8.3-5.4 8.3-.7 0-2.4 1.1-3.9 2.5s-3.1 2.5-3.7 2.5c-.5 0-.9.4-.9.9 0 1.6-11.4 10.1-13.5 10.1-1.1 0-3.8 1.1-6 2.5-5.1 3.1-7.9 4.4-11 4.9-1.4.3-2.9.7-3.3 1-.5.3-2.4.7-4.3 1-1.9.2-4.6.7-6.1 1.1s-5 0-8.2-.9c-7.9-2.3-11-6.9-13.6-20.1-.9-5.1-.8-7.4.8-15.5 2.9-13.9 5.5-23.3 7-24.8.6-.7 1.2-2.2 1.2-3.3s.5-3 1.1-4.1 2-4.8 3-8.2c1.7-5.6 7.5-22.4 9.5-27.1 1.1-2.8 11-18.5 13.1-21 1-1.1 3.6-3.3 5.8-4.9s4.5-3.4 5-4c1.8-2 5.4-3.6 7.9-3.6 1.4 0 2.7-.4 3-.8.7-1.2 23.4-1.3 27.8-.1zM157 166.6c-3.7.7-15.3 4.7-16.4 5.6-.6.4-1.7.8-2.7.8-.9 0-2.7 1-4.1 2.2-1.4 1.3-5 4.2-8 6.5-6.4 5.1-13.8 17.7-13.8 23.6 0 2-.7 4.3-1.6 5.2-1.3 1.3-1.4 2.1-.6 3.8.6 1.2 1.4 4.2 1.7 6.7.8 5.1 3.9 15.9 6.1 20.8.8 1.8 1.4 3.9 1.4 4.8 0 .8 3.8 7.9 8.5 15.7 8.3 13.7 21.8 30.8 25 31.5.8.2 1.5 1 1.5 1.8s.7 1.4 1.5 1.4 2.7 1.4 4.2 3.1c1.6 1.7 4.1 3.7 5.8 4.5 1.6.8 4.4 2.3 6 3.3 1.7 1.1 3.8 2 4.8 2 1.6.1 2.6.5 8 3.3 5.1 2.7 16.6 4.3 24 3.4 4.6-.6 5.6-1.2 8.1-4.7 1.9-2.5 3.8-3.9 5.2-3.9 1.3 0 5.5-1.2 9.4-2.6 8.7-3.3 11.3-6.6 13.1-16.9 2.1-11.7 1.4-37.4-1.2-40-.5-.5-.9-2-.9-3.5 0-1.4-1.4-5.6-3-9.5-1.7-3.8-3-7.4-3-8 0-3.6-7.4-15.7-13.5-22.4-2.2-2.3-4.4-5-4.9-5.8-1.4-2.5-12.8-13.3-17.6-16.7-8.3-5.7-19.9-11.9-24.5-13-1.6-.4-3.3-1.2-3.6-1.8-.7-1.1-11-1.9-14.9-1.2zm11.8 12.3c.9.5 5.7 2.9 10.6 5.2 5 2.4 11.5 6.2 14.6 8.5s6.6 4.7 7.8 5.3 2.2 1.9 2.2 2.7c0 .9 2.9 4.4 6.4 7.9 7.8 7.7 11.8 14.2 9.6 15.5-1 .7-1.9.5-2.7-.6-1.3-1.8-3.5-1-2.7 1 .3.7-.2 1.9-1.1 2.6-.8.7-1.5 1.6-1.5 2.1 0 1.2 5 .6 5.8-.8.4-.6 1.8-1.4 3.2-1.7 2.1-.5 2.8-.1 4.3 2.9.9 2 1.7 4.5 1.7 5.7s.6 2.9 1.4 3.7c1.6 1.8 5.2 19 6 29.3.5 5.9-.5 18.4-1.9 22.9-.7 2.1-9.6 5.1-18.9 6.4-7.8 1-7.8 1-9 4.5-1 3.2-1.4 3.5-4.6 3.2-4-.3-19.3-5.3-19.8-6.4-.2-.5-1.3-.8-2.5-.8s-3.3-.9-4.7-2-2.9-2-3.5-2c-.5 0-4.4-3.2-8.5-7s-7.8-7-8.1-7c-.4 0-1.2-1.4-1.9-3-.7-1.7-1.7-3-2.2-3s-1.2-.8-1.5-1.8c-.4-.9-1.9-3.3-3.4-5.2-1.6-1.9-4.5-6.7-6.6-10.6s-5-9-6.5-11.5c-1.5-2.4-2.9-5.6-3.1-7-.3-1.4-1.5-4.6-2.6-7-1.7-3.5-2.2-6.3-2.2-13.5-.1-5.1.4-10.1 1-11.2s1.1-2.9 1.1-4c0-2.7 13.2-15.8 18.8-18.6 4.4-2.2 11.7-4.1 18.7-5 1.7-.1 3.3-.4 3.8-.5.4 0 1.5.3 2.5.8z"/><path d="M172.4 217.9c-5.7.7-11.9 5.1-12.9 9.4-.6 2.4 1.6 11.8 3.8 16.1 2.1 3.9 8.3 10.6 10 10.6.9 0 1.9.4 2.2 1 .3.5 1.7 1 3 1s2.7.5 3 1.1c.4.5 1.7.9 2.8.8 1.2-.1 3 .1 4 .6 1.1.5 2.4.2 3.6-.9 1-.9 2.3-1.6 2.9-1.6 1.7 0 4-3.9 3.5-5.9-.2-.9.3-2.3 1.1-3 3.7-3.1.6-9.9-9.4-20.5-3-3.2-11.7-9.9-12.3-9.4-.1.1-2.5.4-5.3.7zM292 328.5c0 .8-.5 1.5-1.1 1.5-1.6 0-7.9 5.3-7.9 6.7 0 .6-.9 1.5-2 1.8-1.5.5-1.9 1.2-1.5 2.5s-.3 2.5-2.5 4c-1.8 1.3-2.9 2.8-2.6 3.6s-1.9 3.5-5.3 6.5c-7 6.2-8.2 9.8-4.3 13.4l2.4 2.3 5.2-2c2.8-1.1 6-2 7-2 3.5.1 9.5-3.8 12.5-8.2 1.7-2.5 3.1-4.7 3.1-5.1 0-.3 1.8-3 3.9-5.9 2.7-3.6 4-6.4 4.1-9.2.5-7 .1-8.4-2-8.4-1.1 0-2-.5-2-1.1 0-.7-1-.9-2.5-.7-1.4.3-2.5.1-2.5-.3 0-.5-.4-.9-1-.9-.5 0-1 .7-1 1.5zm-69.9 6.1c-1.2 1.5-2.1 3-2.1 3.4 0 1.7 3.1 7.7 5.5 10.5 1.4 1.6 2.5 3.4 2.5 3.8 0 .5 1.3 1.9 2.9 3.3 1.7 1.4 3.3 3.4 3.6 4.4.4 1.1 1.5 2 2.5 2s2 .7 2.4 1.5c.3.8 1.7 2 3.1 2.5s2.5 1.4 2.5 1.9c0 1.1 5.9 2 6.6.9.3-.4 1.3-.8 2.3-.8 4 0 5.3-12.9 1.5-14.4-.8-.3-1.4-1.2-1.4-2s-.9-1.7-2-2.1c-1.1-.3-3.7-2.7-5.7-5.3-2.1-2.6-4.1-4.9-4.6-5-.4-.2-1.4-1.1-2.2-1.9-.9-.8-3.3-1.7-5.5-2s-4.5-1.2-5.1-1.9c-1.8-2.2-4.6-1.7-6.8 1.2zm70.5 101.5l-2.6 2.1.6 12.1c1 21.1 1.4 24.4 4.1 29.7 1.4 2.9 3.3 4 3.3 2 0-1.4 3.7-1.2 4.3.2 1 2.7 2.6-.8 3.2-6.7.4-3.3 1.2-7 1.8-8.3.9-1.8.8-2.5-.3-3.2-.8-.5-1.5-3.3-1.7-7.7-.2-3.7-.7-7.5-1-8.3s-.8-3.5-1-5.9c-.3-2.9-1.2-5-2.6-6.2-2.9-2.4-4.9-2.4-8.1.2zm-63.5-.2c-.8.5-1.5 3.4-1.8 7.2-.3 3.5-.9 6.9-1.4 7.6-.7.7-.6 1.4.1 1.8.6.4.9 1.3.6 2-.3.8 0 1.5.6 1.7s1 2.5.8 5.3c-.3 7.7-.5 8.9-1.3 10.2-.4.6-.3 1.4.3 1.8.5.3 1 1.7 1 3.1 0 1.3.4 2.4.8 2.4s1.3 1.3 1.9 2.9c.7 2 2 3.1 4.2 3.6 4 .8 6.1-.8 6.1-4.6 0-1.5.4-3.1 1-3.4 1.6-1 3.2-8.5 2.1-9.9-.6-.7-1.3-5.6-1.7-10.9s-1.1-9.7-1.5-9.7-1.1-2-1.4-4.3c-.4-2.4-1-4.9-1.3-5.4-1-1.5-7.4-2.5-9.1-1.4zm28.3 4.2c-1.3 3.8-1 19.7.5 24.6.5 1.7.8 3.3.6 3.5-.1.2-.5 2.4-.8 5-.4 3.2-.3 4.8.4 4.8.6 0 2.2.9 3.6 2s3.3 2 4.2 2c2.6 0 5.4-5.5 4.6-9-.6-2.7-.4-3 1.8-3 2.9 0 4-.9 2.9-2.4-.5-.6-1.7-4.9-2.6-9.6-1-4.7-2-9.2-2.3-10s-.7-3-.9-4.9c-.4-4.4-1.1-5-6.5-5.7-4.3-.6-4.4-.5-5.5 2.7zm60.6.6c-2 2.9-2.2 4.2-1.7 10.2.3 4.1.1 7.3-.5 7.9-1.1 1.1-.2 5.2 1.3 5.2 1.2 0 1.2 8.7-.1 11.1-.9 1.5-.7 2.1.7 2.6 1 .4 2.4 1.3 3.1 2 1.8 1.7 7.7 1.7 9.2-.2.8-1 1.1-6.4 1.1-18-.1-10.9.2-16.5.9-16.5.6 0-.1-1.8-1.6-3.9-2.3-3.6-3-4-6.4-3.8-3 .1-4.2.7-6 3.4zm-112 .9c-1.4.7-2.8 2.4-3.1 3.6-.3 1.3-.4 9.9-.2 19.3.4 18.3 1.1 20.8 5.6 21.7 3.6.7 5.1-.5 8.5-6.5 2.1-3.7 2.8-6.1 2.5-8.2-.3-1.7-.7-4.8-.9-7-1.1-10.3-3.7-19.8-6.2-22.8-1.7-2-2.8-2-6.2-.1z"/><path d="M219.6 480.6c-1.8 1.7-2.4 3.9-3.1 10.4-.2 2.5-.5 4.7-.6 5-.2.5-.3 1.7-1.2 13.2-.4 5.9-.2 6.9 1.7 8.6 2.8 2.5 8.6 3.7 8.6 1.7 0-.7.9-1.6 1.9-2 1.1-.3 2.6-1.9 3.3-3.5.7-1.7 1.6-3 2-3 1.2 0 1-2.7-.6-10.5L229 487c-.7-3.6-1.7-6.8-2.3-7.2-2-1.3-5.5-.9-7.1.8zm25.9.8c-1.4 1.4-2.3 3.1-2 3.8 1.1 2.9 1.3 15.3.3 16.5-.7.9-.7 1.7-.1 2.5.9 1.1 1.7 4.4 2.7 10.8.1.8.9 3.2 1.6 5.2 1.3 3.4 1.7 3.8 5 3.8 5.5 0 7.1-2.3 5.9-8.3-.5-2.8-.5-5.6 0-6.5.5-1 .8-5.4.6-9.8-.1-6.5-.6-8.8-2.3-11.2-1.2-1.6-2.2-3.5-2.2-4.1 0-1.6-3.8-5.1-5.5-5.1-.9 0-2.7 1.1-4 2.4zm34.1.2c-.9.8-1.9 2.7-2.2 4.2-.4 1.5-1 3.1-1.4 3.7-1.9 2.4-2.1 8.5-.6 14.5.9 3.4 1.6 7.2 1.6 8.4 0 7.4 4.3 10.8 9.9 8 4.9-2.5 6.5-5 6.2-10.2l-.3-7.1c0-1.3-.9-3.9-1.9-5.8-1.5-2.6-1.7-3.8-.9-4.8 1.2-1.4.5-5.4-1.7-9.8-1.6-3.1-6.1-3.7-8.7-1.1zm31.8 1.5c-1.4 2.7-1.4 4-.4 9.2.8 4.2.8 6.3.1 7-1.4 1.4-1.4 7.7-.1 7.7 1.6 0 1.2 3.6-.5 5-1.3 1.1-1.4 1.5-.2 2.9.8.9 2.2 3.2 3.1 5.1 1.1 2.2 3 4.1 5.4 5.2 3.6 1.8 3.7 1.8 6.1-.6 2.1-2.2 2.4-3.2 2.2-10.2-.1-4.3-.7-8.4-1.4-9.2-.6-.8-1.2-2.8-1.3-4.6-.7-10.9-1.8-15.9-4.1-18.2-3.4-3.4-6.9-3.1-8.9.7zM353 208.9c-5.7 3.1-13 11-13 14.2 0 1.6-.9 2.3-3 2.1-.3 0-.6 1.4-.7 3.1-.1 1.8-.5 6.2-.8 9.8-.6 5.5-.4 7.3 1.4 11.2 2.6 5.6 3.1 6 9.5 6.1 5 .1 5.2 0 12.4-7.2 4.9-4.8 8-7.2 9.6-7.2 2.7 0 5.5-2.5 3.5-3.2-1.3-.4-1.6-8.4-.4-13.7.5-2.5.2-4.4-1.5-7.7-4.5-8.6-10.1-11.1-17-7.5z"/><path d="M235.815 592.6c-8.054-3.821-21.706-12.223-23.635-14.548-.529-.638-1.368-1.159-1.863-1.159-.878 0-12.064-8.898-13.563-10.789-.413-.521-1.301-1.153-1.973-1.405-1.97-.738-8.161-12.863-9.02-17.666-.425-2.375-1.084-5.359-1.465-6.631-1.875-6.266-2.312-16.126-2.259-50.936.059-38.448-.48-49.649-2.888-59.964-2.463-10.552-9.054-31.587-10.978-35.037-1.005-1.801-2.181-4.59-2.614-6.197s-1.112-2.922-1.509-2.922-.722-.518-.722-1.152c0-1.492-3.334-8.079-6.221-12.29-1.245-1.815-6.137-7.562-10.872-12.77-9.026-9.928-37.82-43.944-40.858-48.268-.972-1.383-2.739-3.673-3.927-5.089s-2.63-3.613-3.204-4.883-2.45-4.505-4.167-7.191c-5.418-8.469-11.124-19.042-11.961-22.159-.444-1.653-1.282-4.115-1.864-5.471s-1.057-3.28-1.057-4.275-.312-2.001-.693-2.237-.932-1.523-1.224-2.861-1.331-4.892-2.31-7.898c-3.124-9.594-3.865-26.119-1.64-36.6.768-3.619 6.176-14.62 9.003-18.317.754-.985 1.37-2.3 1.37-2.921s1.787-3.196 3.971-5.72 5.814-6.956 8.067-9.848c6.246-8.018 22.574-25.21 29.093-30.632 7.739-6.436 10.006-7.525 15.506-7.447 4.856.069 4.685.156 21.586-11.01 8.696-5.745 12.274-7.061 14.82-5.448.833.527.708 1.083-.66 2.933-1.213 1.641-1.549 2.833-1.195 4.244.545 2.172 4.43 4.913 6.97 4.917 1.843.003 4.749-3.249 4.749-5.314 0-1.366 2.626-3.697 4.164-3.697.454 0 3.891 1.944 7.637 4.319l8.209 5.155c1.296.774 1.165 1.089-1.795 4.302-1.756 1.907-3.192 4.048-3.192 4.757s.908 2.238 2.018 3.397c2.459 2.566 6.102 2.837 8.122.604 2.253-2.489 3.929-1.847 6.77 2.593 1.441 2.252 2.62 4.332 2.62 4.622s-1.352 1.775-3.005 3.301c-3.568 3.294-4.091 6.665-1.335 8.596 2.157 1.511 5.738 1.496 7.426-.031.729-.66 1.694-.973 2.144-.695.698.432 6.038 10.312 6.038 11.172 0 .165-1.014.503-2.253.751-2.729.546-2.779 1.106-.422 4.774 2.91 4.529 4.028 5.479 6.45 5.479 1.789 0 2.437.439 3.049 2.066.428 1.136 1.952 3.275 3.388 4.753 1.645 1.694 2.779 3.724 3.065 5.489.395 2.435.147 3.119-1.89 5.22-1.289 1.33-2.561 3.503-2.826 4.828-.41 2.048-.132 2.736 1.853 4.59 4.305 4.022 7.775 3.741 8.752-.708.266-1.211.936-2.202 1.489-2.202s2.808 1.543 5.011 3.43 4.948 3.621 6.1 3.856 3.8 1.959 5.884 3.832l3.789 3.406 3.579-1.287c3.476-1.25 13.966-2.68 19.857-2.707 2.423-.011 2.837.205 2.499 1.301-1.513 4.908-4.013 12.008-6.157 17.49-1.379 3.526-3.594 11.807-4.921 18.403-2.014 10.008-2.474 14.247-2.778 25.613-.433 16.176.053 18.287 6.011 26.117 4.805 6.314 8.547 9.054 14.431 10.567 10.966 2.819 29.074.401 36.476-4.869 1.152-.821 2.588-1.492 3.19-1.492 2.38 0 14.215-6.237 18.34-9.665 5.756-4.783 7.466-5.681 8.027-4.217.637 1.659 2.087 1.367 5.968-1.204 2.617-1.733 3.72-3.058 4.379-5.258.485-1.618 1.166-2.941 1.513-2.941s.632-.55.632-1.223 1.649-3.461 3.664-6.197c4.427-6.011 6.251-9.555 7.948-15.451 1.343-4.667 4.585-11.566 7.581-16.138.966-1.474 3.104-6.398 4.751-10.943s3.85-10.309 4.895-12.811c2.642-6.325 4.212-16.235 4.212-26.587 0-10.405-1.004-14.398-5.288-21.026-6.5-10.056-13.404-15.655-25.169-20.411-5.453-2.204-6.862-2.445-16.147-2.759-5.614-.19-13.188.046-16.901.526-17.994 2.327-32.925 15.428-44.252 38.828l-4.766 9.845-3.413.859c-4.761 1.199-16.985 1.143-17.339-.08-.149-.516-.654-2.81-1.121-5.097-.728-3.562-1.211-4.353-3.374-5.518-4.02-2.165-5.101-1.492-7.104 4.426-2.089 6.173-2.24 6.394-3.199 4.68-.503-.899-1.66-1.308-3.699-1.308-2.137 0-2.967-.315-2.967-1.127 0-.62-.338-1.127-.751-1.127s-.756-1.099-.761-2.441c-.017-4.077-.786-5.7-3.444-7.268-4.872-2.875-6.736-8.146-4.438-12.552 1.443-2.767 1.46-5.532.034-5.532-.604 0-1.765-.717-2.581-1.593-1.305-1.4-1.778-1.49-3.923-.742-1.893.66-2.588.638-3.104-.098-1.496-2.134-5.068-10.05-5.068-11.232 0-.699-.339-1.479-.752-1.734-1.643-1.015-.677-1.981 1.502-1.502 2.487.546 2.765-.011 1.103-2.209-.607-.802-1.103-2.216-1.103-3.142 0-.998-.585-1.869-1.435-2.139-.789-.251-1.973-1.277-2.631-2.28-.671-1.024-1.652-1.649-2.236-1.425-.614.236-1.755-.621-2.785-2.09-.959-1.369-2.351-2.931-3.092-3.472-1.065-.777-1.248-1.6-.876-3.932.555-3.471-1.142-6.728-3.506-6.728-.875 0-1.86-.788-2.362-1.889-.628-1.379-1.247-1.766-2.291-1.435-1.05.333-2.682-.713-6.133-3.933-2.587-2.413-7.295-5.851-10.463-7.641-4.669-2.638-5.76-3.595-5.76-5.053 0-1.09-.74-2.284-1.878-3.029-2.448-1.604-2.371-2.018.563-3.054 1.343-.474 7.005-2.757 12.582-5.074 5.672-2.356 12.292-4.544 15.023-4.965 2.685-.414 6.235-1.249 7.887-1.856s6.723-1.76 11.267-2.563 12.15-2.371 16.901-3.484c8.256-1.934 9.231-2.002 22.035-1.542 18.006.648 32.183 1.81 37.844 3.103 2.567.586 7.976 1.271 12.019 1.522 7.76.481 14.7 2.134 22.731 5.416 2.675 1.093 6.393 2.229 8.263 2.523 5.095.803 14.105 3.52 17.194 5.185 1.502.81 6.718 3.147 11.592 5.194s9.901 4.596 11.17 5.665 3.366 2.391 4.659 2.938c8.54 3.618 24.886 20.152 40.06 40.521 5.323 7.145 11.492 18.428 11.492 21.017 0 .693.323 1.26.718 1.26.924 0 3.902 9.448 6.156 19.53 1.677 7.502 1.76 9.19 1.702 34.553l-.061 26.666-2.665 12.539c-1.632 7.68-3.531 14.375-4.9 17.277-3.071 6.509-8.552 13.536-13.52 17.333-2.287 1.748-6.564 5.297-9.503 7.887s-7.698 6.308-10.575 8.263c-7.609 5.172-14.174 12.066-21.628 22.709l-13.67 19.441c-5.678 8.045-8.323 12.769-13.249 23.661-3.385 7.485-6.74 15.656-7.456 18.159s-1.872 5.653-2.569 7.002c-1.066 2.062-1.449 2.302-2.403 1.511-1.528-1.268-4.03-6.27-4.03-8.057 0-1.505 1.303-2.883 4.024-4.256 1.392-.702 1.609-1.454 1.6-5.55-.009-4.065-.262-4.942-1.783-6.173l-1.773-1.435.944-9.569c.519-5.263.729-11.091.466-12.95a133.49 133.49 0 0 1-.737-6.59c-.166-2.058-.885-3.876-2.001-5.064-1.517-1.615-1.75-2.653-1.804-8.057-.063-6.191-.067-6.204-2.129-6.441-1.497-.172-2.066-.657-2.066-1.763 0-.839-1.31-3.013-2.911-4.831s-3.098-4.246-3.328-5.393c-.586-2.931-5.67-5.756-9.175-5.098-4.6.863-6.945 5.706-4.473 9.236.63.9 2.188 4.102 3.46 7.115s2.818 6.049 3.434 6.746c1.634 1.849.756 2.592-3.689 3.118-5.155.611-7.664 2.48-7.96 5.932-.184 2.139.165 2.965 1.791 4.245 1.657 1.303 3.053 1.588 7.777 1.588 3.287 0 6.123-.365 6.609-.851 1.698-1.698 3.205-.107 3.205 3.384 0 3.009-.357 3.673-3.697 6.874-2.033 1.949-3.906 4.377-4.162 5.396-.641 2.552 1.7 6.998 4.479 8.508 1.543.839 2.253 1.796 2.253 3.038 0 1.528-.504 1.92-3.204 2.489-3.542.747-8.439 5.344-8.439 7.92 0 1.591 3.642 4.556 5.596 4.556 2.275 0 4.738 3.389 5.648 7.773.484 2.331 2.04 6.183 3.459 8.561 2.562 4.294 8.562 9.957 10.55 9.957 1.507 0 1.32 3.554-.775 14.735-2.359 12.592-3.445 23.814-3.445 35.615v9.527l-3.687 7.056c-2.028 3.881-5.108 11.113-6.843 16.07-3.557 10.161-6.372 16.163-11.094 23.662-.911 1.446-1.657 3.087-1.659 3.647-.004 1.233-1.424 3.093-13.742 17.985-2.152 2.602-5.002 6.151-6.332 7.887l-3.983 5.2c-1.757 2.297-13.604 10.35-15.226 10.35-.577 0-1.65.663-2.383 1.473-1.741 1.924-8.712 5.493-13.923 7.128-2.272.713-5.145 1.745-6.385 2.293-3.548 1.569-10.535 2.65-19.906 3.079l-8.638.396zm90.065-68.537c1.365-1.841 1.558-3.062 1.439-9.106-.08-4.041-.59-8.062-1.212-9.551-.591-1.414-1.309-5.26-1.596-8.547-1.079-12.376-3.789-17.189-9.409-16.716-2.254.189-2.887.67-4.068 3.089-1.269 2.597-1.314 3.411-.486 8.731.67 4.31.693 6.278.084 7.415-1.082 2.023-1.06 6.554.041 8.318.861 1.378.654 2.409-.92 4.596-.626.87-.161 2.217 2.035 5.905 4.824 8.097 10.64 10.519 14.091 5.866zm-68.126-.884c1.476-1.034 1.628-1.865 1.75-9.577.306-19.413.112-21.583-2.364-26.473-2.39-4.721-5.93-8.638-7.804-8.638-.607 0-2.157.942-3.446 2.093l-2.343 2.093-.038 11.313c-.021 6.222.168 11.646.419 12.052s1.145 3.892 1.986 7.747c2.002 9.171 2.904 10.522 7.027 10.522 1.758 0 3.923-.51 4.812-1.132zm29.199-2.546c5.274-2.395 6.328-4.466 6.309-12.386-.013-5.229-.374-7.634-1.528-10.178-1.118-2.464-1.388-4.153-1.038-6.488.355-2.364.071-4.068-1.131-6.784-1.888-4.267-2.54-4.779-6.11-4.794-3.303-.014-5.037 1.781-7.248 7.5-2.567 6.642-2.655 8.359-.934 18.166 2.037 11.601 2.942 14.255 5.262 15.429 2.399 1.214 2.776 1.187 6.416-.466zm-61.504-1.095c.33-.559 1.295-1.381 2.145-1.826s2.194-2.015 2.988-3.49 1.705-2.681 2.024-2.681c1.119 0 .558-5.037-2.006-18.028-2.649-13.423-3.353-15.023-6.609-15.023-2.66 0-5.69 2.185-6.49 4.682-1.231 3.842-3.194 23.022-2.944 28.766.215 4.957.338 5.26 2.778 6.901 2.826 1.901 7.183 2.276 8.114.699zm-11.639-34.851c1.066-1.136 2.869-3.925 4.007-6.197l2.07-4.131-.899-7.887c-1.199-10.513-3.563-20.414-5.599-23.446-2.363-3.519-5.7-3.753-8.833-.62l-2.322 2.322.336 17.82c.355 18.845.92 22.279 3.857 23.465 3.02 1.22 5.396.793 7.384-1.326zm26.469-.355c.643-.918 1.169-2.333 1.169-3.143s.716-2.953 1.592-4.761c1.227-2.534 1.503-4.181 1.206-7.185-1.305-13.207-2.264-20.079-3.216-23.052a116.36 116.36 0 0 1-1.844-6.503c-.616-2.522-1.215-3.28-3.118-3.944-3.253-1.134-6.283-1.027-7.351.26-.493.594-1.314 3.9-1.823 7.346s-1.173 6.664-1.474 7.152-.24 1.491.137 2.231c2.028 3.986 2.391 6.943 1.652 13.452-.735 6.472-.334 9.823 1.564 13.057.364.62.977 1.853 1.363 2.741 1.741 4.004 7.974 5.448 10.144 2.35zm64.185-2.274c.348-.93 1.026-4.056 1.507-6.948s1.256-6.219 1.723-7.394c.678-1.708.617-2.536-.308-4.131-.636-1.097-1.391-4.361-1.677-7.253-.766-7.733-2.521-17.481-3.463-19.241-2.029-3.792-7.744-3.99-11.129-.386-1.567 1.668-1.582 1.935-.825 15.545.423 7.616 1.105 16.145 1.515 18.952.935 6.407 3.361 11.797 5.31 11.797.781 0 1.42-.338 1.42-.751 0-1.194 3.006-.87 3.484.376.627 1.633 1.716 1.382 2.443-.563zm-35.215-2.253c.923-1.514 1.49-3.779 1.491-5.962.003-3.422.071-3.527 2.444-3.756 2.866-.276 2.877-.442.62-9.249-.847-3.305-2.239-9.39-3.092-13.521s-2.019-7.984-2.589-8.562c-1.107-1.121-7.625-2.386-9.194-1.784-2.015.773-2.643 5.817-2.096 16.816.296 5.944.489 13.934.43 17.755-.072 4.612.169 6.948.717 6.948.454 0 2.069.845 3.589 1.878 3.8 2.582 5.855 2.432 7.681-.563zm60.16.278c1.709-1.384 1.753-1.765 2.222-19.342l.478-17.93-2.028-2.629c-1.741-2.256-2.535-2.662-5.599-2.861-3.864-.251-5.738.836-7.52 4.362-1.464 2.896-2.027 20.801-.696 22.132 1.258 1.258 1.426 8.812.245 11.018-1.025 1.915-.139 3.035 4.041 5.104 3.905 1.933 6.595 1.978 8.856.147zm-56.442-110.861c3.115-1.019 7.121-2.222 8.903-2.673 4.632-1.174 8.584-5.117 14.953-14.916 4.204-6.468 5.744-9.561 6.325-12.704.98-5.301.326-9.168-1.549-9.168-.757 0-1.815-.529-2.351-1.175-.608-.732-1.616-1.014-2.675-.748-.935.235-1.91.087-2.166-.327-.682-1.103-2.631-.921-2.631.246 0 .55-1.696 2.099-3.769 3.442s-4.256 3.385-4.852 4.538-1.774 2.276-2.616 2.497c-1.014.265-1.532 1.02-1.532 2.234 0 1.078-1.082 2.947-2.629 4.54-1.446 1.489-2.629 3.157-2.629 3.707s-2.054 3.017-4.564 5.483c-7.182 7.055-8.272 10.391-4.759 14.567 1.07 1.271 2.155 2.311 2.411 2.311s3.015-.833 6.13-1.852zm-19.299-.753c4.585-1.916 5.986-10.305 2.427-14.535-1.033-1.227-1.878-2.594-1.878-3.036s-.761-1.205-1.69-1.695-4.394-3.695-7.699-7.123c-5-5.185-6.514-6.316-9.014-6.731-1.653-.274-4.123-1.137-5.489-1.918-3.875-2.214-6.49-1.864-8.811 1.18-2.6 3.409-2.14 5.425 3.013 13.214 4.447 6.721 10.737 13.641 14.984 16.487 1.541 1.033 3.671 2.638 4.733 3.568 2.253 1.973 5.608 2.182 9.424.588zm-41.766-52.255c1.225-.427 3.443-2.23 4.928-4.007 2.339-2.798 3.389-3.399 7.837-4.486 2.825-.69 7.247-2.287 9.826-3.549 5.632-2.755 7.973-6.177 9.544-13.954 1.487-7.361 2.09-21.921 1.273-30.745-.772-8.331-1.175-9.835-8.038-29.994-3.451-10.134-8.018-17.43-18.577-29.671-11.481-13.31-27.398-24.916-40.886-29.812-2.782-1.01-5.496-2.199-6.031-2.643s-4.092-.963-7.905-1.154c-7.283-.365-7.828-.232-25.755 6.293-4.113 1.497-14.626 10.207-18.466 15.298-4.005 5.312-7.308 12.335-8.072 17.164-.331 2.094-1.036 4.332-1.567 4.971-1.081 1.303-.956 2.297 1.755 13.92 2.681 11.495 6.893 23.551 10.648 30.479 8.909 16.437 26.855 40.131 30.396 40.131.412 0 .749.518.749 1.15s.592 1.368 1.315 1.634 2.869 1.861 4.769 3.544c4.099 3.632 12.391 8.352 16.717 9.517 1.699.457 4.751 1.674 6.784 2.704s5.756 2.321 8.275 2.869c5.561 1.21 17.42 1.406 20.481.339zm-19.279-13.171c-3.512-1.035-8.109-2.714-10.216-3.732s-4.263-1.85-4.791-1.85c-3.52 0-20.908-13.66-26.081-20.49-10.203-13.469-20.997-32.263-25.083-43.673-2.693-7.52-2.937-8.843-2.937-15.926 0-13.512 1.757-17.377 12.26-26.972 7.577-6.922 15.137-10.069 27.224-11.332 4.372-.457 4.751-.346 13.119 3.835 10.744 5.369 26.801 15.782 27.44 17.795.263.83 3.494 4.772 7.18 8.759 6.971 7.542 10.226 12.638 8.913 13.951-.483.483-1.049.427-1.639-.164-1.403-1.403-3.606-1.097-3.606.5 0 .771-.676 2.26-1.502 3.311s-1.502 2.11-1.502 2.355c0 1.058 5.078.306 7.136-1.057 3.436-2.275 4.764-1.925 6.405 1.69.797 1.756 1.459 3.868 1.47 4.695s.522 2.463 1.135 3.638c3.109 5.962 6.396 23.598 6.374 34.206-.019 9.249-1.184 17.289-2.756 19.026-1.581 1.747-9.19 4.092-17.791 5.483-7.382 1.194-7.489 1.251-9.339 4.956-1.63 3.266-3.238 3.406-11.414.996zm0-45.394c1.033-.808 2.281-1.476 2.774-1.486 1.355-.025 3.235-3.105 3.235-5.298 0-1.069.496-2.599 1.103-3.401 1.796-2.374 1.354-6.333-1.21-10.848-2.703-4.758-13.966-16.202-18.083-18.373-2.522-1.33-3.278-1.388-7.84-.607-5.77.988-10.271 3.718-12.543 7.608-1.425 2.44-1.429 2.661-.149 8.616 1.496 6.963 3.227 10.732 7.005 15.251 2.74 3.278 8.712 7.035 11.183 7.035.782 0 2.111.483 2.954 1.073 1.332.933 2.696 1.218 8.567 1.788.62.06 1.972-.551 3.005-1.359zm117.182 51.156c-8.204-2.908-12.44-11.575-12.338-25.241.061-8.194 3.367-23.935 6.705-31.924.949-2.272 3.332-9.033 5.296-15.023 8.72-26.606 11.661-33.235 20.701-46.659 2.662-3.953 12.321-12.725 16.466-14.953 4.677-2.515 18.389-3.948 29.04-3.035 9.392.805 13.337 2.69 20.542 9.812 5.48 5.418 7.607 9.806 9.082 18.739.688 4.169.629 5.758-.343 9.117-.647 2.237-1.702 6.626-2.345 9.752-2.012 9.789-8.359 24.301-17.719 40.513-2.504 4.338-6.181 11.267-8.169 15.399-2.92 6.067-4.105 7.768-6.16 8.843-3.62 1.895-7.494 4.816-8.732 6.584-1.348 1.924-11.357 8.986-12.737 8.986-.571 0-3.983 1.515-7.582 3.366-7.007 3.604-15.557 6.128-22.983 6.784-3.446.304-5.625.04-8.725-1.058zm47.855-58.87c7.067-6.592 10.109-8.812 12.074-8.812 2.435 0 3.581-1.956 2.418-4.129-.703-1.314-.856-3.843-.546-9.04.262-4.388.112-8.152-.383-9.605-1.262-3.71-4.926-8.655-7.333-9.9-2.897-1.498-7.779-1.429-11.125.159-4.124 1.957-12.075 10.103-12.646 12.956-.307 1.536-1.094 2.633-2.184 3.048-1.493.568-1.775 1.375-2.275 6.514-1.105 11.359-.829 15.269 1.376 19.505 1.109 2.13 2.45 4.047 2.979 4.26s3.398.413 6.376.446l5.414.059 5.853-5.46z" fill="#fff"/></svg>