<?xml version="1.0" encoding="UTF-8" standalone="no"?>
<svg
   xmlns:dc="http://purl.org/dc/elements/1.1/"
   xmlns:cc="http://creativecommons.org/ns#"
   xmlns:rdf="http://www.w3.org/1999/02/22-rdf-syntax-ns#"
   xmlns:svg="http://www.w3.org/2000/svg"
   xmlns="http://www.w3.org/2000/svg"
   xmlns:sodipodi="http://sodipodi.sourceforge.net/DTD/sodipodi-0.dtd"
   xmlns:inkscape="http://www.inkscape.org/namespaces/inkscape"
   version="1.0"
   width="538.000000pt"
   height="705.000000pt"
   viewBox="0 0 538.000000 705.000000"
   preserveAspectRatio="xMidYMid meet"
   id="svg18"
   sodipodi:docname="face20.svg"
   inkscape:version="1.0.1 (3bc2e813f5, 2020-09-07)">
  <metadata
     id="metadata24">
    <rdf:RDF>
      <cc:Work
         rdf:about="">
        <dc:format>image/svg+xml</dc:format>
        <dc:type
           rdf:resource="http://purl.org/dc/dcmitype/StillImage" />
      </cc:Work>
    </rdf:RDF>
  </metadata>
  <defs
     id="defs22" />
  <sodipodi:namedview
     pagecolor="#ffffff"
     bordercolor="#666666"
     borderopacity="1"
     objecttolerance="10"
     gridtolerance="10"
     guidetolerance="10"
     inkscape:pageopacity="0"
     inkscape:pageshadow="2"
     inkscape:window-width="1920"
     inkscape:window-height="1027"
     id="namedview20"
     showgrid="false"
     inkscape:zoom="0.91489362"
     inkscape:cx="358.66667"
     inkscape:cy="470"
     inkscape:window-x="1912"
     inkscape:window-y="-8"
     inkscape:window-maximized="1"
     inkscape:current-layer="svg18" />
  <g
     transform="translate(0.000000,705.000000) scale(0.100000,-0.100000)"
     fill="#000000"
     stroke="none"
     id="g16">
    <path
       d="M2300 6398 c-66 -10 -129 -23 -180 -37 -25 -7 -63 -18 -85 -24 -22 -6 -49 -15 -60 -21 -11 -6 -22 -11 -25 -11 -14 -2 -79 -41 -111 -66 -20 -16 -40 -29 -43 -29 -4 0 -48 -31 -99 -69 -103 -77 -282 -249 -292 -281 -3 -11 -10 -20 -14 -20 -12 0 -127 -152 -135 -178 -4 -12 -11 -22 -16 -22 -5 0 -27 -38 -50 -85 -23 -47 -45 -85 -49 -85 -4 0 -7 -9 -8 -20 -1 -11 -11 -33 -22 -49 -12 -16 -21 -36 -21 -45 0 -9 -7 -28 -16 -41 -9 -14 -14 -31 -11 -40 4 -8 2 -17 -3 -20 -6 -4 -10 -19 -10 -35 0 -16 -5 -41 -10 -56 -17 -44 -22 -109 -21 -264 1 -173 6 -241 21 -250 5 -3 10 -17 10 -31 0 -34 10 -111 17 -129 3 -8 7 -25 9 -36 1 -12 9 -35 17 -50 14 -29 43 -133 39 -146 -1 -3 5 -12 13 -18 8 -7 15 -17 15 -22 0 -15 62 -142 72 -149 11 -7 59 -139 51 -139 -3 0 -1 -6 5 -12 5 -7 12 -27 15 -45 3 -17 8 -37 12 -43 8 -13 10 -40 20 -211 5 -87 4 -132 -4 -147 -6 -11 -7 -23 -3 -26 9 -5 8 -71 -1 -96 -24 -65 -67 -204 -67 -216 0 -8 -4 -14 -9 -14 -8 0 -21 -34 -26 -65 -7 -51 -67 -202 -109 -275 -8 -14 -20 -45 -27 -70 -7 -25 -25 -70 -40 -100 -15 -30 -32 -89 -39 -130 -6 -41 -18 -89 -25 -105 -60 -134 -94 -219 -101 -255 -3 -14 -7 -32 -10 -41 -2 -9 -1 -26 4 -38 7 -21 -6 -123 -19 -135 -2 -3 -1 -44 4 -92 9 -76 8 -89 -7 -99 -14 -11 -15 -14 -1 -25 10 -8 15 -31 15 -70 0 -31 5 -82 11 -111 6 -30 12 -69 14 -87 7 -68 17 -112 26 -112 5 0 9 -7 9 -16 0 -9 13 -43 29 -77 16 -34 35 -77 42 -95 7 -19 19 -41 27 -49 9 -8 17 -26 18 -40 4 -35 76 -168 105 -193 3 -3 14 -20 24 -37 11 -18 25 -33 32 -33 7 0 13 -4 13 -10 0 -5 6 -10 14 -10 8 0 23 -11 34 -25 11 -14 24 -25 29 -23 7 2 73 -27 135 -59 15 -8 30 -14 33 -13 18 2 55 -14 55 -24 0 -6 5 -4 10 4 7 11 10 11 10 2 0 -7 5 -10 10 -7 6 4 17 1 25 -5 8 -6 18 -9 23 -6 5 3 38 -6 73 -19 34 -14 73 -25 85 -25 13 0 26 -4 29 -10 3 -5 19 -10 36 -10 16 0 29 -5 29 -10 0 -6 6 -10 13 -9 6 2 30 -2 52 -9 22 -6 137 -14 255 -18 118 -4 235 -8 260 -9 39 -1 130 5 290 20 183 16 427 48 434 55 6 6 19 10 31 10 12 0 25 4 31 9 5 4 32 14 59 21 28 7 60 19 73 27 13 8 31 13 40 12 9 -1 24 1 32 4 28 12 135 39 153 39 9 -1 17 3 17 9 0 5 9 9 19 9 11 0 23 5 26 10 3 6 16 10 29 10 12 0 27 5 32 10 6 6 25 12 42 15 18 2 47 13 66 24 18 12 38 21 45 21 20 0 155 69 206 106 73 53 187 171 220 229 15 28 46 80 68 118 32 55 37 70 27 82 -18 21 -6 67 29 115 62 86 65 223 11 503 -11 56 -20 119 -20 140 0 20 -4 37 -8 37 -4 0 -8 8 -9 18 -7 78 -11 100 -21 118 -12 23 -14 36 -32 179 -6 50 -16 119 -21 155 -6 36 -12 90 -13 120 -1 30 -8 87 -15 125 -7 39 -15 90 -17 115 -3 25 -9 61 -15 80 -5 19 -13 62 -15 95 -3 33 -10 65 -14 70 -12 15 -29 85 -31 130 -1 22 -8 47 -15 55 -7 8 -12 29 -12 46 1 17 -3 37 -8 45 -5 8 -9 16 -10 19 0 3 -4 32 -8 65 -4 33 -12 74 -16 90 -14 46 -32 146 -35 185 -2 20 -9 56 -16 80 -14 50 -14 49 -24 175 -4 50 -14 128 -23 175 -8 47 -16 94 -17 105 -4 45 -29 155 -36 155 -4 0 -8 8 -8 18 0 31 -27 143 -54 222 -9 25 -19 62 -22 83 -4 20 -11 37 -15 37 -5 0 -11 18 -15 40 -4 22 -10 40 -15 40 -4 0 -10 12 -13 28 -3 15 -10 38 -15 52 -5 14 -10 27 -9 30 0 3 -10 23 -22 45 -11 22 -21 48 -21 57 0 10 -4 18 -10 18 -5 0 -10 14 -10 30 0 17 -4 30 -10 30 -5 0 -10 7 -10 15 0 8 -4 23 -9 33 -5 9 -13 28 -19 42 -50 118 -68 158 -84 179 -10 13 -15 27 -12 32 3 5 1 9 -4 9 -5 0 -22 28 -37 63 -15 34 -31 64 -34 67 -15 12 -61 87 -61 99 0 7 -16 33 -36 57 -20 25 -34 47 -32 50 3 3 -7 18 -23 34 -16 16 -29 35 -29 43 0 17 -161 179 -181 183 -26 4 -181 100 -187 115 -2 4 -10 5 -18 2 -7 -3 -17 2 -20 11 -3 8 -25 24 -47 35 -146 66 -132 62 -227 68 -41 3 -81 10 -88 16 -15 12 -194 16 -262 5z m370 -125 c35 -9 72 -25 82 -35 10 -10 31 -18 46 -18 15 0 52 -13 82 -29 30 -17 66 -36 80 -43 14 -7 27 -15 30 -19 3 -3 13 -8 23 -12 14 -5 16 -11 8 -26 -7 -12 -7 -30 -1 -51 10 -36 6 -50 -14 -50 -18 0 -42 -32 -42 -54 1 -15 12 -23 41 -30 35 -10 40 -15 43 -43 2 -23 -5 -43 -24 -68 -25 -33 -54 -47 -54 -25 0 6 -8 10 -17 10 -21 0 -93 -61 -93 -78 0 -7 -8 -12 -17 -12 -10 0 -40 -11 -67 -25 -27 -13 -53 -22 -58 -19 -5 3 -20 -1 -33 -10 -13 -9 -33 -16 -44 -16 -11 0 -32 -10 -48 -23 -15 -12 -60 -44 -99 -70 -68 -45 -74 -47 -112 -38 -35 7 -44 6 -58 -10 -14 -15 -15 -24 -6 -43 9 -20 7 -26 -16 -43 -55 -41 -70 -45 -95 -28 -26 17 -32 13 -56 -32 -14 -27 -4 -73 16 -73 8 0 11 -5 7 -12 -12 -20 -22 -88 -13 -94 4 -2 6 -11 2 -20 -3 -8 6 -26 21 -41 17 -16 25 -34 23 -45 -4 -15 2 -21 16 -17 1 0 14 -4 28 -10 38 -14 59 5 62 54 3 38 5 40 37 41 43 1 67 11 74 31 8 20 -2 53 -15 53 -6 0 -21 11 -35 25 -14 14 -29 25 -34 25 -20 0 -9 37 15 50 14 7 25 17 25 22 0 4 14 8 30 8 21 0 39 -9 58 -31 36 -41 96 -46 119 -12 14 21 13 24 -16 40 -20 12 -31 26 -31 41 0 12 -4 22 -10 22 -50 0 89 100 158 113 32 6 37 2 33 -31 -1 -8 7 -11 25 -8 15 3 33 1 38 -3 27 -22 114 -5 117 23 1 6 2 18 3 26 2 19 -14 41 -25 35 -4 -3 -13 4 -19 15 -9 17 -8 21 2 19 7 -1 26 3 41 9 39 16 68 15 61 -2 -4 -10 4 -13 34 -12 29 1 38 5 34 15 -3 7 1 17 8 21 7 4 13 22 14 40 1 24 12 43 43 74 23 23 45 55 48 71 4 17 15 46 25 66 19 35 21 93 5 119 -5 8 -3 11 6 8 8 -3 15 -14 17 -26 2 -14 11 -22 23 -22 11 0 17 -4 14 -10 -3 -5 5 -15 19 -22 14 -6 26 -17 26 -23 0 -7 7 -19 16 -26 9 -7 20 -22 25 -34 16 -35 51 -90 62 -97 6 -4 8 -10 5 -14 -4 -4 1 -19 11 -33 10 -14 31 -51 48 -81 16 -30 36 -66 44 -79 11 -18 11 -25 2 -28 -16 -6 -17 -23 -2 -23 17 0 38 -32 39 -58 0 -12 7 -25 15 -28 8 -4 15 -12 15 -19 0 -7 7 -18 15 -25 8 -7 15 -19 15 -27 0 -8 7 -31 16 -51 9 -21 23 -53 32 -72 8 -19 19 -43 23 -52 5 -10 9 -24 9 -33 0 -8 6 -29 14 -47 8 -18 21 -49 30 -70 9 -20 16 -40 16 -45 0 -6 7 -24 15 -41 9 -17 22 -56 31 -88 8 -32 18 -63 23 -68 4 -6 16 -42 26 -81 10 -38 22 -75 26 -80 4 -6 9 -32 11 -58 2 -26 6 -47 11 -47 4 0 7 -11 7 -24 0 -14 4 -27 9 -30 5 -3 12 -34 16 -68 5 -35 10 -74 12 -88 2 -14 6 -51 8 -82 2 -32 9 -94 15 -139 6 -45 9 -87 6 -94 -3 -8 -1 -15 4 -17 5 -2 11 -21 13 -44 2 -23 7 -46 10 -51 4 -6 9 -51 13 -99 3 -49 8 -96 11 -104 7 -17 10 -32 19 -80 4 -19 10 -40 15 -45 4 -6 8 -20 9 -30 1 -45 5 -65 12 -65 4 0 8 -11 8 -25 0 -26 14 -90 35 -167 8 -26 12 -58 9 -72 -2 -14 0 -26 5 -26 4 0 12 -28 15 -62 4 -34 12 -70 17 -80 5 -9 12 -55 15 -100 2 -46 9 -103 14 -128 15 -70 39 -299 44 -415 1 -16 4 -34 7 -40 8 -13 23 -124 20 -147 -1 -9 3 -19 9 -23 5 -3 10 -24 10 -45 0 -21 5 -42 10 -45 6 -4 9 -22 7 -41 -3 -19 -1 -34 3 -34 5 0 10 -21 13 -47 3 -27 13 -93 22 -148 23 -139 14 -246 -26 -310 -16 -25 -29 -50 -29 -55 0 -13 -38 -79 -56 -97 -18 -18 -18 -33 0 -33 7 0 16 -14 20 -31 5 -25 -2 -41 -33 -88 -71 -104 -163 -179 -313 -254 -73 -37 -139 -67 -146 -67 -6 0 -26 -8 -44 -18 -33 -19 -101 -41 -193 -62 -44 -11 -107 -30 -155 -48 -8 -3 -17 -6 -20 -6 -3 -1 -10 -5 -17 -9 -6 -4 -24 -9 -40 -11 -15 -2 -63 -14 -106 -25 -43 -12 -82 -19 -87 -16 -5 3 -19 1 -32 -4 -19 -8 -144 -23 -298 -37 -19 -2 -74 -8 -122 -14 -83 -10 -257 -13 -343 -6 -22 2 -105 5 -185 6 -80 1 -151 6 -157 12 -7 6 -20 8 -29 4 -8 -3 -30 2 -47 11 -18 9 -38 16 -45 14 -8 -1 -19 2 -25 8 -7 5 -24 11 -37 13 -14 2 -42 12 -62 22 -21 10 -44 16 -53 13 -14 -6 -102 20 -141 41 -10 6 -34 17 -51 24 -18 7 -33 17 -33 22 0 4 -6 6 -14 3 -8 -3 -20 1 -26 9 -7 8 -17 14 -23 14 -5 0 -28 18 -49 40 -22 22 -43 40 -46 40 -4 0 -16 16 -26 35 -11 19 -22 35 -26 35 -4 0 -13 18 -20 40 -7 22 -19 40 -27 40 -7 0 -13 5 -13 12 0 6 -7 19 -15 28 -9 10 -16 33 -17 53 -1 20 -8 45 -17 54 -9 10 -22 36 -29 58 -6 22 -21 69 -32 105 -53 171 -66 346 -43 580 18 180 22 198 43 246 11 24 20 50 20 58 0 8 4 17 9 20 5 3 12 22 15 41 4 21 14 38 24 41 31 10 67 28 83 41 25 20 150 83 165 83 8 0 14 -7 14 -15 0 -20 71 -17 99 5 20 14 21 20 13 58 -8 36 -7 42 8 47 9 3 25 14 35 25 10 11 29 20 42 20 52 0 118 75 92 106 -9 11 -9 17 1 28 10 13 7 15 -17 13 -20 -1 -27 2 -24 13 15 65 45 157 53 167 6 7 17 12 26 11 48 -4 52 0 52 55 0 48 -2 53 -30 66 -28 12 -30 16 -24 49 4 21 10 41 15 46 5 6 9 21 9 34 0 13 7 39 16 58 15 32 18 33 34 19 24 -22 56 -19 74 7 22 31 20 48 -5 48 -15 0 -19 5 -14 19 4 13 -2 25 -19 39 -26 20 -26 35 0 25 11 -4 14 4 14 33 0 34 -6 43 -40 67 -39 28 -40 28 -65 10 -14 -10 -27 -29 -30 -43 -11 -48 -30 -75 -55 -76 -51 -2 -59 -4 -73 -19 -23 -22 -9 -51 33 -70 36 -16 38 -19 34 -54 -3 -20 -11 -58 -17 -86 -6 -27 -12 -55 -12 -62 0 -18 -37 -42 -65 -43 -32 -1 -70 -32 -70 -58 0 -29 23 -43 64 -39 20 2 39 1 41 -3 3 -4 -2 -30 -10 -56 -8 -27 -15 -58 -15 -70 0 -11 -9 -29 -19 -38 -17 -15 -26 -16 -81 -6 -57 10 -65 10 -82 -7 -17 -18 -17 -22 -4 -55 9 -20 27 -50 41 -67 l27 -31 -27 -10 c-40 -15 -64 -12 -77 10 -15 24 -79 28 -98 5 -17 -20 -9 -48 18 -61 l24 -12 -23 -21 c-13 -12 -30 -19 -40 -16 -9 3 -22 -1 -29 -10 -7 -8 -16 -12 -21 -9 -17 10 -9 47 24 113 119 236 141 286 167 381 10 36 32 101 49 145 17 44 31 85 31 91 0 6 8 26 18 45 15 31 19 85 12 194 -2 36 7 150 14 173 6 16 3 22 -8 22 -19 0 -20 5 -6 30 6 11 6 21 1 24 -5 3 -7 15 -4 26 3 11 1 32 -5 48 -5 15 -15 54 -22 87 -7 33 -15 67 -18 75 -3 8 -5 18 -4 22 1 3 -5 12 -13 18 -8 7 -15 20 -15 29 0 9 -7 25 -15 35 -8 10 -12 23 -9 27 3 5 -2 21 -10 36 -20 37 -66 140 -66 148 0 3 -8 17 -17 32 -9 14 -18 33 -20 42 -11 64 -18 89 -29 107 -8 11 -12 23 -9 26 7 7 -15 110 -26 123 -15 20 -29 180 -26 318 1 75 -2 138 -7 140 -5 2 -1 27 8 55 10 29 15 60 12 68 -3 9 7 46 24 84 16 38 30 72 30 77 0 5 13 33 30 63 16 30 39 75 51 100 44 96 49 106 61 125 7 11 31 43 54 70 22 28 53 71 67 96 15 25 46 61 69 79 24 19 44 38 46 42 5 10 170 148 212 177 19 13 37 27 40 31 3 4 37 26 75 50 106 63 279 114 420 123 104 6 285 -5 345 -20z"
       id="path2" />
    <path
       d="M1620 4996 c-19 -7 -46 -18 -60 -23 -27 -11 -130 -124 -130 -142 0 -6 -5 -21 -12 -34 -24 -46 -27 -55 -21 -61 3 -3 5 -38 5 -78 -2 -75 33 -237 56 -260 7 -7 12 -19 12 -27 0 -9 7 -25 16 -36 8 -11 19 -37 25 -57 5 -21 13 -37 17 -34 4 3 17 -9 27 -25 11 -16 26 -29 33 -29 7 0 10 -4 7 -10 -3 -5 -1 -10 6 -10 6 0 17 -7 23 -15 25 -33 222 -37 260 -6 9 7 26 11 39 7 17 -4 33 3 60 25 20 17 37 35 37 40 0 5 32 49 71 98 40 49 78 106 85 127 19 53 11 115 -24 204 -17 41 -33 87 -36 102 -4 18 -15 30 -31 34 -14 3 -25 11 -25 16 0 12 -120 128 -133 128 -5 0 -31 11 -58 25 -27 13 -49 22 -49 19 0 -2 -9 0 -19 5 -10 6 -36 13 -57 16 -22 4 -50 8 -64 10 -14 2 -41 -2 -60 -9z m170 -111 c16 -8 36 -15 45 -15 8 0 15 -4 15 -9 0 -5 11 -12 26 -15 44 -11 194 -181 194 -221 0 -7 6 -15 13 -18 9 -3 9 -7 -1 -19 -9 -11 -10 -18 -2 -23 16 -10 3 -75 -21 -109 -50 -69 -105 -126 -120 -126 -9 0 -34 -16 -55 -36 -56 -53 -86 -63 -147 -52 -29 5 -53 14 -55 19 -2 5 -9 9 -15 9 -7 0 -22 15 -35 33 -12 17 -34 47 -47 66 -14 19 -23 36 -21 39 3 2 -6 29 -19 58 -13 30 -22 61 -19 69 4 8 1 15 -5 15 -16 0 -14 109 5 191 8 38 19 69 24 69 5 0 17 14 27 31 36 63 137 83 213 44z"
       id="path4" />
    <path
       d="M1675 4595 c-27 -31 -51 -60 -53 -65 -2 -4 10 -21 25 -38 38 -41 142 -65 171 -39 10 9 30 17 44 17 17 0 32 9 43 26 15 23 15 28 2 42 -21 25 -49 82 -40 83 11 2 -63 19 -107 25 -32 5 -39 1 -85 -51z"
       id="path6" />
    <path
       d="M3038 4973 c-14 -2 -32 -11 -38 -19 -7 -8 -18 -14 -25 -14 -17 0 -102 -93 -117 -127 -7 -15 -22 -41 -33 -58 -12 -16 -34 -63 -49 -102 -23 -62 -27 -85 -25 -155 2 -46 6 -87 9 -93 4 -5 13 -25 20 -44 15 -38 129 -156 160 -166 11 -4 20 -10 20 -15 0 -4 12 -11 28 -15 15 -3 34 -12 42 -19 44 -36 207 -44 279 -13 31 14 121 78 121 86 0 4 10 17 23 31 37 40 45 61 40 101 -4 25 1 51 12 76 25 53 30 246 8 303 -9 22 -20 40 -25 40 -4 0 -8 7 -8 15 0 15 -25 60 -45 80 -5 6 -25 17 -42 24 -18 7 -33 17 -33 21 0 14 -136 57 -147 47 -3 -4 -12 -2 -19 4 -14 12 -112 19 -156 12z m185 -115 c10 -5 27 -6 39 -2 15 4 18 3 13 -6 -5 -9 -4 -11 4 -6 6 4 23 1 36 -8 13 -9 31 -16 39 -16 13 0 52 -67 48 -82 -1 -5 3 -8 8 -8 6 0 10 -9 10 -19 0 -11 4 -22 8 -25 5 -3 9 -47 10 -98 1 -79 -2 -100 -21 -138 -23 -43 -26 -45 -91 -58 -37 -7 -76 -22 -85 -31 -18 -18 -17 -19 10 -46 22 -20 36 -25 54 -21 32 8 40 -9 16 -33 -26 -26 -95 -44 -146 -38 -53 6 -165 39 -165 49 0 4 -4 8 -10 8 -12 0 -80 68 -80 80 0 6 -7 10 -15 10 -8 0 -15 6 -15 13 0 7 -9 30 -20 51 -19 38 -20 60 -5 151 7 43 49 140 71 165 7 8 28 33 46 54 47 56 99 78 168 70 30 -4 63 -11 73 -16z"
       id="path8" />
    <path
       d="M3122 4637 c-47 -27 -65 -112 -32 -152 25 -30 128 -6 150 36 16 29 14 88 -3 117 -10 16 -85 15 -115 -1z"
       id="path10" />
    <path
       d="M2443 4412 c-18 -2 -37 -11 -42 -20 -15 -29 4 -98 35 -130 17 -17 37 -55 48 -90 10 -34 24 -67 32 -73 8 -6 14 -22 14 -35 0 -12 4 -25 9 -29 14 -8 45 -128 79 -309 13 -68 14 -287 1 -302 -6 -7 -9 -18 -8 -26 2 -7 -1 -33 -6 -58 -5 -25 -9 -48 -9 -51 -2 -21 -70 -88 -113 -112 -56 -30 -103 -35 -223 -24 -82 8 -114 2 -106 -19 3 -7 1 -16 -4 -19 -16 -10 10 -50 45 -69 27 -15 51 -17 136 -14 91 3 111 7 159 32 108 56 193 145 207 218 3 18 11 36 17 40 5 4 11 31 13 60 2 29 4 70 5 90 1 20 6 34 11 31 5 -3 7 3 4 13 -11 37 -20 110 -19 146 1 20 -3 40 -8 43 -6 4 -8 15 -5 26 4 10 2 19 -3 19 -5 0 -9 16 -10 35 -1 19 -6 44 -12 55 -6 11 -8 20 -4 20 3 0 1 7 -6 15 -7 8 -10 21 -7 29 5 13 -21 115 -33 126 -13 13 -40 83 -40 105 0 13 -5 27 -10 30 -6 4 -8 14 -5 24 3 9 -2 26 -10 37 -8 10 -15 26 -15 36 0 22 -41 98 -53 98 -5 0 -7 6 -4 14 8 21 -24 42 -60 38z"
       id="path12" />
    <path
       d="M2955 2506 c-16 -6 -50 -21 -75 -33 -75 -34 -148 -63 -162 -63 -12 0 -106 -34 -139 -50 -9 -5 -33 -12 -53 -15 -20 -4 -39 -11 -41 -15 -5 -8 -90 -36 -135 -45 -8 -2 -35 -12 -60 -23 -90 -38 -276 -91 -336 -95 -33 -2 -65 -6 -71 -10 -6 -4 -28 -9 -49 -12 -123 -15 -207 -38 -304 -84 -84 -40 -155 -105 -167 -151 -3 -14 -9 -29 -13 -35 -5 -5 -13 -29 -19 -53 -7 -23 -26 -59 -44 -78 -26 -30 -31 -44 -29 -80 1 -24 -3 -46 -8 -49 -6 -4 -7 -11 -3 -18 4 -6 8 -22 10 -36 2 -15 4 -35 6 -46 1 -11 5 -24 8 -30 4 -5 10 -26 14 -45 7 -32 19 -66 49 -130 6 -14 17 -29 23 -33 7 -4 13 -19 13 -32 0 -13 6 -30 13 -37 6 -7 17 -26 22 -43 6 -16 17 -30 25 -30 8 0 16 -9 18 -20 5 -23 51 -74 69 -75 6 0 13 -3 15 -7 5 -13 76 -63 87 -63 6 0 19 -8 30 -19 11 -11 42 -21 82 -26 35 -5 66 -9 69 -10 41 -11 172 -14 240 -5 47 6 101 13 120 14 19 2 61 11 93 20 32 9 62 14 68 10 6 -3 18 0 27 8 9 8 37 21 62 28 25 7 56 19 70 26 14 6 45 18 70 25 25 7 49 15 54 17 5 3 22 6 38 7 15 2 35 8 42 14 8 7 44 13 80 14 36 1 66 5 66 9 0 5 14 8 30 8 17 0 30 -4 30 -10 0 -5 7 -10 15 -10 8 0 19 -10 26 -21 9 -18 17 -21 51 -16 31 4 38 2 34 -9 -3 -8 -3 -21 1 -30 8 -20 52 -10 71 17 17 24 41 24 96 -2 32 -15 66 -21 123 -22 71 -1 173 16 198 34 6 3 23 9 39 13 44 11 155 79 204 126 57 55 113 141 118 182 2 18 7 49 12 68 8 39 7 115 -4 202 -6 53 -11 60 -60 105 -30 26 -54 51 -54 56 0 5 -10 17 -22 26 -14 12 -22 30 -22 54 -1 20 -7 42 -14 49 -7 7 -12 18 -12 25 0 7 -6 13 -14 13 -7 0 -17 8 -20 18 -3 9 -13 28 -21 42 -8 14 -15 42 -15 64 0 56 -28 155 -50 179 -11 11 -22 29 -26 39 -3 10 -12 18 -20 18 -8 0 -14 4 -14 9 0 5 -9 13 -21 16 -11 4 -34 22 -51 41 -17 19 -35 34 -40 34 -9 0 -98 58 -108 71 -19 23 -286 35 -335 15z m298 -119 c37 -11 67 -24 67 -29 0 -4 5 -8 11 -8 21 0 166 -152 179 -188 11 -32 11 -37 -5 -47 -46 -27 -65 -49 -71 -82 -5 -28 -3 -39 10 -48 50 -37 -21 -132 -119 -158 -70 -19 -136 -13 -161 14 -9 11 -25 19 -35 19 -10 0 -24 10 -30 23 -6 12 -21 32 -32 44 -11 13 -18 26 -14 29 3 4 -5 21 -18 39 -14 17 -25 36 -25 42 0 5 -9 18 -20 28 -11 10 -20 26 -20 35 0 10 -6 33 -13 51 -8 19 -13 51 -12 72 1 23 -3 37 -10 37 -16 0 -29 90 -15 104 6 6 43 20 83 32 85 25 148 23 250 -9z m-470 -124 c-4 -39 -1 -52 16 -70 12 -12 21 -32 21 -45 0 -13 9 -34 20 -48 11 -14 20 -29 20 -35 0 -9 28 -72 65 -147 11 -23 11 -29 -3 -48 -46 -59 -65 -80 -75 -80 -6 0 -18 -7 -27 -15 -18 -17 -87 -21 -145 -10 -38 8 -115 69 -115 92 0 5 -12 20 -26 34 -32 30 -64 94 -64 129 0 15 -9 35 -19 44 -12 11 -17 25 -14 37 4 12 -3 32 -16 49 -16 22 -18 31 -8 37 16 10 236 84 262 88 11 1 38 9 60 18 22 8 43 15 46 16 3 0 4 -20 2 -46z m-493 -175 c5 -24 14 -57 20 -73 21 -66 23 -123 5 -162 -22 -48 -101 -120 -139 -127 -41 -9 -116 21 -116 45 0 19 -33 59 -48 59 -5 0 -19 11 -31 24 -20 21 -22 32 -19 107 1 46 -1 90 -5 97 -5 6 -7 12 -5 13 2 0 37 4 78 9 41 4 104 17 140 28 100 31 107 29 120 -20z m-457 -50 c-4 -7 -8 -53 -9 -103 -1 -89 -7 -131 -24 -170 -5 -11 -14 -38 -19 -60 -9 -35 -57 -95 -76 -95 -3 0 -19 -10 -35 -21 -22 -17 -36 -20 -64 -15 -20 4 -36 11 -36 17 0 6 -4 8 -9 5 -5 -3 -14 1 -21 9 -7 8 -17 15 -22 15 -5 0 -31 15 -59 32 -44 30 -49 36 -49 71 0 21 9 55 20 77 11 22 20 45 20 51 0 22 64 96 95 109 16 7 44 18 60 25 17 7 57 20 90 30 33 9 69 20 80 25 32 14 68 12 58 -2z m1797 -256 c19 -26 56 -68 82 -95 26 -26 48 -52 48 -57 0 -6 5 -10 11 -10 7 0 9 -35 4 -116 -8 -151 -26 -188 -122 -260 -75 -56 -152 -94 -189 -94 -12 0 -26 -4 -29 -10 -3 -5 -21 -10 -40 -10 l-33 0 2 80 c0 45 -4 90 -10 102 -19 36 3 237 32 283 7 11 17 39 23 62 7 25 22 50 39 63 15 11 48 41 73 65 26 25 53 45 60 45 8 0 30 -22 49 -48z m-546 -146 c72 -75 129 -153 121 -166 -3 -5 -1 -11 4 -15 6 -3 11 -36 11 -73 1 -37 2 -101 3 -142 l2 -75 -49 2 c-72 2 -89 9 -109 43 -15 25 -24 30 -57 30 -21 0 -41 -4 -44 -8 -3 -5 -19 -7 -35 -4 -23 3 -31 10 -35 31 -8 41 -9 123 -2 151 4 14 10 54 15 90 9 67 38 156 57 176 6 7 19 14 30 17 10 2 21 5 23 6 2 0 31 -28 65 -63z m-374 -208 c25 -34 30 -50 26 -75 -3 -23 -1 -33 8 -33 9 0 14 -14 14 -42 2 -63 -5 -75 -42 -82 -19 -4 -45 -15 -57 -25 -13 -10 -43 -20 -66 -23 -23 -3 -55 -13 -72 -21 -17 -8 -48 -18 -70 -22 -38 -6 -39 -5 -34 17 3 13 9 28 13 33 12 17 21 95 11 95 -5 0 -10 8 -10 18 -1 9 -3 33 -7 53 -6 35 -4 38 53 82 43 33 73 47 113 55 85 15 86 15 120 -30z m-906 22 c14 -5 26 -16 26 -25 0 -8 7 -15 14 -15 16 0 66 -60 66 -79 0 -6 7 -22 15 -35 12 -17 16 -55 16 -156 0 -74 -4 -137 -9 -142 -16 -16 -194 4 -200 22 -2 6 -10 10 -17 10 -24 0 -69 29 -103 67 -33 36 -34 37 -14 46 17 8 22 22 27 83 5 52 4 78 -4 88 -7 8 -11 33 -9 56 3 39 6 44 43 58 22 9 42 19 43 24 5 11 75 10 106 -2z m444 -16 c35 -17 48 -49 38 -90 -4 -15 -9 -72 -12 -128 -6 -122 -11 -176 -17 -183 -4 -4 -94 -18 -160 -26 -16 -2 -19 9 -23 96 -2 54 -5 102 -5 105 -1 4 -1 40 0 81 1 71 2 75 38 108 58 55 89 63 141 37z"
       id="path14" />
  </g>
  <path
     style="fill:#ffffff;stroke-width:0"
     d="m 285.43411,861.22314 c -13.52616,-0.54849 -25.91595,-1.54022 -27.53286,-2.20384 -1.61692,-0.66363 -3.42012,-0.90978 -4.00713,-0.547 -0.58699,0.36279 -2.46116,0.10624 -4.1648,-0.57014 -1.70365,-0.67637 -4.57312,-1.62475 -6.37661,-2.10749 -1.80349,-0.48276 -6.72209,-2.15262 -10.93023,-3.71084 -4.20814,-1.5582 -11.49167,-3.52963 -16.18561,-4.38095 -5.48452,-0.99471 -12.20466,-3.33331 -18.80456,-6.54398 -5.64856,-2.74786 -10.80442,-4.99611 -11.45748,-4.99611 -2.98593,0 -18.83447,-13.60303 -22.27711,-19.12077 -1.12769,-1.80741 -2.41045,-3.53214 -2.85059,-3.83272 -0.44014,-0.30058 -1.82617,-2.88285 -3.08006,-5.73837 -1.25389,-2.85552 -2.74966,-5.19186 -3.32393,-5.19186 -1.51478,0 -5.37594,-7.85837 -6.26323,-12.74715 -0.41873,-2.30709 -1.87618,-6.16215 -3.23877,-8.5668 -3.14339,-5.54735 -9.75871,-28.53754 -12.10872,-42.0814 -3.72723,-21.48121 -1.19527,-68.82975 4.6175,-86.34884 1.49597,-4.50872 3.37668,-9.42732 4.17935,-10.93023 0.80267,-1.50291 1.80773,-4.36081 2.23347,-6.35089 0.59157,-2.76532 1.71647,-4.04537 4.77155,-5.42969 2.19862,-0.99625 7.93238,-4.12473 12.74168,-6.9522 4.8093,-2.82746 10.89467,-5.99498 13.52303,-7.03891 4.4371,-1.76234 4.85135,-1.76853 5.79268,-0.0865 1.28406,2.29448 7.25928,2.38293 12.51893,0.18531 3.86552,-1.61512 3.88974,-1.66727 3.51722,-7.57093 -0.37035,-5.8691 -0.31749,-5.98635 4.1626,-9.2328 2.49575,-1.8085 6.50866,-3.81891 8.9176,-4.46758 2.6516,-0.71399 5.69648,-2.6789 7.71646,-4.97953 2.87648,-3.27612 3.30473,-4.55509 3.10565,-9.27504 -0.20584,-4.88044 -0.49795,-5.47494 -2.69022,-5.4753 -3.16687,-5.3e-4 -3.13262,-1.5057 0.28955,-12.72524 3.17359,-10.40458 4.76082,-12.41469 9.80292,-12.41469 3.40489,0 3.70103,-0.2936 4.38608,-4.34834 1.09909,-6.50547 -0.20672,-10.72421 -3.91259,-12.64059 -3.71552,-1.92137 -3.97693,-4.06623 -1.4596,-11.97619 0.95659,-3.00581 2.36939,-7.43256 3.13955,-9.83721 1.06525,-3.32599 1.89264,-4.28545 3.45801,-4.00996 8.76893,1.54321 8.79765,1.53935 11.18959,-1.50152 3.00173,-3.81607 3.07468,-7.05829 0.15882,-7.05829 -1.56458,0 -2.18605,-0.72868 -2.18605,-2.56315 0,-1.40973 -1.00228,-3.4702 -2.22728,-4.57882 -1.93286,-1.74921 -2.00511,-2.14 -0.54652,-2.95627 1.08075,-0.60482 1.68078,-2.52058 1.68078,-5.36637 0,-3.54497 -0.67797,-5.05908 -3.40665,-7.60805 -7.07952,-6.61326 -11.66932,-5.21129 -16.23204,4.95813 -3.24044,7.22234 -4.55825,8.27733 -10.33944,8.27733 -4.01227,0 -7.18466,2.77807 -7.18466,6.29161 0,2.36259 4.04104,6.22537 7.74129,7.39978 2.60578,0.82705 2.66351,3.54508 0.33598,15.82023 -1.97441,10.41285 -4.29687,13.6061 -10.78041,14.82242 -4.26996,0.80104 -9.32012,5.24537 -9.32012,8.20205 0,3.50014 3.09769,5.39414 8.82226,5.39414 2.96287,0 5.38704,0.4607 5.38704,1.02378 0,2.85105 -4.43113,19.0443 -5.59506,20.44675 -1.08683,1.30955 -3.1266,1.4781 -10.71665,0.88558 -8.60053,-0.67143 -9.54292,-0.54527 -11.41667,1.52826 -2.59224,2.86863 -1.90396,5.79002 3.12461,13.26244 4.51914,6.71541 4.60296,7.20673 1.37703,8.07124 -4.32259,1.15842 -6.62892,0.74678 -9.16504,-1.63578 -2.89724,-2.72182 -10.11274,-3.32459 -12.82745,-1.07158 -2.70197,2.24245 -2.16338,6.21573 1.20132,8.86241 l 2.98209,2.3457 -2.70883,2.08141 c -1.48986,1.14478 -3.96308,2.09234 -5.49604,2.10571 -1.53297,0.0133 -3.36132,0.59842 -4.06301,1.30011 -0.97238,0.97237 -1.44274,0.84075 -1.97774,-0.55344 -0.43992,-1.14643 3.58678,-10.90465 10.78748,-26.14208 6.31918,-13.37206 13.23115,-29.7233 15.35992,-36.33609 2.12877,-6.61279 6.18906,-18.41745 9.02285,-26.23256 l 5.15234,-14.2093 0.7789,-20.76745 c 0.4284,-11.42209 1.15177,-22.85784 1.6075,-25.41279 0.71319,-3.99837 0.5645,-4.64535 -1.06758,-4.64535 -1.39695,0 -1.67519,-0.50359 -1.05683,-1.91279 0.46163,-1.05203 0.74857,-3.88023 0.63763,-6.28488 -0.30845,-6.68613 -7.39202,-34.35244 -9.34917,-36.51506 -0.95212,-1.05208 -1.73113,-2.6409 -1.73113,-3.5307 0,-0.8898 -0.72215,-2.57258 -1.60477,-3.73952 -0.88263,-1.16693 -1.62042,-3.16253 -1.63954,-4.43465 -0.0307,-2.04001 -5.8367,-15.56415 -12.1459,-28.2917 -2.3613,-4.76346 -5.93059,-17.26874 -7.64334,-26.77907 -0.59546,-3.30639 -2.10431,-8.96279 -3.353,-12.56976 -1.93795,-5.59793 -2.39676,-10.52948 -3.1337,-33.68211 -0.47484,-14.91818 -1.10667,-27.3673 -1.40408,-27.6647 -0.2974,-0.2974 0.13888,-3.09336 0.96952,-6.21325 0.83064,-3.11988 1.5161,-7.04099 1.52323,-8.71358 0.0366,-8.57967 21.57621,-54.01682 32.75633,-69.09846 4.01082,-5.41046 8.35204,-11.59179 9.64717,-13.73627 3.61912,-5.99256 26.02228,-26.2049 45.59785,-41.13881 16.06539,-12.25605 30.78757,-18.7088 53.34589,-23.38159 9.89938,-2.05058 13.58131,-2.24366 33.00294,-1.73069 23.50582,0.62083 30.9814,1.90894 39.27047,6.76666 2.55339,1.49639 5.61873,2.7207 6.81188,2.7207 2.3334,0 19.60551,8.2431 24.9142,11.89028 2.99653,2.05868 3.25119,2.77315 3.5358,9.91991 0.27985,7.02703 0.11892,7.70144 -1.83762,7.70144 -2.6963,0 -5.75717,4.53762 -5.28484,7.83457 0.2622,1.83023 1.66928,2.97722 5.27616,4.30088 4.24829,1.55904 4.96557,2.27415 5.26326,5.24724 0.21257,2.12308 -0.55788,4.90252 -2.01049,7.25288 -2.33443,3.7772 -6.53184,7.01045 -6.53184,5.03146 0,-2.15788 -3.683,-2.2701 -7.01046,-0.21361 -1.91671,1.18459 -5.32411,4.14159 -7.57199,6.57112 -2.24788,2.42953 -4.82461,4.41732 -5.72607,4.41732 -0.90148,0 -3.54318,0.97143 -5.87048,2.15872 -2.3273,1.1873 -6.11962,2.62018 -8.42738,3.18419 -8.71213,2.12919 -15.47292,5.4587 -26.5088,13.05484 -11.15403,7.67747 -11.52044,7.83481 -18.24616,7.83481 -5.75531,0 -7.12576,0.37438 -8.48758,2.31865 -1.15251,1.64543 -1.3386,3.06943 -0.64093,4.90444 0.80346,2.11325 0.45035,3.07981 -1.93223,5.28906 -4.34878,4.03243 -8.82511,5.63817 -11.33971,4.06777 -3.32359,-2.07561 -5.25468,-1.49399 -7.55251,2.27473 -2.8075,4.60462 -2.8349,10.07015 -0.0602,12.0136 1.48942,1.04324 1.81724,1.94944 1.10976,3.0678 -0.55224,0.87296 -1.01162,4.86952 -1.02082,8.88124 -0.0145,6.32608 0.37122,7.75511 2.9067,10.76835 1.60788,1.91087 2.99963,4.50871 3.09277,5.773 0.13037,1.76955 1.33071,2.59496 5.21449,3.58572 6.61316,1.68703 9.00984,0.1234 10.00742,-6.52897 0.77194,-5.14761 1.95488,-6.13632 7.34174,-6.13632 5.51079,0 7.48991,-1.73566 7.48991,-6.56852 0,-3.57026 -0.51335,-4.586 -3.00581,-5.94755 -3.8587,-2.10787 -9.01744,-6.74583 -9.01744,-8.10709 0,-0.57949 1.96006,-2.60601 4.35569,-4.50339 5.06333,-4.01023 7.39978,-3.76784 12.76585,1.32433 4.67553,4.43688 12.17534,5.43557 15.5414,2.06951 3.14369,-3.14369 2.91206,-4.76814 -1.01027,-7.08512 -2.07117,-1.22347 -3.5646,-3.16621 -3.96221,-5.15427 -0.35098,-1.75489 -1.16054,-3.19069 -1.79903,-3.19069 -2.69896,0 5.80915,-6.95519 12.76485,-10.435 9.0968,-4.55094 11.62279,-4.79867 11.62279,-1.13987 0,2.52068 0.40931,2.66854 9.47856,3.42401 11.3852,0.94837 14.6411,0.04 15.83868,-4.41891 1.17157,-4.36216 0.20426,-7.01353 -3.0038,-8.23323 -4.04416,-1.53759 -3.18657,-2.80816 3.09935,-4.59191 5.40749,-1.53448 5.85457,-1.50733 7.75367,0.47086 1.5389,1.60298 2.8308,1.92464 5.46512,1.3607 1.89739,-0.40619 3.48626,-0.80404 3.53083,-0.8841 1.72689,-3.10303 3.74456,-8.6706 3.74456,-10.33273 0,-1.21309 2.43178,-5.05536 5.40395,-8.53837 5.92339,-6.94148 12.05757,-21.44911 12.11766,-28.65888 0.027,-3.23913 0.24237,-3.62863 1.14734,-2.0749 0.61275,1.05204 1.56512,1.91279 2.11638,1.91279 1.30416,0 7.49917,6.46744 10.64598,11.11414 8.31726,12.28163 12.28962,18.91095 12.28962,20.50967 0,1.00249 0.46165,2.28997 1.02588,2.86108 0.56423,0.5711 3.75109,5.85706 7.08192,11.74657 5.30325,9.37712 5.88903,10.99133 4.71249,12.98583 -1.07022,1.81428 -1.06162,2.37961 0.0423,2.77893 2.49438,0.90231 4.72158,3.79069 5.35147,6.94013 0.34006,1.70029 1.54555,3.93061 2.67889,4.95625 1.13332,1.02565 2.06059,2.46615 2.06059,3.20111 0,0.73497 0.68953,1.90856 1.53229,2.60799 0.84276,0.69943 1.85976,2.60413 2.25998,4.23267 0.40023,1.62854 2.71908,7.63366 5.15301,13.3447 2.43392,5.71105 5.05993,12.5971 5.83557,15.30233 0.77564,2.70523 3.44662,10.08314 5.9355,16.39535 7.56459,19.18509 17.95591,51.27255 19.11431,59.02325 0.40431,2.70524 1.12553,5.90233 1.60272,7.10465 3.34419,8.42609 3.92558,12.01599 8.85079,54.65117 1.18059,10.21976 2.64457,21.04069 3.25331,24.04651 0.60872,3.00581 1.83454,11.61337 2.72403,19.12791 0.8895,7.51453 2.66924,17.59767 3.95497,22.40697 1.28575,4.8093 2.68592,10.71163 3.11151,13.11628 0.42559,2.40465 1.31317,6.09361 1.9724,8.19768 1.69425,5.40756 5.97546,25.64064 6.93834,32.79069 0.44526,3.3064 1.86918,10.68431 3.16426,16.39535 1.29508,5.71105 3.01307,16.04012 3.81777,22.95349 0.80469,6.91337 2.47784,20.43954 3.7181,30.05814 1.24027,9.6186 2.77673,23.63663 3.41436,31.15116 0.63763,7.51454 1.86169,17.35175 2.72013,21.86047 0.85845,4.50872 1.58033,9.69785 1.60419,11.53139 0.0238,1.83355 0.48487,3.80099 1.02445,4.3721 0.53959,0.5711 1.25814,3.00581 1.59678,5.41046 0.33863,2.40465 1.08451,7.07733 1.65749,10.38372 5.97877,34.50025 6.85199,41.48955 6.49026,51.94839 -0.37007,10.69986 -0.51788,11.2447 -6.22726,22.95349 -3.2165,6.59641 -7.02006,13.55921 -8.45233,15.47287 -2.70976,3.62051 -3.4156,6.90432 -1.48407,6.90432 0.61604,0 1.6334,1.35015 2.2608,3.00033 1.41283,3.71603 -0.32743,7.73428 -7.24052,16.71837 -9.55216,12.41374 -21.44397,21.06844 -43.32471,31.53111 -19.50727,9.32773 -25.35984,11.6809 -36.97848,14.86808 -5.71104,1.56663 -17.26977,5.02991 -25.68604,7.69619 -28.57741,9.05332 -30.81914,9.48745 -75.79265,14.67804 -33.57516,3.87504 -53.67408,4.61892 -87.61433,3.24265 z m -4.55189,-43.07153 c 6.73806,-0.88869 15.1394,-2.36427 18.66968,-3.27907 3.53027,-0.91478 7.74737,-1.66324 9.37133,-1.66324 1.62396,0 4.2582,-0.72364 5.85386,-1.60811 4.74405,-2.62958 22.61792,-9.12069 33.34309,-12.10894 16.4669,-4.588 17.47905,-4.81115 21.94563,-4.83826 2.36196,-0.0143 5.90423,-0.60817 7.8717,-1.31962 3.05157,-1.10346 4.16088,-0.983 7.5494,0.81977 2.1847,1.16232 4.43911,2.97406 5.00979,4.02609 0.74559,1.37452 2.39046,1.91279 5.84512,1.91279 4.43207,0 4.83457,0.23476 5.15341,3.00582 0.48386,4.20517 4.91999,4.62075 9.36845,0.87764 3.95353,-3.32668 6.13707,-3.45262 13.07066,-0.75386 7.34547,2.85908 16.81513,3.64946 27.51362,2.29643 25.38788,-3.21079 48.90787,-17.8758 60.88688,-37.96374 4.15568,-6.96879 6.28611,-20.47847 5.46941,-34.68322 -0.94109,-16.36836 -1.2265,-17.26408 -7.39532,-23.2095 -8.78017,-8.46219 -13.12909,-14.35103 -14.19215,-19.21746 -1.35593,-6.20705 -4.01119,-11.67335 -6.05046,-12.4559 -2.41756,-0.9277 -6.87175,-11.09574 -6.88432,-15.71555 -0.0179,-6.59959 -3.97189,-19.86279 -7.71769,-25.88853 -1.9525,-3.1409 -3.89306,-5.71073 -4.31239,-5.71073 -0.81173,0 -2.77657,-1.49371 -11.4806,-8.72774 -9.48317,-7.88159 -22.23304,-15.34237 -28.13002,-16.46071 -3.02805,-0.57426 -12.31776,-1.04411 -20.64377,-1.04411 h -15.13821 l -15.044,6.40127 c -8.2742,3.52069 -16.51958,6.73717 -18.32307,7.14772 -1.80349,0.41056 -7.70582,2.36151 -13.11628,4.33544 -15.12701,5.51889 -20.21189,7.31629 -27.32558,9.65902 -3.60698,1.18787 -12.7064,4.37908 -20.22093,7.09158 -15.24183,5.50179 -33.0896,9.99471 -53.55814,13.4825 -27.59314,4.70179 -40.97704,8.97711 -52.92058,16.90477 -8.70127,5.77557 -12.73661,11.03358 -16.37466,21.33598 -1.74204,4.93317 -5.06209,11.80682 -7.37791,15.27477 -3.21209,4.81015 -4.21057,7.39133 -4.21057,10.88478 0,2.51865 -0.49637,5.50684 -1.10304,6.64042 -1.15397,2.1562 -0.78735,4.31677 3.61351,21.29524 2.40956,9.29605 7.48421,21.74231 10.00686,24.54311 0.83691,0.92919 1.88911,3.16503 2.33823,4.96852 1.33207,5.34908 5.85665,13.55632 8.15017,14.78377 1.17359,0.62808 2.1338,1.84176 2.1338,2.69704 0,0.85527 1.87387,3.42023 4.16415,5.6999 4.17101,4.15169 16.76222,13.43557 18.22191,13.43557 0.42707,0 2.24444,1.04528 4.03862,2.32285 7.66718,5.4595 38.70923,7.86822 61.93041,4.8055 z m 49.91235,-285.72738 c 9.94072,-4.67476 19.53795,-12.48627 24.53567,-19.9704 2.43619,-3.64825 4.42945,-7.3419 4.42945,-8.20812 0,-0.86622 0.91925,-3.63837 2.04278,-6.16032 1.22715,-2.75455 2.30213,-8.47747 2.69233,-14.33323 0.35725,-5.36132 1.15324,-10.05913 1.76885,-10.4396 0.7553,-0.46681 0.7656,-1.91763 0.0316,-4.46147 -0.5982,-2.07333 -1.39672,-7.95051 -1.77449,-13.06039 -0.37777,-5.10989 -1.15405,-9.88398 -1.72506,-10.6091 -0.57101,-0.72512 -0.69191,-1.8787 -0.26867,-2.56353 0.42324,-0.68481 0.27012,-2.30491 -0.34027,-3.6002 -0.61039,-1.29529 -1.70688,-5.30624 -2.43665,-8.91322 -0.72976,-3.60698 -1.6973,-7.05 -2.15008,-7.65116 -0.45278,-0.60116 -1.09994,-3.918 -1.43815,-7.37074 -0.37197,-3.79769 -2.09017,-9.41111 -4.34927,-14.2093 -2.0539,-4.36238 -4.34197,-10.88275 -5.08459,-14.48973 -0.74262,-3.60698 -2.01205,-8.03372 -2.82095,-9.83721 -0.80889,-1.80349 -2.02988,-5.09935 -2.7133,-7.32414 -0.68342,-2.22479 -2.3976,-5.74707 -3.80927,-7.82729 -1.41169,-2.08023 -2.74016,-4.68295 -2.95216,-5.78382 -0.87064,-4.52083 -10.8073,-5.89116 -14.08452,-1.94233 -2.4537,2.95651 -0.63933,11.85916 3.70632,18.1861 2.18519,3.18148 5.2038,8.93465 6.708,12.78484 1.50421,3.85018 3.47947,8.13666 4.38946,9.5255 0.91001,1.38884 1.65456,3.21773 1.65456,4.06421 0,0.84647 1.03071,3.86915 2.29047,6.71704 1.25976,2.8479 3.98546,12.87059 6.05711,22.27267 4.32008,19.60643 6.05581,43.91821 3.85779,54.03479 -0.67967,3.12828 -1.7852,9.27905 -2.45671,13.66838 -1.14705,7.49758 -1.55772,8.31738 -6.78536,13.54502 -9.93624,9.93625 -15.48327,11.43586 -39.96918,10.80546 -6.2259,-0.16028 -11.70751,0.12349 -12.18136,0.63061 -0.47384,0.50712 -1.20345,2.54379 -1.62137,4.52596 -0.67115,3.18323 -0.3022,4.03554 3.16068,7.30146 4.96605,4.68357 6.08493,4.90194 21.96188,4.28608 11.4967,-0.44595 13.92607,-0.88959 19.67442,-3.59282 z M 443.58875,387.92589 c 6.86098,-3.30249 13.70593,-9.16133 19.29622,-16.51631 2.56599,-3.376 3.12343,-5.28003 3.37506,-11.528 0.16577,-4.11625 0.86442,-8.5361 1.55255,-9.82189 1.78773,-3.34038 3.52028,-21.93004 2.79933,-30.03575 -0.66342,-7.45882 -3.31268,-16.16347 -4.91937,-16.16347 -0.55144,0 -1.00262,-0.90971 -1.00262,-2.02157 0,-7.34868 -15.18939,-18.99055 -28.62221,-21.93743 -2.59325,-0.56891 -7.05839,-1.55912 -9.92254,-2.20048 -2.86415,-0.64136 -9.31498,-1.16611 -14.33516,-1.16611 -7.47256,0 -9.63152,0.39639 -11.90671,2.18605 -1.52851,1.20233 -3.24148,2.18605 -3.80661,2.18605 -0.56513,0 -3.71865,2.82819 -7.00783,6.28488 -6.52446,6.85672 -13.38405,17.88888 -18.73947,30.1384 -3.23864,7.40779 -3.43022,8.60421 -3.4438,21.50695 -0.0133,12.67881 0.19371,14.05639 2.87484,19.12791 3.56847,6.74998 13.78136,18.13749 19.24267,21.45584 2.24059,1.3614 4.31973,2.80812 4.62031,3.21493 1.32881,1.79843 16.3563,7.95502 21.31395,8.73206 9.80003,1.53604 21.11546,0.17569 28.63139,-3.44206 z M 251.22038,387.6474 c 1.80078,-0.93121 4.21949,-1.44591 5.37492,-1.14375 3.60524,0.94278 9.25346,-4.04498 18.71043,-16.52258 15.59777,-20.57982 16.14001,-21.62529 16.14001,-31.11887 0,-6.9476 -0.74571,-10.31166 -4.80889,-21.69415 -3.65639,-10.24291 -5.48428,-13.91028 -7.62696,-15.30233 -1.54994,-1.00696 -6.15545,-5.33777 -10.23447,-9.624 -8.03503,-8.44325 -16.16073,-13.14923 -29.22955,-16.92821 -18.99459,-5.49249 -28.72225,-3.36495 -40.4606,8.84912 -5.13309,5.34112 -8.024,9.53955 -10.41758,15.12929 -3.22932,7.54146 -3.29218,8.02088 -2.49044,18.99565 1.4317,19.59808 3.82759,28.63848 11.81888,44.59615 1.05368,2.10407 2.49803,5.54709 3.20966,7.65116 0.75581,2.23469 3.28356,5.41648 6.07839,7.65117 2.63149,2.10407 4.81441,4.33436 4.85095,4.95619 0.0946,1.60964 6.4508,5.16074 10.98093,6.13484 6.21936,1.33733 24.40612,0.28274 28.10432,-1.62968 z"
     id="path26"
     transform="scale(0.75000001)" />
  <path
     style="fill:#ffffff;stroke-width:0"
     d="m 232.23273,373.68526 c -7.351,-1.3243 -11.03644,-3.88698 -16.71896,-11.6256 -5.10742,-6.95543 -11.53072,-22.2586 -11.22931,-26.75325 0.0697,-1.0402 -0.33374,-2.17592 -0.89665,-2.52381 -1.586,-0.98021 -1.1768,-16.65794 0.63541,-24.34485 2.97173,-12.60525 12.51943,-21.72297 23.01917,-21.9825 3.53472,-0.0874 16.70426,4.10958 19.21524,6.12364 0.80695,0.64725 2.53896,1.50502 3.84892,1.90615 3.59726,1.10153 20.19465,19.09698 23.3043,25.2673 1.50291,2.98214 3.19279,5.75349 3.7553,6.15854 0.6048,0.43551 0.43845,1.44049 -0.40709,2.4593 -1.13873,1.37208 -1.15483,2.0542 -0.0791,3.3504 1.89201,2.27973 0.61438,7.92973 -3.1104,13.75504 -4.11338,6.43303 -13.12408,16.31508 -14.87651,16.31508 -0.76942,0 -4.47548,2.4593 -8.23571,5.46511 -3.76022,3.00582 -6.90029,5.46512 -6.97792,5.46512 -0.0776,0 -1.61349,0.40188 -3.41301,0.89308 -1.79952,0.49119 -5.32469,0.52325 -7.8337,0.0713 z m 12.55989,-27.83968 c 1.6127,-0.84138 3.63828,-1.53282 4.50127,-1.53652 2.16938,-0.009 6.62859,-4.38314 6.62859,-6.50168 0,-0.95798 -1.20441,-3.51423 -2.67646,-5.68055 -1.47205,-2.16632 -2.98584,-5.17143 -3.36397,-6.67802 -0.57737,-2.30044 -1.66616,-2.9358 -6.79653,-3.96613 -11.73389,-2.3565 -13.67397,-1.90657 -19.4534,4.51151 -8.4773,9.41407 -8.71965,9.97703 -5.92323,13.75939 3.70575,5.0123 14.75254,9.29538 21.0721,8.17011 1.69369,-0.30158 4.39892,-1.23673 6.01163,-2.07811 z"
     id="path28"
     transform="scale(0.75000001)" />
  <path
     style="fill:#ffffff;stroke-width:0"
     d="m 412.04252,373.76512 c -4.00781,-1.14379 -9.17235,-3.34489 -11.47674,-4.89134 -5.97667,-4.01085 -13.62212,-12.57953 -16.48869,-18.4798 -6.05538,-12.4638 -0.27377,-34.55683 12.83186,-49.03387 6.57012,-7.25764 12.34942,-10.61592 18.26903,-10.61592 5.99031,0 21.09334,2.52061 21.09334,3.52037 0,0.46844 0.92365,0.85172 2.05256,0.85172 6.09065,0 14.34279,7.07203 14.34279,12.29169 0,0.90747 0.69792,2.22917 1.55095,2.93712 2.25966,1.87535 4.29026,15.76464 3.56665,24.39586 -0.73764,8.79855 -4.30791,16.20617 -8.40511,17.43898 -1.49827,0.45082 -5.49378,1.56473 -8.87892,2.47537 -7.42839,1.99833 -11.21623,4.74519 -10.19898,7.39611 1.03232,2.69016 7.65893,6.50569 10.58945,6.09727 4.31527,-0.60139 2.82328,2.76226 -2.39169,5.39202 -6.13849,3.09546 -16.10033,3.17996 -26.4565,0.22442 z m 12.31303,-30.71716 c 6.94497,-2.08076 9.18667,-5.39782 9.16274,-13.55817 -0.0123,-4.20645 -0.57879,-7.53599 -1.42571,-8.38003 -1.7526,-1.74664 -13.02277,-1.66935 -16.3515,0.11213 -3.4476,1.8451 -6.06073,7.52808 -6.16163,13.40015 -0.15064,8.76747 4.59802,11.47535 14.7761,8.42592 z"
     id="path30"
     transform="scale(0.75000001)" />
  <path
     style="fill:#ffffff;stroke-width:0"
     d="m 448.61004,779.59884 c -0.90063,-37.28101 -0.80762,-39.93535 1.64349,-46.90005 6.57407,-18.67985 6.25821,-18.16307 16.90048,-27.65132 l 10.06016,-8.96926 3.84834,4.25885 c 3.69144,4.08522 18.44556,21.09586 20.97717,24.18545 1.53628,1.87489 0.58543,23.51961 -1.37513,31.30307 -1.09141,4.33291 -2.75263,6.84292 -8.01864,12.11572 -7.37195,7.38146 -21.97882,16.5101 -27.92672,17.45295 -2.12017,0.33608 -5.47008,1.32149 -7.44426,2.1898 -1.97417,0.86831 -4.6794,1.57874 -6.01163,1.57874 -2.29879,0 -2.43399,-0.48735 -2.65326,-9.56395 z"
     id="path32"
     transform="scale(0.75000001)" />
  <path
     style="fill:#ffffff;stroke-width:0"
     d="m 425.34109,695.79744 c -1.50291,-0.91805 -4.30176,-2.41448 -6.21967,-3.32538 -4.37445,-2.07764 -8.1115,-6.94601 -13.64966,-17.78184 -2.38728,-4.6709 -5.14399,-9.38226 -6.12603,-10.46969 -2.35669,-2.60962 -5.66596,-13.36658 -5.68622,-18.48338 -0.009,-2.23585 -1.03156,-6.01339 -2.27268,-8.39453 -1.42192,-2.72801 -2.12942,-5.83868 -1.91279,-8.40996 0.33728,-4.00339 0.48858,-4.12957 7.99495,-6.66798 10.62985,-3.59467 18.0787,-4.15133 27.84626,-2.08099 14.61375,3.09755 23.31264,8.77974 35.58259,23.24286 8.3739,9.87069 8.58161,11.47926 2.21095,17.12273 -4.11564,3.64586 -5.25759,5.43735 -5.71954,8.97281 -0.42422,3.24671 -0.11263,4.803 1.1757,5.87221 4.81003,3.99197 -1.08548,13.98639 -10.9991,18.64634 -6.62412,3.11371 -18.47046,4.05012 -22.22476,1.7568 z"
     id="path34"
     transform="scale(0.75000001)" />
  <path
     style="fill:#ffffff;stroke-width:0"
     d="m 413.27528,782.10035 c -1.5263,-0.83039 -3.44991,-2.7707 -4.27468,-4.31179 -1.84496,-3.44734 -7.11856,-4.65224 -12.53623,-2.86425 -4.8711,1.60761 -8.11467,0.62233 -9.44171,-2.86806 -3.48614,-9.16923 2.5179,-46.24319 8.77778,-54.20133 4.08794,-5.19698 5.78737,-4.63013 15.05016,5.01999 9.60432,10.00594 15.58351,18.13204 15.58351,21.179 0,1.12407 0.43003,2.51103 0.95563,3.08214 0.52559,0.5711 1.23425,9.0311 1.57479,18.8 l 0.61916,17.76162 -6.76665,-0.0438 c -3.72166,-0.0241 -8.01545,-0.72317 -9.54176,-1.55356 z"
     id="path36"
     transform="scale(0.75000001)" />
  <path
     style="fill:#ffffff;stroke-width:0"
     d="m 357.08644,704.20535 c -3.59303,-0.91411 -10.00565,-5.42475 -12.75192,-8.9697 -1.43534,-1.85279 -4.23827,-5.41482 -6.22872,-7.91564 -4.80137,-6.03245 -6.52976,-9.53543 -7.93283,-16.07774 -0.64265,-2.9966 -1.87238,-6.03257 -2.73273,-6.7466 -0.86035,-0.71402 -1.56611,-2.59061 -1.56836,-4.1702 -0.002,-1.57959 -0.99672,-4.5001 -2.20994,-6.49002 -1.21322,-1.98992 -1.94436,-4.04114 -1.62476,-4.55827 0.56002,-0.90612 20.94377,-7.82103 39.6353,-13.44573 l 9.01744,-2.71355 0.0243,6.15617 c 0.0174,4.42185 0.62646,6.92598 2.16174,8.88872 1.17559,1.50291 2.14837,3.52006 2.16174,4.48256 0.0134,0.96249 1.16658,3.91366 2.5627,6.55814 1.39612,2.64447 4.89673,10.10907 7.77913,16.588 l 5.24072,11.77986 -2.90813,4.19643 c -6.28326,9.06674 -13.53062,13.29349 -22.47114,13.10543 -3.3153,-0.0697 -6.98484,-0.37027 -8.15455,-0.66786 z"
     id="path38"
     transform="scale(0.75000001)" />
  <path
     style="fill:#ffffff;stroke-width:0"
     d="m 322.5969,791.29456 c 0,-0.63102 0.67392,-2.4755 1.4976,-4.09884 2.01807,-3.97729 3.26231,-12.96656 1.91041,-13.80208 -1.49343,-0.92299 -2.74543,-12.07439 -1.58786,-14.14285 1.79476,-3.20706 12.85389,-10.58318 18.2863,-12.19644 2.98642,-0.88687 7.5114,-1.61249 10.05552,-1.61249 4.16823,0 4.95927,0.45365 7.99929,4.58742 2.49995,3.39941 3.37362,5.77078 3.37362,9.15686 0,2.7283 0.66062,5.11771 1.63954,5.93014 1.78703,1.4831 2.23419,9.3925 0.67052,11.86003 -0.99267,1.56646 -10.52076,5.91151 -18.70541,8.53014 -23.96128,7.66628 -25.13953,7.93755 -25.13953,5.78811 z"
     id="path40"
     transform="scale(0.75000001)" />
  <path
     style="fill:#ffffff;stroke-width:0"
     d="m 280.3048,707.76884 c -2.18,-0.94807 -4.33774,-3.17983 -5.7491,-5.94632 -1.24262,-2.43575 -3.60827,-5.12621 -5.25699,-5.97879 -5.93683,-3.07006 -6.5372,-4.64544 -7.03972,-18.47239 -0.53063,-14.60046 -1.5394,-13.15195 10.05884,-14.44362 3.30639,-0.36823 10.98801,-1.95117 17.07026,-3.51765 6.08225,-1.56648 11.77888,-2.57176 12.65918,-2.23396 2.11062,0.80992 7.43335,20.70189 7.43335,27.77974 0,6.37581 -4.12651,13.58433 -10.74567,18.77138 -7.75455,6.07678 -11.74055,6.95089 -18.43015,4.04161 z"
     id="path42"
     transform="scale(0.75000001)" />
  <path
     style="fill:#ffffff;stroke-width:0"
     d="m 278.21,804.27182 c -0.46747,-0.75638 -1.06199,-11.03623 -1.32115,-22.84411 l -0.4712,-21.46887 3.90658,-4.32412 c 5.44381,-6.02565 10.36479,-8.49459 15.14401,-7.598 4.52171,0.84828 8.75439,4.94729 8.80119,8.52324 0.0444,3.39546 -2.33175,35.23086 -3.05632,40.94762 l -0.57279,4.5192 -8.96938,1.3167 c -4.93317,0.72419 -9.78875,1.53876 -10.79019,1.81015 -1.00145,0.27139 -2.20328,-0.12543 -2.67075,-0.88181 z"
     id="path44"
     transform="scale(0.75000001)" />
  <path
     style="fill:#ffffff;stroke-width:0"
     d="m 237.66437,805.59454 c -3.19302,-0.75932 -7.92122,-2.66502 -14.16179,-5.70794 -1.29897,-0.63337 -4.42478,-3.25366 -6.94625,-5.82285 l -4.58449,-4.67125 2.198,-2.198 c 2.8012,-2.8012 4.44572,-17.38947 2.55098,-22.62929 -2.91386,-8.05813 -1.57275,-11.61121 5.73151,-15.18485 5.96692,-2.91934 7.68699,-3.30477 13.47164,-3.01866 4.89106,0.24191 14.92057,9.73589 18.65779,17.66156 2.54214,5.3912 2.88111,7.62516 3.28447,21.64599 0.62448,21.70712 0.91932,21.00756 -8.79597,20.87003 -4.34698,-0.0615 -9.47963,-0.48667 -11.40589,-0.94474 z"
     id="path46"
     transform="scale(0.75000001)" />
  <path
     style="fill:#ffffff;stroke-width:0"
     d="m 210.0155,727.50713 c -2.70523,-1.43541 -7.03264,-3.69902 -9.61646,-5.03024 -2.58383,-1.33123 -6.4526,-4.07534 -8.59728,-6.09803 -3.55454,-3.35237 -3.83123,-4.04102 -3.12854,-7.78667 1.3681,-7.29259 7.20072,-19.57395 11.32026,-23.83631 2.20572,-2.28218 6.71563,-5.39365 10.02202,-6.91436 7.84251,-3.60702 32.0623,-11.10543 32.87348,-10.17759 1.46773,1.6788 -1.10059,29.3452 -3.41523,36.78956 -4.28702,13.78789 -6.76815,17.20455 -16.5366,22.77187 -6.22371,3.54706 -6.74624,3.55845 -12.92165,0.28177 z"
     id="path48"
     transform="scale(0.75000001)" />
</svg>
