<svg xmlns="http://www.w3.org/2000/svg" width="725.333" height="914.667" viewBox="0 0 544 686" preserveAspectRatio="xMidYMid meet"  xmlns:v="https://vecta.io/nano"><path d="M299.5 51.2c-8.3.6-16.4 1.8-22.5 3.5-6.6 1.8-12.9 2.7-20.5 2.9-12.7.5-22.1 2-24.9 4-1.1.8-2.8 1.4-3.8 1.4-2.8 0-13.5 8.7-18.9 15.4l-7.4 8.8c-1.4 1.5-2.5 3.3-2.5 4 0 .8-.7 2.4-1.6 3.6-.8 1.2-1.3 2.6-.9 3.1.3.5 0 1.3-.5 1.6-1.4.8-3.1 5.1-3.6 8.5-.1 1.4-.9 4.5-1.7 7-3.6 11-5 16.8-5.4 21.4-.2 2.8-.8 5.5-1.3 6.1s-.8 2.6-.8 4.5-.5 6.4-1.1 10c-.7 3.6-1.4 8.3-1.6 10.5s-.6 6.2-1 9c-1.4 10.5-1.6 12.2-2.1 20-.3 4.4-.9 8.4-1.3 9-.5.5-1.1 2.8-1.5 5-1.1 6.6-6 23.9-8.4 29.5-.8 1.9-2.8 6.2-4.3 9.6-1.6 3.3-2.9 6.6-2.9 7.2 0 .7-.4 1.2-.8 1.2s-1.6 1.4-2.6 3c-.9 1.7-2.8 4.1-4.2 5.5-1.3 1.3-2.4 2.8-2.4 3.3 0 1.1-10 11.2-11.1 11.2-.5 0-.9.6-.9 1.4 0 .7-2.5 3.6-5.5 6.4s-5.5 5.6-5.5 6.1c0 .6-.4 1.1-.9 1.1-3.2 0-25.1 25.3-25.1 28.9 0 .6-.9 1.5-2 2.1s-2 1.6-2 2.3-1.6 2.8-3.5 4.7-3.5 4.2-3.5 5.2c0 1.3-.8 1.8-2.5 1.8-1.4 0-4.1.6-6 1.4-3.2 1.4-3.4 1.7-2.9 5.6.3 2.3 0 4.8-.6 5.5s-.8 1.9-.5 2.7-.3 3.9-1.4 6.9-2.5 8-3.2 11.2-1.6 6-2.1 6.3c-.4.3-.8 2.1-.8 4 0 2-.5 4.5-1.1 5.6s-1.3 7.8-1.5 14.8c-.3 12.1-.1 13.2 2.7 21.1 1.7 4.6 3.3 10 3.6 11.9s2 5.5 3.8 8 4.5 6.7 6 9.5c1.6 2.7 5.4 7.9 8.5 11.5l9.5 11.5c4.1 5.3 22.4 23.4 38.7 38.5 9.3 8.7 21.1 23.8 21.1 27 0 .8.5 1.9 1.2 2.5 2.2 2 8.5 10.4 8.5 11.4 0 .5.6 1.4 1.3 1.8.6.4 3.4 4 6 7.9 6.6 9.9 19.8 21.8 33.8 30.4l16.4 10.5c12.4 8.1 31.3 17.2 39.7 19 1.8.4 3.8 1.1 4.3 1.5 3.2 2.6 43.2 7.1 57 6.4 11.1-.5 21-1.5 24-2.4 1.7-.6 4.6-1.2 6.6-1.4 2-.3 5.8-1.2 8.5-2.1 4.5-1.5 6.6-3 16.1-11.5 1.7-1.5 4.1-3.1 5.3-3.5 1.3-.4 1.9-1.2 1.6-2s1.1-2.6 3.5-4.3c4.8-3.6 9.4-9.9 9.6-13.2.1-1.4.7-2.6 1.3-2.8.5-.2 1-1 1-1.7 0-.8 1.4-4.4 3.1-8 1.8-3.6 2.9-6.8 2.6-7.2-.4-.3.1-2.2.9-4.2s1.5-5.3 1.6-7.4c0-2 .4-3.7.9-3.7s.9-.9.9-2 .4-2 .8-2c1.5 0 1.3-16.4-.3-21.5-1-3.6-1.1-5.2-.3-6.2 1-1.3.7-11.2-.6-19.8-2.3-14.4-2.8-43.4-1.1-62l.9-13.5c.1-2.5.5-5.1 1-5.8.4-.7 1.2-6.6 1.7-13s1.1-12.8 1.4-14.2c.2-1.4 1.1-8.4 1.9-15.5.8-7.2 1.7-14.1 2-15.5.2-1.4.8-5 1.1-8 .4-3 1.3-6.9 2-8.5.8-1.7 1.7-5.4 2.1-8.3.3-2.8 1-5.2 1.4-5.2s.7-1.2.8-2.8c.1-2.6.4-5.1 3.8-26.2.9-5.8 1.4-13 1.1-16.1-.3-3-.1-6.2.3-7s1.1-6.5 1.4-12.8c.4-6.2.8-11.7 1.1-12.1.2-.4 0-3.3-.5-6.6-.7-4.1-.6-6 .1-6.5.7-.4.9-1.1.6-1.5-.3-.5-.8-6.5-1.1-13.3-.4-6.8-.9-12.8-1.2-13.2-.3-.5-.1-.9.3-.9.5 0 .9-6 1-13.3l.2-32.1c.2-15.8-.1-19.2-1.4-21.3-.9-1.4-1.4-3-1.2-3.7.8-2.1-5.5-29.7-7.3-32.1-.4-.6-2-4.1-3.5-8-1.6-3.8-3.5-7.7-4.5-8.7-.9-1-2.8-4-4.2-6.7-3-6-6.7-10.4-9.2-11.4-1-.4-1.6-1.3-1.3-2 .5-1.3-1.2-2.6-7.6-6.1-4.3-2.3-10.5-6.5-11.2-7.6-1.9-3.1-27.5-13-33.6-13-1.4 0-5.9-.9-10-2-8.2-2.2-20-2.4-43.4-.8zm48.1 13.4c3.5.8 7.4 1.8 8.7 2.3 1.2.5 4.7 1.4 7.8 2 3.1.7 6.5 1.9 7.5 2.9 1 .9 3.1 2.3 4.7 3.1 1.5.8 2.7 1.8 2.7 2.2 0 .5.7.6 1.5.3.8-.4 1.5-.1 1.5.5s1.5 1.7 3.3 2.4c1.7.8 3.8 2.1 4.6 3 .7 1 1.9 1.7 2.5 1.7 2.1 0 14.3 12.8 16.5 17.4 2.6 5.2 2.2 6.6-1.9 6.6-1.6 0-3.5.7-4.4 1.5-.8.8-2.2 1.5-3 1.5-.9 0-1.6.5-1.6 1.1s-1.1.8-2.9.4c-2-.4-3-.2-3.4.9-.9 2.3-6 2.8-12.3 1.3-3.3-.8-6.6-1.5-7.4-1.6-6.4-.3-14.6-2.3-15.5-3.7-4.1-6.5-7.6-8.1-10.9-4.8-2 1.9-2 2.9-.1 4.7 1.2 1.3.9 1.8-2.6 4.1-2.2 1.5-4.4 2.4-4.9 2.1-1.3-.8-3.5 1.4-4.4 4.3-1 2.9-3.4 2.8-4.2-.2-.7-3.1-5.5-4.4-8.6-2.4-2.1 1.4-3.5 7.8-1.7 7.8.5 0 1.4 1.2 2 2.6 1.1 3-1 7.4-3.5 7.4s-4.7 4.7-4 8.5c.5 2.7 1.2 3.6 3.3 4.1 1.4.3 3.1.7 3.8.9.6.2 2.2-1.2 3.5-3 2.7-4 4.7-3.9 8.9.6 4.4 4.8 9.4 3.7 10.4-2.1l1.1-7.1c.5-3 .3-3.7-1.4-4.1-1-.3-2.7-.1-3.7.4-1.1.7-2 .7-2.7 0s-.3-1.4 1.1-2.1c1.1-.7 2.8-2.5 3.6-4.1 1.3-2.6 2.1-3 5.6-3 3.7 0 4.1.2 3.6 2-.6 2.4 3.5 5 8.1 5 2.5 0 3-.5 3.8-3.8.9-3.5 1.1-3.7 5.4-4s11 1.3 19.2 4.6c3.2 1.4 3.6 1.9 3.1 4.2-.4 2.2-.1 2.8 1.7 3.3 1.2.3 2.4 1.5 2.7 2.6.3 1.4 1.9 2.5 4.4 3.3 4.5 1.3 6.1.4 6.4-3.4.1-1.6 1.2-2.5 4.4-3.6 2.3-.8 5.3-2.4 6.7-3.7 2.4-2.2 2.4-2.4.7-3.7-1-.7-2.6-2.3-3.7-3.5-1.5-1.9-1.6-2.5-.6-3.8.7-.8 1.9-1.5 2.6-1.5 1.7 0 4.6 5.4 3.9 7.2-.3.8.6 3.6 2 6.3 1.5 2.7 2.9 7.1 3.2 9.9s1.3 7.6 2.4 10.6c1.4 4.2 1.6 5.6.6 6.2-.9.6-.9 1-.1 1.5 1.2.9 1.1 110.8-.1 123.3-.3 3.6-.8 11-.9 16.5-.3 9.3-1.6 17.2-3.6 22-.9 2.1-4 18.9-4.5 24-.2 1.6-.6 3.8-1 4.8-.4.9-.5 3.3-.3 5.2.3 2.3 0 3.5-.8 3.5-1.2 0-2.7 4.6-2.3 6.6.1.5 0 1.6-.4 2.4-.7 2-2.3 16.2-2.6 23.3-.1 1.6-.5 2.6-1 2.2-.5-.3-1.3 0-1.7.6-.3.6-.2 1.4.5 1.8.7.5.8 3.2.1 9.5-.6 4.9-1.3 9.2-1.5 9.7-.3.4 0 1.1.6 1.5.7.4.8.9.1 1.3-.9.6-2.4 15.7-2.3 22.5 0 1.6-.3 3.4-.8 4-1.8 2.3-3.2 55-1.6 57.6.6.8 1.1 3.3 1.2 5.5s.6 7.4 1.3 11.5c.7 4.8.8 8.2.2 9.6-.6 1.1-.7 2.7-.2 3.5.8 1.6.5 15.8-.5 23.1-.5 3-1.1 4.5-1.8 4.1-.6-.4-.8 0-.4 1 .3.9.1 1.9-.4 2.3-.6.3-.9 1.5-.6 2.5s.1 2.2-.4 2.5-.9 2.1-.9 4c0 2.1-.6 3.7-1.4 4s-1.3 1.5-1.1 2.6c.3 1.3-.4 2.8-1.5 3.8s-2 2.2-2 2.9c0 .6-.4 1.1-1 1.1-.5 0-1 .9-1 1.9 0 1.1-.5 2.3-1 2.6-.6.4-.8 1.1-.4 1.6.3.6-1.9 3.4-5 6.4-3.1 2.9-5.6 5.7-5.6 6.3 0 .5-1 1.2-2.2 1.5-2.2.6-2.9 1.5-6.1 8.4-1 2-2.6 3.5-4.1 3.9-1.4.3-2.6.9-2.6 1.3s-1.4.8-3.1.9c-1.8.1-3.7.6-4.3.9-.6.4-1.8.9-2.6 1-3.6.6-26 3.4-27.7 3.5-5.3.2-32.7-1.4-38.3-2.3-12.9-2.2-30.5-7.9-35.2-11.6-1.8-1.4-10.4-5.9-15.8-8.2-2.5-1.1-5.2-2.8-6.1-3.8s-2.4-2.4-3.5-3.1c-1-.6-6.6-4.4-12.3-8.2-5.7-3.9-10.6-7-11-7-.3 0-2.1-1.6-4-3.5s-4-3.5-4.8-3.5-1.3-.6-1.1-1.3c.1-.6-2.4-3.9-5.6-7.2s-6.6-7.6-7.6-9.5c-2-3.9-7.9-13.2-10.9-17l-5-6.4c-1.7-2.1-3.1-4.4-3.1-5.1 0-.6-1.4-2.4-3.1-4.1-1.7-1.6-3.7-4.2-4.5-5.7-1.5-2.8-14.2-15.9-17-17.5-.8-.4-4.6-3.9-8.4-7.6s-7.4-6.5-7.9-6.2-2.8-1.9-5.1-4.9c-2.4-3.1-4.8-5.9-5.4-6.3-1.8-1.1-10.6-11.8-10.6-12.9 0-.5-1.6-2.5-3.5-4.3-2-1.9-4.2-4.6-4.9-6-10-18.7-12.8-24.6-13.2-27.7-.3-2-.8-4.2-1.3-4.7-3-3.8-1.4-29.9 2.7-43.6.9-3 1.5-6.1 1.4-6.8-.2-.6.2-1.2.8-1.2s1-.6.9-1.3c-.1-.6.3-2.5.9-4 .7-1.6 1.2-3.4 1.2-4.1s.8-2.1 1.9-3.2c2-2.2 7.7-2.4 13.5-.4 1.5.5 3.8.7 5 .4 2.8-.7 4.8 1.5 6.2 7 .8 3.2 1.5 4 3 3.8 1-.1 3.3-.4 4.9-.6 3.6-.4 4.4-3.1 2.1-7.8-2.2-4.4-2-5.1 1.6-6.6 1.8-.8 5.4-2.3 8-3.4l4.8-2.1 3.6 3.6c2 1.9 3.3 4 2.9 4.6-.3.6-.1 1.1.4 1.1.6 0 1.9.8 2.9 1.8 2.3 2.3 10.8 3.7 11.8 2 .4-.7.2-1.4-.4-1.6-.7-.2-1.2-1.2-1.2-2.2s-1.1-2.7-2.5-3.8-2.5-2.7-2.5-3.6-.3-1.6-.7-1.6c-.8 0-3.3-4.7-3.3-6.1 0-.4 1.1-.9 2.4-1.3 1.9-.5 9.6-5.8 15.2-10.4 3.6-3.1 5.6-3.4 8.5-1.3 6.2 4.6 9.9 1.9 9.9-7.2 0-3.1.7-4.8 2.5-6.5 1.3-1.3 2.2-2.9 1.9-3.6s.2-1.6 1-1.9 2.5-2.5 3.7-4.9 2.3-4.4 2.4-4.6c.2-.2 1.8.6 3.6 1.7 4 2.5 8.9 2.8 8.9.6a1.54 1.54 0 0 1 1.5-1.5c.8 0 1.5-.6 1.5-1.4s-.7-1.6-1.5-2c-.8-.3-1.5-1.2-1.5-2 0-.7-.9-1.6-2-1.9-2.6-.7-3.5-3.2-2.2-6.1.8-1.9 2.3-2.6 7.4-3.5 5.4-.9 6.7-1.6 9.5-4.8 2.7-3.2 3-4 1.8-4.9-.8-.6-1.2-1.4-.8-1.8 1.1-1.1-3.1-3.5-6.3-3.6-2.2 0-3.6.8-5.2 3-1.4 1.9-3.2 3-4.6 3-1.3 0-3.7.7-5.2 1.5-2 1-4.3 1.3-7.1.9-4.3-.6-10 .2-8.9 1.3.3.3-.2 1.9-1.2 3.5-1.7 2.9-1.7 2.9 1.6 5.7 3.1 2.4 3.3 3 2.7 6.4-.4 2-1.3 4.1-2.1 4.8-.8.6-1.4 2.1-1.4 3.3 0 1.3-1.4 3-3.8 4.6-2 1.4-4.1 3-4.5 3.7-1.3 2-2.4 1.6-6.3-2.7-3.5-3.8-6.5-4.9-9-3.2-2.3 1.5-1.9 3.8 1.4 8.1l3.4 4.5-2.8 2.4c-12.5 10.3-18.9 13.5-24.9 12.6-4.1-.6-4.3-.4-5.9 2.7-.9 1.7-1.6 3.7-1.6 4.4 0 1.1-12.7 6.2-13.5 5.4-1.2-1.3-4.4-10.1-3.9-11.2.3-.8-.2-2-1.1-2.7-2.2-1.9-1.8-5.4 1-8.9 1.4-1.6 7.9-8.3 14.5-14.9s12-12.2 12-12.4 4-4.5 9-9.5c4.9-5 9-9.6 9-10.1 0-.4 1.1-1.9 2.5-3.2 1.3-1.2 2.9-3.8 3.5-5.6.7-1.9 1.5-3.4 2-3.4.4 0 2.7-3.9 5-8.8 4.4-8.9 4.9-10.2 7-16.2l2-5.5c1.2-2.9 2.1-7.2 2.7-13.5.3-3 .9-6.2 1.3-7 1-2 3.3-16.8 3.1-20.2 0-1.5.3-2.9.7-3.2.5-.3.7-2.8.6-5.5-.2-2.8.1-5.3.6-5.6.6-.3 1-1.7 1-3.1 0-1.3.4-3.2.9-4.2.6-.9 1.5-6.2 2.1-11.7l1.4-12 1.2-7c.4-2.8.7-5.8.5-6.8-.1-1 .2-2.4.6-3 .5-.7 1.4-3 2.1-5.2.6-2.2 1.8-6.3 2.7-9 .8-2.8 1.8-5.8 2-6.9.2-1 .8-2.3 1.3-3 .5-.6 1.2-2.3 1.6-3.9.4-1.5 1.4-3.6 2.4-4.6.9-1 2.4-2.9 3.2-4.3 4-6.6 5.5-8.5 8.6-10.8 1.9-1.4 3.6-3.3 3.9-4.2.4-1 1.8-2 3.3-2.4 1.5-.3 3.6-1 4.7-1.6 4.1-2.3 12.3-3.8 20.7-3.8 9 0 22.1-1.6 24.9-3 .9-.5 4.9-1.3 9-1.9 21.5-3.2 48.2-3.4 60.5-.5zm-90.5 91.5c-7.7.7-11.7 1.6-15.5 3.5-7.8 3.8-11 5.6-12.3 6.9-.6.7-2.5 1.8-4.2 2.5s-3.1 1.8-3.1 2.5c0 .6-1.1 1.7-2.5 2.3s-2.5 1.7-2.5 2.3c0 .7-.7 1.9-1.5 2.8-5.3 5.7-11.5 15.7-11.5 18.7 0 .8-.7 2.6-1.6 3.9-1.2 1.9-1.5 4.4-1.3 11.5.2 5 0 9-.5 9s-.1.9.8 1.9c1 1.1 1.5 2.4 1.2 3-.4.6-.2 1.9.4 3.1.5 1.1 1.5 2.9 2 4 .6 1.1 1 2.4 1 3 0 1.3 4.6 8.3 10 15.2 3.4 4.3 5.9 6.4 10.2 8.3 5.3 2.4 7 2.6 19.1 2.7 10 0 14.1-.4 16.9-1.6 2.1-.9 5.1-1.6 6.8-1.6 1.6 0 3-.4 3-.8 0-.5 1.7-1.4 3.8-2 2.1-.7 4.7-2.1 5.7-3.2s2.6-2 3.7-2c1.2 0 1.8-.7 1.8-2.3 0-1.3 1.1-3.4 2.4-4.7 1.4-1.2 2.8-3.5 3.1-5.1.4-1.6 1.6-3.5 2.7-4.3 1.5-1.1 1.8-1.9 1.1-3.1-.7-1.1-.5-3 .4-5.7 2.4-7.1 1.2-37.6-2.2-54.3-.8-3.7-4.2-10.5-6.4-12.5-4.5-4.2-14.1-5.4-31-3.9zm4.2 16.4c4.3 3.8 7.8 12.4 8.3 20.5.4 8.5-1 20.5-2.7 22.6-.7.9-1.4 2.6-1.6 3.7-.2 1.2-1.3 4.2-2.5 6.7l-2.8 6c-.5 1-2.5 1.6-5.6 1.8-2.7.2-5.6 1-6.6 1.8-.9.9-2.3 1.6-3.1 1.8-.8.1-2.5.9-3.9 1.8s-5.2 2.2-8.5 2.9c-5.5 1.1-6.3 1.1-9.3-.7-1.8-1-4.1-3.4-5-5.1-1-1.8-2.2-3.8-2.7-4.5s-1.8-4-2.8-7.3c-1.6-5.2-1.7-6.9-.7-13.8.6-4.3 1.4-8.2 1.7-8.8 1.3-2 2.5.4 2.5 5.1 0 4.6 2.8 11.4 5.3 13.1.5.4 4.4 1 8.7 1.3 8.7.8 16.3-.6 19.5-3.6 1.1-1.1 3.5-2.6 5.2-3.5 2.7-1.3 3.2-1.9 2.7-3.9-.4-1.4-.1-3.1.6-3.9 1.5-1.8 1.5-10.4 0-11.9-.5-.5-1-2-1-3.2 0-3.8-5.1-6.2-9.2-4.2-1 .5-4 .2-7.3-.7-6.2-1.6-7.2-1.4-13.3 2.7-2.3 1.6-5.2 2.8-6.4 2.6-1.9-.3-1.9-.5 1.3-4.5 1.9-2.3 3.9-4.2 4.4-4.2.6-.1 2.2-1.3 3.7-2.9 3.6-3.7 8.3-7.2 10-7.2.7-.1 2.4-.7 3.8-1.5s5.1-1.4 8.5-1.4c5 0 6.5.4 8.8 2.4z"/><path d="M358.9 163.9c-4.9 1-13 5.9-13.6 8.2-.3 1-.9 1.6-1.4 1.3s-.9 0-.9.6-1.2 2.2-2.6 3.5c-2.6 2.5-6.4 9-6.4 11.2 0 .6-.7 1.6-1.7 2.1-.9.6-1.4 1.6-1 2.5.4 1-.3 2.3-1.8 3.6-1.5 1.1-2.5 2.9-2.5 4.5 0 1.4-.4 2.6-.9 2.6-.8 0-1.8 3.4-2.5 8.6-.1 1.1-.6 2.6-1.1 3.3-1.2 2-1.5 27.3-.3 28.8.5.7.7 1.6.4 2.1-.3.6.1 2.6.9 4.6s1.2 3.6.9 3.6c-.4 0 0 .8.9 1.8 1 1 1.4 2.2 1.1 2.5-.7.7 5.9 9.9 10.1 14.1 2.4 2.4 4.9 3.4 14 5.4 6.2 1.3 26.3.6 28.9-1.1 1.2-.8 4.8-2 7.9-2.7 5.3-1.2 6.3-2 11.7-8 3.2-3.6 6.2-7.9 6.6-9.5.4-1.7 1.4-3.6 2.1-4.4.8-.7 1.3-2.5 1.2-4-.1-1.4.3-3.9 1-5.4.6-1.6 1.1-4.3 1.1-6 0-1.8.6-4.3 1.3-5.8.8-1.4 1.7-6.5 2.1-11.4.3-4.8 1.1-9.5 1.8-10.2 2-2.5 1.3-21.6-1-26-.5-1-.7-2.3-.5-2.9s-.4-1.4-1.4-1.8c-3.2-1.1-6.2-3.2-11.8-8.2-3.1-2.7-7.1-5.4-8.9-6-4.1-1.5-28.8-2.5-33.7-1.5zm13.3 12.8c.9.8 4.9 1.9 8.7 2.3 6.6.7 7.3 1 11 5.1 2.3 2.6 4.7 6.6 5.7 9.5 1.5 4.9 1.5 5.8-.6 18-1.2 7.1-2.4 13.2-2.7 13.6-.9 1.6-3.3.7-4.9-1.7-1.7-2.6-1.2-10.5.8-10.5.5 0 .8-.8.7-1.8-.1-.9.1-2.5.4-3.5 1.5-3.9 1.5-4.6.2-5.7-.8-.7-1.3-1.6-1.2-2.2.1-.5-1.3-1.5-3.2-2.1-3.3-1.1-5.5-3.7-3.2-3.7 1.7 0 1.3-5.7-.5-6.4-2.7-1.1-6.1-.6-7.4.9-.7.8-2.3 1.5-3.7 1.5-1.7 0-2.3.5-2.1 1.7.2 1.5-.8 1.9-5.9 2.5-3.4.4-7.1 1.2-8.3 1.8-3.1 1.7-8.9 8.3-9 10.2 0 .9-.4 2-1 2.3-.5.3-1 3.4-1 6.7 0 7.3 2.7 12.2 7.6 13.8 1.7.6 3.5 2 4.1 3.2 1 2.3 6.3 3.3 18 3.3 5.9 0 6.4-.2 10.2-3.9 7.1-6.9 8-2.1 1.5 8-3.5 5.4-6.3 7.4-10 7.1-1-.1-2.3.7-2.8 1.8s-2.9 3.6-5.3 5.5l-7.6 6.1c-4.2 3.5-10.7 4.6-14 2.5-1.3-.9-2.7-1.3-3-1-.4.4-1.3.1-2.1-.5-1.9-1.6-6.9-11.1-6.2-11.8.3-.3-.1-2.1-.9-4-1.7-4.1-2-12.3-.5-12.3.7 0 .8-.6.1-1.7-1.8-3.3.5-17.4 4.4-27.3 2-5 3.1-7 3.7-7 .4 0 .8-.9.8-2s.7-2.3 1.6-2.7c.8-.3 1.3-1.2 1-2-.4-.9.2-1.7 1.5-2 1.1-.3 1.8-1.1 1.6-1.7-.6-1.5 4.1-6.8 7.3-8.4 8.5-4.1 12.7-4.5 16.2-1.5zm-75.1 87.2c-.7.5-1.1 1.3-.7 1.9.3.5-.1 1.5-.9 2.2-1.1.9-1.2 1.8-.4 3.8.6 1.6.7 4.7.3 7.7-1 6.5-1 8.4.5 11.9.6 1.6.8 3.2.4 3.5-1.3 1-1.4 5.4-.1 6.2.9.6.9 1.1-.1 2.3-.8.9-1 1.6-.6 1.6s-.3.8-1.6 1.8c-3.3 2.6-7.5 3.5-10 2.2-1.1-.6-4.1-1.1-6.7-1.1-5.5 0-13.1 2.4-11.3 3.6.9.5.6 1.1-.8 2.2-1.2.8-2.1 2.4-2.1 3.7 0 1.2-.4 2.6-.9 3.2-1.7 1.9-3.1 10.2-3.6 21.3l-.4 11.5 6.2 6.1c9.2 9 12.6 11.2 19.5 12.5 7 1.4 14.1.9 22.2-1.6l9.7-2.8c2.3-.6 5.3-2.4 6.7-3.9 2.2-2.4 2.4-3.1 1.4-5.8-.6-1.7-2.1-3.5-3.4-4.1-2-.9-3-.7-6.1 1.5-2.1 1.4-5.3 2.8-7 3.2-1.8.4-3.3 1-3.3 1.3 0 1.5-6.8 2.7-12 2.1-9-1-15.9-5.1-22.8-13.6-1.6-1.9-1.7-3.1-.9-9.5.9-7.4 3.3-14.8 4.9-14.8.4 0 .8-.7.8-1.5s1-1.7 2.3-1.9c2.5-.6 16.1-1.7 19.4-1.7 2.4.1 5.3-3.3 5.3-6.1 0-1 .4-1.8.9-1.8 1.7 0 2.9-5.7 3-14.5.1-4.9.6-9.4 1.1-9.9 1.5-1.5 1.2-7.2-.5-8.6-.9-.8-1.3-2-.9-2.9 1.1-2.6.4-9.2-1.1-10.7-1.5-1.6-4.3-1.8-6.4-.5zM165 393.9c-1.9.4-5.1 1.7-7 2.8-1.9 1.2-4.6 2.4-5.9 2.8s-3.8 2.1-5.4 3.9c-3.3 3.3-5.2 4.6-10.5 7.1-4.2 2-11.2 9.2-11.2 11.5 0 1-.7 2.3-1.5 3s-1.5 1.8-1.5 2.6c0 .7-.7 2-1.6 2.8-.8.9-1.3 2-.9 2.5.7 1.3-2.1 8.1-3.4 8.1-.9 0 .2 4.5 2 8.2.6 1.1.5 1.8-.1 1.8-1.5 0-1.2 1.2 1.3 4.4 5.7 7.4 10.4 11.8 15.1 14.5 5 2.8 7.9 4 24.6 10.2 4.7 1.7 9.6 3.7 11 4.4s7.6 2.5 13.7 4c20 4.8 40.9 17.7 42.8 26.4.4 1.7 1.3 4.5 2.2 6.1.8 1.7 1.2 3.7.9 4.6-.3.8.3 2.3 1.4 3.4s2 2.7 2 3.5.5 1.5 1 1.5c.6 0 1 1.2 1 2.8 0 1.5.7 3.7 1.5 4.8.8 1.2 1.2 2.4.9 2.7-1.1 1.1 2.9 10.9 5.2 13 1.3 1.1 2.4 2.5 2.4 3 0 1.4 6.2 9.8 9.5 12.8 6.4 5.9 15.8 9.5 33.3 12.8 4.9.9 6.7.9 7.8 0 1-.9 4.3-1 11.3-.6 12 .8 17.8-.6 27.2-6.9 5.1-3.4 7.6-6 10.8-11 2.3-3.6 4.1-6.8 4.1-7.2s.9-2.6 2-4.7c1.1-2.2 1.8-4.6 1.5-5.3-.3-.8.1-2.2.9-3.3 1.2-1.8 1.1-6.5-.3-7.3-.3-.2-.2-9.6.2-20.8l.9-21.8c.2-5.6-.7-19-1.2-19-1.1 0-3-4.8-3-7.4 0-1.3-.7-2.9-1.5-3.6-.8-.6-1.7-2.2-2.1-3.3-.4-1.2-2.3-3.9-4.4-5.9s-4-4.4-4.3-5.3c-.4-.8-1.3-1.5-2-1.5-.8 0-2.6-.9-4-2-3.7-2.9-11-5-20.2-5.6-8.3-.7-10-.4-21.9 4-3.8 1.3-9.9 3-13.5 3.6-3.6.7-8.4 1.7-10.6 2.3s-7.2 1.1-11.1 1.1c-6.3.1-8.1-.4-14.3-3.4-3.9-1.9-7.1-4-7.1-4.6s-1.3-1.7-3-2.4c-2.1-.9-5.5-5-11.7-14.2-4.8-7.2-9.8-13.7-11-14.5-1.3-.9-2.3-2.1-2.3-2.9 0-.7-2-3.2-4.3-5.6-4.1-4-7.5-6.2-16.7-10.9-4.1-2-14-3.1-19-2zm13.7 11.3c1.5.7 4.1 2.3 5.6 3.5 1.6 1.3 3.4 2.3 4 2.3 1.8 0 8.5 6.3 8 7.6-.2.6.8 1.9 2.2 2.8s2.5 2.1 2.5 2.7 1.8 3.2 4 5.8 4 5.2 4 5.7c0 2.2-7.1 7.2-11.2 8-4.9.9-6.1.8-14-.7-5.2-1-6.3-1.8-13-8.5-4-4-7.6-8.2-8-9.4-.4-1.1-1.2-2-1.7-2-1.6 0-2.5-7.1-1.2-9.1.6-1.1 1.1-3 1.1-4.4 0-2 .8-2.9 3.3-4 4-1.8 10.7-1.9 14.4-.3zm-33.1 37.3c4 1.9 7.7 3.5 8.1 3.5 1.4 0 8.3 7.4 8.3 8.9 0 .8 1 2.5 2.2 3.8s1.7 2.3 1 2.3-.8.9-.2 2.9c2.1 7.4-5.8 7-21.7-1.2-8.6-4.4-11.9-7.5-13.3-12.7-1-3.9-1-4.5.6-5.7 1-.7 2.1-1.3 2.5-1.3s1.1-.9 1.4-2c.9-2.8 2.6-2.5 11.1 1.5zm76.9 11c1.7 1.6 4.5 3.3 13.1 7.6 6 2.9 9.9 4.2 15.2 4.7 6.9.8 10 2 7.5 2.9-.7.3-1.3 1.2-1.3 2 0 2.2-3 4.2-6.2 4.3-1.5 0-3 .5-3.4 1.1-.4.8-2.7 1-6.4.6-5.8-.5-10.9-3.1-13.8-7-.7-.9-2.2-1.7-3.3-1.7s-2.3-.8-2.6-1.8c-.4-.9-1.7-2.7-2.8-4-2.2-2.3-2.6-6.6-1-10.5.7-1.8 2-1.3 5 1.8zm99.1 2.5c6.9 2.7 19.4 17.4 19.4 22.9 0 1 .3 2.1.7 2.4.3.4.8 3.6.9 7.1.3 5.6-.1 6.9-2.7 11-1.6 2.6-2.9 5-2.9 5.5s-.7 1.4-1.5 2.1-1.5 2.1-1.5 3.1-1.3 2.6-3 3.6c-1.6.9-3 2.1-3 2.5s-.3.7-.7.6c-.5-.1-2.8.4-5.2 1.1-3.9 1.1-4.9 1-8.2-.6-2-1-4.2-2.6-4.9-3.6-1.7-2.8-3.5-21-2.1-21.5.6-.2 1.1-1.3 1.1-2.3 0-1.1.4-1.8.9-1.5.4.3 1.1-2.2 1.5-5.6.3-3.3 1.1-6.7 1.7-7.4s1.2-3.9 1.4-7.1c.6-13 1.7-14.7 8.1-12.3zm-19.6 2.4c0 1.4-.4 2.7-.9 3-.4.3-1.1 2.2-1.4 4.2s-1.5 6-2.6 8.8c-1 2.8-2.4 7.3-3 10s-2.3 7.3-3.7 10.2c-3.2 6.7-5.3 7-12.9 1.6-4.3-3-5.5-4.5-6.3-7.7-1.9-8-1.1-12.9 3.4-19 1.2-1.7 2.5-4 2.8-5.1.4-1.2 1.7-2.4 2.9-2.7s5.8-1.6 10.2-3c10.3-3.3 11.5-3.3 11.5-.3zM200 467c0 .5.7 1 1.7 1 .9 0 2.3.7 3.2 1.5s3.1 2.7 5 4.2c4.3 3.4 9.1 10.9 9.1 14.1 0 2.3-.3 2.4-3.6 1.9-2-.4-4.7-1.5-5.9-2.7-2.2-2-13-6.8-17.5-7.6-2.6-.5-9.1-2.1-12.2-3-2.2-.6-2.3-2.1-.4-4 .8-.7 1.6-1.8 1.8-2.4s3.9-1.7 8.3-2.5c10.3-1.7 10.5-1.7 10.5-.5zm60 40.3c4.2 2.1 4.6 2.5 5.4 7.3.7 4.5.5 5.8-1.5 9.9-1.3 2.6-4.4 6.4-6.9 8.5s-5.2 5-6 6.4c-.7 1.5-1.8 2.5-2.4 2.3-1-.3-7.4-17.2-8.3-22-.4-1.8 0-3.4 1.1-4.6s1.5-2.7 1.1-4.4c-.8-2.9.3-3.8 5.5-4.8 5.7-1.1 7.3-.9 12 1.4zm27.8 24.9c1.2.6 2.2 1.7 2.2 2.4 0 1.6 1.5 5 3.9 8.9 1 1.6 1.6 3.4 1.3 3.9-.2.4-.6 2.7-.7 5-.4 6-1.5 9.5-4.7 14.7-1.5 2.5-2.8 5.3-2.8 6.2 0 2.4-4 2.4-10.5-.1-9-3.4-11.6-5.1-16.2-10.1-4.5-5-5.1-6.6-2.8-7.5.8-.3 1.2-1.2.9-1.9-.3-.8.7-2.5 2.4-3.9 1.5-1.3 2.7-2.8 2.5-3.4s.8-1.6 2.2-2.2 2.5-1.8 2.5-2.7c0-.8.3-1.5.8-1.5.4-.1 3.1-2.3 6.1-5 5.6-5.2 7.2-5.5 12.9-2.8zm38.3 8.9c6.7 2.2 8.9 3.6 12.1 8.2 1.7 2.4 1.8 3.2.8 5.6-.6 1.6-2.2 3.9-3.6 5.2-1.3 1.2-2.4 3-2.4 4s-1.2 2.4-2.7 3.2c-2.6 1.2-3.1 1.1-6.6-1.6-3.7-2.9-3.9-2.9-5.2-1-.7 1.1-3.2 2.5-5.5 3.3-3.5 1.1-4.3 1.1-5.4-.1s-1.1-2.4 0-7.4c.7-3.3 1.3-7 1.3-8.3.1-1.3.8-3 1.6-3.8.8-.9 1.5-2.6 1.5-4 0-1.3.5-2.4 1-2.4.6 0 1-.7 1-1.5 0-2.1 4.4-1.9 12.1.6z"/><path d="M315.074 626.432c-16.587-.926-26.413-2.125-34.878-4.257-10.653-2.683-20.222-6.18-24.775-9.054-1.703-1.075-6.818-3.822-11.367-6.105s-9.903-5.513-11.899-7.179-9.372-6.789-16.391-11.385-13.633-9.296-14.697-10.444-2.419-2.087-3.011-2.087-1.389-.808-1.771-1.795-3.078-4.487-5.992-7.777-6.987-8.854-9.05-12.364-6.425-9.971-9.691-14.358-6.321-8.695-6.788-9.572c-3.463-6.507-25.532-29.712-36.035-37.89-5.838-4.546-17.439-16.428-22.416-22.96-2.101-2.757-5.614-7.107-7.808-9.667-4.612-5.382-15.695-26.23-17.432-32.79-.638-2.409-1.553-5.39-2.034-6.625-1.224-3.145-1.063-17.756.302-27.356 1.17-8.232 4.285-21.927 5.151-22.646.264-.219.944-2.19 1.512-4.379 2.482-9.574 4.49-10.822 14.149-8.795 3.628.761 6.948 1.167 7.377.902 1.37-.847 4.033 2.173 5.546 6.289l1.467 3.988 4.157-.111c6.511-.173 8.031-2.668 5.219-8.564-.72-1.511-1.115-3.253-.877-3.873s3.755-2.52 7.816-4.222l7.384-3.096 3.066 3.455c1.686 1.9 3.068 3.857 3.071 4.349.016 2.59 10.183 6.698 14.127 5.708 1.711-.429 2.652-2.82 1.11-2.82-.391 0-.931-.877-1.2-1.949s-1.564-3.126-2.878-4.565-2.389-2.928-2.389-3.309-.718-1.606-1.595-2.722c-2.414-3.069-1.975-4.406 2.167-6.6 2.069-1.096 6.162-3.846 9.094-6.11 8.277-6.391 8.186-6.365 13.164-3.846 4.067 2.058 4.387 2.102 6.27.868 2.063-1.352 2.41-2.312 3.145-8.699.267-2.324 1.228-4.862 2.445-6.457 1.102-1.445 2.004-3.233 2.004-3.973s.493-1.535 1.095-1.766 2.093-2.284 3.313-4.562l2.399-4.378c.099-.13 1.57.46 3.268 1.311 5.373 2.693 7.041 2.751 9.79.339 1.359-1.192 2.47-2.598 2.47-3.124s-1.615-2.571-3.59-4.545c-5.879-5.879-4.48-9.148 4.492-10.493 4.347-.652 7.2-2.372 9.816-5.917 1.743-2.362 1.819-2.815.865-5.118-2.127-5.135-8.194-6.049-12.874-1.939-3.86 3.39-10.399 5.365-17.854 5.395-3.29.013-6.342.288-6.78.61-.973.715-3.59 6.25-3.59 7.593 0 .534 1.297 2.005 2.883 3.27 2.636 2.103 2.847 2.569 2.461 5.446-.232 1.73-.963 3.746-1.624 4.48s-1.445 2.308-1.742 3.498c-.482 1.933-8.108 9.402-9.6 9.402-.323 0-2.315-1.615-4.425-3.59-2.965-2.773-4.444-3.59-6.504-3.59-5.318 0-6.01 3.483-1.789 9.011 1.536 2.011 2.792 3.958 2.792 4.328 0 1.07-11.525 9.648-16.429 12.228-3.595 1.891-5.469 2.353-9.558 2.353-5.495 0-6.747.901-7.927 5.704-.395 1.607-1.603 2.598-5.039 4.132-8.279 3.696-8.398 3.679-10.371-1.478-.95-2.481-1.727-5.169-1.727-5.971s-.595-2.496-1.322-3.763c-2.335-4.069-1.098-5.976 13.571-20.925 26.825-27.336 38.004-39.888 38.004-42.673 0-.507.942-2.159 2.092-3.67 2.823-3.707 9.856-18.649 12.932-27.475 1.376-3.948 3.02-10.589 3.653-14.757s1.694-10.091 2.358-13.162 1.617-8.814 2.119-12.763l1.572-12.364c.363-2.852 1.056-6.8 1.54-8.774 1.317-5.373 2.937-15.816 4.394-28.317 1.503-12.897 1.552-13.113 6.265-27.919 4.619-14.51 5.379-16.193 11.164-24.728 6.6-9.738 13.045-15.876 19.226-18.309 7.86-3.095 10.971-3.655 24.633-4.44 12.853-.738 19.076-1.56 22.932-3.028 1.104-.421 6.668-1.426 12.364-2.234 13.863-1.967 46.804-2.079 54.627-.186 20.72 5.014 25.902 6.986 31.598 12.023.927.82 2.004 1.386 2.393 1.259s1.605.408 2.702 1.189c5.589 3.981 7.736 5.38 9.373 6.108 2.289 1.018 11.629 10.557 14.704 15.016 1.293 1.875 2.417 4.363 2.498 5.528.126 1.817-.249 2.204-2.644 2.723-1.536.333-4.516 1.524-6.623 2.648s-4.868 2.043-6.135 2.043-2.539.381-2.827.847-1.473 1.208-2.635 1.65c-2.06.783-3.173.632-25.552-3.462-3.605-.66-4.89-1.406-8.077-4.695-4.068-4.199-6.304-4.834-9.395-2.669-1.925 1.348-2.303 3.493-.869 4.927.497.497.718 1.387.491 1.978-.476 1.242-4.818 3.537-7.881 4.167-1.39.286-2.542 1.365-3.411 3.198-1.846 3.891-2.483 4.013-4.356.839-1.492-2.528-1.982-2.791-5.218-2.791-2.786 0-3.844.39-4.813 1.773-1.578 2.253-1.603 6.506-.045 7.799 2.566 2.129.589 8.774-2.61 8.774-2.934 0-4.699 9.727-2.215 12.211.637.637 2.516 1.412 4.177 1.724 2.787.523 3.204.346 5.423-2.297 1.322-1.575 3.031-2.863 3.798-2.863s2.741 1.209 4.387 2.686c7.307 6.556 10.924 4.025 12.567-8.794.477-3.719.366-4.165-1.151-4.646-.923-.293-2.747-.298-4.053-.011-2.946.647-2.953.355-.066-2.819l3.59-4.05c.806-.951 2.315-1.511 4.073-1.511 2.439 0 2.792.25 2.792 1.976 0 2.712 3.294 4.706 7.865 4.76 3.623.043 3.702-.01 4.854-3.319.922-2.647 1.662-3.471 3.473-3.868 3.079-.676 8.181.155 14.824 2.414 8.239 2.802 8.867 3.258 8.867 6.441 0 1.52.345 2.764.767 2.764s2.188 1.436 3.926 3.191c2.671 2.697 3.668 3.191 6.453 3.191 3.024 0 3.392-.234 4.486-2.853.902-2.16 2.103-3.256 4.945-4.512 4.52-1.998 8.14-4.574 8.14-5.791 0-.49-1.256-2.108-2.792-3.596-3.008-2.916-3.586-5.329-1.471-6.141 1.694-.65 4.263 2.422 4.263 5.099 0 1.085 1.073 4.652 2.385 7.928 2.76 6.893 5.598 19.142 6.165 26.616.217 2.852.412 29.773.435 59.826.051 67.38-1.04 89.826-4.986 102.64-1.791 5.816-5.868 28.756-5.942 33.435-.028 1.794-.551 3.866-1.161 4.604-1.327 1.605-3.746 15.681-4.529 26.35-.402 5.48-.859 7.662-1.603 7.662-1.513 0-2.256 1.59-1.224 2.622 1.135 1.135 1.066 4.841-.25 13.331-.578 3.729-.755 7.104-.393 7.501s.341 1.314-.047 2.039-1.108 6.503-1.599 12.84-1.293 12.957-1.782 14.712c-1.328 4.769-1.312 54.869.019 63.016 2.229 13.639 1.878 48.295-.504 49.768-.719.445-2.165 6.306-3.114 12.622-.212 1.41-.886 2.98-1.498 3.488s-1.113 1.901-1.113 3.095-.718 2.821-1.595 3.615-1.595 1.927-1.595 2.517-.323 1.073-.718 1.073-1.382 1.866-2.194 4.146c-1.49 4.186-10.723 15.237-14.212 17.012-.884.45-2.798 2.974-4.254 5.61-2.763 5.004-7.236 8.337-11.181 8.332-1.016-.001-2.566.382-3.444.852-2.115 1.132-30.17 4.77-35.332 4.582l-8.434-.392zm-5.584-40.827c10.951-.462 13.787-.84 16.887-2.254 6.748-3.079 13.415-8.209 17.004-13.084 4.049-5.501 9.184-15.904 9.184-18.608 0-1.026.549-3.18 1.219-4.785.994-2.379 1.051-3.539.307-6.279-.659-2.426-.723-8.796-.232-22.904.979-28.109.619-36.651-1.763-41.767-1.05-2.255-1.912-4.77-1.917-5.59-.009-1.733-4.961-10.159-6.918-11.77-.733-.604-2.305-2.436-3.493-4.071-2.521-3.47-10.668-8.076-17.376-9.824-2.49-.649-7.937-1.396-12.104-1.662-7.34-.467-7.895-.379-17.672 2.818-14.355 4.693-30.377 8.052-38.412 8.052-5.871 0-7.202-.299-12.378-2.779-10.24-4.907-13.365-7.92-24.72-23.833-4.653-6.52-8.938-12.039-9.522-12.263s-1.752-1.76-2.596-3.414c-2.257-4.425-8.947-9.859-17.42-14.149l-7.476-3.786h-8.488c-8.375 0-8.582.046-15.522 3.424-3.869 1.883-8.535 4.789-10.37 6.458s-5.848 4.495-8.919 6.281c-6.319 3.674-10.108 7.276-11.945 11.357-.691 1.536-2.301 4.587-3.577 6.78s-2.345 4.886-2.376 5.983-.773 3.169-1.648 4.606c-1.91 3.133-1.986 4.874-.378 8.722.931 2.228.99 3.046.252 3.502-2.671 1.65 11.259 16.615 19.195 20.621 8.325 4.202 33.088 13.422 46.343 17.254 18.546 5.362 34.194 13.635 40.326 21.319 2.45 3.071 5.906 11.791 5.926 14.955.007 1.121.911 3.255 2.007 4.742s1.994 3.172 1.994 3.745.359 1.042.798 1.042.81.987.826 2.194.541 3.091 1.168 4.188 1.153 3.071 1.169 4.387c.034 2.785 3.947 11.457 5.899 13.072.736.609 1.871 2.224 2.524 3.59 2.2 4.603 8.378 11.538 13.071 14.672 7.311 4.882 28.876 11.048 35.169 10.056 1.536-.242 8.715-.69 15.953-.995zm-1.153-215.377c12.943-3.708 16.769-6.371 16.011-11.146-.501-3.153-1.739-4.818-4.311-5.796-1.461-.556-2.895-.185-6.414 1.656-11.376 5.953-13.534 6.614-20.432 6.252-5.37-.282-7.255-.775-11.389-2.979-5.384-2.87-13.795-11.022-13.785-13.361.012-2.892 1.669-11.904 2.834-15.414.655-1.974 2.169-4.734 3.363-6.132 2.15-2.516 2.284-2.552 12.941-3.462 11.582-.989 13.087-1.592 13.965-5.589.272-1.24 1.001-2.675 1.619-3.188 1.37-1.137 1.806-3.424 2.81-14.732l1.237-12.478c.292-2.364.08-4.384-.584-5.584-.582-1.05-.941-3.64-.813-5.868.288-5.006-.875-8.132-3.462-9.311s-5.999.22-5.999 2.467c0 .861-.269 1.732-.598 1.935s-.5 5.699-.38 12.212l.173 16.365c-.025 2.488.296 4.734.714 4.993 1.26.779-1.438 5.166-3.989 6.485-2.583 1.336-3.503 1.382-13.513.68-7.026-.493-12.718.803-12.718 2.896 0 .502-.718 1.825-1.595 2.94s-1.595 2.642-1.595 3.393-.53 2.427-1.177 3.725c-1.46 2.928-2.532 10.536-3.246 23.052l-.549 9.613 7.073 6.621c3.89 3.642 8.678 7.563 10.64 8.714 7.954 4.667 19.276 5.023 33.169 1.043zm73.91-93.055c3.636-1.157 8.079-2.811 9.872-3.677 4.268-2.06 10.908-10.014 14.228-17.044 2.363-5.003 3.088-7.628 5.285-19.144l1.815-9.173c.663-3.29 1.567-8.316 2.008-11.167s1.214-6.98 1.717-9.173c1.124-4.901.436-16.418-1.391-23.301-1.093-4.115-1.701-5.114-3.593-5.897-1.252-.519-5.397-3.459-9.21-6.535s-8.191-6.133-9.729-6.795c-2.068-.89-6.972-1.299-18.831-1.571l-16.034-.367-4.914 2.205c-3.764 1.689-6.171 3.591-10.289 8.132-5.179 5.711-9.762 12.81-9.762 15.121 0 .611-.538 1.318-1.197 1.57s-1.197 1.3-1.197 2.327-.897 2.836-1.994 4.02-1.996 2.548-1.999 3.032-.565 1.954-1.249 3.267c-3.452 6.62-5.38 24.079-4.186 37.893.73 8.439 2.52 16.334 3.897 17.186.41.253.745 1.022.745 1.708 0 1.753 6.417 10.547 10.169 13.937 2.345 2.119 4.526 3.157 8.648 4.116l7.107 1.678c.877.217 6.517.251 12.533.076 9.023-.263 12.095-.687 17.549-2.422zm-118.004-15.607c5.678-1.442 11.872-4.067 20.539-8.703 1.246-.666 2.419-2.089 2.648-3.21.226-1.107 1.513-3.4 2.86-5.095s2.449-3.543 2.449-4.107.876-2.066 1.946-3.338c1.344-1.598 1.944-3.281 1.939-5.445-.004-1.723.377-5.066.846-7.429 1.644-8.284.668-32.593-1.914-47.665-.648-3.785-2.144-8.539-3.585-11.394-4.068-8.059-8.541-9.854-24.359-9.777-14.45.07-20.145 1.11-28.716 5.243-11.233 5.416-19.085 11.093-23.29 16.837-6.47 8.839-11.337 16.61-11.827 18.883-.315 1.461-1.034 3.56-1.598 4.665-1.297 2.541-1.658 21.46-.495 25.909 3.643 13.935 16.267 30.928 25.652 34.53 6.414 2.462 27.379 2.517 36.905.097zm80.975.154c-3.246-1.105-4.142-1.928-6.581-6.047-1.553-2.622-2.827-5.494-2.832-6.381s-.543-3.376-1.197-5.529c-1.261-4.155-1.57-9.395-.612-10.354.317-.317.477-3.159.355-6.315-.159-4.11.346-7.955 1.779-13.547 1.997-7.796 7.899-21.307 9.308-21.307.41 0 .745-.632.745-1.403s.718-1.852 1.595-2.4 1.595-1.504 1.595-2.125c0-2.196 4.381-6.29 9.139-8.541 5.424-2.566 10.299-2.945 13.055-1.014.995.697 4.678 1.768 8.183 2.38 7.556 1.319 8.487 1.761 11.895 5.642 3.674 4.184 6.369 10.37 6.378 14.64.008 3.838-2.924 21.523-4.073 24.561-.57 1.507-.96 1.683-2.23 1.003-3.125-1.672-3.913-9.073-1.25-11.736 1.48-1.48 2.176-9.69 1.04-12.257-.586-1.325-2.39-2.891-4.521-3.927-2.66-1.292-3.318-1.95-2.633-2.635 1.521-1.521 1.114-6.013-.631-6.946-2.394-1.281-5.801-.97-8.428.77-1.316.872-3.021 1.587-3.789 1.59s-1.396.553-1.396 1.222c0 1.491-2.248 2.372-7.915 3.103-5.234.675-6.736 1.397-10.707 5.147-5.844 5.519-8.188 14.092-6.027 22.041.923 3.394 4.287 7.578 6.093 7.578.598 0 2.373 1.249 3.945 2.776 3.408 3.309 5.79 3.86 17.051 3.943l8.422.062 3.855-3.39c2.12-1.865 4.164-3.39 4.541-3.39 1.28 0 .692 2.941-1.36 6.801-3.812 7.169-7.648 10.733-11.564 10.743-1.326.004-2.644.817-3.754 2.318-2.383 3.223-13.116 11.864-16.486 13.271-3.394 1.418-6.052 1.334-10.989-.346zm-121.584-20.757c-4.437-2.705-8.606-9.451-11.061-17.897-1.176-4.044-1.221-5.488-.367-11.542 1.668-11.818 2.276-12.179 3.798-2.263.513 3.342 1.607 6.618 2.825 8.457 2.275 3.438 4.645 4.036 15.997 4.036 8.223 0 10.426-.66 17.164-5.139 5.031-3.345 5.529-3.927 6.008-7.031 1.137-7.369 1.349-12.77.58-14.807a37.38 37.38 0 0 1-1.282-4.317c-.678-3.108-4.356-4.831-8.87-4.154-1.978.297-5.915.085-8.902-.479l-5.356-1.011-6.558 3.498c-3.607 1.924-6.801 3.255-7.098 2.958-.599-.599 5.019-7.807 6.085-7.807.369 0 2.843-1.938 5.498-4.306 6.412-5.722 13.168-8.456 20.891-8.456 5.598 0 5.752.056 8.692 3.147 3.276 3.443 6.067 9.962 7.192 16.795.955 5.797-.375 19.65-2.355 24.534l-3.231 8.193c-3.061 7.951-4.28 9.369-8.59 9.99-2.109.304-6.865 1.967-10.569 3.695-6.331 2.954-13.999 5.439-16.765 5.433-.676-.002-2.353-.689-3.728-1.527zm91.042 276.006c-4.448-2.016-5.712-3.748-6.71-9.196-1.349-7.359-1.099-14.418.632-17.833.825-1.628 1.747-4.575 2.049-6.549a57.87 57.87 0 0 1 1.683-7.179c.624-1.974 1.477-6.94 1.898-11.036s1.212-7.985 1.758-8.644c3.069-3.698 15.545 5.529 21.893 16.191 2.553 4.288 4.317 11.193 4.317 16.901 0 4.551-.423 5.671-5.325 14.108-1.02 1.755-2.373 4.3-3.008 5.656-1.397 2.985-5.992 6.629-9.464 7.506-5.79 1.462-6.648 1.469-9.723.076zm-7.144 50.235c-.839-1.357 1.956-15.956 3.673-19.19.812-1.529 1.476-3.414 1.476-4.188s.359-1.408.798-1.408.798-.514.798-1.143c0-1.857 2.542-2.129 7.609-.814 8.06 2.092 12.789 4.665 15.159 8.246 2.59 3.913 2.304 5.755-1.624 10.456-1.538 1.841-2.797 3.826-2.797 4.411s-.949 1.81-2.109 2.722l-2.109 1.659-2.477-1.585c-5.558-3.556-5.697-3.576-8.757-1.243-3.109 2.371-8.71 3.577-9.638 2.075zm-32.341 4.876c-7.944-3.314-9.659-4.427-14.17-9.195-4.044-4.276-5.082-6.47-3.336-7.052.463-.154.926-.859 1.03-1.566.186-1.265 3.11-5.085 7.592-9.918 1.254-1.352 2.42-2.788 2.59-3.191s2.762-2.797 5.759-5.319c3.957-3.331 6.097-4.587 7.817-4.587 3.027 0 7.076 2.077 7.076 3.63 0 .658 1.199 3.61 2.663 6.56l2.663 5.364-.951 6.437c-.679 4.599-1.952 8.521-4.458 13.738-3.438 7.156-3.563 7.3-6.299 7.281-1.536-.011-5.125-.993-7.977-2.182zm3.27-76c-2.689-1.795-5.254-3.948-5.701-4.783-1.679-3.138-2.463-10.127-1.526-13.607.901-3.345 6.642-13.688 8.277-14.913 1.99-1.49 20.738-6.495 21.495-5.739.511.511.327 2.241-.534 4.993l-3.637 11.788c-5.177 16.901-5.872 18.88-7.77 22.135-2.537 4.352-4.245 4.372-10.604.126zm-31.82 40.571c-2.876-6.968-5.75-15.931-5.75-17.931 0-1.035.57-2.753 1.267-3.816a5.47 5.47 0 0 0 .766-4.217c-.422-1.921-.176-2.431 1.555-3.22 1.131-.515 3.927-1.151 6.214-1.412 4.972-.568 10.873 1.601 12.941 4.757 1.782 2.719 1.843 9.767.114 13.062-1.16 2.21-13.54 16.135-14.906 16.766-.256.118-1.246-1.677-2.2-3.988zm-10.737-61.577c-1.646-.587-4.272-2.097-5.836-3.355s-3.916-2.879-5.226-3.603c-3.062-1.691-7.884-8.458-7.869-11.045.016-2.931.858-5.586 1.772-5.586.439 0 1.943 1.004 3.341 2.232 3.126 2.744 15.397 9.096 20.801 10.766 2.194.678 5.783 1.467 7.977 1.753 7.517.98 7.556 1.002 6.234 3.653-1.478 2.963-4.004 4.729-6.763 4.729-1.193 0-2.39.359-2.661.798-.704 1.139-8.231.922-11.767-.34zm-21.503 13.91c-1.188-.358-3.245-1.423-4.57-2.367-4.323-3.078-12.526-6.339-21.329-8.477-4.748-1.154-8.947-2.391-9.33-2.749-1.138-1.065 2.507-5.378 5.296-6.269 1.418-.453 5.006-1.234 7.973-1.736 4.884-.827 5.713-.761 8.774.698 7.407 3.529 17.312 14.898 17.333 19.894.008 1.897-.657 2.058-4.147 1.006zm-28.151-46.029c-6.433-1.479-7.937-2.257-12.471-6.454-2.71-2.508-6.929-7.068-9.374-10.133-3.822-4.788-4.435-6.023-4.358-8.774.276-9.963 2.851-12.774 11.705-12.774 5.383 0 6.075.214 11.596 3.59 6.432 3.933 12.874 9.268 12.874 10.662 0 .488.903 1.788 2.007 2.89 2.807 2.801 9.958 12.933 9.958 14.11 0 1.267-4.476 4.662-8.193 6.215-2.735 1.143-10.12 1.502-13.743.669zm-28.716 25.18c-4.705-1.087-19.041-8.282-22.427-11.256-5.353-4.7-6.698-10.905-2.801-12.921 1.26-.652 2.495-1.962 2.743-2.911.568-2.171 1.986-1.865 11.99 2.588 7.366 3.279 12.179 6.984 14.164 10.903.593 1.172 1.579 2.941 2.191 3.931 1.612 2.611 1.839 7.935.4 9.375-1.324 1.324-1.712 1.342-6.259.291z" fill="#fff"/></svg>