<?xml version="1.0" encoding="UTF-8" standalone="no"?>
<svg
   xmlns:dc="http://purl.org/dc/elements/1.1/"
   xmlns:cc="http://creativecommons.org/ns#"
   xmlns:rdf="http://www.w3.org/1999/02/22-rdf-syntax-ns#"
   xmlns:svg="http://www.w3.org/2000/svg"
   xmlns="http://www.w3.org/2000/svg"
   xmlns:sodipodi="http://sodipodi.sourceforge.net/DTD/sodipodi-0.dtd"
   xmlns:inkscape="http://www.inkscape.org/namespaces/inkscape"
   width="816"
   height="704"
   viewBox="0 0 612 528"
   preserveAspectRatio="xMidYMid meet"
   version="1.1"
   id="svg8"
   sodipodi:docname="face2.svg"
   inkscape:version="1.0.1 (3bc2e813f5, 2020-09-07)">
  <metadata
     id="metadata14">
    <rdf:RDF>
      <cc:Work
         rdf:about="">
        <dc:format>image/svg+xml</dc:format>
        <dc:type
           rdf:resource="http://purl.org/dc/dcmitype/StillImage" />
      </cc:Work>
    </rdf:RDF>
  </metadata>
  <defs
     id="defs12" />
  <sodipodi:namedview
     pagecolor="#ffffff"
     bordercolor="#666666"
     borderopacity="1"
     objecttolerance="10"
     gridtolerance="10"
     guidetolerance="10"
     inkscape:pageopacity="0"
     inkscape:pageshadow="2"
     inkscape:window-width="1920"
     inkscape:window-height="1027"
     id="namedview10"
     showgrid="false"
     inkscape:zoom="0.30539773"
     inkscape:cx="527.35683"
     inkscape:cy="732.52289"
     inkscape:window-x="1912"
     inkscape:window-y="-8"
     inkscape:window-maximized="1"
     inkscape:current-layer="svg8" />
  <path
     d="m 211.39637,77.319381 c -1.601,0.25279 -3.28626,0.75837 -3.70758,1.17969 -1.09542,1.01116 -2.44364,1.01116 -1.76953,-0.0843 0.67411,-1.17968 -0.16853,-1.09542 -2.78069,0.33706 -3.96037,2.02231 -6.40401,2.86495 -9.43749,3.37053 l -8.84764,1.76953 c -0.9269,0.16852 -3.03348,0.75837 -4.63448,1.17968 -1.60101,0.50558 -5.0558,1.43248 -7.5837,2.19085 -5.30859,1.43247 -8.17354,2.5279 -13.22934,4.71874 -2.02232,0.9269 -3.79185,1.60101 -4.04464,1.60101 -0.16852,0 -2.78068,1.09542 -5.64564,2.52789 -2.86495,1.34822 -5.56137,2.5279 -5.98269,2.5279 -1.51674,0 -12.80802,5.898429 -14.15623,7.330909 -0.75838,0.84263 -2.69643,2.44364 -4.21317,3.62332 -1.51674,1.17969 -3.28627,2.69643 -3.79185,3.37053 -6.31975,7.75223 -8.76338,11.03849 -8.76338,11.62834 0,0.33705 -0.9269,1.76953 -2.02232,3.202 l -5.39285,6.57254 c -1.8538,2.19085 -3.53906,5.0558 -3.79185,6.31975 -0.25279,1.17968 -0.9269,3.28627 -1.51674,4.71874 -0.589843,1.34821 -1.095423,2.69643 -1.179686,2.94922 -0.08426,0.25279 -0.337053,1.01116 -0.674107,1.68526 -0.252789,0.67411 -0.674106,2.35937 -0.842633,3.79185 -0.252789,1.34821 -0.842632,4.04464 -1.348212,5.89843 -0.589843,1.85379 -1.179686,5.47712 -1.348213,8.00501 l -0.926896,9.69028 c -1.601003,14.49329 -0.842633,30.67184 1.769529,39.18243 0.674106,2.10659 1.432476,5.56138 1.769529,7.75223 0.25279,2.27511 0.842633,4.04464 1.179686,4.04464 0.421317,0 1.348213,1.76952 2.190843,3.96037 0.75837,2.27511 2.27511,5.98269 3.37053,8.42633 1.09543,2.35937 2.02232,4.71874 2.02232,5.22432 0,0.42132 0.33706,0.9269 0.75837,1.09543 0.50558,0.0843 1.8538,2.19084 3.20201,4.55021 3.70758,6.6568 13.22934,20.39172 15.50444,22.24551 0.67411,0.58985 10.36439,20.39172 10.53292,21.48714 0,0.42132 0.42132,1.76953 0.9269,2.94922 l 3.11774,7.24664 c 1.17968,2.86495 2.19084,6.15122 2.19084,7.33091 0,1.17968 0.33706,2.35937 0.75837,2.69642 1.17969,0.67411 3.4548,8.17354 4.1289,13.22934 0.25279,2.44364 0.42132,11.88113 0.33706,20.8973 -0.16853,17.94808 1.34821,36.90732 3.202,40.53064 0.50558,0.84264 0.84264,2.5279 0.84264,3.87611 0,2.78069 2.35937,10.70144 4.97153,16.68414 3.79185,8.51059 21.5714,26.29014 30.50331,30.33478 1.60101,0.75837 4.97154,2.44364 7.49944,3.79185 2.52789,1.34821 5.64564,2.5279 6.82532,2.5279 1.17969,0 2.44364,0.25279 2.78069,0.58984 0.25279,0.33705 1.26395,0.67411 2.10658,0.84263 0.84264,0.0843 2.61217,0.67411 3.96038,1.17969 1.34821,0.58984 3.03348,1.09542 3.70758,1.17969 0.67411,0.0843 4.29743,0.92689 8.00502,1.93805 6.90959,1.76953 10.95422,2.44364 18.95924,3.03348 4.21316,0.33705 19.21203,0.75837 20.22319,0.50558 0.25279,0 3.70758,-0.25279 7.75222,-0.50558 4.04464,-0.16853 9.01617,-0.58984 10.95423,-0.75837 2.02232,-0.25279 6.31975,-0.58984 9.52175,-0.6741 8.17354,-0.33706 16.68413,-1.51674 17.86382,-2.44364 0.58984,-0.42132 1.43248,-0.58984 1.93806,-0.25279 0.50557,0.33705 1.51673,0.0843 2.19084,-0.50558 0.67411,-0.50558 1.43248,-0.75837 1.76953,-0.50558 0.25279,0.25279 1.43248,0 2.69643,-0.58984 1.17968,-0.67411 4.21316,-1.43248 6.57253,-1.76953 2.44364,-0.33706 4.71875,-0.9269 4.97154,-1.34821 0.25279,-0.42132 0.84263,-0.58985 1.26395,-0.25279 0.42131,0.25279 1.34821,0 2.02232,-0.50558 0.6741,-0.50558 1.601,-0.75837 2.10658,-0.42132 0.42131,0.25279 1.68526,-0.0843 2.69642,-0.75837 1.01116,-0.75837 2.69643,-1.34821 3.79185,-1.34821 1.01116,0 2.10658,-0.33706 2.35937,-0.84264 0.25279,-0.42131 1.26395,-0.84263 2.19085,-0.84263 0.9269,0 1.601,-0.58984 1.601,-1.34821 0,-0.84263 0.50558,-1.17969 1.26395,-0.84263 0.67411,0.25279 1.26395,0.0843 1.26395,-0.42132 0,-0.50558 0.42132,-0.58984 0.9269,-0.33705 0.42131,0.33705 1.51674,0 2.35937,-0.75837 0.84263,-0.75837 1.85379,-1.34822 2.27511,-1.26395 1.09542,0.25279 3.87611,-1.01116 5.64564,-2.44364 0.75837,-0.67411 1.68526,-1.01116 2.02232,-0.75837 0.25279,0.33705 0.92689,0.25279 1.43247,-0.0843 0.50558,-0.42132 2.61217,-1.26395 4.71875,-1.85379 2.10658,-0.67411 4.97153,-1.8538 6.31974,-2.69643 1.43248,-0.84263 3.37054,-1.51674 4.3817,-1.51674 1.01116,0 2.02232,-0.33705 2.35937,-0.84263 0.25279,-0.42132 1.01116,-0.58984 1.68526,-0.25279 0.67411,0.25279 1.26395,0.0843 1.26395,-0.42132 0,-0.42131 1.43248,-1.01116 3.20201,-1.26395 4.21316,-0.6741 6.74106,-1.26395 7.5837,-1.76953 0.42131,-0.25279 2.02231,-0.6741 3.62332,-0.92689 6.6568,-1.09543 8.08927,-1.43248 10.86996,-2.78069 1.601,-0.75837 3.11774,-1.68527 3.20201,-2.10658 0.16852,-0.33706 0.92689,-0.58985 1.68526,-0.58985 0.84264,0 3.53906,-1.93805 6.06696,-4.21316 2.5279,-2.27511 5.0558,-4.21317 5.56138,-4.21317 0.42131,0 1.93805,-1.09542 3.28627,-2.5279 1.34821,-1.34821 2.78068,-2.52789 3.11774,-2.52789 0.75837,0 2.02232,-0.9269 4.97153,-3.62333 0.9269,-0.84263 3.28627,-2.2751 5.22433,-3.28626 1.93805,-1.01116 3.70758,-2.10659 3.96037,-2.35938 0.25279,-0.25279 3.70759,-2.10658 7.66796,-4.04463 4.04464,-1.93806 7.5837,-4.12891 7.83649,-4.80301 0.25279,-0.67411 1.09542,-1.26395 1.85379,-1.26395 0.75837,0 1.85379,-0.58984 2.35937,-1.26395 0.75837,-1.01116 1.51674,-1.09542 3.87611,-0.42132 4.38169,1.26395 5.47712,1.01116 6.74107,-1.26395 0.58984,-1.09542 1.51674,-1.93805 1.93805,-1.85379 0.50558,0.0843 1.17969,-1.17969 1.43248,-2.78069 0.6741,-3.62332 3.28627,-9.26896 4.29743,-9.26896 0.42131,0 0.75837,-0.58984 0.75837,-1.26395 0,-0.75837 0.58984,-2.19085 1.26395,-3.28627 0.75836,-1.09542 1.26394,-2.35937 1.17968,-2.69642 -0.0843,-0.42132 0.84263,-2.94922 2.02232,-5.56138 1.26395,-2.69643 2.44364,-5.7299 2.69643,-6.82533 0.33705,-1.09542 2.61216,-4.1289 5.14006,-6.82532 2.5279,-2.69643 4.55021,-5.22433 4.55021,-5.64565 0,-0.42131 0.50558,-0.75836 1.17969,-0.75836 0.67411,0 1.51674,-1.17969 1.76953,-2.78069 0.33705,-1.43248 0.9269,-2.86496 1.17969,-3.11775 0.33705,-0.25279 1.26395,-2.69642 2.10658,-5.47711 0.92689,-2.78069 1.93805,-5.47711 2.35937,-6.06696 1.01116,-1.26395 4.04464,-13.81918 3.53906,-14.66181 -0.16853,-0.33705 0,-0.9269 0.50558,-1.17969 0.50558,-0.33705 0.6741,-1.26395 0.42132,-2.10658 -0.25279,-0.84263 -0.0843,-1.76953 0.42131,-2.10658 0.42132,-0.25279 0.84263,-1.85379 0.84263,-3.4548 0,-1.601 0.33706,-2.86495 0.75837,-2.86495 0.42132,0 1.01116,-1.43247 1.34822,-3.202 0.33705,-1.68527 1.09542,-3.70759 1.76953,-4.46596 1.01116,-1.17968 1.85379,-4.46595 1.93805,-8.59485 0.0843,-0.9269 0.42132,-1.26395 1.09542,-0.9269 0.50558,0.33705 0.67411,0.25279 0.42132,-0.25279 -0.33705,-0.50558 0.75837,-5.98269 2.35937,-12.21818 1.60101,-6.23548 3.11775,-13.56639 3.37054,-16.34708 l 0.84263,-8.84764 c 1.01116,-9.77454 0.25279,-27.04852 -1.26395,-28.98657 -0.42132,-0.50558 -1.17969,-2.5279 -1.85379,-4.63449 -1.43248,-4.97153 -16.09429,-32.10431 -17.6953,-32.69415 -0.33705,-0.16853 -0.6741,-0.75837 -0.6741,-1.34822 0,-0.58984 -1.76953,-2.86495 -3.87611,-5.14006 -2.10659,-2.27511 -4.46596,-5.22432 -5.22433,-6.48827 -0.75837,-1.26395 -1.68526,-2.35937 -2.02232,-2.35937 -0.33705,0 -0.6741,-0.33706 -0.6741,-0.75837 0,-1.17969 -14.66182,-15.50445 -21.06583,-20.72877 -5.64564,-4.63448 -16.5156,-10.53291 -19.21203,-10.53291 -0.84263,0 -1.85379,-0.33706 -2.35937,-0.75837 -0.75837,-0.84264 -7.66796,-2.94922 -13.81918,-4.29743 -1.601,-0.33706 -3.87611,-1.01116 -5.0558,-1.51674 -2.61216,-1.17969 -19.21203,-3.53906 -24.52062,-3.53906 -2.10658,0 -4.04463,-0.25279 -4.38169,-0.50558 -0.25279,-0.33705 -3.11774,-0.67411 -6.23548,-0.75837 -13.22934,-0.58984 -24.52062,-1.43248 -27.63836,-2.10658 -1.85379,-0.33705 -6.23548,-0.9269 -9.69028,-1.26395 -3.45479,-0.25279 -8.17354,-0.84263 -10.53291,-1.34821 -2.27511,-0.42132 -5.89843,-0.9269 -8.00501,-1.09543 -4.12891,-0.33705 -19.2963,-3.53905 -22.58257,-4.803 -1.09542,-0.421319 -3.03348,-0.758369 -4.38169,-0.758369 -1.34821,0 -2.61216,-0.33706 -2.86495,-0.75837 -0.25279,-0.42132 -2.27511,-1.01116 -4.46595,-1.34822 -2.27511,-0.33705 -5.39286,-1.17968 -6.99386,-1.85379 -1.601,-0.75837 -3.28627,-1.26395 -3.70758,-1.17968 -1.26395,0.33705 -8.08928,-1.93806 -8.08928,-2.61217 0,-0.33705 -0.25279,-0.58984 -0.58984,-0.50558 -0.42132,0 -1.26395,-0.0843 -1.93806,-0.33705 -1.76953,-0.67411 -14.74607,-4.63448 -19.80187,-6.06696 -3.70759,-1.09542 -7.41517,-1.601 -18.53793,-2.69642 -2.44363,-0.16853 -9.26896,-1.34822 -17.69529,-2.94922 -5.89843,-1.17968 -14.9146,-2.44363 -16.43134,-2.27511 -0.67411,0.0843 -2.61216,0.25279 -4.21317,0.42132 z m 14.2405,7.49943 c 0.25279,0.42132 2.19085,0.84264 4.29743,1.01116 2.10658,0.0843 3.87611,0.50558 4.04464,0.9269 0.0843,0.33705 1.17968,0.50558 2.27511,0.25279 1.17968,-0.16853 2.10658,0 2.10658,0.33705 0,0.42132 2.10658,0.84263 4.71874,0.84263 2.61217,0.0843 5.14006,0.58985 5.64564,1.09543 0.50558,0.50558 3.62333,0.92689 6.90959,0.92689 3.37054,0 6.31975,0.25279 6.6568,0.58985 0.25279,0.33705 1.17969,0.58984 2.02232,0.6741 2.86496,0.25279 7.33091,1.51674 8.34207,2.27511 0.58984,0.42132 1.85379,0.50558 2.94921,0.25279 1.09543,-0.33705 1.68527,-0.33705 1.34822,0 -0.67411,0.75837 3.03348,2.94922 4.88727,2.94922 1.76953,0 9.10043,2.61216 9.60601,3.454789 0.25279,0.42132 2.35938,0.84264 4.71875,1.01116 2.27511,0.16853 5.64564,1.01116 7.49943,1.85379 1.76953,0.9269 3.87611,1.68527 4.55022,1.76953 0.75837,0.0843 3.45479,0.58985 5.98269,1.09543 l 5.89843,1.17968 c 0.67411,0.0843 2.61217,0.84264 4.21317,1.51674 2.61216,1.17969 10.53291,3.03348 16.85266,3.79185 6.99385,0.9269 9.8588,3.70758 5.56137,5.39285 -1.17968,0.42132 -2.19084,1.01116 -2.19084,1.26395 0,1.34821 1.85379,3.79185 2.94921,3.79185 1.17969,0 3.79185,2.19084 3.79185,3.28627 0,0.33705 -1.51674,1.26395 -3.37053,2.10658 -1.85379,0.84263 -3.79185,2.19084 -4.21316,3.03348 -0.75837,1.34821 -0.50558,1.76953 1.26395,2.19084 1.17968,0.25279 3.37053,0 4.803,-0.58984 3.96038,-1.601 10.36439,-1.17969 13.3136,0.9269 1.43248,1.01116 2.5279,2.27511 2.5279,2.78069 0,0.58984 0.75837,2.44363 1.68527,4.21316 0.92689,1.68527 1.43247,3.11774 1.17968,3.11774 -0.33705,0 -0.16852,0.50558 0.33706,1.01116 1.43247,1.76953 1.01116,7.5837 -0.75837,9.85881 -2.02232,2.61216 -2.02232,3.96037 0.0843,4.55021 2.19085,0.58985 3.11774,3.20201 3.79185,11.0385 0.58984,7.07811 0.42132,7.3309 -4.21317,5.05579 -3.79184,-1.76953 -6.6568,-1.26395 -6.99385,1.09543 -0.16853,1.34821 0.16853,1.93805 1.01116,1.93805 0.75837,0 1.34821,0.58985 1.34821,1.26395 0,0.75837 0.84264,1.26395 1.93806,1.34821 1.01116,0 2.44363,0.16853 3.11774,0.33706 2.02232,0.42131 7.24664,2.86495 6.31975,2.94921 -0.42132,0 0.42131,0.58985 1.93805,1.26395 1.43248,0.67411 2.69643,1.601 2.69643,2.10658 a 0.91004357,0.91004357 0 0 0 0.84263,0.84264 c 0.50558,0 0.84263,-0.67411 0.84263,-1.51674 0,-1.09542 0.16853,-1.17969 0.75837,-0.25279 1.17969,1.76953 4.29743,-0.33706 4.29743,-2.94922 0,-1.34821 0.42132,-2.02232 1.01116,-1.85379 2.27511,0.75837 3.62332,-1.76953 3.37053,-6.15122 -0.33705,-4.1289 -0.33705,-4.21316 -2.94921,-3.96037 -2.27511,0.16852 -2.78069,0.6741 -3.11774,2.69642 -0.25279,1.34821 -0.84264,2.61216 -1.43248,2.78069 -1.17969,0.42132 -3.70758,-3.11774 -4.04464,-5.81417 -0.0843,-1.09542 -0.50558,-3.70758 -0.84263,-5.89843 -0.75837,-5.14006 -0.0843,-6.99385 3.45479,-8.67912 1.60101,-0.75837 2.69643,-1.601 2.5279,-2.02232 -0.25279,-0.33705 -0.0843,-1.09542 0.33706,-1.76953 1.17968,-1.93805 -0.58985,-3.28626 -3.70759,-2.78068 -2.44363,0.33705 -2.86495,0.16852 -3.28627,-1.51674 -0.25279,-1.09543 -1.43247,-4.63449 -2.61216,-7.92075 -2.10658,-5.64564 -2.02232,-6.74107 0.58984,-7.24665 0.84264,-0.16852 2.10659,-0.50558 2.94922,-0.75837 0.33705,-0.0843 0.84263,-0.16852 1.26395,-0.0843 0.33705,0 0.58984,-0.42132 0.58984,-1.01116 0,-1.76953 -3.62332,-3.45479 -7.83648,-3.62332 -2.69643,-0.0843 -4.63449,-0.67411 -5.89844,-1.76953 -1.01115,-0.9269 -3.96037,-2.86495 -6.57253,-4.38169 -2.61216,-1.43248 -5.22433,-3.20201 -5.81417,-3.87611 -0.58984,-0.67411 -1.85379,-1.26395 -2.78069,-1.26395 -1.17968,0 -1.51674,-0.25279 -0.92689,-0.84264 1.17968,-1.17968 8.17354,-1.601 12.3867,-0.6741 4.04464,0.84263 7.83649,1.26395 15.75724,1.601 3.03347,0.16853 5.7299,0.67411 6.06695,1.09542 0.42132,0.58985 1.68527,0.58985 3.79185,0 1.85379,-0.50558 4.46596,-0.50558 6.15122,-0.16852 1.601,0.33705 6.15122,0.84263 10.1116,1.09542 15.67297,1.01116 23.59372,2.02232 25.7003,3.37053 1.01116,0.58984 4.29743,1.51674 7.49943,1.93806 3.11775,0.50558 6.15123,1.26395 6.6568,1.76953 0.58985,0.42131 2.44364,1.01116 4.21317,1.34821 1.68527,0.33705 3.11774,0.9269 3.11774,1.34821 0,0.42132 0.50558,0.50558 1.17969,0.25279 0.6741,-0.25279 1.43247,-0.0843 1.68526,0.42132 0.33706,0.50558 1.09543,0.6741 1.68527,0.42131 0.58984,-0.25278 1.34821,0.16853 1.601,0.84264 0.25279,0.6741 1.17969,1.01116 2.10658,0.75837 1.01116,-0.25279 1.8538,0.0843 2.10659,0.92689 0.33705,0.75837 1.43247,1.34822 2.61216,1.34822 1.26395,0 2.27511,0.58984 2.61216,1.601 0.25279,0.9269 1.601,1.85379 3.20201,2.19084 1.601,0.33706 2.19084,0.75837 1.51674,1.01116 -0.84264,0.33706 -0.25279,1.01116 1.76952,2.27511 1.60101,0.9269 2.94922,1.93806 2.86496,2.19085 -0.16853,0.84263 10.02733,10.95423 11.12275,10.95423 0.50558,0 1.01116,0.75837 1.01116,1.68526 0,0.9269 0.42132,1.51674 1.09542,1.26395 0.50558,-0.16852 2.02232,1.01116 3.37054,2.78069 l 3.79184,5.0558 c 0.75837,1.09542 3.03348,3.70758 4.97154,5.7299 2.10658,2.27511 3.37053,4.29743 3.03348,5.0558 -0.25279,0.67411 0.0843,1.17969 0.84263,1.17969 0.67411,0 1.51674,1.01116 1.85379,2.27511 0.25279,1.34821 1.09542,2.94921 1.68527,3.62332 0.58984,0.6741 1.17968,1.601 1.26395,2.10658 0.50558,2.35937 1.76953,4.71874 2.86495,5.14006 0.58984,0.25279 1.34821,1.601 1.68526,2.94922 0.25279,1.43247 1.17969,3.62332 2.02232,4.803 0.9269,1.26395 1.8538,3.37053 2.19085,4.63448 0.33705,1.26395 0.84263,2.10659 1.26395,1.93806 1.51674,-0.9269 3.53906,13.98771 3.11774,21.82419 l -0.50558,8.84765 c -0.16853,3.96037 -2.10658,15.8415 -3.87611,23.1724 l -2.27511,10.1116 c -0.33705,1.68527 -0.9269,3.45479 -2.27511,6.74106 -0.6741,1.60101 -1.76953,4.55022 -2.10658,5.47712 -0.0843,0.25279 -0.58984,1.51674 -1.09542,2.78069 -0.58985,1.34821 -1.01116,3.202 -1.01116,4.21316 0,1.01116 -0.67411,3.79185 -1.60101,6.15122 -0.84263,2.35937 -1.85379,6.15122 -2.19084,8.42633 -0.33705,2.27511 -1.01116,4.88727 -1.51674,5.81417 -0.50558,0.92689 -1.01116,1.85379 -1.09542,2.10658 0,0.25279 -0.25279,1.01116 -0.58985,1.68527 -0.25279,0.6741 -0.92689,2.78068 -1.43247,4.63448 -2.35937,8.00501 -8.17354,18.53792 -12.30244,22.24551 -4.29743,3.96037 -5.0558,4.97153 -7.41517,11.29128 -0.84264,2.19084 -2.02232,3.96037 -2.61217,3.96037 -1.51673,0 -7.16238,-7.83648 -7.16238,-9.77454 0.0843,-2.44363 2.19085,-5.81417 3.70759,-5.81417 0.75837,0 1.34821,-0.25279 1.34821,-0.6741 0,-0.33706 0.9269,-1.60101 2.10658,-2.78069 2.78069,-2.78069 2.86496,-6.48828 0.25279,-6.06696 -1.09542,0.16853 -2.44363,1.26395 -3.03347,2.5279 -0.67411,1.43248 -1.76953,2.35937 -2.78069,2.35937 -0.84264,0 -1.60101,0.42132 -1.60101,0.9269 0,0.50558 -0.84263,0.75837 -1.85379,0.58984 -1.51674,-0.16853 -2.10658,-1.26395 -3.28627,-6.15122 -1.17968,-4.88727 -2.10658,-14.07197 -1.68526,-17.77955 0.0843,-0.50558 1.26395,-2.10659 2.61216,-3.53906 1.34821,-1.51674 2.5279,-3.28627 2.5279,-3.96038 0,-0.84263 0.42132,-1.09542 1.01116,-0.75837 0.58984,0.42132 0.6741,0.25279 0.25279,-0.42131 -0.33705,-0.58985 0.16852,-1.8538 1.26395,-3.03348 1.09542,-1.09542 2.02232,-2.94922 2.10658,-4.1289 0.16853,-1.09543 0.50558,-2.78069 0.84263,-3.79185 0.33706,-1.09542 0.16853,-1.76953 -0.42131,-1.76953 -1.43248,0 -4.55022,4.1289 -5.0558,6.57254 -0.42132,2.10658 -2.86495,4.29742 -3.79185,3.37053 -0.75837,-0.67411 -1.34821,-3.87611 -1.76953,-9.35323 -0.33705,-4.63448 -0.25279,-5.05579 2.19085,-7.3309 1.34821,-1.26395 2.5279,-2.78069 2.5279,-3.20201 0,-0.50558 0.42131,-1.01116 0.84263,-1.17969 1.601,-0.50557 1.76953,-6.31974 0.16853,-8.2578 -1.26395,-1.51674 -1.60101,-1.601 -3.03348,-0.58984 -1.01116,0.75837 -1.60101,2.27511 -1.68527,4.04464 -0.0843,2.44363 -0.42132,2.86495 -2.27511,3.11774 -1.76953,0.16853 -2.61216,-0.50558 -4.97153,-4.21317 -1.601,-2.44363 -3.87611,-5.81416 -5.14006,-7.41517 -2.27511,-3.03347 -3.62332,-6.74106 -2.44364,-6.74106 0.33705,0 0.84263,-0.9269 1.01116,-2.10658 0.58984,-2.78069 -1.26395,-4.1289 -5.14006,-3.96038 -2.27511,0.16853 -3.62332,-0.25279 -4.63448,-1.43247 -1.93806,-2.19085 -7.66796,-5.14006 -9.77454,-5.14006 -0.9269,0 -1.93806,0.6741 -2.35938,1.43247 -0.84263,1.60101 0.0843,5.30859 1.34822,5.30859 0.42131,0 1.17968,0.9269 1.76953,2.02232 0.92689,1.76953 0.84263,2.19085 -1.17969,4.21316 -1.17969,1.26395 -2.10658,2.69643 -1.85379,3.28627 0.42131,1.34822 6.6568,0.84264 7.66796,-0.58984 0.92689,-1.34821 4.55022,0.0843 5.22432,2.19085 0.25279,0.75836 1.601,2.69642 2.94922,4.1289 4.63448,4.97153 7.83648,13.48212 4.55021,12.21817 -0.6741,-0.25279 -1.26394,-0.0843 -1.26394,0.42132 0,0.50558 -0.33706,0.58984 -0.84264,0.33705 -0.42131,-0.25279 -1.601,0.25279 -2.61216,1.17969 -1.51674,1.43248 -1.68527,1.93806 -0.75837,3.03348 0.58984,0.6741 0.75837,1.26395 0.50558,1.26395 -0.33705,0 -0.33705,0.42131 -0.0843,0.84263 0.42131,0.67411 0.92689,0.58984 1.76953,-0.0843 0.6741,-0.50558 2.44363,-1.26395 3.96037,-1.60101 2.27511,-0.42131 3.03348,-0.16852 4.97154,1.76953 1.85379,1.93806 2.2751,3.20201 2.78068,9.35323 0.75837,9.52175 0.50558,10.7857 -2.86495,13.06081 -1.85379,1.26395 -2.94921,2.78069 -3.11774,4.1289 -0.16853,1.34821 0.16853,2.02232 0.75837,1.76953 0.58984,-0.16853 2.02232,0.33705 3.20201,1.17969 1.93805,1.34821 2.2751,2.35937 3.28626,11.29128 l 1.09543,9.77454 -2.78069,2.35937 c -1.93806,1.60101 -2.61216,2.78069 -2.27511,3.70759 0.67411,1.85379 3.28627,2.94921 3.79185,1.601 0.16852,-0.67411 1.01116,-0.50558 2.5279,0.50558 2.86495,1.76953 3.45479,2.69643 2.94921,4.1289 -0.25279,0.58984 0.16853,1.34821 0.9269,1.601 0.75837,0.25279 1.34821,1.01116 1.34821,1.68527 0,0.67411 0.50558,1.17969 1.17969,1.17969 0.58984,0 1.34821,0.6741 1.51674,1.43247 0.25279,0.84263 0.50558,1.85379 0.58984,2.35937 0.16853,0.42132 0.58984,1.43248 1.01116,2.19085 2.10658,3.96037 -4.80301,13.39786 -12.89229,17.52676 -2.02231,1.01116 -3.96037,2.35938 -4.46595,2.86496 -0.42132,0.58984 -2.19085,1.68526 -3.79185,2.44363 -6.06696,3.03348 -12.30244,6.74107 -13.98771,8.34207 -0.92689,0.84263 -2.2751,1.601 -2.94921,1.601 -0.67411,0 -2.94922,1.68527 -5.14006,3.79185 -2.27511,2.02232 -4.04464,3.45479 -4.04464,3.11774 0,-0.33705 -0.50558,0 -1.09542,0.67411 -0.58985,0.6741 -2.35937,2.27511 -3.96038,3.53906 -1.601,1.17968 -4.46595,3.62332 -6.31974,5.30858 -1.8538,1.60101 -4.29743,3.20201 -5.47712,3.4548 -1.17968,0.25279 -3.62332,0.92689 -5.47711,1.601 -1.85379,0.58984 -5.0558,1.34821 -7.16238,1.601 -3.79185,0.58985 -11.54407,2.61217 -14.74608,3.96038 -0.92689,0.33705 -3.37053,1.26395 -5.47711,1.93805 -2.10659,0.67411 -5.14006,1.76953 -6.74107,2.44364 -6.48827,2.78069 -9.10043,3.79185 -14.07197,5.30859 -2.94921,0.92689 -5.30858,1.85379 -5.30858,2.19084 0,0.42132 -0.9269,0.67411 -2.02232,0.67411 -1.17969,0 -2.35938,0.42132 -2.69643,0.92689 -0.50558,0.84264 -1.68526,1.43248 -8.76338,4.3817 -1.17969,0.42131 -2.86495,1.01116 -3.79185,1.17968 -2.10658,0.33706 -17.18971,4.46596 -18.95924,5.0558 -0.67411,0.33705 -1.601,0.42132 -1.93806,0.33705 -0.42131,-0.0843 -3.03347,0.42132 -5.89843,1.17969 -2.78069,0.67411 -9.10043,1.51674 -13.9877,1.68527 l -11.45981,0.75836 -7.5837,0.84264 c -9.94307,1.17968 -29.32362,1.09542 -37.07585,-0.0843 -8.00501,-1.17968 -18.53792,-4.04463 -29.49215,-7.83648 -2.10658,-0.67411 -9.69028,-4.1289 -11.37554,-5.14006 -0.67411,-0.42132 -2.61217,-1.43248 -4.21317,-2.35938 -8.59485,-4.71874 -21.82419,-17.35823 -26.12162,-24.85767 -3.37053,-5.98269 -6.82533,-19.71761 -8.42633,-33.36826 l -1.26395,-10.53291 c -0.16853,-1.43248 -0.42131,-9.77454 -0.50558,-18.53793 0,-8.84764 -0.33705,-16.34708 -0.58984,-16.85266 -0.25279,-0.42131 -0.42132,-2.2751 -0.25279,-4.04463 0.16853,-2.02232 -0.25279,-3.79185 -1.09542,-4.71875 -0.75837,-0.84263 -1.43248,-2.61216 -1.43248,-3.96037 -0.0843,-1.34822 -0.84263,-4.04464 -1.68527,-5.9827 -0.92689,-2.02232 -1.601,-4.29743 -1.601,-5.22432 0,-0.84263 -0.58984,-2.02232 -1.26395,-2.61216 -0.75837,-0.58985 -1.93805,-2.35938 -2.69642,-4.04464 -1.26395,-2.69643 -1.26395,-2.94922 0,-3.96038 0.75837,-0.58984 1.43247,-1.51674 1.43247,-2.02232 0,-0.58984 0.33706,-0.84263 0.75837,-0.50558 0.42132,0.25279 1.01116,0.0843 1.34822,-0.42131 0.25278,-0.42132 1.09542,-0.84263 1.76952,-0.84263 1.34822,0 4.55022,-2.94922 4.55022,-4.21317 0,-0.50558 0.42132,-0.84263 0.9269,-0.84263 0.50558,0 0.75837,-0.58985 0.50558,-1.17969 -0.75837,-1.85379 2.61216,-2.61216 4.38169,-1.01116 0.84263,0.75837 2.02232,1.34821 2.69642,1.34821 0.67411,0 1.60101,0.33706 2.02232,0.67411 0.50558,0.33705 2.27511,1.17969 4.04464,1.76953 2.86495,0.9269 3.4548,0.9269 4.88727,-0.42132 1.60101,-1.43247 2.27511,-4.21316 0.84264,-3.28626 -0.42132,0.25279 -2.61217,-0.67411 -4.88728,-2.02232 a 80.564135,80.564135 0 0 0 -6.74106,-3.87612 c -2.61216,-1.34821 -3.79185,-3.28626 -4.04464,-6.57253 -0.0843,-0.75837 0.25279,-1.43248 0.67411,-1.43248 0.42132,0 0.58984,-0.84263 0.33705,-1.93805 -0.75837,-2.94922 0.42132,-3.87612 5.39285,-4.38169 5.30859,-0.58985 7.49944,-2.10659 5.81417,-4.12891 -0.58984,-0.75837 -2.35937,-1.34821 -4.04464,-1.34821 -3.11774,0 -6.06695,-1.93805 -6.06695,-3.96037 0,-0.58985 -0.42132,-1.09543 -0.9269,-1.09543 -0.58984,0 -0.75837,-0.84263 -0.58984,-2.10658 0.25279,-1.17969 0.16852,-2.10658 -0.0843,-2.10658 -0.50558,0 -0.6741,-0.75837 -1.01116,-5.47712 -0.0843,-1.17968 -0.42131,-2.10658 -0.84263,-2.10658 -0.42132,0 -0.75837,-0.6741 -0.75837,-1.51674 0,-0.75837 -1.17969,-3.37053 -2.5279,-5.64564 -1.93805,-3.202 -2.5279,-5.22432 -2.5279,-8.67912 0,-4.46595 -0.42131,-5.05579 -3.87611,-5.56137 -0.75837,-0.0843 -2.02232,-1.68527 -2.69642,-3.53906 -0.75837,-1.76953 -1.60101,-3.4548 -1.8538,-3.70759 -1.01116,-0.75837 -1.51674,-4.21316 -0.6741,-4.21316 2.02232,0 5.64564,-6.23549 4.04464,-7.16238 -0.33706,-0.25279 -0.84264,0 -1.01116,0.58984 -0.25279,0.67411 -1.34822,0.50558 -3.62333,-0.67411 -2.86495,-1.34821 -3.53905,-2.19084 -4.71874,-6.23548 -0.75837,-2.5279 -1.26395,-5.81417 -1.26395,-7.16238 0.0843,-1.43248 -0.16853,-2.78069 -0.58984,-3.03348 -0.33706,-0.25279 -0.33706,-1.43247 0.0843,-2.5279 0.50558,-1.26395 0.42132,-4.21316 -0.25279,-7.92075 -0.58984,-3.28626 -0.67411,-6.23548 -0.33705,-6.74106 0.42131,-0.42132 0.75837,-1.43248 0.75837,-2.27511 0,-0.92689 0.84263,-1.68526 2.35937,-2.02232 3.202,-0.84263 5.56138,-2.5279 6.90959,-4.97153 0.58984,-1.17969 1.601,-2.10658 2.19085,-2.10658 0.58984,0 1.17968,-0.25279 1.34821,-0.67411 0.16852,-0.33705 1.34821,-1.17969 2.69642,-1.85379 1.68527,-0.9269 2.5279,-2.02232 2.69643,-3.79185 0.42132,-3.70759 -0.75837,-5.22433 -3.20201,-4.04464 -9.26896,4.38169 -11.71259,5.81417 -14.66181,8.42633 -2.94921,2.78069 -3.87611,3.11774 -9.26897,3.53906 -7.83648,0.6741 -10.86996,3.202 -7.41517,6.06696 1.17969,0.92689 1.51674,0.92689 2.35938,-0.0843 1.01116,-1.34821 4.71874,-1.26395 4.71874,0.0843 0,0.42131 0.58984,0.75837 1.26395,0.75837 1.01116,0 1.26395,1.51673 1.34821,8.17353 0,4.55022 0.25279,10.70144 0.58985,13.73492 0.84263,7.49943 0.6741,8.00501 -3.87612,9.35323 -3.03347,0.92689 -3.96037,1.601 -3.96037,2.86495 0,1.26395 0.50558,1.601 1.93806,1.51674 1.01115,-0.16853 1.85379,0.16852 1.85379,0.6741 0,0.42132 0.33705,0.58985 0.84263,0.33706 a 2.022319,2.022319 0 0 1 1.93806,0.16852 c 0.92689,0.58985 1.26395,0.75837 2.94922,1.01116 0.33705,0 1.09542,1.34822 1.68526,2.78069 a 43.13438,43.13438 0 0 0 1.93806,4.21317 c 0.42131,0.84263 0.75837,2.44363 0.75837,3.62332 0,1.17969 0.42131,2.10658 0.84263,2.10658 0.50558,0 0.75837,0.25279 0.67411,0.58984 -0.0843,0.42132 0.50558,1.76953 1.34821,3.03348 2.5279,3.70759 2.44364,6.40401 -0.16853,7.5837 -3.45479,1.43248 -7.75222,4.88727 -7.75222,6.06696 0,0.58984 0.58984,1.51674 1.26395,2.10658 1.01116,0.84263 1.26395,0.84263 1.26395,-0.33705 0,-0.75837 0.42132,-1.34822 0.92689,-1.34822 0.42132,0 0.58985,0.50558 0.25279,1.01116 -0.33705,0.67411 0,0.58985 1.01116,-0.16852 4.46596,-3.53906 7.83649,-4.21317 9.77455,-2.19085 4.1289,4.38169 5.98269,7.66796 6.23548,11.03849 0.16853,1.34821 0.58984,3.87611 1.01116,5.56138 1.17969,4.63448 0.16853,5.64564 -4.88727,5.14006 -5.39285,-0.50558 -8.67912,1.01116 -7.92075,3.53906 0.67411,2.19084 2.10658,3.202 3.28627,2.19084 1.68526,-1.43247 5.64564,-0.25279 8.00501,2.35938 3.79185,4.1289 3.20201,13.14507 -0.58984,9.35322 -0.50558,-0.50558 -2.5279,-1.68526 -4.29743,-2.44363 -3.28627,-1.51674 -3.4548,-1.51674 -4.88727,0.0843 -1.26395,1.43248 -1.34821,1.85379 -0.33705,3.70758 0.58984,1.17969 1.26394,1.93806 1.51673,1.76953 0.67411,-0.6741 7.75223,6.82533 7.75223,8.25781 0,2.94921 -7.66796,4.803 -10.28012,2.44363 -0.84264,-0.75837 -1.51674,-1.68526 -1.51674,-2.02232 0,-1.93805 -11.45982,-19.38055 -18.36941,-28.14394 -1.68526,-2.02232 -8.59485,-13.9877 -8.59485,-14.74607 0,-0.42132 -0.75837,-2.02232 -1.68527,-3.53906 -0.92689,-1.51674 -1.68526,-3.37053 -1.68526,-4.1289 0,-0.67411 -0.75837,-2.86496 -1.68527,-4.80301 -0.9269,-1.85379 -1.68527,-3.87611 -1.68527,-4.38169 0,-0.42132 -0.42131,-1.601 -0.84263,-2.5279 -0.50558,-0.9269 -1.17968,-2.35937 -1.601,-3.20201 -0.42132,-0.84263 -0.58984,-6.15122 -0.42132,-11.88112 0.16853,-6.57254 0,-10.1116 -0.50558,-9.77454 -0.505577,0.25279 -0.84263,0.16852 -0.84263,-0.33706 0,-0.42131 0.25279,-1.01116 0.67411,-1.17968 0.50558,-0.42132 0.58984,-5.47712 0.0843,-20.81304 -0.0843,-3.03347 0.25279,-6.31974 0.75837,-7.3309 0.58984,-1.01116 1.01116,-2.35937 1.01116,-3.03348 0,-0.67411 0.58984,-1.68527 1.26394,-2.27511 1.01116,-0.84263 1.09543,-1.26395 0.33706,-1.76953 -0.84263,-0.50558 -0.84263,-0.92689 0,-1.93805 0.92689,-1.09543 0.92689,-1.34822 0,-1.34822 -0.67411,0 -0.50558,-0.42131 0.50558,-1.09542 0.84263,-0.67411 1.26395,-1.51674 1.01116,-2.02232 -0.25279,-0.42132 0.0843,-1.85379 0.75837,-3.11774 0.58984,-1.34821 1.17968,-2.69643 1.17968,-3.11774 0,-1.34822 2.94922,-7.49944 3.53906,-7.49944 0.42132,0 0.67411,-0.84263 0.67411,-1.93805 0,-1.51674 0.16852,-1.601 0.84263,-0.58984 0.75837,1.17968 1.17969,0.58984 0.9269,-1.09543 -0.25279,-1.601 9.60601,-13.39786 10.44865,-12.55523 0.33705,0.33705 0.50558,0.16853 0.42131,-0.25279 -0.42131,-1.93805 0.0843,-4.63448 0.75837,-4.63448 0.9269,0 4.46596,-2.86495 7.66797,-6.15122 2.44363,-2.5279 6.23548,-4.80301 8.00501,-4.80301 0.58984,0 1.51674,-0.50558 2.02232,-1.17968 0.50558,-0.58985 2.44364,-1.34822 4.21317,-1.68527 1.85379,-0.25279 3.87611,-1.09542 4.63448,-1.76953 0.6741,-0.6741 1.85379,-1.01116 2.5279,-0.75837 0.84263,0.33705 1.51673,0 1.85379,-0.84263 0.25279,-0.75837 1.17968,-1.348209 2.02232,-1.348209 0.92689,0 1.76953,-0.33706 2.02232,-0.75837 0.25279,-0.33706 1.68526,-0.9269 3.11774,-1.26395 1.43247,-0.25279 3.79185,-1.01116 5.22432,-1.68527 2.94922,-1.34821 7.41517,-2.5279 8.42633,-2.35937 0.33705,0.0843 2.02232,-0.42132 3.79185,-1.17969 1.68527,-0.75837 4.21316,-1.51674 5.56138,-1.68526 1.34821,-0.16853 2.94921,-0.75837 3.45479,-1.17969 0.58984,-0.50558 1.601,-0.67411 2.35937,-0.42132 0.67411,0.33706 2.61217,-0.0843 4.3817,-0.75837 1.76952,-0.75836 4.21316,-1.34821 5.56137,-1.34821 1.34822,0 3.11774,-0.33705 3.96038,-0.75837 3.96037,-2.10658 18.95924,-3.03348 20.30745,-1.26395 z m -18.03234,49.715349 -6.06696,2.44363 c -1.43248,0.67411 -3.11774,1.26395 -3.70759,1.26395 -0.50558,0 -2.2751,1.51674 -3.87611,3.37053 -1.601,1.8538 -3.53906,3.37053 -4.21316,3.37053 -0.75837,0 -1.17969,0.25279 -0.84263,0.50558 0.25279,0.25279 -1.43248,2.78069 -3.70759,5.64565 -2.27511,2.86495 -4.1289,5.81416 -4.1289,6.57253 0,0.84263 -0.33705,1.68527 -0.75837,2.02232 -1.51674,0.9269 -3.4548,9.60602 -3.4548,15.42018 0,6.90959 2.02232,17.35824 3.87612,20.22319 2.2751,3.4548 7.66796,8.59486 9.01617,8.59486 0.75837,0 1.68526,0.50558 2.02232,1.01116 1.01116,1.601 4.46595,3.37053 4.46595,2.27511 0,-0.50558 0.42132,-0.58984 1.09542,-0.16853 1.26395,0.75837 2.61217,0.84263 6.74107,0.16853 1.68526,-0.33705 3.37053,-0.16853 3.62332,0.25279 0.25279,0.42131 0.9269,0.25279 1.43248,-0.42132 0.58984,-0.6741 2.19084,-1.601 3.53905,-2.10658 1.43248,-0.42132 3.28627,-1.17969 4.21317,-1.51674 0.92689,-0.33705 2.02232,-0.50558 2.44363,-0.42132 0.33706,0.0843 1.09543,-0.25279 1.68527,-0.6741 0.50558,-0.42132 2.35937,-0.67411 4.04464,-0.50558 1.85379,0.16852 3.53906,-0.16853 4.04464,-0.84264 0.50558,-0.58984 1.93805,-0.92689 3.37053,-0.75836 1.34821,0.16852 2.61216,0 2.86495,-0.42132 0.25279,-0.42132 1.43248,-0.50558 2.69643,-0.25279 1.68526,0.33705 2.10658,0.0843 1.85379,-0.75837 -0.25279,-0.67411 0.25279,-2.10658 1.01116,-3.28627 0.75837,-1.17969 1.68526,-3.79185 2.02232,-5.81417 0.33705,-2.02232 1.34821,-4.38169 2.19084,-5.14006 0.9269,-0.75837 1.43248,-1.68526 1.09542,-1.93805 -0.25278,-0.33706 0.50558,-2.02232 1.68527,-3.87611 2.02232,-2.94922 2.19085,-3.79185 1.51674,-7.16238 -0.33705,-2.10659 -0.50558,-4.04464 -0.25279,-4.21317 0.75837,-0.84263 1.09542,-9.10043 0.33705,-8.59486 -0.42131,0.25279 -0.75837,-0.6741 -0.84263,-2.02231 0,-1.43248 -0.9269,-3.79185 -2.02232,-5.30859 -1.93805,-2.78069 -8.17354,-8.67912 -10.7857,-10.28012 -0.75837,-0.42132 -2.35937,-1.51674 -3.4548,-2.27511 -2.10658,-1.43248 -12.04965,-4.29743 -18.03234,-5.14006 -2.02232,-0.33706 -4.71874,0 -6.74106,0.75837 z m 14.74607,7.3309 c 1.17969,0.50558 2.35938,0.84264 2.78069,0.75837 0.33705,-0.0843 0.58984,0.25279 0.58984,0.75837 0,0.42132 0.33706,0.58985 0.84264,0.33706 1.01116,-0.58985 4.97153,1.85379 6.99385,4.38169 0.84263,1.01116 2.19085,2.10658 3.11774,2.35937 0.9269,0.33705 2.69643,2.78069 4.21317,5.89843 3.202,6.74106 3.70758,15.42018 1.01116,20.39172 l -3.79185,7.3309 c -3.70759,6.82533 -7.33091,8.93191 -15.50445,8.93191 -2.10658,0 -2.94921,0.50558 -3.79185,2.27511 -1.34821,2.78069 -3.70758,3.96038 -10.02733,5.39285 -4.1289,0.84263 -5.98269,0.75837 -10.44865,-0.33705 -4.04463,-1.01116 -12.04965,-8.84765 -10.95422,-10.70144 0.25279,-0.50558 0.0843,-0.84263 -0.33706,-0.84263 -0.50558,0 -0.92689,-0.75837 -0.92689,-1.68527 0,-0.92689 -0.33706,-1.68526 -0.84264,-1.68526 -0.42131,0 -0.84263,-1.68527 -0.84263,-3.79185 0,-2.10658 -0.33705,-3.79185 -0.84263,-3.79185 -0.50558,0 -0.50558,-0.84263 0.0843,-2.27511 0.42132,-1.17969 0.75837,-3.79185 0.67411,-5.81417 -0.16853,-1.93805 0.25279,-4.1289 0.84263,-4.88727 0.58984,-0.6741 0.84263,-1.68526 0.58984,-2.10658 -0.33705,-0.42132 -0.0843,-1.09542 0.42132,-1.34821 0.42132,-0.33706 0.67411,-1.09543 0.42132,-1.68527 -0.25279,-0.67411 0.33705,-1.43247 1.26395,-1.68526 1.01116,-0.33706 1.51674,-1.01116 1.26395,-1.76953 -0.25279,-0.67411 -0.0843,-1.17969 0.33705,-1.17969 0.50558,0 0.84263,-0.50558 0.84263,-1.09542 0,-1.26395 4.71875,-6.82533 5.9827,-6.99386 0.42131,-0.0843 1.01115,-0.16852 1.43247,-0.25279 0.33705,0 1.601,-1.01116 2.86495,-2.19084 4.21317,-3.87611 15.42019,-5.30859 21.73993,-2.69643 z"
     id="path2"
     style="stroke-width:0.842633" />
  <path
     d="m 209.79537,163.68926 c -3.37053,1.76953 -5.0558,4.88727 -4.55022,8.42633 0.25279,2.02231 0.9269,3.202 1.60101,3.202 0.6741,0 1.43247,0.50558 1.601,1.01116 0.58984,1.43248 6.15122,1.34821 9.26896,-0.16853 1.85379,-0.92689 2.5279,-1.85379 2.5279,-3.37053 0,-1.17968 0.33705,-2.5279 0.67411,-3.11774 0.50558,-0.67411 0.25279,-1.51674 -0.58985,-2.35937 -0.6741,-0.75837 -1.601,-1.93806 -2.02232,-2.61216 -0.92689,-1.68527 -6.06695,-2.27511 -8.51059,-1.01116 z m 206.95065,6.57253 c -1.93805,1.17969 -11.79686,11.12276 -15.92576,16.01003 -0.58984,0.6741 -2.86495,3.37053 -5.0558,5.98269 -2.27511,2.61216 -4.04464,5.30859 -4.04464,5.9827 0,0.6741 -0.42131,1.601 -1.01116,2.19084 -0.50558,0.50558 -1.01116,3.20201 -0.92689,5.81417 0,10.11159 0.25279,11.03849 3.62332,14.57755 1.76953,1.85379 3.53906,3.37053 3.87611,3.37053 1.26395,0 5.81417,4.29743 5.56138,5.22432 -0.0843,0.42132 0.16852,0.58985 0.6741,0.25279 0.42132,-0.25279 1.26395,-0.25279 1.8538,0.0843 2.69642,1.68526 17.02118,2.02232 19.9704,0.50558 1.09542,-0.58985 2.19084,-0.84264 2.44363,-0.58985 0.25279,0.16853 1.60101,-0.58984 3.03348,-1.76952 1.51674,-1.34822 2.69643,-1.8538 2.86495,-1.26395 0.42132,1.34821 2.69643,-0.50558 2.69643,-2.19085 0,-0.58984 0.58984,-1.34821 1.26395,-1.601 0.6741,-0.33706 1.26395,-1.26395 1.26395,-2.10658 0,-1.76953 2.02232,-5.30859 4.46595,-7.66796 0.75837,-0.84264 1.43248,-1.93806 1.43248,-2.44364 0,-0.42132 0.42131,-0.58984 0.84263,-0.33705 0.50558,0.25279 0.84263,-0.0843 0.84263,-0.75837 0,-0.75837 0.42132,-1.34822 0.84264,-1.34822 0.50558,0 0.84263,-0.50557 0.84263,-1.09542 0,-0.58984 0.75837,-1.51674 1.76953,-2.10658 1.01116,-0.67411 1.51674,-1.601 1.26395,-2.35937 -0.25279,-0.67411 -0.0843,-1.17969 0.33705,-1.17969 1.43248,0 0.9269,-9.8588 -0.75837,-14.2405 -1.43247,-3.96037 -6.31975,-10.19585 -7.83648,-10.19585 -0.42132,0 -1.34822,-0.58985 -2.02232,-1.26395 -0.67411,-0.67411 -2.86496,-1.68527 -4.80301,-2.19085 -1.93806,-0.50558 -3.87611,-1.17968 -4.38169,-1.43247 -0.42132,-0.33706 -1.17969,-0.58985 -1.68527,-0.58985 -0.42131,-0.0843 -1.76953,-0.50558 -2.94921,-1.01116 -4.04464,-1.68526 -7.92075,-1.76953 -10.36439,-0.25279 z m 9.10044,6.06696 c 1.85379,0.50558 3.87611,0.84263 4.55021,0.75837 0.67411,-0.0843 1.43248,0.0843 1.68527,0.50558 0.25279,0.42132 2.35937,1.68527 4.55022,2.78069 2.19084,1.17968 4.55022,3.03348 5.22432,4.21316 2.94922,5.22433 4.71875,9.77454 4.80301,12.30244 0.0843,3.03348 0.16853,2.86496 -7.5837,12.89229 -5.22432,6.74106 -5.39285,6.82532 -8.2578,6.31974 -1.85379,-0.33705 -2.86495,-0.16852 -2.86495,0.42132 0,0.50558 -0.58984,0.9269 -1.34821,0.9269 -1.01116,0 -1.17969,0.33705 -0.58985,1.01116 0.42132,0.58984 0.75837,2.19084 0.75837,3.62332 -0.0843,2.02232 -0.58984,2.61216 -2.61216,3.202 -1.34821,0.42132 -3.202,1.09543 -3.96037,1.51674 -5.22433,2.69643 -17.86382,-4.21316 -21.73993,-11.96538 -1.76953,-3.4548 -2.27511,-10.44865 -0.75837,-11.29129 0.50558,-0.33705 0.6741,-1.09542 0.42131,-1.76953 -0.25279,-0.6741 0.33706,-1.93805 1.34822,-2.86495 1.01116,-0.92689 1.601,-1.93805 1.26395,-2.19084 -0.67411,-0.67411 2.86495,-5.47712 8.00501,-10.7857 2.19084,-2.27511 3.79185,-4.46596 3.53906,-4.80301 -0.50558,-0.9269 7.07811,-5.81417 8.84764,-5.81417 0.75837,0 2.86495,0.42132 4.71875,1.01116 z m -2.35938,17.77955 c -2.19084,3.4548 -2.61216,7.33091 -0.84263,8.93191 1.51674,1.43248 3.87611,1.43248 5.64564,0 4.63448,-3.62332 5.47712,-4.71874 4.97154,-6.74106 -0.67411,-2.78069 -2.61217,-4.1289 -5.81417,-4.1289 -1.85379,0 -3.03348,0.58984 -3.96038,1.93805 z m -107.35143,34.54796 c -1.93806,0.58984 -3.79185,1.26394 -4.1289,1.601 -0.33706,0.42131 -1.34822,0.6741 -2.27511,0.6741 -1.76953,0 -8.84765,3.03348 -14.07197,5.9827 -1.601,0.92689 -4.63448,2.44363 -6.74107,3.45479 -2.10658,1.01116 -3.96037,2.19085 -4.04463,2.5279 -0.16853,0.42132 -0.67411,0.50558 -1.09543,0.16853 -0.42131,-0.25279 -1.01116,0.16852 -1.26395,0.84263 -0.25279,0.75837 -1.01116,1.34821 -1.68526,1.34821 -0.58984,0 -1.43248,0.50558 -1.76953,1.17969 -0.33705,0.58984 -2.5279,2.10658 -4.88727,3.4548 -2.27511,1.26394 -4.80301,2.78068 -5.47712,3.37053 -0.6741,0.58984 -2.02231,1.26395 -2.86495,1.34821 -2.10658,0.42132 -3.70758,5.7299 -2.02232,6.74106 1.93806,1.26395 5.56138,0.84264 6.74107,-0.75837 0.58984,-0.84263 2.27511,-2.27511 3.62332,-3.11774 1.43247,-0.84263 3.28627,-2.19084 4.21316,-3.03348 0.9269,-0.75837 3.20201,-2.19084 5.0558,-3.202 1.85379,-1.01116 2.78069,-1.76953 2.10658,-1.76953 -0.6741,0 0.50558,-1.17969 2.69643,-2.5279 2.27511,-1.43248 4.63448,-2.5279 5.30859,-2.5279 0.6741,0 1.26395,-0.33705 1.26395,-0.84263 0,-0.42132 0.50558,-0.58984 1.17968,-0.33706 0.75837,0.25279 1.43248,-0.25278 1.76953,-1.26394 0.58984,-1.93806 2.10658,-2.44364 2.10658,-0.75837 0,0.75837 0.25279,0.75837 1.01116,0 0.58985,-0.58985 1.93806,-1.01116 3.03348,-1.01116 1.34821,0 2.19085,-0.58985 2.44364,-1.76953 0.25279,-0.9269 0.92689,-1.51674 1.601,-1.26395 0.58984,0.25279 1.34821,0.0843 1.601,-0.42132 0.33705,-0.42132 0.84263,-0.58984 1.17969,-0.33705 0.42131,0.16852 1.93805,0 3.53906,-0.50558 1.601,-0.50558 4.1289,-0.84263 5.64564,-0.84263 1.43247,0.0843 2.69642,-0.25279 2.69642,-0.67411 0,-1.26395 7.75223,2.19084 9.43749,4.21316 0.84263,0.9269 1.85379,1.51674 2.35937,1.17969 0.42132,-0.25279 0.84264,0.0843 0.84264,0.75837 0,0.75837 0.42131,1.34821 0.92689,1.34821 0.42132,0 0.58985,0.33706 0.33706,0.84264 -0.25279,0.42131 -0.16853,0.84263 0.25279,0.84263 0.33705,0 1.17968,1.34821 1.85379,2.94921 0.6741,1.60101 1.51674,2.94922 1.85379,2.94922 0.42132,0 1.09542,1.01116 1.51674,2.19084 0.50558,1.17969 1.76953,3.37054 2.86495,4.80301 2.44364,3.28627 4.38169,7.66796 5.14006,11.37555 0.50558,2.27511 0.84264,2.69642 2.19085,2.27511 0.92689,-0.33706 1.601,-0.16853 1.601,0.33705 0,0.50558 0.58984,0.9269 1.26395,0.9269 0.75837,0 1.26395,-0.75837 1.26395,-2.02232 0,-1.17969 0.33705,-2.27511 0.75837,-2.5279 1.09542,-0.67411 -0.50558,-5.9827 -2.94922,-9.85881 -1.09542,-1.76953 -2.02232,-3.45479 -2.02232,-3.62332 0,-0.9269 -9.69027,-13.90344 -12.89228,-17.27397 -7.41517,-7.66796 -14.15623,-9.85881 -23.08814,-7.41517 z m -123.95131,61.00662 c -4.04463,0.42132 -7.41517,3.11774 -12.72375,10.19586 -4.88727,6.6568 -5.72991,11.12275 -4.1289,23.50946 0.0843,0.58984 0.42131,1.09542 0.84263,1.09542 0.33705,0 0.6741,0.75837 0.6741,1.68527 0,0.92689 0.33706,1.68526 0.67411,1.68526 0.42132,0 1.26395,1.01116 1.93806,2.27511 1.51674,3.03348 2.94921,4.55022 3.62332,3.87611 0.25279,-0.33705 0.50558,0.0843 0.50558,0.84264 0,0.75836 0.75837,1.85379 1.68526,2.44363 0.9269,0.58984 1.68527,1.43248 1.68527,1.85379 0,0.42132 0.58984,1.34822 1.26395,2.10659 l 2.94921,3.28626 c 0.9269,1.01116 1.60101,2.19085 1.34822,2.61217 -0.25279,0.33705 0.0843,1.68526 0.75837,2.86495 0.6741,1.26395 1.17968,2.5279 1.17968,2.69642 0,0.25279 0.9269,1.68527 2.02232,3.20201 1.09542,1.43247 2.44364,4.97153 3.03348,7.75222 l 1.51674,7.16238 c 0.25279,1.17969 0.58984,5.39285 0.75837,9.43749 0.25279,3.96038 1.09542,9.60602 2.02232,12.47097 0.92689,2.86495 1.601,5.39285 1.43247,5.7299 -0.42131,1.34821 6.57254,11.96539 7.5837,11.62834 0.58984,-0.25279 1.09542,-0.16853 1.09542,0.25279 0,0.33705 1.60101,1.34821 3.62333,2.27511 1.93805,0.84263 3.96037,2.10658 4.55021,2.86495 0.50558,0.6741 1.26395,1.01116 1.60101,0.6741 0.33705,-0.33705 1.601,0.42132 2.78068,1.68527 2.44364,2.44363 2.78069,2.69642 4.80301,2.69642 0.67411,0 1.01116,0.42132 0.75837,0.84264 -0.50558,0.75837 1.34821,1.26395 3.28627,0.92689 0.42132,-0.0843 1.01116,0.25279 1.34821,0.75837 0.25279,0.50558 2.78069,1.26395 5.56138,1.76953 2.69643,0.42132 6.74106,1.09543 8.84765,1.51674 4.46595,0.75837 16.34707,0.25279 18.45366,-0.75837 0.25279,-0.0843 0.84263,-0.25279 1.26395,-0.42131 0.50558,-0.0843 1.01116,-0.25279 1.26395,-0.42132 0.25279,-0.0843 3.28626,-0.25279 6.74106,-0.42132 3.45479,-0.16852 7.07812,-0.50558 8.00501,-0.84263 3.62332,-1.34821 8.84765,-3.96037 9.35323,-4.71874 0.25279,-0.42132 1.34821,-0.75837 2.44363,-0.75837 1.09543,0 2.27511,-0.42132 2.5279,-0.84264 0.25279,-0.50558 1.43248,-0.84263 2.61216,-0.84263 1.09543,0 2.02232,-0.33705 2.02232,-0.67411 0,-0.42131 1.60101,-0.6741 3.62333,-0.6741 2.02231,-0.0843 4.1289,-0.33706 4.63448,-0.67411 0.58984,-0.33705 2.10658,-0.84263 3.37053,-1.01116 1.26395,-0.25279 5.98269,-2.27511 10.44865,-4.55022 4.55021,-2.35937 9.10043,-4.21316 10.11159,-4.21316 1.01116,0 2.69643,-0.84263 3.87611,-1.93806 1.76953,-1.68526 2.94922,-1.85379 10.95423,-2.02232 l 13.22934,-0.33705 c 3.70758,-0.0843 5.98269,-0.84263 13.65065,-4.29743 0.9269,-0.50558 2.27511,-0.6741 2.86495,-0.50558 0.67411,0.25279 2.10659,-0.50558 3.28627,-1.601 1.17969,-1.09542 2.35937,-1.93806 2.69643,-1.93806 0.92689,0 4.04464,-3.202 4.04464,-4.21316 0,-1.93806 2.10658,-5.0558 3.28626,-4.88727 0.75837,0.16853 1.34822,-0.33705 1.34822,-1.01116 0,-0.67411 0.33705,-1.51674 0.75837,-1.85379 0.42131,-0.25279 0.75837,-1.68527 0.75837,-3.11774 0,-1.43248 0.25279,-2.61217 0.58984,-2.61217 0.9269,0 1.01116,-10.70144 0.0843,-12.3867 a 146.68554,146.68554 0 0 1 -2.86495,-6.15122 c -1.17969,-2.61216 -4.55022,-7.41517 -7.83649,-10.95423 -7.24664,-8.00501 -12.21817,-10.36438 -25.7003,-12.30244 -10.44865,-1.43248 -31.00889,-1.93806 -43.73265,-0.9269 -10.95423,0.75837 -20.8973,-0.58984 -37.91848,-5.14006 -3.4548,-1.01116 -8.00501,-2.19084 -10.1116,-2.78069 -2.10658,-0.50558 -4.55021,-1.26395 -5.47711,-1.68526 -5.39285,-2.27511 -10.86997,-4.04464 -11.45981,-3.62332 -0.33705,0.16852 -0.84263,0 -1.09542,-0.42132 -0.33705,-0.42132 -2.27511,-1.601 -4.55022,-2.61216 -8.67912,-4.04464 -10.86996,-5.22433 -14.07197,-8.00502 -1.85379,-1.68526 -4.04464,-3.202 -4.80301,-3.45479 -0.84263,-0.25279 -1.51674,-0.75837 -1.51674,-1.09542 0,-0.33706 -2.19084,-1.68527 -4.803,-2.94922 -2.69643,-1.26395 -5.47712,-2.69642 -6.15122,-3.11774 -0.67411,-0.42132 -3.37054,-1.76953 -5.89844,-2.94922 l -6.15122,-2.94921 c -1.93805,-1.01116 -8.17354,-1.51674 -13.06081,-1.01116 z m 9.26897,6.48827 c 0.42131,0.67411 0.6741,0.58985 0.6741,-0.0843 0,-1.17969 2.10658,-0.25279 6.48828,2.86495 1.43247,1.09542 3.202,1.93806 3.87611,1.93806 0.75837,0 1.85379,0.75837 2.5279,1.68526 0.6741,0.9269 1.43247,1.43248 1.68526,1.17969 0.33706,-0.33705 2.10658,0.9269 4.04464,2.78069 l 3.53906,3.45479 -2.19085,4.46596 c -2.19084,4.63448 -4.55021,7.66796 -10.7857,13.9877 l -3.53906,3.4548 -6.06695,-0.0843 c -4.55022,-0.16853 -6.57254,-0.58985 -7.75223,-1.68527 -0.92689,-0.75837 -2.78069,-1.43248 -4.1289,-1.43248 -1.85379,0 -2.94921,-0.75836 -4.38169,-2.86495 -2.19085,-3.202 -4.63448,-12.30244 -3.37053,-12.30244 0.42131,0 0.6741,-0.84263 0.58984,-1.93805 -0.16853,-1.01116 0.16853,-2.61217 0.67411,-3.53906 0.50558,-0.9269 1.01116,-1.85379 1.01116,-2.10658 0.92689,-3.4548 1.26395,-4.21317 2.19084,-4.21317 0.58985,0 1.26395,-0.84263 1.60101,-1.93806 0.25279,-1.09542 1.68526,-2.52789 3.202,-3.28626 3.11774,-1.51674 9.1847,-1.68527 10.1116,-0.33706 z m 35.55911,20.39172 c 0.75837,0.25279 1.17968,0.84263 0.92689,1.17969 -0.25279,0.42131 0.75837,0.92689 2.27511,1.26395 3.70759,0.75837 7.75222,2.61216 9.10044,4.21316 0.58984,0.67411 1.43247,1.26395 1.93805,1.26395 1.09543,0 3.96038,3.37053 3.96038,4.63448 0,0.50558 -1.26395,2.27511 -2.78069,3.96038 l -2.78069,3.11774 -6.74106,-0.33706 -7.24665,-0.33705 c -1.26395,-0.16853 -4.1289,-6.06696 -4.29742,-9.10043 -0.0843,-1.76953 -0.50558,-3.70759 -0.9269,-4.3817 -0.42132,-0.6741 -0.33705,-1.34821 0.33705,-1.76952 0.58985,-0.33706 0.84264,-1.26395 0.58985,-1.93806 -0.67411,-1.93806 2.61216,-2.94922 5.64564,-1.76953 z m 37.32863,14.49329 c 0.84264,0.50558 1.68527,0.84263 1.93806,0.75837 1.51674,-0.16853 7.24664,1.43247 7.66796,2.10658 0.33705,0.50558 2.19085,1.01116 4.21317,1.17968 3.79184,0.33706 7.16238,2.78069 7.58369,5.39286 0.33705,2.2751 -2.27511,11.88112 -4.21316,15.50444 -1.60101,3.03348 -3.96038,5.56138 -5.14006,5.56138 -0.42132,0 -0.84264,0.33705 -0.84264,0.75837 0,0.42132 -1.01116,1.01116 -2.27511,1.34821 -1.26395,0.25279 -2.52789,0.84263 -2.78068,1.26395 -0.25279,0.33705 -3.96038,0.84263 -8.34207,1.01116 l -7.92075,0.25279 -1.76953,-2.86495 c -1.26395,-2.19085 -1.76953,-4.88727 -2.02232,-10.36439 -0.25279,-4.38169 -0.0843,-7.41517 0.42132,-7.41517 0.42131,0 0.84263,-0.50558 0.84263,-1.09542 0.25279,-3.03348 0.9269,-6.57254 1.34821,-7.07812 0.33706,-0.25279 0.58985,-1.68526 0.58985,-3.202 0,-1.43248 0.50558,-3.11774 1.01116,-3.62332 1.17968,-1.17969 7.07811,-0.84264 9.69027,0.50558 z m 61.17516,6.99385 c 2.52789,1.09542 3.11774,4.04464 1.01116,5.81417 -0.84264,0.75837 -1.26395,2.69642 -1.26395,6.40401 0,2.86495 -0.33706,5.56138 -0.84264,5.81417 -0.42131,0.25278 -0.84263,1.26394 -0.84263,2.10658 0,1.85379 -9.10044,11.96539 -10.19586,11.29128 -0.42131,-0.25279 -1.17968,-0.16853 -1.76953,0.16853 -1.68526,1.01115 -9.01617,1.68526 -14.24049,1.26394 -4.46596,-0.33705 -5.47712,-15.5887 -2.02232,-31.00889 0.33705,-1.43247 0.92689,-1.76953 2.44363,-1.43247 1.17969,0.16852 2.27511,0 2.5279,-0.42132 0.25279,-0.33705 2.10658,-0.42132 4.04464,-0.0843 2.02232,0.42131 3.87611,0.50558 4.21316,0.33705 2.86496,-1.76953 12.80802,-1.93806 16.93693,-0.25279 z m 22.4983,0.33705 c 0.58984,0.33706 2.44363,0.75837 4.1289,0.9269 6.74106,0.50558 8.42633,1.17969 9.69028,3.87611 1.43247,2.86495 1.76952,10.7857 0.58984,14.66181 -2.86495,9.60602 -4.1289,12.55523 -6.82533,16.51561 -3.11774,4.55022 -7.92075,7.33091 -9.69028,5.64564 -0.42131,-0.42132 -2.94921,-0.75837 -5.7299,-0.75837 -4.88727,0 -4.88727,0 -6.23548,-3.202 -1.76953,-4.21317 -2.78069,-9.35323 -1.76953,-9.94307 0.42131,-0.25279 0.6741,-1.8538 0.58984,-3.53906 -0.0843,-1.68527 0.33705,-6.23549 0.9269,-10.1116 1.09542,-6.74106 1.09542,-6.99385 -0.75837,-9.43749 -1.76953,-2.44363 -1.76953,-4.803 0,-3.79184 0.42131,0.33705 0.75837,0.0843 0.75837,-0.42132 0,-0.50558 0.42131,-0.67411 0.84263,-0.42132 0.50558,0.25279 0.84263,0.25279 0.84263,-0.16852 0,-0.84264 11.20702,-0.67411 12.6395,0.16852 z m 28.2282,14.83034 c 1.601,1.43248 2.94921,3.28627 2.94921,4.04464 0,0.84263 0.58985,2.69643 1.34822,4.1289 0.6741,1.51674 1.51674,4.71875 1.76953,7.07812 0.33705,3.62332 0,5.30859 -1.76953,9.10043 -2.69643,5.72991 -4.71875,8.17354 -7.75223,9.26897 -2.02232,0.75837 -2.61216,0.6741 -3.45479,-0.50558 -0.58984,-0.84264 -1.09542,-2.27511 -1.09542,-3.28627 0,-1.01116 -0.42132,-2.19085 -0.9269,-2.69643 -0.67411,-0.6741 -0.67411,-1.76953 0,-3.87611 0.58984,-1.68526 1.17969,-4.88727 1.34821,-7.24664 0.0843,-2.27511 0.50558,-4.55022 0.75837,-4.97154 0.25279,-0.50558 0.25279,-1.43247 0,-2.19084 -0.42131,-1.01116 -0.16852,-1.26395 0.9269,-0.84263 1.09542,0.42131 1.34821,0.16852 1.09542,-1.43248 -0.0843,-1.09542 -0.58984,-2.27511 -1.09542,-2.61216 -0.50558,-0.42132 -0.42132,-0.67411 0.25279,-0.67411 0.58984,0 1.01116,-1.17968 1.01116,-2.94921 0,-3.62333 0.75837,-3.70759 4.63448,-0.33706 z m -168.9479,1.43248 c 1.93805,1.68526 2.10658,2.44363 2.02231,8.51059 -0.0843,6.99386 -0.25279,7.24664 -7.24664,15.58871 -1.01116,1.26395 -3.11774,-4.71874 -3.70758,-10.61717 -0.25279,-2.86496 -0.84264,-5.72991 -1.17969,-6.15122 -0.42132,-0.50558 -0.9269,-2.61217 -1.26395,-4.80301 -0.50558,-3.37053 -0.42132,-3.96038 1.01116,-4.29743 3.62332,-0.9269 8.34207,-0.0843 10.36439,1.76953 z m 30.58757,10.70144 c 7.66796,3.62332 10.61718,9.94307 7.49943,15.92576 -1.01116,1.93806 -2.19084,4.38169 -2.69642,5.56138 -0.42132,1.17968 -1.17969,2.69642 -1.68527,3.37053 -0.42131,0.67411 -2.35937,4.63448 -4.29743,8.84764 -1.93805,4.12891 -3.70758,7.75223 -4.04463,8.00502 -0.25279,0.25279 -1.43248,2.19084 -2.61217,4.38169 -1.09542,2.27511 -2.52789,4.04464 -3.03347,4.04464 -1.76953,0 -10.1116,-4.80301 -17.35824,-10.02733 -4.46596,-3.28627 -8.76339,-10.70144 -7.92075,-13.81919 0.25279,-1.01115 2.94921,-4.46595 5.98269,-7.75222 3.03348,-3.202 5.9827,-6.90959 6.48828,-8.17354 0.58984,-1.26395 1.34821,-2.35937 1.68526,-2.35937 0.33705,0 0.42132,-0.67411 0.0843,-1.51674 -0.25279,-0.75837 -0.25279,-1.17969 0.0843,-0.84263 0.42131,0.33705 1.51674,-0.33706 2.61216,-1.51674 1.01116,-1.09542 2.27511,-2.02232 2.86495,-2.02232 0.50558,0 0.9269,-0.67411 0.9269,-1.51674 0,-1.17969 0.16852,-1.26395 0.84263,-0.16853 0.67411,1.09543 0.84263,1.01116 1.26395,-0.0843 0.67411,-1.93806 9.60602,-2.10658 13.3136,-0.33705 z m 34.29516,7.83648 c 0,0.33706 1.51674,2.19085 3.37053,4.21317 5.9827,6.31975 6.31975,9.43749 2.19085,21.23435 -4.1289,11.62833 -4.97154,13.56639 -6.90959,16.93692 -1.76953,2.94922 -1.93806,3.03348 -10.53291,4.38169 -7.75223,1.17969 -10.95423,1.17969 -19.21203,0.25279 -1.17969,-0.0843 -2.35938,-1.01116 -2.69643,-2.02232 -0.75837,-1.93805 -0.16853,-4.38169 0.9269,-4.38169 1.01116,0 5.89843,-7.41517 5.89843,-8.93191 0,-0.6741 0.58984,-1.43247 1.34821,-1.76953 0.67411,-0.25279 1.09542,-0.92689 0.84263,-1.601 -0.25279,-0.58984 0.16853,-1.51674 0.84264,-2.02232 0.6741,-0.58984 1.17968,-1.76953 1.17968,-2.61216 0,-0.9269 0.42132,-1.601 0.9269,-1.601 0.50558,0 0.75837,-0.58985 0.50558,-1.17969 -0.50558,-1.26395 1.601,-6.40401 2.61216,-6.40401 0.58984,0 0.67411,-0.75837 1.09542,-6.57254 0.25279,-2.86495 4.63448,-6.15122 8.42633,-6.23548 1.34821,-0.0843 2.44364,-0.50558 2.44364,-0.9269 0,-0.50558 0.25279,-0.6741 0.50558,-0.42131 0.25279,0.25279 1.43247,0.16852 2.69642,-0.16853 3.03348,-0.9269 3.53906,-0.9269 3.53906,-0.16853 z m 38.42406,7.41517 c 0.9269,0.67411 1.93806,0.9269 2.27511,0.67411 0.50558,-0.50558 5.64564,4.38169 5.64564,5.39285 0,0.25279 0.75837,2.10658 1.76953,4.04464 1.68527,3.53906 1.68527,3.70758 0.25279,7.75222 -0.84263,2.27511 -2.19084,4.46596 -2.94921,4.88727 -3.11775,1.60101 -9.69028,4.71875 -11.29128,5.39285 -0.9269,0.42132 -3.79185,0.9269 -6.31975,1.09543 -2.5279,0.25279 -5.89843,1.09542 -7.49943,1.93805 -2.78069,1.34821 -2.94922,1.34821 -4.04464,-0.16852 -0.84264,-1.09543 -1.01116,-3.03348 -0.58985,-7.07812 l 0.75837,-8.00501 c 0.25279,-3.11775 1.26395,-10.28013 1.76953,-12.80802 0.16853,-1.01116 1.34822,-2.44364 2.69643,-3.11775 2.94921,-1.601 14.99886,-1.601 17.52676,0 z"
     id="path4"
     style="stroke-width:0.842633" />
  <path
     d="m 239.0162,449.59124 c -11.8272,-1.2412 -30.27917,-6.59697 -41.49293,-12.04375 -10.2085,-4.95805 -19.66621,-12.26958 -27.50523,-21.263 -6.4908,-7.44635 -8.93191,-13.1653 -11.82382,-27.6965 -2.56077,-12.86785 -3.55002,-23.77152 -4.12469,-45.4432 -0.52159,-19.68727 -0.5317,-19.80693 -1.82767,-22.24129 -0.71624,-1.34653 -1.30777,-3.0318 -1.31367,-3.74551 -0.006,-0.71371 -0.60164,-2.9273 -1.32293,-4.91845 -0.72129,-1.99114 -1.61617,-4.73644 -1.98777,-6.09982 -0.3716,-1.36338 -1.14683,-2.99303 -1.72234,-3.62163 -0.57552,-0.62861 -1.54539,-2.13608 -2.15462,-3.35031 l -1.10806,-2.2077 1.43753,-1.80155 c 0.79039,-0.99093 1.70044,-1.80155 2.02064,-1.80155 0.3202,0 0.87296,-0.34885 1.22771,-0.77606 0.35475,-0.42722 1.06425,-0.77607 1.57825,-0.77607 0.84601,0 2.85147,-1.75689 5.27657,-4.621 0.498,-0.58815 0.90499,-1.50999 0.90499,-2.04928 0,-1.57994 1.44259,-1.69032 4.03705,-0.31009 1.33221,0.70866 2.81693,1.28923 3.3006,1.28923 0.48367,0 1.012,0.21487 1.17379,0.47693 0.16178,0.26206 1.77542,0.96987 3.58456,1.57151 3.80785,1.26732 5.5521,0.85612 6.82616,-1.60606 1.01622,-1.96586 0.9269,-2.51189 -0.41289,-2.51189 -1.47713,0 -12.20132,-5.91022 -13.70036,-7.55083 -1.36591,-1.49483 -2.08973,-4.68757 -1.25216,-5.52514 0.3202,-0.32021 0.58226,-1.57489 0.58226,-2.78828 0,-2.64671 0.51317,-3.00904 5.35325,-3.78258 5.49902,-0.87886 7.16491,-2.02653 6.02735,-4.15333 -0.57299,-1.07099 -1.21423,-1.31114 -4.78194,-1.7965 -2.5338,-0.34463 -5.5639,-2.33409 -5.5639,-3.65365 0,-0.38761 -0.31431,-0.89067 -0.69855,-1.11818 -0.38424,-0.22751 -0.87381,-1.69453 -1.08868,-3.2593 l -0.76258,-5.65997 c -0.20476,-1.54791 -0.6463,-2.90624 -0.98083,-3.01747 -0.33452,-0.11122 -0.60838,-0.61933 -0.60838,-1.12828 0,-0.50895 -1.07098,-3.05202 -2.37959,-5.6507 -2.01642,-4.00503 -2.43437,-5.3642 -2.74024,-8.92011 -0.37161,-4.32523 -1.10722,-5.62879 -3.17673,-5.62879 -1.15609,0 -2.07204,-1.15272 -4.30248,-5.41476 -2.01305,-3.84662 -2.40404,-5.96668 -1.0988,-5.96668 0.97577,0 3.86853,-4.45921 3.86853,-5.96416 0,-1.55971 -0.55108,-1.92541 -1.54623,-1.02464 -0.76258,0.69012 -1.13503,0.63282 -3.48597,-0.53844 -2.67873,-1.33473 -3.44216,-2.38128 -4.76425,-6.53125 -0.91931,-2.88517 -1.63892,-9.01954 -1.5732,-13.40629 0.0329,-2.15967 -0.1879,-5.76782 -0.48957,-8.01849 -0.82746,-6.16723 -0.14324,-7.74633 4.28985,-9.90094 2.53801,-1.23446 3.86431,-2.27932 5.08107,-4.00504 0.90499,-1.28417 2.12597,-2.48492 2.71328,-2.66777 0.58732,-0.18285 1.1839,-0.49884 1.32631,-0.70276 0.1424,-0.20391 1.24372,-0.98756 2.44785,-1.74088 2.3956,-1.50073 2.87759,-2.61216 2.6307,-6.0678 -0.14662,-2.05265 -0.30672,-2.30291 -1.56477,-2.44785 -1.82767,-0.21065 -12.00752,4.97154 -15.89206,8.09097 l -3.49187,2.78574 c -0.33453,0.25953 -2.99388,0.8064 -5.90855,1.21508 -6.38463,0.89572 -8.93696,1.98777 -9.16026,3.9174 -0.11376,0.97829 0.23425,1.67094 1.23277,2.45712 l 1.39119,1.09458 1.73414,-1.07183 c 1.82767,-1.12997 3.50956,-0.99768 4.01346,0.31598 0.15925,0.41626 0.62186,0.75669 1.02717,0.75669 1.06761,0 1.36506,1.16704 1.36338,5.34482 -8.5e-4,2.04001 0.25616,7.97046 0.5713,13.17878 0.66231,10.96012 0.74152,10.71576 -3.95195,12.19542 -2.02653,0.63872 -3.0478,1.27575 -3.44637,2.15125 -0.70359,1.5437 0.17949,2.82534 1.94649,2.82534 0.65978,0 1.35327,0.24858 1.54117,0.55277 0.18791,0.30419 0.66568,0.42806 1.06256,0.27554 0.39688,-0.15251 1.77712,0.17611 3.06803,0.72972 2.09816,0.89909 2.51611,1.37855 3.9351,4.50977 0.87381,1.92711 1.71139,4.43478 1.86222,5.57234 0.15083,1.13755 0.56456,2.41835 0.921,2.84557 0.35643,0.42721 1.3895,2.21781 2.29701,3.97975 2.34084,4.54516 2.08889,5.6448 -1.78638,7.78509 -1.70717,0.9429 -3.86684,2.52621 -4.79964,3.51799 -1.48725,1.58247 -1.62038,1.94648 -1.08615,2.96017 0.9842,1.86896 2.52369,2.58436 2.52369,1.1721 0,-0.46007 0.30334,-0.64293 0.76932,-0.46429 0.423,0.16263 1.85379,-0.423 3.17841,-1.30018 2.82535,-1.87149 5.32797,-2.46386 6.88516,-1.6305 1.32546,0.7095 5.30858,5.99365 6.10403,8.09939 0.80556,2.13018 2.35937,11.15899 2.12849,12.36733 -0.17358,0.91004 -0.74657,1.04823 -5.36252,1.29175 -6.75707,0.35644 -8.62435,1.41647 -7.53566,4.27974 0.78196,2.05686 1.89171,2.64671 3.62585,1.92878 2.0636,-0.85443 4.37832,-0.257 6.61719,1.70886 2.25826,1.98272 3.24751,4.21485 3.24751,7.33007 0,2.96269 -0.81146,3.34525 -3.44637,1.62375 a 28.23663,28.23663 0 0 0 -4.21569,-2.17568 c -2.69895,-1.0634 -4.54179,-0.47272 -5.06844,1.62375 -0.39519,1.57573 0.96145,4.87801 2.00463,4.87801 0.71455,0 5.36588,4.59993 6.73095,6.65511 0.44659,0.67327 0.68506,1.55466 0.53001,1.95912 -0.83842,2.18411 -7.47752,3.27532 -9.39198,1.54371 -0.54856,-0.49716 -1.7215,-2.3737 -2.60627,-4.17019 -1.8125,-3.68147 -10.61802,-17.04984 -15.36036,-23.31818 -5.73664,-7.5837 -11.86343,-18.83032 -14.79663,-27.16059 l -2.4883,-7.04273 c -0.51737,-1.45523 -1.36759,-3.43373 -1.89002,-4.3977 -0.81567,-1.50326 -0.97577,-3.27363 -1.12997,-12.48698 -0.0986,-5.90433 -0.38593,-10.73514 -0.63872,-10.73514 -0.252788,0 -0.21824,-0.63366 0.0758,-1.40888 0.33284,-0.87466 0.4744,-6.11836 0.37497,-13.83856 -0.14914,-11.55419 -0.0843,-12.6395 0.92353,-15.40502 0.59574,-1.63555 1.50073,-3.43541 2.01136,-3.99998 0.73983,-0.81735 0.80135,-1.178 0.30335,-1.77795 -0.47609,-0.57299 -0.48283,-1.0179 -0.0295,-1.86475 0.32694,-0.61175 0.46851,-1.23951 0.31262,-1.39456 -0.15589,-0.15504 0.059,-0.76932 0.47524,-1.36422 0.41626,-0.5949 0.7609,-1.55382 0.76511,-2.13102 0.011,-1.52011 3.3857,-10.57083 4.52579,-12.13476 0.53338,-0.7314 1.11901,-1.73329 1.30271,-2.22707 0.20223,-0.54266 0.64714,-0.77607 1.12912,-0.59153 0.59659,0.22919 0.79545,-0.0489 0.79545,-1.11059 0,-2.17231 7.70167,-12.24599 9.89504,-12.942 0.75668,-0.24015 0.96903,-0.81399 0.96903,-2.61385 0,-1.933 0.19296,-2.37959 1.19485,-2.76047 0.65725,-0.25026 3.13459,-2.23466 5.50493,-4.41118 4.11458,-3.77752 6.48996,-5.3642 9.33806,-6.23632 0.71118,-0.21825 1.82008,-0.80725 2.46301,-1.30946 0.64293,-0.50221 2.38971,-1.19485 3.88033,-1.53864 1.49062,-0.3438 3.48007,-1.06425 4.42129,-1.60185 0.94122,-0.5376 2.24393,-0.97745 2.89445,-0.97745 0.65051,0 1.60521,-0.46598 2.12006,-1.03476 0.51485,-0.56877 1.27154,-1.034749 1.6819,-1.034749 0.41036,0 1.36338,-0.34801 2.11838,-0.77269 1.70043,-0.95724 9.62286,-3.68147 13.78884,-4.74234 1.70718,-0.4348 5.23697,-1.46703 7.84407,-2.29365 2.60711,-0.82662 5.05159,-1.50494 5.43246,-1.50663 0.38087,-0.002 1.36759,-0.35559 2.19337,-0.78617 0.82578,-0.43059 1.88581,-0.66063 2.35684,-0.51148 0.47104,0.14914 2.80429,-0.31178 5.18641,-1.02464 2.38212,-0.71287 4.99513,-1.29597 5.80743,-1.29597 0.81229,0 2.92478,-0.49042 4.6943,-1.08953 4.48702,-1.52011 14.83793,-1.98271 18.63062,-0.83336 4.40528,1.33473 11.92241,2.78659 17.76691,3.42951 2.31556,0.25532 4.72886,0.74152 5.36421,1.0811 0.63534,0.33958 3.86262,0.80135 7.17164,1.02633 5.80069,0.39351 13.95569,1.96081 16.05806,3.08572 0.55782,0.29829 1.84452,0.54266 2.85905,0.54266 1.01453,0 1.84453,0.18285 1.84453,0.40615 0,0.78449 2.91382,2.11416 6.40485,2.92393 1.93974,0.44997 4.72633,1.40636 6.19167,2.12597 1.46534,0.719599 4.54263,1.623749 6.83712,2.010519 2.29449,0.38677 5.67008,1.29934 7.50112,2.02906 1.83104,0.72972 6.25486,1.89676 9.831,2.59362 3.57613,0.69686 8.56031,1.99367 11.07556,2.88096 2.51526,0.8873 7.85334,2.19928 11.86343,2.91467 11.40757,2.0358 13.92199,3.32924 10.51269,5.40802 -0.91847,0.56035 -1.84536,1.01959 -2.05855,1.02043 -0.21319,8.4e-4 -0.38761,0.48535 -0.38761,1.07604 0,1.23109 2.12006,3.43204 4.54853,4.72127 0.91257,0.48452 1.65999,1.22772 1.65999,1.65072 0,0.423 -1.42152,1.52685 -3.15819,2.4529 -1.73667,0.92606 -3.5281,2.24815 -3.9806,2.93827 -0.76427,1.1662 -0.75331,1.30523 0.15336,1.96839 1.25805,0.91931 3.49861,0.89656 6.6804,-0.0683 4.72801,-1.43416 10.74019,-0.69601 13.33382,1.63808 1.14766,1.03307 3.04949,4.95805 4.59825,9.49058 1.44848,4.23928 1.29175,7.06379 -0.589,10.58684 -1.77122,3.31913 -1.71729,4.01851 0.38929,5.01956 1.97261,0.93785 3.16746,4.68757 3.60057,11.30139 0.38846,5.92624 0.44491,5.86726 -3.95532,4.13228 -3.15734,-1.24457 -5.33218,-1.31957 -6.43013,-0.22162 -1.17126,1.17126 -1.04992,3.36042 0.20476,3.68905 0.55951,0.14662 1.15694,0.70613 1.32799,1.24373 0.30925,0.97492 0.74573,1.14176 4.61005,1.76868 2.83883,0.46008 10.38123,4.57971 11.2601,6.15038 0.56204,1.00442 1.89508,1.07604 2.26078,0.12218 0.16516,-0.43058 0.76259,-0.60501 1.55382,-0.45333 1.66588,0.31851 3.12364,-1.00695 3.53822,-3.21633 0.25363,-1.3499 0.62776,-1.77627 1.76447,-2.00294 1.84958,-0.36992 2.67283,-2.16894 2.67283,-5.84366 0,-3.69242 -0.63197,-4.8561 -2.63913,-4.8561 -1.75857,0 -3.56939,0.80472 -3.56939,1.58668 0,0.28397 -0.35138,1.35748 -0.78112,2.3855 -0.77522,1.85632 -0.7887,1.86222 -1.8639,0.88982 -1.65409,-1.49652 -2.36106,-3.22055 -2.98882,-7.28962 -0.99431,-6.43856 -0.79545,-8.82237 0.86959,-10.41663 0.79461,-0.7609 2.1563,-1.75942 3.02674,-2.22034 1.26311,-0.6682 1.65409,-1.28585 1.93806,-3.05875 0.20054,-1.25637 0.13819,-2.43858 -0.14409,-2.72087 -0.2747,-0.27469 -1.83441,-0.52833 -3.46575,-0.56288 l -2.96691,-0.0632 -2.24393,-6.70989 c -1.23446,-3.69073 -2.24394,-7.11098 -2.24394,-7.60055 0,-1.14345 0.66906,-1.53443 3.86179,-2.2532 2.23045,-0.50221 2.60542,-0.76342 2.60542,-1.81166 0,-1.77795 -2.47818,-3.00736 -7.29383,-3.61742 -3.51715,-0.44575 -4.55106,-0.83084 -7.44803,-2.77226 -9.03808,-6.05601 -12.77684,-8.36903 -13.96411,-8.63868 -1.19654,-0.27217 -1.13587,-0.34295 0.77016,-0.90246 2.78406,-0.81735 6.58181,-0.76848 12.02775,0.15336 2.48998,0.42132 7.66964,0.98167 11.5112,1.24457 3.84157,0.2629 7.61993,0.76848 8.396,1.12239 1.09037,0.49715 2.20011,0.514 4.87126,0.0708 1.90266,-0.31515 3.60984,-0.47946 3.79522,-0.3657 0.18538,0.11375 4.39517,0.56709 9.35575,1.00526 l 24.02262,2.4647 c 1.42237,0.29745 3.19274,0.85106 3.93341,1.22856 0.74068,0.3775 3.8837,1.19064 6.98375,1.80492 3.10004,0.61428 6.26581,1.4409 7.03345,1.83609 0.76764,0.3952 2.55739,0.96735 3.97555,1.27154 1.41815,0.30419 2.85315,0.88392 3.18936,1.28838 0.3657,0.4407 1.08278,0.61681 1.78807,0.43986 0.64798,-0.16263 1.33304,-0.0438 1.52348,0.26374 0.19043,0.30756 0.88898,0.55951 1.55297,0.55951 0.664,0 1.34147,0.34885 1.50494,0.77607 0.18117,0.47187 0.96398,0.77606 2.00041,0.77606 1.1047,0 1.91531,0.34042 2.30882,0.97071 0.33368,0.53339 1.43837,1.1266 2.45627,1.31788 1.1266,0.2115 2.17147,0.83758 2.67199,1.601 0.45165,0.68928 1.61364,1.54034 2.58267,1.89003 0.96903,0.34969 1.76111,0.93785 1.76111,1.30608 0,0.36823 0.87296,1.31029 1.93974,2.09479 1.06677,0.78449 4.26203,3.82976 7.10086,6.76802 2.83883,2.93826 5.80659,5.72401 6.59613,6.18999 0.78955,0.46597 1.43585,1.269 1.43585,1.78385 0,0.51485 0.52412,1.13924 1.16368,1.38866 1.36338,0.53001 2.90708,2.16304 6.33828,6.70567 a 130.38059,130.38059 0 0 0 5.54621,6.72505 c 1.67768,1.88245 3.18684,4.08256 3.352,4.88896 0.16515,0.8064 0.6168,1.58836 1.00273,1.73667 0.38592,0.1483 2.08804,3.12532 3.78258,6.61635 1.69453,3.49103 3.41772,6.47648 3.82892,6.63405 0.41121,0.15757 1.03054,1.17632 1.37518,2.26331 0.91257,2.87507 5.25129,11.71766 6.04589,12.32267 1.933,1.47376 3.21802,17.38857 2.29786,28.45318 -1.12997,13.57988 -5.32291,33.0902 -9.39451,43.71496 -1.47208,3.84156 -3.10089,8.8468 -3.6208,11.12275 -1.51589,6.64332 -3.6368,14.77557 -4.6547,17.84781 -4.66903,14.09219 -7.79099,21.38771 -11.4893,26.84797 -0.88729,1.30945 -3.27869,4.1407 -5.31449,6.2911 -2.91972,3.08319 -4.06233,4.7752 -5.40549,8.00164 -0.93701,2.25067 -2.07372,4.65723 -2.52537,5.34735 l -0.82241,1.25468 -2.09057,-2.31134 c -1.1502,-1.27154 -2.74361,-3.5121 -3.54159,-4.98081 l -1.45017,-2.66946 1.03223,-2.33325 c 0.66483,-1.50326 1.54876,-2.56076 2.48492,-2.97196 0.79882,-0.35138 1.62544,-0.90921 1.8361,-1.2412 0.21066,-0.332 1.2117,-1.59511 2.22539,-2.80766 1.48641,-1.77964 1.81251,-2.56413 1.68611,-4.06401 -0.24689,-2.94501 -1.91783,-2.8026 -5.03473,0.43142 -1.39119,1.44343 -2.87085,2.62396 -3.2888,2.62396 -0.41794,0 -1.03812,0.33537 -1.3777,0.74489 -0.63619,0.7668 -2.05181,0.53507 -2.74362,-0.44912 -1.43668,-2.04507 -3.46322,-13.36585 -3.48091,-19.44123 -0.009,-3.23571 0.0817,-3.4767 2.33325,-6.20768 1.28838,-1.56308 2.48155,-3.37896 2.65092,-4.03621 0.20223,-0.78702 0.57046,-1.09374 1.07689,-0.89909 0.55782,0.21403 0.67747,0.0548 0.43395,-0.58057 -0.21318,-0.55614 0.25785,-1.70381 1.28923,-3.13965 1.45354,-2.02485 3.0023,-6.62057 3.05202,-9.05831 0.027,-1.31872 -1.6642,-1.12491 -3.05033,0.35054 -0.64883,0.69012 -1.9111,2.70654 -2.80597,4.48112 -1.5673,3.10763 -3.02842,4.67493 -3.71686,3.9865 -0.57973,-0.57973 -1.2294,-4.16682 -1.5833,-8.74063 l -0.3438,-4.44911 1.77712,-2.01726 c 4.21653,-4.78531 5.08444,-6.42339 5.08444,-9.59169 0,-2.36022 -0.24605,-3.2593 -1.19401,-4.36147 -0.92352,-1.07351 -1.46197,-1.30355 -2.37538,-1.01369 -1.26563,0.40194 -2.63828,3.06045 -2.63828,5.10973 0,1.56056 -1.1325,2.53885 -2.68379,2.31808 -0.85359,-0.12134 -2.46807,-1.99451 -5.72063,-6.63573 -5.451,-7.77919 -6.43266,-9.665 -5.66671,-10.89187 0.3025,-0.48368 0.69517,-1.66505 0.87212,-2.62481 0.51485,-2.78405 -0.48957,-3.63511 -4.75076,-4.02525 -3.14386,-0.28818 -3.90476,-0.56878 -5.61194,-2.06698 -2.21949,-1.94901 -7.68902,-4.70442 -9.3389,-4.70526 -1.6701,-8.5e-4 -2.79585,1.62543 -2.79585,4.03789 0,1.68021 0.2629,2.31809 1.21339,2.94079 1.11733,0.73225 2.4074,2.80091 2.4074,3.8601 0,0.24437 -0.81483,1.419 -1.81082,2.61132 -0.99599,1.19233 -1.81082,2.48998 -1.81082,2.88434 0,1.57993 6.131,1.57403 8.38926,-0.008 0.93195,-0.65304 1.26732,-0.65641 2.48998,-0.0244 0.77691,0.40193 1.91278,1.5774 2.52284,2.613 0.61007,1.0356 2.01979,2.96438 3.13123,4.28732 2.47649,2.94668 5.19483,8.0227 5.19483,9.69954 0,0.88308 -0.28903,1.2412 -1.00442,1.2412 -0.55193,0 -1.12913,0.20308 -1.28249,0.45081 -0.15336,0.24774 -0.97071,0.589 -1.81756,0.75837 -2.04675,0.40952 -3.56265,2.6484 -2.71328,4.00841 0.33537,0.5376 0.61007,1.31535 0.61007,1.72908 0,1.28923 0.92437,1.40804 2.9568,0.37918 3.56097,-1.80239 4.97743,-1.85716 6.87251,-0.26206 2.3223,1.95407 2.95933,3.76489 3.63091,10.31889 0.82494,8.05304 0.50811,9.5386 -2.59531,12.15498 -3.39918,2.86579 -4.621,6.67196 -2.14366,6.67786 0.46766,0.002 1.59258,0.45418 2.49925,1.00779 2.0872,1.27238 2.50094,2.7335 3.64102,12.84931 l 0.8915,7.9098 -2.44447,2.08888 c -2.92984,2.50431 -3.30228,4.52663 -1.10048,5.97006 1.12238,0.73562 1.51842,0.77185 2.39897,0.22245 0.9151,-0.5713 1.33642,-0.46092 3.18263,0.83337 1.62375,1.13839 2.16641,1.88497 2.29027,3.15145 0.0969,0.99346 0.56457,1.8757 1.16368,2.19674 0.55108,0.29492 1.00189,0.88224 1.00189,1.30524 0,0.423 0.56204,1.02464 1.24878,1.3381 1.55887,0.71034 3.68736,6.78404 3.18347,9.0819 -0.81904,3.72865 -6.37115,10.02649 -11.50868,13.05407 a 81.238241,81.238241 0 0 0 -5.59845,3.6705 c -1.42237,1.04234 -4.91508,3.12196 -7.75981,4.61932 -2.84473,1.49736 -6.645,3.74972 -8.44403,5.00355 -1.79902,1.25384 -4.01009,2.59447 -4.91507,2.97871 -0.90499,0.38424 -2.78996,1.71981 -4.18957,2.96607 -1.39962,1.24625 -3.54328,2.96522 -4.76341,3.81881 -1.22013,0.85359 -4.22749,3.29807 -6.68292,5.43246 -8.53082,7.41348 -9.73578,7.96962 -23.77405,10.96939 -7.69155,1.64314 -17.55878,4.78531 -26.9019,8.56705 -3.12953,1.26648 -8.30246,3.19105 -11.49435,4.27636 -3.19189,1.08531 -6.32817,2.34084 -6.96942,2.78996 -0.64124,0.44912 -1.79902,0.81651 -2.57256,0.81651 -0.77353,0 -1.56898,0.2629 -1.76784,0.58479 -0.89235,1.44427 -9.57147,4.74571 -19.63503,7.46994 -18.17223,4.91929 -22.60616,5.72906 -36.81801,6.7259 -6.11583,0.4289 -12.78527,1.01453 -14.82022,1.30102 -4.97238,0.69939 -29.53429,1.03223 -34.86816,0.47188 z m 31.42768,-23.91898 c 1.56477,-0.46682 5.97089,-1.06593 9.79224,-1.33052 l 6.94666,-0.48198 5.72822,-2.91804 c 3.1506,-1.60522 6.19419,-2.92309 6.76297,-2.92899 0.56878,-0.006 1.48641,-0.35222 2.03917,-0.77017 0.55277,-0.41794 1.54455,-0.75921 2.20602,-0.75921 0.66146,0 1.60605,-0.22583 2.09984,-0.50052 0.49378,-0.2747 2.5279,-0.71877 4.51988,-0.9842 5.47964,-0.7314 8.396,-1.72066 16.70857,-5.66586 4.18367,-1.98609 8.86113,-3.97976 10.39472,-4.43141 1.53359,-0.45165 3.59214,-1.43416 4.5755,-2.1841 2.0181,-1.53865 2.20011,-1.5614 18.24468,-2.20686 l 10.08801,-0.40615 5.12573,-2.15714 c 2.81945,-1.18643 5.76951,-2.15714 6.55653,-2.15714 0.83842,0 2.41246,-0.74994 3.8028,-1.81082 1.3044,-0.99599 2.57593,-1.81082 2.82451,-1.81082 0.7491,0 4.19462,-4.07918 4.19462,-4.96563 0,-1.37012 1.72993,-3.85421 2.88518,-4.14407 1.13081,-0.28397 2.80512,-3.38654 2.80512,-5.19905 0,-0.5654 0.37582,-2.13017 0.83505,-3.47754 0.6185,-1.81588 0.77944,-3.74803 0.62187,-7.46404 -0.20645,-4.84683 -0.30251,-5.18557 -2.88686,-10.18744 -4.68589,-9.06673 -12.10527,-17.25459 -18.47894,-20.39256 -8.62014,-4.2435 -27.36535,-6.24391 -50.96582,-5.43919 -19.8381,0.67663 -24.44393,0.32862 -38.54203,-2.91383 -7.68312,-1.767 -21.71296,-5.82765 -28.19449,-8.15921 -2.41836,-0.87044 -4.98081,-1.65662 -5.69452,-1.74847 -0.71371,-0.0918 -2.10995,-0.66568 -3.10426,-1.27658 -0.9943,-0.61091 -4.25192,-2.25489 -7.23906,-3.6545 -2.98713,-1.39962 -7.06126,-3.78511 -9.05324,-5.30101 -7.37894,-5.61699 -10.24895,-7.35028 -21.04898,-12.71111 l -11.04776,-5.48386 -5.21168,-0.28734 c -7.71093,-0.42468 -9.82342,0.22583 -14.23207,4.38506 -3.81881,3.60226 -7.67639,8.95635 -9.08948,12.61675 -0.66821,1.72908 -0.86033,3.84409 -0.82831,9.10043 0.0362,5.90686 0.19212,7.13542 1.1325,8.94034 0.59995,1.15103 1.09037,2.43436 1.09037,2.85231 0,0.41795 0.21571,0.76006 0.47945,0.76006 0.26375,0 1.32799,1.39708 2.36527,3.10426 1.25637,2.06782 2.21866,3.10426 2.88265,3.10426 0.56372,0 0.99684,0.35474 0.99684,0.81735 0,0.44997 0.81229,1.78807 1.80576,2.97449 l 4.39264,5.2614 c 1.42321,1.70718 2.58942,3.63091 2.59194,4.27552 0.004,1.19823 1.83526,5.22011 4.33114,9.5167 2.115,3.64017 3.90897,11.53901 4.74149,20.87033 0.77017,8.6353 1.31114,12.14824 2.54475,16.52909 l 1.27996,4.71874 c 0.29914,1.15862 1.76953,3.93426 3.26689,6.16723 2.75288,4.10615 3.50114,4.71875 9.73747,7.98395 1.58162,0.82831 3.18178,1.87402 3.55507,2.32398 0.37328,0.44997 1.1485,0.8182 1.72149,0.8182 0.57299,0 2.05266,0.93111 3.28796,2.06951 1.38192,1.27406 2.74614,2.0695 3.55001,2.0695 0.77017,0 1.30524,0.29492 1.30524,0.72045 0,0.83674 1.10301,1.34906 2.90624,1.34906 0.6977,0 1.82767,0.3657 2.51105,0.81314 0.68337,0.44744 4.10867,1.36338 7.61234,2.03496 5.31196,1.0179 7.74717,1.20159 14.64833,1.10132 5.87231,-0.0851 9.10381,-0.36655 11.12276,-0.96903 z m 86.45666,-157.14767 c 0.8755,-2.64418 0.88477,-3.04612 0.13567,-5.6903 -1.7215,-6.07454 -11.30814,-20.40941 -18.54804,-27.73526 -5.1586,-5.21927 -8.89652,-7.04526 -15.0174,-7.33512 -4.06318,-0.19212 -5.15017,-0.0455 -8.53587,1.15356 -2.13439,0.75584 -4.69515,1.56477 -5.6903,1.79818 -3.38907,0.79292 -7.48933,2.62649 -16.29652,7.28709 -4.83672,2.55992 -9.07769,4.6547 -9.42317,4.6547 -0.34548,0 -0.8696,0.44997 -1.16367,1.00021 -0.29408,0.55024 -1.05751,1.16536 -1.69622,1.36844 -0.63872,0.20307 -1.74426,0.91847 -2.45797,1.59173 -1.56139,1.47292 -8.72714,5.97932 -11.73703,7.38146 -2.36948,1.10385 -2.99977,1.95744 -3.5281,4.77436 -0.29745,1.58668 -0.17022,1.99536 0.84516,2.70654 2.10911,1.47713 4.75666,1.07941 7.32838,-1.10217 3.19357,-2.70906 9.47119,-7.18681 12.36058,-8.81731 1.33473,-0.75331 2.52958,-1.76363 2.65598,-2.24477 0.24605,-0.93954 4.9412,-3.87021 7.07474,-4.4154 0.71119,-0.18201 1.4586,-0.58394 1.65999,-0.89319 0.20139,-0.30924 0.66737,-0.58731 1.03475,-0.61765 1.59764,-0.13145 1.82936,-0.28565 2.43858,-1.62375 0.57299,-1.25805 0.6977,-1.31367 1.14767,-0.50895 0.45755,0.81735 0.61007,0.82831 1.6246,0.11797 0.61596,-0.43143 1.70801,-0.78787 2.42678,-0.79208 1.60521,-0.0101 2.26668,-0.42721 3.05876,-1.93216 0.37665,-0.71455 1.09373,-1.16367 1.858,-1.16367 0.68422,0 1.35833,-0.18454 1.49736,-0.40952 0.13904,-0.22498 1.04318,-0.46261 2.00884,-0.52749 0.96566,-0.0649 2.55233,-0.34632 3.52473,-0.62523 0.9724,-0.27891 2.76299,-0.50727 3.97807,-0.50727 1.21508,0 2.63576,-0.26627 3.1565,-0.59153 0.7609,-0.47524 1.53275,-0.32357 3.9174,0.76764 1.63303,0.74742 3.85589,2.06192 4.93952,2.91973 1.08363,0.8578 2.28859,1.56055 2.67873,1.56055 0.39014,0 1.12323,0.87297 1.62965,1.93974 0.50642,1.06678 1.66673,3.12196 2.5793,4.56707 l 2.6939,4.32524 2.96691,4.75076 c 2.86327,4.52241 4.06907,7.03262 5.31364,11.05956 1.01369,3.28205 1.24794,3.62332 2.49504,3.64439 0.75668,0.0126 1.66336,0.31009 2.01473,0.66146 1.15694,1.15694 2.09395,0.39014 3.04949,-2.49587 z m 68.48584,-38.03898 c 1.1384,-0.41036 2.41836,-0.75584 2.84557,-0.76764 0.42722,-0.0118 1.6583,-0.69011 2.73603,-1.50578 1.21676,-0.921 2.34589,-1.38276 2.97702,-1.21761 1.21845,0.31852 2.56413,-0.67579 2.56413,-1.89508 0,-0.48283 0.55109,-1.35664 1.22351,-1.94227 0.67242,-0.58563 1.38023,-1.90013 1.57235,-2.92141 0.34211,-1.8243 5.29005,-8.9555 6.79921,-9.79982 0.41373,-0.23172 0.75162,-0.73309 0.75162,-1.11564 0,-0.38256 0.34885,-0.82915 0.77607,-0.99262 0.42721,-0.16348 0.77606,-0.60249 0.77606,-0.97493 0,-0.37244 0.69855,-1.29007 1.55213,-2.03917 0.85359,-0.7491 1.55213,-1.83441 1.55213,-2.41246 0,-0.57805 0.23257,-1.19485 0.51738,-1.37096 0.77606,-0.47946 0.60838,-7.82806 -0.26374,-11.52722 -0.42132,-1.78723 -1.21592,-4.13143 -1.76616,-5.20916 -1.34232,-2.63154 -5.07434,-7.30226 -6.15375,-7.70166 -0.47862,-0.17696 -1.68442,-0.85275 -2.68042,-1.50073 -0.99599,-0.64799 -5.1864,-2.35011 -9.31193,-3.78174 -8.48616,-2.94416 -12.46002,-3.37559 -15.26177,-1.65746 -1.93637,1.18727 -13.42904,12.85605 -18.31378,18.59354 -4.06571,4.77604 -6.7773,8.53756 -6.7773,9.40378 0,0.3143 -0.40699,1.19401 -0.90499,1.95491 -1.23867,1.89255 -1.30355,15.11347 -0.0851,17.35655 0.96229,1.77206 6.10657,7.08233 6.88937,7.11183 0.80809,0.0295 3.61068,2.5675 4.68588,4.24265 0.50053,0.78028 1.09627,1.30356 1.32378,1.16284 0.22751,-0.14072 1.65746,0.0792 3.17673,0.48788 3.78173,1.01706 15.99654,1.03054 18.80082,0.0202 z M 196.46492,207.46067 c 0,-0.35812 0.31262,-0.36823 0.94375,-0.0303 0.51906,0.27807 3.25593,0.43311 6.08212,0.34548 4.14576,-0.12808 5.48807,-0.3716 6.94583,-1.26142 0.9943,-0.60585 3.32081,-1.57488 5.16955,-2.15293 l 4.95131,-1.55381 c 0.87381,-0.27639 2.73603,-0.5039 4.13901,-0.50558 1.40299,-0.002 3.24835,-0.37497 4.10194,-0.82915 0.85359,-0.45418 2.59952,-0.91257 3.88032,-1.01875 5.43667,-0.45081 7.24243,-0.84516 7.24243,-1.58078 0,-0.40783 0.5435,-1.83946 1.20666,-3.18094 0.66315,-1.34147 1.62628,-4.03031 2.1386,-5.97426 0.51232,-1.94396 1.48219,-4.18873 2.15545,-4.98923 0.67327,-0.8005 1.22435,-1.83273 1.22435,-2.29365 0,-0.46092 0.71539,-2.10658 1.59005,-3.65618 1.48303,-2.62733 1.58162,-3.12364 1.46028,-7.36462 -0.0716,-2.50093 0.0624,-6.12341 0.29661,-8.04967 0.33789,-2.77647 0.25868,-3.84915 -0.38172,-5.17376 -0.44491,-0.91932 -1.08615,-2.71497 -1.42657,-3.99156 -0.47862,-1.79817 -1.56646,-3.29722 -4.82913,-6.6568 -7.68987,-7.91906 -12.7364,-10.61717 -24.83745,-13.27989 -5.74592,-1.26395 -9.11813,-0.83842 -16.36309,2.06445 -5.12237,2.05265 -6.32902,2.77226 -8.67996,5.17966 -1.50157,1.53781 -3.18937,2.94079 -3.75056,3.11943 -0.5612,0.17864 -1.01959,0.52075 -1.01959,0.76174 0,0.24099 -1.35074,2.26247 -3.0023,4.49208 -1.65156,2.2296 -3.36969,4.75245 -3.81965,5.60603 -4.36316,8.28393 -5.27489,12.3707 -4.90666,21.98683 0.27807,7.25422 1.3162,13.25967 2.90793,16.81305 1.32041,2.94922 6.34755,8.24853 9.07937,9.57063 1.27743,0.61849 2.46554,1.35579 2.63997,1.63892 0.44744,0.72382 3.4371,2.49588 4.21485,2.4984 0.35559,0.002 0.6463,-0.2393 0.6463,-0.53338 z m 3.87948,-6.96184 c -0.28481,-0.0952 -1.12744,-0.30672 -1.87401,-0.47019 -1.99704,-0.43732 -7.44382,-4.62689 -9.24032,-7.10592 -0.85864,-1.18474 -1.56055,-2.70148 -1.56055,-3.36969 0,-0.66821 -0.20729,-1.21592 -0.46092,-1.21592 -0.25364,0 -0.62102,-0.63787 -0.81736,-1.41731 -0.19633,-0.77943 -0.57383,-1.55213 -0.84095,-1.71728 -0.45165,-0.27891 -1.54033,-6.17903 -1.56898,-8.50554 -0.0388,-3.13544 1.01959,-11.24831 1.53444,-11.76316 0.33031,-0.33031 0.60164,-1.23951 0.60164,-2.01894 0,-0.77944 0.24857,-1.57151 0.55276,-1.75942 0.30419,-0.18791 0.42806,-0.66652 0.27554,-1.06425 -0.15757,-0.4112 0.27302,-1.08278 0.99937,-1.55887 0.76679,-0.50221 1.27659,-1.32967 1.27659,-2.07035 0,-0.67832 0.23846,-1.23361 0.53001,-1.23361 0.29155,0 0.76427,-0.61512 1.04992,-1.36759 0.91763,-2.41499 3.73624,-5.4788 5.9313,-6.45036 1.17378,-0.51906 3.01072,-1.64061 4.08255,-2.49251 4.83672,-3.84409 13.74503,-5.06169 21.12734,-2.88854 1.92036,0.5654 3.49187,1.17968 3.49187,1.36506 0,0.18538 0.8123,0.48957 1.80576,0.67579 1.15272,0.21656 2.88265,1.31957 4.78531,3.05202 1.63893,1.4923 3.61743,3.11521 4.39686,3.60731 3.53653,2.23045 6.70483,10.59948 6.75623,17.84697 l 0.0337,4.81227 -2.94163,5.82344 c -5.28921,10.47056 -7.42191,12.37406 -14.89017,13.28916 -5.65575,0.69265 -5.69873,0.7095 -7.05368,2.80766 -1.52685,2.36358 -3.09415,3.33092 -7.2635,4.48702 -2.98713,0.82831 -9.13582,1.23193 -10.71997,0.7036 z m 17.32706,-24.1903 c 2.09479,-1.06678 2.33915,-1.4013 2.93321,-4.00925 0.94038,-4.1289 0.90583,-4.28226 -1.54286,-6.91212 l -2.23467,-2.39982 h -3.52389 c -3.45816,0 -3.56433,0.0413 -5.70884,2.19843 -1.45185,1.46113 -2.3046,2.84642 -2.54053,4.13143 -0.42048,2.28775 0.47693,6.08634 1.43921,6.08634 0.3716,0 1.09711,0.46597 1.61196,1.03475 1.36928,1.51337 6.47816,1.44428 9.56725,-0.12892 z m 195.74616,50.09031 c -5.7299,-1.79228 -12.77937,-7.53566 -14.77472,-12.03701 -1.26564,-2.85484 -1.92795,-9.63214 -0.99768,-10.20681 0.31936,-0.19718 0.58057,-1.02549 0.58057,-1.84116 0,-0.81566 0.54687,-2.13944 1.21508,-2.94416 0.66821,-0.80471 1.36506,-2.08046 1.5496,-2.83545 0.37329,-1.53023 2.74361,-4.65724 7.48342,-9.86892 1.74173,-1.91531 3.52389,-4.17356 3.96122,-5.01957 0.83842,-1.62122 4.31934,-4.27552 7.1371,-5.44172 1.45523,-0.60248 2.32061,-0.55698 6.59023,0.34464 2.70317,0.57046 5.26393,1.23867 5.6903,1.48387 l 3.62164,2.01727 c 5.17208,2.85652 6.92644,5.09287 9.62961,12.27379 0.67916,1.80408 1.23446,4.1803 1.23446,5.28078 0,2.16725 -1.1561,3.95616 -8.63278,13.36669 l -3.8028,4.78531 h -3.03938 c -2.2237,0 -3.11858,0.20813 -3.33682,0.77606 -0.16347,0.42722 -0.65389,0.77607 -1.09037,0.77607 -0.93279,0 -0.95133,0.18285 -0.2629,2.65935 0.87718,3.15734 0.10448,4.214 -4.23423,5.7931 -4.20558,1.53106 -5.38695,1.61954 -8.52155,0.63871 z m 16.85603,-24.63016 c 2.85063,-2.37285 3.13122,-2.78659 3.13122,-4.6269 0,-3.9233 -4.25024,-6.33407 -8.24769,-4.67829 -3.25256,1.34737 -4.93614,8.60412 -2.51863,10.85648 1.95828,1.8243 4.10278,1.38866 7.63594,-1.55045 z m -50.91778,183.69988 c -0.43396,-0.83926 -0.78955,-1.91025 -0.78955,-2.37875 0,-0.46851 -0.36233,-1.61702 -0.8064,-2.5515 -0.72466,-1.52685 -0.72719,-2.00546 -0.0228,-4.73391 0.43059,-1.66925 1.0693,-5.62204 1.419,-8.78276 0.56793,-5.13669 0.73561,-5.72064 1.57488,-5.50071 0.73477,0.19212 0.93953,-0.0565 0.93953,-1.14177 0,-0.76342 -0.25447,-1.86306 -0.5654,-2.44363 -0.40868,-0.76343 -0.40868,-1.21255 0,-1.62123 0.31093,-0.31093 0.58141,-1.2749 0.60164,-2.14281 0.0202,-0.86792 0.20223,-1.99873 0.4053,-2.51189 0.33116,-0.84011 0.61428,-0.74742 2.80007,0.92184 1.33726,1.02127 2.71328,2.37285 3.05876,3.00398 1.67094,3.05623 3.62248,9.74084 3.88454,13.30518 0.24857,3.3857 0.11375,4.30164 -1.06341,7.1885 -2.0063,4.92182 -4.30585,8.19545 -6.77224,9.64056 -2.82787,1.65746 -3.70084,1.61112 -4.66228,-0.24857 z M 356.111,379.8305 c -0.14915,-0.24099 -2.41499,-0.59068 -5.03473,-0.77691 -3.19358,-0.22666 -5.05664,-0.60332 -5.65407,-1.14345 -1.11396,-1.00779 -3.12785,-7.16238 -3.12785,-9.55714 0,-2.08383 0.8519,-10.08463 1.60521,-15.08397 0.88055,-5.84198 0.68759,-8.50638 -0.77185,-10.65425 -1.56308,-2.30039 -1.63639,-3.21549 -0.25869,-3.21549 0.56878,0 1.03475,-0.18285 1.03475,-0.40615 0,-0.4921 0.64883,-0.59743 5.89254,-0.9547 2.74951,-0.18707 5.28246,-0.0126 7.7598,0.53338 a 114.66549,114.66549 0 0 0 7.22052,1.3103 c 6.5262,0.91847 7.78003,2.70822 7.81543,11.15646 0.0211,5.14174 -0.14578,6.18998 -1.72993,10.86406 -3.18852,9.40379 -6.14027,14.22112 -10.35175,16.89142 -2.33662,1.48135 -3.89802,1.84874 -4.40022,1.03476 z m -48.2795,-9.21503 c -3.13207,-0.66568 -4.61678,-6.52788 -4.10615,-16.2131 0.34042,-6.45626 1.58331,-14.37869 2.38044,-15.17582 0.55529,-0.5553 2.27174,-0.75753 9.08695,-1.0693 l 10.60538,-0.54856 c 7.06042,-0.39856 10.14193,0.26122 11.36038,2.43184 0.71792,1.27828 0.68337,1.49568 -0.47862,3.06719 -1.03475,1.39961 -1.31029,2.54812 -1.5951,6.65174 -0.46092,6.64837 -2.1681,10.26411 -7.43118,15.73533 -2.12259,2.20685 -4.06739,3.88369 -4.32187,3.72696 -0.25447,-0.15673 -1.49146,0.0236 -2.74951,0.40194 -2.46217,0.73983 -10.86238,1.39371 -12.7524,0.99262 z m -9.26391,40.40003 c -0.79123,-1.20665 -0.81314,-2.00125 -0.2393,-8.66563 0.77438,-9.00522 1.9389,-17.19898 2.71749,-19.1303 0.94712,-2.34757 3.10679,-3.10594 9.57315,-3.36379 4.65471,-0.18538 6.35682,-0.0447 8.79456,0.72972 1.66252,0.52749 3.20538,0.90246 3.42952,0.83337 1.08868,-0.33874 5.38863,5.10719 6.99975,8.86365 l 1.7156,4.00082 -0.88308,2.65767 c -1.67431,5.03978 -2.28606,5.64901 -8.90242,8.86112 -5.10045,2.4765 -6.93739,3.09078 -11.12275,3.71939 -2.75794,0.41457 -6.23886,1.21929 -7.73621,1.78806 -3.40508,1.29429 -3.3006,1.30103 -4.34546,-0.29323 z m -45.64626,9.16027 c -4.55191,-0.6067 -6.07623,-3.52642 -3.2256,-6.17903 1.93131,-1.79649 5.74507,-7.74295 5.74507,-8.95719 0,-0.51485 0.46597,-1.18558 1.03475,-1.48977 0.56878,-0.30419 1.03475,-1.03223 1.03475,-1.61786 0,-0.58563 0.46598,-1.65577 1.03476,-2.37959 0.56878,-0.72383 1.03475,-1.72066 1.03475,-2.21697 0,-0.49631 0.34885,-1.19148 0.77607,-1.54539 0.42721,-0.35391 0.77606,-1.32546 0.77606,-2.15798 0,-1.5614 1.11902,-4.18789 2.41583,-5.67008 0.40615,-0.46429 0.9151,-2.49672 1.13081,-4.51651 0.30251,-2.82788 0.68254,-3.98734 1.65662,-5.044 1.51842,-1.64819 4.87716,-3.27785 6.78825,-3.29386 0.76174,-0.007 1.69369,-0.3025 2.06951,-0.65809 0.37581,-0.35559 1.14935,-0.67074 1.71813,-0.70107 0.56877,-0.0303 1.84957,-0.20645 2.84557,-0.39267 1.75773,-0.32863 1.9094,-0.22077 5.16534,3.67557 6.41159,7.67217 6.56242,9.16447 2.23297,22.03569 -3.5281,10.48741 -7.07137,17.91438 -8.97825,18.81768 -3.71348,1.76026 -18.9011,3.13796 -25.25455,2.29027 z m -20.76079,-7.12362 c -5.99028,-3.32672 -13.43073,-8.5384 -15.28874,-10.70902 -2.20432,-2.57509 -4.88727,-7.80784 -4.88727,-9.53102 0,-1.53444 1.06425,-3.06298 6.35935,-9.13752 4.17946,-4.79458 8.12636,-10.27338 8.12636,-11.28117 0,-0.66652 3.90728,-4.12131 5.2614,-4.65217 0.52074,-0.20392 0.94711,-0.75669 0.94711,-1.22772 0,-0.70107 0.13988,-0.73983 0.7727,-0.21403 0.63282,0.52581 0.94965,0.423 1.76532,-0.5831 0.91172,-1.1266 1.36338,-1.2235 5.60013,-1.20159 3.95448,0.0194 5.02294,0.22582 7.52893,1.45185 5.22011,2.55402 8.70861,7.84154 7.84407,11.8904 -0.74826,3.50282 -15.81706,33.40871 -18.22531,36.17001 -1.12154,1.28586 -1.99872,1.1384 -5.80237,-0.97408 z m 31.37122,-48.52302 c -1.73245,-2.64418 -2.45628,-5.73327 -2.76636,-11.8095 -0.25616,-5.01619 -0.17274,-6.23801 0.47608,-6.98374 0.43227,-0.49715 0.9387,-2.26753 1.12492,-3.93341 0.18622,-1.66589 0.56625,-3.4548 0.84432,-3.97554 0.27807,-0.52075 0.50642,-1.64482 0.50642,-2.49841 0,-1.85969 0.86286,-4.29322 1.71391,-4.83503 1.10385,-0.70191 4.98249,-0.42637 8.00249,0.56709 1.62712,0.53592 3.88959,1.13924 5.02715,1.34063 1.13755,0.20139 3.40086,0.92774 5.02883,1.6128 1.62797,0.68506 3.3739,1.2471 3.88117,1.24878 2.00715,0.006 4.79964,1.1325 6.31216,2.5456 1.9566,1.82767 2.06108,3.72359 0.53086,9.64056 -2.46723,9.53945 -5.65322,13.65403 -12.90577,16.66644 -2.28353,0.94796 -4.22917,1.24457 -9.85037,1.49904 l -7.00481,0.31767 z m -25.0262,-29.13319 c -3.17925,-0.18117 -3.24414,-0.21487 -4.48196,-2.35769 -1.26648,-2.19253 -1.8302,-3.98312 -2.87085,-9.12066 -0.38761,-1.91446 -0.40025,-2.97618 -0.0396,-3.33682 0.29155,-0.29155 0.52918,-1.18727 0.52918,-1.9903 0,-1.10385 0.33452,-1.58836 1.36759,-1.98103 1.65156,-0.62776 4.84008,0.25616 4.84008,1.34147 0,0.40868 0.94291,0.95723 2.19843,1.27996 3.74719,0.9606 6.26077,2.07203 8.23927,3.64354 1.0457,0.83084 2.447,1.75942 3.11353,2.06277 1.09205,0.49715 3.52052,3.43036 3.52052,4.25108 0,0.18117 -1.17211,1.73835 -2.60542,3.45985 l -2.60543,3.13123 -3.99071,-0.0994 c -2.19505,-0.0548 -5.44256,-0.18201 -7.2163,-0.28313 z m -41.00673,-4.24519 c -0.99599,-0.20307 -2.73856,-0.87465 -3.87274,-1.4923 -1.13419,-0.61765 -2.67368,-1.12323 -3.42193,-1.12323 -3.00568,0 -5.85462,-4.02863 -7.51039,-10.61886 -0.68085,-2.70906 -0.7432,-3.70421 -0.27891,-4.44741 0.32862,-0.52665 0.59827,-1.57067 0.59827,-2.32062 0,-1.99535 2.6644,-8.48531 3.71348,-9.0465 0.49547,-0.26543 1.26816,-1.25553 1.71644,-2.20096 1.59764,-3.36632 8.58222,-5.56138 12.10527,-3.80365 0.88308,0.4407 1.60606,0.58648 1.60606,0.32358 0,-0.94291 1.49567,-0.44576 4.21569,1.40382 1.52264,1.03476 3.93172,2.40403 5.35493,3.04359 1.42321,0.63956 3.03011,1.65493 3.57192,2.25742 0.54182,0.60248 1.3162,1.09542 1.71982,1.09542 0.40362,0 2.10321,1.30608 3.77668,2.90203 l 3.04274,2.90202 -2.11248,4.21148 c -2.5498,5.08361 -3.98396,6.99049 -9.68353,12.87628 l -4.38338,4.52662 -4.1744,-0.0598 c -2.29618,-0.0329 -4.98923,-0.22583 -5.98523,-0.42891 z m 13.47539,46.15101 c -1.08026,-2.32314 -1.55298,-4.2435 -2.37117,-9.62624 -0.42553,-2.80091 -0.98336,-5.48385 -1.23952,-5.96331 -0.25616,-0.47946 -0.7373,-2.36696 -1.06846,-4.19547 -0.54434,-3.0023 -0.514,-3.39076 0.31346,-3.99577 1.08616,-0.79376 4.88728,-0.87212 7.47416,-0.15336 1.012,0.28144 2.49672,1.19739 3.30059,2.03496 1.23362,1.28755 1.4982,2.0712 1.70718,5.04737 0.47861,6.81859 -0.92521,10.70229 -5.99787,16.59313 l -1.45354,1.6878 z"
     fill="#ffffff"
     id="path6"
     style="stroke-width:0.842633" />
  <circle
     style="fill:none;stroke:#000000;stroke-width:3.75;stroke-opacity:1;stroke-miterlimit:4;stroke-dasharray:none"
     id="path839"
     cx="158.09302"
     cy="468.13953"
     r="14.427907" />
  <circle
     style="fill:none;stroke:#000000;stroke-width:3.75;stroke-opacity:1;stroke-miterlimit:4;stroke-dasharray:none"
     id="path839-6"
     cx="256.31165"
     cy="480.4465"
     r="14.427907" />
  <circle
     style="fill:#000000;stroke:#000000;stroke-width:2.25;stroke-opacity:1"
     id="path839-2-1"
     cx="358.31165"
     cy="465.4465"
     r="14.427907" />
  <circle
     style="fill:#000000;stroke:#000000;stroke-width:2.25;stroke-opacity:1"
     id="path839-2-7"
     cx="491.81165"
     cy="403.9465"
     r="14.427907" />
  <circle
     style="fill:#000000;stroke:#000000;stroke-width:2.25;stroke-opacity:1"
     id="path839-2-3-5"
     cx="130.31163"
     cy="430.9465"
     r="14.427907" />
  <circle
     style="fill:none;stroke:#000000;stroke-width:3.75;stroke-opacity:1;stroke-miterlimit:4;stroke-dasharray:none"
     id="path839-2-3-4"
     cx="116.81163"
     cy="381.4465"
     r="14.427907" />
  <circle
     style="fill:none;stroke:#000000;stroke-width:3.75;stroke-opacity:1;stroke-miterlimit:4;stroke-dasharray:none"
     id="path839-2-3-59"
     cx="106.31163"
     cy="334.9465"
     r="14.427907" />
  <circle
     style="fill:none;stroke:#000000;stroke-width:3.75;stroke-opacity:1;stroke-miterlimit:4;stroke-dasharray:none"
     id="path839-2-3-6"
     cx="89.81163"
     cy="288.4465"
     r="14.427907" />
  <circle
     style="fill:none;stroke:#000000;stroke-width:3.75;stroke-opacity:1;stroke-miterlimit:4;stroke-dasharray:none"
     id="path839-2-3-9"
     cx="70.31163"
     cy="243.4465"
     r="14.427907" />
  <circle
     style="fill:none;stroke:#000000;stroke-width:3.75;stroke-opacity:1;stroke-miterlimit:4;stroke-dasharray:none"
     id="path839-2-3-56"
     cx="65.81163"
     cy="199.9465"
     r="14.427907" />
  <circle
     style="fill:none;stroke:#000000;stroke-width:3.75;stroke-opacity:1;stroke-miterlimit:4;stroke-dasharray:none"
     id="path839-2-3-42"
     cx="73.31163"
     cy="154.9465"
     r="14.427907" />
  <circle
     style="fill:none;stroke:#000000;stroke-width:3.75;stroke-opacity:1;stroke-miterlimit:4;stroke-dasharray:none"
     id="path839-2-3-66"
     cx="92.81163"
     cy="117.4465"
     r="14.427907" />
  <circle
     style="fill:#000000;stroke:#000000;stroke-width:2.25;stroke-opacity:1"
     id="path839-2-3-7"
     cx="163.31163"
     cy="66.446503"
     r="14.427907" />
  <circle
     style="fill:none;stroke:#000000;stroke-width:3.75;stroke-opacity:1;stroke-miterlimit:4;stroke-dasharray:none"
     id="path839-2-3-0"
     cx="206.81163"
     cy="55.946503"
     r="14.427907" />
  <circle
     style="fill:none;stroke:#000000;stroke-width:3.75;stroke-opacity:1;stroke-miterlimit:4;stroke-dasharray:none"
     id="path839-2-3-3"
     cx="248.81165"
     cy="58.946503"
     r="14.427907" />
  <circle
     style="fill:#000000;stroke:#000000;stroke-width:2.25;stroke-opacity:1"
     id="path839-2-3-04"
     cx="545.19067"
     cy="287.33023"
     r="14.427907" />
  <circle
     style="fill:#000000;stroke:#000000;stroke-width:2.25;stroke-opacity:1"
     id="path839-2-3-428"
     cx="533.52557"
     cy="167.6093"
     r="14.427907" />
  <circle
     style="fill:#000000;stroke:#000000;stroke-width:2.25;stroke-opacity:1"
     id="path839-2-3-94"
     cx="442.04654"
     cy="90.251167"
     r="14.427907" />
  <circle
     style="fill:#000000;stroke:#000000;stroke-width:2.25;stroke-opacity:1"
     id="path839-2-3-92"
     cx="329.07907"
     cy="80.42791"
     r="14.427907" />
  <circle
     style="fill:#000000;fill-opacity:1;stroke:#000000;stroke-width:3.75;stroke-miterlimit:4;stroke-dasharray:none;stroke-opacity:1"
     id="path1062"
     cx="158.13211"
     cy="468.20993"
     r="4.6669049" />
  <path
     style="fill:none;stroke:#000000;stroke-width:3.75;stroke-linecap:butt;stroke-linejoin:miter;stroke-miterlimit:4;stroke-dasharray:none;stroke-opacity:1"
     d="m 116.95814,367.75814 v 27.7814"
     id="path1064" />
  <path
     style="fill:none;stroke:#000000;stroke-width:3.75;stroke-linecap:butt;stroke-linejoin:miter;stroke-miterlimit:4;stroke-dasharray:none;stroke-opacity:1"
     d="m 70.297674,229.84884 v 27.7814"
     id="path1064-5" />
  <path
     style="fill:none;stroke:#000000;stroke-width:3.75;stroke-linecap:butt;stroke-linejoin:miter;stroke-miterlimit:4;stroke-dasharray:none;stroke-opacity:1"
     d="m 73.367442,140.82558 v 27.7814"
     id="path1064-8" />
  <path
     style="fill:none;stroke:#000000;stroke-width:3.75;stroke-linecap:butt;stroke-linejoin:miter;stroke-miterlimit:4;stroke-dasharray:none;stroke-opacity:1"
     d="m 93.013953,103.37442 v 27.7814"
     id="path1064-0" />
  <path
     style="fill:none;stroke:#000000;stroke-width:3.75;stroke-linecap:butt;stroke-linejoin:miter;stroke-miterlimit:4;stroke-dasharray:none;stroke-opacity:1"
     d="M 206.74884,41.979068 V 69.760467"
     id="path1064-85" />
  <path
     style="fill:none;stroke:#000000;stroke-width:3.75;stroke-linecap:butt;stroke-linejoin:miter;stroke-miterlimit:4;stroke-dasharray:none;stroke-opacity:1"
     d="m 220.23803,478.18081 -27.61778,-3.01066"
     id="path1064-9" />
  <path
     style="fill:none;stroke:#000000;stroke-width:3.75;stroke-linecap:butt;stroke-linejoin:miter;stroke-miterlimit:4;stroke-dasharray:none;stroke-opacity:1"
     d="m 326.79452,475.05082 -27.59583,3.20572"
     id="path1064-6"
     inkscape:transform-center-x="-0.42252567"
     inkscape:transform-center-y="-0.23886533" />
  <path
     style="fill:none;stroke:#000000;stroke-width:3.75;stroke-linecap:butt;stroke-linejoin:miter;stroke-miterlimit:4;stroke-dasharray:none;stroke-opacity:1"
     d="M 419.26372,445.08548 393.4289,455.30154"
     id="path1064-64" />
  <path
     style="fill:none;stroke:#000000;stroke-width:3.75;stroke-linecap:butt;stroke-linejoin:miter;stroke-miterlimit:4;stroke-dasharray:none;stroke-opacity:1"
     d="m 464.72656,421.28446 -24.72478,12.66852"
     id="path1064-4" />
  <path
     style="fill:none;stroke:#000000;stroke-width:3.75;stroke-linecap:butt;stroke-linejoin:miter;stroke-miterlimit:4;stroke-dasharray:none;stroke-opacity:1"
     d="m 525.55472,356.43171 -12.66888,24.7246"
     id="path1064-63" />
  <path
     style="fill:none;stroke:#000000;stroke-width:3.75;stroke-linecap:butt;stroke-linejoin:miter;stroke-miterlimit:4;stroke-dasharray:none;stroke-opacity:1"
     d="m 539.69591,315.20605 -7.08906,26.86172"
     id="path1064-636" />
  <path
     style="fill:none;stroke:#000000;stroke-width:3.75;stroke-linecap:butt;stroke-linejoin:miter;stroke-miterlimit:4;stroke-dasharray:none;stroke-opacity:1"
     d="m 546.57052,234.43205 v 27.78139"
     id="path1064-62" />
  <path
     style="fill:none;stroke:#000000;stroke-width:3.75;stroke-linecap:butt;stroke-linejoin:miter;stroke-miterlimit:4;stroke-dasharray:none;stroke-opacity:1"
     d="m 541.3644,190.66783 3.03202,27.61544"
     id="path1064-7" />
  <path
     style="fill:none;stroke:#000000;stroke-width:3.75;stroke-linecap:butt;stroke-linejoin:miter;stroke-miterlimit:4;stroke-dasharray:none;stroke-opacity:1"
     d="m 501.03543,126.22876 18.13624,21.0448"
     id="path1064-79" />
  <path
     style="fill:none;stroke:#000000;stroke-width:3.75;stroke-linecap:butt;stroke-linejoin:miter;stroke-miterlimit:4;stroke-dasharray:none;stroke-opacity:1"
     d="M 469.32215,99.829742 490.97491,117.2356"
     id="path1064-77" />
  <path
     style="fill:none;stroke:#000000;stroke-width:3.75;stroke-linecap:butt;stroke-linejoin:miter;stroke-miterlimit:4;stroke-dasharray:none;stroke-opacity:1"
     d="M 420.4275,85.297256 392.69926,83.579577"
     id="path1064-76" />
  <path
     style="fill:none;stroke:#000000;stroke-width:3.75;stroke-linecap:butt;stroke-linejoin:miter;stroke-miterlimit:4;stroke-dasharray:none;stroke-opacity:1"
     d="M 382.89884,82.335945 355.1233,81.76545"
     id="path1064-95" />
  <path
     style="fill:none;stroke:#000000;stroke-width:3.75;stroke-linecap:butt;stroke-linejoin:miter;stroke-miterlimit:4;stroke-dasharray:none;stroke-opacity:1"
     d="m 303.23528,72.703178 -26.9061,-6.918671"
     id="path1064-3" />
  <path
     style="fill:none;stroke:#000000;stroke-width:3.75;stroke-linecap:butt;stroke-linejoin:miter;stroke-miterlimit:4;stroke-dasharray:none;stroke-opacity:1"
     d="M 137.71178,79.427243 115.3864,95.961551"
     id="path1064-60" />
</svg>
