<?xml version="1.0" encoding="UTF-8" standalone="no"?>
<svg
   xmlns:dc="http://purl.org/dc/elements/1.1/"
   xmlns:cc="http://creativecommons.org/ns#"
   xmlns:rdf="http://www.w3.org/1999/02/22-rdf-syntax-ns#"
   xmlns:svg="http://www.w3.org/2000/svg"
   xmlns="http://www.w3.org/2000/svg"
   xmlns:sodipodi="http://sodipodi.sourceforge.net/DTD/sodipodi-0.dtd"
   xmlns:inkscape="http://www.inkscape.org/namespaces/inkscape"
   version="1.0"
   width="461.000000pt"
   height="881.000000pt"
   viewBox="0 0 461.000000 881.000000"
   preserveAspectRatio="xMidYMid meet"
   id="svg20"
   sodipodi:docname="face16.svg"
   inkscape:version="1.0.1 (3bc2e813f5, 2020-09-07)">
  <defs
     id="defs24" />
  <sodipodi:namedview
     pagecolor="#ffffff"
     bordercolor="#666666"
     borderopacity="1"
     objecttolerance="10"
     gridtolerance="10"
     guidetolerance="10"
     inkscape:pageopacity="0"
     inkscape:pageshadow="2"
     inkscape:window-width="1920"
     inkscape:window-height="1027"
     id="namedview22"
     showgrid="false"
     inkscape:zoom="0.73212259"
     inkscape:cx="307.33333"
     inkscape:cy="587.33333"
     inkscape:window-x="1912"
     inkscape:window-y="-8"
     inkscape:window-maximized="1"
     inkscape:current-layer="svg20" />
  <metadata
     id="metadata2">
Created by potrace 1.16, written by Peter Selinger 2001-2019
<rdf:RDF>
  <cc:Work
     rdf:about="">
    <dc:format>image/svg+xml</dc:format>
    <dc:type
       rdf:resource="http://purl.org/dc/dcmitype/StillImage" />
  </cc:Work>
</rdf:RDF>
</metadata>
  <g
     transform="translate(0.000000,881.000000) scale(0.100000,-0.100000)"
     fill="#000000"
     stroke="none"
     id="g18">
    <path
       d="M2117 7994 c-1 -1 -29 -5 -61 -8 -108 -11 -161 -19 -171 -26 -5 -3 -23 -7 -39 -8 -31 -2 -137 -48 -147 -64 -3 -5 -10 -9 -15 -9 -15 1 -44 -10 -44 -17 0 -4 -17 -16 -37 -27 -21 -11 -55 -38 -77 -60 -128 -134 -155 -164 -184 -201 -18 -23 -32 -45 -32 -48 0 -4 -12 -19 -26 -34 -14 -15 -37 -47 -51 -72 -14 -25 -33 -56 -41 -70 -9 -14 -17 -32 -17 -41 -1 -10 -8 -24 -17 -32 -8 -9 -25 -44 -37 -79 -13 -35 -26 -72 -31 -83 -19 -51 -30 -94 -30 -118 0 -15 -4 -27 -8 -27 -5 0 -14 -17 -20 -37 -6 -21 -18 -61 -26 -90 -9 -28 -16 -58 -16 -65 0 -11 -30 -117 -48 -168 -3 -8 -4 -23 -3 -34 2 -10 -1 -16 -6 -13 -5 3 -7 -12 -5 -34 2 -21 0 -39 -5 -39 -5 0 -10 -6 -10 -12 0 -7 -5 -42 -11 -78 -7 -36 -12 -76 -12 -90 0 -14 -2 -50 -4 -80 -8 -115 -9 -157 -2 -168 4 -7 5 -16 2 -21 -9 -14 13 -185 34 -271 23 -98 30 -131 30 -151 0 -19 50 -180 70 -224 5 -11 12 -31 15 -45 4 -14 18 -50 32 -80 14 -30 33 -71 41 -90 8 -19 19 -43 23 -52 5 -10 9 -24 9 -32 0 -7 7 -19 15 -26 9 -7 13 -15 10 -18 -2 -3 14 -41 37 -86 60 -118 64 -126 83 -186 10 -30 31 -74 46 -97 16 -23 29 -48 29 -55 0 -8 4 -18 10 -24 5 -5 12 -27 16 -49 3 -22 10 -48 15 -57 5 -10 7 -18 4 -18 -4 0 3 -13 14 -29 11 -15 19 -30 16 -32 -2 -2 7 -45 21 -94 13 -50 26 -98 28 -107 3 -9 10 -26 16 -38 8 -16 9 -25 1 -33 -7 -7 -6 -16 2 -31 8 -15 11 -98 11 -281 -1 -239 -4 -294 -19 -380 -2 -16 -5 -58 -6 -92 -1 -35 -5 -63 -8 -63 -10 0 -32 -107 -36 -177 -2 -35 -7 -68 -11 -75 -9 -13 -23 -78 -29 -127 -2 -19 -8 -44 -14 -55 -5 -12 -12 -38 -16 -58 -3 -21 -10 -38 -15 -38 -6 0 -10 -13 -10 -28 0 -16 -9 -47 -20 -70 -11 -22 -20 -48 -20 -56 0 -8 -5 -18 -10 -21 -5 -3 -10 -21 -10 -39 0 -18 -3 -36 -7 -40 -10 -10 -34 -77 -39 -111 -2 -16 -9 -31 -14 -33 -6 -2 -10 -20 -10 -41 0 -20 -4 -41 -9 -46 -8 -9 -28 -109 -36 -180 -1 -11 -5 -27 -8 -35 -11 -28 -32 -310 -25 -330 4 -11 9 -46 12 -77 3 -32 7 -72 9 -89 4 -33 89 -178 134 -228 16 -17 56 -65 90 -106 95 -117 347 -366 400 -396 27 -15 55 -33 63 -39 8 -7 53 -22 100 -35 47 -13 89 -27 95 -32 5 -4 20 -8 34 -8 24 0 74 -13 116 -31 23 -10 432 -13 485 -5 19 4 55 9 80 12 25 3 52 12 60 18 22 19 69 34 125 41 28 4 55 11 62 17 7 5 21 7 33 3 13 -4 22 -1 26 9 3 9 14 16 24 16 10 0 20 7 24 15 3 8 12 15 21 15 8 0 15 5 15 10 0 6 7 10 15 10 18 0 88 43 124 76 14 13 31 24 38 24 7 0 13 7 13 15 0 9 7 18 15 21 8 4 15 12 15 19 0 7 6 18 13 24 13 10 32 46 76 141 9 19 20 38 25 41 5 4 5 12 2 18 -4 6 -1 17 6 24 7 8 24 47 36 88 13 41 27 88 32 105 6 17 10 40 10 52 0 11 5 24 10 27 6 4 8 10 5 15 -3 5 0 28 6 52 24 98 41 231 44 353 2 71 9 148 15 170 9 36 15 132 20 340 2 55 -8 404 -12 434 0 3 1 8 2 11 1 3 3 20 4 37 1 18 13 44 25 57 16 17 20 30 15 50 -4 19 -2 27 10 32 9 3 14 10 11 14 -3 5 9 11 26 15 37 8 47 30 25 54 -9 10 -16 22 -16 28 0 5 -9 18 -20 28 -12 11 -18 25 -14 34 3 9 6 39 6 66 0 28 4 57 9 66 5 9 4 63 -2 120 -6 57 -12 124 -14 149 -6 105 -24 179 -53 222 -16 24 -33 54 -37 68 -4 14 -14 36 -23 50 -9 14 -19 48 -23 76 -4 29 -14 67 -22 85 -26 59 -40 225 -40 489 -1 265 3 316 26 373 16 36 31 125 29 169 -1 15 3 30 8 33 6 4 10 24 10 45 0 21 5 42 11 46 8 5 10 29 6 75 -3 38 -2 69 3 69 7 0 11 26 25 190 3 30 7 69 10 85 12 75 17 141 20 296 3 134 -1 200 -21 350 -40 298 -68 460 -86 493 -7 11 -11 25 -10 30 2 4 -1 13 -6 20 -5 6 -12 26 -16 45 -3 19 -12 41 -18 49 -7 7 -13 24 -15 35 -4 24 -50 123 -69 147 -6 8 -17 32 -23 52 -7 21 -18 41 -26 45 -7 5 -29 36 -49 70 -20 34 -51 81 -69 105 -17 24 -38 55 -46 69 -19 37 -171 192 -220 224 -23 15 -41 31 -41 35 0 4 -15 15 -32 24 -18 9 -53 28 -77 42 -25 13 -67 31 -95 39 -27 8 -68 24 -91 35 -97 47 -183 60 -371 58 -96 -2 -176 -4 -177 -4z m394 -138 c224 -62 369 -126 464 -205 25 -20 58 -46 75 -59 29 -23 39 -42 21 -42 -4 0 -20 10 -34 23 -58 49 -84 64 -122 71 -22 4 -50 17 -62 28 -11 11 -38 25 -58 33 -34 11 -40 10 -56 -6 -11 -11 -19 -23 -19 -29 0 -15 -46 -23 -85 -16 -30 6 -38 14 -51 47 -9 21 -29 48 -45 59 -24 18 -31 19 -49 8 -24 -15 -25 -26 -5 -54 14 -21 13 -21 -70 -22 -53 0 -87 4 -93 11 -5 7 -12 37 -16 67 -3 30 -9 65 -12 77 -5 19 -1 22 33 26 80 8 100 6 184 -17z m-293 -3 c5 -10 10 -38 10 -63 1 -25 5 -61 8 -81 5 -34 4 -37 -27 -43 -60 -12 -78 -8 -94 24 -26 50 -85 67 -105 31 -5 -11 -10 -37 -10 -59 0 -36 -2 -39 -29 -40 -47 -1 -81 -29 -81 -66 0 -57 38 -71 104 -40 48 23 82 13 96 -30 11 -34 13 -35 61 -34 52 1 59 7 34 28 -9 7 -13 20 -10 27 3 8 -2 21 -10 29 -25 26 -17 34 34 34 44 0 52 -3 78 -36 27 -34 32 -36 66 -30 28 5 38 13 43 31 3 14 11 25 16 25 6 0 8 7 4 15 -3 8 2 19 13 24 35 19 131 -25 131 -59 0 -8 5 -28 12 -45 11 -31 13 -32 57 -27 25 3 49 9 52 14 3 5 17 8 30 6 20 -2 25 2 27 24 4 35 24 50 55 43 29 -8 77 -71 77 -102 0 -28 22 -44 70 -50 33 -5 40 -3 40 11 0 32 44 15 56 -22 13 -41 25 -53 57 -56 14 -2 47 -17 74 -33 36 -23 57 -29 81 -25 36 5 72 -19 72 -47 0 -9 13 -32 29 -52 17 -20 33 -48 37 -63 3 -15 13 -30 20 -33 8 -3 14 -16 14 -29 0 -13 6 -38 14 -56 8 -18 22 -53 31 -78 10 -25 21 -54 26 -65 11 -26 29 -97 39 -154 26 -148 51 -295 55 -328 19 -178 22 -268 16 -403 -4 -86 -10 -160 -13 -165 -3 -6 -9 -51 -12 -101 -3 -50 -10 -125 -16 -165 -5 -41 -12 -103 -15 -139 -3 -36 -11 -83 -17 -105 -6 -22 -12 -47 -13 -55 -1 -8 -5 -22 -8 -30 -3 -8 -11 -46 -17 -84 -6 -39 -14 -75 -17 -80 -7 -10 -11 -42 -16 -106 -1 -19 -6 -40 -10 -47 -4 -6 -7 -85 -6 -175 0 -89 0 -172 -1 -183 0 -11 -1 -77 -1 -146 0 -103 4 -133 20 -169 11 -26 17 -55 14 -71 -3 -14 2 -39 10 -55 8 -16 17 -51 21 -78 3 -28 29 -96 62 -162 60 -123 71 -172 75 -329 2 -140 0 -177 -11 -170 -5 3 -10 -1 -10 -9 0 -9 4 -16 9 -16 9 0 6 -28 -6 -60 -4 -8 -5 -22 -4 -30 4 -21 -21 -90 -32 -90 -7 0 -21 8 -75 46 -2 1 -5 35 -7 75 -3 51 -9 77 -20 85 -8 6 -15 18 -15 25 0 8 -9 32 -20 54 -11 22 -20 54 -20 72 0 27 -7 37 -43 62 -59 40 -67 52 -69 97 -1 43 -33 93 -72 113 -15 9 -29 31 -40 63 -18 57 -21 102 -6 93 13 -8 13 22 0 38 -52 60 -73 102 -76 150 -4 71 -22 160 -35 167 -6 4 -7 26 -1 62 13 86 -2 104 -94 114 -28 4 -44 0 -53 -10 -8 -10 -9 -16 -1 -21 5 -3 10 -26 10 -51 0 -25 7 -61 15 -81 8 -19 15 -46 15 -59 0 -12 5 -26 10 -29 6 -3 10 -24 10 -45 0 -21 5 -42 11 -46 6 -3 8 -20 5 -38 -4 -21 -1 -39 9 -51 28 -37 19 -44 -62 -47 -61 -2 -77 -6 -79 -19 -1 -9 -5 -26 -9 -38 -13 -42 45 -64 99 -39 21 9 29 8 44 -5 12 -11 22 -13 28 -7 7 7 18 2 34 -15 13 -14 20 -25 17 -25 -4 0 2 -17 13 -37 11 -21 20 -41 20 -44 0 -3 -18 -6 -41 -6 -66 0 -119 -34 -119 -77 0 -32 28 -48 94 -51 56 -3 75 3 55 16 -11 6 -10 9 4 15 26 10 43 -1 81 -53 35 -47 45 -70 27 -58 -16 9 -57 -16 -75 -47 -17 -28 -17 -30 1 -43 12 -10 32 -12 62 -9 82 11 125 -31 156 -153 5 -22 3 -24 -15 -18 -15 5 -28 1 -41 -14 -12 -13 -15 -21 -7 -21 9 0 9 -3 0 -12 -22 -22 -13 -46 22 -58 61 -20 84 -67 93 -195 3 -44 12 -92 19 -107 8 -15 11 -34 8 -42 -9 -23 14 -46 45 -46 55 0 66 -19 71 -121 4 -103 4 -152 -1 -276 -1 -45 0 -86 4 -89 12 -13 7 -47 -10 -66 -9 -10 -11 -18 -5 -18 11 0 9 -32 -9 -124 -5 -26 -10 -105 -10 -175 -1 -69 -4 -130 -7 -136 -4 -5 -13 -46 -20 -90 -7 -44 -15 -96 -18 -115 -4 -19 -10 -37 -15 -40 -4 -3 -11 -26 -14 -50 -9 -63 -26 -133 -36 -144 -5 -6 -9 -20 -9 -33 0 -25 -32 -87 -61 -119 -10 -11 -19 -28 -19 -37 0 -9 -3 -17 -8 -17 -4 0 -16 -16 -27 -36 -19 -36 -93 -104 -112 -104 -5 0 -25 -14 -44 -31 -33 -30 -48 -38 -136 -75 -24 -10 -43 -22 -43 -27 0 -5 -7 -6 -16 -3 -8 3 -24 1 -35 -4 -10 -6 -36 -11 -56 -12 -21 0 -43 -4 -48 -9 -15 -11 -130 -36 -200 -44 -89 -9 -201 -9 -275 0 -36 5 -69 8 -73 7 -4 -1 -16 2 -25 7 -10 5 -37 12 -61 16 -24 3 -53 10 -66 15 -13 5 -26 6 -29 3 -3 -3 -11 -1 -18 5 -7 5 -40 18 -73 27 -67 19 -148 59 -184 89 -38 34 -126 124 -219 226 -48 51 -102 107 -119 123 -18 16 -33 34 -33 39 0 5 -15 28 -34 49 -18 22 -44 61 -57 87 -13 26 -32 56 -41 67 -24 29 -47 130 -48 210 -1 179 1 216 14 253 8 23 12 64 10 100 -2 39 0 62 7 62 6 0 8 4 5 9 -3 5 1 22 9 37 8 16 15 36 15 45 0 9 3 19 7 23 4 3 8 14 9 24 5 37 27 109 45 148 11 22 19 54 19 71 0 17 6 36 14 42 8 7 22 38 31 69 18 62 51 155 67 189 6 11 7 26 4 32 -4 6 -2 11 4 11 7 0 9 8 5 19 -3 11 1 46 9 78 8 32 20 92 25 133 10 71 19 123 41 235 8 46 18 150 25 280 5 88 5 198 0 270 -3 39 -7 111 -11 160 -3 50 -5 115 -4 145 0 34 -5 68 -14 85 -9 17 -16 37 -16 45 0 9 -5 21 -12 28 -7 7 -9 12 -5 12 4 0 2 10 -5 23 -6 12 -13 27 -14 32 -3 16 -35 117 -47 150 -6 17 -12 35 -12 40 -2 28 -27 94 -40 105 -15 13 -46 73 -90 180 -15 36 -31 69 -36 74 -5 6 -9 16 -9 22 0 19 -63 154 -71 154 -5 0 -11 17 -15 38 -3 20 -14 55 -25 77 -37 82 -62 140 -64 150 0 6 -4 17 -7 25 -24 63 -43 117 -44 130 -1 8 -8 31 -16 51 -9 19 -16 46 -16 60 -1 13 -6 49 -12 79 -6 30 -12 66 -14 80 -2 14 -4 27 -6 30 -8 15 -11 72 -13 232 -1 97 -5 180 -9 184 -4 4 -2 14 5 22 6 8 13 34 14 56 1 23 7 73 13 111 15 99 15 99 22 110 3 6 14 39 23 75 9 36 23 84 31 106 9 23 15 50 13 60 -1 11 5 36 15 56 9 21 16 41 16 46 0 5 7 27 17 48 9 22 17 50 17 63 1 14 7 26 14 29 7 2 12 15 12 28 0 13 4 32 9 42 31 63 51 115 45 123 -3 5 6 19 20 30 14 11 26 27 26 35 0 20 19 52 57 94 17 19 45 53 61 75 16 22 36 46 46 54 10 8 14 21 11 32 -4 11 -3 19 2 19 5 0 22 11 38 24 17 14 55 45 85 70 30 25 84 59 120 77 36 17 73 35 82 40 10 5 24 9 31 9 7 0 31 10 52 22 30 16 65 23 135 28 178 12 189 12 198 -7z"
       id="path4" />
    <path
       d="M1691 7304 c-32 -14 -91 -68 -91 -84 0 -6 -7 -10 -16 -10 -8 0 -13 -4 -9 -9 3 -5 -5 -21 -17 -34 -23 -25 -48 -97 -48 -140 0 -12 -7 -35 -16 -52 -9 -16 -18 -61 -20 -100 -4 -74 -17 -170 -36 -270 -6 -33 -11 -68 -12 -77 0 -10 -4 -18 -8 -18 -4 0 -8 -21 -8 -46 0 -29 -7 -56 -19 -73 -11 -15 -23 -40 -27 -57 -4 -16 -13 -38 -20 -49 -8 -11 -14 -29 -14 -42 0 -12 -5 -25 -11 -28 -6 -4 -8 -13 -5 -21 3 -7 0 -17 -7 -21 -7 -5 -28 -39 -46 -78 -45 -91 -57 -219 -29 -304 10 -29 15 -58 12 -63 -3 -5 -1 -14 4 -21 6 -7 13 -34 17 -62 4 -27 13 -61 19 -75 7 -14 18 -50 25 -80 14 -59 62 -168 93 -212 23 -33 121 -109 180 -139 24 -12 71 -28 106 -34 134 -26 226 19 312 152 15 23 30 40 32 37 3 -3 9 7 12 21 4 15 15 35 25 46 11 12 16 29 13 44 -2 14 1 31 7 38 6 8 7 17 3 21 -4 4 -7 83 -7 174 0 156 -1 169 -22 198 -12 17 -20 33 -18 36 2 2 -6 35 -20 73 -13 38 -21 74 -17 79 3 6 7 67 8 136 3 154 14 291 24 285 4 -2 7 24 8 58 3 140 4 157 10 157 4 0 7 21 8 48 0 26 4 95 7 154 5 86 3 112 -10 138 -8 18 -17 45 -18 62 -1 16 -7 34 -14 41 -6 6 -11 20 -11 32 0 26 -80 105 -143 139 -62 34 -145 47 -186 30z m109 -129 c70 -16 124 -60 140 -114 6 -20 15 -45 20 -56 11 -23 32 -174 26 -183 -5 -9 -17 -93 -22 -155 -2 -26 -8 -66 -14 -87 -6 -22 -8 -45 -5 -50 3 -6 3 -16 -2 -22 -4 -7 -8 -24 -9 -38 -1 -27 -10 -117 -19 -190 -3 -25 -7 -110 -9 -190 -4 -143 -4 -146 24 -199 16 -29 26 -59 24 -65 -2 -6 4 -39 15 -71 32 -103 9 -310 -42 -368 -18 -20 -26 -39 -23 -51 8 -30 -31 -84 -76 -107 -34 -17 -54 -20 -119 -16 -88 5 -96 9 -190 96 -64 58 -68 64 -97 158 -17 54 -38 125 -47 158 -9 33 -20 69 -25 80 -35 82 -25 297 16 352 14 18 31 50 38 70 8 21 26 61 40 89 14 29 26 59 26 67 0 9 4 18 9 22 5 3 15 31 21 63 7 31 15 62 18 67 9 14 11 26 32 150 6 39 15 89 20 112 6 23 10 63 11 90 1 26 4 52 7 58 4 5 7 23 7 40 2 27 7 52 37 178 5 22 15 37 23 37 8 0 15 6 15 14 0 7 12 28 28 45 27 32 32 32 102 16z"
       id="path6" />
    <path
       d="M1750 6855 c0 -9 -6 -18 -13 -21 -10 -4 -13 -23 -11 -72 3 -57 -14 -171 -34 -222 -3 -8 -4 -19 -3 -24 1 -5 -5 -16 -14 -26 -8 -9 -12 -20 -9 -23 4 -4 -5 -22 -20 -42 -15 -20 -26 -41 -23 -48 5 -16 -35 -90 -78 -143 -19 -23 -35 -49 -35 -58 0 -8 -4 -17 -9 -20 -22 -14 -43 -304 -23 -324 6 -7 12 -16 13 -20 3 -30 12 -60 24 -85 8 -17 15 -36 15 -43 0 -6 16 -26 36 -44 32 -27 42 -31 73 -25 50 9 92 65 59 78 -7 3 -4 6 7 6 19 1 21 8 23 64 2 59 0 65 -33 104 -37 43 -46 87 -20 97 8 3 15 12 15 21 0 8 5 15 10 15 7 0 7 6 0 19 -7 15 -7 22 3 28 14 8 38 138 43 228 2 27 7 51 13 53 6 2 13 19 17 38 3 19 10 34 15 34 5 0 14 10 19 23 6 12 19 36 30 52 42 63 48 87 43 174 -3 46 -10 96 -16 110 -5 14 -11 28 -11 31 -1 3 -11 22 -23 43 -18 30 -28 37 -53 37 -20 0 -30 -5 -30 -15z"
       id="path8" />
    <path
       d="M2606 7285 c-25 -7 -54 -19 -64 -28 -10 -10 -23 -17 -28 -17 -10 0 -64 -57 -64 -68 0 -3 -10 -19 -23 -36 -65 -88 -94 -259 -62 -371 9 -33 19 -75 21 -94 2 -19 9 -38 15 -42 6 -4 9 -11 5 -17 -3 -6 4 -35 18 -64 13 -29 29 -71 36 -93 7 -22 16 -44 21 -50 5 -5 9 -17 9 -26 0 -9 6 -22 14 -28 8 -7 14 -20 14 -29 -1 -9 5 -33 14 -52 32 -75 41 -108 48 -185 13 -121 2 -259 -25 -330 -9 -23 -15 -48 -14 -56 1 -8 -3 -27 -10 -44 -7 -16 -15 -80 -17 -142 -3 -95 -1 -117 14 -145 36 -65 147 -116 268 -123 41 -2 74 0 74 4 0 5 18 11 39 15 22 3 56 15 75 27 27 16 45 19 73 15 77 -12 119 19 138 102 3 18 10 32 13 32 4 0 8 10 9 23 0 12 8 47 16 77 16 63 15 283 -2 303 -5 7 -9 22 -9 32 1 11 -6 36 -14 55 -9 19 -19 49 -23 65 -4 17 -18 45 -31 62 -14 18 -24 39 -23 45 2 14 -6 42 -22 70 -5 10 -8 35 -7 55 0 21 -7 65 -17 98 -26 90 -36 194 -41 450 -5 231 -6 239 -51 334 -21 43 -133 136 -202 168 -58 26 -106 28 -185 8z m174 -135 c63 -33 149 -118 159 -158 5 -20 12 -147 15 -283 3 -135 10 -268 16 -297 5 -28 14 -91 20 -139 12 -95 36 -206 52 -237 6 -11 21 -38 34 -61 13 -24 21 -45 18 -48 -3 -2 4 -21 15 -41 12 -20 18 -36 15 -36 -2 0 0 -9 7 -21 13 -24 13 -238 0 -284 -5 -21 -14 -30 -27 -29 -11 1 -39 -21 -69 -55 -48 -54 -100 -91 -130 -91 -7 0 -15 -5 -17 -11 -2 -6 -30 -12 -63 -14 -46 -2 -73 3 -115 22 -87 38 -93 48 -91 143 1 44 8 102 16 128 7 26 17 74 21 107 4 33 11 71 16 85 6 14 12 79 14 145 5 123 -1 163 -38 265 -43 116 -57 156 -75 218 -9 28 -19 52 -23 52 -4 0 -11 16 -14 35 -4 19 -10 35 -15 35 -9 0 -44 130 -40 151 1 8 -2 23 -7 34 -9 20 -11 173 -3 210 2 11 10 24 17 28 6 4 12 15 12 23 0 9 7 22 15 30 8 9 15 24 15 35 0 10 4 19 8 19 5 0 19 10 32 23 25 23 121 48 155 40 11 -3 36 -14 55 -23z"
       id="path10" />
    <path
       d="M2672 6757 c-16 -17 -23 -38 -25 -83 -2 -32 1 -67 6 -78 5 -10 10 -37 12 -60 4 -62 15 -98 42 -133 31 -43 53 -106 46 -133 -4 -13 0 -25 7 -30 10 -6 15 -45 18 -137 5 -139 10 -235 13 -249 2 -5 -3 -34 -10 -65 -13 -63 -9 -82 22 -96 26 -10 67 -6 67 8 0 5 8 9 18 9 34 0 52 32 52 91 0 30 4 68 9 85 5 19 5 78 -1 145 -5 63 -9 135 -8 160 1 30 -6 60 -20 83 -11 20 -20 45 -20 56 0 10 -4 21 -9 24 -12 8 -51 88 -51 105 0 7 -10 26 -21 43 -19 26 -21 39 -16 95 5 53 3 72 -14 104 -40 80 -78 98 -117 56z"
       id="path12" />
    <path
       d="M2293 5167 c-5 -6 -16 -28 -25 -47 -13 -29 -14 -38 -4 -50 19 -22 46 -81 46 -100 0 -9 3 -20 7 -23 3 -4 8 -21 10 -39 2 -17 7 -36 12 -42 9 -11 58 -193 66 -246 1 -8 15 -64 30 -125 15 -60 29 -130 31 -155 3 -24 8 -47 13 -50 5 -3 9 -43 9 -90 0 -47 3 -125 7 -175 8 -105 8 -94 1 -170 -3 -33 -5 -70 -6 -82 0 -14 -6 -23 -16 -23 -12 0 -14 -5 -9 -17 17 -39 10 -57 -25 -75 -39 -19 -82 -23 -108 -9 -68 37 -159 32 -144 -7 3 -8 -3 -21 -12 -28 -14 -10 -15 -16 -6 -33 6 -12 14 -21 18 -22 4 0 18 -2 32 -5 14 -2 44 -4 66 -4 23 -1 57 -5 75 -10 24 -7 49 -5 93 6 34 9 70 17 81 18 15 1 21 11 27 51 5 28 13 59 19 70 12 25 19 257 8 305 -4 19 -4 39 1 45 4 5 6 24 3 40 -3 17 -6 62 -7 100 -3 82 -24 232 -36 255 -5 9 -9 30 -8 46 0 16 -7 43 -16 59 -9 17 -16 44 -16 61 0 17 -7 48 -15 67 -8 20 -15 50 -15 67 0 16 -5 30 -11 30 -7 0 -9 11 -6 29 3 16 3 32 0 35 -12 12 -34 81 -38 118 -3 21 -11 51 -19 66 -8 16 -17 51 -21 77 -6 56 -15 70 -55 84 -22 7 -32 7 -37 -2z"
       id="path14" />
    <path
       d="M2645 3274 c-5 -1 -35 -5 -65 -8 -110 -11 -144 -17 -189 -30 -123 -38 -181 -65 -181 -83 0 -7 -7 -13 -15 -13 -8 0 -15 -4 -15 -10 0 -5 -12 -21 -27 -37 -49 -48 -55 -70 -63 -227 -4 -82 -12 -151 -17 -155 -6 -3 -10 -24 -11 -45 -1 -23 -8 -43 -15 -48 -8 -4 -20 -21 -27 -38 -7 -16 -16 -30 -21 -30 -5 0 -9 -8 -9 -19 0 -10 -13 -34 -30 -52 -16 -19 -28 -38 -27 -44 2 -5 -7 -18 -20 -28 -13 -10 -23 -24 -23 -31 0 -7 -11 -27 -25 -46 -13 -18 -22 -37 -19 -42 3 -5 -2 -18 -12 -29 -9 -10 -13 -19 -9 -19 4 0 0 -9 -10 -20 -9 -10 -15 -26 -12 -35 4 -8 3 -15 -2 -15 -8 0 -29 -94 -37 -165 -2 -22 -6 -58 -9 -80 -15 -113 -11 -263 10 -335 4 -14 8 -34 10 -45 2 -20 9 -42 25 -80 36 -87 55 -125 62 -125 4 0 8 -5 8 -10 0 -19 123 -162 164 -190 23 -16 52 -39 66 -53 30 -29 97 -47 129 -35 13 5 30 4 42 -3 11 -5 24 -7 29 -4 6 3 15 3 22 -1 6 -4 23 -8 37 -9 14 -2 31 -4 36 -6 6 -2 42 1 80 6 39 5 80 9 92 10 26 1 53 22 53 41 0 8 7 14 15 14 8 0 15 5 15 11 0 5 8 9 18 8 9 -2 32 5 50 15 19 9 40 15 47 12 8 -3 15 -1 17 3 2 4 35 20 75 35 47 18 70 32 67 40 -3 7 2 19 11 26 8 7 15 23 15 35 0 13 5 25 11 27 5 2 11 18 11 35 1 18 5 30 10 27 12 -8 10 9 -7 43 -8 17 -18 59 -21 94 -8 85 -47 218 -86 293 -14 26 -48 151 -48 175 0 11 5 21 12 23 6 2 12 13 12 24 1 11 5 25 9 31 8 13 -16 59 -42 80 -15 13 -16 31 -8 144 6 94 45 198 67 184 27 -16 21 84 -6 106 -16 13 -19 49 -3 49 5 0 7 5 4 10 -4 6 -1 35 5 65 16 75 16 319 1 373 -32 114 -154 225 -226 206z m-294 -281 c37 -37 59 -66 59 -80 0 -13 -4 -23 -10 -23 -5 0 -10 -6 -10 -14 0 -7 -6 -19 -14 -25 -7 -6 -16 -24 -19 -39 -6 -28 -44 -54 -104 -71 -36 -10 -72 7 -58 29 4 7 7 56 6 109 -2 86 0 99 18 116 12 10 21 24 21 31 0 11 15 19 44 23 5 0 35 -25 67 -56z m447 -108 c11 -55 8 -85 -10 -85 -5 0 -7 -22 -5 -50 3 -29 1 -50 -5 -50 -5 0 -7 -13 -3 -29 3 -16 3 -45 -1 -65 -6 -35 -7 -36 -55 -36 -26 0 -51 5 -54 10 -3 6 -19 10 -35 10 -54 0 -153 68 -161 110 -5 26 10 56 36 70 26 14 40 57 30 89 -7 22 4 31 48 38 18 2 36 9 42 14 5 5 27 9 50 10 22 0 49 4 60 9 43 18 52 12 63 -45z m-541 -322 c78 -19 103 -42 134 -123 29 -76 23 -139 -17 -174 -38 -33 -127 -60 -173 -52 -20 4 -70 11 -112 16 -97 12 -129 24 -129 50 0 11 7 20 15 20 8 0 15 6 15 14 0 7 7 19 15 26 8 7 15 23 15 36 0 13 5 24 11 24 15 0 48 41 49 60 0 8 9 21 20 28 11 7 20 21 20 31 0 11 4 22 10 26 5 3 7 12 3 20 -7 20 39 20 124 -2z m451 -244 c8 -83 4 -142 -12 -168 -8 -13 -88 15 -115 40 -11 11 -21 27 -21 35 0 29 29 71 59 84 16 6 37 21 47 31 24 27 38 19 42 -22z m-707 -219 c24 1 58 -1 74 -4 17 -3 59 -10 95 -15 69 -10 84 -13 113 -26 23 -10 50 -62 37 -70 -6 -3 -10 -26 -10 -51 0 -24 -4 -44 -10 -44 -5 0 -10 -7 -10 -15 0 -8 -4 -15 -10 -15 -5 0 -10 -7 -10 -15 0 -8 -5 -15 -11 -15 -5 0 -22 -13 -37 -29 -34 -37 -56 -42 -217 -46 -107 -3 -133 0 -147 12 -12 11 -15 20 -8 28 5 6 11 41 12 78 2 37 6 67 10 67 3 0 6 19 6 43 0 54 7 121 16 135 4 7 15 6 35 -4 16 -8 48 -14 72 -14z m707 -127 c7 -16 21 -64 32 -108 27 -103 39 -141 62 -190 10 -23 22 -63 28 -90 5 -28 18 -88 28 -133 16 -69 17 -85 6 -89 -8 -3 -14 -12 -14 -20 0 -20 -37 -52 -69 -60 -14 -3 -36 -13 -48 -21 -27 -17 -85 -32 -179 -48 -46 -7 -81 9 -108 51 -12 19 -13 30 -4 57 12 37 99 128 122 128 8 0 23 11 34 25 14 17 30 25 50 25 17 0 33 4 37 9 3 5 18 10 33 11 85 4 83 3 76 35 -3 17 -16 39 -28 50 -13 11 -26 27 -29 37 -3 9 -21 19 -39 23 -50 10 -200 73 -227 96 -18 15 -22 22 -12 28 6 4 11 13 9 19 -5 17 54 100 75 105 9 3 17 15 17 26 0 12 6 21 15 21 14 0 24 4 75 31 29 15 48 9 58 -18z m-535 -347 c34 -3 76 -50 77 -84 0 -13 -4 -20 -10 -17 -16 10 -12 -5 10 -32 25 -32 41 -91 43 -159 1 -44 -3 -57 -22 -73 -13 -11 -28 -18 -32 -15 -5 3 -9 0 -9 -6 0 -21 -30 -42 -48 -34 -9 4 -26 6 -37 5 -18 -2 -105 61 -114 83 -2 5 -18 25 -35 45 -66 75 -100 142 -120 237 l-7 31 83 11 c67 9 88 8 111 -3 25 -12 27 -12 27 7 0 17 4 19 28 14 15 -4 40 -8 55 -10z"
       id="path16" />
  </g>
  <path
     style="fill:#ffffff;stroke-width:0"
     d="m 314.16279,1069.4457 c -12.79268,-1.0129 -32.01091,-5.2219 -47.8062,-10.47 -19.58753,-6.5082 -24.04531,-9.7718 -49.16575,-35.995 -12.8156,-13.3782 -25.41137,-27.28634 -27.99059,-30.90699 -9.56194,-13.42282 -18.0803,-28.63249 -19.68636,-35.15035 -1.98882,-8.07116 -2.1304,-42.9808 -0.20544,-50.65437 0.75381,-3.00496 1.38523,-8.34064 1.40315,-11.85707 0.031,-6.07973 1.94655,-13.25958 11.06488,-41.47315 2.19588,-6.79441 3.99251,-13.42353 3.99251,-14.73138 0,-1.30786 0.88682,-3.73926 1.97072,-5.40312 2.76182,-4.23961 14.41813,-38.1193 13.58097,-39.47384 -0.37846,-0.61235 -0.12539,-1.11338 0.56237,-1.11338 0.68776,0 1.22134,-1.69029 1.18575,-3.7562 -0.0356,-2.06591 1.94664,-15.12725 4.40497,-29.02519 2.45833,-13.89795 5.03684,-28.64957 5.73001,-32.7814 2.10054,-12.52075 2.93682,-67.3859 1.43656,-94.24651 l -1.41137,-25.26899 -6.90619,-19.6301 c -3.79841,-10.79657 -7.88188,-23.39541 -9.07439,-27.99744 -1.1925,-4.60203 -4.23743,-11.74942 -6.76651,-15.88308 -2.52908,-4.13365 -8.65525,-16.98345 -13.61371,-28.55511 -4.95845,-11.57165 -10.14524,-23.25003 -11.52618,-25.95194 -8.91025,-17.4335 -23.98796,-61.83651 -27.52163,-81.04966 -3.32428,-18.07464 -5.81993,-66.72801 -3.90658,-76.1598 0.68579,-3.38058 2.1258,-11.9857 3.20002,-19.12248 2.33379,-15.50491 18.85535,-74.18241 22.4984,-79.90465 0.47827,-0.75124 1.59417,-3.8245 2.47977,-6.82946 3.24069,-10.99615 6.7705,-19.40172 9.72454,-23.15717 1.66394,-2.11537 3.02535,-4.6533 3.02535,-5.63984 0,-0.98655 2.93318,-5.35988 6.51817,-9.71851 11.42806,-13.89423 15.57323,-19.50366 15.8609,-21.46366 0.35271,-2.40319 17.50285,-16.49104 27.31562,-22.4382 4.07038,-2.46691 13.38285,-6.93837 20.69437,-9.93658 11.82513,-4.8491 15.11465,-5.57783 29.77788,-6.59671 9.06632,-0.62998 17.25897,-0.84812 18.20587,-0.48476 2.31748,0.8893 2.92577,3.48658 3.43915,14.68439 l 0.43533,9.49547 -5.1915,1.24228 c -4.9631,1.18764 -5.41955,0.99525 -10.37584,-4.37337 -8.3431,-9.03721 -15.16522,-7.06839 -15.16522,4.37657 0,4.43532 -0.3538,4.79735 -6.10313,6.24505 -3.46844,0.87336 -6.71151,2.67355 -7.51241,4.17003 -2.03955,3.81093 -1.72973,9.04184 0.65264,11.01903 1.97886,1.64231 3.97369,1.54091 16.67732,-0.8477 3.96618,-0.74575 4.68255,-0.34346 7.30584,4.10269 2.71169,4.59597 3.36147,4.92952 9.60303,4.92952 6.8905,0 7.67969,-0.81192 5.32865,-5.4821 l -2.73179,-5.4265 c -2.00302,-3.97888 -1.86666,-4.11621 4.08715,-4.11621 4.33698,0 6.20026,0.83865 9.10406,4.09767 5.18707,5.8216 11.44267,5.68588 15.73885,-0.34147 1.74029,-2.44153 3.1651,-4.98681 3.16628,-5.65617 10e-4,-0.66937 0.99192,-1.84139 2.20169,-2.60449 1.61313,-1.01754 3.84499,-0.59094 8.37095,1.60004 5.33144,2.58091 6.40872,3.83531 7.91545,9.21682 0.95926,3.42612 2.53212,6.5317 3.49523,6.90129 0.96312,0.36958 5.63112,-0.17704 10.37333,-1.21472 7.61081,-1.66538 8.8514,-2.39967 10.57607,-6.25988 1.21592,-2.72152 2.94347,-4.3732 4.57409,-4.3732 3.47121,0 10.12224,7.25564 11.21603,12.23561 1.10244,5.01938 3.28231,6.81343 9.5058,7.82337 3.80261,0.61707 5.36823,0.24098 6.72587,-1.6157 2.02581,-2.77047 3.17554,-1.90927 7.74496,5.80129 1.44689,2.44154 3.4993,4.43915 4.56093,4.43915 1.06161,0 5.43562,1.84396 9.72001,4.09768 4.28439,2.25372 9.87867,4.09767 12.43173,4.09767 4.68789,0 10.06854,3.80385 10.14348,7.17093 0.0209,0.93905 1.86485,4.1218 4.09767,7.07278 2.23282,2.95097 4.05968,6.13399 4.05968,7.07336 0,0.93938 0.77002,2.52018 1.71116,3.51289 0.94114,0.99271 3.04936,5.80016 4.68494,10.68322 1.63557,4.88306 4.86227,14.17354 7.17045,20.6455 2.47637,6.94355 6.19012,23.18101 9.05962,39.61086 4.01764,23.00383 4.99767,32.47334 5.63811,54.47852 0.78533,26.98312 0.78536,26.98264 -5.90001,88.1 -1.15045,10.51737 -4.46532,29.87888 -7.36638,43.02558 -6.91703,31.34596 -8.58718,50.61701 -7.81285,90.14884 0.4989,25.47024 1.09627,33.31591 2.8929,37.99423 1.24528,3.24266 1.93763,6.42408 1.53855,7.06981 -0.39908,0.64572 0.13386,3.83182 1.18418,7.08021 1.05038,3.24837 2.628,8.92096 3.50582,12.60575 0.8778,3.6848 4.27737,12.59724 7.55458,19.80543 3.27721,7.20819 6.67579,15.56442 7.5524,18.56938 1.96366,6.73136 3.57851,47.12325 1.88397,47.12325 -0.66854,0 -1.32436,3.91656 -1.45735,8.70348 -0.13304,4.78691 -1.18217,10.954 -2.33146,13.70463 l -2.08962,5.00117 -4.65956,-3.05442 c -4.29477,-2.81529 -4.72335,-3.73759 -5.47445,-11.78095 -0.51045,-5.46627 -2.35185,-11.97954 -4.92875,-17.43356 -2.26263,-4.78884 -4.52259,-11.26304 -5.02215,-14.3871 -0.74862,-4.68163 -1.94889,-6.41358 -6.82803,-9.85272 -5.68652,-4.00823 -7.11195,-6.52899 -9.33656,-16.511 -0.48427,-2.17294 -3.56458,-6.55945 -6.84515,-9.7478 -3.57973,-3.4791 -6.55055,-7.90698 -7.42992,-11.07402 -1.83693,-6.61558 -1.87615,-10.05763 -0.1146,-10.05763 2.37943,0 1.48085,-3.75034 -1.85667,-7.74907 -5.50969,-6.60127 -7.73359,-12.35954 -9.15672,-23.70914 -0.75539,-6.02431 -1.96698,-12.51442 -2.69241,-14.42249 -0.72546,-1.90809 -1.319,-7.41028 -1.319,-12.22712 0,-9.992 -1.70054,-11.9392 -11.71923,-13.41919 -8.94632,-1.32158 -10.21182,0.56044 -8.14345,12.11073 0.94172,5.25868 2.75968,13.55647 4.03993,18.43954 1.28025,4.88306 2.9055,11.10088 3.61166,13.81738 0.70618,2.7165 1.28395,6.74247 1.28395,8.94659 0,2.20413 0.68403,4.69152 1.52006,5.52756 2.49198,2.49197 0.0324,4.48986 -5.52761,4.48986 -10.69493,0 -13.41887,1.22655 -14.40567,6.48666 -1.19874,6.38981 1.54046,9.20536 8.48913,8.72578 7.78971,-0.53761 8.86777,-0.4784 13.86341,0.76134 3.86368,0.95882 5.13991,2.32004 7.77656,8.2944 l 3.15432,7.14733 h -3.99273 c -11.2756,0 -20.05567,8.33187 -15.55354,14.75956 2.90636,4.14941 22.03288,5.89537 20.69756,1.88937 -0.32722,-0.98163 0.85279,-1.62413 2.98283,-1.62413 0.68625,0 3.13357,2.56435 5.4385,5.69857 l 4.19078,5.69857 -3.99841,2.43157 c -2.19911,1.33736 -5.02646,4.00062 -6.28301,5.91835 -3.45294,5.26985 -0.76962,7.57077 8.82898,7.57077 9.63485,0 13.06754,2.26596 17.34312,11.44843 4.10228,8.81026 4.09428,10.40584 -0.0522,10.40584 -3.91188,0 -4.98109,1.39311 -5.81425,7.57563 -0.55349,4.10715 -0.0695,4.89989 4.91121,8.04406 7.29092,4.60256 9.1159,8.54041 10.94978,23.62693 0.84316,6.93646 2.13637,14.19862 2.87378,16.13814 0.7374,1.93953 1.34073,5.01131 1.34073,6.8262 0,2.49437 0.9168,3.4959 3.7562,4.10328 7.60641,1.62711 9.54629,3.06354 10.36855,7.67761 1.331,7.46874 0.9387,62.4792 -0.52431,73.52442 -0.74631,5.63431 -1.89974,19.77128 -2.56319,31.41551 -1.17042,20.54204 -5.43498,49.22592 -8.06189,54.22525 -0.71073,1.35259 -1.75015,5.22517 -2.30984,8.60576 -1.84185,11.12496 -7.46599,27.82481 -11.25675,33.42491 -2.0488,3.0266 -4.57665,7.1948 -5.61746,9.2626 -7.75454,15.4059 -36.92756,34.8533 -59.59829,39.7296 -5.25868,1.1311 -15.0931,3.2675 -21.85426,4.7476 -14.51862,3.1782 -31.05713,4.2089 -47.12326,2.9368 z m 21.69683,-32.6561 c 9.09293,-1.0529 10.50599,-1.6332 14.34186,-5.8899 2.34031,-2.5971 6.09906,-5.1472 8.35278,-5.6668 2.25372,-0.5197 5.63431,-1.2866 7.51241,-1.7044 3.15252,-0.7012 6.01138,-1.8744 19.12907,-7.8498 2.74323,-1.2496 5.43801,-3.7858 6.31146,-5.9402 0.83834,-2.0677 2.88877,-7.0763 4.55649,-11.13018 2.892,-7.02989 2.93704,-7.72469 0.97387,-15.0248 -1.13209,-4.20974 -2.74043,-11.79121 -3.57409,-16.84773 -0.83366,-5.05653 -3.11519,-13.66164 -5.07008,-19.12248 -13.04029,-36.42711 -12.73254,-35.06153 -9.35917,-41.52966 2.93963,-5.63648 2.54411,-9.27066 -1.53678,-14.12051 -3.47683,-4.13198 -3.57029,-4.7033 -2.86577,-17.51991 0.8217,-14.94866 4.1407,-26.2311 8.01449,-27.24413 1.96606,-0.51413 2.54299,-1.95436 2.54299,-6.34829 0,-3.1258 -0.86394,-6.91673 -1.91986,-8.42426 -1.65155,-2.35792 -1.63653,-4.83415 0.1075,-17.71904 1.29709,-9.58277 1.8042,-21.14609 1.40778,-32.10136 -0.53809,-14.87107 -1.07328,-18.01861 -4.06888,-23.93015 -3.97076,-7.8359 -15.45883,-19.19427 -20.75887,-20.5245 -7.69033,-1.93015 -33.99958,1.8876 -50.53579,7.33327 -9.32494,3.07088 -11.94275,4.67298 -18.23301,11.1586 -4.03964,4.16511 -8.27998,9.37567 -9.423,11.57904 -1.19899,2.31128 -2.8476,12.13492 -3.89683,23.22016 -2.35409,24.87117 -3.64773,30.52027 -8.70512,38.0139 -2.29479,3.40029 -4.17237,6.58945 -4.17237,7.08704 0,0.49758 -2.65178,4.71099 -5.89285,9.36315 -3.24106,4.65215 -7.47502,11.53171 -9.4088,15.28791 -8.66135,16.82396 -10.6826,21.37991 -9.98554,22.50776 0.41014,0.66362 0.19206,1.54875 -0.48461,1.96696 -2.67431,1.65281 -7.02134,34.84614 -6.98614,53.34527 0.0659,34.65599 14.81629,65.36954 41.62558,86.67394 10.79874,8.5814 12.20503,9.0749 29.23368,10.2604 5.55531,0.3867 10.4213,1.0239 10.81331,1.4159 1.02068,1.0206 10.26342,0.7785 21.95429,-0.5752 z m -3.4627,-335.36141 c 4.39449,-1.04973 8.13957,-2.10349 8.32242,-2.34166 0.18285,-0.23817 1.46596,-5.04293 2.85133,-10.67723 2.91637,-11.86076 3.74078,-43.59061 1.82868,-70.38224 -1.19252,-16.70942 -5.33483,-42.41288 -7.81712,-48.50607 -0.75262,-1.84744 -2.38959,-8.27618 -3.63771,-14.28611 -1.24813,-6.00992 -2.82902,-12.33901 -3.51312,-14.06465 -0.68409,-1.72564 -1.2438,-4.325 -1.2438,-5.77635 0,-1.45137 -1.17897,-6.49332 -2.61995,-11.20434 -2.82862,-9.24773 -7.55915,-26.68593 -8.92495,-32.90009 -0.59893,-2.72504 -2.24228,-4.42988 -5.63749,-5.84849 -2.63566,-1.10125 -5.27298,-1.7051 -5.86069,-1.34187 -0.58772,0.36322 -2.20018,3.16988 -3.58327,6.237 l -2.51469,5.57661 3.64599,7.80682 c 2.00528,4.29376 4.53645,11.18742 5.62481,15.31924 1.08834,4.13182 2.95953,10.58566 4.15818,14.34186 2.72899,8.55182 11.9582,48.04791 14.84156,63.51395 2.58087,13.8435 4.87316,51.45391 3.95432,64.87985 -0.37674,5.50483 -1.4876,10.5072 -2.61837,11.79093 -1.18555,1.34593 -1.63636,3.53516 -1.13736,5.52333 1.78284,7.10344 -9.77419,11.44928 -19.79004,7.44173 -7.60312,-3.04217 -16.27473,-2.9559 -17.24264,0.17153 -0.40689,1.31467 -1.30958,3.4576 -2.00598,4.76208 -3.49639,6.54934 0.0384,9.48365 12.84854,10.66602 15.78859,1.45727 21.60057,1.32162 30.07135,-0.70185 z M 249.38183,491.99214 c 7.88143,-4.06011 19.15404,-16.98202 26.13077,-29.95397 3.44643,-6.40803 3.49921,-6.94414 3.26338,-33.14825 -0.20573,-22.86172 -0.60249,-27.40886 -2.80074,-32.09845 -6.26918,-13.37419 -7.70407,-23.22006 -6.66845,-45.75736 0.53506,-11.64423 1.6329,-25.47388 2.43963,-30.73256 1.97929,-12.90191 5.49847,-55.21469 5.51995,-66.36898 0.0179,-9.29726 -5.51822,-29.07833 -10.09165,-36.05825 -3.17932,-4.85226 -15.74226,-13.96023 -22.58674,-16.37511 -12.7527,-4.49941 -22.06977,-2.07227 -31.07025,8.09393 -5.55369,6.273 -12.72393,20.58175 -12.72393,25.39155 0,2.04199 -0.89168,5.84678 -1.9815,8.45509 -1.08982,2.60832 -2.6346,11.13484 -3.43284,18.94782 -0.79824,7.81298 -2.70485,20.96659 -4.23691,29.23023 -1.53207,8.26364 -3.27768,17.79074 -3.87916,21.17132 -0.60147,3.38058 -3.04043,10.38103 -5.41991,15.55656 -2.37948,5.17553 -5.0149,12.24401 -5.85648,15.70775 -0.84157,3.46374 -2.33678,7.23636 -3.32267,8.38358 -3.82015,4.44534 -8.77249,17.63328 -10.29205,27.40743 -1.34997,8.68337 -1.2396,11.8738 0.72996,21.10098 8.86289,41.52158 17.71985,65.82515 27.2145,74.67673 10.52208,9.80942 21.93483,15.99414 35.74605,19.37122 5.43357,1.32862 18.07137,-0.29793 23.31904,-3.00126 z m 143.31972,-20.19143 c 5.26271,-1.90391 13.07863,-3.57717 17.38499,-3.72186 6.37118,-0.21405 8.4248,-0.89667 11.06107,-3.67666 3.48096,-3.67076 7.96023,-15.36254 10.36038,-27.04267 2.15919,-10.50759 1.85656,-35.60258 -0.54032,-44.80484 -2.58722,-9.93301 -6.94779,-21.60019 -9.56701,-25.59764 -2.83165,-4.32165 -6.08743,-15.0668 -7.51475,-24.80123 -0.66091,-4.50744 -2.15697,-12.4979 -3.32459,-17.75659 -1.28088,-5.76882 -2.66322,-22.83467 -3.48509,-43.02558 -1.58462,-38.92991 -2.03862,-43.08595 -5.58164,-51.09553 -3.47071,-7.8461 -17.39917,-20.63768 -27.86127,-25.58714 -9.33744,-4.41741 -16.03089,-4.89471 -26.2177,-1.86955 -24.7448,7.34842 -39.43877,39.25107 -32.60193,70.78326 3.8808,17.89861 9.85186,36.12105 16.93222,51.67369 1.4899,3.27267 4.71014,11.7895 7.15611,18.92628 4.18345,12.20641 4.44831,14.11006 4.46593,32.09845 0.0164,16.75278 -0.45138,20.81512 -3.7749,32.7814 -2.85465,10.27814 -3.98113,17.98386 -4.55116,31.13243 l -0.75752,17.47352 6.28912,6.02604 c 11.98824,11.48677 33.50089,14.82303 52.12806,8.08422 z"
     id="path26"
     transform="scale(0.75)" />
  <path
     style="fill:#ffffff;stroke-width:0"
     d="m 221.09995,478.14584 c -8.94576,-1.74471 -25.38332,-17.29072 -28.9731,-27.40165 -1.20024,-3.38059 -4.80514,-14.75163 -8.01088,-25.269 -5.33301,-17.49651 -5.82237,-20.35051 -5.75521,-33.56487 0.0727,-14.2957 0.13676,-14.57316 6.31181,-27.31783 3.43113,-7.08149 7.6035,-16.25602 9.27195,-20.38784 1.66845,-4.13182 3.59177,-8.7417 4.27404,-10.24418 3.4471,-7.59104 13.48556,-56.16591 13.51672,-65.40573 0.0315,-9.32654 6.52363,-36.25002 9.75392,-40.45016 9.66224,-12.56315 8.07561,-11.64868 16.81681,-9.69249 20.42371,4.57063 28.3845,25.86697 23.28038,62.27861 -4.83805,34.51349 -6.1702,47.24685 -7.52917,71.96774 -1.23438,22.45449 -1.13732,26.23625 0.80631,31.4155 4.6752,12.45818 8.69336,30.76794 8.72677,39.76572 0.0451,12.15007 -3.35752,26.78323 -7.54892,32.46436 -1.83904,2.49267 -3.34371,6.16692 -3.34371,8.165 0,1.99807 -1.53616,5.29041 -3.4137,7.3163 -6.35476,6.8569 -15.29447,8.8744 -28.18402,6.36052 z m 2.66247,-53.71838 c 1.76546,-0.87011 3.50318,-3.25894 3.93262,-5.40614 0.42319,-2.11593 1.30469,-4.17797 1.9589,-4.5823 0.65421,-0.40431 1.18947,-4.39208 1.18947,-8.8617 0,-6.86188 -0.63769,-9.00686 -4.09767,-13.78323 -4.86229,-6.71219 -5.00899,-8.32589 -1.23836,-13.62125 1.57613,-2.21348 2.48502,-4.99094 2.02527,-6.18902 -0.45873,-1.19541 -0.28058,-2.86389 0.39587,-3.70772 1.63902,-2.04458 3.85824,-12.98611 5.02081,-24.75439 0.96838,-9.80259 2.29473,-13.07451 12.72861,-31.39978 l 5.95623,-10.46107 -0.5365,-13.89981 c -0.47253,-12.24228 -1.01992,-14.79565 -4.59034,-21.41221 -3.41952,-6.33691 -4.71656,-7.577 -8.28916,-7.92522 -6.24165,-0.60836 -8.1633,3.355 -9.14061,18.85235 -0.9452,14.98818 -3.57672,25.87023 -9.07192,37.51486 -2.13934,4.53338 -4.68508,10.33489 -5.65721,12.89226 -0.97213,2.55737 -4.35297,8.42573 -7.51298,13.0408 -7.80762,11.40271 -9.97852,18.63272 -11.00825,36.66198 -0.84687,14.82768 -0.72655,15.79529 3.51958,28.30618 6.81451,20.07839 12.63242,24.54278 24.41564,18.73541 z"
     id="path28"
     transform="scale(0.75)" />
  <path
     style="fill:#ffffff;stroke-width:0"
     d="m 364.25516,459.30599 c -3.62566,-1.20823 -8.38921,-3.87551 -10.58565,-5.9273 -5.30113,-4.952 -5.25759,-10.6965 0.30066,-39.66797 3.33793,-17.39843 4.32648,-26.337 4.43915,-40.1394 l 0.14494,-17.75659 -7.3553,-21.17132 c -4.04542,-11.64422 -9.67505,-26.70318 -12.51029,-33.46434 -5.43887,-12.96998 -9.50107,-32.25902 -9.50107,-45.115 0,-5.86511 1.12724,-9.94197 5.04709,-18.25363 5.60324,-11.88112 9.4943,-15.39521 19.91738,-17.98776 5.56008,-1.38297 7.43947,-1.27369 12.70967,0.73902 7.74217,2.95676 21.79966,15.80185 23.65318,21.6132 0.76634,2.40268 2.03661,20.34944 2.82283,39.88169 1.89997,47.20146 6.47673,77.85573 13.78882,92.35497 8.00253,15.86833 10.84397,26.58187 10.84397,40.88683 0,15.89682 -1.0138,21.75286 -3.95042,22.81888 -1.20785,0.43847 -6.34377,4.67618 -11.41315,9.41714 -5.06939,4.74097 -10.86761,9.0342 -12.88494,9.54052 -2.01732,0.50631 -5.24546,1.74385 -7.17363,2.75006 -4.53882,2.3686 -10.10167,2.21077 -18.29324,-0.519 z m 21.14795,-45.01637 c 6.01884,-2.65551 6.0524,-2.73257 7.91708,-18.18109 1.86163,-15.42331 -0.27573,-52.1838 -3.46509,-59.59607 -2.94732,-6.84977 -9.83049,-21.6564 -13.05894,-28.09159 -1.76728,-3.52266 -2.53414,-8.03306 -2.53414,-14.90481 0,-8.08371 -0.62226,-10.91537 -3.46436,-15.76505 -5.24586,-8.95139 -12.43616,-9.68415 -16.74871,-1.70686 -1.21248,2.24282 -1.55235,6.5214 -1.07435,13.52484 1.09215,16.00185 2.89942,23.35663 8.18978,33.32883 3.08912,5.82292 4.90229,11.11846 4.90229,14.31764 0,2.79232 0.63433,5.71127 1.40962,6.48657 2.07072,2.07072 4.24113,51.04659 2.63702,59.50502 -1.685,8.885 -1.69763,8.71428 0.83154,11.24345 2.78105,2.78105 7.91983,2.72387 14.45826,-0.16088 z"
     id="path30"
     transform="scale(0.75)" />
  <path
     style="fill:#ffffff;stroke-width:0"
     d="m 389.6134,154.97604 c -3.20097,-1.00727 -7.65135,-3.13547 -9.88974,-4.72935 -2.23839,-1.59387 -6.13126,-3.23248 -8.65082,-3.64134 -3.83787,-0.62281 -5.05892,-0.13584 -7.52699,3.0018 -2.33053,2.96279 -4.08226,3.74521 -8.38502,3.74521 -5.61611,0 -9.58254,-2.14243 -9.58254,-5.17593 0,-0.95543 -1.82323,-3.68892 -4.05163,-6.07443 -3.02728,-3.24071 -5.01295,-4.2269 -7.85388,-3.90066 -3.35165,0.3849 -3.80224,1.00318 -3.80224,5.21726 v 4.78062 l -9.21415,-0.1082 c -5.06779,-0.0595 -9.6517,-0.54576 -10.18647,-1.08053 -1.21182,-1.21182 -4.28941,-18.92592 -3.53103,-20.32406 0.30561,-0.56343 4.73413,-1.02441 9.84113,-1.02441 18.84205,0 62.4451,15.77058 77.28742,27.95373 4.60417,3.77927 3.90843,3.99176 -4.45404,1.36029 z"
     id="path32"
     transform="scale(0.75)" />
  <path
     style="fill:#ffffff;stroke-width:0"
     d="m 351.41494,829.05682 c -9.14005,-2.64517 -15.03511,-6.21046 -19.36019,-11.70891 -3.18438,-4.04829 -2.55887,-6.66794 2.80236,-11.73642 3.04364,-2.87743 3.89173,-4.89595 3.89173,-9.26263 0,-3.29103 0.70099,-5.78753 1.70736,-6.08054 10.98089,-3.19714 17.81174,-4.82977 23.22204,-5.55028 6.09787,-0.81208 6.57225,-0.64759 7.85387,2.72334 1.73373,4.56006 1.76869,12.60237 0.0574,13.19867 -0.71866,0.25042 -1.60397,6.8502 -1.96736,14.66619 -0.84509,18.17696 -1.41781,18.60949 -18.20718,13.75058 z"
     id="path34"
     transform="scale(0.75)" />
  <path
     style="fill:#ffffff;stroke-width:0"
     d="m 293.67442,794.87797 c 0,-11.72942 0.44776,-14.51568 3.07325,-19.12395 4.60814,-8.08819 7.01608,-8.15419 14.93811,-0.40945 10.03754,9.8129 10.0541,9.89368 4.06544,19.83076 -5.49471,9.11746 -11.3726,13.42637 -18.3206,13.4303 l -3.7562,0.002 z"
     id="path36"
     transform="scale(0.75)" />
  <path
     style="fill:#ffffff;stroke-width:0"
     d="m 281.3814,876.85327 c -20.68643,-3.24105 -21.66985,-3.89101 -15.67479,-10.35978 1.89623,-2.04606 3.84359,-5.29753 4.32748,-7.22549 0.48389,-1.92795 2.31301,-4.63274 4.06471,-6.01063 1.75171,-1.37789 3.18492,-3.35868 3.18492,-4.40175 0,-1.04307 1.14991,-2.99607 2.55534,-4.34001 1.40544,-1.34393 3.39719,-4.81571 4.42611,-7.71507 l 1.87077,-5.27155 7.52544,0.88059 c 12.30145,1.43945 18.42398,5.20412 22.70977,13.96396 6.36279,13.00508 4.51606,23.58996 -4.97171,28.49627 -7.46375,3.85966 -14.9048,4.35133 -30.01804,1.98346 z"
     id="path38"
     transform="scale(0.75)" />
  <path
     style="fill:#ffffff;stroke-width:0"
     d="m 248.09448,938.65452 c -0.36671,-0.59335 -0.0781,-5.35689 0.64128,-10.58566 0.71941,-5.22876 1.81184,-14.89418 2.42763,-21.47871 0.61579,-6.58452 1.40334,-12.25559 1.75012,-12.60237 0.34678,-0.34678 7.85237,0.26538 16.6791,1.36034 37.5999,4.66431 39.5275,5.61345 38.16722,18.79322 -0.44477,4.30947 -1.33734,7.8354 -1.98348,7.8354 -0.64614,0 -1.1748,0.92198 -1.1748,2.04884 0,1.12686 -0.61465,2.04884 -1.36589,2.04884 -0.75124,0 -1.41027,0.76831 -1.46451,1.70736 -0.16422,2.84332 -9.16072,9.43715 -14.59909,10.70016 -6.40819,1.48825 -38.17774,1.62855 -39.07758,0.17258 z"
     id="path40"
     transform="scale(0.75)" />
  <path
     style="fill:#ffffff;stroke-width:0"
     d="m 285.0081,1011.4991 c -11.65823,-4.1567 -28.55729,-26.33991 -33.07711,-43.4199 -0.94376,-3.56641 -1.29881,-6.74217 -0.789,-7.05725 2.44724,-1.51248 20.35311,-2.26941 23.63521,-0.99913 2.9303,1.13412 3.80024,0.99121 4.46188,-0.73299 0.65048,-1.69514 2.02748,-1.949 6.60311,-1.21733 8.24038,1.31769 16.96297,10.26041 11.71432,12.00995 -1.02363,0.34121 -0.23402,2.82642 2.23853,7.04549 5.03165,8.58588 6.52537,24.00496 2.73157,28.19706 -1.34537,1.4866 -3.12499,2.7029 -3.95471,2.7029 -0.82972,0 -2.27629,1.2293 -3.2146,2.7318 -1.98678,3.1813 -3.24778,3.2714 -10.3492,0.7394 z"
     id="path42"
     transform="scale(0.75)" />
  <path
     style="fill:#ffffff;stroke-width:0"
     d="m 331.75573,1010.7498 c -4.50563,-2.6326 -6.75716,-7.7636 -5.21237,-11.8786 1.52883,-4.07246 13.25591,-16.79523 15.48083,-16.79523 0.73106,0 2.69237,-1.28063 4.35847,-2.84585 3.15873,-2.96748 9.25966,-4.98285 19.68401,-6.50238 5.25913,-0.76661 6.20437,-1.39125 6.5473,-4.32668 0.2579,-2.20756 -1.15789,-5.45874 -3.97098,-9.1189 -3.59331,-4.67531 -6.21846,-6.34263 -14.74265,-9.36356 -5.70399,-2.02147 -13.88954,-5.44842 -18.19012,-7.61545 -7.54783,-3.8033 -7.77039,-4.07037 -6.41165,-7.69409 1.84632,-4.9241 8.12125,-13.99821 9.68004,-13.99821 0.67328,0 1.70499,-1.29985 2.29269,-2.88855 1.44508,-3.90643 15.24384,-9.89249 17.52792,-7.60382 0.88596,0.88774 3.72767,8.98989 6.31491,18.00478 2.58724,9.01488 5.7549,18.8493 7.03926,21.85426 1.28435,3.00496 4.11539,13.28687 6.2912,22.8487 l 3.95603,17.38513 -2.87665,4.87555 c -2.13765,3.62305 -5.20067,5.9329 -11.92318,8.9915 -14.80274,6.7349 -30.67912,9.6898 -35.84506,6.6714 z"
     id="path44"
     transform="scale(0.75)" />
  <path
     style="fill:#ffffff;stroke-width:0"
     d="m 350.11843,885.10009 c -6.99885,-3.11216 -9.08705,-6.44186 -6.84204,-10.90988 1.95517,-3.89118 14.16939,-12.73691 16.01347,-11.5972 1.4328,0.88551 1.82506,19.58157 0.48416,23.0759 -1.03561,2.69875 -2.50143,2.6124 -9.65559,-0.56882 z"
     id="path46"
     transform="scale(0.75)" />
</svg>
