<svg xmlns="http://www.w3.org/2000/svg" width="717.333" height="940" viewBox="0 0 538 705" preserveAspectRatio="xMidYMid meet"  xmlns:v="https://vecta.io/nano"><path d="M230 65.2c-6.6 1-12.9 2.3-18 3.7l-8.5 2.4c-2.2.6-4.9 1.5-6 2.1s-2.2 1.1-2.5 1.1c-1.4.2-7.9 4.1-11.1 6.6-2 1.6-4 2.9-4.3 2.9-.4 0-4.8 3.1-9.9 6.9-10.3 7.7-28.2 24.9-29.2 28.1-.3 1.1-1 2-1.4 2-1.2 0-12.7 15.2-13.5 17.8-.4 1.2-1.1 2.2-1.6 2.2s-2.7 3.8-5 8.5-4.5 8.5-4.9 8.5-.7.9-.8 2-1.1 3.3-2.2 4.9c-1.2 1.6-2.1 3.6-2.1 4.5s-.7 2.8-1.6 4.1c-.9 1.4-1.4 3.1-1.1 4 .4.8.2 1.7-.3 2-.6.4-1 1.9-1 3.5s-.5 4.1-1 5.6c-1.7 4.4-2.2 10.9-2.1 26.4.1 17.3.6 24.1 2.1 25 .5.3 1 1.7 1 3.1 0 3.4 1 11.1 1.7 12.9.3.8.7 2.5.9 3.6.1 1.2.9 3.5 1.7 5 1.4 2.9 4.3 13.3 3.9 14.6-.1.3.5 1.2 1.3 1.8.8.7 1.5 1.7 1.5 2.2 0 1.5 6.2 14.2 7.2 14.9 1.1.7 5.9 13.9 5.1 13.9-.3 0-.1.6.5 1.2.5.7 1.2 2.7 1.5 4.5.3 1.7.8 3.7 1.2 4.3.8 1.3 1 4 2 21.1.5 8.7.4 13.2-.4 14.7-.6 1.1-.7 2.3-.3 2.6.9.5.8 7.1-.1 9.6-2.4 6.5-6.7 20.4-6.7 21.6 0 .8-.4 1.4-.9 1.4-.8 0-2.1 3.4-2.6 6.5-.7 5.1-6.7 20.2-10.9 27.5-.8 1.4-2 4.5-2.7 7s-2.5 7-4 10-3.2 8.9-3.9 13c-.6 4.1-1.8 8.9-2.5 10.5-6 13.4-9.4 21.9-10.1 25.5-.3 1.4-.7 3.2-1 4.1-.2.9-.1 2.6.4 3.8.7 2.1-.6 12.3-1.9 13.5-.2.3-.1 4.4.4 9.2.9 7.6.8 8.9-.7 9.9-1.4 1.1-1.5 1.4-.1 2.5 1 .8 1.5 3.1 1.5 7 0 3.1.5 8.2 1.1 11.1.6 3 1.2 6.9 1.4 8.7.7 6.8 1.7 11.2 2.6 11.2.5 0 .9.7.9 1.6s1.3 4.3 2.9 7.7 3.5 7.7 4.2 9.5c.7 1.9 1.9 4.1 2.7 4.9.9.8 1.7 2.6 1.8 4 .4 3.5 7.6 16.8 10.5 19.3.3.3 1.4 2 2.4 3.7 1.1 1.8 2.5 3.3 3.2 3.3s1.3.4 1.3 1c0 .5.6 1 1.4 1s2.3 1.1 3.4 2.5 2.4 2.5 2.9 2.3c.7-.2 7.3 2.7 13.5 5.9 1.5.8 3 1.4 3.3 1.3 1.8-.2 5.5 1.4 5.5 2.4 0 .6.5.4 1-.4.7-1.1 1-1.1 1-.2 0 .7.5 1 1 .7.6-.4 1.7-.1 2.5.5s1.8.9 2.3.6 3.8.6 7.3 1.9c3.4 1.4 7.3 2.5 8.5 2.5 1.3 0 2.6.4 2.9 1 .3.5 1.9 1 3.6 1 1.6 0 2.9.5 2.9 1 0 .6.6 1 1.3.9.6-.2 3 .2 5.2.9 2.2.6 13.7 1.4 25.5 1.8l26 .9c3.9.1 13-.5 29-2 18.3-1.6 42.7-4.8 43.4-5.5.6-.6 1.9-1 3.1-1s2.5-.4 3.1-.9c.5-.4 3.2-1.4 5.9-2.1 2.8-.7 6-1.9 7.3-2.7s3.1-1.3 4-1.2a8.55 8.55 0 0 0 3.2-.4c2.8-1.2 13.5-3.9 15.3-3.9.9.1 1.7-.3 1.7-.9 0-.5.9-.9 1.9-.9 1.1 0 2.3-.5 2.6-1 .3-.6 1.6-1 2.9-1 1.2 0 2.7-.5 3.2-1 .6-.6 2.5-1.2 4.2-1.5 1.8-.2 4.7-1.3 6.6-2.4 1.8-1.2 3.8-2.1 4.5-2.1 2 0 15.5-6.9 20.6-10.6 7.3-5.3 18.7-17.1 22-22.9 1.5-2.8 4.6-8 6.8-11.8 3.2-5.5 3.7-7 2.7-8.2-1.8-2.1-.6-6.7 2.9-11.5 6.2-8.6 6.5-22.3 1.1-50.3-1.1-5.6-2-11.9-2-14 0-2-.4-3.7-.8-3.7s-.8-.8-.9-1.8c-.7-7.8-1.1-10-2.1-11.8-1.2-2.3-1.4-3.6-3.2-17.9-.6-5-1.6-11.9-2.1-15.5-.6-3.6-1.2-9-1.3-12s-.8-8.7-1.5-12.5c-.7-3.9-1.5-9-1.7-11.5-.3-2.5-.9-6.1-1.5-8-.5-1.9-1.3-6.2-1.5-9.5-.3-3.3-1-6.5-1.4-7-1.2-1.5-2.9-8.5-3.1-13-.1-2.2-.8-4.7-1.5-5.5s-1.2-2.9-1.2-4.6c.1-1.7-.3-3.7-.8-4.5s-.9-1.6-1-1.9c0-.3-.4-3.2-.8-6.5s-1.2-7.4-1.6-9c-1.4-4.6-3.2-14.6-3.5-18.5-.2-2-.9-5.6-1.6-8-1.4-5-1.4-4.9-2.4-17.5-.4-5-1.4-12.8-2.3-17.5l-1.7-10.5c-.4-4.5-2.9-15.5-3.6-15.5-.4 0-.8-.8-.8-1.8 0-3.1-2.7-14.3-5.4-22.2-.9-2.5-1.9-6.2-2.2-8.3-.4-2-1.1-3.7-1.5-3.7-.5 0-1.1-1.8-1.5-4s-1-4-1.5-4c-.4 0-1-1.2-1.3-2.8-.3-1.5-1-3.8-1.5-5.2s-1-2.7-.9-3c0-.3-1-2.3-2.2-4.5-1.1-2.2-2.1-4.8-2.1-5.7 0-1-.4-1.8-1-1.8-.5 0-1-1.4-1-3 0-1.7-.4-3-1-3-.5 0-1-.7-1-1.5s-.4-2.3-.9-3.3c-.5-.9-1.3-2.8-1.9-4.2-5-11.8-6.8-15.8-8.4-17.9-1-1.3-1.5-2.7-1.2-3.2s.1-.9-.4-.9-2.2-2.8-3.7-6.3c-1.5-3.4-3.1-6.4-3.4-6.7-1.5-1.2-6.1-8.7-6.1-9.9 0-.7-1.6-3.3-3.6-5.7-2-2.5-3.4-4.7-3.2-5 .3-.3-.7-1.8-2.3-3.4s-2.9-3.5-2.9-4.3c0-1.7-16.1-17.9-18.1-18.3-2.6-.4-18.1-10-18.7-11.5-.2-.4-1-.5-1.8-.2-.7.3-1.7-.2-2-1.1-.3-.8-2.5-2.4-4.7-3.5-14.6-6.6-13.2-6.2-22.7-6.8-4.1-.3-8.1-1-8.8-1.6-1.5-1.2-19.4-1.6-26.2-.5zm37 12.5c3.5.9 7.2 2.5 8.2 3.5s3.1 1.8 4.6 1.8 5.2 1.3 8.2 2.9c3 1.7 6.6 3.6 8 4.3s2.7 1.5 3 1.9c.3.3 1.3.8 2.3 1.2 1.4.5 1.6 1.1.8 2.6-.7 1.2-.7 3-.1 5.1 1 3.6.6 5-1.4 5-1.8 0-4.2 3.2-4.2 5.4.1 1.5 1.2 2.3 4.1 3 3.5 1 4 1.5 4.3 4.3.2 2.3-.5 4.3-2.4 6.8-2.5 3.3-5.4 4.7-5.4 2.5 0-.6-.8-1-1.7-1-2.1 0-9.3 6.1-9.3 7.8 0 .7-.8 1.2-1.7 1.2-1 0-4 1.1-6.7 2.5-2.7 1.3-5.3 2.2-5.8 1.9s-2 .1-3.3 1-3.3 1.6-4.4 1.6-3.2 1-4.8 2.3c-1.5 1.2-6 4.4-9.9 7-6.8 4.5-7.4 4.7-11.2 3.8-3.5-.7-4.4-.6-5.8 1-1.4 1.5-1.5 2.4-.6 4.3.9 2 .7 2.6-1.6 4.3-5.5 4.1-7 4.5-9.5 2.8-2.6-1.7-3.2-1.3-5.6 3.2-1.4 2.7-.4 7.3 1.6 7.3.8 0 1.1.5.7 1.2-1.2 2-2.2 8.8-1.3 9.4.4.2.6 1.1.2 2-.3.8.6 2.6 2.1 4.1 1.7 1.6 2.5 3.4 2.3 4.5-.4 1.5.2 2.1 1.6 1.7.1 0 1.4.4 2.8 1 3.8 1.4 5.9-.5 6.2-5.4.3-3.8.5-4 3.7-4.1 4.3-.1 6.7-1.1 7.4-3.1.8-2-.2-5.3-1.5-5.3-.6 0-2.1-1.1-3.5-2.5s-2.9-2.5-3.4-2.5c-2 0-.9-3.7 1.5-5 1.4-.7 2.5-1.7 2.5-2.2 0-.4 1.4-.8 3-.8 2.1 0 3.9.9 5.8 3.1 3.6 4.1 9.6 4.6 11.9 1.2 1.4-2.1 1.3-2.4-1.6-4-2-1.2-3.1-2.6-3.1-4.1 0-1.2-.4-2.2-1-2.2-5 0 8.9-10 15.8-11.3 3.2-.6 3.7-.2 3.3 3.1-.1.8.7 1.1 2.5.8 1.5-.3 3.3-.1 3.8.3 2.7 2.2 11.4.5 11.7-2.3.1-.6.2-1.8.3-2.6.2-1.9-1.4-4.1-2.5-3.5-.4.3-1.3-.4-1.9-1.5-.9-1.7-.8-2.1.2-1.9.7.1 2.6-.3 4.1-.9 3.9-1.6 6.8-1.5 6.1.2-.4 1 .4 1.3 3.4 1.2 2.9-.1 3.8-.5 3.4-1.5-.3-.7.1-1.7.8-2.1s1.3-2.2 1.4-4c.1-2.4 1.2-4.3 4.3-7.4 2.3-2.3 4.5-5.5 4.8-7.1.4-1.7 1.5-4.6 2.5-6.6 1.9-3.5 2.1-9.3.5-11.9-.5-.8-.3-1.1.6-.8.8.3 1.5 1.4 1.7 2.6.2 1.4 1.1 2.2 2.3 2.2 1.1 0 1.7.4 1.4 1-.3.5.5 1.5 1.9 2.2 1.4.6 2.6 1.7 2.6 2.3 0 .7.7 1.9 1.6 2.6s2 2.2 2.5 3.4c1.6 3.5 5.1 9 6.2 9.7.6.4.8 1 .5 1.4-.4.4.1 1.9 1.1 3.3s3.1 5.1 4.8 8.1c1.6 3 3.6 6.6 4.4 7.9 1.1 1.8 1.1 2.5.2 2.8-1.6.6-1.7 2.3-.2 2.3 1.7 0 3.8 3.2 3.9 5.8 0 1.2.7 2.5 1.5 2.8.8.4 1.5 1.2 1.5 1.9s.7 1.8 1.5 2.5 1.5 1.9 1.5 2.7.7 3.1 1.6 5.1l3.2 7.2c.8 1.9 1.9 4.3 2.3 5.2.5 1 .9 2.4.9 3.3 0 .8.6 2.9 1.4 4.7l3 7c.9 2 1.6 4 1.6 4.5 0 .6.7 2.4 1.5 4.1.9 1.7 2.2 5.6 3.1 8.8.8 3.2 1.8 6.3 2.3 6.8.4.6 1.6 4.2 2.6 8.1 1 3.8 2.2 7.5 2.6 8 .4.6.9 3.2 1.1 5.8s.6 4.7 1.1 4.7c.4 0 .7 1.1.7 2.4 0 1.4.4 2.7.9 3s1.2 3.4 1.6 6.8l1.2 8.8c.2 1.4.6 5.1.8 8.2.2 3.2.9 9.4 1.5 13.9s.9 8.7.6 9.4c-.3.8-.1 1.5.4 1.7s1.1 2.1 1.3 4.4.7 4.6 1 5.1c.4.6.9 5.1 1.3 9.9.3 4.9.8 9.6 1.1 10.4.7 1.7 1 3.2 1.9 8 .4 1.9 1 4 1.5 4.5.4.6.8 2 .9 3 .1 4.5.5 6.5 1.2 6.5.4 0 .8 1.1.8 2.5 0 2.6 1.4 9 3.5 16.7.8 2.6 1.2 5.8.9 7.2-.2 1.4 0 2.6.5 2.6.4 0 1.2 2.8 1.5 6.2.4 3.4 1.2 7 1.7 8 .5.9 1.2 5.5 1.5 10 .2 4.6.9 10.3 1.4 12.8 1.5 7 3.9 29.9 4.4 41.5.1 1.6.4 3.4.7 4 .8 1.3 2.3 12.4 2 14.7-.1.9.3 1.9.9 2.3.5.3 1 2.4 1 4.5s.5 4.2 1 4.5c.6.4.9 2.2.7 4.1-.3 1.9-.1 3.4.3 3.4.5 0 1 2.1 1.3 4.7.3 2.7 1.3 9.3 2.2 14.8 2.3 13.9 1.4 24.6-2.6 31-1.6 2.5-2.9 5-2.9 5.5 0 1.3-3.8 7.9-5.6 9.7s-1.8 3.3 0 3.3c.7 0 1.6 1.4 2 3.1.5 2.5-.2 4.1-3.3 8.8-7.1 10.4-16.3 17.9-31.3 25.4-7.3 3.7-13.9 6.7-14.6 6.7-.6 0-2.6.8-4.4 1.8-3.3 1.9-10.1 4.1-19.3 6.2-4.4 1.1-10.7 3-15.5 4.8-.8.3-1.7.6-2 .6-.3.1-1 .5-1.7.9-.6.4-2.4.9-4 1.1-1.5.2-6.3 1.4-10.6 2.5-4.3 1.2-8.2 1.9-8.7 1.6s-1.9-.1-3.2.4c-1.9.8-14.4 2.3-29.8 3.7l-12.2 1.4c-8.3 1-25.7 1.3-34.3.6-2.2-.2-10.5-.5-18.5-.6s-15.1-.6-15.7-1.2c-.7-.6-2-.8-2.9-.4-.8.3-3-.2-4.7-1.1-1.8-.9-3.8-1.6-4.5-1.4-.8.1-1.9-.2-2.5-.8-.7-.5-2.4-1.1-3.7-1.3-1.4-.2-4.2-1.2-6.2-2.2-2.1-1-4.4-1.6-5.3-1.3-1.4.6-10.2-2-14.1-4.1-1-.6-3.4-1.7-5.1-2.4-1.8-.7-3.3-1.7-3.3-2.2 0-.4-.6-.6-1.4-.3s-2-.1-2.6-.9c-.7-.8-1.7-1.4-2.3-1.4-.5 0-2.8-1.8-4.9-4-2.2-2.2-4.3-4-4.6-4-.4 0-1.6-1.6-2.6-3.5-1.1-1.9-2.2-3.5-2.6-3.5s-1.3-1.8-2-4-1.9-4-2.7-4c-.7 0-1.3-.5-1.3-1.2 0-.6-.7-1.9-1.5-2.8-.9-1-1.6-3.3-1.7-5.3s-.8-4.5-1.7-5.4c-.9-1-2.2-3.6-2.9-5.8-.6-2.2-2.1-6.9-3.2-10.5-5.3-17.1-6.6-34.6-4.3-58 1.8-18 2.2-19.8 4.3-24.6 1.1-2.4 2-5 2-5.8s.4-1.7.9-2 1.2-2.2 1.5-4.1c.4-2.1 1.4-3.8 2.4-4.1 3.1-1 6.7-2.8 8.3-4.1 2.5-2 15-8.3 16.5-8.3.8 0 1.4.7 1.4 1.5 0 2 7.1 1.7 9.9-.5 2-1.4 2.1-2 1.3-5.8-.8-3.6-.7-4.2.8-4.7.9-.3 2.5-1.4 3.5-2.5s2.9-2 4.2-2c5.2 0 11.8-7.5 9.2-10.6-.9-1.1-.9-1.7.1-2.8 1-1.3.7-1.5-1.7-1.3-2 .1-2.7-.2-2.4-1.3 1.5-6.5 4.5-15.7 5.3-16.7.6-.7 1.7-1.2 2.6-1.1 4.8.4 5.2 0 5.2-5.5 0-4.8-.2-5.3-3-6.6-2.8-1.2-3-1.6-2.4-4.9.4-2.1 1-4.1 1.5-4.6.5-.6.9-2.1.9-3.4s.7-3.9 1.6-5.8c1.5-3.2 1.8-3.3 3.4-1.9 2.4 2.2 5.6 1.9 7.4-.7 2.2-3.1 2-4.8-.5-4.8-1.5 0-1.9-.5-1.4-1.9.4-1.3-.2-2.5-1.9-3.9-2.6-2-2.6-3.5 0-2.5 1.1.4 1.4-.4 1.4-3.3 0-3.4-.6-4.3-4-6.7-3.9-2.8-4-2.8-6.5-1-1.4 1-2.7 2.9-3 4.3-1.1 4.8-3 7.5-5.5 7.6-5.1.2-5.9.4-7.3 1.9-2.3 2.2-.9 5.1 3.3 7 3.6 1.6 3.8 1.9 3.4 5.4-.3 2-1.1 5.8-1.7 8.6-.6 2.7-1.2 5.5-1.2 6.2 0 1.8-3.7 4.2-6.5 4.3-3.2.1-7 3.2-7 5.8 0 2.9 2.3 4.3 6.4 3.9 2-.2 3.9-.1 4.1.3.3.4-.2 3-1 5.6-.8 2.7-1.5 5.8-1.5 7 0 1.1-.9 2.9-1.9 3.8-1.7 1.5-2.6 1.6-8.1.6-5.7-1-6.5-1-8.2.7-1.7 1.8-1.7 2.2-.4 5.5.9 2 2.7 5 4.1 6.7l2.7 3.1-2.7 1c-4 1.5-6.4 1.2-7.7-1-1.5-2.4-7.9-2.8-9.8-.5-1.7 2-.9 4.8 1.8 6.1l2.4 1.2-2.3 2.1c-1.3 1.2-3 1.9-4 1.6-.9-.3-2.2.1-2.9 1-.7.8-1.6 1.2-2.1.9-1.7-1-.9-4.7 2.4-11.3 11.9-23.6 14.1-28.6 16.7-38.1 1-3.6 3.2-10.1 4.9-14.5s3.1-8.5 3.1-9.1.8-2.6 1.8-4.5c1.5-3.1 1.9-8.5 1.2-19.4-.2-3.6.7-15 1.4-17.3.6-1.6.3-2.2-.8-2.2-1.9 0-2-.5-.6-3 .6-1.1.6-2.1.1-2.4s-.7-1.5-.4-2.6.1-3.2-.5-4.8c-.5-1.5-1.5-5.4-2.2-8.7s-1.5-6.7-1.8-7.5-.5-1.8-.4-2.2c.1-.3-.5-1.2-1.3-1.8-.8-.7-1.5-2-1.5-2.9s-.7-2.5-1.5-3.5-1.2-2.3-.9-2.7c.3-.5-.2-2.1-1-3.6-2-3.7-6.6-14-6.6-14.8 0-.3-.8-1.7-1.7-3.2-.9-1.4-1.8-3.3-2-4.2-1.1-6.4-1.8-8.9-2.9-10.7-.8-1.1-1.2-2.3-.9-2.6.7-.7-1.5-11-2.6-12.3-1.5-2-2.9-18-2.6-31.8.1-7.5-.2-13.8-.7-14s-.1-2.7.8-5.5c1-2.9 1.5-6 1.2-6.8-.3-.9.7-4.6 2.4-8.4 1.6-3.8 3-7.2 3-7.7s1.3-3.3 3-6.3c1.6-3 3.9-7.5 5.1-10 4.4-9.6 4.9-10.6 6.1-12.5.7-1.1 3.1-4.3 5.4-7 2.2-2.8 5.3-7.1 6.7-9.6 1.5-2.5 4.6-6.1 6.9-7.9 2.4-1.9 4.4-3.8 4.6-4.2.5-1 17-14.8 21.2-17.7 1.9-1.3 3.7-2.7 4-3.1s3.7-2.6 7.5-5c10.6-6.3 27.9-11.4 42-12.3 10.4-.6 28.5.5 34.5 2zM162 205.4l-6 2.3c-2.7 1.1-13 12.4-13 14.2 0 .6-.5 2.1-1.2 3.4-2.4 4.6-2.7 5.5-2.1 6.1.3.3.5 3.8.5 7.8-.2 7.5 3.3 23.7 5.6 26 .7.7 1.2 1.9 1.2 2.7 0 .9.7 2.5 1.6 3.6.8 1.1 1.9 3.7 2.5 5.7.5 2.1 1.3 3.7 1.7 3.4s1.7.9 2.7 2.5c1.1 1.6 2.6 2.9 3.3 2.9s1 .4.7 1c-.3.5-.1 1 .6 1 .6 0 1.7.7 2.3 1.5 2.5 3.3 22.2 3.7 26 .6.9-.7 2.6-1.1 3.9-.7 1.7.4 3.3-.3 6-2.5 2-1.7 3.7-3.5 3.7-4s3.2-4.9 7.1-9.8c4-4.9 7.8-10.6 8.5-12.7 1.9-5.3 1.1-11.5-2.4-20.4-1.7-4.1-3.3-8.7-3.6-10.2-.4-1.8-1.5-3-3.1-3.4-1.4-.3-2.5-1.1-2.5-1.6 0-1.2-12-12.8-13.3-12.8-.5 0-3.1-1.1-5.8-2.5-2.7-1.3-4.9-2.2-4.9-1.9 0 .2-.9 0-1.9-.5-1-.6-3.6-1.3-5.7-1.6-2.2-.4-5-.8-6.4-1s-4.1.2-6 .9zm17 11.1c1.6.8 3.6 1.5 4.5 1.5.8 0 1.5.4 1.5.9s1.1 1.2 2.6 1.5c4.4 1.1 19.4 18.1 19.4 22.1 0 .7.6 1.5 1.3 1.8.9.3.9.7-.1 1.9-.9 1.1-1 1.8-.2 2.3 1.6 1 .3 7.5-2.1 10.9-5 6.9-10.5 12.6-12 12.6-.9 0-3.4 1.6-5.5 3.6-5.6 5.3-8.6 6.3-14.7 5.2-2.9-.5-5.3-1.4-5.5-1.9s-.9-.9-1.5-.9c-.7 0-2.2-1.5-3.5-3.3l-4.7-6.6c-1.4-1.9-2.3-3.6-2.1-3.9.3-.2-.6-2.9-1.9-5.8-1.3-3-2.2-6.1-1.9-6.9.4-.8.1-1.5-.5-1.5-1.6 0-1.4-10.9.5-19.1.8-3.8 1.9-6.9 2.4-6.9s1.7-1.4 2.7-3.1c3.6-6.3 13.7-8.3 21.3-4.4zm-11.5 29l-5.3 6.5c-.2.4 1 2.1 2.5 3.8 3.8 4.1 14.2 6.5 17.1 3.9 1-.9 3-1.7 4.4-1.7 1.7 0 3.2-.9 4.3-2.6 1.5-2.3 1.5-2.8.2-4.2-2.1-2.5-4.9-8.2-4-8.3 1.1-.2-6.3-1.9-10.7-2.5-3.2-.5-3.9-.1-8.5 5.1zm136.3-37.8c-1.4.2-3.2 1.1-3.8 1.9-.7.8-1.8 1.4-2.5 1.4-1.7 0-10.2 9.3-11.7 12.7-.7 1.5-2.2 4.1-3.3 5.8-1.2 1.6-3.4 6.3-4.9 10.2-2.3 6.2-2.7 8.5-2.5 15.5.2 4.6.6 8.7.9 9.3.4.5 1.3 2.5 2 4.4 1.5 3.8 12.9 15.6 16 16.6 1.1.4 2 1 2 1.5 0 .4 1.2 1.1 2.8 1.5 1.5.3 3.4 1.2 4.2 1.9 4.4 3.6 20.7 4.4 27.9 1.3 3.1-1.4 12.1-7.8 12.1-8.6 0-.4 1-1.7 2.3-3.1 3.7-4 4.5-6.1 4-10.1-.4-2.5.1-5.1 1.2-7.6 2.5-5.3 3-24.6.8-30.3-.9-2.2-2-4-2.5-4-.4 0-.8-.7-.8-1.5 0-1.5-2.5-6-4.5-8-.5-.6-2.5-1.7-4.2-2.4-1.8-.7-3.3-1.7-3.3-2.1 0-1.4-13.6-5.7-14.7-4.7-.3.4-1.2.2-1.9-.4-1.4-1.2-11.2-1.9-15.6-1.2zm18.5 11.5c1 .5 2.7.6 3.9.2 1.5-.4 1.8-.3 1.3.6s-.4 1.1.4.6c.6-.4 2.3-.1 3.6.8s3.1 1.6 3.9 1.6c1.3 0 5.2 6.7 4.8 8.2-.1.5.3.8.8.8.6 0 1 .9 1 1.9 0 1.1.4 2.2.8 2.5.5.3.9 4.7 1 9.8.1 7.9-.2 10-2.1 13.8-2.3 4.3-2.6 4.5-9.1 5.8-3.7.7-7.6 2.2-8.5 3.1-1.8 1.8-1.7 1.9 1 4.6 2.2 2 3.6 2.5 5.4 2.1 3.2-.8 4 .9 1.6 3.3-2.6 2.6-9.5 4.4-14.6 3.8-5.3-.6-16.5-3.9-16.5-4.9 0-.4-.4-.8-1-.8-1.2 0-8-6.8-8-8 0-.6-.7-1-1.5-1s-1.5-.6-1.5-1.3-.9-3-2-5.1c-1.9-3.8-2-6-.5-15.1.7-4.3 4.9-14 7.1-16.5l4.6-5.4c4.7-5.6 9.9-7.8 16.8-7 3 .4 6.3 1.1 7.3 1.6z"/><path d="M312.2 241.3c-4.7 2.7-6.5 11.2-3.2 15.2 2.5 3 12.8.6 15-3.6 1.6-2.9 1.4-8.8-.3-11.7-1-1.6-8.5-1.5-11.5.1zm-67.9 22.5c-1.8.2-3.7 1.1-4.2 2-1.5 2.9.4 9.8 3.5 13 1.7 1.7 3.7 5.5 4.8 9 1 3.4 2.4 6.7 3.2 7.3s1.4 2.2 1.4 3.5c0 1.2.4 2.5.9 2.9 1.4.8 4.5 12.8 7.9 30.9 1.3 6.8 1.4 28.7.1 30.2-.6.7-.9 1.8-.8 2.6.2.7-.1 3.3-.6 5.8s-.9 4.8-.9 5.1c-.2 2.1-7 8.8-11.3 11.2-5.6 3-10.3 3.5-22.3 2.4-8.2-.8-11.4-.2-10.6 1.9.3.7.1 1.6-.4 1.9-1.6 1 1 5 4.5 6.9 2.7 1.5 5.1 1.7 13.6 1.4 9.1-.3 11.1-.7 15.9-3.2 10.8-5.6 19.3-14.5 20.7-21.8.3-1.8 1.1-3.6 1.7-4 .5-.4 1.1-3.1 1.3-6l.5-9c.1-2 .6-3.4 1.1-3.1s.7-.3.4-1.3c-1.1-3.7-2-11-1.9-14.6.1-2-.3-4-.8-4.3-.6-.4-.8-1.5-.5-2.6.4-1 .2-1.9-.3-1.9s-.9-1.6-1-3.5-.6-4.4-1.2-5.5-.8-2-.4-2c.3 0 .1-.7-.6-1.5s-1-2.1-.7-2.9c.5-1.3-2.1-11.5-3.3-12.6-1.3-1.3-4-8.3-4-10.5 0-1.3-.5-2.7-1-3-.6-.4-.8-1.4-.5-2.4.3-.9-.2-2.6-1-3.7-.8-1-1.5-2.6-1.5-3.6 0-2.2-4.1-9.8-5.3-9.8-.5 0-.7-.6-.4-1.4.8-2.1-2.4-4.2-6-3.8zm51.2 190.6c-1.6.6-5 2.1-7.5 3.3-7.5 3.4-14.8 6.3-16.2 6.3-1.2 0-10.6 3.4-13.9 5-.9.5-3.3 1.2-5.3 1.5-2 .4-3.9 1.1-4.1 1.5-.5.8-9 3.6-13.5 4.5-.8.2-3.5 1.2-6 2.3-9 3.8-27.6 9.1-33.6 9.5-3.3.2-6.5.6-7.1 1s-2.8.9-4.9 1.2c-12.3 1.5-20.7 3.8-30.4 8.4-8.4 4-15.5 10.5-16.7 15.1-.3 1.4-.9 2.9-1.3 3.5-.5.5-1.3 2.9-1.9 5.3-.7 2.3-2.6 5.9-4.4 7.8-2.6 3-3.1 4.4-2.9 8 .1 2.4-.3 4.6-.8 4.9-.6.4-.7 1.1-.3 1.8.4.6.8 2.2 1 3.6.2 1.5.4 3.5.6 4.6.1 1.1.5 2.4.8 3 .4.5 1 2.6 1.4 4.5.7 3.2 1.9 6.6 4.9 13 .6 1.4 1.7 2.9 2.3 3.3.7.4 1.3 1.9 1.3 3.2s.6 3 1.3 3.7c.6.7 1.7 2.6 2.2 4.3.6 1.6 1.7 3 2.5 3s1.6.9 1.8 2c.5 2.3 5.1 7.4 6.9 7.5.6 0 1.3.3 1.5.7.5 1.3 7.6 6.3 8.7 6.3.6 0 1.9.8 3 1.9s4.2 2.1 8.2 2.6l6.9 1c4.1 1.1 17.2 1.4 24 .5l12-1.4c1.9-.2 6.1-1.1 9.3-2s6.2-1.4 6.8-1c.6.3 1.8 0 2.7-.8s3.7-2.1 6.2-2.8 5.6-1.9 7-2.6c1.4-.6 4.5-1.8 7-2.5s4.9-1.5 5.4-1.7c.5-.3 2.2-.6 3.8-.7 1.5-.2 3.5-.8 4.2-1.4.8-.7 4.4-1.3 8-1.4s6.6-.5 6.6-.9c0-.5 1.4-.8 3-.8 1.7 0 3 .4 3 1 0 .5.7 1 1.5 1s1.9 1 2.6 2.1c.9 1.8 1.7 2.1 5.1 1.6 3.1-.4 3.8-.2 3.4.9-.3.8-.3 2.1.1 3 .8 2 5.2 1 7.1-1.7 1.7-2.4 4.1-2.4 9.6.2 3.2 1.5 6.6 2.1 12.3 2.2 7.1.1 17.3-1.6 19.8-3.4.6-.3 2.3-.9 3.9-1.3 4.4-1.1 15.5-7.9 20.4-12.6 5.7-5.5 11.3-14.1 11.8-18.2.2-1.8.7-4.9 1.2-6.8.8-3.9.7-11.5-.4-20.2-.6-5.3-1.1-6-6-10.5-3-2.6-5.4-5.1-5.4-5.6s-1-1.7-2.2-2.6c-1.4-1.2-2.2-3-2.2-5.4-.1-2-.7-4.2-1.4-4.9s-1.2-1.8-1.2-2.5-.6-1.3-1.4-1.3c-.7 0-1.7-.8-2-1.8-.3-.9-1.3-2.8-2.1-4.2s-1.5-4.2-1.5-6.4c0-5.6-2.8-15.5-5-17.9-1.1-1.1-2.2-2.9-2.6-3.9-.3-1-1.2-1.8-2-1.8s-1.4-.4-1.4-.9-.9-1.3-2.1-1.6c-1.1-.4-3.4-2.2-5.1-4.1s-3.5-3.4-4-3.4c-.9 0-9.8-5.8-10.8-7.1-1.9-2.3-28.6-3.5-33.5-1.5zm29.8 11.9c3.7 1.1 6.7 2.4 6.7 2.9 0 .4.5.8 1.1.8 2.1 0 16.6 15.2 17.9 18.8 1.1 3.2 1.1 3.7-.5 4.7-4.6 2.7-6.5 4.9-7.1 8.2-.5 2.8-.3 3.9 1 4.8 5 3.7-2.1 13.2-11.9 15.8-7 1.9-13.6 1.3-16.1-1.4-.9-1.1-2.5-1.9-3.5-1.9s-2.4-1-3-2.3c-.6-1.2-2.1-3.2-3.2-4.4-1.1-1.3-1.8-2.6-1.4-2.9.3-.4-.5-2.1-1.8-3.9-1.4-1.7-2.5-3.6-2.5-4.2 0-.5-.9-1.8-2-2.8s-2-2.6-2-3.5c0-1-.6-3.3-1.3-5.1-.8-1.9-1.3-5.1-1.2-7.2.1-2.3-.3-3.7-1-3.7-1.6 0-2.9-9-1.5-10.4.6-.6 4.3-2 8.3-3.2 8.5-2.5 14.8-2.3 25 .9zm-47 12.4c-.4 3.9-.1 5.2 1.6 7 1.2 1.2 2.1 3.2 2.1 4.5s.9 3.4 2 4.8 2 2.9 2 3.5c0 .9 2.8 7.2 6.5 14.7 1.1 2.3 1.1 2.9-.3 4.8-4.6 5.9-6.5 8-7.5 8-.6 0-1.8.7-2.7 1.5-1.8 1.7-8.7 2.1-14.5 1-3.8-.8-11.5-6.9-11.5-9.2 0-.5-1.2-2-2.6-3.4-3.2-3-6.4-9.4-6.4-12.9 0-1.5-.9-3.5-1.9-4.4-1.2-1.1-1.7-2.5-1.4-3.7.4-1.2-.3-3.2-1.6-4.9-1.6-2.2-1.8-3.1-.8-3.7 1.6-1 23.6-8.4 26.2-8.8 1.1-.1 3.8-.9 6-1.8l4.6-1.6c.3 0 .4 2 .2 4.6zM229 496.2c.5 2.4 1.4 5.7 2 7.3 2.1 6.6 2.3 12.3.5 16.2-2.2 4.8-10.1 12-13.9 12.7-4.1.9-11.6-2.1-11.6-4.5 0-1.9-3.3-5.9-4.8-5.9-.5 0-1.9-1.1-3.1-2.4-2-2.1-2.2-3.2-1.9-10.7.1-4.6-.1-9-.5-9.7-.5-.6-.7-1.2-.5-1.3.2 0 3.7-.4 7.8-.9 4.1-.4 10.4-1.7 14-2.8 10-3.1 10.7-2.9 12 2zm-45.7 5c-.4.7-.8 5.3-.9 10.3-.1 8.9-.7 13.1-2.4 17-.5 1.1-1.4 3.8-1.9 6-.9 3.5-5.7 9.5-7.6 9.5-.3 0-1.9 1-3.5 2.1-2.2 1.7-3.6 2-6.4 1.5-2-.4-3.6-1.1-3.6-1.7s-.4-.8-.9-.5-1.4-.1-2.1-.9-1.7-1.5-2.2-1.5-3.1-1.5-5.9-3.2c-4.4-3-4.9-3.6-4.9-7.1 0-2.1.9-5.5 2-7.7s2-4.5 2-5.1c0-2.2 6.4-9.6 9.5-10.9 1.6-.7 4.4-1.8 6-2.5 1.7-.7 5.7-2 9-3 3.3-.9 6.9-2 8-2.5 3.2-1.4 6.8-1.2 5.8.2zM363 526.8c1.9 2.6 5.6 6.8 8.2 9.5 2.6 2.6 4.8 5.2 4.8 5.7 0 .6.5 1 1.1 1 .7 0 .9 3.5.4 11.6-.8 15.1-2.6 18.8-12.2 26-7.5 5.6-15.2 9.4-18.9 9.4-1.2 0-2.6.4-2.9 1-.3.5-2.1 1-4 1h-3.3l.2-8c0-4.5-.4-9-1-10.2-1.9-3.6.3-23.7 3.2-28.3.7-1.1 1.7-3.9 2.3-6.2.7-2.5 2.2-5 3.9-6.3 1.5-1.1 4.8-4.1 7.3-6.5 2.6-2.5 5.3-4.5 6-4.5.8 0 3 2.2 4.9 4.8zm-54.6 14.6c7.2 7.5 12.9 15.3 12.1 16.6-.3.5-.1 1.1.4 1.5.6.3 1.1 3.6 1.1 7.3l.3 14.2.2 7.5-4.9-.2c-7.2-.2-8.9-.9-10.9-4.3-1.5-2.5-2.4-3-5.7-3-2.1 0-4.1.4-4.4.8-.3.5-1.9.7-3.5.4-2.3-.3-3.1-1-3.5-3.1-.8-4.1-.9-12.3-.2-15.1.4-1.4 1-5.4 1.5-9 .9-6.7 3.8-15.6 5.7-17.6.6-.7 1.9-1.4 3-1.7 1-.2 2.1-.5 2.3-.6.2 0 3.1 2.8 6.5 6.3zM271 562.2c2.5 3.4 3 5 2.6 7.5-.3 2.3-.1 3.3.8 3.3s1.4 1.4 1.4 4.2c.2 6.3-.5 7.5-4.2 8.2-1.9.4-4.5 1.5-5.7 2.5-1.3 1-4.3 2-6.6 2.3s-5.5 1.3-7.2 2.1-4.8 1.8-7 2.2c-3.8.6-3.9.5-3.4-1.7.3-1.3.9-2.8 1.3-3.3 1.2-1.7 2.1-9.5 1.1-9.5-.5 0-1-.8-1-1.8-.1-.9-.3-3.3-.7-5.3-.6-3.5-.4-3.8 5.3-8.2 4.3-3.3 7.3-4.7 11.3-5.5 8.5-1.5 8.6-1.5 12 3zm-90.6-2.2c1.4.5 2.6 1.6 2.6 2.5 0 .8.7 1.5 1.4 1.5 1.6 0 6.6 6 6.6 7.9 0 .6.7 2.2 1.5 3.5 1.2 1.7 1.6 5.5 1.6 15.6 0 7.4-.4 13.7-.9 14.2-1.6 1.6-19.4-.4-20-2.2-.2-.6-1-1-1.7-1-2.4 0-6.9-2.9-10.3-6.7-3.3-3.6-3.4-3.7-1.4-4.6 1.7-.8 2.2-2.2 2.7-8.3.5-5.2.4-7.8-.4-8.8-.7-.8-1.1-3.3-.9-5.6.3-3.9.6-4.4 4.3-5.8 2.2-.9 4.2-1.9 4.3-2.4.5-1.1 7.5-1 10.6.2zm44.4 1.6c3.5 1.7 4.8 4.9 3.8 9-.4 1.5-.9 7.2-1.2 12.8-.6 12.2-1.1 17.6-1.7 18.3-.4.4-9.4 1.8-16 2.6-1.6.2-1.9-.9-2.3-9.6l-.5-10.5c-.1-.4-.1-4 0-8.1.1-7.1.2-7.5 3.8-10.8 5.8-5.5 8.9-6.3 14.1-3.7z"/><path d="M214.076 645.917c-10.145-.411-19.437-1.155-20.65-1.653s-2.565-.682-3.005-.41-1.846.08-3.124-.428-3.43-1.219-4.782-1.581-5.042-1.614-8.198-2.783-8.619-2.647-12.139-3.286c-4.113-.746-9.153-2.5-14.103-4.908-4.236-2.061-8.103-3.747-8.593-3.747-2.239 0-14.126-10.202-16.708-14.341-.846-1.356-1.808-2.649-2.138-2.875s-1.37-2.162-2.31-4.304-2.062-3.894-2.493-3.894c-1.136 0-4.032-5.894-4.697-9.56-.314-1.73-1.407-4.622-2.429-6.425-2.358-4.161-7.319-21.403-9.082-31.561-2.795-16.111-.896-51.622 3.463-64.762 1.122-3.382 2.533-7.07 3.135-8.198s1.356-3.271 1.675-4.763c.444-2.074 1.287-3.034 3.579-4.072 1.649-.747 5.949-3.094 9.556-5.214s8.171-4.496 10.142-5.279c3.328-1.322 3.639-1.326 4.345-.065.963 1.721 5.444 1.787 9.389.139 2.899-1.211 2.917-1.25 2.638-5.678-.278-4.402-.238-4.49 3.122-6.925 1.872-1.356 4.881-2.864 6.688-3.351 1.989-.535 4.272-2.009 5.787-3.735 2.157-2.457 2.479-3.416 2.329-6.956-.154-3.66-.373-4.106-2.018-4.106-2.375 0-2.349-1.129.217-9.544 2.38-7.803 3.571-9.311 7.352-9.311 2.554 0 2.776-.22 3.29-3.261.824-4.879-.155-8.043-2.934-9.48-2.787-1.441-2.983-3.05-1.095-8.982l2.355-7.378c.799-2.494 1.419-3.214 2.594-3.007 6.577 1.157 6.598 1.155 8.392-1.126 2.251-2.862 2.306-5.294.119-5.294-1.173 0-1.64-.547-1.64-1.922 0-1.057-.752-2.603-1.67-3.434-1.45-1.312-1.504-1.605-.41-2.217.811-.454 1.261-1.89 1.261-4.025 0-2.659-.508-3.794-2.555-5.706-5.31-4.96-8.752-3.908-12.174 3.719-2.43 5.417-3.419 6.208-7.755 6.208-3.009 0-5.388 2.084-5.388 4.719 0 1.772 3.031 4.669 5.806 5.55 1.954.62 1.998 2.659.252 11.865-1.481 7.81-3.223 10.205-8.085 11.117-3.202.601-6.99 3.934-6.99 6.152 0 2.625 2.323 4.046 6.617 4.046 2.222 0 4.04.346 4.04.768 0 2.138-3.323 14.283-4.196 15.335-.815.982-2.345 1.109-8.037.664-6.45-.504-7.157-.409-8.563 1.146-1.944 2.151-1.428 4.343 2.343 9.947 3.389 5.037 3.452 5.405 1.033 6.053-3.242.869-4.972.56-6.874-1.227-2.173-2.041-7.585-2.493-9.621-.804-2.026 1.682-1.623 4.662.901 6.647l2.237 1.759-2.032 1.561c-1.117.859-2.972 1.569-4.122 1.579s-2.521.449-3.047.975c-.729.729-1.082.631-1.483-.415-.33-.86 2.69-8.178 8.091-19.607 4.739-10.029 9.923-22.292 11.52-27.252s4.642-13.813 6.767-19.674l3.864-10.657.584-15.576c.321-8.567.864-17.143 1.206-19.06.535-2.999.423-3.484-.801-3.484-1.048 0-1.256-.378-.793-1.435.346-.789.561-2.91.478-4.714-.231-5.015-5.544-25.764-7.012-27.386-.714-.789-1.298-1.981-1.298-2.648s-.542-1.929-1.204-2.805-1.215-2.372-1.23-3.326c-.023-1.53-4.378-11.673-9.109-21.219-1.771-3.573-4.448-12.952-5.733-20.084-.447-2.48-1.578-6.722-2.515-9.427-1.453-4.198-1.798-7.897-2.35-25.262-.356-11.189-.83-20.525-1.053-20.749s.104-2.32.727-4.66 1.137-5.281 1.142-6.535c.027-6.435 16.182-40.513 24.567-51.824 3.008-4.058 6.264-8.694 7.235-10.302 2.714-4.494 19.517-19.654 34.198-30.854 12.049-9.192 23.091-14.032 40.009-17.536 7.425-1.538 10.186-1.683 24.752-1.298 17.629.466 23.236 1.432 29.453 5.075 1.915 1.122 4.214 2.041 5.109 2.041 1.75 0 14.704 6.182 18.686 8.918 2.247 1.544 2.438 2.08 2.652 7.44.21 5.27.089 5.776-1.378 5.776-2.022 0-4.318 3.403-3.964 5.876.197 1.373 1.252 2.233 3.957 3.226 3.186 1.169 3.724 1.706 3.947 3.935.159 1.592-.418 3.677-1.508 5.44-1.751 2.833-4.899 5.258-4.899 3.774 0-1.618-2.762-1.703-5.258-.16-1.438.888-3.993 3.106-5.679 4.928s-3.618 3.313-4.295 3.313-2.657.729-4.403 1.619-4.59 1.965-6.321 2.388c-6.534 1.597-11.605 4.094-19.882 9.791-8.366 5.758-8.64 5.876-13.685 5.876-4.316 0-5.344.281-6.366 1.739-.864 1.234-1.004 2.302-.481 3.678.603 1.585.338 2.31-1.449 3.967-3.262 3.024-6.619 4.229-8.505 3.051-2.493-1.557-3.941-1.12-5.664 1.706-2.106 3.453-2.126 7.553-.045 9.01 1.117.782 1.363 1.462.832 2.301-.414.655-.759 3.652-.766 6.661-.011 4.745.278 5.816 2.18 8.076 1.206 1.433 2.25 3.382 2.32 4.33.098 1.327.998 1.946 3.911 2.689 4.96 1.265 6.757.093 7.506-4.897.579-3.861 1.466-4.602 5.506-4.602 4.133 0 5.617-1.302 5.617-4.926 0-2.678-.385-3.44-2.254-4.461-2.894-1.581-6.763-5.059-6.763-6.08 0-.435 1.47-1.955 3.267-3.378 3.797-3.008 5.55-2.826 9.574.993 3.507 3.328 9.132 4.077 11.656 1.552 2.358-2.358 2.184-3.576-.758-5.314-1.553-.918-2.673-2.375-2.972-3.866-.263-1.316-.87-2.393-1.349-2.393-2.024 0 4.357-5.216 9.574-7.826 6.823-3.413 8.717-3.599 8.717-.855 0 1.891.307 2.001 7.109 2.568 8.539.711 10.981.03 11.879-3.314.879-3.272.153-5.26-2.253-6.175-3.033-1.153-2.39-2.106 2.325-3.444 4.056-1.151 4.391-1.13 5.815.353 1.154 1.202 2.123 1.443 4.099 1.021 1.423-.305 2.615-.603 2.648-.663 1.295-2.327 2.808-6.503 2.808-7.75 0-.91 1.824-3.792 4.053-6.404 4.443-5.206 9.043-16.087 9.088-21.494.02-2.429.182-2.721.861-1.556.46.789 1.174 1.435 1.587 1.435.978 0 5.624 4.851 7.984 8.336 6.238 9.211 9.217 14.183 9.217 15.382 0 .752.346 1.717.769 2.146s2.813 4.393 5.311 8.81c3.977 7.033 4.417 8.243 3.534 9.739-.803 1.361-.796 1.785.032 2.084 1.871.677 3.541 2.843 4.014 5.205.255 1.275 1.159 2.948 2.009 3.717s1.545 1.85 1.545 2.401.517 1.431 1.149 1.956 1.395 1.953 1.695 3.175 2.039 5.725 3.865 10.009 3.795 9.448 4.377 11.477 2.585 7.562 4.452 12.297c5.673 14.389 13.467 38.454 14.336 44.267.303 2.029.844 4.427 1.202 5.328 2.508 6.32 2.944 9.012 6.638 40.988.885 7.665 1.983 15.781 2.44 18.035s1.376 8.71 2.043 14.346 2.002 13.198 2.966 16.805 2.014 8.034 2.334 9.837a60.11 60.11 0 0 0 1.479 6.148c1.271 4.056 4.482 19.23 5.204 24.593.334 2.48 1.402 8.013 2.373 12.297s2.26 12.03 2.863 17.215l2.789 22.544c.93 7.214 2.083 17.727 2.561 23.363s1.396 13.014 2.04 16.395 1.185 7.273 1.203 8.649.364 2.851.768 3.279.944 2.254 1.198 4.058a308.27 308.27 0 0 0 1.243 7.788c4.484 25.875 5.139 31.117 4.868 38.961-.278 8.025-.388 8.434-4.67 17.215-2.412 4.947-5.265 10.169-6.339 11.605-2.032 2.715-2.562 5.178-1.113 5.178.462 0 1.225 1.013 1.696 2.25 1.06 2.787-.246 5.801-5.43 12.539-7.164 9.31-16.083 15.801-32.494 23.648-14.63 6.996-19.02 8.761-27.734 11.151-4.283 1.175-12.952 3.772-19.265 5.772-21.433 6.79-23.114 7.116-56.844 11.009-25.181 2.906-40.256 3.464-65.711 2.432zm-3.414-32.304c5.054-.667 11.355-1.773 14.002-2.459s5.811-1.247 7.028-1.247 3.194-.543 4.39-1.206c3.558-1.972 16.963-6.841 25.007-9.082 12.35-3.441 13.109-3.608 16.459-3.629 1.771-.011 4.428-.456 5.904-.99 2.289-.828 3.121-.737 5.662.615 1.639.872 3.329 2.231 3.757 3.02.559 1.031 1.793 1.435 4.384 1.435 3.324 0 3.626.176 3.865 2.254.363 3.154 3.69 3.466 7.026.658 2.965-2.495 4.603-2.589 9.803-.565 5.509 2.144 12.611 2.737 20.635 1.722 19.041-2.408 36.681-13.407 45.665-28.473 3.117-5.227 4.715-15.359 4.102-26.012-.706-12.276-.92-12.948-5.546-17.407-6.585-6.347-9.847-10.763-10.644-14.413-1.017-4.655-3.008-8.755-4.538-9.342-1.813-.696-5.154-8.322-5.163-11.787-.013-4.95-2.979-14.897-5.788-19.416-1.464-2.356-2.92-4.283-3.234-4.283-.609 0-2.082-1.12-8.61-6.546-7.112-5.911-16.675-11.507-21.098-12.346-2.271-.431-9.238-.783-15.483-.783h-11.354l-11.283 4.801c-6.206 2.641-12.39 5.053-13.742 5.361s-5.779 1.771-9.837 3.252l-20.494 7.244c-2.705.891-9.53 3.284-15.166 5.319-11.431 4.126-24.817 7.496-40.169 10.112-20.695 3.526-30.733 6.733-39.69 12.679-6.526 4.332-9.552 8.275-12.281 16.002-1.307 3.7-3.797 8.855-5.533 11.456-2.409 3.608-3.158 5.543-3.158 8.164 0 1.889-.372 4.13-.827 4.98-.865 1.617-.591 3.238 2.71 15.971 1.807 6.972 5.613 16.307 7.505 18.407.628.697 1.417 2.374 1.754 3.726.999 4.012 4.392 10.167 6.113 11.088.88.471 1.6 1.381 1.6 2.023s1.405 2.565 3.123 4.275c3.128 3.114 12.572 10.077 13.666 10.077.32 0 1.683.784 3.029 1.742 5.75 4.095 29.032 5.901 46.448 3.604zm37.434-214.296c7.456-3.506 14.653-9.365 18.402-14.978 1.827-2.736 3.322-5.506 3.322-6.156s.689-2.729 1.532-4.62c.92-2.066 1.727-6.358 2.019-10.75.268-4.021.865-7.544 1.327-7.83.566-.35.574-1.438.024-3.346-.449-1.555-1.048-5.963-1.331-9.795s-.866-7.413-1.294-7.957-.519-1.409-.202-1.923.203-1.729-.255-2.7-1.28-3.98-1.827-6.685-1.273-5.288-1.613-5.738-.825-2.939-1.079-5.528c-.279-2.848-1.568-7.058-3.262-10.657-1.54-3.272-3.256-8.162-3.813-10.867s-1.509-6.025-2.116-7.378-1.522-3.825-2.035-5.493-1.798-4.31-2.857-5.87-2.055-3.512-2.214-4.338c-.653-3.391-8.105-4.418-10.563-1.457-1.84 2.217-.479 8.894 2.78 13.64 1.639 2.386 3.903 6.701 5.031 9.589s2.61 6.102 3.292 7.144 1.241 2.413 1.241 3.048.773 2.902 1.718 5.038 2.989 9.653 4.543 16.705c3.24 14.705 4.542 32.939 2.893 40.526-.51 2.346-1.339 6.959-1.843 10.251-.86 5.623-1.168 6.238-5.089 10.159-7.452 7.452-11.612 8.577-29.977 8.104-4.669-.12-8.781.093-9.136.473s-.903 1.908-1.216 3.394c-.503 2.387-.227 3.027 2.371 5.476 3.725 3.513 4.564 3.676 16.471 3.215 8.623-.334 10.445-.667 14.756-2.695zm84.596-108.374c5.146-2.477 10.279-6.871 14.472-12.387 1.924-2.532 2.343-3.96 2.531-8.646.124-3.087.648-6.402 1.164-7.366 1.341-2.505 2.64-16.448 2.099-22.527-.498-5.594-2.485-12.123-3.69-12.123-.414 0-.752-.682-.752-1.516 0-5.512-11.392-14.243-21.467-16.453l-7.442-1.65c-2.148-.481-6.986-.875-10.751-.875-5.604 0-7.224.297-8.93 1.64-1.146.902-2.431 1.64-2.855 1.64s-2.789 2.121-5.256 4.714c-4.893 5.143-10.038 13.417-14.055 22.604-2.429 5.556-2.573 6.453-2.583 16.13-.01 9.509.145 10.542 2.156 14.346 2.676 5.062 10.336 13.603 14.432 16.092 1.68 1.021 3.24 2.106 3.465 2.411.997 1.349 12.267 5.966 15.985 6.549 7.35 1.152 15.837.132 21.474-2.582zm-144.276-.209c1.351-.698 3.165-1.084 4.031-.858 2.704.707 6.94-3.034 14.033-12.392 11.698-15.435 12.105-16.219 12.105-23.339 0-5.211-.559-7.734-3.607-16.271-2.742-7.682-4.113-10.433-5.72-11.477-1.162-.755-4.617-4.003-7.676-7.218-6.026-6.332-12.121-9.862-21.922-12.696-14.246-4.119-21.542-2.524-30.345 6.637-3.85 4.006-6.018 7.155-7.813 11.347-2.422 5.656-2.469 6.016-1.868 14.247 1.074 14.699 2.871 21.479 8.864 33.447.79 1.578 1.874 4.16 2.407 5.738.567 1.676 2.463 4.062 4.559 5.738 1.974 1.578 3.611 3.251 3.638 3.717.071 1.207 4.838 3.871 8.236 4.601 4.665 1.003 18.305.212 21.078-1.222zm-14.241-10.47c-5.513-.993-8.277-2.915-12.539-8.719-3.831-5.217-8.648-16.694-8.422-20.065.052-.78-.25-1.632-.672-1.893-1.19-.735-.883-12.493.477-18.259 2.229-9.454 9.39-16.292 17.264-16.487 2.651-.066 12.528 3.082 14.411 4.593.605.485 1.904 1.129 2.887 1.43 2.698.826 15.146 14.323 17.478 18.95 1.127 2.237 2.395 4.315 2.816 4.619.454.327.329 1.08-.305 1.844-.854 1.029-.866 1.541-.059 2.513 1.419 1.71.461 5.947-2.333 10.316-3.085 4.825-9.843 12.236-11.157 12.236-.577 0-3.357 1.844-6.177 4.099l-5.233 4.099c-.058 0-1.21.301-2.56.67s-3.994.392-5.875.053zm9.42-20.88c1.21-.631 2.729-1.15 3.376-1.152 1.627-.007 4.971-3.287 4.971-4.876 0-.718-.903-2.636-2.007-4.26s-2.239-3.879-2.523-5.009c-.433-1.725-1.25-2.202-5.097-2.975-8.8-1.767-10.255-1.43-14.59 3.384-6.358 7.061-6.54 7.483-4.442 10.32 2.779 3.759 11.064 6.972 15.804 6.128 1.27-.226 3.299-.928 4.509-1.559zm125.437 20.94c-3.006-.858-6.879-2.509-8.608-3.669-4.483-3.008-10.217-9.435-12.367-13.86-4.542-9.348-.205-25.918 9.624-36.775 4.928-5.443 9.262-7.962 13.702-7.962 4.493 0 15.82 1.89 15.82 2.64 0 .351.693.639 1.539.639 4.568 0 10.757 5.304 10.757 9.219 0 .681.523 1.672 1.163 2.203 1.695 1.407 3.218 11.823 2.675 18.297-.553 6.599-3.231 12.155-6.304 13.079a325.11 325.11 0 0 1-6.659 1.857c-5.571 1.499-8.412 3.559-7.649 5.547.774 2.018 5.744 4.879 7.942 4.573 3.236-.451 2.117 2.072-1.794 4.044-4.604 2.322-12.075 2.385-19.842.168zm9.235-23.038c5.209-1.561 6.89-4.048 6.872-10.169-.009-3.155-.434-5.652-1.069-6.285-1.314-1.31-9.767-1.252-12.264.084-2.586 1.384-4.546 5.646-4.621 10.05-.113 6.576 3.449 8.607 11.082 6.319zm18.191 327.413c-.675-27.961-.606-29.952 1.233-35.175 4.931-14.01 4.694-13.622 12.675-20.738l7.545-6.727 2.886 3.194c2.769 3.064 13.834 15.822 15.733 18.139 1.152 1.406.439 17.64-1.031 23.477-.819 3.25-2.064 5.132-6.014 9.087-5.529 5.536-16.484 12.383-20.945 13.09a27.36 27.36 0 0 0-5.583 1.642c-1.48.651-3.51 1.184-4.509 1.184-1.724 0-1.825-.366-1.99-7.173zm-17.452-62.851c-1.127-.689-3.226-1.811-4.665-2.494-3.281-1.558-6.084-5.21-10.237-13.336-1.79-3.503-3.858-7.037-4.595-7.852-1.768-1.957-4.249-10.025-4.265-13.863-.007-1.677-.774-4.51-1.705-6.296-1.066-2.046-1.597-4.379-1.435-6.307.253-3.003.366-3.097 5.996-5.001 7.972-2.696 13.559-3.113 20.885-1.561 10.96 2.323 17.484 6.585 26.687 17.432 6.28 7.403 6.436 8.609 1.658 12.842-3.087 2.734-3.943 4.078-4.29 6.73-.318 2.435-.084 3.602.882 4.404 3.608 2.994-.814 10.49-8.249 13.985-4.968 2.335-13.853 3.038-16.669 1.318zm-9.05 64.727c-1.145-.623-2.587-2.078-3.206-3.234-1.384-2.586-5.339-3.489-9.402-2.148-3.653 1.206-6.086.467-7.081-2.151-2.615-6.877 1.888-34.682 6.583-40.651 3.066-3.898 4.341-3.473 11.288 3.765 7.203 7.504 11.688 13.599 11.688 15.884 0 .843.323 1.883.717 2.312s.926 6.773 1.181 14.1l.464 13.321-5.075-.033c-2.791-.018-6.012-.542-7.156-1.165zm-42.141-58.421c-2.695-.686-7.504-4.069-9.564-6.727l-4.672-5.937c-3.601-4.524-4.897-7.152-5.95-12.058-.482-2.247-1.404-4.524-2.05-5.06s-1.175-1.943-1.176-3.128-.748-3.375-1.657-4.868-1.458-3.031-1.219-3.419c.42-.68 15.708-5.866 29.726-10.084l6.763-2.035.018 4.617c.013 3.316.47 5.194 1.621 6.667.882 1.127 1.611 2.64 1.621 3.362s.875 2.935 1.922 4.919 3.673 7.582 5.834 12.441l3.931 8.835-2.181 3.147c-4.712 6.8-10.148 9.97-16.853 9.829-2.486-.052-5.239-.278-6.116-.501zm-25.867 65.317c0-.473.505-1.857 1.123-3.074 1.514-2.983 2.447-9.725 1.433-10.352-1.12-.692-2.059-9.056-1.191-10.607 1.346-2.405 9.64-7.937 13.715-9.147 2.24-.665 5.634-1.209 7.542-1.209 3.126 0 3.719.34 5.999 3.441 1.875 2.55 2.53 4.328 2.53 6.868 0 2.046.495 3.838 1.23 4.448 1.34 1.112 1.676 7.044.503 8.895-.745 1.175-7.891 4.434-14.029 6.398-17.971 5.75-18.855 5.953-18.855 4.341zm-31.719-62.644c-1.635-.711-3.253-2.385-4.312-4.46-.932-1.827-2.706-3.845-3.943-4.484-4.453-2.303-4.903-3.484-5.28-13.854-.398-10.95-1.155-9.864 7.544-10.833 2.48-.276 8.241-1.463 12.803-2.638s8.834-1.929 9.494-1.675c1.583.607 5.575 15.526 5.575 20.835 0 4.782-3.095 10.188-8.059 14.079-5.816 4.558-8.805 5.213-13.823 3.031zm-1.571 72.377c-.351-.567-.796-8.277-.991-17.133l-.353-16.102 2.93-3.243c4.083-4.519 7.774-6.371 11.358-5.699 3.391.636 6.566 3.71 6.601 6.392.033 2.547-1.749 26.423-2.292 30.711l-.43 3.389-6.727.988c-3.7.543-7.342 1.154-8.093 1.358s-1.652-.094-2.003-.661zm-30.41.992c-2.395-.569-5.941-1.999-10.621-4.281-.974-.475-3.319-2.44-5.21-4.367l-3.438-3.503 1.649-1.649c2.101-2.101 3.334-13.042 1.913-16.972-2.185-6.044-1.18-8.708 4.299-11.389 4.475-2.19 5.765-2.479 10.104-2.264 3.668.181 11.19 7.302 13.993 13.246 1.907 4.043 2.161 5.719 2.463 16.234.468 16.28.689 15.756-6.597 15.653-3.26-.046-7.11-.365-8.554-.709zm-20.736-58.566l-7.212-3.773c-1.938-.998-4.839-3.057-6.448-4.574-2.666-2.514-2.873-3.031-2.346-5.84 1.026-5.469 5.401-14.68 8.49-17.877 1.654-1.712 5.037-4.045 7.517-5.186 5.882-2.705 24.047-8.329 24.655-7.633 1.101 1.259-.825 22.009-2.561 27.592-3.215 10.341-5.076 12.903-12.402 17.079-4.668 2.66-5.06 2.669-9.691.211z" fill="#fff"/></svg>