<svg xmlns="http://www.w3.org/2000/svg" width="614.667" height="1174.667" viewBox="0 0 461 881" preserveAspectRatio="xMidYMid meet"  xmlns:v="https://vecta.io/nano"><path d="M211.7 81.6c-.1.1-2.9.5-6.1.8-10.8 1.1-16.1 1.9-17.1 2.6-.5.3-2.3.7-3.9.8-3.1.2-13.7 4.8-14.7 6.4-.3.5-1 .9-1.5.9-1.5-.1-4.4 1-4.4 1.7 0 .4-1.7 1.6-3.7 2.7-2.1 1.1-5.5 3.8-7.7 6-12.8 13.4-15.5 16.4-18.4 20.1-1.8 2.3-3.2 4.5-3.2 4.8 0 .4-1.2 1.9-2.6 3.4s-3.7 4.7-5.1 7.2-3.3 5.6-4.1 7c-.9 1.4-1.7 3.2-1.7 4.1-.1 1-.8 2.4-1.7 3.2-.8.9-2.5 4.4-3.7 7.9l-3.1 8.3c-1.9 5.1-3 9.4-3 11.8 0 1.5-.4 2.7-.8 2.7-.5 0-1.4 1.7-2 3.7l-2.6 9c-.9 2.8-1.6 5.8-1.6 6.5 0 1.1-3 11.7-4.8 16.8-.3.8-.4 2.3-.3 3.4.2 1-.1 1.6-.6 1.3s-.7 1.2-.5 3.4c.2 2.1 0 3.9-.5 3.9s-1 .6-1 1.2c0 .7-.5 4.2-1.1 7.8-.7 3.6-1.2 7.6-1.2 9s-.2 5-.4 8c-.8 11.5-.9 15.7-.2 16.8.4.7.5 1.6.2 2.1-.9 1.4 1.3 18.5 3.4 27.1 2.3 9.8 3 13.1 3 15.1 0 1.9 5 18 7 22.4.5 1.1 1.2 3.1 1.5 4.5.4 1.4 1.8 5 3.2 8l4.1 9c.8 1.9 1.9 4.3 2.3 5.2.5 1 .9 2.4.9 3.2 0 .7.7 1.9 1.5 2.6.9.7 1.3 1.5 1 1.8-.2.3 1.4 4.1 3.7 8.6 6 11.8 6.4 12.6 8.3 18.6 1 3 3.1 7.4 4.6 9.7 1.6 2.3 2.9 4.8 2.9 5.5 0 .8.4 1.8 1 2.4.5.5 1.2 2.7 1.6 4.9.3 2.2 1 4.8 1.5 5.7.5 1 .7 1.8.4 1.8-.4 0 .3 1.3 1.4 2.9 1.1 1.5 1.9 3 1.6 3.2-.2.2.7 4.5 2.1 9.4l2.8 10.7c.3.9 1 2.6 1.6 3.8.8 1.6.9 2.5.1 3.3-.7.7-.6 1.6.2 3.1s1.1 9.8 1.1 28.1c-.1 23.9-.4 29.4-1.9 38-.2 1.6-.5 5.8-.6 9.2-.1 3.5-.5 6.3-.8 6.3-1 0-3.2 10.7-3.6 17.7-.2 3.5-.7 6.8-1.1 7.5-.9 1.3-2.3 7.8-2.9 12.7-.2 1.9-.8 4.4-1.4 5.5-.5 1.2-1.2 3.8-1.6 5.8-.3 2.1-1 3.8-1.5 3.8-.6 0-1 1.3-1 2.8 0 1.6-.9 4.7-2 7-1.1 2.2-2 4.8-2 5.6s-.5 1.8-1 2.1-1 2.1-1 3.9-.3 3.6-.7 4c-1 1-3.4 7.7-3.9 11.1-.2 1.6-.9 3.1-1.4 3.3-.6.2-1 2-1 4.1 0 2-.4 4.1-.9 4.6-.8.9-2.8 10.9-3.6 18a16.42 16.42 0 0 1-.8 3.5c-1.1 2.8-3.2 31-2.5 33 .4 1.1.9 4.6 1.2 7.7l.9 8.9c.4 3.3 8.9 17.8 13.4 22.8 1.6 1.7 5.6 6.5 9 10.6 9.5 11.7 34.7 36.6 40 39.6 2.7 1.5 5.5 3.3 6.3 3.9.8.7 5.3 2.2 10 3.5s8.9 2.7 9.5 3.2c.5.4 2 .8 3.4.8 2.4 0 7.4 1.3 11.6 3.1 2.3 1 43.2 1.3 48.5.5 1.9-.4 5.5-.9 8-1.2s5.2-1.2 6-1.8c2.2-1.9 6.9-3.4 12.5-4.1 2.8-.4 5.5-1.1 6.2-1.7.7-.5 2.1-.7 3.3-.3 1.3.4 2.2.1 2.6-.9.3-.9 1.4-1.6 2.4-1.6s2-.7 2.4-1.5c.3-.8 1.2-1.5 2.1-1.5.8 0 1.5-.5 1.5-1 0-.6.7-1 1.5-1 1.8 0 8.8-4.3 12.4-7.6 1.4-1.3 3.1-2.4 3.8-2.4s1.3-.7 1.3-1.5c0-.9.7-1.8 1.5-2.1.8-.4 1.5-1.2 1.5-1.9s.6-1.8 1.3-2.4c1.3-1 3.2-4.6 7.6-14.1.9-1.9 2-3.8 2.5-4.1.5-.4.5-1.2.2-1.8-.4-.6-.1-1.7.6-2.4.7-.8 2.4-4.7 3.6-8.8l3.2-10.5c.6-1.7 1-4 1-5.2 0-1.1.5-2.4 1-2.7.6-.4.8-1 .5-1.5s0-2.8.6-5.2c2.4-9.8 4.1-23.1 4.4-35.3.2-7.1.9-14.8 1.5-17 .9-3.6 1.5-13.2 2-34 .2-5.5-.8-40.4-1.2-43.4 0-.3.1-.8.2-1.1s.3-2 .4-3.7c.1-1.8 1.3-4.4 2.5-5.7 1.6-1.7 2-3 1.5-5-.4-1.9-.2-2.7 1-3.2.9-.3 1.4-1 1.1-1.4-.3-.5.9-1.1 2.6-1.5 3.7-.8 4.7-3 2.5-5.4-.9-1-1.6-2.2-1.6-2.8 0-.5-.9-1.8-2-2.8-1.2-1.1-1.8-2.5-1.4-3.4.3-.9.6-3.9.6-6.6 0-2.8.4-5.7.9-6.6s.4-6.3-.2-12l-1.4-14.9c-.6-10.5-2.4-17.9-5.3-22.2-1.6-2.4-3.3-5.4-3.7-6.8s-1.4-3.6-2.3-5-1.9-4.8-2.3-7.6c-.4-2.9-1.4-6.7-2.2-8.5-2.6-5.9-4-22.5-4-48.9-.1-26.5.3-31.6 2.6-37.3 1.6-3.6 3.1-12.5 2.9-16.9-.1-1.5.3-3 .8-3.3.6-.4 1-2.4 1-4.5s.5-4.2 1.1-4.6c.8-.5 1-2.9.6-7.5-.3-3.8-.2-6.9.3-6.9.7 0 1.1-2.6 2.5-19 .3-3 .7-6.9 1-8.5 1.2-7.5 1.7-14.1 2-29.6.3-13.4-.1-20-2.1-35-4-29.8-6.8-46-8.6-49.3-.7-1.1-1.1-2.5-1-3 .2-.4-.1-1.3-.6-2-.5-.6-1.2-2.6-1.6-4.5-.3-1.9-1.2-4.1-1.8-4.9-.7-.7-1.3-2.4-1.5-3.5-.4-2.4-5-12.3-6.9-14.7-.6-.8-1.7-3.2-2.3-5.2-.7-2.1-1.8-4.1-2.6-4.5-.7-.5-2.9-3.6-4.9-7s-5.1-8.1-6.9-10.5c-1.7-2.4-3.8-5.5-4.6-6.9-1.9-3.7-17.1-19.2-22-22.4-2.3-1.5-4.1-3.1-4.1-3.5s-1.5-1.5-3.2-2.4c-1.8-.9-5.3-2.8-7.7-4.2-2.5-1.3-6.7-3.1-9.5-3.9-2.7-.8-6.8-2.4-9.1-3.5-9.7-4.7-18.3-6-37.1-5.8l-17.7.4zm39.4 13.8c22.4 6.2 36.9 12.6 46.4 20.5l7.5 5.9c2.9 2.3 3.9 4.2 2.1 4.2-.4 0-2-1-3.4-2.3-5.8-4.9-8.4-6.4-12.2-7.1-2.2-.4-5-1.7-6.2-2.8-1.1-1.1-3.8-2.5-5.8-3.3-3.4-1.1-4-1-5.6.6-1.1 1.1-1.9 2.3-1.9 2.9 0 1.5-4.6 2.3-8.5 1.6-3-.6-3.8-1.4-5.1-4.7-.9-2.1-2.9-4.8-4.5-5.9-2.4-1.8-3.1-1.9-4.9-.8-2.4 1.5-2.5 2.6-.5 5.4 1.4 2.1 1.3 2.1-7 2.2-5.3 0-8.7-.4-9.3-1.1-.5-.7-1.2-3.7-1.6-6.7-.3-3-.9-6.5-1.2-7.7-.5-1.9-.1-2.2 3.3-2.6 8-.8 10-.6 18.4 1.7zm-29.3.3c.5 1 1 3.8 1 6.3.1 2.5.5 6.1.8 8.1.5 3.4.4 3.7-2.7 4.3-6 1.2-7.8.8-9.4-2.4-2.6-5-8.5-6.7-10.5-3.1-.5 1.1-1 3.7-1 5.9 0 3.6-.2 3.9-2.9 4-4.7.1-8.1 2.9-8.1 6.6 0 5.7 3.8 7.1 10.4 4 4.8-2.3 8.2-1.3 9.6 3 1.1 3.4 1.3 3.5 6.1 3.4 5.2-.1 5.9-.7 3.4-2.8-.9-.7-1.3-2-1-2.7.3-.8-.2-2.1-1-2.9-2.5-2.6-1.7-3.4 3.4-3.4 4.4 0 5.2.3 7.8 3.6 2.7 3.4 3.2 3.6 6.6 3 2.8-.5 3.8-1.3 4.3-3.1.3-1.4 1.1-2.5 1.6-2.5.6 0 .8-.7.4-1.5-.3-.8.2-1.9 1.3-2.4 3.5-1.9 13.1 2.5 13.1 5.9 0 .8.5 2.8 1.2 4.5 1.1 3.1 1.3 3.2 5.7 2.7 2.5-.3 4.9-.9 5.2-1.4s1.7-.8 3-.6c2 .2 2.5-.2 2.7-2.4.4-3.5 2.4-5 5.5-4.3 2.9.8 7.7 7.1 7.7 10.2 0 2.8 2.2 4.4 7 5 3.3.5 4 .3 4-1.1 0-3.2 4.4-1.5 5.6 2.2 1.3 4.1 2.5 5.3 5.7 5.6 1.4.2 4.7 1.7 7.4 3.3 3.6 2.3 5.7 2.9 8.1 2.5 3.6-.5 7.2 1.9 7.2 4.7 0 .9 1.3 3.2 2.9 5.2 1.7 2 3.3 4.8 3.7 6.3.3 1.5 1.3 3 2 3.3.8.3 1.4 1.6 1.4 2.9s.6 3.8 1.4 5.6 2.2 5.3 3.1 7.8l2.6 6.5c1.1 2.6 2.9 9.7 3.9 15.4l5.5 32.8c1.9 17.8 2.2 26.8 1.6 40.3-.4 8.6-1 16-1.3 16.5-.3.6-.9 5.1-1.2 10.1s-1 12.5-1.6 16.5l-1.5 13.9c-.3 3.6-1.1 8.3-1.7 10.5s-1.2 4.7-1.3 5.5-.5 2.2-.8 3-1.1 4.6-1.7 8.4c-.6 3.9-1.4 7.5-1.7 8-.7 1-1.1 4.2-1.6 10.6-.1 1.9-.6 4-1 4.7-.4.6-.7 8.5-.6 17.5l-.1 18.3-.1 14.6c0 10.3.4 13.3 2 16.9 1.1 2.6 1.7 5.5 1.4 7.1-.3 1.4.2 3.9 1 5.5s1.7 5.1 2.1 7.8c.3 2.8 2.9 9.6 6.2 16.2 6 12.3 7.1 17.2 7.5 32.9.2 14 0 17.7-1.1 17-.5-.3-1 .1-1 .9 0 .9.4 1.6.9 1.6.9 0 .6 2.8-.6 6-.4.8-.5 2.2-.4 3 .4 2.1-2.1 9-3.2 9-.7 0-2.1-.8-7.5-4.6-.2-.1-.5-3.5-.7-7.5-.3-5.1-.9-7.7-2-8.5-.8-.6-1.5-1.8-1.5-2.5 0-.8-.9-3.2-2-5.4s-2-5.4-2-7.2c0-2.7-.7-3.7-4.3-6.2-5.9-4-6.7-5.2-6.9-9.7-.1-4.3-3.3-9.3-7.2-11.3-1.5-.9-2.9-3.1-4-6.3-1.8-5.7-2.1-10.2-.6-9.3 1.3.8 1.3-2.2 0-3.8-5.2-6-7.3-10.2-7.6-15-.4-7.1-2.2-16-3.5-16.7-.6-.4-.7-2.6-.1-6.2 1.3-8.6-.2-10.4-9.4-11.4-2.8-.4-4.4 0-5.3 1-.8 1-.9 1.6-.1 2.1.5.3 1 2.6 1 5.1s.7 6.1 1.5 8.1c.8 1.9 1.5 4.6 1.5 5.9 0 1.2.5 2.6 1 2.9.6.3 1 2.4 1 4.5s.5 4.2 1.1 4.6c.6.3.8 2 .5 3.8-.4 2.1-.1 3.9.9 5.1 2.8 3.7 1.9 4.4-6.2 4.7-6.1.2-7.7.6-7.9 1.9-.1.9-.5 2.6-.9 3.8-1.3 4.2 4.5 6.4 9.9 3.9 2.1-.9 2.9-.8 4.4.5 1.2 1.1 2.2 1.3 2.8.7.7-.7 1.8-.2 3.4 1.5 1.3 1.4 2 2.5 1.7 2.5-.4 0 .2 1.7 1.3 3.7 1.1 2.1 2 4.1 2 4.4s-1.8.6-4.1.6c-6.6 0-11.9 3.4-11.9 7.7 0 3.2 2.8 4.8 9.4 5.1 5.6.3 7.5-.3 5.5-1.6-1.1-.6-1-.9.4-1.5 2.6-1 4.3.1 8.1 5.3 3.5 4.7 4.5 7 2.7 5.8-1.6-.9-5.7 1.6-7.5 4.7-1.7 2.8-1.7 3 .1 4.3 1.2 1 3.2 1.2 6.2.9 8.2-1.1 12.5 3.1 15.6 15.3.5 2.2.3 2.4-1.5 1.8-1.5-.5-2.8-.1-4.1 1.4-1.2 1.3-1.5 2.1-.7 2.1.9 0 .9.3 0 1.2-2.2 2.2-1.3 4.6 2.2 5.8 6.1 2 8.4 6.7 9.3 19.5.3 4.4 1.2 9.2 1.9 10.7.8 1.5 1.1 3.4.8 4.2-.9 2.3 1.4 4.6 4.5 4.6 5.5 0 6.6 1.9 7.1 12.1.4 10.3.4 15.2-.1 27.6-.1 4.5 0 8.6.4 8.9 1.2 1.3.7 4.7-1 6.6-.9 1-1.1 1.8-.5 1.8 1.1 0 .9 3.2-.9 12.4-.5 2.6-1 10.5-1 17.5-.1 6.9-.4 13-.7 13.6-.4.5-1.3 4.6-2 9l-1.8 11.5c-.4 1.9-1 3.7-1.5 4-.4.3-1.1 2.6-1.4 5-.9 6.3-2.6 13.3-3.6 14.4-.5.6-.9 2-.9 3.3 0 2.5-3.2 8.7-6.1 11.9-1 1.1-1.9 2.8-1.9 3.7s-.3 1.7-.8 1.7c-.4 0-1.6 1.6-2.7 3.6-1.9 3.6-9.3 10.4-11.2 10.4-.5 0-2.5 1.4-4.4 3.1-3.3 3-4.8 3.8-13.6 7.5-2.4 1-4.3 2.2-4.3 2.7s-.7.6-1.6.3c-.8-.3-2.4-.1-3.5.4-1 .6-3.6 1.1-5.6 1.2-2.1 0-4.3.4-4.8.9-1.5 1.1-13 3.6-20 4.4-8.9.9-20.1.9-27.5 0-3.6-.5-6.9-.8-7.3-.7s-1.6-.2-2.5-.7c-1-.5-3.7-1.2-6.1-1.6-2.4-.3-5.3-1-6.6-1.5s-2.6-.6-2.9-.3-1.1.1-1.8-.5c-.7-.5-4-1.8-7.3-2.7-6.7-1.9-14.8-5.9-18.4-8.9-3.8-3.4-12.6-12.4-21.9-22.6l-11.9-12.3c-1.8-1.6-3.3-3.4-3.3-3.9s-1.5-2.8-3.4-4.9c-1.8-2.2-4.4-6.1-5.7-8.7s-3.2-5.6-4.1-6.7c-2.4-2.9-4.7-13-4.8-21-.1-17.9.1-21.6 1.4-25.3.8-2.3 1.2-6.4 1-10-.2-3.9 0-6.2.7-6.2.6 0 .8-.4.5-.9s.1-2.2.9-3.7c.8-1.6 1.5-3.6 1.5-4.5s.3-1.9.7-2.3c.4-.3.8-1.4.9-2.4.5-3.7 2.7-10.9 4.5-14.8 1.1-2.2 1.9-5.4 1.9-7.1s.6-3.6 1.4-4.2c.8-.7 2.2-3.8 3.1-6.9 1.8-6.2 5.1-15.5 6.7-18.9.6-1.1.7-2.6.4-3.2-.4-.6-.2-1.1.4-1.1.7 0 .9-.8.5-1.9-.3-1.1.1-4.6.9-7.8s2-9.2 2.5-13.3c1-7.1 1.9-12.3 4.1-23.5.8-4.6 1.8-15 2.5-28 .5-8.8.5-19.8 0-27l-1.1-16c-.3-5-.5-11.5-.4-14.5 0-3.4-.5-6.8-1.4-8.5s-1.6-3.7-1.6-4.5c0-.9-.5-2.1-1.2-2.8s-.9-1.2-.5-1.2.2-1-.5-2.3c-.6-1.2-1.3-2.7-1.4-3.2-.3-1.6-3.5-11.7-4.7-15-.6-1.7-1.2-3.5-1.2-4-.2-2.8-2.7-9.4-4-10.5-1.5-1.3-4.6-7.3-9-18-1.5-3.6-3.1-6.9-3.6-7.4-.5-.6-.9-1.6-.9-2.2 0-1.9-6.3-15.4-7.1-15.4-.5 0-1.1-1.7-1.5-3.8-.3-2-1.4-5.5-2.5-7.7-3.7-8.2-6.2-14-6.4-15 0-.6-.4-1.7-.7-2.5-2.4-6.3-4.3-11.7-4.4-13-.1-.8-.8-3.1-1.6-5.1-.9-1.9-1.6-4.6-1.6-6-.1-1.3-.6-4.9-1.2-7.9s-1.2-6.6-1.4-8-.4-2.7-.6-3c-.8-1.5-1.1-7.2-1.3-23.2-.1-9.7-.5-18-.9-18.4s-.2-1.4.5-2.2c.6-.8 1.3-3.4 1.4-5.6.1-2.3.7-7.3 1.3-11.1 1.5-9.9 1.5-9.9 2.2-11 .3-.6 1.4-3.9 2.3-7.5s2.3-8.4 3.1-10.6c.9-2.3 1.5-5 1.3-6-.1-1.1.5-3.6 1.5-5.6.9-2.1 1.6-4.1 1.6-4.6s.7-2.7 1.7-4.8c.9-2.2 1.7-5 1.7-6.3.1-1.4.7-2.6 1.4-2.9.7-.2 1.2-1.5 1.2-2.8s.4-3.2.9-4.2c3.1-6.3 5.1-11.5 4.5-12.3-.3-.5.6-1.9 2-3s2.6-2.7 2.6-3.5c0-2 1.9-5.2 5.7-9.4 1.7-1.9 4.5-5.3 6.1-7.5s3.6-4.6 4.6-5.4 1.4-2.1 1.1-3.2c-.4-1.1-.3-1.9.2-1.9s2.2-1.1 3.8-2.4l8.5-7c3-2.5 8.4-5.9 12-7.7l8.2-4c1-.5 2.4-.9 3.1-.9s3.1-1 5.2-2.2c3-1.6 6.5-2.3 13.5-2.8 17.8-1.2 18.9-1.2 19.8.7z"/><path d="M169.1 150.6c-3.2 1.4-9.1 6.8-9.1 8.4 0 .6-.7 1-1.6 1-.8 0-1.3.4-.9.9.3.5-.5 2.1-1.7 3.4-2.3 2.5-4.8 9.7-4.8 14 0 1.2-.7 3.5-1.6 5.2-.9 1.6-1.8 6.1-2 10-.4 7.4-1.7 17-3.6 27-.6 3.3-1.1 6.8-1.2 7.7 0 1-.4 1.8-.8 1.8s-.8 2.1-.8 4.6c0 2.9-.7 5.6-1.9 7.3-1.1 1.5-2.3 4-2.7 5.7-.4 1.6-1.3 3.8-2 4.9-.8 1.1-1.4 2.9-1.4 4.2 0 1.2-.5 2.5-1.1 2.8-.6.4-.8 1.3-.5 2.1.3.7 0 1.7-.7 2.1-.7.5-2.8 3.9-4.6 7.8-4.5 9.1-5.7 21.9-2.9 30.4 1 2.9 1.5 5.8 1.2 6.3s-.1 1.4.4 2.1c.6.7 1.3 3.4 1.7 6.2.4 2.7 1.3 6.1 1.9 7.5.7 1.4 1.8 5 2.5 8 1.4 5.9 6.2 16.8 9.3 21.2 2.3 3.3 12.1 10.9 18 13.9 2.4 1.2 7.1 2.8 10.6 3.4 13.4 2.6 22.6-1.9 31.2-15.2 1.5-2.3 3-4 3.2-3.7.3.3.9-.7 1.2-2.1.4-1.5 1.5-3.5 2.5-4.6 1.1-1.2 1.6-2.9 1.3-4.4-.2-1.4.1-3.1.7-3.8.6-.8.7-1.7.3-2.1s-.7-8.3-.7-17.4c0-15.6-.1-16.9-2.2-19.8-1.2-1.7-2-3.3-1.8-3.6.2-.2-.6-3.5-2-7.3-1.3-3.8-2.1-7.4-1.7-7.9.3-.6.7-6.7.8-13.6.3-15.4 1.4-29.1 2.4-28.5.4.2.7-2.4.8-5.8.3-14 .4-15.7 1-15.7.4 0 .7-2.1.8-4.8 0-2.6.4-9.5.7-15.4.5-8.6.3-11.2-1-13.8-.8-1.8-1.7-4.5-1.8-6.2-.1-1.6-.7-3.4-1.4-4.1-.6-.6-1.1-2-1.1-3.2 0-2.6-8-10.5-14.3-13.9-6.2-3.4-14.5-4.7-18.6-3zm10.9 12.9c7 1.6 12.4 6 14 11.4.6 2 1.5 4.5 2 5.6 1.1 2.3 3.2 17.4 2.6 18.3-.5.9-1.7 9.3-2.2 15.5-.2 2.6-.8 6.6-1.4 8.7-.6 2.2-.8 4.5-.5 5 .3.6.3 1.6-.2 2.2-.4.7-.8 2.4-.9 3.8-.1 2.7-1 11.7-1.9 19-.3 2.5-.7 11-.9 19-.4 14.3-.4 14.6 2.4 19.9 1.6 2.9 2.6 5.9 2.4 6.5s.4 3.9 1.5 7.1c3.2 10.3.9 31-4.2 36.8-1.8 2-2.6 3.9-2.3 5.1.8 3-3.1 8.4-7.6 10.7-3.4 1.7-5.4 2-11.9 1.6-8.8-.5-9.6-.9-19-9.6-6.4-5.8-6.8-6.4-9.7-15.8-1.7-5.4-3.8-12.5-4.7-15.8s-2-6.9-2.5-8c-3.5-8.2-2.5-29.7 1.6-35.2 1.4-1.8 3.1-5 3.8-7 .8-2.1 2.6-6.1 4-8.9 1.4-2.9 2.6-5.9 2.6-6.7 0-.9.4-1.8.9-2.2.5-.3 1.5-3.1 2.1-6.3.7-3.1 1.5-6.2 1.8-6.7.9-1.4 1.1-2.6 3.2-15 .6-3.9 1.5-8.9 2-11.2.6-2.3 1-6.3 1.1-9 .1-2.6.4-5.2.7-5.8.4-.5.7-2.3.7-4 .2-2.7.7-5.2 3.7-17.8.5-2.2 1.5-3.7 2.3-3.7s1.5-.6 1.5-1.4c0-.7 1.2-2.8 2.8-4.5 2.7-3.2 3.2-3.2 10.2-1.6zm-5 32c0 .9-.6 1.8-1.3 2.1-1 .4-1.3 2.3-1.1 7.2.3 5.7-1.4 17.1-3.4 22.2-.3.8-.4 1.9-.3 2.4s-.5 1.6-1.4 2.6c-.8.9-1.2 2-.9 2.3.4.4-.5 2.2-2 4.2s-2.6 4.1-2.3 4.8c.5 1.6-3.5 9-7.8 14.3-1.9 2.3-3.5 4.9-3.5 5.8 0 .8-.4 1.7-.9 2-2.2 1.4-4.3 30.4-2.3 32.4.6.7 1.2 1.6 1.3 2a26.13 26.13 0 0 0 2.4 8.5c.8 1.7 1.5 3.6 1.5 4.3 0 .6 1.6 2.6 3.6 4.4 3.2 2.7 4.2 3.1 7.3 2.5 5-.9 9.2-6.5 5.9-7.8-.7-.3-.4-.6.7-.6 1.9-.1 2.1-.8 2.3-6.4.2-5.9 0-6.5-3.3-10.4-3.7-4.3-4.6-8.7-2-9.7.8-.3 1.5-1.2 1.5-2.1 0-.8.5-1.5 1-1.5.7 0 .7-.6 0-1.9-.7-1.5-.7-2.2.3-2.8 1.4-.8 3.8-13.8 4.3-22.8.2-2.7.7-5.1 1.3-5.3s1.3-1.9 1.7-3.8c.3-1.9 1-3.4 1.5-3.4s1.4-1 1.9-2.3c.6-1.2 1.9-3.6 3-5.2 4.2-6.3 4.8-8.7 4.3-17.4-.3-4.6-1-9.6-1.6-11-.5-1.4-1.1-2.8-1.1-3.1-.1-.3-1.1-2.2-2.3-4.3-1.8-3-2.8-3.7-5.3-3.7-2 0-3 .5-3 1.5zm85.6-43c-2.5.7-5.4 1.9-6.4 2.8-1 1-2.3 1.7-2.8 1.7-1 0-6.4 5.7-6.4 6.8 0 .3-1 1.9-2.3 3.6-6.5 8.8-9.4 25.9-6.2 37.1.9 3.3 1.9 7.5 2.1 9.4s.9 3.8 1.5 4.2.9 1.1.5 1.7c-.3.6.4 3.5 1.8 6.4 1.3 2.9 2.9 7.1 3.6 9.3s1.6 4.4 2.1 5c.5.5.9 1.7.9 2.6s.6 2.2 1.4 2.8c.8.7 1.4 2 1.4 2.9-.1.9.5 3.3 1.4 5.2 3.2 7.5 4.1 10.8 4.8 18.5 1.3 12.1.2 25.9-2.5 33-.9 2.3-1.5 4.8-1.4 5.6s-.3 2.7-1 4.4c-.7 1.6-1.5 8-1.7 14.2-.3 9.5-.1 11.7 1.4 14.5 3.6 6.5 14.7 11.6 26.8 12.3 4.1.2 7.4 0 7.4-.4 0-.5 1.8-1.1 3.9-1.5 2.2-.3 5.6-1.5 7.5-2.7 2.7-1.6 4.5-1.9 7.3-1.5 7.7 1.2 11.9-1.9 13.8-10.2.3-1.8 1-3.2 1.3-3.2.4 0 .8-1 .9-2.3 0-1.2.8-4.7 1.6-7.7 1.6-6.3 1.5-28.3-.2-30.3-.5-.7-.9-2.2-.9-3.2.1-1.1-.6-3.6-1.4-5.5-.9-1.9-1.9-4.9-2.3-6.5-.4-1.7-1.8-4.5-3.1-6.2-1.4-1.8-2.4-3.9-2.3-4.5.2-1.4-.6-4.2-2.2-7-.5-1-.8-3.5-.7-5.5 0-2.1-.7-6.5-1.7-9.8-2.6-9-3.6-19.4-4.1-45-.5-23.1-.6-23.9-5.1-33.4-2.1-4.3-13.3-13.6-20.2-16.8-5.8-2.6-10.6-2.8-18.5-.8zM278 166c6.3 3.3 14.9 11.8 15.9 15.8.5 2 1.2 14.7 1.5 28.3.3 13.5 1 26.8 1.6 29.7.5 2.8 1.4 9.1 2 13.9 1.2 9.5 3.6 20.6 5.2 23.7l3.4 6.1c1.3 2.4 2.1 4.5 1.8 4.8-.3.2.4 2.1 1.5 4.1 1.2 2 1.8 3.6 1.5 3.6-.2 0 0 .9.7 2.1 1.3 2.4 1.3 23.8 0 28.4-.5 2.1-1.4 3-2.7 2.9-1.1-.1-3.9 2.1-6.9 5.5-4.8 5.4-10 9.1-13 9.1-.7 0-1.5.5-1.7 1.1s-3 1.2-6.3 1.4c-4.6.2-7.3-.3-11.5-2.2-8.7-3.8-9.3-4.8-9.1-14.3.1-4.4.8-10.2 1.6-12.8.7-2.6 1.7-7.4 2.1-10.7s1.1-7.1 1.6-8.5c.6-1.4 1.2-7.9 1.4-14.5.5-12.3-.1-16.3-3.8-26.5-4.3-11.6-5.7-15.6-7.5-21.8-.9-2.8-1.9-5.2-2.3-5.2s-1.1-1.6-1.4-3.5c-.4-1.9-1-3.5-1.5-3.5-.9 0-4.4-13-4-15.1.1-.8-.2-2.3-.7-3.4-.9-2-1.1-17.3-.3-21 .2-1.1 1-2.4 1.7-2.8.6-.4 1.2-1.5 1.2-2.3 0-.9.7-2.2 1.5-3 .8-.9 1.5-2.4 1.5-3.5 0-1 .4-1.9.8-1.9.5 0 1.9-1 3.2-2.3 2.5-2.3 12.1-4.8 15.5-4 1.1.3 3.6 1.4 5.5 2.3zm-10.8 39.3c-1.6 1.7-2.3 3.8-2.5 8.3-.2 3.2.1 6.7.6 7.8.5 1 1 3.7 1.2 6 .4 6.2 1.5 9.8 4.2 13.3 3.1 4.3 5.3 10.6 4.6 13.3-.4 1.3 0 2.5.7 3 1 .6 1.5 4.5 1.8 13.7.5 13.9 1 23.5 1.3 24.9.2.5-.3 3.4-1 6.5-1.3 6.3-.9 8.2 2.2 9.6 2.6 1 6.7.6 6.7-.8 0-.5.8-.9 1.8-.9 3.4 0 5.2-3.2 5.2-9.1 0-3 .4-6.8.9-8.5.5-1.9.5-7.8-.1-14.5-.5-6.3-.9-13.5-.8-16 .1-3-.6-6-2-8.3-1.1-2-2-4.5-2-5.6 0-1-.4-2.1-.9-2.4-1.2-.8-5.1-8.8-5.1-10.5 0-.7-1-2.6-2.1-4.3-1.9-2.6-2.1-3.9-1.6-9.5.5-5.3.3-7.2-1.4-10.4-4-8-7.8-9.8-11.7-5.6zm-37.9 159c-.5.6-1.6 2.8-2.5 4.7-1.3 2.9-1.4 3.8-.4 5 1.9 2.2 4.6 8.1 4.6 10 0 .9.3 2 .7 2.3.3.4.8 2.1 1 3.9.2 1.7.7 3.6 1.2 4.2.9 1.1 5.8 19.3 6.6 24.6.1.8 1.5 6.4 3 12.5 1.5 6 2.9 13 3.1 15.5.3 2.4.8 4.7 1.3 5s.9 4.3.9 9a263.76 263.76 0 0 0 .7 17.5c.8 10.5.8 9.4.1 17-.3 3.3-.5 7-.6 8.2 0 1.4-.6 2.3-1.6 2.3-1.2 0-1.4.5-.9 1.7 1.7 3.9 1 5.7-2.5 7.5-3.9 1.9-8.2 2.3-10.8.9-6.8-3.7-15.9-3.2-14.4.7.3.8-.3 2.1-1.2 2.8-1.4 1-1.5 1.6-.6 3.3.6 1.2 1.4 2.1 1.8 2.2.4 0 1.8.2 3.2.5 1.4.2 4.4.4 6.6.4 2.3.1 5.7.5 7.5 1 2.4.7 4.9.5 9.3-.6 3.4-.9 7-1.7 8.1-1.8 1.5-.1 2.1-1.1 2.7-5.1.5-2.8 1.3-5.9 1.9-7 1.2-2.5 1.9-25.7.8-30.5-.4-1.9-.4-3.9.1-4.5.4-.5.6-2.4.3-4-.3-1.7-.6-6.2-.7-10-.3-8.2-2.4-23.2-3.6-25.5-.5-.9-.9-3-.8-4.6 0-1.6-.7-4.3-1.6-5.9-.9-1.7-1.6-4.4-1.6-6.1s-.7-4.8-1.5-6.7c-.8-2-1.5-5-1.5-6.7 0-1.6-.5-3-1.1-3-.7 0-.9-1.1-.6-2.9.3-1.6.3-3.2 0-3.5-1.2-1.2-3.4-8.1-3.8-11.8-.3-2.1-1.1-5.1-1.9-6.6-.8-1.6-1.7-5.1-2.1-7.7-.6-5.6-1.5-7-5.5-8.4-2.2-.7-3.2-.7-3.7.2zm35.2 189.3c-.5.1-3.5.5-6.5.8-11 1.1-14.4 1.7-18.9 3-12.3 3.8-18.1 6.5-18.1 8.3 0 .7-.7 1.3-1.5 1.3s-1.5.4-1.5 1c0 .5-1.2 2.1-2.7 3.7-4.9 4.8-5.5 7-6.3 22.7-.4 8.2-1.2 15.1-1.7 15.5-.6.3-1 2.4-1.1 4.5-.1 2.3-.8 4.3-1.5 4.8-.8.4-2 2.1-2.7 3.8-.7 1.6-1.6 3-2.1 3s-.9.8-.9 1.9c0 1-1.3 3.4-3 5.2-1.6 1.9-2.8 3.8-2.7 4.4.2.5-.7 1.8-2 2.8s-2.3 2.4-2.3 3.1-1.1 2.7-2.5 4.6c-1.3 1.8-2.2 3.7-1.9 4.2s-.2 1.8-1.2 2.9c-.9 1-1.3 1.9-.9 1.9s0 .9-1 2c-.9 1-1.5 2.6-1.2 3.5.4.8.3 1.5-.2 1.5-.8 0-2.9 9.4-3.7 16.5-.2 2.2-.6 5.8-.9 8-1.5 11.3-1.1 26.3 1 33.5.4 1.4.8 3.4 1 4.5.2 2 .9 4.2 2.5 8 3.6 8.7 5.5 12.5 6.2 12.5.4 0 .8.5.8 1 0 1.9 12.3 16.2 16.4 19 2.3 1.6 5.2 3.9 6.6 5.3 3 2.9 9.7 4.7 12.9 3.5 1.3-.5 3-.4 4.2.3 1.1.5 2.4.7 2.9.4.6-.3 1.5-.3 2.2.1.6.4 2.3.8 3.7.9 1.4.2 3.1.4 3.6.6.6.2 4.2-.1 8-.6a256.42 256.42 0 0 1 9.2-1c2.6-.1 5.3-2.2 5.3-4.1 0-.8.7-1.4 1.5-1.4s1.5-.5 1.5-1.1c0-.5.8-.9 1.8-.8.9.2 3.2-.5 5-1.5 1.9-.9 4-1.5 4.7-1.2.8.3 1.5.1 1.7-.3s3.5-2 7.5-3.5c4.7-1.8 7-3.2 6.7-4-.3-.7.2-1.9 1.1-2.6.8-.7 1.5-2.3 1.5-3.5 0-1.3.5-2.5 1.1-2.7.5-.2 1.1-1.8 1.1-3.5.1-1.8.5-3 1-2.7 1.2.8 1-.9-.7-4.3-.8-1.7-1.8-5.9-2.1-9.4-.8-8.5-4.7-21.8-8.6-29.3-1.4-2.6-4.8-15.1-4.8-17.5 0-1.1.5-2.1 1.2-2.3.6-.2 1.2-1.3 1.2-2.4.1-1.1.5-2.5.9-3.1.8-1.3-1.6-5.9-4.2-8-1.5-1.3-1.6-3.1-.8-14.4.6-9.4 4.5-19.8 6.7-18.4 2.7 1.6 2.1-8.4-.6-10.6-1.6-1.3-1.9-4.9-.3-4.9.5 0 .7-.5.4-1-.4-.6-.1-3.5.5-6.5 1.6-7.5 1.6-31.9.1-37.3-3.2-11.4-15.4-22.5-22.6-20.6zm-29.4 28.1c3.7 3.7 5.9 6.6 5.9 8 0 1.3-.4 2.3-1 2.3-.5 0-1 .6-1 1.4 0 .7-.6 1.9-1.4 2.5-.7.6-1.6 2.4-1.9 3.9-.6 2.8-4.4 5.4-10.4 7.1-3.6 1-7.2-.7-5.8-2.9.4-.7.7-5.6.6-10.9-.2-8.6 0-9.9 1.8-11.6 1.2-1 2.1-2.4 2.1-3.1 0-1.1 1.5-1.9 4.4-2.3.5 0 3.5 2.5 6.7 5.6zm44.7 10.8c1.1 5.5.8 8.5-1 8.5-.5 0-.7 2.2-.5 5 .3 2.9.1 5-.5 5-.5 0-.7 1.3-.3 2.9.3 1.6.3 4.5-.1 6.5-.6 3.5-.7 3.6-5.5 3.6-2.6 0-5.1-.5-5.4-1-.3-.6-1.9-1-3.5-1-5.4 0-15.3-6.8-16.1-11-.5-2.6 1-5.6 3.6-7s4-5.7 3-8.9c-.7-2.2.4-3.1 4.8-3.8 1.8-.2 3.6-.9 4.2-1.4.5-.5 2.7-.9 5-1 2.2 0 4.9-.4 6-.9 4.3-1.8 5.2-1.2 6.3 4.5zm-54.1 32.2c7.8 1.9 10.3 4.2 13.4 12.3 2.9 7.6 2.3 13.9-1.7 17.4-3.8 3.3-12.7 6-17.3 5.2-2-.4-7-1.1-11.2-1.6-9.7-1.2-12.9-2.4-12.9-5 0-1.1.7-2 1.5-2s1.5-.6 1.5-1.4c0-.7.7-1.9 1.5-2.6s1.5-2.3 1.5-3.6.5-2.4 1.1-2.4c1.5 0 4.8-4.1 4.9-6 0-.8.9-2.1 2-2.8s2-2.1 2-3.1c0-1.1.4-2.2 1-2.6.5-.3.7-1.2.3-2-.7-2 3.9-2 12.4.2zm45.1 24.4c.8 8.3.4 14.2-1.2 16.8-.8 1.3-8.8-1.5-11.5-4-1.1-1.1-2.1-2.7-2.1-3.5 0-2.9 2.9-7.1 5.9-8.4 1.6-.6 3.7-2.1 4.7-3.1 2.4-2.7 3.8-1.9 4.2 2.2zM200.1 671c2.4-.1 5.8.1 7.4.4 1.7.3 5.9 1 9.5 1.5 6.9 1 8.4 1.3 11.3 2.6 2.3 1 5 6.2 3.7 7-.6.3-1 2.6-1 5.1 0 2.4-.4 4.4-1 4.4-.5 0-1 .7-1 1.5s-.4 1.5-1 1.5c-.5 0-1 .7-1 1.5s-.5 1.5-1.1 1.5c-.5 0-2.2 1.3-3.7 2.9-3.4 3.7-5.6 4.2-21.7 4.6-10.7.3-13.3 0-14.7-1.2-1.2-1.1-1.5-2-.8-2.8.5-.6 1.1-4.1 1.2-7.8.2-3.7.6-6.7 1-6.7.3 0 .6-1.9.6-4.3 0-5.4.7-12.1 1.6-13.5.4-.7 1.5-.6 3.5.4 1.6.8 4.8 1.4 7.2 1.4zm70.7 12.7c.7 1.6 2.1 6.4 3.2 10.8 2.7 10.3 3.9 14.1 6.2 19 1 2.3 2.2 6.3 2.8 9 .5 2.8 1.8 8.8 2.8 13.3 1.6 6.9 1.7 8.5.6 8.9-.8.3-1.4 1.2-1.4 2 0 2-3.7 5.2-6.9 6-1.4.3-3.6 1.3-4.8 2.1-2.7 1.7-8.5 3.2-17.9 4.8-4.6.7-8.1-.9-10.8-5.1-1.2-1.9-1.3-3-.4-5.7 1.2-3.7 9.9-12.8 12.2-12.8.8 0 2.3-1.1 3.4-2.5 1.4-1.7 3-2.5 5-2.5 1.7 0 3.3-.4 3.7-.9.3-.5 1.8-1 3.3-1.1 8.5-.4 8.3-.3 7.6-3.5-.3-1.7-1.6-3.9-2.8-5-1.3-1.1-2.6-2.7-2.9-3.7-.3-.9-2.1-1.9-3.9-2.3-5-1-20-7.3-22.7-9.6-1.8-1.5-2.2-2.2-1.2-2.8.6-.4 1.1-1.3.9-1.9-.5-1.7 5.4-10 7.5-10.5.9-.3 1.7-1.5 1.7-2.6 0-1.2.6-2.1 1.5-2.1 1.4 0 2.4-.4 7.5-3.1 2.9-1.5 4.8-.9 5.8 1.8zm-53.5 34.7c3.4.3 7.6 5 7.7 8.4 0 1.3-.4 2-1 1.7-1.6-1-1.2.5 1 3.2 2.5 3.2 4.1 9.1 4.3 15.9.1 4.4-.3 5.7-2.2 7.3-1.3 1.1-2.8 1.8-3.2 1.5-.5-.3-.9 0-.9.6 0 2.1-3 4.2-4.8 3.4-.9-.4-2.6-.6-3.7-.5-1.8.2-10.5-6.1-11.4-8.3-.2-.5-1.8-2.5-3.5-4.5-6.6-7.5-10-14.2-12-23.7l-.7-3.1 8.3-1.1c6.7-.9 8.8-.8 11.1.3 2.5 1.2 2.7 1.2 2.7-.7 0-1.7.4-1.9 2.8-1.4 1.5.4 4 .8 5.5 1z"/><path d="M235.622 802.084c-9.595-.76-24.008-3.916-35.855-7.852-14.691-4.881-18.034-7.329-36.874-26.996-9.612-10.034-19.059-20.465-20.993-23.18-7.171-10.067-13.56-21.474-14.765-26.363-1.492-6.053-1.598-32.236-.154-37.991.565-2.254 1.039-6.255 1.052-8.893.023-4.56 1.46-9.945 8.299-31.105 1.647-5.096 2.994-10.068 2.994-11.049s.665-2.804 1.478-4.052c2.071-3.18 10.814-28.589 10.186-29.605-.284-.459-.094-.835.422-.835s.916-1.268.889-2.817 1.46-11.345 3.304-21.769l4.298-24.586c1.575-9.391 2.203-50.539 1.077-70.685l-1.059-18.952-5.18-14.723c-2.849-8.097-5.911-17.547-6.806-20.998s-3.178-8.812-5.075-11.912-6.491-12.738-10.21-21.416l-8.645-19.464c-6.683-13.075-17.991-46.377-20.641-60.787-2.493-13.556-4.365-50.046-2.93-57.12.514-2.535 1.594-8.989 2.4-14.342 1.75-11.629 14.142-55.637 16.874-59.928.359-.563 1.196-2.868 1.86-5.122 2.431-8.247 5.078-14.551 7.293-17.368 1.248-1.587 2.269-3.49 2.269-4.23s2.2-4.02 4.889-7.289c8.571-10.421 11.68-14.628 11.896-16.098.265-1.802 13.127-12.368 20.487-16.829 3.053-1.85 10.037-5.204 15.521-7.452 8.869-3.637 11.336-4.183 22.333-4.948 6.8-.472 12.944-.636 13.654-.364 1.738.667 2.194 2.615 2.579 11.013l.326 7.122-3.894.932c-3.722.891-4.065.746-7.782-3.28-6.257-6.778-11.374-5.301-11.374 3.282 0 3.326-.265 3.598-4.577 4.684-2.601.655-5.034 2.005-5.634 3.128-1.53 2.858-1.297 6.781.489 8.264 1.484 1.232 2.98 1.156 12.508-.636 2.975-.559 3.512-.258 5.479 3.077 2.034 3.447 2.521 3.697 7.202 3.697 5.168 0 5.76-.609 3.996-4.112l-2.049-4.07c-1.502-2.984-1.4-3.087 3.065-3.087 3.253 0 4.65.629 6.828 3.073 3.89 4.366 8.582 4.264 11.804-.256 1.305-1.831 2.374-3.74 2.375-4.242s.744-1.381 1.651-1.953c1.21-.763 2.884-.443 6.278 1.2 3.999 1.936 4.807 2.876 5.937 6.913.719 2.57 1.899 4.899 2.621 5.176s4.223-.133 7.78-.911c5.708-1.249 6.639-1.8 7.932-4.695.912-2.041 2.208-3.28 3.431-3.28 2.603 0 7.592 5.442 8.412 9.177.827 3.765 2.462 5.11 7.129 5.868 2.852.463 4.026.181 5.044-1.212 1.519-2.078 2.382-1.432 5.809 4.351 1.085 1.831 2.624 3.329 3.421 3.329s4.077 1.383 7.29 3.073 7.409 3.073 9.324 3.073c3.516 0 7.551 2.853 7.608 5.378.016.704 1.399 3.091 3.073 5.305s3.045 4.6 3.045 5.305.578 1.89 1.283 2.635 2.287 4.35 3.514 8.012l5.378 15.484c1.857 5.208 4.643 17.386 6.795 29.708 3.013 17.253 3.748 24.355 4.229 40.859.589 20.237.589 20.237-4.425 66.075-.863 7.888-3.349 22.409-5.525 32.269-5.188 23.509-6.44 37.963-5.86 67.612.374 19.103.822 24.987 2.17 28.496.934 2.432 1.453 4.818 1.154 5.302s.1 2.874.888 5.31 1.971 6.691 2.629 9.454 3.208 9.448 5.666 14.854 5.007 11.673 5.664 13.927c1.473 5.049 2.684 35.342 1.413 35.342-.501 0-.993 2.937-1.093 6.528s-.887 8.216-1.749 10.278l-1.567 3.751-3.495-2.291c-3.221-2.111-3.543-2.803-4.106-8.836-.383-4.1-1.764-8.985-3.697-13.075-1.697-3.592-3.392-8.447-3.767-10.79-.561-3.511-1.462-4.81-5.121-7.39-4.265-3.006-5.334-4.897-7.002-12.383-.363-1.63-2.673-4.92-5.134-7.311-2.685-2.609-4.913-5.93-5.572-8.306-1.378-4.962-1.407-7.543-.086-7.543 1.785 0 1.111-2.813-1.393-5.812-4.132-4.951-5.8-9.27-6.868-17.782-.567-4.518-1.475-9.386-2.019-10.817s-.989-5.558-.989-9.17c0-7.494-1.275-8.954-8.789-10.064-6.71-.991-7.659.42-6.108 9.083a216.79 216.79 0 0 0 3.03 13.83l2.709 10.363c.53 2.037.963 5.057.963 6.71s.513 3.519 1.14 4.146c1.869 1.869.024 3.367-4.146 3.367-8.021 0-10.064.92-10.804 4.865-.899 4.792 1.155 6.904 6.367 6.544 5.842-.403 6.651-.359 10.398.571 2.898.719 3.855 1.74 5.832 6.221l2.366 5.36h-2.995c-8.457 0-15.042 6.249-11.665 11.07 2.18 3.112 16.525 4.422 15.523 1.417-.245-.736.64-1.218 2.237-1.218.515 0 2.35 1.923 4.079 4.274l3.143 4.274-2.999 1.824c-1.649 1.003-3.77 3-4.712 4.439-2.59 3.952-.577 5.678 6.622 5.678 7.226 0 9.801 1.699 13.007 8.586 3.077 6.608 3.071 7.804-.039 7.804-2.934 0-3.736 1.045-4.361 5.682-.415 3.08-.052 3.675 3.683 6.033 5.468 3.452 6.837 6.405 8.212 17.72.632 5.202 1.602 10.649 2.155 12.104s1.006 3.758 1.006 5.12c0 1.871.688 2.622 2.817 3.077 5.705 1.22 7.16 2.298 7.776 5.758.998 5.602.704 46.859-.393 55.143-.56 4.226-1.425 14.828-1.922 23.562-.878 15.407-4.076 36.919-6.046 40.669-.533 1.014-1.313 3.919-1.732 6.454-1.381 8.344-5.599 20.869-8.443 25.069-1.537 2.27-3.432 5.396-4.213 6.947-5.816 11.554-27.696 26.14-44.699 29.797l-16.391 3.561c-10.889 2.384-23.293 3.157-35.342 2.203zm16.273-24.492c6.82-.79 7.879-1.225 10.756-4.417 1.755-1.948 4.574-3.86 6.265-4.25l5.634-1.278c2.364-.526 4.509-1.406 14.347-5.887 2.057-.937 4.079-2.839 4.734-4.455l3.417-8.348c2.169-5.272 2.203-5.794.73-11.269-.849-3.157-2.055-8.843-2.681-12.636s-2.336-10.246-3.803-14.342c-9.78-27.32-9.549-26.296-7.019-31.147 2.205-4.227 1.908-6.953-1.153-10.59-2.608-3.099-2.678-3.527-2.149-13.14.616-11.211 3.106-19.673 6.011-20.433 1.475-.386 1.907-1.466 1.907-4.761 0-2.344-.648-5.188-1.44-6.318-1.239-1.768-1.227-3.626.081-13.289.973-7.187 1.353-15.86 1.056-24.076-.404-11.153-.805-13.514-3.052-17.948-2.978-5.877-11.594-14.396-15.569-15.393-5.768-1.448-25.5 1.416-37.902 5.5-6.994 2.303-8.957 3.505-13.675 8.369-3.03 3.124-6.21 7.032-7.067 8.684-.899 1.733-2.136 9.101-2.923 17.415-1.766 18.653-2.736 22.89-6.529 28.51-1.721 2.55-3.129 4.942-3.129 5.315s-1.989 3.533-4.42 7.022-5.606 8.649-7.057 11.466c-6.496 12.618-8.012 16.035-7.489 16.881.308.498.144 1.162-.363 1.475-2.006 1.24-5.266 26.135-5.24 40.009.049 25.992 11.112 49.027 31.219 65.005 8.099 6.436 9.154 6.806 21.925 7.695 4.166.29 7.816.768 8.11 1.062.766.765 7.698.584 16.466-.431zm-2.597-251.521c3.296-.787 6.105-1.578 6.242-1.756s1.099-3.782 2.138-8.008c2.187-8.896 2.806-32.693 1.372-52.787-.894-12.532-4.001-31.81-5.863-36.38-.564-1.386-1.792-6.207-2.728-10.715s-2.122-9.254-2.635-10.548-.933-3.244-.933-4.332-.884-4.87-1.965-8.403c-2.121-6.936-5.669-20.014-6.694-24.675-.449-2.044-1.682-3.322-4.228-4.386-1.977-.826-3.955-1.279-4.396-1.006s-1.65 2.377-2.687 4.678l-1.886 4.182 2.734 5.855c1.504 3.22 3.402 8.391 4.219 11.489s2.22 7.939 3.119 10.756c2.047 6.414 8.969 36.036 11.131 47.635 1.936 10.383 3.655 38.59 2.966 48.66-.283 4.129-1.116 7.88-1.964 8.843-.889 1.009-1.227 2.651-.853 4.142 1.337 5.328-7.331 8.587-14.843 5.581-5.702-2.282-12.206-2.217-12.932.129a24.69 24.69 0 0 1-1.504 3.572c-2.622 4.912.029 7.113 9.636 8 11.841 1.093 16.2.991 22.554-.526zm-62.261-157.077c5.911-3.045 14.366-12.737 19.598-22.465 2.585-4.806 2.624-5.208 2.448-24.861-.154-17.146-.452-20.557-2.101-24.074-4.702-10.031-5.778-17.415-5.001-34.318.401-8.733 1.225-19.105 1.83-23.049 1.484-9.676 4.124-41.411 4.14-49.777.013-6.973-4.139-21.809-7.569-27.044-2.384-3.639-11.807-10.47-16.94-12.281-9.565-3.375-16.552-1.554-23.303 6.07-4.165 4.705-9.543 15.436-9.543 19.044 0 1.531-.669 4.385-1.486 6.341s-1.976 8.351-2.575 14.211-2.029 15.725-3.178 21.923l-2.909 15.878c-.451 2.535-2.28 7.786-4.065 11.667s-3.761 9.183-4.392 11.781-1.753 5.427-2.492 6.288c-2.865 3.334-6.579 13.225-7.719 20.556-1.012 6.513-.93 8.905.547 15.826 6.647 31.141 13.29 49.369 20.411 56.008 7.892 7.357 16.451 11.996 26.81 14.528 4.075.996 13.554-.223 17.489-2.251zm107.49-15.144c3.947-1.428 9.809-2.683 13.039-2.791 4.778-.161 6.319-.673 8.296-2.757 2.611-2.753 5.97-11.522 7.77-20.282 1.619-7.881 1.392-26.702-.405-33.604-1.94-7.45-5.211-16.2-7.175-19.198-2.124-3.241-4.566-11.3-5.636-18.601-.496-3.381-1.618-9.373-2.493-13.317-.961-4.327-1.997-17.126-2.614-32.269-1.188-29.197-1.529-32.314-4.186-38.322-2.603-5.885-13.049-15.478-20.896-19.19-7.003-3.313-12.023-3.671-19.663-1.402-18.559 5.511-29.579 29.438-24.451 53.087 2.911 13.424 7.389 27.091 12.699 38.755 1.117 2.455 3.533 8.842 5.367 14.195 3.138 9.155 3.336 10.583 3.349 24.074.012 12.565-.339 15.611-2.831 24.586-2.141 7.709-2.986 13.488-3.413 23.349l-.568 13.105 4.717 4.52c8.991 8.615 25.126 11.117 39.096 6.063zm-128.702 4.759c-6.709-1.309-19.037-12.968-21.73-20.551-.9-2.535-3.604-11.064-6.008-18.952-4-13.122-4.367-15.263-4.316-25.174.055-10.722.103-10.93 4.734-20.488 2.573-5.311 5.703-12.192 6.954-15.291l3.206-7.683c2.585-5.693 10.114-42.124 10.138-49.054.024-6.995 4.893-27.188 7.315-30.338 7.247-9.422 6.057-8.737 12.613-7.269 15.318 3.428 21.288 19.4 17.46 46.709-3.629 25.885-4.628 35.435-5.647 53.976-.926 16.841-.853 19.677.605 23.562 3.506 9.344 6.52 23.076 6.545 29.824.034 9.113-2.518 20.087-5.662 24.348-1.379 1.87-2.508 4.625-2.508 6.124s-1.152 3.968-2.56 5.487c-4.766 5.143-11.471 6.656-21.138 4.77zm1.997-40.289c1.324-.653 2.627-2.444 2.949-4.055.317-1.587.979-3.133 1.469-3.437s.892-3.294.892-6.646c0-5.146-.478-6.755-3.073-10.337-3.647-5.034-3.757-6.244-.929-10.216 1.182-1.66 1.864-3.743 1.519-4.642s-.21-2.148.297-2.781c1.229-1.533 2.894-9.74 3.766-18.566.726-7.352 1.721-9.806 9.546-23.55l4.467-7.846-.402-10.425c-.354-9.182-.765-11.097-3.443-16.059-2.565-4.753-3.537-5.683-6.217-5.944-4.681-.456-6.122 2.516-6.855 14.139-.709 11.241-2.683 19.403-6.804 28.136-1.605 3.4-3.514 7.751-4.243 9.669s-3.265 6.319-5.635 9.781c-5.856 8.552-7.484 13.975-8.256 27.496-.635 11.121-.545 11.846 2.64 21.23 5.111 15.059 9.474 18.407 18.312 14.052zm105.369 26.159c-2.719-.906-6.292-2.907-7.939-4.445-3.976-3.714-3.943-8.022.225-29.751 2.503-13.049 3.245-19.753 3.329-30.105l.109-13.317-5.516-15.878c-3.034-8.733-7.256-20.027-9.383-25.098-4.079-9.727-7.126-24.194-7.126-33.836 0-4.399.845-7.456 3.785-13.69 4.202-8.911 7.121-11.546 14.938-13.491 4.17-1.037 5.58-.955 9.532.554 5.807 2.218 16.35 11.851 17.74 16.21.575 1.802 1.527 15.262 2.117 29.911 1.425 35.401 4.858 58.392 10.342 69.266 6.002 11.901 8.133 19.936 8.133 30.665 0 11.923-.76 16.315-2.963 17.114-.906.329-4.758 3.507-8.56 7.063s-8.151 6.776-9.664 7.155-3.934 1.308-5.38 2.063c-3.404 1.776-7.576 1.658-13.72-.389zm15.861-33.762c4.514-1.992 4.539-2.049 5.938-13.636 1.396-11.567-.207-39.138-2.599-44.697-2.21-5.137-7.373-16.242-9.794-21.069-1.325-2.642-1.901-6.025-1.901-11.179 0-6.063-.467-8.187-2.598-11.824-3.934-6.714-9.327-7.263-12.562-1.28-.909 1.682-1.164 4.891-.806 10.144.819 12.001 2.175 17.517 6.142 24.997 2.317 4.367 3.677 8.339 3.677 10.738 0 2.094.476 4.283 1.057 4.865 1.553 1.553 3.181 38.285 1.978 44.629-1.264 6.664-1.273 6.536.624 8.433 2.086 2.086 5.94 2.043 10.844-.121zm3.158-194.485c-2.401-.755-5.739-2.352-7.417-3.547s-4.598-2.424-6.488-2.731c-2.878-.467-3.794-.102-5.645 2.251-1.748 2.222-3.062 2.809-6.289 2.809-4.212 0-7.187-1.607-7.187-3.882 0-.717-1.367-2.767-3.039-4.556-2.27-2.431-3.76-3.17-5.89-2.925-2.514.289-2.852.752-2.852 3.913v3.585l-6.911-.081c-3.801-.045-7.239-.409-7.64-.81-.909-.909-3.217-14.194-2.648-15.243.229-.423 3.551-.768 7.381-.768 14.132 0 46.834 11.828 57.966 20.965 3.453 2.834 2.931 2.994-3.341 1.02zm-28.649 505.561c-6.855-1.984-11.276-4.658-14.52-8.782-2.388-3.036-1.919-5.001 2.102-8.802 2.283-2.158 2.919-3.672 2.919-6.947 0-2.468.526-4.341 1.281-4.56 8.236-2.398 13.359-3.622 17.417-4.163 4.573-.609 4.929-.486 5.89 2.043 1.3 3.42 1.327 9.452.043 9.899-.539.188-1.203 5.138-1.476 11-.634 13.633-1.063 13.957-13.655 10.313zm-43.305-25.635c0-8.797.336-10.887 2.305-14.343 3.456-6.066 5.262-6.116 11.204-.307 7.528 7.36 7.541 7.42 3.049 14.873-4.121 6.838-8.529 10.07-13.74 10.073l-2.817.001zm-9.22 61.482c-15.515-2.431-16.252-2.918-11.756-7.77 1.422-1.535 2.883-3.973 3.246-5.419s1.735-3.475 3.049-4.508 2.389-2.519 2.389-3.301.862-2.247 1.917-3.255 2.548-3.612 3.32-5.786l1.403-3.954 5.644.66c9.226 1.08 13.818 3.903 17.032 10.473 4.772 9.754 3.387 17.692-3.729 21.372-5.598 2.895-11.179 3.263-22.514 1.488zm-24.965 46.351c-.275-.445-.059-4.018.481-7.939s1.359-11.171 1.821-16.109 1.053-9.192 1.313-9.452 5.889.199 12.509 1.02c28.2 3.498 29.646 4.21 28.625 14.095-.334 3.232-1.003 5.877-1.488 5.877s-.881.691-.881 1.537-.461 1.537-1.024 1.537-1.058.576-1.098 1.281c-.123 2.132-6.871 7.078-10.949 8.025-4.806 1.116-28.633 1.221-29.308.129zm27.685 54.633c-8.744-3.118-21.418-19.755-24.808-32.565-.708-2.675-.974-5.057-.592-5.293 1.835-1.134 15.265-1.702 17.726-.749 2.198.851 2.85.743 3.346-.55.488-1.271 1.521-1.462 4.952-.913 6.18.988 12.722 7.695 8.786 9.007-.768.256-.176 2.12 1.679 5.284 3.774 6.439 4.894 18.004 2.049 21.148-1.009 1.115-2.344 2.027-2.966 2.027s-1.707.922-2.411 2.049c-1.49 2.386-2.436 2.454-7.762.555zm35.061-.562c-3.379-1.974-5.068-5.823-3.909-8.909 1.147-3.054 9.942-12.596 11.611-12.596.548 0 2.019-.96 3.269-2.134 2.369-2.226 6.945-3.737 14.763-4.877 3.944-.575 4.653-1.043 4.91-3.245.193-1.656-.868-4.094-2.978-6.839-2.695-3.506-4.664-4.757-11.057-7.023-4.278-1.516-10.417-4.086-13.643-5.712-5.661-2.852-5.828-3.053-4.809-5.771 1.385-3.693 6.091-10.499 7.26-10.499.505 0 1.279-.975 1.72-2.166 1.084-2.93 11.433-7.419 13.146-5.703.664.666 2.796 6.742 4.736 13.504s4.316 14.137 5.279 16.391 3.087 9.965 4.718 17.137l2.967 13.039-2.157 3.657c-1.603 2.717-3.901 4.45-8.942 6.744-11.102 5.051-23.009 7.267-26.884 5.004zm13.772-94.237c-5.249-2.334-6.815-4.831-5.132-8.182 1.466-2.918 10.627-9.553 12.01-8.698 1.075.664 1.369 14.686.363 17.307-.777 2.024-1.876 1.959-7.242-.427z" fill="#fff"/></svg>