<svg xmlns="http://www.w3.org/2000/svg" width="750.667" height="621.333" viewBox="0 0 563 466" preserveAspectRatio="xMidYMid meet"  xmlns:v="https://vecta.io/nano"><path d="M372.6 79.7c-.3.3-5.6.6-11.8.6s-11.8.3-12.3.8c-.6.4-2.9.7-5.2.6-2.5-.1-5.1.6-6.9 1.8-1.6 1.1-3.3 1.9-3.9 2-.5 0-2.6 1-4.6 2.3-2 1.2-4.3 2-5.2 1.7-.8-.4-1.7.1-2 .9-.4.9-1.6 1.6-2.7 1.6s-2 .4-2 .8c0 1.2-4.9 3.4-6 2.7-.5-.3-1.2-.1-1.5.5-.8 1.3-9.3 5.5-16.5 8.2a280.41 280.41 0 0 0-8.5 3.3c-1.6.7-4.3 1.7-6 2-1.6.4-3.5 1.4-4.2 2.2-.8 1-2.3 1.4-4.2 1.1-1.7-.3-3.1 0-3.1.5s-.9.7-2 .4c-1.2-.3-1.8-.1-1.4.5.4.7-.2.7-1.7.2-1.3-.4-4.4-.9-6.9-1-6.1-.3-21.4-3.5-21.8-4.5-.2-.5-1.2-.9-2.2-.9-.9 0-3.7-.7-6.1-1.6s-7.1-2.2-10.4-2.9c-8.2-1.9-14.2-3.4-19.3-5-2.9-1-4.1-1.1-3.6-.3s.1.9-1.1.4c-2.9-1.1-10.6-2.7-14.5-3.1-1.9-.2-5.5-.8-8-1.5-7.6-1.9-45-1.1-47.6 1.1-1.1.9-1.4.8-1.4-.1 0-.8-.7-1-1.8-.5-.9.4-5 1.2-9.1 2-4 .7-7.7 1.8-8.1 2.5-.5.7-1.6 1.4-2.7 1.5-3.6.4-10.8 4.5-13.3 7.5-1.4 1.6-3 3-3.7 3s-1 .7-.6 1.6c.4 1-.1 1.7-1.6 2.1-1.3.3-2.1 1.3-2.1 2.7 0 1.2-.9 2.9-2 3.9-1.1.9-2 2.4-2 3.2 0 1-.5 1.3-1.2.9-.8-.5-.9-.2-.5.9.3 1 .3 1.7-.2 1.7s-1.1.8-1.5 1.7c-.3 1-1 2.5-1.5 3.3-1 1.8-3.3 7.4-3.2 7.8.4.6-3.5 6.8-4.7 7.5-.6.4-1.2 2.1-1.2 3.6s-.3 3.1-.8 3.5c-.4.4-.7 1.1-.7 1.4 0 .4-1 2.3-2.2 4.2-1.1 1.9-2.4 5.5-2.8 8s-1.3 5.2-1.9 6c-1.6 2-3.8 9.8-3.1 11 .3.5.1 1.1-.4 1.4-2.3 1.5-2.8 11.3-1.1 26.6.9 8.1 1.7 17.4 3.4 37.6.1 2.2.5 4.5.8 5 .9 1.6 2.1 6.8 1.9 8.1-.1.7.3 1.3.8 1.3s1 .8 1 1.7c0 2.4 8.1 26.4 9.4 28.2 1.1 1.3 1.4 2.2 2.4 7.3.3 1.6.9 2.8 1.4 2.8s.8.3.7.7c0 .5.2 1.5.5 2.3s1 3.1 1.6 5c1.6 5.7 3.6 10.7 4.8 12.1.6.8 1.4 2.6 1.8 4.1.4 1.4 1.4 3.4 2.3 4.5 1 1 3.3 3.8 5.2 6.3 1.9 2.4 4.3 5.3 5.3 6.2.9 1 1.7 2.5 1.7 3.3 0 .9.7 1.8 1.5 2.1.8.4 1.5 1.2 1.5 1.9s1.8 3.3 4 5.7c2.2 2.3 4 4.9 4.1 5.5.1.7.3 1.6.4 2 .2.5.6 1.7.9 2.8.4 1.2 2.8 3.1 5.4 4.3 3.1 1.5 6.5 4.4 9.8 8.5 3.9 4.9 6.5 7 12.1 9.7 4 1.9 7.2 4.1 7.2 4.7.1.7.7 1.3 1.5 1.3.7 0 1.9.6 2.5 1.3 3.2 3.9 12.7 6.4 27.1 7.3l15 1c6.3.4 12 .6 12.5.4.6-.2 2.8-.3 5-.3 10.3.2 42.1-3.3 44-4.7.6-.4 3.5-1 6.5-1.3 7.2-.7 13.9-2.4 30.5-8.1 6.5-2.1 12.2-5.3 14.4-8 .7-.9 1.7-1.6 2.2-1.6.4 0 3.1-2.1 5.8-4.8l9.8-9.2c5.9-5.6 8.7-9 10.7-12.8.8-1.6 2.2-3.4 3-4.1.9-.8 1.6-2.2 1.6-3.2 0-1.1.6-1.9 1.4-1.9s1.7-1.1 2-2.5c.4-1.5 1.1-2.3 1.8-1.9.6.4.9.1.6-.7-.8-2.3 23-24.9 26.2-24.9.5 0 1-.7 1-1.5s.3-1.4.8-1.3c.6.2 7.4-4.3 9.2-6.2.9-.9 17.4-8.8 19.8-9.5 1.2-.3 2.2-1.1 2.2-1.6s1.1-.9 2.4-.9c2.6 0 11.1-2.4 16.7-4.7 1.9-.8 4.6-1.6 6-1.7 3.7-.4 6.9-1.6 6.9-2.6 0-.5 1.5-1.1 3.3-1.5 1.7-.4 5.4-1.8 8-3.1 2.7-1.3 5.5-2.4 6.2-2.4s1.5-.3 1.7-.8c.2-.4 2.3-1.8 4.8-3.1 4.1-2.2 14.7-10.8 21.1-17.1 1.4-1.4 4.9-4.5 7.9-7 8-6.7 10-8.6 9.5-9.2-.3-.2 1-2 2.8-3.9 5.1-5.6 11.9-18.1 12.1-22.5.1-1.2.9-2.8 1.8-3.7 1.4-1.4 1.6-3.6 1.3-13.7-.2-6.5-.7-12.5-1.1-13.2-.5-.7-1-2.2-1.1-3.3-.2-1-.8-2.2-1.5-2.6-.6-.4-.8-1.1-.4-1.7.3-.5-.7-3.5-2.4-6.6-1.7-3.2-2.6-6.4-2.3-7.3.4-1.1.3-1.4-.5-.9s-1.2-.1-1.2-1.8c0-1.4-.4-2.6-.9-2.6-.6 0-2.7-3.3-4.8-7.2-2.1-4-5.3-9.2-7-11.6-1.8-2.3-3.3-4.6-3.3-5.1 0-.4-.9-1.6-2-2.6s-2-2.3-2-2.9c0-1.1-1.5-2.5-7.2-6.7-1.6-1.1-2.8-2.7-2.8-3.5s-.4-1.4-.8-1.4-4.4-3.6-9-8c-4.5-4.4-8.9-8-9.7-8-1.5 0-9.2-5.3-10.6-7.4-.4-.5-1.1-.6-1.7-.2-.5.3-1.5-.1-2.2-1-.7-.8-1.9-1.3-2.7-1-.7.3-1.3.1-1.3-.4 0-.6-1.5-1-3.3-1s-3.7-.4-4.3-.8c-.5-.5-2.9-1.4-5.4-2.1s-5.5-1.7-6.8-2.2-3.4-.9-4.7-.9-2.6-.4-2.9-.8c-.4-.7-9.7-3.3-13.1-3.8-3.4-.4-9.3-1.7-11.2-2.4-1.1-.5-2.4-.6-2.7-.3zm7.4 10.2c8.7 1.3 17.9 3.5 22.4 5.5 1.7.8 4.2 1.6 5.6 1.9 3.2.6 11.6 3.5 15.8 5.5 1.7.8 3.5 1.2 3.8.9.4-.4 1.8.2 3.2 1.3 1.3 1.1 2.8 1.7 3.3 1.4.5-.2 1.4.4 2 1.5.7 1 1.8 1.7 2.5 1.4.7-.2 1.7.5 2.4 1.6.6 1.2 1.7 2.1 2.5 2.1s1.5.4 1.5.9c0 .6 1.8 2.7 4.1 4.8a99.39 99.39 0 0 1 5.7 5.7c1 1.1 2.6 2.9 3.8 4 3.3 3.3 4.5 6.3 4.2 10.7-.2 4.5-1.7 6.2-5.6 6.3-2.2.1-2.8.6-3 3-.3 2.4-.1 2.8 1.4 2.2 2-.8 5.4 2 5.4 4.4 0 1-.7 2.3-1.5 3s-1.3 1.6-1 2c.7 1.1-5 7-6.8 7-1.4 0-4.7-2.8-8-6.9-1.5-1.8-2.1-2-3.3-1.1-2.6 2.2-1.7 6.5 2.2 10.4l3.5 3.5-2.6 3.6c-1.5 1.9-3.5 3.5-4.5 3.5s-2.4.7-3.1 1.6c-.9 1.1-2.3 1.4-4.6 1.1-4.1-.7-4.8.3-4.9 7.3-.2 5.8-.6 8.6-1.6 9.6-.4.3-.4 1.2-.2 1.8.3.7-.3 1.9-1.2 2.7-1.4 1.2-1.9 1-3.4-.9-1-1.2-2-2.7-2.2-3.4-.3-.7-1.4-.9-2.9-.5-1.9.5-2.5 1.3-2.4 3.4 0 2.5 3.3 7.3 4.6 6.7.9-.4 5.9 4.2 5.9 5.5s1.9 4.9 3.5 6.6c2.3 2.5 7.4 5.5 9.3 5.5 1.1 0 2.2.5 2.4 1.1.3.8 1.6 1 4 .5 3-.5 3.5-1 3.1-2.6-.3-1.1-1.4-2-2.5-2-1.8 0-9.8-3.6-9.8-4.4 0-1.4 3.5-3.6 5-3.1 1.2.4 1.9-.1 2.4-1.7 1-4 .7-4.8-2.2-4.8-1.6 0-3.7-.9-4.7-2-1.6-1.7-1.7-2.8-.9-6.8.9-4.5 1-4.7 4.5-4.8 1.9 0 4-.4 4.6-.7.7-.4 1.4-.3 1.7.2s2.2.9 4.1.9 3.3-.4 3-.8.5-1 1.7-1.3c1.7-.5 1.9-.9.9-2-.6-.8-2.2-1.5-3.6-1.5-2.7 0-8.5-2.1-8.5-3.1.1-1.5 2.7-3.8 5.1-4.4 1.5-.4 2.9-1.6 3.2-2.8s1-1.8 1.6-1.4c.6.3 1.1 0 1.1-.8 0-1.6 3.4-4.7 7-6.5 1.7-.9 3.3-3.3 4.9-7.4 1.3-3.3 3.2-6.9 4.3-8 1.3-1.3 1.9-3.4 2-6.1 0-2.3.2-4.5.5-4.9.8-1.5 5.4 2.6 6.9 6.1.8 2 2.4 4.6 3.6 5.8 1.1 1.2 1.7 2.6 1.4 3.2-.4.5 0 1.3.7 1.8.8.4 2.2 2.7 3.2 5 1.1 2.4 2.3 4.3 2.8 4.3.4 0 .7.8.5 1.7-.1 1 .8 3.9 2 6.4 2.5 5.2 4.2 13.7 4.2 21.6 0 6.6-2 15.6-3.7 16.6-.8.5-1.1 1.6-.8 2.6.6 1.9-5.3 11.3-11 17.5-1.9 2.1-3.5 4.4-3.5 5s-1.5 2.1-3.3 3.3c-1.7 1.3-5.2 4.1-7.7 6.4-2.5 2.2-5.5 4.4-6.7 4.9-1.3.5-2.3 1.5-2.4 2.2 0 .7-2 2.9-4.5 4.8l-5.8 4.7c-.8.7-1.8 1.3-2.2 1.3s-2.2 1.1-4 2.5c-1.9 1.4-6 3.4-9.3 4.5-3.3 1-7.3 2.6-9 3.4-1.7.9-3.4 1.5-3.8 1.4s-1.9.4-3.2 1.1-3.8 1.5-5.5 1.8-4.9 1.2-7.1 2-5.1 1.7-6.5 2-3 1-3.7 1.5-1.7.7-2.3.3c-.5-.3-1-.2-1 .2 0 .5-2.1 1.5-4.7 2.2-2.6.8-7.2 2.9-10.2 4.7l-9.5 5.5c-2.2 1.2-4.5 2.6-5.2 3.3-.7.6-2.9 2.2-4.9 3.6s-4.6 3.4-5.8 4.5c-1.2 1.2-3 2.4-4 2.8-.9.3-1.7 1.1-1.7 1.7 0 .5-.9 1-2 1s-2 .6-2 1.2c0 .7-2.4 3.8-5.3 6.9-6.1 6.6-9.7 11.4-9.7 12.9 0 .6-.4.9-.9.6s-1.1.4-1.5 1.7c-.3 1.2-1.5 3.2-2.6 4.5-1.2 1.2-1.8 2.7-1.5 3.2.3.6 0 1-.8 1-.7 0-2.8 1.9-4.5 4.2-4.4 6.1-19 20.8-20.6 20.8-.4 0-1.9 1.1-3.4 2.5-2.9 2.7-12.7 7.8-14.9 7.8-.7 0-1.3.4-1.3.8 0 .7-4.9 2.4-6.2 2.1-.4-.1-2 .3-3.5.9-3.1 1.2-3.8 1.4-10.3 2.4-2.5.3-7.9 1.3-12 2.2-8.4 1.8-26.6 4.1-35 4.5-7.4.4-27.1-1-40-2.8-5.8-.8-11.3-1.5-12.3-1.5s-2-.6-2.3-1.4-1.2-1.1-2-.8-1.4 0-1.4-.6-.5-1.1-1.2-1.1c-.6 0-2-.7-3-1.7-1.9-1.7-4.3-3.2-8.8-5.5-2.5-1.3-4.9-3.7-5-4.9 0-.4.8-.9 1.8-1.1 2.2-.6 2.6-4.7.6-6.9-.8-.9-3-2-4.9-2.3-5-1-8.7-3.1-14.6-8.6-3-2.8-6.2-5.3-7.1-5.6s-1.9-1.3-2.2-2.2-1.6-2.9-2.8-4.4c-1.3-1.5-3.4-4.4-4.8-6.4s-3.7-4.7-5.2-6.1-3-3.4-3.3-4.4c-.4-1.1-1.3-1.9-2.1-1.9s-1.4-.5-1.4-1.2c0-.6-.9-3-1.9-5.2-4.1-8.8-6.1-13.5-6.1-14.8 0-.7-.9-2.7-1.9-4.5-1.1-1.7-1.7-4-1.5-5 .3-1.1-.2-2.5-1-3.2-.9-.8-1.6-1.9-1.6-2.5.1-2.7-3.6-12.6-4.7-12.6-.6 0-.9-.8-.6-1.9.2-1-.7-5.6-2.2-10.2-1.4-4.6-2.8-9.5-3-10.9s-.8-4.5-1.4-7c-.5-2.5-1.2-9-1.6-14.5-.3-5.5-1.3-15.4-2.2-21.9-.9-6.9-1.3-14.6-1-18.2.7-7.1 4.4-22.4 5.8-23.9.5-.5.9-1.9.9-3.1 0-1.3.7-2.9 1.5-3.7s1.7-3.3 2.1-5.6 1-4.1 1.5-4.1.9-.8.9-1.8c0-.9 1.1-3.4 2.5-5.5 1.4-2 2.7-5.1 2.8-6.7.1-1.7.8-3 1.5-3 .6 0 1.2-.9 1.2-1.9 0-1.1.4-2.2.9-2.5s2.3-3.4 4-6.9c4.2-8.5 15.3-19.7 19.5-19.7.8 0 1.8-.5 2.1-1 .4-.6 1.5-.8 2.5-.5s3.4-.3 5.4-1.5c4.1-2.2 5-2.5 4.1-1-.3.5.1 1 1 1s1.3-.5 1-1.1c-.4-.6-.1-.9.6-.8.8.1 3.2-.3 5.4-.9 8.3-2.3 22.9-3.1 34-1.8l9 1c2.2.3 6.5 1 9.5 1.6 7.6 1.6 10.9 2.1 15.3 2.4 2.1.2 4 .6 4.4 1 .3.3 1.6.6 2.7.6 1.2 0 3.3.6 4.8 1.4 1.8.9 2.9 1.1 3.6.4s1.6-.6 2.7.6c.9.9 2.1 1.7 2.6 1.7 1.6.2 2.3.5 9.2 2.8 3.7 1.3 7.4 2.1 8.1 1.8.8-.3 1.9 0 2.5.6.9.9 1.4.8 2.1-.3.5-.8 1-1 1-.4 0 .7 1.2 1.4 2.8 1.7 1.5.3 4.5 1.1 6.7 1.7 4.8 1.4 9.2 2.2 12.3 2.1 7.8 0 9.2-.1 12.4-.4 1.6-.2 3.1-.7 3.5-1 .3-.4 1.5-.7 2.5-.7s1.8-.6 1.8-1.3c0-.9.2-.9.8 0 .6 1 1.7.7 4.2-1.2 1.8-1.4 4.9-2.8 6.7-3.1s3.3-1.2 3.3-2 .8-1.3 1.8-1.2c3.6.3 5.2-.3 5.2-1.7 0-.9.6-1.5 1.3-1.4 3.2.4 5.5-.3 7.6-2.2 1.2-1.1 2.8-1.8 3.6-1.5s2.1-.4 2.9-1.5c.9-1.4 1.6-1.7 2.1-.9s1.4.7 3.1-.4c1.3-.9 3.1-1.6 4-1.6 1.8 0 9.7-4.1 10.2-5.3.2-.4 1.2-.7 2.3-.7 1 0 1.9-.5 1.9-1 0-.6 1.1-.8 2.5-.6 1.3.3 2.7 0 3.1-.5.3-.6 1.3-.8 2.1-.5s1.2.2.9-.3.4-.9 1.7-1c1.2-.1 5.8-.5 10.2-1 8.8-1 14.1-.8 25.5.8zm-44.2 20.3c-3.2 1.1-5.8 2.4-5.8 2.9s-.6.9-1.3.9c-2.6 0-12.2 12.3-11.1 14.2.3.5-.2 2.1-1.2 3.6-3 4.5-1.8 24.7 1.6 27.2.4.3 2.2 3.1 4 6.3s4.2 6.4 5.4 7.2c4.4 2.9 15.6 6.3 24.4 7.6 5.1.7 9.2 1.7 9.2 2.2 0 1.5 12.2 0 16.4-1.9 2-1 3.6-2.1 3.6-2.6 0-.4.6-.8 1.4-.8s1.9-1.4 2.5-3c.5-1.7 1.5-3 2-3 .6 0 1.1-.5 1.1-1 0-.6.8-2 1.9-3.1 2.2-2.4 5.1-11 5.1-15.3 0-7.7-7.4-25.6-10.6-25.6-.6 0-1.6-1-2.3-2.3-2.1-3.6-14.4-14-17.6-14.9-5.4-1.5-22.5-.6-28.7 1.4zm25.1 7.4c6.1 2.9 17.2 13.6 19.8 19.3.9 2 2 3.8 2.3 4.1 2.7 2.2 3.5 13 1.4 18.7-2.7 7.3-7 13.3-9.4 13.3-.5 0-1 .4-1 .8 0 1.9-8.7 2.9-13.6 1.6a70.09 70.09 0 0 0-7.9-1.5c-1.6-.2-3.5-.7-4.1-1.1-.7-.5-1.6-.8-2-.6-3.9 1-19.3-7.3-19.4-10.4 0-.9-.5-2-1.1-2.4-.6-.3-.9-2-.6-3.8.2-1.7-.2-5-1-7.3-.7-2.4-1.3-6-1.2-8 .3-4.2 5.3-16.3 6.8-16.3.5 0 1.7-.7 2.5-1.6 1.9-1.9 12.3-5.7 13.6-4.9.5.3 1.1.1 1.4-.3.9-1.5 9.9-1.2 13.5.4z"/><path d="M353.8 133c-3.8 2.8-6.3 6.2-6.5 8.6-.1 1.4 1.4 5.5 3.4 9 3.3 6.1 3.8 6.5 6.7 6.2 6-.5 7.6-2.4 7.6-8.8 0-5.1.3-6 2.1-6.5 1.3-.4 1.8-1.2 1.5-2.2-.3-.8-.6-2-.6-2.7s-.9-2.2-2.1-3.4c-2.4-2.6-8.8-2.7-12.1-.2zm-237.3 35.5c-4.2 1.6-8.1 2.6-10.3 2.7-3.2.3-18.6 18.8-15.6 18.8.3 0-.1 1.1-.9 2.4-3.4 5.2-4.6 12.7-4.4 27.6.1 8 .6 15.1 1 15.7.5.8.3 1.3-.4 1.3s-.9.8-.4 2.2c.3 1.3.8 3 .9 3.8.1.9.6 2.2 1.1 3s.8 3 .6 5c-.1 2.4.4 4.2 1.9 5.7 1.1 1.3 1.8 2.3 1.4 2.3-.3 0 0 .8.7 1.7 1.2 1.5 1.2 1.6-.3 1-2.1-.8-2.3.6-.4 2.5.7.8 1.7 2.4 2 3.6.4 1.2 1.1 2.2 1.5 2.2.5 0 .8 2.7.7 6 0 3.3.1 6.1.4 6.3.9.3 5.4 8 5.8 9.7.2.8.6 4.1.9 7.4.4 3.8.9 5.3 1.4 4.5 1.3-2 2.8.7 2.3 3.8-.2 1.2 0 2.3.6 2.3s.8.5.5 1c-.4.6-.1 1.7.5 2.5.7.8.9 1.5.6 1.5-.4 0-.2.9.4 2s1.6 1.7 2.2 1.4c.7-.5.9-.2.5.9-.3.9.5 3.6 1.8 6.1 1.4 2.5 2.2 5.3 1.9 6.1-.4.8-.2 1.5.4 1.5s1.3-.6 1.5-1.3c.3-.6.6-.1.6 1.3.1 2.6 5.2 8 7.6 8 .7 0 1.5.5 1.7 1.2.2.6 1.1 1.2 2 1.4.9.1 3.5 1.7 5.7 3.4 3.7 3 4.5 3.2 9.5 2.8 3-.3 5.3-.1 5 .4-.3.4.4.8 1.6.8s1.9.4 1.5.9c-.3.6.3.9 1.3.8 1 0 4.3 1.1 7.3 2.5l11.9 5.7c3.6 1.7 6.1 3.1 5.7 3.1-.5 0 .6 1.2 2.4 2.7 1.8 1.6 3.7 2.7 4.1 2.5.4-.1.8.2.8.6 0 .7 8.2 5.8 8.7 5.5.6-.4 6.3 2 6.3 2.6 0 .4.8.7 1.8.8 2.2.1 5 .8 8.5 2.2 2.5 1 3.1.7 2.8-1.2-.2-1.2.9-.8 4.4 1.9 1.9 1.4 3.9 2.3 4.6 1.9.6-.4 1.5-.1 2 .6.6 1 .9 1.1.9.1 0-.6.7-1.2 1.5-1.2s1.5-.6 1.5-1.3c0-2.8 4.5-6.7 7.7-6.7 1.8 0 3.5.5 3.8 1 1 1.6 3.2-.6 3.8-3.7.3-1.4 0-3.9-.5-5.4-.7-2-.6-3.4.3-5.1.7-1.3 1.2-2.6 1.2-2.9-.1-.4.7-1.5 1.7-2.4 1.1-1 2-2.4 2-3.2 0-.7.5-1.3 1-1.3.6 0 1-1 1-2.3s.4-2.7.8-3.3c.5-.5 1.4-3.5 2.1-6.6 1.1-4.9 1-6.6-.4-11.3-1.7-6-4.6-11.7-7.5-15-3.4-3.7-10.5-12.2-13.3-15.9-1.6-2.1-4.1-4.2-5.5-4.9-1.5-.6-3.4-1.7-4.3-2.4-.8-.7-2.4-1.4-3.6-1.6-3-.4-17.8-9.3-24.5-14.6-3.1-2.5-8.3-6-11.5-7.7-3.2-1.8-6.2-4.1-6.8-5.3-.5-1.2-1.3-2.1-1.7-2.1-.5 0-.8-.7-.8-1.5 0-.9-1.1-2-2.4-2.6-1.5-.7-3.3-3.2-4.7-6.5-1.3-3-2.7-5.4-3.1-5.4-.5 0-.8-.7-.8-1.6s-1.1-3.7-2.5-6.3c-1.3-2.5-3.1-6.2-3.9-8.1-1.8-4.2-4.5-22.3-3.9-26 .7-4.8-1.5-14.7-4.2-18.8-1.6-2.4-4.6-5-7.8-6.6-2.9-1.5-6.5-3.6-8.2-4.6-1.6-1-4-1.9-5.2-1.9-1.2-.1-2.5-.6-2.8-1.1-.8-1.4-3.2-1.2-8 .5zm21.1 15.3c4.9 4.8 5.7 7.2 6.2 17.2.6 12.3.2 12.7-10.7 11.3-11.3-1.5-12.1-2.4-12.1-14.3 0-9.4.1-9.7 3.3-13.2 4.2-4.8 9-5.1 13.3-1zm-31.2 4.4c1.3 1.4 1.8 4.1 2.2 13 .3 6.7.1 11.9-.5 12.8-.7 1.1-2.7 1.4-7.1 1.3-3.4 0-6.4-.4-6.8-.8-1.4-1.3-.8-15.5.7-16.4.7-.5 1.1-1.3.8-1.9-.4-.5.2-1.7 1.3-2.7s2-2.8 2-4 .3-2.4.6-2.8c1.1-1.1 5-.2 6.8 1.5zm41.1 38.6a2.61 2.61 0 0 0 .7 1.7c.4.4.4 1.3.1 2.1s0 1.4.6 1.4 1.1.6 1.1 1.2c0 .7 1.4 3.3 3 5.8s3 5.5 3 6.7c0 1.3.4 2.3 1 2.3.5 0 1.4 1.7 1.9 3.7.9 3.3.8 3.8-1.2 5.2-4.8 3.5-15.6 4.1-21.4 1.2-2.1-1.1-4.6-2.2-5.6-2.5-2.8-.9-4-5.5-3.8-14.6.2-7.8.4-8.7 2.8-10.8 1.4-1.2 3.7-2.2 5-2.2 1.4 0 2.3-.6 2.3-1.5 0-.8.6-1.2 1.4-.9s2.3.1 3.2-.4c2-1.1 5.9 0 5.9 1.6zm-35.2 2.3c1.9 1.5 2.2 2.9 2.4 10.2.2 10.5-.5 11.2-12.2 12.3l-5 .5-1.9-4.7c-2.1-5.2-3.1-12.2-2.2-15.7.4-1.8 1.6-2.7 4.8-3.4 6.3-1.5 11.7-1.2 14.1.8zm7.2 34.4c4.5 1 9.2 3.3 9.8 4.7.9 2.7-.1 14.5-1.6 18-1.3 3.1-2.1 3.8-4.4 3.8-1.5 0-4.9.7-7.5 1.5-5 1.5-5.8 1.1-5.7-2.6 0-1.3-.3-5-.7-8.2-.6-4.8-1.1-6-3.4-7.4-2.9-1.7-7.4-8.9-6.5-10.3.6-1 15.2-.6 20 .5zm54.3 6.3c.2.7 1 1.2 1.7 1.2 1.5 0 6.5 2.5 7.4 3.7.3.5 2.5 2.3 4.8 4.2 3.6 2.7 4.1 3.6 3.3 5.2-.6 1-.8 1.9-.5 1.9 1.8 0-5.8 5.1-9.6 6.5-7.7 2.9-9.4 2.9-14.8-.1-7.9-4.5-11.7-13.7-7.2-17.6 1-.8 2-2 2.2-2.4 1.5-3.3 11.7-5.4 12.7-2.6zm40.2 25.1c6.5 2.8 9.9 5.1 10 6.8 0 .7.4 1.3.8 1.3.5 0 1.6 1.5 2.4 3.4 1.7 3.4 1.6 3.4-1.7 7.3-3.8 4.5-13.8 10.1-18.7 10.4-5.8.4-9 0-8.2-1.2.4-.7 0-.9-1.2-.5-2.2.6-4-.7-7.2-5.2-1.9-2.6-2.2-4.1-1.7-6.8.3-1.9 1-3.4 1.4-3.4.5 0 1.2-1.2 1.5-2.6.4-1.4 1.7-3.6 2.9-4.9 3-3.2 5.7-6.8 5.7-7.6 0-1.2 6.4-1.5 7.5-.4.6.6 3.5 2.1 6.5 3.4zm-67.5 5.1c3.4 1.3 6.5 6.7 6.5 11.5 0 6.3-2.7 10.4-8.5 12.8-2.7 1.2-5.1 2.5-5.3 2.9s-1 .8-1.8.8c-.7 0-1.9.9-2.6 2s-1.7 2-2.2 2-1.7.7-2.7 1.6c-1.7 1.5-2 1.4-4.3-1.2-1.4-1.6-2.6-3.4-2.6-3.9 0-.6-.9-2.1-2-3.5s-2-3.5-2-4.7-.4-2.5-1-2.8c-.5-.3-1-1.4-1-2.4s-1.2-4-2.6-6.6c-2.4-4.6-2.4-4.9-.7-5.9 1-.6 2.3-1.1 2.8-1.2 2.4-.2 9.1-1.7 10.2-2.3 1.8-.9 16.8-.3 19.8.9zm91.4 18.7c4.9 4.9 6.4 8.5 6.9 16.4.3 6 .1 8.2-1.2 10-.9 1.3-1.6 3.1-1.6 4s-1.3 3.4-2.9 5.6c-1.6 2.3-2.7 4.3-2.4 4.6.2.3-.7 1.3-2.1 2.2-2.6 1.7-4.6 1.3-4.6-.9 0-.7-.9-2.1-2-3.1s-2-2.3-2-2.8c0-.6-.6-1.8-1.4-2.6-.8-.9-1.8-3.9-2.1-6.6-.8-5.7-.8-5.8-.6-6.5.1-.3.4-1.9.5-3.6.4-3.9 3.5-8.3 5.9-8.4.9 0 1.7-.7 1.7-1.5 0-.9.6-1.8 1.4-2.1s1.9-1.9 2.5-3.5c1.2-3.4 1.6-3.5 4-1.2zm-63.4 13.4c1.6 1.7 1.7 2.5.8 4.9-.9 2.3-.8 3.2.1 3.7 2.2 1.5 4.6 6.2 4.6 9.2 0 5.8-.6 6.1-6.3 3.2-2.9-1.4-5.3-2.9-5.5-3.4-.2-.4-1.2-.7-2.2-.7s-2.1-.4-2.4-.9c-.5-.8-6.5-2.2-9.3-2.3-.5 0-1.6-.4-2.5-.9s-3.8-1.1-6.3-1.4c-5.7-.6-6.4-1-5.8-3.4.5-1.9 7.6-6.5 8.6-5.5.3.3 1.7-.2 3.1-1.1 2.7-1.8 9.6-3.2 16.7-3.4 3.5-.1 5 .4 6.4 2zm31.3 17.9c2.2 1.4 8.2 9.3 8.2 10.7 0 .4.9 1.7 2 2.9 1.4 1.4 2.2 3.7 2.3 6.5l.2 4.4-3.5-.2c-4.5-.3-6.8-.7-7.6-1.6-.4-.4-1.9-.7-3.3-.7s-5.1-1.7-8.1-3.9c-4.3-3-5.4-4.3-5.3-6.2.5-4.9 1.4-6.9 4.4-10.4 3.3-3.8 6.4-4.2 10.7-1.5zm138.3-155.5c-1.3 1.4-3.2 2.5-4.2 2.6-6.6.2-10.9.1-14.4-.5-3.7-.5-23.7-1.9-29.5-1.9-5.9-.1-15 .9-15 1.5 0 .4-1 .7-2.2.7-9-.4-24.1 1.2-28 3.1-3.8 1.7-7.5 2.8-17 4.7-1.6.3-2.8.9-2.8 1.4s-.7.9-1.5.9-1.5.5-1.5 1.1-1.1 2.5-2.4 4.2c-1.8 2.3-2.6 5-3 9.6-.4 3.5-.9 7.4-1.2 8.6-.6 2.6 3.7 10 5.1 8.7.4-.4.6 0 .2.9-.6 1.9 3.1 5.9 5.5 5.9.9 0 2.1.7 2.8 1.5s2 1.5 2.9 1.5 2.2.5 2.8 1.1c1.2 1.2 4.6.7 7.2-1s-1.1-5.7-5.8-6.4c-4.2-.5-9-3.4-9.1-5.5 0-.6-.4-1.2-.8-1.2-.9 0-3.2-7.9-3.2-10.9 0-1 .7-3.2 1.5-4.7.8-1.6 1.5-3.7 1.5-4.7 0-.9.7-1.7 1.5-1.7a1.54 1.54 0 0 0 1.5-1.5c0-1.5 1.6-1.9 5.3-1.6.9.1 1.7-.3 1.7-.8 0-.6 1.9-1.1 4.3-1.1 3.1 0 4.9-.6 6.2-2 1.2-1.3 2.2-1.7 2.8-1.1.7.7 1.7.7 2.9 0 1-.6 4.8-1.2 8.3-1.5 3.6-.2 7.5-.8 8.8-1.3s3.5-.7 5-.4c1.7.3 2.7.1 2.7-.6s.5-.9 1.3-.4c1.6 1 13.7 1 13.7 0 0-.5.5-.5 1.1-.1.7.4 5.7.8 11.3.9 5.6.2 13 .6 16.6 1 8.6 1 12.8.9 14.5-.5 1-.8 1.4-.8 1.8.2.4.9.8 1 1.4.2.4-.6 1.6-1.3 2.6-1.7.9-.3 1.7-1.3 1.7-2.2 0-.8.5-1.5 1-1.5 1.4 0 1.3-3.3-.2-4.8-1.8-1.8-3-1.5-5.7 1.3zm22.9 16.3c-1.9.2-3.9.8-4.4 1.3-.6.5-1.6.9-2.3.9-2.2 0-5.4 3.3-7.9 8.2-1.9 3.8-2.4 6.3-2.4 12.5 0 5.3.5 8.5 1.5 9.9.8 1.2 1.1 2.4.8 2.8-.3.3.1.6.9.6 1 0 1.6.9 1.6 2.5 0 1.4.8 3.7 1.8 5.2 1 1.6 1.9 3.1 1.9 3.5s1 1.5 2.3 2.3c1.2.9 2.2 2.2 2.2 3 0 2.3 8.1 7.5 11.8 7.5 1.8 0 3.1.4 2.8.9-.8 1.2 3.1 1.9 8.4 1.4 2.5-.3 6.4-.6 8.7-.8 2.3-.1 4.8-.9 5.6-1.6.7-.8 2.6-2.3 4-3.4 1.5-1.1 2.7-2.6 2.7-3.3s.7-1.5 1.5-1.8c.8-.4 1.2-1 .9-1.5s-.1-.9.5-.9c.9 0 2.8-8.1 2.4-10.5-1-6.6-2.8-13.6-4.4-16.7-1.9-3.8-10.8-12.8-13.8-14-.9-.3-2.6-1.6-3.9-2.8-4.5-4.3-13.3-6.3-23.2-5.2zm12.2 9.7c1.3.8 3.1 1.5 4.1 1.5 2.9 0 16.7 14.2 16.7 17.2 0 1.4.6 4.3 1.4 6.4 1.1 3.2 1.1 4.8.1 8.4l-1.6 6c-.8 3.2-7.7 6.7-13.4 6.9-12.1.4-23.3-10.1-25-23.5-.2-2-1.4-4.7-2.5-5.9-2.1-2.2-2.8-8.5-1-8.5.6 0 1-.5 1-1.1 0-1.7 5-7.3 6.7-7.5.8-.2 1.6-.4 1.8-.6 1.2-1.1 9.8-.7 11.7.7zm3.2 17.2c-2.5.2-4.9 1.2-5.9 2.3-1.7 1.9-1.7 2.2 0 6.7 2.3 6 6 9.7 8.9 8.9 2.7-.7 6.1-6 7-11 .8-4.2-1.3-7.8-4.3-7.4-.9.1-3.5.3-5.7.5z"/><path d="M190.738 400.621c-11.695-.939-17.793-1.545-26.821-2.666l-11.249-1.312c-.376 0-1.102-.488-1.612-1.084s-1.598-1.084-2.433-1.084c-.925 0-1.505-.291-1.505-.754 0-.415-.549-.894-1.219-1.065s-2.56-1.322-4.198-2.557-4.321-2.928-5.96-3.762-3.802-2.371-4.804-3.416l-1.823-1.9 1.68-.869c1.925-.995 2.593-2.865 1.894-5.301-.639-2.227-2.447-3.474-6.768-4.668-4.677-1.293-7.632-3.071-13.263-7.98-2.538-2.213-5.697-4.768-7.021-5.679s-2.81-2.437-3.303-3.391c-1.32-2.554-8.578-12.064-12.159-15.93-1.71-1.847-3.269-3.861-3.464-4.476s-1.041-1.473-1.879-1.907c-.856-.443-1.685-1.429-1.891-2.251-.202-.805-1.697-4.393-3.323-7.973s-3.426-8.032-4-9.892-1.668-4.612-2.43-6.116-1.386-3.548-1.386-4.544c0-1.079-.547-2.55-1.355-3.645-.745-1.01-1.355-2.391-1.355-3.07 0-1.752-3.056-9.904-4.177-11.143-.517-.571-1.005-2.056-1.085-3.301s-1.236-6.165-2.568-10.933c-3.227-11.555-4.387-18.037-5.43-30.344a690.98 690.98 0 0 0-1.974-19.507c-1.447-12.101-1.545-21.365-.29-27.364 1.506-7.195 3.602-14.671 4.736-16.894.569-1.115 1.035-2.565 1.035-3.221s.607-2.23 1.35-3.497 1.702-3.812 2.132-5.655 1.164-3.773 1.63-4.289.848-1.324.848-1.797 1.013-2.77 2.251-5.105 2.564-5.431 2.947-6.881 1.199-2.987 1.813-3.417 1.117-1.345 1.117-2.033.444-1.832.987-2.543 2.026-3.243 3.296-5.627c3.915-7.351 9.26-13.806 14.877-17.967 1.746-1.294 3.711-2.352 4.367-2.352s1.665-.358 2.243-.796 1.905-.804 2.948-.813 3.442-.749 5.332-1.643c4.009-1.897 3.88-1.871 3.88-.775 0 .576.394.79 1.219.664.671-.102 1.158-.485 1.084-.85s.002-.664.17-.664 3.277-.618 6.909-1.373c14.504-3.016 31.759-2.632 51.344 1.144 3.746.722 9.543 1.673 12.883 2.114s6.539 1.05 7.107 1.354 1.638.553 2.376.553 2.729.531 4.425 1.18c2.45.938 3.289 1.051 4.085.554.819-.512 1.279-.398 2.519.623 1.79 1.473 14.897 5.722 19.008 6.162 1.573.168 2.99.515 3.148.771.437.708 2.27.553 2.528-.213.181-.538.401-.535 1.069.017.463.382 4.221 1.587 8.351 2.678 7.196 1.901 7.895 1.985 16.722 2.015 9.278.031 9.996-.076 16.256-2.419a7.83 7.83 0 0 1 2.167-.425c.596-.01 2.547-.902 4.335-1.982s4.294-2.227 5.568-2.549 2.772-1.166 3.329-1.873c.772-.981 1.541-1.287 3.237-1.287 2.161 0 4.392-1.376 4.392-2.709 0-.298 1.166-.542 2.592-.542 2.04 0 3.219-.404 5.536-1.897 1.619-1.043 3.512-1.897 4.207-1.897s1.858-.642 2.585-1.427c1.061-1.145 1.476-1.299 2.099-.782.615.511 1.345.357 3.511-.741 1.504-.762 3.169-1.386 3.7-1.386 1.292-.001 7.007-2.785 9.335-4.547 1.026-.777 2.399-1.413 3.049-1.413s1.487-.366 1.858-.813c.409-.493 1.596-.813 3.015-.813 1.287 0 2.491-.244 2.675-.542s.881-.542 1.549-.542 1.455-.241 1.75-.536c.732-.732 14.856-2.173 21.3-2.173 10.26 0 25.017 2.512 35.527 6.049 3.566 1.2 8.475 2.759 10.911 3.464s6.899 2.268 9.919 3.471 6.035 2.195 6.7 2.205 2.184.618 3.376 1.352 2.552 1.336 3.021 1.338 1.426.612 2.126 1.357 1.712 1.355 2.249 1.355 1.753.853 2.702 1.897 2.174 1.897 2.722 1.897.997.258.997.573 3.576 4.278 7.947 8.805c9.154 9.483 10.166 11.176 9.831 16.446-.273 4.285-1.37 5.597-5.025 6.009-2.776.313-3.541 1.299-3.541 4.565 0 1.49.131 1.616 1.359 1.308 1.775-.445 4.212.836 5.038 2.648.523 1.148.492 1.722-.162 2.987-.445.861-1.055 1.717-1.355 1.902s-.546.858-.546 1.494c0 1.169-5.403 6.907-6.504 6.907-.311 0-2.598-1.951-5.081-4.335s-4.794-4.335-5.135-4.335c-1.196 0-2.787 2.175-2.787 3.81 0 2.528 1.2 4.848 4.211 8.143l2.754 3.013-1.892 2.391c-1.984 2.507-4.295 4.308-5.537 4.314-.404.002-1.492.641-2.417 1.419-1.498 1.261-1.992 1.379-4.51 1.084-4.414-.519-4.737.079-5.31 9.846-.175 2.978-.645 5.706-1.152 6.687-.471.911-.735 1.972-.587 2.358.352.918-1.116 2.994-2.119 2.994-.431 0-1.659-1.219-2.729-2.709-1.568-2.183-2.252-2.709-3.521-2.709-1.825 0-3.742 1.675-3.742 3.269 0 2.68 3.059 7.569 4.736 7.569 1.738 0 4.499 2.937 6.288 6.688 1.017 2.133 2.472 4.544 3.234 5.358 1.944 2.077 6.189 4.673 8.763 5.358 1.197.318 2.593.951 3.103 1.406.706.63 1.545.735 3.522.441 2.919-.435 3.95-1.07 3.95-2.435 0-1.311-1.49-2.424-4.335-3.236-2.782-.794-7.35-3.005-7.836-3.791-.465-.753 2.155-2.33 4.496-2.707 1.777-.286 2.064-.569 2.741-2.703.955-3.012.389-4.009-2.504-4.405-2.632-.361-4.909-1.766-5.537-3.416-.566-1.488.286-6.651 1.377-8.343.62-.961 1.291-1.219 3.176-1.219 1.315 0 3.046-.249 3.846-.554 1.057-.402 1.674-.372 2.253.108 1.237 1.027 6.286.893 7.376-.196.503-.502 1.4-1.067 1.994-1.256 2.68-.851.421-3.2-3.826-3.977-2.964-.543-7.556-2.134-7.556-2.618 0-1.114 1.638-2.608 4.376-3.99 2.082-1.051 3.434-2.122 3.759-2.978.28-.735.941-1.342 1.47-1.348.546-.007 1.313-.764 1.774-1.752.447-.957 1.91-2.53 3.251-3.494 5.283-3.799 5.587-4.163 8.25-9.851 1.459-3.117 3.386-6.688 4.282-7.935 1.359-1.892 1.681-2.956 1.943-6.427.173-2.287.513-4.282.755-4.431.838-.518 4.913 3.775 6.434 6.776.839 1.657 2.291 3.972 3.227 5.144s1.568 2.476 1.407 2.898.308 1.482 1.043 2.356 2.23 3.289 3.322 5.365 2.165 3.776 2.385 3.776.543 1.038.717 2.307.93 3.696 1.681 5.393c2.91 6.58 3.79 11.367 3.816 20.748.025 9.201-.787 13.992-2.881 16.989-.551.789-1.148 2.377-1.328 3.53-.446 2.863-3.689 8.105-9.547 15.432-2.704 3.382-4.916 6.352-4.916 6.601 0 .629-12.591 11.144-16.437 13.726-1.739 1.168-3.431 2.713-3.759 3.434-.608 1.334-11.426 10.459-12.399 10.459-.293 0-1.553.699-2.798 1.553-3.301 2.263-7.241 4.16-13.23 6.371l-9.626 3.559c-2.384.883-6.773 2.307-9.753 3.164s-7.979 2.44-11.108 3.518-6.298 1.964-7.042 1.97-1.492.235-1.661.509-2.749 1.424-5.732 2.555c-7.089 2.688-20.489 10.48-28.578 16.618-3.541 2.687-7.523 5.621-8.849 6.52s-2.647 2.058-2.936 2.574-1.09.938-1.781.938c-.865 0-1.703.676-2.694 2.173-.791 1.195-3.216 4.182-5.39 6.638-5.595 6.321-8.442 10.053-8.821 11.561-.18.716-.679 1.302-1.109 1.302s-1.115.792-1.522 1.761-1.492 2.795-2.411 4.059-1.671 2.73-1.671 3.258-.539 1.201-1.198 1.495-3.015 2.729-5.236 5.412c-4.485 5.417-18.173 19.236-19.052 19.236-.309 0-2.199 1.256-4.2 2.791-3.499 2.685-12.524 7.504-14.051 7.504-.406 0-1.399.485-2.207 1.077s-2.809 1.327-4.448 1.632a59.01 59.01 0 0 0-6.231 1.62c-1.788.586-5.69 1.453-8.67 1.926s-7.125 1.221-9.212 1.66c-17.373 3.66-39.876 5.708-52.019 4.733zm35.492-16.16c0-.441.598-.953 1.33-1.136.876-.22 1.528-.933 1.909-2.088.601-1.821 2.671-4.067 4.718-5.118 1.468-.754 5.408-.799 5.861-.066.693 1.121 2.477.505 3.528-1.219 1.21-1.984 1.366-4.742.471-8.298-.533-2.118-.46-2.753.604-5.225.666-1.548 1.89-3.68 2.72-4.738s1.665-2.449 1.855-3.092.703-1.306 1.139-1.473.792-.831.792-1.476.72-3.273 1.6-5.842c2.39-6.978 2.586-10.662.877-16.476-2.09-7.106-4.604-11.581-10.189-18.135l-8.54-10.245c-4.972-6.152-7.176-7.668-19.069-13.115-5.614-2.571-13.132-7.228-20.982-12.995-3.157-2.319-7.812-5.467-10.346-6.994s-5.337-3.525-6.231-4.439c-3.659-3.739-4.064-4.241-4.064-5.032 0-.454-1.107-1.733-2.46-2.842-1.788-1.465-3.122-3.333-4.882-6.839-1.332-2.652-2.636-4.823-2.898-4.823s-.632-.831-.823-1.848-1.706-4.613-3.367-7.992c-4.381-8.912-6.702-19.75-6.702-31.298 0-10.549-2.508-18.327-7.316-22.688-3.208-2.91-15.267-9.588-18.233-10.097-1.088-.187-2.276-.699-2.64-1.138-1.033-1.245-3.728-.957-10.283 1.098-3.327 1.043-6.529 1.897-7.115 1.897-1.943 0-4.063 1.526-8.057 5.798-4.91 5.253-9.212 11.307-9.212 12.965 0 .689-.712 2.663-1.583 4.385-2.808 5.556-3.447 10.208-3.404 24.806.021 7.153.264 14.15.541 15.549.405 2.05.351 2.603-.278 2.844-.918.352-.684 1.798 1.264 7.82.711 2.199 1.293 5.271 1.293 6.827 0 2.286.313 3.262 1.629 5.079.896 1.237 1.497 2.249 1.336 2.249s-.032.488.287 1.084c.458.856.412 1.084-.22 1.084-1.559 0-1.504 1.203.16 3.52.927 1.291 1.685 2.579 1.685 2.862s.451 1.097 1.003 1.808c.765.986 1.091 2.68 1.373 7.142.347 5.485.483 6.009 2.183 8.399 3.18 4.471 3.998 6.685 4.82 13.044.432 3.345.931 6.227 1.109 6.405s.673.033 1.101-.322c1.037-.861 1.529-.028 1.51 2.559-.012 1.754 1.226 6.496 2.694 10.314.269.7.943 1.392 1.497 1.537.638.167 1.114.923 1.299 2.061.16.989 1.042 3.508 1.96 5.598s1.668 4.552 1.668 5.471c0 1.748.89 2.189 2.059 1.02.506-.506.65-.347.65.716 0 2.542 5.278 8.062 7.708 8.062.547 0 1.145.39 1.328.866s1.333 1.306 2.557 1.844 3.796 2.099 5.717 3.469l3.492 2.491h5.313c3.181 0 5.313.217 5.313.542 0 .298.61.542 1.355.542.795 0 1.355.311 1.355.752 0 .432.814.905 1.913 1.111 4.916.922 22.694 9.739 25.701 12.746 1.172 1.172 2.894 2.525 3.827 3.007s2.836 1.747 4.228 2.81c2.628 2.007 5.046 3.228 9.45 4.773 1.421.498 2.884 1.206 3.251 1.573s2.252.978 4.19 1.358 4.344 1.033 5.349 1.452c2.642 1.101 4.294.982 4.502-.324.159-.994.445-.904 3.424 1.082 2.138 1.425 3.86 2.168 5.029 2.169 1.079.001 1.901.321 2.09.815.402 1.047 1.28 1.054 1.28.01zm165.345-111.382c3.086-.309 6.343-.798 7.237-1.088 2.612-.847 9.502-7.93 11.553-11.875 1.371-2.638 2.379-8.308 2.027-11.402-.551-4.842-2.941-13.536-4.516-16.43-1.764-3.242-9.204-11.007-12.587-13.137a64.69 64.69 0 0 1-4.606-3.244c-4.761-3.753-8.794-5.062-16.798-5.452-5.975-.291-6.93-.146-13.527 2.054-3.075 1.025-6.05 4.25-8.333 9.031l-1.981 4.149v7.857c0 6.419.174 8.195.948 9.701.522 1.014.948 2.295.948 2.845s.357 1 .794 1c.953 0 1.916 1.646 1.916 3.275 0 1.834 3.201 7.573 5.729 10.271 1.256 1.341 2.448 2.985 2.648 3.653.787 2.631 9.107 7.184 13.126 7.184.727 0 1.256.326 1.256.773 0 .425.427.885.948 1.021 1.758.459 7.571.377 13.218-.187zm-143.973-23.482c.762-.499 1.385-1.409 1.385-2.021 0-1.682-2.784-4.119-5.468-4.787-4.873-1.213-6.438-1.853-8.319-3.403-1.06-.874-1.927-1.856-1.927-2.184s-.396-1.033-.881-1.568c-1.059-1.17-2.912-7.591-2.912-10.09 0-.984.586-3.184 1.302-4.888s1.386-3.709 1.49-4.454c.104-.751.716-1.586 1.372-1.874s1.438-1.078 1.749-1.761c.473-1.037.984-1.241 3.108-1.241 1.6 0 2.908-.331 3.528-.892.596-.539 2.434-1.031 4.648-1.243 3.74-.359 5.393-.964 6.599-2.418.449-.541 1.2-.715 2.21-.513.841.168 2.344.042 3.339-.281s4.858-.949 8.583-1.391 7.627-1.063 8.67-1.38 2.802-.429 3.909-.249 2.326.131 2.709-.11 3.867-.466 7.741-.5l7.857-.181c1.18-.172 20.919.94 27.935 1.574 8.501.768 13.022.685 14.872-.272 1.409-.728 1.621-.725 2.047.037.414.74.801.652 2.994-.677 1.385-.84 2.676-2.015 2.87-2.611s.833-1.542 1.422-2.103c1.96-1.867-.041-6.296-2.846-6.296-.539 0-2.28 1.121-3.868 2.491l-2.889 2.491-8.67-.296c-4.768-.163-13.425-.667-19.236-1.12-16.08-1.254-30.507-.91-32.185.768-.299.299-3.276.543-6.617.543-9.066 0-18.377 1.375-25.68 3.793-3.427 1.135-8.59 2.59-11.472 3.234-2.966.663-5.765 1.626-6.45 2.22-.665.577-1.538 1.049-1.939 1.049s-.73.288-.73.64-.985 2.151-2.188 3.998c-2.269 3.483-2.586 4.663-3.955 14.71-.826 6.063-.213 8.843 2.609 11.835 1.029 1.091 2.028 2.507 2.221 3.146.549 1.822 2.93 4.058 5.059 4.751a12.58 12.58 0 0 1 3.474 1.909c.842.702 2.076 1.276 2.741 1.276s1.683.373 2.261.829c1.336 1.053 5.592.777 7.523-.488zm122.22-67.012c5.011-.791 8.504-2.037 10.48-3.739.941-.811 2.128-1.626 2.638-1.811s1.55-1.568 2.312-3.072 1.581-2.735 1.819-2.735c.906 0 5.09-7.387 6.415-11.328 1.96-5.828 2.158-9.248.838-14.468-2.283-9.027-6.729-18.296-9.388-19.57-.775-.371-2.106-1.682-2.959-2.912-1.826-2.635-9.418-9.411-13.892-12.399-2.325-1.553-3.962-2.204-6.256-2.491-4.172-.521-17.913.136-22.623 1.082-4.021.808-8.586 2.552-9.175 3.505-.195.315-1.205.976-2.245 1.47-3.368 1.598-10.525 11.055-10.525 13.906 0 .838-.549 2.551-1.219 3.805-1.118 2.093-1.219 2.997-1.219 10.951 0 9.67.627 13.183 2.925 16.381.807 1.123 2.745 4.167 4.308 6.764s3.709 5.437 4.768 6.311c3.535 2.914 13.532 6.15 25.374 8.214 3.569.622 7.105 1.458 7.857 1.857 1.701.903 5.176 1.002 9.767.277zm-14.268-8.387l-7.205-1.82c-.734-.335-2.245-.608-3.356-.608-2.245 0-12.882-5.006-15.33-7.214-2.468-2.226-4.273-6.547-4.273-10.228 0-1.795-.397-4.762-.882-6.593-1.183-4.465-1.172-8.663.034-12.27 1.559-4.665 4.636-10.869 5.568-11.227.466-.179 2.049-1.134 3.519-2.123 2.795-1.881 10.952-4.769 12.16-4.305.385.148 1.379-.085 2.207-.517 1.789-.933 6.075-1.022 9.887-.204 6.453 1.384 18.4 12.197 22.997 20.815.795 1.49 1.918 3.453 2.495 4.362 1.452 2.284 2.212 8.327 1.629 12.952-.645 5.122-4.483 12.91-7.718 15.663l-3.318 2.838c-2.53 2.191-9.271 2.366-18.415.479zm7.076-18.443c1.678-1.099 2.249-2.725 2.621-7.454.414-5.268.672-6.333 1.536-6.333 2.693 0 2.397-5.442-.466-8.566-1.678-1.831-2.041-1.972-5.581-2.172-4.771-.27-6.771.613-10.407 4.591-4.185 4.58-4.173 6.776.085 14.817 3.303 6.237 3.851 6.683 7.718 6.286 1.768-.181 3.79-.707 4.495-1.169zm17.211 109.866c-9.123-3.155-15.786-11.034-17.867-21.127-.448-2.172-1.242-4.691-1.765-5.598-2.461-4.265-2.846-5.211-2.847-6.994-.001-1.242.379-2.237 1.083-2.839.596-.51 1.084-1.27 1.084-1.687 0-1.508 4.773-6.109 7.364-7.098 3.202-1.223 9.182-.883 12.701.721 1.332.607 3.128 1.253 3.992 1.436 1.575.333 12.747 10.923 14.601 13.842 1.014 1.596 3.607 11.418 3.607 13.665 0 .837-.52 3.594-1.155 6.127-1.025 4.087-1.404 4.818-3.364 6.496-4.228 3.619-11.913 4.966-17.434 3.057zm8.241-11.624c3.806-4.005 5.637-11.265 3.759-14.897-1.152-2.227-2.033-2.434-7.641-1.797-7.28.827-9.95 2.939-8.842 6.995.971 3.558 3.3 7.69 5.407 9.593 2.77 2.503 5.009 2.535 7.317.106zM230.852 361.63c-.456-.456-.828-1.154-.828-1.551s-.853-1.744-1.897-2.993-1.897-2.514-1.897-2.812-.486-1.225-1.08-2.06c-2.452-3.443-3.547-12.184-2.217-17.703.764-3.17 3.862-7.227 5.519-7.227.627 0 1.322-.603 1.716-1.49.365-.82 1.185-1.912 1.822-2.428s1.542-1.897 2.012-3.07 1.152-2.316 1.517-2.542c.939-.58 5.216 4.278 6.805 7.73 2.544 5.529 3.16 15.16 1.207 18.889-.618 1.181-1.446 3.177-1.839 4.436s-1.716 3.874-2.94 5.812-2.225 3.877-2.225 4.311c0 .792-2.171 2.562-3.913 3.19-.521.188-1.298-.029-1.761-.492zm-31.278-37.965c-.582-.153-.797-.559-.586-1.107.273-.712.044-.807-1.294-.54-2.26.452-4.368-.967-6.902-4.646-1.745-2.534-2.08-3.458-2.037-5.616.032-1.607.436-3.102 1.068-3.959.559-.757 1.509-2.473 2.111-3.814s2.713-4.372 4.691-6.734 3.596-4.59 3.596-4.949c0-.716 1.686-1.302 3.78-1.314 1.519-.008 15.072 6.463 17.759 8.48.969.727 1.761 1.637 1.761 2.023s.514 1.166 1.141 1.733c1.451 1.312 3.193 4.703 3.193 6.214 0 1.55-6.431 7.846-10.377 10.159-6.119 3.587-13.431 5.248-17.905 4.069zm13.884 50.209c-2.108-.222-4.546-.765-5.419-1.206s-2.637-.936-3.92-1.1c-4.499-.575-13.109-6.849-13.109-9.552 0-3.09 1.632-6.986 4.055-9.682 3.306-3.677 5.003-4.33 8.139-3.132 2.853 1.09 7.432 5.87 9.751 10.181.844 1.569 2.094 3.53 2.778 4.359s1.496 2.414 1.804 3.522c.648 2.334.757 7.198.159 7.089-.224-.04-2.131-.256-4.238-.478zm-40.262-21.37c-1.9-1.031-3.87-2.25-4.378-2.71s-1.395-.836-1.972-.836-1.929-.472-3.005-1.048-3.511-1.341-5.411-1.698-4.795-1.081-6.435-1.609a40.48 40.48 0 0 0-6.231-1.354c-4.275-.52-5.69-1.093-5.69-2.303 0-1.814 5.553-6.069 7.927-6.073.635-.001 2.501-.619 4.148-1.373 3.863-1.769 10.179-2.964 15.661-2.964 4.21 0 4.397.055 6.174 1.832l1.832 1.832-1.668 5.617 1.851 2.049c2.453 2.715 3.741 6.206 3.529 9.562-.152 2.406-.307 2.692-1.524 2.814-.745.075-2.909-.707-4.809-1.738zm-47.739-20.934c-1.199-1.517-2.18-2.997-2.18-3.289s-.719-1.576-1.598-2.854-1.889-3.516-2.244-4.974-.977-3.036-1.382-3.507-.736-1.337-.736-1.925-.975-3.087-2.167-5.552-2.167-4.823-2.167-5.241c0-1.152 2.536-2.229 8.454-3.592 4.242-.977 7.005-1.237 13.22-1.247 4.321-.007 8.764.181 9.873.416 8.188 1.738 10.883 15.387 4.213 21.336-.947.845-4.185 2.814-7.194 4.375s-6.218 3.526-7.13 4.367c-1.594 1.469-5.952 4.445-6.511 4.445-.148 0-1.251-1.241-2.45-2.758zm-14.535-40.157c-.358-.358-.65-1.766-.65-3.13 0-3.692-1.055-11.409-1.733-12.676-.326-.61-1.839-2.247-3.363-3.639-2.694-2.462-6-7.767-5.423-8.701.406-.657 11.798-.576 16.792.118 4.54.631 8.691 2.062 11.231 3.871l1.609 1.146-.308 6.548c-.488 10.38-2.471 14.946-6.492 14.946-1.002 0-3.635.482-5.85 1.071-4.777 1.27-4.976 1.286-5.815.446zm56.953 1.531c-5.815-2.779-10.461-8.824-10.461-13.613 0-1.817.421-2.735 2.303-5.017 2.709-3.286 5.761-4.971 9.729-5.373 2.584-.261 2.999-.15 4.183 1.12.722.776 1.698 1.416 2.167 1.423 1.863.026 5.408 2.18 9.794 5.953 5.429 4.67 5.737 5.098 4.93 6.868-.335.735-.499 1.513-.366 1.73.392.635-6.155 4.799-9.983 6.35-5.114 2.072-8.782 2.238-12.297.559zm-27.53-33.747c-.596-.162-3.331-1.277-6.078-2.478-4.811-2.104-5.029-2.276-5.96-4.688-1.42-3.679-1.412-17.587.011-19.758 1.269-1.936 3.903-3.533 6.545-3.966 1.407-.231 2.191-.677 2.366-1.348.177-.677.759-1.003 1.789-1.003a10.11 10.11 0 0 0 2.995-.558c2.459-.935 4.808.183 5.633 2.683.38 1.152.529 2.358.33 2.68s.136 1.012.745 1.533 1.107 1.167 1.107 1.435 1.214 2.591 2.697 5.163 2.862 5.529 3.064 6.572.924 2.568 1.605 3.389 1.408 2.628 1.616 4.017c.43 2.87.101 3.288-4.106 5.209-1.833.837-3.784 1.151-7.857 1.264-2.98.083-5.906.018-6.502-.143zm-10.295-47.658c-7.862-1.402-8.67-2.717-8.67-14.113v-8.21l1.692-2.356c5.115-7.124 11.039-7.254 16.486-.363 2.622 3.317 3.12 5.035 3.822 13.179.615 7.136.352 10.303-.977 11.771-1.083 1.196-5.958 1.233-12.353.092zm-33.102 38.344c-2.189-5.203-3.086-8.807-3.341-13.427-.341-6.166.097-6.745 6.117-8.084 6.996-1.557 12.399-.38 13.801 3.007.424 1.025.719 4.272.754 8.31.079 9.235-.546 10.082-8.244 11.159-8.598 1.203-8.155 1.25-9.086-.964zm-1.027-35.239c-1.368-.293-1.679-.679-2.02-2.51-.643-3.458.071-11.095 1.257-13.443.575-1.137.917-2.275.76-2.528s.32-1.179 1.059-2.056c1.562-1.856 2.457-3.983 2.457-5.836 0-2.891 5.953-1.704 7.468 1.49.922 1.943 1.893 15.408 1.463 20.276-.302 3.419-.494 3.929-1.681 4.47-1.409.642-8.01.726-10.763.136z" fill="#fff"/></svg>