<?xml version="1.0" encoding="UTF-8" standalone="no"?>
<svg
   xmlns:dc="http://purl.org/dc/elements/1.1/"
   xmlns:cc="http://creativecommons.org/ns#"
   xmlns:rdf="http://www.w3.org/1999/02/22-rdf-syntax-ns#"
   xmlns:svg="http://www.w3.org/2000/svg"
   xmlns="http://www.w3.org/2000/svg"
   xmlns:sodipodi="http://sodipodi.sourceforge.net/DTD/sodipodi-0.dtd"
   xmlns:inkscape="http://www.inkscape.org/namespaces/inkscape"
   version="1.0"
   width="514.000000pt"
   height="685.000000pt"
   viewBox="0 0 514.000000 685.000000"
   preserveAspectRatio="xMidYMid meet"
   id="svg18"
   sodipodi:docname="face1_copy.svg"
   inkscape:version="1.0.1 (3bc2e813f5, 2020-09-07)">
  <metadata
     id="metadata24">
    <rdf:RDF>
      <cc:Work
         rdf:about="">
        <dc:format>image/svg+xml</dc:format>
        <dc:type
           rdf:resource="http://purl.org/dc/dcmitype/StillImage" />
      </cc:Work>
    </rdf:RDF>
  </metadata>
  <defs
     id="defs22" />
  <sodipodi:namedview
     pagecolor="#ffffff"
     bordercolor="#666666"
     borderopacity="1"
     objecttolerance="10"
     gridtolerance="10"
     guidetolerance="10"
     inkscape:pageopacity="0"
     inkscape:pageshadow="2"
     inkscape:window-width="1920"
     inkscape:window-height="1027"
     id="namedview20"
     showgrid="false"
     inkscape:zoom="0.94160584"
     inkscape:cx="342.66667"
     inkscape:cy="453.12661"
     inkscape:window-x="1912"
     inkscape:window-y="-8"
     inkscape:window-maximized="1"
     inkscape:current-layer="g16" />
  <g
     transform="translate(0.000000,685.000000) scale(0.100000,-0.100000)"
     fill="#000000"
     stroke="none"
     id="g16">
    <path
       d="M2510 6486 c-25 -4 -48 -13 -52 -20 -4 -6 -8 -8 -8 -4 0 9 -129 -28 -146 -43 -8 -6 -14 -9 -14 -5 0 4 -19 -3 -42 -15 -24 -12 -43 -20 -43 -18 0 2 -11 -4 -25 -14 -13 -9 -32 -17 -42 -17 -10 0 -18 -4 -18 -10 0 -5 -19 -15 -42 -22 -24 -7 -52 -20 -62 -30 -11 -10 -25 -18 -32 -18 -7 0 -14 -4 -16 -9 -1 -5 -9 -11 -17 -13 -7 -2 -24 -13 -37 -25 -13 -13 -29 -23 -36 -23 -7 0 -22 -11 -32 -25 -10 -14 -23 -25 -27 -25 -13 0 -46 -29 -97 -82 -24 -26 -53 -50 -63 -53 -10 -3 -20 -14 -23 -23 -3 -10 -20 -33 -38 -52 -18 -19 -55 -69 -82 -110 -27 -41 -54 -78 -59 -81 -5 -3 -8 -9 -8 -13 3 -20 0 -26 -9 -21 -6 4 -7 -1 -3 -11 5 -14 3 -16 -11 -11 -13 5 -17 3 -13 -7 3 -8 -1 -17 -9 -20 -8 -3 -14 -16 -14 -28 0 -13 -7 -33 -15 -45 -9 -12 -14 -26 -13 -30 2 -10 -21 -93 -33 -116 -5 -10 -7 -23 -3 -29 4 -6 0 -17 -10 -23 -13 -10 -17 -33 -20 -98 -3 -46 -12 -107 -21 -133 -22 -64 -38 -288 -30 -433 4 -85 13 -137 34 -205 34 -106 61 -221 61 -254 0 -13 6 -36 14 -50 17 -34 46 -157 46 -196 0 -15 7 -49 15 -75 15 -49 36 -126 41 -151 2 -8 5 -26 8 -40 3 -14 15 -61 26 -105 21 -80 22 -120 5 -295 -3 -25 -7 -63 -9 -85 -2 -22 -7 -56 -10 -75 -3 -19 -8 -62 -10 -95 -7 -86 -18 -155 -25 -155 -3 0 -6 -15 -7 -32 -1 -54 -9 -108 -14 -108 -3 0 -6 -8 -7 -17 -1 -25 -11 -61 -19 -75 -4 -6 -8 -30 -10 -52 -4 -54 -23 -151 -39 -201 -8 -22 -13 -47 -13 -55 1 -8 -6 -31 -15 -50 -9 -19 -25 -75 -36 -125 -20 -94 -26 -114 -60 -230 -12 -38 -21 -82 -21 -97 0 -16 -5 -28 -11 -28 -6 0 -9 -8 -6 -19 2 -10 1 -25 -4 -33 -23 -42 -41 -402 -25 -518 24 -176 55 -273 121 -368 52 -76 60 -85 170 -197 113 -114 164 -155 195 -155 12 0 19 -4 16 -9 -3 -5 15 -14 41 -20 25 -7 60 -19 77 -28 17 -10 36 -18 41 -19 6 -1 24 -8 40 -15 17 -7 37 -14 45 -15 8 -2 42 -13 75 -25 33 -11 74 -21 92 -22 17 -1 30 -5 27 -9 -3 -4 6 -8 20 -8 13 0 37 -5 52 -10 16 -7 30 -7 33 -2 4 6 26 6 56 0 104 -20 365 -30 450 -16 33 5 81 12 108 15 26 3 50 10 53 14 3 5 18 9 35 9 16 0 29 3 29 8 0 4 19 8 42 9 22 2 48 9 57 17 9 8 33 17 54 21 20 4 39 11 42 15 6 9 94 40 128 45 12 2 47 9 77 15 30 7 63 13 72 14 10 1 26 10 35 19 68 64 82 77 88 77 4 0 20 11 37 25 16 14 38 25 49 25 10 0 18 5 16 12 -1 6 12 16 28 22 17 6 36 19 43 28 7 10 19 18 25 19 7 0 32 24 56 52 25 29 47 52 50 52 3 0 5 4 3 10 -1 7 9 18 23 25 14 7 25 17 25 21 0 4 27 33 59 65 85 84 105 124 102 203 -1 52 -6 67 -22 79 -17 11 -20 22 -16 51 8 58 27 124 43 148 8 13 11 23 7 23 -5 0 -1 5 7 10 15 9 18 22 24 115 3 57 13 116 27 160 5 17 11 55 14 85 2 30 9 81 14 112 5 31 8 108 5 170 -3 62 -6 151 -8 198 -4 87 -31 252 -46 282 -5 9 -21 88 -35 175 -15 87 -31 163 -36 170 -6 7 -6 13 -1 17 6 4 6 22 0 48 -5 24 -11 57 -13 73 -2 17 -8 62 -13 100 -6 39 -11 79 -11 90 -2 258 0 294 25 485 16 125 48 282 64 311 5 9 14 54 20 100 6 46 15 88 19 94 5 5 9 26 9 45 1 19 4 49 7 65 35 195 41 315 30 575 -10 251 -34 388 -86 498 -16 34 -29 67 -29 72 0 6 -4 10 -8 10 -4 0 -14 21 -21 46 -14 47 -54 137 -71 157 -100 125 -153 178 -320 322 -19 17 -57 51 -85 76 -27 25 -66 55 -85 67 -19 12 -47 32 -61 45 -25 24 -166 97 -186 97 -6 0 -43 14 -83 30 -40 17 -94 32 -119 35 -25 2 -95 11 -156 20 -113 16 -257 16 -335 1z m378 -90 c35 -8 70 -12 78 -9 8 3 14 0 14 -6 0 -7 6 -11 13 -10 27 6 210 -53 257 -82 8 -5 24 -13 35 -18 28 -14 66 -40 116 -83 24 -21 59 -49 77 -64 42 -34 40 -54 -7 -81 -33 -19 -42 -21 -65 -10 -14 7 -32 24 -39 40 -6 15 -16 27 -20 27 -5 0 -6 4 -3 9 8 12 -31 44 -44 36 -12 -7 -4 -72 12 -92 16 -20 20 -63 6 -65 -23 -2 -62 -5 -122 -8 -51 -3 -61 -1 -77 19 -11 13 -19 31 -19 40 0 9 -14 25 -31 35 -26 15 -33 16 -45 5 -10 -11 -11 -23 -2 -56 6 -24 14 -43 19 -43 5 0 9 -6 9 -13 0 -8 -21 -18 -49 -25 -28 -6 -69 -20 -93 -31 -84 -39 -121 -51 -150 -51 -18 0 -45 -12 -68 -30 -23 -18 -50 -30 -68 -30 -17 0 -34 -5 -37 -10 -4 -6 -10 -8 -15 -5 -5 3 -19 1 -32 -4 -23 -9 -58 6 -58 23 0 11 -22 31 -49 45 -33 18 -53 -10 -45 -66 4 -28 2 -43 -5 -44 -13 -2 -30 -6 -33 -8 -2 -1 -18 -4 -37 -6 -19 -1 -38 -10 -43 -19 -5 -9 -14 -16 -21 -16 -33 -1 -73 -81 -51 -102 9 -10 59 9 57 20 -4 17 39 42 99 58 86 23 79 28 118 -103 13 -47 27 -76 40 -83 16 -9 18 -8 14 5 -5 11 -2 13 10 9 13 -5 16 1 16 35 0 23 -5 41 -11 41 -5 0 -8 4 -5 9 3 5 -1 26 -10 46 -8 21 -13 47 -10 59 7 25 48 46 92 46 18 0 36 5 39 10 3 6 21 10 40 10 37 0 95 -41 95 -68 0 -19 49 -72 67 -72 14 0 15 5 17 62 1 21 -2 38 -6 38 -5 0 -8 7 -8 15 0 8 -4 15 -9 15 -5 0 -11 14 -13 30 -5 33 16 60 45 60 9 0 17 5 17 10 0 6 13 10 28 10 15 0 32 4 37 9 6 5 33 11 62 13 51 5 51 5 73 -34 12 -21 28 -38 36 -38 8 0 12 -4 9 -10 -7 -11 0 -12 33 -4 21 6 33 44 13 44 -5 0 -11 13 -13 30 -3 22 0 31 14 36 10 3 22 2 28 -1 5 -3 10 -1 10 4 0 15 115 14 157 -1 34 -12 65 -4 64 17 0 24 47 56 111 77 l68 22 28 -32 c16 -18 32 -32 35 -32 12 0 177 -175 177 -187 0 -7 4 -13 9 -13 5 0 11 -8 15 -17 6 -19 20 -43 49 -82 9 -13 17 -32 17 -42 0 -11 18 -63 41 -117 43 -102 68 -194 76 -277 2 -27 8 -88 12 -135 12 -123 7 -569 -7 -605 -6 -16 -16 -61 -22 -100 -17 -106 -21 -129 -30 -145 -5 -9 -11 -36 -15 -60 -3 -25 -17 -90 -31 -144 -13 -54 -24 -110 -24 -123 0 -13 -4 -32 -9 -41 -23 -44 -39 -519 -22 -642 25 -172 29 -198 50 -330 34 -217 42 -261 62 -340 30 -121 41 -349 27 -555 -7 -108 -17 -165 -27 -165 -3 0 -6 -15 -7 -32 -3 -75 -24 -202 -38 -217 -7 -9 -16 -29 -19 -46 -7 -39 -21 -85 -47 -159 -22 -61 -29 -107 -33 -221 -3 -69 -4 -72 -45 -110 -23 -22 -42 -45 -42 -51 0 -6 -20 -30 -44 -52 -24 -22 -42 -43 -39 -46 3 -2 -9 -12 -26 -21 -17 -8 -31 -19 -31 -24 0 -5 -15 -16 -32 -26 -65 -33 -83 -45 -81 -54 1 -5 -12 -15 -30 -22 -18 -7 -49 -30 -69 -51 -43 -43 -107 -76 -158 -79 -19 -2 -39 -6 -45 -9 -5 -4 -21 -7 -34 -8 -13 0 -28 -6 -32 -13 -4 -6 -16 -9 -28 -6 -12 3 -31 -3 -45 -14 -13 -10 -29 -19 -35 -19 -7 0 -24 -8 -38 -17 -15 -10 -31 -18 -37 -18 -25 -2 -92 -17 -111 -25 -11 -5 -47 -11 -80 -13 -33 -2 -86 -11 -117 -19 -64 -17 -196 -16 -383 4 -181 18 -232 26 -255 38 -9 5 -52 21 -96 35 -126 43 -265 105 -319 143 -55 39 -128 102 -119 102 3 0 -14 19 -38 43 -47 46 -153 175 -153 185 0 4 -8 18 -17 32 -10 14 -19 35 -21 45 -1 11 -6 26 -10 33 -5 7 -5 22 -2 35 5 16 4 18 -3 8 -8 -11 -13 -4 -22 28 -6 24 -13 59 -15 79 -1 21 -4 37 -5 37 -13 0 -13 380 0 405 5 9 10 41 11 71 2 30 5 59 8 64 3 6 6 24 7 40 1 17 3 32 4 35 1 3 3 10 5 15 1 6 3 12 4 15 1 3 4 20 7 39 2 19 9 39 14 46 5 7 7 15 3 18 -3 4 -1 7 5 7 7 0 12 7 12 15 0 9 6 26 14 38 12 18 29 100 31 142 0 6 3 12 7 16 4 3 15 36 25 75 9 38 21 72 26 75 6 4 7 14 4 22 -3 8 -1 19 4 24 6 6 12 36 15 69 2 32 8 61 12 64 6 4 10 32 14 113 1 15 4 27 7 27 4 0 8 19 9 43 3 51 16 132 22 132 2 0 6 16 13 55 3 14 6 27 7 30 1 3 2 13 1 23 -1 9 3 17 10 17 8 0 10 12 5 40 -3 22 -2 40 2 40 5 0 9 39 10 87 1 47 6 89 11 93 6 3 10 29 8 58 -1 29 0 52 3 52 9 0 10 183 0 199 -6 11 -3 22 7 34 15 16 15 19 -4 40 -24 26 -30 42 -38 117 -4 30 -10 60 -13 65 -4 6 -7 27 -8 48 -1 32 2 37 22 37 13 0 29 -8 36 -18 7 -11 31 -22 52 -26 66 -12 189 -157 159 -187 -5 -5 -29 -11 -51 -12 -23 -1 -42 -5 -42 -8 0 -4 -14 -9 -31 -11 -38 -4 -62 -33 -39 -49 8 -5 33 -7 55 -3 22 3 45 6 52 7 7 0 10 4 7 9 -3 4 -3 8 0 8 2 0 12 3 22 7 12 4 15 3 10 -5 -5 -8 1 -12 18 -12 28 0 56 -33 56 -66 0 -12 7 -35 15 -50 8 -16 15 -40 15 -55 0 -14 4 -29 9 -35 12 -13 25 -94 14 -95 -4 0 -19 -2 -33 -4 -21 -3 -120 -13 -141 -15 -12 0 -17 -37 -7 -54 7 -13 13 -14 31 -5 12 7 50 13 85 14 97 4 97 4 100 -202 2 -164 1 -172 -18 -178 -32 -10 -25 -44 13 -60 21 -8 41 -29 56 -57 13 -24 30 -50 38 -59 11 -14 11 -18 -1 -28 -8 -7 -21 -14 -28 -15 -58 -12 -88 -32 -88 -60 0 -14 38 -10 62 6 16 11 32 16 38 13 5 -3 10 -2 10 4 0 5 18 12 40 16 44 7 96 -16 106 -47 3 -10 12 -18 20 -18 8 0 14 -5 14 -11 0 -6 6 -17 14 -25 8 -7 16 -18 18 -24 2 -6 10 -12 18 -13 8 -2 21 -6 28 -10 7 -5 12 -4 12 2 0 13 22 10 32 -4 4 -5 16 1 27 14 22 25 28 51 11 51 -8 0 -40 20 -102 62 -20 14 -24 38 -7 38 5 0 8 4 5 8 -2 4 8 13 24 20 26 12 45 46 35 63 -6 10 -45 -1 -45 -12 0 -5 -16 -9 -35 -9 -41 0 -95 35 -95 61 0 10 -4 21 -10 24 -13 8 -13 65 0 65 6 0 8 15 4 40 -4 21 -3 47 1 57 5 10 10 27 12 38 2 10 7 22 12 25 5 3 11 25 12 50 3 42 2 45 -21 48 -24 3 -25 1 -25 -58 -1 -50 -5 -65 -21 -78 -12 -10 -24 -25 -27 -34 -11 -31 -43 -19 -45 16 0 5 -5 12 -11 15 -6 4 -11 67 -12 165 -2 137 0 160 14 167 12 7 16 23 15 64 -2 51 -4 55 -40 75 -22 12 -40 31 -44 46 -3 13 -11 24 -17 24 -6 0 -8 3 -4 6 3 3 1 18 -5 33 -5 14 -12 50 -14 79 -4 47 -2 54 18 62 13 5 20 9 15 9 -4 1 -1 11 7 24 8 12 17 37 21 55 6 31 5 33 -16 30 -19 -2 -24 -9 -23 -35 2 -43 -30 -52 -60 -16 -11 14 -51 58 -88 96 -38 39 -68 75 -68 79 0 5 7 11 15 14 22 9 20 64 -3 64 -10 0 -22 -4 -27 -9 -19 -16 -78 -31 -89 -22 -6 5 -29 12 -50 17 -46 8 -76 31 -76 58 0 11 -6 27 -14 35 -8 9 -17 41 -21 71 -4 30 -12 64 -18 75 -13 24 -15 32 -23 107 -4 32 -13 63 -20 69 -8 6 -14 19 -14 29 0 9 -3 20 -7 23 -3 4 -8 17 -9 30 -2 12 -8 47 -14 77 -7 30 -11 67 -11 83 1 15 -4 27 -9 27 -6 0 -8 5 -5 10 4 6 1 17 -5 25 -8 9 -8 15 -2 15 7 0 10 49 10 138 0 145 3 168 27 247 8 28 15 69 15 93 0 23 4 42 8 42 9 0 29 72 36 126 2 17 9 41 15 53 7 11 9 21 5 21 -3 0 -2 6 3 13 6 6 13 24 17 40 3 15 11 27 16 27 6 0 10 7 10 15 0 23 22 65 31 59 5 -3 9 2 9 10 0 9 5 16 10 16 6 0 10 10 10 23 0 12 16 38 35 57 19 19 35 42 35 51 0 9 15 30 33 46 17 16 48 49 68 73 46 57 128 140 137 140 5 0 27 18 50 40 22 22 48 40 57 40 8 0 15 4 15 8 0 5 16 16 35 25 19 9 35 21 35 27 0 5 7 7 15 4 8 -4 15 -1 15 5 0 6 8 11 19 11 10 0 24 7 31 15 7 8 24 15 38 15 14 0 22 3 19 7 -6 6 18 23 53 39 8 3 34 15 57 25 24 10 49 19 57 19 8 0 21 7 30 15 8 9 17 11 21 6 3 -6 17 -4 33 5 15 7 34 14 43 14 9 0 19 3 22 7 4 3 30 8 59 10 29 2 54 6 56 8 10 10 231 -5 290 -19z"
       id="path2" />
    <path
       d="M3421 5516 c-8 -9 -22 -16 -33 -16 -10 0 -21 -7 -24 -15 -3 -8 -15 -17 -26 -21 -11 -3 -36 -21 -56 -40 -19 -18 -39 -31 -44 -28 -4 3 -8 -1 -8 -9 0 -8 -11 -26 -25 -41 -14 -15 -25 -31 -25 -37 0 -5 -4 -9 -9 -9 -15 0 -68 -121 -75 -170 -4 -24 -11 -50 -17 -56 -11 -13 -7 -185 5 -239 21 -93 38 -133 95 -220 41 -64 66 -92 79 -87 7 2 12 0 12 -5 0 -8 52 -35 80 -40 63 -12 91 -13 130 -3 56 13 59 14 90 27 25 11 75 69 75 88 0 6 29 30 65 54 36 24 64 49 62 56 -2 9 4 11 18 8 14 -4 20 0 20 12 0 9 6 29 14 43 18 34 29 63 30 82 1 8 7 25 14 37 15 26 16 172 1 228 -12 48 -16 71 -18 107 0 15 -8 33 -16 42 -8 8 -15 22 -15 31 0 18 -56 108 -89 142 -26 27 -74 53 -104 57 -12 1 -35 8 -52 15 -50 22 -139 25 -154 7z m163 -92 c27 -8 60 -21 73 -29 13 -9 23 -13 23 -10 0 3 6 0 14 -7 8 -7 12 -16 10 -19 -2 -4 3 -9 11 -12 8 -4 27 -32 43 -64 26 -52 35 -80 48 -163 2 -14 7 -36 10 -50 12 -49 2 -218 -14 -230 -4 -3 -14 -18 -22 -35 -34 -68 -93 -121 -137 -123 -56 -2 -71 -11 -78 -42 -4 -17 -11 -32 -16 -35 -5 -4 -9 -15 -9 -25 0 -14 -11 -22 -40 -30 -42 -11 -68 -8 -139 18 -40 14 -101 64 -101 82 0 3 -8 15 -18 26 -9 10 -23 30 -30 44 -7 14 -24 40 -37 59 -16 22 -22 37 -15 41 7 5 7 10 -2 18 -8 6 -15 26 -16 44 -2 18 -6 59 -11 91 -4 31 -4 57 1 57 4 0 8 20 8 44 0 24 7 57 15 72 8 16 15 36 15 45 0 8 11 26 25 39 14 13 25 28 25 35 0 6 13 25 29 42 16 18 26 34 23 37 -3 3 -1 6 4 6 6 0 20 9 32 20 11 11 42 33 69 50 43 28 53 30 103 24 30 -3 77 -12 104 -20z"
       id="path4" />
    <path
       d="M3393 5223 c-18 -20 -33 -39 -33 -42 0 -4 -15 -22 -32 -41 -33 -35 -33 -36 -32 -129 l0 -94 42 -38 c39 -37 43 -38 89 -32 26 3 56 14 67 24 10 10 23 16 28 13 8 -5 38 24 88 83 5 7 10 17 10 22 0 5 7 16 15 25 19 18 23 90 6 110 -7 8 -10 19 -8 23 7 11 -38 62 -78 89 -20 14 -47 21 -80 22 -45 1 -53 -2 -82 -35z"
       id="path6" />
    <path
       d="M2064 5436 c-47 -10 -80 -27 -122 -61 -9 -7 -32 -26 -50 -41 -19 -15 -45 -46 -60 -68 -14 -23 -43 -62 -64 -87 -21 -25 -40 -60 -42 -76 -2 -17 -14 -50 -26 -73 -49 -97 -49 -392 1 -515 4 -11 11 -36 14 -55 18 -90 119 -190 192 -190 13 0 23 -3 23 -7 0 -14 118 -18 200 -7 25 3 68 6 97 7 55 2 85 24 110 80 7 15 23 31 35 36 22 8 81 68 103 103 6 9 25 37 43 63 42 60 58 110 67 205 11 122 15 290 6 290 -4 0 -8 12 -8 28 -1 40 -23 122 -34 122 -5 0 -9 7 -9 15 0 8 -5 15 -11 15 -5 0 -8 4 -5 9 10 15 -109 115 -176 148 -120 59 -204 76 -284 59z m121 -75 c6 -4 37 -17 70 -30 33 -12 69 -27 80 -34 11 -6 35 -18 53 -27 42 -21 122 -126 122 -162 0 -15 5 -39 11 -55 16 -40 12 -320 -5 -394 -10 -42 -25 -71 -50 -99 -20 -22 -36 -46 -36 -53 0 -6 -19 -28 -41 -47 -23 -19 -49 -42 -58 -50 -34 -31 -77 -54 -96 -52 -11 2 -36 -6 -57 -16 -95 -49 -301 -11 -342 64 -6 10 -15 22 -20 26 -5 3 -11 17 -13 29 -2 13 -9 26 -15 30 -6 4 -11 20 -12 37 0 17 -4 28 -8 25 -8 -4 -12 21 -9 41 1 6 -2 19 -8 30 -5 12 -13 35 -16 51 -11 47 -8 211 4 233 6 11 8 28 5 36 -4 9 -1 22 5 30 7 8 11 18 10 22 -3 14 18 59 36 77 9 10 12 17 6 17 -15 0 21 69 37 70 6 0 12 9 12 20 0 11 5 20 10 20 6 0 10 7 10 15 0 18 57 78 83 88 10 4 15 11 12 17 -3 5 3 10 15 10 11 0 23 6 26 14 3 8 13 12 24 9 10 -3 21 0 25 7 7 12 112 12 130 1z"
       id="path8" />
    <path
       d="M2080 5039 c0 -5 -7 -9 -15 -9 -7 0 -18 -7 -23 -16 -5 -9 -12 -15 -15 -15 -19 3 -27 0 -27 -8 0 -6 -14 -31 -31 -56 -29 -43 -31 -50 -24 -103 8 -65 17 -86 53 -124 47 -51 99 -46 176 17 24 19 45 33 48 30 2 -3 16 8 31 23 19 19 29 45 36 91 10 63 10 63 -22 103 -18 22 -45 47 -62 56 -33 17 -125 25 -125 11z"
       id="path10" />
    <path
       d="M2697 4271 c-25 -26 -14 -97 31 -196 20 -44 39 -82 42 -85 14 -13 100 -148 100 -157 0 -6 7 -16 15 -23 9 -7 13 -15 10 -18 -3 -3 1 -12 9 -21 14 -16 105 -194 143 -281 11 -25 26 -74 32 -110 7 -36 14 -74 17 -86 2 -12 0 -24 -4 -28 -7 -8 -8 -13 -11 -73 -2 -48 -68 -108 -129 -118 -51 -9 -212 -9 -278 0 -40 6 -42 5 -42 -22 0 -46 15 -56 74 -48 30 3 55 2 58 -3 3 -6 15 -8 26 -5 11 3 34 0 51 -6 19 -6 37 -7 43 -2 6 4 35 14 64 21 30 7 56 18 59 26 2 7 11 10 19 7 7 -3 16 2 20 10 3 9 12 13 20 10 8 -3 14 1 14 10 0 9 11 28 24 44 12 15 21 34 19 41 -3 6 1 12 7 12 8 0 10 9 6 25 -4 15 -2 25 4 25 6 0 8 11 4 28 -4 21 -3 24 5 12 7 -9 11 -10 11 -3 0 6 -4 15 -10 18 -5 3 -10 40 -10 81 0 46 -4 74 -11 74 -6 0 -8 9 -4 20 4 13 1 22 -9 26 -12 5 -13 10 -5 25 6 13 6 19 -1 19 -5 0 -10 9 -10 19 0 22 -38 91 -50 91 -4 0 -13 20 -19 45 -6 25 -16 45 -21 45 -6 0 -10 7 -10 15 0 8 -4 15 -9 15 -5 0 -12 14 -16 30 -4 17 -11 30 -16 30 -5 0 -9 6 -9 14 0 8 -7 22 -16 31 -9 8 -13 22 -10 30 3 8 2 14 -2 14 -19 -3 -25 2 -12 11 10 6 11 10 3 10 -7 0 -13 5 -13 11 0 6 -9 18 -20 27 -11 10 -26 37 -33 62 -8 26 -19 44 -26 42 -7 -1 -11 3 -8 10 2 7 -2 24 -9 38 -7 14 -20 54 -29 90 -13 56 -35 91 -54 89 -3 0 -14 -8 -24 -18z"
       id="path12" />
    <path
       d="M3088 2281 c-9 -20 -110 -56 -178 -62 -41 -4 -123 -12 -181 -17 -59 -5 -112 -13 -119 -17 -6 -4 -75 -11 -153 -15 -161 -9 -205 -14 -268 -30 -24 -7 -64 -16 -89 -20 -25 -5 -60 -12 -77 -16 -18 -3 -33 -10 -33 -14 0 -5 -10 -12 -22 -16 -12 -3 -55 -41 -96 -83 -98 -101 -102 -106 -102 -120 0 -7 -11 -22 -25 -33 -14 -11 -25 -28 -25 -39 0 -11 -7 -22 -15 -25 -8 -4 -15 -14 -15 -23 0 -9 -10 -52 -21 -96 -18 -66 -22 -112 -23 -260 l-1 -179 42 -43 c22 -24 46 -43 52 -43 6 0 11 -4 11 -10 0 -5 7 -10 16 -10 8 0 13 -4 10 -8 -2 -4 11 -18 30 -31 19 -13 34 -27 34 -32 0 -5 14 -9 31 -9 17 0 28 -4 24 -10 -3 -5 3 -10 14 -10 10 0 21 -5 23 -10 2 -6 14 -12 28 -15 13 -3 44 -19 67 -35 24 -17 43 -26 43 -21 0 8 7 7 20 -1 14 -9 16 -14 7 -20 -7 -5 -1 -8 15 -8 15 0 31 -8 37 -17 5 -10 13 -15 17 -11 3 4 16 2 27 -4 12 -6 48 -11 82 -10 33 0 62 -3 65 -8 6 -9 86 -17 95 -9 3 3 22 3 43 0 53 -9 181 5 200 22 10 7 44 19 77 26 33 7 86 21 118 32 31 10 62 19 68 19 6 0 23 8 37 19 15 10 43 22 62 26 19 4 40 11 46 16 11 9 28 8 72 -6 19 -6 22 -13 17 -34 -4 -19 0 -33 16 -50 l21 -22 14 26 c8 16 12 45 9 71 -2 29 1 49 10 58 8 7 12 16 9 18 -5 5 63 39 116 58 69 25 100 42 100 56 0 8 4 14 9 14 4 0 24 12 43 28 19 15 47 36 61 47 15 11 27 25 27 32 0 6 14 27 31 45 16 18 33 45 35 59 3 14 20 40 36 58 23 24 28 35 18 41 -9 5 -7 11 7 21 27 19 53 72 53 106 0 15 6 40 14 54 24 46 27 76 10 93 -9 9 -17 28 -19 42 -4 38 -38 134 -47 134 -4 0 -8 4 -8 9 0 4 -22 42 -49 83 -83 126 -241 224 -375 234 -126 10 -225 12 -228 5z m295 -100 c15 -6 27 -15 27 -21 0 -5 10 -10 21 -10 12 0 27 -6 33 -14 6 -8 32 -26 57 -39 48 -25 138 -116 162 -164 17 -34 40 -128 35 -144 -4 -13 -92 -23 -194 -22 -64 1 -76 4 -124 36 -50 34 -86 80 -75 97 3 5 -4 24 -15 43 -12 19 -20 39 -19 43 4 15 -13 64 -21 64 -4 0 -5 11 -2 25 3 18 -3 33 -21 51 -24 24 -25 27 -11 49 13 20 22 23 67 20 29 -2 64 -8 80 -14z m-264 -2 c23 -8 30 -16 26 -28 -3 -9 5 -50 16 -91 32 -113 20 -236 -26 -266 -35 -23 -143 -20 -195 6 -44 21 -90 75 -90 104 0 8 -5 27 -11 43 -7 15 -13 46 -15 68 -2 22 -6 52 -9 67 -5 34 13 43 110 54 28 3 59 14 70 24 36 31 72 37 124 19z m-417 -128 c25 -54 37 -175 24 -239 -9 -40 -47 -98 -76 -115 -40 -24 -175 -48 -205 -37 -22 8 -46 39 -51 65 -1 6 -9 46 -19 90 -11 55 -14 95 -9 130 5 27 7 67 5 87 -3 46 12 54 121 64 40 3 74 7 75 8 1 1 29 -2 61 -7 53 -9 59 -13 74 -46z m-457 7 c23 -10 25 -17 25 -71 0 -68 -25 -173 -46 -194 -8 -8 -14 -20 -14 -26 0 -18 -48 -67 -65 -67 -8 0 -15 -3 -15 -8 0 -4 -13 -13 -30 -20 -24 -11 -45 -11 -102 -2 -76 11 -118 37 -118 71 0 10 -11 31 -25 47 -32 39 -31 59 5 102 38 44 39 46 73 71 15 11 27 28 27 37 0 15 2 15 10 2 7 -10 10 -11 10 -2 0 7 11 17 25 22 14 5 25 14 25 20 0 6 5 8 10 5 6 -4 16 -2 23 3 7 5 31 9 55 9 23 0 45 3 49 6 10 11 50 8 78 -5z m1335 -477 c0 -5 12 -12 27 -16 16 -4 34 -11 40 -17 21 -17 15 -67 -11 -92 -12 -13 -26 -30 -29 -38 -21 -43 -86 -128 -98 -128 -6 0 -22 -14 -36 -30 -45 -55 -113 -76 -113 -36 0 9 -6 35 -14 58 -18 54 -26 159 -13 151 6 -4 8 0 4 10 -4 10 6 28 30 52 19 19 37 35 40 35 3 0 18 9 34 21 16 11 33 17 39 14 5 -3 10 -1 10 5 0 6 4 8 10 5 5 -3 18 -1 27 4 22 13 53 14 53 2z m-493 -27 c17 7 95 -71 117 -117 9 -21 20 -60 23 -87 4 -33 14 -59 29 -75 50 -54 56 -102 8 -71 -33 22 -34 21 -34 -29 0 -34 -4 -47 -17 -52 -10 -3 -27 -14 -38 -23 -11 -10 -44 -23 -73 -30 -28 -6 -55 -16 -58 -21 -3 -5 -12 -9 -21 -9 -8 0 -28 -9 -44 -21 -16 -11 -39 -21 -51 -22 -13 0 -26 -5 -29 -9 -3 -5 -21 -11 -40 -14 -30 -5 -36 -3 -46 19 -9 19 -8 27 3 39 14 13 28 109 27 175 -1 13 2 21 7 18 6 -4 22 135 21 189 0 10 12 41 27 68 20 37 37 54 65 65 20 8 37 19 37 24 0 5 17 2 37 -6 20 -9 43 -13 50 -11z m-407 -38 c29 -19 44 -39 60 -83 20 -51 21 -70 16 -163 -3 -58 -10 -121 -15 -140 -25 -94 -22 -145 10 -155 30 -10 23 -21 -23 -38 -108 -38 -133 -41 -286 -28 -81 7 -165 15 -187 19 -36 7 -40 10 -38 36 1 16 6 32 12 35 5 3 12 29 16 56 4 28 10 55 14 60 3 6 6 29 7 51 1 23 9 52 18 65 9 13 16 35 16 50 0 14 3 29 8 33 4 4 7 11 7 14 1 8 36 64 45 72 3 3 17 21 30 40 37 54 81 89 120 96 19 3 40 7 45 10 24 9 90 -6 125 -30z m-658 -33 c16 -15 33 -43 38 -63 5 -19 19 -48 30 -65 11 -16 20 -36 20 -44 0 -8 6 -22 13 -30 30 -34 40 -106 27 -178 -7 -37 -17 -74 -23 -81 -10 -12 -47 -13 -57 -1 -3 4 -39 23 -80 43 -41 20 -95 50 -119 67 -50 37 -79 93 -62 121 6 10 7 18 3 18 -5 0 -16 16 -25 36 -17 34 -17 37 3 64 11 15 20 33 20 39 0 6 11 17 23 26 13 8 29 26 36 38 27 51 105 56 153 10z"
       id="path14" />
    <path
       style="fill:#ffffff;stroke-width:0"
       d="m 332.57752,853.0913 c -9.70587,-0.36276 -31.5814,-2.40429 -44.37906,-4.14166 -19.04639,-2.58567 -59.57707,-18.76608 -73.50466,-29.34406 -5.99642,-4.55427 -19.36509,-18.41962 -30.48056,-31.61296 -6.81803,-8.09257 -12.49029,-18.9661 -13.25293,-25.40544 -0.34632,-2.9241 -1.00941,-5.08185 -1.47354,-4.795 -1.41877,0.87684 -1.95851,-0.93829 -4.16387,-14.00281 -2.67216,-15.8299 -2.88989,-42.30994 -0.49211,-59.85139 3.36567,-24.62227 7.09108,-43.22825 8.93104,-44.60465 1.2511,-0.93589 5.32433,-13.08127 6.41108,-19.11628 1.08837,-6.04399 5.43736,-21.10517 7.97321,-27.6124 0.79669,-2.04438 2.00151,-7.0624 2.67737,-11.15116 0.67587,-4.08876 1.74505,-9.58469 2.37597,-12.21318 0.63092,-2.62849 1.48805,-7.88547 1.90473,-11.68217 1.79762,-16.37923 8.052,-47.82617 9.73571,-48.95098 0.51807,-0.3461 0.90994,-2.73564 0.87081,-5.31008 -0.12278,-8.07899 1.91264,-28.00184 3.19567,-31.27953 0.73095,-1.86733 1.35111,-11.30733 1.53173,-23.316 0.16692,-11.09806 0.65143,-21.02751 1.07668,-22.06543 0.51412,-1.25485 -0.17946,-3.2618 -2.07004,-5.98991 -1.92948,-2.78424 -3.17323,-6.44405 -3.87012,-11.38805 -0.5648,-4.00691 -1.48935,-8.95797 -2.05454,-11.00235 -0.56519,-2.04438 -1.03029,-5.27025 -1.03355,-7.1686 -0.005,-2.84303 0.4033,-3.45155 2.31517,-3.45155 1.27659,0 3.3077,0.87614 4.51356,1.94698 1.20587,1.07083 4.42301,2.76794 7.14921,3.77134 6.00137,2.20885 13.33772,8.47169 17.77996,15.17825 4.86579,7.34599 4.17178,9.90188 -2.68869,9.90188 -4.95984,0 -16.20023,4.28717 -16.88333,6.43944 -1.19021,3.75002 0.39922,4.46987 8.69417,3.93753 6.08032,-0.39021 8.19994,-0.9596 9.38106,-2.52 0.87455,-1.1554 1.5403,-1.44923 1.55966,-0.68837 0.0186,0.73014 1.02635,1.32752 2.2395,1.32752 3.15114,0 8.41443,5.62843 8.41443,8.99818 0,1.53421 0.70319,4.1493 1.56265,5.8113 0.85945,1.662 1.88051,5.10309 2.26901,7.64687 0.38851,2.54377 1.11841,5.15117 1.62202,5.79421 0.5036,0.64304 1.21144,3.32726 1.57297,5.96496 0.65543,4.78188 0.64697,4.79761 -2.91915,5.4218 -1.96707,0.34431 -7.16079,0.94717 -11.54161,1.33969 -4.38081,0.39252 -8.5625,1.18888 -9.29263,1.76969 -1.58304,1.25927 -1.72057,4.44922 -0.30581,7.09273 0.94117,1.7586 1.46176,1.79495 6.60354,0.4612 3.07,-0.79636 8.33409,-1.44791 11.69799,-1.44791 9.44916,0 9.79543,0.90044 10.25684,26.67241 l 0.37466,20.92627 -2.76419,1.81117 c -3.9516,2.58919 -3.44465,5.30871 1.68186,9.02233 2.44533,1.77139 6.54369,6.41396 9.10747,10.31683 4.36164,6.63976 4.53883,7.18573 2.75536,8.48984 -1.04833,0.76656 -3.7679,1.89509 -6.0435,2.50784 -4.51734,1.21639 -9.61251,5.57074 -8.93313,7.63425 0.71087,2.15914 4.63453,2.0783 9.07486,-0.18699 2.30896,-1.17794 4.52221,-1.81759 4.91835,-1.42146 0.39614,0.39614 1.09137,0.11978 1.54496,-0.61413 1.04117,-1.68466 7.63843,-2.79726 11.23459,-1.89468 2.95371,0.74133 10.24039,7.48722 14.29535,13.23438 2.88931,4.09508 9.47548,7.4374 10.71228,5.43622 0.57337,-0.92775 1.35283,-0.88086 3.1059,0.18682 2.12635,1.29503 2.57601,1.13399 4.91613,-1.76064 1.41663,-1.75232 2.56108,-3.90291 2.54322,-4.77907 -0.0178,-0.87616 -3.14826,-3.50465 -6.95643,-5.84108 -3.80817,-2.33644 -7.68797,-5.08381 -8.62178,-6.10528 -1.57723,-1.72529 -1.35093,-2.17787 3.18623,-6.37209 4.57589,-4.23002 5.4377,-5.74772 5.12673,-9.02845 -0.17095,-1.80364 -3.50799,-1.67539 -6.02943,0.23173 -1.13383,0.85758 -3.54403,1.57444 -5.35601,1.59303 -3.44653,0.0354 -9.78903,-3.6049 -11.04351,-6.33832 -0.4021,-0.87617 -1.28327,-2.66183 -1.95816,-3.96815 -1.54366,-2.9879 -1.58649,-7.36654 -0.0811,-8.29689 0.71644,-0.44279 0.89716,-2.55594 0.4822,-5.63826 -0.4973,-3.69392 -0.0792,-6.52772 1.6674,-11.30213 1.28212,-3.50465 2.37938,-9.00058 2.43834,-12.21318 0.10174,-5.54337 -0.0345,-5.85752 -2.67452,-6.16373 -3.237,-0.37546 -4.0838,1.60307 -4.10686,9.59563 -0.0115,3.97651 -0.73464,6.01242 -3.46605,9.75791 -1.89835,2.60314 -4.01393,4.76257 -4.70129,4.79872 -0.68736,0.0361 -2.09028,-1.48746 -3.11762,-3.38582 -2.72653,-5.03819 -3.5998,-43.19598 -1.03724,-45.32272 1.24313,-1.0317 1.68754,-3.32677 1.68754,-8.71499 0,-6.27368 -0.33313,-7.57744 -2.34117,-9.16261 -2.62034,-2.06851 -8.23719,-7.71693 -9.89207,-9.94765 -1.47103,-1.98289 -3.69701,-13.31068 -3.69701,-18.81363 0,-3.04266 0.52163,-4.68313 1.62358,-5.106 1.94911,-0.74793 5.75522,-8.76674 6.58336,-13.86996 0.57206,-3.52522 0.47776,-3.65178 -2.46948,-3.31439 -2.1002,0.24043 -3.16366,1.01904 -3.38019,2.47482 -0.82417,5.54089 -1.45364,6.9031 -3.18986,6.9031 -1.01978,0 -6.38713,-4.89854 -11.92745,-10.88566 -13.827,-14.94208 -13.4353,-14.38261 -11.2093,-16.0103 1.27284,-0.93072 1.72736,-2.46181 1.4851,-5.00268 -0.4383,-4.59717 -2.56124,-5.12788 -8.67444,-2.16852 -5.57953,2.701 -5.93817,2.70168 -14.4701,0.0276 -7.16178,-2.24472 -10.65804,-4.55901 -10.65804,-7.05496 0,-0.80889 -0.91783,-3.26982 -2.03963,-5.46872 -1.12179,-2.19889 -2.59593,-7.06587 -3.27587,-10.81551 -0.67994,-3.74964 -1.7201,-7.7216 -2.31146,-8.82657 -0.59137,-1.10497 -1.77366,-6.34804 -2.62731,-11.65127 -0.85365,-5.30321 -2.19858,-10.86341 -2.98874,-12.35599 -3.28149,-6.19862 -6.93472,-21.92193 -6.9351,-29.84828 -10e-5,-2.07358 -0.55327,-4.32324 -1.22927,-4.99924 -2.46287,-2.46286 -0.7177,-47.03779 2.13539,-54.542 0.55596,-1.46228 1.56401,-6.45379 2.24011,-11.09225 0.67609,-4.63846 1.86874,-9.86728 2.65032,-11.61961 0.78158,-1.75233 2.00996,-6.05349 2.72973,-9.55814 1.81545,-8.8397 7.41434,-26.01938 8.47977,-26.01938 0.48359,0 1.19887,-1.45515 1.58949,-3.23367 0.39063,-1.77851 1.8549,-4.52648 3.25394,-6.10658 4.1722,-4.7122 4.32611,-4.95283 5.07426,-7.93371 0.39554,-1.57596 2.07971,-4.42734 3.7426,-6.33641 1.66288,-1.90906 3.8489,-5.08237 4.85781,-7.05179 4.16886,-8.1377 35.54029,-39.3405 44.98274,-44.74094 1.53194,-0.876163 3.43392,-2.190407 4.22662,-2.920543 0.7927,-0.730135 1.84838,-1.327519 2.34595,-1.327519 0.49757,0 2.46656,-1.314244 4.37554,-2.920543 1.90898,-1.606298 3.62374,-2.789626 3.81057,-2.629616 0.18683,0.16001 2.84329,-0.868032 5.90324,-2.284537 3.05997,-1.416504 6.63885,-2.893871 7.9531,-3.283036 1.31424,-0.389165 2.38953,-1.145223 2.38953,-1.680131 0,-1.159826 7.62464,-5.036669 16.46124,-8.369928 3.50465,-1.321991 7.32791,-2.798938 8.49613,-3.282104 1.16821,-0.483167 3.31879,-1.123256 4.77907,-1.422421 1.46027,-0.299165 6.00038,-1.592297 10.08914,-2.873628 10.23633,-3.207848 37.98519,-3.498827 55.22481,-0.579096 6.42519,1.088181 12.13618,2.396597 12.69108,2.90759 0.55491,0.510993 2.34134,0.929078 3.96986,0.929078 4.83426,0 23.0196,6.250177 32.79434,11.271188 8.41475,4.322423 30.06898,20.804379 32.14328,24.465626 1.4356,2.5339 0.0193,4.46582 -5.09553,6.95081 -4.78581,2.32513 -4.82401,2.32648 -7.57758,0.26844 -1.52213,-1.13766 -3.85067,-4.09471 -5.17454,-6.57124 -1.32387,-2.476519 -3.00599,-5.224484 -3.73807,-6.106586 -1.71361,-2.064761 -4.91509,-2.064302 -5.70755,8.2e-4 -0.78355,2.041902 0.26897,7.643086 2.13321,11.352306 0.79274,1.5773 1.44134,4.02474 1.44134,5.43878 0,2.49779 -0.30129,2.59232 -10.58526,3.32142 -5.8219,0.41276 -11.58025,0.43467 -12.79633,0.0487 -1.22035,-0.38732 -3.25842,-2.89832 -4.54847,-5.6039 -2.49252,-5.2275 -7.77105,-9.22504 -10.69804,-8.10185 -2.94879,1.13155 -1.44475,15.30425 1.62413,15.30425 3.0082,0 -1.18668,2.33788 -7.6471,4.26188 -4.06726,1.21129 -10.61925,3.65769 -14.55996,5.43646 -3.94072,1.77876 -10.19947,3.87662 -13.90835,4.6619 -3.70888,0.78529 -8.7269,2.7405 -11.15116,4.34492 -2.42427,1.60442 -6.31938,3.33142 -8.65581,3.83778 -13.41689,2.90772 -14.34736,3.01473 -16.44627,1.89143 -1.17645,-0.62962 -2.139,-1.80583 -2.139,-2.6138 0,-1.85551 -6.42565,-5.89034 -9.38063,-5.89034 -3.07374,0 -4.64928,3.48263 -4.23981,9.3718 l 0.34524,4.96541 -7.43411,1.85141 c -4.08876,1.01828 -7.91385,2.50194 -8.5002,3.29701 -0.58635,0.79508 -2.11582,1.77877 -3.39882,2.18598 -3.09073,0.98096 -6.68625,6.95573 -6.68625,11.11071 0,2.86267 0.37974,3.32621 2.72486,3.32621 3.39937,0 6.83328,-1.77164 6.83328,-3.52545 0,-2.80936 14.42888,-8.59093 19.87825,-7.9651 2.74396,0.31514 3.22577,1.14955 6.74384,11.67921 5.01995,15.02486 6.39815,16.65006 10.71164,12.63142 2.6058,-2.42767 2.37828,-6.20259 -1.05294,-17.47044 -1.66878,-5.48012 -1.94686,-7.82438 -1.11295,-9.38255 1.40632,-2.62774 7.2008,-5.08337 11.99506,-5.08337 2.02867,0 3.98385,-0.47791 4.34485,-1.06202 1.11027,-1.79645 8.30705,-1.16936 11.92978,1.03949 1.98337,1.2093 4.39246,4.13332 5.70366,6.9228 2.50618,5.33165 6.48188,9.02996 9.70726,9.02996 1.93497,0 2.06619,-0.60777 1.69941,-7.87118 -0.28034,-5.55159 -0.94049,-8.47121 -2.24011,-9.90727 C 376.30456,144.30339 377.89109,137 381.92275,137 c 1.10594,0 2.72766,-0.71686 3.60383,-1.59302 0.87616,-0.87617 2.4635,-1.5982 3.52741,-1.60452 1.06391,-0.006 4.2804,-0.72319 7.14774,-1.59303 9.02954,-2.7392 11.87827,-2.22305 14.99697,2.71727 1.49253,2.36434 3.41016,4.56605 4.26138,4.8927 0.85122,0.32664 1.54767,1.2976 1.54767,2.15768 0,1.20986 0.78118,1.3943 3.45155,0.81496 1.89836,-0.41184 3.80267,-1.28615 4.2318,-1.9429 1.0764,-1.64733 1.00751,-4.66545 -0.12243,-5.36379 -0.51437,-0.3179 -1.16438,-1.77679 -1.44446,-3.24198 -0.57326,-2.99878 1.51627,-5.36008 3.92515,-4.4357 0.8649,0.33189 1.855,0.14641 2.20023,-0.41219 0.84372,-1.36517 15.95344,-1.28431 20.98262,0.11229 5.0864,1.41249 7.77724,0.5595 9.49378,-3.00952 1.81099,-3.76545 6.91059,-7.05481 15.22871,-9.82291 l 6.85733,-2.28197 9.18,8.32076 c 8.42635,7.63765 21.29416,21.51743 24.5274,26.45633 6.60441,10.08847 9.75899,16.16782 12.63268,24.34504 1.84745,5.25698 5.05691,14.33721 7.13213,20.1783 4.77744,13.44695 6.55414,23.84694 8.16444,47.7907 1.41716,21.07171 0.68175,70.73473 -1.14034,77.0105 -0.59127,2.03647 -2.25626,9.91547 -3.69997,17.50888 -1.44372,7.59341 -3.29702,16.43469 -4.11843,19.64728 -0.82143,3.2126 -2.99825,13.00969 -4.83741,21.77132 -1.83915,8.76163 -4.05173,19.27558 -4.91684,23.36434 -3.97313,18.77808 -4.77659,69.98574 -1.47065,93.73111 3.42828,24.62404 10.21268,65.45594 13.10069,78.84641 1.44876,6.71725 3.14181,17.70911 3.76234,24.42636 2.18468,23.64925 0.87746,61.40379 -2.50047,72.21705 -0.82111,2.62849 -2.22443,10.38668 -3.1185,17.24043 -0.89405,6.85375 -2.36209,14.02236 -3.26229,15.93023 -0.9002,1.90788 -3.10802,8.4869 -4.90628,14.62004 -1.79826,6.13314 -4.18924,14.22917 -5.3133,17.99117 -1.13909,3.81234 -2.46135,12.873 -2.98717,20.46954 l -0.94343,13.62953 -5.43978,5.75178 c -2.99189,3.16346 -5.45409,6.13881 -5.47155,6.61185 -0.0301,0.81282 -13.98527,15.40326 -18.55352,19.39799 -1.16821,1.02155 -4.86593,3.39335 -8.21715,5.27066 -3.35122,1.87732 -6.45762,4.00529 -6.9031,4.72883 -0.44549,0.72354 -2.69398,2.46035 -4.99666,3.85959 -2.30266,1.39922 -6.57641,4.66648 -9.49721,7.26057 -5.79363,5.14556 -11.58156,8.08695 -18.17657,9.23722 -2.33644,0.40751 -6.87656,1.44724 -10.08915,2.31052 -3.2126,0.86328 -7.51376,1.93946 -9.55814,2.39148 -2.04438,0.45203 -7.54031,2.73576 -12.21318,5.07498 -4.67287,2.33921 -10.6404,4.61282 -13.26116,5.05248 -2.62077,0.43965 -6.45485,1.39557 -8.52018,2.12426 -2.06533,0.72869 -6.8507,1.65069 -10.63419,2.04888 -3.78347,0.39821 -10.46335,1.38482 -14.84416,2.19247 -8.74511,1.61228 -18.33182,2.25576 -28.14341,1.88905 z m 24.42636,-54.1174 c 2.92054,-1.20443 12.00077,-3.98938 20.17829,-6.18877 8.17752,-2.19939 17.11162,-5.12267 19.85356,-6.49618 2.74195,-1.37349 8.03688,-3.49901 11.76652,-4.72336 6.28828,-2.0643 7.06345,-2.10816 10.66487,-0.60339 3.49912,1.46203 3.8221,1.93083 3.26149,4.73394 -0.4932,2.46598 0.0322,3.84363 2.53336,6.64294 l 3.1556,3.53173 1.7292,-3.34391 c 1.07275,-2.07445 1.7292,-5.94192 1.7292,-10.18742 0,-9.27717 2.28642,-11.60644 17.28783,-17.61182 6.2957,-2.52031 12.03058,-5.41355 12.74418,-6.42943 0.71359,-1.01588 5.28051,-4.84715 10.14871,-8.51394 4.86819,-3.66678 9.13524,-7.43719 9.48233,-8.37868 0.34709,-0.9415 2.25986,-3.86239 4.25061,-6.49088 1.99075,-2.62849 4.26851,-6.32744 5.0617,-8.21987 0.79319,-1.89245 2.953,-5.32085 4.79958,-7.61868 1.84659,-2.29783 3.04203,-4.6882 2.65654,-5.31194 -0.38549,-0.62374 0.734,-2.93021 2.48775,-5.12551 1.75376,-2.1953 3.74891,-6.38098 4.43369,-9.30152 0.68477,-2.92054 2.14305,-7.86161 3.24064,-10.98016 2.4871,-7.06663 2.48997,-8.72765 0.0226,-13.11999 -1.08514,-1.93174 -2.54648,-6.14074 -3.24745,-9.35334 -3.38425,-15.51052 -20.36002,-37.77627 -35.9463,-47.14788 -12.69345,-7.63223 -23.7758,-10.10782 -45.51929,-10.16816 -10.55322,-0.0293 -12.30983,0.24201 -16.46124,2.54243 -6.56407,3.63735 -15.19959,5.5308 -31.72872,6.9569 -7.88547,0.68034 -18.44428,1.90742 -23.46402,2.72684 -5.01975,0.8194 -18.79823,2.21814 -30.61885,3.10828 -11.82062,0.89015 -24.67925,2.36495 -28.57473,3.27733 -3.8955,0.91238 -11.60026,2.59564 -17.1217,3.74058 -5.52144,1.14494 -10.30051,2.43237 -10.62016,2.86095 -0.31964,0.42859 -2.62358,2.16498 -5.11986,3.85865 -5.15001,3.49417 -24.66673,23.44098 -24.66673,25.21031 0,0.63818 -1.43372,2.79327 -3.18605,4.78905 -1.75232,1.99579 -3.18604,4.17866 -3.18604,4.85083 0,0.67216 -0.88772,2.20873 -1.97271,3.41459 -1.22576,1.36233 -3.02352,7.21893 -4.74798,15.46767 -2.28784,10.94356 -2.89521,17.37887 -3.45809,36.63954 l -0.68281,23.36434 6.37508,5.84108 c 7.0289,6.44013 9.4842,8.49613 10.14624,8.49613 0.24162,0 2.90547,2.38953 5.91967,5.31008 3.49478,3.38618 6.40738,5.31007 8.03897,5.31007 1.40723,0 2.85733,0.48335 3.22243,1.07412 0.36511,0.59075 3.85814,2.567 7.76229,4.39166 3.90415,1.82466 8.76259,4.4477 10.79653,5.82899 2.03396,1.38129 4.78192,2.51143 6.10659,2.51143 1.37454,0 2.40852,0.64854 2.40852,1.51067 0,0.83086 1.67267,2.06269 3.71705,2.7374 2.04438,0.67471 3.71705,1.58497 3.71705,2.02282 0,1.06891 12.24192,3.26886 18.70773,3.3619 2.85319,0.041 6.14344,0.50879 7.31165,1.03943 1.16822,0.53063 10.48741,0.82691 20.70931,0.6584 15.89232,-0.262 19.35469,-0.6237 23.89535,-2.49625 z m 33.98087,-285.62714 c 4.67487,-1.53602 9.33608,-3.52173 10.35827,-4.41266 1.02219,-0.89094 1.85853,-1.30594 1.85853,-0.92222 0,1.86262 7.86209,-3.82605 9.56665,-6.92202 5.08579,-9.23723 6.54662,-12.67793 5.99408,-14.11784 -0.32987,-0.8596 -0.14272,-1.84538 0.41588,-2.19061 0.5586,-0.34524 1.01564,-1.51548 1.01564,-2.60054 0,-1.08507 0.59738,-2.17392 1.32752,-2.41967 1.01842,-0.34276 0.96658,-0.8839 -0.22264,-2.32411 -0.91432,-1.10728 -1.8728,-5.64318 -2.33673,-11.05837 -1.04434,-12.18979 -1.9705,-17.14616 -3.20397,-17.14616 -0.55956,0 -0.72352,-0.92592 -0.36433,-2.0576 0.35918,-1.13169 0.21698,-2.92384 -0.31602,-3.98256 -0.53298,-1.05873 -2.22318,-4.67292 -3.75599,-8.03155 -1.53281,-3.35862 -3.25152,-6.10659 -3.81934,-6.10659 -0.56783,0 -1.74111,-2.38644 -2.6073,-5.30321 -0.86619,-2.91678 -2.79438,-6.90204 -4.28485,-8.85617 -1.49049,-1.95412 -3.23659,-5.0636 -3.88024,-6.90996 -0.64363,-1.84636 -1.60141,-3.35701 -2.12838,-3.35701 -0.52696,0 -0.95812,-0.8973 -0.95812,-1.994 0,-1.09669 -0.71686,-2.58893 -1.59302,-3.31608 -0.87617,-0.72715 -1.59303,-2.45834 -1.59303,-3.84709 0,-1.38875 -0.50611,-2.525 -1.12469,-2.525 -0.61858,0 -0.83288,-0.47218 -0.47621,-1.04927 0.35667,-0.5771 -0.62377,-2.36926 -2.17876,-3.98256 -1.55498,-1.61331 -4.21288,-5.92021 -5.90646,-9.57089 -1.69356,-3.65068 -3.55236,-6.63759 -4.13065,-6.63759 -0.57829,0 -1.05144,-0.66238 -1.05144,-1.47197 0,-2.48636 -7.32126,-24.21701 -9.04556,-26.84861 -1.99026,-3.03752 -4.09292,-3.14559 -6.88468,-0.35384 -5.78854,5.78855 0.1981,24.57578 15.22873,47.7907 9.0746,14.01575 10.25965,15.99871 10.25965,17.16744 0,0.59947 0.89775,2.35849 1.99501,3.90892 3.64748,5.15392 19.06018,36.90179 20.7698,42.78269 2.69869,9.28316 4.76823,21.50713 3.83943,22.67804 -0.47082,0.59356 -1.06702,3.75147 -1.32489,7.01758 -0.57432,7.27442 -3.37606,11.54306 -10.21503,15.56332 l -4.97518,2.92464 -22.30232,0.0683 -22.30233,0.0683 -0.33097,2.79978 c -0.70003,5.92167 0.78475,6.76051 13.28962,7.5081 6.30724,0.37706 12.90143,1.12719 14.65376,1.66693 1.75232,0.53973 3.42337,1.02241 3.71343,1.07262 0.29007,0.0502 4.35228,-1.16547 9.02713,-2.70149 z M 288.86786,346.07711 c 7.10117,-0.66107 14.25269,-1.88221 15.89229,-2.71362 1.6396,-0.83141 4.39112,-3.73506 6.11451,-6.45256 1.72338,-2.71749 5.39992,-6.64766 8.17008,-8.73372 9.00904,-6.78421 21.37684,-24.99525 24.08615,-35.46581 1.80936,-6.99257 4.34481,-42.28551 3.42274,-47.64404 -0.32734,-1.90235 -1.10162,-6.52914 -1.7206,-10.28173 -2.90934,-17.63792 -16.3136,-32.41729 -37.99932,-41.89758 -27.26353,-11.91874 -46.28438,-5.07673 -67.74235,24.36769 -5.12371,7.03069 -8.90106,13.46655 -10.1258,17.25237 -1.07441,3.32112 -3.04233,8.90584 -4.37314,12.41049 -2.23578,5.88783 -2.42137,8.06705 -2.44209,28.67442 -0.0214,21.29098 0.11357,22.78392 2.97642,32.92248 1.64937,5.84109 3.73004,12.67757 4.62373,15.19218 2.06077,5.79852 11.723,16.30689 17.00931,18.49885 12.77959,5.29906 19.816,5.94585 42.10807,3.87058 z m 182.30268,-31.25424 c 4.22913,-1.26397 7.08669,-3.03977 10.35465,-6.43474 2.48247,-2.57895 4.51357,-5.37865 4.51357,-6.22157 0,-0.84291 3.60707,-4.20012 8.01572,-7.46048 4.40865,-3.26034 8.28303,-6.6245 8.60975,-7.47591 0.32672,-0.85139 1.62072,-1.548 2.87558,-1.548 1.61203,0 2.64493,-1.01285 3.51986,-3.45155 0.68108,-1.89835 2.7416,-7.51376 4.57895,-12.47868 3.93263,-10.62682 5.15682,-23.22968 3.32691,-34.25 -0.65469,-3.94273 -1.71886,-10.39448 -2.36483,-14.33721 -0.64598,-3.94273 -1.80379,-8.36337 -2.57292,-9.82364 -0.76915,-1.46028 -2.44138,-4.94069 -3.71609,-7.73426 -4.25424,-9.32331 -10.81265,-17.06929 -17.06883,-20.15959 -14.49901,-7.16194 -29.28506,-9.03632 -38.05679,-4.82436 -2.66686,1.28057 -5.32677,2.86118 -5.91088,3.51247 -0.5841,0.6513 -2.97364,2.4846 -5.31007,4.074 -9.28369,6.3154 -11.33399,8.16717 -15.08107,13.62075 -2.14264,3.11845 -4.5987,6.37564 -5.45791,7.23821 -2.11616,2.12443 -6.07045,11.25261 -8.89223,20.52705 -3.16784,10.41181 -3.8262,31.72025 -1.33337,43.15456 2.12909,9.76585 7.05666,20.371 14.14829,30.45004 4.3444,6.17453 6.50766,8.17388 11.8553,10.95703 3.59768,1.87238 8.53021,3.8268 10.96118,4.34315 5.78316,1.22837 15.70318,0.50512 23.00523,-1.67727 z"
       id="path26"
       transform="matrix(7.5000002,0,0,-7.5000002,0,6850)" />
    <path
       style="fill:#ffffff;stroke-width:0"
       d="m 262.21971,335.01795 c -3.06618,-0.82565 -7.46311,-2.46449 -9.77095,-3.64186 -4.50585,-2.29871 -11.73558,-10.83482 -11.73558,-13.85614 0,-1.01269 -0.71686,-2.43621 -1.59302,-3.16336 -0.87617,-0.72715 -1.59303,-2.66909 -1.59303,-4.31543 0,-1.64632 -0.47791,-3.28869 -1.06201,-3.64969 -0.58411,-0.361 -1.07762,-1.9424 -1.09669,-3.51423 -0.0191,-1.57182 -0.95928,-5.48635 -2.08936,-8.69895 -4.599,-13.07405 -1.3926,-45.57291 5.46476,-55.38874 1.08314,-1.55045 1.96935,-3.60528 1.96935,-4.56631 0,-2.59075 2.86906,-7.66505 4.73979,-8.38292 0.89777,-0.3445 1.6323,-1.59718 1.6323,-2.78373 0,-1.18655 0.41993,-2.15737 0.93317,-2.15737 0.51325,0 1.51725,-1.41007 2.23111,-3.13349 1.43334,-3.46039 13.26443,-14.92077 15.40342,-14.92077 0.74278,0 1.94109,-0.7116 2.66291,-1.58133 0.72181,-0.86973 1.64877,-1.37343 2.0599,-1.11934 0.41113,0.2541 2.81049,-0.24876 5.33191,-1.11746 5.99702,-2.06614 11.91019,-1.16882 23.41634,3.55343 19.77869,8.11738 28.17333,14.48842 32.79911,24.8926 4.54508,10.22269 5.98071,25.93717 4.46621,48.88774 -1.14752,17.38951 -2.61139,22.18163 -9.08683,29.74673 -2.06367,2.41094 -3.75213,4.98803 -3.75213,5.72688 0,1.45943 -15.30108,15.34877 -19.21846,17.44528 -1.32433,0.70876 -4.83003,1.90301 -7.79044,2.65391 -2.96042,0.75089 -7.2942,2.10034 -9.63064,2.99877 -5.30205,2.03881 -17.28369,2.08044 -24.69114,0.0858 z m 17.89507,-45.23267 c 1.98551,-0.66383 6.00237,-2.98076 8.92634,-5.14873 2.92397,-2.16797 6.90859,-4.76516 8.8547,-5.77154 4.32845,-2.23832 7.17211,-8.1968 8.1505,-17.07819 0.65782,-5.9714 0.49615,-6.65463 -2.57099,-10.86518 -5.09977,-7.00095 -10.21317,-9.83589 -19.08224,-10.57944 -5.34851,-0.4484 -7.57138,-0.27774 -7.57138,0.58129 0,0.66882 -0.6428,1.21604 -1.42843,1.21604 -0.78563,0 -2.29342,0.95582 -3.35064,2.12404 -1.05723,1.16821 -2.68449,2.14313 -3.61615,2.16647 -0.93764,0.0235 -3.47203,3.08791 -5.67649,6.86367 -3.24427,5.5567 -3.98146,7.86213 -3.97664,12.43624 0.0113,10.71437 3.88068,18.88189 11.00275,23.22472 3.86399,2.35614 5.40543,2.47998 10.33867,0.83061 z"
       id="path28"
       transform="matrix(7.5000002,0,0,-7.5000002,0,6850)" />
    <path
       style="fill:#ffffff;stroke-width:0"
       d="m 452.69507,305.17795 c -10.02274,-3.07719 -13.70866,-6.28947 -22.37033,-19.49578 -7.92512,-12.08331 -9.19255,-14.39059 -8.36152,-15.22161 0.34796,-0.34797 -0.2448,-2.44191 -1.31725,-4.65321 -1.59794,-3.29479 -1.93891,-6.51265 -1.88898,-17.82673 0.0537,-12.16111 0.39745,-14.74989 2.88513,-21.72598 1.55332,-4.35587 4.01347,-9.16109 5.46701,-10.67826 1.45355,-1.51717 2.64281,-3.11128 2.64281,-3.54246 0,-1.61224 8.52139,-11.9944 11.89517,-14.49264 10.40122,-7.70199 14.08466,-9.5645 18.87906,-9.5461 10.59804,0.0407 30.10484,6.14675 32.40454,10.14334 0.59024,1.02576 1.89318,2.72697 2.89542,3.78047 8.16351,8.58099 14.37436,35.46279 12.57866,54.44293 -0.595,6.28897 -1.59309,11.10709 -2.52037,12.16669 -0.84439,0.96489 -2.31869,3.30108 -3.27621,5.19155 -4.26876,8.42795 -13.04506,15.14806 -19.78301,15.14806 -3.86871,0 -7.39915,1.65904 -7.42439,3.48891 -0.01,0.70959 -1.33126,3.89881 -2.93661,7.08716 -3.85298,7.65229 -8.82399,9.09404 -19.76913,5.73366 z m 13.23987,-40.62323 c 1.66406,-1.23029 3.66227,-2.23689 4.44047,-2.23689 2.28237,0 9.92018,-8.53174 13.45755,-15.03263 2.42152,-4.45019 3.26782,-7.39064 3.26782,-11.35399 0,-2.94167 -0.47791,-5.64385 -1.06202,-6.00485 -0.58411,-0.361 -1.06202,-1.59465 -1.06202,-2.74145 0,-2.54664 -7.75246,-11.15665 -12.04336,-13.37556 -1.71952,-0.8892 -6.19874,-1.68885 -9.95382,-1.77699 -7.65764,-0.17975 -7.36521,-0.3979 -18.62491,13.89377 l -5.04457,6.40295 -0.009,13.13585 -0.009,13.13585 5.05321,4.55141 c 5.01598,4.51789 5.10299,4.54806 11.80829,4.09543 4.66202,-0.31471 7.69255,-1.1491 9.78064,-2.6929 z"
       id="path30"
       transform="matrix(7.5000002,0,0,-7.5000002,0,6850)" />
    <path
       style="fill:#ffffff;stroke-width:0"
       d="m 313.99225,790.59067 c -7.30136,-0.7901 -14.40354,-1.94562 -15.78262,-2.56781 -2.7119,-1.22352 -2.70157,-1.75004 0.20857,-10.62751 0.86165,-2.62849 2.05953,-7.40756 2.66196,-10.62016 4.11281,-21.9327 7.69825,-31.17305 16.78456,-43.25693 7.17577,-9.54305 11.33704,-12.76599 19.10016,-14.79322 6.70472,-1.75085 11.44441,-1.27273 17.33456,1.74864 5.25607,2.69612 8.01199,5.97848 10.71257,12.75888 2.13408,5.35807 2.27225,7.02666 1.67092,20.17829 -0.36054,7.88547 -1.35479,17.44361 -2.20944,21.24031 -2.42721,10.78265 -2.1386,15.55894 1.1228,18.5815 l 2.75133,2.54984 -3.9716,1.65944 c -12.13895,5.07198 -25.11623,5.88299 -50.38377,3.14873 z"
       id="path32"
       transform="matrix(7.5000002,0,0,-7.5000002,0,6850)" />
    <path
       style="fill:#ffffff;stroke-width:0"
       d="m 264.86948,770.51537 c -15.76473,-8.43733 -19.13623,-11.03295 -21.99104,-16.93021 -1.83547,-3.79157 -2.06176,-5.19726 -1.11995,-6.95705 0.90883,-1.69816 0.84047,-2.5452 -0.29721,-3.68289 -0.81262,-0.81262 -2.11841,-3.02479 -2.90175,-4.91594 -1.29459,-3.12544 -1.19678,-3.83459 1.07447,-7.79007 3.84324,-6.69315 12.82219,-16.37822 16.31197,-17.59476 4.04374,-1.40966 10.1686,0.18051 13.12493,3.40757 1.21,1.32081 4.2104,6.70263 6.66756,11.95961 2.45715,5.25697 5.91933,12.59198 7.69372,16.3 3.06014,6.39489 3.19698,7.24208 2.65899,16.46124 -0.74001,12.6808 -2.1646,16.65569 -5.92181,16.52303 -1.54915,-0.0547 -8.4341,-3.10594 -15.29988,-6.78053 z"
       id="path34"
       transform="matrix(7.5000002,0,0,-7.5000002,0,6850)" />
    <path
       style="fill:#ffffff;stroke-width:0"
       d="m 265.67054,689.9075 c -8.94347,-1.85428 -12.86818,-4.17337 -14.27456,-8.43475 -0.64696,-1.9603 -2.35944,-5.16785 -3.80552,-7.1279 -1.44607,-1.96004 -2.62458,-4.54615 -2.61891,-5.74691 0.0224,-4.74361 16.5905,-21.26096 26.08029,-26.00038 4.9942,-2.49423 21.26941,-4.82286 26.17591,-3.74521 1.63678,0.35949 3.44989,1.53918 4.02914,2.62152 2.64683,4.94564 -0.41359,23.34942 -5.45518,32.80458 -3.17011,5.94535 -7.95797,11.78357 -9.66356,11.78357 -0.49848,0 -2.20122,0.93003 -3.78387,2.06674 -3.90476,2.80452 -9.07672,3.35593 -16.68374,1.77874 z"
       id="path36"
       transform="matrix(7.5000002,0,0,-7.5000002,0,6850)" />
    <path
       style="fill:#ffffff;stroke-width:0"
       d="m 323.24062,689.03484 c -4.29347,-4.29347 -6.54169,-15.75272 -6.60653,-33.67367 -0.0712,-19.66946 -0.54517,-19.02052 15.21492,-20.82977 13.64098,-1.56597 23.79079,-0.28741 26.43809,3.33039 2.85604,3.90306 4.90291,13.64308 4.99608,23.77387 0.0848,9.22367 -0.16969,10.56278 -2.96696,15.61038 -1.68286,3.03668 -4.0724,6.45336 -5.31008,7.59264 -3.33832,3.07289 -11.81931,5.59514 -21.00426,6.24668 -7.6214,0.54062 -8.29929,0.41145 -10.76126,-2.05052 z"
       id="path38"
       transform="matrix(7.5000002,0,0,-7.5000002,0,6850)" />
    <path
       style="fill:#ffffff;stroke-width:0"
       d="m 375.65061,780.69625 c -0.7786,-1.45483 -0.63033,-2.90109 0.53737,-5.24181 0.88696,-1.77795 2.29001,-8.40085 3.11789,-14.71757 0.82789,-6.31671 1.99337,-14.59133 2.58996,-18.38803 0.5966,-3.79671 1.0947,-9.29264 1.10691,-12.21318 0.0151,-3.61176 0.99305,-7.34806 3.05776,-11.68217 3.24316,-6.80787 4.69958,-8.38143 11.18331,-12.08275 3.44316,-1.96558 4.66376,-2.17289 7.32708,-1.24445 1.75762,0.61271 4.3503,1.11402 5.7615,1.11402 2.97523,0 12.81445,9.28336 15.64915,14.76507 0.99054,1.91549 2.51028,6.88451 3.37719,11.04224 1.09975,5.27441 2.84882,9.46527 5.78619,13.86403 2.3155,3.46748 3.97627,6.53822 3.69062,6.82387 -0.28566,0.28565 -1.93957,-0.0689 -3.67537,-0.78789 -4.26553,-1.76684 -5.40823,-0.7632 -5.40823,4.75007 0,4.35117 -0.32997,4.8924 -4.89936,8.03622 -2.69464,1.85396 -7.59319,4.19449 -10.88565,5.20117 -3.29247,1.00668 -10.04852,3.62033 -15.01344,5.80812 -15.27222,6.72971 -15.91059,6.96222 -19.11495,6.96222 -1.96641,0 -3.50862,-0.73989 -4.18793,-2.00918 z"
       id="path40"
       transform="matrix(7.5000002,0,0,-7.5000002,0,6850)" />
    <path
       style="fill:#ffffff;stroke-width:0"
       d="m 395.64539,674.02958 c -5.03181,-1.8675 -9.92601,-5.40744 -12.42184,-8.98461 -2.1563,-3.09054 -5.97482,-17.43849 -7.04065,-26.45498 -0.79183,-6.69848 -0.24559,-7.11938 12.01791,-9.2603 5.47256,-0.95538 9.86597,-2.44274 12.49757,-4.23096 4.49079,-3.05157 10.79186,-3.63751 15.18858,-1.41241 2.72242,1.37777 3.14922,2.95318 6.58909,24.32186 1.6913,10.50643 0.14461,20.17947 -3.86828,24.19236 -2.35588,2.35589 -3.73258,2.7313 -10.90969,2.975 -4.9427,0.16782 -9.74243,-0.28853 -12.05269,-1.14596 z"
       id="path42"
       transform="matrix(7.5000002,0,0,-7.5000002,0,6850)" />
    <path
       style="fill:#ffffff;stroke-width:0"
       d="m 461.68815,676.40052 c -8.011,-2.45905 -18.13001,-11.77725 -18.13001,-16.69522 0,-1.24349 -0.89264,-4.30477 -1.98365,-6.80286 -2.90801,-6.65851 -5.45046,-15.07358 -5.45046,-18.04009 0,-1.42608 -1.19477,-3.7153 -2.65504,-5.08716 -3.16198,-2.97053 -3.31179,-4.38652 -0.71289,-6.7385 3.6213,-3.27722 16.5032,-1.77578 21.43074,2.49785 1.34227,1.16414 3.29497,2.11662 4.33934,2.11662 1.04437,0 2.20477,0.49499 2.57868,1.09998 0.3739,0.60499 3.7299,3.02628 7.45778,5.38064 3.72787,2.35437 10.14226,7.88314 14.2542,12.28616 6.35056,6.80012 7.79088,9.06814 9.56596,15.06315 3.31957,11.21127 3.25729,13.0745 -0.47121,14.09813 -5.30857,1.45744 -26.29334,2.02768 -30.22344,0.8213 z"
       id="path44"
       transform="matrix(7.5000002,0,0,-7.5000002,0,6850)" />
    <path
       style="fill:#ffffff;stroke-width:0"
       d="m 446.86732,742.61434 c -3.77117,-15.65446 -3.07508,-21.9272 3.15267,-28.41027 4.69376,-4.88619 10.58251,-8.15432 19.30779,-10.71542 5.49185,-1.61201 6.31212,-1.63047 7.96511,-0.17933 1.01352,0.88976 3.03754,1.97171 4.49781,2.40435 1.46027,0.43263 3.25242,1.26453 3.98256,1.84867 1.89315,1.51461 1.63046,6.16049 -0.5366,9.48984 -8.97164,13.78357 -14.89962,21.39286 -20.53458,26.35867 -7.75682,6.83571 -10.23259,8.40723 -13.32548,8.45849 -1.98304,0.0329 -2.55426,-1.13952 -4.50928,-9.255 z"
       id="path46"
       transform="matrix(7.5000002,0,0,-7.5000002,0,6850)" />
  </g>
</svg>
