<?xml version="1.0" encoding="UTF-8" standalone="no"?>
<svg
   xmlns:dc="http://purl.org/dc/elements/1.1/"
   xmlns:cc="http://creativecommons.org/ns#"
   xmlns:rdf="http://www.w3.org/1999/02/22-rdf-syntax-ns#"
   xmlns:svg="http://www.w3.org/2000/svg"
   xmlns="http://www.w3.org/2000/svg"
   xmlns:sodipodi="http://sodipodi.sourceforge.net/DTD/sodipodi-0.dtd"
   xmlns:inkscape="http://www.inkscape.org/namespaces/inkscape"
   version="1.0"
   width="553.000000pt"
   height="685.000000pt"
   viewBox="0 0 553.000000 685.000000"
   preserveAspectRatio="xMidYMid meet"
   id="svg20"
   sodipodi:docname="face6.svg"
   inkscape:version="1.0.1 (3bc2e813f5, 2020-09-07)">
  <defs
     id="defs24" />
  <sodipodi:namedview
     pagecolor="#ffffff"
     bordercolor="#666666"
     borderopacity="1"
     objecttolerance="10"
     gridtolerance="10"
     guidetolerance="10"
     inkscape:pageopacity="0"
     inkscape:pageshadow="2"
     inkscape:window-width="1920"
     inkscape:window-height="1027"
     id="namedview22"
     showgrid="false"
     inkscape:zoom="0.94160584"
     inkscape:cx="368.66667"
     inkscape:cy="456.66667"
     inkscape:window-x="1912"
     inkscape:window-y="-8"
     inkscape:window-maximized="1"
     inkscape:current-layer="svg20" />
  <metadata
     id="metadata2">
Created by potrace 1.16, written by Peter Selinger 2001-2019
<rdf:RDF>
  <cc:Work
     rdf:about="">
    <dc:format>image/svg+xml</dc:format>
    <dc:type
       rdf:resource="http://purl.org/dc/dcmitype/StillImage" />
  </cc:Work>
</rdf:RDF>
</metadata>
  <g
     transform="translate(0.000000,685.000000) scale(0.100000,-0.100000)"
     fill="#000000"
     stroke="none"
     id="g18">
    <path
       d="M2440 6344 c-42 -5 -107 -18 -220 -45 -47 -11 -92 -21 -100 -22 -8 -1 -19 -8 -23 -14 -4 -7 -18 -13 -31 -13 -13 0 -29 -6 -35 -14 -7 -8 -20 -14 -30 -13 -20 1 -89 -30 -109 -50 -7 -7 -20 -13 -28 -13 -17 0 -137 -77 -142 -91 -2 -5 -12 -9 -22 -9 -10 0 -20 -7 -24 -15 -3 -8 -10 -15 -16 -15 -6 0 -26 -11 -43 -23 -18 -13 -48 -30 -67 -37 -19 -7 -53 -26 -74 -42 -22 -15 -46 -28 -52 -28 -7 0 -17 -6 -21 -13 -14 -23 -87 -74 -115 -81 -18 -4 -28 -13 -28 -24 0 -21 -54 -98 -87 -125 -21 -17 -107 -137 -98 -137 2 0 -4 -15 -14 -32 -49 -84 -91 -170 -91 -188 0 -10 -4 -22 -10 -25 -5 -3 -10 -17 -10 -31 0 -14 -4 -22 -10 -19 -6 3 -10 0 -10 -8 0 -8 -6 -20 -14 -26 -10 -8 -13 -26 -11 -54 10 -109 -1 -194 -35 -256 -6 -12 -8 -21 -4 -21 3 0 1 -6 -5 -14 -14 -17 -16 -78 -7 -310 3 -98 2 -184 -2 -190 -10 -12 7 -222 24 -316 9 -47 11 -59 28 -182 28 -206 56 -310 161 -598 15 -41 33 -82 39 -90 12 -14 69 -131 86 -175 4 -11 20 -47 36 -80 15 -33 29 -65 30 -72 1 -6 27 -62 57 -125 86 -177 105 -220 112 -261 4 -20 11 -40 16 -43 5 -3 9 -12 9 -20 0 -9 11 -40 25 -70 14 -30 25 -64 25 -75 0 -11 10 -39 21 -62 12 -23 21 -43 20 -45 -1 -1 9 -26 22 -55 52 -110 61 -133 64 -154 4 -27 46 -137 67 -178 9 -16 16 -37 16 -45 0 -9 5 -21 10 -26 10 -10 49 -117 71 -194 24 -81 32 -107 44 -135 7 -16 18 -46 25 -65 28 -76 102 -213 160 -294 127 -178 394 -409 521 -449 200 -64 248 -65 368 -11 31 14 68 31 83 37 43 19 215 176 263 239 6 7 41 50 78 95 38 46 66 83 62 83 -3 0 5 21 18 48 40 76 45 88 78 212 5 19 12 58 14 85 3 28 13 86 21 130 17 82 19 211 6 320 -16 128 -1 299 38 425 11 36 46 154 69 235 10 39 23 90 26 115 7 39 35 137 52 180 3 8 8 24 10 35 1 11 7 29 12 40 6 11 19 40 31 65 11 25 26 54 33 65 36 58 90 141 96 145 3 3 12 14 19 25 38 61 54 85 89 134 21 29 50 66 65 82 14 16 24 29 20 29 -3 0 8 15 24 33 36 38 104 142 104 158 0 6 15 31 32 57 18 26 47 76 65 112 41 81 102 188 126 220 9 14 17 32 17 41 0 9 6 29 14 45 16 32 34 120 67 330 29 192 21 436 -21 619 -6 28 -13 59 -15 70 -10 57 -23 102 -40 140 -7 17 -23 62 -35 100 -24 74 -68 177 -81 185 -4 3 -24 37 -45 75 -21 39 -48 81 -60 95 -12 14 -37 42 -54 63 -18 20 -36 37 -40 37 -5 0 -25 16 -46 35 -21 20 -63 53 -93 73 -71 48 -207 146 -245 175 -15 12 -38 27 -50 32 -12 6 -42 25 -68 43 -26 17 -50 32 -53 32 -4 0 -21 10 -38 23 -61 43 -108 60 -249 92 -31 7 -60 15 -65 18 -4 2 -31 7 -60 11 -28 3 -63 10 -78 16 -14 5 -44 10 -67 10 -22 0 -65 7 -95 16 -112 33 -368 52 -503 38z m370 -94 c41 -6 93 -18 115 -27 22 -8 63 -17 90 -19 28 -3 70 -10 95 -17 25 -6 52 -10 62 -9 9 2 19 -2 23 -8 3 -5 23 -10 44 -10 48 0 86 -12 193 -59 26 -12 54 -21 62 -21 7 0 19 -7 27 -16 7 -8 26 -22 43 -31 17 -9 33 -19 36 -23 3 -4 30 -22 60 -40 30 -18 71 -45 90 -61 102 -85 171 -140 210 -165 63 -42 64 -43 135 -109 81 -76 138 -169 218 -355 11 -25 26 -59 34 -75 7 -17 22 -64 32 -105 11 -41 30 -113 44 -160 13 -47 25 -94 25 -105 0 -11 1 -65 2 -119 1 -55 6 -109 10 -121 5 -12 0 -71 -10 -140 -10 -66 -23 -156 -30 -200 -6 -44 -14 -96 -17 -115 -3 -19 -9 -43 -15 -53 -5 -9 -7 -21 -4 -26 3 -5 -1 -14 -9 -21 -8 -7 -15 -18 -15 -24 0 -6 -13 -36 -30 -66 -16 -30 -40 -76 -53 -102 -13 -26 -27 -45 -31 -41 -3 3 -6 -3 -6 -14 0 -11 -9 -30 -20 -43 -10 -12 -25 -35 -32 -51 -7 -16 -16 -29 -20 -29 -5 0 -8 -8 -8 -19 0 -10 -8 -29 -18 -42 -10 -13 -22 -31 -25 -39 -12 -25 -39 -64 -102 -142 -33 -41 -64 -82 -70 -90 -14 -22 -131 -13 -140 11 -4 10 1 21 14 30 22 14 27 46 12 70 -5 7 -25 13 -47 13 -32 0 -44 -6 -69 -36 -16 -20 -38 -36 -47 -36 -23 0 -48 50 -48 95 0 29 4 35 21 35 62 0 81 58 28 86 -29 14 -30 18 -24 52 6 34 24 83 45 123 5 10 4 53 -2 100 -6 46 -11 111 -12 144 -1 74 -8 85 -52 85 -19 0 -47 6 -62 14 -15 7 -43 16 -62 20 -29 5 -39 2 -55 -16 -11 -13 -18 -30 -17 -39 2 -9 -4 -19 -11 -22 -9 -3 -15 -20 -15 -44 0 -22 -2 -43 -3 -49 -9 -40 46 -60 69 -24 14 23 64 27 81 6 6 -7 12 -37 14 -66 2 -50 0 -53 -25 -62 -40 -14 -88 -59 -88 -83 0 -12 -5 -26 -11 -32 -17 -17 16 -73 44 -73 18 -1 16 -4 -14 -20 -38 -20 -49 -40 -55 -103 -5 -48 14 -69 58 -65 31 3 33 1 38 -39 4 -23 14 -51 24 -62 14 -16 17 -30 13 -62 -12 -90 26 -121 80 -65 36 37 52 43 68 27 6 -6 27 -12 48 -14 21 -3 43 -9 50 -16 6 -6 19 -11 29 -11 24 0 24 -40 1 -62 -27 -25 -43 -46 -43 -56 0 -5 -7 -15 -15 -22 -9 -7 -22 -29 -31 -49 -9 -20 -20 -43 -25 -51 -33 -55 -60 -114 -70 -156 -7 -27 -15 -54 -20 -59 -4 -6 -10 -22 -13 -35 -15 -69 -27 -127 -30 -145 -2 -11 -6 -27 -9 -35 -13 -39 -37 -142 -37 -162 0 -13 -7 -31 -15 -41 -7 -11 -11 -25 -8 -33 3 -8 1 -20 -5 -27 -9 -12 -33 -77 -38 -107 -2 -8 -8 -40 -14 -70 -12 -65 -13 -138 -6 -314 4 -97 0 -171 -15 -300 -12 -94 -22 -180 -23 -191 -1 -11 -8 -33 -15 -50 -16 -35 -21 -49 -52 -130 -13 -33 -30 -66 -38 -72 -8 -7 -11 -13 -7 -13 8 0 -54 -81 -89 -115 -11 -11 -26 -32 -34 -47 -20 -38 -154 -158 -213 -189 -27 -15 -57 -34 -67 -43 -10 -9 -22 -16 -27 -14 -5 1 -20 -4 -34 -11 -42 -24 -183 -15 -227 15 -12 7 -31 14 -42 14 -22 0 -81 31 -81 43 0 4 -6 7 -12 7 -21 0 -146 105 -230 193 -91 94 -159 180 -196 246 -14 25 -34 62 -45 81 -10 19 -23 40 -27 45 -11 14 -75 185 -100 270 -12 39 -27 84 -34 100 -8 17 -24 57 -36 90 -28 77 -48 130 -70 180 -9 22 -23 61 -30 88 -7 26 -17 50 -21 53 -5 3 -9 12 -9 21 0 15 -19 63 -45 113 -7 14 -20 50 -30 80 -10 30 -21 60 -25 65 -4 6 -24 57 -45 115 -34 97 -64 177 -85 225 -4 11 -16 38 -25 60 -9 22 -39 85 -65 140 -59 119 -112 237 -130 285 -7 19 -32 76 -56 125 -49 103 -83 192 -94 250 -4 22 -17 76 -29 120 -12 44 -24 103 -27 130 -12 113 -24 195 -39 280 -16 85 -19 166 -12 435 1 47 0 123 -2 170 -5 101 20 257 49 312 5 9 10 36 10 60 3 72 11 118 23 118 6 0 26 10 44 23 l33 22 -38 32 -37 31 22 44 c11 23 36 72 53 108 18 36 43 79 56 97 13 17 24 36 24 42 0 6 9 16 20 23 11 7 20 16 20 20 0 5 8 16 19 27 10 10 24 27 29 37 9 16 14 17 31 7 12 -7 33 -13 48 -13 16 0 37 -7 47 -15 11 -8 28 -15 38 -15 13 0 18 -8 18 -27 0 -16 12 -46 25 -68 14 -22 25 -50 25 -61 0 -31 29 -39 53 -16 24 24 25 85 3 107 -30 31 -15 50 46 58 25 4 51 8 58 9 7 2 15 -4 19 -12 30 -58 42 -77 60 -88 18 -12 22 -10 46 28 14 23 25 51 23 63 -3 19 1 22 32 19 79 -7 129 -35 130 -73 0 -22 47 -72 60 -64 6 3 10 14 10 25 0 10 6 20 14 23 9 4 12 14 9 26 -5 19 -1 21 36 21 22 0 41 -4 41 -10 0 -10 48 -38 103 -61 15 -6 43 -34 62 -63 19 -28 53 -72 75 -96 58 -62 80 -102 70 -120 -6 -10 -2 -24 11 -40 l19 -25 24 29 24 29 39 -18 c21 -11 54 -20 73 -22 19 -1 66 -7 104 -12 42 -5 82 -5 103 1 23 6 45 6 65 -1 17 -6 46 -11 65 -11 19 0 41 -7 49 -15 28 -27 52 -18 63 22 9 32 8 40 -7 54 -18 17 -72 34 -164 52 l-57 11 -17 52 c-17 55 -48 98 -67 91 -16 -5 -27 -57 -21 -98 5 -32 3 -37 -17 -42 -29 -8 -59 17 -57 47 3 36 -25 85 -55 95 -23 8 -27 14 -22 34 8 29 -14 49 -46 43 -13 -3 -30 -5 -36 -5 -7 -1 -13 -11 -13 -23 -1 -13 -6 -36 -13 -51 l-12 -28 -55 63 c-102 115 -121 148 -114 193 7 53 -8 90 -45 110 -29 15 -31 14 -46 -9 -9 -13 -15 -37 -13 -53 2 -23 0 -28 -17 -25 -11 1 -45 5 -76 8 -47 6 -57 10 -72 35 -14 25 -20 29 -44 23 -15 -4 -34 -15 -41 -25 -10 -15 -18 -16 -38 -9 -14 6 -46 10 -72 10 -26 0 -52 4 -57 8 -6 4 -10 30 -10 59 0 58 -19 82 -67 83 -21 0 -28 -6 -33 -30 -3 -16 -3 -49 0 -73 l7 -44 -39 -6 c-76 -13 -83 -11 -83 28 0 42 -25 59 -76 49 -25 -4 -34 -11 -32 -23 4 -25 -10 -40 -32 -34 -28 7 -36 41 -13 59 22 16 132 83 188 113 75 41 110 63 118 77 4 8 13 14 19 14 6 0 19 6 27 14 15 13 85 53 200 113 24 12 60 25 80 29 20 4 43 12 51 19 8 6 38 18 65 25 28 7 55 16 60 19 13 8 116 29 174 36 25 3 47 8 50 11 9 9 259 -3 341 -16z"
       id="path4" />
    <path
       d="M3644 5298 c-3 -4 -15 -8 -27 -8 -12 0 -40 -16 -61 -35 -22 -19 -43 -35 -48 -35 -4 0 -8 -9 -8 -19 0 -30 -28 -51 -69 -51 -38 0 -91 -19 -91 -32 0 -5 -8 -8 -17 -8 -10 0 -36 -14 -57 -30 -22 -17 -44 -30 -50 -30 -6 0 -25 -13 -42 -28 -17 -15 -46 -41 -65 -57 -19 -17 -41 -46 -49 -65 -7 -19 -23 -48 -34 -65 -18 -26 -21 -43 -19 -140 1 -102 4 -116 38 -196 26 -64 51 -102 93 -147 52 -56 136 -112 168 -112 7 0 25 -5 41 -11 15 -6 30 -11 33 -11 3 0 14 -5 24 -10 16 -9 96 -17 196 -21 14 0 59 7 100 17 41 9 80 18 86 20 17 3 84 69 84 82 0 7 16 26 35 43 19 17 44 47 55 68 11 21 31 51 45 67 14 16 25 32 25 36 0 4 16 24 35 44 39 42 95 138 95 165 0 9 5 22 11 28 15 15 -16 172 -50 254 -15 36 -41 83 -57 103 -39 50 -146 134 -214 169 -47 23 -66 27 -128 25 -40 -1 -75 -6 -78 -10z m146 -114 c44 -15 115 -70 186 -143 43 -43 83 -152 83 -226 1 -36 -6 -61 -24 -90 -13 -22 -29 -50 -34 -61 -5 -12 -21 -33 -35 -47 -14 -15 -26 -33 -26 -42 0 -8 -7 -15 -15 -15 -8 0 -15 -6 -15 -14 0 -12 -52 -94 -84 -134 -35 -43 -72 -69 -109 -79 -23 -6 -64 -16 -92 -23 -68 -18 -155 -15 -218 6 -28 10 -54 19 -57 19 -29 8 -92 43 -118 66 -18 16 -37 29 -42 29 -16 0 -56 71 -73 130 -22 76 -27 122 -20 181 5 41 11 52 29 59 16 6 24 19 26 42 2 18 7 33 13 33 5 0 25 17 43 38 19 20 43 37 53 37 11 0 19 4 19 10 0 5 21 19 48 31 26 12 54 27 62 35 9 7 52 16 98 19 45 4 95 13 110 21 15 7 36 14 47 14 11 0 33 14 48 29 24 25 27 33 17 50 -6 12 -15 21 -20 21 -6 0 -10 5 -10 10 0 15 59 12 110 -6z"
       id="path6" />
    <path
       d="M3581 4852 c-40 -19 -84 -58 -100 -89 -13 -26 -14 -77 -2 -101 5 -9 13 -28 19 -42 5 -14 28 -38 51 -54 39 -27 43 -28 85 -16 24 7 49 9 55 5 17 -10 51 18 41 35 -8 13 -7 20 6 58 11 30 3 124 -12 147 -8 12 -36 34 -62 48 -46 25 -49 25 -81 9z"
       id="path8" />
    <path
       d="M1828 5206 c-26 -7 -49 -11 -52 -9 -2 2 -16 -2 -32 -8 -16 -6 -70 -13 -121 -15 -66 -2 -105 -9 -137 -24 -25 -11 -51 -20 -58 -20 -18 0 -58 -44 -58 -64 0 -9 -5 -16 -11 -16 -20 0 -2 -178 26 -264 14 -42 25 -86 25 -97 0 -33 27 -75 70 -109 22 -17 58 -57 80 -89 44 -62 125 -137 184 -171 21 -11 47 -27 59 -35 12 -8 62 -19 110 -24 80 -9 93 -8 169 15 46 14 95 30 111 36 36 14 167 141 167 162 0 9 8 29 18 43 14 23 17 49 15 171 -1 132 -3 148 -29 210 -15 37 -36 76 -46 88 -10 11 -18 24 -18 28 0 4 -5 12 -10 19 -6 7 -24 30 -40 52 -17 22 -36 47 -43 56 -49 64 -254 99 -379 65z m251 -119 c34 -9 50 -21 70 -52 14 -22 36 -53 49 -69 12 -15 37 -58 54 -95 27 -57 31 -80 36 -174 5 -104 4 -111 -23 -168 -16 -32 -33 -59 -38 -59 -5 0 -27 -16 -48 -35 -22 -19 -46 -35 -54 -35 -9 0 -32 -8 -53 -18 -28 -14 -57 -18 -119 -17 -78 2 -85 4 -140 41 -32 21 -62 41 -68 43 -14 6 -92 94 -121 136 -14 21 -23 43 -21 50 3 6 -7 25 -22 41 -16 16 -34 41 -41 54 -7 14 -24 33 -37 43 -13 10 -21 23 -17 28 3 6 1 15 -4 22 -22 28 -36 165 -19 187 21 26 118 52 207 57 47 2 97 10 113 18 15 8 33 12 40 10 7 -3 26 -1 42 5 36 11 152 4 214 -13z"
       id="path10" />
    <path
       d="M1815 4887 c-56 -34 -75 -51 -98 -86 -25 -37 -25 -38 -8 -87 17 -51 58 -107 72 -98 4 2 10 0 13 -5 7 -11 87 -13 101 -2 13 11 66 25 85 23 8 -1 26 14 39 34 18 29 22 45 17 75 -8 52 -44 123 -69 138 -28 18 -127 23 -152 8z"
       id="path12" />
    <path
       d="M2824 4329 c-13 -15 -19 -38 -20 -82 -1 -34 -3 -64 -4 -67 -1 -3 -1 -9 0 -15 4 -20 1 -331 -4 -360 -3 -16 -8 -95 -11 -175 -5 -108 -10 -149 -21 -161 -21 -24 -88 -31 -262 -29 -171 2 -184 -2 -175 -54 3 -20 1 -36 -6 -40 -6 -4 -11 -14 -11 -21 0 -12 14 -13 73 -9 39 2 124 6 187 9 233 8 300 30 316 102 5 21 9 83 10 138 2 202 23 661 32 709 l9 48 -33 14 c-45 19 -58 18 -80 -7z"
       id="path14" />
    <path
       d="M2538 2985 c-4 -4 -24 -10 -45 -12 -20 -2 -51 -11 -69 -19 -27 -13 -42 -14 -88 -4 -103 21 -237 -18 -293 -86 -74 -90 -83 -103 -83 -117 0 -9 -9 -22 -19 -29 -15 -10 -22 -31 -26 -79 -22 -211 4 -298 157 -525 88 -130 127 -222 109 -260 -18 -40 -13 -81 13 -106 13 -13 28 -44 35 -70 14 -58 15 -284 1 -293 -17 -10 -11 -71 8 -96 11 -13 22 -37 26 -54 4 -16 18 -54 32 -83 13 -29 24 -55 24 -58 0 -5 33 -82 53 -124 20 -40 110 -123 162 -150 28 -13 52 -24 55 -23 3 1 26 4 51 7 55 6 78 15 102 37 10 9 39 27 65 40 55 28 175 146 196 192 43 95 43 120 11 422 -34 322 -7 627 65 735 9 14 20 33 23 43 4 9 11 17 16 17 5 0 13 10 17 22 3 12 10 26 15 32 25 30 56 86 72 127 14 36 16 67 13 150 -2 57 -10 118 -17 134 -7 17 -11 33 -11 38 4 17 -87 95 -119 102 -18 4 -49 16 -69 26 -106 55 -126 59 -304 65 -94 4 -174 3 -178 -1z m417 -137 c44 -21 89 -38 99 -40 35 -5 66 -83 70 -176 2 -45 0 -84 -5 -87 -4 -3 -30 1 -56 10 -26 8 -57 13 -68 11 -11 -2 -28 1 -37 5 -9 5 -30 10 -45 12 -15 1 -50 13 -78 26 -27 13 -53 24 -57 23 -10 -2 -57 64 -74 103 -17 41 -18 91 -3 101 6 3 8 17 5 30 l-7 25 88 -4 c77 -2 99 -8 168 -39z m-566 -43 c7 -7 17 -30 22 -52 4 -21 15 -63 24 -93 14 -49 14 -60 0 -102 -8 -26 -15 -52 -15 -58 0 -13 -40 -49 -55 -50 -6 0 -22 -8 -35 -17 -14 -10 -41 -24 -60 -31 -51 -19 -202 -51 -216 -45 -21 8 -39 95 -38 178 2 88 11 145 25 145 5 0 9 7 9 15 0 8 23 38 51 66 51 52 52 52 91 42 33 -9 42 -8 61 8 18 15 32 17 72 12 28 -3 56 -11 64 -18z m396 -326 c4 -5 19 -7 34 -4 18 4 32 1 40 -8 6 -8 28 -15 49 -15 20 -1 62 -9 92 -19 64 -21 76 -46 38 -78 -14 -11 -36 -40 -49 -65 -13 -25 -27 -47 -30 -50 -7 -6 -26 -81 -34 -135 -3 -22 -11 -57 -16 -78 -9 -35 -12 -37 -42 -33 -55 7 -97 18 -103 27 -2 4 -11 6 -19 2 -8 -3 -15 0 -15 6 0 6 -5 11 -11 11 -6 0 -28 12 -50 28 -34 23 -39 32 -39 67 0 22 -5 58 -12 80 -18 66 -11 114 24 172 23 37 39 53 53 53 12 0 31 11 43 25 24 27 37 31 47 14z m-365 -223 l35 -11 6 -85 c4 -47 10 -96 14 -110 9 -36 -47 -119 -99 -143 -52 -25 -90 -19 -94 13 -2 14 -8 29 -13 35 -5 5 -9 19 -9 32 0 13 -4 31 -8 41 -45 92 -70 136 -89 154 -32 30 -30 56 5 63 15 3 43 10 62 15 74 20 118 19 190 -4z m465 -398 c2 -2 5 -55 8 -118 3 -63 7 -124 9 -135 3 -18 -3 -20 -62 -20 -124 -1 -154 23 -164 133 l-6 73 36 36 c25 24 47 36 70 38 19 1 37 5 40 8 5 5 62 -8 69 -15z m-391 -94 c31 -27 34 -35 52 -155 7 -43 -16 -97 -67 -158 -38 -45 -79 -60 -114 -41 -22 12 -23 18 -24 144 -1 72 -5 148 -10 169 -7 27 -6 39 2 41 7 2 26 8 42 14 52 17 85 14 119 -14z m414 -354 c2 -19 7 -39 12 -45 4 -5 7 -53 6 -105 -2 -87 -4 -99 -31 -140 -17 -25 -39 -53 -50 -63 -51 -45 -129 -97 -146 -97 -18 0 -18 1 0 34 11 18 19 48 20 67 2 55 7 95 15 108 16 25 7 118 -15 155 -16 28 -19 44 -14 76 8 48 15 53 49 40 19 -7 26 -6 26 3 0 9 17 11 62 7 l63 -5 3 -35z m-357 -205 c1 -44 1 -93 0 -110 -1 -16 -3 -56 -3 -88 -1 -47 -4 -57 -17 -55 -25 4 -92 97 -95 133 -1 6 -9 21 -18 35 -19 29 -52 139 -44 147 3 3 28 7 56 8 28 2 53 5 56 8 2 2 18 4 34 3 l30 -1 1 -80z"
       id="path16" />
  </g>
  <path
     style="fill:#ffffff;stroke-width:0"
     d="m 359.41809,832.49837 c -3.62645,-0.44102 -8.8247,-1.7888 -11.55167,-2.99507 -2.72697,-1.20627 -5.63328,-2.19322 -6.45846,-2.19322 -2.11741,0 -9.91184,-4.10215 -9.91184,-5.21654 0,-0.5089 -1.09805,-1.20088 -2.44011,-1.53772 -3.6471,-0.91536 -21.59187,-16.30411 -32.04675,-27.48203 -22.95179,-24.53917 -35.76104,-47.06764 -46.72236,-82.17369 -1.4795,-4.73846 -6.30834,-17.88091 -10.73072,-29.20542 -4.42239,-11.32452 -9.40715,-24.41328 -11.07723,-29.08615 -4.38434,-12.26728 -7.73715,-21.06826 -11.93524,-31.32946 -3.87112,-9.46198 -9.40455,-23.80154 -19.4663,-50.44574 -3.30869,-8.76162 -10.30659,-25.01046 -15.55089,-36.10852 -5.2443,-11.09807 -12.54673,-27.10795 -16.22762,-35.57752 -3.68088,-8.46958 -8.62982,-19.57727 -10.99763,-24.68377 -2.36781,-5.1065 -5.53444,-12.69253 -7.03696,-16.85786 -3.84375,-10.65578 -10.87369,-40.97403 -12.28403,-52.97775 -0.65196,-5.54903 -2.33784,-17.49671 -3.74638,-26.55039 -2.3676,-15.21823 -2.56133,-19.46853 -2.5656,-56.28682 -0.005,-41.95294 0.90948,-53.77682 5.09181,-65.84496 1.11335,-3.2126 2.35104,-9.18644 2.75042,-13.2752 1.23194,-12.61245 1.30841,-12.77935 7.60435,-16.59508 6.06456,-3.67551 6.69103,-4.53002 4.3402,-5.91998 -0.79002,-0.4671 -2.93097,-2.12456 -4.75766,-3.68325 l -3.32127,-2.83395 4.60934,-9.91023 c 9.76253,-20.98977 26.66062,-45.34243 30.38385,-43.78765 0.88194,0.36829 3.51516,1.10347 5.85159,1.63374 2.33643,0.53026 5.68178,1.63929 7.43411,2.46451 1.75232,0.82521 4.02238,1.7548 5.04457,2.06576 1.06132,0.32285 1.85889,1.60464 1.85937,2.98823 4.6e-4,1.33257 1.35471,5.29031 3.00944,8.79496 1.65473,3.50465 3.33613,7.68633 3.73645,9.29263 0.58673,2.35429 1.32998,2.92055 3.83344,2.92055 6.13669,0 8.60276,-9.4799 4.28392,-16.46793 -2.72649,-4.41155 -1.59785,-5.47129 7.5416,-7.08117 6.05687,-1.06689 6.81874,-0.99752 7.81734,0.7118 4.48779,7.68185 7.77107,11.72785 9.74551,12.00944 2.91062,0.4151 6.48411,-4.03985 8.10664,-10.10631 1.14812,-4.29267 1.43412,-4.55153 4.98035,-4.50759 7.64859,0.0948 15.97548,4.59282 15.97548,8.6297 0,2.99195 6.73501,9.87346 8.86378,9.05658 0.96601,-0.37069 1.75637,-1.58628 1.75637,-2.70131 0,-1.11503 0.71686,-2.62227 1.59303,-3.34942 0.87616,-0.72715 1.59302,-2.45834 1.59302,-3.84709 0,-2.20014 0.50162,-2.525 3.89893,-2.525 2.2367,0 4.75903,0.79234 5.9164,1.85853 1.10959,1.02219 5.18241,3.5312 9.05069,5.57558 6.03925,3.19173 8.35474,5.36808 16.38366,15.39922 13.32285,16.64524 15.72422,20.42296 15.10096,23.75609 -0.36098,1.9305 0.2658,3.76075 2.02757,5.92066 l 2.55007,3.12636 3.37579,-3.84481 3.37578,-3.8448 4.73866,2.09613 c 6.02808,2.66651 27.79796,5.46963 35.70283,4.59716 6.89702,-0.76124 21.5436,1.21239 25.01765,3.37113 5.62126,3.493 9.86101,0.44032 9.86101,-7.10008 0,-4.3357 -4.32934,-6.77197 -16.97718,-9.55362 -14.23544,-3.13082 -14.14523,-3.07615 -16.28716,-9.87115 -1.96851,-6.24484 -6.28488,-12.37012 -8.71701,-12.37012 -2.30459,0 -3.04425,2.15096 -3.64829,10.60934 -0.47088,6.59393 -0.89941,8.0175 -2.50558,8.32372 -3.02763,0.57723 -5.73915,-2.68771 -6.51194,-7.84103 -0.74921,-4.99613 -4.58474,-10.53534 -8.0584,-11.63784 -1.52482,-0.48396 -2.07739,-1.61907 -2.07739,-4.26746 0,-2.56459 -0.6373,-3.9492 -2.20353,-4.78742 -2.60049,-1.39174 -10.52785,-0.33044 -11.02432,1.47591 -0.18467,0.67192 -0.88744,3.25278 -1.56171,5.73524 -0.67426,2.48247 -1.65221,4.51357 -2.17322,4.51357 -1.0497,0 -15.49309,-16.77724 -18.7017,-21.72364 -1.36805,-2.10898 -2.23933,-5.9083 -2.65632,-11.5832 -0.57257,-7.79225 -0.88167,-8.67816 -3.99995,-11.46434 -5.87165,-5.24632 -10.67906,-3.18069 -10.74625,4.61742 -0.0186,2.15593 -0.3922,4.12613 -0.83028,4.37821 -0.43809,0.25209 -4.38082,0.0393 -8.76163,-0.47297 -7.23465,-0.8459 -8.26762,-1.27177 -11.26372,-4.64372 -3.90815,-4.39844 -6.22133,-4.61825 -11.42661,-1.08585 -3.52771,2.39397 -4.35308,2.53504 -9.3203,1.59303 -2.9974,-0.56845 -7.28712,-1.03354 -9.5327,-1.03354 -4.5092,0 -4.6431,-0.23897 -5.52836,-9.86674 -0.60261,-6.5537 -3.01598,-9.24954 -8.28035,-9.24954 -5.48436,0 -6.70385,2.44783 -5.91387,11.87064 0.33409,3.9851 0.46153,7.24564 0.28318,7.24564 -0.17834,0 -2.77444,0.46466 -5.76911,1.03259 -7.03573,1.3343 -8.65126,0.65519 -8.65126,-3.63666 0,-4.45491 -2.82224,-6.95407 -7.85306,-6.95407 -5.34525,0 -8.07717,1.62905 -8.07717,4.81643 0,1.85276 -0.58267,2.61768 -1.994,2.61768 -2.49006,0 -4.80505,-2.66562 -4.04197,-4.65418 0.62173,-1.62021 13.70603,-9.93979 28.73035,-18.26802 5.18056,-2.87167 10.48526,-6.20719 11.78822,-7.41226 2.81269,-2.60138 19.25454,-12.44129 29.89308,-17.890032 7.32246,-3.750348 11.32718,-5.283026 33.86075,-12.959116 15.99344,-5.448187 33.58644,-8.371721 48.3217,-8.029908 17.37018,0.402935 32.59419,2.031503 41.60643,4.45079 4.27751,1.148277 13.03427,3.030502 19.45947,4.182722 6.42519,1.15222 14.0717,2.620458 16.99224,3.262751 2.92055,0.642295 8.34363,1.601916 12.0513,2.132494 3.70768,0.530577 12.08691,3.128155 18.62054,5.772395 6.53363,2.644234 12.42417,4.807704 13.09008,4.807704 0.66593,0 2.56169,1.10065 4.2128,2.44588 1.65111,1.34523 8.18054,5.76587 14.50983,9.82364 6.32929,4.05778 17.0822,11.85995 23.89535,17.33816 6.81315,5.47821 16.2108,12.61516 20.88367,15.85989 13.02661,9.04537 26.57889,23.31358 32.97274,34.7146 10.50617,18.73382 18.26308,37.635 24.4833,59.65822 5.72429,20.26739 5.98495,21.75016 6.96844,39.64023 0.56194,10.2219 0.964,21.21376 0.89346,24.42636 -0.15807,7.19927 -6.86062,52.91595 -8.89893,60.69769 -1.39707,5.33371 -15.20274,33.52934 -18.12041,37.00774 -0.73491,0.87616 -1.60576,2.35887 -1.93521,3.29491 -0.32945,0.93604 -2.73091,5.02789 -5.33658,9.093 -2.60566,4.0651 -5.10336,8.54362 -5.55045,9.95224 -1.78777,5.6328 -25.23836,38.53797 -29.66853,41.63002 -1.68212,1.17404 -9.38403,0.96757 -13.17261,-0.35314 -3.86608,-1.34772 -4.21675,-2.9253 -1.22049,-5.49077 2.86325,-2.4516 2.90616,-8.78023 0.0698,-10.2982 -1.12977,-0.60466 -3.82817,-1.09938 -5.9964,-1.09938 -3.21655,0 -4.89779,0.8938 -9.13317,4.8555 -2.855,2.67053 -5.72894,4.67616 -6.38652,4.45696 -2.09142,-0.69714 -5.10407,-7.54459 -5.10407,-11.60104 0,-3.55815 0.31441,-3.98157 3.45155,-4.64834 7.87734,-1.67423 9.19005,-6.32427 3.30664,-11.71325 -3.55285,-3.25429 -3.80769,-3.87683 -3.18389,-7.77781 0.37294,-2.33221 1.95536,-7.18558 3.51649,-10.78526 l 2.83844,-6.54488 -1.25282,-13.43296 c -0.68905,-7.38812 -1.25046,-15.6719 -1.24756,-18.40839 0.009,-8.21218 -1.18659,-10.04871 -7.08685,-10.88892 -2.81659,-0.40109 -7.64801,-1.65528 -10.73649,-2.7871 -7.79439,-2.85636 -11.27065,-2.67192 -13.95478,0.74042 -1.21062,1.53904 -2.20112,3.53252 -2.20112,4.42994 0,0.89743 -0.80663,2.523 -1.79251,3.61238 -1.31501,1.45307 -1.81009,4.01067 -1.85853,9.60116 -0.0636,7.34016 0.0393,7.65806 2.79655,8.6422 2.3847,0.85117 3.57617,0.52718 7.13756,-1.94085 7.56591,-5.24319 11.01399,-2.48547 11.17375,8.93657 0.0597,4.2687 -0.26357,4.91461 -3.18924,6.37209 -7.25789,3.61566 -9.90508,6.38226 -11.77113,12.30206 -2.10502,6.67788 -1.27475,10.84483 2.53979,12.74658 2.33962,1.16643 2.33717,1.17605 -0.91178,3.57811 -4.01895,2.97133 -6.24849,8.0751 -6.24849,14.30377 0,5.887 2.00417,8.07509 7.39635,8.07509 4.11969,0 5.34784,1.20309 5.34784,5.23876 0,1.03345 1.15966,4.06 2.57701,6.72568 2.02062,3.80027 2.55432,6.34284 2.47192,11.7764 -0.17168,11.32069 4.00172,13.32858 12.4699,5.99943 4.62582,-4.00362 5.06597,-4.16273 7.7642,-2.80672 1.57321,0.79064 4.5074,1.75154 6.5204,2.13534 2.01302,0.38382 5.47785,1.49986 7.69962,2.4801 4.8883,2.15672 5.24114,4.78218 1.20835,8.99151 -3.2937,3.43787 -5.32734,6.74294 -13.93645,22.64942 -6.80735,12.57749 -12.96978,29.17224 -15.57791,41.94962 -1.42031,6.95814 -5.88953,25.82971 -9.18011,38.76356 -0.59444,2.33644 -1.33998,5.44283 -1.65678,6.9031 -0.31679,1.46027 -1.71921,5.59654 -3.11649,9.1917 -5.47117,14.0773 -6.09158,19.64842 -6.24981,56.12226 -0.12292,28.33254 -0.54703,37.16136 -2.55016,53.08668 -2.19721,17.46819 -2.84523,20.22491 -7.57572,32.22756 -5.97637,15.16383 -11.34872,24.57517 -19.3007,33.81116 -3.10251,3.60349 -7.04543,8.50016 -8.76206,10.88151 -3.25486,4.51524 -17.46104,17.17596 -23.26135,20.73078 -1.84467,1.13054 -5.74347,3.57758 -8.66402,5.43786 -9.77127,6.22396 -17.74286,8.07839 -28.89586,6.72204 z m -3.56139,-26.41612 c 12.14816,-2.30386 39.96183,-24.57585 45.53832,-36.46515 4.99517,-10.64989 5.18135,-16.77856 1.52199,-50.1016 -2.4497,-22.3075 -2.40804,-63.28931 0.0783,-76.99612 1.00654,-5.54903 2.59787,-12.47868 3.53625,-15.39922 1.8756,-5.83736 8.60139,-18.58528 9.8056,-18.58528 0.41745,0 1.81763,-2.0311 3.11152,-4.51356 1.29389,-2.48246 3.98186,-7.14206 5.97324,-10.35465 5.81221,-9.37651 7.35431,-16.5364 6.519,-30.26745 -1.07915,-17.73946 -2.87756,-23.36658 -9.41847,-29.46984 -2.97284,-2.77392 -7.82369,-5.96162 -10.77968,-7.08375 -2.956,-1.12215 -9.0001,-3.72946 -13.43134,-5.79403 -9.70004,-4.51935 -16.25403,-5.59663 -39.20288,-6.44375 -16.71318,-0.61693 -17.98968,-0.51759 -27.61241,2.14879 -10.12978,2.8069 -12.1262,2.99175 -27.39094,2.53634 -16.40371,-0.4894 -27.26268,4.81468 -37.40021,18.2682 -3.50014,4.64504 -6.36389,8.98268 -6.36389,9.63922 0,0.65655 -0.99652,2.25446 -2.21449,3.55093 -2.55922,2.72417 -4.07895,12.12602 -4.10441,25.39208 -0.0335,17.42977 4.0975,28.45283 19.69531,52.55507 10.78798,16.66997 16.48615,28.08527 16.52153,33.09802 0.0138,1.95592 -0.28895,5.94575 -0.6728,8.86629 -0.63832,4.85686 -0.38066,5.79577 3.01882,11.0006 4.0382,6.18274 4.53529,8.34523 5.40535,23.5149 0.51117,8.91247 0.0801,14.20196 -2.23028,27.36365 -0.43682,2.48853 0.15807,5.03864 2.10584,9.02713 1.49304,3.05737 5.17152,11.7531 8.17439,19.32386 9.49861,23.94765 10.61788,25.94476 18.90826,33.73797 12.35809,11.61701 18.34276,13.83431 30.9081,11.45135 z M 344.24031,470.44466 c 28.37289,-1.61729 35.72214,-3.53781 39.64847,-10.36101 1.75998,-3.05852 2.11745,-7.0316 2.91436,-32.39147 1.29082,-41.07738 2.9963,-74.42211 4.24763,-83.04757 0.95077,-6.55372 0.86382,-7.56831 -0.74966,-8.74812 -2.41333,-1.76467 -8.25934,-2.81223 -11.35625,-2.03496 -4.88939,1.22716 -5.30489,4.11283 -6.13733,42.62297 -0.8434,39.01763 -2.46485,67.80882 -4.05429,71.98933 -1.64949,4.33849 -6.19603,5.15334 -32.29027,5.7872 -26.76157,0.65007 -28.03282,0.97692 -26.84769,6.90259 0.35984,1.79923 -0.0246,4.32902 -0.92167,6.06361 -0.84652,1.63699 -1.23958,3.27588 -0.87348,3.642 0.95859,0.95858 15.03333,0.79451 36.42018,-0.42457 z m 152.73722,-117.8554 c 9.8443,-2.36982 14.39192,-5.24452 18.77557,-11.86867 1.58695,-2.39805 4.38736,-5.88319 6.22312,-7.74475 1.83576,-1.86155 6.18373,-7.64877 9.66216,-12.86047 3.47844,-5.21172 8.32509,-11.86537 10.77033,-14.78591 10.0884,-12.0494 14.82459,-23.54219 13.9556,-33.8646 -0.89206,-10.59664 -4.13074,-21.78603 -9.24872,-31.95364 -4.21133,-8.3664 -5.88978,-10.4809 -13.49735,-17.00382 -16.55905,-14.1981 -25.02853,-18.02998 -38.04072,-17.21088 -10.15348,0.63914 -14.95728,1.9811 -19.77221,5.52347 -1.97567,1.45351 -4.90335,3.47962 -6.50596,4.50246 -1.60261,1.02285 -2.91685,2.64312 -2.92055,3.6006 -0.0152,3.94656 -3.68207,6.49775 -10.70514,7.44803 -3.86562,0.52304 -8.07251,1.83938 -9.70236,3.03588 -1.58265,1.16183 -3.20175,2.11242 -3.598,2.11242 -1.90363,0 -18.15619,10.49171 -23.50994,15.17667 -7.37087,6.45008 -8.29539,7.64512 -13.89545,17.96129 l -4.44078,8.18059 v 13.13246 c 0,14.74124 1.16556,20.00355 7.22822,32.63426 4.75817,9.91299 16.89013,22.56659 25.69426,26.79902 20.39253,9.80337 42.34093,12.28593 63.52792,7.18559 z M 281.86654,342.3867 c 6.56042,-2.10669 13.4226,-4.95374 15.24929,-6.32676 7.25231,-5.45116 16.62455,-15.92659 19.33795,-21.61418 2.7655,-5.7968 2.82777,-6.38434 2.76732,-26.10855 -0.0597,-19.47551 -0.16223,-20.41872 -2.94461,-27.0814 -5.89534,-14.11694 -20.70057,-34.88568 -27.25081,-38.22736 -5.38696,-2.74822 -15.05691,-5.08314 -24.43653,-5.90045 -7.62276,-0.66424 -23.90788,1.2459 -32.39148,3.7993 -1.75232,0.52741 -8.90297,1.44226 -15.89033,2.03299 -8.94687,0.7564 -15.07186,1.91989 -20.70931,3.93391 -9.70893,3.46859 -9.91604,3.61892 -13.28129,9.64001 -4.04069,7.22958 -3.37771,19.33791 2.22584,40.65184 1.45888,5.54903 3.15062,12.00077 3.75942,14.33721 0.7722,2.96349 3.02342,6.14103 7.44474,10.50804 3.4858,3.44301 8.88971,9.45833 12.0087,13.3674 11.1813,14.0137 27.18747,26.12777 37.7959,28.60536 14.12644,3.29921 22.11213,2.94355 36.3152,-1.61736 z"
     id="path26"
     transform="scale(0.75000002)" />
  <path
     style="fill:#ffffff;stroke-width:0"
     d="m 254.98026,330.29559 c -4.5987,-0.42131 -7.51234,-1.57165 -13.2752,-5.24121 -12.5819,-8.01167 -24.3024,-20.66179 -27.34276,-29.51148 -1.50609,-4.38382 -3.60858,-7.39322 -11.63556,-16.65448 -2.1904,-2.52722 -3.98255,-5.31947 -3.98255,-6.20501 0,-0.88553 -0.71074,-3.31109 -1.57941,-5.39012 -2.18562,-5.23092 -3.25163,-17.83201 -1.74645,-20.64446 1.85954,-3.47458 11.7785,-6.52804 26.94931,-8.29607 7.622,-0.88829 14.86348,-2.17183 16.09217,-2.85233 3.46196,-1.91736 34.05908,-1.69425 39.38132,0.28716 5.32207,1.98135 13.45143,12.41547 20.25634,25.99923 3.91232,7.80965 4.97519,11.20949 5.8102,18.58527 1.79923,15.89306 1.43413,19.94877 -2.53619,28.17338 -3.0205,6.25703 -4.64799,8.18569 -10.50478,12.44872 -3.81179,2.77451 -7.42073,5.04457 -8.01987,5.04457 -0.59914,0 -3.16007,0.88714 -5.69095,1.97141 -5.20168,2.22849 -13.4821,3.08187 -22.17562,2.28542 z m 0.0508,-31.86923 c 2.96379,-1.16822 6.5233,-2.12403 7.91002,-2.12403 2.85533,0 7.65245,-5.06805 8.68276,-9.17313 1.89919,-7.567 -3.9635,-21.92646 -10.23773,-25.07522 -5.2259,-2.62266 -15.83055,-2.48731 -21.23737,0.27104 -5.30247,2.70512 -10.7559,8.1387 -13.07641,13.02881 -1.72272,3.63036 -1.70855,4.06126 0.31075,9.45555 3.22379,8.6119 6.50667,12.75551 11.27491,14.23103 6.17254,1.91007 10.36854,1.75271 16.37307,-0.61405 z"
     id="path28"
     transform="scale(0.75000002)" />
  <path
     style="fill:#ffffff;stroke-width:0"
     d="m 462.12403,339.11177 c -12.31612,-2.05936 -29.92888,-10.76642 -38.42555,-18.9961 -5.56335,-5.38854 -10.90373,-23.8692 -10.24849,-35.46541 0.38921,-6.88799 0.73184,-7.84714 3.84138,-10.75325 1.96365,-1.83519 3.41406,-4.2472 3.41406,-5.67753 0,-2.81001 11.70719,-14.39777 14.54616,-14.39777 0.92451,0 2.21151,-0.66758 2.86001,-1.4835 0.64851,-0.81593 5.00235,-3.43246 9.67522,-5.81452 6.81063,-3.47181 10.36182,-4.55566 17.90064,-5.46337 5.17247,-0.6228 11.38527,-1.82257 13.8062,-2.66615 2.42093,-0.84359 5.23665,-1.54076 6.25716,-1.54926 2.32316,-0.0194 10.35771,-7.16705 10.35771,-9.21444 0,-0.83474 -1.17305,-2.69076 -2.60677,-4.12448 l -2.60676,-2.60677 3.93428,0.006 c 9.28369,0.014 18.20949,4.96729 30.6091,16.98632 9.50393,9.21224 15.2748,22.18306 15.2748,34.33224 0,6.01575 -9.99017,24.05169 -17.74914,32.04373 -1.13415,1.16822 -2.37227,2.96988 -2.7514,4.00369 -1.09679,2.99072 -9.21564,14.77891 -12.8339,18.6342 -5.14858,5.48586 -8.97894,7.36456 -20.90701,10.25436 -10.21619,2.47507 -17.65368,3.07137 -24.3477,1.95208 z m 29.34936,-32.37197 c 5.94042,0.28951 7.07368,-3.16034 7.13786,-21.7288 0.0221,-6.39422 -0.44107,-9.35499 -1.78408,-11.40468 -2.00696,-3.06302 -11.85141,-9.13886 -14.83266,-9.15449 -4.99458,-0.0262 -16.80356,9.05394 -18.88095,14.5179 -3.33735,8.77788 2.60116,22.23257 12.28566,27.83523 1.35369,0.78313 4.04991,0.96471 7.43411,0.50067 2.92055,-0.40046 6.80857,-0.65509 8.64006,-0.56583 z"
     id="path30"
     transform="scale(0.75000002)" />
  <path
     style="fill:#ffffff;stroke-width:0"
     d="m 273.30788,597.60415 c -4.39542,-5.50119 -5.02494,-36.38827 -0.83598,-41.01702 0.92146,-1.0182 1.67539,-2.3566 1.67539,-2.97423 0,-0.61762 2.82395,-4.0541 6.27545,-7.63662 l 6.27545,-6.51368 5.78019,0.67935 c 4.54909,0.53466 6.38666,0.28198 8.62762,-1.18636 3.66056,-2.39849 13.86948,-1.61045 16.66494,1.28639 2.03526,2.10908 7.35309,20.54907 7.35309,25.49744 0,4.79068 -3.13537,14.38177 -5.55826,17.0027 -3.53321,3.822 -18.67859,10.52817 -28.95724,12.82186 -14.64541,3.26814 -16.17535,3.44856 -17.30065,2.04017 z"
     id="path32"
     transform="scale(0.75000002)" />
  <path
     style="fill:#ffffff;stroke-width:0"
     d="m 406.89922,571.84211 c -2.62848,-0.75287 -6.22239,-1.40731 -7.98646,-1.45432 -4.59762,-0.12251 -16.99762,-3.72587 -24.22859,-7.04067 -5.01496,-2.29895 -6.88392,-3.91611 -9.8072,-8.48593 -4.75427,-7.43213 -6.614,-14.24979 -4.90828,-17.99346 0.69513,-1.52563 1.26387,-3.94615 1.26387,-5.37894 0,-2.54225 0.19931,-2.60507 8.26468,-2.60507 9.66148,0 14.89102,1.31454 29.67834,7.46017 10.12075,4.2062 11.00935,4.81928 13.02746,8.98814 2.43304,5.02598 4.88195,21.26306 3.83567,25.43174 -0.76192,3.03574 -1.85523,3.16474 -9.13949,1.07834 z"
     id="path34"
     transform="scale(0.75000002)" />
  <path
     style="fill:#ffffff;stroke-width:0"
     d="m 374.59092,645.60187 c -2.29069,-0.55057 -4.79362,-1.52283 -5.56206,-2.16058 -0.76844,-0.63774 -2.12011,-0.88212 -3.00371,-0.54305 -0.8836,0.33907 -1.60655,0.17601 -1.60655,-0.36236 0,-0.53838 -1.65007,-1.76187 -3.66682,-2.71889 -6.72699,-3.19216 -8.82239,-5.98967 -9.60616,-12.82489 -0.39379,-3.43422 -1.1501,-7.91671 -1.68069,-9.96109 -1.28206,-4.93982 -1.10227,-11.43393 0.43176,-15.5947 1.95456,-5.30141 7.90735,-13.07972 10.00999,-13.07972 1.04717,0 3.71883,-1.49598 5.93702,-3.3244 2.99862,-2.47172 4.34096,-3.01652 5.23345,-2.12403 0.6602,0.6602 2.98821,1.20037 5.17335,1.20037 2.18514,0 4.25128,0.45029 4.59142,1.00065 0.34014,0.55036 2.87736,1.31089 5.63826,1.69005 11.80904,1.6218 20.41904,4.94699 20.41904,7.88586 0,1.01113 -0.98383,2.72878 -2.18629,3.817 -4.8026,4.34629 -11.51703,16.91691 -13.30891,24.91666 -5.53226,24.69846 -4.79393,22.79697 -8.93115,23.00092 -2.04438,0.10079 -5.59126,-0.26723 -7.88195,-0.8178 z"
     id="path36"
     transform="scale(0.75000002)" />
  <path
     style="fill:#ffffff;stroke-width:0"
     d="m 306.75298,659.90772 c -1.55603,-1.56496 -4.99329,-10.19373 -4.99329,-12.53495 0,-3.27938 -7.45445,-18.23612 -12.13125,-24.34035 -2.17003,-2.83236 -3.70687,-5.77164 -3.41519,-6.53175 0.66537,-1.73392 17.94733,-5.8638 24.17403,-5.77687 2.55618,0.0357 7.27609,0.88766 10.48869,1.89328 l 5.84108,1.8284 0.66582,7.93036 c 0.36619,4.3617 0.99902,11.03676 1.40628,14.83346 0.70607,6.58238 0.58133,7.14171 -2.68476,12.03877 -1.88387,2.82461 -5.19767,6.30861 -7.364,7.74222 -4.19323,2.77495 -10.58289,4.33002 -11.98741,2.91743 z"
     id="path38"
     transform="scale(0.75000002)" />
  <path
     style="fill:#ffffff;stroke-width:0"
     d="m 314.43321,723.67842 c -0.97461,-1.17433 -1.61031,-7.63103 -2.11738,-21.50581 -0.39854,-10.90521 -0.90561,-20.50791 -1.12682,-21.33933 -0.48175,-1.81071 7.54101,-5.2476 12.45045,-5.33366 3.94862,-0.0692 10.01681,3.77182 11.79341,7.465 1.97135,4.09803 3.85667,17.31039 3.06911,21.50843 -0.95277,5.07871 -8.41651,16.02135 -12.75793,18.70449 -4.2037,2.59804 -9.38011,2.82727 -11.31084,0.50088 z"
     id="path40"
     transform="scale(0.75000002)" />
  <path
     style="fill:#ffffff;stroke-width:0"
     d="m 371.85271,701.02805 c -10.70163,-1.27219 -13.31589,-4.59715 -14.48454,-18.42222 l -0.6516,-7.7085 4.75769,-4.38549 c 5.58443,-5.14755 12.98666,-7.32696 19.12705,-5.63152 l 3.74183,1.03317 0.69583,13.52581 c 0.3827,7.4392 0.95971,15.31797 1.28224,17.50837 0.53464,3.63095 0.36721,3.98384 -1.89647,3.99706 -1.36558,0.008 -3.43869,0.18622 -4.60691,0.3961 -1.16822,0.20988 -4.75252,0.0691 -7.96512,-0.31278 z"
     id="path42"
     transform="scale(0.75000002)" />
  <path
     style="fill:#ffffff;stroke-width:0"
     d="m 359.5986,783.15531 c 2.7928,-6.64335 3.66979,-9.97579 3.71137,-14.10279 0.0256,-2.54417 0.77493,-7.43642 1.66509,-10.87165 1.80939,-6.98265 0.93904,-16.23159 -2.07611,-22.06225 -1.92353,-3.71969 -2.1772,-9.94721 -0.53053,-13.02404 0.89981,-1.68132 1.79166,-1.97834 4.29156,-1.42927 1.86641,0.40993 3.76893,0.18417 4.65666,-0.55258 1.02177,-0.84799 3.67457,-1.01291 8.30938,-0.51656 l 6.80843,0.72912 1.88838,8.99846 c 2.81209,13.40008 1.77646,25.23391 -2.88799,33.00008 -3.7256,6.20301 -8.62781,10.91327 -17.48099,16.7965 -7.46275,4.95925 -9.47085,5.68867 -8.35525,3.03498 z"
     id="path44"
     transform="scale(0.75000002)" />
  <path
     style="fill:#ffffff;stroke-width:0"
     d="m 333.13827,781.55794 c -4.08275,-4.51911 -12.47252,-21.34873 -14.43716,-28.96047 -0.62568,-2.42415 -1.36,-5.17984 -1.6318,-6.12375 -0.41151,-1.42906 1.07704,-1.9177 8.89676,-2.92054 15.32875,-1.96583 14.02695,-2.76609 14.02135,8.6193 -0.007,14.2262 -1.25446,33.71899 -2.15789,33.71899 -0.42689,0 -2.53796,-1.95009 -4.69126,-4.33353 z"
     id="path46"
     transform="scale(0.75000002)" />
</svg>
