<svg xmlns="http://www.w3.org/2000/svg" width="829.333" height="920" viewBox="0 0 622 690" preserveAspectRatio="xMidYMid meet"  xmlns:v="https://vecta.io/nano"><path d="M322 29.4c-6.1 1.5-24.1 6.9-28 8.4-1.4.5-5.2 2.3-8.5 3.9-3.3 1.5-8.8 3.7-12.3 4.8-3.9 1.3-6.8 2.9-7.8 4.2-.8 1.3-2.1 2.3-2.9 2.3-.7 0-2.9 1.8-4.7 4.1-4.2 5.2-7.5 8.7-11.3 12-1.7 1.4-3.4 3.2-4 4.1L232 89c-1 1.4-2.1 3.7-2.5 5-.4 1.4-1.3 3.2-2 4-.6.8-2.2 4.4-3.5 8s-2.6 6.9-3 7.5c-.4.5-1.3 2.8-2 5s-1.9 4.9-2.6 6-2.6 5.6-4.3 10c-1.7 4.5-6 13.2-9.6 19.5s-8.4 15.1-10.6 19.5l-6.7 13c-1.6 3.2-8.2 10.6-18.2 20.6-16.9 16.9-22.5 21.4-34.5 28.1-10.7 5.8-17.9 13-22.3 22-1.2 2.6-2.6 4.8-3 5-1.2.5-13.9 27.1-15.2 31.8-2.7 10.1-3.5 20.5-2.7 36 .8 16.8 1.1 19.7 1.9 22 .3.8 1.1 4.8 1.8 8.7.6 4 1.5 7.5 2 7.8.4.3 1.1 2.1 1.5 4.2.8 4.3 8.7 21.7 10.4 22.7.6.4 1.1 1.5 1.1 2.5s.9 2.6 2 3.6 2 2.3 2 2.8c0 1.2 12.3 15.1 16.5 18.7 3 2.6 4.6 4.2 12.8 12.9 2.7 2.8 5.1 5.1 5.3 5.1s2.7 2.2 5.6 4.9c7.1 6.6 14.2 11.8 20.1 15 10.2 5.5 12.4 6.6 14.9 8.3 1.5 1 4.2 2.6 6 3.6 1.8 1.1 5.3 3.1 7.8 4.6 2.5 1.4 8.6 4.6 13.6 7.1 5.1 2.4 10.5 5.5 12 6.8 1.6 1.2 5.8 4 9.4 6.2 3.6 2.1 7 4.3 7.5 4.7.6.4 4.6 3.4 9 6.7 8.7 6.4 14.8 12.5 17.7 17.5 1 1.7 5 9.3 8.8 17 3.8 7.6 7.5 14.6 8.3 15.5s2.1 2.8 2.8 4.2l4.9 9.5c5 9.7 9 16.6 11 18.9 1 1.1 1.9 2.6 2.1 3.2.8 2.6 10.6 13.1 15.7 16.9 2.9 2.1 5.9 4.4 6.5 4.9 2.9 2.6 14.9 8 22.7 10.2 21.2 6.2 20.4 6 40.3 7.4 11.8.8 17.7.7 23-.1 4-.7 9-1.4 11.2-1.7 2.2-.2 5.8-1 8-1.6s4.5-1.1 5-1.2c.6 0 1.5-.5 2-1.2.9-1.1 3-1.8 10-3 1.7-.3 4.1-1.3 5.5-2.2s3.2-2.1 4.1-2.6c11.9-7.5 17-12.5 22.8-22.8 2.5-4.2 5.4-8.7 6.5-9.9 1.2-1.3 2.1-2.6 2.1-3.1 0-.4.5-1.1 1.2-1.5.6-.4 1.5-2 1.9-3.7.7-2.8 6.2-11.7 7.7-12.3.4-.2.7-1.2.7-2.1 0-1 .9-3 2-4.4s2-3.1 2-3.9c0-.7 1.4-4 3.1-7.3 1.8-3.3 3.3-7.1 3.5-8.4.5-4.3 4.8-16.6 6.6-19 1-1.3 1.8-3 1.8-3.8 0-1.5 4.4-15.3 6-18.8.6-1.1 1.4-4.3 2-7 .6-2.8 1.7-7.3 2.5-10 6-20.8 7.4-29.4 6.8-42.5l-.6-14.3c0-1.5-.3-2.7-.7-2.7-.3 0-1.2-2.9-1.9-6.5s-1.7-6.7-2.1-7c-.5-.3-.9-1.3-.9-2.3 0-2.5-4.4-17.5-8.1-27.2-1.7-4.7-4.9-14.1-7.1-20.9s-4.9-13.7-6-15.2c-1.1-1.6-1.8-3.3-1.5-3.7.6-1.1-4.5-15.3-9-24.8-1.9-3.9-3.4-7.4-3.4-7.8 0-.3-1.6-2.9-3.5-5.6s-3.5-5.4-3.5-5.9-1.3-3.6-2.9-6.8-3.2-7.7-3.5-10c-.3-2.4-1.6-6.4-2.8-9-2.1-4.9-2.6-6-5.1-12.3-.8-1.9-2.6-8.9-4.1-15.5l-5.2-23-5.8-29c-1.9-9.9-4-19.8-4.6-22-.7-2.2-1.5-6.3-2-9-.5-2.8-1.3-6.8-2-9-.6-2.2-1.8-7.1-2.5-11-2-9.5-4.7-17.8-10.6-32l-1.4-3.5c-.5-2.2-5.6-10.6-10.3-16.9C418.7 71.6 384.1 40 378.5 40c-.9 0-2.8-.9-4.2-2s-3.1-2-3.8-2c-.6 0-2.6-.7-4.4-1.6-1.7-.9-3.7-1.7-4.4-1.8-.7-.2-1.9-.6-2.7-.9-7.5-2.9-28.8-4.2-37-2.3zM343.2 40c13.5 2.6 16.7 3.4 22.8 5.7 7.5 2.9 15.8 7.1 18 9.3.8.8 3.8 3.3 6.5 5.5 7.6 6 26 25.1 31.9 33 6.8 9.2 14.6 24.2 14.6 28.3 0 .9.7 3.7 1.6 6.2 1.8 4.9 4.7 15.9 6.9 25.5a649.65 649.65 0 0 0 3.9 17c1.4 6 3.5 16.2 4.6 22.5l8.7 44 2.3 9 1.8 8c2 8.6 2.9 11.5 4.9 16 1.1 2.5 2.4 5.6 2.8 7s1.1 2.9 1.5 3.5c.4.5 1.9 4.5 3.4 8.7 2.5 7.1 9.1 21 15.1 31.8 1.4 2.5 2.5 5.2 2.5 6 0 .9.4 2 .9 2.5.5.6 1.8 3.9 2.9 7.5 1.2 3.6 3 9 4.2 12s3.5 9.5 5.1 14.5c1.6 4.9 3.4 9.9 3.9 11 1.7 3.6 8.2 23.9 10 31l3.5 12.5c3.9 12.8 4.4 26.3 1.4 42.3-1.1 6.2-3.2 14.3-4.5 18-1.3 3.8-2.4 7.8-2.4 9 0 1.3-.7 3.3-1.6 4.5-.9 1.3-1.4 3.2-1.1 4.3.3 1 .2 1.9-.1 1.9-.4 0-1.8 3.5-3.1 7.8-1.4 4.2-3.5 9.6-4.7 11.9-1.2 2.4-2.6 5.8-2.9 7.5-.4 1.8-1.1 3.8-1.5 4.3-.5.6-1.4 3.3-2.1 6-.7 2.8-2 5.6-3 6.3-1 .6-2.3 3.8-3 6.8-.7 3.1-2.3 7.2-3.6 9.1s-2.1 3.9-1.8 4.4c.4.5-.1 1.2-.9 1.5-.9.3-1.6 1-1.6 1.6 0 .5-1.6 2.5-3.5 4.5-3.4 3.5-3.5 3.5-6 1.9-1.4-.9-2.5-1.4-2.5-1.1v1c0 .3-.9 1.4-2 2.5-2.6 2.6-2.5 5.3.2 6.5 1.2.6 2.6 1.8 3.2 2.8.9 1.5.7 2.2-1.1 3.6-1.2 1-3.1 3.5-4.3 5.6-2.9 5.1-8.2 11.5-9.7 11.5-.7 0-1.6.6-2 1.3-1.2 1.9-6.6 5.2-8 4.9-.7-.2-1.3.3-1.3 1 0 1.7-2.7 3.4-7 4.3-1.9.4-4.5 1.3-5.6 2-1.2.8-5 1.9-8.5 2.5-3.5.7-7.3 1.7-8.4 2.3-1.2.6-9.9 1.2-21 1.4-16.5.3-20.2 0-28-1.8-4.9-1.1-10.5-2.7-12.4-3.5-1.8-.8-4.6-1.4-6.1-1.4s-3.3-.7-4-1.5-1.7-1.5-2.2-1.5-4.4-1.6-8.5-3.6c-6.1-2.9-9.5-5.6-17-13.2-5.9-5.8-9.6-10.3-9.7-11.8-.2-1.3-1.2-3.4-2.3-4.7-1-1.2-2.6-3.3-3.5-4.7-2.7-4.4-13.4-23.8-14.4-26-.4-.8-1.6-2.7-2.6-4.2-1-1.4-1.8-3.3-1.8-4 0-.8-1.1-2.7-2.4-4.3-2.1-2.4-2.3-3.5-1.9-8.5.5-5.3.4-5.8-1.6-6.5-1.1-.3-2.1-.9-2.1-1.3s-1.4-2.1-3-3.9c-1.7-1.8-3-4-3-5.1 0-1-.7-3.3-1.6-5.1-2-4.1-4.4-13-3.6-13.3.4 0 1.8-.2 3.3-.3 4.4-.3 7.9-3.3 7.9-6.9-.1-3.4-2.2-12.1-3.2-13.1-.3-.4-2.3-.3-4.3.1-3.5.6-3.7.8-3.2 3.8.3 1.7.8 3.9 1.2 4.9.5 1.1.2 1.7-.8 1.7-1.8 0-2.3-1.2-3.2-7.4-.9-6 .2-7.2 7.5-8.8 5.6-1.1 5.9-1.3 5.3-3.8-.3-1.5.2-4.1 1.1-5.7.8-1.7 1.2-3.3.9-3.6-.3-.4-.7-7-.8-14.8-.1-12.2-.4-14.4-1.9-15.5-1.7-1.2-4.6-9.9-4.6-14 0-1.1-.9-2.9-2-3.9s-1.9-2.3-1.6-2.9c.2-.6-.8-2.3-2.2-3.9-2.5-2.7-2.6-2.8-.9-5.6 2.4-4.1 2.3-11.7-.3-13.1-1.5-.8-2.1-.6-3 1-.6 1.1-1.7 2-2.4 2-.8 0-1.9.7-2.6 1.5s-2 1.5-2.9 1.5c-6.2 0-3.1 17 4.5 24.8 1.8 1.8 3.5 5 4 7 .9 4.3.8 4.2 1.8 6.4.4.9.6 2.7.4 4-.2 1.8-.9 2.3-2.8 2.1-4.6-.4-6.9.6-7.6 3.2-.3 1.4-1 2.5-1.5 2.5-1.6 0-1 2.3 1.3 4.7 1.5 1.6 3.3 2.3 6 2.3 3.1 0 3.8.3 3.8 2 0 1.1-.7 2-1.5 2s-1.5.5-1.5 1.2c0 2.1-3.3 4.8-6 4.8-5 0-6.5 4-2.9 7.9 1.5 1.6 1.9 2.9 1.4 4.9-.6 2.3-.8 2.5-1.6.9-1.2-2-2.8-2.1-6.4-.5-3.5 1.6-3.4 6 .3 10.3 7 8.3 8.2 10.6 8.2 15.6 0 2.2.5 4.9 1.1 6.1 1.7 3.1.5 3.1-3.1-.2-1.9-1.7-6.3-4.4-9.9-6.2-3.6-1.7-9.8-5.5-13.7-8.4-9.5-7-15.1-10.4-16.8-10.4-.8 0-3.2-1.1-5.2-2.5s-4.2-2.5-4.9-2.5c-.6 0-2-.9-3-2s-2.3-2-2.8-2-4.7-2.5-9.2-5.5-8.8-5.5-9.7-5.5c-1.6 0-16.2-9.3-17.3-11-.3-.6-3.6-3.5-7.3-6.4-7.2-5.8-11.6-10.1-15.9-15.4-1.4-1.9-3.4-3.7-4.4-4-1.4-.6-11.2-11.4-17.7-19.7-2-2.5-8-13.4-7.6-13.8.2-.2-.2-1-1.1-1.7-.8-.7-1.5-2.1-1.5-3.1 0-1.1-.4-1.9-.9-1.9-.4 0-1.4-2.1-2.1-4.8-.7-2.6-1.7-5.2-2.1-5.7-1.1-1.5-3-10.4-3-14-.1-1.7-.5-4.1-.9-5.5-.7-2-1.8-13.9-2-23-.1-5.1 1.3-23.6 1.9-24 .4-.3 1.7-2.5 2.9-5s2.8-5.6 3.5-7c.8-1.4 2.2-4.3 3.2-6.5.9-2.2 2.1-4.7 2.6-5.5.4-.8 1.8-3.3 3-5.5 7.2-13.4 11.9-18.3 24.9-26.1 9.9-5.9 11-6.8 27.5-21.8 13.4-12.2 21.5-20.6 21.5-22.2 0-.8.4-1.4.8-1.4.5 0 2.8-3.9 5.1-8.8l5.2-10.2c.5-.8 1.8-3.3 2.9-5.5s2.4-4.7 3-5.5c2.1-3.2 10-17.1 10-17.7 0-.3 2.2-5.2 4.9-10.8 2.8-5.6 5.3-11.4 5.7-13s1.3-4 2-5.4c.8-1.4 1.4-3.2 1.4-3.9 0-.8.7-2.6 1.4-4 .8-1.5 3.1-6.3 5.1-10.6 2-4.4 4.3-8.6 5.1-9.3.8-.8 1.4-1.9 1.4-2.5 0-.5 2.1-3.5 4.7-6.5 4.5-5.3 4.8-5.5 8.6-4.9 4.6.8 8.3 2.6 11.6 5.6l2.3 2.3-3.1 1.9c-2.2 1.4-3.1 2.8-3.1 4.6.1 6.4 7.2 9 10.8 4 1.9-2.7 3.4-2.2 6.3 2 2.8 4 7.9 15.2 7.9 17.5 0 1-2.2 1.6-8.4 2-9.4.7-12.6 2.1-12.6 5.5 0 2.5 4.7 7.5 6.2 6.6.5-.3 4.6-.8 9.2-1.1l8.3-.5 1.2 12.3c.7 6.8 1.3 14.6 1.4 17.3l.2 4.9-4.4.4c-2.5.2-5.7 1.3-7.3 2.4-6.4 4.6-1.1 10.5 8.4 9.3 5.3-.7 5.2-.8 4.9 5.9-.2 3.4.9 15.6 2.5 26.9.4 3 .3 4.8-.3 4.8s-2.8.8-4.9 1.7c-2.2.9-4.4 1.6-4.9 1.5-.6-.1-1 1.6-1 3.8 0 3.1.4 4.1 2.3 4.9 3.2 1.5 4.7 1.4 9.1-.8l3.9-1.8 2.1 4.7c1.1 2.5 2.1 5.1 2.1 5.6s1.6 2.7 3.5 4.8c3.4 3.8 3.8 6 1 4.9-4.6-1.7-9.3 3.4-7.6 8.1 1 2.4 4.8 4.1 6.5 2.8.6-.5 4-.9 7.6-1.1 5.8-.2 7 .1 11 2.8 2.5 1.7 4.9 3.1 5.4 3.1s1.7.6 2.5 1.4c.9.7 3.6 2.3 6.1 3.6 2.5 1.2 5.3 2.7 6.4 3.2 1 .5 3 1.2 4.5 1.4 3.7.7 4.7 2.1 2 2.9-3.3 1.1-10.2 6.3-11.6 8.8-1.6 3.1 0 5.5 4.4 6.3 2.9.6 3.9.3 5.2-1.4.9-1.1 2.8-2.4 4.4-2.8 1.5-.3 3-1 3.3-1.5.6-1 10.9-5.9 12.5-5.9 4 0 23.5 15.2 22.2 17.3-.3.5-2.5 1.8-5 2.9-3 1.3-4.9 3-6 5.3-2 4.2-.8 6.1 4.2 7.1 2.7.5 4.1.1 6.7-1.9 4.7-3.6 8.8-4 8.8-1 0 1 .7 3.1 1.5 4.7 1.9 3.6 1.9 5.6-.1 5.6-.8 0-1.2.5-.9 1 .5.8 1.1.8 1.9.1.9-.8 2-.3 4 1.8 3.9 4 8.1 4.5 10.3 1.2s2.1-3.7-3.6-12.3c-6.3-9.6-6.8-11.1-4.2-14.4 2.2-2.8 2.9-10.6 1.1-13.4-1.2-2-6.2-.2-7.5 2.8-.5 1.2-1.4 2.2-2 2.2s-4-2.8-7.6-6.3c-3.5-3.4-8.1-7.3-10.2-8.7-2-1.4-3.5-3-3.3-3.6.3-.7-1.9-1.6-5.2-2.3-19-4.2-22.6-5.3-34.3-11.6-2.1-1.1-2.4-2.1-.9-3 1.8-1.1 1.1-4.4-1.2-5.9-1.5-.9-4.5-1.3-8.2-1.1-5.7.2-5.9.2-10-4.2-2.2-2.5-4.3-5-4.6-5.7-.3-.6-1.7-2.9-3.2-5.1-4.7-7.2-4.6-7.8 2.1-11.1 6.6-3.2 7.5-5 5.2-10.2-1.6-3.4-3.7-3.6-7.2-.6-.8.8-2.1 1.4-2.7 1.4-.7 0-1.2.4-1.2 1 0 .5-.8 1-1.9 1-2.2 0-2.8-3.5-3.8-22l-.6-12.7 3.7-2.2c2-1.3 3.9-3.3 4.2-4.6.3-1.4 1.5-2.7 2.5-3 2-.7 2.6-3 1-3.9-.4-.3-1.1-1.9-1.4-3.6-.5-2.4-1.2-3-3.2-3s-2.9.7-3.6 3c-.6 1.6-1.6 3-2.3 3-1.2 0-3.1-10.6-4.2-24.3-.7-7.5-.6-7.7 1.5-7.7 1.2 0 2-.4 1.7-.9-.4-.5.2-2.3 1.1-3.9 1.7-3 1.7-3.1-.7-5.7-1.7-1.8-3.1-2.4-4.7-2.1-1.6.5-2.3.1-2.8-1.6-.3-1.3-2-5-3.6-8.3-2.3-4.7-2.8-6.6-2.1-8.5.5-1.4.5-3.4-.1-5-1-2.6-7.5-8-9.7-8-.7 0-3.2-1.7-5.4-3.8-5.9-5.2-9.9-8.2-11.1-8.2-.5 0-2.1-.9-3.4-1.9l-2.3-1.8 5.6-4.4c3.3-2.6 9.2-5.9 14.3-7.9 4.9-1.8 9-3.7 9.3-4 .3-.4 3.4-1.7 7-3 3.6-1.2 7.4-2.6 8.5-3.1 3.1-1.3 12.6-3.9 16.5-4.5 1.9-.3 5.3-1 7.5-1.4 5.7-1.1 6.8-1.1 12.7 0zM200 249.9c-4.1.6-15 4.5-17.5 6.3-2.6 1.8-10.2 8.5-11.5 10.1-5.9 7.3-9.7 12.6-10.9 15.2-2.9 6.5-5.1 16.3-5.1 22.6 0 7.8 2.5 22.1 4.6 26 .8 1.6 1.4 3.7 1.4 4.7 0 3.8 9.9 15.3 16.8 19.5 3.1 2 8.6 4.5 18.7 8.7 6.5 2.7 13.8 4.1 17.7 3.5 8.7-1.4 21.9-6.2 26.1-9.5 2.9-2.3 10.7-10 10.7-10.6 0-.3 1.4-2.5 3-4.9 1.7-2.4 3-4.9 3-5.5s2.3-3.6 5.2-6.6c2.8-3 4.8-5.7 4.5-6.1-.4-.3-.1-1.3.5-2.1.8-.9 1.2-5.6 1.3-13.6 0-10.3-.3-12.6-2-15.7l-4-7.5c-1.1-2.1-2.3-4.1-2.7-4.2-.5-.2-.8-.8-.8-1.4 0-2.5-16-19.3-19.4-20.4-1.2-.4-3.1-1.5-4.4-2.5-2.9-2.2-11-4.6-18.2-5.4l-9-1c-1.9-.1-5.5 0-8 .4zm27 13c5.4 2 8.5 4.4 17 12.6 5.1 4.9 8.1 9.8 12.4 19.8 1.9 4.4 2.1 15.2.5 20.8-1.5 4.8-6.5 10.9-8.9 10.9-1 0-2.5.7-3.4 1.5-.8.8-2.7 1.5-4.3 1.5-3.6 0-4.8.9-5.6 3.9-.7 2.8 1.2 5.1 4.2 5.1 4 0 3.5 2.3-1.5 6.7-5.4 4.8-12.3 7.7-21.3 9.2-5.5.9-6.7.7-13.8-1.9-19.5-7.1-27.7-13.2-30.7-22.7l-2.7-8.3c-2-6.3-3.1-14.2-2.8-20.6 1.1-18.4 18.1-37.6 35.9-40.5 6.9-1.1 19.4-.1 25 2zm-12.2 32.8c-1.5.2-4.5 2.1-6.6 4.3-6.9 6.6-6.5 14.7.9 18.6 1.5.7 3.6 1.4 4.6 1.4s2.4.9 3.1 2c1 1.7 1.6 1.8 3.3 1 1.1-.6 1.7-1.5 1.5-1.9-.3-.4.6-1.3 1.9-1.9 1.4-.7 2.5-1.6 2.5-2.1 0-.6.6-.8 1.3-.5.9.3 1.7-1.1 2.5-4.6 1.5-6.6 1.5-7.1-.3-6.4-1.2.5-1.5-.2-1.5-2.9 0-2.9-.6-3.9-3.4-5.6-3.3-2.1-4.4-2.2-9.8-1.4zm120.3 29.7c-1.7 2-2 8.3-1 21.1.5 6.1 1.1 24.8 1.5 41.6.5 26.5.4 31.3-1 35.3-3 8.9-1.7 10.6 9.8 13 5.1 1 8.4 1.2 13.4.4 10.3-1.5 23.1-4.4 29-6.7 3-1.1 5.9-1.8 6.6-1.5 1.5.6 9.6-6.3 9.6-8.3 0-.8-.9-1.7-1.9-2-1.8-.5-3.3-2.5-3.5-4.8s-7.2-1.1-9.6 1.6c-.8.9-8.2 4.6-11.5 5.7-7.5 2.7-30.3 5-30.5 3.2-.1-.3-.4-14.5-.8-31.5-1-47.1-.8-56.9 1.3-61.9 1.8-4.1-8.5-8.7-11.4-5.2zM480 401c-1.4.4-3.8 1.5-5.4 2.3-1.6.9-3.4 1.3-4 1.1s-2.9.5-5.1 1.6c-2.1 1.1-4.6 2-5.5 2s-3.1 1.3-5 3c-1.9 1.6-4.1 2.9-4.8 3-.7 0-1 .4-.7 1 .5.8-2.4 5.9-4.5 8-.3.3-1.5 2.6-2.7 5.2s-3.4 5.5-4.8 6.4c-1.3.9-2.3 1.9-2 2.3.2.4-.9 2.4-2.6 4.4-3.5 4.3-9.9 13.6-9.9 14.6 0 1.4-7.6 8.4-10.4 9.7-1.7.8-4 2-5.1 2.7-1.1.6-4.2 2.6-7 4.3l-10.5 6.5c-7.4 4.7-9.1 5.7-11.8 6.8-1.2.6-2.8 1.5-3.5 2.1-4.8 4.2-25.4 19-26.3 19-.7 0-1.5.8-1.9 1.9-.3 1-1.9 3-3.5 4.5-1.7 1.4-3 3.3-3 4.1 0 .9-.7 2.7-1.6 4.1-.9 1.3-1.4 2.7-1 3.1.3.4-.1 1.7-1 3-.8 1.3-1.4 3.4-1.4 4.6.1 1.2.1 2.6 0 3.2-.6 2.8.4 7.3 2.4 10 2.9 4.1 4.6 7.4 4.6 9.1 0 .8.4 2.2.9 3.2.6.9 1.2 2.8 1.5 4.2.3 1.6 2.2 3.5 5.1 5.2 3 1.8 4.5 3.4 4.5 4.8 0 1.1.6 2 1.3 2 .6 0 3.2 1.9 5.6 4.1 3.9 3.6 15.2 10.1 22.4 12.8 1.5.6 2.7 1.5 2.7 2 0 3.1 18.6 7.6 29.5 7.2 7.4-.2 10.8-1.4 16.3-5.9 2.4-1.9 4.5-3.2 4.8-3 .5.6 8.4-6.8 8.4-7.9 0-.9 4.8-3.3 6.6-3.3.7 0 1.7-.6 2.1-1.3.9-1.5 5.4-4.2 9.5-5.6 1.5-.6 3.4-2.5 4.3-4.5 1-2 2.3-3.6 2.9-3.6 2 0 4.2-3.4 5.6-8.5.7-2.8 2.1-6.8 3.2-8.9 1-2.2 1.8-4.6 1.8-5.4 0-.7.5-2.3 1.2-3.5s1.1-3.2.9-4.4c-.1-1.1.3-2.4.8-2.8.6-.3 1.1-1.4 1.1-2.3s1.1-3.9 2.5-6.6 2.5-6.5 2.5-8.3c0-1.9 1.1-5.8 2.4-8.6l4.5-9.9c1.1-2.6 2.1-5.4 2.1-6.2s1-2.6 2.3-3.8c1.2-1.3 3.3-3.9 4.7-5.7 1.4-1.9 3-4 3.7-4.6 2.4-2.5 5.3-8.1 5.3-10.5 0-1.4.7-3.4 1.6-4.5 1.1-1.5 1.4-3.5.9-8.5-.7-7.6-2.5-16.1-3.7-17.5-.4-.5-.8-2.1-.8-3.5s-.4-3-.9-3.6c-.5-.5-1.6-3.5-2.6-6.6-2.1-6.8-8.5-13.3-14-14.4-1.9-.3-3.9-1.2-4.6-2-.6-.8-2.2-1.4-3.5-1.4-1.5 0-2.4-.6-2.4-1.5 0-1.6-1.2-1.8-5-.5zm-7.4 16.5c-1.2 4.7-2.6 7.5-3.7 7.5-.8 0-.9.3 0 1.4 1.4 1.7.6 12.1-1.6 19.6-2 7.3-6.2 16-7.5 16-.6 0-1.9.6-2.7 1.4-.9.8-3.9 1.6-6.6 1.9-5.4.5-6.4 0-11.4-5.6l-2.4-2.7 1.9-3.5c1-1.9 2.3-3.5 2.9-3.5.5 0 1.9-1.5 3-3.4 11.4-19.2 15.7-24.8 21.5-28.3 6.6-3.9 7.4-4 6.6-.8zm21.6-.1c3.1 1.7 4.5 3.3 5.5 6.2.7 2.2 1.7 4.8 2.3 5.9 1.4 2.9 3.2 10.3 3.7 15.7.3 2.7.9 4.8 1.4 4.8s.6 1.2.3 2.7c-.9 3.7-1.1 3.8-2.9 2.3-2.1-1.8-11.7-5-12.8-4.3-.4.3-1.9.2-3.2-.1-3.2-.8-5.9-6-5-9.5.4-1.4 1.1-5.1 1.6-8.1 2.4-15.4 3-18 4.4-18 .3 0 2.3 1.1 4.7 2.4zm-8.8 47.1c1.9 1.7 4.3 2.7 8.2 3.1 6.2.8 7.6 2 4.7 4.3-2 1.6-8.3 10.6-8.3 11.9 0 1.4-5.5 13.8-7.8 17.5-2.2 3.6-2.5 3.8-4.1 2.3-1-.9-2.2-1.6-2.7-1.6-.6 0-2.2-1.2-3.5-2.8-6.9-7.4-9.6-17.5-6.3-22.8 3.2-5.2 13.4-14 16.5-14.3.3-.1 1.8 1 3.3 2.4zm-51.1 8.8c2 1.6 3.7 3.5 3.7 4.2s.6 1.5 1.4 1.8 3.1 3.1 5 6.2c3.5 5.4 3.6 5.7 2.5 10.3-1.3 5.5-3.7 11.2-4.7 11.2-.4 0-1.3 1.2-2 2.7-.6 1.6-3 4.3-5.3 6.2-3.5 2.9-4.8 3.3-9.7 3.4-5.3 0-6.4-.4-13-4.9-4-2.6-7.2-5.3-7.2-5.9s-1-1.5-2.2-2c-1.3-.6-2.7-2.4-3.2-4.3-.5-1.7-1.5-3.2-2.2-3.2-.8 0-1.4-1-1.4-2.3s-.5-2.8-1.1-3.4c-.9-.9-.4-1.9 2.1-4 1.8-1.5 4-3.2 4.9-3.7 14.8-8 23.5-13.3 24.4-14.7 1.3-2 2.9-1.6 8 2.4zm-50.4 29.3c.8 2.6 2.5 5.6 3.8 6.7 1.2 1.1 2.3 2.7 2.3 3.6 0 .8.7 2.2 1.5 3 1.6 1.9 3.6 12.7 2.7 15.1-1.5 3.9-14.3 15-17.3 15-1.4 0-7.1 3-9.2 4.8-1 .9-3.9 1.7-6.5 1.8-4.4.2-4.9 0-7.9-3.7-4.8-6-6.9-12.2-5.6-17 .7-2.6.7-4.1 0-4.8s.9-2.7 4.8-6.3c3.3-2.9 6.8-6.2 8-7.4 1.1-1.1 2.7-2.3 3.5-2.6.8-.4 5.1-3.4 9.4-6.7 4.4-3.4 8.3-6.1 8.6-6.1s1.2 2.1 1.9 4.6zm88.6 13.1c1.9 1.6 3.5 3.5 3.5 4.3 0 1.8-1.9 7.8-6 19l-4.3 11.9c-1.5 4.6-6.9 8.6-9.4 7.1-2.9-1.9-7.3-8.6-8.8-13.7-1.7-5.5-2.2-19.2-.8-20.2.5-.3 1.2-1.4 1.6-2.4.3-.9 1.2-1.7 1.9-1.7s2.4-1.6 3.6-3.4c1.3-1.9 3.4-3.7 4.5-4 4.6-1 10.8.4 14.2 3.1zm-83 43.3c.3.5 1.4 1 2.5 1 1 0 2.1.7 2.4 1.6s1.2 1.4 2 1.1 2.2.3 3.2 1.4c.9 1 1.3 1.9.9 1.9-.5 0 .4 1.3 1.9 2.9 2.2 2.3 2.8 3.9 2.9 7.9.1 2.8.6 5.4 1 5.8s.7 2.1.7 3.7c0 2.5-.3 2.9-2.2 2.4-5.8-1.4-12.6-4.3-15.1-6.4-1.6-1.3-3.7-2.3-4.7-2.3-.9 0-2.3-.7-3-1.5s-1.6-1.5-2.1-1.5c-1.3 0-12.9-8-12.9-8.9 0-.5 1.3-1.4 3-2.1 1.6-.7 4-2.3 5.4-3.6 1.3-1.4 4.4-2.9 6.7-3.3 6.1-1.2 6.7-1.2 7.4-.1zm50.5 0c2.5 1.3 6.7 8.3 5.3 8.7-.6.2-2.1 1.3-3.3 2.3-1.2 1.1-3.1 2.2-4.1 2.5-1.1.4-1.9 1-1.9 1.5 0 1.2-6.8 4.7-9.5 5-3.9.4-5.3 0-5.8-2-.4-1.8-.2-2 1.6-1.4 2.1.6 2.1.6.5-1.3-2.4-2.6-2.3-3.5.7-6.3 1.4-1.3 2.5-2.9 2.5-3.6s1.2-2.5 2.7-3.9c2.9-2.7 7.9-3.3 11.3-1.5z"/><path d="M377.352 621.806c-3.884-.819-9.279-2.237-11.99-3.153s-5.632-1.664-6.491-1.664-6.394-2.356-12.299-5.236c-10.081-4.916-11.272-5.754-19.504-13.707-5.699-5.506-9.388-9.781-10.54-12.214-.975-2.059-2.939-5.369-4.364-7.354s-6.297-10.29-10.826-18.453c-10.292-18.553-10.383-18.723-10.389-19.474-.002-.34-.935-2.025-2.072-3.743-1.64-2.478-2.04-4.008-1.937-7.404.196-6.467.106-6.943-1.411-7.445-3.918-1.295-8.544-9.833-12.261-22.631l-1.433-4.934 3.552-.533c1.954-.293 4.506-1.353 5.672-2.356 1.741-1.498 2.11-2.481 2.064-5.508-.06-3.94-2.185-12.267-3.309-12.961-.373-.231-2.264-.145-4.202.191-3.241.562-3.521.801-3.496 2.986.015 1.307.277 3.549.582 4.983s.23 2.608-.166 2.608c-1.044 0-2.424-4.669-2.583-8.743-.185-4.728.734-5.38 10.765-7.639 1.937-.436 2.206-.873 2.206-3.571 0-1.691.367-4.126.815-5.412.53-1.519.593-7.669.181-17.57-.578-13.886-.79-15.446-2.403-17.64-.973-1.324-2.367-4.934-3.099-8.023s-1.646-6.338-2.033-7.221c-1.292-2.948-4.752-8.813-5.853-9.92-.916-.922-.85-1.619.419-4.413 3.343-7.362.009-17.064-4.144-12.06-.587.708-1.805 1.629-2.706 2.047s-3.082 1.583-4.847 2.589l-3.209 1.829.083 5.952c.096 6.91 1.61 10.911 6.655 17.586 3.41 4.512 6.83 13.723 6.349 17.1-.205 1.44-.917 1.831-3.97 2.182-3.718.428-6.309 1.832-6.309 3.418 0 .463-.57 1.472-1.267 2.242-.976 1.079-1.07 1.77-.406 3.01 1.554 2.903 4.938 4.943 8.2 4.943 3.286 0 4.292 1.661 1.839 3.034-.694.389-1.695 1.58-2.225 2.647-.603 1.216-2.307 2.39-4.566 3.144-1.982.662-4.05 1.496-4.595 1.853-1.465.959-1.197 3.839.613 6.572.877 1.324 1.596 3.228 1.599 4.231.005 1.755-.069 1.775-1.977.525-1.842-1.207-2.198-1.194-5.015.182-4.191 2.047-4.575 5.767-1.067 10.335 6.998 9.114 8.076 11.186 8.778 16.869.378 3.062.552 5.719.385 5.905s-1.114-.405-2.105-1.313-5.232-3.553-9.424-5.877-11.594-7.023-16.448-10.44-10.27-6.827-12.035-7.577a90.58 90.58 0 0 1-5.616-2.634l-5.641-2.93c-1.778-.912-4.125-2.305-5.215-3.094-4.256-3.082-16.664-10.483-21.237-12.667-10.443-4.988-23.541-15.654-41.721-33.975-6.619-6.671-14.382-15.065-17.25-18.656-5.622-7.036-14.353-23.546-17.959-33.96-4.25-12.273-6.842-37.688-5.516-54.091l.87-10.765 8.188-16.313c13.378-26.655 16.829-31.035 31.831-40.4 10.643-6.644 12.606-8.212 28.886-23.076 13.143-12 20.293-19.442 20.293-21.124 0-.505.575-1.396 1.278-1.979s3.565-5.624 6.359-11.201 7.877-14.983 11.293-20.901c7.37-12.768 17.479-34.205 21.153-44.859 2.286-6.628 8.749-20.278 13.625-28.775 2.113-3.682 8.801-11.944 10.059-12.427 2.598-.997 10.018 1.74 14.349 5.292l2.297 1.884-2.898 2.211c-2.355 1.796-2.898 2.736-2.898 5.014 0 3.236 2.93 6.742 5.633 6.742 2.068 0 4.972-1.455 5.84-2.925 1.852-3.135 4.954.126 9.749 10.249 3.212 6.781 4.149 9.384 3.449 9.582-.11.031-3.894.526-8.408 1.1-4.634.589-9.088 1.62-10.23 2.369-2.851 1.868-2.634 4.849.587 8.07 2.523 2.523 2.756 2.589 7.02 1.984 2.426-.344 6.609-.652 9.295-.684l4.884-.059 1.351 15.846 1.334 16.849c-.01.599-1.098 1.003-2.705 1.003-5.906 0-11.753 3.462-11.753 6.96 0 3.951 5.146 6.226 12.837 5.677l2.808-.201.534 9.648c.294 5.307.926 12.463 1.404 15.904 1.551 11.148 1.557 11.128-3.749 12.852-5.912 1.922-6.613 2.539-6.613 5.821 0 5.596 6.167 7.717 12.719 4.375l3.028-1.545 2.216 5.695c1.219 3.132 3.452 7.204 4.964 9.049s2.748 3.587 2.748 3.873-1.224.519-2.719.519c-5.74 0-8.698 5.853-5.083 10.056l1.974 2.295 5.213-.961c9.055-1.668 10.689-1.372 19.069 3.457 11.343 6.537 19.338 10.556 22.255 11.189 2.414.523 4.464 2.045 2.756 2.045-.417 0-2.975 1.48-5.685 3.29-7.321 4.889-9.121 9.696-4.43 11.833 3.411 1.554 7.091 1.135 9.134-1.04 1.015-1.08 2.879-2.191 4.142-2.469s2.525-.874 2.804-1.325c.757-1.225 10.088-5.473 12.024-5.474 3.428-.002 21.185 13.167 21.185 15.711 0 .611-1.818 2.032-4.041 3.158-6.404 3.245-9.16 9.347-5.409 11.975 2.871 2.011 7.253 1.551 11.728-1.231 4.733-2.942 6.677-2.817 7.441.479.306 1.321 1.041 3.602 1.634 5.068.962 2.379.927 2.75-.324 3.45-2.085 1.167-1.702 2.554.584 2.117 1.313-.251 2.468.153 3.408 1.192 3.618 3.997 8.591 4.858 11.315 1.957 2.615-2.783 2.171-4.914-2.603-12.498-6.598-10.482-6.67-10.713-4.613-14.831 2.093-4.191 2.399-11.761.55-13.609-1.648-1.648-4.414-.835-6.967 2.048-1.176 1.328-2.502 2.284-2.946 2.125-1.014-.364-15.627-13.019-19.153-16.587-2.331-2.359-4.026-3.004-15.073-5.741-11.865-2.94-24.148-7.728-26.216-10.221-.689-.831-.687-1.337.011-2.035 1.522-1.522 1.064-3.594-1.185-5.364-1.716-1.349-3.258-1.663-8.183-1.663h-6.069l-3.651-3.899c-4.215-4.501-11.273-15.335-11.273-17.303 0-.736 1.119-1.953 2.487-2.704 6.667-3.663 8.745-5.695 8.745-8.548 0-1.776-.698-3.56-1.96-5.01l-1.96-2.251-4.458 2.379c-2.452 1.308-4.458 2.662-4.458 3.009s-.528.63-1.173.63c-.679 0-1.505-1.265-1.963-3.009-.719-2.737-2.783-30.751-2.289-31.075.116-.076 1.535-.934 3.155-1.908s3.689-3.03 4.598-4.571 2.202-3.012 2.872-3.269 1.219-1.121 1.219-1.92c0-2.412-2.961-8.539-4.393-9.089-1.848-.709-4.361.792-5.254 3.139-.409 1.076-1.088 1.957-1.509 1.957-1.363 0-4.088-17.503-4.088-26.255 0-3.502.243-4.233 1.408-4.233 1.296 0 1.78-.906 3.906-7.304.631-1.9-2.935-5.578-6.021-6.209-2.444-.5-2.967-1.165-5.786-7.359-2.424-5.326-3.103-7.808-3.117-11.395-.016-3.952-.356-4.97-2.461-7.367-1.343-1.53-4.037-3.554-5.987-4.498s-6.115-3.868-9.256-6.499-7.311-5.535-9.267-6.455-3.743-1.974-3.971-2.343c-.715-1.156 7.772-7.27 14.476-10.429 25.718-12.118 46.529-18.633 59.372-18.588 10.156.036 31.088 6.125 41.32 12.02 7.887 4.544 32.678 28.052 41.673 39.518 7.796 9.937 14.341 22.194 16.754 31.379a530.32 530.32 0 0 0 3.585 12.787c3.387 11.458 10.65 44.02 15.024 67.357 2.275 12.135 6.127 30.549 8.562 40.919 3.834 16.331 5.405 21.324 11.738 37.308 4.021 10.149 10.153 24.05 13.627 30.89s6.775 13.7 7.337 15.244l7.58 21.262 10.116 28.204c4.091 11.218 12.6 40.035 14.413 48.811 2.557 12.378 1.307 30.071-3.315 46.944l-3.516 12.837c-.785 2.868-1.795 6.298-2.243 7.622l-3.016 9.227c-1.21 3.751-3.402 9.652-4.872 13.114s-4.118 10.477-5.886 15.59-3.781 9.921-4.473 10.687-1.937 3.569-2.765 6.229-2.424 6.65-3.547 8.867-2.042 4.366-2.042 4.776c0 .694-1.07 2.075-6.504 8.397-1.973 2.296-2.231 2.375-4.58 1.402-2.331-.966-2.618-.886-4.524 1.259-3.484 3.922-3.52 5.824-.159 8.52 3.218 2.582 3.596 3.851 1.63 5.482-.714.593-3.02 3.616-5.124 6.717s-4.679 6.476-5.722 7.498c-4.087 4.003-10.025 8.277-12.103 8.71-1.2.25-2.391 1.111-2.645 1.912-.262.825-2.099 2.028-4.236 2.775l-7.785 2.82c-6.667 2.498-17.274 4.985-24.07 5.645-12.262 1.191-32.295.765-39.957-.85zm48.031-23.182c1.793-.814 5.086-2.792 7.317-4.395s4.412-2.914 4.846-2.914 2.782-2.123 5.219-4.718c2.721-2.899 5.588-5.1 7.432-5.709 1.651-.545 3.719-1.708 4.596-2.584s3.547-2.488 5.935-3.581 4.969-2.918 5.735-4.054 2.915-3.545 4.774-5.352c2.992-2.908 3.891-4.748 7.823-16.019 2.443-7.003 4.442-13.701 4.442-14.883s.289-2.493.643-2.912c1.359-1.61 5.742-13.806 6.484-18.037.428-2.441 2.104-7.315 3.725-10.831s3.609-8.273 4.417-10.569c.856-2.434 3.596-6.785 6.57-10.43 7.141-8.755 8.167-10.375 10.311-16.283 3.672-10.118 1.967-24.287-5.158-42.872-3.095-8.072-6.277-12.207-11.346-14.741-8.04-4.019-9.668-4.744-11.834-5.268-1.214-.293-2.206-1.068-2.206-1.722 0-1.683-1.795-1.484-7.617.845-2.795 1.118-6.828 2.529-8.962 3.135-10.993 3.12-17.83 7.313-20.644 12.662-3.82 7.259-7.882 13.868-10.211 16.617-3.51 4.142-11.306 15.091-13.831 19.425-2.509 4.307-8.663 10.322-12.623 12.337-1.504.765-9.052 5.271-16.774 10.013l-16.775 10.013c-1.504.766-4.934 3.119-7.622 5.23s-8.859 6.612-13.713 10.003c-12.919 9.024-16.107 13.238-20.856 27.575-2.178 6.575-1.365 12.268 2.719 19.04 1.812 3.004 3.294 6.014 3.294 6.689 0 2.172 2.624 8.445 4.332 10.357.912 1.02 2.805 2.565 4.208 3.431s2.924 2.65 3.382 3.962 1.147 2.385 1.532 2.385 3.199 1.991 6.252 4.424 9.346 6.311 13.983 8.617 9.6 5.175 11.029 6.374c6.367 5.346 31.223 8.355 39.175 4.744zm-57.137-163.312c5.229-1.066 12.63-2.851 16.448-3.966s7.955-2.236 9.195-2.493c2.735-.565 9.38-6.507 9.38-8.386 0-.743-1.083-2.152-2.407-3.131s-2.407-2.298-2.407-2.931c0-2.045-2.893-2.959-6.388-2.018-1.745.47-3.394 1.213-3.666 1.653-.712 1.152-8.924 5.14-13.615 6.612-5.49 1.723-13.98 2.975-21.663 3.194l-6.419.183-.543-12.035c-1.095-24.266-1.094-75.18.002-78.868.564-1.897.8-4.158.526-5.023-.733-2.31-4.77-4.089-8.64-3.807-2.835.207-3.469.585-4.125 2.46-.505 1.444-.435 11.501.202 28.884 1.389 37.941 1.276 62.866-.314 69.002-1.574 6.076-1.088 8.078 2.359 9.714 7.237 3.434 18.302 3.764 32.074.955zM224.941 364.16c10.372-3.314 14.086-5.293 19.973-10.642 4.261-3.872 12.324-15.02 12.332-17.052.002-.381 2.078-3.09 4.613-6.02 5.986-6.916 6.714-9.524 6.694-23.985l-.016-11.543-3.252-6.231c-8.675-16.624-18.433-27.284-30.525-33.348-13.139-6.589-32.639-7.771-45.368-2.749-8.044 3.174-16.069 9.707-22.622 18.42-6.271 8.337-6.882 9.393-8.887 15.374-3.213 9.584-3.858 17.379-2.317 27.988 1.197 8.239 4.028 18.89 6.34 23.858 1.564 3.361 7.949 10.639 12.231 13.943 4.635 3.576 21.308 11.456 28.145 13.302 6.96 1.879 13.927 1.476 22.656-1.314zm-23.251-11.919c-12.061-4.483-18.402-8.037-23.528-13.185-4.502-4.521-5.057-5.49-7.409-12.911-3.195-10.081-4.172-15.242-4.172-22.028 0-15.569 11.205-32.438 26.264-39.538 7.329-3.456 13.726-4.336 23.57-3.244 11.065 1.228 15.846 3.653 25.29 12.828 6.276 6.097 7.793 8.128 11.198 14.995 3.8 7.664 3.949 8.224 4.217 15.928.215 6.164-.04 8.817-1.116 11.636-1.609 4.213-6.352 9.824-8.304 9.824-.733 0-2.215.618-3.294 1.374s-3.411 1.568-5.183 1.805c-2.566.344-3.452.912-4.352 2.793-.975 2.036-.973 2.643.017 4.413.639 1.143 2.025 2.171 3.127 2.32 3.651.495 3.613 1.6-.179 5.233-4.201 4.026-10.175 7.146-17.066 8.916-6.976 1.791-11.957 1.489-19.08-1.159zm20.495-30.805c1.487-1.487 3.662-3.332 4.833-4.099 1.269-.831 2.424-2.576 2.859-4.317 1.839-7.368 1.841-7.445.163-7.884-1.152-.301-1.661-1.219-1.837-3.317-.529-6.285-11.103-8.986-17.587-4.493-3.144 2.179-6.586 6.677-7.525 9.834-1.551 5.213 2.6 11.318 8.748 12.866 1.864.469 4.053 1.587 4.864 2.484 1.955 2.161 2.318 2.09 5.481-1.073zm132.104 227.592c-1.435-1.635-3.481-4.876-4.546-7.202-1.68-3.669-1.883-5.057-1.535-10.467l.402-6.237 6.268-5.808c5.472-5.07 23.893-19.015 26.434-20.011.512-.201 1.473 1.294 2.195 3.414.707 2.074 2.282 5.075 3.501 6.67 3.784 4.949 5.935 10.523 6.382 16.538l.418 5.616-5.099 5.014c-5.35 5.262-10.358 9.026-12.008 9.026-.537 0-3.608 1.444-6.825 3.209-7.984 4.382-11.896 4.442-15.587.237zm44.967 37.435c-2.427-.871-6.097-2.629-8.155-3.907s-4.579-2.588-5.601-2.913-2.768-1.203-3.88-1.953l-7.838-5.109c-6.052-3.897-6.823-4.91-4.338-5.699.813-.258 3.383-1.89 5.711-3.627 2.667-1.99 5.761-3.475 8.363-4.015 3.612-.75 4.556-.652 7.527.784 1.868.903 3.397 1.97 3.397 2.372s.956.845 2.125.984 2.522.976 3.007 1.859 1.733 2.804 2.773 4.27c1.178 1.659 2.188 4.688 2.675 8.023l1.206 7.965c.514 3.169-.459 3.304-6.973.966zm19.459-68.94c-6.722-3.051-18.657-12.953-18.657-15.478 0-.63-.724-1.8-1.608-2.6s-2.001-2.914-2.481-4.698c-.845-3.139-.788-3.312 1.809-5.436 1.475-1.206 6.653-4.453 11.507-7.215 7.65-4.353 15.065-8.958 18.468-11.469.682-.503 2.311.223 5.107 2.275 2.258 1.658 4.106 3.322 4.106 3.699s1.437 2.345 3.193 4.375 4.117 5.266 5.246 7.193c1.918 3.272 1.989 3.76 1.089 7.391-1.918 7.734-6.248 14.881-11.996 19.801-4.782 4.093-9.963 4.803-15.782 2.162zm2.738 60.419c-1.017-1.017-.529-1.872 1.07-1.872 1.903 0 2.073-1.019.401-2.407-1.697-1.408-1.474-2.416 1.236-5.586 1.306-1.528 2.374-3.175 2.374-3.661s1.043-1.882 2.317-3.103c2.916-2.794 8.026-3.661 10.813-1.835 2.245 1.471 5.632 6.618 5.013 7.618-.232.376-1.973 1.726-3.867 3.001s-4.481 3.153-5.748 4.175c-4.227 3.409-11.823 5.457-13.61 3.67zM454 554.897c-1.313-1.496-3.397-4.783-4.631-7.305-1.897-3.878-2.301-5.879-2.616-12.962-.316-7.108-.146-8.796 1.12-11.148.821-1.525 1.783-2.772 2.137-2.772s2.394-1.805 4.532-4.012c3.157-3.258 4.396-4.011 6.594-4.007 4.389.008 8.573 1.516 11.618 4.19 3.573 3.137 3.543 3.335-3.324 22.253-4.018 11.069-5.632 14.542-7.566 16.277-3.228 2.897-4.97 2.783-7.864-.513zm22.21-53.018c-9.098-5.967-14.166-19.629-9.64-25.986 2.626-3.688 12.157-12.128 14.303-12.667 1.312-.329 2.466.038 3.674 1.169 2.158 2.021 4.617 2.973 9.565 3.699 2.086.306 3.987.871 4.224 1.255s-1.289 2.981-3.391 5.772-5.39 8.787-7.306 13.327c-3.767 8.925-7.167 15.441-8.018 15.366-.293-.026-1.828-.896-3.41-1.934zm-30.419-37.072c-.662-.248-2.9-2.091-4.973-4.096-4.276-4.134-4.253-4.395.894-10.12 1.629-1.812 5.58-7.529 8.78-12.706 6.956-11.251 12.137-17.134 17.808-20.221l4.199-2.285-.544 2.319c-.772 3.29-2.199 6.732-2.793 6.733-.277.001-.541 3.701-.587 8.224-.066 6.605-.502 9.485-2.215 14.641-3.362 10.119-5.234 13.178-9.35 15.28-3.768 1.924-9.17 2.999-11.219 2.231zm58.106-10.672c-1.359-1.359-10.092-4.03-13.178-4.03-3.184 0-4.963-1.39-6.307-4.926-.609-1.602-.22-5.298 1.604-15.243 1.325-7.22 2.732-13.458 3.127-13.862.432-.441 2.251.212 4.558 1.636 3.5 2.161 4.103 3.015 6.827 9.666 2.608 6.367 4.384 13.627 6.003 24.534.454 3.06-.768 4.092-2.635 2.225z" fill="#fff"/></svg>